<?xml version="1.0" encoding="utf-8" standalone="no"?>
<!DOCTYPE svg PUBLIC "-//W3C//DTD SVG 1.1//EN"
  "http://www.w3.org/Graphics/SVG/1.1/DTD/svg11.dtd">
<!-- Created with matplotlib (https://matplotlib.org/) -->
<svg height="360pt" version="1.1" viewBox="0 0 360 360" width="360pt" xmlns="http://www.w3.org/2000/svg" xmlns:xlink="http://www.w3.org/1999/xlink">
 <defs>
  <style type="text/css">
*{stroke-linecap:butt;stroke-linejoin:round;}
  </style>
 </defs>
 <g id="figure_1">
  <g id="patch_1">
   <path d="M 0 360 
L 360 360 
L 360 0 
L 0 0 
z
" style="fill:#ffffff;"/>
  </g>
  <g id="patch_2">
   <path d="M 45 315 
L 324 315 
L 324 43.2 
L 45 43.2 
z
" style="fill:#ffffff;"/>
  </g>
  <g id="axes_1">
   <g id="Poly3DCollection_1">
    <path clip-path="url(#pdd96e0e592)" d="M 206.345648 217.128751 
L 205.485738 213.456559 
L 207.616766 216.079738 
z
" style="stroke:#000000;"/>
    <path clip-path="url(#pdd96e0e592)" d="M 205.485738 140.819 
L 206.345648 137.145674 
L 207.616766 138.19301 
z
" style="stroke:#000000;"/>
    <path clip-path="url(#pdd96e0e592)" d="M 206.345648 217.128751 
L 203.4171 215.806949 
L 205.485738 213.456559 
z
" style="stroke:#000000;"/>
    <path clip-path="url(#pdd96e0e592)" d="M 203.4171 138.471337 
L 206.345648 137.145674 
L 205.485738 140.819 
z
" style="stroke:#000000;"/>
    <path clip-path="url(#pdd96e0e592)" d="M 209.823635 216.180536 
L 206.345648 217.128751 
L 207.616766 216.079738 
z
" style="stroke:#000000;"/>
    <path clip-path="url(#pdd96e0e592)" d="M 203.4171 215.806949 
L 206.345648 217.128751 
L 205.134231 217.917453 
z
" style="stroke:#000000;"/>
    <path clip-path="url(#pdd96e0e592)" d="M 206.345648 137.145674 
L 203.4171 138.471337 
L 205.134231 136.358569 
z
" style="stroke:#000000;"/>
    <path clip-path="url(#pdd96e0e592)" d="M 209.823635 138.100689 
L 205.485738 140.819 
L 207.616766 138.19301 
z
" style="stroke:#000000;"/>
    <path clip-path="url(#pdd96e0e592)" d="M 208.550448 137.05071 
L 207.616766 138.19301 
L 206.345648 137.145674 
z
" style="stroke:#000000;"/>
    <path clip-path="url(#pdd96e0e592)" d="M 207.689137 213.55093 
L 207.616766 216.079738 
L 205.485738 213.456559 
z
" style="stroke:#000000;"/>
    <path clip-path="url(#pdd96e0e592)" d="M 203.4171 215.806949 
L 202.612152 209.0786 
L 205.485738 213.456559 
z
" style="stroke:#000000;"/>
    <path clip-path="url(#pdd96e0e592)" d="M 202.612152 145.200747 
L 203.4171 138.471337 
L 205.485738 140.819 
z
" style="stroke:#000000;"/>
    <path clip-path="url(#pdd96e0e592)" d="M 208.550448 217.2322 
L 205.134231 217.917453 
L 206.345648 217.128751 
z
" style="stroke:#000000;"/>
    <path clip-path="url(#pdd96e0e592)" d="M 207.337057 136.261607 
L 206.345648 137.145674 
L 205.134231 136.358569 
z
" style="stroke:#000000;"/>
    <path clip-path="url(#pdd96e0e592)" d="M 207.616766 138.19301 
L 208.550448 137.05071 
L 209.823635 138.100689 
z
" style="stroke:#000000;"/>
    <path clip-path="url(#pdd96e0e592)" d="M 207.616766 216.079738 
L 207.689137 213.55093 
L 209.823635 216.180536 
z
" style="stroke:#000000;"/>
    <path clip-path="url(#pdd96e0e592)" d="M 206.345648 217.128751 
L 209.823635 216.180536 
L 208.550448 217.2322 
z
" style="stroke:#000000;"/>
    <path clip-path="url(#pdd96e0e592)" d="M 203.4171 138.471337 
L 207.337057 136.261607 
L 205.134231 136.358569 
z
" style="stroke:#000000;"/>
    <path clip-path="url(#pdd96e0e592)" d="M 202.612152 209.0786 
L 207.689137 213.55093 
L 205.485738 213.456559 
z
" style="stroke:#000000;"/>
    <path clip-path="url(#pdd96e0e592)" d="M 200.355014 211.148079 
L 202.612152 209.0786 
L 203.4171 215.806949 
z
" style="stroke:#000000;"/>
    <path clip-path="url(#pdd96e0e592)" d="M 202.612152 145.200747 
L 200.355014 143.134245 
L 203.4171 138.471337 
z
" style="stroke:#000000;"/>
    <path clip-path="url(#pdd96e0e592)" d="M 205.485738 140.819 
L 209.823635 138.100689 
L 207.689137 140.733119 
z
" style="stroke:#000000;"/>
    <path clip-path="url(#pdd96e0e592)" d="M 205.134231 217.917453 
L 205.617122 215.907233 
L 203.4171 215.806949 
z
" style="stroke:#000000;"/>
    <path clip-path="url(#pdd96e0e592)" d="M 206.345648 137.145674 
L 207.337057 136.261607 
L 208.550448 137.05071 
z
" style="stroke:#000000;"/>
    <path clip-path="url(#pdd96e0e592)" d="M 205.485738 140.819 
L 204.810858 145.125657 
L 202.612152 145.200747 
z
" style="stroke:#000000;"/>
    <path clip-path="url(#pdd96e0e592)" d="M 205.134231 217.917453 
L 208.550448 217.2322 
L 207.337057 218.022908 
z
" style="stroke:#000000;"/>
    <path clip-path="url(#pdd96e0e592)" d="M 200.355014 211.148079 
L 200.120095 204.336162 
L 202.612152 209.0786 
z
" style="stroke:#000000;"/>
    <path clip-path="url(#pdd96e0e592)" d="M 200.120095 149.946471 
L 200.355014 143.134245 
L 202.612152 145.200747 
z
" style="stroke:#000000;"/>
    <path clip-path="url(#pdd96e0e592)" d="M 205.617122 215.907233 
L 205.134231 217.917453 
L 207.337057 218.022908 
z
" style="stroke:#000000;"/>
    <path clip-path="url(#pdd96e0e592)" d="M 200.355014 143.134245 
L 205.617122 138.379558 
L 203.4171 138.471337 
z
" style="stroke:#000000;"/>
    <path clip-path="url(#pdd96e0e592)" d="M 204.810858 145.125657 
L 205.485738 140.819 
L 207.689137 140.733119 
z
" style="stroke:#000000;"/>
    <path clip-path="url(#pdd96e0e592)" d="M 208.550448 137.05071 
L 207.689137 140.733119 
L 209.823635 138.100689 
z
" style="stroke:#000000;"/>
    <path clip-path="url(#pdd96e0e592)" d="M 207.689137 213.55093 
L 208.550448 217.2322 
L 209.823635 216.180536 
z
" style="stroke:#000000;"/>
    <path clip-path="url(#pdd96e0e592)" d="M 207.337057 136.261607 
L 203.4171 138.471337 
L 205.617122 138.379558 
z
" style="stroke:#000000;"/>
    <path clip-path="url(#pdd96e0e592)" d="M 200.120095 204.336162 
L 204.810858 209.1622 
L 202.612152 209.0786 
z
" style="stroke:#000000;"/>
    <path clip-path="url(#pdd96e0e592)" d="M 197.699121 206.100536 
L 200.120095 204.336162 
L 200.355014 211.148079 
z
" style="stroke:#000000;"/>
    <path clip-path="url(#pdd96e0e592)" d="M 200.120095 149.946471 
L 197.699121 148.18529 
L 200.355014 143.134245 
z
" style="stroke:#000000;"/>
    <path clip-path="url(#pdd96e0e592)" d="M 207.689137 213.55093 
L 202.612152 209.0786 
L 204.810858 209.1622 
z
" style="stroke:#000000;"/>
    <path clip-path="url(#pdd96e0e592)" d="M 203.4171 215.806949 
L 202.550023 211.236897 
L 200.355014 211.148079 
z
" style="stroke:#000000;"/>
    <path clip-path="url(#pdd96e0e592)" d="M 202.612152 145.200747 
L 202.314718 149.88311 
L 200.120095 149.946471 
z
" style="stroke:#000000;"/>
    <path clip-path="url(#pdd96e0e592)" d="M 208.550448 137.05071 
L 205.617122 138.379558 
L 207.689137 140.733119 
z
" style="stroke:#000000;"/>
    <path clip-path="url(#pdd96e0e592)" d="M 205.617122 215.907233 
L 208.550448 217.2322 
L 207.689137 213.55093 
z
" style="stroke:#000000;"/>
    <path clip-path="url(#pdd96e0e592)" d="M 200.120095 204.336162 
L 197.699121 206.100536 
L 198.03916 199.282669 
z
" style="stroke:#000000;"/>
    <path clip-path="url(#pdd96e0e592)" d="M 197.699121 148.18529 
L 200.120095 149.946471 
L 198.03916 155.002708 
z
" style="stroke:#000000;"/>
    <path clip-path="url(#pdd96e0e592)" d="M 205.617122 138.379558 
L 208.550448 137.05071 
L 207.337057 136.261607 
z
" style="stroke:#000000;"/>
    <path clip-path="url(#pdd96e0e592)" d="M 208.550448 217.2322 
L 205.617122 215.907233 
L 207.337057 218.022908 
z
" style="stroke:#000000;"/>
    <path clip-path="url(#pdd96e0e592)" d="M 202.550023 211.236897 
L 203.4171 215.806949 
L 205.617122 215.907233 
z
" style="stroke:#000000;"/>
    <path clip-path="url(#pdd96e0e592)" d="M 202.314718 149.88311 
L 202.612152 145.200747 
L 204.810858 145.125657 
z
" style="stroke:#000000;"/>
    <path clip-path="url(#pdd96e0e592)" d="M 205.617122 138.379558 
L 204.810858 145.125657 
L 207.689137 140.733119 
z
" style="stroke:#000000;"/>
    <path clip-path="url(#pdd96e0e592)" d="M 204.810858 209.1622 
L 205.617122 215.907233 
L 207.689137 213.55093 
z
" style="stroke:#000000;"/>
    <path clip-path="url(#pdd96e0e592)" d="M 197.699121 148.18529 
L 202.550023 143.053951 
L 200.355014 143.134245 
z
" style="stroke:#000000;"/>
    <path clip-path="url(#pdd96e0e592)" d="M 198.03916 199.282669 
L 202.314718 204.40805 
L 200.120095 204.336162 
z
" style="stroke:#000000;"/>
    <path clip-path="url(#pdd96e0e592)" d="M 195.481102 200.720665 
L 198.03916 199.282669 
L 197.699121 206.100536 
z
" style="stroke:#000000;"/>
    <path clip-path="url(#pdd96e0e592)" d="M 198.03916 155.002708 
L 195.481102 153.568086 
L 197.699121 148.18529 
z
" style="stroke:#000000;"/>
    <path clip-path="url(#pdd96e0e592)" d="M 205.617122 138.379558 
L 200.355014 143.134245 
L 202.550023 143.053951 
z
" style="stroke:#000000;"/>
    <path clip-path="url(#pdd96e0e592)" d="M 204.810858 209.1622 
L 200.120095 204.336162 
L 202.314718 204.40805 
z
" style="stroke:#000000;"/>
    <path clip-path="url(#pdd96e0e592)" d="M 198.03916 199.282669 
L 195.481102 200.720665 
L 196.39417 193.975197 
z
" style="stroke:#000000;"/>
    <path clip-path="url(#pdd96e0e592)" d="M 195.481102 153.568086 
L 198.03916 155.002708 
L 196.39417 160.31235 
z
" style="stroke:#000000;"/>
    <path clip-path="url(#pdd96e0e592)" d="M 200.120095 149.946471 
L 200.230366 154.951879 
L 198.03916 155.002708 
z
" style="stroke:#000000;"/>
    <path clip-path="url(#pdd96e0e592)" d="M 200.355014 211.148079 
L 199.889767 206.176881 
L 197.699121 206.100536 
z
" style="stroke:#000000;"/>
    <path clip-path="url(#pdd96e0e592)" d="M 202.550023 143.053951 
L 204.810858 145.125657 
L 205.617122 138.379558 
z
" style="stroke:#000000;"/>
    <path clip-path="url(#pdd96e0e592)" d="M 204.810858 209.1622 
L 202.550023 211.236897 
L 205.617122 215.907233 
z
" style="stroke:#000000;"/>
    <path clip-path="url(#pdd96e0e592)" d="M 196.39417 193.975197 
L 200.230366 199.342038 
L 198.03916 199.282669 
z
" style="stroke:#000000;"/>
    <path clip-path="url(#pdd96e0e592)" d="M 193.727611 195.069624 
L 196.39417 193.975197 
L 195.481102 200.720665 
z
" style="stroke:#000000;"/>
    <path clip-path="url(#pdd96e0e592)" d="M 196.39417 160.31235 
L 193.727611 159.221438 
L 195.481102 153.568086 
z
" style="stroke:#000000;"/>
    <path clip-path="url(#pdd96e0e592)" d="M 199.889767 206.176881 
L 200.355014 211.148079 
L 202.550023 211.236897 
z
" style="stroke:#000000;"/>
    <path clip-path="url(#pdd96e0e592)" d="M 200.230366 154.951879 
L 200.120095 149.946471 
L 202.314718 149.88311 
z
" style="stroke:#000000;"/>
    <path clip-path="url(#pdd96e0e592)" d="M 196.39417 193.975197 
L 193.727611 195.069624 
L 195.204839 188.474175 
z
" style="stroke:#000000;"/>
    <path clip-path="url(#pdd96e0e592)" d="M 193.727611 159.221438 
L 196.39417 160.31235 
L 195.204839 165.81494 
z
" style="stroke:#000000;"/>
    <path clip-path="url(#pdd96e0e592)" d="M 195.481102 153.568086 
L 199.889767 148.117486 
L 197.699121 148.18529 
z
" style="stroke:#000000;"/>
    <path clip-path="url(#pdd96e0e592)" d="M 198.03916 155.002708 
L 198.582667 160.274711 
L 196.39417 160.31235 
z
" style="stroke:#000000;"/>
    <path clip-path="url(#pdd96e0e592)" d="M 202.550023 143.053951 
L 202.314718 149.88311 
L 204.810858 145.125657 
z
" style="stroke:#000000;"/>
    <path clip-path="url(#pdd96e0e592)" d="M 202.314718 204.40805 
L 202.550023 211.236897 
L 204.810858 209.1622 
z
" style="stroke:#000000;"/>
    <path clip-path="url(#pdd96e0e592)" d="M 202.314718 204.40805 
L 198.03916 199.282669 
L 200.230366 199.342038 
z
" style="stroke:#000000;"/>
    <path clip-path="url(#pdd96e0e592)" d="M 202.550023 143.053951 
L 197.699121 148.18529 
L 199.889767 148.117486 
z
" style="stroke:#000000;"/>
    <path clip-path="url(#pdd96e0e592)" d="M 197.699121 206.100536 
L 197.668095 200.783674 
L 195.481102 200.720665 
z
" style="stroke:#000000;"/>
    <path clip-path="url(#pdd96e0e592)" d="M 195.204839 188.474175 
L 192.459729 189.211859 
L 194.485472 182.842624 
z
" style="stroke:#000000;"/>
    <path clip-path="url(#pdd96e0e592)" d="M 192.459729 165.080876 
L 195.204839 165.81494 
L 194.485472 171.447439 
z
" style="stroke:#000000;"/>
    <path clip-path="url(#pdd96e0e592)" d="M 195.204839 188.474175 
L 198.582667 194.021386 
L 196.39417 193.975197 
z
" style="stroke:#000000;"/>
    <path clip-path="url(#pdd96e0e592)" d="M 192.459729 189.211859 
L 195.204839 188.474175 
L 193.727611 195.069624 
z
" style="stroke:#000000;"/>
    <path clip-path="url(#pdd96e0e592)" d="M 195.204839 165.81494 
L 192.459729 165.080876 
L 193.727611 159.221438 
z
" style="stroke:#000000;"/>
    <path clip-path="url(#pdd96e0e592)" d="M 191.6928 171.079114 
L 194.485472 171.447439 
L 194.244702 177.14519 
z
" style="stroke:#000000;"/>
    <path clip-path="url(#pdd96e0e592)" d="M 194.485472 182.842624 
L 191.6928 183.214631 
L 194.244702 177.14519 
z
" style="stroke:#000000;"/>
    <path clip-path="url(#pdd96e0e592)" d="M 196.39417 160.31235 
L 197.391375 165.790992 
L 195.204839 165.81494 
z
" style="stroke:#000000;"/>
    <path clip-path="url(#pdd96e0e592)" d="M 198.582667 160.274711 
L 198.03916 155.002708 
L 200.230366 154.951879 
z
" style="stroke:#000000;"/>
    <path clip-path="url(#pdd96e0e592)" d="M 199.889767 148.117486 
L 202.314718 149.88311 
L 202.550023 143.053951 
z
" style="stroke:#000000;"/>
    <path clip-path="url(#pdd96e0e592)" d="M 202.314718 204.40805 
L 199.889767 206.176881 
L 202.550023 211.236897 
z
" style="stroke:#000000;"/>
    <path clip-path="url(#pdd96e0e592)" d="M 191.6928 183.214631 
L 194.485472 182.842624 
L 192.459729 189.211859 
z
" style="stroke:#000000;"/>
    <path clip-path="url(#pdd96e0e592)" d="M 194.485472 171.447439 
L 191.6928 171.079114 
L 192.459729 165.080876 
z
" style="stroke:#000000;"/>
    <path clip-path="url(#pdd96e0e592)" d="M 194.485472 182.842624 
L 197.391375 188.50668 
L 195.204839 188.474175 
z
" style="stroke:#000000;"/>
    <path clip-path="url(#pdd96e0e592)" d="M 193.727611 159.221438 
L 197.668095 153.513633 
L 195.481102 153.568086 
z
" style="stroke:#000000;"/>
    <path clip-path="url(#pdd96e0e592)" d="M 197.668095 200.783674 
L 197.699121 206.100536 
L 199.889767 206.176881 
z
" style="stroke:#000000;"/>
    <path clip-path="url(#pdd96e0e592)" d="M 200.230366 199.342038 
L 196.39417 193.975197 
L 198.582667 194.021386 
z
" style="stroke:#000000;"/>
    <path clip-path="url(#pdd96e0e592)" d="M 195.204839 165.81494 
L 196.670821 171.437521 
L 194.485472 171.447439 
z
" style="stroke:#000000;"/>
    <path clip-path="url(#pdd96e0e592)" d="M 191.436126 177.147042 
L 194.244702 177.14519 
L 191.6928 183.214631 
z
" style="stroke:#000000;"/>
    <path clip-path="url(#pdd96e0e592)" d="M 194.244702 177.14519 
L 191.436126 177.147042 
L 191.6928 171.079114 
z
" style="stroke:#000000;"/>
    <path clip-path="url(#pdd96e0e592)" d="M 194.244702 177.14519 
L 196.670821 182.861105 
L 194.485472 182.842624 
z
" style="stroke:#000000;"/>
    <path clip-path="url(#pdd96e0e592)" d="M 194.485472 171.447439 
L 196.429654 177.149472 
L 194.244702 177.14519 
z
" style="stroke:#000000;"/>
    <path clip-path="url(#pdd96e0e592)" d="M 195.481102 200.720665 
L 195.911708 195.118589 
L 193.727611 195.069624 
z
" style="stroke:#000000;"/>
    <path clip-path="url(#pdd96e0e592)" d="M 202.314718 149.88311 
L 199.889767 148.117486 
L 200.230366 154.951879 
z
" style="stroke:#000000;"/>
    <path clip-path="url(#pdd96e0e592)" d="M 199.889767 206.176881 
L 202.314718 204.40805 
L 200.230366 199.342038 
z
" style="stroke:#000000;"/>
    <path clip-path="url(#pdd96e0e592)" d="M 199.889767 148.117486 
L 195.481102 153.568086 
L 197.668095 153.513633 
z
" style="stroke:#000000;"/>
    <path clip-path="url(#pdd96e0e592)" d="M 197.391375 165.790992 
L 196.39417 160.31235 
L 198.582667 160.274711 
z
" style="stroke:#000000;"/>
    <path clip-path="url(#pdd96e0e592)" d="M 192.372991 140.730238 
L 187.681928 134.127287 
L 194.712211 140.036588 
z
" style="stroke:#000000;"/>
    <path clip-path="url(#pdd96e0e592)" d="M 194.712211 140.036588 
L 187.681928 151.568732 
L 192.372991 140.730238 
z
" style="stroke:#000000;"/>
    <path clip-path="url(#pdd96e0e592)" d="M 198.582667 194.021386 
L 195.204839 188.474175 
L 197.391375 188.50668 
z
" style="stroke:#000000;"/>
    <path clip-path="url(#pdd96e0e592)" d="M 192.459729 165.080876 
L 195.911708 159.181041 
L 193.727611 159.221438 
z
" style="stroke:#000000;"/>
    <path clip-path="url(#pdd96e0e592)" d="M 193.727611 195.069624 
L 194.641729 189.246238 
L 192.459729 189.211859 
z
" style="stroke:#000000;"/>
    <path clip-path="url(#pdd96e0e592)" d="M 196.670821 171.437521 
L 195.204839 165.81494 
L 197.391375 165.790992 
z
" style="stroke:#000000;"/>
    <path clip-path="url(#pdd96e0e592)" d="M 197.668095 153.513633 
L 200.230366 154.951879 
L 199.889767 148.117486 
z
" style="stroke:#000000;"/>
    <path clip-path="url(#pdd96e0e592)" d="M 200.230366 199.342038 
L 197.668095 200.783674 
L 199.889767 206.176881 
z
" style="stroke:#000000;"/>
    <path clip-path="url(#pdd96e0e592)" d="M 195.911708 195.118589 
L 195.481102 200.720665 
L 197.668095 200.783674 
z
" style="stroke:#000000;"/>
    <path clip-path="url(#pdd96e0e592)" d="M 197.391375 188.50668 
L 194.485472 182.842624 
L 196.670821 182.861105 
z
" style="stroke:#000000;"/>
    <path clip-path="url(#pdd96e0e592)" d="M 200.230366 154.951879 
L 197.668095 153.513633 
L 198.582667 160.274711 
z
" style="stroke:#000000;"/>
    <path clip-path="url(#pdd96e0e592)" d="M 197.668095 200.783674 
L 200.230366 199.342038 
L 198.582667 194.021386 
z
" style="stroke:#000000;"/>
    <path clip-path="url(#pdd96e0e592)" d="M 196.429654 177.149472 
L 194.485472 171.447439 
L 196.670821 171.437521 
z
" style="stroke:#000000;"/>
    <path clip-path="url(#pdd96e0e592)" d="M 191.6928 171.079114 
L 194.641729 165.055072 
L 192.459729 165.080876 
z
" style="stroke:#000000;"/>
    <path clip-path="url(#pdd96e0e592)" d="M 187.681928 151.568732 
L 194.712211 140.036588 
L 187.681928 157.382546 
z
" style="stroke:#000000;"/>
    <path clip-path="url(#pdd96e0e592)" d="M 196.670821 182.861105 
L 194.244702 177.14519 
L 196.429654 177.149472 
z
" style="stroke:#000000;"/>
    <path clip-path="url(#pdd96e0e592)" d="M 197.668095 153.513633 
L 193.727611 159.221438 
L 195.911708 159.181041 
z
" style="stroke:#000000;"/>
    <path clip-path="url(#pdd96e0e592)" d="M 192.459729 189.211859 
L 193.87353 183.234059 
L 191.6928 183.214631 
z
" style="stroke:#000000;"/>
    <path clip-path="url(#pdd96e0e592)" d="M 191.436126 177.147042 
L 193.87353 171.068267 
L 191.6928 171.079114 
z
" style="stroke:#000000;"/>
    <path clip-path="url(#pdd96e0e592)" d="M 191.6928 183.214631 
L 193.616431 177.151333 
L 191.436126 177.147042 
z
" style="stroke:#000000;"/>
    <path clip-path="url(#pdd96e0e592)" d="M 187.681928 134.127287 
L 192.372991 140.730238 
L 187.681928 137.034194 
z
" style="stroke:#000000;"/>
    <path clip-path="url(#pdd96e0e592)" d="M 194.641729 189.246238 
L 193.727611 195.069624 
L 195.911708 195.118589 
z
" style="stroke:#000000;"/>
    <path clip-path="url(#pdd96e0e592)" d="M 195.911708 159.181041 
L 198.582667 160.274711 
L 197.668095 153.513633 
z
" style="stroke:#000000;"/>
    <path clip-path="url(#pdd96e0e592)" d="M 198.582667 194.021386 
L 195.911708 195.118589 
L 197.668095 200.783674 
z
" style="stroke:#000000;"/>
    <path clip-path="url(#pdd96e0e592)" d="M 194.554847 140.643701 
L 187.681928 137.034194 
L 192.372991 140.730238 
z
" style="stroke:#000000;"/>
    <path clip-path="url(#pdd96e0e592)" d="M 187.681928 151.568732 
L 194.554847 140.643701 
L 192.372991 140.730238 
z
" style="stroke:#000000;"/>
    <path clip-path="url(#pdd96e0e592)" d="M 198.582667 160.274711 
L 195.911708 159.181041 
L 197.391375 165.790992 
z
" style="stroke:#000000;"/>
    <path clip-path="url(#pdd96e0e592)" d="M 195.911708 195.118589 
L 198.582667 194.021386 
L 197.391375 188.50668 
z
" style="stroke:#000000;"/>
    <path clip-path="url(#pdd96e0e592)" d="M 195.911708 159.181041 
L 192.459729 165.080876 
L 194.641729 165.055072 
z
" style="stroke:#000000;"/>
    <path clip-path="url(#pdd96e0e592)" d="M 194.712211 140.036588 
L 189.855998 134.024096 
L 196.897934 139.9484 
z
" style="stroke:#000000;"/>
    <path clip-path="url(#pdd96e0e592)" d="M 189.855998 157.337461 
L 194.712211 140.036588 
L 196.897934 139.9484 
z
" style="stroke:#000000;"/>
    <path clip-path="url(#pdd96e0e592)" d="M 193.87353 183.234059 
L 192.459729 189.211859 
L 194.641729 189.246238 
z
" style="stroke:#000000;"/>
    <path clip-path="url(#pdd96e0e592)" d="M 189.855998 134.024096 
L 194.712211 140.036588 
L 187.681928 134.127287 
z
" style="stroke:#000000;"/>
    <path clip-path="url(#pdd96e0e592)" d="M 194.712211 140.036588 
L 189.855998 157.337461 
L 187.681928 157.382546 
z
" style="stroke:#000000;"/>
    <path clip-path="url(#pdd96e0e592)" d="M 194.641729 165.055072 
L 191.6928 171.079114 
L 193.87353 171.068267 
z
" style="stroke:#000000;"/>
    <path clip-path="url(#pdd96e0e592)" d="M 197.391375 165.790992 
L 194.641729 165.055072 
L 196.670821 171.437521 
z
" style="stroke:#000000;"/>
    <path clip-path="url(#pdd96e0e592)" d="M 194.641729 189.246238 
L 197.391375 188.50668 
L 196.670821 182.861105 
z
" style="stroke:#000000;"/>
    <path clip-path="url(#pdd96e0e592)" d="M 194.641729 165.055072 
L 197.391375 165.790992 
L 195.911708 159.181041 
z
" style="stroke:#000000;"/>
    <path clip-path="url(#pdd96e0e592)" d="M 197.391375 188.50668 
L 194.641729 189.246238 
L 195.911708 195.118589 
z
" style="stroke:#000000;"/>
    <path clip-path="url(#pdd96e0e592)" d="M 193.616431 177.151333 
L 191.6928 183.214631 
L 193.87353 183.234059 
z
" style="stroke:#000000;"/>
    <path clip-path="url(#pdd96e0e592)" d="M 193.87353 171.068267 
L 191.436126 177.147042 
L 193.616431 177.151333 
z
" style="stroke:#000000;"/>
    <path clip-path="url(#pdd96e0e592)" d="M 193.87353 183.234059 
L 196.670821 182.861105 
L 196.429654 177.149472 
z
" style="stroke:#000000;"/>
    <path clip-path="url(#pdd96e0e592)" d="M 196.670821 171.437521 
L 193.87353 171.068267 
L 196.429654 177.149472 
z
" style="stroke:#000000;"/>
    <path clip-path="url(#pdd96e0e592)" d="M 193.87353 171.068267 
L 196.670821 171.437521 
L 194.641729 165.055072 
z
" style="stroke:#000000;"/>
    <path clip-path="url(#pdd96e0e592)" d="M 196.670821 182.861105 
L 193.87353 183.234059 
L 194.641729 189.246238 
z
" style="stroke:#000000;"/>
    <path clip-path="url(#pdd96e0e592)" d="M 182.973959 140.605194 
L 187.681928 134.127287 
L 187.681928 137.034194 
z
" style="stroke:#000000;"/>
    <path clip-path="url(#pdd96e0e592)" d="M 193.616431 177.151333 
L 196.429654 177.149472 
L 193.87353 171.068267 
z
" style="stroke:#000000;"/>
    <path clip-path="url(#pdd96e0e592)" d="M 196.429654 177.149472 
L 193.616431 177.151333 
L 193.87353 183.234059 
z
" style="stroke:#000000;"/>
    <path clip-path="url(#pdd96e0e592)" d="M 180.613607 139.8451 
L 187.681928 151.568732 
L 187.681928 157.382546 
z
" style="stroke:#000000;"/>
    <path clip-path="url(#pdd96e0e592)" d="M 189.855998 134.024096 
L 194.554847 140.643701 
L 196.897934 139.9484 
z
" style="stroke:#000000;"/>
    <path clip-path="url(#pdd96e0e592)" d="M 189.855998 151.509119 
L 196.897934 139.9484 
L 194.554847 140.643701 
z
" style="stroke:#000000;"/>
    <path clip-path="url(#pdd96e0e592)" d="M 187.681928 137.034194 
L 194.554847 140.643701 
L 189.855998 136.938266 
z
" style="stroke:#000000;"/>
    <path clip-path="url(#pdd96e0e592)" d="M 194.554847 140.643701 
L 187.681928 151.568732 
L 189.855998 151.509119 
z
" style="stroke:#000000;"/>
    <path clip-path="url(#pdd96e0e592)" d="M 189.855998 136.938266 
L 182.973959 140.605194 
L 187.681928 137.034194 
z
" style="stroke:#000000;"/>
    <path clip-path="url(#pdd96e0e592)" d="M 182.973959 140.605194 
L 189.855998 151.509119 
L 187.681928 151.568732 
z
" style="stroke:#000000;"/>
    <path clip-path="url(#pdd96e0e592)" d="M 187.681928 151.568732 
L 180.613607 139.8451 
L 182.973959 140.605194 
z
" style="stroke:#000000;"/>
    <path clip-path="url(#pdd96e0e592)" d="M 187.681928 134.127287 
L 182.973959 140.605194 
L 180.613607 139.8451 
z
" style="stroke:#000000;"/>
    <path clip-path="url(#pdd96e0e592)" d="M 189.855998 151.509119 
L 189.855998 157.337461 
L 196.897934 139.9484 
z
" style="stroke:#000000;"/>
    <path clip-path="url(#pdd96e0e592)" d="M 181.086018 177.153865 
L 183.91691 177.151999 
L 183.658703 183.238615 
z
" style="stroke:#000000;"/>
    <path clip-path="url(#pdd96e0e592)" d="M 183.91691 177.151999 
L 181.086018 177.153865 
L 183.658703 171.065724 
z
" style="stroke:#000000;"/>
    <path clip-path="url(#pdd96e0e592)" d="M 189.855998 134.024096 
L 189.855998 136.938266 
L 194.554847 140.643701 
z
" style="stroke:#000000;"/>
    <path clip-path="url(#pdd96e0e592)" d="M 180.842766 182.881447 
L 183.658703 183.238615 
L 182.886589 189.26246 
z
" style="stroke:#000000;"/>
    <path clip-path="url(#pdd96e0e592)" d="M 183.658703 171.065724 
L 180.842766 171.426604 
L 182.886589 165.042897 
z
" style="stroke:#000000;"/>
    <path clip-path="url(#pdd96e0e592)" d="M 180.842766 171.426604 
L 183.658703 171.065724 
L 181.086018 177.153865 
z
" style="stroke:#000000;"/>
    <path clip-path="url(#pdd96e0e592)" d="M 183.658703 183.238615 
L 180.842766 182.881447 
L 181.086018 177.153865 
z
" style="stroke:#000000;"/>
    <path clip-path="url(#pdd96e0e592)" d="M 183.658703 171.065724 
L 186.0847 177.156315 
L 183.91691 177.151999 
z
" style="stroke:#000000;"/>
    <path clip-path="url(#pdd96e0e592)" d="M 183.91691 177.151999 
L 185.826061 183.258163 
L 183.658703 183.238615 
z
" style="stroke:#000000;"/>
    <path clip-path="url(#pdd96e0e592)" d="M 180.115444 188.549745 
L 182.886589 189.26246 
L 181.608136 195.160951 
z
" style="stroke:#000000;"/>
    <path clip-path="url(#pdd96e0e592)" d="M 182.886589 165.042897 
L 180.115444 165.759266 
L 181.608136 159.146092 
z
" style="stroke:#000000;"/>
    <path clip-path="url(#pdd96e0e592)" d="M 182.886589 189.26246 
L 180.115444 188.549745 
L 180.842766 182.881447 
z
" style="stroke:#000000;"/>
    <path clip-path="url(#pdd96e0e592)" d="M 180.115444 165.759266 
L 182.886589 165.042897 
L 180.842766 171.426604 
z
" style="stroke:#000000;"/>
    <path clip-path="url(#pdd96e0e592)" d="M 182.886589 165.042897 
L 185.826061 171.05481 
L 183.658703 171.065724 
z
" style="stroke:#000000;"/>
    <path clip-path="url(#pdd96e0e592)" d="M 187.681928 134.127287 
L 182.775864 139.755954 
L 189.855998 134.024096 
z
" style="stroke:#000000;"/>
    <path clip-path="url(#pdd96e0e592)" d="M 182.775864 139.755954 
L 187.681928 157.382546 
L 189.855998 157.337461 
z
" style="stroke:#000000;"/>
    <path clip-path="url(#pdd96e0e592)" d="M 183.658703 183.238615 
L 185.052655 189.297092 
L 182.886589 189.26246 
z
" style="stroke:#000000;"/>
    <path clip-path="url(#pdd96e0e592)" d="M 182.775864 139.755954 
L 187.681928 134.127287 
L 180.613607 139.8451 
z
" style="stroke:#000000;"/>
    <path clip-path="url(#pdd96e0e592)" d="M 187.681928 157.382546 
L 182.775864 139.755954 
L 180.613607 139.8451 
z
" style="stroke:#000000;"/>
    <path clip-path="url(#pdd96e0e592)" d="M 181.608136 159.146092 
L 185.052655 165.016904 
L 182.886589 165.042897 
z
" style="stroke:#000000;"/>
    <path clip-path="url(#pdd96e0e592)" d="M 181.608136 195.160951 
L 178.911193 194.099727 
L 180.115444 188.549745 
z
" style="stroke:#000000;"/>
    <path clip-path="url(#pdd96e0e592)" d="M 178.911193 160.210871 
L 181.608136 159.146092 
L 180.115444 165.759266 
z
" style="stroke:#000000;"/>
    <path clip-path="url(#pdd96e0e592)" d="M 182.973959 140.605194 
L 189.855998 136.938266 
L 185.140172 140.518032 
z
" style="stroke:#000000;"/>
    <path clip-path="url(#pdd96e0e592)" d="M 189.855998 151.509119 
L 182.973959 140.605194 
L 185.140172 140.518032 
z
" style="stroke:#000000;"/>
    <path clip-path="url(#pdd96e0e592)" d="M 178.911193 194.099727 
L 181.608136 195.160951 
L 179.835912 200.872579 
z
" style="stroke:#000000;"/>
    <path clip-path="url(#pdd96e0e592)" d="M 181.608136 159.146092 
L 178.911193 160.210871 
L 179.835912 153.4368 
z
" style="stroke:#000000;"/>
    <path clip-path="url(#pdd96e0e592)" d="M 182.886589 189.26246 
L 183.772061 195.210373 
L 181.608136 195.160951 
z
" style="stroke:#000000;"/>
    <path clip-path="url(#pdd96e0e592)" d="M 189.855998 134.024096 
L 185.140172 140.518032 
L 189.855998 136.938266 
z
" style="stroke:#000000;"/>
    <path clip-path="url(#pdd96e0e592)" d="M 185.826061 183.258163 
L 183.91691 177.151999 
L 186.0847 177.156315 
z
" style="stroke:#000000;"/>
    <path clip-path="url(#pdd96e0e592)" d="M 186.0847 177.156315 
L 183.658703 171.065724 
L 185.826061 171.05481 
z
" style="stroke:#000000;"/>
    <path clip-path="url(#pdd96e0e592)" d="M 185.052655 189.297092 
L 183.658703 183.238615 
L 185.826061 183.258163 
z
" style="stroke:#000000;"/>
    <path clip-path="url(#pdd96e0e592)" d="M 179.835912 153.4368 
L 183.772061 159.105317 
L 181.608136 159.146092 
z
" style="stroke:#000000;"/>
    <path clip-path="url(#pdd96e0e592)" d="M 180.842766 182.881447 
L 183.249067 177.158191 
L 181.086018 177.153865 
z
" style="stroke:#000000;"/>
    <path clip-path="url(#pdd96e0e592)" d="M 189.855998 151.509119 
L 182.775864 139.755954 
L 189.855998 157.337461 
z
" style="stroke:#000000;"/>
    <path clip-path="url(#pdd96e0e592)" d="M 185.826061 171.05481 
L 182.886589 165.042897 
L 185.052655 165.016904 
z
" style="stroke:#000000;"/>
    <path clip-path="url(#pdd96e0e592)" d="M 181.086018 177.153865 
L 183.005408 171.416583 
L 180.842766 171.426604 
z
" style="stroke:#000000;"/>
    <path clip-path="url(#pdd96e0e592)" d="M 179.835912 200.872579 
L 177.241924 199.473317 
L 178.911193 194.099727 
z
" style="stroke:#000000;"/>
    <path clip-path="url(#pdd96e0e592)" d="M 177.241924 154.839483 
L 179.835912 153.4368 
L 178.911193 160.210871 
z
" style="stroke:#000000;"/>
    <path clip-path="url(#pdd96e0e592)" d="M 180.115444 188.549745 
L 183.005408 182.900122 
L 180.842766 182.881447 
z
" style="stroke:#000000;"/>
    <path clip-path="url(#pdd96e0e592)" d="M 181.608136 195.160951 
L 181.996864 200.936349 
L 179.835912 200.872579 
z
" style="stroke:#000000;"/>
    <path clip-path="url(#pdd96e0e592)" d="M 177.241924 199.473317 
L 179.835912 200.872579 
L 177.587329 206.337559 
z
" style="stroke:#000000;"/>
    <path clip-path="url(#pdd96e0e592)" d="M 179.835912 153.4368 
L 177.241924 154.839483 
L 177.587329 147.974785 
z
" style="stroke:#000000;"/>
    <path clip-path="url(#pdd96e0e592)" d="M 180.842766 171.426604 
L 182.276866 165.73504 
L 180.115444 165.759266 
z
" style="stroke:#000000;"/>
    <path clip-path="url(#pdd96e0e592)" d="M 183.772061 195.210373 
L 182.886589 189.26246 
L 185.052655 189.297092 
z
" style="stroke:#000000;"/>
    <path clip-path="url(#pdd96e0e592)" d="M 185.052655 165.016904 
L 181.608136 159.146092 
L 183.772061 159.105317 
z
" style="stroke:#000000;"/>
    <path clip-path="url(#pdd96e0e592)" d="M 178.911193 194.099727 
L 182.276866 188.582628 
L 180.115444 188.549745 
z
" style="stroke:#000000;"/>
    <path clip-path="url(#pdd96e0e592)" d="M 182.775864 139.755954 
L 189.855998 151.509119 
L 185.140172 140.518032 
z
" style="stroke:#000000;"/>
    <path clip-path="url(#pdd96e0e592)" d="M 185.140172 140.518032 
L 189.855998 134.024096 
L 182.775864 139.755954 
z
" style="stroke:#000000;"/>
    <path clip-path="url(#pdd96e0e592)" d="M 180.115444 165.759266 
L 181.070591 160.172724 
L 178.911193 160.210871 
z
" style="stroke:#000000;"/>
    <path clip-path="url(#pdd96e0e592)" d="M 177.587329 147.974785 
L 181.996864 153.38169 
L 179.835912 153.4368 
z
" style="stroke:#000000;"/>
    <path clip-path="url(#pdd96e0e592)" d="M 177.587329 206.337559 
L 175.124196 204.61406 
L 177.241924 199.473317 
z
" style="stroke:#000000;"/>
    <path clip-path="url(#pdd96e0e592)" d="M 175.124196 149.701531 
L 177.587329 147.974785 
L 177.241924 154.839483 
z
" style="stroke:#000000;"/>
    <path clip-path="url(#pdd96e0e592)" d="M 181.996864 200.936349 
L 181.608136 195.160951 
L 183.772061 195.210373 
z
" style="stroke:#000000;"/>
    <path clip-path="url(#pdd96e0e592)" d="M 183.005408 171.416583 
L 181.086018 177.153865 
L 183.249067 177.158191 
z
" style="stroke:#000000;"/>
    <path clip-path="url(#pdd96e0e592)" d="M 183.249067 177.158191 
L 180.842766 182.881447 
L 183.005408 182.900122 
z
" style="stroke:#000000;"/>
    <path clip-path="url(#pdd96e0e592)" d="M 183.249067 177.158191 
L 186.0847 177.156315 
L 185.826061 171.05481 
z
" style="stroke:#000000;"/>
    <path clip-path="url(#pdd96e0e592)" d="M 186.0847 177.156315 
L 183.249067 177.158191 
L 185.826061 183.258163 
z
" style="stroke:#000000;"/>
    <path clip-path="url(#pdd96e0e592)" d="M 182.276866 165.73504 
L 180.842766 171.426604 
L 183.005408 171.416583 
z
" style="stroke:#000000;"/>
    <path clip-path="url(#pdd96e0e592)" d="M 177.241924 199.473317 
L 181.070591 194.14654 
L 178.911193 194.099727 
z
" style="stroke:#000000;"/>
    <path clip-path="url(#pdd96e0e592)" d="M 179.835912 200.872579 
L 179.7445 206.415091 
L 177.587329 206.337559 
z
" style="stroke:#000000;"/>
    <path clip-path="url(#pdd96e0e592)" d="M 183.772061 159.105317 
L 179.835912 153.4368 
L 181.996864 153.38169 
z
" style="stroke:#000000;"/>
    <path clip-path="url(#pdd96e0e592)" d="M 183.005408 182.900122 
L 180.115444 188.549745 
L 182.276866 188.582628 
z
" style="stroke:#000000;"/>
    <path clip-path="url(#pdd96e0e592)" d="M 183.005408 171.416583 
L 185.826061 171.05481 
L 185.052655 165.016904 
z
" style="stroke:#000000;"/>
    <path clip-path="url(#pdd96e0e592)" d="M 185.826061 183.258163 
L 183.005408 182.900122 
L 185.052655 189.297092 
z
" style="stroke:#000000;"/>
    <path clip-path="url(#pdd96e0e592)" d="M 174.884695 211.498008 
L 175.124196 204.61406 
L 177.587329 206.337559 
z
" style="stroke:#000000;"/>
    <path clip-path="url(#pdd96e0e592)" d="M 175.124196 149.701531 
L 174.884695 142.8179 
L 177.587329 147.974785 
z
" style="stroke:#000000;"/>
    <path clip-path="url(#pdd96e0e592)" d="M 178.911193 160.210871 
L 179.398513 154.787837 
L 177.241924 154.839483 
z
" style="stroke:#000000;"/>
    <path clip-path="url(#pdd96e0e592)" d="M 181.070591 160.172724 
L 180.115444 165.759266 
L 182.276866 165.73504 
z
" style="stroke:#000000;"/>
    <path clip-path="url(#pdd96e0e592)" d="M 183.005408 182.900122 
L 185.826061 183.258163 
L 183.249067 177.158191 
z
" style="stroke:#000000;"/>
    <path clip-path="url(#pdd96e0e592)" d="M 185.826061 171.05481 
L 183.005408 171.416583 
L 183.249067 177.158191 
z
" style="stroke:#000000;"/>
    <path clip-path="url(#pdd96e0e592)" d="M 182.276866 165.73504 
L 185.052655 165.016904 
L 183.772061 159.105317 
z
" style="stroke:#000000;"/>
    <path clip-path="url(#pdd96e0e592)" d="M 185.052655 189.297092 
L 182.276866 188.582628 
L 183.772061 195.210373 
z
" style="stroke:#000000;"/>
    <path clip-path="url(#pdd96e0e592)" d="M 182.276866 188.582628 
L 178.911193 194.099727 
L 181.070591 194.14654 
z
" style="stroke:#000000;"/>
    <path clip-path="url(#pdd96e0e592)" d="M 185.052655 165.016904 
L 182.276866 165.73504 
L 183.005408 171.416583 
z
" style="stroke:#000000;"/>
    <path clip-path="url(#pdd96e0e592)" d="M 182.276866 188.582628 
L 185.052655 189.297092 
L 183.005408 182.900122 
z
" style="stroke:#000000;"/>
    <path clip-path="url(#pdd96e0e592)" d="M 179.7445 206.415091 
L 179.835912 200.872579 
L 181.996864 200.936349 
z
" style="stroke:#000000;"/>
    <path clip-path="url(#pdd96e0e592)" d="M 174.884695 142.8179 
L 179.7445 147.905927 
L 177.587329 147.974785 
z
" style="stroke:#000000;"/>
    <path clip-path="url(#pdd96e0e592)" d="M 175.124196 204.61406 
L 179.398513 199.533639 
L 177.241924 199.473317 
z
" style="stroke:#000000;"/>
    <path clip-path="url(#pdd96e0e592)" d="M 174.884695 211.498008 
L 172.579095 209.467648 
L 175.124196 204.61406 
z
" style="stroke:#000000;"/>
    <path clip-path="url(#pdd96e0e592)" d="M 172.579095 144.8513 
L 174.884695 142.8179 
L 175.124196 149.701531 
z
" style="stroke:#000000;"/>
    <path clip-path="url(#pdd96e0e592)" d="M 179.398513 154.787837 
L 178.911193 160.210871 
L 181.070591 160.172724 
z
" style="stroke:#000000;"/>
    <path clip-path="url(#pdd96e0e592)" d="M 181.996864 153.38169 
L 177.587329 147.974785 
L 179.7445 147.905927 
z
" style="stroke:#000000;"/>
    <path clip-path="url(#pdd96e0e592)" d="M 183.772061 159.105317 
L 181.070591 160.172724 
L 182.276866 165.73504 
z
" style="stroke:#000000;"/>
    <path clip-path="url(#pdd96e0e592)" d="M 181.070591 194.14654 
L 183.772061 195.210373 
L 182.276866 188.582628 
z
" style="stroke:#000000;"/>
    <path clip-path="url(#pdd96e0e592)" d="M 177.241924 154.839483 
L 177.277213 149.636944 
L 175.124196 149.701531 
z
" style="stroke:#000000;"/>
    <path clip-path="url(#pdd96e0e592)" d="M 177.587329 206.337559 
L 177.037308 211.588577 
L 174.884695 211.498008 
z
" style="stroke:#000000;"/>
    <path clip-path="url(#pdd96e0e592)" d="M 181.070591 160.172724 
L 183.772061 159.105317 
L 181.996864 153.38169 
z
" style="stroke:#000000;"/>
    <path clip-path="url(#pdd96e0e592)" d="M 183.772061 195.210373 
L 181.070591 194.14654 
L 181.996864 200.936349 
z
" style="stroke:#000000;"/>
    <path clip-path="url(#pdd96e0e592)" d="M 181.070591 194.14654 
L 177.241924 199.473317 
L 179.398513 199.533639 
z
" style="stroke:#000000;"/>
    <path clip-path="url(#pdd96e0e592)" d="M 171.754914 216.299259 
L 172.579095 209.467648 
L 174.884695 211.498008 
z
" style="stroke:#000000;"/>
    <path clip-path="url(#pdd96e0e592)" d="M 172.579095 144.8513 
L 171.754914 138.020775 
L 174.884695 142.8179 
z
" style="stroke:#000000;"/>
    <path clip-path="url(#pdd96e0e592)" d="M 177.037308 211.588577 
L 177.587329 206.337559 
L 179.7445 206.415091 
z
" style="stroke:#000000;"/>
    <path clip-path="url(#pdd96e0e592)" d="M 177.277213 149.636944 
L 177.241924 154.839483 
L 179.398513 154.787837 
z
" style="stroke:#000000;"/>
    <path clip-path="url(#pdd96e0e592)" d="M 181.996864 153.38169 
L 179.398513 154.787837 
L 181.070591 160.172724 
z
" style="stroke:#000000;"/>
    <path clip-path="url(#pdd96e0e592)" d="M 179.398513 199.533639 
L 181.996864 200.936349 
L 181.070591 194.14654 
z
" style="stroke:#000000;"/>
    <path clip-path="url(#pdd96e0e592)" d="M 172.579095 209.467648 
L 177.277213 204.687338 
L 175.124196 204.61406 
z
" style="stroke:#000000;"/>
    <path clip-path="url(#pdd96e0e592)" d="M 179.398513 154.787837 
L 181.996864 153.38169 
L 179.7445 147.905927 
z
" style="stroke:#000000;"/>
    <path clip-path="url(#pdd96e0e592)" d="M 181.996864 200.936349 
L 179.398513 199.533639 
L 179.7445 206.415091 
z
" style="stroke:#000000;"/>
    <path clip-path="url(#pdd96e0e592)" d="M 171.754914 138.020775 
L 177.037308 142.736023 
L 174.884695 142.8179 
z
" style="stroke:#000000;"/>
    <path clip-path="url(#pdd96e0e592)" d="M 179.398513 199.533639 
L 175.124196 204.61406 
L 177.277213 204.687338 
z
" style="stroke:#000000;"/>
    <path clip-path="url(#pdd96e0e592)" d="M 179.7445 147.905927 
L 174.884695 142.8179 
L 177.037308 142.736023 
z
" style="stroke:#000000;"/>
    <path clip-path="url(#pdd96e0e592)" d="M 171.754914 216.299259 
L 169.632124 213.98201 
L 172.579095 209.467648 
z
" style="stroke:#000000;"/>
    <path clip-path="url(#pdd96e0e592)" d="M 169.632124 140.340823 
L 171.754914 138.020775 
L 172.579095 144.8513 
z
" style="stroke:#000000;"/>
    <path clip-path="url(#pdd96e0e592)" d="M 175.124196 149.701531 
L 174.727809 144.774461 
L 172.579095 144.8513 
z
" style="stroke:#000000;"/>
    <path clip-path="url(#pdd96e0e592)" d="M 174.884695 211.498008 
L 173.902232 216.402006 
L 171.754914 216.299259 
z
" style="stroke:#000000;"/>
    <path clip-path="url(#pdd96e0e592)" d="M 168.747697 217.733173 
L 171.754914 216.299259 
L 169.993313 218.492792 
z
" style="stroke:#000000;"/>
    <path clip-path="url(#pdd96e0e592)" d="M 171.754914 138.020775 
L 168.747697 136.590826 
L 169.993313 135.829565 
z
" style="stroke:#000000;"/>
    <path clip-path="url(#pdd96e0e592)" d="M 179.7445 147.905927 
L 177.277213 149.636944 
L 179.398513 154.787837 
z
" style="stroke:#000000;"/>
    <path clip-path="url(#pdd96e0e592)" d="M 177.277213 204.687338 
L 179.7445 206.415091 
L 179.398513 199.533639 
z
" style="stroke:#000000;"/>
    <path clip-path="url(#pdd96e0e592)" d="M 171.754914 216.299259 
L 168.747697 217.733173 
L 169.632124 213.98201 
z
" style="stroke:#000000;"/>
    <path clip-path="url(#pdd96e0e592)" d="M 168.747697 136.590826 
L 171.754914 138.020775 
L 169.632124 140.340823 
z
" style="stroke:#000000;"/>
    <path clip-path="url(#pdd96e0e592)" d="M 174.727809 144.774461 
L 175.124196 149.701531 
L 177.277213 149.636944 
z
" style="stroke:#000000;"/>
    <path clip-path="url(#pdd96e0e592)" d="M 173.902232 216.402006 
L 174.884695 211.498008 
L 177.037308 211.588577 
z
" style="stroke:#000000;"/>
    <path clip-path="url(#pdd96e0e592)" d="M 169.632124 213.98201 
L 174.727809 209.553194 
L 172.579095 209.467648 
z
" style="stroke:#000000;"/>
    <path clip-path="url(#pdd96e0e592)" d="M 177.037308 142.736023 
L 177.277213 149.636944 
L 179.7445 147.905927 
z
" style="stroke:#000000;"/>
    <path clip-path="url(#pdd96e0e592)" d="M 177.277213 204.687338 
L 177.037308 211.588577 
L 179.7445 206.415091 
z
" style="stroke:#000000;"/>
    <path clip-path="url(#pdd96e0e592)" d="M 177.277213 204.687338 
L 172.579095 209.467648 
L 174.727809 209.553194 
z
" style="stroke:#000000;"/>
    <path clip-path="url(#pdd96e0e592)" d="M 169.993313 135.829565 
L 173.902232 137.926741 
L 171.754914 138.020775 
z
" style="stroke:#000000;"/>
    <path clip-path="url(#pdd96e0e592)" d="M 169.632124 213.98201 
L 168.747697 217.733173 
L 167.438172 216.709708 
z
" style="stroke:#000000;"/>
    <path clip-path="url(#pdd96e0e592)" d="M 168.747697 136.590826 
L 169.632124 140.340823 
L 167.438172 137.616018 
z
" style="stroke:#000000;"/>
    <path clip-path="url(#pdd96e0e592)" d="M 172.579095 144.8513 
L 171.775839 140.25255 
L 169.632124 140.340823 
z
" style="stroke:#000000;"/>
    <path clip-path="url(#pdd96e0e592)" d="M 177.037308 142.736023 
L 171.754914 138.020775 
L 173.902232 137.926741 
z
" style="stroke:#000000;"/>
    <path clip-path="url(#pdd96e0e592)" d="M 171.754914 216.299259 
L 172.137642 218.601126 
L 169.993313 218.492792 
z
" style="stroke:#000000;"/>
    <path clip-path="url(#pdd96e0e592)" d="M 177.037308 142.736023 
L 174.727809 144.774461 
L 177.277213 149.636944 
z
" style="stroke:#000000;"/>
    <path clip-path="url(#pdd96e0e592)" d="M 174.727809 209.553194 
L 177.037308 211.588577 
L 177.277213 204.687338 
z
" style="stroke:#000000;"/>
    <path clip-path="url(#pdd96e0e592)" d="M 172.137642 218.601126 
L 168.747697 217.733173 
L 169.993313 218.492792 
z
" style="stroke:#000000;"/>
    <path clip-path="url(#pdd96e0e592)" d="M 171.775839 140.25255 
L 172.579095 144.8513 
L 174.727809 144.774461 
z
" style="stroke:#000000;"/>
    <path clip-path="url(#pdd96e0e592)" d="M 170.88991 136.493085 
L 169.993313 135.829565 
L 168.747697 136.590826 
z
" style="stroke:#000000;"/>
    <path clip-path="url(#pdd96e0e592)" d="M 172.137642 218.601126 
L 171.754914 216.299259 
L 173.902232 216.402006 
z
" style="stroke:#000000;"/>
    <path clip-path="url(#pdd96e0e592)" d="M 171.775839 140.25255 
L 167.438172 137.616018 
L 169.632124 140.340823 
z
" style="stroke:#000000;"/>
    <path clip-path="url(#pdd96e0e592)" d="M 173.902232 137.926741 
L 174.727809 144.774461 
L 177.037308 142.736023 
z
" style="stroke:#000000;"/>
    <path clip-path="url(#pdd96e0e592)" d="M 174.727809 209.553194 
L 173.902232 216.402006 
L 177.037308 211.588577 
z
" style="stroke:#000000;"/>
    <path clip-path="url(#pdd96e0e592)" d="M 174.727809 209.553194 
L 169.632124 213.98201 
L 171.775839 214.07901 
z
" style="stroke:#000000;"/>
    <path clip-path="url(#pdd96e0e592)" d="M 173.902232 137.926741 
L 169.993313 135.829565 
L 172.137642 135.729955 
z
" style="stroke:#000000;"/>
    <path clip-path="url(#pdd96e0e592)" d="M 170.88991 217.839647 
L 167.438172 216.709708 
L 168.747697 217.733173 
z
" style="stroke:#000000;"/>
    <path clip-path="url(#pdd96e0e592)" d="M 169.578156 216.813658 
L 169.632124 213.98201 
L 167.438172 216.709708 
z
" style="stroke:#000000;"/>
    <path clip-path="url(#pdd96e0e592)" d="M 169.578156 137.52081 
L 168.747697 136.590826 
L 167.438172 137.616018 
z
" style="stroke:#000000;"/>
    <path clip-path="url(#pdd96e0e592)" d="M 169.993313 135.829565 
L 170.88991 136.493085 
L 172.137642 135.729955 
z
" style="stroke:#000000;"/>
    <path clip-path="url(#pdd96e0e592)" d="M 168.747697 217.733173 
L 172.137642 218.601126 
L 170.88991 217.839647 
z
" style="stroke:#000000;"/>
    <path clip-path="url(#pdd96e0e592)" d="M 173.902232 137.926741 
L 171.775839 140.25255 
L 174.727809 144.774461 
z
" style="stroke:#000000;"/>
    <path clip-path="url(#pdd96e0e592)" d="M 171.775839 214.07901 
L 173.902232 216.402006 
L 174.727809 209.553194 
z
" style="stroke:#000000;"/>
    <path clip-path="url(#pdd96e0e592)" d="M 169.632124 213.98201 
L 169.578156 216.813658 
L 171.775839 214.07901 
z
" style="stroke:#000000;"/>
    <path clip-path="url(#pdd96e0e592)" d="M 168.747697 136.590826 
L 169.578156 137.52081 
L 170.88991 136.493085 
z
" style="stroke:#000000;"/>
    <path clip-path="url(#pdd96e0e592)" d="M 167.438172 137.616018 
L 171.775839 140.25255 
L 169.578156 137.52081 
z
" style="stroke:#000000;"/>
    <path clip-path="url(#pdd96e0e592)" d="M 170.88991 136.493085 
L 173.902232 137.926741 
L 172.137642 135.729955 
z
" style="stroke:#000000;"/>
    <path clip-path="url(#pdd96e0e592)" d="M 173.902232 216.402006 
L 170.88991 217.839647 
L 172.137642 218.601126 
z
" style="stroke:#000000;"/>
    <path clip-path="url(#pdd96e0e592)" d="M 167.438172 216.709708 
L 170.88991 217.839647 
L 169.578156 216.813658 
z
" style="stroke:#000000;"/>
    <path clip-path="url(#pdd96e0e592)" d="M 173.902232 137.926741 
L 170.88991 136.493085 
L 171.775839 140.25255 
z
" style="stroke:#000000;"/>
    <path clip-path="url(#pdd96e0e592)" d="M 170.88991 217.839647 
L 173.902232 216.402006 
L 171.775839 214.07901 
z
" style="stroke:#000000;"/>
    <path clip-path="url(#pdd96e0e592)" d="M 171.775839 140.25255 
L 170.88991 136.493085 
L 169.578156 137.52081 
z
" style="stroke:#000000;"/>
    <path clip-path="url(#pdd96e0e592)" d="M 170.88991 217.839647 
L 171.775839 214.07901 
L 169.578156 216.813658 
z
" style="stroke:#000000;"/>
   </g>
  </g>
 </g>
 <defs>
  <clipPath id="pdd96e0e592">
   <rect height="271.8" width="279" x="45" y="43.2"/>
  </clipPath>
 </defs>
</svg>
