<?xml version="1.0" encoding="utf-8" standalone="no"?>
<!DOCTYPE svg PUBLIC "-//W3C//DTD SVG 1.1//EN"
  "http://www.w3.org/Graphics/SVG/1.1/DTD/svg11.dtd">
<!-- Created with matplotlib (https://matplotlib.org/) -->
<svg height="360pt" version="1.1" viewBox="0 0 360 360" width="360pt" xmlns="http://www.w3.org/2000/svg" xmlns:xlink="http://www.w3.org/1999/xlink">
 <defs>
  <style type="text/css">
*{stroke-linecap:butt;stroke-linejoin:round;}
  </style>
 </defs>
 <g id="figure_1">
  <g id="patch_1">
   <path d="M 45 315 
L 324 315 
L 324 43.2 
L 45 43.2 
z
" style="fill:#ffffff;"/>
  </g>
  <g id="axes_1">
   <g id="Poly3DCollection_1">
    <path clip-path="url(#p124fd3d414)" d="M 212.791488 225.63555 
L 211.592362 221.172476 
L 214.565032 224.380175 
z
" style="stroke:#000000;"/>
    <path clip-path="url(#p124fd3d414)" d="M 211.592362 133.11823 
L 212.791488 128.654796 
L 214.565032 129.909637 
z
" style="stroke:#000000;"/>
    <path clip-path="url(#p124fd3d414)" d="M 212.791488 225.63555 
L 208.709913 223.994968 
L 211.592362 221.172476 
z
" style="stroke:#000000;"/>
    <path clip-path="url(#p124fd3d414)" d="M 208.709913 130.296605 
L 212.791488 128.654796 
L 211.592362 133.11823 
z
" style="stroke:#000000;"/>
    <path clip-path="url(#p124fd3d414)" d="M 208.709913 223.994968 
L 212.791488 225.63555 
L 211.102349 226.575373 
z
" style="stroke:#000000;"/>
    <path clip-path="url(#p124fd3d414)" d="M 212.791488 128.654796 
L 208.709913 130.296605 
L 211.102349 127.715481 
z
" style="stroke:#000000;"/>
    <path clip-path="url(#p124fd3d414)" d="M 208.709913 223.994968 
L 207.589143 215.834354 
L 211.592362 221.172476 
z
" style="stroke:#000000;"/>
    <path clip-path="url(#p124fd3d414)" d="M 207.589143 138.457555 
L 208.709913 130.296605 
L 211.592362 133.11823 
z
" style="stroke:#000000;"/>
    <path clip-path="url(#p124fd3d414)" d="M 204.448949 218.315375 
L 207.589143 215.834354 
L 208.709913 223.994968 
z
" style="stroke:#000000;"/>
    <path clip-path="url(#p124fd3d414)" d="M 207.589143 138.457555 
L 204.448949 135.977478 
L 208.709913 130.296605 
z
" style="stroke:#000000;"/>
    <path clip-path="url(#p124fd3d414)" d="M 204.448949 218.315375 
L 204.122337 210.066661 
L 207.589143 215.834354 
z
" style="stroke:#000000;"/>
    <path clip-path="url(#p124fd3d414)" d="M 204.122337 144.226291 
L 204.448949 135.977478 
L 207.589143 138.457555 
z
" style="stroke:#000000;"/>
    <path clip-path="url(#p124fd3d414)" d="M 200.758767 212.178752 
L 204.122337 210.066661 
L 204.448949 218.315375 
z
" style="stroke:#000000;"/>
    <path clip-path="url(#p124fd3d414)" d="M 204.122337 144.226291 
L 200.758767 142.11521 
L 204.448949 135.977478 
z
" style="stroke:#000000;"/>
    <path clip-path="url(#p124fd3d414)" d="M 204.122337 210.066661 
L 200.758767 212.178752 
L 201.230941 203.933366 
z
" style="stroke:#000000;"/>
    <path clip-path="url(#p124fd3d414)" d="M 200.758767 142.11521 
L 204.122337 144.226291 
L 201.230941 150.360455 
z
" style="stroke:#000000;"/>
    <path clip-path="url(#p124fd3d414)" d="M 215.339896 224.548881 
L 212.791488 225.63555 
L 214.565032 224.380175 
z
" style="stroke:#000000;"/>
    <path clip-path="url(#p124fd3d414)" d="M 215.339896 129.752772 
L 211.592362 133.11823 
L 214.565032 129.909637 
z
" style="stroke:#000000;"/>
    <path clip-path="url(#p124fd3d414)" d="M 213.56036 128.49358 
L 214.565032 129.909637 
L 212.791488 128.654796 
z
" style="stroke:#000000;"/>
    <path clip-path="url(#p124fd3d414)" d="M 197.680928 205.652473 
L 201.230941 203.933366 
L 200.758767 212.178752 
z
" style="stroke:#000000;"/>
    <path clip-path="url(#p124fd3d414)" d="M 201.230941 150.360455 
L 197.680928 148.642415 
L 200.758767 142.11521 
z
" style="stroke:#000000;"/>
    <path clip-path="url(#p124fd3d414)" d="M 212.357181 221.330169 
L 214.565032 224.380175 
L 211.592362 221.172476 
z
" style="stroke:#000000;"/>
    <path clip-path="url(#p124fd3d414)" d="M 201.230941 203.933366 
L 197.680928 205.652473 
L 198.947514 197.502252 
z
" style="stroke:#000000;"/>
    <path clip-path="url(#p124fd3d414)" d="M 197.680928 148.642415 
L 201.230941 150.360455 
L 198.947514 156.792255 
z
" style="stroke:#000000;"/>
    <path clip-path="url(#p124fd3d414)" d="M 213.56036 225.808609 
L 211.102349 226.575373 
L 212.791488 225.63555 
z
" style="stroke:#000000;"/>
    <path clip-path="url(#p124fd3d414)" d="M 211.865512 127.551003 
L 212.791488 128.654796 
L 211.102349 127.715481 
z
" style="stroke:#000000;"/>
    <path clip-path="url(#p124fd3d414)" d="M 195.250229 198.809044 
L 198.947514 197.502252 
L 197.680928 205.652473 
z
" style="stroke:#000000;"/>
    <path clip-path="url(#p124fd3d414)" d="M 198.947514 156.792255 
L 195.250229 155.486575 
L 197.680928 148.642415 
z
" style="stroke:#000000;"/>
    <path clip-path="url(#p124fd3d414)" d="M 208.709913 130.296605 
L 211.865512 127.551003 
L 211.102349 127.715481 
z
" style="stroke:#000000;"/>
    <path clip-path="url(#p124fd3d414)" d="M 198.947514 197.502252 
L 195.250229 198.809044 
L 197.297821 190.844638 
z
" style="stroke:#000000;"/>
    <path clip-path="url(#p124fd3d414)" d="M 195.250229 155.486575 
L 198.947514 156.792255 
L 197.297821 163.450365 
z
" style="stroke:#000000;"/>
    <path clip-path="url(#p124fd3d414)" d="M 207.589143 215.834354 
L 212.357181 221.330169 
L 211.592362 221.172476 
z
" style="stroke:#000000;"/>
    <path clip-path="url(#p124fd3d414)" d="M 211.102349 226.575373 
L 209.464987 224.162432 
L 208.709913 223.994968 
z
" style="stroke:#000000;"/>
    <path clip-path="url(#p124fd3d414)" d="M 211.592362 133.11823 
L 208.340426 138.33007 
L 207.589143 138.457555 
z
" style="stroke:#000000;"/>
    <path clip-path="url(#p124fd3d414)" d="M 197.297821 190.844638 
L 193.494078 191.724345 
L 196.300505 184.034553 
z
" style="stroke:#000000;"/>
    <path clip-path="url(#p124fd3d414)" d="M 193.494078 162.571802 
L 197.297821 163.450365 
L 196.300505 170.26075 
z
" style="stroke:#000000;"/>
    <path clip-path="url(#p124fd3d414)" d="M 193.494078 191.724345 
L 197.297821 190.844638 
L 195.250229 198.809044 
z
" style="stroke:#000000;"/>
    <path clip-path="url(#p124fd3d414)" d="M 197.297821 163.450365 
L 193.494078 162.571802 
L 195.250229 155.486575 
z
" style="stroke:#000000;"/>
    <path clip-path="url(#p124fd3d414)" d="M 192.432368 169.819274 
L 196.300505 170.26075 
L 195.966791 177.147702 
z
" style="stroke:#000000;"/>
    <path clip-path="url(#p124fd3d414)" d="M 196.300505 184.034553 
L 192.432368 184.477192 
L 195.966791 177.147702 
z
" style="stroke:#000000;"/>
    <path clip-path="url(#p124fd3d414)" d="M 204.448949 135.977478 
L 209.464987 130.140993 
L 208.709913 130.296605 
z
" style="stroke:#000000;"/>
    <path clip-path="url(#p124fd3d414)" d="M 192.432368 184.477192 
L 196.300505 184.034553 
L 193.494078 191.724345 
z
" style="stroke:#000000;"/>
    <path clip-path="url(#p124fd3d414)" d="M 196.300505 170.26075 
L 192.432368 169.819274 
L 193.494078 162.571802 
z
" style="stroke:#000000;"/>
    <path clip-path="url(#p124fd3d414)" d="M 192.077133 177.148286 
L 195.966791 177.147702 
L 192.432368 184.477192 
z
" style="stroke:#000000;"/>
    <path clip-path="url(#p124fd3d414)" d="M 195.966791 177.147702 
L 192.077133 177.148286 
L 192.432368 169.819274 
z
" style="stroke:#000000;"/>
    <path clip-path="url(#p124fd3d414)" d="M 204.122337 210.066661 
L 208.340426 215.973695 
L 207.589143 215.834354 
z
" style="stroke:#000000;"/>
    <path clip-path="url(#p124fd3d414)" d="M 208.709913 223.994968 
L 205.189607 218.463311 
L 204.448949 218.315375 
z
" style="stroke:#000000;"/>
    <path clip-path="url(#p124fd3d414)" d="M 196.614811 132.290699 
L 186.886808 146.283735 
L 193.373979 133.154845 
z
" style="stroke:#000000;"/>
    <path clip-path="url(#p124fd3d414)" d="M 193.373979 133.154845 
L 186.886808 125.239192 
L 196.614811 132.290699 
z
" style="stroke:#000000;"/>
    <path clip-path="url(#p124fd3d414)" d="M 207.589143 138.457555 
L 204.86189 144.118666 
L 204.122337 144.226291 
z
" style="stroke:#000000;"/>
    <path clip-path="url(#p124fd3d414)" d="M 186.886808 146.283735 
L 196.614811 132.290699 
L 186.886808 153.298583 
z
" style="stroke:#000000;"/>
    <path clip-path="url(#p124fd3d414)" d="M 200.758767 142.11521 
L 205.189607 135.841404 
L 204.448949 135.977478 
z
" style="stroke:#000000;"/>
    <path clip-path="url(#p124fd3d414)" d="M 201.230941 203.933366 
L 204.86189 210.186148 
L 204.122337 210.066661 
z
" style="stroke:#000000;"/>
    <path clip-path="url(#p124fd3d414)" d="M 186.886808 125.239192 
L 193.373979 133.154845 
L 186.886808 128.746616 
z
" style="stroke:#000000;"/>
    <path clip-path="url(#p124fd3d414)" d="M 204.122337 144.226291 
L 201.960705 150.273967 
L 201.230941 150.360455 
z
" style="stroke:#000000;"/>
    <path clip-path="url(#p124fd3d414)" d="M 204.448949 218.315375 
L 201.486933 212.305562 
L 200.758767 212.178752 
z
" style="stroke:#000000;"/>
    <path clip-path="url(#p124fd3d414)" d="M 214.565032 129.909637 
L 213.56036 128.49358 
L 215.339896 129.752772 
z
" style="stroke:#000000;"/>
    <path clip-path="url(#p124fd3d414)" d="M 198.947514 197.502252 
L 201.960705 204.031722 
L 201.230941 203.933366 
z
" style="stroke:#000000;"/>
    <path clip-path="url(#p124fd3d414)" d="M 214.565032 224.380175 
L 212.357181 221.330169 
L 215.339896 224.548881 
z
" style="stroke:#000000;"/>
    <path clip-path="url(#p124fd3d414)" d="M 212.791488 225.63555 
L 215.339896 224.548881 
L 213.56036 225.808609 
z
" style="stroke:#000000;"/>
    <path clip-path="url(#p124fd3d414)" d="M 197.680928 148.642415 
L 201.486933 142.00027 
L 200.758767 142.11521 
z
" style="stroke:#000000;"/>
    <path clip-path="url(#p124fd3d414)" d="M 201.230941 150.360455 
L 199.669544 156.727946 
L 198.947514 156.792255 
z
" style="stroke:#000000;"/>
    <path clip-path="url(#p124fd3d414)" d="M 211.592362 133.11823 
L 215.339896 129.752772 
L 212.357181 132.972384 
z
" style="stroke:#000000;"/>
    <path clip-path="url(#p124fd3d414)" d="M 212.791488 128.654796 
L 211.865512 127.551003 
L 213.56036 128.49358 
z
" style="stroke:#000000;"/>
    <path clip-path="url(#p124fd3d414)" d="M 200.758767 212.178752 
L 198.398667 205.756793 
L 197.680928 205.652473 
z
" style="stroke:#000000;"/>
    <path clip-path="url(#p124fd3d414)" d="M 211.102349 226.575373 
L 213.56036 225.808609 
L 211.865512 226.751698 
z
" style="stroke:#000000;"/>
    <path clip-path="url(#p124fd3d414)" d="M 197.297821 190.844638 
L 199.669544 197.578434 
L 198.947514 197.502252 
z
" style="stroke:#000000;"/>
    <path clip-path="url(#p124fd3d414)" d="M 180.392282 133.106919 
L 186.886808 125.239192 
L 186.886808 128.746616 
z
" style="stroke:#000000;"/>
    <path clip-path="url(#p124fd3d414)" d="M 198.947514 156.792255 
L 198.014262 163.409028 
L 197.297821 163.450365 
z
" style="stroke:#000000;"/>
    <path clip-path="url(#p124fd3d414)" d="M 209.464987 224.162432 
L 211.102349 226.575373 
L 211.865512 226.751698 
z
" style="stroke:#000000;"/>
    <path clip-path="url(#p124fd3d414)" d="M 208.340426 138.33007 
L 211.592362 133.11823 
L 212.357181 132.972384 
z
" style="stroke:#000000;"/>
    <path clip-path="url(#p124fd3d414)" d="M 196.300505 184.034553 
L 198.014262 190.897852 
L 197.297821 190.844638 
z
" style="stroke:#000000;"/>
    <path clip-path="url(#p124fd3d414)" d="M 195.250229 155.486575 
L 198.398667 148.549971 
L 197.680928 148.642415 
z
" style="stroke:#000000;"/>
    <path clip-path="url(#p124fd3d414)" d="M 177.142257 132.217318 
L 186.886808 146.283735 
L 186.886808 153.298583 
z
" style="stroke:#000000;"/>
    <path clip-path="url(#p124fd3d414)" d="M 197.297821 163.450365 
L 197.013566 170.242917 
L 196.300505 170.26075 
z
" style="stroke:#000000;"/>
    <path clip-path="url(#p124fd3d414)" d="M 211.865512 127.551003 
L 208.709913 130.296605 
L 209.464987 130.140993 
z
" style="stroke:#000000;"/>
    <path clip-path="url(#p124fd3d414)" d="M 195.966791 177.147702 
L 197.013566 184.064264 
L 196.300505 184.034553 
z
" style="stroke:#000000;"/>
    <path clip-path="url(#p124fd3d414)" d="M 196.300505 170.26075 
L 196.678721 177.153641 
L 195.966791 177.147702 
z
" style="stroke:#000000;"/>
    <path clip-path="url(#p124fd3d414)" d="M 197.680928 205.652473 
L 195.95973 198.889761 
L 195.250229 198.809044 
z
" style="stroke:#000000;"/>
    <path clip-path="url(#p124fd3d414)" d="M 212.357181 221.330169 
L 207.589143 215.834354 
L 208.340426 215.973695 
z
" style="stroke:#000000;"/>
    <path clip-path="url(#p124fd3d414)" d="M 193.494078 162.571802 
L 195.95973 155.417738 
L 195.250229 155.486575 
z
" style="stroke:#000000;"/>
    <path clip-path="url(#p124fd3d414)" d="M 186.886808 146.283735 
L 177.142257 132.217318 
L 180.392282 133.106919 
z
" style="stroke:#000000;"/>
    <path clip-path="url(#p124fd3d414)" d="M 186.886808 125.239192 
L 180.392282 133.106919 
L 177.142257 132.217318 
z
" style="stroke:#000000;"/>
    <path clip-path="url(#p124fd3d414)" d="M 205.189607 218.463311 
L 208.709913 223.994968 
L 209.464987 224.162432 
z
" style="stroke:#000000;"/>
    <path clip-path="url(#p124fd3d414)" d="M 195.250229 198.809044 
L 194.197625 191.780614 
L 193.494078 191.724345 
z
" style="stroke:#000000;"/>
    <path clip-path="url(#p124fd3d414)" d="M 177.792409 177.150433 
L 181.691776 177.149847 
L 181.335874 184.485962 
z
" style="stroke:#000000;"/>
    <path clip-path="url(#p124fd3d414)" d="M 181.691776 177.149847 
L 177.792409 177.150433 
L 181.335874 169.81384 
z
" style="stroke:#000000;"/>
    <path clip-path="url(#p124fd3d414)" d="M 204.86189 144.118666 
L 207.589143 138.457555 
L 208.340426 138.33007 
z
" style="stroke:#000000;"/>
    <path clip-path="url(#p124fd3d414)" d="M 192.432368 169.819274 
L 194.197625 162.527417 
L 193.494078 162.571802 
z
" style="stroke:#000000;"/>
    <path clip-path="url(#p124fd3d414)" d="M 177.457616 184.048722 
L 181.335874 184.485962 
L 180.271908 191.743165 
z
" style="stroke:#000000;"/>
    <path clip-path="url(#p124fd3d414)" d="M 181.335874 169.81384 
L 177.457616 170.252246 
L 180.271908 162.556957 
z
" style="stroke:#000000;"/>
    <path clip-path="url(#p124fd3d414)" d="M 193.494078 191.724345 
L 193.132315 184.508442 
L 192.432368 184.477192 
z
" style="stroke:#000000;"/>
    <path clip-path="url(#p124fd3d414)" d="M 209.464987 130.140993 
L 204.448949 135.977478 
L 205.189607 135.841404 
z
" style="stroke:#000000;"/>
    <path clip-path="url(#p124fd3d414)" d="M 192.077133 177.148286 
L 193.132315 169.799911 
L 192.432368 169.819274 
z
" style="stroke:#000000;"/>
    <path clip-path="url(#p124fd3d414)" d="M 192.432368 184.477192 
L 192.775874 177.15423 
L 192.077133 177.148286 
z
" style="stroke:#000000;"/>
    <path clip-path="url(#p124fd3d414)" d="M 208.340426 215.973695 
L 204.122337 210.066661 
L 204.86189 210.186148 
z
" style="stroke:#000000;"/>
    <path clip-path="url(#p124fd3d414)" d="M 177.457616 170.252246 
L 181.335874 169.81384 
L 177.792409 177.150433 
z
" style="stroke:#000000;"/>
    <path clip-path="url(#p124fd3d414)" d="M 181.335874 184.485962 
L 177.457616 184.048722 
L 177.792409 177.150433 
z
" style="stroke:#000000;"/>
    <path clip-path="url(#p124fd3d414)" d="M 176.456839 190.87271 
L 180.271908 191.743165 
L 178.511158 198.843232 
z
" style="stroke:#000000;"/>
    <path clip-path="url(#p124fd3d414)" d="M 180.271908 162.556957 
L 176.456839 163.428559 
L 178.511158 155.457419 
z
" style="stroke:#000000;"/>
    <path clip-path="url(#p124fd3d414)" d="M 180.271908 191.743165 
L 176.456839 190.87271 
L 177.457616 184.048722 
z
" style="stroke:#000000;"/>
    <path clip-path="url(#p124fd3d414)" d="M 176.456839 163.428559 
L 180.271908 162.556957 
L 177.457616 170.252246 
z
" style="stroke:#000000;"/>
    <path clip-path="url(#p124fd3d414)" d="M 194.077119 133.008893 
L 186.886808 128.746616 
L 193.373979 133.154845 
z
" style="stroke:#000000;"/>
    <path clip-path="url(#p124fd3d414)" d="M 186.886808 146.283735 
L 194.077119 133.008893 
L 193.373979 133.154845 
z
" style="stroke:#000000;"/>
    <path clip-path="url(#p124fd3d414)" d="M 187.567937 125.06581 
L 196.614811 132.290699 
L 186.886808 125.239192 
z
" style="stroke:#000000;"/>
    <path clip-path="url(#p124fd3d414)" d="M 196.614811 132.290699 
L 187.567937 153.222137 
L 186.886808 153.298583 
z
" style="stroke:#000000;"/>
    <path clip-path="url(#p124fd3d414)" d="M 201.486933 212.305562 
L 204.448949 218.315375 
L 205.189607 218.463311 
z
" style="stroke:#000000;"/>
    <path clip-path="url(#p124fd3d414)" d="M 201.960705 150.273967 
L 204.122337 144.226291 
L 204.86189 144.118666 
z
" style="stroke:#000000;"/>
    <path clip-path="url(#p124fd3d414)" d="M 178.511158 198.843232 
L 174.800656 197.548829 
L 176.456839 190.87271 
z
" style="stroke:#000000;"/>
    <path clip-path="url(#p124fd3d414)" d="M 174.800656 156.752937 
L 178.511158 155.457419 
L 176.456839 163.428559 
z
" style="stroke:#000000;"/>
    <path clip-path="url(#p124fd3d414)" d="M 174.800656 197.548829 
L 178.511158 198.843232 
L 176.07231 205.709536 
z
" style="stroke:#000000;"/>
    <path clip-path="url(#p124fd3d414)" d="M 178.511158 155.457419 
L 174.800656 156.752937 
L 176.07231 148.591848 
z
" style="stroke:#000000;"/>
    <path clip-path="url(#p124fd3d414)" d="M 204.86189 210.186148 
L 201.230941 203.933366 
L 201.960705 204.031722 
z
" style="stroke:#000000;"/>
    <path clip-path="url(#p124fd3d414)" d="M 205.189607 135.841404 
L 200.758767 142.11521 
L 201.486933 142.00027 
z
" style="stroke:#000000;"/>
    <path clip-path="url(#p124fd3d414)" d="M 176.07231 205.709536 
L 172.506666 204.004927 
L 174.800656 197.548829 
z
" style="stroke:#000000;"/>
    <path clip-path="url(#p124fd3d414)" d="M 172.506666 150.297529 
L 176.07231 148.591848 
L 174.800656 156.752937 
z
" style="stroke:#000000;"/>
    <path clip-path="url(#p124fd3d414)" d="M 199.669544 156.727946 
L 201.230941 150.360455 
L 201.960705 150.273967 
z
" style="stroke:#000000;"/>
    <path clip-path="url(#p124fd3d414)" d="M 172.506666 204.004927 
L 176.07231 205.709536 
L 172.981175 212.267968 
z
" style="stroke:#000000;"/>
    <path clip-path="url(#p124fd3d414)" d="M 176.07231 148.591848 
L 172.506666 150.297529 
L 172.981175 142.034345 
z
" style="stroke:#000000;"/>
    <path clip-path="url(#p124fd3d414)" d="M 213.56036 128.49358 
L 212.357181 132.972384 
L 215.339896 129.752772 
z
" style="stroke:#000000;"/>
    <path clip-path="url(#p124fd3d414)" d="M 212.357181 221.330169 
L 213.56036 225.808609 
L 215.339896 224.548881 
z
" style="stroke:#000000;"/>
    <path clip-path="url(#p124fd3d414)" d="M 198.398667 205.756793 
L 200.758767 212.178752 
L 201.486933 212.305562 
z
" style="stroke:#000000;"/>
    <path clip-path="url(#p124fd3d414)" d="M 201.960705 204.031722 
L 198.947514 197.502252 
L 199.669544 197.578434 
z
" style="stroke:#000000;"/>
    <path clip-path="url(#p124fd3d414)" d="M 201.486933 142.00027 
L 197.680928 148.642415 
L 198.398667 148.549971 
z
" style="stroke:#000000;"/>
    <path clip-path="url(#p124fd3d414)" d="M 198.014262 163.409028 
L 198.947514 156.792255 
L 199.669544 156.727946 
z
" style="stroke:#000000;"/>
    <path clip-path="url(#p124fd3d414)" d="M 172.981175 212.267968 
L 169.599264 210.1712 
L 172.506666 204.004927 
z
" style="stroke:#000000;"/>
    <path clip-path="url(#p124fd3d414)" d="M 169.599264 144.13213 
L 172.981175 142.034345 
L 172.506666 150.297529 
z
" style="stroke:#000000;"/>
    <path clip-path="url(#p124fd3d414)" d="M 213.56036 128.49358 
L 209.464987 130.140993 
L 212.357181 132.972384 
z
" style="stroke:#000000;"/>
    <path clip-path="url(#p124fd3d414)" d="M 209.464987 224.162432 
L 213.56036 225.808609 
L 212.357181 221.330169 
z
" style="stroke:#000000;"/>
    <path clip-path="url(#p124fd3d414)" d="M 187.567937 128.585351 
L 180.392282 133.106919 
L 186.886808 128.746616 
z
" style="stroke:#000000;"/>
    <path clip-path="url(#p124fd3d414)" d="M 180.392282 133.106919 
L 187.567937 146.183056 
L 186.886808 146.283735 
z
" style="stroke:#000000;"/>
    <path clip-path="url(#p124fd3d414)" d="M 199.669544 197.578434 
L 197.297821 190.844638 
L 198.014262 190.897852 
z
" style="stroke:#000000;"/>
    <path clip-path="url(#p124fd3d414)" d="M 209.464987 130.140993 
L 213.56036 128.49358 
L 211.865512 127.551003 
z
" style="stroke:#000000;"/>
    <path clip-path="url(#p124fd3d414)" d="M 213.56036 225.808609 
L 209.464987 224.162432 
L 211.865512 226.751698 
z
" style="stroke:#000000;"/>
    <path clip-path="url(#p124fd3d414)" d="M 197.013566 170.242917 
L 197.297821 163.450365 
L 198.014262 163.409028 
z
" style="stroke:#000000;"/>
    <path clip-path="url(#p124fd3d414)" d="M 169.270659 218.447269 
L 169.599264 210.1712 
L 172.981175 212.267968 
z
" style="stroke:#000000;"/>
    <path clip-path="url(#p124fd3d414)" d="M 169.599264 144.13213 
L 169.270659 135.85616 
L 172.981175 142.034345 
z
" style="stroke:#000000;"/>
    <path clip-path="url(#p124fd3d414)" d="M 195.95973 198.889761 
L 197.680928 205.652473 
L 198.398667 205.756793 
z
" style="stroke:#000000;"/>
    <path clip-path="url(#p124fd3d414)" d="M 198.014262 190.897852 
L 196.300505 184.034553 
L 197.013566 184.064264 
z
" style="stroke:#000000;"/>
    <path clip-path="url(#p124fd3d414)" d="M 209.464987 130.140993 
L 208.340426 138.33007 
L 212.357181 132.972384 
z
" style="stroke:#000000;"/>
    <path clip-path="url(#p124fd3d414)" d="M 208.340426 215.973695 
L 209.464987 224.162432 
L 212.357181 221.330169 
z
" style="stroke:#000000;"/>
    <path clip-path="url(#p124fd3d414)" d="M 196.678721 177.153641 
L 196.300505 170.26075 
L 197.013566 170.242917 
z
" style="stroke:#000000;"/>
    <path clip-path="url(#p124fd3d414)" d="M 197.013566 184.064264 
L 195.966791 177.147702 
L 196.678721 177.153641 
z
" style="stroke:#000000;"/>
    <path clip-path="url(#p124fd3d414)" d="M 198.398667 148.549971 
L 195.250229 155.486575 
L 195.95973 155.417738 
z
" style="stroke:#000000;"/>
    <path clip-path="url(#p124fd3d414)" d="M 181.335874 169.81384 
L 182.355259 177.155802 
L 181.691776 177.149847 
z
" style="stroke:#000000;"/>
    <path clip-path="url(#p124fd3d414)" d="M 169.270659 218.447269 
L 166.109382 215.980918 
L 169.599264 210.1712 
z
" style="stroke:#000000;"/>
    <path clip-path="url(#p124fd3d414)" d="M 166.109382 138.323461 
L 169.270659 135.85616 
L 169.599264 144.13213 
z
" style="stroke:#000000;"/>
    <path clip-path="url(#p124fd3d414)" d="M 194.197625 191.780614 
L 195.250229 198.809044 
L 195.95973 198.889761 
z
" style="stroke:#000000;"/>
    <path clip-path="url(#p124fd3d414)" d="M 181.691776 177.149847 
L 181.998148 184.517272 
L 181.335874 184.485962 
z
" style="stroke:#000000;"/>
    <path clip-path="url(#p124fd3d414)" d="M 180.271908 162.556957 
L 181.998148 169.794439 
L 181.335874 169.81384 
z
" style="stroke:#000000;"/>
    <path clip-path="url(#p124fd3d414)" d="M 195.95973 155.417738 
L 193.494078 162.571802 
L 194.197625 162.527417 
z
" style="stroke:#000000;"/>
    <path clip-path="url(#p124fd3d414)" d="M 205.189607 135.841404 
L 208.340426 138.33007 
L 209.464987 130.140993 
z
" style="stroke:#000000;"/>
    <path clip-path="url(#p124fd3d414)" d="M 208.340426 215.973695 
L 205.189607 218.463311 
L 209.464987 224.162432 
z
" style="stroke:#000000;"/>
    <path clip-path="url(#p124fd3d414)" d="M 181.335874 184.485962 
L 180.930566 191.799564 
L 180.271908 191.743165 
z
" style="stroke:#000000;"/>
    <path clip-path="url(#p124fd3d414)" d="M 177.790274 132.067916 
L 186.886808 125.239192 
L 177.142257 132.217318 
z
" style="stroke:#000000;"/>
    <path clip-path="url(#p124fd3d414)" d="M 186.886808 153.298583 
L 177.790274 132.067916 
L 177.142257 132.217318 
z
" style="stroke:#000000;"/>
    <path clip-path="url(#p124fd3d414)" d="M 196.614811 132.290699 
L 187.567937 125.06581 
L 197.328937 132.141805 
z
" style="stroke:#000000;"/>
    <path clip-path="url(#p124fd3d414)" d="M 187.567937 153.222137 
L 196.614811 132.290699 
L 197.328937 132.141805 
z
" style="stroke:#000000;"/>
    <path clip-path="url(#p124fd3d414)" d="M 164.980246 224.180705 
L 166.109382 215.980918 
L 169.270659 218.447269 
z
" style="stroke:#000000;"/>
    <path clip-path="url(#p124fd3d414)" d="M 166.109382 138.323461 
L 164.980246 130.124014 
L 169.270659 135.85616 
z
" style="stroke:#000000;"/>
    <path clip-path="url(#p124fd3d414)" d="M 193.132315 184.508442 
L 193.494078 191.724345 
L 194.197625 191.780614 
z
" style="stroke:#000000;"/>
    <path clip-path="url(#p124fd3d414)" d="M 178.511158 155.457419 
L 180.930566 162.512469 
L 180.271908 162.556957 
z
" style="stroke:#000000;"/>
    <path clip-path="url(#p124fd3d414)" d="M 194.197625 162.527417 
L 192.432368 169.819274 
L 193.132315 169.799911 
z
" style="stroke:#000000;"/>
    <path clip-path="url(#p124fd3d414)" d="M 192.775874 177.15423 
L 192.432368 184.477192 
L 193.132315 184.508442 
z
" style="stroke:#000000;"/>
    <path clip-path="url(#p124fd3d414)" d="M 205.189607 135.841404 
L 204.86189 144.118666 
L 208.340426 138.33007 
z
" style="stroke:#000000;"/>
    <path clip-path="url(#p124fd3d414)" d="M 204.86189 210.186148 
L 205.189607 218.463311 
L 208.340426 215.973695 
z
" style="stroke:#000000;"/>
    <path clip-path="url(#p124fd3d414)" d="M 180.271908 191.743165 
L 179.16383 198.924186 
L 178.511158 198.843232 
z
" style="stroke:#000000;"/>
    <path clip-path="url(#p124fd3d414)" d="M 193.132315 169.799911 
L 192.077133 177.148286 
L 192.775874 177.15423 
z
" style="stroke:#000000;"/>
    <path clip-path="url(#p124fd3d414)" d="M 176.07231 148.591848 
L 179.16383 155.388381 
L 178.511158 155.457419 
z
" style="stroke:#000000;"/>
    <path clip-path="url(#p124fd3d414)" d="M 177.457616 184.048722 
L 178.442637 177.156392 
L 177.792409 177.150433 
z
" style="stroke:#000000;"/>
    <path clip-path="url(#p124fd3d414)" d="M 164.980246 224.180705 
L 162.07424 221.370626 
L 166.109382 215.980918 
z
" style="stroke:#000000;"/>
    <path clip-path="url(#p124fd3d414)" d="M 162.07424 132.934966 
L 164.980246 130.124014 
L 166.109382 138.323461 
z
" style="stroke:#000000;"/>
    <path clip-path="url(#p124fd3d414)" d="M 177.792409 177.150433 
L 178.106705 170.234354 
L 177.457616 170.252246 
z
" style="stroke:#000000;"/>
    <path clip-path="url(#p124fd3d414)" d="M 176.456839 190.87271 
L 178.106705 184.078531 
L 177.457616 184.048722 
z
" style="stroke:#000000;"/>
    <path clip-path="url(#p124fd3d414)" d="M 178.511158 198.843232 
L 176.716688 205.814251 
L 176.07231 205.709536 
z
" style="stroke:#000000;"/>
    <path clip-path="url(#p124fd3d414)" d="M 201.486933 142.00027 
L 204.86189 144.118666 
L 205.189607 135.841404 
z
" style="stroke:#000000;"/>
    <path clip-path="url(#p124fd3d414)" d="M 204.86189 210.186148 
L 201.486933 212.305562 
L 205.189607 218.463311 
z
" style="stroke:#000000;"/>
    <path clip-path="url(#p124fd3d414)" d="M 177.457616 170.252246 
L 177.102525 163.38707 
L 176.456839 163.428559 
z
" style="stroke:#000000;"/>
    <path clip-path="url(#p124fd3d414)" d="M 160.864449 225.863636 
L 164.980246 224.180705 
L 162.568465 226.792513 
z
" style="stroke:#000000;"/>
    <path clip-path="url(#p124fd3d414)" d="M 164.980246 130.124014 
L 160.864449 128.44232 
L 162.568465 127.512931 
z
" style="stroke:#000000;"/>
    <path clip-path="url(#p124fd3d414)" d="M 174.800656 197.548829 
L 177.102525 190.926118 
L 176.456839 190.87271 
z
" style="stroke:#000000;"/>
    <path clip-path="url(#p124fd3d414)" d="M 186.886808 128.746616 
L 194.077119 133.008893 
L 187.567937 128.585351 
z
" style="stroke:#000000;"/>
    <path clip-path="url(#p124fd3d414)" d="M 194.077119 133.008893 
L 186.886808 146.283735 
L 187.567937 146.183056 
z
" style="stroke:#000000;"/>
    <path clip-path="url(#p124fd3d414)" d="M 164.980246 224.180705 
L 160.864449 225.863636 
L 162.07424 221.370626 
z
" style="stroke:#000000;"/>
    <path clip-path="url(#p124fd3d414)" d="M 160.864449 128.44232 
L 164.980246 130.124014 
L 162.07424 132.934966 
z
" style="stroke:#000000;"/>
    <path clip-path="url(#p124fd3d414)" d="M 204.86189 144.118666 
L 201.486933 142.00027 
L 201.960705 150.273967 
z
" style="stroke:#000000;"/>
    <path clip-path="url(#p124fd3d414)" d="M 201.486933 212.305562 
L 204.86189 210.186148 
L 201.960705 204.031722 
z
" style="stroke:#000000;"/>
    <path clip-path="url(#p124fd3d414)" d="M 176.456839 163.428559 
L 175.440708 156.688357 
L 174.800656 156.752937 
z
" style="stroke:#000000;"/>
    <path clip-path="url(#p124fd3d414)" d="M 172.981175 142.034345 
L 176.716688 148.499054 
L 176.07231 148.591848 
z
" style="stroke:#000000;"/>
    <path clip-path="url(#p124fd3d414)" d="M 172.506666 204.004927 
L 175.440708 197.625333 
L 174.800656 197.548829 
z
" style="stroke:#000000;"/>
    <path clip-path="url(#p124fd3d414)" d="M 176.07231 205.709536 
L 173.615035 212.395396 
L 172.981175 212.267968 
z
" style="stroke:#000000;"/>
    <path clip-path="url(#p124fd3d414)" d="M 162.07424 221.370626 
L 160.864449 225.863636 
L 159.074198 224.617857 
z
" style="stroke:#000000;"/>
    <path clip-path="url(#p124fd3d414)" d="M 160.864449 128.44232 
L 162.07424 132.934966 
L 159.074198 129.688637 
z
" style="stroke:#000000;"/>
    <path clip-path="url(#p124fd3d414)" d="M 198.398667 148.549971 
L 201.960705 150.273967 
L 201.486933 142.00027 
z
" style="stroke:#000000;"/>
    <path clip-path="url(#p124fd3d414)" d="M 201.960705 204.031722 
L 198.398667 205.756793 
L 201.486933 212.305562 
z
" style="stroke:#000000;"/>
    <path clip-path="url(#p124fd3d414)" d="M 174.800656 156.752937 
L 173.138912 150.210606 
L 172.506666 150.297529 
z
" style="stroke:#000000;"/>
    <path clip-path="url(#p124fd3d414)" d="M 201.960705 150.273967 
L 198.398667 148.549971 
L 199.669544 156.727946 
z
" style="stroke:#000000;"/>
    <path clip-path="url(#p124fd3d414)" d="M 198.398667 205.756793 
L 201.960705 204.031722 
L 199.669544 197.578434 
z
" style="stroke:#000000;"/>
    <path clip-path="url(#p124fd3d414)" d="M 169.270659 135.85616 
L 173.615035 141.918844 
L 172.981175 142.034345 
z
" style="stroke:#000000;"/>
    <path clip-path="url(#p124fd3d414)" d="M 169.599264 210.1712 
L 173.138912 204.103778 
L 172.506666 204.004927 
z
" style="stroke:#000000;"/>
    <path clip-path="url(#p124fd3d414)" d="M 195.95973 155.417738 
L 199.669544 156.727946 
L 198.398667 148.549971 
z
" style="stroke:#000000;"/>
    <path clip-path="url(#p124fd3d414)" d="M 199.669544 197.578434 
L 195.95973 198.889761 
L 198.398667 205.756793 
z
" style="stroke:#000000;"/>
    <path clip-path="url(#p124fd3d414)" d="M 199.669544 156.727946 
L 195.95973 155.417738 
L 198.014262 163.409028 
z
" style="stroke:#000000;"/>
    <path clip-path="url(#p124fd3d414)" d="M 195.95973 198.889761 
L 199.669544 197.578434 
L 198.014262 190.897852 
z
" style="stroke:#000000;"/>
    <path clip-path="url(#p124fd3d414)" d="M 172.506666 150.297529 
L 170.221611 144.023853 
L 169.599264 144.13213 
z
" style="stroke:#000000;"/>
    <path clip-path="url(#p124fd3d414)" d="M 172.981175 212.267968 
L 169.891887 218.596118 
L 169.270659 218.447269 
z
" style="stroke:#000000;"/>
    <path clip-path="url(#p124fd3d414)" d="M 186.886808 125.239192 
L 177.790274 132.067916 
L 187.567937 125.06581 
z
" style="stroke:#000000;"/>
    <path clip-path="url(#p124fd3d414)" d="M 177.790274 132.067916 
L 186.886808 153.298583 
L 187.567937 153.222137 
z
" style="stroke:#000000;"/>
    <path clip-path="url(#p124fd3d414)" d="M 198.014262 163.409028 
L 194.197625 162.527417 
L 197.013566 170.242917 
z
" style="stroke:#000000;"/>
    <path clip-path="url(#p124fd3d414)" d="M 194.197625 191.780614 
L 198.014262 190.897852 
L 197.013566 184.064264 
z
" style="stroke:#000000;"/>
    <path clip-path="url(#p124fd3d414)" d="M 180.392282 133.106919 
L 187.567937 128.585351 
L 181.051349 132.960634 
z
" style="stroke:#000000;"/>
    <path clip-path="url(#p124fd3d414)" d="M 187.567937 146.183056 
L 180.392282 133.106919 
L 181.051349 132.960634 
z
" style="stroke:#000000;"/>
    <path clip-path="url(#p124fd3d414)" d="M 194.197625 162.527417 
L 198.014262 163.409028 
L 195.95973 155.417738 
z
" style="stroke:#000000;"/>
    <path clip-path="url(#p124fd3d414)" d="M 198.014262 190.897852 
L 194.197625 191.780614 
L 195.95973 198.889761 
z
" style="stroke:#000000;"/>
    <path clip-path="url(#p124fd3d414)" d="M 193.132315 184.508442 
L 197.013566 184.064264 
L 196.678721 177.153641 
z
" style="stroke:#000000;"/>
    <path clip-path="url(#p124fd3d414)" d="M 197.013566 170.242917 
L 193.132315 169.799911 
L 196.678721 177.153641 
z
" style="stroke:#000000;"/>
    <path clip-path="url(#p124fd3d414)" d="M 166.109382 215.980918 
L 170.221611 210.291411 
L 169.599264 210.1712 
z
" style="stroke:#000000;"/>
    <path clip-path="url(#p124fd3d414)" d="M 181.998148 184.517272 
L 181.691776 177.149847 
L 182.355259 177.155802 
z
" style="stroke:#000000;"/>
    <path clip-path="url(#p124fd3d414)" d="M 182.355259 177.155802 
L 181.335874 169.81384 
L 181.998148 169.794439 
z
" style="stroke:#000000;"/>
    <path clip-path="url(#p124fd3d414)" d="M 164.980246 130.124014 
L 169.891887 135.719245 
L 169.270659 135.85616 
z
" style="stroke:#000000;"/>
    <path clip-path="url(#p124fd3d414)" d="M 180.930566 191.799564 
L 181.335874 184.485962 
L 181.998148 184.517272 
z
" style="stroke:#000000;"/>
    <path clip-path="url(#p124fd3d414)" d="M 193.132315 169.799911 
L 197.013566 170.242917 
L 194.197625 162.527417 
z
" style="stroke:#000000;"/>
    <path clip-path="url(#p124fd3d414)" d="M 197.013566 184.064264 
L 193.132315 184.508442 
L 194.197625 191.780614 
z
" style="stroke:#000000;"/>
    <path clip-path="url(#p124fd3d414)" d="M 181.998148 169.794439 
L 180.271908 162.556957 
L 180.930566 162.512469 
z
" style="stroke:#000000;"/>
    <path clip-path="url(#p124fd3d414)" d="M 169.599264 144.13213 
L 166.719841 138.195048 
L 166.109382 138.323461 
z
" style="stroke:#000000;"/>
    <path clip-path="url(#p124fd3d414)" d="M 192.775874 177.15423 
L 196.678721 177.153641 
L 193.132315 169.799911 
z
" style="stroke:#000000;"/>
    <path clip-path="url(#p124fd3d414)" d="M 196.678721 177.153641 
L 192.775874 177.15423 
L 193.132315 184.508442 
z
" style="stroke:#000000;"/>
    <path clip-path="url(#p124fd3d414)" d="M 179.16383 198.924186 
L 180.271908 191.743165 
L 180.930566 191.799564 
z
" style="stroke:#000000;"/>
    <path clip-path="url(#p124fd3d414)" d="M 169.270659 218.447269 
L 165.586856 224.349455 
L 164.980246 224.180705 
z
" style="stroke:#000000;"/>
    <path clip-path="url(#p124fd3d414)" d="M 187.567937 125.06581 
L 194.077119 133.008893 
L 197.328937 132.141805 
z
" style="stroke:#000000;"/>
    <path clip-path="url(#p124fd3d414)" d="M 187.567937 146.183056 
L 197.328937 132.141805 
L 194.077119 133.008893 
z
" style="stroke:#000000;"/>
    <path clip-path="url(#p124fd3d414)" d="M 180.930566 162.512469 
L 178.511158 155.457419 
L 179.16383 155.388381 
z
" style="stroke:#000000;"/>
    <path clip-path="url(#p124fd3d414)" d="M 162.07424 221.370626 
L 166.719841 216.121272 
L 166.109382 215.980918 
z
" style="stroke:#000000;"/>
    <path clip-path="url(#p124fd3d414)" d="M 176.716688 205.814251 
L 178.511158 198.843232 
L 179.16383 198.924186 
z
" style="stroke:#000000;"/>
    <path clip-path="url(#p124fd3d414)" d="M 178.106705 170.234354 
L 177.792409 177.150433 
L 178.442637 177.156392 
z
" style="stroke:#000000;"/>
    <path clip-path="url(#p124fd3d414)" d="M 178.442637 177.156392 
L 177.457616 184.048722 
L 178.106705 184.078531 
z
" style="stroke:#000000;"/>
    <path clip-path="url(#p124fd3d414)" d="M 162.568465 127.512931 
L 165.586856 129.967207 
L 164.980246 130.124014 
z
" style="stroke:#000000;"/>
    <path clip-path="url(#p124fd3d414)" d="M 177.102525 163.38707 
L 177.457616 170.252246 
L 178.106705 170.234354 
z
" style="stroke:#000000;"/>
    <path clip-path="url(#p124fd3d414)" d="M 187.567937 146.183056 
L 187.567937 153.222137 
L 197.328937 132.141805 
z
" style="stroke:#000000;"/>
    <path clip-path="url(#p124fd3d414)" d="M 179.16383 155.388381 
L 176.07231 148.591848 
L 176.716688 148.499054 
z
" style="stroke:#000000;"/>
    <path clip-path="url(#p124fd3d414)" d="M 178.106705 184.078531 
L 176.456839 190.87271 
L 177.102525 190.926118 
z
" style="stroke:#000000;"/>
    <path clip-path="url(#p124fd3d414)" d="M 166.109382 138.323461 
L 162.670944 132.787852 
L 162.07424 132.934966 
z
" style="stroke:#000000;"/>
    <path clip-path="url(#p124fd3d414)" d="M 164.980246 224.180705 
L 163.166854 226.97034 
L 162.568465 226.792513 
z
" style="stroke:#000000;"/>
    <path clip-path="url(#p124fd3d414)" d="M 187.567937 125.06581 
L 187.567937 128.585351 
L 194.077119 133.008893 
z
" style="stroke:#000000;"/>
    <path clip-path="url(#p124fd3d414)" d="M 175.440708 156.688357 
L 176.456839 163.428559 
L 177.102525 163.38707 
z
" style="stroke:#000000;"/>
    <path clip-path="url(#p124fd3d414)" d="M 177.102525 190.926118 
L 174.800656 197.548829 
L 175.440708 197.625333 
z
" style="stroke:#000000;"/>
    <path clip-path="url(#p124fd3d414)" d="M 163.166854 226.97034 
L 160.864449 225.863636 
L 162.568465 226.792513 
z
" style="stroke:#000000;"/>
    <path clip-path="url(#p124fd3d414)" d="M 173.615035 212.395396 
L 176.07231 205.709536 
L 176.716688 205.814251 
z
" style="stroke:#000000;"/>
    <path clip-path="url(#p124fd3d414)" d="M 161.457027 128.279634 
L 162.568465 127.512931 
L 160.864449 128.44232 
z
" style="stroke:#000000;"/>
    <path clip-path="url(#p124fd3d414)" d="M 162.670944 132.787852 
L 159.074198 129.688637 
L 162.07424 132.934966 
z
" style="stroke:#000000;"/>
    <path clip-path="url(#p124fd3d414)" d="M 173.138912 150.210606 
L 174.800656 156.752937 
L 175.440708 156.688357 
z
" style="stroke:#000000;"/>
    <path clip-path="url(#p124fd3d414)" d="M 176.716688 148.499054 
L 172.981175 142.034345 
L 173.615035 141.918844 
z
" style="stroke:#000000;"/>
    <path clip-path="url(#p124fd3d414)" d="M 161.457027 226.038274 
L 159.074198 224.617857 
L 160.864449 225.863636 
z
" style="stroke:#000000;"/>
    <path clip-path="url(#p124fd3d414)" d="M 175.440708 197.625333 
L 172.506666 204.004927 
L 173.138912 204.103778 
z
" style="stroke:#000000;"/>
    <path clip-path="url(#p124fd3d414)" d="M 159.660669 224.788208 
L 162.07424 221.370626 
L 159.074198 224.617857 
z
" style="stroke:#000000;"/>
    <path clip-path="url(#p124fd3d414)" d="M 159.660669 129.530242 
L 160.864449 128.44232 
L 159.074198 129.688637 
z
" style="stroke:#000000;"/>
    <path clip-path="url(#p124fd3d414)" d="M 169.891887 218.596118 
L 172.981175 212.267968 
L 173.615035 212.395396 
z
" style="stroke:#000000;"/>
    <path clip-path="url(#p124fd3d414)" d="M 187.567937 125.06581 
L 181.051349 132.960634 
L 187.567937 128.585351 
z
" style="stroke:#000000;"/>
    <path clip-path="url(#p124fd3d414)" d="M 170.221611 144.023853 
L 172.506666 150.297529 
L 173.138912 150.210606 
z
" style="stroke:#000000;"/>
    <path clip-path="url(#p124fd3d414)" d="M 173.138912 204.103778 
L 169.599264 210.1712 
L 170.221611 210.291411 
z
" style="stroke:#000000;"/>
    <path clip-path="url(#p124fd3d414)" d="M 173.615035 141.918844 
L 169.270659 135.85616 
L 169.891887 135.719245 
z
" style="stroke:#000000;"/>
    <path clip-path="url(#p124fd3d414)" d="M 187.567937 146.183056 
L 177.790274 132.067916 
L 187.567937 153.222137 
z
" style="stroke:#000000;"/>
    <path clip-path="url(#p124fd3d414)" d="M 166.719841 138.195048 
L 169.599264 144.13213 
L 170.221611 144.023853 
z
" style="stroke:#000000;"/>
    <path clip-path="url(#p124fd3d414)" d="M 181.051349 132.960634 
L 187.567937 125.06581 
L 177.790274 132.067916 
z
" style="stroke:#000000;"/>
    <path clip-path="url(#p124fd3d414)" d="M 177.790274 132.067916 
L 187.567937 146.183056 
L 181.051349 132.960634 
z
" style="stroke:#000000;"/>
    <path clip-path="url(#p124fd3d414)" d="M 165.586856 224.349455 
L 169.270659 218.447269 
L 169.891887 218.596118 
z
" style="stroke:#000000;"/>
    <path clip-path="url(#p124fd3d414)" d="M 170.221611 210.291411 
L 166.109382 215.980918 
L 166.719841 216.121272 
z
" style="stroke:#000000;"/>
    <path clip-path="url(#p124fd3d414)" d="M 178.442637 177.156392 
L 182.355259 177.155802 
L 181.998148 169.794439 
z
" style="stroke:#000000;"/>
    <path clip-path="url(#p124fd3d414)" d="M 182.355259 177.155802 
L 178.442637 177.156392 
L 181.998148 184.517272 
z
" style="stroke:#000000;"/>
    <path clip-path="url(#p124fd3d414)" d="M 178.106705 170.234354 
L 181.998148 169.794439 
L 180.930566 162.512469 
z
" style="stroke:#000000;"/>
    <path clip-path="url(#p124fd3d414)" d="M 181.998148 184.517272 
L 178.106705 184.078531 
L 180.930566 191.799564 
z
" style="stroke:#000000;"/>
    <path clip-path="url(#p124fd3d414)" d="M 169.891887 135.719245 
L 164.980246 130.124014 
L 165.586856 129.967207 
z
" style="stroke:#000000;"/>
    <path clip-path="url(#p124fd3d414)" d="M 178.106705 184.078531 
L 181.998148 184.517272 
L 178.442637 177.156392 
z
" style="stroke:#000000;"/>
    <path clip-path="url(#p124fd3d414)" d="M 181.998148 169.794439 
L 178.106705 170.234354 
L 178.442637 177.156392 
z
" style="stroke:#000000;"/>
    <path clip-path="url(#p124fd3d414)" d="M 177.102525 163.38707 
L 180.930566 162.512469 
L 179.16383 155.388381 
z
" style="stroke:#000000;"/>
    <path clip-path="url(#p124fd3d414)" d="M 180.930566 191.799564 
L 177.102525 190.926118 
L 179.16383 198.924186 
z
" style="stroke:#000000;"/>
    <path clip-path="url(#p124fd3d414)" d="M 180.930566 162.512469 
L 177.102525 163.38707 
L 178.106705 170.234354 
z
" style="stroke:#000000;"/>
    <path clip-path="url(#p124fd3d414)" d="M 177.102525 190.926118 
L 180.930566 191.799564 
L 178.106705 184.078531 
z
" style="stroke:#000000;"/>
    <path clip-path="url(#p124fd3d414)" d="M 162.670944 132.787852 
L 166.109382 138.323461 
L 166.719841 138.195048 
z
" style="stroke:#000000;"/>
    <path clip-path="url(#p124fd3d414)" d="M 163.166854 226.97034 
L 164.980246 224.180705 
L 165.586856 224.349455 
z
" style="stroke:#000000;"/>
    <path clip-path="url(#p124fd3d414)" d="M 179.16383 155.388381 
L 175.440708 156.688357 
L 177.102525 163.38707 
z
" style="stroke:#000000;"/>
    <path clip-path="url(#p124fd3d414)" d="M 175.440708 197.625333 
L 179.16383 198.924186 
L 177.102525 190.926118 
z
" style="stroke:#000000;"/>
    <path clip-path="url(#p124fd3d414)" d="M 166.719841 216.121272 
L 162.07424 221.370626 
L 162.670944 221.52969 
z
" style="stroke:#000000;"/>
    <path clip-path="url(#p124fd3d414)" d="M 165.586856 129.967207 
L 162.568465 127.512931 
L 163.166854 127.347052 
z
" style="stroke:#000000;"/>
    <path clip-path="url(#p124fd3d414)" d="M 175.440708 156.688357 
L 179.16383 155.388381 
L 176.716688 148.499054 
z
" style="stroke:#000000;"/>
    <path clip-path="url(#p124fd3d414)" d="M 179.16383 198.924186 
L 175.440708 197.625333 
L 176.716688 205.814251 
z
" style="stroke:#000000;"/>
    <path clip-path="url(#p124fd3d414)" d="M 162.568465 127.512931 
L 161.457027 128.279634 
L 163.166854 127.347052 
z
" style="stroke:#000000;"/>
    <path clip-path="url(#p124fd3d414)" d="M 160.864449 225.863636 
L 163.166854 226.97034 
L 161.457027 226.038274 
z
" style="stroke:#000000;"/>
    <path clip-path="url(#p124fd3d414)" d="M 176.716688 148.499054 
L 173.138912 150.210606 
L 175.440708 156.688357 
z
" style="stroke:#000000;"/>
    <path clip-path="url(#p124fd3d414)" d="M 173.138912 204.103778 
L 176.716688 205.814251 
L 175.440708 197.625333 
z
" style="stroke:#000000;"/>
    <path clip-path="url(#p124fd3d414)" d="M 162.07424 221.370626 
L 159.660669 224.788208 
L 162.670944 221.52969 
z
" style="stroke:#000000;"/>
    <path clip-path="url(#p124fd3d414)" d="M 173.138912 150.210606 
L 176.716688 148.499054 
L 173.615035 141.918844 
z
" style="stroke:#000000;"/>
    <path clip-path="url(#p124fd3d414)" d="M 176.716688 205.814251 
L 173.138912 204.103778 
L 173.615035 212.395396 
z
" style="stroke:#000000;"/>
    <path clip-path="url(#p124fd3d414)" d="M 160.864449 128.44232 
L 159.660669 129.530242 
L 161.457027 128.279634 
z
" style="stroke:#000000;"/>
    <path clip-path="url(#p124fd3d414)" d="M 159.074198 129.688637 
L 162.670944 132.787852 
L 159.660669 129.530242 
z
" style="stroke:#000000;"/>
    <path clip-path="url(#p124fd3d414)" d="M 159.074198 224.617857 
L 161.457027 226.038274 
L 159.660669 224.788208 
z
" style="stroke:#000000;"/>
    <path clip-path="url(#p124fd3d414)" d="M 173.615035 141.918844 
L 170.221611 144.023853 
L 173.138912 150.210606 
z
" style="stroke:#000000;"/>
    <path clip-path="url(#p124fd3d414)" d="M 170.221611 210.291411 
L 173.615035 212.395396 
L 173.138912 204.103778 
z
" style="stroke:#000000;"/>
    <path clip-path="url(#p124fd3d414)" d="M 169.891887 135.719245 
L 170.221611 144.023853 
L 173.615035 141.918844 
z
" style="stroke:#000000;"/>
    <path clip-path="url(#p124fd3d414)" d="M 170.221611 210.291411 
L 169.891887 218.596118 
L 173.615035 212.395396 
z
" style="stroke:#000000;"/>
    <path clip-path="url(#p124fd3d414)" d="M 169.891887 135.719245 
L 166.719841 138.195048 
L 170.221611 144.023853 
z
" style="stroke:#000000;"/>
    <path clip-path="url(#p124fd3d414)" d="M 166.719841 216.121272 
L 169.891887 218.596118 
L 170.221611 210.291411 
z
" style="stroke:#000000;"/>
    <path clip-path="url(#p124fd3d414)" d="M 165.586856 129.967207 
L 166.719841 138.195048 
L 169.891887 135.719245 
z
" style="stroke:#000000;"/>
    <path clip-path="url(#p124fd3d414)" d="M 166.719841 216.121272 
L 165.586856 224.349455 
L 169.891887 218.596118 
z
" style="stroke:#000000;"/>
    <path clip-path="url(#p124fd3d414)" d="M 165.586856 129.967207 
L 162.670944 132.787852 
L 166.719841 138.195048 
z
" style="stroke:#000000;"/>
    <path clip-path="url(#p124fd3d414)" d="M 162.670944 221.52969 
L 165.586856 224.349455 
L 166.719841 216.121272 
z
" style="stroke:#000000;"/>
    <path clip-path="url(#p124fd3d414)" d="M 161.457027 128.279634 
L 165.586856 129.967207 
L 163.166854 127.347052 
z
" style="stroke:#000000;"/>
    <path clip-path="url(#p124fd3d414)" d="M 165.586856 224.349455 
L 161.457027 226.038274 
L 163.166854 226.97034 
z
" style="stroke:#000000;"/>
    <path clip-path="url(#p124fd3d414)" d="M 165.586856 129.967207 
L 161.457027 128.279634 
L 162.670944 132.787852 
z
" style="stroke:#000000;"/>
    <path clip-path="url(#p124fd3d414)" d="M 161.457027 226.038274 
L 165.586856 224.349455 
L 162.670944 221.52969 
z
" style="stroke:#000000;"/>
    <path clip-path="url(#p124fd3d414)" d="M 162.670944 132.787852 
L 161.457027 128.279634 
L 159.660669 129.530242 
z
" style="stroke:#000000;"/>
    <path clip-path="url(#p124fd3d414)" d="M 161.457027 226.038274 
L 162.670944 221.52969 
L 159.660669 224.788208 
z
" style="stroke:#000000;"/>
   </g>
  </g>
 </g>
 <defs>
  <clipPath id="p124fd3d414">
   <rect height="271.8" width="279" x="45" y="43.2"/>
  </clipPath>
 </defs>
</svg>
