<?xml version="1.0" encoding="utf-8" standalone="no"?>
<!DOCTYPE svg PUBLIC "-//W3C//DTD SVG 1.1//EN"
  "http://www.w3.org/Graphics/SVG/1.1/DTD/svg11.dtd">
<!-- Created with matplotlib (https://matplotlib.org/) -->
<svg height="360pt" version="1.1" viewBox="0 0 360 360" width="360pt" xmlns="http://www.w3.org/2000/svg" xmlns:xlink="http://www.w3.org/1999/xlink">
 <defs>
  <style type="text/css">
*{stroke-linecap:butt;stroke-linejoin:round;}
  </style>
 </defs>
 <g id="figure_1">
  <g id="patch_1">
   <path d="M 45 315 
L 324 315 
L 324 43.2 
L 45 43.2 
z
" style="fill:#ffffff;"/>
  </g>
  <g id="axes_1">
   <g id="Poly3DCollection_1">
    <path clip-path="url(#pdf63812d30)" d="M 162.306138 221.055637 
L 161.143989 225.502176 
L 159.425572 224.242731 
z
" style="stroke:#000000;"/>
    <path clip-path="url(#pdf63812d30)" d="M 161.143989 128.779042 
L 162.306138 133.226291 
L 159.425572 130.037435 
z
" style="stroke:#000000;"/>
    <path clip-path="url(#pdf63812d30)" d="M 165.100677 223.882867 
L 161.143989 225.502176 
L 162.306138 221.055637 
z
" style="stroke:#000000;"/>
    <path clip-path="url(#pdf63812d30)" d="M 161.143989 128.779042 
L 165.100677 130.400772 
L 162.306138 133.226291 
z
" style="stroke:#000000;"/>
    <path clip-path="url(#pdf63812d30)" d="M 161.143989 225.502176 
L 165.100677 223.882867 
L 162.781109 226.446872 
z
" style="stroke:#000000;"/>
    <path clip-path="url(#pdf63812d30)" d="M 165.100677 130.400772 
L 161.143989 128.779042 
L 162.781109 127.835347 
z
" style="stroke:#000000;"/>
    <path clip-path="url(#pdf63812d30)" d="M 165.100677 223.882867 
L 162.306138 221.055637 
L 166.187638 215.744955 
z
" style="stroke:#000000;"/>
    <path clip-path="url(#pdf63812d30)" d="M 162.306138 133.226291 
L 165.100677 130.400772 
L 166.187638 138.539348 
z
" style="stroke:#000000;"/>
    <path clip-path="url(#pdf63812d30)" d="M 157.976165 129.885479 
L 161.143989 128.779042 
L 159.425572 130.037435 
z
" style="stroke:#000000;"/>
    <path clip-path="url(#pdf63812d30)" d="M 157.976165 224.406157 
L 162.306138 221.055637 
L 159.425572 224.242731 
z
" style="stroke:#000000;"/>
    <path clip-path="url(#pdf63812d30)" d="M 159.69989 225.66987 
L 159.425572 224.242731 
L 161.143989 225.502176 
z
" style="stroke:#000000;"/>
    <path clip-path="url(#pdf63812d30)" d="M 165.100677 223.882867 
L 166.187638 215.744955 
L 169.234216 218.231988 
z
" style="stroke:#000000;"/>
    <path clip-path="url(#pdf63812d30)" d="M 166.187638 138.539348 
L 165.100677 130.400772 
L 169.234216 136.05418 
z
" style="stroke:#000000;"/>
    <path clip-path="url(#pdf63812d30)" d="M 160.865631 133.084938 
L 159.425572 130.037435 
L 162.306138 133.226291 
z
" style="stroke:#000000;"/>
    <path clip-path="url(#pdf63812d30)" d="M 159.69989 128.622825 
L 162.781109 127.835347 
L 161.143989 128.779042 
z
" style="stroke:#000000;"/>
    <path clip-path="url(#pdf63812d30)" d="M 169.234216 218.231988 
L 166.187638 215.744955 
L 169.551185 210.000278 
z
" style="stroke:#000000;"/>
    <path clip-path="url(#pdf63812d30)" d="M 166.187638 138.539348 
L 169.234216 136.05418 
L 169.551185 144.286084 
z
" style="stroke:#000000;"/>
    <path clip-path="url(#pdf63812d30)" d="M 161.342071 226.61778 
L 161.143989 225.502176 
L 162.781109 226.446872 
z
" style="stroke:#000000;"/>
    <path clip-path="url(#pdf63812d30)" d="M 165.100677 223.882867 
L 161.342071 226.61778 
L 162.781109 226.446872 
z
" style="stroke:#000000;"/>
    <path clip-path="url(#pdf63812d30)" d="M 166.187638 138.539348 
L 160.865631 133.084938 
L 162.306138 133.226291 
z
" style="stroke:#000000;"/>
    <path clip-path="url(#pdf63812d30)" d="M 169.234216 218.231988 
L 169.551185 210.000278 
L 172.816478 212.118885 
z
" style="stroke:#000000;"/>
    <path clip-path="url(#pdf63812d30)" d="M 169.551185 144.286084 
L 169.234216 136.05418 
L 172.816478 142.169475 
z
" style="stroke:#000000;"/>
    <path clip-path="url(#pdf63812d30)" d="M 162.781109 127.835347 
L 163.668815 130.249879 
L 165.100677 130.400772 
z
" style="stroke:#000000;"/>
    <path clip-path="url(#pdf63812d30)" d="M 162.306138 221.055637 
L 164.759141 215.880096 
L 166.187638 215.744955 
z
" style="stroke:#000000;"/>
    <path clip-path="url(#pdf63812d30)" d="M 172.816478 212.118885 
L 169.551185 210.000278 
L 172.357987 203.885779 
z
" style="stroke:#000000;"/>
    <path clip-path="url(#pdf63812d30)" d="M 169.551185 144.286084 
L 172.816478 142.169475 
L 172.357987 150.402299 
z
" style="stroke:#000000;"/>
    <path clip-path="url(#pdf63812d30)" d="M 159.425572 224.242731 
L 159.69989 225.66987 
L 157.976165 224.406157 
z
" style="stroke:#000000;"/>
    <path clip-path="url(#pdf63812d30)" d="M 169.234216 218.231988 
L 163.668815 224.045253 
L 165.100677 223.882867 
z
" style="stroke:#000000;"/>
    <path clip-path="url(#pdf63812d30)" d="M 159.425572 130.037435 
L 160.865631 133.084938 
L 157.976165 129.885479 
z
" style="stroke:#000000;"/>
    <path clip-path="url(#pdf63812d30)" d="M 161.143989 128.779042 
L 157.976165 129.885479 
L 159.69989 128.622825 
z
" style="stroke:#000000;"/>
    <path clip-path="url(#pdf63812d30)" d="M 169.551185 144.286084 
L 164.759141 138.415705 
L 166.187638 138.539348 
z
" style="stroke:#000000;"/>
    <path clip-path="url(#pdf63812d30)" d="M 172.357987 203.885779 
L 175.806038 205.611191 
L 172.816478 212.118885 
z
" style="stroke:#000000;"/>
    <path clip-path="url(#pdf63812d30)" d="M 175.806038 148.678998 
L 172.357987 150.402299 
L 172.816478 142.169475 
z
" style="stroke:#000000;"/>
    <path clip-path="url(#pdf63812d30)" d="M 162.306138 221.055637 
L 157.976165 224.406157 
L 160.865631 221.208472 
z
" style="stroke:#000000;"/>
    <path clip-path="url(#pdf63812d30)" d="M 165.100677 130.400772 
L 167.815157 135.922135 
L 169.234216 136.05418 
z
" style="stroke:#000000;"/>
    <path clip-path="url(#pdf63812d30)" d="M 161.143989 225.502176 
L 161.342071 226.61778 
L 159.69989 225.66987 
z
" style="stroke:#000000;"/>
    <path clip-path="url(#pdf63812d30)" d="M 175.806038 205.611191 
L 172.357987 203.885779 
L 174.57559 197.46971 
z
" style="stroke:#000000;"/>
    <path clip-path="url(#pdf63812d30)" d="M 172.357987 150.402299 
L 175.806038 148.678998 
L 174.57559 156.819725 
z
" style="stroke:#000000;"/>
    <path clip-path="url(#pdf63812d30)" d="M 166.187638 215.744955 
L 168.133109 210.116233 
L 169.551185 210.000278 
z
" style="stroke:#000000;"/>
    <path clip-path="url(#pdf63812d30)" d="M 162.781109 127.835347 
L 159.69989 128.622825 
L 161.342071 127.675923 
z
" style="stroke:#000000;"/>
    <path clip-path="url(#pdf63812d30)" d="M 163.668815 130.249879 
L 162.781109 127.835347 
L 161.342071 127.675923 
z
" style="stroke:#000000;"/>
    <path clip-path="url(#pdf63812d30)" d="M 164.759141 215.880096 
L 162.306138 221.055637 
L 160.865631 221.208472 
z
" style="stroke:#000000;"/>
    <path clip-path="url(#pdf63812d30)" d="M 174.57559 197.46971 
L 178.168132 198.781969 
L 175.806038 205.611191 
z
" style="stroke:#000000;"/>
    <path clip-path="url(#pdf63812d30)" d="M 178.168132 155.509664 
L 174.57559 156.819725 
L 175.806038 148.678998 
z
" style="stroke:#000000;"/>
    <path clip-path="url(#pdf63812d30)" d="M 178.168132 198.781969 
L 174.57559 197.46971 
L 176.178267 190.824085 
z
" style="stroke:#000000;"/>
    <path clip-path="url(#pdf63812d30)" d="M 174.57559 156.819725 
L 178.168132 155.509664 
L 176.178267 163.466331 
z
" style="stroke:#000000;"/>
    <path clip-path="url(#pdf63812d30)" d="M 172.816478 212.118885 
L 167.815157 218.375543 
L 169.234216 218.231988 
z
" style="stroke:#000000;"/>
    <path clip-path="url(#pdf63812d30)" d="M 172.357987 150.402299 
L 168.133109 144.18164 
L 169.551185 144.286084 
z
" style="stroke:#000000;"/>
    <path clip-path="url(#pdf63812d30)" d="M 161.342071 226.61778 
L 165.100677 223.882867 
L 163.668815 224.045253 
z
" style="stroke:#000000;"/>
    <path clip-path="url(#pdf63812d30)" d="M 160.865631 133.084938 
L 166.187638 138.539348 
L 164.759141 138.415705 
z
" style="stroke:#000000;"/>
    <path clip-path="url(#pdf63812d30)" d="M 169.551185 210.000278 
L 170.948617 203.981275 
L 172.357987 203.885779 
z
" style="stroke:#000000;"/>
    <path clip-path="url(#pdf63812d30)" d="M 179.87533 191.707923 
L 176.178267 190.824085 
L 177.147379 184.023813 
z
" style="stroke:#000000;"/>
    <path clip-path="url(#pdf63812d30)" d="M 176.178267 163.466331 
L 179.87533 162.584755 
L 177.147379 170.267196 
z
" style="stroke:#000000;"/>
    <path clip-path="url(#pdf63812d30)" d="M 169.234216 136.05418 
L 171.408532 142.057867 
L 172.816478 142.169475 
z
" style="stroke:#000000;"/>
    <path clip-path="url(#pdf63812d30)" d="M 176.178267 190.824085 
L 179.87533 191.707923 
L 178.168132 198.781969 
z
" style="stroke:#000000;"/>
    <path clip-path="url(#pdf63812d30)" d="M 179.87533 162.584755 
L 176.178267 163.466331 
L 178.168132 155.509664 
z
" style="stroke:#000000;"/>
    <path clip-path="url(#pdf63812d30)" d="M 177.147379 170.267196 
L 180.907693 169.824415 
L 177.471693 177.145604 
z
" style="stroke:#000000;"/>
    <path clip-path="url(#pdf63812d30)" d="M 180.907693 184.468895 
L 177.147379 184.023813 
L 177.471693 177.145604 
z
" style="stroke:#000000;"/>
    <path clip-path="url(#pdf63812d30)" d="M 167.815157 135.922135 
L 165.100677 130.400772 
L 163.668815 130.249879 
z
" style="stroke:#000000;"/>
    <path clip-path="url(#pdf63812d30)" d="M 177.147379 184.023813 
L 180.907693 184.468895 
L 179.87533 191.707923 
z
" style="stroke:#000000;"/>
    <path clip-path="url(#pdf63812d30)" d="M 180.907693 169.824415 
L 177.147379 170.267196 
L 179.87533 162.584755 
z
" style="stroke:#000000;"/>
    <path clip-path="url(#pdf63812d30)" d="M 174.57559 156.819725 
L 170.948617 150.318327 
L 172.357987 150.402299 
z
" style="stroke:#000000;"/>
    <path clip-path="url(#pdf63812d30)" d="M 160.865631 133.084938 
L 159.69989 128.622825 
L 157.976165 129.885479 
z
" style="stroke:#000000;"/>
    <path clip-path="url(#pdf63812d30)" d="M 159.69989 225.66987 
L 160.865631 221.208472 
L 157.976165 224.406157 
z
" style="stroke:#000000;"/>
    <path clip-path="url(#pdf63812d30)" d="M 168.133109 210.116233 
L 166.187638 215.744955 
L 164.759141 215.880096 
z
" style="stroke:#000000;"/>
    <path clip-path="url(#pdf63812d30)" d="M 177.471693 177.145604 
L 181.253152 177.146761 
L 180.907693 184.468895 
z
" style="stroke:#000000;"/>
    <path clip-path="url(#pdf63812d30)" d="M 181.253152 177.146761 
L 177.471693 177.145604 
L 180.907693 169.824415 
z
" style="stroke:#000000;"/>
    <path clip-path="url(#pdf63812d30)" d="M 175.806038 205.611191 
L 171.408532 212.242017 
L 172.816478 212.118885 
z
" style="stroke:#000000;"/>
    <path clip-path="url(#pdf63812d30)" d="M 172.357987 203.885779 
L 173.173106 197.543706 
L 174.57559 197.46971 
z
" style="stroke:#000000;"/>
    <path clip-path="url(#pdf63812d30)" d="M 163.668815 224.045253 
L 169.234216 218.231988 
L 167.815157 218.375543 
z
" style="stroke:#000000;"/>
    <path clip-path="url(#pdf63812d30)" d="M 164.759141 138.415705 
L 169.551185 144.286084 
L 168.133109 144.18164 
z
" style="stroke:#000000;"/>
    <path clip-path="url(#pdf63812d30)" d="M 186.303023 146.296613 
L 176.841944 132.345682 
L 179.9921 133.197006 
z
" style="stroke:#000000;"/>
    <path clip-path="url(#pdf63812d30)" d="M 186.303023 125.261368 
L 179.9921 133.197006 
L 176.841944 132.345682 
z
" style="stroke:#000000;"/>
    <path clip-path="url(#pdf63812d30)" d="M 172.816478 142.169475 
L 174.407377 148.589187 
L 175.806038 148.678998 
z
" style="stroke:#000000;"/>
    <path clip-path="url(#pdf63812d30)" d="M 176.178267 163.466331 
L 173.173106 156.757262 
L 174.57559 156.819725 
z
" style="stroke:#000000;"/>
    <path clip-path="url(#pdf63812d30)" d="M 163.668815 130.249879 
L 159.69989 128.622825 
L 160.865631 133.084938 
z
" style="stroke:#000000;"/>
    <path clip-path="url(#pdf63812d30)" d="M 159.69989 225.66987 
L 163.668815 224.045253 
L 160.865631 221.208472 
z
" style="stroke:#000000;"/>
    <path clip-path="url(#pdf63812d30)" d="M 159.69989 128.622825 
L 163.668815 130.249879 
L 161.342071 127.675923 
z
" style="stroke:#000000;"/>
    <path clip-path="url(#pdf63812d30)" d="M 163.668815 224.045253 
L 159.69989 225.66987 
L 161.342071 226.61778 
z
" style="stroke:#000000;"/>
    <path clip-path="url(#pdf63812d30)" d="M 174.57559 197.46971 
L 174.780762 190.875786 
L 176.178267 190.824085 
z
" style="stroke:#000000;"/>
    <path clip-path="url(#pdf63812d30)" d="M 177.147379 170.267196 
L 174.780762 163.426169 
L 176.178267 163.466331 
z
" style="stroke:#000000;"/>
    <path clip-path="url(#pdf63812d30)" d="M 178.168132 198.781969 
L 174.407377 205.712538 
L 175.806038 205.611191 
z
" style="stroke:#000000;"/>
    <path clip-path="url(#pdf63812d30)" d="M 171.408532 142.057867 
L 169.234216 136.05418 
L 167.815157 135.922135 
z
" style="stroke:#000000;"/>
    <path clip-path="url(#pdf63812d30)" d="M 170.948617 203.981275 
L 169.551185 210.000278 
L 168.133109 210.116233 
z
" style="stroke:#000000;"/>
    <path clip-path="url(#pdf63812d30)" d="M 176.178267 190.824085 
L 175.752888 184.052685 
L 177.147379 184.023813 
z
" style="stroke:#000000;"/>
    <path clip-path="url(#pdf63812d30)" d="M 176.841944 132.345682 
L 186.303023 146.296613 
L 186.303023 153.308361 
z
" style="stroke:#000000;"/>
    <path clip-path="url(#pdf63812d30)" d="M 163.668815 130.249879 
L 160.865631 133.084938 
L 164.759141 138.415705 
z
" style="stroke:#000000;"/>
    <path clip-path="url(#pdf63812d30)" d="M 160.865631 221.208472 
L 163.668815 224.045253 
L 164.759141 215.880096 
z
" style="stroke:#000000;"/>
    <path clip-path="url(#pdf63812d30)" d="M 177.471693 177.145604 
L 175.752888 170.249867 
L 177.147379 170.267196 
z
" style="stroke:#000000;"/>
    <path clip-path="url(#pdf63812d30)" d="M 177.147379 184.023813 
L 176.078209 177.151376 
L 177.471693 177.145604 
z
" style="stroke:#000000;"/>
    <path clip-path="url(#pdf63812d30)" d="M 175.806038 148.678998 
L 176.776815 155.442761 
L 178.168132 155.509664 
z
" style="stroke:#000000;"/>
    <path clip-path="url(#pdf63812d30)" d="M 168.133109 144.18164 
L 172.357987 150.402299 
L 170.948617 150.318327 
z
" style="stroke:#000000;"/>
    <path clip-path="url(#pdf63812d30)" d="M 167.815157 218.375543 
L 172.816478 212.118885 
L 171.408532 212.242017 
z
" style="stroke:#000000;"/>
    <path clip-path="url(#pdf63812d30)" d="M 179.9921 133.197006 
L 186.303023 125.261368 
L 186.303023 128.767242 
z
" style="stroke:#000000;"/>
    <path clip-path="url(#pdf63812d30)" d="M 179.87533 191.707923 
L 176.776815 198.86042 
L 178.168132 198.781969 
z
" style="stroke:#000000;"/>
    <path clip-path="url(#pdf63812d30)" d="M 178.168132 155.509664 
L 178.489325 162.541604 
L 179.87533 162.584755 
z
" style="stroke:#000000;"/>
    <path clip-path="url(#pdf63812d30)" d="M 163.668815 130.249879 
L 164.759141 138.415705 
L 167.815157 135.922135 
z
" style="stroke:#000000;"/>
    <path clip-path="url(#pdf63812d30)" d="M 164.759141 215.880096 
L 163.668815 224.045253 
L 167.815157 218.375543 
z
" style="stroke:#000000;"/>
    <path clip-path="url(#pdf63812d30)" d="M 173.173106 197.543706 
L 172.357987 203.885779 
L 170.948617 203.981275 
z
" style="stroke:#000000;"/>
    <path clip-path="url(#pdf63812d30)" d="M 175.446503 132.201003 
L 186.303023 125.261368 
L 176.841944 132.345682 
z
" style="stroke:#000000;"/>
    <path clip-path="url(#pdf63812d30)" d="M 186.303023 153.308361 
L 175.446503 132.201003 
L 176.841944 132.345682 
z
" style="stroke:#000000;"/>
    <path clip-path="url(#pdf63812d30)" d="M 174.407377 148.589187 
L 172.816478 142.169475 
L 171.408532 142.057867 
z
" style="stroke:#000000;"/>
    <path clip-path="url(#pdf63812d30)" d="M 170.948617 150.318327 
L 174.57559 156.819725 
L 173.173106 156.757262 
z
" style="stroke:#000000;"/>
    <path clip-path="url(#pdf63812d30)" d="M 180.907693 184.468895 
L 178.489325 191.762628 
L 179.87533 191.707923 
z
" style="stroke:#000000;"/>
    <path clip-path="url(#pdf63812d30)" d="M 179.87533 162.584755 
L 179.524902 169.805586 
L 180.907693 169.824415 
z
" style="stroke:#000000;"/>
    <path clip-path="url(#pdf63812d30)" d="M 167.815157 135.922135 
L 164.759141 138.415705 
L 168.133109 144.18164 
z
" style="stroke:#000000;"/>
    <path clip-path="url(#pdf63812d30)" d="M 164.759141 215.880096 
L 167.815157 218.375543 
L 168.133109 210.116233 
z
" style="stroke:#000000;"/>
    <path clip-path="url(#pdf63812d30)" d="M 181.253152 177.146761 
L 179.524902 184.499282 
L 180.907693 184.468895 
z
" style="stroke:#000000;"/>
    <path clip-path="url(#pdf63812d30)" d="M 171.408532 212.242017 
L 175.806038 205.611191 
L 174.407377 205.712538 
z
" style="stroke:#000000;"/>
    <path clip-path="url(#pdf63812d30)" d="M 180.907693 169.824415 
L 179.871436 177.152541 
L 181.253152 177.146761 
z
" style="stroke:#000000;"/>
    <path clip-path="url(#pdf63812d30)" d="M 174.780762 190.875786 
L 174.57559 197.46971 
L 173.173106 197.543706 
z
" style="stroke:#000000;"/>
    <path clip-path="url(#pdf63812d30)" d="M 173.173106 156.757262 
L 176.178267 163.466331 
L 174.780762 163.426169 
z
" style="stroke:#000000;"/>
    <path clip-path="url(#pdf63812d30)" d="M 186.303023 125.261368 
L 192.628137 133.102057 
L 186.303023 128.767242 
z
" style="stroke:#000000;"/>
    <path clip-path="url(#pdf63812d30)" d="M 175.752888 184.052685 
L 176.178267 190.824085 
L 174.780762 190.875786 
z
" style="stroke:#000000;"/>
    <path clip-path="url(#pdf63812d30)" d="M 176.776815 155.442761 
L 175.806038 148.678998 
L 174.407377 148.589187 
z
" style="stroke:#000000;"/>
    <path clip-path="url(#pdf63812d30)" d="M 167.815157 135.922135 
L 168.133109 144.18164 
L 171.408532 142.057867 
z
" style="stroke:#000000;"/>
    <path clip-path="url(#pdf63812d30)" d="M 168.133109 210.116233 
L 167.815157 218.375543 
L 171.408532 212.242017 
z
" style="stroke:#000000;"/>
    <path clip-path="url(#pdf63812d30)" d="M 174.780762 163.426169 
L 177.147379 170.267196 
L 175.752888 170.249867 
z
" style="stroke:#000000;"/>
    <path clip-path="url(#pdf63812d30)" d="M 186.303023 146.296613 
L 195.796029 132.200305 
L 186.303023 153.308361 
z
" style="stroke:#000000;"/>
    <path clip-path="url(#pdf63812d30)" d="M 176.078209 177.151376 
L 177.147379 184.023813 
L 175.752888 184.052685 
z
" style="stroke:#000000;"/>
    <path clip-path="url(#pdf63812d30)" d="M 175.752888 170.249867 
L 177.471693 177.145604 
L 176.078209 177.151376 
z
" style="stroke:#000000;"/>
    <path clip-path="url(#pdf63812d30)" d="M 174.407377 205.712538 
L 178.168132 198.781969 
L 176.776815 198.86042 
z
" style="stroke:#000000;"/>
    <path clip-path="url(#pdf63812d30)" d="M 171.408532 142.057867 
L 168.133109 144.18164 
L 170.948617 150.318327 
z
" style="stroke:#000000;"/>
    <path clip-path="url(#pdf63812d30)" d="M 168.133109 210.116233 
L 171.408532 212.242017 
L 170.948617 203.981275 
z
" style="stroke:#000000;"/>
    <path clip-path="url(#pdf63812d30)" d="M 184.93705 128.610281 
L 179.9921 133.197006 
L 186.303023 128.767242 
z
" style="stroke:#000000;"/>
    <path clip-path="url(#pdf63812d30)" d="M 179.9921 133.197006 
L 184.93705 146.19862 
L 186.303023 146.296613 
z
" style="stroke:#000000;"/>
    <path clip-path="url(#pdf63812d30)" d="M 178.489325 162.541604 
L 178.168132 155.509664 
L 176.776815 155.442761 
z
" style="stroke:#000000;"/>
    <path clip-path="url(#pdf63812d30)" d="M 195.796029 132.200305 
L 186.303023 146.296613 
L 192.628137 133.102057 
z
" style="stroke:#000000;"/>
    <path clip-path="url(#pdf63812d30)" d="M 192.628137 133.102057 
L 186.303023 125.261368 
L 195.796029 132.200305 
z
" style="stroke:#000000;"/>
    <path clip-path="url(#pdf63812d30)" d="M 176.776815 198.86042 
L 179.87533 191.707923 
L 178.489325 191.762628 
z
" style="stroke:#000000;"/>
    <path clip-path="url(#pdf63812d30)" d="M 170.948617 150.318327 
L 174.407377 148.589187 
L 171.408532 142.057867 
z
" style="stroke:#000000;"/>
    <path clip-path="url(#pdf63812d30)" d="M 174.407377 205.712538 
L 170.948617 203.981275 
L 171.408532 212.242017 
z
" style="stroke:#000000;"/>
    <path clip-path="url(#pdf63812d30)" d="M 191.361977 177.149853 
L 195.162166 177.151016 
L 191.708721 184.486269 
z
" style="stroke:#000000;"/>
    <path clip-path="url(#pdf63812d30)" d="M 195.162166 177.151016 
L 191.361977 177.149853 
L 191.708721 169.813649 
z
" style="stroke:#000000;"/>
    <path clip-path="url(#pdf63812d30)" d="M 179.524902 169.805586 
L 179.87533 162.584755 
L 178.489325 162.541604 
z
" style="stroke:#000000;"/>
    <path clip-path="url(#pdf63812d30)" d="M 174.407377 148.589187 
L 170.948617 150.318327 
L 173.173106 156.757262 
z
" style="stroke:#000000;"/>
    <path clip-path="url(#pdf63812d30)" d="M 170.948617 203.981275 
L 174.407377 205.712538 
L 173.173106 197.543706 
z
" style="stroke:#000000;"/>
    <path clip-path="url(#pdf63812d30)" d="M 178.489325 191.762628 
L 180.907693 184.468895 
L 179.524902 184.499282 
z
" style="stroke:#000000;"/>
    <path clip-path="url(#pdf63812d30)" d="M 191.708721 184.486269 
L 195.488562 184.051883 
L 192.745437 191.745208 
z
" style="stroke:#000000;"/>
    <path clip-path="url(#pdf63812d30)" d="M 195.488562 170.250349 
L 191.708721 169.813649 
L 192.745437 162.555345 
z
" style="stroke:#000000;"/>
    <path clip-path="url(#pdf63812d30)" d="M 179.871436 177.152541 
L 180.907693 169.824415 
L 179.524902 169.805586 
z
" style="stroke:#000000;"/>
    <path clip-path="url(#pdf63812d30)" d="M 179.524902 184.499282 
L 181.253152 177.146761 
L 179.871436 177.152541 
z
" style="stroke:#000000;"/>
    <path clip-path="url(#pdf63812d30)" d="M 191.708721 169.813649 
L 195.488562 170.250349 
L 195.162166 177.151016 
z
" style="stroke:#000000;"/>
    <path clip-path="url(#pdf63812d30)" d="M 195.488562 184.051883 
L 191.708721 184.486269 
L 195.162166 177.151016 
z
" style="stroke:#000000;"/>
    <path clip-path="url(#pdf63812d30)" d="M 192.745437 191.745208 
L 196.464351 190.8797 
L 194.461506 198.849701 
z
" style="stroke:#000000;"/>
    <path clip-path="url(#pdf63812d30)" d="M 196.464351 163.423129 
L 192.745437 162.555345 
L 194.461506 155.451902 
z
" style="stroke:#000000;"/>
    <path clip-path="url(#pdf63812d30)" d="M 179.9921 133.197006 
L 184.93705 128.610281 
L 178.606458 133.055107 
z
" style="stroke:#000000;"/>
    <path clip-path="url(#pdf63812d30)" d="M 184.93705 146.19862 
L 179.9921 133.197006 
L 178.606458 133.055107 
z
" style="stroke:#000000;"/>
    <path clip-path="url(#pdf63812d30)" d="M 196.464351 190.8797 
L 192.745437 191.745208 
L 195.488562 184.051883 
z
" style="stroke:#000000;"/>
    <path clip-path="url(#pdf63812d30)" d="M 192.745437 162.555345 
L 196.464351 163.423129 
L 195.488562 170.250349 
z
" style="stroke:#000000;"/>
    <path clip-path="url(#pdf63812d30)" d="M 173.173106 156.757262 
L 176.776815 155.442761 
L 174.407377 148.589187 
z
" style="stroke:#000000;"/>
    <path clip-path="url(#pdf63812d30)" d="M 176.776815 198.86042 
L 173.173106 197.543706 
L 174.407377 205.712538 
z
" style="stroke:#000000;"/>
    <path clip-path="url(#pdf63812d30)" d="M 176.776815 155.442761 
L 173.173106 156.757262 
L 174.780762 163.426169 
z
" style="stroke:#000000;"/>
    <path clip-path="url(#pdf63812d30)" d="M 173.173106 197.543706 
L 176.776815 198.86042 
L 174.780762 190.875786 
z
" style="stroke:#000000;"/>
    <path clip-path="url(#pdf63812d30)" d="M 186.303023 125.261368 
L 175.446503 132.201003 
L 184.93705 125.092613 
z
" style="stroke:#000000;"/>
    <path clip-path="url(#pdf63812d30)" d="M 175.446503 132.201003 
L 186.303023 153.308361 
L 184.93705 153.233955 
z
" style="stroke:#000000;"/>
    <path clip-path="url(#pdf63812d30)" d="M 184.93705 125.092613 
L 195.796029 132.200305 
L 186.303023 125.261368 
z
" style="stroke:#000000;"/>
    <path clip-path="url(#pdf63812d30)" d="M 195.796029 132.200305 
L 184.93705 153.233955 
L 186.303023 153.308361 
z
" style="stroke:#000000;"/>
    <path clip-path="url(#pdf63812d30)" d="M 198.07955 197.561985 
L 194.461506 198.849701 
L 196.464351 190.8797 
z
" style="stroke:#000000;"/>
    <path clip-path="url(#pdf63812d30)" d="M 194.461506 155.451902 
L 198.07955 156.741831 
L 196.464351 163.423129 
z
" style="stroke:#000000;"/>
    <path clip-path="url(#pdf63812d30)" d="M 194.461506 198.849701 
L 198.07955 197.561985 
L 196.839323 205.72424 
z
" style="stroke:#000000;"/>
    <path clip-path="url(#pdf63812d30)" d="M 198.07955 156.741831 
L 194.461506 155.451902 
L 196.839323 148.578818 
z
" style="stroke:#000000;"/>
    <path clip-path="url(#pdf63812d30)" d="M 178.489325 162.541604 
L 174.780762 163.426169 
L 175.752888 170.249867 
z
" style="stroke:#000000;"/>
    <path clip-path="url(#pdf63812d30)" d="M 174.780762 190.875786 
L 178.489325 191.762628 
L 175.752888 184.052685 
z
" style="stroke:#000000;"/>
    <path clip-path="url(#pdf63812d30)" d="M 191.281924 132.959517 
L 186.303023 128.767242 
L 192.628137 133.102057 
z
" style="stroke:#000000;"/>
    <path clip-path="url(#pdf63812d30)" d="M 186.303023 146.296613 
L 191.281924 132.959517 
L 192.628137 133.102057 
z
" style="stroke:#000000;"/>
    <path clip-path="url(#pdf63812d30)" d="M 174.780762 163.426169 
L 178.489325 162.541604 
L 176.776815 155.442761 
z
" style="stroke:#000000;"/>
    <path clip-path="url(#pdf63812d30)" d="M 178.489325 191.762628 
L 174.780762 190.875786 
L 176.776815 198.86042 
z
" style="stroke:#000000;"/>
    <path clip-path="url(#pdf63812d30)" d="M 175.752888 184.052685 
L 179.524902 184.499282 
L 176.078209 177.151376 
z
" style="stroke:#000000;"/>
    <path clip-path="url(#pdf63812d30)" d="M 179.524902 169.805586 
L 175.752888 170.249867 
L 176.078209 177.151376 
z
" style="stroke:#000000;"/>
    <path clip-path="url(#pdf63812d30)" d="M 191.708721 184.486269 
L 190.011804 177.155654 
L 191.361977 177.149853 
z
" style="stroke:#000000;"/>
    <path clip-path="url(#pdf63812d30)" d="M 191.361977 177.149853 
L 190.359633 169.794748 
L 191.708721 169.813649 
z
" style="stroke:#000000;"/>
    <path clip-path="url(#pdf63812d30)" d="M 175.752888 170.249867 
L 179.524902 169.805586 
L 178.489325 162.541604 
z
" style="stroke:#000000;"/>
    <path clip-path="url(#pdf63812d30)" d="M 179.524902 184.499282 
L 175.752888 184.052685 
L 178.489325 191.762628 
z
" style="stroke:#000000;"/>
    <path clip-path="url(#pdf63812d30)" d="M 192.745437 191.745208 
L 190.359633 184.516773 
L 191.708721 184.486269 
z
" style="stroke:#000000;"/>
    <path clip-path="url(#pdf63812d30)" d="M 200.31753 204.027553 
L 196.839323 205.72424 
L 198.07955 197.561985 
z
" style="stroke:#000000;"/>
    <path clip-path="url(#pdf63812d30)" d="M 196.839323 148.578818 
L 200.31753 150.277633 
L 198.07955 156.741831 
z
" style="stroke:#000000;"/>
    <path clip-path="url(#pdf63812d30)" d="M 191.708721 169.813649 
L 191.399591 162.511996 
L 192.745437 162.555345 
z
" style="stroke:#000000;"/>
    <path clip-path="url(#pdf63812d30)" d="M 176.078209 177.151376 
L 179.871436 177.152541 
L 179.524902 169.805586 
z
" style="stroke:#000000;"/>
    <path clip-path="url(#pdf63812d30)" d="M 179.871436 177.152541 
L 176.078209 177.151376 
L 179.524902 184.499282 
z
" style="stroke:#000000;"/>
    <path clip-path="url(#pdf63812d30)" d="M 196.839323 205.72424 
L 200.31753 204.027553 
L 199.854535 212.295635 
z
" style="stroke:#000000;"/>
    <path clip-path="url(#pdf63812d30)" d="M 200.31753 150.277633 
L 196.839323 148.578818 
L 199.854535 142.009268 
z
" style="stroke:#000000;"/>
    <path clip-path="url(#pdf63812d30)" d="M 194.461506 198.849701 
L 191.399591 191.800164 
L 192.745437 191.745208 
z
" style="stroke:#000000;"/>
    <path clip-path="url(#pdf63812d30)" d="M 178.606458 133.055107 
L 184.93705 125.092613 
L 175.446503 132.201003 
z
" style="stroke:#000000;"/>
    <path clip-path="url(#pdf63812d30)" d="M 175.446503 132.201003 
L 184.93705 146.19862 
L 178.606458 133.055107 
z
" style="stroke:#000000;"/>
    <path clip-path="url(#pdf63812d30)" d="M 192.745437 162.555345 
L 193.12103 155.384609 
L 194.461506 155.451902 
z
" style="stroke:#000000;"/>
    <path clip-path="url(#pdf63812d30)" d="M 186.303023 128.767242 
L 191.281924 132.959517 
L 184.93705 128.610281 
z
" style="stroke:#000000;"/>
    <path clip-path="url(#pdf63812d30)" d="M 191.281924 132.959517 
L 186.303023 146.296613 
L 184.93705 146.19862 
z
" style="stroke:#000000;"/>
    <path clip-path="url(#pdf63812d30)" d="M 203.155213 210.207386 
L 199.854535 212.295635 
L 200.31753 204.027553 
z
" style="stroke:#000000;"/>
    <path clip-path="url(#pdf63812d30)" d="M 199.854535 142.009268 
L 203.155213 144.099536 
L 200.31753 150.277633 
z
" style="stroke:#000000;"/>
    <path clip-path="url(#pdf63812d30)" d="M 196.839323 205.72424 
L 193.12103 198.928608 
L 194.461506 198.849701 
z
" style="stroke:#000000;"/>
    <path clip-path="url(#pdf63812d30)" d="M 195.488562 170.250349 
L 193.823883 177.156824 
L 195.162166 177.151016 
z
" style="stroke:#000000;"/>
    <path clip-path="url(#pdf63812d30)" d="M 195.162166 177.151016 
L 194.151302 184.080944 
L 195.488562 184.051883 
z
" style="stroke:#000000;"/>
    <path clip-path="url(#pdf63812d30)" d="M 184.93705 146.19862 
L 175.446503 132.201003 
L 184.93705 153.233955 
z
" style="stroke:#000000;"/>
    <path clip-path="url(#pdf63812d30)" d="M 196.464351 163.423129 
L 194.151302 170.232906 
L 195.488562 170.250349 
z
" style="stroke:#000000;"/>
    <path clip-path="url(#pdf63812d30)" d="M 199.854535 212.295635 
L 203.155213 210.207386 
L 203.476027 218.493289 
z
" style="stroke:#000000;"/>
    <path clip-path="url(#pdf63812d30)" d="M 203.155213 144.099536 
L 199.854535 142.009268 
L 203.476027 135.813829 
z
" style="stroke:#000000;"/>
    <path clip-path="url(#pdf63812d30)" d="M 194.461506 155.451902 
L 195.506294 148.488332 
L 196.839323 148.578818 
z
" style="stroke:#000000;"/>
    <path clip-path="url(#pdf63812d30)" d="M 195.488562 184.051883 
L 195.130147 190.931776 
L 196.464351 190.8797 
z
" style="stroke:#000000;"/>
    <path clip-path="url(#pdf63812d30)" d="M 184.93705 125.092613 
L 178.606458 133.055107 
L 184.93705 128.610281 
z
" style="stroke:#000000;"/>
    <path clip-path="url(#pdf63812d30)" d="M 198.07955 156.741831 
L 195.130147 163.382675 
L 196.464351 163.423129 
z
" style="stroke:#000000;"/>
    <path clip-path="url(#pdf63812d30)" d="M 196.464351 190.8797 
L 196.750407 197.636602 
L 198.07955 197.561985 
z
" style="stroke:#000000;"/>
    <path clip-path="url(#pdf63812d30)" d="M 190.359633 169.794748 
L 191.361977 177.149853 
L 190.011804 177.155654 
z
" style="stroke:#000000;"/>
    <path clip-path="url(#pdf63812d30)" d="M 199.854535 212.295635 
L 195.506294 205.82635 
L 196.839323 205.72424 
z
" style="stroke:#000000;"/>
    <path clip-path="url(#pdf63812d30)" d="M 190.011804 177.155654 
L 191.708721 184.486269 
L 190.359633 184.516773 
z
" style="stroke:#000000;"/>
    <path clip-path="url(#pdf63812d30)" d="M 203.476027 218.493289 
L 203.155213 210.207386 
L 206.563278 216.03532 
z
" style="stroke:#000000;"/>
    <path clip-path="url(#pdf63812d30)" d="M 203.155213 144.099536 
L 203.476027 135.813829 
L 206.563278 138.273687 
z
" style="stroke:#000000;"/>
    <path clip-path="url(#pdf63812d30)" d="M 191.399591 162.511996 
L 191.708721 169.813649 
L 190.359633 169.794748 
z
" style="stroke:#000000;"/>
    <path clip-path="url(#pdf63812d30)" d="M 190.359633 184.516773 
L 192.745437 191.745208 
L 191.399591 191.800164 
z
" style="stroke:#000000;"/>
    <path clip-path="url(#pdf63812d30)" d="M 200.31753 150.277633 
L 196.750407 156.678843 
L 198.07955 156.741831 
z
" style="stroke:#000000;"/>
    <path clip-path="url(#pdf63812d30)" d="M 196.839323 148.578818 
L 198.530957 141.896581 
L 199.854535 142.009268 
z
" style="stroke:#000000;"/>
    <path clip-path="url(#pdf63812d30)" d="M 195.796029 132.200305 
L 184.93705 125.092613 
L 194.459731 132.054647 
z
" style="stroke:#000000;"/>
    <path clip-path="url(#pdf63812d30)" d="M 184.93705 153.233955 
L 195.796029 132.200305 
L 194.459731 132.054647 
z
" style="stroke:#000000;"/>
    <path clip-path="url(#pdf63812d30)" d="M 203.476027 218.493289 
L 206.563278 216.03532 
L 207.66638 224.250841 
z
" style="stroke:#000000;"/>
    <path clip-path="url(#pdf63812d30)" d="M 206.563278 138.273687 
L 203.476027 135.813829 
L 207.66638 130.058842 
z
" style="stroke:#000000;"/>
    <path clip-path="url(#pdf63812d30)" d="M 198.07955 197.561985 
L 198.995405 204.124004 
L 200.31753 204.027553 
z
" style="stroke:#000000;"/>
    <path clip-path="url(#pdf63812d30)" d="M 193.12103 155.384609 
L 192.745437 162.555345 
L 191.399591 162.511996 
z
" style="stroke:#000000;"/>
    <path clip-path="url(#pdf63812d30)" d="M 191.399591 191.800164 
L 194.461506 198.849701 
L 193.12103 198.928608 
z
" style="stroke:#000000;"/>
    <path clip-path="url(#pdf63812d30)" d="M 184.93705 125.092613 
L 184.93705 128.610281 
L 191.281924 132.959517 
z
" style="stroke:#000000;"/>
    <path clip-path="url(#pdf63812d30)" d="M 203.476027 218.493289 
L 198.530957 212.419958 
L 199.854535 212.295635 
z
" style="stroke:#000000;"/>
    <path clip-path="url(#pdf63812d30)" d="M 203.155213 144.099536 
L 198.995405 150.192821 
L 200.31753 150.277633 
z
" style="stroke:#000000;"/>
    <path clip-path="url(#pdf63812d30)" d="M 195.506294 148.488332 
L 194.461506 155.451902 
L 193.12103 155.384609 
z
" style="stroke:#000000;"/>
    <path clip-path="url(#pdf63812d30)" d="M 194.151302 184.080944 
L 195.162166 177.151016 
L 193.823883 177.156824 
z
" style="stroke:#000000;"/>
    <path clip-path="url(#pdf63812d30)" d="M 193.823883 177.156824 
L 195.488562 170.250349 
L 194.151302 170.232906 
z
" style="stroke:#000000;"/>
    <path clip-path="url(#pdf63812d30)" d="M 207.66638 224.250841 
L 206.563278 216.03532 
L 210.506368 221.448205 
z
" style="stroke:#000000;"/>
    <path clip-path="url(#pdf63812d30)" d="M 206.563278 138.273687 
L 207.66638 130.058842 
L 210.506368 132.863215 
z
" style="stroke:#000000;"/>
    <path clip-path="url(#pdf63812d30)" d="M 184.93705 146.19862 
L 184.93705 153.233955 
L 194.459731 132.054647 
z
" style="stroke:#000000;"/>
    <path clip-path="url(#pdf63812d30)" d="M 195.130147 190.931776 
L 195.488562 184.051883 
L 194.151302 184.080944 
z
" style="stroke:#000000;"/>
    <path clip-path="url(#pdf63812d30)" d="M 200.31753 204.027553 
L 201.841994 210.324737 
L 203.155213 210.207386 
z
" style="stroke:#000000;"/>
    <path clip-path="url(#pdf63812d30)" d="M 199.854535 142.009268 
L 202.163816 135.680165 
L 203.476027 135.813829 
z
" style="stroke:#000000;"/>
    <path clip-path="url(#pdf63812d30)" d="M 193.12103 198.928608 
L 196.839323 205.72424 
L 195.506294 205.82635 
z
" style="stroke:#000000;"/>
    <path clip-path="url(#pdf63812d30)" d="M 194.151302 170.232906 
L 196.464351 163.423129 
L 195.130147 163.382675 
z
" style="stroke:#000000;"/>
    <path clip-path="url(#pdf63812d30)" d="M 196.750407 197.636602 
L 196.464351 190.8797 
L 195.130147 190.931776 
z
" style="stroke:#000000;"/>
    <path clip-path="url(#pdf63812d30)" d="M 207.66638 224.250841 
L 211.689092 225.954052 
L 210.02327 226.877062 
z
" style="stroke:#000000;"/>
    <path clip-path="url(#pdf63812d30)" d="M 211.689092 128.358092 
L 207.66638 130.058842 
L 210.02327 127.434062 
z
" style="stroke:#000000;"/>
    <path clip-path="url(#pdf63812d30)" d="M 211.689092 225.954052 
L 207.66638 224.250841 
L 210.506368 221.448205 
z
" style="stroke:#000000;"/>
    <path clip-path="url(#pdf63812d30)" d="M 207.66638 130.058842 
L 211.689092 128.358092 
L 210.506368 132.863215 
z
" style="stroke:#000000;"/>
    <path clip-path="url(#pdf63812d30)" d="M 195.130147 163.382675 
L 198.07955 156.741831 
L 196.750407 156.678843 
z
" style="stroke:#000000;"/>
    <path clip-path="url(#pdf63812d30)" d="M 198.530957 141.896581 
L 196.839323 148.578818 
L 195.506294 148.488332 
z
" style="stroke:#000000;"/>
    <path clip-path="url(#pdf63812d30)" d="M 184.93705 125.092613 
L 191.281924 132.959517 
L 194.459731 132.054647 
z
" style="stroke:#000000;"/>
    <path clip-path="url(#pdf63812d30)" d="M 184.93705 146.19862 
L 194.459731 132.054647 
L 191.281924 132.959517 
z
" style="stroke:#000000;"/>
    <path clip-path="url(#pdf63812d30)" d="M 206.563278 138.273687 
L 201.841994 143.993835 
L 203.155213 144.099536 
z
" style="stroke:#000000;"/>
    <path clip-path="url(#pdf63812d30)" d="M 207.66638 224.250841 
L 202.163816 218.638605 
L 203.476027 218.493289 
z
" style="stroke:#000000;"/>
    <path clip-path="url(#pdf63812d30)" d="M 198.995405 204.124004 
L 198.07955 197.561985 
L 196.750407 197.636602 
z
" style="stroke:#000000;"/>
    <path clip-path="url(#pdf63812d30)" d="M 195.506294 205.82635 
L 199.854535 212.295635 
L 198.530957 212.419958 
z
" style="stroke:#000000;"/>
    <path clip-path="url(#pdf63812d30)" d="M 190.011804 177.155654 
L 193.823883 177.156824 
L 190.359633 169.794748 
z
" style="stroke:#000000;"/>
    <path clip-path="url(#pdf63812d30)" d="M 193.823883 177.156824 
L 190.011804 177.155654 
L 190.359633 184.516773 
z
" style="stroke:#000000;"/>
    <path clip-path="url(#pdf63812d30)" d="M 203.155213 210.207386 
L 205.26077 216.172418 
L 206.563278 216.03532 
z
" style="stroke:#000000;"/>
    <path clip-path="url(#pdf63812d30)" d="M 211.689092 225.954052 
L 210.506368 221.448205 
L 213.439742 224.71362 
z
" style="stroke:#000000;"/>
    <path clip-path="url(#pdf63812d30)" d="M 210.506368 132.863215 
L 211.689092 128.358092 
L 213.439742 129.599595 
z
" style="stroke:#000000;"/>
    <path clip-path="url(#pdf63812d30)" d="M 196.750407 156.678843 
L 200.31753 150.277633 
L 198.995405 150.192821 
z
" style="stroke:#000000;"/>
    <path clip-path="url(#pdf63812d30)" d="M 190.359633 169.794748 
L 194.151302 170.232906 
L 191.399591 162.511996 
z
" style="stroke:#000000;"/>
    <path clip-path="url(#pdf63812d30)" d="M 194.151302 184.080944 
L 190.359633 184.516773 
L 191.399591 191.800164 
z
" style="stroke:#000000;"/>
    <path clip-path="url(#pdf63812d30)" d="M 203.476027 135.813829 
L 206.367342 129.905644 
L 207.66638 130.058842 
z
" style="stroke:#000000;"/>
    <path clip-path="url(#pdf63812d30)" d="M 190.359633 184.516773 
L 194.151302 184.080944 
L 193.823883 177.156824 
z
" style="stroke:#000000;"/>
    <path clip-path="url(#pdf63812d30)" d="M 194.151302 170.232906 
L 190.359633 169.794748 
L 193.823883 177.156824 
z
" style="stroke:#000000;"/>
    <path clip-path="url(#pdf63812d30)" d="M 191.399591 162.511996 
L 195.130147 163.382675 
L 193.12103 155.384609 
z
" style="stroke:#000000;"/>
    <path clip-path="url(#pdf63812d30)" d="M 195.130147 190.931776 
L 191.399591 191.800164 
L 193.12103 198.928608 
z
" style="stroke:#000000;"/>
    <path clip-path="url(#pdf63812d30)" d="M 202.163816 135.680165 
L 199.854535 142.009268 
L 198.530957 141.896581 
z
" style="stroke:#000000;"/>
    <path clip-path="url(#pdf63812d30)" d="M 195.130147 163.382675 
L 191.399591 162.511996 
L 194.151302 170.232906 
z
" style="stroke:#000000;"/>
    <path clip-path="url(#pdf63812d30)" d="M 191.399591 191.800164 
L 195.130147 190.931776 
L 194.151302 184.080944 
z
" style="stroke:#000000;"/>
    <path clip-path="url(#pdf63812d30)" d="M 201.841994 210.324737 
L 200.31753 204.027553 
L 198.995405 204.124004 
z
" style="stroke:#000000;"/>
    <path clip-path="url(#pdf63812d30)" d="M 210.506368 132.863215 
L 205.26077 138.148254 
L 206.563278 138.273687 
z
" style="stroke:#000000;"/>
    <path clip-path="url(#pdf63812d30)" d="M 210.02327 226.877062 
L 206.367342 224.415707 
L 207.66638 224.250841 
z
" style="stroke:#000000;"/>
    <path clip-path="url(#pdf63812d30)" d="M 198.995405 150.192821 
L 203.155213 144.099536 
L 201.841994 143.993835 
z
" style="stroke:#000000;"/>
    <path clip-path="url(#pdf63812d30)" d="M 198.530957 212.419958 
L 203.476027 218.493289 
L 202.163816 218.638605 
z
" style="stroke:#000000;"/>
    <path clip-path="url(#pdf63812d30)" d="M 196.750407 156.678843 
L 193.12103 155.384609 
L 195.130147 163.382675 
z
" style="stroke:#000000;"/>
    <path clip-path="url(#pdf63812d30)" d="M 193.12103 198.928608 
L 196.750407 197.636602 
L 195.130147 190.931776 
z
" style="stroke:#000000;"/>
    <path clip-path="url(#pdf63812d30)" d="M 193.12103 155.384609 
L 196.750407 156.678843 
L 195.506294 148.488332 
z
" style="stroke:#000000;"/>
    <path clip-path="url(#pdf63812d30)" d="M 196.750407 197.636602 
L 193.12103 198.928608 
L 195.506294 205.82635 
z
" style="stroke:#000000;"/>
    <path clip-path="url(#pdf63812d30)" d="M 206.563278 216.03532 
L 209.216268 221.603686 
L 210.506368 221.448205 
z
" style="stroke:#000000;"/>
    <path clip-path="url(#pdf63812d30)" d="M 207.66638 130.058842 
L 208.73165 127.271934 
L 210.02327 127.434062 
z
" style="stroke:#000000;"/>
    <path clip-path="url(#pdf63812d30)" d="M 208.73165 127.271934 
L 211.689092 128.358092 
L 210.02327 127.434062 
z
" style="stroke:#000000;"/>
    <path clip-path="url(#pdf63812d30)" d="M 205.26077 216.172418 
L 203.155213 210.207386 
L 201.841994 210.324737 
z
" style="stroke:#000000;"/>
    <path clip-path="url(#pdf63812d30)" d="M 198.995405 150.192821 
L 195.506294 148.488332 
L 196.750407 156.678843 
z
" style="stroke:#000000;"/>
    <path clip-path="url(#pdf63812d30)" d="M 195.506294 205.82635 
L 198.995405 204.124004 
L 196.750407 197.636602 
z
" style="stroke:#000000;"/>
    <path clip-path="url(#pdf63812d30)" d="M 210.402719 226.124791 
L 210.02327 226.877062 
L 211.689092 225.954052 
z
" style="stroke:#000000;"/>
    <path clip-path="url(#pdf63812d30)" d="M 206.367342 129.905644 
L 203.476027 135.813829 
L 202.163816 135.680165 
z
" style="stroke:#000000;"/>
    <path clip-path="url(#pdf63812d30)" d="M 209.216268 221.603686 
L 213.439742 224.71362 
L 210.506368 221.448205 
z
" style="stroke:#000000;"/>
    <path clip-path="url(#pdf63812d30)" d="M 195.506294 148.488332 
L 198.995405 150.192821 
L 198.530957 141.896581 
z
" style="stroke:#000000;"/>
    <path clip-path="url(#pdf63812d30)" d="M 198.995405 204.124004 
L 195.506294 205.82635 
L 198.530957 212.419958 
z
" style="stroke:#000000;"/>
    <path clip-path="url(#pdf63812d30)" d="M 201.841994 143.993835 
L 206.563278 138.273687 
L 205.26077 138.148254 
z
" style="stroke:#000000;"/>
    <path clip-path="url(#pdf63812d30)" d="M 210.402719 128.199038 
L 213.439742 129.599595 
L 211.689092 128.358092 
z
" style="stroke:#000000;"/>
    <path clip-path="url(#pdf63812d30)" d="M 212.158886 129.444688 
L 210.506368 132.863215 
L 213.439742 129.599595 
z
" style="stroke:#000000;"/>
    <path clip-path="url(#pdf63812d30)" d="M 202.163816 218.638605 
L 207.66638 224.250841 
L 206.367342 224.415707 
z
" style="stroke:#000000;"/>
    <path clip-path="url(#pdf63812d30)" d="M 212.158886 224.880219 
L 211.689092 225.954052 
L 213.439742 224.71362 
z
" style="stroke:#000000;"/>
    <path clip-path="url(#pdf63812d30)" d="M 201.841994 143.993835 
L 198.530957 141.896581 
L 198.995405 150.192821 
z
" style="stroke:#000000;"/>
    <path clip-path="url(#pdf63812d30)" d="M 198.530957 212.419958 
L 201.841994 210.324737 
L 198.995405 204.124004 
z
" style="stroke:#000000;"/>
    <path clip-path="url(#pdf63812d30)" d="M 209.216268 221.603686 
L 206.563278 216.03532 
L 205.26077 216.172418 
z
" style="stroke:#000000;"/>
    <path clip-path="url(#pdf63812d30)" d="M 208.73165 127.271934 
L 207.66638 130.058842 
L 206.367342 129.905644 
z
" style="stroke:#000000;"/>
    <path clip-path="url(#pdf63812d30)" d="M 198.530957 141.896581 
L 201.841994 143.993835 
L 202.163816 135.680165 
z
" style="stroke:#000000;"/>
    <path clip-path="url(#pdf63812d30)" d="M 201.841994 210.324737 
L 198.530957 212.419958 
L 202.163816 218.638605 
z
" style="stroke:#000000;"/>
    <path clip-path="url(#pdf63812d30)" d="M 205.26077 138.148254 
L 210.506368 132.863215 
L 209.216268 132.719415 
z
" style="stroke:#000000;"/>
    <path clip-path="url(#pdf63812d30)" d="M 206.367342 224.415707 
L 210.02327 226.877062 
L 208.73165 227.050869 
z
" style="stroke:#000000;"/>
    <path clip-path="url(#pdf63812d30)" d="M 210.02327 226.877062 
L 210.402719 226.124791 
L 208.73165 227.050869 
z
" style="stroke:#000000;"/>
    <path clip-path="url(#pdf63812d30)" d="M 202.163816 135.680165 
L 201.841994 143.993835 
L 205.26077 138.148254 
z
" style="stroke:#000000;"/>
    <path clip-path="url(#pdf63812d30)" d="M 201.841994 210.324737 
L 202.163816 218.638605 
L 205.26077 216.172418 
z
" style="stroke:#000000;"/>
    <path clip-path="url(#pdf63812d30)" d="M 211.689092 128.358092 
L 208.73165 127.271934 
L 210.402719 128.199038 
z
" style="stroke:#000000;"/>
    <path clip-path="url(#pdf63812d30)" d="M 210.506368 132.863215 
L 212.158886 129.444688 
L 209.216268 132.719415 
z
" style="stroke:#000000;"/>
    <path clip-path="url(#pdf63812d30)" d="M 202.163816 135.680165 
L 205.26077 138.148254 
L 206.367342 129.905644 
z
" style="stroke:#000000;"/>
    <path clip-path="url(#pdf63812d30)" d="M 205.26077 216.172418 
L 202.163816 218.638605 
L 206.367342 224.415707 
z
" style="stroke:#000000;"/>
    <path clip-path="url(#pdf63812d30)" d="M 211.689092 225.954052 
L 212.158886 224.880219 
L 210.402719 226.124791 
z
" style="stroke:#000000;"/>
    <path clip-path="url(#pdf63812d30)" d="M 213.439742 224.71362 
L 209.216268 221.603686 
L 212.158886 224.880219 
z
" style="stroke:#000000;"/>
    <path clip-path="url(#pdf63812d30)" d="M 213.439742 129.599595 
L 210.402719 128.199038 
L 212.158886 129.444688 
z
" style="stroke:#000000;"/>
    <path clip-path="url(#pdf63812d30)" d="M 206.367342 129.905644 
L 205.26077 138.148254 
L 209.216268 132.719415 
z
" style="stroke:#000000;"/>
    <path clip-path="url(#pdf63812d30)" d="M 205.26077 216.172418 
L 206.367342 224.415707 
L 209.216268 221.603686 
z
" style="stroke:#000000;"/>
    <path clip-path="url(#pdf63812d30)" d="M 206.367342 129.905644 
L 210.402719 128.199038 
L 208.73165 127.271934 
z
" style="stroke:#000000;"/>
    <path clip-path="url(#pdf63812d30)" d="M 210.402719 226.124791 
L 206.367342 224.415707 
L 208.73165 227.050869 
z
" style="stroke:#000000;"/>
    <path clip-path="url(#pdf63812d30)" d="M 210.402719 128.199038 
L 206.367342 129.905644 
L 209.216268 132.719415 
z
" style="stroke:#000000;"/>
    <path clip-path="url(#pdf63812d30)" d="M 206.367342 224.415707 
L 210.402719 226.124791 
L 209.216268 221.603686 
z
" style="stroke:#000000;"/>
    <path clip-path="url(#pdf63812d30)" d="M 210.402719 128.199038 
L 209.216268 132.719415 
L 212.158886 129.444688 
z
" style="stroke:#000000;"/>
    <path clip-path="url(#pdf63812d30)" d="M 209.216268 221.603686 
L 210.402719 226.124791 
L 212.158886 224.880219 
z
" style="stroke:#000000;"/>
   </g>
  </g>
 </g>
 <defs>
  <clipPath id="pdf63812d30">
   <rect height="271.8" width="279" x="45" y="43.2"/>
  </clipPath>
 </defs>
</svg>
