<?xml version="1.0" encoding="utf-8" standalone="no"?>
<!DOCTYPE svg PUBLIC "-//W3C//DTD SVG 1.1//EN"
  "http://www.w3.org/Graphics/SVG/1.1/DTD/svg11.dtd">
<!-- Created with matplotlib (https://matplotlib.org/) -->
<svg height="360pt" version="1.1" viewBox="0 0 360 360" width="360pt" xmlns="http://www.w3.org/2000/svg" xmlns:xlink="http://www.w3.org/1999/xlink">
 <defs>
  <style type="text/css">
*{stroke-linecap:butt;stroke-linejoin:round;}
  </style>
 </defs>
 <g id="figure_1">
  <g id="patch_1">
   <path d="M 45 315 
L 324 315 
L 324 43.2 
L 45 43.2 
z
" style="fill:#ffffff;"/>
  </g>
  <g id="axes_1">
   <g id="Poly3DCollection_1">
    <path clip-path="url(#p3696e8939b)" d="M 163.275632 220.954697 
L 162.169148 225.386473 
L 160.53344 224.12284 
z
" style="stroke:#000000;"/>
    <path clip-path="url(#p3696e8939b)" d="M 162.169148 128.886825 
L 163.275632 133.319648 
L 160.53344 130.148912 
z
" style="stroke:#000000;"/>
    <path clip-path="url(#p3696e8939b)" d="M 165.937211 223.787138 
L 162.169148 225.386473 
L 163.275632 220.954697 
z
" style="stroke:#000000;"/>
    <path clip-path="url(#p3696e8939b)" d="M 162.169148 128.886825 
L 165.937211 130.489725 
L 163.275632 133.319648 
z
" style="stroke:#000000;"/>
    <path clip-path="url(#p3696e8939b)" d="M 162.169148 225.386473 
L 165.937211 223.787138 
L 163.727916 226.336057 
z
" style="stroke:#000000;"/>
    <path clip-path="url(#p3696e8939b)" d="M 165.937211 130.489725 
L 162.169148 128.886825 
L 163.727916 127.938716 
z
" style="stroke:#000000;"/>
    <path clip-path="url(#p3696e8939b)" d="M 158.4498 130.004305 
L 162.169148 128.886825 
L 160.53344 130.148912 
z
" style="stroke:#000000;"/>
    <path clip-path="url(#p3696e8939b)" d="M 158.4498 224.278361 
L 163.275632 220.954697 
L 160.53344 224.12284 
z
" style="stroke:#000000;"/>
    <path clip-path="url(#p3696e8939b)" d="M 165.937211 223.787138 
L 163.275632 220.954697 
L 166.972797 215.669015 
z
" style="stroke:#000000;"/>
    <path clip-path="url(#p3696e8939b)" d="M 163.275632 133.319648 
L 165.937211 130.489725 
L 166.972797 138.608827 
z
" style="stroke:#000000;"/>
    <path clip-path="url(#p3696e8939b)" d="M 160.089787 225.546103 
L 160.53344 224.12284 
L 162.169148 225.386473 
z
" style="stroke:#000000;"/>
    <path clip-path="url(#p3696e8939b)" d="M 161.199169 133.185066 
L 160.53344 130.148912 
L 163.275632 133.319648 
z
" style="stroke:#000000;"/>
    <path clip-path="url(#p3696e8939b)" d="M 160.089787 128.738121 
L 163.727916 127.938716 
L 162.169148 128.886825 
z
" style="stroke:#000000;"/>
    <path clip-path="url(#p3696e8939b)" d="M 161.652638 226.498791 
L 162.169148 225.386473 
L 163.727916 226.336057 
z
" style="stroke:#000000;"/>
    <path clip-path="url(#p3696e8939b)" d="M 165.937211 223.787138 
L 166.972797 215.669015 
L 169.876397 218.162413 
z
" style="stroke:#000000;"/>
    <path clip-path="url(#p3696e8939b)" d="M 166.972797 138.608827 
L 165.937211 130.489725 
L 169.876397 136.118176 
z
" style="stroke:#000000;"/>
    <path clip-path="url(#p3696e8939b)" d="M 165.937211 223.787138 
L 161.652638 226.498791 
L 163.727916 226.336057 
z
" style="stroke:#000000;"/>
    <path clip-path="url(#p3696e8939b)" d="M 166.972797 138.608827 
L 161.199169 133.185066 
L 163.275632 133.319648 
z
" style="stroke:#000000;"/>
    <path clip-path="url(#p3696e8939b)" d="M 160.53344 224.12284 
L 160.089787 225.546103 
L 158.4498 224.278361 
z
" style="stroke:#000000;"/>
    <path clip-path="url(#p3696e8939b)" d="M 169.876397 218.162413 
L 166.972797 215.669015 
L 170.178577 209.945012 
z
" style="stroke:#000000;"/>
    <path clip-path="url(#p3696e8939b)" d="M 166.972797 138.608827 
L 169.876397 136.118176 
L 170.178577 144.335863 
z
" style="stroke:#000000;"/>
    <path clip-path="url(#p3696e8939b)" d="M 163.727916 127.938716 
L 163.867728 130.345992 
L 165.937211 130.489725 
z
" style="stroke:#000000;"/>
    <path clip-path="url(#p3696e8939b)" d="M 160.53344 130.148912 
L 161.199169 133.185066 
L 158.4498 130.004305 
z
" style="stroke:#000000;"/>
    <path clip-path="url(#p3696e8939b)" d="M 162.169148 128.886825 
L 158.4498 130.004305 
L 160.089787 128.738121 
z
" style="stroke:#000000;"/>
    <path clip-path="url(#p3696e8939b)" d="M 163.275632 220.954697 
L 164.906033 215.797767 
L 166.972797 215.669015 
z
" style="stroke:#000000;"/>
    <path clip-path="url(#p3696e8939b)" d="M 163.275632 220.954697 
L 158.4498 224.278361 
L 161.199169 221.100211 
z
" style="stroke:#000000;"/>
    <path clip-path="url(#p3696e8939b)" d="M 162.169148 225.386473 
L 161.652638 226.498791 
L 160.089787 225.546103 
z
" style="stroke:#000000;"/>
    <path clip-path="url(#p3696e8939b)" d="M 163.727916 127.938716 
L 160.089787 128.738121 
L 161.652638 127.786916 
z
" style="stroke:#000000;"/>
    <path clip-path="url(#p3696e8939b)" d="M 169.876397 218.162413 
L 163.867728 223.941819 
L 165.937211 223.787138 
z
" style="stroke:#000000;"/>
    <path clip-path="url(#p3696e8939b)" d="M 169.876397 218.162413 
L 170.178577 209.945012 
L 173.292464 212.070389 
z
" style="stroke:#000000;"/>
    <path clip-path="url(#p3696e8939b)" d="M 170.178577 144.335863 
L 169.876397 136.118176 
L 173.292464 142.213431 
z
" style="stroke:#000000;"/>
    <path clip-path="url(#p3696e8939b)" d="M 170.178577 144.335863 
L 164.906033 138.491029 
L 166.972797 138.608827 
z
" style="stroke:#000000;"/>
    <path clip-path="url(#p3696e8939b)" d="M 173.292464 212.070389 
L 170.178577 209.945012 
L 172.855128 203.847059 
z
" style="stroke:#000000;"/>
    <path clip-path="url(#p3696e8939b)" d="M 170.178577 144.335863 
L 173.292464 142.213431 
L 172.855128 150.436347 
z
" style="stroke:#000000;"/>
    <path clip-path="url(#p3696e8939b)" d="M 163.867728 130.345992 
L 163.727916 127.938716 
L 161.652638 127.786916 
z
" style="stroke:#000000;"/>
    <path clip-path="url(#p3696e8939b)" d="M 164.906033 215.797767 
L 163.275632 220.954697 
L 161.199169 221.100211 
z
" style="stroke:#000000;"/>
    <path clip-path="url(#p3696e8939b)" d="M 165.937211 130.489725 
L 167.817267 135.992308 
L 169.876397 136.118176 
z
" style="stroke:#000000;"/>
    <path clip-path="url(#p3696e8939b)" d="M 161.652638 226.498791 
L 165.937211 223.787138 
L 163.867728 223.941819 
z
" style="stroke:#000000;"/>
    <path clip-path="url(#p3696e8939b)" d="M 166.972797 215.669015 
L 168.120242 210.055548 
L 170.178577 209.945012 
z
" style="stroke:#000000;"/>
    <path clip-path="url(#p3696e8939b)" d="M 161.199169 133.185066 
L 166.972797 138.608827 
L 164.906033 138.491029 
z
" style="stroke:#000000;"/>
    <path clip-path="url(#p3696e8939b)" d="M 161.199169 133.185066 
L 160.089787 128.738121 
L 158.4498 130.004305 
z
" style="stroke:#000000;"/>
    <path clip-path="url(#p3696e8939b)" d="M 160.089787 225.546103 
L 161.199169 221.100211 
L 158.4498 224.278361 
z
" style="stroke:#000000;"/>
    <path clip-path="url(#p3696e8939b)" d="M 172.855128 203.847059 
L 176.144917 205.578951 
L 173.292464 212.070389 
z
" style="stroke:#000000;"/>
    <path clip-path="url(#p3696e8939b)" d="M 176.144917 148.707567 
L 172.855128 150.436347 
L 173.292464 142.213431 
z
" style="stroke:#000000;"/>
    <path clip-path="url(#p3696e8939b)" d="M 176.144917 205.578951 
L 172.855128 203.847059 
L 174.970724 197.443866 
z
" style="stroke:#000000;"/>
    <path clip-path="url(#p3696e8939b)" d="M 172.855128 150.436347 
L 176.144917 148.707567 
L 174.970724 156.841542 
z
" style="stroke:#000000;"/>
    <path clip-path="url(#p3696e8939b)" d="M 173.292464 212.070389 
L 167.817267 218.299252 
L 169.876397 218.162413 
z
" style="stroke:#000000;"/>
    <path clip-path="url(#p3696e8939b)" d="M 172.855128 150.436347 
L 168.120242 144.2363 
L 170.178577 144.335863 
z
" style="stroke:#000000;"/>
    <path clip-path="url(#p3696e8939b)" d="M 167.817267 135.992308 
L 165.937211 130.489725 
L 163.867728 130.345992 
z
" style="stroke:#000000;"/>
    <path clip-path="url(#p3696e8939b)" d="M 163.867728 130.345992 
L 160.089787 128.738121 
L 161.199169 133.185066 
z
" style="stroke:#000000;"/>
    <path clip-path="url(#p3696e8939b)" d="M 160.089787 225.546103 
L 163.867728 223.941819 
L 161.199169 221.100211 
z
" style="stroke:#000000;"/>
    <path clip-path="url(#p3696e8939b)" d="M 160.089787 128.738121 
L 163.867728 130.345992 
L 161.652638 127.786916 
z
" style="stroke:#000000;"/>
    <path clip-path="url(#p3696e8939b)" d="M 163.867728 223.941819 
L 160.089787 225.546103 
L 161.652638 226.498791 
z
" style="stroke:#000000;"/>
    <path clip-path="url(#p3696e8939b)" d="M 168.120242 210.055548 
L 166.972797 215.669015 
L 164.906033 215.797767 
z
" style="stroke:#000000;"/>
    <path clip-path="url(#p3696e8939b)" d="M 170.178577 209.945012 
L 170.803845 203.938136 
L 172.855128 203.847059 
z
" style="stroke:#000000;"/>
    <path clip-path="url(#p3696e8939b)" d="M 169.876397 136.118176 
L 171.242334 142.10698 
L 173.292464 142.213431 
z
" style="stroke:#000000;"/>
    <path clip-path="url(#p3696e8939b)" d="M 163.867728 223.941819 
L 169.876397 218.162413 
L 167.817267 218.299252 
z
" style="stroke:#000000;"/>
    <path clip-path="url(#p3696e8939b)" d="M 174.970724 197.443866 
L 178.399706 198.761705 
L 176.144917 205.578951 
z
" style="stroke:#000000;"/>
    <path clip-path="url(#p3696e8939b)" d="M 178.399706 155.526946 
L 174.970724 156.841542 
L 176.144917 148.707567 
z
" style="stroke:#000000;"/>
    <path clip-path="url(#p3696e8939b)" d="M 178.399706 198.761705 
L 174.970724 197.443866 
L 176.500175 190.808126 
z
" style="stroke:#000000;"/>
    <path clip-path="url(#p3696e8939b)" d="M 174.970724 156.841542 
L 178.399706 155.526946 
L 176.500175 163.478729 
z
" style="stroke:#000000;"/>
    <path clip-path="url(#p3696e8939b)" d="M 164.906033 138.491029 
L 170.178577 144.335863 
L 168.120242 144.2363 
z
" style="stroke:#000000;"/>
    <path clip-path="url(#p3696e8939b)" d="M 163.867728 130.345992 
L 161.199169 133.185066 
L 164.906033 138.491029 
z
" style="stroke:#000000;"/>
    <path clip-path="url(#p3696e8939b)" d="M 161.199169 221.100211 
L 163.867728 223.941819 
L 164.906033 215.797767 
z
" style="stroke:#000000;"/>
    <path clip-path="url(#p3696e8939b)" d="M 174.970724 156.841542 
L 170.803845 150.356261 
L 172.855128 150.436347 
z
" style="stroke:#000000;"/>
    <path clip-path="url(#p3696e8939b)" d="M 180.029912 191.696157 
L 176.500175 190.808126 
L 177.425212 184.015609 
z
" style="stroke:#000000;"/>
    <path clip-path="url(#p3696e8939b)" d="M 176.500175 163.478729 
L 180.029912 162.594036 
L 177.425212 170.27212 
z
" style="stroke:#000000;"/>
    <path clip-path="url(#p3696e8939b)" d="M 176.144917 205.578951 
L 171.242334 212.187833 
L 173.292464 212.070389 
z
" style="stroke:#000000;"/>
    <path clip-path="url(#p3696e8939b)" d="M 172.855128 203.847059 
L 172.925024 197.514463 
L 174.970724 197.443866 
z
" style="stroke:#000000;"/>
    <path clip-path="url(#p3696e8939b)" d="M 176.500175 190.808126 
L 180.029912 191.696157 
L 178.399706 198.761705 
z
" style="stroke:#000000;"/>
    <path clip-path="url(#p3696e8939b)" d="M 180.029912 162.594036 
L 176.500175 163.478729 
L 178.399706 155.526946 
z
" style="stroke:#000000;"/>
    <path clip-path="url(#p3696e8939b)" d="M 177.425212 170.27212 
L 181.015947 169.827973 
L 177.734809 177.144011 
z
" style="stroke:#000000;"/>
    <path clip-path="url(#p3696e8939b)" d="M 181.015947 184.463153 
L 177.425212 184.015609 
L 177.734809 177.144011 
z
" style="stroke:#000000;"/>
    <path clip-path="url(#p3696e8939b)" d="M 171.242334 142.10698 
L 169.876397 136.118176 
L 167.817267 135.992308 
z
" style="stroke:#000000;"/>
    <path clip-path="url(#p3696e8939b)" d="M 170.803845 203.938136 
L 170.178577 209.945012 
L 168.120242 210.055548 
z
" style="stroke:#000000;"/>
    <path clip-path="url(#p3696e8939b)" d="M 173.292464 142.213431 
L 174.102319 148.621863 
L 176.144917 148.707567 
z
" style="stroke:#000000;"/>
    <path clip-path="url(#p3696e8939b)" d="M 163.867728 130.345992 
L 164.906033 138.491029 
L 167.817267 135.992308 
z
" style="stroke:#000000;"/>
    <path clip-path="url(#p3696e8939b)" d="M 164.906033 215.797767 
L 163.867728 223.941819 
L 167.817267 218.299252 
z
" style="stroke:#000000;"/>
    <path clip-path="url(#p3696e8939b)" d="M 176.500175 163.478729 
L 172.925024 156.781947 
L 174.970724 156.841542 
z
" style="stroke:#000000;"/>
    <path clip-path="url(#p3696e8939b)" d="M 177.425212 184.015609 
L 181.015947 184.463153 
L 180.029912 191.696157 
z
" style="stroke:#000000;"/>
    <path clip-path="url(#p3696e8939b)" d="M 181.015947 169.827973 
L 177.425212 170.27212 
L 180.029912 162.594036 
z
" style="stroke:#000000;"/>
    <path clip-path="url(#p3696e8939b)" d="M 168.120242 144.2363 
L 172.855128 150.436347 
L 170.803845 150.356261 
z
" style="stroke:#000000;"/>
    <path clip-path="url(#p3696e8939b)" d="M 174.970724 197.443866 
L 174.458517 190.857467 
L 176.500175 190.808126 
z
" style="stroke:#000000;"/>
    <path clip-path="url(#p3696e8939b)" d="M 167.817267 218.299252 
L 173.292464 212.070389 
L 171.242334 212.187833 
z
" style="stroke:#000000;"/>
    <path clip-path="url(#p3696e8939b)" d="M 177.734809 177.144011 
L 181.345941 177.145719 
L 181.015947 184.463153 
z
" style="stroke:#000000;"/>
    <path clip-path="url(#p3696e8939b)" d="M 181.345941 177.145719 
L 177.734809 177.144011 
L 181.015947 169.827973 
z
" style="stroke:#000000;"/>
    <path clip-path="url(#p3696e8939b)" d="M 167.817267 135.992308 
L 164.906033 138.491029 
L 168.120242 144.2363 
z
" style="stroke:#000000;"/>
    <path clip-path="url(#p3696e8939b)" d="M 164.906033 215.797767 
L 167.817267 218.299252 
L 168.120242 210.055548 
z
" style="stroke:#000000;"/>
    <path clip-path="url(#p3696e8939b)" d="M 177.425212 170.27212 
L 174.458517 163.4404 
L 176.500175 163.478729 
z
" style="stroke:#000000;"/>
    <path clip-path="url(#p3696e8939b)" d="M 178.399706 198.761705 
L 174.102319 205.675665 
L 176.144917 205.578951 
z
" style="stroke:#000000;"/>
    <path clip-path="url(#p3696e8939b)" d="M 176.500175 190.808126 
L 175.386 184.043167 
L 177.425212 184.015609 
z
" style="stroke:#000000;"/>
    <path clip-path="url(#p3696e8939b)" d="M 186.171974 146.301759 
L 177.133652 132.38791 
L 180.141433 133.227108 
z
" style="stroke:#000000;"/>
    <path clip-path="url(#p3696e8939b)" d="M 186.171974 125.270231 
L 180.141433 133.227108 
L 177.133652 132.38791 
z
" style="stroke:#000000;"/>
    <path clip-path="url(#p3696e8939b)" d="M 172.925024 197.514463 
L 172.855128 203.847059 
L 170.803845 203.938136 
z
" style="stroke:#000000;"/>
    <path clip-path="url(#p3696e8939b)" d="M 177.734809 177.144011 
L 175.386 170.25558 
L 177.425212 170.27212 
z
" style="stroke:#000000;"/>
    <path clip-path="url(#p3696e8939b)" d="M 177.425212 184.015609 
L 175.696416 177.149521 
L 177.734809 177.144011 
z
" style="stroke:#000000;"/>
    <path clip-path="url(#p3696e8939b)" d="M 176.144917 148.707567 
L 176.363072 155.463075 
L 178.399706 155.526946 
z
" style="stroke:#000000;"/>
    <path clip-path="url(#p3696e8939b)" d="M 174.102319 148.621863 
L 173.292464 142.213431 
L 171.242334 142.10698 
z
" style="stroke:#000000;"/>
    <path clip-path="url(#p3696e8939b)" d="M 170.803845 150.356261 
L 174.970724 156.841542 
L 172.925024 156.781947 
z
" style="stroke:#000000;"/>
    <path clip-path="url(#p3696e8939b)" d="M 167.817267 135.992308 
L 168.120242 144.2363 
L 171.242334 142.10698 
z
" style="stroke:#000000;"/>
    <path clip-path="url(#p3696e8939b)" d="M 168.120242 210.055548 
L 167.817267 218.299252 
L 171.242334 212.187833 
z
" style="stroke:#000000;"/>
    <path clip-path="url(#p3696e8939b)" d="M 180.029912 191.696157 
L 176.363072 198.8366 
L 178.399706 198.761705 
z
" style="stroke:#000000;"/>
    <path clip-path="url(#p3696e8939b)" d="M 171.242334 212.187833 
L 176.144917 205.578951 
L 174.102319 205.675665 
z
" style="stroke:#000000;"/>
    <path clip-path="url(#p3696e8939b)" d="M 177.133652 132.38791 
L 186.171974 146.301759 
L 186.171974 153.312269 
z
" style="stroke:#000000;"/>
    <path clip-path="url(#p3696e8939b)" d="M 174.458517 190.857467 
L 174.970724 197.443866 
L 172.925024 197.514463 
z
" style="stroke:#000000;"/>
    <path clip-path="url(#p3696e8939b)" d="M 178.399706 155.526946 
L 177.997595 162.552829 
L 180.029912 162.594036 
z
" style="stroke:#000000;"/>
    <path clip-path="url(#p3696e8939b)" d="M 171.242334 142.10698 
L 168.120242 144.2363 
L 170.803845 150.356261 
z
" style="stroke:#000000;"/>
    <path clip-path="url(#p3696e8939b)" d="M 168.120242 210.055548 
L 171.242334 212.187833 
L 170.803845 203.938136 
z
" style="stroke:#000000;"/>
    <path clip-path="url(#p3696e8939b)" d="M 172.925024 156.781947 
L 176.500175 163.478729 
L 174.458517 163.4404 
z
" style="stroke:#000000;"/>
    <path clip-path="url(#p3696e8939b)" d="M 175.093668 132.249821 
L 186.171974 125.270231 
L 177.133652 132.38791 
z
" style="stroke:#000000;"/>
    <path clip-path="url(#p3696e8939b)" d="M 186.171974 153.312269 
L 175.093668 132.249821 
L 177.133652 132.38791 
z
" style="stroke:#000000;"/>
    <path clip-path="url(#p3696e8939b)" d="M 180.141433 133.227108 
L 186.171974 125.270231 
L 186.171974 128.775486 
z
" style="stroke:#000000;"/>
    <path clip-path="url(#p3696e8939b)" d="M 181.015947 184.463153 
L 177.997595 191.748397 
L 180.029912 191.696157 
z
" style="stroke:#000000;"/>
    <path clip-path="url(#p3696e8939b)" d="M 175.386 184.043167 
L 176.500175 190.808126 
L 174.458517 190.857467 
z
" style="stroke:#000000;"/>
    <path clip-path="url(#p3696e8939b)" d="M 180.029912 162.594036 
L 178.986244 169.809989 
L 181.015947 169.827973 
z
" style="stroke:#000000;"/>
    <path clip-path="url(#p3696e8939b)" d="M 176.363072 155.463075 
L 176.144917 148.707567 
L 174.102319 148.621863 
z
" style="stroke:#000000;"/>
    <path clip-path="url(#p3696e8939b)" d="M 174.458517 163.4404 
L 177.425212 170.27212 
L 175.386 170.25558 
z
" style="stroke:#000000;"/>
    <path clip-path="url(#p3696e8939b)" d="M 181.345941 177.145719 
L 178.986244 184.492176 
L 181.015947 184.463153 
z
" style="stroke:#000000;"/>
    <path clip-path="url(#p3696e8939b)" d="M 181.015947 169.827973 
L 179.317113 177.15124 
L 181.345941 177.145719 
z
" style="stroke:#000000;"/>
    <path clip-path="url(#p3696e8939b)" d="M 175.696416 177.149521 
L 177.425212 184.015609 
L 175.386 184.043167 
z
" style="stroke:#000000;"/>
    <path clip-path="url(#p3696e8939b)" d="M 175.386 170.25558 
L 177.734809 177.144011 
L 175.696416 177.149521 
z
" style="stroke:#000000;"/>
    <path clip-path="url(#p3696e8939b)" d="M 174.102319 205.675665 
L 178.399706 198.761705 
L 176.363072 198.8366 
z
" style="stroke:#000000;"/>
    <path clip-path="url(#p3696e8939b)" d="M 170.803845 150.356261 
L 174.102319 148.621863 
L 171.242334 142.10698 
z
" style="stroke:#000000;"/>
    <path clip-path="url(#p3696e8939b)" d="M 174.102319 205.675665 
L 170.803845 203.938136 
L 171.242334 212.187833 
z
" style="stroke:#000000;"/>
    <path clip-path="url(#p3696e8939b)" d="M 174.102319 148.621863 
L 170.803845 150.356261 
L 172.925024 156.781947 
z
" style="stroke:#000000;"/>
    <path clip-path="url(#p3696e8939b)" d="M 170.803845 203.938136 
L 174.102319 205.675665 
L 172.925024 197.514463 
z
" style="stroke:#000000;"/>
    <path clip-path="url(#p3696e8939b)" d="M 177.997595 162.552829 
L 178.399706 155.526946 
L 176.363072 155.463075 
z
" style="stroke:#000000;"/>
    <path clip-path="url(#p3696e8939b)" d="M 176.363072 198.8366 
L 180.029912 191.696157 
L 177.997595 191.748397 
z
" style="stroke:#000000;"/>
    <path clip-path="url(#p3696e8939b)" d="M 184.155966 128.625432 
L 180.141433 133.227108 
L 186.171974 128.775486 
z
" style="stroke:#000000;"/>
    <path clip-path="url(#p3696e8939b)" d="M 180.141433 133.227108 
L 184.155966 146.208079 
L 186.171974 146.301759 
z
" style="stroke:#000000;"/>
    <path clip-path="url(#p3696e8939b)" d="M 178.986244 169.809989 
L 180.029912 162.594036 
L 177.997595 162.552829 
z
" style="stroke:#000000;"/>
    <path clip-path="url(#p3696e8939b)" d="M 172.925024 156.781947 
L 176.363072 155.463075 
L 174.102319 148.621863 
z
" style="stroke:#000000;"/>
    <path clip-path="url(#p3696e8939b)" d="M 176.363072 198.8366 
L 172.925024 197.514463 
L 174.102319 205.675665 
z
" style="stroke:#000000;"/>
    <path clip-path="url(#p3696e8939b)" d="M 186.171974 125.270231 
L 192.22257 133.086767 
L 186.171974 128.775486 
z
" style="stroke:#000000;"/>
    <path clip-path="url(#p3696e8939b)" d="M 176.363072 155.463075 
L 172.925024 156.781947 
L 174.458517 163.4404 
z
" style="stroke:#000000;"/>
    <path clip-path="url(#p3696e8939b)" d="M 172.925024 197.514463 
L 176.363072 198.8366 
L 174.458517 190.857467 
z
" style="stroke:#000000;"/>
    <path clip-path="url(#p3696e8939b)" d="M 177.997595 191.748397 
L 181.015947 184.463153 
L 178.986244 184.492176 
z
" style="stroke:#000000;"/>
    <path clip-path="url(#p3696e8939b)" d="M 179.317113 177.15124 
L 181.015947 169.827973 
L 178.986244 169.809989 
z
" style="stroke:#000000;"/>
    <path clip-path="url(#p3696e8939b)" d="M 178.986244 184.492176 
L 181.345941 177.145719 
L 179.317113 177.15124 
z
" style="stroke:#000000;"/>
    <path clip-path="url(#p3696e8939b)" d="M 186.171974 146.301759 
L 195.25542 132.173035 
L 186.171974 153.312269 
z
" style="stroke:#000000;"/>
    <path clip-path="url(#p3696e8939b)" d="M 177.997595 162.552829 
L 174.458517 163.4404 
L 175.386 170.25558 
z
" style="stroke:#000000;"/>
    <path clip-path="url(#p3696e8939b)" d="M 174.458517 190.857467 
L 177.997595 191.748397 
L 175.386 184.043167 
z
" style="stroke:#000000;"/>
    <path clip-path="url(#p3696e8939b)" d="M 180.141433 133.227108 
L 184.155966 128.625432 
L 178.109412 133.091599 
z
" style="stroke:#000000;"/>
    <path clip-path="url(#p3696e8939b)" d="M 184.155966 146.208079 
L 180.141433 133.227108 
L 178.109412 133.091599 
z
" style="stroke:#000000;"/>
    <path clip-path="url(#p3696e8939b)" d="M 174.458517 163.4404 
L 177.997595 162.552829 
L 176.363072 155.463075 
z
" style="stroke:#000000;"/>
    <path clip-path="url(#p3696e8939b)" d="M 177.997595 191.748397 
L 174.458517 190.857467 
L 176.363072 198.8366 
z
" style="stroke:#000000;"/>
    <path clip-path="url(#p3696e8939b)" d="M 175.386 184.043167 
L 178.986244 184.492176 
L 175.696416 177.149521 
z
" style="stroke:#000000;"/>
    <path clip-path="url(#p3696e8939b)" d="M 178.986244 169.809989 
L 175.386 170.25558 
L 175.696416 177.149521 
z
" style="stroke:#000000;"/>
    <path clip-path="url(#p3696e8939b)" d="M 186.171974 125.270231 
L 175.093668 132.249821 
L 184.155966 125.108903 
z
" style="stroke:#000000;"/>
    <path clip-path="url(#p3696e8939b)" d="M 175.093668 132.249821 
L 186.171974 153.312269 
L 184.155966 153.241138 
z
" style="stroke:#000000;"/>
    <path clip-path="url(#p3696e8939b)" d="M 175.386 170.25558 
L 178.986244 169.809989 
L 177.997595 162.552829 
z
" style="stroke:#000000;"/>
    <path clip-path="url(#p3696e8939b)" d="M 178.986244 184.492176 
L 175.386 184.043167 
L 177.997595 191.748397 
z
" style="stroke:#000000;"/>
    <path clip-path="url(#p3696e8939b)" d="M 195.25542 132.173035 
L 186.171974 146.301759 
L 192.22257 133.086767 
z
" style="stroke:#000000;"/>
    <path clip-path="url(#p3696e8939b)" d="M 192.22257 133.086767 
L 186.171974 125.270231 
L 195.25542 132.173035 
z
" style="stroke:#000000;"/>
    <path clip-path="url(#p3696e8939b)" d="M 175.696416 177.149521 
L 179.317113 177.15124 
L 178.986244 169.809989 
z
" style="stroke:#000000;"/>
    <path clip-path="url(#p3696e8939b)" d="M 179.317113 177.15124 
L 175.696416 177.149521 
L 178.986244 184.492176 
z
" style="stroke:#000000;"/>
    <path clip-path="url(#p3696e8939b)" d="M 191.010842 177.15029 
L 194.648447 177.15201 
L 191.342654 184.488833 
z
" style="stroke:#000000;"/>
    <path clip-path="url(#p3696e8939b)" d="M 194.648447 177.15201 
L 191.010842 177.15029 
L 191.342654 169.812061 
z
" style="stroke:#000000;"/>
    <path clip-path="url(#p3696e8939b)" d="M 175.093668 132.249821 
L 184.155966 146.208079 
L 178.109412 133.091599 
z
" style="stroke:#000000;"/>
    <path clip-path="url(#p3696e8939b)" d="M 178.109412 133.091599 
L 184.155966 125.108903 
L 175.093668 132.249821 
z
" style="stroke:#000000;"/>
    <path clip-path="url(#p3696e8939b)" d="M 191.342654 184.488833 
L 194.960989 184.057098 
L 192.334841 191.751265 
z
" style="stroke:#000000;"/>
    <path clip-path="url(#p3696e8939b)" d="M 194.960989 170.247218 
L 191.342654 169.812061 
L 192.334841 162.550567 
z
" style="stroke:#000000;"/>
    <path clip-path="url(#p3696e8939b)" d="M 184.155966 125.108903 
L 195.25542 132.173035 
L 186.171974 125.270231 
z
" style="stroke:#000000;"/>
    <path clip-path="url(#p3696e8939b)" d="M 195.25542 132.173035 
L 184.155966 153.241138 
L 186.171974 153.312269 
z
" style="stroke:#000000;"/>
    <path clip-path="url(#p3696e8939b)" d="M 191.342654 169.812061 
L 194.960989 170.247218 
L 194.648447 177.15201 
z
" style="stroke:#000000;"/>
    <path clip-path="url(#p3696e8939b)" d="M 194.960989 184.057098 
L 191.342654 184.488833 
L 194.648447 177.15201 
z
" style="stroke:#000000;"/>
    <path clip-path="url(#p3696e8939b)" d="M 192.334841 191.751265 
L 195.895462 190.890328 
L 193.977587 198.861816 
z
" style="stroke:#000000;"/>
    <path clip-path="url(#p3696e8939b)" d="M 195.895462 163.414873 
L 192.334841 162.550567 
L 193.977587 155.44157 
z
" style="stroke:#000000;"/>
    <path clip-path="url(#p3696e8939b)" d="M 190.222693 132.950354 
L 186.171974 128.775486 
L 192.22257 133.086767 
z
" style="stroke:#000000;"/>
    <path clip-path="url(#p3696e8939b)" d="M 186.171974 146.301759 
L 190.222693 132.950354 
L 192.22257 133.086767 
z
" style="stroke:#000000;"/>
    <path clip-path="url(#p3696e8939b)" d="M 195.895462 190.890328 
L 192.334841 191.751265 
L 194.960989 184.057098 
z
" style="stroke:#000000;"/>
    <path clip-path="url(#p3696e8939b)" d="M 192.334841 162.550567 
L 195.895462 163.414873 
L 194.960989 170.247218 
z
" style="stroke:#000000;"/>
    <path clip-path="url(#p3696e8939b)" d="M 184.155966 146.208079 
L 175.093668 132.249821 
L 184.155966 153.241138 
z
" style="stroke:#000000;"/>
    <path clip-path="url(#p3696e8939b)" d="M 191.342654 184.488833 
L 189.007729 177.15584 
L 191.010842 177.15029 
z
" style="stroke:#000000;"/>
    <path clip-path="url(#p3696e8939b)" d="M 191.010842 177.15029 
L 189.340427 169.793975 
L 191.342654 169.812061 
z
" style="stroke:#000000;"/>
    <path clip-path="url(#p3696e8939b)" d="M 192.334841 191.751265 
L 189.340427 184.518022 
L 191.342654 184.488833 
z
" style="stroke:#000000;"/>
    <path clip-path="url(#p3696e8939b)" d="M 197.442613 197.580253 
L 193.977587 198.861816 
L 195.895462 190.890328 
z
" style="stroke:#000000;"/>
    <path clip-path="url(#p3696e8939b)" d="M 193.977587 155.44157 
L 197.442613 156.72641 
L 195.895462 163.414873 
z
" style="stroke:#000000;"/>
    <path clip-path="url(#p3696e8939b)" d="M 184.155966 125.108903 
L 178.109412 133.091599 
L 184.155966 128.625432 
z
" style="stroke:#000000;"/>
    <path clip-path="url(#p3696e8939b)" d="M 193.977587 198.861816 
L 197.442613 197.580253 
L 196.254599 205.746045 
z
" style="stroke:#000000;"/>
    <path clip-path="url(#p3696e8939b)" d="M 197.442613 156.72641 
L 193.977587 155.44157 
L 196.254599 148.559495 
z
" style="stroke:#000000;"/>
    <path clip-path="url(#p3696e8939b)" d="M 191.342654 169.812061 
L 190.335264 162.50908 
L 192.334841 162.550567 
z
" style="stroke:#000000;"/>
    <path clip-path="url(#p3696e8939b)" d="M 186.171974 128.775486 
L 190.222693 132.950354 
L 184.155966 128.625432 
z
" style="stroke:#000000;"/>
    <path clip-path="url(#p3696e8939b)" d="M 190.222693 132.950354 
L 186.171974 146.301759 
L 184.155966 146.208079 
z
" style="stroke:#000000;"/>
    <path clip-path="url(#p3696e8939b)" d="M 193.977587 198.861816 
L 190.335264 191.803861 
L 192.334841 191.751265 
z
" style="stroke:#000000;"/>
    <path clip-path="url(#p3696e8939b)" d="M 192.334841 162.550567 
L 191.982401 155.377149 
L 193.977587 155.44157 
z
" style="stroke:#000000;"/>
    <path clip-path="url(#p3696e8939b)" d="M 199.58701 204.05661 
L 196.254599 205.746045 
L 197.442613 197.580253 
z
" style="stroke:#000000;"/>
    <path clip-path="url(#p3696e8939b)" d="M 196.254599 148.559495 
L 199.58701 150.252083 
L 197.442613 156.72641 
z
" style="stroke:#000000;"/>
    <path clip-path="url(#p3696e8939b)" d="M 196.254599 205.746045 
L 199.58701 204.05661 
L 199.143308 212.331637 
z
" style="stroke:#000000;"/>
    <path clip-path="url(#p3696e8939b)" d="M 199.58701 150.252083 
L 196.254599 148.559495 
L 199.143308 141.976636 
z
" style="stroke:#000000;"/>
    <path clip-path="url(#p3696e8939b)" d="M 196.254599 205.746045 
L 191.982401 198.937356 
L 193.977587 198.861816 
z
" style="stroke:#000000;"/>
    <path clip-path="url(#p3696e8939b)" d="M 194.960989 170.247218 
L 192.655055 177.157572 
L 194.648447 177.15201 
z
" style="stroke:#000000;"/>
    <path clip-path="url(#p3696e8939b)" d="M 194.648447 177.15201 
L 192.968434 184.084924 
L 194.960989 184.057098 
z
" style="stroke:#000000;"/>
    <path clip-path="url(#p3696e8939b)" d="M 189.340427 169.793975 
L 191.010842 177.15029 
L 189.007729 177.15584 
z
" style="stroke:#000000;"/>
    <path clip-path="url(#p3696e8939b)" d="M 189.007729 177.15584 
L 191.342654 184.488833 
L 189.340427 184.518022 
z
" style="stroke:#000000;"/>
    <path clip-path="url(#p3696e8939b)" d="M 195.895462 163.414873 
L 192.968434 170.230517 
L 194.960989 170.247218 
z
" style="stroke:#000000;"/>
    <path clip-path="url(#p3696e8939b)" d="M 193.977587 155.44157 
L 194.265507 148.472836 
L 196.254599 148.559495 
z
" style="stroke:#000000;"/>
    <path clip-path="url(#p3696e8939b)" d="M 190.335264 162.50908 
L 191.342654 169.812061 
L 189.340427 169.793975 
z
" style="stroke:#000000;"/>
    <path clip-path="url(#p3696e8939b)" d="M 194.960989 184.057098 
L 193.905408 190.940198 
L 195.895462 190.890328 
z
" style="stroke:#000000;"/>
    <path clip-path="url(#p3696e8939b)" d="M 189.340427 184.518022 
L 192.334841 191.751265 
L 190.335264 191.803861 
z
" style="stroke:#000000;"/>
    <path clip-path="url(#p3696e8939b)" d="M 184.155966 125.108903 
L 184.155966 128.625432 
L 190.222693 132.950354 
z
" style="stroke:#000000;"/>
    <path clip-path="url(#p3696e8939b)" d="M 195.25542 132.173035 
L 184.155966 125.108903 
L 193.263653 132.033562 
z
" style="stroke:#000000;"/>
    <path clip-path="url(#p3696e8939b)" d="M 184.155966 153.241138 
L 195.25542 132.173035 
L 193.263653 132.033562 
z
" style="stroke:#000000;"/>
    <path clip-path="url(#p3696e8939b)" d="M 197.442613 156.72641 
L 193.905408 163.376133 
L 195.895462 163.414873 
z
" style="stroke:#000000;"/>
    <path clip-path="url(#p3696e8939b)" d="M 202.307208 210.251132 
L 199.143308 212.331637 
L 199.58701 204.05661 
z
" style="stroke:#000000;"/>
    <path clip-path="url(#p3696e8939b)" d="M 199.143308 141.976636 
L 202.307208 144.060133 
L 199.58701 150.252083 
z
" style="stroke:#000000;"/>
    <path clip-path="url(#p3696e8939b)" d="M 191.982401 155.377149 
L 192.334841 162.550567 
L 190.335264 162.50908 
z
" style="stroke:#000000;"/>
    <path clip-path="url(#p3696e8939b)" d="M 195.895462 190.890328 
L 195.456704 197.65173 
L 197.442613 197.580253 
z
" style="stroke:#000000;"/>
    <path clip-path="url(#p3696e8939b)" d="M 184.155966 146.208079 
L 184.155966 153.241138 
L 193.263653 132.033562 
z
" style="stroke:#000000;"/>
    <path clip-path="url(#p3696e8939b)" d="M 199.143308 212.331637 
L 194.265507 205.843836 
L 196.254599 205.746045 
z
" style="stroke:#000000;"/>
    <path clip-path="url(#p3696e8939b)" d="M 190.335264 191.803861 
L 193.977587 198.861816 
L 191.982401 198.937356 
z
" style="stroke:#000000;"/>
    <path clip-path="url(#p3696e8939b)" d="M 199.143308 212.331637 
L 202.307208 210.251132 
L 202.614822 218.548635 
z
" style="stroke:#000000;"/>
    <path clip-path="url(#p3696e8939b)" d="M 202.307208 144.060133 
L 199.143308 141.976636 
L 202.614822 135.762921 
z
" style="stroke:#000000;"/>
    <path clip-path="url(#p3696e8939b)" d="M 199.58701 150.252083 
L 195.456704 156.666073 
L 197.442613 156.72641 
z
" style="stroke:#000000;"/>
    <path clip-path="url(#p3696e8939b)" d="M 196.254599 148.559495 
L 197.161961 141.868659 
L 199.143308 141.976636 
z
" style="stroke:#000000;"/>
    <path clip-path="url(#p3696e8939b)" d="M 194.265507 148.472836 
L 193.977587 155.44157 
L 191.982401 155.377149 
z
" style="stroke:#000000;"/>
    <path clip-path="url(#p3696e8939b)" d="M 192.968434 184.084924 
L 194.648447 177.15201 
L 192.655055 177.157572 
z
" style="stroke:#000000;"/>
    <path clip-path="url(#p3696e8939b)" d="M 192.655055 177.157572 
L 194.960989 170.247218 
L 192.968434 170.230517 
z
" style="stroke:#000000;"/>
    <path clip-path="url(#p3696e8939b)" d="M 197.442613 197.580253 
L 197.606854 204.149036 
L 199.58701 204.05661 
z
" style="stroke:#000000;"/>
    <path clip-path="url(#p3696e8939b)" d="M 184.155966 125.108903 
L 190.222693 132.950354 
L 193.263653 132.033562 
z
" style="stroke:#000000;"/>
    <path clip-path="url(#p3696e8939b)" d="M 184.155966 146.208079 
L 193.263653 132.033562 
L 190.222693 132.950354 
z
" style="stroke:#000000;"/>
    <path clip-path="url(#p3696e8939b)" d="M 193.905408 190.940198 
L 194.960989 184.057098 
L 192.968434 184.084924 
z
" style="stroke:#000000;"/>
    <path clip-path="url(#p3696e8939b)" d="M 191.982401 198.937356 
L 196.254599 205.746045 
L 194.265507 205.843836 
z
" style="stroke:#000000;"/>
    <path clip-path="url(#p3696e8939b)" d="M 192.968434 170.230517 
L 195.895462 163.414873 
L 193.905408 163.376133 
z
" style="stroke:#000000;"/>
    <path clip-path="url(#p3696e8939b)" d="M 202.614822 218.548635 
L 202.307208 210.251132 
L 205.575911 216.098197 
z
" style="stroke:#000000;"/>
    <path clip-path="url(#p3696e8939b)" d="M 202.307208 144.060133 
L 202.614822 135.762921 
L 205.575911 138.21616 
z
" style="stroke:#000000;"/>
    <path clip-path="url(#p3696e8939b)" d="M 189.007729 177.15584 
L 192.655055 177.157572 
L 189.340427 169.793975 
z
" style="stroke:#000000;"/>
    <path clip-path="url(#p3696e8939b)" d="M 192.655055 177.157572 
L 189.007729 177.15584 
L 189.340427 184.518022 
z
" style="stroke:#000000;"/>
    <path clip-path="url(#p3696e8939b)" d="M 202.614822 218.548635 
L 197.161961 212.450764 
L 199.143308 212.331637 
z
" style="stroke:#000000;"/>
    <path clip-path="url(#p3696e8939b)" d="M 195.456704 197.65173 
L 195.895462 190.890328 
L 193.905408 190.940198 
z
" style="stroke:#000000;"/>
    <path clip-path="url(#p3696e8939b)" d="M 202.307208 144.060133 
L 197.606854 150.170809 
L 199.58701 150.252083 
z
" style="stroke:#000000;"/>
    <path clip-path="url(#p3696e8939b)" d="M 189.340427 169.793975 
L 192.968434 170.230517 
L 190.335264 162.50908 
z
" style="stroke:#000000;"/>
    <path clip-path="url(#p3696e8939b)" d="M 192.968434 184.084924 
L 189.340427 184.518022 
L 190.335264 191.803861 
z
" style="stroke:#000000;"/>
    <path clip-path="url(#p3696e8939b)" d="M 193.905408 163.376133 
L 197.442613 156.72641 
L 195.456704 156.666073 
z
" style="stroke:#000000;"/>
    <path clip-path="url(#p3696e8939b)" d="M 202.614822 218.548635 
L 205.575911 216.098197 
L 206.634312 224.331032 
z
" style="stroke:#000000;"/>
    <path clip-path="url(#p3696e8939b)" d="M 205.575911 138.21616 
L 202.614822 135.762921 
L 206.634312 129.984326 
z
" style="stroke:#000000;"/>
    <path clip-path="url(#p3696e8939b)" d="M 197.161961 141.868659 
L 196.254599 148.559495 
L 194.265507 148.472836 
z
" style="stroke:#000000;"/>
    <path clip-path="url(#p3696e8939b)" d="M 199.58701 204.05661 
L 200.33436 210.363641 
L 202.307208 210.251132 
z
" style="stroke:#000000;"/>
    <path clip-path="url(#p3696e8939b)" d="M 199.143308 141.976636 
L 200.642802 135.634765 
L 202.614822 135.762921 
z
" style="stroke:#000000;"/>
    <path clip-path="url(#p3696e8939b)" d="M 189.340427 184.518022 
L 192.968434 184.084924 
L 192.655055 177.157572 
z
" style="stroke:#000000;"/>
    <path clip-path="url(#p3696e8939b)" d="M 192.968434 170.230517 
L 189.340427 169.793975 
L 192.655055 177.157572 
z
" style="stroke:#000000;"/>
    <path clip-path="url(#p3696e8939b)" d="M 190.335264 162.50908 
L 193.905408 163.376133 
L 191.982401 155.377149 
z
" style="stroke:#000000;"/>
    <path clip-path="url(#p3696e8939b)" d="M 193.905408 190.940198 
L 190.335264 191.803861 
L 191.982401 198.937356 
z
" style="stroke:#000000;"/>
    <path clip-path="url(#p3696e8939b)" d="M 197.606854 204.149036 
L 197.442613 197.580253 
L 195.456704 197.65173 
z
" style="stroke:#000000;"/>
    <path clip-path="url(#p3696e8939b)" d="M 194.265507 205.843836 
L 199.143308 212.331637 
L 197.161961 212.450764 
z
" style="stroke:#000000;"/>
    <path clip-path="url(#p3696e8939b)" d="M 193.905408 163.376133 
L 190.335264 162.50908 
L 192.968434 170.230517 
z
" style="stroke:#000000;"/>
    <path clip-path="url(#p3696e8939b)" d="M 190.335264 191.803861 
L 193.905408 190.940198 
L 192.968434 184.084924 
z
" style="stroke:#000000;"/>
    <path clip-path="url(#p3696e8939b)" d="M 195.456704 156.666073 
L 199.58701 150.252083 
L 197.606854 150.170809 
z
" style="stroke:#000000;"/>
    <path clip-path="url(#p3696e8939b)" d="M 206.634312 224.331032 
L 205.575911 216.098197 
L 209.360129 221.534946 
z
" style="stroke:#000000;"/>
    <path clip-path="url(#p3696e8939b)" d="M 205.575911 138.21616 
L 206.634312 129.984326 
L 209.360129 132.782991 
z
" style="stroke:#000000;"/>
    <path clip-path="url(#p3696e8939b)" d="M 205.575911 138.21616 
L 200.33436 143.958793 
L 202.307208 144.060133 
z
" style="stroke:#000000;"/>
    <path clip-path="url(#p3696e8939b)" d="M 195.456704 156.666073 
L 191.982401 155.377149 
L 193.905408 163.376133 
z
" style="stroke:#000000;"/>
    <path clip-path="url(#p3696e8939b)" d="M 191.982401 198.937356 
L 195.456704 197.65173 
L 193.905408 190.940198 
z
" style="stroke:#000000;"/>
    <path clip-path="url(#p3696e8939b)" d="M 191.982401 155.377149 
L 195.456704 156.666073 
L 194.265507 148.472836 
z
" style="stroke:#000000;"/>
    <path clip-path="url(#p3696e8939b)" d="M 195.456704 197.65173 
L 191.982401 198.937356 
L 194.265507 205.843836 
z
" style="stroke:#000000;"/>
    <path clip-path="url(#p3696e8939b)" d="M 206.634312 224.331032 
L 200.642802 218.687963 
L 202.614822 218.548635 
z
" style="stroke:#000000;"/>
    <path clip-path="url(#p3696e8939b)" d="M 200.642802 135.634765 
L 199.143308 141.976636 
L 197.161961 141.868659 
z
" style="stroke:#000000;"/>
    <path clip-path="url(#p3696e8939b)" d="M 200.33436 210.363641 
L 199.58701 204.05661 
L 197.606854 204.149036 
z
" style="stroke:#000000;"/>
    <path clip-path="url(#p3696e8939b)" d="M 202.307208 210.251132 
L 203.611863 216.229715 
L 205.575911 216.098197 
z
" style="stroke:#000000;"/>
    <path clip-path="url(#p3696e8939b)" d="M 206.634312 224.331032 
L 210.495696 226.054386 
L 208.89636 226.971914 
z
" style="stroke:#000000;"/>
    <path clip-path="url(#p3696e8939b)" d="M 210.495696 128.264625 
L 206.634312 129.984326 
L 208.89636 127.345584 
z
" style="stroke:#000000;"/>
    <path clip-path="url(#p3696e8939b)" d="M 210.495696 226.054386 
L 206.634312 224.331032 
L 209.360129 221.534946 
z
" style="stroke:#000000;"/>
    <path clip-path="url(#p3696e8939b)" d="M 206.634312 129.984326 
L 210.495696 128.264625 
L 209.360129 132.782991 
z
" style="stroke:#000000;"/>
    <path clip-path="url(#p3696e8939b)" d="M 202.614822 135.762921 
L 204.673118 129.837336 
L 206.634312 129.984326 
z
" style="stroke:#000000;"/>
    <path clip-path="url(#p3696e8939b)" d="M 197.606854 150.170809 
L 202.307208 144.060133 
L 200.33436 143.958793 
z
" style="stroke:#000000;"/>
    <path clip-path="url(#p3696e8939b)" d="M 197.161961 212.450764 
L 202.614822 218.548635 
L 200.642802 218.687963 
z
" style="stroke:#000000;"/>
    <path clip-path="url(#p3696e8939b)" d="M 197.606854 150.170809 
L 194.265507 148.472836 
L 195.456704 156.666073 
z
" style="stroke:#000000;"/>
    <path clip-path="url(#p3696e8939b)" d="M 194.265507 205.843836 
L 197.606854 204.149036 
L 195.456704 197.65173 
z
" style="stroke:#000000;"/>
    <path clip-path="url(#p3696e8939b)" d="M 194.265507 148.472836 
L 197.606854 150.170809 
L 197.161961 141.868659 
z
" style="stroke:#000000;"/>
    <path clip-path="url(#p3696e8939b)" d="M 197.606854 204.149036 
L 194.265507 205.843836 
L 197.161961 212.450764 
z
" style="stroke:#000000;"/>
    <path clip-path="url(#p3696e8939b)" d="M 210.495696 226.054386 
L 209.360129 221.534946 
L 212.176964 224.818858 
z
" style="stroke:#000000;"/>
    <path clip-path="url(#p3696e8939b)" d="M 209.360129 132.782991 
L 210.495696 128.264625 
L 212.176964 129.501743 
z
" style="stroke:#000000;"/>
    <path clip-path="url(#p3696e8939b)" d="M 209.360129 132.782991 
L 203.611863 138.095832 
L 205.575911 138.21616 
z
" style="stroke:#000000;"/>
    <path clip-path="url(#p3696e8939b)" d="M 203.611863 216.229715 
L 202.307208 210.251132 
L 200.33436 210.363641 
z
" style="stroke:#000000;"/>
    <path clip-path="url(#p3696e8939b)" d="M 208.89636 226.971914 
L 204.673118 224.489218 
L 206.634312 224.331032 
z
" style="stroke:#000000;"/>
    <path clip-path="url(#p3696e8939b)" d="M 204.673118 129.837336 
L 202.614822 135.762921 
L 200.642802 135.634765 
z
" style="stroke:#000000;"/>
    <path clip-path="url(#p3696e8939b)" d="M 205.575911 216.098197 
L 207.406293 221.684198 
L 209.360129 221.534946 
z
" style="stroke:#000000;"/>
    <path clip-path="url(#p3696e8939b)" d="M 206.634312 129.984326 
L 206.941271 127.189963 
L 208.89636 127.345584 
z
" style="stroke:#000000;"/>
    <path clip-path="url(#p3696e8939b)" d="M 200.33436 143.958793 
L 197.161961 141.868659 
L 197.606854 150.170809 
z
" style="stroke:#000000;"/>
    <path clip-path="url(#p3696e8939b)" d="M 197.161961 212.450764 
L 200.33436 210.363641 
L 197.606854 204.149036 
z
" style="stroke:#000000;"/>
    <path clip-path="url(#p3696e8939b)" d="M 200.33436 143.958793 
L 205.575911 138.21616 
L 203.611863 138.095832 
z
" style="stroke:#000000;"/>
    <path clip-path="url(#p3696e8939b)" d="M 197.161961 141.868659 
L 200.33436 143.958793 
L 200.642802 135.634765 
z
" style="stroke:#000000;"/>
    <path clip-path="url(#p3696e8939b)" d="M 200.33436 210.363641 
L 197.161961 212.450764 
L 200.642802 218.687963 
z
" style="stroke:#000000;"/>
    <path clip-path="url(#p3696e8939b)" d="M 200.642802 218.687963 
L 206.634312 224.331032 
L 204.673118 224.489218 
z
" style="stroke:#000000;"/>
    <path clip-path="url(#p3696e8939b)" d="M 206.941271 127.189963 
L 210.495696 128.264625 
L 208.89636 127.345584 
z
" style="stroke:#000000;"/>
    <path clip-path="url(#p3696e8939b)" d="M 208.544929 226.218319 
L 208.89636 226.971914 
L 210.495696 226.054386 
z
" style="stroke:#000000;"/>
    <path clip-path="url(#p3696e8939b)" d="M 207.406293 221.684198 
L 212.176964 224.818858 
L 209.360129 221.534946 
z
" style="stroke:#000000;"/>
    <path clip-path="url(#p3696e8939b)" d="M 207.406293 221.684198 
L 205.575911 216.098197 
L 203.611863 216.229715 
z
" style="stroke:#000000;"/>
    <path clip-path="url(#p3696e8939b)" d="M 208.544929 128.111911 
L 212.176964 129.501743 
L 210.495696 128.264625 
z
" style="stroke:#000000;"/>
    <path clip-path="url(#p3696e8939b)" d="M 210.230745 129.352967 
L 209.360129 132.782991 
L 212.176964 129.501743 
z
" style="stroke:#000000;"/>
    <path clip-path="url(#p3696e8939b)" d="M 206.941271 127.189963 
L 206.634312 129.984326 
L 204.673118 129.837336 
z
" style="stroke:#000000;"/>
    <path clip-path="url(#p3696e8939b)" d="M 200.642802 135.634765 
L 200.33436 143.958793 
L 203.611863 138.095832 
z
" style="stroke:#000000;"/>
    <path clip-path="url(#p3696e8939b)" d="M 200.33436 210.363641 
L 200.642802 218.687963 
L 203.611863 216.229715 
z
" style="stroke:#000000;"/>
    <path clip-path="url(#p3696e8939b)" d="M 210.230745 224.978864 
L 210.495696 226.054386 
L 212.176964 224.818858 
z
" style="stroke:#000000;"/>
    <path clip-path="url(#p3696e8939b)" d="M 203.611863 138.095832 
L 209.360129 132.782991 
L 207.406293 132.644951 
z
" style="stroke:#000000;"/>
    <path clip-path="url(#p3696e8939b)" d="M 204.673118 224.489218 
L 208.89636 226.971914 
L 206.941271 227.138745 
z
" style="stroke:#000000;"/>
    <path clip-path="url(#p3696e8939b)" d="M 200.642802 135.634765 
L 203.611863 138.095832 
L 204.673118 129.837336 
z
" style="stroke:#000000;"/>
    <path clip-path="url(#p3696e8939b)" d="M 203.611863 216.229715 
L 200.642802 218.687963 
L 204.673118 224.489218 
z
" style="stroke:#000000;"/>
    <path clip-path="url(#p3696e8939b)" d="M 208.89636 226.971914 
L 208.544929 226.218319 
L 206.941271 227.138745 
z
" style="stroke:#000000;"/>
    <path clip-path="url(#p3696e8939b)" d="M 210.495696 128.264625 
L 206.941271 127.189963 
L 208.544929 128.111911 
z
" style="stroke:#000000;"/>
    <path clip-path="url(#p3696e8939b)" d="M 209.360129 132.782991 
L 210.230745 129.352967 
L 207.406293 132.644951 
z
" style="stroke:#000000;"/>
    <path clip-path="url(#p3696e8939b)" d="M 210.495696 226.054386 
L 210.230745 224.978864 
L 208.544929 226.218319 
z
" style="stroke:#000000;"/>
    <path clip-path="url(#p3696e8939b)" d="M 204.673118 129.837336 
L 203.611863 138.095832 
L 207.406293 132.644951 
z
" style="stroke:#000000;"/>
    <path clip-path="url(#p3696e8939b)" d="M 203.611863 216.229715 
L 204.673118 224.489218 
L 207.406293 221.684198 
z
" style="stroke:#000000;"/>
    <path clip-path="url(#p3696e8939b)" d="M 212.176964 224.818858 
L 207.406293 221.684198 
L 210.230745 224.978864 
z
" style="stroke:#000000;"/>
    <path clip-path="url(#p3696e8939b)" d="M 212.176964 129.501743 
L 208.544929 128.111911 
L 210.230745 129.352967 
z
" style="stroke:#000000;"/>
    <path clip-path="url(#p3696e8939b)" d="M 204.673118 129.837336 
L 208.544929 128.111911 
L 206.941271 127.189963 
z
" style="stroke:#000000;"/>
    <path clip-path="url(#p3696e8939b)" d="M 208.544929 226.218319 
L 204.673118 224.489218 
L 206.941271 227.138745 
z
" style="stroke:#000000;"/>
    <path clip-path="url(#p3696e8939b)" d="M 208.544929 128.111911 
L 204.673118 129.837336 
L 207.406293 132.644951 
z
" style="stroke:#000000;"/>
    <path clip-path="url(#p3696e8939b)" d="M 204.673118 224.489218 
L 208.544929 226.218319 
L 207.406293 221.684198 
z
" style="stroke:#000000;"/>
    <path clip-path="url(#p3696e8939b)" d="M 208.544929 128.111911 
L 207.406293 132.644951 
L 210.230745 129.352967 
z
" style="stroke:#000000;"/>
    <path clip-path="url(#p3696e8939b)" d="M 207.406293 221.684198 
L 208.544929 226.218319 
L 210.230745 224.978864 
z
" style="stroke:#000000;"/>
   </g>
  </g>
 </g>
 <defs>
  <clipPath id="p3696e8939b">
   <rect height="271.8" width="279" x="45" y="43.2"/>
  </clipPath>
 </defs>
</svg>
