<?xml version="1.0" encoding="utf-8" standalone="no"?>
<!DOCTYPE svg PUBLIC "-//W3C//DTD SVG 1.1//EN"
  "http://www.w3.org/Graphics/SVG/1.1/DTD/svg11.dtd">
<!-- Created with matplotlib (https://matplotlib.org/) -->
<svg height="360pt" version="1.1" viewBox="0 0 360 360" width="360pt" xmlns="http://www.w3.org/2000/svg" xmlns:xlink="http://www.w3.org/1999/xlink">
 <defs>
  <style type="text/css">
*{stroke-linecap:butt;stroke-linejoin:round;}
  </style>
 </defs>
 <g id="figure_1">
  <g id="patch_1">
   <path d="M 45 315 
L 324 315 
L 324 43.2 
L 45 43.2 
z
" style="fill:#ffffff;"/>
  </g>
  <g id="axes_1">
   <g id="Poly3DCollection_1">
    <path clip-path="url(#pfc83d76487)" d="M 166.449167 220.769038 
L 165.507089 225.173847 
L 164.115037 223.902781 
z
" style="stroke:#000000;"/>
    <path clip-path="url(#pfc83d76487)" d="M 165.507089 129.0849 
L 166.449167 133.49136 
L 164.115037 130.353526 
z
" style="stroke:#000000;"/>
    <path clip-path="url(#pfc83d76487)" d="M 160.89125 130.230526 
L 165.507089 129.0849 
L 164.115037 130.353526 
z
" style="stroke:#000000;"/>
    <path clip-path="url(#pfc83d76487)" d="M 160.89125 224.035064 
L 166.449167 220.769038 
L 164.115037 223.902781 
z
" style="stroke:#000000;"/>
    <path clip-path="url(#pfc83d76487)" d="M 162.284785 225.309696 
L 164.115037 223.902781 
L 165.507089 225.173847 
z
" style="stroke:#000000;"/>
    <path clip-path="url(#pfc83d76487)" d="M 168.716659 223.61065 
L 165.507089 225.173847 
L 166.449167 220.769038 
z
" style="stroke:#000000;"/>
    <path clip-path="url(#pfc83d76487)" d="M 165.507089 129.0849 
L 168.716659 130.653721 
L 166.449167 133.49136 
z
" style="stroke:#000000;"/>
    <path clip-path="url(#pfc83d76487)" d="M 165.507089 225.173847 
L 168.716659 223.61065 
L 166.834346 226.132158 
z
" style="stroke:#000000;"/>
    <path clip-path="url(#pfc83d76487)" d="M 168.716659 130.653721 
L 165.507089 129.0849 
L 166.834346 128.128914 
z
" style="stroke:#000000;"/>
    <path clip-path="url(#pfc83d76487)" d="M 163.22787 133.376785 
L 164.115037 130.353526 
L 166.449167 133.49136 
z
" style="stroke:#000000;"/>
    <path clip-path="url(#pfc83d76487)" d="M 162.284785 128.958348 
L 166.834346 128.128914 
L 165.507089 129.0849 
z
" style="stroke:#000000;"/>
    <path clip-path="url(#pfc83d76487)" d="M 164.115037 223.902781 
L 162.284785 225.309696 
L 160.89125 224.035064 
z
" style="stroke:#000000;"/>
    <path clip-path="url(#pfc83d76487)" d="M 163.613461 226.27072 
L 165.507089 225.173847 
L 166.834346 226.132158 
z
" style="stroke:#000000;"/>
    <path clip-path="url(#pfc83d76487)" d="M 168.716659 223.61065 
L 166.449167 220.769038 
L 169.599438 215.528868 
z
" style="stroke:#000000;"/>
    <path clip-path="url(#pfc83d76487)" d="M 166.449167 133.49136 
L 168.716659 130.653721 
L 169.599438 138.737051 
z
" style="stroke:#000000;"/>
    <path clip-path="url(#pfc83d76487)" d="M 164.115037 130.353526 
L 163.22787 133.376785 
L 160.89125 130.230526 
z
" style="stroke:#000000;"/>
    <path clip-path="url(#pfc83d76487)" d="M 165.507089 129.0849 
L 160.89125 130.230526 
L 162.284785 128.958348 
z
" style="stroke:#000000;"/>
    <path clip-path="url(#pfc83d76487)" d="M 166.449167 220.769038 
L 160.89125 224.035064 
L 163.22787 220.892919 
z
" style="stroke:#000000;"/>
    <path clip-path="url(#pfc83d76487)" d="M 168.716659 223.61065 
L 163.613461 226.27072 
L 166.834346 226.132158 
z
" style="stroke:#000000;"/>
    <path clip-path="url(#pfc83d76487)" d="M 169.599438 138.737051 
L 163.22787 133.376785 
L 166.449167 133.49136 
z
" style="stroke:#000000;"/>
    <path clip-path="url(#pfc83d76487)" d="M 165.507089 225.173847 
L 163.613461 226.27072 
L 162.284785 225.309696 
z
" style="stroke:#000000;"/>
    <path clip-path="url(#pfc83d76487)" d="M 166.834346 128.128914 
L 165.497796 130.53125 
L 168.716659 130.653721 
z
" style="stroke:#000000;"/>
    <path clip-path="url(#pfc83d76487)" d="M 166.834346 128.128914 
L 162.284785 128.958348 
L 163.613461 127.999663 
z
" style="stroke:#000000;"/>
    <path clip-path="url(#pfc83d76487)" d="M 168.716659 223.61065 
L 169.599438 215.528868 
L 172.076172 218.033584 
z
" style="stroke:#000000;"/>
    <path clip-path="url(#pfc83d76487)" d="M 169.599438 138.737051 
L 168.716659 130.653721 
L 172.076172 136.236675 
z
" style="stroke:#000000;"/>
    <path clip-path="url(#pfc83d76487)" d="M 166.449167 220.769038 
L 166.381527 215.63861 
L 169.599438 215.528868 
z
" style="stroke:#000000;"/>
    <path clip-path="url(#pfc83d76487)" d="M 163.22787 133.376785 
L 162.284785 128.958348 
L 160.89125 130.230526 
z
" style="stroke:#000000;"/>
    <path clip-path="url(#pfc83d76487)" d="M 162.284785 225.309696 
L 163.22787 220.892919 
L 160.89125 224.035064 
z
" style="stroke:#000000;"/>
    <path clip-path="url(#pfc83d76487)" d="M 165.497796 130.53125 
L 166.834346 128.128914 
L 163.613461 127.999663 
z
" style="stroke:#000000;"/>
    <path clip-path="url(#pfc83d76487)" d="M 166.381527 215.63861 
L 166.449167 220.769038 
L 163.22787 220.892919 
z
" style="stroke:#000000;"/>
    <path clip-path="url(#pfc83d76487)" d="M 172.076172 218.033584 
L 169.599438 215.528868 
L 172.334062 209.842637 
z
" style="stroke:#000000;"/>
    <path clip-path="url(#pfc83d76487)" d="M 169.599438 138.737051 
L 172.076172 136.236675 
L 172.334062 144.428074 
z
" style="stroke:#000000;"/>
    <path clip-path="url(#pfc83d76487)" d="M 172.076172 218.033584 
L 165.497796 223.742449 
L 168.716659 223.61065 
z
" style="stroke:#000000;"/>
    <path clip-path="url(#pfc83d76487)" d="M 163.613461 226.27072 
L 168.716659 223.61065 
L 165.497796 223.742449 
z
" style="stroke:#000000;"/>
    <path clip-path="url(#pfc83d76487)" d="M 163.22787 133.376785 
L 169.599438 138.737051 
L 166.381527 138.636645 
z
" style="stroke:#000000;"/>
    <path clip-path="url(#pfc83d76487)" d="M 165.497796 130.53125 
L 162.284785 128.958348 
L 163.22787 133.376785 
z
" style="stroke:#000000;"/>
    <path clip-path="url(#pfc83d76487)" d="M 162.284785 225.309696 
L 165.497796 223.742449 
L 163.22787 220.892919 
z
" style="stroke:#000000;"/>
    <path clip-path="url(#pfc83d76487)" d="M 172.334062 144.428074 
L 166.381527 138.636645 
L 169.599438 138.737051 
z
" style="stroke:#000000;"/>
    <path clip-path="url(#pfc83d76487)" d="M 162.284785 128.958348 
L 165.497796 130.53125 
L 163.613461 127.999663 
z
" style="stroke:#000000;"/>
    <path clip-path="url(#pfc83d76487)" d="M 165.497796 223.742449 
L 162.284785 225.309696 
L 163.613461 226.27072 
z
" style="stroke:#000000;"/>
    <path clip-path="url(#pfc83d76487)" d="M 168.716659 130.653721 
L 168.860942 136.12929 
L 172.076172 136.236675 
z
" style="stroke:#000000;"/>
    <path clip-path="url(#pfc83d76487)" d="M 172.076172 218.033584 
L 172.334062 209.842637 
L 174.993014 211.980124 
z
" style="stroke:#000000;"/>
    <path clip-path="url(#pfc83d76487)" d="M 172.334062 144.428074 
L 172.076172 136.236675 
L 174.993014 142.295247 
z
" style="stroke:#000000;"/>
    <path clip-path="url(#pfc83d76487)" d="M 169.599438 215.528868 
L 169.119111 209.936951 
L 172.334062 209.842637 
z
" style="stroke:#000000;"/>
    <path clip-path="url(#pfc83d76487)" d="M 168.860942 136.12929 
L 168.716659 130.653721 
L 165.497796 130.53125 
z
" style="stroke:#000000;"/>
    <path clip-path="url(#pfc83d76487)" d="M 165.497796 130.53125 
L 163.22787 133.376785 
L 166.381527 138.636645 
z
" style="stroke:#000000;"/>
    <path clip-path="url(#pfc83d76487)" d="M 163.22787 220.892919 
L 165.497796 223.742449 
L 166.381527 215.63861 
z
" style="stroke:#000000;"/>
    <path clip-path="url(#pfc83d76487)" d="M 174.993014 211.980124 
L 172.334062 209.842637 
L 174.619411 203.775044 
z
" style="stroke:#000000;"/>
    <path clip-path="url(#pfc83d76487)" d="M 172.334062 144.428074 
L 174.993014 142.295247 
L 174.619411 150.499672 
z
" style="stroke:#000000;"/>
    <path clip-path="url(#pfc83d76487)" d="M 169.119111 209.936951 
L 169.599438 215.528868 
L 166.381527 215.63861 
z
" style="stroke:#000000;"/>
    <path clip-path="url(#pfc83d76487)" d="M 165.497796 223.742449 
L 172.076172 218.033584 
L 168.860942 218.15033 
z
" style="stroke:#000000;"/>
    <path clip-path="url(#pfc83d76487)" d="M 174.993014 211.980124 
L 168.860942 218.15033 
L 172.076172 218.033584 
z
" style="stroke:#000000;"/>
    <path clip-path="url(#pfc83d76487)" d="M 174.619411 150.499672 
L 169.119111 144.343123 
L 172.334062 144.428074 
z
" style="stroke:#000000;"/>
    <path clip-path="url(#pfc83d76487)" d="M 166.381527 138.636645 
L 172.334062 144.428074 
L 169.119111 144.343123 
z
" style="stroke:#000000;"/>
    <path clip-path="url(#pfc83d76487)" d="M 165.497796 130.53125 
L 166.381527 138.636645 
L 168.860942 136.12929 
z
" style="stroke:#000000;"/>
    <path clip-path="url(#pfc83d76487)" d="M 166.381527 215.63861 
L 165.497796 223.742449 
L 168.860942 218.15033 
z
" style="stroke:#000000;"/>
    <path clip-path="url(#pfc83d76487)" d="M 172.334062 209.842637 
L 171.406952 203.852822 
L 174.619411 203.775044 
z
" style="stroke:#000000;"/>
    <path clip-path="url(#pfc83d76487)" d="M 174.619411 203.775044 
L 177.431081 205.518569 
L 174.993014 211.980124 
z
" style="stroke:#000000;"/>
    <path clip-path="url(#pfc83d76487)" d="M 177.431081 148.761076 
L 174.619411 150.499672 
L 174.993014 142.295247 
z
" style="stroke:#000000;"/>
    <path clip-path="url(#pfc83d76487)" d="M 172.076172 136.236675 
L 171.780964 142.204327 
L 174.993014 142.295247 
z
" style="stroke:#000000;"/>
    <path clip-path="url(#pfc83d76487)" d="M 177.431081 205.518569 
L 174.619411 203.775044 
L 176.427195 197.395598 
z
" style="stroke:#000000;"/>
    <path clip-path="url(#pfc83d76487)" d="M 174.619411 150.499672 
L 177.431081 148.761076 
L 176.427195 156.882287 
z
" style="stroke:#000000;"/>
    <path clip-path="url(#pfc83d76487)" d="M 171.780964 142.204327 
L 172.076172 136.236675 
L 168.860942 136.12929 
z
" style="stroke:#000000;"/>
    <path clip-path="url(#pfc83d76487)" d="M 171.406952 203.852822 
L 172.334062 209.842637 
L 169.119111 209.936951 
z
" style="stroke:#000000;"/>
    <path clip-path="url(#pfc83d76487)" d="M 168.860942 136.12929 
L 166.381527 138.636645 
L 169.119111 144.343123 
z
" style="stroke:#000000;"/>
    <path clip-path="url(#pfc83d76487)" d="M 166.381527 215.63861 
L 168.860942 218.15033 
L 169.119111 209.936951 
z
" style="stroke:#000000;"/>
    <path clip-path="url(#pfc83d76487)" d="M 176.427195 156.882287 
L 171.406952 150.43128 
L 174.619411 150.499672 
z
" style="stroke:#000000;"/>
    <path clip-path="url(#pfc83d76487)" d="M 169.119111 144.343123 
L 174.619411 150.499672 
L 171.406952 150.43128 
z
" style="stroke:#000000;"/>
    <path clip-path="url(#pfc83d76487)" d="M 168.860942 218.15033 
L 174.993014 211.980124 
L 171.780964 212.080433 
z
" style="stroke:#000000;"/>
    <path clip-path="url(#pfc83d76487)" d="M 177.431081 205.518569 
L 171.780964 212.080433 
L 174.993014 211.980124 
z
" style="stroke:#000000;"/>
    <path clip-path="url(#pfc83d76487)" d="M 174.619411 203.775044 
L 173.216717 197.455928 
L 176.427195 197.395598 
z
" style="stroke:#000000;"/>
    <path clip-path="url(#pfc83d76487)" d="M 176.427195 197.395598 
L 179.359904 198.723481 
L 177.431081 205.518569 
z
" style="stroke:#000000;"/>
    <path clip-path="url(#pfc83d76487)" d="M 179.359904 155.559544 
L 176.427195 156.882287 
L 177.431081 148.761076 
z
" style="stroke:#000000;"/>
    <path clip-path="url(#pfc83d76487)" d="M 179.359904 198.723481 
L 176.427195 197.395598 
L 177.734888 190.778207 
z
" style="stroke:#000000;"/>
    <path clip-path="url(#pfc83d76487)" d="M 176.427195 156.882287 
L 179.359904 155.559544 
L 177.734888 163.50197 
z
" style="stroke:#000000;"/>
    <path clip-path="url(#pfc83d76487)" d="M 174.993014 142.295247 
L 174.221707 148.687808 
L 177.431081 148.761076 
z
" style="stroke:#000000;"/>
    <path clip-path="url(#pfc83d76487)" d="M 168.860942 136.12929 
L 169.119111 144.343123 
L 171.780964 142.204327 
z
" style="stroke:#000000;"/>
    <path clip-path="url(#pfc83d76487)" d="M 169.119111 209.936951 
L 168.860942 218.15033 
L 171.780964 212.080433 
z
" style="stroke:#000000;"/>
    <path clip-path="url(#pfc83d76487)" d="M 177.734888 163.50197 
L 173.216717 156.831359 
L 176.427195 156.882287 
z
" style="stroke:#000000;"/>
    <path clip-path="url(#pfc83d76487)" d="M 173.216717 197.455928 
L 174.619411 203.775044 
L 171.406952 203.852822 
z
" style="stroke:#000000;"/>
    <path clip-path="url(#pfc83d76487)" d="M 180.755315 191.673796 
L 177.734888 190.778207 
L 178.526117 184.000187 
z
" style="stroke:#000000;"/>
    <path clip-path="url(#pfc83d76487)" d="M 177.734888 163.50197 
L 180.755315 162.611674 
L 178.526117 170.281377 
z
" style="stroke:#000000;"/>
    <path clip-path="url(#pfc83d76487)" d="M 176.427195 197.395598 
L 174.525849 190.820392 
L 177.734888 190.778207 
z
" style="stroke:#000000;"/>
    <path clip-path="url(#pfc83d76487)" d="M 177.734888 190.778207 
L 180.755315 191.673796 
L 179.359904 198.723481 
z
" style="stroke:#000000;"/>
    <path clip-path="url(#pfc83d76487)" d="M 180.755315 162.611674 
L 177.734888 163.50197 
L 179.359904 155.559544 
z
" style="stroke:#000000;"/>
    <path clip-path="url(#pfc83d76487)" d="M 171.780964 142.204327 
L 169.119111 144.343123 
L 171.406952 150.43128 
z
" style="stroke:#000000;"/>
    <path clip-path="url(#pfc83d76487)" d="M 169.119111 209.936951 
L 171.780964 212.080433 
L 171.406952 203.852822 
z
" style="stroke:#000000;"/>
    <path clip-path="url(#pfc83d76487)" d="M 174.221707 148.687808 
L 174.993014 142.295247 
L 171.780964 142.204327 
z
" style="stroke:#000000;"/>
    <path clip-path="url(#pfc83d76487)" d="M 171.406952 150.43128 
L 176.427195 156.882287 
L 173.216717 156.831359 
z
" style="stroke:#000000;"/>
    <path clip-path="url(#pfc83d76487)" d="M 178.526117 170.281377 
L 181.599691 169.834775 
L 178.790983 177.141014 
z
" style="stroke:#000000;"/>
    <path clip-path="url(#pfc83d76487)" d="M 181.599691 184.452175 
L 178.526117 184.000187 
L 178.790983 177.141014 
z
" style="stroke:#000000;"/>
    <path clip-path="url(#pfc83d76487)" d="M 178.526117 170.281377 
L 174.525849 163.4692 
L 177.734888 163.50197 
z
" style="stroke:#000000;"/>
    <path clip-path="url(#pfc83d76487)" d="M 179.359904 198.723481 
L 174.221707 205.601249 
L 177.431081 205.518569 
z
" style="stroke:#000000;"/>
    <path clip-path="url(#pfc83d76487)" d="M 177.734888 190.778207 
L 175.31795 184.023756 
L 178.526117 184.000187 
z
" style="stroke:#000000;"/>
    <path clip-path="url(#pfc83d76487)" d="M 171.780964 212.080433 
L 177.431081 205.518569 
L 174.221707 205.601249 
z
" style="stroke:#000000;"/>
    <path clip-path="url(#pfc83d76487)" d="M 178.526117 184.000187 
L 181.599691 184.452175 
L 180.755315 191.673796 
z
" style="stroke:#000000;"/>
    <path clip-path="url(#pfc83d76487)" d="M 181.599691 169.834775 
L 178.526117 170.281377 
L 180.755315 162.611674 
z
" style="stroke:#000000;"/>
    <path clip-path="url(#pfc83d76487)" d="M 178.790983 177.141014 
L 175.31795 170.26723 
L 178.526117 170.281377 
z
" style="stroke:#000000;"/>
    <path clip-path="url(#pfc83d76487)" d="M 174.525849 190.820392 
L 176.427195 197.395598 
L 173.216717 197.455928 
z
" style="stroke:#000000;"/>
    <path clip-path="url(#pfc83d76487)" d="M 178.526117 184.000187 
L 175.583109 177.145727 
L 178.790983 177.141014 
z
" style="stroke:#000000;"/>
    <path clip-path="url(#pfc83d76487)" d="M 177.431081 148.761076 
L 176.152659 155.504901 
L 179.359904 155.559544 
z
" style="stroke:#000000;"/>
    <path clip-path="url(#pfc83d76487)" d="M 178.790983 177.141014 
L 181.882337 177.143723 
L 181.599691 184.452175 
z
" style="stroke:#000000;"/>
    <path clip-path="url(#pfc83d76487)" d="M 181.882337 177.143723 
L 178.790983 177.141014 
L 181.599691 169.834775 
z
" style="stroke:#000000;"/>
    <path clip-path="url(#pfc83d76487)" d="M 173.216717 156.831359 
L 177.734888 163.50197 
L 174.525849 163.4692 
z
" style="stroke:#000000;"/>
    <path clip-path="url(#pfc83d76487)" d="M 171.406952 150.43128 
L 174.221707 148.687808 
L 171.780964 142.204327 
z
" style="stroke:#000000;"/>
    <path clip-path="url(#pfc83d76487)" d="M 174.221707 205.601249 
L 171.406952 203.852822 
L 171.780964 212.080433 
z
" style="stroke:#000000;"/>
    <path clip-path="url(#pfc83d76487)" d="M 174.221707 148.687808 
L 171.406952 150.43128 
L 173.216717 156.831359 
z
" style="stroke:#000000;"/>
    <path clip-path="url(#pfc83d76487)" d="M 171.406952 203.852822 
L 174.221707 205.601249 
L 173.216717 197.455928 
z
" style="stroke:#000000;"/>
    <path clip-path="url(#pfc83d76487)" d="M 175.31795 184.023756 
L 177.734888 190.778207 
L 174.525849 190.820392 
z
" style="stroke:#000000;"/>
    <path clip-path="url(#pfc83d76487)" d="M 180.755315 191.673796 
L 176.152659 198.787554 
L 179.359904 198.723481 
z
" style="stroke:#000000;"/>
    <path clip-path="url(#pfc83d76487)" d="M 176.152659 155.504901 
L 177.431081 148.761076 
L 174.221707 148.687808 
z
" style="stroke:#000000;"/>
    <path clip-path="url(#pfc83d76487)" d="M 186.019376 146.312815 
L 178.276705 132.467223 
L 180.850801 133.284345 
z
" style="stroke:#000000;"/>
    <path clip-path="url(#pfc83d76487)" d="M 186.019376 125.28927 
L 180.850801 133.284345 
L 178.276705 132.467223 
z
" style="stroke:#000000;"/>
    <path clip-path="url(#pfc83d76487)" d="M 174.525849 163.4692 
L 178.526117 170.281377 
L 175.31795 170.26723 
z
" style="stroke:#000000;"/>
    <path clip-path="url(#pfc83d76487)" d="M 179.359904 155.559544 
L 177.549616 162.576402 
L 180.755315 162.611674 
z
" style="stroke:#000000;"/>
    <path clip-path="url(#pfc83d76487)" d="M 175.583109 177.145727 
L 178.526117 184.000187 
L 175.31795 184.023756 
z
" style="stroke:#000000;"/>
    <path clip-path="url(#pfc83d76487)" d="M 175.31795 170.26723 
L 178.790983 177.141014 
L 175.583109 177.145727 
z
" style="stroke:#000000;"/>
    <path clip-path="url(#pfc83d76487)" d="M 174.221707 205.601249 
L 179.359904 198.723481 
L 176.152659 198.787554 
z
" style="stroke:#000000;"/>
    <path clip-path="url(#pfc83d76487)" d="M 175.068263 132.349134 
L 186.019376 125.28927 
L 178.276705 132.467223 
z
" style="stroke:#000000;"/>
    <path clip-path="url(#pfc83d76487)" d="M 186.019376 153.320664 
L 175.068263 132.349134 
L 178.276705 132.467223 
z
" style="stroke:#000000;"/>
    <path clip-path="url(#pfc83d76487)" d="M 181.599691 184.452175 
L 177.549616 191.718513 
L 180.755315 191.673796 
z
" style="stroke:#000000;"/>
    <path clip-path="url(#pfc83d76487)" d="M 173.216717 156.831359 
L 176.152659 155.504901 
L 174.221707 148.687808 
z
" style="stroke:#000000;"/>
    <path clip-path="url(#pfc83d76487)" d="M 176.152659 198.787554 
L 173.216717 197.455928 
L 174.221707 205.601249 
z
" style="stroke:#000000;"/>
    <path clip-path="url(#pfc83d76487)" d="M 180.755315 162.611674 
L 178.394932 169.819377 
L 181.599691 169.834775 
z
" style="stroke:#000000;"/>
    <path clip-path="url(#pfc83d76487)" d="M 176.152659 155.504901 
L 173.216717 156.831359 
L 174.525849 163.4692 
z
" style="stroke:#000000;"/>
    <path clip-path="url(#pfc83d76487)" d="M 173.216717 197.455928 
L 176.152659 198.787554 
L 174.525849 190.820392 
z
" style="stroke:#000000;"/>
    <path clip-path="url(#pfc83d76487)" d="M 177.549616 162.576402 
L 179.359904 155.559544 
L 176.152659 155.504901 
z
" style="stroke:#000000;"/>
    <path clip-path="url(#pfc83d76487)" d="M 178.276705 132.467223 
L 186.019376 146.312815 
L 186.019376 153.320664 
z
" style="stroke:#000000;"/>
    <path clip-path="url(#pfc83d76487)" d="M 181.882337 177.143723 
L 178.394932 184.477026 
L 181.599691 184.452175 
z
" style="stroke:#000000;"/>
    <path clip-path="url(#pfc83d76487)" d="M 181.599691 169.834775 
L 178.677892 177.14845 
L 181.882337 177.143723 
z
" style="stroke:#000000;"/>
    <path clip-path="url(#pfc83d76487)" d="M 176.152659 198.787554 
L 180.755315 191.673796 
L 177.549616 191.718513 
z
" style="stroke:#000000;"/>
    <path clip-path="url(#pfc83d76487)" d="M 180.850801 133.284345 
L 186.019376 125.28927 
L 186.019376 128.793194 
z
" style="stroke:#000000;"/>
    <path clip-path="url(#pfc83d76487)" d="M 177.549616 162.576402 
L 174.525849 163.4692 
L 175.31795 170.26723 
z
" style="stroke:#000000;"/>
    <path clip-path="url(#pfc83d76487)" d="M 174.525849 190.820392 
L 177.549616 191.718513 
L 175.31795 184.023756 
z
" style="stroke:#000000;"/>
    <path clip-path="url(#pfc83d76487)" d="M 178.394932 169.819377 
L 180.755315 162.611674 
L 177.549616 162.576402 
z
" style="stroke:#000000;"/>
    <path clip-path="url(#pfc83d76487)" d="M 174.525849 163.4692 
L 177.549616 162.576402 
L 176.152659 155.504901 
z
" style="stroke:#000000;"/>
    <path clip-path="url(#pfc83d76487)" d="M 177.549616 191.718513 
L 174.525849 190.820392 
L 176.152659 198.787554 
z
" style="stroke:#000000;"/>
    <path clip-path="url(#pfc83d76487)" d="M 177.549616 191.718513 
L 181.599691 184.452175 
L 178.394932 184.477026 
z
" style="stroke:#000000;"/>
    <path clip-path="url(#pfc83d76487)" d="M 175.31795 184.023756 
L 178.394932 184.477026 
L 175.583109 177.145727 
z
" style="stroke:#000000;"/>
    <path clip-path="url(#pfc83d76487)" d="M 178.394932 169.819377 
L 175.31795 170.26723 
L 175.583109 177.145727 
z
" style="stroke:#000000;"/>
    <path clip-path="url(#pfc83d76487)" d="M 178.677892 177.14845 
L 181.599691 169.834775 
L 178.394932 169.819377 
z
" style="stroke:#000000;"/>
    <path clip-path="url(#pfc83d76487)" d="M 178.394932 184.477026 
L 181.882337 177.143723 
L 178.677892 177.14845 
z
" style="stroke:#000000;"/>
    <path clip-path="url(#pfc83d76487)" d="M 175.31795 170.26723 
L 178.394932 169.819377 
L 177.549616 162.576402 
z
" style="stroke:#000000;"/>
    <path clip-path="url(#pfc83d76487)" d="M 178.394932 184.477026 
L 175.31795 184.023756 
L 177.549616 191.718513 
z
" style="stroke:#000000;"/>
    <path clip-path="url(#pfc83d76487)" d="M 182.819562 128.664497 
L 180.850801 133.284345 
L 186.019376 128.793194 
z
" style="stroke:#000000;"/>
    <path clip-path="url(#pfc83d76487)" d="M 180.850801 133.284345 
L 182.819562 146.232468 
L 186.019376 146.312815 
z
" style="stroke:#000000;"/>
    <path clip-path="url(#pfc83d76487)" d="M 175.583109 177.145727 
L 178.677892 177.14845 
L 178.394932 169.819377 
z
" style="stroke:#000000;"/>
    <path clip-path="url(#pfc83d76487)" d="M 178.677892 177.14845 
L 175.583109 177.145727 
L 178.394932 184.477026 
z
" style="stroke:#000000;"/>
    <path clip-path="url(#pfc83d76487)" d="M 180.850801 133.284345 
L 182.819562 128.664497 
L 177.645208 133.16835 
z
" style="stroke:#000000;"/>
    <path clip-path="url(#pfc83d76487)" d="M 182.819562 146.232468 
L 180.850801 133.284345 
L 177.645208 133.16835 
z
" style="stroke:#000000;"/>
    <path clip-path="url(#pfc83d76487)" d="M 186.019376 125.28927 
L 175.068263 132.349134 
L 182.819562 125.150903 
z
" style="stroke:#000000;"/>
    <path clip-path="url(#pfc83d76487)" d="M 175.068263 132.349134 
L 186.019376 153.320664 
L 182.819562 153.259656 
z
" style="stroke:#000000;"/>
    <path clip-path="url(#pfc83d76487)" d="M 177.645208 133.16835 
L 182.819562 125.150903 
L 175.068263 132.349134 
z
" style="stroke:#000000;"/>
    <path clip-path="url(#pfc83d76487)" d="M 175.068263 132.349134 
L 182.819562 146.232468 
L 177.645208 133.16835 
z
" style="stroke:#000000;"/>
    <path clip-path="url(#pfc83d76487)" d="M 186.019376 125.28927 
L 191.215311 133.061265 
L 186.019376 128.793194 
z
" style="stroke:#000000;"/>
    <path clip-path="url(#pfc83d76487)" d="M 186.019376 146.312815 
L 193.823606 132.125662 
L 186.019376 153.320664 
z
" style="stroke:#000000;"/>
    <path clip-path="url(#pfc83d76487)" d="M 182.819562 146.232468 
L 175.068263 132.349134 
L 182.819562 153.259656 
z
" style="stroke:#000000;"/>
    <path clip-path="url(#pfc83d76487)" d="M 182.819562 125.150903 
L 177.645208 133.16835 
L 182.819562 128.664497 
z
" style="stroke:#000000;"/>
    <path clip-path="url(#pfc83d76487)" d="M 193.823606 132.125662 
L 186.019376 146.312815 
L 191.215311 133.061265 
z
" style="stroke:#000000;"/>
    <path clip-path="url(#pfc83d76487)" d="M 191.215311 133.061265 
L 186.019376 125.28927 
L 193.823606 132.125662 
z
" style="stroke:#000000;"/>
    <path clip-path="url(#pfc83d76487)" d="M 182.819562 125.150903 
L 193.823606 132.125662 
L 186.019376 125.28927 
z
" style="stroke:#000000;"/>
    <path clip-path="url(#pfc83d76487)" d="M 193.823606 132.125662 
L 182.819562 153.259656 
L 186.019376 153.320664 
z
" style="stroke:#000000;"/>
    <path clip-path="url(#pfc83d76487)" d="M 188.021382 132.944036 
L 186.019376 128.793194 
L 191.215311 133.061265 
z
" style="stroke:#000000;"/>
    <path clip-path="url(#pfc83d76487)" d="M 186.019376 146.312815 
L 188.021382 132.944036 
L 191.215311 133.061265 
z
" style="stroke:#000000;"/>
    <path clip-path="url(#pfc83d76487)" d="M 190.173924 177.150989 
L 193.301394 177.153729 
L 190.45905 184.492996 
z
" style="stroke:#000000;"/>
    <path clip-path="url(#pfc83d76487)" d="M 193.301394 177.153729 
L 190.173924 177.150989 
L 190.45905 169.809481 
z
" style="stroke:#000000;"/>
    <path clip-path="url(#pfc83d76487)" d="M 186.019376 128.793194 
L 188.021382 132.944036 
L 182.819562 128.664497 
z
" style="stroke:#000000;"/>
    <path clip-path="url(#pfc83d76487)" d="M 188.021382 132.944036 
L 186.019376 146.312815 
L 182.819562 146.232468 
z
" style="stroke:#000000;"/>
    <path clip-path="url(#pfc83d76487)" d="M 190.45905 184.492996 
L 193.570278 184.066137 
L 191.311819 191.761395 
z
" style="stroke:#000000;"/>
    <path clip-path="url(#pfc83d76487)" d="M 193.570278 170.241793 
L 190.45905 169.809481 
L 191.311819 162.542576 
z
" style="stroke:#000000;"/>
    <path clip-path="url(#pfc83d76487)" d="M 190.45905 184.492996 
L 186.97881 177.155757 
L 190.173924 177.150989 
z
" style="stroke:#000000;"/>
    <path clip-path="url(#pfc83d76487)" d="M 190.173924 177.150989 
L 187.264261 169.793943 
L 190.45905 169.809481 
z
" style="stroke:#000000;"/>
    <path clip-path="url(#pfc83d76487)" d="M 190.45905 169.809481 
L 193.570278 170.241793 
L 193.301394 177.153729 
z
" style="stroke:#000000;"/>
    <path clip-path="url(#pfc83d76487)" d="M 193.570278 184.066137 
L 190.45905 184.492996 
L 193.301394 177.153729 
z
" style="stroke:#000000;"/>
    <path clip-path="url(#pfc83d76487)" d="M 191.311819 191.761395 
L 187.264261 184.518073 
L 190.45905 184.492996 
z
" style="stroke:#000000;"/>
    <path clip-path="url(#pfc83d76487)" d="M 191.311819 191.761395 
L 194.374379 190.908873 
L 192.724337 198.882614 
z
" style="stroke:#000000;"/>
    <path clip-path="url(#pfc83d76487)" d="M 194.374379 163.400466 
L 191.311819 162.542576 
L 192.724337 155.423833 
z
" style="stroke:#000000;"/>
    <path clip-path="url(#pfc83d76487)" d="M 190.45905 169.809481 
L 188.118001 162.506923 
L 191.311819 162.542576 
z
" style="stroke:#000000;"/>
    <path clip-path="url(#pfc83d76487)" d="M 194.374379 190.908873 
L 191.311819 191.761395 
L 193.570278 184.066137 
z
" style="stroke:#000000;"/>
    <path clip-path="url(#pfc83d76487)" d="M 191.311819 162.542576 
L 194.374379 163.400466 
L 193.570278 170.241793 
z
" style="stroke:#000000;"/>
    <path clip-path="url(#pfc83d76487)" d="M 182.819562 125.150903 
L 182.819562 128.664497 
L 188.021382 132.944036 
z
" style="stroke:#000000;"/>
    <path clip-path="url(#pfc83d76487)" d="M 192.724337 198.882614 
L 188.118001 191.806596 
L 191.311819 191.761395 
z
" style="stroke:#000000;"/>
    <path clip-path="url(#pfc83d76487)" d="M 187.264261 169.793943 
L 190.173924 177.150989 
L 186.97881 177.155757 
z
" style="stroke:#000000;"/>
    <path clip-path="url(#pfc83d76487)" d="M 186.97881 177.155757 
L 190.45905 184.492996 
L 187.264261 184.518073 
z
" style="stroke:#000000;"/>
    <path clip-path="url(#pfc83d76487)" d="M 182.819562 146.232468 
L 182.819562 153.259656 
L 190.63266 132.005685 
z
" style="stroke:#000000;"/>
    <path clip-path="url(#pfc83d76487)" d="M 191.311819 162.542576 
L 189.532132 155.36844 
L 192.724337 155.423833 
z
" style="stroke:#000000;"/>
    <path clip-path="url(#pfc83d76487)" d="M 195.706218 197.612398 
L 192.724337 198.882614 
L 194.374379 190.908873 
z
" style="stroke:#000000;"/>
    <path clip-path="url(#pfc83d76487)" d="M 192.724337 155.423833 
L 195.706218 156.699276 
L 194.374379 163.400466 
z
" style="stroke:#000000;"/>
    <path clip-path="url(#pfc83d76487)" d="M 192.724337 198.882614 
L 195.706218 197.612398 
L 194.683476 205.784178 
z
" style="stroke:#000000;"/>
    <path clip-path="url(#pfc83d76487)" d="M 195.706218 156.699276 
L 192.724337 155.423833 
L 194.683476 148.525703 
z
" style="stroke:#000000;"/>
    <path clip-path="url(#pfc83d76487)" d="M 188.118001 162.506923 
L 190.45905 169.809481 
L 187.264261 169.793943 
z
" style="stroke:#000000;"/>
    <path clip-path="url(#pfc83d76487)" d="M 187.264261 184.518073 
L 191.311819 191.761395 
L 188.118001 191.806596 
z
" style="stroke:#000000;"/>
    <path clip-path="url(#pfc83d76487)" d="M 193.823606 132.125662 
L 182.819562 125.150903 
L 190.63266 132.005685 
z
" style="stroke:#000000;"/>
    <path clip-path="url(#pfc83d76487)" d="M 182.819562 153.259656 
L 193.823606 132.125662 
L 190.63266 132.005685 
z
" style="stroke:#000000;"/>
    <path clip-path="url(#pfc83d76487)" d="M 194.683476 205.784178 
L 189.532132 198.947567 
L 192.724337 198.882614 
z
" style="stroke:#000000;"/>
    <path clip-path="url(#pfc83d76487)" d="M 193.570278 170.241793 
L 190.109849 177.158512 
L 193.301394 177.153729 
z
" style="stroke:#000000;"/>
    <path clip-path="url(#pfc83d76487)" d="M 193.301394 177.153729 
L 190.379041 184.090071 
L 193.570278 184.066137 
z
" style="stroke:#000000;"/>
    <path clip-path="url(#pfc83d76487)" d="M 189.532132 155.36844 
L 191.311819 162.542576 
L 188.118001 162.506923 
z
" style="stroke:#000000;"/>
    <path clip-path="url(#pfc83d76487)" d="M 194.374379 163.400466 
L 190.379041 170.227428 
L 193.570278 170.241793 
z
" style="stroke:#000000;"/>
    <path clip-path="url(#pfc83d76487)" d="M 182.819562 125.150903 
L 188.021382 132.944036 
L 190.63266 132.005685 
z
" style="stroke:#000000;"/>
    <path clip-path="url(#pfc83d76487)" d="M 182.819562 146.232468 
L 190.63266 132.005685 
L 188.021382 132.944036 
z
" style="stroke:#000000;"/>
    <path clip-path="url(#pfc83d76487)" d="M 192.724337 155.423833 
L 191.493518 148.451134 
L 194.683476 148.525703 
z
" style="stroke:#000000;"/>
    <path clip-path="url(#pfc83d76487)" d="M 188.118001 191.806596 
L 192.724337 198.882614 
L 189.532132 198.947567 
z
" style="stroke:#000000;"/>
    <path clip-path="url(#pfc83d76487)" d="M 193.570278 184.066137 
L 191.184066 190.951781 
L 194.374379 190.908873 
z
" style="stroke:#000000;"/>
    <path clip-path="url(#pfc83d76487)" d="M 197.553295 204.108145 
L 194.683476 205.784178 
L 195.706218 197.612398 
z
" style="stroke:#000000;"/>
    <path clip-path="url(#pfc83d76487)" d="M 194.683476 148.525703 
L 197.553295 150.206766 
L 195.706218 156.699276 
z
" style="stroke:#000000;"/>
    <path clip-path="url(#pfc83d76487)" d="M 194.683476 205.784178 
L 197.553295 204.108145 
L 197.171007 212.395401 
z
" style="stroke:#000000;"/>
    <path clip-path="url(#pfc83d76487)" d="M 197.553295 150.206766 
L 194.683476 148.525703 
L 197.171007 141.918839 
z
" style="stroke:#000000;"/>
    <path clip-path="url(#pfc83d76487)" d="M 195.706218 156.699276 
L 191.184066 163.367135 
L 194.374379 163.400466 
z
" style="stroke:#000000;"/>
    <path clip-path="url(#pfc83d76487)" d="M 186.97881 177.155757 
L 190.109849 177.158512 
L 187.264261 169.793943 
z
" style="stroke:#000000;"/>
    <path clip-path="url(#pfc83d76487)" d="M 190.109849 177.158512 
L 186.97881 177.155757 
L 187.264261 184.518073 
z
" style="stroke:#000000;"/>
    <path clip-path="url(#pfc83d76487)" d="M 191.493518 148.451134 
L 192.724337 155.423833 
L 189.532132 155.36844 
z
" style="stroke:#000000;"/>
    <path clip-path="url(#pfc83d76487)" d="M 190.379041 184.090071 
L 193.301394 177.153729 
L 190.109849 177.158512 
z
" style="stroke:#000000;"/>
    <path clip-path="url(#pfc83d76487)" d="M 194.374379 190.908873 
L 192.517437 197.673927 
L 195.706218 197.612398 
z
" style="stroke:#000000;"/>
    <path clip-path="url(#pfc83d76487)" d="M 190.109849 177.158512 
L 193.570278 170.241793 
L 190.379041 170.227428 
z
" style="stroke:#000000;"/>
    <path clip-path="url(#pfc83d76487)" d="M 187.264261 169.793943 
L 190.379041 170.227428 
L 188.118001 162.506923 
z
" style="stroke:#000000;"/>
    <path clip-path="url(#pfc83d76487)" d="M 190.379041 184.090071 
L 187.264261 184.518073 
L 188.118001 191.806596 
z
" style="stroke:#000000;"/>
    <path clip-path="url(#pfc83d76487)" d="M 197.171007 212.395401 
L 191.493518 205.868327 
L 194.683476 205.784178 
z
" style="stroke:#000000;"/>
    <path clip-path="url(#pfc83d76487)" d="M 191.184066 190.951781 
L 193.570278 184.066137 
L 190.379041 184.090071 
z
" style="stroke:#000000;"/>
    <path clip-path="url(#pfc83d76487)" d="M 189.532132 198.947567 
L 194.683476 205.784178 
L 191.493518 205.868327 
z
" style="stroke:#000000;"/>
    <path clip-path="url(#pfc83d76487)" d="M 190.379041 170.227428 
L 194.374379 163.400466 
L 191.184066 163.367135 
z
" style="stroke:#000000;"/>
    <path clip-path="url(#pfc83d76487)" d="M 187.264261 184.518073 
L 190.379041 184.090071 
L 190.109849 177.158512 
z
" style="stroke:#000000;"/>
    <path clip-path="url(#pfc83d76487)" d="M 190.379041 170.227428 
L 187.264261 169.793943 
L 190.109849 177.158512 
z
" style="stroke:#000000;"/>
    <path clip-path="url(#pfc83d76487)" d="M 197.553295 150.206766 
L 192.517437 156.647336 
L 195.706218 156.699276 
z
" style="stroke:#000000;"/>
    <path clip-path="url(#pfc83d76487)" d="M 194.683476 148.525703 
L 193.983917 141.825839 
L 197.171007 141.918839 
z
" style="stroke:#000000;"/>
    <path clip-path="url(#pfc83d76487)" d="M 199.898191 210.32925 
L 197.171007 212.395401 
L 197.553295 204.108145 
z
" style="stroke:#000000;"/>
    <path clip-path="url(#pfc83d76487)" d="M 197.171007 141.918839 
L 199.898191 143.989771 
L 197.553295 150.206766 
z
" style="stroke:#000000;"/>
    <path clip-path="url(#pfc83d76487)" d="M 188.118001 162.506923 
L 191.184066 163.367135 
L 189.532132 155.36844 
z
" style="stroke:#000000;"/>
    <path clip-path="url(#pfc83d76487)" d="M 191.184066 190.951781 
L 188.118001 191.806596 
L 189.532132 198.947567 
z
" style="stroke:#000000;"/>
    <path clip-path="url(#pfc83d76487)" d="M 192.517437 197.673927 
L 194.374379 190.908873 
L 191.184066 190.951781 
z
" style="stroke:#000000;"/>
    <path clip-path="url(#pfc83d76487)" d="M 191.184066 163.367135 
L 188.118001 162.506923 
L 190.379041 170.227428 
z
" style="stroke:#000000;"/>
    <path clip-path="url(#pfc83d76487)" d="M 188.118001 191.806596 
L 191.184066 190.951781 
L 190.379041 184.090071 
z
" style="stroke:#000000;"/>
    <path clip-path="url(#pfc83d76487)" d="M 195.706218 197.612398 
L 194.366648 204.187763 
L 197.553295 204.108145 
z
" style="stroke:#000000;"/>
    <path clip-path="url(#pfc83d76487)" d="M 191.184066 163.367135 
L 195.706218 156.699276 
L 192.517437 156.647336 
z
" style="stroke:#000000;"/>
    <path clip-path="url(#pfc83d76487)" d="M 197.171007 212.395401 
L 199.898191 210.32925 
L 200.163495 218.647527 
z
" style="stroke:#000000;"/>
    <path clip-path="url(#pfc83d76487)" d="M 199.898191 143.989771 
L 197.171007 141.918839 
L 200.163495 135.671958 
z
" style="stroke:#000000;"/>
    <path clip-path="url(#pfc83d76487)" d="M 193.983917 141.825839 
L 194.683476 148.525703 
L 191.493518 148.451134 
z
" style="stroke:#000000;"/>
    <path clip-path="url(#pfc83d76487)" d="M 192.517437 156.647336 
L 189.532132 155.36844 
L 191.184066 163.367135 
z
" style="stroke:#000000;"/>
    <path clip-path="url(#pfc83d76487)" d="M 189.532132 198.947567 
L 192.517437 197.673927 
L 191.184066 190.951781 
z
" style="stroke:#000000;"/>
    <path clip-path="url(#pfc83d76487)" d="M 189.532132 155.36844 
L 192.517437 156.647336 
L 191.493518 148.451134 
z
" style="stroke:#000000;"/>
    <path clip-path="url(#pfc83d76487)" d="M 192.517437 197.673927 
L 189.532132 198.947567 
L 191.493518 205.868327 
z
" style="stroke:#000000;"/>
    <path clip-path="url(#pfc83d76487)" d="M 194.366648 204.187763 
L 195.706218 197.612398 
L 192.517437 197.673927 
z
" style="stroke:#000000;"/>
    <path clip-path="url(#pfc83d76487)" d="M 191.493518 205.868327 
L 197.171007 212.395401 
L 193.983917 212.498006 
z
" style="stroke:#000000;"/>
    <path clip-path="url(#pfc83d76487)" d="M 200.163495 218.647527 
L 193.983917 212.498006 
L 197.171007 212.395401 
z
" style="stroke:#000000;"/>
    <path clip-path="url(#pfc83d76487)" d="M 199.898191 143.989771 
L 194.366648 150.136755 
L 197.553295 150.206766 
z
" style="stroke:#000000;"/>
    <path clip-path="url(#pfc83d76487)" d="M 192.517437 156.647336 
L 197.553295 150.206766 
L 194.366648 150.136755 
z
" style="stroke:#000000;"/>
    <path clip-path="url(#pfc83d76487)" d="M 200.163495 218.647527 
L 199.898191 210.32925 
L 202.718661 216.211109 
z
" style="stroke:#000000;"/>
    <path clip-path="url(#pfc83d76487)" d="M 199.898191 143.989771 
L 200.163495 135.671958 
L 202.718661 138.112855 
z
" style="stroke:#000000;"/>
    <path clip-path="url(#pfc83d76487)" d="M 197.553295 204.108145 
L 196.714266 210.426254 
L 199.898191 210.32925 
z
" style="stroke:#000000;"/>
    <path clip-path="url(#pfc83d76487)" d="M 197.171007 141.918839 
L 196.979879 135.561452 
L 200.163495 135.671958 
z
" style="stroke:#000000;"/>
    <path clip-path="url(#pfc83d76487)" d="M 194.366648 150.136755 
L 191.493518 148.451134 
L 192.517437 156.647336 
z
" style="stroke:#000000;"/>
    <path clip-path="url(#pfc83d76487)" d="M 191.493518 205.868327 
L 194.366648 204.187763 
L 192.517437 197.673927 
z
" style="stroke:#000000;"/>
    <path clip-path="url(#pfc83d76487)" d="M 196.979879 135.561452 
L 197.171007 141.918839 
L 193.983917 141.825839 
z
" style="stroke:#000000;"/>
    <path clip-path="url(#pfc83d76487)" d="M 191.493518 148.451134 
L 194.366648 150.136755 
L 193.983917 141.825839 
z
" style="stroke:#000000;"/>
    <path clip-path="url(#pfc83d76487)" d="M 194.366648 204.187763 
L 191.493518 205.868327 
L 193.983917 212.498006 
z
" style="stroke:#000000;"/>
    <path clip-path="url(#pfc83d76487)" d="M 196.714266 210.426254 
L 197.553295 204.108145 
L 194.366648 204.187763 
z
" style="stroke:#000000;"/>
    <path clip-path="url(#pfc83d76487)" d="M 200.163495 218.647527 
L 202.718661 216.211109 
L 203.632568 224.475246 
z
" style="stroke:#000000;"/>
    <path clip-path="url(#pfc83d76487)" d="M 202.718661 138.112855 
L 200.163495 135.671958 
L 203.632568 129.850319 
z
" style="stroke:#000000;"/>
    <path clip-path="url(#pfc83d76487)" d="M 202.718661 138.112855 
L 196.714266 143.902397 
L 199.898191 143.989771 
z
" style="stroke:#000000;"/>
    <path clip-path="url(#pfc83d76487)" d="M 194.366648 150.136755 
L 199.898191 143.989771 
L 196.714266 143.902397 
z
" style="stroke:#000000;"/>
    <path clip-path="url(#pfc83d76487)" d="M 193.983917 212.498006 
L 200.163495 218.647527 
L 196.979879 218.767666 
z
" style="stroke:#000000;"/>
    <path clip-path="url(#pfc83d76487)" d="M 203.632568 224.475246 
L 196.979879 218.767666 
L 200.163495 218.647527 
z
" style="stroke:#000000;"/>
    <path clip-path="url(#pfc83d76487)" d="M 199.898191 210.32925 
L 199.538031 216.324622 
L 202.718661 216.211109 
z
" style="stroke:#000000;"/>
    <path clip-path="url(#pfc83d76487)" d="M 196.714266 143.902397 
L 193.983917 141.825839 
L 194.366648 150.136755 
z
" style="stroke:#000000;"/>
    <path clip-path="url(#pfc83d76487)" d="M 193.983917 212.498006 
L 196.714266 210.426254 
L 194.366648 204.187763 
z
" style="stroke:#000000;"/>
    <path clip-path="url(#pfc83d76487)" d="M 203.632568 224.475246 
L 202.718661 216.211109 
L 205.987703 221.691435 
z
" style="stroke:#000000;"/>
    <path clip-path="url(#pfc83d76487)" d="M 202.718661 138.112855 
L 203.632568 129.850319 
L 205.987703 132.638258 
z
" style="stroke:#000000;"/>
    <path clip-path="url(#pfc83d76487)" d="M 200.163495 135.671958 
L 200.453011 129.723408 
L 203.632568 129.850319 
z
" style="stroke:#000000;"/>
    <path clip-path="url(#pfc83d76487)" d="M 199.538031 216.324622 
L 199.898191 210.32925 
L 196.714266 210.426254 
z
" style="stroke:#000000;"/>
    <path clip-path="url(#pfc83d76487)" d="M 193.983917 141.825839 
L 196.714266 143.902397 
L 196.979879 135.561452 
z
" style="stroke:#000000;"/>
    <path clip-path="url(#pfc83d76487)" d="M 196.714266 210.426254 
L 193.983917 212.498006 
L 196.979879 218.767666 
z
" style="stroke:#000000;"/>
    <path clip-path="url(#pfc83d76487)" d="M 200.453011 129.723408 
L 200.163495 135.671958 
L 196.979879 135.561452 
z
" style="stroke:#000000;"/>
    <path clip-path="url(#pfc83d76487)" d="M 203.632568 224.475246 
L 206.969462 226.235608 
L 205.586854 227.142952 
z
" style="stroke:#000000;"/>
    <path clip-path="url(#pfc83d76487)" d="M 206.969462 128.095806 
L 203.632568 129.850319 
L 205.586854 127.186039 
z
" style="stroke:#000000;"/>
    <path clip-path="url(#pfc83d76487)" d="M 196.714266 143.902397 
L 202.718661 138.112855 
L 199.538031 138.008999 
z
" style="stroke:#000000;"/>
    <path clip-path="url(#pfc83d76487)" d="M 206.969462 226.235608 
L 203.632568 224.475246 
L 205.987703 221.691435 
z
" style="stroke:#000000;"/>
    <path clip-path="url(#pfc83d76487)" d="M 203.632568 129.850319 
L 206.969462 128.095806 
L 205.987703 132.638258 
z
" style="stroke:#000000;"/>
    <path clip-path="url(#pfc83d76487)" d="M 205.987703 132.638258 
L 199.538031 138.008999 
L 202.718661 138.112855 
z
" style="stroke:#000000;"/>
    <path clip-path="url(#pfc83d76487)" d="M 205.586854 227.142952 
L 200.453011 224.611824 
L 203.632568 224.475246 
z
" style="stroke:#000000;"/>
    <path clip-path="url(#pfc83d76487)" d="M 196.979879 218.767666 
L 203.632568 224.475246 
L 200.453011 224.611824 
z
" style="stroke:#000000;"/>
    <path clip-path="url(#pfc83d76487)" d="M 196.979879 135.561452 
L 196.714266 143.902397 
L 199.538031 138.008999 
z
" style="stroke:#000000;"/>
    <path clip-path="url(#pfc83d76487)" d="M 196.714266 210.426254 
L 196.979879 218.767666 
L 199.538031 216.324622 
z
" style="stroke:#000000;"/>
    <path clip-path="url(#pfc83d76487)" d="M 202.718661 216.211109 
L 202.810921 221.820415 
L 205.987703 221.691435 
z
" style="stroke:#000000;"/>
    <path clip-path="url(#pfc83d76487)" d="M 203.632568 129.850319 
L 202.409599 127.051575 
L 205.586854 127.186039 
z
" style="stroke:#000000;"/>
    <path clip-path="url(#pfc83d76487)" d="M 206.969462 226.235608 
L 205.987703 221.691435 
L 208.423676 225.00923 
z
" style="stroke:#000000;"/>
    <path clip-path="url(#pfc83d76487)" d="M 205.987703 132.638258 
L 206.969462 128.095806 
L 208.423676 129.324732 
z
" style="stroke:#000000;"/>
    <path clip-path="url(#pfc83d76487)" d="M 202.810921 221.820415 
L 202.718661 216.211109 
L 199.538031 216.324622 
z
" style="stroke:#000000;"/>
    <path clip-path="url(#pfc83d76487)" d="M 196.979879 135.561452 
L 199.538031 138.008999 
L 200.453011 129.723408 
z
" style="stroke:#000000;"/>
    <path clip-path="url(#pfc83d76487)" d="M 199.538031 216.324622 
L 196.979879 218.767666 
L 200.453011 224.611824 
z
" style="stroke:#000000;"/>
    <path clip-path="url(#pfc83d76487)" d="M 202.409599 127.051575 
L 206.969462 128.095806 
L 205.586854 127.186039 
z
" style="stroke:#000000;"/>
    <path clip-path="url(#pfc83d76487)" d="M 202.409599 127.051575 
L 203.632568 129.850319 
L 200.453011 129.723408 
z
" style="stroke:#000000;"/>
    <path clip-path="url(#pfc83d76487)" d="M 203.793842 226.377326 
L 205.586854 227.142952 
L 206.969462 226.235608 
z
" style="stroke:#000000;"/>
    <path clip-path="url(#pfc83d76487)" d="M 199.538031 138.008999 
L 205.987703 132.638258 
L 202.810921 132.518967 
z
" style="stroke:#000000;"/>
    <path clip-path="url(#pfc83d76487)" d="M 200.453011 224.611824 
L 205.586854 227.142952 
L 202.409599 227.287101 
z
" style="stroke:#000000;"/>
    <path clip-path="url(#pfc83d76487)" d="M 202.810921 221.820415 
L 208.423676 225.00923 
L 205.987703 221.691435 
z
" style="stroke:#000000;"/>
    <path clip-path="url(#pfc83d76487)" d="M 203.793842 127.963786 
L 208.423676 129.324732 
L 206.969462 128.095806 
z
" style="stroke:#000000;"/>
    <path clip-path="url(#pfc83d76487)" d="M 205.249781 129.196046 
L 205.987703 132.638258 
L 208.423676 129.324732 
z
" style="stroke:#000000;"/>
    <path clip-path="url(#pfc83d76487)" d="M 200.453011 129.723408 
L 199.538031 138.008999 
L 202.810921 132.518967 
z
" style="stroke:#000000;"/>
    <path clip-path="url(#pfc83d76487)" d="M 199.538031 216.324622 
L 200.453011 224.611824 
L 202.810921 221.820415 
z
" style="stroke:#000000;"/>
    <path clip-path="url(#pfc83d76487)" d="M 205.586854 227.142952 
L 203.793842 226.377326 
L 202.409599 227.287101 
z
" style="stroke:#000000;"/>
    <path clip-path="url(#pfc83d76487)" d="M 205.249781 225.14763 
L 206.969462 226.235608 
L 208.423676 225.00923 
z
" style="stroke:#000000;"/>
    <path clip-path="url(#pfc83d76487)" d="M 206.969462 128.095806 
L 202.409599 127.051575 
L 203.793842 127.963786 
z
" style="stroke:#000000;"/>
    <path clip-path="url(#pfc83d76487)" d="M 205.987703 132.638258 
L 205.249781 129.196046 
L 202.810921 132.518967 
z
" style="stroke:#000000;"/>
    <path clip-path="url(#pfc83d76487)" d="M 200.453011 129.723408 
L 203.793842 127.963786 
L 202.409599 127.051575 
z
" style="stroke:#000000;"/>
    <path clip-path="url(#pfc83d76487)" d="M 203.793842 226.377326 
L 200.453011 224.611824 
L 202.409599 227.287101 
z
" style="stroke:#000000;"/>
    <path clip-path="url(#pfc83d76487)" d="M 203.793842 127.963786 
L 200.453011 129.723408 
L 202.810921 132.518967 
z
" style="stroke:#000000;"/>
    <path clip-path="url(#pfc83d76487)" d="M 200.453011 224.611824 
L 203.793842 226.377326 
L 202.810921 221.820415 
z
" style="stroke:#000000;"/>
    <path clip-path="url(#pfc83d76487)" d="M 206.969462 226.235608 
L 205.249781 225.14763 
L 203.793842 226.377326 
z
" style="stroke:#000000;"/>
    <path clip-path="url(#pfc83d76487)" d="M 208.423676 225.00923 
L 202.810921 221.820415 
L 205.249781 225.14763 
z
" style="stroke:#000000;"/>
    <path clip-path="url(#pfc83d76487)" d="M 208.423676 129.324732 
L 203.793842 127.963786 
L 205.249781 129.196046 
z
" style="stroke:#000000;"/>
    <path clip-path="url(#pfc83d76487)" d="M 203.793842 127.963786 
L 202.810921 132.518967 
L 205.249781 129.196046 
z
" style="stroke:#000000;"/>
    <path clip-path="url(#pfc83d76487)" d="M 202.810921 221.820415 
L 203.793842 226.377326 
L 205.249781 225.14763 
z
" style="stroke:#000000;"/>
   </g>
  </g>
 </g>
 <defs>
  <clipPath id="pfc83d76487">
   <rect height="271.8" width="279" x="45" y="43.2"/>
  </clipPath>
 </defs>
</svg>
