<?xml version="1.0" encoding="utf-8" standalone="no"?>
<!DOCTYPE svg PUBLIC "-//W3C//DTD SVG 1.1//EN"
  "http://www.w3.org/Graphics/SVG/1.1/DTD/svg11.dtd">
<!-- Created with matplotlib (https://matplotlib.org/) -->
<svg height="360pt" version="1.1" viewBox="0 0 360 360" width="360pt" xmlns="http://www.w3.org/2000/svg" xmlns:xlink="http://www.w3.org/1999/xlink">
 <defs>
  <style type="text/css">
*{stroke-linecap:butt;stroke-linejoin:round;}
  </style>
 </defs>
 <g id="figure_1">
  <g id="patch_1">
   <path d="M 0 360 
L 360 360 
L 360 0 
L 0 0 
z
" style="fill:#ffffff;"/>
  </g>
  <g id="patch_2">
   <path d="M 45 315 
L 324 315 
L 324 43.2 
L 45 43.2 
z
" style="fill:#ffffff;"/>
  </g>
  <g id="axes_1">
   <g id="Poly3DCollection_1">
    <path clip-path="url(#pe93b3cce20)" d="M 176.302435 138.509158 
L 180.805216 137.481509 
L 180.433211 138.536196 
z
" style="stroke:#000000;"/>
    <path clip-path="url(#pe93b3cce20)" d="M 176.302435 215.734563 
L 181.057065 213.134369 
L 180.433211 215.705043 
z
" style="stroke:#000000;"/>
    <path clip-path="url(#pe93b3cce20)" d="M 180.433211 215.705043 
L 176.670831 216.793234 
L 176.302435 215.734563 
z
" style="stroke:#000000;"/>
    <path clip-path="url(#pe93b3cce20)" d="M 181.057065 213.134369 
L 180.805216 216.76291 
L 180.433211 215.705043 
z
" style="stroke:#000000;"/>
    <path clip-path="url(#pe93b3cce20)" d="M 180.805216 137.481509 
L 181.057065 141.112202 
L 180.433211 138.536196 
z
" style="stroke:#000000;"/>
    <path clip-path="url(#pe93b3cce20)" d="M 176.670831 216.793234 
L 180.433211 215.705043 
L 180.805216 216.76291 
z
" style="stroke:#000000;"/>
    <path clip-path="url(#pe93b3cce20)" d="M 180.433211 138.536196 
L 176.920238 141.087013 
L 176.302435 138.509158 
z
" style="stroke:#000000;"/>
    <path clip-path="url(#pe93b3cce20)" d="M 180.805216 137.481509 
L 176.302435 138.509158 
L 176.670831 137.453672 
z
" style="stroke:#000000;"/>
    <path clip-path="url(#pe93b3cce20)" d="M 176.920238 141.087013 
L 180.433211 138.536196 
L 181.057065 141.112202 
z
" style="stroke:#000000;"/>
    <path clip-path="url(#pe93b3cce20)" d="M 176.670831 137.453672 
L 181.160058 136.684756 
L 180.805216 137.481509 
z
" style="stroke:#000000;"/>
    <path clip-path="url(#pe93b3cce20)" d="M 181.057065 213.134369 
L 176.302435 215.734563 
L 176.920238 213.162049 
z
" style="stroke:#000000;"/>
    <path clip-path="url(#pe93b3cce20)" d="M 176.920238 141.087013 
L 176.670831 137.453672 
L 176.302435 138.509158 
z
" style="stroke:#000000;"/>
    <path clip-path="url(#pe93b3cce20)" d="M 176.670831 216.793234 
L 176.920238 213.162049 
L 176.302435 215.734563 
z
" style="stroke:#000000;"/>
    <path clip-path="url(#pe93b3cce20)" d="M 180.805216 216.76291 
L 177.022233 217.593634 
L 176.670831 216.793234 
z
" style="stroke:#000000;"/>
    <path clip-path="url(#pe93b3cce20)" d="M 177.022233 217.593634 
L 180.805216 216.76291 
L 181.160058 217.562696 
z
" style="stroke:#000000;"/>
    <path clip-path="url(#pe93b3cce20)" d="M 181.663552 215.494089 
L 180.805216 216.76291 
L 181.057065 213.134369 
z
" style="stroke:#000000;"/>
    <path clip-path="url(#pe93b3cce20)" d="M 180.805216 137.481509 
L 181.663552 138.757667 
L 181.057065 141.112202 
z
" style="stroke:#000000;"/>
    <path clip-path="url(#pe93b3cce20)" d="M 180.805216 216.76291 
L 181.663552 215.494089 
L 181.160058 217.562696 
z
" style="stroke:#000000;"/>
    <path clip-path="url(#pe93b3cce20)" d="M 181.663552 138.757667 
L 180.805216 137.481509 
L 181.160058 136.684756 
z
" style="stroke:#000000;"/>
    <path clip-path="url(#pe93b3cce20)" d="M 181.160058 136.684756 
L 176.670831 137.453672 
L 177.022233 136.656309 
z
" style="stroke:#000000;"/>
    <path clip-path="url(#pe93b3cce20)" d="M 181.663552 215.494089 
L 177.022233 217.593634 
L 181.160058 217.562696 
z
" style="stroke:#000000;"/>
    <path clip-path="url(#pe93b3cce20)" d="M 181.899788 145.426412 
L 176.920238 141.087013 
L 181.057065 141.112202 
z
" style="stroke:#000000;"/>
    <path clip-path="url(#pe93b3cce20)" d="M 177.520845 138.730708 
L 176.670831 137.453672 
L 176.920238 141.087013 
z
" style="stroke:#000000;"/>
    <path clip-path="url(#pe93b3cce20)" d="M 176.670831 216.793234 
L 177.520845 215.523545 
L 176.920238 213.162049 
z
" style="stroke:#000000;"/>
    <path clip-path="url(#pe93b3cce20)" d="M 176.670831 137.453672 
L 177.520845 138.730708 
L 177.022233 136.656309 
z
" style="stroke:#000000;"/>
    <path clip-path="url(#pe93b3cce20)" d="M 177.520845 215.523545 
L 176.670831 216.793234 
L 177.022233 217.593634 
z
" style="stroke:#000000;"/>
    <path clip-path="url(#pe93b3cce20)" d="M 177.520845 138.730708 
L 181.160058 136.684756 
L 177.022233 136.656309 
z
" style="stroke:#000000;"/>
    <path clip-path="url(#pe93b3cce20)" d="M 177.754791 208.851933 
L 181.057065 213.134369 
L 176.920238 213.162049 
z
" style="stroke:#000000;"/>
    <path clip-path="url(#pe93b3cce20)" d="M 181.663552 215.494089 
L 181.057065 213.134369 
L 181.899788 208.827363 
z
" style="stroke:#000000;"/>
    <path clip-path="url(#pe93b3cce20)" d="M 181.057065 141.112202 
L 181.663552 138.757667 
L 181.899788 145.426412 
z
" style="stroke:#000000;"/>
    <path clip-path="url(#pe93b3cce20)" d="M 181.160058 136.684756 
L 177.520845 138.730708 
L 181.663552 138.757667 
z
" style="stroke:#000000;"/>
    <path clip-path="url(#pe93b3cce20)" d="M 177.022233 217.593634 
L 181.663552 215.494089 
L 177.520845 215.523545 
z
" style="stroke:#000000;"/>
    <path clip-path="url(#pe93b3cce20)" d="M 181.057065 213.134369 
L 177.754791 208.851933 
L 181.899788 208.827363 
z
" style="stroke:#000000;"/>
    <path clip-path="url(#pe93b3cce20)" d="M 176.920238 141.087013 
L 181.899788 145.426412 
L 177.754791 145.404343 
z
" style="stroke:#000000;"/>
    <path clip-path="url(#pe93b3cce20)" d="M 177.520845 138.730708 
L 176.920238 141.087013 
L 177.754791 145.404343 
z
" style="stroke:#000000;"/>
    <path clip-path="url(#pe93b3cce20)" d="M 176.920238 213.162049 
L 177.520845 215.523545 
L 177.754791 208.851933 
z
" style="stroke:#000000;"/>
    <path clip-path="url(#pe93b3cce20)" d="M 181.663552 215.494089 
L 181.899788 208.827363 
L 182.562928 210.909676 
z
" style="stroke:#000000;"/>
    <path clip-path="url(#pe93b3cce20)" d="M 181.899788 145.426412 
L 181.663552 138.757667 
L 182.562928 143.349768 
z
" style="stroke:#000000;"/>
    <path clip-path="url(#pe93b3cce20)" d="M 182.562928 210.909676 
L 177.520845 215.523545 
L 181.663552 215.494089 
z
" style="stroke:#000000;"/>
    <path clip-path="url(#pe93b3cce20)" d="M 178.411504 143.326132 
L 181.663552 138.757667 
L 177.520845 138.730708 
z
" style="stroke:#000000;"/>
    <path clip-path="url(#pe93b3cce20)" d="M 182.632008 150.114428 
L 177.754791 145.404343 
L 181.899788 145.426412 
z
" style="stroke:#000000;"/>
    <path clip-path="url(#pe93b3cce20)" d="M 177.520845 138.730708 
L 177.754791 145.404343 
L 178.411504 143.326132 
z
" style="stroke:#000000;"/>
    <path clip-path="url(#pe93b3cce20)" d="M 177.754791 208.851933 
L 177.520845 215.523545 
L 178.411504 210.935821 
z
" style="stroke:#000000;"/>
    <path clip-path="url(#pe93b3cce20)" d="M 178.479914 204.166771 
L 181.899788 208.827363 
L 177.754791 208.851933 
z
" style="stroke:#000000;"/>
    <path clip-path="url(#pe93b3cce20)" d="M 181.663552 138.757667 
L 178.411504 143.326132 
L 182.562928 143.349768 
z
" style="stroke:#000000;"/>
    <path clip-path="url(#pe93b3cce20)" d="M 182.562928 210.909676 
L 181.899788 208.827363 
L 182.632008 204.145606 
z
" style="stroke:#000000;"/>
    <path clip-path="url(#pe93b3cce20)" d="M 181.899788 145.426412 
L 182.562928 143.349768 
L 182.632008 150.114428 
z
" style="stroke:#000000;"/>
    <path clip-path="url(#pe93b3cce20)" d="M 177.520845 215.523545 
L 182.562928 210.909676 
L 178.411504 210.935821 
z
" style="stroke:#000000;"/>
    <path clip-path="url(#pe93b3cce20)" d="M 181.899788 208.827363 
L 178.479914 204.166771 
L 182.632008 204.145606 
z
" style="stroke:#000000;"/>
    <path clip-path="url(#pe93b3cce20)" d="M 177.754791 145.404343 
L 182.632008 150.114428 
L 178.479914 150.095773 
z
" style="stroke:#000000;"/>
    <path clip-path="url(#pe93b3cce20)" d="M 178.411504 143.326132 
L 177.754791 145.404343 
L 178.479914 150.095773 
z
" style="stroke:#000000;"/>
    <path clip-path="url(#pe93b3cce20)" d="M 177.754791 208.851933 
L 178.411504 210.935821 
L 178.479914 204.166771 
z
" style="stroke:#000000;"/>
    <path clip-path="url(#pe93b3cce20)" d="M 182.562928 210.909676 
L 182.632008 204.145606 
L 183.344578 205.924447 
z
" style="stroke:#000000;"/>
    <path clip-path="url(#pe93b3cce20)" d="M 182.632008 150.114428 
L 182.562928 143.349768 
L 183.344578 148.341678 
z
" style="stroke:#000000;"/>
    <path clip-path="url(#pe93b3cce20)" d="M 183.344578 205.924447 
L 178.411504 210.935821 
L 182.562928 210.909676 
z
" style="stroke:#000000;"/>
    <path clip-path="url(#pe93b3cce20)" d="M 183.24442 155.122401 
L 178.479914 150.095773 
L 182.632008 150.114428 
z
" style="stroke:#000000;"/>
    <path clip-path="url(#pe93b3cce20)" d="M 179.185579 148.321681 
L 182.562928 143.349768 
L 178.411504 143.326132 
z
" style="stroke:#000000;"/>
    <path clip-path="url(#pe93b3cce20)" d="M 179.086391 199.160373 
L 182.632008 204.145606 
L 178.479914 204.166771 
z
" style="stroke:#000000;"/>
    <path clip-path="url(#pe93b3cce20)" d="M 183.344578 205.924447 
L 182.632008 204.145606 
L 183.24442 199.142868 
z
" style="stroke:#000000;"/>
    <path clip-path="url(#pe93b3cce20)" d="M 182.632008 150.114428 
L 183.344578 148.341678 
L 183.24442 155.122401 
z
" style="stroke:#000000;"/>
    <path clip-path="url(#pe93b3cce20)" d="M 182.632008 204.145606 
L 179.086391 199.160373 
L 183.24442 199.142868 
z
" style="stroke:#000000;"/>
    <path clip-path="url(#pe93b3cce20)" d="M 178.411504 143.326132 
L 178.479914 150.095773 
L 179.185579 148.321681 
z
" style="stroke:#000000;"/>
    <path clip-path="url(#pe93b3cce20)" d="M 178.479914 204.166771 
L 178.411504 210.935821 
L 179.185579 205.946963 
z
" style="stroke:#000000;"/>
    <path clip-path="url(#pe93b3cce20)" d="M 182.562928 143.349768 
L 179.185579 148.321681 
L 183.344578 148.341678 
z
" style="stroke:#000000;"/>
    <path clip-path="url(#pe93b3cce20)" d="M 178.479914 150.095773 
L 183.24442 155.122401 
L 179.086391 155.107414 
z
" style="stroke:#000000;"/>
    <path clip-path="url(#pe93b3cce20)" d="M 178.411504 210.935821 
L 183.344578 205.924447 
L 179.185579 205.946963 
z
" style="stroke:#000000;"/>
    <path clip-path="url(#pe93b3cce20)" d="M 179.185579 148.321681 
L 178.479914 150.095773 
L 179.086391 155.107414 
z
" style="stroke:#000000;"/>
    <path clip-path="url(#pe93b3cce20)" d="M 178.479914 204.166771 
L 179.185579 205.946963 
L 179.086391 199.160373 
z
" style="stroke:#000000;"/>
    <path clip-path="url(#pe93b3cce20)" d="M 183.729174 160.392178 
L 179.086391 155.107414 
L 183.24442 155.122401 
z
" style="stroke:#000000;"/>
    <path clip-path="url(#pe93b3cce20)" d="M 183.24442 199.142868 
L 183.998484 200.59521 
L 183.344578 205.924447 
z
" style="stroke:#000000;"/>
    <path clip-path="url(#pe93b3cce20)" d="M 183.998484 153.676505 
L 183.24442 155.122401 
L 183.344578 148.341678 
z
" style="stroke:#000000;"/>
    <path clip-path="url(#pe93b3cce20)" d="M 179.566449 193.890869 
L 183.24442 199.142868 
L 179.086391 199.160373 
z
" style="stroke:#000000;"/>
    <path clip-path="url(#pe93b3cce20)" d="M 183.998484 200.59521 
L 183.24442 199.142868 
L 183.729174 193.877234 
z
" style="stroke:#000000;"/>
    <path clip-path="url(#pe93b3cce20)" d="M 183.24442 155.122401 
L 183.998484 153.676505 
L 183.729174 160.392178 
z
" style="stroke:#000000;"/>
    <path clip-path="url(#pe93b3cce20)" d="M 183.998484 200.59521 
L 179.185579 205.946963 
L 183.344578 205.924447 
z
" style="stroke:#000000;"/>
    <path clip-path="url(#pe93b3cce20)" d="M 183.24442 199.142868 
L 179.566449 193.890869 
L 183.729174 193.877234 
z
" style="stroke:#000000;"/>
    <path clip-path="url(#pe93b3cce20)" d="M 179.833151 153.66042 
L 183.344578 148.341678 
L 179.185579 148.321681 
z
" style="stroke:#000000;"/>
    <path clip-path="url(#pe93b3cce20)" d="M 179.086391 155.107414 
L 183.729174 160.392178 
L 179.566449 160.381067 
z
" style="stroke:#000000;"/>
    <path clip-path="url(#pe93b3cce20)" d="M 179.086391 155.107414 
L 179.833151 153.66042 
L 179.185579 148.321681 
z
" style="stroke:#000000;"/>
    <path clip-path="url(#pe93b3cce20)" d="M 179.833151 200.613822 
L 179.086391 199.160373 
L 179.185579 205.946963 
z
" style="stroke:#000000;"/>
    <path clip-path="url(#pe93b3cce20)" d="M 183.344578 148.341678 
L 179.833151 153.66042 
L 183.998484 153.676505 
z
" style="stroke:#000000;"/>
    <path clip-path="url(#pe93b3cce20)" d="M 184.080003 165.861679 
L 179.566449 160.381067 
L 183.729174 160.392178 
z
" style="stroke:#000000;"/>
    <path clip-path="url(#pe93b3cce20)" d="M 179.833151 153.66042 
L 179.086391 155.107414 
L 179.566449 160.381067 
z
" style="stroke:#000000;"/>
    <path clip-path="url(#pe93b3cce20)" d="M 179.086391 199.160373 
L 179.833151 200.613822 
L 179.566449 193.890869 
z
" style="stroke:#000000;"/>
    <path clip-path="url(#pe93b3cce20)" d="M 179.185579 205.946963 
L 183.998484 200.59521 
L 179.833151 200.613822 
z
" style="stroke:#000000;"/>
    <path clip-path="url(#pe93b3cce20)" d="M 179.91388 188.420335 
L 183.729174 193.877234 
L 179.566449 193.890869 
z
" style="stroke:#000000;"/>
    <path clip-path="url(#pe93b3cce20)" d="M 183.729174 193.877234 
L 179.91388 188.420335 
L 184.080003 188.410732 
z
" style="stroke:#000000;"/>
    <path clip-path="url(#pe93b3cce20)" d="M 183.729174 193.877234 
L 184.516168 194.98434 
L 183.998484 200.59521 
z
" style="stroke:#000000;"/>
    <path clip-path="url(#pe93b3cce20)" d="M 184.516168 159.2918 
L 183.729174 160.392178 
L 183.998484 153.676505 
z
" style="stroke:#000000;"/>
    <path clip-path="url(#pe93b3cce20)" d="M 184.516168 194.98434 
L 183.729174 193.877234 
L 184.080003 188.410732 
z
" style="stroke:#000000;"/>
    <path clip-path="url(#pe93b3cce20)" d="M 183.729174 160.392178 
L 184.516168 159.2918 
L 184.080003 165.861679 
z
" style="stroke:#000000;"/>
    <path clip-path="url(#pe93b3cce20)" d="M 179.566449 160.381067 
L 184.080003 165.861679 
L 179.91388 165.854604 
z
" style="stroke:#000000;"/>
    <path clip-path="url(#pe93b3cce20)" d="M 184.292346 171.465781 
L 179.91388 165.854604 
L 184.080003 165.861679 
z
" style="stroke:#000000;"/>
    <path clip-path="url(#pe93b3cce20)" d="M 184.516168 194.98434 
L 179.833151 200.613822 
L 183.998484 200.59521 
z
" style="stroke:#000000;"/>
    <path clip-path="url(#pe93b3cce20)" d="M 184.080003 188.410732 
L 180.124166 182.813908 
L 184.292346 182.808446 
z
" style="stroke:#000000;"/>
    <path clip-path="url(#pe93b3cce20)" d="M 180.124166 182.813908 
L 184.080003 188.410732 
L 179.91388 188.420335 
z
" style="stroke:#000000;"/>
    <path clip-path="url(#pe93b3cce20)" d="M 180.345821 159.279852 
L 183.998484 153.676505 
L 179.833151 153.66042 
z
" style="stroke:#000000;"/>
    <path clip-path="url(#pe93b3cce20)" d="M 179.566449 160.381067 
L 180.345821 159.279852 
L 179.833151 153.66042 
z
" style="stroke:#000000;"/>
    <path clip-path="url(#pe93b3cce20)" d="M 180.345821 194.998821 
L 179.566449 193.890869 
L 179.833151 200.613822 
z
" style="stroke:#000000;"/>
    <path clip-path="url(#pe93b3cce20)" d="M 180.345821 159.279852 
L 179.566449 160.381067 
L 179.91388 165.854604 
z
" style="stroke:#000000;"/>
    <path clip-path="url(#pe93b3cce20)" d="M 179.566449 193.890869 
L 180.345821 194.998821 
L 179.91388 188.420335 
z
" style="stroke:#000000;"/>
    <path clip-path="url(#pe93b3cce20)" d="M 184.36344 177.137417 
L 180.124166 171.462849 
L 184.292346 171.465781 
z
" style="stroke:#000000;"/>
    <path clip-path="url(#pe93b3cce20)" d="M 179.91388 165.854604 
L 184.292346 171.465781 
L 180.124166 171.462849 
z
" style="stroke:#000000;"/>
    <path clip-path="url(#pe93b3cce20)" d="M 184.890886 189.158175 
L 184.080003 188.410732 
L 184.292346 182.808446 
z
" style="stroke:#000000;"/>
    <path clip-path="url(#pe93b3cce20)" d="M 184.080003 165.861679 
L 184.890886 165.121167 
L 184.292346 171.465781 
z
" style="stroke:#000000;"/>
    <path clip-path="url(#pe93b3cce20)" d="M 184.292346 182.808446 
L 180.194572 177.138683 
L 184.36344 177.137417 
z
" style="stroke:#000000;"/>
    <path clip-path="url(#pe93b3cce20)" d="M 183.998484 153.676505 
L 180.345821 159.279852 
L 184.516168 159.2918 
z
" style="stroke:#000000;"/>
    <path clip-path="url(#pe93b3cce20)" d="M 184.080003 188.410732 
L 184.890886 189.158175 
L 184.516168 194.98434 
z
" style="stroke:#000000;"/>
    <path clip-path="url(#pe93b3cce20)" d="M 184.890886 165.121167 
L 184.080003 165.861679 
L 184.516168 159.2918 
z
" style="stroke:#000000;"/>
    <path clip-path="url(#pe93b3cce20)" d="M 180.194572 177.138683 
L 184.292346 182.808446 
L 180.124166 182.813908 
z
" style="stroke:#000000;"/>
    <path clip-path="url(#pe93b3cce20)" d="M 180.124166 171.462849 
L 184.36344 177.137417 
L 180.194572 177.138683 
z
" style="stroke:#000000;"/>
    <path clip-path="url(#pe93b3cce20)" d="M 179.833151 200.613822 
L 184.516168 194.98434 
L 180.345821 194.998821 
z
" style="stroke:#000000;"/>
    <path clip-path="url(#pe93b3cce20)" d="M 184.292346 171.465781 
L 185.117713 171.094869 
L 184.36344 177.137417 
z
" style="stroke:#000000;"/>
    <path clip-path="url(#pe93b3cce20)" d="M 185.117713 183.186412 
L 184.292346 182.808446 
L 184.36344 177.137417 
z
" style="stroke:#000000;"/>
    <path clip-path="url(#pe93b3cce20)" d="M 180.71691 165.113529 
L 179.91388 165.854604 
L 180.124166 171.462849 
z
" style="stroke:#000000;"/>
    <path clip-path="url(#pe93b3cce20)" d="M 179.91388 188.420335 
L 180.71691 189.168352 
L 180.124166 182.813908 
z
" style="stroke:#000000;"/>
    <path clip-path="url(#pe93b3cce20)" d="M 184.890886 189.158175 
L 180.345821 194.998821 
L 184.516168 194.98434 
z
" style="stroke:#000000;"/>
    <path clip-path="url(#pe93b3cce20)" d="M 184.292346 182.808446 
L 185.117713 183.186412 
L 184.890886 189.158175 
z
" style="stroke:#000000;"/>
    <path clip-path="url(#pe93b3cce20)" d="M 185.117713 171.094869 
L 184.292346 171.465781 
L 184.890886 165.121167 
z
" style="stroke:#000000;"/>
    <path clip-path="url(#pe93b3cce20)" d="M 179.91388 165.854604 
L 180.71691 165.113529 
L 180.345821 159.279852 
z
" style="stroke:#000000;"/>
    <path clip-path="url(#pe93b3cce20)" d="M 180.71691 189.168352 
L 179.91388 188.420335 
L 180.345821 194.998821 
z
" style="stroke:#000000;"/>
    <path clip-path="url(#pe93b3cce20)" d="M 180.71691 165.113529 
L 184.516168 159.2918 
L 180.345821 159.279852 
z
" style="stroke:#000000;"/>
    <path clip-path="url(#pe93b3cce20)" d="M 184.516168 159.2918 
L 180.71691 165.113529 
L 184.890886 165.121167 
z
" style="stroke:#000000;"/>
    <path clip-path="url(#pe93b3cce20)" d="M 180.124166 182.813908 
L 180.941541 183.192166 
L 180.194572 177.138683 
z
" style="stroke:#000000;"/>
    <path clip-path="url(#pe93b3cce20)" d="M 180.941541 171.091657 
L 180.124166 171.462849 
L 180.194572 177.138683 
z
" style="stroke:#000000;"/>
    <path clip-path="url(#pe93b3cce20)" d="M 184.36344 177.137417 
L 185.193654 177.140965 
L 185.117713 183.186412 
z
" style="stroke:#000000;"/>
    <path clip-path="url(#pe93b3cce20)" d="M 185.193654 177.140965 
L 184.36344 177.137417 
L 185.117713 171.094869 
z
" style="stroke:#000000;"/>
    <path clip-path="url(#pe93b3cce20)" d="M 180.345821 194.998821 
L 184.890886 189.158175 
L 180.71691 189.168352 
z
" style="stroke:#000000;"/>
    <path clip-path="url(#pe93b3cce20)" d="M 180.057874 140.17647 
L 186.305979 134.218342 
L 184.225405 140.202533 
z
" style="stroke:#000000;"/>
    <path clip-path="url(#pe93b3cce20)" d="M 186.305979 157.42233 
L 180.057874 140.17647 
L 184.225405 140.202533 
z
" style="stroke:#000000;"/>
    <path clip-path="url(#pe93b3cce20)" d="M 180.124166 171.462849 
L 180.941541 171.091657 
L 180.71691 165.113529 
z
" style="stroke:#000000;"/>
    <path clip-path="url(#pe93b3cce20)" d="M 180.941541 183.192166 
L 180.124166 182.813908 
L 180.71691 189.168352 
z
" style="stroke:#000000;"/>
    <path clip-path="url(#pe93b3cce20)" d="M 185.117713 183.186412 
L 180.71691 189.168352 
L 184.890886 189.158175 
z
" style="stroke:#000000;"/>
    <path clip-path="url(#pe93b3cce20)" d="M 184.890886 165.121167 
L 180.941541 171.091657 
L 185.117713 171.094869 
z
" style="stroke:#000000;"/>
    <path clip-path="url(#pe93b3cce20)" d="M 186.305979 151.621333 
L 184.225405 140.202533 
L 184.916534 140.864298 
z
" style="stroke:#000000;"/>
    <path clip-path="url(#pe93b3cce20)" d="M 186.305979 134.218342 
L 184.916534 140.864298 
L 184.225405 140.202533 
z
" style="stroke:#000000;"/>
    <path clip-path="url(#pe93b3cce20)" d="M 180.941541 171.091657 
L 184.890886 165.121167 
L 180.71691 165.113529 
z
" style="stroke:#000000;"/>
    <path clip-path="url(#pe93b3cce20)" d="M 180.194572 177.138683 
L 181.016747 177.142237 
L 180.941541 171.091657 
z
" style="stroke:#000000;"/>
    <path clip-path="url(#pe93b3cce20)" d="M 181.016747 177.142237 
L 180.194572 177.138683 
L 180.941541 183.192166 
z
" style="stroke:#000000;"/>
    <path clip-path="url(#pe93b3cce20)" d="M 180.71691 189.168352 
L 185.117713 183.186412 
L 180.941541 183.192166 
z
" style="stroke:#000000;"/>
    <path clip-path="url(#pe93b3cce20)" d="M 185.193654 177.140965 
L 180.941541 183.192166 
L 185.117713 183.186412 
z
" style="stroke:#000000;"/>
    <path clip-path="url(#pe93b3cce20)" d="M 185.117713 171.094869 
L 181.016747 177.142237 
L 185.193654 177.140965 
z
" style="stroke:#000000;"/>
    <path clip-path="url(#pe93b3cce20)" d="M 181.016747 177.142237 
L 185.117713 171.094869 
L 180.941541 171.091657 
z
" style="stroke:#000000;"/>
    <path clip-path="url(#pe93b3cce20)" d="M 180.941541 183.192166 
L 185.193654 177.140965 
L 181.016747 177.142237 
z
" style="stroke:#000000;"/>
    <path clip-path="url(#pe93b3cce20)" d="M 180.742309 140.83868 
L 182.118305 134.187692 
L 180.057874 140.17647 
z
" style="stroke:#000000;"/>
    <path clip-path="url(#pe93b3cce20)" d="M 180.057874 140.17647 
L 182.118305 151.603627 
L 180.742309 140.83868 
z
" style="stroke:#000000;"/>
    <path clip-path="url(#pe93b3cce20)" d="M 184.916534 140.864298 
L 182.118305 137.090348 
L 180.742309 140.83868 
z
" style="stroke:#000000;"/>
    <path clip-path="url(#pe93b3cce20)" d="M 182.118305 151.603627 
L 184.916534 140.864298 
L 180.742309 140.83868 
z
" style="stroke:#000000;"/>
    <path clip-path="url(#pe93b3cce20)" d="M 184.225405 140.202533 
L 186.305979 151.621333 
L 186.305979 157.42233 
z
" style="stroke:#000000;"/>
    <path clip-path="url(#pe93b3cce20)" d="M 186.305979 134.218342 
L 180.057874 140.17647 
L 182.118305 134.187692 
z
" style="stroke:#000000;"/>
    <path clip-path="url(#pe93b3cce20)" d="M 180.057874 140.17647 
L 186.305979 157.42233 
L 182.118305 157.408938 
z
" style="stroke:#000000;"/>
    <path clip-path="url(#pe93b3cce20)" d="M 184.916534 140.864298 
L 186.305979 134.218342 
L 186.305979 137.11884 
z
" style="stroke:#000000;"/>
    <path clip-path="url(#pe93b3cce20)" d="M 182.118305 151.603627 
L 180.057874 140.17647 
L 182.118305 157.408938 
z
" style="stroke:#000000;"/>
    <path clip-path="url(#pe93b3cce20)" d="M 182.118305 137.090348 
L 184.916534 140.864298 
L 186.305979 137.11884 
z
" style="stroke:#000000;"/>
    <path clip-path="url(#pe93b3cce20)" d="M 184.916534 140.864298 
L 182.118305 151.603627 
L 186.305979 151.621333 
z
" style="stroke:#000000;"/>
    <path clip-path="url(#pe93b3cce20)" d="M 182.118305 134.187692 
L 180.742309 140.83868 
L 182.118305 137.090348 
z
" style="stroke:#000000;"/>
    <path clip-path="url(#pe93b3cce20)" d="M 186.305979 134.218342 
L 187.705093 140.623794 
L 186.305979 137.11884 
z
" style="stroke:#000000;"/>
    <path clip-path="url(#pe93b3cce20)" d="M 186.305979 137.11884 
L 183.503882 140.597818 
L 182.118305 137.090348 
z
" style="stroke:#000000;"/>
    <path clip-path="url(#pe93b3cce20)" d="M 183.503882 140.597818 
L 186.305979 151.621333 
L 182.118305 151.603627 
z
" style="stroke:#000000;"/>
    <path clip-path="url(#pe93b3cce20)" d="M 186.305979 151.621333 
L 188.408308 139.834229 
L 186.305979 157.42233 
z
" style="stroke:#000000;"/>
    <path clip-path="url(#pe93b3cce20)" d="M 182.118305 134.187692 
L 182.118305 137.090348 
L 183.503882 140.597818 
z
" style="stroke:#000000;"/>
    <path clip-path="url(#pe93b3cce20)" d="M 182.118305 134.187692 
L 188.408308 139.834229 
L 186.305979 134.218342 
z
" style="stroke:#000000;"/>
    <path clip-path="url(#pe93b3cce20)" d="M 188.408308 139.834229 
L 182.118305 157.408938 
L 186.305979 157.42233 
z
" style="stroke:#000000;"/>
    <path clip-path="url(#pe93b3cce20)" d="M 182.118305 151.603627 
L 182.118305 157.408938 
L 184.200296 139.807617 
z
" style="stroke:#000000;"/>
    <path clip-path="url(#pe93b3cce20)" d="M 183.503882 140.597818 
L 186.305979 137.11884 
L 187.705093 140.623794 
z
" style="stroke:#000000;"/>
    <path clip-path="url(#pe93b3cce20)" d="M 186.305979 151.621333 
L 183.503882 140.597818 
L 187.705093 140.623794 
z
" style="stroke:#000000;"/>
    <path clip-path="url(#pe93b3cce20)" d="M 188.408308 139.834229 
L 186.305979 151.621333 
L 187.705093 140.623794 
z
" style="stroke:#000000;"/>
    <path clip-path="url(#pe93b3cce20)" d="M 187.705093 140.623794 
L 186.305979 134.218342 
L 188.408308 139.834229 
z
" style="stroke:#000000;"/>
    <path clip-path="url(#pe93b3cce20)" d="M 187.50131 183.232542 
L 183.225995 177.151785 
L 187.424492 177.1505 
z
" style="stroke:#000000;"/>
    <path clip-path="url(#pe93b3cce20)" d="M 187.424492 177.1505 
L 183.30207 171.065864 
L 187.50131 171.069115 
z
" style="stroke:#000000;"/>
    <path clip-path="url(#pe93b3cce20)" d="M 183.30207 171.065864 
L 187.424492 177.1505 
L 183.225995 177.151785 
z
" style="stroke:#000000;"/>
    <path clip-path="url(#pe93b3cce20)" d="M 183.225995 177.151785 
L 187.50131 183.232542 
L 183.30207 183.238364 
z
" style="stroke:#000000;"/>
    <path clip-path="url(#pe93b3cce20)" d="M 187.731102 189.255499 
L 183.30207 183.238364 
L 187.50131 183.232542 
z
" style="stroke:#000000;"/>
    <path clip-path="url(#pe93b3cce20)" d="M 187.424492 177.1505 
L 188.267469 177.154103 
L 187.50131 183.232542 
z
" style="stroke:#000000;"/>
    <path clip-path="url(#pe93b3cce20)" d="M 188.267469 177.154103 
L 187.424492 177.1505 
L 187.50131 171.069115 
z
" style="stroke:#000000;"/>
    <path clip-path="url(#pe93b3cce20)" d="M 187.50131 171.069115 
L 183.52964 165.040374 
L 187.731102 165.048121 
z
" style="stroke:#000000;"/>
    <path clip-path="url(#pe93b3cce20)" d="M 182.118305 151.603627 
L 184.200296 139.807617 
L 183.503882 140.597818 
z
" style="stroke:#000000;"/>
    <path clip-path="url(#pe93b3cce20)" d="M 182.118305 134.187692 
L 183.503882 140.597818 
L 184.200296 139.807617 
z
" style="stroke:#000000;"/>
    <path clip-path="url(#pe93b3cce20)" d="M 183.52964 165.040374 
L 187.50131 171.069115 
L 183.30207 171.065864 
z
" style="stroke:#000000;"/>
    <path clip-path="url(#pe93b3cce20)" d="M 183.30207 183.238364 
L 187.731102 189.255499 
L 183.52964 189.265821 
z
" style="stroke:#000000;"/>
    <path clip-path="url(#pe93b3cce20)" d="M 187.50131 183.232542 
L 188.339983 182.883117 
L 187.731102 189.255499 
z
" style="stroke:#000000;"/>
    <path clip-path="url(#pe93b3cce20)" d="M 188.339983 171.425708 
L 187.50131 171.069115 
L 187.731102 165.048121 
z
" style="stroke:#000000;"/>
    <path clip-path="url(#pe93b3cce20)" d="M 188.408308 139.834229 
L 182.118305 134.187692 
L 184.200296 139.807617 
z
" style="stroke:#000000;"/>
    <path clip-path="url(#pe93b3cce20)" d="M 182.118305 157.408938 
L 188.408308 139.834229 
L 184.200296 139.807617 
z
" style="stroke:#000000;"/>
    <path clip-path="url(#pe93b3cce20)" d="M 188.111866 195.159995 
L 183.52964 189.265821 
L 187.731102 189.255499 
z
" style="stroke:#000000;"/>
    <path clip-path="url(#pe93b3cce20)" d="M 183.225995 177.151785 
L 184.060819 177.155393 
L 183.30207 171.065864 
z
" style="stroke:#000000;"/>
    <path clip-path="url(#pe93b3cce20)" d="M 184.060819 177.155393 
L 183.225995 177.151785 
L 183.30207 183.238364 
z
" style="stroke:#000000;"/>
    <path clip-path="url(#pe93b3cce20)" d="M 187.50131 171.069115 
L 188.339983 171.425708 
L 188.267469 177.154103 
z
" style="stroke:#000000;"/>
    <path clip-path="url(#pe93b3cce20)" d="M 188.339983 182.883117 
L 187.50131 183.232542 
L 188.267469 177.154103 
z
" style="stroke:#000000;"/>
    <path clip-path="url(#pe93b3cce20)" d="M 183.906721 159.134717 
L 187.731102 165.048121 
L 183.52964 165.040374 
z
" style="stroke:#000000;"/>
    <path clip-path="url(#pe93b3cce20)" d="M 187.731102 165.048121 
L 183.906721 159.134717 
L 188.111866 159.14688 
z
" style="stroke:#000000;"/>
    <path clip-path="url(#pe93b3cce20)" d="M 187.731102 189.255499 
L 188.556875 188.556082 
L 188.111866 195.159995 
z
" style="stroke:#000000;"/>
    <path clip-path="url(#pe93b3cce20)" d="M 188.556875 165.754597 
L 187.731102 165.048121 
L 188.111866 159.14688 
z
" style="stroke:#000000;"/>
    <path clip-path="url(#pe93b3cce20)" d="M 183.30207 171.065864 
L 184.132632 171.422717 
L 183.52964 165.040374 
z
" style="stroke:#000000;"/>
    <path clip-path="url(#pe93b3cce20)" d="M 184.132632 182.88869 
L 183.30207 183.238364 
L 183.52964 189.265821 
z
" style="stroke:#000000;"/>
    <path clip-path="url(#pe93b3cce20)" d="M 183.52964 189.265821 
L 188.111866 195.159995 
L 183.906721 195.174738 
z
" style="stroke:#000000;"/>
    <path clip-path="url(#pe93b3cce20)" d="M 188.556875 188.556082 
L 187.731102 189.255499 
L 188.339983 182.883117 
z
" style="stroke:#000000;"/>
    <path clip-path="url(#pe93b3cce20)" d="M 187.731102 165.048121 
L 188.556875 165.754597 
L 188.339983 171.425708 
z
" style="stroke:#000000;"/>
    <path clip-path="url(#pe93b3cce20)" d="M 183.30207 183.238364 
L 184.132632 182.88869 
L 184.060819 177.155393 
z
" style="stroke:#000000;"/>
    <path clip-path="url(#pe93b3cce20)" d="M 184.132632 171.422717 
L 183.30207 171.065864 
L 184.060819 177.155393 
z
" style="stroke:#000000;"/>
    <path clip-path="url(#pe93b3cce20)" d="M 188.640263 200.887401 
L 183.906721 195.174738 
L 188.111866 195.159995 
z
" style="stroke:#000000;"/>
    <path clip-path="url(#pe93b3cce20)" d="M 188.339983 171.425708 
L 184.060819 177.155393 
L 188.267469 177.154103 
z
" style="stroke:#000000;"/>
    <path clip-path="url(#pe93b3cce20)" d="M 188.267469 177.154103 
L 184.132632 182.88869 
L 188.339983 182.883117 
z
" style="stroke:#000000;"/>
    <path clip-path="url(#pe93b3cce20)" d="M 183.52964 165.040374 
L 184.347426 165.747363 
L 183.906721 159.134717 
z
" style="stroke:#000000;"/>
    <path clip-path="url(#pe93b3cce20)" d="M 184.347426 188.565902 
L 183.52964 189.265821 
L 183.906721 195.174738 
z
" style="stroke:#000000;"/>
    <path clip-path="url(#pe93b3cce20)" d="M 184.430008 153.407531 
L 188.111866 159.14688 
L 183.906721 159.134717 
z
" style="stroke:#000000;"/>
    <path clip-path="url(#pe93b3cce20)" d="M 184.132632 182.88869 
L 188.267469 177.154103 
L 184.060819 177.155393 
z
" style="stroke:#000000;"/>
    <path clip-path="url(#pe93b3cce20)" d="M 184.347426 165.747363 
L 183.52964 165.040374 
L 184.132632 171.422717 
z
" style="stroke:#000000;"/>
    <path clip-path="url(#pe93b3cce20)" d="M 183.52964 189.265821 
L 184.347426 188.565902 
L 184.132632 182.88869 
z
" style="stroke:#000000;"/>
    <path clip-path="url(#pe93b3cce20)" d="M 188.556875 165.754597 
L 184.132632 171.422717 
L 188.339983 171.425708 
z
" style="stroke:#000000;"/>
    <path clip-path="url(#pe93b3cce20)" d="M 184.060819 177.155393 
L 188.339983 171.425708 
L 184.132632 171.422717 
z
" style="stroke:#000000;"/>
    <path clip-path="url(#pe93b3cce20)" d="M 188.916237 194.116757 
L 188.111866 195.159995 
L 188.556875 188.556082 
z
" style="stroke:#000000;"/>
    <path clip-path="url(#pe93b3cce20)" d="M 188.111866 159.14688 
L 188.916237 160.196994 
L 188.556875 165.754597 
z
" style="stroke:#000000;"/>
    <path clip-path="url(#pe93b3cce20)" d="M 188.111866 195.159995 
L 188.916237 194.116757 
L 188.640263 200.887401 
z
" style="stroke:#000000;"/>
    <path clip-path="url(#pe93b3cce20)" d="M 188.916237 160.196994 
L 188.111866 159.14688 
L 188.640263 153.423991 
z
" style="stroke:#000000;"/>
    <path clip-path="url(#pe93b3cce20)" d="M 188.111866 159.14688 
L 184.430008 153.407531 
L 188.640263 153.423991 
z
" style="stroke:#000000;"/>
    <path clip-path="url(#pe93b3cce20)" d="M 188.339983 182.883117 
L 184.347426 188.565902 
L 188.556875 188.556082 
z
" style="stroke:#000000;"/>
    <path clip-path="url(#pe93b3cce20)" d="M 184.347426 188.565902 
L 188.339983 182.883117 
L 184.132632 182.88869 
z
" style="stroke:#000000;"/>
    <path clip-path="url(#pe93b3cce20)" d="M 183.906721 195.174738 
L 188.640263 200.887401 
L 184.430008 200.906447 
z
" style="stroke:#000000;"/>
    <path clip-path="url(#pe93b3cce20)" d="M 184.132632 171.422717 
L 188.556875 165.754597 
L 184.347426 165.747363 
z
" style="stroke:#000000;"/>
    <path clip-path="url(#pe93b3cce20)" d="M 188.916237 160.196994 
L 184.347426 165.747363 
L 188.556875 165.754597 
z
" style="stroke:#000000;"/>
    <path clip-path="url(#pe93b3cce20)" d="M 184.703314 160.185593 
L 183.906721 159.134717 
L 184.347426 165.747363 
z
" style="stroke:#000000;"/>
    <path clip-path="url(#pe93b3cce20)" d="M 183.906721 195.174738 
L 184.703314 194.130748 
L 184.347426 188.565902 
z
" style="stroke:#000000;"/>
    <path clip-path="url(#pe93b3cce20)" d="M 183.906721 159.134717 
L 184.703314 160.185593 
L 184.430008 153.407531 
z
" style="stroke:#000000;"/>
    <path clip-path="url(#pe93b3cce20)" d="M 184.703314 194.130748 
L 183.906721 195.174738 
L 184.430008 200.906447 
z
" style="stroke:#000000;"/>
    <path clip-path="url(#pe93b3cce20)" d="M 184.703314 194.130748 
L 188.556875 188.556082 
L 184.347426 188.565902 
z
" style="stroke:#000000;"/>
    <path clip-path="url(#pe93b3cce20)" d="M 188.556875 188.556082 
L 184.703314 194.130748 
L 188.916237 194.116757 
z
" style="stroke:#000000;"/>
    <path clip-path="url(#pe93b3cce20)" d="M 189.311649 206.380343 
L 184.430008 200.906447 
L 188.640263 200.887401 
z
" style="stroke:#000000;"/>
    <path clip-path="url(#pe93b3cce20)" d="M 189.414877 199.509564 
L 188.640263 200.887401 
L 188.916237 194.116757 
z
" style="stroke:#000000;"/>
    <path clip-path="url(#pe93b3cce20)" d="M 188.640263 153.423991 
L 189.414877 154.808449 
L 188.916237 160.196994 
z
" style="stroke:#000000;"/>
    <path clip-path="url(#pe93b3cce20)" d="M 184.347426 165.747363 
L 188.916237 160.196994 
L 184.703314 160.185593 
z
" style="stroke:#000000;"/>
    <path clip-path="url(#pe93b3cce20)" d="M 185.094904 147.916188 
L 188.640263 153.423991 
L 184.430008 153.407531 
z
" style="stroke:#000000;"/>
    <path clip-path="url(#pe93b3cce20)" d="M 188.640263 200.887401 
L 189.414877 199.509564 
L 189.311649 206.380343 
z
" style="stroke:#000000;"/>
    <path clip-path="url(#pe93b3cce20)" d="M 189.414877 154.808449 
L 188.640263 153.423991 
L 189.311649 147.936787 
z
" style="stroke:#000000;"/>
    <path clip-path="url(#pe93b3cce20)" d="M 189.414877 154.808449 
L 184.703314 160.185593 
L 188.916237 160.196994 
z
" style="stroke:#000000;"/>
    <path clip-path="url(#pe93b3cce20)" d="M 188.640263 153.423991 
L 185.094904 147.916188 
L 189.311649 147.936787 
z
" style="stroke:#000000;"/>
    <path clip-path="url(#pe93b3cce20)" d="M 185.197133 199.527614 
L 188.916237 194.116757 
L 184.703314 194.130748 
z
" style="stroke:#000000;"/>
    <path clip-path="url(#pe93b3cce20)" d="M 184.430008 200.906447 
L 189.311649 206.380343 
L 185.094904 206.403538 
z
" style="stroke:#000000;"/>
    <path clip-path="url(#pe93b3cce20)" d="M 185.197133 154.792995 
L 184.430008 153.407531 
L 184.703314 160.185593 
z
" style="stroke:#000000;"/>
    <path clip-path="url(#pe93b3cce20)" d="M 184.430008 200.906447 
L 185.197133 199.527614 
L 184.703314 194.130748 
z
" style="stroke:#000000;"/>
    <path clip-path="url(#pe93b3cce20)" d="M 188.916237 194.116757 
L 185.197133 199.527614 
L 189.414877 199.509564 
z
" style="stroke:#000000;"/>
    <path clip-path="url(#pe93b3cce20)" d="M 184.430008 153.407531 
L 185.197133 154.792995 
L 185.094904 147.916188 
z
" style="stroke:#000000;"/>
    <path clip-path="url(#pe93b3cce20)" d="M 185.197133 199.527614 
L 184.430008 200.906447 
L 185.094904 206.403538 
z
" style="stroke:#000000;"/>
    <path clip-path="url(#pe93b3cce20)" d="M 184.703314 160.185593 
L 189.414877 154.808449 
L 185.197133 154.792995 
z
" style="stroke:#000000;"/>
    <path clip-path="url(#pe93b3cce20)" d="M 190.048333 204.680133 
L 189.311649 206.380343 
L 189.414877 199.509564 
z
" style="stroke:#000000;"/>
    <path clip-path="url(#pe93b3cce20)" d="M 189.311649 147.936787 
L 190.048333 149.643295 
L 189.414877 154.808449 
z
" style="stroke:#000000;"/>
    <path clip-path="url(#pe93b3cce20)" d="M 190.120033 211.582752 
L 185.094904 206.403538 
L 189.311649 206.380343 
z
" style="stroke:#000000;"/>
    <path clip-path="url(#pe93b3cce20)" d="M 190.048333 149.643295 
L 185.197133 154.792995 
L 189.414877 154.808449 
z
" style="stroke:#000000;"/>
    <path clip-path="url(#pe93b3cce20)" d="M 185.895474 142.716748 
L 189.311649 147.936787 
L 185.094904 147.916188 
z
" style="stroke:#000000;"/>
    <path clip-path="url(#pe93b3cce20)" d="M 189.311649 206.380343 
L 190.048333 204.680133 
L 190.120033 211.582752 
z
" style="stroke:#000000;"/>
    <path clip-path="url(#pe93b3cce20)" d="M 190.048333 149.643295 
L 189.311649 147.936787 
L 190.120033 142.741289 
z
" style="stroke:#000000;"/>
    <path clip-path="url(#pe93b3cce20)" d="M 185.824467 204.702093 
L 189.414877 199.509564 
L 185.197133 199.527614 
z
" style="stroke:#000000;"/>
    <path clip-path="url(#pe93b3cce20)" d="M 185.824467 149.623939 
L 185.094904 147.916188 
L 185.197133 154.792995 
z
" style="stroke:#000000;"/>
    <path clip-path="url(#pe93b3cce20)" d="M 185.094904 206.403538 
L 185.824467 204.702093 
L 185.197133 199.527614 
z
" style="stroke:#000000;"/>
    <path clip-path="url(#pe93b3cce20)" d="M 189.414877 199.509564 
L 185.824467 204.702093 
L 190.048333 204.680133 
z
" style="stroke:#000000;"/>
    <path clip-path="url(#pe93b3cce20)" d="M 189.311649 147.936787 
L 185.895474 142.716748 
L 190.120033 142.741289 
z
" style="stroke:#000000;"/>
    <path clip-path="url(#pe93b3cce20)" d="M 185.197133 154.792995 
L 190.048333 149.643295 
L 185.824467 149.623939 
z
" style="stroke:#000000;"/>
    <path clip-path="url(#pe93b3cce20)" d="M 185.094904 206.403538 
L 190.120033 211.582752 
L 185.895474 211.609899 
z
" style="stroke:#000000;"/>
    <path clip-path="url(#pe93b3cce20)" d="M 185.094904 147.916188 
L 185.824467 149.623939 
L 185.895474 142.716748 
z
" style="stroke:#000000;"/>
    <path clip-path="url(#pe93b3cce20)" d="M 185.824467 204.702093 
L 185.094904 206.403538 
L 185.895474 211.609899 
z
" style="stroke:#000000;"/>
    <path clip-path="url(#pe93b3cce20)" d="M 190.120033 211.582752 
L 190.048333 204.680133 
L 190.810892 209.575702 
z
" style="stroke:#000000;"/>
    <path clip-path="url(#pe93b3cce20)" d="M 190.048333 149.643295 
L 190.120033 142.741289 
L 190.810892 144.754244 
z
" style="stroke:#000000;"/>
    <path clip-path="url(#pe93b3cce20)" d="M 190.810892 144.754244 
L 185.824467 149.623939 
L 190.048333 149.643295 
z
" style="stroke:#000000;"/>
    <path clip-path="url(#pe93b3cce20)" d="M 186.579658 209.601386 
L 190.048333 204.680133 
L 185.824467 204.702093 
z
" style="stroke:#000000;"/>
    <path clip-path="url(#pe93b3cce20)" d="M 191.058129 216.441065 
L 185.895474 211.609899 
L 190.120033 211.582752 
z
" style="stroke:#000000;"/>
    <path clip-path="url(#pe93b3cce20)" d="M 185.895474 142.716748 
L 185.824467 149.623939 
L 186.579658 144.731175 
z
" style="stroke:#000000;"/>
    <path clip-path="url(#pe93b3cce20)" d="M 185.824467 204.702093 
L 185.895474 211.609899 
L 186.579658 209.601386 
z
" style="stroke:#000000;"/>
    <path clip-path="url(#pe93b3cce20)" d="M 186.824506 137.862746 
L 190.120033 142.741289 
L 185.895474 142.716748 
z
" style="stroke:#000000;"/>
    <path clip-path="url(#pe93b3cce20)" d="M 190.048333 204.680133 
L 186.579658 209.601386 
L 190.810892 209.575702 
z
" style="stroke:#000000;"/>
    <path clip-path="url(#pe93b3cce20)" d="M 190.120033 211.582752 
L 190.810892 209.575702 
L 191.058129 216.441065 
z
" style="stroke:#000000;"/>
    <path clip-path="url(#pe93b3cce20)" d="M 190.810892 144.754244 
L 190.120033 142.741289 
L 191.058129 137.890995 
z
" style="stroke:#000000;"/>
    <path clip-path="url(#pe93b3cce20)" d="M 185.824467 149.623939 
L 190.810892 144.754244 
L 186.579658 144.731175 
z
" style="stroke:#000000;"/>
    <path clip-path="url(#pe93b3cce20)" d="M 190.120033 142.741289 
L 186.824506 137.862746 
L 191.058129 137.890995 
z
" style="stroke:#000000;"/>
    <path clip-path="url(#pe93b3cce20)" d="M 185.895474 211.609899 
L 191.058129 216.441065 
L 186.824506 216.471931 
z
" style="stroke:#000000;"/>
    <path clip-path="url(#pe93b3cce20)" d="M 185.895474 142.716748 
L 186.579658 144.731175 
L 186.824506 137.862746 
z
" style="stroke:#000000;"/>
    <path clip-path="url(#pe93b3cce20)" d="M 186.579658 209.601386 
L 185.895474 211.609899 
L 186.824506 216.471931 
z
" style="stroke:#000000;"/>
    <path clip-path="url(#pe93b3cce20)" d="M 191.058129 216.441065 
L 190.810892 209.575702 
L 191.695592 214.145122 
z
" style="stroke:#000000;"/>
    <path clip-path="url(#pe93b3cce20)" d="M 190.810892 144.754244 
L 191.058129 137.890995 
L 191.695592 140.192387 
z
" style="stroke:#000000;"/>
    <path clip-path="url(#pe93b3cce20)" d="M 191.695592 140.192387 
L 186.579658 144.731175 
L 190.810892 144.754244 
z
" style="stroke:#000000;"/>
    <path clip-path="url(#pe93b3cce20)" d="M 187.455812 214.174306 
L 190.810892 209.575702 
L 186.579658 209.601386 
z
" style="stroke:#000000;"/>
    <path clip-path="url(#pe93b3cce20)" d="M 191.58706 218.669407 
L 186.824506 216.471931 
L 191.058129 216.441065 
z
" style="stroke:#000000;"/>
    <path clip-path="url(#pe93b3cce20)" d="M 187.348328 135.637213 
L 191.058129 137.890995 
L 186.824506 137.862746 
z
" style="stroke:#000000;"/>
    <path clip-path="url(#pe93b3cce20)" d="M 186.824506 137.862746 
L 186.579658 144.731175 
L 187.455812 140.165829 
z
" style="stroke:#000000;"/>
    <path clip-path="url(#pe93b3cce20)" d="M 186.579658 209.601386 
L 186.824506 216.471931 
L 187.455812 214.174306 
z
" style="stroke:#000000;"/>
    <path clip-path="url(#pe93b3cce20)" d="M 190.810892 209.575702 
L 187.455812 214.174306 
L 191.695592 214.145122 
z
" style="stroke:#000000;"/>
    <path clip-path="url(#pe93b3cce20)" d="M 191.058129 137.890995 
L 187.348328 135.637213 
L 191.58706 135.667174 
z
" style="stroke:#000000;"/>
    <path clip-path="url(#pe93b3cce20)" d="M 191.058129 216.441065 
L 191.961466 217.925585 
L 191.58706 218.669407 
z
" style="stroke:#000000;"/>
    <path clip-path="url(#pe93b3cce20)" d="M 191.961466 136.414196 
L 191.058129 137.890995 
L 191.58706 135.667174 
z
" style="stroke:#000000;"/>
    <path clip-path="url(#pe93b3cce20)" d="M 191.961466 217.925585 
L 191.058129 216.441065 
L 191.695592 214.145122 
z
" style="stroke:#000000;"/>
    <path clip-path="url(#pe93b3cce20)" d="M 191.058129 137.890995 
L 191.961466 136.414196 
L 191.695592 140.192387 
z
" style="stroke:#000000;"/>
    <path clip-path="url(#pe93b3cce20)" d="M 186.579658 144.731175 
L 191.695592 140.192387 
L 187.455812 140.165829 
z
" style="stroke:#000000;"/>
    <path clip-path="url(#pe93b3cce20)" d="M 186.824506 216.471931 
L 191.58706 218.669407 
L 187.348328 218.701992 
z
" style="stroke:#000000;"/>
    <path clip-path="url(#pe93b3cce20)" d="M 187.348328 135.637213 
L 191.961466 136.414196 
L 191.58706 135.667174 
z
" style="stroke:#000000;"/>
    <path clip-path="url(#pe93b3cce20)" d="M 186.824506 137.862746 
L 187.719118 136.384771 
L 187.348328 135.637213 
z
" style="stroke:#000000;"/>
    <path clip-path="url(#pe93b3cce20)" d="M 187.719118 217.95764 
L 186.824506 216.471931 
L 187.348328 218.701992 
z
" style="stroke:#000000;"/>
    <path clip-path="url(#pe93b3cce20)" d="M 187.719118 136.384771 
L 186.824506 137.862746 
L 187.455812 140.165829 
z
" style="stroke:#000000;"/>
    <path clip-path="url(#pe93b3cce20)" d="M 186.824506 216.471931 
L 187.719118 217.95764 
L 187.455812 214.174306 
z
" style="stroke:#000000;"/>
    <path clip-path="url(#pe93b3cce20)" d="M 191.58706 218.669407 
L 187.719118 217.95764 
L 187.348328 218.701992 
z
" style="stroke:#000000;"/>
    <path clip-path="url(#pe93b3cce20)" d="M 187.719118 217.95764 
L 191.58706 218.669407 
L 191.961466 217.925585 
z
" style="stroke:#000000;"/>
    <path clip-path="url(#pe93b3cce20)" d="M 191.961466 217.925585 
L 191.695592 214.145122 
L 192.355441 216.916885 
z
" style="stroke:#000000;"/>
    <path clip-path="url(#pe93b3cce20)" d="M 191.695592 140.192387 
L 191.961466 136.414196 
L 192.355441 137.426263 
z
" style="stroke:#000000;"/>
    <path clip-path="url(#pe93b3cce20)" d="M 187.455812 214.174306 
L 192.355441 216.916885 
L 191.695592 214.145122 
z
" style="stroke:#000000;"/>
    <path clip-path="url(#pe93b3cce20)" d="M 191.961466 136.414196 
L 187.348328 135.637213 
L 187.719118 136.384771 
z
" style="stroke:#000000;"/>
    <path clip-path="url(#pe93b3cce20)" d="M 191.695592 140.192387 
L 188.109289 137.397574 
L 187.455812 140.165829 
z
" style="stroke:#000000;"/>
    <path clip-path="url(#pe93b3cce20)" d="M 187.719118 136.384771 
L 192.355441 137.426263 
L 191.961466 136.414196 
z
" style="stroke:#000000;"/>
    <path clip-path="url(#pe93b3cce20)" d="M 188.109289 137.397574 
L 191.695592 140.192387 
L 192.355441 137.426263 
z
" style="stroke:#000000;"/>
    <path clip-path="url(#pe93b3cce20)" d="M 191.961466 217.925585 
L 188.109289 216.948209 
L 187.719118 217.95764 
z
" style="stroke:#000000;"/>
    <path clip-path="url(#pe93b3cce20)" d="M 187.719118 136.384771 
L 187.455812 140.165829 
L 188.109289 137.397574 
z
" style="stroke:#000000;"/>
    <path clip-path="url(#pe93b3cce20)" d="M 187.455812 214.174306 
L 187.719118 217.95764 
L 188.109289 216.948209 
z
" style="stroke:#000000;"/>
    <path clip-path="url(#pe93b3cce20)" d="M 188.109289 216.948209 
L 191.961466 217.925585 
L 192.355441 216.916885 
z
" style="stroke:#000000;"/>
    <path clip-path="url(#pe93b3cce20)" d="M 192.355441 216.916885 
L 187.455812 214.174306 
L 188.109289 216.948209 
z
" style="stroke:#000000;"/>
    <path clip-path="url(#pe93b3cce20)" d="M 192.355441 137.426263 
L 187.719118 136.384771 
L 188.109289 137.397574 
z
" style="stroke:#000000;"/>
   </g>
  </g>
 </g>
 <defs>
  <clipPath id="pe93b3cce20">
   <rect height="271.8" width="279" x="45" y="43.2"/>
  </clipPath>
 </defs>
</svg>
