<?xml version="1.0" encoding="utf-8" standalone="no"?>
<!DOCTYPE svg PUBLIC "-//W3C//DTD SVG 1.1//EN"
  "http://www.w3.org/Graphics/SVG/1.1/DTD/svg11.dtd">
<!-- Created with matplotlib (https://matplotlib.org/) -->
<svg height="360pt" version="1.1" viewBox="0 0 360 360" width="360pt" xmlns="http://www.w3.org/2000/svg" xmlns:xlink="http://www.w3.org/1999/xlink">
 <defs>
  <style type="text/css">
*{stroke-linecap:butt;stroke-linejoin:round;}
  </style>
 </defs>
 <g id="figure_1">
  <g id="patch_1">
   <path d="M 0 360 
L 360 360 
L 360 0 
L 0 0 
z
" style="fill:#ffffff;"/>
  </g>
  <g id="patch_2">
   <path d="M 45 315 
L 324 315 
L 324 43.2 
L 45 43.2 
z
" style="fill:#ffffff;"/>
  </g>
  <g id="axes_1">
   <g id="Poly3DCollection_1">
    <path clip-path="url(#pb2d9f93932)" d="M 197.423637 177.140266 
L 194.185943 177.140266 
L 194.481545 171.095817 
z
" style="stroke:#000000;"/>
    <path clip-path="url(#pb2d9f93932)" d="M 197.701517 171.458478 
L 194.481545 171.095817 
L 195.365133 165.117589 
z
" style="stroke:#000000;"/>
    <path clip-path="url(#pb2d9f93932)" d="M 194.185943 177.140266 
L 197.423637 177.140266 
L 194.481545 183.184715 
z
" style="stroke:#000000;"/>
    <path clip-path="url(#pb2d9f93932)" d="M 198.532072 165.838956 
L 195.365133 165.117589 
L 196.827016 159.27109 
z
" style="stroke:#000000;"/>
    <path clip-path="url(#pb2d9f93932)" d="M 197.701517 182.822054 
L 194.481545 183.184715 
L 197.423637 177.140266 
z
" style="stroke:#000000;"/>
    <path clip-path="url(#pb2d9f93932)" d="M 194.481545 183.184715 
L 197.701517 182.822054 
L 195.365133 189.162943 
z
" style="stroke:#000000;"/>
    <path clip-path="url(#pb2d9f93932)" d="M 194.481545 171.095817 
L 197.701517 171.458478 
L 197.423637 177.140266 
z
" style="stroke:#000000;"/>
    <path clip-path="url(#pb2d9f93932)" d="M 195.365133 165.117589 
L 198.532072 165.838956 
L 197.701517 171.458478 
z
" style="stroke:#000000;"/>
    <path clip-path="url(#pb2d9f93932)" d="M 199.906235 160.343228 
L 196.827016 159.27109 
L 198.851157 153.620389 
z
" style="stroke:#000000;"/>
    <path clip-path="url(#pb2d9f93932)" d="M 196.827016 159.27109 
L 199.906235 160.343228 
L 198.532072 165.838956 
z
" style="stroke:#000000;"/>
    <path clip-path="url(#pb2d9f93932)" d="M 201.808942 155.03155 
L 198.851157 153.620389 
L 201.415433 148.227313 
z
" style="stroke:#000000;"/>
    <path clip-path="url(#pb2d9f93932)" d="M 198.851157 153.620389 
L 201.808942 155.03155 
L 199.906235 160.343228 
z
" style="stroke:#000000;"/>
    <path clip-path="url(#pb2d9f93932)" d="M 201.415433 148.227313 
L 204.21934 149.96209 
L 201.808942 155.03155 
z
" style="stroke:#000000;"/>
    <path clip-path="url(#pb2d9f93932)" d="M 204.491695 143.151124 
L 204.21934 149.96209 
L 201.415433 148.227313 
z
" style="stroke:#000000;"/>
    <path clip-path="url(#pb2d9f93932)" d="M 204.491695 143.151124 
L 207.111032 145.190297 
L 204.21934 149.96209 
z
" style="stroke:#000000;"/>
    <path clip-path="url(#pb2d9f93932)" d="M 208.046251 138.447102 
L 207.111032 145.190297 
L 204.491695 143.151124 
z
" style="stroke:#000000;"/>
    <path clip-path="url(#pb2d9f93932)" d="M 211.453643 137.077323 
L 208.046251 138.447102 
L 210.043216 136.307082 
z
" style="stroke:#000000;"/>
    <path clip-path="url(#pb2d9f93932)" d="M 208.046251 138.447102 
L 210.452333 140.768697 
L 207.111032 145.190297 
z
" style="stroke:#000000;"/>
    <path clip-path="url(#pb2d9f93932)" d="M 208.046251 138.447102 
L 211.453643 137.077323 
L 210.452333 140.768697 
z
" style="stroke:#000000;"/>
    <path clip-path="url(#pb2d9f93932)" d="M 210.452333 140.768697 
L 211.453643 137.077323 
L 212.934996 138.108243 
z
" style="stroke:#000000;"/>
    <path clip-path="url(#pb2d9f93932)" d="M 198.532072 188.441576 
L 195.365133 189.162943 
L 197.701517 182.822054 
z
" style="stroke:#000000;"/>
    <path clip-path="url(#pb2d9f93932)" d="M 195.365133 189.162943 
L 198.532072 188.441576 
L 196.827016 195.009442 
z
" style="stroke:#000000;"/>
    <path clip-path="url(#pb2d9f93932)" d="M 199.906235 193.937304 
L 196.827016 195.009442 
L 198.532072 188.441576 
z
" style="stroke:#000000;"/>
    <path clip-path="url(#pb2d9f93932)" d="M 196.827016 195.009442 
L 199.906235 193.937304 
L 198.851157 200.660143 
z
" style="stroke:#000000;"/>
    <path clip-path="url(#pb2d9f93932)" d="M 201.808942 199.248982 
L 198.851157 200.660143 
L 199.906235 193.937304 
z
" style="stroke:#000000;"/>
    <path clip-path="url(#pb2d9f93932)" d="M 198.851157 200.660143 
L 201.808942 199.248982 
L 201.415433 206.053219 
z
" style="stroke:#000000;"/>
    <path clip-path="url(#pb2d9f93932)" d="M 204.21934 204.318442 
L 201.415433 206.053219 
L 201.808942 199.248982 
z
" style="stroke:#000000;"/>
    <path clip-path="url(#pb2d9f93932)" d="M 204.21934 204.318442 
L 204.491695 211.129408 
L 201.415433 206.053219 
z
" style="stroke:#000000;"/>
    <path clip-path="url(#pb2d9f93932)" d="M 207.111032 209.090235 
L 204.491695 211.129408 
L 204.21934 204.318442 
z
" style="stroke:#000000;"/>
    <path clip-path="url(#pb2d9f93932)" d="M 207.111032 209.090235 
L 208.046251 215.83343 
L 204.491695 211.129408 
z
" style="stroke:#000000;"/>
    <path clip-path="url(#pb2d9f93932)" d="M 210.452333 213.511835 
L 208.046251 215.83343 
L 207.111032 209.090235 
z
" style="stroke:#000000;"/>
    <path clip-path="url(#pb2d9f93932)" d="M 211.453643 217.203209 
L 208.046251 215.83343 
L 210.452333 213.511835 
z
" style="stroke:#000000;"/>
    <path clip-path="url(#pb2d9f93932)" d="M 208.046251 215.83343 
L 211.453643 217.203209 
L 210.043216 217.97345 
z
" style="stroke:#000000;"/>
    <path clip-path="url(#pb2d9f93932)" d="M 211.453643 217.203209 
L 210.452333 213.511835 
L 212.934996 216.172289 
z
" style="stroke:#000000;"/>
    <path clip-path="url(#pb2d9f93932)" d="M 168.284394 137.077323 
L 169.285703 140.768697 
L 166.80304 138.108243 
z
" style="stroke:#000000;"/>
    <path clip-path="url(#pb2d9f93932)" d="M 171.691785 138.447102 
L 168.284394 137.077323 
L 169.69482 136.307082 
z
" style="stroke:#000000;"/>
    <path clip-path="url(#pb2d9f93932)" d="M 168.284394 137.077323 
L 171.691785 138.447102 
L 169.285703 140.768697 
z
" style="stroke:#000000;"/>
    <path clip-path="url(#pb2d9f93932)" d="M 171.691785 138.447102 
L 172.627004 145.190297 
L 169.285703 140.768697 
z
" style="stroke:#000000;"/>
    <path clip-path="url(#pb2d9f93932)" d="M 175.246342 143.151124 
L 172.627004 145.190297 
L 171.691785 138.447102 
z
" style="stroke:#000000;"/>
    <path clip-path="url(#pb2d9f93932)" d="M 175.246342 143.151124 
L 175.518697 149.96209 
L 172.627004 145.190297 
z
" style="stroke:#000000;"/>
    <path clip-path="url(#pb2d9f93932)" d="M 178.322604 148.227313 
L 175.518697 149.96209 
L 175.246342 143.151124 
z
" style="stroke:#000000;"/>
    <path clip-path="url(#pb2d9f93932)" d="M 175.518697 149.96209 
L 178.322604 148.227313 
L 177.929094 155.03155 
z
" style="stroke:#000000;"/>
    <path clip-path="url(#pb2d9f93932)" d="M 180.886879 153.620389 
L 177.929094 155.03155 
L 178.322604 148.227313 
z
" style="stroke:#000000;"/>
    <path clip-path="url(#pb2d9f93932)" d="M 177.929094 155.03155 
L 180.886879 153.620389 
L 179.831801 160.343228 
z
" style="stroke:#000000;"/>
    <path clip-path="url(#pb2d9f93932)" d="M 182.91102 159.27109 
L 179.831801 160.343228 
L 180.886879 153.620389 
z
" style="stroke:#000000;"/>
    <path clip-path="url(#pb2d9f93932)" d="M 179.831801 160.343228 
L 182.91102 159.27109 
L 181.205965 165.838956 
z
" style="stroke:#000000;"/>
    <path clip-path="url(#pb2d9f93932)" d="M 181.205965 165.838956 
L 184.372904 165.117589 
L 182.036519 171.458478 
z
" style="stroke:#000000;"/>
    <path clip-path="url(#pb2d9f93932)" d="M 184.372904 165.117589 
L 181.205965 165.838956 
L 182.91102 159.27109 
z
" style="stroke:#000000;"/>
    <path clip-path="url(#pb2d9f93932)" d="M 169.285703 213.511835 
L 168.284394 217.203209 
L 166.80304 216.172289 
z
" style="stroke:#000000;"/>
    <path clip-path="url(#pb2d9f93932)" d="M 171.691785 215.83343 
L 168.284394 217.203209 
L 169.285703 213.511835 
z
" style="stroke:#000000;"/>
    <path clip-path="url(#pb2d9f93932)" d="M 168.284394 217.203209 
L 171.691785 215.83343 
L 169.69482 217.97345 
z
" style="stroke:#000000;"/>
    <path clip-path="url(#pb2d9f93932)" d="M 172.627004 209.090235 
L 171.691785 215.83343 
L 169.285703 213.511835 
z
" style="stroke:#000000;"/>
    <path clip-path="url(#pb2d9f93932)" d="M 172.627004 209.090235 
L 175.246342 211.129408 
L 171.691785 215.83343 
z
" style="stroke:#000000;"/>
    <path clip-path="url(#pb2d9f93932)" d="M 175.518697 204.318442 
L 175.246342 211.129408 
L 172.627004 209.090235 
z
" style="stroke:#000000;"/>
    <path clip-path="url(#pb2d9f93932)" d="M 178.322604 206.053219 
L 175.518697 204.318442 
L 177.929094 199.248982 
z
" style="stroke:#000000;"/>
    <path clip-path="url(#pb2d9f93932)" d="M 175.518697 204.318442 
L 178.322604 206.053219 
L 175.246342 211.129408 
z
" style="stroke:#000000;"/>
    <path clip-path="url(#pb2d9f93932)" d="M 180.886879 200.660143 
L 177.929094 199.248982 
L 179.831801 193.937304 
z
" style="stroke:#000000;"/>
    <path clip-path="url(#pb2d9f93932)" d="M 177.929094 199.248982 
L 180.886879 200.660143 
L 178.322604 206.053219 
z
" style="stroke:#000000;"/>
    <path clip-path="url(#pb2d9f93932)" d="M 182.91102 195.009442 
L 179.831801 193.937304 
L 181.205965 188.441576 
z
" style="stroke:#000000;"/>
    <path clip-path="url(#pb2d9f93932)" d="M 184.372904 189.162943 
L 181.205965 188.441576 
L 182.036519 182.822054 
z
" style="stroke:#000000;"/>
    <path clip-path="url(#pb2d9f93932)" d="M 179.831801 193.937304 
L 182.91102 195.009442 
L 180.886879 200.660143 
z
" style="stroke:#000000;"/>
    <path clip-path="url(#pb2d9f93932)" d="M 185.256492 183.184715 
L 182.036519 182.822054 
L 182.3144 177.140266 
z
" style="stroke:#000000;"/>
    <path clip-path="url(#pb2d9f93932)" d="M 185.256492 171.095817 
L 182.036519 171.458478 
L 184.372904 165.117589 
z
" style="stroke:#000000;"/>
    <path clip-path="url(#pb2d9f93932)" d="M 182.036519 171.458478 
L 185.256492 171.095817 
L 182.3144 177.140266 
z
" style="stroke:#000000;"/>
    <path clip-path="url(#pb2d9f93932)" d="M 181.205965 188.441576 
L 184.372904 189.162943 
L 182.91102 195.009442 
z
" style="stroke:#000000;"/>
    <path clip-path="url(#pb2d9f93932)" d="M 185.552093 177.140266 
L 182.3144 177.140266 
L 185.256492 171.095817 
z
" style="stroke:#000000;"/>
    <path clip-path="url(#pb2d9f93932)" d="M 182.036519 182.822054 
L 185.256492 183.184715 
L 184.372904 189.162943 
z
" style="stroke:#000000;"/>
    <path clip-path="url(#pb2d9f93932)" d="M 182.3144 177.140266 
L 185.552093 177.140266 
L 185.256492 183.184715 
z
" style="stroke:#000000;"/>
    <path clip-path="url(#pb2d9f93932)" d="M 189.869018 134.349096 
L 184.472862 140.85451 
L 181.774784 140.131686 
z
" style="stroke:#000000;"/>
    <path clip-path="url(#pb2d9f93932)" d="M 189.869018 134.349096 
L 189.869018 137.240391 
L 184.472862 140.85451 
z
" style="stroke:#000000;"/>
    <path clip-path="url(#pb2d9f93932)" d="M 189.869018 134.349096 
L 195.265174 140.85451 
L 189.869018 137.240391 
z
" style="stroke:#000000;"/>
    <path clip-path="url(#pb2d9f93932)" d="M 195.265174 140.85451 
L 189.869018 134.349096 
L 197.963252 140.131686 
z
" style="stroke:#000000;"/>
    <path clip-path="url(#pb2d9f93932)" d="M 189.869018 151.696867 
L 181.774784 140.131686 
L 184.472862 140.85451 
z
" style="stroke:#000000;"/>
    <path clip-path="url(#pb2d9f93932)" d="M 189.869018 151.696867 
L 189.869018 157.479458 
L 181.774784 140.131686 
z
" style="stroke:#000000;"/>
    <path clip-path="url(#pb2d9f93932)" d="M 197.963252 140.131686 
L 189.869018 151.696867 
L 195.265174 140.85451 
z
" style="stroke:#000000;"/>
    <path clip-path="url(#pb2d9f93932)" d="M 189.869018 151.696867 
L 197.963252 140.131686 
L 189.869018 157.479458 
z
" style="stroke:#000000;"/>
    <path clip-path="url(#pb2d9f93932)" d="M 182.91102 195.009442 
L 180.865684 200.73258 
L 180.886879 200.660143 
z
" style="stroke:#000000;"/>
    <path clip-path="url(#pb2d9f93932)" d="M 178.322604 206.053219 
L 175.208954 211.231899 
L 175.246342 211.129408 
z
" style="stroke:#000000;"/>
    <path clip-path="url(#pb2d9f93932)" d="M 175.246342 211.129408 
L 171.644194 215.949425 
L 171.691785 215.83343 
z
" style="stroke:#000000;"/>
    <path clip-path="url(#pb2d9f93932)" d="M 169.69482 136.307082 
L 171.644194 138.340944 
L 171.691785 138.447102 
z
" style="stroke:#000000;"/>
    <path clip-path="url(#pb2d9f93932)" d="M 171.691785 215.83343 
L 169.641496 218.095588 
L 169.69482 217.97345 
z
" style="stroke:#000000;"/>
    <path clip-path="url(#pb2d9f93932)" d="M 180.886879 200.660143 
L 178.294047 206.141137 
L 178.322604 206.053219 
z
" style="stroke:#000000;"/>
    <path clip-path="url(#pb2d9f93932)" d="M 171.691785 138.447102 
L 175.208954 143.058469 
L 175.246342 143.151124 
z
" style="stroke:#000000;"/>
    <path clip-path="url(#pb2d9f93932)" d="M 175.246342 143.151124 
L 178.294047 148.149231 
L 178.322604 148.227313 
z
" style="stroke:#000000;"/>
    <path clip-path="url(#pb2d9f93932)" d="M 184.372904 165.117589 
L 185.24784 171.083383 
L 185.256492 171.095817 
z
" style="stroke:#000000;"/>
    <path clip-path="url(#pb2d9f93932)" d="M 180.886879 153.620389 
L 182.895636 159.224711 
L 182.91102 159.27109 
z
" style="stroke:#000000;"/>
    <path clip-path="url(#pb2d9f93932)" d="M 178.322604 148.227313 
L 180.865684 153.557789 
L 180.886879 153.620389 
z
" style="stroke:#000000;"/>
    <path clip-path="url(#pb2d9f93932)" d="M 184.372904 189.162943 
L 182.895636 195.065657 
L 182.91102 195.009442 
z
" style="stroke:#000000;"/>
    <path clip-path="url(#pb2d9f93932)" d="M 185.256492 183.184715 
L 184.361716 189.202374 
L 184.372904 189.162943 
z
" style="stroke:#000000;"/>
    <path clip-path="url(#pb2d9f93932)" d="M 185.552093 177.140266 
L 185.24784 183.206985 
L 185.256492 183.184715 
z
" style="stroke:#000000;"/>
    <path clip-path="url(#pb2d9f93932)" d="M 182.91102 159.27109 
L 184.361716 165.087994 
L 184.372904 165.117589 
z
" style="stroke:#000000;"/>
    <path clip-path="url(#pb2d9f93932)" d="M 185.256492 171.095817 
L 185.54429 177.145184 
L 185.552093 177.140266 
z
" style="stroke:#000000;"/>
    <path clip-path="url(#pb2d9f93932)" d="M 175.518697 149.96209 
L 172.582097 145.103497 
L 172.627004 145.190297 
z
" style="stroke:#000000;"/>
    <path clip-path="url(#pb2d9f93932)" d="M 181.205965 188.441576 
L 182.018624 182.843283 
L 182.036519 182.822054 
z
" style="stroke:#000000;"/>
    <path clip-path="url(#pb2d9f93932)" d="M 177.929094 199.248982 
L 179.807577 193.990441 
L 179.831801 193.937304 
z
" style="stroke:#000000;"/>
    <path clip-path="url(#pb2d9f93932)" d="M 172.627004 209.090235 
L 175.482091 204.40138 
L 175.518697 204.318442 
z
" style="stroke:#000000;"/>
    <path clip-path="url(#pb2d9f93932)" d="M 182.036519 171.458478 
L 181.185685 165.811431 
L 181.205965 165.838956 
z
" style="stroke:#000000;"/>
    <path clip-path="url(#pb2d9f93932)" d="M 166.741414 216.289256 
L 169.285703 213.511835 
L 166.80304 216.172289 
z
" style="stroke:#000000;"/>
    <path clip-path="url(#pb2d9f93932)" d="M 179.831801 193.937304 
L 181.185685 188.478937 
L 181.205965 188.441576 
z
" style="stroke:#000000;"/>
    <path clip-path="url(#pb2d9f93932)" d="M 175.518697 204.318442 
L 177.899408 199.317368 
L 177.929094 199.248982 
z
" style="stroke:#000000;"/>
    <path clip-path="url(#pb2d9f93932)" d="M 169.231205 140.669203 
L 166.80304 138.108243 
L 169.285703 140.768697 
z
" style="stroke:#000000;"/>
    <path clip-path="url(#pb2d9f93932)" d="M 172.627004 145.190297 
L 169.231205 140.669203 
L 169.285703 140.768697 
z
" style="stroke:#000000;"/>
    <path clip-path="url(#pb2d9f93932)" d="M 179.831801 160.343228 
L 177.899408 154.973 
L 177.929094 155.03155 
z
" style="stroke:#000000;"/>
    <path clip-path="url(#pb2d9f93932)" d="M 182.036519 182.822054 
L 182.297302 177.145184 
L 182.3144 177.140266 
z
" style="stroke:#000000;"/>
    <path clip-path="url(#pb2d9f93932)" d="M 169.285703 213.511835 
L 172.582097 209.186872 
L 172.627004 209.090235 
z
" style="stroke:#000000;"/>
    <path clip-path="url(#pb2d9f93932)" d="M 181.205965 165.838956 
L 179.807577 160.299927 
L 179.831801 160.343228 
z
" style="stroke:#000000;"/>
    <path clip-path="url(#pb2d9f93932)" d="M 182.3144 177.140266 
L 182.018624 171.447085 
L 182.036519 171.458478 
z
" style="stroke:#000000;"/>
    <path clip-path="url(#pb2d9f93932)" d="M 177.929094 155.03155 
L 175.482091 149.888988 
L 175.518697 149.96209 
z
" style="stroke:#000000;"/>
    <path clip-path="url(#pb2d9f93932)" d="M 196.827016 159.27109 
L 198.881532 153.557789 
L 198.851157 153.620389 
z
" style="stroke:#000000;"/>
    <path clip-path="url(#pb2d9f93932)" d="M 201.415433 148.227313 
L 204.538262 143.058469 
L 204.491695 143.151124 
z
" style="stroke:#000000;"/>
    <path clip-path="url(#pb2d9f93932)" d="M 204.491695 143.151124 
L 208.103022 138.340944 
L 208.046251 138.447102 
z
" style="stroke:#000000;"/>
    <path clip-path="url(#pb2d9f93932)" d="M 210.043216 217.97345 
L 208.103022 215.949425 
L 208.046251 215.83343 
z
" style="stroke:#000000;"/>
    <path clip-path="url(#pb2d9f93932)" d="M 208.046251 138.447102 
L 210.10572 136.19478 
L 210.043216 136.307082 
z
" style="stroke:#000000;"/>
    <path clip-path="url(#pb2d9f93932)" d="M 198.851157 153.620389 
L 201.453168 148.149231 
L 201.415433 148.227313 
z
" style="stroke:#000000;"/>
    <path clip-path="url(#pb2d9f93932)" d="M 208.046251 215.83343 
L 204.538262 211.231899 
L 204.491695 211.129408 
z
" style="stroke:#000000;"/>
    <path clip-path="url(#pb2d9f93932)" d="M 204.491695 211.129408 
L 201.453168 206.141137 
L 201.415433 206.053219 
z
" style="stroke:#000000;"/>
    <path clip-path="url(#pb2d9f93932)" d="M 195.365133 189.162943 
L 194.499375 183.206985 
L 194.481545 183.184715 
z
" style="stroke:#000000;"/>
    <path clip-path="url(#pb2d9f93932)" d="M 198.851157 200.660143 
L 196.85158 195.065657 
L 196.827016 195.009442 
z
" style="stroke:#000000;"/>
    <path clip-path="url(#pb2d9f93932)" d="M 201.415433 206.053219 
L 198.881532 200.73258 
L 198.851157 200.660143 
z
" style="stroke:#000000;"/>
    <path clip-path="url(#pb2d9f93932)" d="M 195.365133 165.117589 
L 196.85158 159.224711 
L 196.827016 159.27109 
z
" style="stroke:#000000;"/>
    <path clip-path="url(#pb2d9f93932)" d="M 194.481545 171.095817 
L 195.3855 165.087994 
L 195.365133 165.117589 
z
" style="stroke:#000000;"/>
    <path clip-path="url(#pb2d9f93932)" d="M 194.185943 177.140266 
L 194.499375 171.083383 
L 194.481545 171.095817 
z
" style="stroke:#000000;"/>
    <path clip-path="url(#pb2d9f93932)" d="M 196.827016 195.009442 
L 195.3855 189.202374 
L 195.365133 189.162943 
z
" style="stroke:#000000;"/>
    <path clip-path="url(#pb2d9f93932)" d="M 194.481545 183.184715 
L 194.202925 177.145184 
L 194.185943 177.140266 
z
" style="stroke:#000000;"/>
    <path clip-path="url(#pb2d9f93932)" d="M 204.21934 204.318442 
L 207.165118 209.186872 
L 207.111032 209.090235 
z
" style="stroke:#000000;"/>
    <path clip-path="url(#pb2d9f93932)" d="M 198.532072 165.838956 
L 197.728592 171.447085 
L 197.701517 171.458478 
z
" style="stroke:#000000;"/>
    <path clip-path="url(#pb2d9f93932)" d="M 201.808942 155.03155 
L 199.939639 160.299927 
L 199.906235 160.343228 
z
" style="stroke:#000000;"/>
    <path clip-path="url(#pb2d9f93932)" d="M 207.111032 145.190297 
L 204.265125 149.888988 
L 204.21934 149.96209 
z
" style="stroke:#000000;"/>
    <path clip-path="url(#pb2d9f93932)" d="M 197.701517 182.822054 
L 198.56153 188.478937 
L 198.532072 188.441576 
z
" style="stroke:#000000;"/>
    <path clip-path="url(#pb2d9f93932)" d="M 213.005801 138.001112 
L 210.452333 140.768697 
L 212.934996 138.108243 
z
" style="stroke:#000000;"/>
    <path clip-path="url(#pb2d9f93932)" d="M 199.906235 160.343228 
L 198.56153 165.811431 
L 198.532072 165.838956 
z
" style="stroke:#000000;"/>
    <path clip-path="url(#pb2d9f93932)" d="M 204.21934 149.96209 
L 201.847807 154.973 
L 201.808942 155.03155 
z
" style="stroke:#000000;"/>
    <path clip-path="url(#pb2d9f93932)" d="M 210.516011 213.621165 
L 212.934996 216.172289 
L 210.452333 213.511835 
z
" style="stroke:#000000;"/>
    <path clip-path="url(#pb2d9f93932)" d="M 207.111032 209.090235 
L 210.516011 213.621165 
L 210.452333 213.511835 
z
" style="stroke:#000000;"/>
    <path clip-path="url(#pb2d9f93932)" d="M 199.906235 193.937304 
L 201.847807 199.317368 
L 201.808942 199.248982 
z
" style="stroke:#000000;"/>
    <path clip-path="url(#pb2d9f93932)" d="M 197.701517 171.458478 
L 197.449913 177.145184 
L 197.423637 177.140266 
z
" style="stroke:#000000;"/>
    <path clip-path="url(#pb2d9f93932)" d="M 210.452333 140.768697 
L 207.165118 145.103497 
L 207.111032 145.190297 
z
" style="stroke:#000000;"/>
    <path clip-path="url(#pb2d9f93932)" d="M 198.532072 188.441576 
L 199.939639 193.990441 
L 199.906235 193.937304 
z
" style="stroke:#000000;"/>
    <path clip-path="url(#pb2d9f93932)" d="M 197.423637 177.140266 
L 197.728592 182.843283 
L 197.701517 182.822054 
z
" style="stroke:#000000;"/>
    <path clip-path="url(#pb2d9f93932)" d="M 201.808942 199.248982 
L 204.265125 204.40138 
L 204.21934 204.318442 
z
" style="stroke:#000000;"/>
    <path clip-path="url(#pb2d9f93932)" d="M 211.520195 136.967233 
L 212.934996 138.108243 
L 211.453643 137.077323 
z
" style="stroke:#000000;"/>
    <path clip-path="url(#pb2d9f93932)" d="M 166.741414 138.001112 
L 168.284394 137.077323 
L 166.80304 138.108243 
z
" style="stroke:#000000;"/>
    <path clip-path="url(#pb2d9f93932)" d="M 211.520195 217.323135 
L 210.043216 217.97345 
L 211.453643 217.203209 
z
" style="stroke:#000000;"/>
    <path clip-path="url(#pb2d9f93932)" d="M 168.22702 136.967233 
L 169.69482 136.307082 
L 168.284394 137.077323 
z
" style="stroke:#000000;"/>
    <path clip-path="url(#pb2d9f93932)" d="M 169.641496 218.095588 
L 168.284394 217.203209 
L 169.69482 217.97345 
z
" style="stroke:#000000;"/>
    <path clip-path="url(#pb2d9f93932)" d="M 210.10572 136.19478 
L 211.453643 137.077323 
L 210.043216 136.307082 
z
" style="stroke:#000000;"/>
    <path clip-path="url(#pb2d9f93932)" d="M 168.22702 217.323135 
L 166.80304 216.172289 
L 168.284394 217.203209 
z
" style="stroke:#000000;"/>
    <path clip-path="url(#pb2d9f93932)" d="M 213.005801 216.289256 
L 211.453643 217.203209 
L 212.934996 216.172289 
z
" style="stroke:#000000;"/>
    <path clip-path="url(#pb2d9f93932)" d="M 181.756137 140.030364 
L 189.869018 134.349096 
L 181.774784 140.131686 
z
" style="stroke:#000000;"/>
    <path clip-path="url(#pb2d9f93932)" d="M 189.873608 134.231174 
L 197.963252 140.131686 
L 189.869018 134.349096 
z
" style="stroke:#000000;"/>
    <path clip-path="url(#pb2d9f93932)" d="M 197.963252 140.131686 
L 189.873608 157.427936 
L 189.869018 157.479458 
z
" style="stroke:#000000;"/>
    <path clip-path="url(#pb2d9f93932)" d="M 189.869018 157.479458 
L 181.756137 140.030364 
L 181.774784 140.131686 
z
" style="stroke:#000000;"/>
    <path clip-path="url(#pb2d9f93932)" d="M 195.285255 140.755263 
L 189.869018 137.240391 
L 195.265174 140.85451 
z
" style="stroke:#000000;"/>
    <path clip-path="url(#pb2d9f93932)" d="M 189.873608 137.130769 
L 184.472862 140.85451 
L 189.869018 137.240391 
z
" style="stroke:#000000;"/>
    <path clip-path="url(#pb2d9f93932)" d="M 184.472862 140.85451 
L 189.873608 151.628745 
L 189.869018 151.696867 
z
" style="stroke:#000000;"/>
    <path clip-path="url(#pb2d9f93932)" d="M 189.869018 151.696867 
L 195.285255 140.755263 
L 195.265174 140.85451 
z
" style="stroke:#000000;"/>
    <path clip-path="url(#pb2d9f93932)" d="M 180.865684 200.73258 
L 182.91102 195.009442 
L 182.895636 195.065657 
z
" style="stroke:#000000;"/>
    <path clip-path="url(#pb2d9f93932)" d="M 175.208954 211.231899 
L 178.322604 206.053219 
L 178.294047 206.141137 
z
" style="stroke:#000000;"/>
    <path clip-path="url(#pb2d9f93932)" d="M 171.644194 215.949425 
L 175.246342 211.129408 
L 175.208954 211.231899 
z
" style="stroke:#000000;"/>
    <path clip-path="url(#pb2d9f93932)" d="M 171.644194 138.340944 
L 169.69482 136.307082 
L 169.641496 136.19478 
z
" style="stroke:#000000;"/>
    <path clip-path="url(#pb2d9f93932)" d="M 169.641496 218.095588 
L 171.691785 215.83343 
L 171.644194 215.949425 
z
" style="stroke:#000000;"/>
    <path clip-path="url(#pb2d9f93932)" d="M 178.294047 206.141137 
L 180.886879 200.660143 
L 180.865684 200.73258 
z
" style="stroke:#000000;"/>
    <path clip-path="url(#pb2d9f93932)" d="M 175.208954 143.058469 
L 171.691785 138.447102 
L 171.644194 138.340944 
z
" style="stroke:#000000;"/>
    <path clip-path="url(#pb2d9f93932)" d="M 178.294047 148.149231 
L 175.246342 143.151124 
L 175.208954 143.058469 
z
" style="stroke:#000000;"/>
    <path clip-path="url(#pb2d9f93932)" d="M 185.24784 171.083383 
L 184.372904 165.117589 
L 184.361716 165.087994 
z
" style="stroke:#000000;"/>
    <path clip-path="url(#pb2d9f93932)" d="M 182.895636 159.224711 
L 180.886879 153.620389 
L 180.865684 153.557789 
z
" style="stroke:#000000;"/>
    <path clip-path="url(#pb2d9f93932)" d="M 180.865684 153.557789 
L 178.322604 148.227313 
L 178.294047 148.149231 
z
" style="stroke:#000000;"/>
    <path clip-path="url(#pb2d9f93932)" d="M 182.895636 195.065657 
L 184.372904 189.162943 
L 184.361716 189.202374 
z
" style="stroke:#000000;"/>
    <path clip-path="url(#pb2d9f93932)" d="M 184.361716 189.202374 
L 185.256492 183.184715 
L 185.24784 183.206985 
z
" style="stroke:#000000;"/>
    <path clip-path="url(#pb2d9f93932)" d="M 185.24784 183.206985 
L 185.552093 177.140266 
L 185.54429 177.145184 
z
" style="stroke:#000000;"/>
    <path clip-path="url(#pb2d9f93932)" d="M 184.361716 165.087994 
L 182.91102 159.27109 
L 182.895636 159.224711 
z
" style="stroke:#000000;"/>
    <path clip-path="url(#pb2d9f93932)" d="M 185.54429 177.145184 
L 185.256492 171.095817 
L 185.24784 171.083383 
z
" style="stroke:#000000;"/>
    <path clip-path="url(#pb2d9f93932)" d="M 172.582097 145.103497 
L 175.518697 149.96209 
L 175.482091 149.888988 
z
" style="stroke:#000000;"/>
    <path clip-path="url(#pb2d9f93932)" d="M 182.018624 182.843283 
L 181.205965 188.441576 
L 181.185685 188.478937 
z
" style="stroke:#000000;"/>
    <path clip-path="url(#pb2d9f93932)" d="M 179.807577 193.990441 
L 177.929094 199.248982 
L 177.899408 199.317368 
z
" style="stroke:#000000;"/>
    <path clip-path="url(#pb2d9f93932)" d="M 175.482091 204.40138 
L 172.627004 209.090235 
L 172.582097 209.186872 
z
" style="stroke:#000000;"/>
    <path clip-path="url(#pb2d9f93932)" d="M 181.185685 165.811431 
L 182.036519 171.458478 
L 182.018624 171.447085 
z
" style="stroke:#000000;"/>
    <path clip-path="url(#pb2d9f93932)" d="M 169.285703 213.511835 
L 166.741414 216.289256 
L 169.231205 213.621165 
z
" style="stroke:#000000;"/>
    <path clip-path="url(#pb2d9f93932)" d="M 181.185685 188.478937 
L 179.831801 193.937304 
L 179.807577 193.990441 
z
" style="stroke:#000000;"/>
    <path clip-path="url(#pb2d9f93932)" d="M 177.899408 199.317368 
L 175.518697 204.318442 
L 175.482091 204.40138 
z
" style="stroke:#000000;"/>
    <path clip-path="url(#pb2d9f93932)" d="M 166.80304 138.108243 
L 169.231205 140.669203 
L 166.741414 138.001112 
z
" style="stroke:#000000;"/>
    <path clip-path="url(#pb2d9f93932)" d="M 169.231205 140.669203 
L 172.627004 145.190297 
L 172.582097 145.103497 
z
" style="stroke:#000000;"/>
    <path clip-path="url(#pb2d9f93932)" d="M 177.899408 154.973 
L 179.831801 160.343228 
L 179.807577 160.299927 
z
" style="stroke:#000000;"/>
    <path clip-path="url(#pb2d9f93932)" d="M 182.297302 177.145184 
L 182.036519 182.822054 
L 182.018624 182.843283 
z
" style="stroke:#000000;"/>
    <path clip-path="url(#pb2d9f93932)" d="M 172.582097 209.186872 
L 169.285703 213.511835 
L 169.231205 213.621165 
z
" style="stroke:#000000;"/>
    <path clip-path="url(#pb2d9f93932)" d="M 179.807577 160.299927 
L 181.205965 165.838956 
L 181.185685 165.811431 
z
" style="stroke:#000000;"/>
    <path clip-path="url(#pb2d9f93932)" d="M 182.018624 171.447085 
L 182.3144 177.140266 
L 182.297302 177.145184 
z
" style="stroke:#000000;"/>
    <path clip-path="url(#pb2d9f93932)" d="M 175.482091 149.888988 
L 177.929094 155.03155 
L 177.899408 154.973 
z
" style="stroke:#000000;"/>
    <path clip-path="url(#pb2d9f93932)" d="M 198.881532 153.557789 
L 196.827016 159.27109 
L 196.85158 159.224711 
z
" style="stroke:#000000;"/>
    <path clip-path="url(#pb2d9f93932)" d="M 204.538262 143.058469 
L 201.415433 148.227313 
L 201.453168 148.149231 
z
" style="stroke:#000000;"/>
    <path clip-path="url(#pb2d9f93932)" d="M 208.103022 138.340944 
L 204.491695 143.151124 
L 204.538262 143.058469 
z
" style="stroke:#000000;"/>
    <path clip-path="url(#pb2d9f93932)" d="M 208.103022 215.949425 
L 210.043216 217.97345 
L 210.10572 218.095588 
z
" style="stroke:#000000;"/>
    <path clip-path="url(#pb2d9f93932)" d="M 210.10572 136.19478 
L 208.046251 138.447102 
L 208.103022 138.340944 
z
" style="stroke:#000000;"/>
    <path clip-path="url(#pb2d9f93932)" d="M 201.453168 148.149231 
L 198.851157 153.620389 
L 198.881532 153.557789 
z
" style="stroke:#000000;"/>
    <path clip-path="url(#pb2d9f93932)" d="M 204.538262 211.231899 
L 208.046251 215.83343 
L 208.103022 215.949425 
z
" style="stroke:#000000;"/>
    <path clip-path="url(#pb2d9f93932)" d="M 201.453168 206.141137 
L 204.491695 211.129408 
L 204.538262 211.231899 
z
" style="stroke:#000000;"/>
    <path clip-path="url(#pb2d9f93932)" d="M 194.499375 183.206985 
L 195.365133 189.162943 
L 195.3855 189.202374 
z
" style="stroke:#000000;"/>
    <path clip-path="url(#pb2d9f93932)" d="M 196.85158 195.065657 
L 198.851157 200.660143 
L 198.881532 200.73258 
z
" style="stroke:#000000;"/>
    <path clip-path="url(#pb2d9f93932)" d="M 198.881532 200.73258 
L 201.415433 206.053219 
L 201.453168 206.141137 
z
" style="stroke:#000000;"/>
    <path clip-path="url(#pb2d9f93932)" d="M 196.85158 159.224711 
L 195.365133 165.117589 
L 195.3855 165.087994 
z
" style="stroke:#000000;"/>
    <path clip-path="url(#pb2d9f93932)" d="M 195.3855 165.087994 
L 194.481545 171.095817 
L 194.499375 171.083383 
z
" style="stroke:#000000;"/>
    <path clip-path="url(#pb2d9f93932)" d="M 194.499375 171.083383 
L 194.185943 177.140266 
L 194.202925 177.145184 
z
" style="stroke:#000000;"/>
    <path clip-path="url(#pb2d9f93932)" d="M 195.3855 189.202374 
L 196.827016 195.009442 
L 196.85158 195.065657 
z
" style="stroke:#000000;"/>
    <path clip-path="url(#pb2d9f93932)" d="M 194.202925 177.145184 
L 194.481545 183.184715 
L 194.499375 183.206985 
z
" style="stroke:#000000;"/>
    <path clip-path="url(#pb2d9f93932)" d="M 207.165118 209.186872 
L 204.21934 204.318442 
L 204.265125 204.40138 
z
" style="stroke:#000000;"/>
    <path clip-path="url(#pb2d9f93932)" d="M 197.728592 171.447085 
L 198.532072 165.838956 
L 198.56153 165.811431 
z
" style="stroke:#000000;"/>
    <path clip-path="url(#pb2d9f93932)" d="M 199.939639 160.299927 
L 201.808942 155.03155 
L 201.847807 154.973 
z
" style="stroke:#000000;"/>
    <path clip-path="url(#pb2d9f93932)" d="M 204.265125 149.888988 
L 207.111032 145.190297 
L 207.165118 145.103497 
z
" style="stroke:#000000;"/>
    <path clip-path="url(#pb2d9f93932)" d="M 198.56153 188.478937 
L 197.701517 182.822054 
L 197.728592 182.843283 
z
" style="stroke:#000000;"/>
    <path clip-path="url(#pb2d9f93932)" d="M 210.452333 140.768697 
L 213.005801 138.001112 
L 210.516011 140.669203 
z
" style="stroke:#000000;"/>
    <path clip-path="url(#pb2d9f93932)" d="M 198.56153 165.811431 
L 199.906235 160.343228 
L 199.939639 160.299927 
z
" style="stroke:#000000;"/>
    <path clip-path="url(#pb2d9f93932)" d="M 201.847807 154.973 
L 204.21934 149.96209 
L 204.265125 149.888988 
z
" style="stroke:#000000;"/>
    <path clip-path="url(#pb2d9f93932)" d="M 212.934996 216.172289 
L 210.516011 213.621165 
L 213.005801 216.289256 
z
" style="stroke:#000000;"/>
    <path clip-path="url(#pb2d9f93932)" d="M 210.516011 213.621165 
L 207.111032 209.090235 
L 207.165118 209.186872 
z
" style="stroke:#000000;"/>
    <path clip-path="url(#pb2d9f93932)" d="M 201.847807 199.317368 
L 199.906235 193.937304 
L 199.939639 193.990441 
z
" style="stroke:#000000;"/>
    <path clip-path="url(#pb2d9f93932)" d="M 197.449913 177.145184 
L 197.701517 171.458478 
L 197.728592 171.447085 
z
" style="stroke:#000000;"/>
    <path clip-path="url(#pb2d9f93932)" d="M 207.165118 145.103497 
L 210.452333 140.768697 
L 210.516011 140.669203 
z
" style="stroke:#000000;"/>
    <path clip-path="url(#pb2d9f93932)" d="M 199.939639 193.990441 
L 198.532072 188.441576 
L 198.56153 188.478937 
z
" style="stroke:#000000;"/>
    <path clip-path="url(#pb2d9f93932)" d="M 197.728592 182.843283 
L 197.423637 177.140266 
L 197.449913 177.145184 
z
" style="stroke:#000000;"/>
    <path clip-path="url(#pb2d9f93932)" d="M 204.265125 204.40138 
L 201.808942 199.248982 
L 201.847807 199.317368 
z
" style="stroke:#000000;"/>
    <path clip-path="url(#pb2d9f93932)" d="M 212.934996 138.108243 
L 211.520195 136.967233 
L 213.005801 138.001112 
z
" style="stroke:#000000;"/>
    <path clip-path="url(#pb2d9f93932)" d="M 168.284394 137.077323 
L 166.741414 138.001112 
L 168.22702 136.967233 
z
" style="stroke:#000000;"/>
    <path clip-path="url(#pb2d9f93932)" d="M 210.043216 217.97345 
L 211.520195 217.323135 
L 210.10572 218.095588 
z
" style="stroke:#000000;"/>
    <path clip-path="url(#pb2d9f93932)" d="M 169.69482 136.307082 
L 168.22702 136.967233 
L 169.641496 136.19478 
z
" style="stroke:#000000;"/>
    <path clip-path="url(#pb2d9f93932)" d="M 168.284394 217.203209 
L 169.641496 218.095588 
L 168.22702 217.323135 
z
" style="stroke:#000000;"/>
    <path clip-path="url(#pb2d9f93932)" d="M 211.453643 137.077323 
L 210.10572 136.19478 
L 211.520195 136.967233 
z
" style="stroke:#000000;"/>
    <path clip-path="url(#pb2d9f93932)" d="M 166.80304 216.172289 
L 168.22702 217.323135 
L 166.741414 216.289256 
z
" style="stroke:#000000;"/>
    <path clip-path="url(#pb2d9f93932)" d="M 211.453643 217.203209 
L 213.005801 216.289256 
L 211.520195 217.323135 
z
" style="stroke:#000000;"/>
    <path clip-path="url(#pb2d9f93932)" d="M 189.869018 134.349096 
L 181.756137 140.030364 
L 189.873608 134.231174 
z
" style="stroke:#000000;"/>
    <path clip-path="url(#pb2d9f93932)" d="M 197.963252 140.131686 
L 189.873608 134.231174 
L 197.991078 140.030364 
z
" style="stroke:#000000;"/>
    <path clip-path="url(#pb2d9f93932)" d="M 189.873608 157.427936 
L 197.963252 140.131686 
L 197.991078 140.030364 
z
" style="stroke:#000000;"/>
    <path clip-path="url(#pb2d9f93932)" d="M 181.756137 140.030364 
L 189.869018 157.479458 
L 189.873608 157.427936 
z
" style="stroke:#000000;"/>
    <path clip-path="url(#pb2d9f93932)" d="M 189.869018 137.240391 
L 195.285255 140.755263 
L 189.873608 137.130769 
z
" style="stroke:#000000;"/>
    <path clip-path="url(#pb2d9f93932)" d="M 184.472862 140.85451 
L 189.873608 137.130769 
L 184.461961 140.755263 
z
" style="stroke:#000000;"/>
    <path clip-path="url(#pb2d9f93932)" d="M 189.873608 151.628745 
L 184.472862 140.85451 
L 184.461961 140.755263 
z
" style="stroke:#000000;"/>
    <path clip-path="url(#pb2d9f93932)" d="M 195.285255 140.755263 
L 189.869018 151.696867 
L 189.873608 151.628745 
z
" style="stroke:#000000;"/>
    <path clip-path="url(#pb2d9f93932)" d="M 197.449913 177.145184 
L 194.202925 177.145184 
L 194.499375 183.206985 
z
" style="stroke:#000000;"/>
    <path clip-path="url(#pb2d9f93932)" d="M 197.728592 182.843283 
L 194.499375 183.206985 
L 195.3855 189.202374 
z
" style="stroke:#000000;"/>
    <path clip-path="url(#pb2d9f93932)" d="M 194.202925 177.145184 
L 197.449913 177.145184 
L 194.499375 171.083383 
z
" style="stroke:#000000;"/>
    <path clip-path="url(#pb2d9f93932)" d="M 198.56153 188.478937 
L 195.3855 189.202374 
L 196.85158 195.065657 
z
" style="stroke:#000000;"/>
    <path clip-path="url(#pb2d9f93932)" d="M 197.728592 171.447085 
L 194.499375 171.083383 
L 197.449913 177.145184 
z
" style="stroke:#000000;"/>
    <path clip-path="url(#pb2d9f93932)" d="M 194.499375 171.083383 
L 197.728592 171.447085 
L 195.3855 165.087994 
z
" style="stroke:#000000;"/>
    <path clip-path="url(#pb2d9f93932)" d="M 194.499375 183.206985 
L 197.728592 182.843283 
L 197.449913 177.145184 
z
" style="stroke:#000000;"/>
    <path clip-path="url(#pb2d9f93932)" d="M 195.3855 189.202374 
L 198.56153 188.478937 
L 197.728592 182.843283 
z
" style="stroke:#000000;"/>
    <path clip-path="url(#pb2d9f93932)" d="M 199.939639 193.990441 
L 196.85158 195.065657 
L 198.881532 200.73258 
z
" style="stroke:#000000;"/>
    <path clip-path="url(#pb2d9f93932)" d="M 196.85158 195.065657 
L 199.939639 193.990441 
L 198.56153 188.478937 
z
" style="stroke:#000000;"/>
    <path clip-path="url(#pb2d9f93932)" d="M 201.847807 199.317368 
L 198.881532 200.73258 
L 201.453168 206.141137 
z
" style="stroke:#000000;"/>
    <path clip-path="url(#pb2d9f93932)" d="M 198.881532 200.73258 
L 201.847807 199.317368 
L 199.939639 193.990441 
z
" style="stroke:#000000;"/>
    <path clip-path="url(#pb2d9f93932)" d="M 201.453168 206.141137 
L 204.265125 204.40138 
L 201.847807 199.317368 
z
" style="stroke:#000000;"/>
    <path clip-path="url(#pb2d9f93932)" d="M 204.538262 211.231899 
L 204.265125 204.40138 
L 201.453168 206.141137 
z
" style="stroke:#000000;"/>
    <path clip-path="url(#pb2d9f93932)" d="M 204.538262 211.231899 
L 207.165118 209.186872 
L 204.265125 204.40138 
z
" style="stroke:#000000;"/>
    <path clip-path="url(#pb2d9f93932)" d="M 208.103022 215.949425 
L 207.165118 209.186872 
L 204.538262 211.231899 
z
" style="stroke:#000000;"/>
    <path clip-path="url(#pb2d9f93932)" d="M 211.520195 217.323135 
L 208.103022 215.949425 
L 210.10572 218.095588 
z
" style="stroke:#000000;"/>
    <path clip-path="url(#pb2d9f93932)" d="M 208.103022 215.949425 
L 210.516011 213.621165 
L 207.165118 209.186872 
z
" style="stroke:#000000;"/>
    <path clip-path="url(#pb2d9f93932)" d="M 208.103022 215.949425 
L 211.520195 217.323135 
L 210.516011 213.621165 
z
" style="stroke:#000000;"/>
    <path clip-path="url(#pb2d9f93932)" d="M 210.516011 213.621165 
L 211.520195 217.323135 
L 213.005801 216.289256 
z
" style="stroke:#000000;"/>
    <path clip-path="url(#pb2d9f93932)" d="M 198.56153 165.811431 
L 195.3855 165.087994 
L 197.728592 171.447085 
z
" style="stroke:#000000;"/>
    <path clip-path="url(#pb2d9f93932)" d="M 195.3855 165.087994 
L 198.56153 165.811431 
L 196.85158 159.224711 
z
" style="stroke:#000000;"/>
    <path clip-path="url(#pb2d9f93932)" d="M 199.939639 160.299927 
L 196.85158 159.224711 
L 198.56153 165.811431 
z
" style="stroke:#000000;"/>
    <path clip-path="url(#pb2d9f93932)" d="M 196.85158 159.224711 
L 199.939639 160.299927 
L 198.881532 153.557789 
z
" style="stroke:#000000;"/>
    <path clip-path="url(#pb2d9f93932)" d="M 201.847807 154.973 
L 198.881532 153.557789 
L 199.939639 160.299927 
z
" style="stroke:#000000;"/>
    <path clip-path="url(#pb2d9f93932)" d="M 198.881532 153.557789 
L 201.847807 154.973 
L 201.453168 148.149231 
z
" style="stroke:#000000;"/>
    <path clip-path="url(#pb2d9f93932)" d="M 204.265125 149.888988 
L 201.453168 148.149231 
L 201.847807 154.973 
z
" style="stroke:#000000;"/>
    <path clip-path="url(#pb2d9f93932)" d="M 204.265125 149.888988 
L 204.538262 143.058469 
L 201.453168 148.149231 
z
" style="stroke:#000000;"/>
    <path clip-path="url(#pb2d9f93932)" d="M 207.165118 145.103497 
L 204.538262 143.058469 
L 204.265125 149.888988 
z
" style="stroke:#000000;"/>
    <path clip-path="url(#pb2d9f93932)" d="M 207.165118 145.103497 
L 208.103022 138.340944 
L 204.538262 143.058469 
z
" style="stroke:#000000;"/>
    <path clip-path="url(#pb2d9f93932)" d="M 210.516011 140.669203 
L 208.103022 138.340944 
L 207.165118 145.103497 
z
" style="stroke:#000000;"/>
    <path clip-path="url(#pb2d9f93932)" d="M 211.520195 136.967233 
L 208.103022 138.340944 
L 210.516011 140.669203 
z
" style="stroke:#000000;"/>
    <path clip-path="url(#pb2d9f93932)" d="M 208.103022 138.340944 
L 211.520195 136.967233 
L 210.10572 136.19478 
z
" style="stroke:#000000;"/>
    <path clip-path="url(#pb2d9f93932)" d="M 211.520195 136.967233 
L 210.516011 140.669203 
L 213.005801 138.001112 
z
" style="stroke:#000000;"/>
    <path clip-path="url(#pb2d9f93932)" d="M 168.22702 217.323135 
L 169.231205 213.621165 
L 166.741414 216.289256 
z
" style="stroke:#000000;"/>
    <path clip-path="url(#pb2d9f93932)" d="M 171.644194 215.949425 
L 168.22702 217.323135 
L 169.641496 218.095588 
z
" style="stroke:#000000;"/>
    <path clip-path="url(#pb2d9f93932)" d="M 168.22702 217.323135 
L 171.644194 215.949425 
L 169.231205 213.621165 
z
" style="stroke:#000000;"/>
    <path clip-path="url(#pb2d9f93932)" d="M 171.644194 215.949425 
L 172.582097 209.186872 
L 169.231205 213.621165 
z
" style="stroke:#000000;"/>
    <path clip-path="url(#pb2d9f93932)" d="M 175.208954 211.231899 
L 172.582097 209.186872 
L 171.644194 215.949425 
z
" style="stroke:#000000;"/>
    <path clip-path="url(#pb2d9f93932)" d="M 175.208954 211.231899 
L 175.482091 204.40138 
L 172.582097 209.186872 
z
" style="stroke:#000000;"/>
    <path clip-path="url(#pb2d9f93932)" d="M 178.294047 206.141137 
L 175.482091 204.40138 
L 175.208954 211.231899 
z
" style="stroke:#000000;"/>
    <path clip-path="url(#pb2d9f93932)" d="M 175.482091 204.40138 
L 178.294047 206.141137 
L 177.899408 199.317368 
z
" style="stroke:#000000;"/>
    <path clip-path="url(#pb2d9f93932)" d="M 180.865684 200.73258 
L 177.899408 199.317368 
L 178.294047 206.141137 
z
" style="stroke:#000000;"/>
    <path clip-path="url(#pb2d9f93932)" d="M 177.899408 199.317368 
L 180.865684 200.73258 
L 179.807577 193.990441 
z
" style="stroke:#000000;"/>
    <path clip-path="url(#pb2d9f93932)" d="M 182.895636 195.065657 
L 179.807577 193.990441 
L 180.865684 200.73258 
z
" style="stroke:#000000;"/>
    <path clip-path="url(#pb2d9f93932)" d="M 179.807577 193.990441 
L 182.895636 195.065657 
L 181.185685 188.478937 
z
" style="stroke:#000000;"/>
    <path clip-path="url(#pb2d9f93932)" d="M 181.185685 188.478937 
L 184.361716 189.202374 
L 182.018624 182.843283 
z
" style="stroke:#000000;"/>
    <path clip-path="url(#pb2d9f93932)" d="M 184.361716 189.202374 
L 181.185685 188.478937 
L 182.895636 195.065657 
z
" style="stroke:#000000;"/>
    <path clip-path="url(#pb2d9f93932)" d="M 169.231205 140.669203 
L 168.22702 136.967233 
L 166.741414 138.001112 
z
" style="stroke:#000000;"/>
    <path clip-path="url(#pb2d9f93932)" d="M 171.644194 138.340944 
L 168.22702 136.967233 
L 169.231205 140.669203 
z
" style="stroke:#000000;"/>
    <path clip-path="url(#pb2d9f93932)" d="M 168.22702 136.967233 
L 171.644194 138.340944 
L 169.641496 136.19478 
z
" style="stroke:#000000;"/>
    <path clip-path="url(#pb2d9f93932)" d="M 172.582097 145.103497 
L 171.644194 138.340944 
L 169.231205 140.669203 
z
" style="stroke:#000000;"/>
    <path clip-path="url(#pb2d9f93932)" d="M 172.582097 145.103497 
L 175.208954 143.058469 
L 171.644194 138.340944 
z
" style="stroke:#000000;"/>
    <path clip-path="url(#pb2d9f93932)" d="M 175.482091 149.888988 
L 175.208954 143.058469 
L 172.582097 145.103497 
z
" style="stroke:#000000;"/>
    <path clip-path="url(#pb2d9f93932)" d="M 178.294047 148.149231 
L 175.482091 149.888988 
L 177.899408 154.973 
z
" style="stroke:#000000;"/>
    <path clip-path="url(#pb2d9f93932)" d="M 175.482091 149.888988 
L 178.294047 148.149231 
L 175.208954 143.058469 
z
" style="stroke:#000000;"/>
    <path clip-path="url(#pb2d9f93932)" d="M 180.865684 153.557789 
L 177.899408 154.973 
L 179.807577 160.299927 
z
" style="stroke:#000000;"/>
    <path clip-path="url(#pb2d9f93932)" d="M 177.899408 154.973 
L 180.865684 153.557789 
L 178.294047 148.149231 
z
" style="stroke:#000000;"/>
    <path clip-path="url(#pb2d9f93932)" d="M 182.895636 159.224711 
L 179.807577 160.299927 
L 181.185685 165.811431 
z
" style="stroke:#000000;"/>
    <path clip-path="url(#pb2d9f93932)" d="M 184.361716 165.087994 
L 181.185685 165.811431 
L 182.018624 171.447085 
z
" style="stroke:#000000;"/>
    <path clip-path="url(#pb2d9f93932)" d="M 179.807577 160.299927 
L 182.895636 159.224711 
L 180.865684 153.557789 
z
" style="stroke:#000000;"/>
    <path clip-path="url(#pb2d9f93932)" d="M 185.24784 171.083383 
L 182.018624 171.447085 
L 182.297302 177.145184 
z
" style="stroke:#000000;"/>
    <path clip-path="url(#pb2d9f93932)" d="M 185.24784 183.206985 
L 182.018624 182.843283 
L 184.361716 189.202374 
z
" style="stroke:#000000;"/>
    <path clip-path="url(#pb2d9f93932)" d="M 182.018624 182.843283 
L 185.24784 183.206985 
L 182.297302 177.145184 
z
" style="stroke:#000000;"/>
    <path clip-path="url(#pb2d9f93932)" d="M 181.185685 165.811431 
L 184.361716 165.087994 
L 182.895636 159.224711 
z
" style="stroke:#000000;"/>
    <path clip-path="url(#pb2d9f93932)" d="M 185.54429 177.145184 
L 182.297302 177.145184 
L 185.24784 183.206985 
z
" style="stroke:#000000;"/>
    <path clip-path="url(#pb2d9f93932)" d="M 182.018624 171.447085 
L 185.24784 171.083383 
L 184.361716 165.087994 
z
" style="stroke:#000000;"/>
    <path clip-path="url(#pb2d9f93932)" d="M 182.297302 177.145184 
L 185.54429 177.145184 
L 185.24784 171.083383 
z
" style="stroke:#000000;"/>
    <path clip-path="url(#pb2d9f93932)" d="M 189.873608 151.628745 
L 181.756137 140.030364 
L 189.873608 157.427936 
z
" style="stroke:#000000;"/>
    <path clip-path="url(#pb2d9f93932)" d="M 181.756137 140.030364 
L 189.873608 151.628745 
L 184.461961 140.755263 
z
" style="stroke:#000000;"/>
    <path clip-path="url(#pb2d9f93932)" d="M 197.991078 140.030364 
L 189.873608 151.628745 
L 189.873608 157.427936 
z
" style="stroke:#000000;"/>
    <path clip-path="url(#pb2d9f93932)" d="M 189.873608 151.628745 
L 197.991078 140.030364 
L 195.285255 140.755263 
z
" style="stroke:#000000;"/>
    <path clip-path="url(#pb2d9f93932)" d="M 189.873608 134.231174 
L 184.461961 140.755263 
L 189.873608 137.130769 
z
" style="stroke:#000000;"/>
    <path clip-path="url(#pb2d9f93932)" d="M 184.461961 140.755263 
L 189.873608 134.231174 
L 181.756137 140.030364 
z
" style="stroke:#000000;"/>
    <path clip-path="url(#pb2d9f93932)" d="M 195.285255 140.755263 
L 189.873608 134.231174 
L 189.873608 137.130769 
z
" style="stroke:#000000;"/>
    <path clip-path="url(#pb2d9f93932)" d="M 189.873608 134.231174 
L 195.285255 140.755263 
L 197.991078 140.030364 
z
" style="stroke:#000000;"/>
   </g>
  </g>
 </g>
 <defs>
  <clipPath id="pb2d9f93932">
   <rect height="271.8" width="279" x="45" y="43.2"/>
  </clipPath>
 </defs>
</svg>
