<?xml version="1.0" encoding="utf-8" standalone="no"?>
<!DOCTYPE svg PUBLIC "-//W3C//DTD SVG 1.1//EN"
  "http://www.w3.org/Graphics/SVG/1.1/DTD/svg11.dtd">
<!-- Created with matplotlib (https://matplotlib.org/) -->
<svg height="360pt" version="1.1" viewBox="0 0 360 360" width="360pt" xmlns="http://www.w3.org/2000/svg" xmlns:xlink="http://www.w3.org/1999/xlink">
 <defs>
  <style type="text/css">
*{stroke-linecap:butt;stroke-linejoin:round;}
  </style>
 </defs>
 <g id="figure_1">
  <g id="patch_1">
   <path d="M 45 315 
L 324 315 
L 324 43.2 
L 45 43.2 
z
" style="fill:#ffffff;"/>
  </g>
  <g id="axes_1">
   <g id="Poly3DCollection_1">
    <path clip-path="url(#pfa1fe5b3e1)" d="M 173.160402 129.228681 
L 174.103256 133.621533 
L 171.767199 130.493272 
z
" style="stroke:#000000;"/>
    <path clip-path="url(#pfa1fe5b3e1)" d="M 174.103256 220.628291 
L 173.160402 225.019501 
L 171.767199 223.752487 
z
" style="stroke:#000000;"/>
    <path clip-path="url(#pfa1fe5b3e1)" d="M 168.574251 130.371035 
L 173.160402 129.228681 
L 171.767199 130.493272 
z
" style="stroke:#000000;"/>
    <path clip-path="url(#pfa1fe5b3e1)" d="M 168.574251 223.88395 
L 174.103256 220.628291 
L 171.767199 223.752487 
z
" style="stroke:#000000;"/>
    <path clip-path="url(#pfa1fe5b3e1)" d="M 169.968957 225.154508 
L 171.767199 223.752487 
L 173.160402 225.019501 
z
" style="stroke:#000000;"/>
    <path clip-path="url(#pfa1fe5b3e1)" d="M 173.160402 129.228681 
L 176.372603 130.792864 
L 174.103256 133.621533 
z
" style="stroke:#000000;"/>
    <path clip-path="url(#pfa1fe5b3e1)" d="M 176.372603 223.460909 
L 173.160402 225.019501 
L 174.103256 220.628291 
z
" style="stroke:#000000;"/>
    <path clip-path="url(#pfa1fe5b3e1)" d="M 176.372603 130.792864 
L 173.160402 129.228681 
L 174.488751 128.275762 
z
" style="stroke:#000000;"/>
    <path clip-path="url(#pfa1fe5b3e1)" d="M 173.160402 225.019501 
L 176.372603 223.460909 
L 174.488751 225.974733 
z
" style="stroke:#000000;"/>
    <path clip-path="url(#pfa1fe5b3e1)" d="M 170.912832 133.507669 
L 171.767199 130.493272 
L 174.103256 133.621533 
z
" style="stroke:#000000;"/>
    <path clip-path="url(#pfa1fe5b3e1)" d="M 169.968957 129.102914 
L 174.488751 128.275762 
L 173.160402 129.228681 
z
" style="stroke:#000000;"/>
    <path clip-path="url(#pfa1fe5b3e1)" d="M 171.767199 223.752487 
L 169.968957 225.154508 
L 168.574251 223.88395 
z
" style="stroke:#000000;"/>
    <path clip-path="url(#pfa1fe5b3e1)" d="M 171.298746 226.112434 
L 173.160402 225.019501 
L 174.488751 225.974733 
z
" style="stroke:#000000;"/>
    <path clip-path="url(#pfa1fe5b3e1)" d="M 176.372603 130.792864 
L 177.2561 138.851125 
L 174.103256 133.621533 
z
" style="stroke:#000000;"/>
    <path clip-path="url(#pfa1fe5b3e1)" d="M 177.2561 215.404186 
L 176.372603 223.460909 
L 174.103256 220.628291 
z
" style="stroke:#000000;"/>
    <path clip-path="url(#pfa1fe5b3e1)" d="M 171.767199 130.493272 
L 170.912832 133.507669 
L 168.574251 130.371035 
z
" style="stroke:#000000;"/>
    <path clip-path="url(#pfa1fe5b3e1)" d="M 173.160402 129.228681 
L 168.574251 130.371035 
L 169.968957 129.102914 
z
" style="stroke:#000000;"/>
    <path clip-path="url(#pfa1fe5b3e1)" d="M 174.103256 220.628291 
L 168.574251 223.88395 
L 170.912832 220.751403 
z
" style="stroke:#000000;"/>
    <path clip-path="url(#pfa1fe5b3e1)" d="M 176.372603 223.460909 
L 171.298746 226.112434 
L 174.488751 225.974733 
z
" style="stroke:#000000;"/>
    <path clip-path="url(#pfa1fe5b3e1)" d="M 177.2561 138.851125 
L 170.912832 133.507669 
L 174.103256 133.621533 
z
" style="stroke:#000000;"/>
    <path clip-path="url(#pfa1fe5b3e1)" d="M 173.160402 225.019501 
L 171.298746 226.112434 
L 169.968957 225.154508 
z
" style="stroke:#000000;"/>
    <path clip-path="url(#pfa1fe5b3e1)" d="M 174.488751 128.275762 
L 173.184647 130.671155 
L 176.372603 130.792864 
z
" style="stroke:#000000;"/>
    <path clip-path="url(#pfa1fe5b3e1)" d="M 174.488751 128.275762 
L 169.968957 129.102914 
L 171.298746 128.147313 
z
" style="stroke:#000000;"/>
    <path clip-path="url(#pfa1fe5b3e1)" d="M 179.734835 136.358678 
L 177.2561 138.851125 
L 176.372603 130.792864 
z
" style="stroke:#000000;"/>
    <path clip-path="url(#pfa1fe5b3e1)" d="M 177.2561 215.404186 
L 179.734835 217.900947 
L 176.372603 223.460909 
z
" style="stroke:#000000;"/>
    <path clip-path="url(#pfa1fe5b3e1)" d="M 174.103256 220.628291 
L 174.069108 215.513246 
L 177.2561 215.404186 
z
" style="stroke:#000000;"/>
    <path clip-path="url(#pfa1fe5b3e1)" d="M 169.968957 225.154508 
L 170.912832 220.751403 
L 168.574251 223.88395 
z
" style="stroke:#000000;"/>
    <path clip-path="url(#pfa1fe5b3e1)" d="M 170.912832 133.507669 
L 169.968957 129.102914 
L 168.574251 130.371035 
z
" style="stroke:#000000;"/>
    <path clip-path="url(#pfa1fe5b3e1)" d="M 173.184647 130.671155 
L 174.488751 128.275762 
L 171.298746 128.147313 
z
" style="stroke:#000000;"/>
    <path clip-path="url(#pfa1fe5b3e1)" d="M 174.069108 215.513246 
L 174.103256 220.628291 
L 170.912832 220.751403 
z
" style="stroke:#000000;"/>
    <path clip-path="url(#pfa1fe5b3e1)" d="M 179.734835 136.358678 
L 179.992931 144.524589 
L 177.2561 138.851125 
z
" style="stroke:#000000;"/>
    <path clip-path="url(#pfa1fe5b3e1)" d="M 179.992931 209.735485 
L 179.734835 217.900947 
L 177.2561 215.404186 
z
" style="stroke:#000000;"/>
    <path clip-path="url(#pfa1fe5b3e1)" d="M 179.734835 217.900947 
L 173.184647 223.591889 
L 176.372603 223.460909 
z
" style="stroke:#000000;"/>
    <path clip-path="url(#pfa1fe5b3e1)" d="M 171.298746 226.112434 
L 176.372603 223.460909 
L 173.184647 223.591889 
z
" style="stroke:#000000;"/>
    <path clip-path="url(#pfa1fe5b3e1)" d="M 170.912832 133.507669 
L 177.2561 138.851125 
L 174.069108 138.751343 
z
" style="stroke:#000000;"/>
    <path clip-path="url(#pfa1fe5b3e1)" d="M 169.968957 225.154508 
L 173.184647 223.591889 
L 170.912832 220.751403 
z
" style="stroke:#000000;"/>
    <path clip-path="url(#pfa1fe5b3e1)" d="M 173.184647 130.671155 
L 169.968957 129.102914 
L 170.912832 133.507669 
z
" style="stroke:#000000;"/>
    <path clip-path="url(#pfa1fe5b3e1)" d="M 179.992931 144.524589 
L 174.069108 138.751343 
L 177.2561 138.851125 
z
" style="stroke:#000000;"/>
    <path clip-path="url(#pfa1fe5b3e1)" d="M 173.184647 223.591889 
L 169.968957 225.154508 
L 171.298746 226.112434 
z
" style="stroke:#000000;"/>
    <path clip-path="url(#pfa1fe5b3e1)" d="M 169.968957 129.102914 
L 173.184647 130.671155 
L 171.298746 128.147313 
z
" style="stroke:#000000;"/>
    <path clip-path="url(#pfa1fe5b3e1)" d="M 176.372603 130.792864 
L 176.550561 136.251961 
L 179.734835 136.358678 
z
" style="stroke:#000000;"/>
    <path clip-path="url(#pfa1fe5b3e1)" d="M 182.654008 142.398543 
L 179.992931 144.524589 
L 179.734835 136.358678 
z
" style="stroke:#000000;"/>
    <path clip-path="url(#pfa1fe5b3e1)" d="M 179.992931 209.735485 
L 182.654008 211.866162 
L 179.734835 217.900947 
z
" style="stroke:#000000;"/>
    <path clip-path="url(#pfa1fe5b3e1)" d="M 177.2561 215.404186 
L 176.808941 209.829212 
L 179.992931 209.735485 
z
" style="stroke:#000000;"/>
    <path clip-path="url(#pfa1fe5b3e1)" d="M 176.550561 136.251961 
L 176.372603 130.792864 
L 173.184647 130.671155 
z
" style="stroke:#000000;"/>
    <path clip-path="url(#pfa1fe5b3e1)" d="M 173.184647 223.591889 
L 174.069108 215.513246 
L 170.912832 220.751403 
z
" style="stroke:#000000;"/>
    <path clip-path="url(#pfa1fe5b3e1)" d="M 174.069108 138.751343 
L 173.184647 130.671155 
L 170.912832 133.507669 
z
" style="stroke:#000000;"/>
    <path clip-path="url(#pfa1fe5b3e1)" d="M 179.992931 144.524589 
L 182.654008 142.398543 
L 182.280107 150.577374 
z
" style="stroke:#000000;"/>
    <path clip-path="url(#pfa1fe5b3e1)" d="M 182.654008 211.866162 
L 179.992931 209.735485 
L 182.280107 203.68668 
z
" style="stroke:#000000;"/>
    <path clip-path="url(#pfa1fe5b3e1)" d="M 176.808941 209.829212 
L 177.2561 215.404186 
L 174.069108 215.513246 
z
" style="stroke:#000000;"/>
    <path clip-path="url(#pfa1fe5b3e1)" d="M 173.184647 223.591889 
L 179.734835 217.900947 
L 176.550561 218.016966 
z
" style="stroke:#000000;"/>
    <path clip-path="url(#pfa1fe5b3e1)" d="M 182.654008 211.866162 
L 176.550561 218.016966 
L 179.734835 217.900947 
z
" style="stroke:#000000;"/>
    <path clip-path="url(#pfa1fe5b3e1)" d="M 182.280107 150.577374 
L 176.808941 144.440167 
L 179.992931 144.524589 
z
" style="stroke:#000000;"/>
    <path clip-path="url(#pfa1fe5b3e1)" d="M 174.069108 138.751343 
L 179.992931 144.524589 
L 176.808941 144.440167 
z
" style="stroke:#000000;"/>
    <path clip-path="url(#pfa1fe5b3e1)" d="M 176.550561 218.016966 
L 174.069108 215.513246 
L 173.184647 223.591889 
z
" style="stroke:#000000;"/>
    <path clip-path="url(#pfa1fe5b3e1)" d="M 174.069108 138.751343 
L 176.550561 136.251961 
L 173.184647 130.671155 
z
" style="stroke:#000000;"/>
    <path clip-path="url(#pfa1fe5b3e1)" d="M 179.992931 209.735485 
L 179.098642 203.763973 
L 182.280107 203.68668 
z
" style="stroke:#000000;"/>
    <path clip-path="url(#pfa1fe5b3e1)" d="M 185.094002 148.844316 
L 182.280107 150.577374 
L 182.654008 142.398543 
z
" style="stroke:#000000;"/>
    <path clip-path="url(#pfa1fe5b3e1)" d="M 182.280107 203.68668 
L 185.094002 205.424635 
L 182.654008 211.866162 
z
" style="stroke:#000000;"/>
    <path clip-path="url(#pfa1fe5b3e1)" d="M 179.734835 136.358678 
L 179.472956 142.30819 
L 182.654008 142.398543 
z
" style="stroke:#000000;"/>
    <path clip-path="url(#pfa1fe5b3e1)" d="M 182.280107 150.577374 
L 185.094002 148.844316 
L 184.089325 156.940147 
z
" style="stroke:#000000;"/>
    <path clip-path="url(#pfa1fe5b3e1)" d="M 185.094002 205.424635 
L 182.280107 203.68668 
L 184.089325 197.327056 
z
" style="stroke:#000000;"/>
    <path clip-path="url(#pfa1fe5b3e1)" d="M 179.472956 142.30819 
L 179.734835 136.358678 
L 176.550561 136.251961 
z
" style="stroke:#000000;"/>
    <path clip-path="url(#pfa1fe5b3e1)" d="M 179.098642 203.763973 
L 179.992931 209.735485 
L 176.808941 209.829212 
z
" style="stroke:#000000;"/>
    <path clip-path="url(#pfa1fe5b3e1)" d="M 176.550561 218.016966 
L 176.808941 209.829212 
L 174.069108 215.513246 
z
" style="stroke:#000000;"/>
    <path clip-path="url(#pfa1fe5b3e1)" d="M 176.808941 144.440167 
L 176.550561 136.251961 
L 174.069108 138.751343 
z
" style="stroke:#000000;"/>
    <path clip-path="url(#pfa1fe5b3e1)" d="M 184.089325 156.940147 
L 179.098642 150.509408 
L 182.280107 150.577374 
z
" style="stroke:#000000;"/>
    <path clip-path="url(#pfa1fe5b3e1)" d="M 176.808941 144.440167 
L 182.280107 150.577374 
L 179.098642 150.509408 
z
" style="stroke:#000000;"/>
    <path clip-path="url(#pfa1fe5b3e1)" d="M 176.550561 218.016966 
L 182.654008 211.866162 
L 179.472956 211.965845 
z
" style="stroke:#000000;"/>
    <path clip-path="url(#pfa1fe5b3e1)" d="M 185.094002 205.424635 
L 179.472956 211.965845 
L 182.654008 211.866162 
z
" style="stroke:#000000;"/>
    <path clip-path="url(#pfa1fe5b3e1)" d="M 182.280107 203.68668 
L 180.909866 197.38701 
L 184.089325 197.327056 
z
" style="stroke:#000000;"/>
    <path clip-path="url(#pfa1fe5b3e1)" d="M 187.024336 155.621623 
L 184.089325 156.940147 
L 185.094002 148.844316 
z
" style="stroke:#000000;"/>
    <path clip-path="url(#pfa1fe5b3e1)" d="M 184.089325 197.327056 
L 187.024336 198.650687 
L 185.094002 205.424635 
z
" style="stroke:#000000;"/>
    <path clip-path="url(#pfa1fe5b3e1)" d="M 184.089325 156.940147 
L 187.024336 155.621623 
L 185.398048 163.539201 
z
" style="stroke:#000000;"/>
    <path clip-path="url(#pfa1fe5b3e1)" d="M 187.024336 198.650687 
L 184.089325 197.327056 
L 185.398048 190.730279 
z
" style="stroke:#000000;"/>
    <path clip-path="url(#pfa1fe5b3e1)" d="M 182.654008 142.398543 
L 181.915663 148.771505 
L 185.094002 148.844316 
z
" style="stroke:#000000;"/>
    <path clip-path="url(#pfa1fe5b3e1)" d="M 179.472956 211.965845 
L 176.808941 209.829212 
L 176.550561 218.016966 
z
" style="stroke:#000000;"/>
    <path clip-path="url(#pfa1fe5b3e1)" d="M 176.808941 144.440167 
L 179.472956 142.30819 
L 176.550561 136.251961 
z
" style="stroke:#000000;"/>
    <path clip-path="url(#pfa1fe5b3e1)" d="M 185.398048 163.539201 
L 180.909866 156.889537 
L 184.089325 156.940147 
z
" style="stroke:#000000;"/>
    <path clip-path="url(#pfa1fe5b3e1)" d="M 180.909866 197.38701 
L 182.280107 203.68668 
L 179.098642 203.763973 
z
" style="stroke:#000000;"/>
    <path clip-path="url(#pfa1fe5b3e1)" d="M 185.398048 163.539201 
L 188.420833 162.651746 
L 186.189897 170.297448 
z
" style="stroke:#000000;"/>
    <path clip-path="url(#pfa1fe5b3e1)" d="M 188.420833 191.622995 
L 185.398048 190.730279 
L 186.189897 183.97341 
z
" style="stroke:#000000;"/>
    <path clip-path="url(#pfa1fe5b3e1)" d="M 184.089325 197.327056 
L 182.220048 190.772201 
L 185.398048 190.730279 
z
" style="stroke:#000000;"/>
    <path clip-path="url(#pfa1fe5b3e1)" d="M 188.420833 162.651746 
L 185.398048 163.539201 
L 187.024336 155.621623 
z
" style="stroke:#000000;"/>
    <path clip-path="url(#pfa1fe5b3e1)" d="M 185.398048 190.730279 
L 188.420833 191.622995 
L 187.024336 198.650687 
z
" style="stroke:#000000;"/>
    <path clip-path="url(#pfa1fe5b3e1)" d="M 176.808941 209.829212 
L 179.472956 211.965845 
L 179.098642 203.763973 
z
" style="stroke:#000000;"/>
    <path clip-path="url(#pfa1fe5b3e1)" d="M 179.472956 142.30819 
L 176.808941 144.440167 
L 179.098642 150.509408 
z
" style="stroke:#000000;"/>
    <path clip-path="url(#pfa1fe5b3e1)" d="M 181.915663 148.771505 
L 182.654008 142.398543 
L 179.472956 142.30819 
z
" style="stroke:#000000;"/>
    <path clip-path="url(#pfa1fe5b3e1)" d="M 179.098642 150.509408 
L 184.089325 156.940147 
L 180.909866 156.889537 
z
" style="stroke:#000000;"/>
    <path clip-path="url(#pfa1fe5b3e1)" d="M 189.265864 184.423943 
L 186.189897 183.97341 
L 186.454971 177.13566 
z
" style="stroke:#000000;"/>
    <path clip-path="url(#pfa1fe5b3e1)" d="M 186.189897 170.297448 
L 189.265864 169.852269 
L 186.454971 177.13566 
z
" style="stroke:#000000;"/>
    <path clip-path="url(#pfa1fe5b3e1)" d="M 186.189897 170.297448 
L 182.220048 163.506635 
L 185.398048 163.539201 
z
" style="stroke:#000000;"/>
    <path clip-path="url(#pfa1fe5b3e1)" d="M 187.024336 198.650687 
L 181.915663 205.506799 
L 185.094002 205.424635 
z
" style="stroke:#000000;"/>
    <path clip-path="url(#pfa1fe5b3e1)" d="M 185.398048 190.730279 
L 183.012781 183.996832 
L 186.189897 183.97341 
z
" style="stroke:#000000;"/>
    <path clip-path="url(#pfa1fe5b3e1)" d="M 179.472956 211.965845 
L 185.094002 205.424635 
L 181.915663 205.506799 
z
" style="stroke:#000000;"/>
    <path clip-path="url(#pfa1fe5b3e1)" d="M 189.265864 169.852269 
L 186.189897 170.297448 
L 188.420833 162.651746 
z
" style="stroke:#000000;"/>
    <path clip-path="url(#pfa1fe5b3e1)" d="M 186.189897 183.97341 
L 189.265864 184.423943 
L 188.420833 191.622995 
z
" style="stroke:#000000;"/>
    <path clip-path="url(#pfa1fe5b3e1)" d="M 186.454971 177.13566 
L 183.012781 170.28339 
L 186.189897 170.297448 
z
" style="stroke:#000000;"/>
    <path clip-path="url(#pfa1fe5b3e1)" d="M 182.220048 190.772201 
L 184.089325 197.327056 
L 180.909866 197.38701 
z
" style="stroke:#000000;"/>
    <path clip-path="url(#pfa1fe5b3e1)" d="M 186.189897 183.97341 
L 183.278151 177.140343 
L 186.454971 177.13566 
z
" style="stroke:#000000;"/>
    <path clip-path="url(#pfa1fe5b3e1)" d="M 185.094002 148.844316 
L 183.848154 155.567322 
L 187.024336 155.621623 
z
" style="stroke:#000000;"/>
    <path clip-path="url(#pfa1fe5b3e1)" d="M 189.548728 177.138352 
L 186.454971 177.13566 
L 189.265864 169.852269 
z
" style="stroke:#000000;"/>
    <path clip-path="url(#pfa1fe5b3e1)" d="M 186.454971 177.13566 
L 189.548728 177.138352 
L 189.265864 184.423943 
z
" style="stroke:#000000;"/>
    <path clip-path="url(#pfa1fe5b3e1)" d="M 180.909866 156.889537 
L 185.398048 163.539201 
L 182.220048 163.506635 
z
" style="stroke:#000000;"/>
    <path clip-path="url(#pfa1fe5b3e1)" d="M 181.915663 205.506799 
L 179.098642 203.763973 
L 179.472956 211.965845 
z
" style="stroke:#000000;"/>
    <path clip-path="url(#pfa1fe5b3e1)" d="M 179.098642 150.509408 
L 181.915663 148.771505 
L 179.472956 142.30819 
z
" style="stroke:#000000;"/>
    <path clip-path="url(#pfa1fe5b3e1)" d="M 179.098642 203.763973 
L 181.915663 205.506799 
L 180.909866 197.38701 
z
" style="stroke:#000000;"/>
    <path clip-path="url(#pfa1fe5b3e1)" d="M 181.915663 148.771505 
L 179.098642 150.509408 
L 180.909866 156.889537 
z
" style="stroke:#000000;"/>
    <path clip-path="url(#pfa1fe5b3e1)" d="M 183.012781 183.996832 
L 185.398048 190.730279 
L 182.220048 190.772201 
z
" style="stroke:#000000;"/>
    <path clip-path="url(#pfa1fe5b3e1)" d="M 188.420833 191.622995 
L 183.848154 198.71436 
L 187.024336 198.650687 
z
" style="stroke:#000000;"/>
    <path clip-path="url(#pfa1fe5b3e1)" d="M 183.848154 155.567322 
L 185.094002 148.844316 
L 181.915663 148.771505 
z
" style="stroke:#000000;"/>
    <path clip-path="url(#pfa1fe5b3e1)" d="M 193.688935 125.446466 
L 188.516393 133.416127 
L 185.94029 132.601384 
z
" style="stroke:#000000;"/>
    <path clip-path="url(#pfa1fe5b3e1)" d="M 193.688935 146.404096 
L 185.94029 132.601384 
L 188.516393 133.416127 
z
" style="stroke:#000000;"/>
    <path clip-path="url(#pfa1fe5b3e1)" d="M 182.220048 163.506635 
L 186.189897 170.297448 
L 183.012781 170.28339 
z
" style="stroke:#000000;"/>
    <path clip-path="url(#pfa1fe5b3e1)" d="M 187.024336 155.621623 
L 185.246218 162.616695 
L 188.420833 162.651746 
z
" style="stroke:#000000;"/>
    <path clip-path="url(#pfa1fe5b3e1)" d="M 183.278151 177.140343 
L 186.189897 183.97341 
L 183.012781 183.996832 
z
" style="stroke:#000000;"/>
    <path clip-path="url(#pfa1fe5b3e1)" d="M 183.012781 170.28339 
L 186.454971 177.13566 
L 183.278151 177.140343 
z
" style="stroke:#000000;"/>
    <path clip-path="url(#pfa1fe5b3e1)" d="M 181.915663 205.506799 
L 187.024336 198.650687 
L 183.848154 198.71436 
z
" style="stroke:#000000;"/>
    <path clip-path="url(#pfa1fe5b3e1)" d="M 182.762895 132.484032 
L 193.688935 125.446466 
L 185.94029 132.601384 
z
" style="stroke:#000000;"/>
    <path clip-path="url(#pfa1fe5b3e1)" d="M 193.688935 153.389973 
L 182.762895 132.484032 
L 185.94029 132.601384 
z
" style="stroke:#000000;"/>
    <path clip-path="url(#pfa1fe5b3e1)" d="M 189.265864 184.423943 
L 185.246218 191.667431 
L 188.420833 191.622995 
z
" style="stroke:#000000;"/>
    <path clip-path="url(#pfa1fe5b3e1)" d="M 183.848154 198.71436 
L 180.909866 197.38701 
L 181.915663 205.506799 
z
" style="stroke:#000000;"/>
    <path clip-path="url(#pfa1fe5b3e1)" d="M 180.909866 156.889537 
L 183.848154 155.567322 
L 181.915663 148.771505 
z
" style="stroke:#000000;"/>
    <path clip-path="url(#pfa1fe5b3e1)" d="M 188.420833 162.651746 
L 186.092199 169.836967 
L 189.265864 169.852269 
z
" style="stroke:#000000;"/>
    <path clip-path="url(#pfa1fe5b3e1)" d="M 180.909866 197.38701 
L 183.848154 198.71436 
L 182.220048 190.772201 
z
" style="stroke:#000000;"/>
    <path clip-path="url(#pfa1fe5b3e1)" d="M 183.848154 155.567322 
L 180.909866 156.889537 
L 182.220048 163.506635 
z
" style="stroke:#000000;"/>
    <path clip-path="url(#pfa1fe5b3e1)" d="M 185.246218 162.616695 
L 187.024336 155.621623 
L 183.848154 155.567322 
z
" style="stroke:#000000;"/>
    <path clip-path="url(#pfa1fe5b3e1)" d="M 193.688935 146.404096 
L 193.688935 153.389973 
L 185.94029 132.601384 
z
" style="stroke:#000000;"/>
    <path clip-path="url(#pfa1fe5b3e1)" d="M 189.548728 177.138352 
L 186.092199 184.448638 
L 189.265864 184.423943 
z
" style="stroke:#000000;"/>
    <path clip-path="url(#pfa1fe5b3e1)" d="M 189.265864 169.852269 
L 186.375383 177.14305 
L 189.548728 177.138352 
z
" style="stroke:#000000;"/>
    <path clip-path="url(#pfa1fe5b3e1)" d="M 183.848154 198.71436 
L 188.420833 191.622995 
L 185.246218 191.667431 
z
" style="stroke:#000000;"/>
    <path clip-path="url(#pfa1fe5b3e1)" d="M 193.688935 125.446466 
L 193.688935 128.939404 
L 188.516393 133.416127 
z
" style="stroke:#000000;"/>
    <path clip-path="url(#pfa1fe5b3e1)" d="M 182.220048 190.772201 
L 185.246218 191.667431 
L 183.012781 183.996832 
z
" style="stroke:#000000;"/>
    <path clip-path="url(#pfa1fe5b3e1)" d="M 185.246218 162.616695 
L 182.220048 163.506635 
L 183.012781 170.28339 
z
" style="stroke:#000000;"/>
    <path clip-path="url(#pfa1fe5b3e1)" d="M 186.092199 169.836967 
L 188.420833 162.651746 
L 185.246218 162.616695 
z
" style="stroke:#000000;"/>
    <path clip-path="url(#pfa1fe5b3e1)" d="M 185.246218 191.667431 
L 182.220048 190.772201 
L 183.848154 198.71436 
z
" style="stroke:#000000;"/>
    <path clip-path="url(#pfa1fe5b3e1)" d="M 182.220048 163.506635 
L 185.246218 162.616695 
L 183.848154 155.567322 
z
" style="stroke:#000000;"/>
    <path clip-path="url(#pfa1fe5b3e1)" d="M 185.246218 191.667431 
L 189.265864 184.423943 
L 186.092199 184.448638 
z
" style="stroke:#000000;"/>
    <path clip-path="url(#pfa1fe5b3e1)" d="M 186.092199 169.836967 
L 183.012781 170.28339 
L 183.278151 177.140343 
z
" style="stroke:#000000;"/>
    <path clip-path="url(#pfa1fe5b3e1)" d="M 183.012781 183.996832 
L 186.092199 184.448638 
L 183.278151 177.140343 
z
" style="stroke:#000000;"/>
    <path clip-path="url(#pfa1fe5b3e1)" d="M 186.375383 177.14305 
L 189.265864 169.852269 
L 186.092199 169.836967 
z
" style="stroke:#000000;"/>
    <path clip-path="url(#pfa1fe5b3e1)" d="M 186.092199 184.448638 
L 189.548728 177.138352 
L 186.375383 177.14305 
z
" style="stroke:#000000;"/>
    <path clip-path="url(#pfa1fe5b3e1)" d="M 186.092199 184.448638 
L 183.012781 183.996832 
L 185.246218 191.667431 
z
" style="stroke:#000000;"/>
    <path clip-path="url(#pfa1fe5b3e1)" d="M 183.012781 170.28339 
L 186.092199 169.836967 
L 185.246218 162.616695 
z
" style="stroke:#000000;"/>
    <path clip-path="url(#pfa1fe5b3e1)" d="M 190.520281 128.811514 
L 188.516393 133.416127 
L 193.688935 128.939404 
z
" style="stroke:#000000;"/>
    <path clip-path="url(#pfa1fe5b3e1)" d="M 188.516393 133.416127 
L 190.520281 146.324252 
L 193.688935 146.404096 
z
" style="stroke:#000000;"/>
    <path clip-path="url(#pfa1fe5b3e1)" d="M 186.375383 177.14305 
L 183.278151 177.140343 
L 186.092199 184.448638 
z
" style="stroke:#000000;"/>
    <path clip-path="url(#pfa1fe5b3e1)" d="M 183.278151 177.140343 
L 186.375383 177.14305 
L 186.092199 169.836967 
z
" style="stroke:#000000;"/>
    <path clip-path="url(#pfa1fe5b3e1)" d="M 188.516393 133.416127 
L 190.520281 128.811514 
L 185.341885 133.300857 
z
" style="stroke:#000000;"/>
    <path clip-path="url(#pfa1fe5b3e1)" d="M 190.520281 146.324252 
L 188.516393 133.416127 
L 185.341885 133.300857 
z
" style="stroke:#000000;"/>
    <path clip-path="url(#pfa1fe5b3e1)" d="M 193.688935 125.446466 
L 182.762895 132.484032 
L 190.520281 125.308966 
z
" style="stroke:#000000;"/>
    <path clip-path="url(#pfa1fe5b3e1)" d="M 182.762895 132.484032 
L 193.688935 153.389973 
L 190.520281 153.329348 
z
" style="stroke:#000000;"/>
    <path clip-path="url(#pfa1fe5b3e1)" d="M 182.762895 132.484032 
L 190.520281 146.324252 
L 185.341885 133.300857 
z
" style="stroke:#000000;"/>
    <path clip-path="url(#pfa1fe5b3e1)" d="M 185.341885 133.300857 
L 190.520281 125.308966 
L 182.762895 132.484032 
z
" style="stroke:#000000;"/>
    <path clip-path="url(#pfa1fe5b3e1)" d="M 193.688935 125.446466 
L 198.888772 133.194444 
L 193.688935 128.939404 
z
" style="stroke:#000000;"/>
    <path clip-path="url(#pfa1fe5b3e1)" d="M 193.688935 146.404096 
L 201.498993 132.261962 
L 193.688935 153.389973 
z
" style="stroke:#000000;"/>
    <path clip-path="url(#pfa1fe5b3e1)" d="M 190.520281 146.324252 
L 182.762895 132.484032 
L 190.520281 153.329348 
z
" style="stroke:#000000;"/>
    <path clip-path="url(#pfa1fe5b3e1)" d="M 190.520281 125.308966 
L 185.341885 133.300857 
L 190.520281 128.811514 
z
" style="stroke:#000000;"/>
    <path clip-path="url(#pfa1fe5b3e1)" d="M 198.888772 133.194444 
L 193.688935 125.446466 
L 201.498993 132.261962 
z
" style="stroke:#000000;"/>
    <path clip-path="url(#pfa1fe5b3e1)" d="M 201.498993 132.261962 
L 193.688935 146.404096 
L 198.888772 133.194444 
z
" style="stroke:#000000;"/>
    <path clip-path="url(#pfa1fe5b3e1)" d="M 190.520281 125.308966 
L 201.498993 132.261962 
L 193.688935 125.446466 
z
" style="stroke:#000000;"/>
    <path clip-path="url(#pfa1fe5b3e1)" d="M 201.498993 132.261962 
L 190.520281 153.329348 
L 193.688935 153.389973 
z
" style="stroke:#000000;"/>
    <path clip-path="url(#pfa1fe5b3e1)" d="M 195.726077 133.077952 
L 193.688935 128.939404 
L 198.888772 133.194444 
z
" style="stroke:#000000;"/>
    <path clip-path="url(#pfa1fe5b3e1)" d="M 193.688935 146.404096 
L 195.726077 133.077952 
L 198.888772 133.194444 
z
" style="stroke:#000000;"/>
    <path clip-path="url(#pfa1fe5b3e1)" d="M 200.976397 177.148296 
L 197.84661 177.145572 
L 198.131949 169.827133 
z
" style="stroke:#000000;"/>
    <path clip-path="url(#pfa1fe5b3e1)" d="M 197.84661 177.145572 
L 200.976397 177.148296 
L 198.131949 184.464508 
z
" style="stroke:#000000;"/>
    <path clip-path="url(#pfa1fe5b3e1)" d="M 193.688935 128.939404 
L 195.726077 133.077952 
L 190.520281 128.811514 
z
" style="stroke:#000000;"/>
    <path clip-path="url(#pfa1fe5b3e1)" d="M 195.726077 133.077952 
L 193.688935 146.404096 
L 190.520281 146.324252 
z
" style="stroke:#000000;"/>
    <path clip-path="url(#pfa1fe5b3e1)" d="M 201.245479 170.258113 
L 198.131949 169.827133 
L 198.985352 162.583081 
z
" style="stroke:#000000;"/>
    <path clip-path="url(#pfa1fe5b3e1)" d="M 198.131949 184.464508 
L 201.245479 184.038947 
L 198.985352 191.710045 
z
" style="stroke:#000000;"/>
    <path clip-path="url(#pfa1fe5b3e1)" d="M 198.131949 184.464508 
L 194.682715 177.15031 
L 197.84661 177.145572 
z
" style="stroke:#000000;"/>
    <path clip-path="url(#pfa1fe5b3e1)" d="M 197.84661 177.145572 
L 194.968382 169.811693 
L 198.131949 169.827133 
z
" style="stroke:#000000;"/>
    <path clip-path="url(#pfa1fe5b3e1)" d="M 201.245479 184.038947 
L 198.131949 184.464508 
L 200.976397 177.148296 
z
" style="stroke:#000000;"/>
    <path clip-path="url(#pfa1fe5b3e1)" d="M 198.131949 169.827133 
L 201.245479 170.258113 
L 200.976397 177.148296 
z
" style="stroke:#000000;"/>
    <path clip-path="url(#pfa1fe5b3e1)" d="M 198.985352 191.710045 
L 194.968382 184.489427 
L 198.131949 184.464508 
z
" style="stroke:#000000;"/>
    <path clip-path="url(#pfa1fe5b3e1)" d="M 202.05017 163.438333 
L 198.985352 162.583081 
L 200.398915 155.486762 
z
" style="stroke:#000000;"/>
    <path clip-path="url(#pfa1fe5b3e1)" d="M 198.985352 191.710045 
L 202.05017 190.860127 
L 200.398915 198.808824 
z
" style="stroke:#000000;"/>
    <path clip-path="url(#pfa1fe5b3e1)" d="M 198.131949 169.827133 
L 195.822769 162.547652 
L 198.985352 162.583081 
z
" style="stroke:#000000;"/>
    <path clip-path="url(#pfa1fe5b3e1)" d="M 198.985352 162.583081 
L 202.05017 163.438333 
L 201.245479 170.258113 
z
" style="stroke:#000000;"/>
    <path clip-path="url(#pfa1fe5b3e1)" d="M 202.05017 190.860127 
L 198.985352 191.710045 
L 201.245479 184.038947 
z
" style="stroke:#000000;"/>
    <path clip-path="url(#pfa1fe5b3e1)" d="M 195.726077 133.077952 
L 190.520281 125.308966 
L 190.520281 128.811514 
z
" style="stroke:#000000;"/>
    <path clip-path="url(#pfa1fe5b3e1)" d="M 200.398915 198.808824 
L 195.822769 191.754961 
L 198.985352 191.710045 
z
" style="stroke:#000000;"/>
    <path clip-path="url(#pfa1fe5b3e1)" d="M 194.968382 169.811693 
L 197.84661 177.145572 
L 194.682715 177.15031 
z
" style="stroke:#000000;"/>
    <path clip-path="url(#pfa1fe5b3e1)" d="M 194.682715 177.15031 
L 198.131949 184.464508 
L 194.968382 184.489427 
z
" style="stroke:#000000;"/>
    <path clip-path="url(#pfa1fe5b3e1)" d="M 198.339318 132.14274 
L 190.520281 146.324252 
L 190.520281 153.329348 
z
" style="stroke:#000000;"/>
    <path clip-path="url(#pfa1fe5b3e1)" d="M 198.985352 162.583081 
L 197.237966 155.431718 
L 200.398915 155.486762 
z
" style="stroke:#000000;"/>
    <path clip-path="url(#pfa1fe5b3e1)" d="M 200.398915 155.486762 
L 203.382982 156.758281 
L 202.05017 163.438333 
z
" style="stroke:#000000;"/>
    <path clip-path="url(#pfa1fe5b3e1)" d="M 203.382982 197.542499 
L 200.398915 198.808824 
L 202.05017 190.860127 
z
" style="stroke:#000000;"/>
    <path clip-path="url(#pfa1fe5b3e1)" d="M 203.382982 156.758281 
L 200.398915 155.486762 
L 202.359494 148.610417 
z
" style="stroke:#000000;"/>
    <path clip-path="url(#pfa1fe5b3e1)" d="M 200.398915 198.808824 
L 203.382982 197.542499 
L 202.359494 205.688581 
z
" style="stroke:#000000;"/>
    <path clip-path="url(#pfa1fe5b3e1)" d="M 195.822769 162.547652 
L 198.131949 169.827133 
L 194.968382 169.811693 
z
" style="stroke:#000000;"/>
    <path clip-path="url(#pfa1fe5b3e1)" d="M 194.968382 184.489427 
L 198.985352 191.710045 
L 195.822769 191.754961 
z
" style="stroke:#000000;"/>
    <path clip-path="url(#pfa1fe5b3e1)" d="M 201.498993 132.261962 
L 190.520281 125.308966 
L 198.339318 132.14274 
z
" style="stroke:#000000;"/>
    <path clip-path="url(#pfa1fe5b3e1)" d="M 190.520281 153.329348 
L 201.498993 132.261962 
L 198.339318 132.14274 
z
" style="stroke:#000000;"/>
    <path clip-path="url(#pfa1fe5b3e1)" d="M 202.359494 205.688581 
L 197.237966 198.873369 
L 200.398915 198.808824 
z
" style="stroke:#000000;"/>
    <path clip-path="url(#pfa1fe5b3e1)" d="M 201.245479 170.258113 
L 197.816116 177.153049 
L 200.976397 177.148296 
z
" style="stroke:#000000;"/>
    <path clip-path="url(#pfa1fe5b3e1)" d="M 200.976397 177.148296 
L 198.08551 184.06273 
L 201.245479 184.038947 
z
" style="stroke:#000000;"/>
    <path clip-path="url(#pfa1fe5b3e1)" d="M 197.237966 155.431718 
L 198.985352 162.583081 
L 195.822769 162.547652 
z
" style="stroke:#000000;"/>
    <path clip-path="url(#pfa1fe5b3e1)" d="M 202.05017 163.438333 
L 198.08551 170.243838 
L 201.245479 170.258113 
z
" style="stroke:#000000;"/>
    <path clip-path="url(#pfa1fe5b3e1)" d="M 190.520281 146.324252 
L 198.339318 132.14274 
L 195.726077 133.077952 
z
" style="stroke:#000000;"/>
    <path clip-path="url(#pfa1fe5b3e1)" d="M 190.520281 125.308966 
L 195.726077 133.077952 
L 198.339318 132.14274 
z
" style="stroke:#000000;"/>
    <path clip-path="url(#pfa1fe5b3e1)" d="M 200.398915 155.486762 
L 199.200819 148.536318 
L 202.359494 148.610417 
z
" style="stroke:#000000;"/>
    <path clip-path="url(#pfa1fe5b3e1)" d="M 195.822769 191.754961 
L 200.398915 198.808824 
L 197.237966 198.873369 
z
" style="stroke:#000000;"/>
    <path clip-path="url(#pfa1fe5b3e1)" d="M 201.245479 184.038947 
L 198.891136 190.902765 
L 202.05017 190.860127 
z
" style="stroke:#000000;"/>
    <path clip-path="url(#pfa1fe5b3e1)" d="M 202.359494 148.610417 
L 205.231398 150.286301 
L 203.382982 156.758281 
z
" style="stroke:#000000;"/>
    <path clip-path="url(#pfa1fe5b3e1)" d="M 205.231398 204.017695 
L 202.359494 205.688581 
L 203.382982 197.542499 
z
" style="stroke:#000000;"/>
    <path clip-path="url(#pfa1fe5b3e1)" d="M 205.231398 150.286301 
L 202.359494 148.610417 
L 204.848834 142.024492 
z
" style="stroke:#000000;"/>
    <path clip-path="url(#pfa1fe5b3e1)" d="M 202.359494 205.688581 
L 205.231398 204.017695 
L 204.848834 212.278839 
z
" style="stroke:#000000;"/>
    <path clip-path="url(#pfa1fe5b3e1)" d="M 203.382982 156.758281 
L 198.891136 163.405211 
L 202.05017 163.438333 
z
" style="stroke:#000000;"/>
    <path clip-path="url(#pfa1fe5b3e1)" d="M 197.816116 177.153049 
L 194.682715 177.15031 
L 194.968382 184.489427 
z
" style="stroke:#000000;"/>
    <path clip-path="url(#pfa1fe5b3e1)" d="M 194.682715 177.15031 
L 197.816116 177.153049 
L 194.968382 169.811693 
z
" style="stroke:#000000;"/>
    <path clip-path="url(#pfa1fe5b3e1)" d="M 199.200819 148.536318 
L 200.398915 155.486762 
L 197.237966 155.431718 
z
" style="stroke:#000000;"/>
    <path clip-path="url(#pfa1fe5b3e1)" d="M 198.08551 184.06273 
L 200.976397 177.148296 
L 197.816116 177.153049 
z
" style="stroke:#000000;"/>
    <path clip-path="url(#pfa1fe5b3e1)" d="M 202.05017 190.860127 
L 200.225499 197.60364 
L 203.382982 197.542499 
z
" style="stroke:#000000;"/>
    <path clip-path="url(#pfa1fe5b3e1)" d="M 197.816116 177.153049 
L 201.245479 170.258113 
L 198.08551 170.243838 
z
" style="stroke:#000000;"/>
    <path clip-path="url(#pfa1fe5b3e1)" d="M 198.08551 184.06273 
L 194.968382 184.489427 
L 195.822769 191.754961 
z
" style="stroke:#000000;"/>
    <path clip-path="url(#pfa1fe5b3e1)" d="M 194.968382 169.811693 
L 198.08551 170.243838 
L 195.822769 162.547652 
z
" style="stroke:#000000;"/>
    <path clip-path="url(#pfa1fe5b3e1)" d="M 204.848834 212.278839 
L 199.200819 205.7722 
L 202.359494 205.688581 
z
" style="stroke:#000000;"/>
    <path clip-path="url(#pfa1fe5b3e1)" d="M 198.891136 190.902765 
L 201.245479 184.038947 
L 198.08551 184.06273 
z
" style="stroke:#000000;"/>
    <path clip-path="url(#pfa1fe5b3e1)" d="M 197.237966 198.873369 
L 202.359494 205.688581 
L 199.200819 205.7722 
z
" style="stroke:#000000;"/>
    <path clip-path="url(#pfa1fe5b3e1)" d="M 198.08551 170.243838 
L 202.05017 163.438333 
L 198.891136 163.405211 
z
" style="stroke:#000000;"/>
    <path clip-path="url(#pfa1fe5b3e1)" d="M 198.08551 170.243838 
L 194.968382 169.811693 
L 197.816116 177.153049 
z
" style="stroke:#000000;"/>
    <path clip-path="url(#pfa1fe5b3e1)" d="M 194.968382 184.489427 
L 198.08551 184.06273 
L 197.816116 177.153049 
z
" style="stroke:#000000;"/>
    <path clip-path="url(#pfa1fe5b3e1)" d="M 205.231398 150.286301 
L 200.225499 156.706669 
L 203.382982 156.758281 
z
" style="stroke:#000000;"/>
    <path clip-path="url(#pfa1fe5b3e1)" d="M 202.359494 148.610417 
L 201.693063 141.932077 
L 204.848834 142.024492 
z
" style="stroke:#000000;"/>
    <path clip-path="url(#pfa1fe5b3e1)" d="M 204.848834 142.024492 
L 207.577979 144.08903 
L 205.231398 150.286301 
z
" style="stroke:#000000;"/>
    <path clip-path="url(#pfa1fe5b3e1)" d="M 207.577979 210.219051 
L 204.848834 212.278839 
L 205.231398 204.017695 
z
" style="stroke:#000000;"/>
    <path clip-path="url(#pfa1fe5b3e1)" d="M 198.891136 190.902765 
L 195.822769 191.754961 
L 197.237966 198.873369 
z
" style="stroke:#000000;"/>
    <path clip-path="url(#pfa1fe5b3e1)" d="M 195.822769 162.547652 
L 198.891136 163.405211 
L 197.237966 155.431718 
z
" style="stroke:#000000;"/>
    <path clip-path="url(#pfa1fe5b3e1)" d="M 200.225499 197.60364 
L 202.05017 190.860127 
L 198.891136 190.902765 
z
" style="stroke:#000000;"/>
    <path clip-path="url(#pfa1fe5b3e1)" d="M 195.822769 191.754961 
L 198.891136 190.902765 
L 198.08551 184.06273 
z
" style="stroke:#000000;"/>
    <path clip-path="url(#pfa1fe5b3e1)" d="M 198.891136 163.405211 
L 195.822769 162.547652 
L 198.08551 170.243838 
z
" style="stroke:#000000;"/>
    <path clip-path="url(#pfa1fe5b3e1)" d="M 203.382982 197.542499 
L 202.076075 204.096812 
L 205.231398 204.017695 
z
" style="stroke:#000000;"/>
    <path clip-path="url(#pfa1fe5b3e1)" d="M 198.891136 163.405211 
L 203.382982 156.758281 
L 200.225499 156.706669 
z
" style="stroke:#000000;"/>
    <path clip-path="url(#pfa1fe5b3e1)" d="M 207.843473 135.797496 
L 207.577979 144.08903 
L 204.848834 142.024492 
z
" style="stroke:#000000;"/>
    <path clip-path="url(#pfa1fe5b3e1)" d="M 207.577979 210.219051 
L 207.843473 218.511046 
L 204.848834 212.278839 
z
" style="stroke:#000000;"/>
    <path clip-path="url(#pfa1fe5b3e1)" d="M 201.693063 141.932077 
L 202.359494 148.610417 
L 199.200819 148.536318 
z
" style="stroke:#000000;"/>
    <path clip-path="url(#pfa1fe5b3e1)" d="M 197.237966 198.873369 
L 200.225499 197.60364 
L 198.891136 190.902765 
z
" style="stroke:#000000;"/>
    <path clip-path="url(#pfa1fe5b3e1)" d="M 200.225499 156.706669 
L 197.237966 155.431718 
L 198.891136 163.405211 
z
" style="stroke:#000000;"/>
    <path clip-path="url(#pfa1fe5b3e1)" d="M 200.225499 197.60364 
L 197.237966 198.873369 
L 199.200819 205.7722 
z
" style="stroke:#000000;"/>
    <path clip-path="url(#pfa1fe5b3e1)" d="M 197.237966 155.431718 
L 200.225499 156.706669 
L 199.200819 148.536318 
z
" style="stroke:#000000;"/>
    <path clip-path="url(#pfa1fe5b3e1)" d="M 202.076075 204.096812 
L 203.382982 197.542499 
L 200.225499 197.60364 
z
" style="stroke:#000000;"/>
    <path clip-path="url(#pfa1fe5b3e1)" d="M 199.200819 205.7722 
L 204.848834 212.278839 
L 201.693063 212.380796 
z
" style="stroke:#000000;"/>
    <path clip-path="url(#pfa1fe5b3e1)" d="M 207.843473 218.511046 
L 201.693063 212.380796 
L 204.848834 212.278839 
z
" style="stroke:#000000;"/>
    <path clip-path="url(#pfa1fe5b3e1)" d="M 207.577979 144.08903 
L 202.076075 150.216732 
L 205.231398 150.286301 
z
" style="stroke:#000000;"/>
    <path clip-path="url(#pfa1fe5b3e1)" d="M 200.225499 156.706669 
L 205.231398 150.286301 
L 202.076075 150.216732 
z
" style="stroke:#000000;"/>
    <path clip-path="url(#pfa1fe5b3e1)" d="M 207.843473 135.797496 
L 210.400453 138.230837 
L 207.577979 144.08903 
z
" style="stroke:#000000;"/>
    <path clip-path="url(#pfa1fe5b3e1)" d="M 210.400453 216.082155 
L 207.843473 218.511046 
L 207.577979 210.219051 
z
" style="stroke:#000000;"/>
    <path clip-path="url(#pfa1fe5b3e1)" d="M 205.231398 204.017695 
L 204.425412 210.315442 
L 207.577979 210.219051 
z
" style="stroke:#000000;"/>
    <path clip-path="url(#pfa1fe5b3e1)" d="M 204.848834 142.024492 
L 204.691219 135.687688 
L 207.843473 135.797496 
z
" style="stroke:#000000;"/>
    <path clip-path="url(#pfa1fe5b3e1)" d="M 199.200819 205.7722 
L 202.076075 204.096812 
L 200.225499 197.60364 
z
" style="stroke:#000000;"/>
    <path clip-path="url(#pfa1fe5b3e1)" d="M 202.076075 150.216732 
L 199.200819 148.536318 
L 200.225499 156.706669 
z
" style="stroke:#000000;"/>
    <path clip-path="url(#pfa1fe5b3e1)" d="M 204.691219 135.687688 
L 204.848834 142.024492 
L 201.693063 141.932077 
z
" style="stroke:#000000;"/>
    <path clip-path="url(#pfa1fe5b3e1)" d="M 202.076075 204.096812 
L 199.200819 205.7722 
L 201.693063 212.380796 
z
" style="stroke:#000000;"/>
    <path clip-path="url(#pfa1fe5b3e1)" d="M 199.200819 148.536318 
L 202.076075 150.216732 
L 201.693063 141.932077 
z
" style="stroke:#000000;"/>
    <path clip-path="url(#pfa1fe5b3e1)" d="M 204.425412 210.315442 
L 205.231398 204.017695 
L 202.076075 204.096812 
z
" style="stroke:#000000;"/>
    <path clip-path="url(#pfa1fe5b3e1)" d="M 211.315004 129.994492 
L 210.400453 138.230837 
L 207.843473 135.797496 
z
" style="stroke:#000000;"/>
    <path clip-path="url(#pfa1fe5b3e1)" d="M 210.400453 216.082155 
L 211.315004 224.320091 
L 207.843473 218.511046 
z
" style="stroke:#000000;"/>
    <path clip-path="url(#pfa1fe5b3e1)" d="M 210.400453 138.230837 
L 204.425412 144.002208 
L 207.577979 144.08903 
z
" style="stroke:#000000;"/>
    <path clip-path="url(#pfa1fe5b3e1)" d="M 202.076075 150.216732 
L 207.577979 144.08903 
L 204.425412 144.002208 
z
" style="stroke:#000000;"/>
    <path clip-path="url(#pfa1fe5b3e1)" d="M 201.693063 212.380796 
L 207.843473 218.511046 
L 204.691219 218.630426 
z
" style="stroke:#000000;"/>
    <path clip-path="url(#pfa1fe5b3e1)" d="M 211.315004 224.320091 
L 204.691219 218.630426 
L 207.843473 218.511046 
z
" style="stroke:#000000;"/>
    <path clip-path="url(#pfa1fe5b3e1)" d="M 207.577979 210.219051 
L 207.251221 216.194951 
L 210.400453 216.082155 
z
" style="stroke:#000000;"/>
    <path clip-path="url(#pfa1fe5b3e1)" d="M 201.693063 212.380796 
L 204.425412 210.315442 
L 202.076075 204.096812 
z
" style="stroke:#000000;"/>
    <path clip-path="url(#pfa1fe5b3e1)" d="M 204.425412 144.002208 
L 201.693063 141.932077 
L 202.076075 150.216732 
z
" style="stroke:#000000;"/>
    <path clip-path="url(#pfa1fe5b3e1)" d="M 211.315004 129.994492 
L 213.671786 132.773772 
L 210.400453 138.230837 
z
" style="stroke:#000000;"/>
    <path clip-path="url(#pfa1fe5b3e1)" d="M 213.671786 221.544913 
L 211.315004 224.320091 
L 210.400453 216.082155 
z
" style="stroke:#000000;"/>
    <path clip-path="url(#pfa1fe5b3e1)" d="M 207.843473 135.797496 
L 208.166857 129.868384 
L 211.315004 129.994492 
z
" style="stroke:#000000;"/>
    <path clip-path="url(#pfa1fe5b3e1)" d="M 207.251221 216.194951 
L 207.577979 210.219051 
L 204.425412 210.315442 
z
" style="stroke:#000000;"/>
    <path clip-path="url(#pfa1fe5b3e1)" d="M 204.691219 218.630426 
L 204.425412 210.315442 
L 201.693063 212.380796 
z
" style="stroke:#000000;"/>
    <path clip-path="url(#pfa1fe5b3e1)" d="M 204.425412 144.002208 
L 204.691219 135.687688 
L 201.693063 141.932077 
z
" style="stroke:#000000;"/>
    <path clip-path="url(#pfa1fe5b3e1)" d="M 208.166857 129.868384 
L 207.843473 135.797496 
L 204.691219 135.687688 
z
" style="stroke:#000000;"/>
    <path clip-path="url(#pfa1fe5b3e1)" d="M 214.654226 128.245781 
L 211.315004 129.994492 
L 213.270658 127.33879 
z
" style="stroke:#000000;"/>
    <path clip-path="url(#pfa1fe5b3e1)" d="M 211.315004 224.320091 
L 214.654226 226.074614 
L 213.270658 226.979197 
z
" style="stroke:#000000;"/>
    <path clip-path="url(#pfa1fe5b3e1)" d="M 204.425412 144.002208 
L 210.400453 138.230837 
L 207.251221 138.127638 
z
" style="stroke:#000000;"/>
    <path clip-path="url(#pfa1fe5b3e1)" d="M 211.315004 129.994492 
L 214.654226 128.245781 
L 213.671786 132.773772 
z
" style="stroke:#000000;"/>
    <path clip-path="url(#pfa1fe5b3e1)" d="M 214.654226 226.074614 
L 211.315004 224.320091 
L 213.671786 221.544913 
z
" style="stroke:#000000;"/>
    <path clip-path="url(#pfa1fe5b3e1)" d="M 213.671786 132.773772 
L 207.251221 138.127638 
L 210.400453 138.230837 
z
" style="stroke:#000000;"/>
    <path clip-path="url(#pfa1fe5b3e1)" d="M 213.270658 226.979197 
L 208.166857 224.455806 
L 211.315004 224.320091 
z
" style="stroke:#000000;"/>
    <path clip-path="url(#pfa1fe5b3e1)" d="M 204.691219 218.630426 
L 211.315004 224.320091 
L 208.166857 224.455806 
z
" style="stroke:#000000;"/>
    <path clip-path="url(#pfa1fe5b3e1)" d="M 204.691219 218.630426 
L 207.251221 216.194951 
L 204.425412 210.315442 
z
" style="stroke:#000000;"/>
    <path clip-path="url(#pfa1fe5b3e1)" d="M 207.251221 138.127638 
L 204.691219 135.687688 
L 204.425412 144.002208 
z
" style="stroke:#000000;"/>
    <path clip-path="url(#pfa1fe5b3e1)" d="M 210.400453 216.082155 
L 210.526447 221.673076 
L 213.671786 221.544913 
z
" style="stroke:#000000;"/>
    <path clip-path="url(#pfa1fe5b3e1)" d="M 211.315004 129.994492 
L 210.12484 127.205178 
L 213.270658 127.33879 
z
" style="stroke:#000000;"/>
    <path clip-path="url(#pfa1fe5b3e1)" d="M 213.671786 132.773772 
L 214.654226 128.245781 
L 216.109443 129.47092 
z
" style="stroke:#000000;"/>
    <path clip-path="url(#pfa1fe5b3e1)" d="M 214.654226 226.074614 
L 213.671786 221.544913 
L 216.109443 224.852008 
z
" style="stroke:#000000;"/>
    <path clip-path="url(#pfa1fe5b3e1)" d="M 210.526447 221.673076 
L 210.400453 216.082155 
L 207.251221 216.194951 
z
" style="stroke:#000000;"/>
    <path clip-path="url(#pfa1fe5b3e1)" d="M 208.166857 224.455806 
L 207.251221 216.194951 
L 204.691219 218.630426 
z
" style="stroke:#000000;"/>
    <path clip-path="url(#pfa1fe5b3e1)" d="M 207.251221 138.127638 
L 208.166857 129.868384 
L 204.691219 135.687688 
z
" style="stroke:#000000;"/>
    <path clip-path="url(#pfa1fe5b3e1)" d="M 210.12484 127.205178 
L 214.654226 128.245781 
L 213.270658 127.33879 
z
" style="stroke:#000000;"/>
    <path clip-path="url(#pfa1fe5b3e1)" d="M 210.12484 127.205178 
L 211.315004 129.994492 
L 208.166857 129.868384 
z
" style="stroke:#000000;"/>
    <path clip-path="url(#pfa1fe5b3e1)" d="M 211.510063 226.215435 
L 213.270658 226.979197 
L 214.654226 226.074614 
z
" style="stroke:#000000;"/>
    <path clip-path="url(#pfa1fe5b3e1)" d="M 207.251221 138.127638 
L 213.671786 132.773772 
L 210.526447 132.655238 
z
" style="stroke:#000000;"/>
    <path clip-path="url(#pfa1fe5b3e1)" d="M 208.166857 224.455806 
L 213.270658 226.979197 
L 210.12484 227.122434 
z
" style="stroke:#000000;"/>
    <path clip-path="url(#pfa1fe5b3e1)" d="M 210.526447 221.673076 
L 216.109443 224.852008 
L 213.671786 221.544913 
z
" style="stroke:#000000;"/>
    <path clip-path="url(#pfa1fe5b3e1)" d="M 211.510063 128.114598 
L 216.109443 129.47092 
L 214.654226 128.245781 
z
" style="stroke:#000000;"/>
    <path clip-path="url(#pfa1fe5b3e1)" d="M 212.967025 129.343049 
L 213.671786 132.773772 
L 216.109443 129.47092 
z
" style="stroke:#000000;"/>
    <path clip-path="url(#pfa1fe5b3e1)" d="M 208.166857 224.455806 
L 210.526447 221.673076 
L 207.251221 216.194951 
z
" style="stroke:#000000;"/>
    <path clip-path="url(#pfa1fe5b3e1)" d="M 210.526447 132.655238 
L 208.166857 129.868384 
L 207.251221 138.127638 
z
" style="stroke:#000000;"/>
    <path clip-path="url(#pfa1fe5b3e1)" d="M 213.270658 226.979197 
L 211.510063 226.215435 
L 210.12484 227.122434 
z
" style="stroke:#000000;"/>
    <path clip-path="url(#pfa1fe5b3e1)" d="M 212.967025 224.98953 
L 214.654226 226.074614 
L 216.109443 224.852008 
z
" style="stroke:#000000;"/>
    <path clip-path="url(#pfa1fe5b3e1)" d="M 214.654226 128.245781 
L 210.12484 127.205178 
L 211.510063 128.114598 
z
" style="stroke:#000000;"/>
    <path clip-path="url(#pfa1fe5b3e1)" d="M 213.671786 132.773772 
L 212.967025 129.343049 
L 210.526447 132.655238 
z
" style="stroke:#000000;"/>
    <path clip-path="url(#pfa1fe5b3e1)" d="M 211.510063 226.215435 
L 208.166857 224.455806 
L 210.12484 227.122434 
z
" style="stroke:#000000;"/>
    <path clip-path="url(#pfa1fe5b3e1)" d="M 208.166857 129.868384 
L 211.510063 128.114598 
L 210.12484 127.205178 
z
" style="stroke:#000000;"/>
    <path clip-path="url(#pfa1fe5b3e1)" d="M 208.166857 224.455806 
L 211.510063 226.215435 
L 210.526447 221.673076 
z
" style="stroke:#000000;"/>
    <path clip-path="url(#pfa1fe5b3e1)" d="M 211.510063 128.114598 
L 208.166857 129.868384 
L 210.526447 132.655238 
z
" style="stroke:#000000;"/>
    <path clip-path="url(#pfa1fe5b3e1)" d="M 214.654226 226.074614 
L 212.967025 224.98953 
L 211.510063 226.215435 
z
" style="stroke:#000000;"/>
    <path clip-path="url(#pfa1fe5b3e1)" d="M 216.109443 224.852008 
L 210.526447 221.673076 
L 212.967025 224.98953 
z
" style="stroke:#000000;"/>
    <path clip-path="url(#pfa1fe5b3e1)" d="M 216.109443 129.47092 
L 211.510063 128.114598 
L 212.967025 129.343049 
z
" style="stroke:#000000;"/>
    <path clip-path="url(#pfa1fe5b3e1)" d="M 210.526447 221.673076 
L 211.510063 226.215435 
L 212.967025 224.98953 
z
" style="stroke:#000000;"/>
    <path clip-path="url(#pfa1fe5b3e1)" d="M 211.510063 128.114598 
L 210.526447 132.655238 
L 212.967025 129.343049 
z
" style="stroke:#000000;"/>
   </g>
  </g>
 </g>
 <defs>
  <clipPath id="pfa1fe5b3e1">
   <rect height="271.8" width="279" x="45" y="43.2"/>
  </clipPath>
 </defs>
</svg>
