<?xml version="1.0" encoding="utf-8" standalone="no"?>
<!DOCTYPE svg PUBLIC "-//W3C//DTD SVG 1.1//EN"
  "http://www.w3.org/Graphics/SVG/1.1/DTD/svg11.dtd">
<!-- Created with matplotlib (https://matplotlib.org/) -->
<svg height="360pt" version="1.1" viewBox="0 0 360 360" width="360pt" xmlns="http://www.w3.org/2000/svg" xmlns:xlink="http://www.w3.org/1999/xlink">
 <defs>
  <style type="text/css">
*{stroke-linecap:butt;stroke-linejoin:round;}
  </style>
 </defs>
 <g id="figure_1">
  <g id="patch_1">
   <path d="M 45 315 
L 324 315 
L 324 43.2 
L 45 43.2 
z
" style="fill:#ffffff;"/>
  </g>
  <g id="axes_1">
   <g id="Poly3DCollection_1">
    <path clip-path="url(#p9a442fbc92)" d="M 178.896417 129.327293 
L 179.618155 133.704708 
L 177.830329 130.598805 
z
" style="stroke:#000000;"/>
    <path clip-path="url(#p9a442fbc92)" d="M 179.618155 220.53836 
L 178.896417 224.913645 
L 177.830329 223.638987 
z
" style="stroke:#000000;"/>
    <path clip-path="url(#p9a442fbc92)" d="M 173.718223 130.505509 
L 178.896417 129.327293 
L 177.830329 130.598805 
z
" style="stroke:#000000;"/>
    <path clip-path="url(#p9a442fbc92)" d="M 173.718223 223.739325 
L 179.618155 220.53836 
L 177.830329 223.638987 
z
" style="stroke:#000000;"/>
    <path clip-path="url(#p9a442fbc92)" d="M 174.782701 225.016732 
L 177.830329 223.638987 
L 178.896417 224.913645 
z
" style="stroke:#000000;"/>
    <path clip-path="url(#p9a442fbc92)" d="M 177.830329 223.638987 
L 174.782701 225.016732 
L 173.718223 223.739325 
z
" style="stroke:#000000;"/>
    <path clip-path="url(#p9a442fbc92)" d="M 175.503351 133.61774 
L 177.830329 130.598805 
L 179.618155 133.704708 
z
" style="stroke:#000000;"/>
    <path clip-path="url(#p9a442fbc92)" d="M 178.896417 129.327293 
L 181.35616 130.866086 
L 179.618155 133.704708 
z
" style="stroke:#000000;"/>
    <path clip-path="url(#p9a442fbc92)" d="M 181.35616 223.382109 
L 178.896417 224.913645 
L 179.618155 220.53836 
z
" style="stroke:#000000;"/>
    <path clip-path="url(#p9a442fbc92)" d="M 177.830329 130.598805 
L 175.503351 133.61774 
L 173.718223 130.505509 
z
" style="stroke:#000000;"/>
    <path clip-path="url(#p9a442fbc92)" d="M 174.782701 129.231261 
L 179.913305 128.366777 
L 178.896417 129.327293 
z
" style="stroke:#000000;"/>
    <path clip-path="url(#p9a442fbc92)" d="M 181.35616 130.866086 
L 178.896417 129.327293 
L 179.913305 128.366777 
z
" style="stroke:#000000;"/>
    <path clip-path="url(#p9a442fbc92)" d="M 178.896417 224.913645 
L 181.35616 223.382109 
L 179.913305 225.877161 
z
" style="stroke:#000000;"/>
    <path clip-path="url(#p9a442fbc92)" d="M 178.896417 129.327293 
L 173.718223 130.505509 
L 174.782701 129.231261 
z
" style="stroke:#000000;"/>
    <path clip-path="url(#p9a442fbc92)" d="M 175.798057 225.982349 
L 178.896417 224.913645 
L 179.913305 225.877161 
z
" style="stroke:#000000;"/>
    <path clip-path="url(#p9a442fbc92)" d="M 179.618155 220.53836 
L 173.718223 223.739325 
L 175.503351 220.632392 
z
" style="stroke:#000000;"/>
    <path clip-path="url(#p9a442fbc92)" d="M 178.896417 224.913645 
L 175.798057 225.982349 
L 174.782701 225.016732 
z
" style="stroke:#000000;"/>
    <path clip-path="url(#p9a442fbc92)" d="M 181.35616 130.866086 
L 182.033124 138.906154 
L 179.618155 133.704708 
z
" style="stroke:#000000;"/>
    <path clip-path="url(#p9a442fbc92)" d="M 182.033124 215.344039 
L 181.35616 223.382109 
L 179.618155 220.53836 
z
" style="stroke:#000000;"/>
    <path clip-path="url(#p9a442fbc92)" d="M 179.913305 128.366777 
L 174.782701 129.231261 
L 175.798057 128.268658 
z
" style="stroke:#000000;"/>
    <path clip-path="url(#p9a442fbc92)" d="M 174.782701 225.016732 
L 175.503351 220.632392 
L 173.718223 223.739325 
z
" style="stroke:#000000;"/>
    <path clip-path="url(#p9a442fbc92)" d="M 175.503351 133.61774 
L 174.782701 129.231261 
L 173.718223 130.505509 
z
" style="stroke:#000000;"/>
    <path clip-path="url(#p9a442fbc92)" d="M 181.35616 223.382109 
L 175.798057 225.982349 
L 179.913305 225.877161 
z
" style="stroke:#000000;"/>
    <path clip-path="url(#p9a442fbc92)" d="M 182.033124 138.906154 
L 175.503351 133.61774 
L 179.618155 133.704708 
z
" style="stroke:#000000;"/>
    <path clip-path="url(#p9a442fbc92)" d="M 179.913305 128.366777 
L 177.238744 130.773061 
L 181.35616 130.866086 
z
" style="stroke:#000000;"/>
    <path clip-path="url(#p9a442fbc92)" d="M 177.238744 130.773061 
L 179.913305 128.366777 
L 175.798057 128.268658 
z
" style="stroke:#000000;"/>
    <path clip-path="url(#p9a442fbc92)" d="M 177.914695 215.427419 
L 179.618155 220.53836 
L 175.503351 220.632392 
z
" style="stroke:#000000;"/>
    <path clip-path="url(#p9a442fbc92)" d="M 179.618155 220.53836 
L 177.914695 215.427419 
L 182.033124 215.344039 
z
" style="stroke:#000000;"/>
    <path clip-path="url(#p9a442fbc92)" d="M 174.782701 225.016732 
L 177.238744 223.482221 
L 175.503351 220.632392 
z
" style="stroke:#000000;"/>
    <path clip-path="url(#p9a442fbc92)" d="M 177.238744 130.773061 
L 174.782701 129.231261 
L 175.503351 133.61774 
z
" style="stroke:#000000;"/>
    <path clip-path="url(#p9a442fbc92)" d="M 183.933398 136.402546 
L 182.033124 138.906154 
L 181.35616 130.866086 
z
" style="stroke:#000000;"/>
    <path clip-path="url(#p9a442fbc92)" d="M 182.033124 215.344039 
L 183.933398 217.853254 
L 181.35616 223.382109 
z
" style="stroke:#000000;"/>
    <path clip-path="url(#p9a442fbc92)" d="M 177.238744 223.482221 
L 174.782701 225.016732 
L 175.798057 225.982349 
z
" style="stroke:#000000;"/>
    <path clip-path="url(#p9a442fbc92)" d="M 174.782701 129.231261 
L 177.238744 130.773061 
L 175.798057 128.268658 
z
" style="stroke:#000000;"/>
    <path clip-path="url(#p9a442fbc92)" d="M 175.798057 225.982349 
L 181.35616 223.382109 
L 177.238744 223.482221 
z
" style="stroke:#000000;"/>
    <path clip-path="url(#p9a442fbc92)" d="M 175.503351 133.61774 
L 182.033124 138.906154 
L 177.914695 138.829868 
z
" style="stroke:#000000;"/>
    <path clip-path="url(#p9a442fbc92)" d="M 183.933398 217.853254 
L 177.238744 223.482221 
L 181.35616 223.382109 
z
" style="stroke:#000000;"/>
    <path clip-path="url(#p9a442fbc92)" d="M 183.933398 136.402546 
L 184.131346 144.55806 
L 182.033124 138.906154 
z
" style="stroke:#000000;"/>
    <path clip-path="url(#p9a442fbc92)" d="M 184.131346 209.698325 
L 183.933398 217.853254 
L 182.033124 215.344039 
z
" style="stroke:#000000;"/>
    <path clip-path="url(#p9a442fbc92)" d="M 177.238744 223.482221 
L 177.914695 215.427419 
L 175.503351 220.632392 
z
" style="stroke:#000000;"/>
    <path clip-path="url(#p9a442fbc92)" d="M 177.914695 138.829868 
L 177.238744 130.773061 
L 175.503351 133.61774 
z
" style="stroke:#000000;"/>
    <path clip-path="url(#p9a442fbc92)" d="M 184.131346 144.55806 
L 177.914695 138.829868 
L 182.033124 138.906154 
z
" style="stroke:#000000;"/>
    <path clip-path="url(#p9a442fbc92)" d="M 179.81213 136.320896 
L 181.35616 130.866086 
L 177.238744 130.773061 
z
" style="stroke:#000000;"/>
    <path clip-path="url(#p9a442fbc92)" d="M 181.35616 130.866086 
L 179.81213 136.320896 
L 183.933398 136.402546 
z
" style="stroke:#000000;"/>
    <path clip-path="url(#p9a442fbc92)" d="M 182.033124 215.344039 
L 180.009784 209.770042 
L 184.131346 209.698325 
z
" style="stroke:#000000;"/>
    <path clip-path="url(#p9a442fbc92)" d="M 180.009784 209.770042 
L 182.033124 215.344039 
L 177.914695 215.427419 
z
" style="stroke:#000000;"/>
    <path clip-path="url(#p9a442fbc92)" d="M 177.238744 223.482221 
L 183.933398 217.853254 
L 179.81213 217.942022 
z
" style="stroke:#000000;"/>
    <path clip-path="url(#p9a442fbc92)" d="M 186.173188 142.420772 
L 184.131346 144.55806 
L 183.933398 136.402546 
z
" style="stroke:#000000;"/>
    <path clip-path="url(#p9a442fbc92)" d="M 184.131346 209.698325 
L 186.173188 211.841638 
L 183.933398 217.853254 
z
" style="stroke:#000000;"/>
    <path clip-path="url(#p9a442fbc92)" d="M 179.81213 217.942022 
L 177.914695 215.427419 
L 177.238744 223.482221 
z
" style="stroke:#000000;"/>
    <path clip-path="url(#p9a442fbc92)" d="M 177.914695 138.829868 
L 179.81213 136.320896 
L 177.238744 130.773061 
z
" style="stroke:#000000;"/>
    <path clip-path="url(#p9a442fbc92)" d="M 177.914695 138.829868 
L 184.131346 144.55806 
L 180.009784 144.493462 
z
" style="stroke:#000000;"/>
    <path clip-path="url(#p9a442fbc92)" d="M 184.131346 144.55806 
L 186.173188 142.420772 
L 185.886193 150.595531 
z
" style="stroke:#000000;"/>
    <path clip-path="url(#p9a442fbc92)" d="M 186.173188 211.841638 
L 184.131346 209.698325 
L 185.886193 203.666032 
z
" style="stroke:#000000;"/>
    <path clip-path="url(#p9a442fbc92)" d="M 186.173188 211.841638 
L 179.81213 217.942022 
L 183.933398 217.853254 
z
" style="stroke:#000000;"/>
    <path clip-path="url(#p9a442fbc92)" d="M 185.886193 150.595531 
L 180.009784 144.493462 
L 184.131346 144.55806 
z
" style="stroke:#000000;"/>
    <path clip-path="url(#p9a442fbc92)" d="M 179.81213 217.942022 
L 180.009784 209.770042 
L 177.914695 215.427419 
z
" style="stroke:#000000;"/>
    <path clip-path="url(#p9a442fbc92)" d="M 180.009784 144.493462 
L 179.81213 136.320896 
L 177.914695 138.829868 
z
" style="stroke:#000000;"/>
    <path clip-path="url(#p9a442fbc92)" d="M 184.131346 209.698325 
L 181.762023 203.725216 
L 185.886193 203.666032 
z
" style="stroke:#000000;"/>
    <path clip-path="url(#p9a442fbc92)" d="M 183.933398 136.402546 
L 182.048593 142.351579 
L 186.173188 142.420772 
z
" style="stroke:#000000;"/>
    <path clip-path="url(#p9a442fbc92)" d="M 182.048593 142.351579 
L 183.933398 136.402546 
L 179.81213 136.320896 
z
" style="stroke:#000000;"/>
    <path clip-path="url(#p9a442fbc92)" d="M 181.762023 203.725216 
L 184.131346 209.698325 
L 180.009784 209.770042 
z
" style="stroke:#000000;"/>
    <path clip-path="url(#p9a442fbc92)" d="M 188.046869 148.852203 
L 185.886193 150.595531 
L 186.173188 142.420772 
z
" style="stroke:#000000;"/>
    <path clip-path="url(#p9a442fbc92)" d="M 185.886193 203.666032 
L 188.046869 205.415735 
L 186.173188 211.841638 
z
" style="stroke:#000000;"/>
    <path clip-path="url(#p9a442fbc92)" d="M 180.009784 144.493462 
L 185.886193 150.595531 
L 181.762023 150.543488 
z
" style="stroke:#000000;"/>
    <path clip-path="url(#p9a442fbc92)" d="M 179.81213 217.942022 
L 186.173188 211.841638 
L 182.048593 211.917976 
z
" style="stroke:#000000;"/>
    <path clip-path="url(#p9a442fbc92)" d="M 185.886193 150.595531 
L 188.046869 148.852203 
L 187.275202 156.948497 
z
" style="stroke:#000000;"/>
    <path clip-path="url(#p9a442fbc92)" d="M 188.046869 205.415735 
L 185.886193 203.666032 
L 187.275202 197.317164 
z
" style="stroke:#000000;"/>
    <path clip-path="url(#p9a442fbc92)" d="M 187.275202 156.948497 
L 181.762023 150.543488 
L 185.886193 150.595531 
z
" style="stroke:#000000;"/>
    <path clip-path="url(#p9a442fbc92)" d="M 182.048593 211.917976 
L 180.009784 209.770042 
L 179.81213 217.942022 
z
" style="stroke:#000000;"/>
    <path clip-path="url(#p9a442fbc92)" d="M 180.009784 144.493462 
L 182.048593 142.351579 
L 179.81213 136.320896 
z
" style="stroke:#000000;"/>
    <path clip-path="url(#p9a442fbc92)" d="M 188.046869 205.415735 
L 182.048593 211.917976 
L 186.173188 211.841638 
z
" style="stroke:#000000;"/>
    <path clip-path="url(#p9a442fbc92)" d="M 185.886193 203.666032 
L 183.148976 197.363097 
L 187.275202 197.317164 
z
" style="stroke:#000000;"/>
    <path clip-path="url(#p9a442fbc92)" d="M 180.009784 209.770042 
L 182.048593 211.917976 
L 181.762023 203.725216 
z
" style="stroke:#000000;"/>
    <path clip-path="url(#p9a442fbc92)" d="M 182.048593 142.351579 
L 180.009784 144.493462 
L 181.762023 150.543488 
z
" style="stroke:#000000;"/>
    <path clip-path="url(#p9a442fbc92)" d="M 183.148976 197.363097 
L 185.886193 203.666032 
L 181.762023 203.725216 
z
" style="stroke:#000000;"/>
    <path clip-path="url(#p9a442fbc92)" d="M 186.173188 142.420772 
L 183.919503 148.796402 
L 188.046869 148.852203 
z
" style="stroke:#000000;"/>
    <path clip-path="url(#p9a442fbc92)" d="M 189.530179 155.621599 
L 187.275202 156.948497 
L 188.046869 148.852203 
z
" style="stroke:#000000;"/>
    <path clip-path="url(#p9a442fbc92)" d="M 187.275202 197.317164 
L 189.530179 198.650716 
L 188.046869 205.415735 
z
" style="stroke:#000000;"/>
    <path clip-path="url(#p9a442fbc92)" d="M 187.275202 156.948497 
L 189.530179 155.621599 
L 188.280446 163.542171 
z
" style="stroke:#000000;"/>
    <path clip-path="url(#p9a442fbc92)" d="M 189.530179 198.650716 
L 187.275202 197.317164 
L 188.280446 190.726456 
z
" style="stroke:#000000;"/>
    <path clip-path="url(#p9a442fbc92)" d="M 183.919503 148.796402 
L 186.173188 142.420772 
L 182.048593 142.351579 
z
" style="stroke:#000000;"/>
    <path clip-path="url(#p9a442fbc92)" d="M 188.280446 163.542171 
L 183.148976 156.909722 
L 187.275202 156.948497 
z
" style="stroke:#000000;"/>
    <path clip-path="url(#p9a442fbc92)" d="M 181.762023 150.543488 
L 187.275202 156.948497 
L 183.148976 156.909722 
z
" style="stroke:#000000;"/>
    <path clip-path="url(#p9a442fbc92)" d="M 187.275202 197.317164 
L 184.152736 190.758588 
L 188.280446 190.726456 
z
" style="stroke:#000000;"/>
    <path clip-path="url(#p9a442fbc92)" d="M 182.048593 211.917976 
L 188.046869 205.415735 
L 183.919503 205.478704 
z
" style="stroke:#000000;"/>
    <path clip-path="url(#p9a442fbc92)" d="M 183.919503 205.478704 
L 181.762023 203.725216 
L 182.048593 211.917976 
z
" style="stroke:#000000;"/>
    <path clip-path="url(#p9a442fbc92)" d="M 181.762023 150.543488 
L 183.919503 148.796402 
L 182.048593 142.351579 
z
" style="stroke:#000000;"/>
    <path clip-path="url(#p9a442fbc92)" d="M 184.152736 190.758588 
L 187.275202 197.317164 
L 183.148976 197.363097 
z
" style="stroke:#000000;"/>
    <path clip-path="url(#p9a442fbc92)" d="M 188.280446 163.542171 
L 190.603829 162.648976 
L 188.88887 170.298103 
z
" style="stroke:#000000;"/>
    <path clip-path="url(#p9a442fbc92)" d="M 190.603829 191.626507 
L 188.280446 190.726456 
L 188.88887 183.97232 
z
" style="stroke:#000000;"/>
    <path clip-path="url(#p9a442fbc92)" d="M 188.88887 170.298103 
L 184.152736 163.51721 
L 188.280446 163.542171 
z
" style="stroke:#000000;"/>
    <path clip-path="url(#p9a442fbc92)" d="M 189.530179 198.650716 
L 183.919503 205.478704 
L 188.046869 205.415735 
z
" style="stroke:#000000;"/>
    <path clip-path="url(#p9a442fbc92)" d="M 190.603829 162.648976 
L 188.280446 163.542171 
L 189.530179 155.621599 
z
" style="stroke:#000000;"/>
    <path clip-path="url(#p9a442fbc92)" d="M 188.280446 190.726456 
L 190.603829 191.626507 
L 189.530179 198.650716 
z
" style="stroke:#000000;"/>
    <path clip-path="url(#p9a442fbc92)" d="M 181.762023 203.725216 
L 183.919503 205.478704 
L 183.148976 197.363097 
z
" style="stroke:#000000;"/>
    <path clip-path="url(#p9a442fbc92)" d="M 183.919503 148.796402 
L 181.762023 150.543488 
L 183.148976 156.909722 
z
" style="stroke:#000000;"/>
    <path clip-path="url(#p9a442fbc92)" d="M 188.280446 190.726456 
L 184.760263 183.990276 
L 188.88887 183.97232 
z
" style="stroke:#000000;"/>
    <path clip-path="url(#p9a442fbc92)" d="M 183.148976 156.909722 
L 188.280446 163.542171 
L 184.152736 163.51721 
z
" style="stroke:#000000;"/>
    <path clip-path="url(#p9a442fbc92)" d="M 191.253727 184.427068 
L 188.88887 183.97232 
L 189.092574 177.135512 
z
" style="stroke:#000000;"/>
    <path clip-path="url(#p9a442fbc92)" d="M 188.88887 170.298103 
L 191.253727 169.850332 
L 189.092574 177.135512 
z
" style="stroke:#000000;"/>
    <path clip-path="url(#p9a442fbc92)" d="M 189.092574 177.135512 
L 184.760263 170.287325 
L 188.88887 170.298103 
z
" style="stroke:#000000;"/>
    <path clip-path="url(#p9a442fbc92)" d="M 188.88887 183.97232 
L 184.963668 177.139102 
L 189.092574 177.135512 
z
" style="stroke:#000000;"/>
    <path clip-path="url(#p9a442fbc92)" d="M 188.046869 148.852203 
L 185.400629 155.579959 
L 189.530179 155.621599 
z
" style="stroke:#000000;"/>
    <path clip-path="url(#p9a442fbc92)" d="M 184.760263 183.990276 
L 188.280446 190.726456 
L 184.152736 190.758588 
z
" style="stroke:#000000;"/>
    <path clip-path="url(#p9a442fbc92)" d="M 185.400629 155.579959 
L 188.046869 148.852203 
L 183.919503 148.796402 
z
" style="stroke:#000000;"/>
    <path clip-path="url(#p9a442fbc92)" d="M 191.253727 169.850332 
L 188.88887 170.298103 
L 190.603829 162.648976 
z
" style="stroke:#000000;"/>
    <path clip-path="url(#p9a442fbc92)" d="M 188.88887 183.97232 
L 191.253727 184.427068 
L 190.603829 191.626507 
z
" style="stroke:#000000;"/>
    <path clip-path="url(#p9a442fbc92)" d="M 184.152736 163.51721 
L 188.88887 170.298103 
L 184.760263 170.287325 
z
" style="stroke:#000000;"/>
    <path clip-path="url(#p9a442fbc92)" d="M 184.963668 177.139102 
L 188.88887 183.97232 
L 184.760263 183.990276 
z
" style="stroke:#000000;"/>
    <path clip-path="url(#p9a442fbc92)" d="M 191.471311 177.139021 
L 189.092574 177.135512 
L 191.253727 169.850332 
z
" style="stroke:#000000;"/>
    <path clip-path="url(#p9a442fbc92)" d="M 189.092574 177.135512 
L 191.471311 177.139021 
L 191.253727 184.427068 
z
" style="stroke:#000000;"/>
    <path clip-path="url(#p9a442fbc92)" d="M 184.760263 170.287325 
L 189.092574 177.135512 
L 184.963668 177.139102 
z
" style="stroke:#000000;"/>
    <path clip-path="url(#p9a442fbc92)" d="M 183.919503 205.478704 
L 189.530179 198.650716 
L 185.400629 198.699543 
z
" style="stroke:#000000;"/>
    <path clip-path="url(#p9a442fbc92)" d="M 190.603829 191.626507 
L 185.400629 198.699543 
L 189.530179 198.650716 
z
" style="stroke:#000000;"/>
    <path clip-path="url(#p9a442fbc92)" d="M 185.400629 198.699543 
L 183.148976 197.363097 
L 183.919503 205.478704 
z
" style="stroke:#000000;"/>
    <path clip-path="url(#p9a442fbc92)" d="M 183.148976 156.909722 
L 185.400629 155.579959 
L 183.919503 148.796402 
z
" style="stroke:#000000;"/>
    <path clip-path="url(#p9a442fbc92)" d="M 183.148976 197.363097 
L 185.400629 198.699543 
L 184.152736 190.758588 
z
" style="stroke:#000000;"/>
    <path clip-path="url(#p9a442fbc92)" d="M 185.400629 155.579959 
L 183.148976 156.909722 
L 184.152736 163.51721 
z
" style="stroke:#000000;"/>
    <path clip-path="url(#p9a442fbc92)" d="M 189.530179 155.621599 
L 186.472703 162.622085 
L 190.603829 162.648976 
z
" style="stroke:#000000;"/>
    <path clip-path="url(#p9a442fbc92)" d="M 194.658203 125.394928 
L 190.677314 133.406397 
L 188.697066 132.608498 
z
" style="stroke:#000000;"/>
    <path clip-path="url(#p9a442fbc92)" d="M 194.658203 146.374169 
L 188.697066 132.608498 
L 190.677314 133.406397 
z
" style="stroke:#000000;"/>
    <path clip-path="url(#p9a442fbc92)" d="M 184.568742 132.518538 
L 194.658203 125.394928 
L 188.697066 132.608498 
z
" style="stroke:#000000;"/>
    <path clip-path="url(#p9a442fbc92)" d="M 194.658203 153.367249 
L 184.568742 132.518538 
L 188.697066 132.608498 
z
" style="stroke:#000000;"/>
    <path clip-path="url(#p9a442fbc92)" d="M 186.472703 162.622085 
L 189.530179 155.621599 
L 185.400629 155.579959 
z
" style="stroke:#000000;"/>
    <path clip-path="url(#p9a442fbc92)" d="M 191.253727 184.427068 
L 186.472703 191.660597 
L 190.603829 191.626507 
z
" style="stroke:#000000;"/>
    <path clip-path="url(#p9a442fbc92)" d="M 184.152736 190.758588 
L 186.472703 191.660597 
L 184.760263 183.990276 
z
" style="stroke:#000000;"/>
    <path clip-path="url(#p9a442fbc92)" d="M 186.472703 162.622085 
L 184.152736 163.51721 
L 184.760263 170.287325 
z
" style="stroke:#000000;"/>
    <path clip-path="url(#p9a442fbc92)" d="M 190.603829 162.648976 
L 187.12165 169.83859 
L 191.253727 169.850332 
z
" style="stroke:#000000;"/>
    <path clip-path="url(#p9a442fbc92)" d="M 185.400629 198.699543 
L 190.603829 191.626507 
L 186.472703 191.660597 
z
" style="stroke:#000000;"/>
    <path clip-path="url(#p9a442fbc92)" d="M 186.472703 191.660597 
L 184.152736 190.758588 
L 185.400629 198.699543 
z
" style="stroke:#000000;"/>
    <path clip-path="url(#p9a442fbc92)" d="M 184.152736 163.51721 
L 186.472703 162.622085 
L 185.400629 155.579959 
z
" style="stroke:#000000;"/>
    <path clip-path="url(#p9a442fbc92)" d="M 191.471311 177.139021 
L 187.12165 184.446019 
L 191.253727 184.427068 
z
" style="stroke:#000000;"/>
    <path clip-path="url(#p9a442fbc92)" d="M 187.12165 169.83859 
L 184.760263 170.287325 
L 184.963668 177.139102 
z
" style="stroke:#000000;"/>
    <path clip-path="url(#p9a442fbc92)" d="M 184.760263 183.990276 
L 187.12165 184.446019 
L 184.963668 177.139102 
z
" style="stroke:#000000;"/>
    <path clip-path="url(#p9a442fbc92)" d="M 191.253727 169.850332 
L 187.338916 177.142627 
L 191.471311 177.139021 
z
" style="stroke:#000000;"/>
    <path clip-path="url(#p9a442fbc92)" d="M 187.12165 169.83859 
L 190.603829 162.648976 
L 186.472703 162.622085 
z
" style="stroke:#000000;"/>
    <path clip-path="url(#p9a442fbc92)" d="M 186.472703 191.660597 
L 191.253727 184.427068 
L 187.12165 184.446019 
z
" style="stroke:#000000;"/>
    <path clip-path="url(#p9a442fbc92)" d="M 194.658203 146.374169 
L 194.658203 153.367249 
L 188.697066 132.608498 
z
" style="stroke:#000000;"/>
    <path clip-path="url(#p9a442fbc92)" d="M 187.12165 184.446019 
L 184.760263 183.990276 
L 186.472703 191.660597 
z
" style="stroke:#000000;"/>
    <path clip-path="url(#p9a442fbc92)" d="M 184.760263 170.287325 
L 187.12165 169.83859 
L 186.472703 162.622085 
z
" style="stroke:#000000;"/>
    <path clip-path="url(#p9a442fbc92)" d="M 187.338916 177.142627 
L 191.253727 169.850332 
L 187.12165 169.83859 
z
" style="stroke:#000000;"/>
    <path clip-path="url(#p9a442fbc92)" d="M 187.12165 184.446019 
L 191.471311 177.139021 
L 187.338916 177.142627 
z
" style="stroke:#000000;"/>
    <path clip-path="url(#p9a442fbc92)" d="M 187.338916 177.142627 
L 184.963668 177.139102 
L 187.12165 184.446019 
z
" style="stroke:#000000;"/>
    <path clip-path="url(#p9a442fbc92)" d="M 184.963668 177.139102 
L 187.338916 177.142627 
L 187.12165 169.83859 
z
" style="stroke:#000000;"/>
    <path clip-path="url(#p9a442fbc92)" d="M 194.658203 125.394928 
L 194.658203 128.891468 
L 190.677314 133.406397 
z
" style="stroke:#000000;"/>
    <path clip-path="url(#p9a442fbc92)" d="M 190.677314 133.406397 
L 190.521165 128.793194 
L 186.546081 133.317962 
z
" style="stroke:#000000;"/>
    <path clip-path="url(#p9a442fbc92)" d="M 190.521165 146.312815 
L 190.677314 133.406397 
L 186.546081 133.317962 
z
" style="stroke:#000000;"/>
    <path clip-path="url(#p9a442fbc92)" d="M 184.568742 132.518538 
L 190.521165 146.312815 
L 186.546081 133.317962 
z
" style="stroke:#000000;"/>
    <path clip-path="url(#p9a442fbc92)" d="M 186.546081 133.317962 
L 190.521165 125.28927 
L 184.568742 132.518538 
z
" style="stroke:#000000;"/>
    <path clip-path="url(#p9a442fbc92)" d="M 190.521165 128.793194 
L 190.677314 133.406397 
L 194.658203 128.891468 
z
" style="stroke:#000000;"/>
    <path clip-path="url(#p9a442fbc92)" d="M 190.677314 133.406397 
L 190.521165 146.312815 
L 194.658203 146.374169 
z
" style="stroke:#000000;"/>
    <path clip-path="url(#p9a442fbc92)" d="M 194.658203 125.394928 
L 184.568742 132.518538 
L 190.521165 125.28927 
z
" style="stroke:#000000;"/>
    <path clip-path="url(#p9a442fbc92)" d="M 184.568742 132.518538 
L 194.658203 153.367249 
L 190.521165 153.320664 
z
" style="stroke:#000000;"/>
    <path clip-path="url(#p9a442fbc92)" d="M 190.521165 146.312815 
L 184.568742 132.518538 
L 190.521165 153.320664 
z
" style="stroke:#000000;"/>
    <path clip-path="url(#p9a442fbc92)" d="M 190.521165 125.28927 
L 186.546081 133.317962 
L 190.521165 128.793194 
z
" style="stroke:#000000;"/>
    <path clip-path="url(#p9a442fbc92)" d="M 194.658203 125.394928 
L 198.666519 133.116896 
L 194.658203 128.891468 
z
" style="stroke:#000000;"/>
    <path clip-path="url(#p9a442fbc92)" d="M 194.658203 146.374169 
L 200.681051 132.165236 
L 194.658203 153.367249 
z
" style="stroke:#000000;"/>
    <path clip-path="url(#p9a442fbc92)" d="M 190.521165 125.28927 
L 200.681051 132.165236 
L 194.658203 125.394928 
z
" style="stroke:#000000;"/>
    <path clip-path="url(#p9a442fbc92)" d="M 200.681051 132.165236 
L 190.521165 153.320664 
L 194.658203 153.367249 
z
" style="stroke:#000000;"/>
    <path clip-path="url(#p9a442fbc92)" d="M 194.658203 128.891468 
L 194.523693 133.027237 
L 190.521165 128.793194 
z
" style="stroke:#000000;"/>
    <path clip-path="url(#p9a442fbc92)" d="M 194.523693 133.027237 
L 194.658203 146.374169 
L 190.521165 146.312815 
z
" style="stroke:#000000;"/>
    <path clip-path="url(#p9a442fbc92)" d="M 198.666519 133.116896 
L 194.658203 125.394928 
L 200.681051 132.165236 
z
" style="stroke:#000000;"/>
    <path clip-path="url(#p9a442fbc92)" d="M 200.681051 132.165236 
L 194.658203 146.374169 
L 198.666519 133.116896 
z
" style="stroke:#000000;"/>
    <path clip-path="url(#p9a442fbc92)" d="M 194.523693 133.027237 
L 194.658203 128.891468 
L 198.666519 133.116896 
z
" style="stroke:#000000;"/>
    <path clip-path="url(#p9a442fbc92)" d="M 194.658203 146.374169 
L 194.523693 133.027237 
L 198.666519 133.116896 
z
" style="stroke:#000000;"/>
    <path clip-path="url(#p9a442fbc92)" d="M 194.523693 133.027237 
L 190.521165 125.28927 
L 190.521165 128.793194 
z
" style="stroke:#000000;"/>
    <path clip-path="url(#p9a442fbc92)" d="M 200.277589 177.152013 
L 197.862648 177.14845 
L 198.082719 169.817507 
z
" style="stroke:#000000;"/>
    <path clip-path="url(#p9a442fbc92)" d="M 197.862648 177.14845 
L 200.277589 177.152013 
L 198.082719 184.480043 
z
" style="stroke:#000000;"/>
    <path clip-path="url(#p9a442fbc92)" d="M 198.082719 184.480043 
L 193.720979 177.152096 
L 197.862648 177.14845 
z
" style="stroke:#000000;"/>
    <path clip-path="url(#p9a442fbc92)" d="M 197.862648 177.14845 
L 193.940732 169.805626 
L 198.082719 169.817507 
z
" style="stroke:#000000;"/>
    <path clip-path="url(#p9a442fbc92)" d="M 200.485321 170.246733 
L 198.082719 169.817507 
L 198.74103 162.559305 
z
" style="stroke:#000000;"/>
    <path clip-path="url(#p9a442fbc92)" d="M 198.082719 184.480043 
L 200.485321 184.057906 
L 198.74103 191.740188 
z
" style="stroke:#000000;"/>
    <path clip-path="url(#p9a442fbc92)" d="M 198.74103 191.740188 
L 193.940732 184.499217 
L 198.082719 184.480043 
z
" style="stroke:#000000;"/>
    <path clip-path="url(#p9a442fbc92)" d="M 196.535338 132.073402 
L 190.521165 146.312815 
L 190.521165 153.320664 
z
" style="stroke:#000000;"/>
    <path clip-path="url(#p9a442fbc92)" d="M 198.082719 169.817507 
L 194.598097 162.532035 
L 198.74103 162.559305 
z
" style="stroke:#000000;"/>
    <path clip-path="url(#p9a442fbc92)" d="M 193.940732 169.805626 
L 197.862648 177.14845 
L 193.720979 177.152096 
z
" style="stroke:#000000;"/>
    <path clip-path="url(#p9a442fbc92)" d="M 200.485321 184.057906 
L 198.082719 184.480043 
L 200.277589 177.152013 
z
" style="stroke:#000000;"/>
    <path clip-path="url(#p9a442fbc92)" d="M 198.082719 169.817507 
L 200.485321 170.246733 
L 200.277589 177.152013 
z
" style="stroke:#000000;"/>
    <path clip-path="url(#p9a442fbc92)" d="M 193.720979 177.152096 
L 198.082719 184.480043 
L 193.940732 184.499217 
z
" style="stroke:#000000;"/>
    <path clip-path="url(#p9a442fbc92)" d="M 201.10665 163.410444 
L 198.74103 162.559305 
L 199.831828 155.44548 
z
" style="stroke:#000000;"/>
    <path clip-path="url(#p9a442fbc92)" d="M 198.74103 191.740188 
L 201.10665 190.896029 
L 199.831828 198.857231 
z
" style="stroke:#000000;"/>
    <path clip-path="url(#p9a442fbc92)" d="M 199.831828 198.857231 
L 194.598097 191.774759 
L 198.74103 191.740188 
z
" style="stroke:#000000;"/>
    <path clip-path="url(#p9a442fbc92)" d="M 194.598097 162.532035 
L 198.082719 169.817507 
L 193.940732 169.805626 
z
" style="stroke:#000000;"/>
    <path clip-path="url(#p9a442fbc92)" d="M 198.74103 162.559305 
L 201.10665 163.410444 
L 200.485321 170.246733 
z
" style="stroke:#000000;"/>
    <path clip-path="url(#p9a442fbc92)" d="M 201.10665 190.896029 
L 198.74103 191.740188 
L 200.485321 184.057906 
z
" style="stroke:#000000;"/>
    <path clip-path="url(#p9a442fbc92)" d="M 193.940732 184.499217 
L 198.74103 191.740188 
L 194.598097 191.774759 
z
" style="stroke:#000000;"/>
    <path clip-path="url(#p9a442fbc92)" d="M 198.74103 162.559305 
L 195.687331 155.403095 
L 199.831828 155.44548 
z
" style="stroke:#000000;"/>
    <path clip-path="url(#p9a442fbc92)" d="M 200.681051 132.165236 
L 190.521165 125.28927 
L 196.535338 132.073402 
z
" style="stroke:#000000;"/>
    <path clip-path="url(#p9a442fbc92)" d="M 190.521165 153.320664 
L 200.681051 132.165236 
L 196.535338 132.073402 
z
" style="stroke:#000000;"/>
    <path clip-path="url(#p9a442fbc92)" d="M 190.521165 146.312815 
L 196.535338 132.073402 
L 194.523693 133.027237 
z
" style="stroke:#000000;"/>
    <path clip-path="url(#p9a442fbc92)" d="M 190.521165 125.28927 
L 194.523693 133.027237 
L 196.535338 132.073402 
z
" style="stroke:#000000;"/>
    <path clip-path="url(#p9a442fbc92)" d="M 195.687331 155.403095 
L 198.74103 162.559305 
L 194.598097 162.532035 
z
" style="stroke:#000000;"/>
    <path clip-path="url(#p9a442fbc92)" d="M 199.831828 155.44548 
L 202.136098 156.710992 
L 201.10665 163.410444 
z
" style="stroke:#000000;"/>
    <path clip-path="url(#p9a442fbc92)" d="M 202.136098 197.598519 
L 199.831828 198.857231 
L 201.10665 190.896029 
z
" style="stroke:#000000;"/>
    <path clip-path="url(#p9a442fbc92)" d="M 202.136098 156.710992 
L 199.831828 155.44548 
L 201.34553 148.546747 
z
" style="stroke:#000000;"/>
    <path clip-path="url(#p9a442fbc92)" d="M 199.831828 198.857231 
L 202.136098 197.598519 
L 201.34553 205.760431 
z
" style="stroke:#000000;"/>
    <path clip-path="url(#p9a442fbc92)" d="M 194.598097 191.774759 
L 199.831828 198.857231 
L 195.687331 198.906931 
z
" style="stroke:#000000;"/>
    <path clip-path="url(#p9a442fbc92)" d="M 201.34553 205.760431 
L 195.687331 198.906931 
L 199.831828 198.857231 
z
" style="stroke:#000000;"/>
    <path clip-path="url(#p9a442fbc92)" d="M 200.485321 170.246733 
L 196.132453 177.155674 
L 200.277589 177.152013 
z
" style="stroke:#000000;"/>
    <path clip-path="url(#p9a442fbc92)" d="M 196.132453 177.155674 
L 193.720979 177.152096 
L 193.940732 184.499217 
z
" style="stroke:#000000;"/>
    <path clip-path="url(#p9a442fbc92)" d="M 193.720979 177.152096 
L 196.132453 177.155674 
L 193.940732 169.805626 
z
" style="stroke:#000000;"/>
    <path clip-path="url(#p9a442fbc92)" d="M 200.277589 177.152013 
L 196.339888 184.076224 
L 200.485321 184.057906 
z
" style="stroke:#000000;"/>
    <path clip-path="url(#p9a442fbc92)" d="M 201.10665 163.410444 
L 196.339888 170.235739 
L 200.485321 170.246733 
z
" style="stroke:#000000;"/>
    <path clip-path="url(#p9a442fbc92)" d="M 196.339888 184.076224 
L 193.940732 184.499217 
L 194.598097 191.774759 
z
" style="stroke:#000000;"/>
    <path clip-path="url(#p9a442fbc92)" d="M 193.940732 169.805626 
L 196.339888 170.235739 
L 194.598097 162.532035 
z
" style="stroke:#000000;"/>
    <path clip-path="url(#p9a442fbc92)" d="M 199.831828 155.44548 
L 197.198868 148.489654 
L 201.34553 148.546747 
z
" style="stroke:#000000;"/>
    <path clip-path="url(#p9a442fbc92)" d="M 200.485321 184.057906 
L 196.960329 190.928878 
L 201.10665 190.896029 
z
" style="stroke:#000000;"/>
    <path clip-path="url(#p9a442fbc92)" d="M 197.198868 148.489654 
L 199.831828 155.44548 
L 195.687331 155.403095 
z
" style="stroke:#000000;"/>
    <path clip-path="url(#p9a442fbc92)" d="M 196.339888 184.076224 
L 200.277589 177.152013 
L 196.132453 177.155674 
z
" style="stroke:#000000;"/>
    <path clip-path="url(#p9a442fbc92)" d="M 196.132453 177.155674 
L 200.485321 170.246733 
L 196.339888 170.235739 
z
" style="stroke:#000000;"/>
    <path clip-path="url(#p9a442fbc92)" d="M 196.339888 170.235739 
L 193.940732 169.805626 
L 196.132453 177.155674 
z
" style="stroke:#000000;"/>
    <path clip-path="url(#p9a442fbc92)" d="M 193.940732 184.499217 
L 196.339888 184.076224 
L 196.132453 177.155674 
z
" style="stroke:#000000;"/>
    <path clip-path="url(#p9a442fbc92)" d="M 202.136098 156.710992 
L 196.960329 163.384926 
L 201.10665 163.410444 
z
" style="stroke:#000000;"/>
    <path clip-path="url(#p9a442fbc92)" d="M 196.960329 190.928878 
L 200.485321 184.057906 
L 196.339888 184.076224 
z
" style="stroke:#000000;"/>
    <path clip-path="url(#p9a442fbc92)" d="M 201.34553 148.546747 
L 203.564497 150.215406 
L 202.136098 156.710992 
z
" style="stroke:#000000;"/>
    <path clip-path="url(#p9a442fbc92)" d="M 203.564497 204.098319 
L 201.34553 205.760431 
L 202.136098 197.598519 
z
" style="stroke:#000000;"/>
    <path clip-path="url(#p9a442fbc92)" d="M 196.960329 190.928878 
L 194.598097 191.774759 
L 195.687331 198.906931 
z
" style="stroke:#000000;"/>
    <path clip-path="url(#p9a442fbc92)" d="M 194.598097 162.532035 
L 196.960329 163.384926 
L 195.687331 155.403095 
z
" style="stroke:#000000;"/>
    <path clip-path="url(#p9a442fbc92)" d="M 195.687331 198.906931 
L 201.34553 205.760431 
L 197.198868 205.824858 
z
" style="stroke:#000000;"/>
    <path clip-path="url(#p9a442fbc92)" d="M 196.339888 170.235739 
L 201.10665 163.410444 
L 196.960329 163.384926 
z
" style="stroke:#000000;"/>
    <path clip-path="url(#p9a442fbc92)" d="M 194.598097 191.774759 
L 196.960329 190.928878 
L 196.339888 184.076224 
z
" style="stroke:#000000;"/>
    <path clip-path="url(#p9a442fbc92)" d="M 196.960329 163.384926 
L 194.598097 162.532035 
L 196.339888 170.235739 
z
" style="stroke:#000000;"/>
    <path clip-path="url(#p9a442fbc92)" d="M 201.10665 190.896029 
L 197.98831 197.645642 
L 202.136098 197.598519 
z
" style="stroke:#000000;"/>
    <path clip-path="url(#p9a442fbc92)" d="M 203.564497 150.215406 
L 201.34553 148.546747 
L 203.268796 141.932282 
z
" style="stroke:#000000;"/>
    <path clip-path="url(#p9a442fbc92)" d="M 201.34553 205.760431 
L 203.564497 204.098319 
L 203.268796 212.380571 
z
" style="stroke:#000000;"/>
    <path clip-path="url(#p9a442fbc92)" d="M 203.268796 212.380571 
L 197.198868 205.824858 
L 201.34553 205.760431 
z
" style="stroke:#000000;"/>
    <path clip-path="url(#p9a442fbc92)" d="M 197.98831 197.645642 
L 201.10665 190.896029 
L 196.960329 190.928878 
z
" style="stroke:#000000;"/>
    <path clip-path="url(#p9a442fbc92)" d="M 203.564497 150.215406 
L 197.98831 156.671213 
L 202.136098 156.710992 
z
" style="stroke:#000000;"/>
    <path clip-path="url(#p9a442fbc92)" d="M 196.960329 163.384926 
L 202.136098 156.710992 
L 197.98831 156.671213 
z
" style="stroke:#000000;"/>
    <path clip-path="url(#p9a442fbc92)" d="M 201.34553 148.546747 
L 199.119397 141.861023 
L 203.268796 141.932282 
z
" style="stroke:#000000;"/>
    <path clip-path="url(#p9a442fbc92)" d="M 195.687331 198.906931 
L 197.98831 197.645642 
L 196.960329 190.928878 
z
" style="stroke:#000000;"/>
    <path clip-path="url(#p9a442fbc92)" d="M 197.98831 156.671213 
L 195.687331 155.403095 
L 196.960329 163.384926 
z
" style="stroke:#000000;"/>
    <path clip-path="url(#p9a442fbc92)" d="M 197.98831 197.645642 
L 195.687331 198.906931 
L 197.198868 205.824858 
z
" style="stroke:#000000;"/>
    <path clip-path="url(#p9a442fbc92)" d="M 195.687331 155.403095 
L 197.98831 156.671213 
L 197.198868 148.489654 
z
" style="stroke:#000000;"/>
    <path clip-path="url(#p9a442fbc92)" d="M 199.119397 141.861023 
L 201.34553 148.546747 
L 197.198868 148.489654 
z
" style="stroke:#000000;"/>
    <path clip-path="url(#p9a442fbc92)" d="M 202.136098 197.598519 
L 199.414678 204.159332 
L 203.564497 204.098319 
z
" style="stroke:#000000;"/>
    <path clip-path="url(#p9a442fbc92)" d="M 203.268796 141.932282 
L 205.379039 143.989237 
L 203.564497 150.215406 
z
" style="stroke:#000000;"/>
    <path clip-path="url(#p9a442fbc92)" d="M 205.379039 210.329842 
L 203.268796 212.380571 
L 203.564497 204.098319 
z
" style="stroke:#000000;"/>
    <path clip-path="url(#p9a442fbc92)" d="M 199.414678 204.159332 
L 202.136098 197.598519 
L 197.98831 197.645642 
z
" style="stroke:#000000;"/>
    <path clip-path="url(#p9a442fbc92)" d="M 197.198868 205.824858 
L 203.268796 212.380571 
L 199.119397 212.459188 
z
" style="stroke:#000000;"/>
    <path clip-path="url(#p9a442fbc92)" d="M 205.584421 135.669666 
L 205.379039 143.989237 
L 203.268796 141.932282 
z
" style="stroke:#000000;"/>
    <path clip-path="url(#p9a442fbc92)" d="M 205.379039 210.329842 
L 205.584421 218.65002 
L 203.268796 212.380571 
z
" style="stroke:#000000;"/>
    <path clip-path="url(#p9a442fbc92)" d="M 197.98831 156.671213 
L 203.564497 150.215406 
L 199.414678 150.161756 
z
" style="stroke:#000000;"/>
    <path clip-path="url(#p9a442fbc92)" d="M 197.198868 205.824858 
L 199.414678 204.159332 
L 197.98831 197.645642 
z
" style="stroke:#000000;"/>
    <path clip-path="url(#p9a442fbc92)" d="M 199.414678 150.161756 
L 197.198868 148.489654 
L 197.98831 156.671213 
z
" style="stroke:#000000;"/>
    <path clip-path="url(#p9a442fbc92)" d="M 205.584421 218.65002 
L 199.119397 212.459188 
L 203.268796 212.380571 
z
" style="stroke:#000000;"/>
    <path clip-path="url(#p9a442fbc92)" d="M 205.379039 143.989237 
L 199.414678 150.161756 
L 203.564497 150.215406 
z
" style="stroke:#000000;"/>
    <path clip-path="url(#p9a442fbc92)" d="M 199.414678 204.159332 
L 197.198868 205.824858 
L 199.119397 212.459188 
z
" style="stroke:#000000;"/>
    <path clip-path="url(#p9a442fbc92)" d="M 197.198868 148.489654 
L 199.414678 150.161756 
L 199.119397 141.861023 
z
" style="stroke:#000000;"/>
    <path clip-path="url(#p9a442fbc92)" d="M 203.564497 204.098319 
L 201.226652 210.40423 
L 205.379039 210.329842 
z
" style="stroke:#000000;"/>
    <path clip-path="url(#p9a442fbc92)" d="M 203.268796 141.932282 
L 201.431744 135.584916 
L 205.584421 135.669666 
z
" style="stroke:#000000;"/>
    <path clip-path="url(#p9a442fbc92)" d="M 201.431744 135.584916 
L 203.268796 141.932282 
L 199.119397 141.861023 
z
" style="stroke:#000000;"/>
    <path clip-path="url(#p9a442fbc92)" d="M 201.226652 210.40423 
L 203.564497 204.098319 
L 199.414678 204.159332 
z
" style="stroke:#000000;"/>
    <path clip-path="url(#p9a442fbc92)" d="M 205.584421 135.669666 
L 207.563324 138.096071 
L 205.379039 143.989237 
z
" style="stroke:#000000;"/>
    <path clip-path="url(#p9a442fbc92)" d="M 207.563324 216.229453 
L 205.584421 218.65002 
L 205.379039 210.329842 
z
" style="stroke:#000000;"/>
    <path clip-path="url(#p9a442fbc92)" d="M 199.414678 150.161756 
L 205.379039 143.989237 
L 201.226652 143.922234 
z
" style="stroke:#000000;"/>
    <path clip-path="url(#p9a442fbc92)" d="M 199.119397 212.459188 
L 205.584421 218.65002 
L 201.431744 218.742157 
z
" style="stroke:#000000;"/>
    <path clip-path="url(#p9a442fbc92)" d="M 199.119397 212.459188 
L 201.226652 210.40423 
L 199.414678 204.159332 
z
" style="stroke:#000000;"/>
    <path clip-path="url(#p9a442fbc92)" d="M 201.226652 143.922234 
L 199.119397 141.861023 
L 199.414678 150.161756 
z
" style="stroke:#000000;"/>
    <path clip-path="url(#p9a442fbc92)" d="M 207.563324 138.096071 
L 201.226652 143.922234 
L 205.379039 143.989237 
z
" style="stroke:#000000;"/>
    <path clip-path="url(#p9a442fbc92)" d="M 208.271496 129.823424 
L 207.563324 138.096071 
L 205.584421 135.669666 
z
" style="stroke:#000000;"/>
    <path clip-path="url(#p9a442fbc92)" d="M 207.563324 216.229453 
L 208.271496 224.50419 
L 205.584421 218.65002 
z
" style="stroke:#000000;"/>
    <path clip-path="url(#p9a442fbc92)" d="M 201.431744 218.742157 
L 201.226652 210.40423 
L 199.119397 212.459188 
z
" style="stroke:#000000;"/>
    <path clip-path="url(#p9a442fbc92)" d="M 201.226652 143.922234 
L 201.431744 135.584916 
L 199.119397 141.861023 
z
" style="stroke:#000000;"/>
    <path clip-path="url(#p9a442fbc92)" d="M 208.271496 224.50419 
L 201.431744 218.742157 
L 205.584421 218.65002 
z
" style="stroke:#000000;"/>
    <path clip-path="url(#p9a442fbc92)" d="M 205.379039 210.329842 
L 203.407861 216.316577 
L 207.563324 216.229453 
z
" style="stroke:#000000;"/>
    <path clip-path="url(#p9a442fbc92)" d="M 203.407861 216.316577 
L 205.379039 210.329842 
L 201.226652 210.40423 
z
" style="stroke:#000000;"/>
    <path clip-path="url(#p9a442fbc92)" d="M 204.115039 129.725989 
L 205.584421 135.669666 
L 201.431744 135.584916 
z
" style="stroke:#000000;"/>
    <path clip-path="url(#p9a442fbc92)" d="M 205.584421 135.669666 
L 204.115039 129.725989 
L 208.271496 129.823424 
z
" style="stroke:#000000;"/>
    <path clip-path="url(#p9a442fbc92)" d="M 201.226652 143.922234 
L 207.563324 138.096071 
L 203.407861 138.01636 
z
" style="stroke:#000000;"/>
    <path clip-path="url(#p9a442fbc92)" d="M 208.271496 129.823424 
L 210.097368 132.597527 
L 207.563324 138.096071 
z
" style="stroke:#000000;"/>
    <path clip-path="url(#p9a442fbc92)" d="M 210.097368 221.735475 
L 208.271496 224.50419 
L 207.563324 216.229453 
z
" style="stroke:#000000;"/>
    <path clip-path="url(#p9a442fbc92)" d="M 201.431744 218.742157 
L 203.407861 216.316577 
L 201.226652 210.40423 
z
" style="stroke:#000000;"/>
    <path clip-path="url(#p9a442fbc92)" d="M 203.407861 138.01636 
L 201.431744 135.584916 
L 201.226652 143.922234 
z
" style="stroke:#000000;"/>
    <path clip-path="url(#p9a442fbc92)" d="M 201.431744 218.742157 
L 208.271496 224.50419 
L 204.115039 224.609046 
z
" style="stroke:#000000;"/>
    <path clip-path="url(#p9a442fbc92)" d="M 210.097368 132.597527 
L 203.407861 138.01636 
L 207.563324 138.096071 
z
" style="stroke:#000000;"/>
    <path clip-path="url(#p9a442fbc92)" d="M 209.786507 227.188995 
L 204.115039 224.609046 
L 208.271496 224.50419 
z
" style="stroke:#000000;"/>
    <path clip-path="url(#p9a442fbc92)" d="M 210.858889 128.043609 
L 208.271496 129.823424 
L 209.786507 127.143089 
z
" style="stroke:#000000;"/>
    <path clip-path="url(#p9a442fbc92)" d="M 208.271496 224.50419 
L 210.858889 226.291639 
L 209.786507 227.188995 
z
" style="stroke:#000000;"/>
    <path clip-path="url(#p9a442fbc92)" d="M 204.115039 224.609046 
L 203.407861 216.316577 
L 201.431744 218.742157 
z
" style="stroke:#000000;"/>
    <path clip-path="url(#p9a442fbc92)" d="M 203.407861 138.01636 
L 204.115039 129.725989 
L 201.431744 135.584916 
z
" style="stroke:#000000;"/>
    <path clip-path="url(#p9a442fbc92)" d="M 208.271496 129.823424 
L 210.858889 128.043609 
L 210.097368 132.597527 
z
" style="stroke:#000000;"/>
    <path clip-path="url(#p9a442fbc92)" d="M 210.858889 226.291639 
L 208.271496 224.50419 
L 210.097368 221.735475 
z
" style="stroke:#000000;"/>
    <path clip-path="url(#p9a442fbc92)" d="M 205.938358 221.834569 
L 207.563324 216.229453 
L 203.407861 216.316577 
z
" style="stroke:#000000;"/>
    <path clip-path="url(#p9a442fbc92)" d="M 207.563324 216.229453 
L 205.938358 221.834569 
L 210.097368 221.735475 
z
" style="stroke:#000000;"/>
    <path clip-path="url(#p9a442fbc92)" d="M 208.271496 129.823424 
L 205.627931 127.039795 
L 209.786507 127.143089 
z
" style="stroke:#000000;"/>
    <path clip-path="url(#p9a442fbc92)" d="M 205.627931 127.039795 
L 208.271496 129.823424 
L 204.115039 129.725989 
z
" style="stroke:#000000;"/>
    <path clip-path="url(#p9a442fbc92)" d="M 203.407861 138.01636 
L 210.097368 132.597527 
L 205.938358 132.505877 
z
" style="stroke:#000000;"/>
    <path clip-path="url(#p9a442fbc92)" d="M 204.115039 224.609046 
L 209.786507 227.188995 
L 205.627931 227.29973 
z
" style="stroke:#000000;"/>
    <path clip-path="url(#p9a442fbc92)" d="M 210.097368 132.597527 
L 210.858889 128.043609 
L 211.987301 129.263582 
z
" style="stroke:#000000;"/>
    <path clip-path="url(#p9a442fbc92)" d="M 210.858889 226.291639 
L 210.097368 221.735475 
L 211.987301 225.074996 
z
" style="stroke:#000000;"/>
    <path clip-path="url(#p9a442fbc92)" d="M 205.627931 127.039795 
L 210.858889 128.043609 
L 209.786507 127.143089 
z
" style="stroke:#000000;"/>
    <path clip-path="url(#p9a442fbc92)" d="M 204.115039 224.609046 
L 205.938358 221.834569 
L 203.407861 216.316577 
z
" style="stroke:#000000;"/>
    <path clip-path="url(#p9a442fbc92)" d="M 205.938358 132.505877 
L 204.115039 129.725989 
L 203.407861 138.01636 
z
" style="stroke:#000000;"/>
    <path clip-path="url(#p9a442fbc92)" d="M 206.698818 226.400554 
L 209.786507 227.188995 
L 210.858889 226.291639 
z
" style="stroke:#000000;"/>
    <path clip-path="url(#p9a442fbc92)" d="M 205.938358 221.834569 
L 211.987301 225.074996 
L 210.097368 221.735475 
z
" style="stroke:#000000;"/>
    <path clip-path="url(#p9a442fbc92)" d="M 209.786507 227.188995 
L 206.698818 226.400554 
L 205.627931 227.29973 
z
" style="stroke:#000000;"/>
    <path clip-path="url(#p9a442fbc92)" d="M 206.698818 127.942149 
L 211.987301 129.263582 
L 210.858889 128.043609 
z
" style="stroke:#000000;"/>
    <path clip-path="url(#p9a442fbc92)" d="M 206.698818 226.400554 
L 204.115039 224.609046 
L 205.627931 227.29973 
z
" style="stroke:#000000;"/>
    <path clip-path="url(#p9a442fbc92)" d="M 204.115039 129.725989 
L 206.698818 127.942149 
L 205.627931 127.039795 
z
" style="stroke:#000000;"/>
    <path clip-path="url(#p9a442fbc92)" d="M 210.858889 128.043609 
L 205.627931 127.039795 
L 206.698818 127.942149 
z
" style="stroke:#000000;"/>
    <path clip-path="url(#p9a442fbc92)" d="M 207.825661 129.16464 
L 210.097368 132.597527 
L 211.987301 129.263582 
z
" style="stroke:#000000;"/>
    <path clip-path="url(#p9a442fbc92)" d="M 204.115039 224.609046 
L 206.698818 226.400554 
L 205.938358 221.834569 
z
" style="stroke:#000000;"/>
    <path clip-path="url(#p9a442fbc92)" d="M 206.698818 127.942149 
L 204.115039 129.725989 
L 205.938358 132.505877 
z
" style="stroke:#000000;"/>
    <path clip-path="url(#p9a442fbc92)" d="M 210.097368 132.597527 
L 207.825661 129.16464 
L 205.938358 132.505877 
z
" style="stroke:#000000;"/>
    <path clip-path="url(#p9a442fbc92)" d="M 207.825661 225.181407 
L 210.858889 226.291639 
L 211.987301 225.074996 
z
" style="stroke:#000000;"/>
    <path clip-path="url(#p9a442fbc92)" d="M 210.858889 226.291639 
L 207.825661 225.181407 
L 206.698818 226.400554 
z
" style="stroke:#000000;"/>
    <path clip-path="url(#p9a442fbc92)" d="M 211.987301 225.074996 
L 205.938358 221.834569 
L 207.825661 225.181407 
z
" style="stroke:#000000;"/>
    <path clip-path="url(#p9a442fbc92)" d="M 211.987301 129.263582 
L 206.698818 127.942149 
L 207.825661 129.16464 
z
" style="stroke:#000000;"/>
    <path clip-path="url(#p9a442fbc92)" d="M 205.938358 221.834569 
L 206.698818 226.400554 
L 207.825661 225.181407 
z
" style="stroke:#000000;"/>
    <path clip-path="url(#p9a442fbc92)" d="M 206.698818 127.942149 
L 205.938358 132.505877 
L 207.825661 129.16464 
z
" style="stroke:#000000;"/>
   </g>
  </g>
 </g>
 <defs>
  <clipPath id="p9a442fbc92">
   <rect height="271.8" width="279" x="45" y="43.2"/>
  </clipPath>
 </defs>
</svg>
