<?xml version="1.0" encoding="utf-8" standalone="no"?>
<!DOCTYPE svg PUBLIC "-//W3C//DTD SVG 1.1//EN"
  "http://www.w3.org/Graphics/SVG/1.1/DTD/svg11.dtd">
<!-- Created with matplotlib (https://matplotlib.org/) -->
<svg height="360pt" version="1.1" viewBox="0 0 360 360" width="360pt" xmlns="http://www.w3.org/2000/svg" xmlns:xlink="http://www.w3.org/1999/xlink">
 <defs>
  <style type="text/css">
*{stroke-linecap:butt;stroke-linejoin:round;}
  </style>
 </defs>
 <g id="figure_1">
  <g id="patch_1">
   <path d="M 45 315 
L 324 315 
L 324 43.2 
L 45 43.2 
z
" style="fill:#ffffff;"/>
  </g>
  <g id="axes_1">
   <g id="Poly3DCollection_1">
    <path clip-path="url(#pe8ec2d0f73)" d="M 202.458304 214.375619 
L 201.806029 210.959653 
L 203.422247 213.392771 
z
" style="stroke:#000000;"/>
    <path clip-path="url(#pe8ec2d0f73)" d="M 201.806029 143.308635 
L 202.458304 139.891179 
L 203.422247 140.871825 
z
" style="stroke:#000000;"/>
    <path clip-path="url(#pe8ec2d0f73)" d="M 206.291909 213.464295 
L 202.458304 214.375619 
L 203.422247 213.392771 
z
" style="stroke:#000000;"/>
    <path clip-path="url(#pe8ec2d0f73)" d="M 206.291909 140.806727 
L 201.806029 143.308635 
L 203.422247 140.871825 
z
" style="stroke:#000000;"/>
    <path clip-path="url(#pe8ec2d0f73)" d="M 205.328006 139.82419 
L 203.422247 140.871825 
L 202.458304 139.891179 
z
" style="stroke:#000000;"/>
    <path clip-path="url(#pe8ec2d0f73)" d="M 202.458304 214.375619 
L 200.236324 213.15832 
L 201.806029 210.959653 
z
" style="stroke:#000000;"/>
    <path clip-path="url(#pe8ec2d0f73)" d="M 200.236324 141.113555 
L 202.458304 139.891179 
L 201.806029 143.308635 
z
" style="stroke:#000000;"/>
    <path clip-path="url(#pe8ec2d0f73)" d="M 200.236324 213.15832 
L 202.458304 214.375619 
L 201.539358 215.116029 
z
" style="stroke:#000000;"/>
    <path clip-path="url(#pe8ec2d0f73)" d="M 202.458304 139.891179 
L 200.236324 141.113555 
L 201.539358 139.152868 
z
" style="stroke:#000000;"/>
    <path clip-path="url(#pe8ec2d0f73)" d="M 204.675757 211.026665 
L 203.422247 213.392771 
L 201.806029 210.959653 
z
" style="stroke:#000000;"/>
    <path clip-path="url(#pe8ec2d0f73)" d="M 203.422247 140.871825 
L 205.328006 139.82419 
L 206.291909 140.806727 
z
" style="stroke:#000000;"/>
    <path clip-path="url(#pe8ec2d0f73)" d="M 205.328006 214.449042 
L 201.539358 215.116029 
L 202.458304 214.375619 
z
" style="stroke:#000000;"/>
    <path clip-path="url(#pe8ec2d0f73)" d="M 203.422247 213.392771 
L 204.675757 211.026665 
L 206.291909 213.464295 
z
" style="stroke:#000000;"/>
    <path clip-path="url(#pe8ec2d0f73)" d="M 204.409095 139.084445 
L 202.458304 139.891179 
L 201.539358 139.152868 
z
" style="stroke:#000000;"/>
    <path clip-path="url(#pe8ec2d0f73)" d="M 202.458304 214.375619 
L 206.291909 213.464295 
L 205.328006 214.449042 
z
" style="stroke:#000000;"/>
    <path clip-path="url(#pe8ec2d0f73)" d="M 200.236324 213.15832 
L 199.625306 206.893416 
L 201.806029 210.959653 
z
" style="stroke:#000000;"/>
    <path clip-path="url(#pe8ec2d0f73)" d="M 199.625306 147.379854 
L 200.236324 141.113555 
L 201.806029 143.308635 
z
" style="stroke:#000000;"/>
    <path clip-path="url(#pe8ec2d0f73)" d="M 201.806029 143.308635 
L 206.291909 140.806727 
L 204.675757 143.248062 
z
" style="stroke:#000000;"/>
    <path clip-path="url(#pe8ec2d0f73)" d="M 202.458304 139.891179 
L 204.409095 139.084445 
L 205.328006 139.82419 
z
" style="stroke:#000000;"/>
    <path clip-path="url(#pe8ec2d0f73)" d="M 200.236324 141.113555 
L 204.409095 139.084445 
L 201.539358 139.152868 
z
" style="stroke:#000000;"/>
    <path clip-path="url(#pe8ec2d0f73)" d="M 199.625306 206.893416 
L 204.675757 211.026665 
L 201.806029 210.959653 
z
" style="stroke:#000000;"/>
    <path clip-path="url(#pe8ec2d0f73)" d="M 201.539358 215.116029 
L 205.328006 214.449042 
L 204.409095 215.190893 
z
" style="stroke:#000000;"/>
    <path clip-path="url(#pe8ec2d0f73)" d="M 205.328006 139.82419 
L 204.675757 143.248062 
L 206.291909 140.806727 
z
" style="stroke:#000000;"/>
    <path clip-path="url(#pe8ec2d0f73)" d="M 204.675757 211.026665 
L 205.328006 214.449042 
L 206.291909 213.464295 
z
" style="stroke:#000000;"/>
    <path clip-path="url(#pe8ec2d0f73)" d="M 201.539358 215.116029 
L 203.106108 213.229553 
L 200.236324 213.15832 
z
" style="stroke:#000000;"/>
    <path clip-path="url(#pe8ec2d0f73)" d="M 201.806029 143.308635 
L 202.49511 147.326881 
L 199.625306 147.379854 
z
" style="stroke:#000000;"/>
    <path clip-path="url(#pe8ec2d0f73)" d="M 197.911322 208.83082 
L 199.625306 206.893416 
L 200.236324 213.15832 
z
" style="stroke:#000000;"/>
    <path clip-path="url(#pe8ec2d0f73)" d="M 199.625306 147.379854 
L 197.911322 145.446365 
L 200.236324 141.113555 
z
" style="stroke:#000000;"/>
    <path clip-path="url(#pe8ec2d0f73)" d="M 203.106108 213.229553 
L 201.539358 215.116029 
L 204.409095 215.190893 
z
" style="stroke:#000000;"/>
    <path clip-path="url(#pe8ec2d0f73)" d="M 202.49511 147.326881 
L 201.806029 143.308635 
L 204.675757 143.248062 
z
" style="stroke:#000000;"/>
    <path clip-path="url(#pe8ec2d0f73)" d="M 204.409095 139.084445 
L 200.236324 141.113555 
L 203.106108 141.048773 
z
" style="stroke:#000000;"/>
    <path clip-path="url(#pe8ec2d0f73)" d="M 205.328006 139.82419 
L 203.106108 141.048773 
L 204.675757 143.248062 
z
" style="stroke:#000000;"/>
    <path clip-path="url(#pe8ec2d0f73)" d="M 203.106108 213.229553 
L 205.328006 214.449042 
L 204.675757 211.026665 
z
" style="stroke:#000000;"/>
    <path clip-path="url(#pe8ec2d0f73)" d="M 203.106108 141.048773 
L 205.328006 139.82419 
L 204.409095 139.084445 
z
" style="stroke:#000000;"/>
    <path clip-path="url(#pe8ec2d0f73)" d="M 205.328006 214.449042 
L 203.106108 213.229553 
L 204.409095 215.190893 
z
" style="stroke:#000000;"/>
    <path clip-path="url(#pe8ec2d0f73)" d="M 197.911322 145.446365 
L 203.106108 141.048773 
L 200.236324 141.113555 
z
" style="stroke:#000000;"/>
    <path clip-path="url(#pe8ec2d0f73)" d="M 204.675757 211.026665 
L 199.625306 206.893416 
L 202.49511 206.952847 
z
" style="stroke:#000000;"/>
    <path clip-path="url(#pe8ec2d0f73)" d="M 197.911322 208.83082 
L 197.732879 202.483346 
L 199.625306 206.893416 
z
" style="stroke:#000000;"/>
    <path clip-path="url(#pe8ec2d0f73)" d="M 197.732879 151.794247 
L 197.911322 145.446365 
L 199.625306 147.379854 
z
" style="stroke:#000000;"/>
    <path clip-path="url(#pe8ec2d0f73)" d="M 197.732879 202.483346 
L 202.49511 206.952847 
L 199.625306 206.893416 
z
" style="stroke:#000000;"/>
    <path clip-path="url(#pe8ec2d0f73)" d="M 200.236324 213.15832 
L 200.781178 208.893982 
L 197.911322 208.83082 
z
" style="stroke:#000000;"/>
    <path clip-path="url(#pe8ec2d0f73)" d="M 203.106108 141.048773 
L 202.49511 147.326881 
L 204.675757 143.248062 
z
" style="stroke:#000000;"/>
    <path clip-path="url(#pe8ec2d0f73)" d="M 202.49511 206.952847 
L 203.106108 213.229553 
L 204.675757 211.026665 
z
" style="stroke:#000000;"/>
    <path clip-path="url(#pe8ec2d0f73)" d="M 200.781178 208.893982 
L 200.236324 213.15832 
L 203.106108 213.229553 
z
" style="stroke:#000000;"/>
    <path clip-path="url(#pe8ec2d0f73)" d="M 199.625306 147.379854 
L 200.60274 151.749556 
L 197.732879 151.794247 
z
" style="stroke:#000000;"/>
    <path clip-path="url(#pe8ec2d0f73)" d="M 195.893327 204.13628 
L 197.732879 202.483346 
L 197.911322 208.83082 
z
" style="stroke:#000000;"/>
    <path clip-path="url(#pe8ec2d0f73)" d="M 197.732879 151.794247 
L 195.893327 150.145516 
L 197.911322 145.446365 
z
" style="stroke:#000000;"/>
    <path clip-path="url(#pe8ec2d0f73)" d="M 200.60274 151.749556 
L 199.625306 147.379854 
L 202.49511 147.326881 
z
" style="stroke:#000000;"/>
    <path clip-path="url(#pe8ec2d0f73)" d="M 203.106108 141.048773 
L 197.911322 145.446365 
L 200.781178 145.389676 
z
" style="stroke:#000000;"/>
    <path clip-path="url(#pe8ec2d0f73)" d="M 197.732879 202.483346 
L 195.893327 204.13628 
L 196.151768 197.779465 
z
" style="stroke:#000000;"/>
    <path clip-path="url(#pe8ec2d0f73)" d="M 195.893327 150.145516 
L 197.732879 151.794247 
L 196.151768 156.50174 
z
" style="stroke:#000000;"/>
    <path clip-path="url(#pe8ec2d0f73)" d="M 202.49511 206.952847 
L 197.732879 202.483346 
L 200.60274 202.534512 
z
" style="stroke:#000000;"/>
    <path clip-path="url(#pe8ec2d0f73)" d="M 200.781178 145.389676 
L 202.49511 147.326881 
L 203.106108 141.048773 
z
" style="stroke:#000000;"/>
    <path clip-path="url(#pe8ec2d0f73)" d="M 202.49511 206.952847 
L 200.781178 208.893982 
L 203.106108 213.229553 
z
" style="stroke:#000000;"/>
    <path clip-path="url(#pe8ec2d0f73)" d="M 195.893327 150.145516 
L 200.781178 145.389676 
L 197.911322 145.446365 
z
" style="stroke:#000000;"/>
    <path clip-path="url(#pe8ec2d0f73)" d="M 196.151768 197.779465 
L 200.60274 202.534512 
L 197.732879 202.483346 
z
" style="stroke:#000000;"/>
    <path clip-path="url(#pe8ec2d0f73)" d="M 197.732879 151.794247 
L 199.021669 156.465913 
L 196.151768 156.50174 
z
" style="stroke:#000000;"/>
    <path clip-path="url(#pe8ec2d0f73)" d="M 197.911322 208.83082 
L 198.763234 204.190638 
L 195.893327 204.13628 
z
" style="stroke:#000000;"/>
    <path clip-path="url(#pe8ec2d0f73)" d="M 200.781178 145.389676 
L 200.60274 151.749556 
L 202.49511 147.326881 
z
" style="stroke:#000000;"/>
    <path clip-path="url(#pe8ec2d0f73)" d="M 200.60274 202.534512 
L 200.781178 208.893982 
L 202.49511 206.952847 
z
" style="stroke:#000000;"/>
    <path clip-path="url(#pe8ec2d0f73)" d="M 194.207032 199.12749 
L 196.151768 197.779465 
L 195.893327 204.13628 
z
" style="stroke:#000000;"/>
    <path clip-path="url(#pe8ec2d0f73)" d="M 196.151768 156.50174 
L 194.207032 155.158157 
L 195.893327 150.145516 
z
" style="stroke:#000000;"/>
    <path clip-path="url(#pe8ec2d0f73)" d="M 198.763234 204.190638 
L 197.911322 208.83082 
L 200.781178 208.893982 
z
" style="stroke:#000000;"/>
    <path clip-path="url(#pe8ec2d0f73)" d="M 199.021669 156.465913 
L 197.732879 151.794247 
L 200.60274 151.749556 
z
" style="stroke:#000000;"/>
    <path clip-path="url(#pe8ec2d0f73)" d="M 196.151768 197.779465 
L 194.207032 199.12749 
L 194.901321 192.83542 
z
" style="stroke:#000000;"/>
    <path clip-path="url(#pe8ec2d0f73)" d="M 194.207032 155.158157 
L 196.151768 156.50174 
L 194.901321 161.448641 
z
" style="stroke:#000000;"/>
    <path clip-path="url(#pe8ec2d0f73)" d="M 194.901321 192.83542 
L 199.021669 197.82178 
L 196.151768 197.779465 
z
" style="stroke:#000000;"/>
    <path clip-path="url(#pe8ec2d0f73)" d="M 200.60274 202.534512 
L 196.151768 197.779465 
L 199.021669 197.82178 
z
" style="stroke:#000000;"/>
    <path clip-path="url(#pe8ec2d0f73)" d="M 200.781178 145.389676 
L 195.893327 150.145516 
L 198.763234 150.097647 
z
" style="stroke:#000000;"/>
    <path clip-path="url(#pe8ec2d0f73)" d="M 194.207032 155.158157 
L 198.763234 150.097647 
L 195.893327 150.145516 
z
" style="stroke:#000000;"/>
    <path clip-path="url(#pe8ec2d0f73)" d="M 196.151768 156.50174 
L 197.771249 161.422157 
L 194.901321 161.448641 
z
" style="stroke:#000000;"/>
    <path clip-path="url(#pe8ec2d0f73)" d="M 198.763234 150.097647 
L 200.60274 151.749556 
L 200.781178 145.389676 
z
" style="stroke:#000000;"/>
    <path clip-path="url(#pe8ec2d0f73)" d="M 200.60274 202.534512 
L 198.763234 204.190638 
L 200.781178 208.893982 
z
" style="stroke:#000000;"/>
    <path clip-path="url(#pe8ec2d0f73)" d="M 192.873255 193.861981 
L 194.901321 192.83542 
L 194.207032 199.12749 
z
" style="stroke:#000000;"/>
    <path clip-path="url(#pe8ec2d0f73)" d="M 194.901321 161.448641 
L 192.873255 160.426714 
L 194.207032 155.158157 
z
" style="stroke:#000000;"/>
    <path clip-path="url(#pe8ec2d0f73)" d="M 194.901321 192.83542 
L 192.873255 193.861981 
L 193.996932 187.708182 
z
" style="stroke:#000000;"/>
    <path clip-path="url(#pe8ec2d0f73)" d="M 192.873255 160.426714 
L 194.901321 161.448641 
L 193.996932 166.577946 
z
" style="stroke:#000000;"/>
    <path clip-path="url(#pe8ec2d0f73)" d="M 197.771249 161.422157 
L 196.151768 156.50174 
L 199.021669 156.465913 
z
" style="stroke:#000000;"/>
    <path clip-path="url(#pe8ec2d0f73)" d="M 195.893327 204.13628 
L 197.076973 199.172415 
L 194.207032 199.12749 
z
" style="stroke:#000000;"/>
    <path clip-path="url(#pe8ec2d0f73)" d="M 200.60274 151.749556 
L 198.763234 150.097647 
L 199.021669 156.465913 
z
" style="stroke:#000000;"/>
    <path clip-path="url(#pe8ec2d0f73)" d="M 198.763234 204.190638 
L 200.60274 202.534512 
L 199.021669 197.82178 
z
" style="stroke:#000000;"/>
    <path clip-path="url(#pe8ec2d0f73)" d="M 193.996932 187.708182 
L 197.771249 192.868403 
L 194.901321 192.83542 
z
" style="stroke:#000000;"/>
    <path clip-path="url(#pe8ec2d0f73)" d="M 197.076973 199.172415 
L 195.893327 204.13628 
L 198.763234 204.190638 
z
" style="stroke:#000000;"/>
    <path clip-path="url(#pe8ec2d0f73)" d="M 199.021669 197.82178 
L 194.901321 192.83542 
L 197.771249 192.868403 
z
" style="stroke:#000000;"/>
    <path clip-path="url(#pe8ec2d0f73)" d="M 194.901321 161.448641 
L 196.866878 166.561169 
L 193.996932 166.577946 
z
" style="stroke:#000000;"/>
    <path clip-path="url(#pe8ec2d0f73)" d="M 193.996932 187.708182 
L 191.908496 188.400567 
L 193.449785 182.457287 
z
" style="stroke:#000000;"/>
    <path clip-path="url(#pe8ec2d0f73)" d="M 191.908496 165.890332 
L 193.996932 166.577946 
L 193.449785 171.83009 
z
" style="stroke:#000000;"/>
    <path clip-path="url(#pe8ec2d0f73)" d="M 191.908496 188.400567 
L 193.996932 187.708182 
L 192.873255 193.861981 
z
" style="stroke:#000000;"/>
    <path clip-path="url(#pe8ec2d0f73)" d="M 193.996932 166.577946 
L 191.908496 165.890332 
L 192.873255 160.426714 
z
" style="stroke:#000000;"/>
    <path clip-path="url(#pe8ec2d0f73)" d="M 198.763234 150.097647 
L 194.207032 155.158157 
L 197.076973 155.119737 
z
" style="stroke:#000000;"/>
    <path clip-path="url(#pe8ec2d0f73)" d="M 193.449785 182.457287 
L 196.866878 187.731465 
L 193.996932 187.708182 
z
" style="stroke:#000000;"/>
    <path clip-path="url(#pe8ec2d0f73)" d="M 192.873255 160.426714 
L 197.076973 155.119737 
L 194.207032 155.158157 
z
" style="stroke:#000000;"/>
    <path clip-path="url(#pe8ec2d0f73)" d="M 196.866878 166.561169 
L 194.901321 161.448641 
L 197.771249 161.422157 
z
" style="stroke:#000000;"/>
    <path clip-path="url(#pe8ec2d0f73)" d="M 193.996932 166.577946 
L 196.31974 171.823268 
L 193.449785 171.83009 
z
" style="stroke:#000000;"/>
    <path clip-path="url(#pe8ec2d0f73)" d="M 191.324778 171.485365 
L 193.449785 171.83009 
L 193.266635 177.143898 
z
" style="stroke:#000000;"/>
    <path clip-path="url(#pe8ec2d0f73)" d="M 193.449785 182.457287 
L 191.324778 182.806867 
L 193.266635 177.143898 
z
" style="stroke:#000000;"/>
    <path clip-path="url(#pe8ec2d0f73)" d="M 197.076973 155.119737 
L 199.021669 156.465913 
L 198.763234 150.097647 
z
" style="stroke:#000000;"/>
    <path clip-path="url(#pe8ec2d0f73)" d="M 199.021669 197.82178 
L 197.076973 199.172415 
L 198.763234 204.190638 
z
" style="stroke:#000000;"/>
    <path clip-path="url(#pe8ec2d0f73)" d="M 193.266635 177.143898 
L 196.31974 182.47062 
L 193.449785 182.457287 
z
" style="stroke:#000000;"/>
    <path clip-path="url(#pe8ec2d0f73)" d="M 197.771249 192.868403 
L 193.996932 187.708182 
L 196.866878 187.731465 
z
" style="stroke:#000000;"/>
    <path clip-path="url(#pe8ec2d0f73)" d="M 193.449785 171.83009 
L 196.136593 177.147154 
L 193.266635 177.143898 
z
" style="stroke:#000000;"/>
    <path clip-path="url(#pe8ec2d0f73)" d="M 194.207032 199.12749 
L 195.743219 193.896956 
L 192.873255 193.861981 
z
" style="stroke:#000000;"/>
    <path clip-path="url(#pe8ec2d0f73)" d="M 199.021669 156.465913 
L 197.076973 155.119737 
L 197.771249 161.422157 
z
" style="stroke:#000000;"/>
    <path clip-path="url(#pe8ec2d0f73)" d="M 197.076973 199.172415 
L 199.021669 197.82178 
L 197.771249 192.868403 
z
" style="stroke:#000000;"/>
    <path clip-path="url(#pe8ec2d0f73)" d="M 191.324778 182.806867 
L 193.449785 182.457287 
L 191.908496 188.400567 
z
" style="stroke:#000000;"/>
    <path clip-path="url(#pe8ec2d0f73)" d="M 193.449785 171.83009 
L 191.324778 171.485365 
L 191.908496 165.890332 
z
" style="stroke:#000000;"/>
    <path clip-path="url(#pe8ec2d0f73)" d="M 196.31974 171.823268 
L 193.996932 166.577946 
L 196.866878 166.561169 
z
" style="stroke:#000000;"/>
    <path clip-path="url(#pe8ec2d0f73)" d="M 191.129396 177.146339 
L 193.266635 177.143898 
L 191.324778 182.806867 
z
" style="stroke:#000000;"/>
    <path clip-path="url(#pe8ec2d0f73)" d="M 193.266635 177.143898 
L 191.129396 177.146339 
L 191.324778 171.485365 
z
" style="stroke:#000000;"/>
    <path clip-path="url(#pe8ec2d0f73)" d="M 195.743219 193.896956 
L 194.207032 199.12749 
L 197.076973 199.172415 
z
" style="stroke:#000000;"/>
    <path clip-path="url(#pe8ec2d0f73)" d="M 196.866878 187.731465 
L 193.449785 182.457287 
L 196.31974 182.47062 
z
" style="stroke:#000000;"/>
    <path clip-path="url(#pe8ec2d0f73)" d="M 191.908496 165.890332 
L 195.743219 160.398254 
L 192.873255 160.426714 
z
" style="stroke:#000000;"/>
    <path clip-path="url(#pe8ec2d0f73)" d="M 196.136593 177.147154 
L 193.449785 171.83009 
L 196.31974 171.823268 
z
" style="stroke:#000000;"/>
    <path clip-path="url(#pe8ec2d0f73)" d="M 196.31974 182.47062 
L 193.266635 177.143898 
L 196.136593 177.147154 
z
" style="stroke:#000000;"/>
    <path clip-path="url(#pe8ec2d0f73)" d="M 197.076973 155.119737 
L 192.873255 160.426714 
L 195.743219 160.398254 
z
" style="stroke:#000000;"/>
    <path clip-path="url(#pe8ec2d0f73)" d="M 192.873255 193.861981 
L 194.778473 188.425196 
L 191.908496 188.400567 
z
" style="stroke:#000000;"/>
    <path clip-path="url(#pe8ec2d0f73)" d="M 193.622252 142.537103 
L 188.27027 153.272979 
L 191.842484 143.174857 
z
" style="stroke:#000000;"/>
    <path clip-path="url(#pe8ec2d0f73)" d="M 191.842484 143.174857 
L 188.27027 136.993461 
L 193.622252 142.537103 
z
" style="stroke:#000000;"/>
    <path clip-path="url(#pe8ec2d0f73)" d="M 195.743219 160.398254 
L 197.771249 161.422157 
L 197.076973 155.119737 
z
" style="stroke:#000000;"/>
    <path clip-path="url(#pe8ec2d0f73)" d="M 197.771249 192.868403 
L 195.743219 193.896956 
L 197.076973 199.172415 
z
" style="stroke:#000000;"/>
    <path clip-path="url(#pe8ec2d0f73)" d="M 197.771249 161.422157 
L 195.743219 160.398254 
L 196.866878 166.561169 
z
" style="stroke:#000000;"/>
    <path clip-path="url(#pe8ec2d0f73)" d="M 195.743219 193.896956 
L 197.771249 192.868403 
L 196.866878 187.731465 
z
" style="stroke:#000000;"/>
    <path clip-path="url(#pe8ec2d0f73)" d="M 191.324778 171.485365 
L 194.778473 165.872227 
L 191.908496 165.890332 
z
" style="stroke:#000000;"/>
    <path clip-path="url(#pe8ec2d0f73)" d="M 194.778473 188.425196 
L 192.873255 193.861981 
L 195.743219 193.896956 
z
" style="stroke:#000000;"/>
    <path clip-path="url(#pe8ec2d0f73)" d="M 191.908496 188.400567 
L 194.194762 182.820883 
L 191.324778 182.806867 
z
" style="stroke:#000000;"/>
    <path clip-path="url(#pe8ec2d0f73)" d="M 195.743219 160.398254 
L 191.908496 165.890332 
L 194.778473 165.872227 
z
" style="stroke:#000000;"/>
    <path clip-path="url(#pe8ec2d0f73)" d="M 191.129396 177.146339 
L 194.194762 171.477879 
L 191.324778 171.485365 
z
" style="stroke:#000000;"/>
    <path clip-path="url(#pe8ec2d0f73)" d="M 196.866878 166.561169 
L 194.778473 165.872227 
L 196.31974 171.823268 
z
" style="stroke:#000000;"/>
    <path clip-path="url(#pe8ec2d0f73)" d="M 194.778473 188.425196 
L 196.866878 187.731465 
L 196.31974 182.47062 
z
" style="stroke:#000000;"/>
    <path clip-path="url(#pe8ec2d0f73)" d="M 191.324778 182.806867 
L 193.999382 177.149605 
L 191.129396 177.146339 
z
" style="stroke:#000000;"/>
    <path clip-path="url(#pe8ec2d0f73)" d="M 194.778473 165.872227 
L 196.866878 166.561169 
L 195.743219 160.398254 
z
" style="stroke:#000000;"/>
    <path clip-path="url(#pe8ec2d0f73)" d="M 196.866878 187.731465 
L 194.778473 188.425196 
L 195.743219 193.896956 
z
" style="stroke:#000000;"/>
    <path clip-path="url(#pe8ec2d0f73)" d="M 188.27027 153.272979 
L 193.622252 142.537103 
L 188.27027 158.699485 
z
" style="stroke:#000000;"/>
    <path clip-path="url(#pe8ec2d0f73)" d="M 193.622252 142.537103 
L 191.140278 136.92032 
L 196.492204 142.474734 
z
" style="stroke:#000000;"/>
    <path clip-path="url(#pe8ec2d0f73)" d="M 191.140278 158.667652 
L 193.622252 142.537103 
L 196.492204 142.474734 
z
" style="stroke:#000000;"/>
    <path clip-path="url(#pe8ec2d0f73)" d="M 194.194762 182.820883 
L 196.31974 182.47062 
L 196.136593 177.147154 
z
" style="stroke:#000000;"/>
    <path clip-path="url(#pe8ec2d0f73)" d="M 196.31974 171.823268 
L 194.194762 171.477879 
L 196.136593 177.147154 
z
" style="stroke:#000000;"/>
    <path clip-path="url(#pe8ec2d0f73)" d="M 194.194762 182.820883 
L 191.908496 188.400567 
L 194.778473 188.425196 
z
" style="stroke:#000000;"/>
    <path clip-path="url(#pe8ec2d0f73)" d="M 194.712462 143.113625 
L 188.27027 139.706714 
L 191.842484 143.174857 
z
" style="stroke:#000000;"/>
    <path clip-path="url(#pe8ec2d0f73)" d="M 188.27027 153.272979 
L 194.712462 143.113625 
L 191.842484 143.174857 
z
" style="stroke:#000000;"/>
    <path clip-path="url(#pe8ec2d0f73)" d="M 194.778473 165.872227 
L 191.324778 171.485365 
L 194.194762 171.477879 
z
" style="stroke:#000000;"/>
    <path clip-path="url(#pe8ec2d0f73)" d="M 188.27027 136.993461 
L 191.842484 143.174857 
L 188.27027 139.706714 
z
" style="stroke:#000000;"/>
    <path clip-path="url(#pe8ec2d0f73)" d="M 194.194762 171.477879 
L 196.31974 171.823268 
L 194.778473 165.872227 
z
" style="stroke:#000000;"/>
    <path clip-path="url(#pe8ec2d0f73)" d="M 196.31974 182.47062 
L 194.194762 182.820883 
L 194.778473 188.425196 
z
" style="stroke:#000000;"/>
    <path clip-path="url(#pe8ec2d0f73)" d="M 193.999382 177.149605 
L 191.324778 182.806867 
L 194.194762 182.820883 
z
" style="stroke:#000000;"/>
    <path clip-path="url(#pe8ec2d0f73)" d="M 194.194762 171.477879 
L 191.129396 177.146339 
L 193.999382 177.149605 
z
" style="stroke:#000000;"/>
    <path clip-path="url(#pe8ec2d0f73)" d="M 191.140278 136.92032 
L 193.622252 142.537103 
L 188.27027 136.993461 
z
" style="stroke:#000000;"/>
    <path clip-path="url(#pe8ec2d0f73)" d="M 193.622252 142.537103 
L 191.140278 158.667652 
L 188.27027 158.699485 
z
" style="stroke:#000000;"/>
    <path clip-path="url(#pe8ec2d0f73)" d="M 193.999382 177.149605 
L 196.136593 177.147154 
L 194.194762 171.477879 
z
" style="stroke:#000000;"/>
    <path clip-path="url(#pe8ec2d0f73)" d="M 196.136593 177.147154 
L 193.999382 177.149605 
L 194.194762 182.820883 
z
" style="stroke:#000000;"/>
    <path clip-path="url(#pe8ec2d0f73)" d="M 191.140278 136.92032 
L 194.712462 143.113625 
L 196.492204 142.474734 
z
" style="stroke:#000000;"/>
    <path clip-path="url(#pe8ec2d0f73)" d="M 191.140278 153.230819 
L 196.492204 142.474734 
L 194.712462 143.113625 
z
" style="stroke:#000000;"/>
    <path clip-path="url(#pe8ec2d0f73)" d="M 188.27027 139.706714 
L 194.712462 143.113625 
L 191.140278 139.638737 
z
" style="stroke:#000000;"/>
    <path clip-path="url(#pe8ec2d0f73)" d="M 194.712462 143.113625 
L 188.27027 153.272979 
L 191.140278 153.230819 
z
" style="stroke:#000000;"/>
    <path clip-path="url(#pe8ec2d0f73)" d="M 191.140278 153.230819 
L 191.140278 158.667652 
L 196.492204 142.474734 
z
" style="stroke:#000000;"/>
    <path clip-path="url(#pe8ec2d0f73)" d="M 184.681053 143.02134 
L 188.27027 136.993461 
L 188.27027 139.706714 
z
" style="stroke:#000000;"/>
    <path clip-path="url(#pe8ec2d0f73)" d="M 191.140278 136.92032 
L 191.140278 139.638737 
L 194.712462 143.113625 
z
" style="stroke:#000000;"/>
    <path clip-path="url(#pe8ec2d0f73)" d="M 182.880031 142.301994 
L 188.27027 153.272979 
L 188.27027 158.699485 
z
" style="stroke:#000000;"/>
    <path clip-path="url(#pe8ec2d0f73)" d="M 191.140278 139.638737 
L 184.681053 143.02134 
L 188.27027 139.706714 
z
" style="stroke:#000000;"/>
    <path clip-path="url(#pe8ec2d0f73)" d="M 184.681053 143.02134 
L 191.140278 153.230819 
L 188.27027 153.272979 
z
" style="stroke:#000000;"/>
    <path clip-path="url(#pe8ec2d0f73)" d="M 188.27027 153.272979 
L 182.880031 142.301994 
L 184.681053 143.02134 
z
" style="stroke:#000000;"/>
    <path clip-path="url(#pe8ec2d0f73)" d="M 188.27027 136.993461 
L 184.681053 143.02134 
L 182.880031 142.301994 
z
" style="stroke:#000000;"/>
    <path clip-path="url(#pe8ec2d0f73)" d="M 183.240578 177.15535 
L 185.400263 177.152883 
L 185.203339 182.836883 
z
" style="stroke:#000000;"/>
    <path clip-path="url(#pe8ec2d0f73)" d="M 185.400263 177.152883 
L 183.240578 177.15535 
L 185.203339 171.469333 
z
" style="stroke:#000000;"/>
    <path clip-path="url(#pe8ec2d0f73)" d="M 188.27027 136.993461 
L 185.750021 142.23873 
L 191.140278 136.92032 
z
" style="stroke:#000000;"/>
    <path clip-path="url(#pe8ec2d0f73)" d="M 185.750021 142.23873 
L 188.27027 158.699485 
L 191.140278 158.667652 
z
" style="stroke:#000000;"/>
    <path clip-path="url(#pe8ec2d0f73)" d="M 185.203339 171.469333 
L 188.27027 177.156174 
L 185.400263 177.152883 
z
" style="stroke:#000000;"/>
    <path clip-path="url(#pe8ec2d0f73)" d="M 185.400263 177.152883 
L 188.073346 182.851013 
L 185.203339 182.836883 
z
" style="stroke:#000000;"/>
    <path clip-path="url(#pe8ec2d0f73)" d="M 183.054932 182.505912 
L 185.203339 182.836883 
L 184.614406 188.463466 
z
" style="stroke:#000000;"/>
    <path clip-path="url(#pe8ec2d0f73)" d="M 185.203339 171.469333 
L 183.054932 171.805212 
L 184.614406 165.844095 
z
" style="stroke:#000000;"/>
    <path clip-path="url(#pe8ec2d0f73)" d="M 191.140278 136.92032 
L 187.551058 142.959523 
L 191.140278 139.638737 
z
" style="stroke:#000000;"/>
    <path clip-path="url(#pe8ec2d0f73)" d="M 184.614406 165.844095 
L 188.073346 171.461786 
L 185.203339 171.469333 
z
" style="stroke:#000000;"/>
    <path clip-path="url(#pe8ec2d0f73)" d="M 184.681053 143.02134 
L 191.140278 139.638737 
L 187.551058 142.959523 
z
" style="stroke:#000000;"/>
    <path clip-path="url(#pe8ec2d0f73)" d="M 191.140278 153.230819 
L 184.681053 143.02134 
L 187.551058 142.959523 
z
" style="stroke:#000000;"/>
    <path clip-path="url(#pe8ec2d0f73)" d="M 185.203339 182.836883 
L 187.484409 188.488335 
L 184.614406 188.463466 
z
" style="stroke:#000000;"/>
    <path clip-path="url(#pe8ec2d0f73)" d="M 183.054932 171.805212 
L 185.203339 171.469333 
L 183.240578 177.15535 
z
" style="stroke:#000000;"/>
    <path clip-path="url(#pe8ec2d0f73)" d="M 185.203339 182.836883 
L 183.054932 182.505912 
L 183.240578 177.15535 
z
" style="stroke:#000000;"/>
    <path clip-path="url(#pe8ec2d0f73)" d="M 185.750021 142.23873 
L 188.27027 136.993461 
L 182.880031 142.301994 
z
" style="stroke:#000000;"/>
    <path clip-path="url(#pe8ec2d0f73)" d="M 188.27027 158.699485 
L 185.750021 142.23873 
L 182.880031 142.301994 
z
" style="stroke:#000000;"/>
    <path clip-path="url(#pe8ec2d0f73)" d="M 191.140278 153.230819 
L 185.750021 142.23873 
L 191.140278 158.667652 
z
" style="stroke:#000000;"/>
    <path clip-path="url(#pe8ec2d0f73)" d="M 182.499784 187.802165 
L 184.614406 188.463466 
L 183.639015 193.975205 
z
" style="stroke:#000000;"/>
    <path clip-path="url(#pe8ec2d0f73)" d="M 184.614406 165.844095 
L 182.499784 166.510227 
L 183.639015 160.334585 
z
" style="stroke:#000000;"/>
    <path clip-path="url(#pe8ec2d0f73)" d="M 188.073346 182.851013 
L 185.400263 177.152883 
L 188.27027 177.156174 
z
" style="stroke:#000000;"/>
    <path clip-path="url(#pe8ec2d0f73)" d="M 184.614406 188.463466 
L 182.499784 187.802165 
L 183.054932 182.505912 
z
" style="stroke:#000000;"/>
    <path clip-path="url(#pe8ec2d0f73)" d="M 182.499784 166.510227 
L 184.614406 165.844095 
L 183.054932 171.805212 
z
" style="stroke:#000000;"/>
    <path clip-path="url(#pe8ec2d0f73)" d="M 188.27027 177.156174 
L 185.203339 171.469333 
L 188.073346 171.461786 
z
" style="stroke:#000000;"/>
    <path clip-path="url(#pe8ec2d0f73)" d="M 183.639015 160.334585 
L 187.484409 165.825814 
L 184.614406 165.844095 
z
" style="stroke:#000000;"/>
    <path clip-path="url(#pe8ec2d0f73)" d="M 187.484409 188.488335 
L 185.203339 182.836883 
L 188.073346 182.851013 
z
" style="stroke:#000000;"/>
    <path clip-path="url(#pe8ec2d0f73)" d="M 184.614406 188.463466 
L 186.509012 194.010612 
L 183.639015 193.975205 
z
" style="stroke:#000000;"/>
    <path clip-path="url(#pe8ec2d0f73)" d="M 188.073346 171.461786 
L 184.614406 165.844095 
L 187.484409 165.825814 
z
" style="stroke:#000000;"/>
    <path clip-path="url(#pe8ec2d0f73)" d="M 183.639015 193.975205 
L 181.580389 192.989866 
L 182.499784 187.802165 
z
" style="stroke:#000000;"/>
    <path clip-path="url(#pe8ec2d0f73)" d="M 181.580389 161.324627 
L 183.639015 160.334585 
L 182.499784 166.510227 
z
" style="stroke:#000000;"/>
    <path clip-path="url(#pe8ec2d0f73)" d="M 181.580389 192.989866 
L 183.639015 193.975205 
L 182.286397 199.315568 
z
" style="stroke:#000000;"/>
    <path clip-path="url(#pe8ec2d0f73)" d="M 183.639015 160.334585 
L 181.580389 161.324627 
L 182.286397 154.997312 
z
" style="stroke:#000000;"/>
    <path clip-path="url(#pe8ec2d0f73)" d="M 185.750021 142.23873 
L 191.140278 153.230819 
L 187.551058 142.959523 
z
" style="stroke:#000000;"/>
    <path clip-path="url(#pe8ec2d0f73)" d="M 187.551058 142.959523 
L 191.140278 136.92032 
L 185.750021 142.23873 
z
" style="stroke:#000000;"/>
    <path clip-path="url(#pe8ec2d0f73)" d="M 186.509012 194.010612 
L 184.614406 188.463466 
L 187.484409 188.488335 
z
" style="stroke:#000000;"/>
    <path clip-path="url(#pe8ec2d0f73)" d="M 182.286397 154.997312 
L 186.509012 160.305774 
L 183.639015 160.334585 
z
" style="stroke:#000000;"/>
    <path clip-path="url(#pe8ec2d0f73)" d="M 183.054932 182.505912 
L 186.110572 177.15865 
L 183.240578 177.15535 
z
" style="stroke:#000000;"/>
    <path clip-path="url(#pe8ec2d0f73)" d="M 183.240578 177.15535 
L 185.924924 171.798296 
L 183.054932 171.805212 
z
" style="stroke:#000000;"/>
    <path clip-path="url(#pe8ec2d0f73)" d="M 187.484409 165.825814 
L 183.639015 160.334585 
L 186.509012 160.305774 
z
" style="stroke:#000000;"/>
    <path clip-path="url(#pe8ec2d0f73)" d="M 182.499784 187.802165 
L 185.924924 182.51943 
L 183.054932 182.505912 
z
" style="stroke:#000000;"/>
    <path clip-path="url(#pe8ec2d0f73)" d="M 183.639015 193.975205 
L 185.156381 199.361209 
L 182.286397 199.315568 
z
" style="stroke:#000000;"/>
    <path clip-path="url(#pe8ec2d0f73)" d="M 186.110572 177.15865 
L 188.27027 177.156174 
L 188.073346 171.461786 
z
" style="stroke:#000000;"/>
    <path clip-path="url(#pe8ec2d0f73)" d="M 188.27027 177.156174 
L 186.110572 177.15865 
L 188.073346 182.851013 
z
" style="stroke:#000000;"/>
    <path clip-path="url(#pe8ec2d0f73)" d="M 183.054932 171.805212 
L 185.369771 166.493193 
L 182.499784 166.510227 
z
" style="stroke:#000000;"/>
    <path clip-path="url(#pe8ec2d0f73)" d="M 185.924924 171.798296 
L 188.073346 171.461786 
L 187.484409 165.825814 
z
" style="stroke:#000000;"/>
    <path clip-path="url(#pe8ec2d0f73)" d="M 188.073346 182.851013 
L 185.924924 182.51943 
L 187.484409 188.488335 
z
" style="stroke:#000000;"/>
    <path clip-path="url(#pe8ec2d0f73)" d="M 182.286397 199.315568 
L 180.305523 198.015564 
L 181.580389 192.989866 
z
" style="stroke:#000000;"/>
    <path clip-path="url(#pe8ec2d0f73)" d="M 180.305523 156.301841 
L 182.286397 154.997312 
L 181.580389 161.324627 
z
" style="stroke:#000000;"/>
    <path clip-path="url(#pe8ec2d0f73)" d="M 185.156381 199.361209 
L 183.639015 193.975205 
L 186.509012 194.010612 
z
" style="stroke:#000000;"/>
    <path clip-path="url(#pe8ec2d0f73)" d="M 185.924924 171.798296 
L 183.240578 177.15535 
L 186.110572 177.15865 
z
" style="stroke:#000000;"/>
    <path clip-path="url(#pe8ec2d0f73)" d="M 181.580389 192.989866 
L 185.369771 187.825806 
L 182.499784 187.802165 
z
" style="stroke:#000000;"/>
    <path clip-path="url(#pe8ec2d0f73)" d="M 186.110572 177.15865 
L 183.054932 182.505912 
L 185.924924 182.51943 
z
" style="stroke:#000000;"/>
    <path clip-path="url(#pe8ec2d0f73)" d="M 180.305523 198.015564 
L 182.286397 199.315568 
L 180.569361 204.429478 
z
" style="stroke:#000000;"/>
    <path clip-path="url(#pe8ec2d0f73)" d="M 182.286397 154.997312 
L 180.305523 156.301841 
L 180.569361 149.887324 
z
" style="stroke:#000000;"/>
    <path clip-path="url(#pe8ec2d0f73)" d="M 185.924924 182.51943 
L 188.073346 182.851013 
L 186.110572 177.15865 
z
" style="stroke:#000000;"/>
    <path clip-path="url(#pe8ec2d0f73)" d="M 188.073346 171.461786 
L 185.924924 171.798296 
L 186.110572 177.15865 
z
" style="stroke:#000000;"/>
    <path clip-path="url(#pe8ec2d0f73)" d="M 185.369771 166.493193 
L 183.054932 171.805212 
L 185.924924 171.798296 
z
" style="stroke:#000000;"/>
    <path clip-path="url(#pe8ec2d0f73)" d="M 182.499784 166.510227 
L 184.450364 161.29767 
L 181.580389 161.324627 
z
" style="stroke:#000000;"/>
    <path clip-path="url(#pe8ec2d0f73)" d="M 186.509012 160.305774 
L 182.286397 154.997312 
L 185.156381 154.958278 
z
" style="stroke:#000000;"/>
    <path clip-path="url(#pe8ec2d0f73)" d="M 185.924924 182.51943 
L 182.499784 187.802165 
L 185.369771 187.825806 
z
" style="stroke:#000000;"/>
    <path clip-path="url(#pe8ec2d0f73)" d="M 180.569361 149.887324 
L 185.156381 154.958278 
L 182.286397 154.997312 
z
" style="stroke:#000000;"/>
    <path clip-path="url(#pe8ec2d0f73)" d="M 185.369771 166.493193 
L 187.484409 165.825814 
L 186.509012 160.305774 
z
" style="stroke:#000000;"/>
    <path clip-path="url(#pe8ec2d0f73)" d="M 187.484409 188.488335 
L 185.369771 187.825806 
L 186.509012 194.010612 
z
" style="stroke:#000000;"/>
    <path clip-path="url(#pe8ec2d0f73)" d="M 187.484409 165.825814 
L 185.369771 166.493193 
L 185.924924 171.798296 
z
" style="stroke:#000000;"/>
    <path clip-path="url(#pe8ec2d0f73)" d="M 185.369771 187.825806 
L 187.484409 188.488335 
L 185.924924 182.51943 
z
" style="stroke:#000000;"/>
    <path clip-path="url(#pe8ec2d0f73)" d="M 184.450364 161.29767 
L 182.499784 166.510227 
L 185.369771 166.493193 
z
" style="stroke:#000000;"/>
    <path clip-path="url(#pe8ec2d0f73)" d="M 180.305523 198.015564 
L 184.450364 193.023437 
L 181.580389 192.989866 
z
" style="stroke:#000000;"/>
    <path clip-path="url(#pe8ec2d0f73)" d="M 182.286397 199.315568 
L 183.439322 204.484954 
L 180.569361 204.429478 
z
" style="stroke:#000000;"/>
    <path clip-path="url(#pe8ec2d0f73)" d="M 185.369771 187.825806 
L 181.580389 192.989866 
L 184.450364 193.023437 
z
" style="stroke:#000000;"/>
    <path clip-path="url(#pe8ec2d0f73)" d="M 180.569361 204.429478 
L 178.687406 202.82719 
L 180.305523 198.015564 
z
" style="stroke:#000000;"/>
    <path clip-path="url(#pe8ec2d0f73)" d="M 178.687406 151.493911 
L 180.569361 149.887324 
L 180.305523 156.301841 
z
" style="stroke:#000000;"/>
    <path clip-path="url(#pe8ec2d0f73)" d="M 183.439322 204.484954 
L 182.286397 199.315568 
L 185.156381 199.361209 
z
" style="stroke:#000000;"/>
    <path clip-path="url(#pe8ec2d0f73)" d="M 181.580389 161.324627 
L 183.175479 156.265252 
L 180.305523 156.301841 
z
" style="stroke:#000000;"/>
    <path clip-path="url(#pe8ec2d0f73)" d="M 186.509012 160.305774 
L 184.450364 161.29767 
L 185.369771 166.493193 
z
" style="stroke:#000000;"/>
    <path clip-path="url(#pe8ec2d0f73)" d="M 184.450364 193.023437 
L 186.509012 194.010612 
L 185.369771 187.825806 
z
" style="stroke:#000000;"/>
    <path clip-path="url(#pe8ec2d0f73)" d="M 184.450364 161.29767 
L 186.509012 160.305774 
L 185.156381 154.958278 
z
" style="stroke:#000000;"/>
    <path clip-path="url(#pe8ec2d0f73)" d="M 186.509012 194.010612 
L 184.450364 193.023437 
L 185.156381 199.361209 
z
" style="stroke:#000000;"/>
    <path clip-path="url(#pe8ec2d0f73)" d="M 178.504355 209.26344 
L 178.687406 202.82719 
L 180.569361 204.429478 
z
" style="stroke:#000000;"/>
    <path clip-path="url(#pe8ec2d0f73)" d="M 178.687406 151.493911 
L 178.504355 145.058079 
L 180.569361 149.887324 
z
" style="stroke:#000000;"/>
    <path clip-path="url(#pe8ec2d0f73)" d="M 183.175479 156.265252 
L 181.580389 161.324627 
L 184.450364 161.29767 
z
" style="stroke:#000000;"/>
    <path clip-path="url(#pe8ec2d0f73)" d="M 185.156381 154.958278 
L 180.569361 149.887324 
L 183.439322 149.838472 
z
" style="stroke:#000000;"/>
    <path clip-path="url(#pe8ec2d0f73)" d="M 178.504355 145.058079 
L 183.439322 149.838472 
L 180.569361 149.887324 
z
" style="stroke:#000000;"/>
    <path clip-path="url(#pe8ec2d0f73)" d="M 178.687406 202.82719 
L 183.175479 198.058778 
L 180.305523 198.015564 
z
" style="stroke:#000000;"/>
    <path clip-path="url(#pe8ec2d0f73)" d="M 184.450364 193.023437 
L 180.305523 198.015564 
L 183.175479 198.058778 
z
" style="stroke:#000000;"/>
    <path clip-path="url(#pe8ec2d0f73)" d="M 185.156381 154.958278 
L 183.175479 156.265252 
L 184.450364 161.29767 
z
" style="stroke:#000000;"/>
    <path clip-path="url(#pe8ec2d0f73)" d="M 183.175479 198.058778 
L 185.156381 199.361209 
L 184.450364 193.023437 
z
" style="stroke:#000000;"/>
    <path clip-path="url(#pe8ec2d0f73)" d="M 180.305523 156.301841 
L 181.557332 151.448075 
L 178.687406 151.493911 
z
" style="stroke:#000000;"/>
    <path clip-path="url(#pe8ec2d0f73)" d="M 180.569361 204.429478 
L 181.374277 209.32825 
L 178.504355 209.26344 
z
" style="stroke:#000000;"/>
    <path clip-path="url(#pe8ec2d0f73)" d="M 183.175479 156.265252 
L 185.156381 154.958278 
L 183.439322 149.838472 
z
" style="stroke:#000000;"/>
    <path clip-path="url(#pe8ec2d0f73)" d="M 185.156381 199.361209 
L 183.175479 198.058778 
L 183.439322 204.484954 
z
" style="stroke:#000000;"/>
    <path clip-path="url(#pe8ec2d0f73)" d="M 178.504355 209.26344 
L 176.741629 207.374502 
L 178.687406 202.82719 
z
" style="stroke:#000000;"/>
    <path clip-path="url(#pe8ec2d0f73)" d="M 176.741629 146.951044 
L 178.504355 145.058079 
L 178.687406 151.493911 
z
" style="stroke:#000000;"/>
    <path clip-path="url(#pe8ec2d0f73)" d="M 181.374277 209.32825 
L 180.569361 204.429478 
L 183.439322 204.484954 
z
" style="stroke:#000000;"/>
    <path clip-path="url(#pe8ec2d0f73)" d="M 181.557332 151.448075 
L 180.305523 156.301841 
L 183.175479 156.265252 
z
" style="stroke:#000000;"/>
    <path clip-path="url(#pe8ec2d0f73)" d="M 183.175479 198.058778 
L 178.687406 202.82719 
L 181.557332 202.879666 
z
" style="stroke:#000000;"/>
    <path clip-path="url(#pe8ec2d0f73)" d="M 183.439322 149.838472 
L 178.504355 145.058079 
L 181.374277 144.999911 
z
" style="stroke:#000000;"/>
    <path clip-path="url(#pe8ec2d0f73)" d="M 176.111266 213.766731 
L 176.741629 207.374502 
L 178.504355 209.26344 
z
" style="stroke:#000000;"/>
    <path clip-path="url(#pe8ec2d0f73)" d="M 176.741629 146.951044 
L 176.111266 140.560255 
L 178.504355 145.058079 
z
" style="stroke:#000000;"/>
    <path clip-path="url(#pe8ec2d0f73)" d="M 176.741629 207.374502 
L 181.557332 202.879666 
L 178.687406 202.82719 
z
" style="stroke:#000000;"/>
    <path clip-path="url(#pe8ec2d0f73)" d="M 183.439322 149.838472 
L 181.557332 151.448075 
L 183.175479 156.265252 
z
" style="stroke:#000000;"/>
    <path clip-path="url(#pe8ec2d0f73)" d="M 181.557332 202.879666 
L 183.439322 204.484954 
L 183.175479 198.058778 
z
" style="stroke:#000000;"/>
    <path clip-path="url(#pe8ec2d0f73)" d="M 176.111266 140.560255 
L 181.374277 144.999911 
L 178.504355 145.058079 
z
" style="stroke:#000000;"/>
    <path clip-path="url(#pe8ec2d0f73)" d="M 178.687406 151.493911 
L 179.61151 146.896437 
L 176.741629 146.951044 
z
" style="stroke:#000000;"/>
    <path clip-path="url(#pe8ec2d0f73)" d="M 181.374277 144.999911 
L 181.557332 151.448075 
L 183.439322 149.838472 
z
" style="stroke:#000000;"/>
    <path clip-path="url(#pe8ec2d0f73)" d="M 181.557332 202.879666 
L 181.374277 209.32825 
L 183.439322 204.484954 
z
" style="stroke:#000000;"/>
    <path clip-path="url(#pe8ec2d0f73)" d="M 179.61151 146.896437 
L 178.687406 151.493911 
L 181.557332 151.448075 
z
" style="stroke:#000000;"/>
    <path clip-path="url(#pe8ec2d0f73)" d="M 178.504355 209.26344 
L 178.98113 213.840283 
L 176.111266 213.766731 
z
" style="stroke:#000000;"/>
    <path clip-path="url(#pe8ec2d0f73)" d="M 176.111266 213.766731 
L 174.487094 211.609145 
L 176.741629 207.374502 
z
" style="stroke:#000000;"/>
    <path clip-path="url(#pe8ec2d0f73)" d="M 174.487094 142.721551 
L 176.111266 140.560255 
L 176.741629 146.951044 
z
" style="stroke:#000000;"/>
    <path clip-path="url(#pe8ec2d0f73)" d="M 178.98113 213.840283 
L 178.504355 209.26344 
L 181.374277 209.32825 
z
" style="stroke:#000000;"/>
    <path clip-path="url(#pe8ec2d0f73)" d="M 181.557332 202.879666 
L 176.741629 207.374502 
L 179.61151 207.435765 
z
" style="stroke:#000000;"/>
    <path clip-path="url(#pe8ec2d0f73)" d="M 181.374277 144.999911 
L 179.61151 146.896437 
L 181.557332 151.448075 
z
" style="stroke:#000000;"/>
    <path clip-path="url(#pe8ec2d0f73)" d="M 179.61151 207.435765 
L 181.374277 209.32825 
L 181.557332 202.879666 
z
" style="stroke:#000000;"/>
    <path clip-path="url(#pe8ec2d0f73)" d="M 174.487094 211.609145 
L 179.61151 207.435765 
L 176.741629 207.374502 
z
" style="stroke:#000000;"/>
    <path clip-path="url(#pe8ec2d0f73)" d="M 181.374277 144.999911 
L 176.111266 140.560255 
L 178.98113 140.493366 
z
" style="stroke:#000000;"/>
    <path clip-path="url(#pe8ec2d0f73)" d="M 173.810159 215.122517 
L 176.111266 213.766731 
L 174.763504 215.826946 
z
" style="stroke:#000000;"/>
    <path clip-path="url(#pe8ec2d0f73)" d="M 176.111266 140.560255 
L 173.810159 139.209726 
L 174.763504 138.503118 
z
" style="stroke:#000000;"/>
    <path clip-path="url(#pe8ec2d0f73)" d="M 176.111266 213.766731 
L 173.810159 215.122517 
L 174.487094 211.609145 
z
" style="stroke:#000000;"/>
    <path clip-path="url(#pe8ec2d0f73)" d="M 173.810159 139.209726 
L 176.111266 140.560255 
L 174.487094 142.721551 
z
" style="stroke:#000000;"/>
    <path clip-path="url(#pe8ec2d0f73)" d="M 174.763504 138.503118 
L 178.98113 140.493366 
L 176.111266 140.560255 
z
" style="stroke:#000000;"/>
    <path clip-path="url(#pe8ec2d0f73)" d="M 176.741629 146.951044 
L 177.356912 142.658741 
L 174.487094 142.721551 
z
" style="stroke:#000000;"/>
    <path clip-path="url(#pe8ec2d0f73)" d="M 176.111266 213.766731 
L 177.63333 215.904519 
L 174.763504 215.826946 
z
" style="stroke:#000000;"/>
    <path clip-path="url(#pe8ec2d0f73)" d="M 178.98113 140.493366 
L 179.61151 146.896437 
L 181.374277 144.999911 
z
" style="stroke:#000000;"/>
    <path clip-path="url(#pe8ec2d0f73)" d="M 179.61151 207.435765 
L 178.98113 213.840283 
L 181.374277 209.32825 
z
" style="stroke:#000000;"/>
    <path clip-path="url(#pe8ec2d0f73)" d="M 177.356912 142.658741 
L 176.741629 146.951044 
L 179.61151 146.896437 
z
" style="stroke:#000000;"/>
    <path clip-path="url(#pe8ec2d0f73)" d="M 177.63333 215.904519 
L 176.111266 213.766731 
L 178.98113 213.840283 
z
" style="stroke:#000000;"/>
    <path clip-path="url(#pe8ec2d0f73)" d="M 174.487094 211.609145 
L 173.810159 215.122517 
L 172.807587 214.171299 
z
" style="stroke:#000000;"/>
    <path clip-path="url(#pe8ec2d0f73)" d="M 173.810159 139.209726 
L 174.487094 142.721551 
L 172.807587 140.163234 
z
" style="stroke:#000000;"/>
    <path clip-path="url(#pe8ec2d0f73)" d="M 177.63333 215.904519 
L 173.810159 215.122517 
L 174.763504 215.826946 
z
" style="stroke:#000000;"/>
    <path clip-path="url(#pe8ec2d0f73)" d="M 179.61151 207.435765 
L 174.487094 211.609145 
L 177.356912 211.678632 
z
" style="stroke:#000000;"/>
    <path clip-path="url(#pe8ec2d0f73)" d="M 178.98113 140.493366 
L 174.763504 138.503118 
L 177.63333 138.43222 
z
" style="stroke:#000000;"/>
    <path clip-path="url(#pe8ec2d0f73)" d="M 176.679955 139.14014 
L 174.763504 138.503118 
L 173.810159 139.209726 
z
" style="stroke:#000000;"/>
    <path clip-path="url(#pe8ec2d0f73)" d="M 177.356912 142.658741 
L 172.807587 140.163234 
L 174.487094 142.721551 
z
" style="stroke:#000000;"/>
    <path clip-path="url(#pe8ec2d0f73)" d="M 178.98113 140.493366 
L 177.356912 142.658741 
L 179.61151 146.896437 
z
" style="stroke:#000000;"/>
    <path clip-path="url(#pe8ec2d0f73)" d="M 177.356912 211.678632 
L 178.98113 213.840283 
L 179.61151 207.435765 
z
" style="stroke:#000000;"/>
    <path clip-path="url(#pe8ec2d0f73)" d="M 176.679955 215.198785 
L 172.807587 214.171299 
L 173.810159 215.122517 
z
" style="stroke:#000000;"/>
    <path clip-path="url(#pe8ec2d0f73)" d="M 174.763504 138.503118 
L 176.679955 139.14014 
L 177.63333 138.43222 
z
" style="stroke:#000000;"/>
    <path clip-path="url(#pe8ec2d0f73)" d="M 175.677348 214.245789 
L 174.487094 211.609145 
L 172.807587 214.171299 
z
" style="stroke:#000000;"/>
    <path clip-path="url(#pe8ec2d0f73)" d="M 173.810159 215.122517 
L 177.63333 215.904519 
L 176.679955 215.198785 
z
" style="stroke:#000000;"/>
    <path clip-path="url(#pe8ec2d0f73)" d="M 175.677348 140.095435 
L 173.810159 139.209726 
L 172.807587 140.163234 
z
" style="stroke:#000000;"/>
    <path clip-path="url(#pe8ec2d0f73)" d="M 174.487094 211.609145 
L 175.677348 214.245789 
L 177.356912 211.678632 
z
" style="stroke:#000000;"/>
    <path clip-path="url(#pe8ec2d0f73)" d="M 176.679955 139.14014 
L 178.98113 140.493366 
L 177.63333 138.43222 
z
" style="stroke:#000000;"/>
    <path clip-path="url(#pe8ec2d0f73)" d="M 178.98113 213.840283 
L 176.679955 215.198785 
L 177.63333 215.904519 
z
" style="stroke:#000000;"/>
    <path clip-path="url(#pe8ec2d0f73)" d="M 178.98113 140.493366 
L 176.679955 139.14014 
L 177.356912 142.658741 
z
" style="stroke:#000000;"/>
    <path clip-path="url(#pe8ec2d0f73)" d="M 176.679955 215.198785 
L 178.98113 213.840283 
L 177.356912 211.678632 
z
" style="stroke:#000000;"/>
    <path clip-path="url(#pe8ec2d0f73)" d="M 173.810159 139.209726 
L 175.677348 140.095435 
L 176.679955 139.14014 
z
" style="stroke:#000000;"/>
    <path clip-path="url(#pe8ec2d0f73)" d="M 172.807587 140.163234 
L 177.356912 142.658741 
L 175.677348 140.095435 
z
" style="stroke:#000000;"/>
    <path clip-path="url(#pe8ec2d0f73)" d="M 172.807587 214.171299 
L 176.679955 215.198785 
L 175.677348 214.245789 
z
" style="stroke:#000000;"/>
    <path clip-path="url(#pe8ec2d0f73)" d="M 177.356912 142.658741 
L 176.679955 139.14014 
L 175.677348 140.095435 
z
" style="stroke:#000000;"/>
    <path clip-path="url(#pe8ec2d0f73)" d="M 176.679955 215.198785 
L 177.356912 211.678632 
L 175.677348 214.245789 
z
" style="stroke:#000000;"/>
   </g>
  </g>
 </g>
 <defs>
  <clipPath id="pe8ec2d0f73">
   <rect height="271.8" width="279" x="45" y="43.2"/>
  </clipPath>
 </defs>
</svg>
