<?xml version="1.0" encoding="utf-8" standalone="no"?>
<!DOCTYPE svg PUBLIC "-//W3C//DTD SVG 1.1//EN"
  "http://www.w3.org/Graphics/SVG/1.1/DTD/svg11.dtd">
<!-- Created with matplotlib (https://matplotlib.org/) -->
<svg height="360pt" version="1.1" viewBox="0 0 360 360" width="360pt" xmlns="http://www.w3.org/2000/svg" xmlns:xlink="http://www.w3.org/1999/xlink">
 <defs>
  <style type="text/css">
*{stroke-linecap:butt;stroke-linejoin:round;}
  </style>
 </defs>
 <g id="figure_1">
  <g id="patch_1">
   <path d="M 0 360 
L 360 360 
L 360 0 
L 0 0 
z
" style="fill:#ffffff;"/>
  </g>
  <g id="patch_2">
   <path d="M 45 315 
L 324 315 
L 324 43.2 
L 45 43.2 
z
" style="fill:#ffffff;"/>
  </g>
  <g id="axes_1">
   <g id="Poly3DCollection_1">
    <path clip-path="url(#pf024d1df6e)" d="M 199.342821 209.996999 
L 198.847372 206.982616 
L 200.07501 209.129796 
z
" style="stroke:#000000;"/>
    <path clip-path="url(#pf024d1df6e)" d="M 198.847372 147.285934 
L 199.342821 144.270075 
L 200.07501 145.135098 
z
" style="stroke:#000000;"/>
    <path clip-path="url(#pf024d1df6e)" d="M 202.903506 209.17801 
L 199.342821 209.996999 
L 200.07501 209.129796 
z
" style="stroke:#000000;"/>
    <path clip-path="url(#pf024d1df6e)" d="M 202.903506 145.091764 
L 198.847372 147.285934 
L 200.07501 145.135098 
z
" style="stroke:#000000;"/>
    <path clip-path="url(#pf024d1df6e)" d="M 202.17208 144.225475 
L 200.07501 145.135098 
L 199.342821 144.270075 
z
" style="stroke:#000000;"/>
    <path clip-path="url(#pf024d1df6e)" d="M 200.07501 145.135098 
L 202.17208 144.225475 
L 202.903506 145.091764 
z
" style="stroke:#000000;"/>
    <path clip-path="url(#pf024d1df6e)" d="M 201.677147 207.027806 
L 200.07501 209.129796 
L 198.847372 206.982616 
z
" style="stroke:#000000;"/>
    <path clip-path="url(#pf024d1df6e)" d="M 199.342821 209.996999 
L 197.65509 208.922627 
L 198.847372 206.982616 
z
" style="stroke:#000000;"/>
    <path clip-path="url(#pf024d1df6e)" d="M 197.65509 145.349474 
L 199.342821 144.270075 
L 198.847372 147.285934 
z
" style="stroke:#000000;"/>
    <path clip-path="url(#pf024d1df6e)" d="M 200.07501 209.129796 
L 201.677147 207.027806 
L 202.903506 209.17801 
z
" style="stroke:#000000;"/>
    <path clip-path="url(#pf024d1df6e)" d="M 202.17208 210.046485 
L 198.644818 210.650263 
L 199.342821 209.996999 
z
" style="stroke:#000000;"/>
    <path clip-path="url(#pf024d1df6e)" d="M 197.65509 208.922627 
L 199.342821 209.996999 
L 198.644818 210.650263 
z
" style="stroke:#000000;"/>
    <path clip-path="url(#pf024d1df6e)" d="M 199.342821 144.270075 
L 197.65509 145.349474 
L 198.644818 143.61889 
z
" style="stroke:#000000;"/>
    <path clip-path="url(#pf024d1df6e)" d="M 199.342821 209.996999 
L 202.903506 209.17801 
L 202.17208 210.046485 
z
" style="stroke:#000000;"/>
    <path clip-path="url(#pf024d1df6e)" d="M 201.474803 143.57333 
L 199.342821 144.270075 
L 198.644818 143.61889 
z
" style="stroke:#000000;"/>
    <path clip-path="url(#pf024d1df6e)" d="M 198.847372 147.285934 
L 202.903506 145.091764 
L 201.677147 147.245633 
z
" style="stroke:#000000;"/>
    <path clip-path="url(#pf024d1df6e)" d="M 199.342821 144.270075 
L 201.474803 143.57333 
L 202.17208 144.225475 
z
" style="stroke:#000000;"/>
    <path clip-path="url(#pf024d1df6e)" d="M 197.65509 208.922627 
L 197.190992 203.39437 
L 198.847372 206.982616 
z
" style="stroke:#000000;"/>
    <path clip-path="url(#pf024d1df6e)" d="M 197.190992 150.879112 
L 197.65509 145.349474 
L 198.847372 147.285934 
z
" style="stroke:#000000;"/>
    <path clip-path="url(#pf024d1df6e)" d="M 198.644818 210.650263 
L 202.17208 210.046485 
L 201.474803 210.700715 
z
" style="stroke:#000000;"/>
    <path clip-path="url(#pf024d1df6e)" d="M 202.17208 144.225475 
L 201.677147 147.245633 
L 202.903506 145.091764 
z
" style="stroke:#000000;"/>
    <path clip-path="url(#pf024d1df6e)" d="M 201.677147 207.027806 
L 202.17208 210.046485 
L 202.903506 209.17801 
z
" style="stroke:#000000;"/>
    <path clip-path="url(#pf024d1df6e)" d="M 197.65509 145.349474 
L 201.474803 143.57333 
L 198.644818 143.61889 
z
" style="stroke:#000000;"/>
    <path clip-path="url(#pf024d1df6e)" d="M 197.190992 203.39437 
L 201.677147 207.027806 
L 198.847372 206.982616 
z
" style="stroke:#000000;"/>
    <path clip-path="url(#pf024d1df6e)" d="M 198.644818 210.650263 
L 200.486101 208.970645 
L 197.65509 208.922627 
z
" style="stroke:#000000;"/>
    <path clip-path="url(#pf024d1df6e)" d="M 200.486101 208.970645 
L 198.644818 210.650263 
L 201.474803 210.700715 
z
" style="stroke:#000000;"/>
    <path clip-path="url(#pf024d1df6e)" d="M 200.022485 150.843906 
L 198.847372 147.285934 
L 201.677147 147.245633 
z
" style="stroke:#000000;"/>
    <path clip-path="url(#pf024d1df6e)" d="M 198.847372 147.285934 
L 200.022485 150.843906 
L 197.190992 150.879112 
z
" style="stroke:#000000;"/>
    <path clip-path="url(#pf024d1df6e)" d="M 202.17208 144.225475 
L 200.486101 145.306355 
L 201.677147 147.245633 
z
" style="stroke:#000000;"/>
    <path clip-path="url(#pf024d1df6e)" d="M 200.486101 208.970645 
L 202.17208 210.046485 
L 201.677147 207.027806 
z
" style="stroke:#000000;"/>
    <path clip-path="url(#pf024d1df6e)" d="M 195.889161 205.103843 
L 197.190992 203.39437 
L 197.65509 208.922627 
z
" style="stroke:#000000;"/>
    <path clip-path="url(#pf024d1df6e)" d="M 197.190992 150.879112 
L 195.889161 149.173516 
L 197.65509 145.349474 
z
" style="stroke:#000000;"/>
    <path clip-path="url(#pf024d1df6e)" d="M 200.486101 145.306355 
L 202.17208 144.225475 
L 201.474803 143.57333 
z
" style="stroke:#000000;"/>
    <path clip-path="url(#pf024d1df6e)" d="M 202.17208 210.046485 
L 200.486101 208.970645 
L 201.474803 210.700715 
z
" style="stroke:#000000;"/>
    <path clip-path="url(#pf024d1df6e)" d="M 201.474803 143.57333 
L 197.65509 145.349474 
L 200.486101 145.306355 
z
" style="stroke:#000000;"/>
    <path clip-path="url(#pf024d1df6e)" d="M 201.677147 207.027806 
L 197.190992 203.39437 
L 200.022485 203.43448 
z
" style="stroke:#000000;"/>
    <path clip-path="url(#pf024d1df6e)" d="M 195.889161 149.173516 
L 200.486101 145.306355 
L 197.65509 145.349474 
z
" style="stroke:#000000;"/>
    <path clip-path="url(#pf024d1df6e)" d="M 195.889161 205.103843 
L 195.753628 199.502839 
L 197.190992 203.39437 
z
" style="stroke:#000000;"/>
    <path clip-path="url(#pf024d1df6e)" d="M 195.753628 154.774924 
L 195.889161 149.173516 
L 197.190992 150.879112 
z
" style="stroke:#000000;"/>
    <path clip-path="url(#pf024d1df6e)" d="M 200.486101 145.306355 
L 200.022485 150.843906 
L 201.677147 147.245633 
z
" style="stroke:#000000;"/>
    <path clip-path="url(#pf024d1df6e)" d="M 200.022485 203.43448 
L 200.486101 208.970645 
L 201.677147 207.027806 
z
" style="stroke:#000000;"/>
    <path clip-path="url(#pf024d1df6e)" d="M 195.753628 199.502839 
L 200.022485 203.43448 
L 197.190992 203.39437 
z
" style="stroke:#000000;"/>
    <path clip-path="url(#pf024d1df6e)" d="M 198.721998 205.146453 
L 197.65509 208.922627 
L 200.486101 208.970645 
z
" style="stroke:#000000;"/>
    <path clip-path="url(#pf024d1df6e)" d="M 197.65509 208.922627 
L 198.721998 205.146453 
L 195.889161 205.103843 
z
" style="stroke:#000000;"/>
    <path clip-path="url(#pf024d1df6e)" d="M 197.190992 150.879112 
L 198.586606 154.745268 
L 195.753628 154.774924 
z
" style="stroke:#000000;"/>
    <path clip-path="url(#pf024d1df6e)" d="M 198.586606 154.745268 
L 197.190992 150.879112 
L 200.022485 150.843906 
z
" style="stroke:#000000;"/>
    <path clip-path="url(#pf024d1df6e)" d="M 200.486101 145.306355 
L 195.889161 149.173516 
L 198.721998 149.135821 
z
" style="stroke:#000000;"/>
    <path clip-path="url(#pf024d1df6e)" d="M 194.356459 200.961317 
L 195.753628 199.502839 
L 195.889161 205.103843 
z
" style="stroke:#000000;"/>
    <path clip-path="url(#pf024d1df6e)" d="M 195.753628 154.774924 
L 194.356459 153.320606 
L 195.889161 149.173516 
z
" style="stroke:#000000;"/>
    <path clip-path="url(#pf024d1df6e)" d="M 198.721998 149.135821 
L 200.022485 150.843906 
L 200.486101 145.306355 
z
" style="stroke:#000000;"/>
    <path clip-path="url(#pf024d1df6e)" d="M 200.022485 203.43448 
L 198.721998 205.146453 
L 200.486101 208.970645 
z
" style="stroke:#000000;"/>
    <path clip-path="url(#pf024d1df6e)" d="M 200.022485 203.43448 
L 195.753628 199.502839 
L 198.586606 199.537411 
z
" style="stroke:#000000;"/>
    <path clip-path="url(#pf024d1df6e)" d="M 195.753628 199.502839 
L 194.356459 200.961317 
L 194.552747 195.35215 
z
" style="stroke:#000000;"/>
    <path clip-path="url(#pf024d1df6e)" d="M 194.356459 153.320606 
L 195.753628 154.774924 
L 194.552747 158.929188 
z
" style="stroke:#000000;"/>
    <path clip-path="url(#pf024d1df6e)" d="M 194.356459 153.320606 
L 198.721998 149.135821 
L 195.889161 149.173516 
z
" style="stroke:#000000;"/>
    <path clip-path="url(#pf024d1df6e)" d="M 194.552747 195.35215 
L 198.586606 199.537411 
L 195.753628 199.502839 
z
" style="stroke:#000000;"/>
    <path clip-path="url(#pf024d1df6e)" d="M 198.721998 149.135821 
L 198.586606 154.745268 
L 200.022485 150.843906 
z
" style="stroke:#000000;"/>
    <path clip-path="url(#pf024d1df6e)" d="M 198.586606 199.537411 
L 198.721998 205.146453 
L 200.022485 203.43448 
z
" style="stroke:#000000;"/>
    <path clip-path="url(#pf024d1df6e)" d="M 195.753628 154.774924 
L 197.386962 158.905473 
L 194.552747 158.929188 
z
" style="stroke:#000000;"/>
    <path clip-path="url(#pf024d1df6e)" d="M 195.889161 205.103843 
L 197.190876 200.998028 
L 194.356459 200.961317 
z
" style="stroke:#000000;"/>
    <path clip-path="url(#pf024d1df6e)" d="M 197.190876 200.998028 
L 195.889161 205.103843 
L 198.721998 205.146453 
z
" style="stroke:#000000;"/>
    <path clip-path="url(#pf024d1df6e)" d="M 197.386962 158.905473 
L 195.753628 154.774924 
L 198.586606 154.745268 
z
" style="stroke:#000000;"/>
    <path clip-path="url(#pf024d1df6e)" d="M 193.075721 196.54162 
L 194.552747 195.35215 
L 194.356459 200.961317 
z
" style="stroke:#000000;"/>
    <path clip-path="url(#pf024d1df6e)" d="M 194.552747 158.929188 
L 193.075721 157.744117 
L 194.356459 153.320606 
z
" style="stroke:#000000;"/>
    <path clip-path="url(#pf024d1df6e)" d="M 198.586606 199.537411 
L 194.552747 195.35215 
L 197.386962 195.380792 
z
" style="stroke:#000000;"/>
    <path clip-path="url(#pf024d1df6e)" d="M 198.721998 149.135821 
L 194.356459 153.320606 
L 197.190876 153.288823 
z
" style="stroke:#000000;"/>
    <path clip-path="url(#pf024d1df6e)" d="M 194.552747 195.35215 
L 193.075721 196.54162 
L 193.603029 190.989624 
z
" style="stroke:#000000;"/>
    <path clip-path="url(#pf024d1df6e)" d="M 193.075721 157.744117 
L 194.552747 158.929188 
L 193.603029 163.294543 
z
" style="stroke:#000000;"/>
    <path clip-path="url(#pf024d1df6e)" d="M 193.603029 190.989624 
L 197.386962 195.380792 
L 194.552747 195.35215 
z
" style="stroke:#000000;"/>
    <path clip-path="url(#pf024d1df6e)" d="M 197.190876 153.288823 
L 198.586606 154.745268 
L 198.721998 149.135821 
z
" style="stroke:#000000;"/>
    <path clip-path="url(#pf024d1df6e)" d="M 198.586606 199.537411 
L 197.190876 200.998028 
L 198.721998 205.146453 
z
" style="stroke:#000000;"/>
    <path clip-path="url(#pf024d1df6e)" d="M 193.075721 157.744117 
L 197.190876 153.288823 
L 194.356459 153.320606 
z
" style="stroke:#000000;"/>
    <path clip-path="url(#pf024d1df6e)" d="M 194.552747 158.929188 
L 196.43822 163.277088 
L 193.603029 163.294543 
z
" style="stroke:#000000;"/>
    <path clip-path="url(#pf024d1df6e)" d="M 198.586606 154.745268 
L 197.190876 153.288823 
L 197.386962 158.905473 
z
" style="stroke:#000000;"/>
    <path clip-path="url(#pf024d1df6e)" d="M 197.190876 200.998028 
L 198.586606 199.537411 
L 197.386962 195.380792 
z
" style="stroke:#000000;"/>
    <path clip-path="url(#pf024d1df6e)" d="M 196.43822 163.277088 
L 194.552747 158.929188 
L 197.386962 158.905473 
z
" style="stroke:#000000;"/>
    <path clip-path="url(#pf024d1df6e)" d="M 194.356459 200.961317 
L 195.911452 196.57201 
L 193.075721 196.54162 
z
" style="stroke:#000000;"/>
    <path clip-path="url(#pf024d1df6e)" d="M 192.062741 191.895491 
L 193.603029 190.989624 
L 193.075721 196.54162 
z
" style="stroke:#000000;"/>
    <path clip-path="url(#pf024d1df6e)" d="M 193.603029 163.294543 
L 192.062741 162.393262 
L 193.075721 157.744117 
z
" style="stroke:#000000;"/>
    <path clip-path="url(#pf024d1df6e)" d="M 193.603029 190.989624 
L 192.062741 191.895491 
L 192.916153 186.465504 
z
" style="stroke:#000000;"/>
    <path clip-path="url(#pf024d1df6e)" d="M 192.062741 162.393262 
L 193.603029 163.294543 
L 192.916153 167.820708 
z
" style="stroke:#000000;"/>
    <path clip-path="url(#pf024d1df6e)" d="M 195.911452 196.57201 
L 194.356459 200.961317 
L 197.190876 200.998028 
z
" style="stroke:#000000;"/>
    <path clip-path="url(#pf024d1df6e)" d="M 192.916153 186.465504 
L 196.43822 191.012013 
L 193.603029 190.989624 
z
" style="stroke:#000000;"/>
    <path clip-path="url(#pf024d1df6e)" d="M 197.386962 195.380792 
L 193.603029 190.989624 
L 196.43822 191.012013 
z
" style="stroke:#000000;"/>
    <path clip-path="url(#pf024d1df6e)" d="M 193.603029 163.294543 
L 195.752048 167.809759 
L 192.916153 167.820708 
z
" style="stroke:#000000;"/>
    <path clip-path="url(#pf024d1df6e)" d="M 197.190876 153.288823 
L 193.075721 157.744117 
L 195.911452 157.718666 
z
" style="stroke:#000000;"/>
    <path clip-path="url(#pf024d1df6e)" d="M 195.911452 157.718666 
L 197.386962 158.905473 
L 197.190876 153.288823 
z
" style="stroke:#000000;"/>
    <path clip-path="url(#pf024d1df6e)" d="M 197.386962 195.380792 
L 195.911452 196.57201 
L 197.190876 200.998028 
z
" style="stroke:#000000;"/>
    <path clip-path="url(#pf024d1df6e)" d="M 195.752048 167.809759 
L 193.603029 163.294543 
L 196.43822 163.277088 
z
" style="stroke:#000000;"/>
    <path clip-path="url(#pf024d1df6e)" d="M 192.916153 186.465504 
L 191.330034 187.076566 
L 192.500603 181.832295 
z
" style="stroke:#000000;"/>
    <path clip-path="url(#pf024d1df6e)" d="M 191.330034 167.214369 
L 192.916153 167.820708 
L 192.500603 172.455154 
z
" style="stroke:#000000;"/>
    <path clip-path="url(#pf024d1df6e)" d="M 192.500603 181.832295 
L 195.752048 186.481394 
L 192.916153 186.465504 
z
" style="stroke:#000000;"/>
    <path clip-path="url(#pf024d1df6e)" d="M 192.062741 162.393262 
L 195.911452 157.718666 
L 193.075721 157.744117 
z
" style="stroke:#000000;"/>
    <path clip-path="url(#pf024d1df6e)" d="M 191.330034 187.076566 
L 192.916153 186.465504 
L 192.062741 191.895491 
z
" style="stroke:#000000;"/>
    <path clip-path="url(#pf024d1df6e)" d="M 192.916153 167.820708 
L 191.330034 167.214369 
L 192.062741 162.393262 
z
" style="stroke:#000000;"/>
    <path clip-path="url(#pf024d1df6e)" d="M 197.386962 158.905473 
L 195.911452 157.718666 
L 196.43822 163.277088 
z
" style="stroke:#000000;"/>
    <path clip-path="url(#pf024d1df6e)" d="M 195.911452 196.57201 
L 197.386962 195.380792 
L 196.43822 191.012013 
z
" style="stroke:#000000;"/>
    <path clip-path="url(#pf024d1df6e)" d="M 192.916153 167.820708 
L 195.336923 172.450875 
L 192.500603 172.455154 
z
" style="stroke:#000000;"/>
    <path clip-path="url(#pf024d1df6e)" d="M 196.43822 191.012013 
L 192.916153 186.465504 
L 195.752048 186.481394 
z
" style="stroke:#000000;"/>
    <path clip-path="url(#pf024d1df6e)" d="M 190.886721 172.15131 
L 192.500603 172.455154 
L 192.361504 177.143932 
z
" style="stroke:#000000;"/>
    <path clip-path="url(#pf024d1df6e)" d="M 192.500603 181.832295 
L 190.886721 182.140945 
L 192.361504 177.143932 
z
" style="stroke:#000000;"/>
    <path clip-path="url(#pf024d1df6e)" d="M 192.361504 177.143932 
L 195.336923 181.841519 
L 192.500603 181.832295 
z
" style="stroke:#000000;"/>
    <path clip-path="url(#pf024d1df6e)" d="M 192.500603 172.455154 
L 195.197967 177.146405 
L 192.361504 177.143932 
z
" style="stroke:#000000;"/>
    <path clip-path="url(#pf024d1df6e)" d="M 193.075721 196.54162 
L 194.899509 191.919215 
L 192.062741 191.895491 
z
" style="stroke:#000000;"/>
    <path clip-path="url(#pf024d1df6e)" d="M 195.336923 172.450875 
L 192.916153 167.820708 
L 195.752048 167.809759 
z
" style="stroke:#000000;"/>
    <path clip-path="url(#pf024d1df6e)" d="M 194.899509 191.919215 
L 193.075721 196.54162 
L 195.911452 196.57201 
z
" style="stroke:#000000;"/>
    <path clip-path="url(#pf024d1df6e)" d="M 190.886721 182.140945 
L 192.500603 181.832295 
L 191.330034 187.076566 
z
" style="stroke:#000000;"/>
    <path clip-path="url(#pf024d1df6e)" d="M 192.500603 172.455154 
L 190.886721 172.15131 
L 191.330034 167.214369 
z
" style="stroke:#000000;"/>
    <path clip-path="url(#pf024d1df6e)" d="M 195.752048 186.481394 
L 192.500603 181.832295 
L 195.336923 181.841519 
z
" style="stroke:#000000;"/>
    <path clip-path="url(#pf024d1df6e)" d="M 195.197967 177.146405 
L 192.500603 172.455154 
L 195.336923 172.450875 
z
" style="stroke:#000000;"/>
    <path clip-path="url(#pf024d1df6e)" d="M 190.738336 177.146349 
L 192.361504 177.143932 
L 190.886721 182.140945 
z
" style="stroke:#000000;"/>
    <path clip-path="url(#pf024d1df6e)" d="M 192.361504 177.143932 
L 190.738336 177.146349 
L 190.886721 172.15131 
z
" style="stroke:#000000;"/>
    <path clip-path="url(#pf024d1df6e)" d="M 195.336923 181.841519 
L 192.361504 177.143932 
L 195.197967 177.146405 
z
" style="stroke:#000000;"/>
    <path clip-path="url(#pf024d1df6e)" d="M 195.911452 157.718666 
L 192.062741 162.393262 
L 194.899509 162.374486 
z
" style="stroke:#000000;"/>
    <path clip-path="url(#pf024d1df6e)" d="M 191.330034 167.214369 
L 194.899509 162.374486 
L 192.062741 162.393262 
z
" style="stroke:#000000;"/>
    <path clip-path="url(#pf024d1df6e)" d="M 194.899509 162.374486 
L 196.43822 163.277088 
L 195.911452 157.718666 
z
" style="stroke:#000000;"/>
    <path clip-path="url(#pf024d1df6e)" d="M 196.43822 191.012013 
L 194.899509 191.919215 
L 195.911452 196.57201 
z
" style="stroke:#000000;"/>
    <path clip-path="url(#pf024d1df6e)" d="M 196.43822 163.277088 
L 194.899509 162.374486 
L 195.752048 167.809759 
z
" style="stroke:#000000;"/>
    <path clip-path="url(#pf024d1df6e)" d="M 194.899509 191.919215 
L 196.43822 191.012013 
L 195.752048 186.481394 
z
" style="stroke:#000000;"/>
    <path clip-path="url(#pf024d1df6e)" d="M 192.062741 191.895491 
L 194.16755 187.093359 
L 191.330034 187.076566 
z
" style="stroke:#000000;"/>
    <path clip-path="url(#pf024d1df6e)" d="M 192.631589 146.607787 
L 188.566991 156.082243 
L 191.2799 147.171098 
z
" style="stroke:#000000;"/>
    <path clip-path="url(#pf024d1df6e)" d="M 191.2799 147.171098 
L 188.566991 141.718148 
L 192.631589 146.607787 
z
" style="stroke:#000000;"/>
    <path clip-path="url(#pf024d1df6e)" d="M 194.16755 187.093359 
L 192.062741 191.895491 
L 194.899509 191.919215 
z
" style="stroke:#000000;"/>
    <path clip-path="url(#pf024d1df6e)" d="M 190.886721 172.15131 
L 194.16755 167.202531 
L 191.330034 167.214369 
z
" style="stroke:#000000;"/>
    <path clip-path="url(#pf024d1df6e)" d="M 195.752048 167.809759 
L 194.16755 167.202531 
L 195.336923 172.450875 
z
" style="stroke:#000000;"/>
    <path clip-path="url(#pf024d1df6e)" d="M 194.16755 187.093359 
L 195.752048 186.481394 
L 195.336923 181.841519 
z
" style="stroke:#000000;"/>
    <path clip-path="url(#pf024d1df6e)" d="M 191.330034 187.076566 
L 193.72469 182.150627 
L 190.886721 182.140945 
z
" style="stroke:#000000;"/>
    <path clip-path="url(#pf024d1df6e)" d="M 194.899509 162.374486 
L 191.330034 167.214369 
L 194.16755 167.202531 
z
" style="stroke:#000000;"/>
    <path clip-path="url(#pf024d1df6e)" d="M 194.16755 167.202531 
L 195.752048 167.809759 
L 194.899509 162.374486 
z
" style="stroke:#000000;"/>
    <path clip-path="url(#pf024d1df6e)" d="M 195.752048 186.481394 
L 194.16755 187.093359 
L 194.899509 191.919215 
z
" style="stroke:#000000;"/>
    <path clip-path="url(#pf024d1df6e)" d="M 190.738336 177.146349 
L 193.72469 172.146586 
L 190.886721 172.15131 
z
" style="stroke:#000000;"/>
    <path clip-path="url(#pf024d1df6e)" d="M 193.72469 182.150627 
L 195.336923 181.841519 
L 195.197967 177.146405 
z
" style="stroke:#000000;"/>
    <path clip-path="url(#pf024d1df6e)" d="M 195.336923 172.450875 
L 193.72469 172.146586 
L 195.197967 177.146405 
z
" style="stroke:#000000;"/>
    <path clip-path="url(#pf024d1df6e)" d="M 190.886721 182.140945 
L 193.576457 177.148828 
L 190.738336 177.146349 
z
" style="stroke:#000000;"/>
    <path clip-path="url(#pf024d1df6e)" d="M 192.631589 146.607787 
L 191.407318 141.66944 
L 195.467775 146.566292 
z
" style="stroke:#000000;"/>
    <path clip-path="url(#pf024d1df6e)" d="M 191.407318 160.849241 
L 192.631589 146.607787 
L 195.467775 146.566292 
z
" style="stroke:#000000;"/>
    <path clip-path="url(#pf024d1df6e)" d="M 193.72469 182.150627 
L 191.330034 187.076566 
L 194.16755 187.093359 
z
" style="stroke:#000000;"/>
    <path clip-path="url(#pf024d1df6e)" d="M 194.16755 167.202531 
L 190.886721 172.15131 
L 193.72469 172.146586 
z
" style="stroke:#000000;"/>
    <path clip-path="url(#pf024d1df6e)" d="M 188.566991 156.082243 
L 192.631589 146.607787 
L 188.566991 160.870274 
z
" style="stroke:#000000;"/>
    <path clip-path="url(#pf024d1df6e)" d="M 193.72469 172.146586 
L 195.336923 172.450875 
L 194.16755 167.202531 
z
" style="stroke:#000000;"/>
    <path clip-path="url(#pf024d1df6e)" d="M 195.336923 181.841519 
L 193.72469 182.150627 
L 194.16755 187.093359 
z
" style="stroke:#000000;"/>
    <path clip-path="url(#pf024d1df6e)" d="M 194.117468 147.130366 
L 188.566991 144.112164 
L 191.2799 147.171098 
z
" style="stroke:#000000;"/>
    <path clip-path="url(#pf024d1df6e)" d="M 188.566991 156.082243 
L 194.117468 147.130366 
L 191.2799 147.171098 
z
" style="stroke:#000000;"/>
    <path clip-path="url(#pf024d1df6e)" d="M 193.576457 177.148828 
L 190.886721 182.140945 
L 193.72469 182.150627 
z
" style="stroke:#000000;"/>
    <path clip-path="url(#pf024d1df6e)" d="M 193.72469 172.146586 
L 190.738336 177.146349 
L 193.576457 177.148828 
z
" style="stroke:#000000;"/>
    <path clip-path="url(#pf024d1df6e)" d="M 193.576457 177.148828 
L 195.197967 177.146405 
L 193.72469 172.146586 
z
" style="stroke:#000000;"/>
    <path clip-path="url(#pf024d1df6e)" d="M 195.197967 177.146405 
L 193.576457 177.148828 
L 193.72469 182.150627 
z
" style="stroke:#000000;"/>
    <path clip-path="url(#pf024d1df6e)" d="M 188.566991 141.718148 
L 191.2799 147.171098 
L 188.566991 144.112164 
z
" style="stroke:#000000;"/>
    <path clip-path="url(#pf024d1df6e)" d="M 191.407318 141.66944 
L 192.631589 146.607787 
L 188.566991 141.718148 
z
" style="stroke:#000000;"/>
    <path clip-path="url(#pf024d1df6e)" d="M 192.631589 146.607787 
L 191.407318 160.849241 
L 188.566991 160.870274 
z
" style="stroke:#000000;"/>
    <path clip-path="url(#pf024d1df6e)" d="M 191.407318 141.66944 
L 194.117468 147.130366 
L 195.467775 146.566292 
z
" style="stroke:#000000;"/>
    <path clip-path="url(#pf024d1df6e)" d="M 191.407318 156.05429 
L 195.467775 146.566292 
L 194.117468 147.130366 
z
" style="stroke:#000000;"/>
    <path clip-path="url(#pf024d1df6e)" d="M 188.566991 144.112164 
L 194.117468 147.130366 
L 191.407318 144.066915 
z
" style="stroke:#000000;"/>
    <path clip-path="url(#pf024d1df6e)" d="M 194.117468 147.130366 
L 188.566991 156.082243 
L 191.407318 156.05429 
z
" style="stroke:#000000;"/>
    <path clip-path="url(#pf024d1df6e)" d="M 191.407318 156.05429 
L 191.407318 160.849241 
L 195.467775 146.566292 
z
" style="stroke:#000000;"/>
    <path clip-path="url(#pf024d1df6e)" d="M 191.407318 141.66944 
L 191.407318 144.066915 
L 194.117468 147.130366 
z
" style="stroke:#000000;"/>
    <path clip-path="url(#pf024d1df6e)" d="M 185.841299 147.037956 
L 188.566991 141.718148 
L 188.566991 144.112164 
z
" style="stroke:#000000;"/>
    <path clip-path="url(#pf024d1df6e)" d="M 184.47363 146.403853 
L 188.566991 156.082243 
L 188.566991 160.870274 
z
" style="stroke:#000000;"/>
    <path clip-path="url(#pf024d1df6e)" d="M 191.407318 144.066915 
L 185.841299 147.037956 
L 188.566991 144.112164 
z
" style="stroke:#000000;"/>
    <path clip-path="url(#pf024d1df6e)" d="M 185.841299 147.037956 
L 191.407318 156.05429 
L 188.566991 156.082243 
z
" style="stroke:#000000;"/>
    <path clip-path="url(#pf024d1df6e)" d="M 188.566991 156.082243 
L 184.47363 146.403853 
L 185.841299 147.037956 
z
" style="stroke:#000000;"/>
    <path clip-path="url(#pf024d1df6e)" d="M 188.566991 141.718148 
L 185.841299 147.037956 
L 184.47363 146.403853 
z
" style="stroke:#000000;"/>
    <path clip-path="url(#pf024d1df6e)" d="M 188.566991 141.718148 
L 187.318086 146.361767 
L 191.407318 141.66944 
z
" style="stroke:#000000;"/>
    <path clip-path="url(#pf024d1df6e)" d="M 187.318086 146.361767 
L 188.566991 160.870274 
L 191.407318 160.849241 
z
" style="stroke:#000000;"/>
    <path clip-path="url(#pf024d1df6e)" d="M 191.407318 141.66944 
L 188.684379 146.996839 
L 191.407318 144.066915 
z
" style="stroke:#000000;"/>
    <path clip-path="url(#pf024d1df6e)" d="M 184.747422 177.155269 
L 186.387464 177.152827 
L 186.23792 182.167978 
z
" style="stroke:#000000;"/>
    <path clip-path="url(#pf024d1df6e)" d="M 186.387464 177.152827 
L 184.747422 177.155269 
L 186.23792 172.138121 
z
" style="stroke:#000000;"/>
    <path clip-path="url(#pf024d1df6e)" d="M 186.23792 172.138121 
L 189.229995 177.155325 
L 186.387464 177.152827 
z
" style="stroke:#000000;"/>
    <path clip-path="url(#pf024d1df6e)" d="M 186.387464 177.152827 
L 189.080602 182.177738 
L 186.23792 182.167978 
z
" style="stroke:#000000;"/>
    <path clip-path="url(#pf024d1df6e)" d="M 185.841299 147.037956 
L 191.407318 144.066915 
L 188.684379 146.996839 
z
" style="stroke:#000000;"/>
    <path clip-path="url(#pf024d1df6e)" d="M 191.407318 156.05429 
L 185.841299 147.037956 
L 188.684379 146.996839 
z
" style="stroke:#000000;"/>
    <path clip-path="url(#pf024d1df6e)" d="M 184.606446 181.87615 
L 186.23792 182.167978 
L 185.790687 187.132478 
z
" style="stroke:#000000;"/>
    <path clip-path="url(#pf024d1df6e)" d="M 186.23792 172.138121 
L 184.606446 172.434807 
L 185.790687 167.174953 
z
" style="stroke:#000000;"/>
    <path clip-path="url(#pf024d1df6e)" d="M 185.790687 167.174953 
L 189.080602 172.133359 
L 186.23792 172.138121 
z
" style="stroke:#000000;"/>
    <path clip-path="url(#pf024d1df6e)" d="M 191.407318 156.05429 
L 187.318086 146.361767 
L 191.407318 160.849241 
z
" style="stroke:#000000;"/>
    <path clip-path="url(#pf024d1df6e)" d="M 186.23792 182.167978 
L 188.633819 187.149432 
L 185.790687 187.132478 
z
" style="stroke:#000000;"/>
    <path clip-path="url(#pf024d1df6e)" d="M 187.318086 146.361767 
L 188.566991 141.718148 
L 184.47363 146.403853 
z
" style="stroke:#000000;"/>
    <path clip-path="url(#pf024d1df6e)" d="M 188.566991 160.870274 
L 187.318086 146.361767 
L 184.47363 146.403853 
z
" style="stroke:#000000;"/>
    <path clip-path="url(#pf024d1df6e)" d="M 189.080602 182.177738 
L 186.387464 177.152827 
L 189.229995 177.155325 
z
" style="stroke:#000000;"/>
    <path clip-path="url(#pf024d1df6e)" d="M 184.606446 172.434807 
L 186.23792 172.138121 
L 184.747422 177.155269 
z
" style="stroke:#000000;"/>
    <path clip-path="url(#pf024d1df6e)" d="M 186.23792 182.167978 
L 184.606446 181.87615 
L 184.747422 177.155269 
z
" style="stroke:#000000;"/>
    <path clip-path="url(#pf024d1df6e)" d="M 189.229995 177.155325 
L 186.23792 172.138121 
L 189.080602 172.133359 
z
" style="stroke:#000000;"/>
    <path clip-path="url(#pf024d1df6e)" d="M 184.184882 186.549126 
L 185.790687 187.132478 
L 185.049987 191.995619 
z
" style="stroke:#000000;"/>
    <path clip-path="url(#pf024d1df6e)" d="M 185.790687 167.174953 
L 184.184882 167.763086 
L 185.049987 162.314017 
z
" style="stroke:#000000;"/>
    <path clip-path="url(#pf024d1df6e)" d="M 185.049987 162.314017 
L 188.633819 167.163 
L 185.790687 167.174953 
z
" style="stroke:#000000;"/>
    <path clip-path="url(#pf024d1df6e)" d="M 188.633819 187.149432 
L 186.23792 182.167978 
L 189.080602 182.177738 
z
" style="stroke:#000000;"/>
    <path clip-path="url(#pf024d1df6e)" d="M 185.790687 187.132478 
L 184.184882 186.549126 
L 184.606446 181.87615 
z
" style="stroke:#000000;"/>
    <path clip-path="url(#pf024d1df6e)" d="M 184.184882 167.763086 
L 185.790687 167.174953 
L 184.606446 172.434807 
z
" style="stroke:#000000;"/>
    <path clip-path="url(#pf024d1df6e)" d="M 189.080602 172.133359 
L 185.790687 167.174953 
L 188.633819 167.163 
z
" style="stroke:#000000;"/>
    <path clip-path="url(#pf024d1df6e)" d="M 185.790687 187.132478 
L 187.893864 192.019633 
L 185.049987 191.995619 
z
" style="stroke:#000000;"/>
    <path clip-path="url(#pf024d1df6e)" d="M 188.684379 146.996839 
L 191.407318 141.66944 
L 187.318086 146.361767 
z
" style="stroke:#000000;"/>
    <path clip-path="url(#pf024d1df6e)" d="M 187.318086 146.361767 
L 191.407318 156.05429 
L 188.684379 146.996839 
z
" style="stroke:#000000;"/>
    <path clip-path="url(#pf024d1df6e)" d="M 187.893864 192.019633 
L 185.790687 187.132478 
L 188.633819 187.149432 
z
" style="stroke:#000000;"/>
    <path clip-path="url(#pf024d1df6e)" d="M 185.049987 191.995619 
L 183.486724 191.126302 
L 184.184882 186.549126 
z
" style="stroke:#000000;"/>
    <path clip-path="url(#pf024d1df6e)" d="M 183.486724 163.18799 
L 185.049987 162.314017 
L 184.184882 167.763086 
z
" style="stroke:#000000;"/>
    <path clip-path="url(#pf024d1df6e)" d="M 183.486724 191.126302 
L 185.049987 191.995619 
L 184.022842 196.707488 
z
" style="stroke:#000000;"/>
    <path clip-path="url(#pf024d1df6e)" d="M 185.049987 162.314017 
L 183.486724 163.18799 
L 184.022842 157.605207 
z
" style="stroke:#000000;"/>
    <path clip-path="url(#pf024d1df6e)" d="M 188.633819 167.163 
L 185.049987 162.314017 
L 187.893864 162.295012 
z
" style="stroke:#000000;"/>
    <path clip-path="url(#pf024d1df6e)" d="M 184.022842 157.605207 
L 187.893864 162.295012 
L 185.049987 162.314017 
z
" style="stroke:#000000;"/>
    <path clip-path="url(#pf024d1df6e)" d="M 184.606446 181.87615 
L 187.591603 177.157774 
L 184.747422 177.155269 
z
" style="stroke:#000000;"/>
    <path clip-path="url(#pf024d1df6e)" d="M 187.591603 177.157774 
L 189.229995 177.155325 
L 189.080602 172.133359 
z
" style="stroke:#000000;"/>
    <path clip-path="url(#pf024d1df6e)" d="M 189.229995 177.155325 
L 187.591603 177.157774 
L 189.080602 182.177738 
z
" style="stroke:#000000;"/>
    <path clip-path="url(#pf024d1df6e)" d="M 184.747422 177.155269 
L 187.450769 172.430468 
L 184.606446 172.434807 
z
" style="stroke:#000000;"/>
    <path clip-path="url(#pf024d1df6e)" d="M 184.184882 186.549126 
L 187.450769 181.885501 
L 184.606446 181.87615 
z
" style="stroke:#000000;"/>
    <path clip-path="url(#pf024d1df6e)" d="M 187.450769 172.430468 
L 189.080602 172.133359 
L 188.633819 167.163 
z
" style="stroke:#000000;"/>
    <path clip-path="url(#pf024d1df6e)" d="M 189.080602 182.177738 
L 187.450769 181.885501 
L 188.633819 187.149432 
z
" style="stroke:#000000;"/>
    <path clip-path="url(#pf024d1df6e)" d="M 185.049987 191.995619 
L 186.867749 196.738358 
L 184.022842 196.707488 
z
" style="stroke:#000000;"/>
    <path clip-path="url(#pf024d1df6e)" d="M 184.606446 172.434807 
L 187.029627 167.75197 
L 184.184882 167.763086 
z
" style="stroke:#000000;"/>
    <path clip-path="url(#pf024d1df6e)" d="M 186.867749 196.738358 
L 185.049987 191.995619 
L 187.893864 192.019633 
z
" style="stroke:#000000;"/>
    <path clip-path="url(#pf024d1df6e)" d="M 187.450769 172.430468 
L 184.747422 177.155269 
L 187.591603 177.157774 
z
" style="stroke:#000000;"/>
    <path clip-path="url(#pf024d1df6e)" d="M 187.591603 177.157774 
L 184.606446 181.87615 
L 187.450769 181.885501 
z
" style="stroke:#000000;"/>
    <path clip-path="url(#pf024d1df6e)" d="M 187.450769 181.885501 
L 189.080602 182.177738 
L 187.591603 177.157774 
z
" style="stroke:#000000;"/>
    <path clip-path="url(#pf024d1df6e)" d="M 189.080602 172.133359 
L 187.450769 172.430468 
L 187.591603 177.157774 
z
" style="stroke:#000000;"/>
    <path clip-path="url(#pf024d1df6e)" d="M 183.486724 191.126302 
L 187.029627 186.565258 
L 184.184882 186.549126 
z
" style="stroke:#000000;"/>
    <path clip-path="url(#pf024d1df6e)" d="M 187.029627 167.75197 
L 184.606446 172.434807 
L 187.450769 172.430468 
z
" style="stroke:#000000;"/>
    <path clip-path="url(#pf024d1df6e)" d="M 184.022842 196.707488 
L 182.518647 195.560487 
L 183.486724 191.126302 
z
" style="stroke:#000000;"/>
    <path clip-path="url(#pf024d1df6e)" d="M 182.518647 158.756687 
L 184.022842 157.605207 
L 183.486724 163.18799 
z
" style="stroke:#000000;"/>
    <path clip-path="url(#pf024d1df6e)" d="M 187.029627 167.75197 
L 188.633819 167.163 
L 187.893864 162.295012 
z
" style="stroke:#000000;"/>
    <path clip-path="url(#pf024d1df6e)" d="M 188.633819 187.149432 
L 187.029627 186.565258 
L 187.893864 192.019633 
z
" style="stroke:#000000;"/>
    <path clip-path="url(#pf024d1df6e)" d="M 187.893864 162.295012 
L 184.022842 157.605207 
L 186.867749 157.579354 
z
" style="stroke:#000000;"/>
    <path clip-path="url(#pf024d1df6e)" d="M 187.450769 181.885501 
L 184.184882 186.549126 
L 187.029627 186.565258 
z
" style="stroke:#000000;"/>
    <path clip-path="url(#pf024d1df6e)" d="M 188.633819 167.163 
L 187.029627 167.75197 
L 187.450769 172.430468 
z
" style="stroke:#000000;"/>
    <path clip-path="url(#pf024d1df6e)" d="M 187.029627 186.565258 
L 188.633819 187.149432 
L 187.450769 181.885501 
z
" style="stroke:#000000;"/>
    <path clip-path="url(#pf024d1df6e)" d="M 184.184882 167.763086 
L 186.332169 163.170227 
L 183.486724 163.18799 
z
" style="stroke:#000000;"/>
    <path clip-path="url(#pf024d1df6e)" d="M 182.518647 195.560487 
L 184.022842 196.707488 
L 182.718993 201.21946 
z
" style="stroke:#000000;"/>
    <path clip-path="url(#pf024d1df6e)" d="M 184.022842 157.605207 
L 182.518647 158.756687 
L 182.718993 153.097118 
z
" style="stroke:#000000;"/>
    <path clip-path="url(#pf024d1df6e)" d="M 182.718993 153.097118 
L 186.867749 157.579354 
L 184.022842 157.605207 
z
" style="stroke:#000000;"/>
    <path clip-path="url(#pf024d1df6e)" d="M 186.332169 163.170227 
L 184.184882 167.763086 
L 187.029627 167.75197 
z
" style="stroke:#000000;"/>
    <path clip-path="url(#pf024d1df6e)" d="M 182.518647 195.560487 
L 186.332169 191.149086 
L 183.486724 191.126302 
z
" style="stroke:#000000;"/>
    <path clip-path="url(#pf024d1df6e)" d="M 187.029627 186.565258 
L 183.486724 191.126302 
L 186.332169 191.149086 
z
" style="stroke:#000000;"/>
    <path clip-path="url(#pf024d1df6e)" d="M 184.022842 196.707488 
L 185.565205 201.256917 
L 182.718993 201.21946 
z
" style="stroke:#000000;"/>
    <path clip-path="url(#pf024d1df6e)" d="M 187.893864 162.295012 
L 186.332169 163.170227 
L 187.029627 167.75197 
z
" style="stroke:#000000;"/>
    <path clip-path="url(#pf024d1df6e)" d="M 186.332169 191.149086 
L 187.893864 192.019633 
L 187.029627 186.565258 
z
" style="stroke:#000000;"/>
    <path clip-path="url(#pf024d1df6e)" d="M 186.332169 163.170227 
L 187.893864 162.295012 
L 186.867749 157.579354 
z
" style="stroke:#000000;"/>
    <path clip-path="url(#pf024d1df6e)" d="M 187.893864 192.019633 
L 186.332169 191.149086 
L 186.867749 196.738358 
z
" style="stroke:#000000;"/>
    <path clip-path="url(#pf024d1df6e)" d="M 185.565205 201.256917 
L 184.022842 196.707488 
L 186.867749 196.738358 
z
" style="stroke:#000000;"/>
    <path clip-path="url(#pf024d1df6e)" d="M 183.486724 163.18799 
L 185.36506 158.732473 
L 182.518647 158.756687 
z
" style="stroke:#000000;"/>
    <path clip-path="url(#pf024d1df6e)" d="M 182.718993 201.21946 
L 181.289945 199.805715 
L 182.518647 195.560487 
z
" style="stroke:#000000;"/>
    <path clip-path="url(#pf024d1df6e)" d="M 181.289945 154.515119 
L 182.718993 153.097118 
L 182.518647 158.756687 
z
" style="stroke:#000000;"/>
    <path clip-path="url(#pf024d1df6e)" d="M 185.36506 158.732473 
L 183.486724 163.18799 
L 186.332169 163.170227 
z
" style="stroke:#000000;"/>
    <path clip-path="url(#pf024d1df6e)" d="M 186.867749 157.579354 
L 182.718993 153.097118 
L 185.565205 153.064689 
z
" style="stroke:#000000;"/>
    <path clip-path="url(#pf024d1df6e)" d="M 181.150948 205.484311 
L 181.289945 199.805715 
L 182.718993 201.21946 
z
" style="stroke:#000000;"/>
    <path clip-path="url(#pf024d1df6e)" d="M 181.289945 154.515119 
L 181.150948 148.836936 
L 182.718993 153.097118 
z
" style="stroke:#000000;"/>
    <path clip-path="url(#pf024d1df6e)" d="M 186.332169 191.149086 
L 182.518647 195.560487 
L 185.36506 195.589731 
z
" style="stroke:#000000;"/>
    <path clip-path="url(#pf024d1df6e)" d="M 186.867749 157.579354 
L 185.36506 158.732473 
L 186.332169 163.170227 
z
" style="stroke:#000000;"/>
    <path clip-path="url(#pf024d1df6e)" d="M 185.36506 195.589731 
L 186.867749 196.738358 
L 186.332169 191.149086 
z
" style="stroke:#000000;"/>
    <path clip-path="url(#pf024d1df6e)" d="M 181.150948 148.836936 
L 185.565205 153.064689 
L 182.718993 153.097118 
z
" style="stroke:#000000;"/>
    <path clip-path="url(#pf024d1df6e)" d="M 181.289945 199.805715 
L 185.36506 195.589731 
L 182.518647 195.560487 
z
" style="stroke:#000000;"/>
    <path clip-path="url(#pf024d1df6e)" d="M 185.36506 158.732473 
L 186.867749 157.579354 
L 185.565205 153.064689 
z
" style="stroke:#000000;"/>
    <path clip-path="url(#pf024d1df6e)" d="M 186.867749 196.738358 
L 185.36506 195.589731 
L 185.565205 201.256917 
z
" style="stroke:#000000;"/>
    <path clip-path="url(#pf024d1df6e)" d="M 182.518647 158.756687 
L 184.137582 154.484712 
L 181.289945 154.515119 
z
" style="stroke:#000000;"/>
    <path clip-path="url(#pf024d1df6e)" d="M 182.718993 201.21946 
L 183.998724 205.528021 
L 181.150948 205.484311 
z
" style="stroke:#000000;"/>
    <path clip-path="url(#pf024d1df6e)" d="M 183.998724 205.528021 
L 182.718993 201.21946 
L 185.565205 201.256917 
z
" style="stroke:#000000;"/>
    <path clip-path="url(#pf024d1df6e)" d="M 184.137582 154.484712 
L 182.518647 158.756687 
L 185.36506 158.732473 
z
" style="stroke:#000000;"/>
    <path clip-path="url(#pf024d1df6e)" d="M 181.150948 205.484311 
L 179.812472 203.817635 
L 181.289945 199.805715 
z
" style="stroke:#000000;"/>
    <path clip-path="url(#pf024d1df6e)" d="M 179.812472 150.507598 
L 181.150948 148.836936 
L 181.289945 154.515119 
z
" style="stroke:#000000;"/>
    <path clip-path="url(#pf024d1df6e)" d="M 185.36506 195.589731 
L 181.289945 199.805715 
L 184.137582 199.841162 
z
" style="stroke:#000000;"/>
    <path clip-path="url(#pf024d1df6e)" d="M 185.565205 153.064689 
L 181.150948 148.836936 
L 183.998724 148.798268 
z
" style="stroke:#000000;"/>
    <path clip-path="url(#pf024d1df6e)" d="M 185.565205 153.064689 
L 184.137582 154.484712 
L 185.36506 158.732473 
z
" style="stroke:#000000;"/>
    <path clip-path="url(#pf024d1df6e)" d="M 184.137582 199.841162 
L 185.565205 201.256917 
L 185.36506 195.589731 
z
" style="stroke:#000000;"/>
    <path clip-path="url(#pf024d1df6e)" d="M 179.812472 203.817635 
L 184.137582 199.841162 
L 181.289945 199.805715 
z
" style="stroke:#000000;"/>
    <path clip-path="url(#pf024d1df6e)" d="M 179.333831 209.457273 
L 179.812472 203.817635 
L 181.150948 205.484311 
z
" style="stroke:#000000;"/>
    <path clip-path="url(#pf024d1df6e)" d="M 179.812472 150.507598 
L 179.333831 144.869385 
L 181.150948 148.836936 
z
" style="stroke:#000000;"/>
    <path clip-path="url(#pf024d1df6e)" d="M 183.998724 148.798268 
L 184.137582 154.484712 
L 185.565205 153.064689 
z
" style="stroke:#000000;"/>
    <path clip-path="url(#pf024d1df6e)" d="M 184.137582 199.841162 
L 183.998724 205.528021 
L 185.565205 201.256917 
z
" style="stroke:#000000;"/>
    <path clip-path="url(#pf024d1df6e)" d="M 179.333831 144.869385 
L 183.998724 148.798268 
L 181.150948 148.836936 
z
" style="stroke:#000000;"/>
    <path clip-path="url(#pf024d1df6e)" d="M 181.289945 154.515119 
L 182.661577 150.471318 
L 179.812472 150.507598 
z
" style="stroke:#000000;"/>
    <path clip-path="url(#pf024d1df6e)" d="M 182.661577 150.471318 
L 181.289945 154.515119 
L 184.137582 154.484712 
z
" style="stroke:#000000;"/>
    <path clip-path="url(#pf024d1df6e)" d="M 182.183411 209.506838 
L 181.150948 205.484311 
L 183.998724 205.528021 
z
" style="stroke:#000000;"/>
    <path clip-path="url(#pf024d1df6e)" d="M 181.150948 205.484311 
L 182.183411 209.506838 
L 179.333831 209.457273 
z
" style="stroke:#000000;"/>
    <path clip-path="url(#pf024d1df6e)" d="M 184.137582 199.841162 
L 179.812472 203.817635 
L 182.661577 203.858969 
z
" style="stroke:#000000;"/>
    <path clip-path="url(#pf024d1df6e)" d="M 179.333831 209.457273 
L 178.1006 207.553571 
L 179.812472 203.817635 
z
" style="stroke:#000000;"/>
    <path clip-path="url(#pf024d1df6e)" d="M 178.1006 146.77676 
L 179.333831 144.869385 
L 179.812472 150.507598 
z
" style="stroke:#000000;"/>
    <path clip-path="url(#pf024d1df6e)" d="M 183.998724 148.798268 
L 182.661577 150.471318 
L 184.137582 154.484712 
z
" style="stroke:#000000;"/>
    <path clip-path="url(#pf024d1df6e)" d="M 182.661577 203.858969 
L 183.998724 205.528021 
L 184.137582 199.841162 
z
" style="stroke:#000000;"/>
    <path clip-path="url(#pf024d1df6e)" d="M 183.998724 148.798268 
L 179.333831 144.869385 
L 182.183411 144.824878 
z
" style="stroke:#000000;"/>
    <path clip-path="url(#pf024d1df6e)" d="M 178.1006 207.553571 
L 182.661577 203.858969 
L 179.812472 203.817635 
z
" style="stroke:#000000;"/>
    <path clip-path="url(#pf024d1df6e)" d="M 178.310476 143.054906 
L 182.183411 144.824878 
L 179.333831 144.869385 
z
" style="stroke:#000000;"/>
    <path clip-path="url(#pf024d1df6e)" d="M 177.586612 210.653212 
L 179.333831 209.457273 
L 178.310476 211.274799 
z
" style="stroke:#000000;"/>
    <path clip-path="url(#pf024d1df6e)" d="M 179.333831 144.869385 
L 177.586612 143.678649 
L 178.310476 143.054906 
z
" style="stroke:#000000;"/>
    <path clip-path="url(#pf024d1df6e)" d="M 182.183411 144.824878 
L 182.661577 150.471318 
L 183.998724 148.798268 
z
" style="stroke:#000000;"/>
    <path clip-path="url(#pf024d1df6e)" d="M 182.661577 203.858969 
L 182.183411 209.506838 
L 183.998724 205.528021 
z
" style="stroke:#000000;"/>
    <path clip-path="url(#pf024d1df6e)" d="M 179.333831 209.457273 
L 177.586612 210.653212 
L 178.1006 207.553571 
z
" style="stroke:#000000;"/>
    <path clip-path="url(#pf024d1df6e)" d="M 177.586612 143.678649 
L 179.333831 144.869385 
L 178.1006 146.77676 
z
" style="stroke:#000000;"/>
    <path clip-path="url(#pf024d1df6e)" d="M 180.9514 146.734987 
L 179.812472 150.507598 
L 182.661577 150.471318 
z
" style="stroke:#000000;"/>
    <path clip-path="url(#pf024d1df6e)" d="M 179.812472 150.507598 
L 180.9514 146.734987 
L 178.1006 146.77676 
z
" style="stroke:#000000;"/>
    <path clip-path="url(#pf024d1df6e)" d="M 179.333831 209.457273 
L 181.161069 211.327057 
L 178.310476 211.274799 
z
" style="stroke:#000000;"/>
    <path clip-path="url(#pf024d1df6e)" d="M 181.161069 211.327057 
L 179.333831 209.457273 
L 182.183411 209.506838 
z
" style="stroke:#000000;"/>
    <path clip-path="url(#pf024d1df6e)" d="M 182.661577 203.858969 
L 178.1006 207.553571 
L 180.9514 207.600412 
z
" style="stroke:#000000;"/>
    <path clip-path="url(#pf024d1df6e)" d="M 182.183411 144.824878 
L 178.310476 143.054906 
L 181.161069 143.007715 
z
" style="stroke:#000000;"/>
    <path clip-path="url(#pf024d1df6e)" d="M 178.1006 207.553571 
L 177.586612 210.653212 
L 176.825381 209.8139 
z
" style="stroke:#000000;"/>
    <path clip-path="url(#pf024d1df6e)" d="M 177.586612 143.678649 
L 178.1006 146.77676 
L 176.825381 144.520228 
z
" style="stroke:#000000;"/>
    <path clip-path="url(#pf024d1df6e)" d="M 181.161069 211.327057 
L 177.586612 210.653212 
L 178.310476 211.274799 
z
" style="stroke:#000000;"/>
    <path clip-path="url(#pf024d1df6e)" d="M 182.183411 144.824878 
L 180.9514 146.734987 
L 182.661577 150.471318 
z
" style="stroke:#000000;"/>
    <path clip-path="url(#pf024d1df6e)" d="M 180.9514 207.600412 
L 182.183411 209.506838 
L 182.661577 203.858969 
z
" style="stroke:#000000;"/>
    <path clip-path="url(#pf024d1df6e)" d="M 180.43792 143.632338 
L 178.310476 143.054906 
L 177.586612 143.678649 
z
" style="stroke:#000000;"/>
    <path clip-path="url(#pf024d1df6e)" d="M 180.9514 146.734987 
L 176.825381 144.520228 
L 178.1006 146.77676 
z
" style="stroke:#000000;"/>
    <path clip-path="url(#pf024d1df6e)" d="M 178.310476 143.054906 
L 180.43792 143.632338 
L 181.161069 143.007715 
z
" style="stroke:#000000;"/>
    <path clip-path="url(#pf024d1df6e)" d="M 180.43792 210.704596 
L 176.825381 209.8139 
L 177.586612 210.653212 
z
" style="stroke:#000000;"/>
    <path clip-path="url(#pf024d1df6e)" d="M 180.43792 143.632338 
L 182.183411 144.824878 
L 181.161069 143.007715 
z
" style="stroke:#000000;"/>
    <path clip-path="url(#pf024d1df6e)" d="M 182.183411 209.506838 
L 180.43792 210.704596 
L 181.161069 211.327057 
z
" style="stroke:#000000;"/>
    <path clip-path="url(#pf024d1df6e)" d="M 177.586612 210.653212 
L 181.161069 211.327057 
L 180.43792 210.704596 
z
" style="stroke:#000000;"/>
    <path clip-path="url(#pf024d1df6e)" d="M 179.677438 209.864092 
L 178.1006 207.553571 
L 176.825381 209.8139 
z
" style="stroke:#000000;"/>
    <path clip-path="url(#pf024d1df6e)" d="M 182.183411 144.824878 
L 180.43792 143.632338 
L 180.9514 146.734987 
z
" style="stroke:#000000;"/>
    <path clip-path="url(#pf024d1df6e)" d="M 180.43792 210.704596 
L 182.183411 209.506838 
L 180.9514 207.600412 
z
" style="stroke:#000000;"/>
    <path clip-path="url(#pf024d1df6e)" d="M 178.1006 207.553571 
L 179.677438 209.864092 
L 180.9514 207.600412 
z
" style="stroke:#000000;"/>
    <path clip-path="url(#pf024d1df6e)" d="M 179.677438 144.475116 
L 177.586612 143.678649 
L 176.825381 144.520228 
z
" style="stroke:#000000;"/>
    <path clip-path="url(#pf024d1df6e)" d="M 177.586612 143.678649 
L 179.677438 144.475116 
L 180.43792 143.632338 
z
" style="stroke:#000000;"/>
    <path clip-path="url(#pf024d1df6e)" d="M 176.825381 144.520228 
L 180.9514 146.734987 
L 179.677438 144.475116 
z
" style="stroke:#000000;"/>
    <path clip-path="url(#pf024d1df6e)" d="M 176.825381 209.8139 
L 180.43792 210.704596 
L 179.677438 209.864092 
z
" style="stroke:#000000;"/>
    <path clip-path="url(#pf024d1df6e)" d="M 180.9514 146.734987 
L 180.43792 143.632338 
L 179.677438 144.475116 
z
" style="stroke:#000000;"/>
    <path clip-path="url(#pf024d1df6e)" d="M 180.43792 210.704596 
L 180.9514 207.600412 
L 179.677438 209.864092 
z
" style="stroke:#000000;"/>
   </g>
  </g>
 </g>
 <defs>
  <clipPath id="pf024d1df6e">
   <rect height="271.8" width="279" x="45" y="43.2"/>
  </clipPath>
 </defs>
</svg>
