<?xml version="1.0" encoding="utf-8" standalone="no"?>
<!DOCTYPE svg PUBLIC "-//W3C//DTD SVG 1.1//EN"
  "http://www.w3.org/Graphics/SVG/1.1/DTD/svg11.dtd">
<!-- Created with matplotlib (https://matplotlib.org/) -->
<svg height="360pt" version="1.1" viewBox="0 0 360 360" width="360pt" xmlns="http://www.w3.org/2000/svg" xmlns:xlink="http://www.w3.org/1999/xlink">
 <defs>
  <style type="text/css">
*{stroke-linecap:butt;stroke-linejoin:round;}
  </style>
 </defs>
 <g id="figure_1">
  <g id="patch_1">
   <path d="M 45 315 
L 324 315 
L 324 43.2 
L 45 43.2 
z
" style="fill:#ffffff;"/>
  </g>
  <g id="axes_1">
   <g id="Poly3DCollection_1">
    <path clip-path="url(#p0466abfc75)" d="M 172.50517 210.906652 
L 171.854839 214.317548 
L 170.893768 213.336202 
z
" style="stroke:#000000;"/>
    <path clip-path="url(#p0466abfc75)" d="M 171.854839 139.944162 
L 172.50517 143.356544 
L 170.893768 140.923313 
z
" style="stroke:#000000;"/>
    <path clip-path="url(#p0466abfc75)" d="M 168.024205 140.858408 
L 171.854839 139.944162 
L 170.893768 140.923313 
z
" style="stroke:#000000;"/>
    <path clip-path="url(#p0466abfc75)" d="M 168.024205 213.407512 
L 172.50517 210.906652 
L 170.893768 213.336202 
z
" style="stroke:#000000;"/>
    <path clip-path="url(#p0466abfc75)" d="M 168.985231 214.390752 
L 170.893768 213.336202 
L 171.854839 214.317548 
z
" style="stroke:#000000;"/>
    <path clip-path="url(#p0466abfc75)" d="M 174.070193 213.10198 
L 171.854839 214.317548 
L 172.50517 210.906652 
z
" style="stroke:#000000;"/>
    <path clip-path="url(#p0466abfc75)" d="M 171.854839 139.944162 
L 174.070193 141.164791 
L 172.50517 143.356544 
z
" style="stroke:#000000;"/>
    <path clip-path="url(#p0466abfc75)" d="M 171.854839 214.317548 
L 174.070193 213.10198 
L 172.771046 215.056817 
z
" style="stroke:#000000;"/>
    <path clip-path="url(#p0466abfc75)" d="M 174.070193 141.164791 
L 171.854839 139.944162 
L 172.771046 139.206985 
z
" style="stroke:#000000;"/>
    <path clip-path="url(#p0466abfc75)" d="M 169.635533 143.296151 
L 170.893768 140.923313 
L 172.50517 143.356544 
z
" style="stroke:#000000;"/>
    <path clip-path="url(#p0466abfc75)" d="M 170.893768 213.336202 
L 168.985231 214.390752 
L 168.024205 213.407512 
z
" style="stroke:#000000;"/>
    <path clip-path="url(#p0466abfc75)" d="M 168.985231 139.877372 
L 172.771046 139.206985 
L 171.854839 139.944162 
z
" style="stroke:#000000;"/>
    <path clip-path="url(#p0466abfc75)" d="M 170.893768 140.923313 
L 169.635533 143.296151 
L 168.024205 140.858408 
z
" style="stroke:#000000;"/>
    <path clip-path="url(#p0466abfc75)" d="M 169.901398 215.131458 
L 171.854839 214.317548 
L 172.771046 215.056817 
z
" style="stroke:#000000;"/>
    <path clip-path="url(#p0466abfc75)" d="M 171.854839 139.944162 
L 168.024205 140.858408 
L 168.985231 139.877372 
z
" style="stroke:#000000;"/>
    <path clip-path="url(#p0466abfc75)" d="M 174.070193 213.10198 
L 172.50517 210.906652 
L 174.679388 206.846412 
z
" style="stroke:#000000;"/>
    <path clip-path="url(#p0466abfc75)" d="M 172.50517 143.356544 
L 174.070193 141.164791 
L 174.679388 147.42175 
z
" style="stroke:#000000;"/>
    <path clip-path="url(#p0466abfc75)" d="M 172.50517 210.906652 
L 168.024205 213.407512 
L 169.635533 210.973464 
z
" style="stroke:#000000;"/>
    <path clip-path="url(#p0466abfc75)" d="M 171.854839 214.317548 
L 169.901398 215.131458 
L 168.985231 214.390752 
z
" style="stroke:#000000;"/>
    <path clip-path="url(#p0466abfc75)" d="M 174.070193 213.10198 
L 169.901398 215.131458 
L 172.771046 215.056817 
z
" style="stroke:#000000;"/>
    <path clip-path="url(#p0466abfc75)" d="M 174.679388 147.42175 
L 169.635533 143.296151 
L 172.50517 143.356544 
z
" style="stroke:#000000;"/>
    <path clip-path="url(#p0466abfc75)" d="M 172.771046 139.206985 
L 168.985231 139.877372 
L 169.901398 139.138767 
z
" style="stroke:#000000;"/>
    <path clip-path="url(#p0466abfc75)" d="M 169.635533 143.296151 
L 168.985231 139.877372 
L 168.024205 140.858408 
z
" style="stroke:#000000;"/>
    <path clip-path="url(#p0466abfc75)" d="M 168.985231 214.390752 
L 169.635533 210.973464 
L 168.024205 213.407512 
z
" style="stroke:#000000;"/>
    <path clip-path="url(#p0466abfc75)" d="M 172.771046 139.206985 
L 171.200492 141.100203 
L 174.070193 141.164791 
z
" style="stroke:#000000;"/>
    <path clip-path="url(#p0466abfc75)" d="M 172.50517 210.906652 
L 171.809662 206.905665 
L 174.679388 206.846412 
z
" style="stroke:#000000;"/>
    <path clip-path="url(#p0466abfc75)" d="M 174.070193 213.10198 
L 174.679388 206.846412 
L 176.388251 208.780865 
z
" style="stroke:#000000;"/>
    <path clip-path="url(#p0466abfc75)" d="M 174.679388 147.42175 
L 174.070193 141.164791 
L 176.388251 145.491202 
z
" style="stroke:#000000;"/>
    <path clip-path="url(#p0466abfc75)" d="M 171.200492 141.100203 
L 172.771046 139.206985 
L 169.901398 139.138767 
z
" style="stroke:#000000;"/>
    <path clip-path="url(#p0466abfc75)" d="M 171.809662 206.905665 
L 172.50517 210.906652 
L 169.635533 210.973464 
z
" style="stroke:#000000;"/>
    <path clip-path="url(#p0466abfc75)" d="M 169.901398 215.131458 
L 174.070193 213.10198 
L 171.200492 213.173001 
z
" style="stroke:#000000;"/>
    <path clip-path="url(#p0466abfc75)" d="M 171.200492 141.100203 
L 168.985231 139.877372 
L 169.635533 143.296151 
z
" style="stroke:#000000;"/>
    <path clip-path="url(#p0466abfc75)" d="M 168.985231 214.390752 
L 171.200492 213.173001 
L 169.635533 210.973464 
z
" style="stroke:#000000;"/>
    <path clip-path="url(#p0466abfc75)" d="M 168.985231 139.877372 
L 171.200492 141.100203 
L 169.901398 139.138767 
z
" style="stroke:#000000;"/>
    <path clip-path="url(#p0466abfc75)" d="M 171.200492 213.173001 
L 168.985231 214.390752 
L 169.901398 215.131458 
z
" style="stroke:#000000;"/>
    <path clip-path="url(#p0466abfc75)" d="M 176.388251 208.780865 
L 171.200492 213.173001 
L 174.070193 213.10198 
z
" style="stroke:#000000;"/>
    <path clip-path="url(#p0466abfc75)" d="M 169.635533 143.296151 
L 174.679388 147.42175 
L 171.809662 147.368936 
z
" style="stroke:#000000;"/>
    <path clip-path="url(#p0466abfc75)" d="M 176.388251 208.780865 
L 174.679388 206.846412 
L 176.566161 202.442878 
z
" style="stroke:#000000;"/>
    <path clip-path="url(#p0466abfc75)" d="M 174.679388 147.42175 
L 176.388251 145.491202 
L 176.566161 151.829594 
z
" style="stroke:#000000;"/>
    <path clip-path="url(#p0466abfc75)" d="M 176.566161 151.829594 
L 171.809662 147.368936 
L 174.679388 147.42175 
z
" style="stroke:#000000;"/>
    <path clip-path="url(#p0466abfc75)" d="M 174.070193 141.164791 
L 173.518465 145.434682 
L 176.388251 145.491202 
z
" style="stroke:#000000;"/>
    <path clip-path="url(#p0466abfc75)" d="M 171.200492 141.100203 
L 169.635533 143.296151 
L 171.809662 147.368936 
z
" style="stroke:#000000;"/>
    <path clip-path="url(#p0466abfc75)" d="M 169.635533 210.973464 
L 171.200492 213.173001 
L 171.809662 206.905665 
z
" style="stroke:#000000;"/>
    <path clip-path="url(#p0466abfc75)" d="M 173.518465 145.434682 
L 174.070193 141.164791 
L 171.200492 141.100203 
z
" style="stroke:#000000;"/>
    <path clip-path="url(#p0466abfc75)" d="M 174.679388 206.846412 
L 173.696369 202.493891 
L 176.566161 202.442878 
z
" style="stroke:#000000;"/>
    <path clip-path="url(#p0466abfc75)" d="M 176.388251 208.780865 
L 176.566161 202.442878 
L 178.400211 204.093287 
z
" style="stroke:#000000;"/>
    <path clip-path="url(#p0466abfc75)" d="M 176.566161 151.829594 
L 176.388251 145.491202 
L 178.400211 150.183375 
z
" style="stroke:#000000;"/>
    <path clip-path="url(#p0466abfc75)" d="M 173.696369 202.493891 
L 174.679388 206.846412 
L 171.809662 206.905665 
z
" style="stroke:#000000;"/>
    <path clip-path="url(#p0466abfc75)" d="M 171.200492 213.173001 
L 176.388251 208.780865 
L 173.518465 208.843838 
z
" style="stroke:#000000;"/>
    <path clip-path="url(#p0466abfc75)" d="M 178.400211 204.093287 
L 176.566161 202.442878 
L 178.142543 197.745997 
z
" style="stroke:#000000;"/>
    <path clip-path="url(#p0466abfc75)" d="M 176.566161 151.829594 
L 178.400211 150.183375 
L 178.142543 156.530076 
z
" style="stroke:#000000;"/>
    <path clip-path="url(#p0466abfc75)" d="M 171.809662 147.368936 
L 176.566161 151.829594 
L 173.696369 151.785036 
z
" style="stroke:#000000;"/>
    <path clip-path="url(#p0466abfc75)" d="M 171.200492 141.100203 
L 171.809662 147.368936 
L 173.518465 145.434682 
z
" style="stroke:#000000;"/>
    <path clip-path="url(#p0466abfc75)" d="M 171.809662 206.905665 
L 171.200492 213.173001 
L 173.518465 208.843838 
z
" style="stroke:#000000;"/>
    <path clip-path="url(#p0466abfc75)" d="M 178.400211 204.093287 
L 173.518465 208.843838 
L 176.388251 208.780865 
z
" style="stroke:#000000;"/>
    <path clip-path="url(#p0466abfc75)" d="M 178.142543 156.530076 
L 173.696369 151.785036 
L 176.566161 151.829594 
z
" style="stroke:#000000;"/>
    <path clip-path="url(#p0466abfc75)" d="M 176.566161 202.442878 
L 175.272702 197.788185 
L 178.142543 197.745997 
z
" style="stroke:#000000;"/>
    <path clip-path="url(#p0466abfc75)" d="M 176.388251 145.491202 
L 175.530362 150.13565 
L 178.400211 150.183375 
z
" style="stroke:#000000;"/>
    <path clip-path="url(#p0466abfc75)" d="M 173.518465 145.434682 
L 171.809662 147.368936 
L 173.696369 151.785036 
z
" style="stroke:#000000;"/>
    <path clip-path="url(#p0466abfc75)" d="M 171.809662 206.905665 
L 173.518465 208.843838 
L 173.696369 202.493891 
z
" style="stroke:#000000;"/>
    <path clip-path="url(#p0466abfc75)" d="M 178.142543 197.745997 
L 180.081457 199.091958 
L 178.400211 204.093287 
z
" style="stroke:#000000;"/>
    <path clip-path="url(#p0466abfc75)" d="M 180.081457 155.188544 
L 178.142543 156.530076 
L 178.400211 150.183375 
z
" style="stroke:#000000;"/>
    <path clip-path="url(#p0466abfc75)" d="M 175.530362 150.13565 
L 176.388251 145.491202 
L 173.518465 145.434682 
z
" style="stroke:#000000;"/>
    <path clip-path="url(#p0466abfc75)" d="M 175.272702 197.788185 
L 176.566161 202.442878 
L 173.696369 202.493891 
z
" style="stroke:#000000;"/>
    <path clip-path="url(#p0466abfc75)" d="M 180.081457 199.091958 
L 178.142543 197.745997 
L 179.389247 192.809334 
z
" style="stroke:#000000;"/>
    <path clip-path="url(#p0466abfc75)" d="M 178.142543 156.530076 
L 180.081457 155.188544 
L 179.389247 161.469588 
z
" style="stroke:#000000;"/>
    <path clip-path="url(#p0466abfc75)" d="M 179.389247 161.469588 
L 175.272702 156.494357 
L 178.142543 156.530076 
z
" style="stroke:#000000;"/>
    <path clip-path="url(#p0466abfc75)" d="M 173.696369 151.785036 
L 178.142543 156.530076 
L 175.272702 156.494357 
z
" style="stroke:#000000;"/>
    <path clip-path="url(#p0466abfc75)" d="M 173.518465 208.843838 
L 178.400211 204.093287 
L 175.530362 204.147483 
z
" style="stroke:#000000;"/>
    <path clip-path="url(#p0466abfc75)" d="M 180.081457 199.091958 
L 175.530362 204.147483 
L 178.400211 204.093287 
z
" style="stroke:#000000;"/>
    <path clip-path="url(#p0466abfc75)" d="M 178.142543 197.745997 
L 176.519372 192.842218 
L 179.389247 192.809334 
z
" style="stroke:#000000;"/>
    <path clip-path="url(#p0466abfc75)" d="M 173.518465 145.434682 
L 173.696369 151.785036 
L 175.530362 150.13565 
z
" style="stroke:#000000;"/>
    <path clip-path="url(#p0466abfc75)" d="M 173.696369 202.493891 
L 173.518465 208.843838 
L 175.530362 204.147483 
z
" style="stroke:#000000;"/>
    <path clip-path="url(#p0466abfc75)" d="M 179.389247 192.809334 
L 181.411236 193.834319 
L 180.081457 199.091958 
z
" style="stroke:#000000;"/>
    <path clip-path="url(#p0466abfc75)" d="M 181.411236 160.449222 
L 179.389247 161.469588 
L 180.081457 155.188544 
z
" style="stroke:#000000;"/>
    <path clip-path="url(#p0466abfc75)" d="M 181.411236 193.834319 
L 179.389247 192.809334 
L 180.290927 187.689767 
z
" style="stroke:#000000;"/>
    <path clip-path="url(#p0466abfc75)" d="M 179.389247 161.469588 
L 181.411236 160.449222 
L 180.290927 166.591214 
z
" style="stroke:#000000;"/>
    <path clip-path="url(#p0466abfc75)" d="M 176.519372 192.842218 
L 178.142543 197.745997 
L 175.272702 197.788185 
z
" style="stroke:#000000;"/>
    <path clip-path="url(#p0466abfc75)" d="M 178.400211 150.183375 
L 177.211564 155.150239 
L 180.081457 155.188544 
z
" style="stroke:#000000;"/>
    <path clip-path="url(#p0466abfc75)" d="M 175.530362 150.13565 
L 173.696369 151.785036 
L 175.272702 156.494357 
z
" style="stroke:#000000;"/>
    <path clip-path="url(#p0466abfc75)" d="M 173.696369 202.493891 
L 175.530362 204.147483 
L 175.272702 197.788185 
z
" style="stroke:#000000;"/>
    <path clip-path="url(#p0466abfc75)" d="M 180.290927 166.591214 
L 176.519372 161.443183 
L 179.389247 161.469588 
z
" style="stroke:#000000;"/>
    <path clip-path="url(#p0466abfc75)" d="M 177.211564 155.150239 
L 178.400211 150.183375 
L 175.530362 150.13565 
z
" style="stroke:#000000;"/>
    <path clip-path="url(#p0466abfc75)" d="M 175.272702 156.494357 
L 179.389247 161.469588 
L 176.519372 161.443183 
z
" style="stroke:#000000;"/>
    <path clip-path="url(#p0466abfc75)" d="M 179.389247 192.809334 
L 177.421029 187.71298 
L 180.290927 187.689767 
z
" style="stroke:#000000;"/>
    <path clip-path="url(#p0466abfc75)" d="M 182.373101 188.381087 
L 180.290927 187.689767 
L 180.836435 182.446742 
z
" style="stroke:#000000;"/>
    <path clip-path="url(#p0466abfc75)" d="M 180.290927 166.591214 
L 182.373101 165.904651 
L 180.836435 171.835485 
z
" style="stroke:#000000;"/>
    <path clip-path="url(#p0466abfc75)" d="M 180.290927 187.689767 
L 182.373101 188.381087 
L 181.411236 193.834319 
z
" style="stroke:#000000;"/>
    <path clip-path="url(#p0466abfc75)" d="M 182.373101 165.904651 
L 180.290927 166.591214 
L 181.411236 160.449222 
z
" style="stroke:#000000;"/>
    <path clip-path="url(#p0466abfc75)" d="M 175.530362 204.147483 
L 180.081457 199.091958 
L 177.211564 199.136749 
z
" style="stroke:#000000;"/>
    <path clip-path="url(#p0466abfc75)" d="M 180.836435 171.835485 
L 177.421029 166.574488 
L 180.290927 166.591214 
z
" style="stroke:#000000;"/>
    <path clip-path="url(#p0466abfc75)" d="M 181.411236 193.834319 
L 177.211564 199.136749 
L 180.081457 199.091958 
z
" style="stroke:#000000;"/>
    <path clip-path="url(#p0466abfc75)" d="M 177.421029 187.71298 
L 179.389247 192.809334 
L 176.519372 192.842218 
z
" style="stroke:#000000;"/>
    <path clip-path="url(#p0466abfc75)" d="M 180.290927 187.689767 
L 177.966524 182.460035 
L 180.836435 182.446742 
z
" style="stroke:#000000;"/>
    <path clip-path="url(#p0466abfc75)" d="M 180.836435 171.835485 
L 182.955067 171.491285 
L 181.019035 177.141322 
z
" style="stroke:#000000;"/>
    <path clip-path="url(#p0466abfc75)" d="M 182.955067 182.795782 
L 180.836435 182.446742 
L 181.019035 177.141322 
z
" style="stroke:#000000;"/>
    <path clip-path="url(#p0466abfc75)" d="M 175.272702 156.494357 
L 177.211564 155.150239 
L 175.530362 150.13565 
z
" style="stroke:#000000;"/>
    <path clip-path="url(#p0466abfc75)" d="M 177.211564 199.136749 
L 175.272702 197.788185 
L 175.530362 204.147483 
z
" style="stroke:#000000;"/>
    <path clip-path="url(#p0466abfc75)" d="M 181.019035 177.141322 
L 177.966524 171.828684 
L 180.836435 171.835485 
z
" style="stroke:#000000;"/>
    <path clip-path="url(#p0466abfc75)" d="M 176.519372 161.443183 
L 180.290927 166.591214 
L 177.421029 166.574488 
z
" style="stroke:#000000;"/>
    <path clip-path="url(#p0466abfc75)" d="M 180.836435 182.446742 
L 178.14912 177.144569 
L 181.019035 177.141322 
z
" style="stroke:#000000;"/>
    <path clip-path="url(#p0466abfc75)" d="M 180.081457 155.188544 
L 178.541313 160.420848 
L 181.411236 160.449222 
z
" style="stroke:#000000;"/>
    <path clip-path="url(#p0466abfc75)" d="M 177.211564 155.150239 
L 175.272702 156.494357 
L 176.519372 161.443183 
z
" style="stroke:#000000;"/>
    <path clip-path="url(#p0466abfc75)" d="M 175.272702 197.788185 
L 177.211564 199.136749 
L 176.519372 192.842218 
z
" style="stroke:#000000;"/>
    <path clip-path="url(#p0466abfc75)" d="M 180.836435 182.446742 
L 182.955067 182.795782 
L 182.373101 188.381087 
z
" style="stroke:#000000;"/>
    <path clip-path="url(#p0466abfc75)" d="M 182.955067 171.491285 
L 180.836435 171.835485 
L 182.373101 165.904651 
z
" style="stroke:#000000;"/>
    <path clip-path="url(#p0466abfc75)" d="M 177.966524 182.460035 
L 180.290927 187.689767 
L 177.421029 187.71298 
z
" style="stroke:#000000;"/>
    <path clip-path="url(#p0466abfc75)" d="M 181.019035 177.141322 
L 183.149863 177.143756 
L 182.955067 182.795782 
z
" style="stroke:#000000;"/>
    <path clip-path="url(#p0466abfc75)" d="M 183.149863 177.143756 
L 181.019035 177.141322 
L 182.955067 171.491285 
z
" style="stroke:#000000;"/>
    <path clip-path="url(#p0466abfc75)" d="M 178.541313 160.420848 
L 180.081457 155.188544 
L 177.211564 155.150239 
z
" style="stroke:#000000;"/>
    <path clip-path="url(#p0466abfc75)" d="M 177.421029 166.574488 
L 180.836435 171.835485 
L 177.966524 171.828684 
z
" style="stroke:#000000;"/>
    <path clip-path="url(#p0466abfc75)" d="M 182.373101 188.381087 
L 178.541313 193.869189 
L 181.411236 193.834319 
z
" style="stroke:#000000;"/>
    <path clip-path="url(#p0466abfc75)" d="M 178.14912 177.144569 
L 180.836435 182.446742 
L 177.966524 182.460035 
z
" style="stroke:#000000;"/>
    <path clip-path="url(#p0466abfc75)" d="M 177.966524 171.828684 
L 181.019035 177.141322 
L 178.14912 177.144569 
z
" style="stroke:#000000;"/>
    <path clip-path="url(#p0466abfc75)" d="M 177.211564 199.136749 
L 181.411236 193.834319 
L 178.541313 193.869189 
z
" style="stroke:#000000;"/>
    <path clip-path="url(#p0466abfc75)" d="M 181.411236 160.449222 
L 179.503159 165.8866 
L 182.373101 165.904651 
z
" style="stroke:#000000;"/>
    <path clip-path="url(#p0466abfc75)" d="M 186.000396 153.306323 
L 180.664484 142.586431 
L 182.438915 143.223285 
z
" style="stroke:#000000;"/>
    <path clip-path="url(#p0466abfc75)" d="M 186.000396 137.051308 
L 182.438915 143.223285 
L 180.664484 142.586431 
z
" style="stroke:#000000;"/>
    <path clip-path="url(#p0466abfc75)" d="M 176.519372 161.443183 
L 178.541313 160.420848 
L 177.211564 155.150239 
z
" style="stroke:#000000;"/>
    <path clip-path="url(#p0466abfc75)" d="M 178.541313 193.869189 
L 176.519372 192.842218 
L 177.211564 199.136749 
z
" style="stroke:#000000;"/>
    <path clip-path="url(#p0466abfc75)" d="M 178.541313 160.420848 
L 176.519372 161.443183 
L 177.421029 166.574488 
z
" style="stroke:#000000;"/>
    <path clip-path="url(#p0466abfc75)" d="M 176.519372 192.842218 
L 178.541313 193.869189 
L 177.421029 187.71298 
z
" style="stroke:#000000;"/>
    <path clip-path="url(#p0466abfc75)" d="M 177.794577 142.524249 
L 186.000396 137.051308 
L 180.664484 142.586431 
z
" style="stroke:#000000;"/>
    <path clip-path="url(#p0466abfc75)" d="M 186.000396 158.724662 
L 177.794577 142.524249 
L 180.664484 142.586431 
z
" style="stroke:#000000;"/>
    <path clip-path="url(#p0466abfc75)" d="M 182.955067 182.795782 
L 179.503159 188.405643 
L 182.373101 188.381087 
z
" style="stroke:#000000;"/>
    <path clip-path="url(#p0466abfc75)" d="M 179.503159 165.8866 
L 181.411236 160.449222 
L 178.541313 160.420848 
z
" style="stroke:#000000;"/>
    <path clip-path="url(#p0466abfc75)" d="M 182.373101 165.904651 
L 180.085115 171.483822 
L 182.955067 171.491285 
z
" style="stroke:#000000;"/>
    <path clip-path="url(#p0466abfc75)" d="M 178.541313 193.869189 
L 182.373101 188.381087 
L 179.503159 188.405643 
z
" style="stroke:#000000;"/>
    <path clip-path="url(#p0466abfc75)" d="M 183.149863 177.143756 
L 180.085115 182.809756 
L 182.955067 182.795782 
z
" style="stroke:#000000;"/>
    <path clip-path="url(#p0466abfc75)" d="M 179.503159 165.8866 
L 177.421029 166.574488 
L 177.966524 171.828684 
z
" style="stroke:#000000;"/>
    <path clip-path="url(#p0466abfc75)" d="M 177.421029 187.71298 
L 179.503159 188.405643 
L 177.966524 182.460035 
z
" style="stroke:#000000;"/>
    <path clip-path="url(#p0466abfc75)" d="M 182.955067 171.491285 
L 180.279907 177.147012 
L 183.149863 177.143756 
z
" style="stroke:#000000;"/>
    <path clip-path="url(#p0466abfc75)" d="M 177.421029 166.574488 
L 179.503159 165.8866 
L 178.541313 160.420848 
z
" style="stroke:#000000;"/>
    <path clip-path="url(#p0466abfc75)" d="M 179.503159 188.405643 
L 177.421029 187.71298 
L 178.541313 193.869189 
z
" style="stroke:#000000;"/>
    <path clip-path="url(#p0466abfc75)" d="M 180.664484 142.586431 
L 186.000396 153.306323 
L 186.000396 158.724662 
z
" style="stroke:#000000;"/>
    <path clip-path="url(#p0466abfc75)" d="M 177.966524 182.460035 
L 180.085115 182.809756 
L 178.14912 177.144569 
z
" style="stroke:#000000;"/>
    <path clip-path="url(#p0466abfc75)" d="M 180.085115 171.483822 
L 177.966524 171.828684 
L 178.14912 177.144569 
z
" style="stroke:#000000;"/>
    <path clip-path="url(#p0466abfc75)" d="M 180.085115 171.483822 
L 182.373101 165.904651 
L 179.503159 165.8866 
z
" style="stroke:#000000;"/>
    <path clip-path="url(#p0466abfc75)" d="M 179.503159 188.405643 
L 182.955067 182.795782 
L 180.085115 182.809756 
z
" style="stroke:#000000;"/>
    <path clip-path="url(#p0466abfc75)" d="M 182.438915 143.223285 
L 186.000396 137.051308 
L 186.000396 139.760478 
z
" style="stroke:#000000;"/>
    <path clip-path="url(#p0466abfc75)" d="M 177.966524 171.828684 
L 180.085115 171.483822 
L 179.503159 165.8866 
z
" style="stroke:#000000;"/>
    <path clip-path="url(#p0466abfc75)" d="M 180.085115 182.809756 
L 177.966524 182.460035 
L 179.503159 188.405643 
z
" style="stroke:#000000;"/>
    <path clip-path="url(#p0466abfc75)" d="M 180.279907 177.147012 
L 182.955067 171.491285 
L 180.085115 171.483822 
z
" style="stroke:#000000;"/>
    <path clip-path="url(#p0466abfc75)" d="M 180.085115 182.809756 
L 183.149863 177.143756 
L 180.279907 177.147012 
z
" style="stroke:#000000;"/>
    <path clip-path="url(#p0466abfc75)" d="M 178.14912 177.144569 
L 180.279907 177.147012 
L 180.085115 171.483822 
z
" style="stroke:#000000;"/>
    <path clip-path="url(#p0466abfc75)" d="M 180.279907 177.147012 
L 178.14912 177.144569 
L 180.085115 182.809756 
z
" style="stroke:#000000;"/>
    <path clip-path="url(#p0466abfc75)" d="M 182.438915 143.223285 
L 183.130404 139.692705 
L 179.568972 143.162237 
z
" style="stroke:#000000;"/>
    <path clip-path="url(#p0466abfc75)" d="M 183.130404 153.26429 
L 182.438915 143.223285 
L 179.568972 143.162237 
z
" style="stroke:#000000;"/>
    <path clip-path="url(#p0466abfc75)" d="M 183.130404 139.692705 
L 182.438915 143.223285 
L 186.000396 139.760478 
z
" style="stroke:#000000;"/>
    <path clip-path="url(#p0466abfc75)" d="M 182.438915 143.223285 
L 183.130404 153.26429 
L 186.000396 153.306323 
z
" style="stroke:#000000;"/>
    <path clip-path="url(#p0466abfc75)" d="M 177.794577 142.524249 
L 183.130404 153.26429 
L 179.568972 143.162237 
z
" style="stroke:#000000;"/>
    <path clip-path="url(#p0466abfc75)" d="M 179.568972 143.162237 
L 183.130404 136.978388 
L 177.794577 142.524249 
z
" style="stroke:#000000;"/>
    <path clip-path="url(#p0466abfc75)" d="M 186.000396 137.051308 
L 177.794577 142.524249 
L 183.130404 136.978388 
z
" style="stroke:#000000;"/>
    <path clip-path="url(#p0466abfc75)" d="M 177.794577 142.524249 
L 186.000396 158.724662 
L 183.130404 158.692924 
z
" style="stroke:#000000;"/>
    <path clip-path="url(#p0466abfc75)" d="M 183.130404 153.26429 
L 177.794577 142.524249 
L 183.130404 158.692924 
z
" style="stroke:#000000;"/>
    <path clip-path="url(#p0466abfc75)" d="M 186.000396 137.051308 
L 189.578804 143.07023 
L 186.000396 139.760478 
z
" style="stroke:#000000;"/>
    <path clip-path="url(#p0466abfc75)" d="M 183.130404 136.978388 
L 179.568972 143.162237 
L 183.130404 139.692705 
z
" style="stroke:#000000;"/>
    <path clip-path="url(#p0466abfc75)" d="M 186.000396 153.306323 
L 191.374393 142.352029 
L 186.000396 158.724662 
z
" style="stroke:#000000;"/>
    <path clip-path="url(#p0466abfc75)" d="M 183.130404 136.978388 
L 191.374393 142.352029 
L 186.000396 137.051308 
z
" style="stroke:#000000;"/>
    <path clip-path="url(#p0466abfc75)" d="M 191.374393 142.352029 
L 183.130404 158.692924 
L 186.000396 158.724662 
z
" style="stroke:#000000;"/>
    <path clip-path="url(#p0466abfc75)" d="M 191.374393 142.352029 
L 186.000396 153.306323 
L 189.578804 143.07023 
z
" style="stroke:#000000;"/>
    <path clip-path="url(#p0466abfc75)" d="M 189.578804 143.07023 
L 186.000396 137.051308 
L 191.374393 142.352029 
z
" style="stroke:#000000;"/>
    <path clip-path="url(#p0466abfc75)" d="M 186.000396 139.760478 
L 186.708794 143.0086 
L 183.130404 139.692705 
z
" style="stroke:#000000;"/>
    <path clip-path="url(#p0466abfc75)" d="M 186.708794 143.0086 
L 186.000396 153.306323 
L 183.130404 153.26429 
z
" style="stroke:#000000;"/>
    <path clip-path="url(#p0466abfc75)" d="M 186.708794 143.0086 
L 186.000396 139.760478 
L 189.578804 143.07023 
z
" style="stroke:#000000;"/>
    <path clip-path="url(#p0466abfc75)" d="M 186.000396 153.306323 
L 186.708794 143.0086 
L 189.578804 143.07023 
z
" style="stroke:#000000;"/>
    <path clip-path="url(#p0466abfc75)" d="M 188.861763 177.15028 
L 191.014934 177.15274 
L 189.058093 182.825707 
z
" style="stroke:#000000;"/>
    <path clip-path="url(#p0466abfc75)" d="M 191.014934 177.15274 
L 188.861763 177.15028 
L 189.058093 171.475302 
z
" style="stroke:#000000;"/>
    <path clip-path="url(#p0466abfc75)" d="M 189.058093 182.825707 
L 185.991754 177.153561 
L 188.861763 177.15028 
z
" style="stroke:#000000;"/>
    <path clip-path="url(#p0466abfc75)" d="M 188.861763 177.15028 
L 186.188083 171.467778 
L 189.058093 171.475302 
z
" style="stroke:#000000;"/>
    <path clip-path="url(#p0466abfc75)" d="M 189.058093 182.825707 
L 191.20002 182.49522 
L 189.645251 188.443797 
z
" style="stroke:#000000;"/>
    <path clip-path="url(#p0466abfc75)" d="M 191.20002 171.810682 
L 189.058093 171.475302 
L 189.645251 165.858553 
z
" style="stroke:#000000;"/>
    <path clip-path="url(#p0466abfc75)" d="M 183.130404 136.978388 
L 183.130404 139.692705 
L 186.708794 143.0086 
z
" style="stroke:#000000;"/>
    <path clip-path="url(#p0466abfc75)" d="M 189.645251 188.443797 
L 186.188083 182.839795 
L 189.058093 182.825707 
z
" style="stroke:#000000;"/>
    <path clip-path="url(#p0466abfc75)" d="M 189.058093 171.475302 
L 186.775241 165.840328 
L 189.645251 165.858553 
z
" style="stroke:#000000;"/>
    <path clip-path="url(#p0466abfc75)" d="M 189.058093 171.475302 
L 191.20002 171.810682 
L 191.014934 177.15274 
z
" style="stroke:#000000;"/>
    <path clip-path="url(#p0466abfc75)" d="M 191.20002 182.49522 
L 189.058093 182.825707 
L 191.014934 177.15274 
z
" style="stroke:#000000;"/>
    <path clip-path="url(#p0466abfc75)" d="M 183.130404 153.26429 
L 183.130404 158.692924 
L 188.504387 142.288956 
z
" style="stroke:#000000;"/>
    <path clip-path="url(#p0466abfc75)" d="M 189.645251 188.443797 
L 191.753492 187.783468 
L 190.6177 193.947202 
z
" style="stroke:#000000;"/>
    <path clip-path="url(#p0466abfc75)" d="M 191.753492 166.523699 
L 189.645251 165.858553 
L 190.6177 160.35737 
z
" style="stroke:#000000;"/>
    <path clip-path="url(#p0466abfc75)" d="M 186.188083 171.467778 
L 188.861763 177.15028 
L 185.991754 177.153561 
z
" style="stroke:#000000;"/>
    <path clip-path="url(#p0466abfc75)" d="M 191.753492 187.783468 
L 189.645251 188.443797 
L 191.20002 182.49522 
z
" style="stroke:#000000;"/>
    <path clip-path="url(#p0466abfc75)" d="M 189.645251 165.858553 
L 191.753492 166.523699 
L 191.20002 171.810682 
z
" style="stroke:#000000;"/>
    <path clip-path="url(#p0466abfc75)" d="M 185.991754 177.153561 
L 189.058093 182.825707 
L 186.188083 182.839795 
z
" style="stroke:#000000;"/>
    <path clip-path="url(#p0466abfc75)" d="M 190.6177 193.947202 
L 186.775241 188.468591 
L 189.645251 188.443797 
z
" style="stroke:#000000;"/>
    <path clip-path="url(#p0466abfc75)" d="M 186.775241 165.840328 
L 189.058093 171.475302 
L 186.188083 171.467778 
z
" style="stroke:#000000;"/>
    <path clip-path="url(#p0466abfc75)" d="M 189.645251 165.858553 
L 187.747691 160.328647 
L 190.6177 160.35737 
z
" style="stroke:#000000;"/>
    <path clip-path="url(#p0466abfc75)" d="M 186.188083 182.839795 
L 189.645251 188.443797 
L 186.775241 188.468591 
z
" style="stroke:#000000;"/>
    <path clip-path="url(#p0466abfc75)" d="M 191.374393 142.352029 
L 183.130404 136.978388 
L 188.504387 142.288956 
z
" style="stroke:#000000;"/>
    <path clip-path="url(#p0466abfc75)" d="M 183.130404 158.692924 
L 191.374393 142.352029 
L 188.504387 142.288956 
z
" style="stroke:#000000;"/>
    <path clip-path="url(#p0466abfc75)" d="M 192.67011 192.963314 
L 190.6177 193.947202 
L 191.753492 187.783468 
z
" style="stroke:#000000;"/>
    <path clip-path="url(#p0466abfc75)" d="M 190.6177 160.35737 
L 192.67011 161.345946 
L 191.753492 166.523699 
z
" style="stroke:#000000;"/>
    <path clip-path="url(#p0466abfc75)" d="M 190.6177 193.947202 
L 192.67011 192.963314 
L 191.966235 199.27947 
z
" style="stroke:#000000;"/>
    <path clip-path="url(#p0466abfc75)" d="M 192.67011 161.345946 
L 190.6177 160.35737 
L 191.966235 155.028183 
z
" style="stroke:#000000;"/>
    <path clip-path="url(#p0466abfc75)" d="M 183.130404 136.978388 
L 186.708794 143.0086 
L 188.504387 142.288956 
z
" style="stroke:#000000;"/>
    <path clip-path="url(#p0466abfc75)" d="M 183.130404 153.26429 
L 188.504387 142.288956 
L 186.708794 143.0086 
z
" style="stroke:#000000;"/>
    <path clip-path="url(#p0466abfc75)" d="M 187.747691 160.328647 
L 189.645251 165.858553 
L 186.775241 165.840328 
z
" style="stroke:#000000;"/>
    <path clip-path="url(#p0466abfc75)" d="M 191.966235 199.27947 
L 187.747691 193.982502 
L 190.6177 193.947202 
z
" style="stroke:#000000;"/>
    <path clip-path="url(#p0466abfc75)" d="M 191.20002 171.810682 
L 188.144926 177.15603 
L 191.014934 177.15274 
z
" style="stroke:#000000;"/>
    <path clip-path="url(#p0466abfc75)" d="M 191.014934 177.15274 
L 188.330013 182.508698 
L 191.20002 182.49522 
z
" style="stroke:#000000;"/>
    <path clip-path="url(#p0466abfc75)" d="M 186.775241 188.468591 
L 190.6177 193.947202 
L 187.747691 193.982502 
z
" style="stroke:#000000;"/>
    <path clip-path="url(#p0466abfc75)" d="M 191.753492 166.523699 
L 188.330013 171.803787 
L 191.20002 171.810682 
z
" style="stroke:#000000;"/>
    <path clip-path="url(#p0466abfc75)" d="M 190.6177 160.35737 
L 189.096231 154.989267 
L 191.966235 155.028183 
z
" style="stroke:#000000;"/>
    <path clip-path="url(#p0466abfc75)" d="M 185.991754 177.153561 
L 188.144926 177.15603 
L 186.188083 171.467778 
z
" style="stroke:#000000;"/>
    <path clip-path="url(#p0466abfc75)" d="M 188.144926 177.15603 
L 185.991754 177.153561 
L 186.188083 182.839795 
z
" style="stroke:#000000;"/>
    <path clip-path="url(#p0466abfc75)" d="M 191.20002 182.49522 
L 188.883487 187.807037 
L 191.753492 187.783468 
z
" style="stroke:#000000;"/>
    <path clip-path="url(#p0466abfc75)" d="M 186.188083 171.467778 
L 188.330013 171.803787 
L 186.775241 165.840328 
z
" style="stroke:#000000;"/>
    <path clip-path="url(#p0466abfc75)" d="M 188.330013 182.508698 
L 186.188083 182.839795 
L 186.775241 188.468591 
z
" style="stroke:#000000;"/>
    <path clip-path="url(#p0466abfc75)" d="M 193.941123 197.981386 
L 191.966235 199.27947 
L 192.67011 192.963314 
z
" style="stroke:#000000;"/>
    <path clip-path="url(#p0466abfc75)" d="M 191.966235 155.028183 
L 193.941123 156.330778 
L 192.67011 161.345946 
z
" style="stroke:#000000;"/>
    <path clip-path="url(#p0466abfc75)" d="M 189.096231 154.989267 
L 190.6177 160.35737 
L 187.747691 160.328647 
z
" style="stroke:#000000;"/>
    <path clip-path="url(#p0466abfc75)" d="M 188.330013 182.508698 
L 191.014934 177.15274 
L 188.144926 177.15603 
z
" style="stroke:#000000;"/>
    <path clip-path="url(#p0466abfc75)" d="M 192.67011 161.345946 
L 188.883487 166.506716 
L 191.753492 166.523699 
z
" style="stroke:#000000;"/>
    <path clip-path="url(#p0466abfc75)" d="M 188.144926 177.15603 
L 191.20002 171.810682 
L 188.330013 171.803787 
z
" style="stroke:#000000;"/>
    <path clip-path="url(#p0466abfc75)" d="M 191.966235 199.27947 
L 193.941123 197.981386 
L 193.678082 204.385603 
z
" style="stroke:#000000;"/>
    <path clip-path="url(#p0466abfc75)" d="M 193.941123 156.330778 
L 191.966235 155.028183 
L 193.678082 149.92596 
z
" style="stroke:#000000;"/>
    <path clip-path="url(#p0466abfc75)" d="M 186.188083 182.839795 
L 188.330013 182.508698 
L 188.144926 177.15603 
z
" style="stroke:#000000;"/>
    <path clip-path="url(#p0466abfc75)" d="M 188.330013 171.803787 
L 186.188083 171.467778 
L 188.144926 177.15603 
z
" style="stroke:#000000;"/>
    <path clip-path="url(#p0466abfc75)" d="M 188.883487 187.807037 
L 191.20002 182.49522 
L 188.330013 182.508698 
z
" style="stroke:#000000;"/>
    <path clip-path="url(#p0466abfc75)" d="M 191.753492 187.783468 
L 189.800111 192.996784 
L 192.67011 192.963314 
z
" style="stroke:#000000;"/>
    <path clip-path="url(#p0466abfc75)" d="M 187.747691 193.982502 
L 191.966235 199.27947 
L 189.096231 199.324974 
z
" style="stroke:#000000;"/>
    <path clip-path="url(#p0466abfc75)" d="M 188.330013 171.803787 
L 191.753492 166.523699 
L 188.883487 166.506716 
z
" style="stroke:#000000;"/>
    <path clip-path="url(#p0466abfc75)" d="M 193.678082 204.385603 
L 189.096231 199.324974 
L 191.966235 199.27947 
z
" style="stroke:#000000;"/>
    <path clip-path="url(#p0466abfc75)" d="M 186.775241 165.840328 
L 188.883487 166.506716 
L 187.747691 160.328647 
z
" style="stroke:#000000;"/>
    <path clip-path="url(#p0466abfc75)" d="M 188.883487 187.807037 
L 186.775241 188.468591 
L 187.747691 193.982502 
z
" style="stroke:#000000;"/>
    <path clip-path="url(#p0466abfc75)" d="M 188.883487 166.506716 
L 186.775241 165.840328 
L 188.330013 171.803787 
z
" style="stroke:#000000;"/>
    <path clip-path="url(#p0466abfc75)" d="M 186.775241 188.468591 
L 188.883487 187.807037 
L 188.330013 182.508698 
z
" style="stroke:#000000;"/>
    <path clip-path="url(#p0466abfc75)" d="M 189.800111 192.996784 
L 191.753492 187.783468 
L 188.883487 187.807037 
z
" style="stroke:#000000;"/>
    <path clip-path="url(#p0466abfc75)" d="M 193.941123 156.330778 
L 189.800111 161.319071 
L 192.67011 161.345946 
z
" style="stroke:#000000;"/>
    <path clip-path="url(#p0466abfc75)" d="M 191.966235 155.028183 
L 190.808092 149.877256 
L 193.678082 149.92596 
z
" style="stroke:#000000;"/>
    <path clip-path="url(#p0466abfc75)" d="M 188.883487 166.506716 
L 192.67011 161.345946 
L 189.800111 161.319071 
z
" style="stroke:#000000;"/>
    <path clip-path="url(#p0466abfc75)" d="M 195.554344 202.785688 
L 193.678082 204.385603 
L 193.941123 197.981386 
z
" style="stroke:#000000;"/>
    <path clip-path="url(#p0466abfc75)" d="M 193.678082 149.92596 
L 195.554344 151.530162 
L 193.941123 156.330778 
z
" style="stroke:#000000;"/>
    <path clip-path="url(#p0466abfc75)" d="M 190.808092 149.877256 
L 191.966235 155.028183 
L 189.096231 154.989267 
z
" style="stroke:#000000;"/>
    <path clip-path="url(#p0466abfc75)" d="M 192.67011 192.963314 
L 191.071135 198.02447 
L 193.941123 197.981386 
z
" style="stroke:#000000;"/>
    <path clip-path="url(#p0466abfc75)" d="M 189.800111 161.319071 
L 187.747691 160.328647 
L 188.883487 166.506716 
z
" style="stroke:#000000;"/>
    <path clip-path="url(#p0466abfc75)" d="M 187.747691 193.982502 
L 189.800111 192.996784 
L 188.883487 187.807037 
z
" style="stroke:#000000;"/>
    <path clip-path="url(#p0466abfc75)" d="M 187.747691 160.328647 
L 189.800111 161.319071 
L 189.096231 154.989267 
z
" style="stroke:#000000;"/>
    <path clip-path="url(#p0466abfc75)" d="M 189.800111 192.996784 
L 187.747691 193.982502 
L 189.096231 199.324974 
z
" style="stroke:#000000;"/>
    <path clip-path="url(#p0466abfc75)" d="M 193.678082 204.385603 
L 195.554344 202.785688 
L 195.736841 209.212183 
z
" style="stroke:#000000;"/>
    <path clip-path="url(#p0466abfc75)" d="M 195.554344 151.530162 
L 193.678082 149.92596 
L 195.736841 145.104084 
z
" style="stroke:#000000;"/>
    <path clip-path="url(#p0466abfc75)" d="M 191.071135 198.02447 
L 192.67011 192.963314 
L 189.800111 192.996784 
z
" style="stroke:#000000;"/>
    <path clip-path="url(#p0466abfc75)" d="M 189.096231 199.324974 
L 193.678082 204.385603 
L 190.808092 204.440911 
z
" style="stroke:#000000;"/>
    <path clip-path="url(#p0466abfc75)" d="M 195.736841 209.212183 
L 190.808092 204.440911 
L 193.678082 204.385603 
z
" style="stroke:#000000;"/>
    <path clip-path="url(#p0466abfc75)" d="M 195.554344 151.530162 
L 191.071135 156.2943 
L 193.941123 156.330778 
z
" style="stroke:#000000;"/>
    <path clip-path="url(#p0466abfc75)" d="M 189.800111 161.319071 
L 193.941123 156.330778 
L 191.071135 156.2943 
z
" style="stroke:#000000;"/>
    <path clip-path="url(#p0466abfc75)" d="M 191.071135 156.2943 
L 189.096231 154.989267 
L 189.800111 161.319071 
z
" style="stroke:#000000;"/>
    <path clip-path="url(#p0466abfc75)" d="M 189.096231 199.324974 
L 191.071135 198.02447 
L 189.800111 192.996784 
z
" style="stroke:#000000;"/>
    <path clip-path="url(#p0466abfc75)" d="M 193.941123 197.981386 
L 192.684377 202.838005 
L 195.554344 202.785688 
z
" style="stroke:#000000;"/>
    <path clip-path="url(#p0466abfc75)" d="M 193.678082 149.92596 
L 192.866877 145.046091 
L 195.736841 145.104084 
z
" style="stroke:#000000;"/>
    <path clip-path="url(#p0466abfc75)" d="M 189.096231 154.989267 
L 191.071135 156.2943 
L 190.808092 149.877256 
z
" style="stroke:#000000;"/>
    <path clip-path="url(#p0466abfc75)" d="M 191.071135 198.02447 
L 189.096231 199.324974 
L 190.808092 204.440911 
z
" style="stroke:#000000;"/>
    <path clip-path="url(#p0466abfc75)" d="M 195.736841 209.212183 
L 195.554344 202.785688 
L 197.494228 207.326051 
z
" style="stroke:#000000;"/>
    <path clip-path="url(#p0466abfc75)" d="M 195.554344 151.530162 
L 195.736841 145.104084 
L 197.494228 146.99423 
z
" style="stroke:#000000;"/>
    <path clip-path="url(#p0466abfc75)" d="M 192.866877 145.046091 
L 193.678082 149.92596 
L 190.808092 149.877256 
z
" style="stroke:#000000;"/>
    <path clip-path="url(#p0466abfc75)" d="M 192.684377 202.838005 
L 193.941123 197.981386 
L 191.071135 198.02447 
z
" style="stroke:#000000;"/>
    <path clip-path="url(#p0466abfc75)" d="M 191.071135 156.2943 
L 195.554344 151.530162 
L 192.684377 151.484465 
z
" style="stroke:#000000;"/>
    <path clip-path="url(#p0466abfc75)" d="M 190.808092 204.440911 
L 195.736841 209.212183 
L 192.866877 209.276797 
z
" style="stroke:#000000;"/>
    <path clip-path="url(#p0466abfc75)" d="M 195.736841 209.212183 
L 197.494228 207.326051 
L 198.12268 213.708561 
z
" style="stroke:#000000;"/>
    <path clip-path="url(#p0466abfc75)" d="M 197.494228 146.99423 
L 195.736841 145.104084 
L 198.12268 140.613156 
z
" style="stroke:#000000;"/>
    <path clip-path="url(#p0466abfc75)" d="M 197.494228 146.99423 
L 192.684377 151.484465 
L 195.554344 151.530162 
z
" style="stroke:#000000;"/>
    <path clip-path="url(#p0466abfc75)" d="M 192.684377 151.484465 
L 190.808092 149.877256 
L 191.071135 156.2943 
z
" style="stroke:#000000;"/>
    <path clip-path="url(#p0466abfc75)" d="M 190.808092 204.440911 
L 192.684377 202.838005 
L 191.071135 198.02447 
z
" style="stroke:#000000;"/>
    <path clip-path="url(#p0466abfc75)" d="M 198.12268 213.708561 
L 192.866877 209.276797 
L 195.736841 209.212183 
z
" style="stroke:#000000;"/>
    <path clip-path="url(#p0466abfc75)" d="M 195.554344 202.785688 
L 194.624295 207.387128 
L 197.494228 207.326051 
z
" style="stroke:#000000;"/>
    <path clip-path="url(#p0466abfc75)" d="M 190.808092 149.877256 
L 192.684377 151.484465 
L 192.866877 145.046091 
z
" style="stroke:#000000;"/>
    <path clip-path="url(#p0466abfc75)" d="M 192.684377 202.838005 
L 190.808092 204.440911 
L 192.866877 209.276797 
z
" style="stroke:#000000;"/>
    <path clip-path="url(#p0466abfc75)" d="M 194.624295 207.387128 
L 195.554344 202.785688 
L 192.684377 202.838005 
z
" style="stroke:#000000;"/>
    <path clip-path="url(#p0466abfc75)" d="M 195.736841 145.104084 
L 195.252759 140.54647 
L 198.12268 140.613156 
z
" style="stroke:#000000;"/>
    <path clip-path="url(#p0466abfc75)" d="M 198.12268 213.708561 
L 197.494228 207.326051 
L 199.741924 211.55419 
z
" style="stroke:#000000;"/>
    <path clip-path="url(#p0466abfc75)" d="M 197.494228 146.99423 
L 198.12268 140.613156 
L 199.741924 142.771225 
z
" style="stroke:#000000;"/>
    <path clip-path="url(#p0466abfc75)" d="M 195.252759 140.54647 
L 195.736841 145.104084 
L 192.866877 145.046091 
z
" style="stroke:#000000;"/>
    <path clip-path="url(#p0466abfc75)" d="M 192.684377 151.484465 
L 197.494228 146.99423 
L 194.624295 146.93979 
z
" style="stroke:#000000;"/>
    <path clip-path="url(#p0466abfc75)" d="M 192.866877 145.046091 
L 192.684377 151.484465 
L 194.624295 146.93979 
z
" style="stroke:#000000;"/>
    <path clip-path="url(#p0466abfc75)" d="M 192.684377 202.838005 
L 192.866877 209.276797 
L 194.624295 207.387128 
z
" style="stroke:#000000;"/>
    <path clip-path="url(#p0466abfc75)" d="M 199.741924 142.771225 
L 194.624295 146.93979 
L 197.494228 146.99423 
z
" style="stroke:#000000;"/>
    <path clip-path="url(#p0466abfc75)" d="M 192.866877 209.276797 
L 198.12268 213.708561 
L 195.252759 213.781889 
z
" style="stroke:#000000;"/>
    <path clip-path="url(#p0466abfc75)" d="M 198.12268 213.708561 
L 200.416804 215.062199 
L 199.466353 215.765596 
z
" style="stroke:#000000;"/>
    <path clip-path="url(#p0466abfc75)" d="M 200.416804 139.264759 
L 198.12268 140.613156 
L 199.466353 138.55919 
z
" style="stroke:#000000;"/>
    <path clip-path="url(#p0466abfc75)" d="M 200.416804 215.062199 
L 198.12268 213.708561 
L 199.741924 211.55419 
z
" style="stroke:#000000;"/>
    <path clip-path="url(#p0466abfc75)" d="M 198.12268 140.613156 
L 200.416804 139.264759 
L 199.741924 142.771225 
z
" style="stroke:#000000;"/>
    <path clip-path="url(#p0466abfc75)" d="M 199.466353 215.765596 
L 195.252759 213.781889 
L 198.12268 213.708561 
z
" style="stroke:#000000;"/>
    <path clip-path="url(#p0466abfc75)" d="M 197.494228 207.326051 
L 196.872041 211.623466 
L 199.741924 211.55419 
z
" style="stroke:#000000;"/>
    <path clip-path="url(#p0466abfc75)" d="M 198.12268 140.613156 
L 196.596463 138.488507 
L 199.466353 138.55919 
z
" style="stroke:#000000;"/>
    <path clip-path="url(#p0466abfc75)" d="M 192.866877 145.046091 
L 194.624295 146.93979 
L 195.252759 140.54647 
z
" style="stroke:#000000;"/>
    <path clip-path="url(#p0466abfc75)" d="M 194.624295 207.387128 
L 192.866877 209.276797 
L 195.252759 213.781889 
z
" style="stroke:#000000;"/>
    <path clip-path="url(#p0466abfc75)" d="M 196.872041 211.623466 
L 197.494228 207.326051 
L 194.624295 207.387128 
z
" style="stroke:#000000;"/>
    <path clip-path="url(#p0466abfc75)" d="M 196.596463 138.488507 
L 198.12268 140.613156 
L 195.252759 140.54647 
z
" style="stroke:#000000;"/>
    <path clip-path="url(#p0466abfc75)" d="M 200.416804 215.062199 
L 199.741924 211.55419 
L 201.416331 214.112388 
z
" style="stroke:#000000;"/>
    <path clip-path="url(#p0466abfc75)" d="M 199.741924 142.771225 
L 200.416804 139.264759 
L 201.416331 140.216853 
z
" style="stroke:#000000;"/>
    <path clip-path="url(#p0466abfc75)" d="M 196.596463 138.488507 
L 200.416804 139.264759 
L 199.466353 138.55919 
z
" style="stroke:#000000;"/>
    <path clip-path="url(#p0466abfc75)" d="M 194.624295 146.93979 
L 199.741924 142.771225 
L 196.872041 142.708606 
z
" style="stroke:#000000;"/>
    <path clip-path="url(#p0466abfc75)" d="M 195.252759 213.781889 
L 199.466353 215.765596 
L 196.596463 215.842933 
z
" style="stroke:#000000;"/>
    <path clip-path="url(#p0466abfc75)" d="M 197.546938 215.138235 
L 199.466353 215.765596 
L 200.416804 215.062199 
z
" style="stroke:#000000;"/>
    <path clip-path="url(#p0466abfc75)" d="M 196.872041 211.623466 
L 201.416331 214.112388 
L 199.741924 211.55419 
z
" style="stroke:#000000;"/>
    <path clip-path="url(#p0466abfc75)" d="M 195.252759 140.54647 
L 194.624295 146.93979 
L 196.872041 142.708606 
z
" style="stroke:#000000;"/>
    <path clip-path="url(#p0466abfc75)" d="M 194.624295 207.387128 
L 195.252759 213.781889 
L 196.872041 211.623466 
z
" style="stroke:#000000;"/>
    <path clip-path="url(#p0466abfc75)" d="M 197.546938 139.195385 
L 201.416331 140.216853 
L 200.416804 139.264759 
z
" style="stroke:#000000;"/>
    <path clip-path="url(#p0466abfc75)" d="M 199.466353 215.765596 
L 197.546938 215.138235 
L 196.596463 215.842933 
z
" style="stroke:#000000;"/>
    <path clip-path="url(#p0466abfc75)" d="M 198.546494 140.149261 
L 199.741924 142.771225 
L 201.416331 140.216853 
z
" style="stroke:#000000;"/>
    <path clip-path="url(#p0466abfc75)" d="M 200.416804 139.264759 
L 196.596463 138.488507 
L 197.546938 139.195385 
z
" style="stroke:#000000;"/>
    <path clip-path="url(#p0466abfc75)" d="M 198.546494 214.186651 
L 200.416804 215.062199 
L 201.416331 214.112388 
z
" style="stroke:#000000;"/>
    <path clip-path="url(#p0466abfc75)" d="M 199.741924 142.771225 
L 198.546494 140.149261 
L 196.872041 142.708606 
z
" style="stroke:#000000;"/>
    <path clip-path="url(#p0466abfc75)" d="M 195.252759 140.54647 
L 197.546938 139.195385 
L 196.596463 138.488507 
z
" style="stroke:#000000;"/>
    <path clip-path="url(#p0466abfc75)" d="M 197.546938 215.138235 
L 195.252759 213.781889 
L 196.596463 215.842933 
z
" style="stroke:#000000;"/>
    <path clip-path="url(#p0466abfc75)" d="M 197.546938 139.195385 
L 195.252759 140.54647 
L 196.872041 142.708606 
z
" style="stroke:#000000;"/>
    <path clip-path="url(#p0466abfc75)" d="M 195.252759 213.781889 
L 197.546938 215.138235 
L 196.872041 211.623466 
z
" style="stroke:#000000;"/>
    <path clip-path="url(#p0466abfc75)" d="M 200.416804 215.062199 
L 198.546494 214.186651 
L 197.546938 215.138235 
z
" style="stroke:#000000;"/>
    <path clip-path="url(#p0466abfc75)" d="M 201.416331 214.112388 
L 196.872041 211.623466 
L 198.546494 214.186651 
z
" style="stroke:#000000;"/>
    <path clip-path="url(#p0466abfc75)" d="M 201.416331 140.216853 
L 197.546938 139.195385 
L 198.546494 140.149261 
z
" style="stroke:#000000;"/>
    <path clip-path="url(#p0466abfc75)" d="M 197.546938 139.195385 
L 196.872041 142.708606 
L 198.546494 140.149261 
z
" style="stroke:#000000;"/>
    <path clip-path="url(#p0466abfc75)" d="M 196.872041 211.623466 
L 197.546938 215.138235 
L 198.546494 214.186651 
z
" style="stroke:#000000;"/>
   </g>
  </g>
 </g>
 <defs>
  <clipPath id="p0466abfc75">
   <rect height="271.8" width="279" x="45" y="43.2"/>
  </clipPath>
 </defs>
</svg>
