<?xml version="1.0" encoding="utf-8" standalone="no"?>
<!DOCTYPE svg PUBLIC "-//W3C//DTD SVG 1.1//EN"
  "http://www.w3.org/Graphics/SVG/1.1/DTD/svg11.dtd">
<!-- Created with matplotlib (https://matplotlib.org/) -->
<svg height="360pt" version="1.1" viewBox="0 0 360 360" width="360pt" xmlns="http://www.w3.org/2000/svg" xmlns:xlink="http://www.w3.org/1999/xlink">
 <defs>
  <style type="text/css">
*{stroke-linecap:butt;stroke-linejoin:round;}
  </style>
 </defs>
 <g id="figure_1">
  <g id="patch_1">
   <path d="M 45 315 
L 324 315 
L 324 43.2 
L 45 43.2 
z
" style="fill:#ffffff;"/>
  </g>
  <g id="axes_1">
   <g id="Poly3DCollection_1">
    <path clip-path="url(#p12a280d8a8)" d="M 195.565833 213.168176 
L 191.358575 214.113513 
L 191.878981 213.130035 
z
" style="stroke:#000000;"/>
    <path clip-path="url(#p12a280d8a8)" d="M 191.006316 143.520629 
L 191.358575 140.130318 
L 191.878981 141.110959 
z
" style="stroke:#000000;"/>
    <path clip-path="url(#p12a280d8a8)" d="M 191.358575 214.113513 
L 191.006316 210.725124 
L 191.878981 213.130035 
z
" style="stroke:#000000;"/>
    <path clip-path="url(#p12a280d8a8)" d="M 195.565833 141.076244 
L 191.006316 143.520629 
L 191.878981 141.110959 
z
" style="stroke:#000000;"/>
    <path clip-path="url(#p12a280d8a8)" d="M 195.047993 140.094582 
L 191.878981 141.110959 
L 191.358575 140.130318 
z
" style="stroke:#000000;"/>
    <path clip-path="url(#p12a280d8a8)" d="M 191.878981 141.110959 
L 195.047993 140.094582 
L 195.565833 141.076244 
z
" style="stroke:#000000;"/>
    <path clip-path="url(#p12a280d8a8)" d="M 191.878981 213.130035 
L 194.69747 210.760882 
L 195.565833 213.168176 
z
" style="stroke:#000000;"/>
    <path clip-path="url(#p12a280d8a8)" d="M 191.358575 214.113513 
L 195.565833 213.168176 
L 195.047993 214.152682 
z
" style="stroke:#000000;"/>
    <path clip-path="url(#p12a280d8a8)" d="M 194.69747 210.760882 
L 191.878981 213.130035 
L 191.006316 210.725124 
z
" style="stroke:#000000;"/>
    <path clip-path="url(#p12a280d8a8)" d="M 195.047993 214.152682 
L 190.862275 214.856162 
L 191.358575 214.113513 
z
" style="stroke:#000000;"/>
    <path clip-path="url(#p12a280d8a8)" d="M 191.006316 143.520629 
L 195.565833 141.076244 
L 194.69747 143.488306 
z
" style="stroke:#000000;"/>
    <path clip-path="url(#p12a280d8a8)" d="M 190.158226 141.329367 
L 191.358575 140.130318 
L 191.006316 143.520629 
z
" style="stroke:#000000;"/>
    <path clip-path="url(#p12a280d8a8)" d="M 191.358575 214.113513 
L 190.158226 212.921011 
L 191.006316 210.725124 
z
" style="stroke:#000000;"/>
    <path clip-path="url(#p12a280d8a8)" d="M 194.554138 139.353861 
L 191.358575 140.130318 
L 190.862275 139.390376 
z
" style="stroke:#000000;"/>
    <path clip-path="url(#p12a280d8a8)" d="M 191.358575 140.130318 
L 190.158226 141.329367 
L 190.862275 139.390376 
z
" style="stroke:#000000;"/>
    <path clip-path="url(#p12a280d8a8)" d="M 190.158226 212.921011 
L 191.358575 214.113513 
L 190.862275 214.856162 
z
" style="stroke:#000000;"/>
    <path clip-path="url(#p12a280d8a8)" d="M 194.69747 210.760882 
L 195.047993 214.152682 
L 195.565833 213.168176 
z
" style="stroke:#000000;"/>
    <path clip-path="url(#p12a280d8a8)" d="M 195.047993 140.094582 
L 194.69747 143.488306 
L 195.565833 141.076244 
z
" style="stroke:#000000;"/>
    <path clip-path="url(#p12a280d8a8)" d="M 191.358575 140.130318 
L 194.554138 139.353861 
L 195.047993 140.094582 
z
" style="stroke:#000000;"/>
    <path clip-path="url(#p12a280d8a8)" d="M 190.862275 214.856162 
L 195.047993 214.152682 
L 194.554138 214.896115 
z
" style="stroke:#000000;"/>
    <path clip-path="url(#p12a280d8a8)" d="M 190.158226 141.329367 
L 194.554138 139.353861 
L 190.862275 139.390376 
z
" style="stroke:#000000;"/>
    <path clip-path="url(#p12a280d8a8)" d="M 189.827958 206.699321 
L 194.69747 210.760882 
L 191.006316 210.725124 
z
" style="stroke:#000000;"/>
    <path clip-path="url(#p12a280d8a8)" d="M 190.158226 141.329367 
L 191.006316 143.520629 
L 189.827958 147.552858 
z
" style="stroke:#000000;"/>
    <path clip-path="url(#p12a280d8a8)" d="M 191.006316 210.725124 
L 190.158226 212.921011 
L 189.827958 206.699321 
z
" style="stroke:#000000;"/>
    <path clip-path="url(#p12a280d8a8)" d="M 193.853558 212.959046 
L 195.047993 214.152682 
L 194.69747 210.760882 
z
" style="stroke:#000000;"/>
    <path clip-path="url(#p12a280d8a8)" d="M 195.047993 140.094582 
L 193.853558 141.294777 
L 194.69747 143.488306 
z
" style="stroke:#000000;"/>
    <path clip-path="url(#p12a280d8a8)" d="M 193.853558 212.959046 
L 190.862275 214.856162 
L 194.554138 214.896115 
z
" style="stroke:#000000;"/>
    <path clip-path="url(#p12a280d8a8)" d="M 193.524916 147.524567 
L 191.006316 143.520629 
L 194.69747 143.488306 
z
" style="stroke:#000000;"/>
    <path clip-path="url(#p12a280d8a8)" d="M 190.862275 214.856162 
L 193.853558 212.959046 
L 190.158226 212.921011 
z
" style="stroke:#000000;"/>
    <path clip-path="url(#p12a280d8a8)" d="M 195.047993 214.152682 
L 193.853558 212.959046 
L 194.554138 214.896115 
z
" style="stroke:#000000;"/>
    <path clip-path="url(#p12a280d8a8)" d="M 193.853558 141.294777 
L 195.047993 140.094582 
L 194.554138 139.353861 
z
" style="stroke:#000000;"/>
    <path clip-path="url(#p12a280d8a8)" d="M 191.006316 143.520629 
L 193.524916 147.524567 
L 189.827958 147.552858 
z
" style="stroke:#000000;"/>
    <path clip-path="url(#p12a280d8a8)" d="M 194.554138 139.353861 
L 190.158226 141.329367 
L 193.853558 141.294777 
z
" style="stroke:#000000;"/>
    <path clip-path="url(#p12a280d8a8)" d="M 194.69747 210.760882 
L 189.827958 206.699321 
L 193.524916 206.731061 
z
" style="stroke:#000000;"/>
    <path clip-path="url(#p12a280d8a8)" d="M 193.853558 212.959046 
L 194.69747 210.760882 
L 193.524916 206.731061 
z
" style="stroke:#000000;"/>
    <path clip-path="url(#p12a280d8a8)" d="M 194.69747 143.488306 
L 193.853558 141.294777 
L 193.524916 147.524567 
z
" style="stroke:#000000;"/>
    <path clip-path="url(#p12a280d8a8)" d="M 190.158226 141.329367 
L 189.827958 147.552858 
L 188.901084 145.621108 
z
" style="stroke:#000000;"/>
    <path clip-path="url(#p12a280d8a8)" d="M 189.827958 206.699321 
L 190.158226 212.921011 
L 188.901084 208.636126 
z
" style="stroke:#000000;"/>
    <path clip-path="url(#p12a280d8a8)" d="M 188.901084 145.621108 
L 193.853558 141.294777 
L 190.158226 141.329367 
z
" style="stroke:#000000;"/>
    <path clip-path="url(#p12a280d8a8)" d="M 192.602605 208.669882 
L 190.158226 212.921011 
L 193.853558 212.959046 
z
" style="stroke:#000000;"/>
    <path clip-path="url(#p12a280d8a8)" d="M 188.804551 202.326605 
L 193.524916 206.731061 
L 189.827958 206.699321 
z
" style="stroke:#000000;"/>
    <path clip-path="url(#p12a280d8a8)" d="M 188.901084 145.621108 
L 189.827958 147.552858 
L 188.804551 151.931155 
z
" style="stroke:#000000;"/>
    <path clip-path="url(#p12a280d8a8)" d="M 189.827958 206.699321 
L 188.901084 208.636126 
L 188.804551 202.326605 
z
" style="stroke:#000000;"/>
    <path clip-path="url(#p12a280d8a8)" d="M 190.158226 212.921011 
L 192.602605 208.669882 
L 188.901084 208.636126 
z
" style="stroke:#000000;"/>
    <path clip-path="url(#p12a280d8a8)" d="M 192.506547 151.907268 
L 189.827958 147.552858 
L 193.524916 147.524567 
z
" style="stroke:#000000;"/>
    <path clip-path="url(#p12a280d8a8)" d="M 193.853558 212.959046 
L 193.524916 206.731061 
L 192.602605 208.669882 
z
" style="stroke:#000000;"/>
    <path clip-path="url(#p12a280d8a8)" d="M 193.524916 147.524567 
L 193.853558 141.294777 
L 192.602605 145.590811 
z
" style="stroke:#000000;"/>
    <path clip-path="url(#p12a280d8a8)" d="M 189.827958 147.552858 
L 192.506547 151.907268 
L 188.804551 151.931155 
z
" style="stroke:#000000;"/>
    <path clip-path="url(#p12a280d8a8)" d="M 193.853558 141.294777 
L 188.901084 145.621108 
L 192.602605 145.590811 
z
" style="stroke:#000000;"/>
    <path clip-path="url(#p12a280d8a8)" d="M 193.524916 206.731061 
L 188.804551 202.326605 
L 192.506547 202.353952 
z
" style="stroke:#000000;"/>
    <path clip-path="url(#p12a280d8a8)" d="M 192.602605 208.669882 
L 193.524916 206.731061 
L 192.506547 202.353952 
z
" style="stroke:#000000;"/>
    <path clip-path="url(#p12a280d8a8)" d="M 193.524916 147.524567 
L 192.602605 145.590811 
L 192.506547 151.907268 
z
" style="stroke:#000000;"/>
    <path clip-path="url(#p12a280d8a8)" d="M 188.901084 145.621108 
L 188.804551 151.931155 
L 187.808997 150.282746 
z
" style="stroke:#000000;"/>
    <path clip-path="url(#p12a280d8a8)" d="M 188.804551 202.326605 
L 188.901084 208.636126 
L 187.808997 203.980443 
z
" style="stroke:#000000;"/>
    <path clip-path="url(#p12a280d8a8)" d="M 187.808997 150.282746 
L 192.602605 145.590811 
L 188.901084 145.621108 
z
" style="stroke:#000000;"/>
    <path clip-path="url(#p12a280d8a8)" d="M 187.948908 197.656987 
L 192.506547 202.353952 
L 188.804551 202.326605 
z
" style="stroke:#000000;"/>
    <path clip-path="url(#p12a280d8a8)" d="M 187.808997 150.282746 
L 188.804551 151.931155 
L 187.948908 156.60544 
z
" style="stroke:#000000;"/>
    <path clip-path="url(#p12a280d8a8)" d="M 188.804551 202.326605 
L 187.808997 203.980443 
L 187.948908 197.656987 
z
" style="stroke:#000000;"/>
    <path clip-path="url(#p12a280d8a8)" d="M 191.51589 204.009518 
L 188.901084 208.636126 
L 192.602605 208.669882 
z
" style="stroke:#000000;"/>
    <path clip-path="url(#p12a280d8a8)" d="M 191.655113 156.586279 
L 188.804551 151.931155 
L 192.506547 151.907268 
z
" style="stroke:#000000;"/>
    <path clip-path="url(#p12a280d8a8)" d="M 188.804551 151.931155 
L 191.655113 156.586279 
L 187.948908 156.60544 
z
" style="stroke:#000000;"/>
    <path clip-path="url(#p12a280d8a8)" d="M 188.901084 208.636126 
L 191.51589 204.009518 
L 187.808997 203.980443 
z
" style="stroke:#000000;"/>
    <path clip-path="url(#p12a280d8a8)" d="M 192.602605 208.669882 
L 192.506547 202.353952 
L 191.51589 204.009518 
z
" style="stroke:#000000;"/>
    <path clip-path="url(#p12a280d8a8)" d="M 192.506547 151.907268 
L 192.602605 145.590811 
L 191.51589 150.257143 
z
" style="stroke:#000000;"/>
    <path clip-path="url(#p12a280d8a8)" d="M 192.506547 202.353952 
L 187.948908 197.656987 
L 191.655113 197.679617 
z
" style="stroke:#000000;"/>
    <path clip-path="url(#p12a280d8a8)" d="M 192.602605 145.590811 
L 187.808997 150.282746 
L 191.51589 150.257143 
z
" style="stroke:#000000;"/>
    <path clip-path="url(#p12a280d8a8)" d="M 191.51589 204.009518 
L 192.506547 202.353952 
L 191.655113 197.679617 
z
" style="stroke:#000000;"/>
    <path clip-path="url(#p12a280d8a8)" d="M 192.506547 151.907268 
L 191.51589 150.257143 
L 191.655113 156.586279 
z
" style="stroke:#000000;"/>
    <path clip-path="url(#p12a280d8a8)" d="M 187.948908 156.60544 
L 186.895742 155.261392 
L 187.808997 150.282746 
z
" style="stroke:#000000;"/>
    <path clip-path="url(#p12a280d8a8)" d="M 186.895742 199.006778 
L 187.948908 197.656987 
L 187.808997 203.980443 
z
" style="stroke:#000000;"/>
    <path clip-path="url(#p12a280d8a8)" d="M 187.271826 192.744354 
L 191.655113 197.679617 
L 187.948908 197.656987 
z
" style="stroke:#000000;"/>
    <path clip-path="url(#p12a280d8a8)" d="M 186.895742 155.261392 
L 187.948908 156.60544 
L 187.271826 161.521764 
z
" style="stroke:#000000;"/>
    <path clip-path="url(#p12a280d8a8)" d="M 187.948908 197.656987 
L 186.895742 199.006778 
L 187.271826 192.744354 
z
" style="stroke:#000000;"/>
    <path clip-path="url(#p12a280d8a8)" d="M 190.98136 161.507593 
L 187.948908 156.60544 
L 191.655113 156.586279 
z
" style="stroke:#000000;"/>
    <path clip-path="url(#p12a280d8a8)" d="M 186.895742 155.261392 
L 191.51589 150.257143 
L 187.808997 150.282746 
z
" style="stroke:#000000;"/>
    <path clip-path="url(#p12a280d8a8)" d="M 187.948908 156.60544 
L 190.98136 161.507593 
L 187.271826 161.521764 
z
" style="stroke:#000000;"/>
    <path clip-path="url(#p12a280d8a8)" d="M 190.607124 199.030823 
L 187.808997 203.980443 
L 191.51589 204.009518 
z
" style="stroke:#000000;"/>
    <path clip-path="url(#p12a280d8a8)" d="M 191.655113 197.679617 
L 187.271826 192.744354 
L 190.98136 192.762003 
z
" style="stroke:#000000;"/>
    <path clip-path="url(#p12a280d8a8)" d="M 187.808997 203.980443 
L 190.607124 199.030823 
L 186.895742 199.006778 
z
" style="stroke:#000000;"/>
    <path clip-path="url(#p12a280d8a8)" d="M 191.655113 197.679617 
L 190.607124 199.030823 
L 191.51589 204.009518 
z
" style="stroke:#000000;"/>
    <path clip-path="url(#p12a280d8a8)" d="M 190.607124 155.240828 
L 191.655113 156.586279 
L 191.51589 150.257143 
z
" style="stroke:#000000;"/>
    <path clip-path="url(#p12a280d8a8)" d="M 186.781914 187.646143 
L 190.98136 192.762003 
L 187.271826 192.744354 
z
" style="stroke:#000000;"/>
    <path clip-path="url(#p12a280d8a8)" d="M 187.271826 161.521764 
L 186.172966 160.499139 
L 186.895742 155.261392 
z
" style="stroke:#000000;"/>
    <path clip-path="url(#p12a280d8a8)" d="M 186.172966 193.772972 
L 187.271826 192.744354 
L 186.895742 199.006778 
z
" style="stroke:#000000;"/>
    <path clip-path="url(#p12a280d8a8)" d="M 191.51589 150.257143 
L 186.895742 155.261392 
L 190.607124 155.240828 
z
" style="stroke:#000000;"/>
    <path clip-path="url(#p12a280d8a8)" d="M 186.172966 160.499139 
L 187.271826 161.521764 
L 186.781914 166.622647 
z
" style="stroke:#000000;"/>
    <path clip-path="url(#p12a280d8a8)" d="M 187.271826 192.744354 
L 186.172966 193.772972 
L 186.781914 187.646143 
z
" style="stroke:#000000;"/>
    <path clip-path="url(#p12a280d8a8)" d="M 190.607124 199.030823 
L 191.655113 197.679617 
L 190.98136 192.762003 
z
" style="stroke:#000000;"/>
    <path clip-path="url(#p12a280d8a8)" d="M 191.655113 156.586279 
L 190.607124 155.240828 
L 190.98136 161.507593 
z
" style="stroke:#000000;"/>
    <path clip-path="url(#p12a280d8a8)" d="M 187.271826 161.521764 
L 190.493856 166.613667 
L 186.781914 166.622647 
z
" style="stroke:#000000;"/>
    <path clip-path="url(#p12a280d8a8)" d="M 190.493856 166.613667 
L 187.271826 161.521764 
L 190.98136 161.507593 
z
" style="stroke:#000000;"/>
    <path clip-path="url(#p12a280d8a8)" d="M 190.98136 192.762003 
L 186.781914 187.646143 
L 190.493856 187.658606 
z
" style="stroke:#000000;"/>
    <path clip-path="url(#p12a280d8a8)" d="M 186.485436 182.422538 
L 190.493856 187.658606 
L 186.781914 187.646143 
z
" style="stroke:#000000;"/>
    <path clip-path="url(#p12a280d8a8)" d="M 186.172966 160.499139 
L 190.607124 155.240828 
L 186.895742 155.261392 
z
" style="stroke:#000000;"/>
    <path clip-path="url(#p12a280d8a8)" d="M 186.781914 166.622647 
L 190.198834 171.844217 
L 186.485436 171.847869 
z
" style="stroke:#000000;"/>
    <path clip-path="url(#p12a280d8a8)" d="M 185.649922 165.934548 
L 186.781914 166.622647 
L 186.485436 171.847869 
z
" style="stroke:#000000;"/>
    <path clip-path="url(#p12a280d8a8)" d="M 186.781914 187.646143 
L 185.649922 188.340415 
L 186.485436 182.422538 
z
" style="stroke:#000000;"/>
    <path clip-path="url(#p12a280d8a8)" d="M 190.198834 171.844217 
L 186.781914 166.622647 
L 190.493856 166.613667 
z
" style="stroke:#000000;"/>
    <path clip-path="url(#p12a280d8a8)" d="M 186.38618 177.135474 
L 190.198834 182.429676 
L 186.485436 182.422538 
z
" style="stroke:#000000;"/>
    <path clip-path="url(#p12a280d8a8)" d="M 189.8879 193.791702 
L 186.895742 199.006778 
L 190.607124 199.030823 
z
" style="stroke:#000000;"/>
    <path clip-path="url(#p12a280d8a8)" d="M 186.485436 171.847869 
L 190.100066 177.137218 
L 186.38618 177.135474 
z
" style="stroke:#000000;"/>
    <path clip-path="url(#p12a280d8a8)" d="M 186.781914 166.622647 
L 185.649922 165.934548 
L 186.172966 160.499139 
z
" style="stroke:#000000;"/>
    <path clip-path="url(#p12a280d8a8)" d="M 185.649922 188.340415 
L 186.781914 187.646143 
L 186.172966 193.772972 
z
" style="stroke:#000000;"/>
    <path clip-path="url(#p12a280d8a8)" d="M 186.895742 199.006778 
L 189.8879 193.791702 
L 186.172966 193.772972 
z
" style="stroke:#000000;"/>
    <path clip-path="url(#p12a280d8a8)" d="M 190.493856 187.658606 
L 186.485436 182.422538 
L 190.198834 182.429676 
z
" style="stroke:#000000;"/>
    <path clip-path="url(#p12a280d8a8)" d="M 190.98136 192.762003 
L 189.8879 193.791702 
L 190.607124 199.030823 
z
" style="stroke:#000000;"/>
    <path clip-path="url(#p12a280d8a8)" d="M 189.8879 160.483899 
L 190.98136 161.507593 
L 190.607124 155.240828 
z
" style="stroke:#000000;"/>
    <path clip-path="url(#p12a280d8a8)" d="M 189.8879 193.791702 
L 190.98136 192.762003 
L 190.493856 187.658606 
z
" style="stroke:#000000;"/>
    <path clip-path="url(#p12a280d8a8)" d="M 190.98136 161.507593 
L 189.8879 160.483899 
L 190.493856 166.613667 
z
" style="stroke:#000000;"/>
    <path clip-path="url(#p12a280d8a8)" d="M 186.485436 182.422538 
L 185.333361 182.773507 
L 186.38618 177.135474 
z
" style="stroke:#000000;"/>
    <path clip-path="url(#p12a280d8a8)" d="M 185.333361 171.503183 
L 186.485436 171.847869 
L 186.38618 177.135474 
z
" style="stroke:#000000;"/>
    <path clip-path="url(#p12a280d8a8)" d="M 190.100066 177.137218 
L 186.485436 171.847869 
L 190.198834 171.844217 
z
" style="stroke:#000000;"/>
    <path clip-path="url(#p12a280d8a8)" d="M 190.198834 182.429676 
L 186.38618 177.135474 
L 190.100066 177.137218 
z
" style="stroke:#000000;"/>
    <path clip-path="url(#p12a280d8a8)" d="M 190.607124 155.240828 
L 186.172966 160.499139 
L 189.8879 160.483899 
z
" style="stroke:#000000;"/>
    <path clip-path="url(#p12a280d8a8)" d="M 186.485436 171.847869 
L 185.333361 171.503183 
L 185.649922 165.934548 
z
" style="stroke:#000000;"/>
    <path clip-path="url(#p12a280d8a8)" d="M 185.333361 182.773507 
L 186.485436 182.422538 
L 185.649922 188.340415 
z
" style="stroke:#000000;"/>
    <path clip-path="url(#p12a280d8a8)" d="M 185.649922 165.934548 
L 189.8879 160.483899 
L 186.172966 160.499139 
z
" style="stroke:#000000;"/>
    <path clip-path="url(#p12a280d8a8)" d="M 189.367424 188.35361 
L 190.493856 187.658606 
L 190.198834 182.429676 
z
" style="stroke:#000000;"/>
    <path clip-path="url(#p12a280d8a8)" d="M 190.493856 166.613667 
L 189.367424 165.924849 
L 190.198834 171.844217 
z
" style="stroke:#000000;"/>
    <path clip-path="url(#p12a280d8a8)" d="M 186.38618 177.135474 
L 185.227385 177.138634 
L 185.333361 171.503183 
z
" style="stroke:#000000;"/>
    <path clip-path="url(#p12a280d8a8)" d="M 185.227385 177.138634 
L 186.38618 177.135474 
L 185.333361 182.773507 
z
" style="stroke:#000000;"/>
    <path clip-path="url(#p12a280d8a8)" d="M 186.172966 193.772972 
L 189.367424 188.35361 
L 185.649922 188.340415 
z
" style="stroke:#000000;"/>
    <path clip-path="url(#p12a280d8a8)" d="M 189.367424 188.35361 
L 186.172966 193.772972 
L 189.8879 193.791702 
z
" style="stroke:#000000;"/>
    <path clip-path="url(#p12a280d8a8)" d="M 190.493856 187.658606 
L 189.367424 188.35361 
L 189.8879 193.791702 
z
" style="stroke:#000000;"/>
    <path clip-path="url(#p12a280d8a8)" d="M 189.367424 165.924849 
L 190.493856 166.613667 
L 189.8879 160.483899 
z
" style="stroke:#000000;"/>
    <path clip-path="url(#p12a280d8a8)" d="M 190.198834 171.844217 
L 189.052418 171.499171 
L 190.100066 177.137218 
z
" style="stroke:#000000;"/>
    <path clip-path="url(#p12a280d8a8)" d="M 189.052418 182.781017 
L 190.198834 182.429676 
L 190.100066 177.137218 
z
" style="stroke:#000000;"/>
    <path clip-path="url(#p12a280d8a8)" d="M 189.8879 160.483899 
L 185.649922 165.934548 
L 189.367424 165.924849 
z
" style="stroke:#000000;"/>
    <path clip-path="url(#p12a280d8a8)" d="M 185.333361 171.503183 
L 189.367424 165.924849 
L 185.649922 165.934548 
z
" style="stroke:#000000;"/>
    <path clip-path="url(#p12a280d8a8)" d="M 185.614126 143.32397 
L 183.675642 137.143837 
L 186.578896 142.700799 
z
" style="stroke:#000000;"/>
    <path clip-path="url(#p12a280d8a8)" d="M 186.578896 142.700799 
L 183.675642 153.359659 
L 185.614126 143.32397 
z
" style="stroke:#000000;"/>
    <path clip-path="url(#p12a280d8a8)" d="M 185.649922 188.340415 
L 189.052418 182.781017 
L 185.333361 182.773507 
z
" style="stroke:#000000;"/>
    <path clip-path="url(#p12a280d8a8)" d="M 186.578896 142.700799 
L 187.402833 137.104597 
L 190.291836 142.66741 
z
" style="stroke:#000000;"/>
    <path clip-path="url(#p12a280d8a8)" d="M 187.402833 158.747855 
L 186.578896 142.700799 
L 190.291836 142.66741 
z
" style="stroke:#000000;"/>
    <path clip-path="url(#p12a280d8a8)" d="M 190.198834 182.429676 
L 189.052418 182.781017 
L 189.367424 188.35361 
z
" style="stroke:#000000;"/>
    <path clip-path="url(#p12a280d8a8)" d="M 189.052418 171.499171 
L 190.198834 171.844217 
L 189.367424 165.924849 
z
" style="stroke:#000000;"/>
    <path clip-path="url(#p12a280d8a8)" d="M 189.052418 182.781017 
L 185.649922 188.340415 
L 189.367424 188.35361 
z
" style="stroke:#000000;"/>
    <path clip-path="url(#p12a280d8a8)" d="M 185.227385 177.138634 
L 189.052418 171.499171 
L 185.333361 171.503183 
z
" style="stroke:#000000;"/>
    <path clip-path="url(#p12a280d8a8)" d="M 185.333361 182.773507 
L 188.946963 177.140384 
L 185.227385 177.138634 
z
" style="stroke:#000000;"/>
    <path clip-path="url(#p12a280d8a8)" d="M 189.367424 165.924849 
L 185.333361 171.503183 
L 189.052418 171.499171 
z
" style="stroke:#000000;"/>
    <path clip-path="url(#p12a280d8a8)" d="M 190.100066 177.137218 
L 188.946963 177.140384 
L 189.052418 182.781017 
z
" style="stroke:#000000;"/>
    <path clip-path="url(#p12a280d8a8)" d="M 188.946963 177.140384 
L 190.100066 177.137218 
L 189.052418 171.499171 
z
" style="stroke:#000000;"/>
    <path clip-path="url(#p12a280d8a8)" d="M 188.946963 177.140384 
L 185.333361 182.773507 
L 189.052418 182.781017 
z
" style="stroke:#000000;"/>
    <path clip-path="url(#p12a280d8a8)" d="M 189.052418 171.499171 
L 185.227385 177.138634 
L 188.946963 177.140384 
z
" style="stroke:#000000;"/>
    <path clip-path="url(#p12a280d8a8)" d="M 189.331804 143.291166 
L 183.675642 139.846474 
L 185.614126 143.32397 
z
" style="stroke:#000000;"/>
    <path clip-path="url(#p12a280d8a8)" d="M 183.675642 153.359659 
L 189.331804 143.291166 
L 185.614126 143.32397 
z
" style="stroke:#000000;"/>
    <path clip-path="url(#p12a280d8a8)" d="M 187.402833 153.33704 
L 190.291836 142.66741 
L 189.331804 143.291166 
z
" style="stroke:#000000;"/>
    <path clip-path="url(#p12a280d8a8)" d="M 187.402833 137.104597 
L 189.331804 143.291166 
L 190.291836 142.66741 
z
" style="stroke:#000000;"/>
    <path clip-path="url(#p12a280d8a8)" d="M 183.675642 153.359659 
L 186.578896 142.700799 
L 183.675642 158.764933 
z
" style="stroke:#000000;"/>
    <path clip-path="url(#p12a280d8a8)" d="M 187.402833 137.104597 
L 186.578896 142.700799 
L 183.675642 137.143837 
z
" style="stroke:#000000;"/>
    <path clip-path="url(#p12a280d8a8)" d="M 186.578896 142.700799 
L 187.402833 158.747855 
L 183.675642 158.764933 
z
" style="stroke:#000000;"/>
    <path clip-path="url(#p12a280d8a8)" d="M 183.675642 137.143837 
L 185.614126 143.32397 
L 183.675642 139.846474 
z
" style="stroke:#000000;"/>
    <path clip-path="url(#p12a280d8a8)" d="M 190.291836 142.66741 
L 187.402833 153.33704 
L 187.402833 158.747855 
z
" style="stroke:#000000;"/>
    <path clip-path="url(#p12a280d8a8)" d="M 183.675642 139.846474 
L 189.331804 143.291166 
L 187.402833 139.810005 
z
" style="stroke:#000000;"/>
    <path clip-path="url(#p12a280d8a8)" d="M 189.331804 143.291166 
L 183.675642 153.359659 
L 187.402833 153.33704 
z
" style="stroke:#000000;"/>
    <path clip-path="url(#p12a280d8a8)" d="M 189.331804 143.291166 
L 187.402833 137.104597 
L 187.402833 139.810005 
z
" style="stroke:#000000;"/>
    <path clip-path="url(#p12a280d8a8)" d="M 183.675642 137.143837 
L 183.675642 139.846474 
L 181.725142 143.124956 
z
" style="stroke:#000000;"/>
    <path clip-path="url(#p12a280d8a8)" d="M 187.402833 139.810005 
L 181.725142 143.124956 
L 183.675642 139.846474 
z
" style="stroke:#000000;"/>
    <path clip-path="url(#p12a280d8a8)" d="M 181.725142 143.124956 
L 187.402833 153.33704 
L 183.675642 153.359659 
z
" style="stroke:#000000;"/>
    <path clip-path="url(#p12a280d8a8)" d="M 183.675642 153.359659 
L 183.675642 158.764933 
L 180.74535 142.396011 
z
" style="stroke:#000000;"/>
    <path clip-path="url(#p12a280d8a8)" d="M 187.402833 137.104597 
L 185.461892 143.091744 
L 187.402833 139.810005 
z
" style="stroke:#000000;"/>
    <path clip-path="url(#p12a280d8a8)" d="M 183.675642 137.143837 
L 184.486897 142.361997 
L 187.402833 137.104597 
z
" style="stroke:#000000;"/>
    <path clip-path="url(#p12a280d8a8)" d="M 184.486897 142.361997 
L 183.675642 158.764933 
L 187.402833 158.747855 
z
" style="stroke:#000000;"/>
    <path clip-path="url(#p12a280d8a8)" d="M 187.402833 153.33704 
L 184.486897 142.361997 
L 187.402833 158.747855 
z
" style="stroke:#000000;"/>
    <path clip-path="url(#p12a280d8a8)" d="M 183.675642 137.143837 
L 181.725142 143.124956 
L 180.74535 142.396011 
z
" style="stroke:#000000;"/>
    <path clip-path="url(#p12a280d8a8)" d="M 183.675642 153.359659 
L 180.74535 142.396011 
L 181.725142 143.124956 
z
" style="stroke:#000000;"/>
    <path clip-path="url(#p12a280d8a8)" d="M 181.725142 143.124956 
L 187.402833 139.810005 
L 185.461892 143.091744 
z
" style="stroke:#000000;"/>
    <path clip-path="url(#p12a280d8a8)" d="M 187.402833 153.33704 
L 181.725142 143.124956 
L 185.461892 143.091744 
z
" style="stroke:#000000;"/>
    <path clip-path="url(#p12a280d8a8)" d="M 182.009144 171.4824 
L 185.851043 177.148885 
L 182.116209 177.147117 
z
" style="stroke:#000000;"/>
    <path clip-path="url(#p12a280d8a8)" d="M 182.116209 177.147117 
L 185.744503 182.820008 
L 182.009144 182.812418 
z
" style="stroke:#000000;"/>
    <path clip-path="url(#p12a280d8a8)" d="M 182.116209 177.147117 
L 180.941552 177.15032 
L 182.009144 171.4824 
z
" style="stroke:#000000;"/>
    <path clip-path="url(#p12a280d8a8)" d="M 180.941552 177.15032 
L 182.116209 177.147117 
L 182.009144 182.812418 
z
" style="stroke:#000000;"/>
    <path clip-path="url(#p12a280d8a8)" d="M 181.688897 165.874609 
L 185.744503 171.478346 
L 182.009144 171.4824 
z
" style="stroke:#000000;"/>
    <path clip-path="url(#p12a280d8a8)" d="M 185.744503 182.820008 
L 182.116209 177.147117 
L 185.851043 177.148885 
z
" style="stroke:#000000;"/>
    <path clip-path="url(#p12a280d8a8)" d="M 185.851043 177.148885 
L 182.009144 171.4824 
L 185.744503 171.478346 
z
" style="stroke:#000000;"/>
    <path clip-path="url(#p12a280d8a8)" d="M 182.009144 182.812418 
L 185.425824 188.435317 
L 181.688897 188.421956 
z
" style="stroke:#000000;"/>
    <path clip-path="url(#p12a280d8a8)" d="M 182.009144 171.4824 
L 180.840531 171.815618 
L 181.688897 165.874609 
z
" style="stroke:#000000;"/>
    <path clip-path="url(#p12a280d8a8)" d="M 180.840531 182.485573 
L 182.009144 182.812418 
L 181.688897 188.421956 
z
" style="stroke:#000000;"/>
    <path clip-path="url(#p12a280d8a8)" d="M 184.486897 142.361997 
L 183.675642 137.143837 
L 180.74535 142.396011 
z
" style="stroke:#000000;"/>
    <path clip-path="url(#p12a280d8a8)" d="M 183.675642 158.764933 
L 184.486897 142.361997 
L 180.74535 142.396011 
z
" style="stroke:#000000;"/>
    <path clip-path="url(#p12a280d8a8)" d="M 185.425824 188.435317 
L 182.009144 182.812418 
L 185.744503 182.820008 
z
" style="stroke:#000000;"/>
    <path clip-path="url(#p12a280d8a8)" d="M 184.486897 142.361997 
L 187.402833 153.33704 
L 185.461892 143.091744 
z
" style="stroke:#000000;"/>
    <path clip-path="url(#p12a280d8a8)" d="M 185.461892 143.091744 
L 187.402833 137.104597 
L 184.486897 142.361997 
z
" style="stroke:#000000;"/>
    <path clip-path="url(#p12a280d8a8)" d="M 185.744503 171.478346 
L 181.688897 165.874609 
L 185.425824 165.864787 
z
" style="stroke:#000000;"/>
    <path clip-path="url(#p12a280d8a8)" d="M 181.158338 160.379706 
L 185.425824 165.864787 
L 181.688897 165.874609 
z
" style="stroke:#000000;"/>
    <path clip-path="url(#p12a280d8a8)" d="M 182.009144 182.812418 
L 180.840531 182.485573 
L 180.941552 177.15032 
z
" style="stroke:#000000;"/>
    <path clip-path="url(#p12a280d8a8)" d="M 180.840531 171.815618 
L 182.009144 171.4824 
L 180.941552 177.15032 
z
" style="stroke:#000000;"/>
    <path clip-path="url(#p12a280d8a8)" d="M 181.688897 165.874609 
L 180.538398 166.534858 
L 181.158338 160.379706 
z
" style="stroke:#000000;"/>
    <path clip-path="url(#p12a280d8a8)" d="M 180.538398 187.76798 
L 181.688897 188.421956 
L 181.158338 193.919752 
z
" style="stroke:#000000;"/>
    <path clip-path="url(#p12a280d8a8)" d="M 181.688897 188.421956 
L 184.897864 193.938783 
L 181.158338 193.919752 
z
" style="stroke:#000000;"/>
    <path clip-path="url(#p12a280d8a8)" d="M 184.897864 193.938783 
L 181.688897 188.421956 
L 185.425824 188.435317 
z
" style="stroke:#000000;"/>
    <path clip-path="url(#p12a280d8a8)" d="M 185.851043 177.148885 
L 184.682138 177.152094 
L 185.744503 182.820008 
z
" style="stroke:#000000;"/>
    <path clip-path="url(#p12a280d8a8)" d="M 184.682138 177.152094 
L 185.851043 177.148885 
L 185.744503 171.478346 
z
" style="stroke:#000000;"/>
    <path clip-path="url(#p12a280d8a8)" d="M 180.538398 166.534858 
L 181.688897 165.874609 
L 180.840531 171.815618 
z
" style="stroke:#000000;"/>
    <path clip-path="url(#p12a280d8a8)" d="M 181.688897 188.421956 
L 180.538398 187.76798 
L 180.840531 182.485573 
z
" style="stroke:#000000;"/>
    <path clip-path="url(#p12a280d8a8)" d="M 185.425824 165.864787 
L 181.158338 160.379706 
L 184.897864 160.364221 
z
" style="stroke:#000000;"/>
    <path clip-path="url(#p12a280d8a8)" d="M 185.744503 182.820008 
L 184.581612 182.492841 
L 185.425824 188.435317 
z
" style="stroke:#000000;"/>
    <path clip-path="url(#p12a280d8a8)" d="M 184.581612 171.8119 
L 185.744503 171.478346 
L 185.425824 165.864787 
z
" style="stroke:#000000;"/>
    <path clip-path="url(#p12a280d8a8)" d="M 180.422247 155.052876 
L 184.897864 160.364221 
L 181.158338 160.379706 
z
" style="stroke:#000000;"/>
    <path clip-path="url(#p12a280d8a8)" d="M 180.840531 182.485573 
L 184.682138 177.152094 
L 180.941552 177.15032 
z
" style="stroke:#000000;"/>
    <path clip-path="url(#p12a280d8a8)" d="M 180.941552 177.15032 
L 184.581612 171.8119 
L 180.840531 171.815618 
z
" style="stroke:#000000;"/>
    <path clip-path="url(#p12a280d8a8)" d="M 185.744503 171.478346 
L 184.581612 171.8119 
L 184.682138 177.152094 
z
" style="stroke:#000000;"/>
    <path clip-path="url(#p12a280d8a8)" d="M 184.581612 182.492841 
L 185.744503 182.820008 
L 184.682138 177.152094 
z
" style="stroke:#000000;"/>
    <path clip-path="url(#p12a280d8a8)" d="M 180.037881 161.360995 
L 181.158338 160.379706 
L 180.538398 166.534858 
z
" style="stroke:#000000;"/>
    <path clip-path="url(#p12a280d8a8)" d="M 181.158338 193.919752 
L 180.037881 192.944574 
L 180.538398 187.76798 
z
" style="stroke:#000000;"/>
    <path clip-path="url(#p12a280d8a8)" d="M 181.158338 160.379706 
L 180.037881 161.360995 
L 180.422247 155.052876 
z
" style="stroke:#000000;"/>
    <path clip-path="url(#p12a280d8a8)" d="M 180.037881 192.944574 
L 181.158338 193.919752 
L 180.422247 199.250596 
z
" style="stroke:#000000;"/>
    <path clip-path="url(#p12a280d8a8)" d="M 180.538398 187.76798 
L 184.581612 182.492841 
L 180.840531 182.485573 
z
" style="stroke:#000000;"/>
    <path clip-path="url(#p12a280d8a8)" d="M 184.165375 199.275142 
L 181.158338 193.919752 
L 184.897864 193.938783 
z
" style="stroke:#000000;"/>
    <path clip-path="url(#p12a280d8a8)" d="M 185.425824 188.435317 
L 184.280958 187.780693 
L 184.897864 193.938783 
z
" style="stroke:#000000;"/>
    <path clip-path="url(#p12a280d8a8)" d="M 184.280958 166.525698 
L 185.425824 165.864787 
L 184.897864 160.364221 
z
" style="stroke:#000000;"/>
    <path clip-path="url(#p12a280d8a8)" d="M 184.581612 171.8119 
L 180.941552 177.15032 
L 184.682138 177.152094 
z
" style="stroke:#000000;"/>
    <path clip-path="url(#p12a280d8a8)" d="M 181.158338 193.919752 
L 184.165375 199.275142 
L 180.422247 199.250596 
z
" style="stroke:#000000;"/>
    <path clip-path="url(#p12a280d8a8)" d="M 184.682138 177.152094 
L 180.840531 182.485573 
L 184.581612 182.492841 
z
" style="stroke:#000000;"/>
    <path clip-path="url(#p12a280d8a8)" d="M 180.840531 171.815618 
L 184.280958 166.525698 
L 180.538398 166.534858 
z
" style="stroke:#000000;"/>
    <path clip-path="url(#p12a280d8a8)" d="M 184.280958 187.780693 
L 185.425824 188.435317 
L 184.581612 182.492841 
z
" style="stroke:#000000;"/>
    <path clip-path="url(#p12a280d8a8)" d="M 185.425824 165.864787 
L 184.280958 166.525698 
L 184.581612 171.8119 
z
" style="stroke:#000000;"/>
    <path clip-path="url(#p12a280d8a8)" d="M 184.280958 166.525698 
L 180.840531 171.815618 
L 184.581612 171.8119 
z
" style="stroke:#000000;"/>
    <path clip-path="url(#p12a280d8a8)" d="M 184.897864 160.364221 
L 180.422247 155.052876 
L 184.165375 155.031884 
z
" style="stroke:#000000;"/>
    <path clip-path="url(#p12a280d8a8)" d="M 184.581612 182.492841 
L 180.538398 187.76798 
L 184.280958 187.780693 
z
" style="stroke:#000000;"/>
    <path clip-path="url(#p12a280d8a8)" d="M 180.037881 192.944574 
L 184.280958 187.780693 
L 180.538398 187.76798 
z
" style="stroke:#000000;"/>
    <path clip-path="url(#p12a280d8a8)" d="M 180.538398 166.534858 
L 183.78289 161.346494 
L 180.037881 161.360995 
z
" style="stroke:#000000;"/>
    <path clip-path="url(#p12a280d8a8)" d="M 183.78289 161.346494 
L 180.538398 166.534858 
L 184.280958 166.525698 
z
" style="stroke:#000000;"/>
    <path clip-path="url(#p12a280d8a8)" d="M 179.34354 156.346293 
L 180.422247 155.052876 
L 180.037881 161.360995 
z
" style="stroke:#000000;"/>
    <path clip-path="url(#p12a280d8a8)" d="M 180.422247 199.250596 
L 179.34354 197.963062 
L 180.037881 192.944574 
z
" style="stroke:#000000;"/>
    <path clip-path="url(#p12a280d8a8)" d="M 183.78289 192.962633 
L 184.897864 193.938783 
L 184.280958 187.780693 
z
" style="stroke:#000000;"/>
    <path clip-path="url(#p12a280d8a8)" d="M 184.897864 160.364221 
L 183.78289 161.346494 
L 184.280958 166.525698 
z
" style="stroke:#000000;"/>
    <path clip-path="url(#p12a280d8a8)" d="M 179.487266 149.948031 
L 184.165375 155.031884 
L 180.422247 155.052876 
z
" style="stroke:#000000;"/>
    <path clip-path="url(#p12a280d8a8)" d="M 184.897864 193.938783 
L 183.78289 192.962633 
L 184.165375 199.275142 
z
" style="stroke:#000000;"/>
    <path clip-path="url(#p12a280d8a8)" d="M 183.78289 161.346494 
L 184.897864 160.364221 
L 184.165375 155.031884 
z
" style="stroke:#000000;"/>
    <path clip-path="url(#p12a280d8a8)" d="M 184.280958 187.780693 
L 180.037881 192.944574 
L 183.78289 192.962633 
z
" style="stroke:#000000;"/>
    <path clip-path="url(#p12a280d8a8)" d="M 180.422247 155.052876 
L 179.34354 156.346293 
L 179.487266 149.948031 
z
" style="stroke:#000000;"/>
    <path clip-path="url(#p12a280d8a8)" d="M 179.34354 197.963062 
L 180.422247 199.250596 
L 179.487266 204.36054 
z
" style="stroke:#000000;"/>
    <path clip-path="url(#p12a280d8a8)" d="M 183.234968 204.390394 
L 180.422247 199.250596 
L 184.165375 199.275142 
z
" style="stroke:#000000;"/>
    <path clip-path="url(#p12a280d8a8)" d="M 179.34354 197.963062 
L 183.78289 192.962633 
L 180.037881 192.944574 
z
" style="stroke:#000000;"/>
    <path clip-path="url(#p12a280d8a8)" d="M 180.422247 199.250596 
L 183.234968 204.390394 
L 179.487266 204.36054 
z
" style="stroke:#000000;"/>
    <path clip-path="url(#p12a280d8a8)" d="M 183.091946 156.326601 
L 180.037881 161.360995 
L 183.78289 161.346494 
z
" style="stroke:#000000;"/>
    <path clip-path="url(#p12a280d8a8)" d="M 184.165375 155.031884 
L 179.487266 149.948031 
L 183.234968 149.921741 
z
" style="stroke:#000000;"/>
    <path clip-path="url(#p12a280d8a8)" d="M 180.037881 161.360995 
L 183.091946 156.326601 
L 179.34354 156.346293 
z
" style="stroke:#000000;"/>
    <path clip-path="url(#p12a280d8a8)" d="M 183.091946 197.98632 
L 184.165375 199.275142 
L 183.78289 192.962633 
z
" style="stroke:#000000;"/>
    <path clip-path="url(#p12a280d8a8)" d="M 184.165375 155.031884 
L 183.091946 156.326601 
L 183.78289 161.346494 
z
" style="stroke:#000000;"/>
    <path clip-path="url(#p12a280d8a8)" d="M 183.78289 192.962633 
L 179.34354 197.963062 
L 183.091946 197.98632 
z
" style="stroke:#000000;"/>
    <path clip-path="url(#p12a280d8a8)" d="M 184.165375 199.275142 
L 183.091946 197.98632 
L 183.234968 204.390394 
z
" style="stroke:#000000;"/>
    <path clip-path="url(#p12a280d8a8)" d="M 183.091946 156.326601 
L 184.165375 155.031884 
L 183.234968 149.921741 
z
" style="stroke:#000000;"/>
    <path clip-path="url(#p12a280d8a8)" d="M 178.461742 151.5418 
L 179.487266 149.948031 
L 179.34354 156.346293 
z
" style="stroke:#000000;"/>
    <path clip-path="url(#p12a280d8a8)" d="M 179.487266 204.36054 
L 178.461742 202.772363 
L 179.34354 197.963062 
z
" style="stroke:#000000;"/>
    <path clip-path="url(#p12a280d8a8)" d="M 178.361952 145.117735 
L 183.234968 149.921741 
L 179.487266 149.948031 
z
" style="stroke:#000000;"/>
    <path clip-path="url(#p12a280d8a8)" d="M 178.461742 202.772363 
L 183.091946 197.98632 
L 179.34354 197.963062 
z
" style="stroke:#000000;"/>
    <path clip-path="url(#p12a280d8a8)" d="M 179.487266 149.948031 
L 178.461742 151.5418 
L 178.361952 145.117735 
z
" style="stroke:#000000;"/>
    <path clip-path="url(#p12a280d8a8)" d="M 178.461742 202.772363 
L 179.487266 204.36054 
L 178.361952 209.196972 
z
" style="stroke:#000000;"/>
    <path clip-path="url(#p12a280d8a8)" d="M 182.115155 209.231879 
L 179.487266 204.36054 
L 183.234968 204.390394 
z
" style="stroke:#000000;"/>
    <path clip-path="url(#p12a280d8a8)" d="M 182.214458 151.517115 
L 179.34354 156.346293 
L 183.091946 156.326601 
z
" style="stroke:#000000;"/>
    <path clip-path="url(#p12a280d8a8)" d="M 179.34354 156.346293 
L 182.214458 151.517115 
L 178.461742 151.5418 
z
" style="stroke:#000000;"/>
    <path clip-path="url(#p12a280d8a8)" d="M 179.487266 204.36054 
L 182.115155 209.231879 
L 178.361952 209.196972 
z
" style="stroke:#000000;"/>
    <path clip-path="url(#p12a280d8a8)" d="M 182.214458 202.800624 
L 183.234968 204.390394 
L 183.091946 197.98632 
z
" style="stroke:#000000;"/>
    <path clip-path="url(#p12a280d8a8)" d="M 183.234968 149.921741 
L 182.214458 151.517115 
L 183.091946 156.326601 
z
" style="stroke:#000000;"/>
    <path clip-path="url(#p12a280d8a8)" d="M 183.091946 197.98632 
L 178.461742 202.772363 
L 182.214458 202.800624 
z
" style="stroke:#000000;"/>
    <path clip-path="url(#p12a280d8a8)" d="M 183.234968 149.921741 
L 178.361952 145.117735 
L 182.115155 145.086406 
z
" style="stroke:#000000;"/>
    <path clip-path="url(#p12a280d8a8)" d="M 183.234968 204.390394 
L 182.214458 202.800624 
L 182.115155 209.231879 
z
" style="stroke:#000000;"/>
    <path clip-path="url(#p12a280d8a8)" d="M 182.214458 151.517115 
L 183.234968 149.921741 
L 182.115155 145.086406 
z
" style="stroke:#000000;"/>
    <path clip-path="url(#p12a280d8a8)" d="M 178.361952 145.117735 
L 178.461742 151.5418 
L 177.400627 146.996945 
z
" style="stroke:#000000;"/>
    <path clip-path="url(#p12a280d8a8)" d="M 178.461742 202.772363 
L 178.361952 209.196972 
L 177.400627 207.323006 
z
" style="stroke:#000000;"/>
    <path clip-path="url(#p12a280d8a8)" d="M 177.400627 207.323006 
L 182.214458 202.800624 
L 178.461742 202.772363 
z
" style="stroke:#000000;"/>
    <path clip-path="url(#p12a280d8a8)" d="M 177.056686 140.61206 
L 182.115155 145.086406 
L 178.361952 145.117735 
z
" style="stroke:#000000;"/>
    <path clip-path="url(#p12a280d8a8)" d="M 181.158527 146.967513 
L 178.461742 151.5418 
L 182.214458 151.517115 
z
" style="stroke:#000000;"/>
    <path clip-path="url(#p12a280d8a8)" d="M 178.361952 145.117735 
L 177.400627 146.996945 
L 177.056686 140.61206 
z
" style="stroke:#000000;"/>
    <path clip-path="url(#p12a280d8a8)" d="M 177.400627 207.323006 
L 178.361952 209.196972 
L 177.056686 213.709765 
z
" style="stroke:#000000;"/>
    <path clip-path="url(#p12a280d8a8)" d="M 178.461742 151.5418 
L 181.158527 146.967513 
L 177.400627 146.996945 
z
" style="stroke:#000000;"/>
    <path clip-path="url(#p12a280d8a8)" d="M 180.816265 213.749418 
L 178.361952 209.196972 
L 182.115155 209.231879 
z
" style="stroke:#000000;"/>
    <path clip-path="url(#p12a280d8a8)" d="M 182.115155 209.231879 
L 182.214458 202.800624 
L 181.158527 207.356025 
z
" style="stroke:#000000;"/>
    <path clip-path="url(#p12a280d8a8)" d="M 182.214458 151.517115 
L 182.115155 145.086406 
L 181.158527 146.967513 
z
" style="stroke:#000000;"/>
    <path clip-path="url(#p12a280d8a8)" d="M 182.214458 202.800624 
L 177.400627 207.323006 
L 181.158527 207.356025 
z
" style="stroke:#000000;"/>
    <path clip-path="url(#p12a280d8a8)" d="M 178.361952 209.196972 
L 180.816265 213.749418 
L 177.056686 213.709765 
z
" style="stroke:#000000;"/>
    <path clip-path="url(#p12a280d8a8)" d="M 182.115155 145.086406 
L 177.056686 140.61206 
L 180.816265 140.576 
z
" style="stroke:#000000;"/>
    <path clip-path="url(#p12a280d8a8)" d="M 182.115155 209.231879 
L 181.158527 207.356025 
L 180.816265 213.749418 
z
" style="stroke:#000000;"/>
    <path clip-path="url(#p12a280d8a8)" d="M 181.158527 146.967513 
L 182.115155 145.086406 
L 180.816265 140.576 
z
" style="stroke:#000000;"/>
    <path clip-path="url(#p12a280d8a8)" d="M 177.056686 140.61206 
L 177.400627 146.996945 
L 176.170098 142.759514 
z
" style="stroke:#000000;"/>
    <path clip-path="url(#p12a280d8a8)" d="M 177.400627 207.323006 
L 177.056686 213.709765 
L 176.170098 211.567147 
z
" style="stroke:#000000;"/>
    <path clip-path="url(#p12a280d8a8)" d="M 176.170098 211.567147 
L 181.158527 207.356025 
L 177.400627 207.323006 
z
" style="stroke:#000000;"/>
    <path clip-path="url(#p12a280d8a8)" d="M 176.321023 138.548021 
L 180.816265 140.576 
L 177.056686 140.61206 
z
" style="stroke:#000000;"/>
    <path clip-path="url(#p12a280d8a8)" d="M 179.934006 142.72563 
L 177.400627 146.996945 
L 181.158527 146.967513 
z
" style="stroke:#000000;"/>
    <path clip-path="url(#p12a280d8a8)" d="M 177.056686 140.61206 
L 175.800409 139.246856 
L 176.321023 138.548021 
z
" style="stroke:#000000;"/>
    <path clip-path="url(#p12a280d8a8)" d="M 175.800409 215.081821 
L 177.056686 213.709765 
L 176.321023 215.777817 
z
" style="stroke:#000000;"/>
    <path clip-path="url(#p12a280d8a8)" d="M 180.084194 215.81966 
L 177.056686 213.709765 
L 180.816265 213.749418 
z
" style="stroke:#000000;"/>
    <path clip-path="url(#p12a280d8a8)" d="M 177.400627 146.996945 
L 179.934006 142.72563 
L 176.170098 142.759514 
z
" style="stroke:#000000;"/>
    <path clip-path="url(#p12a280d8a8)" d="M 177.056686 213.709765 
L 180.084194 215.81966 
L 176.321023 215.777817 
z
" style="stroke:#000000;"/>
    <path clip-path="url(#p12a280d8a8)" d="M 175.800409 139.246856 
L 177.056686 140.61206 
L 176.170098 142.759514 
z
" style="stroke:#000000;"/>
    <path clip-path="url(#p12a280d8a8)" d="M 177.056686 213.709765 
L 175.800409 215.081821 
L 176.170098 211.567147 
z
" style="stroke:#000000;"/>
    <path clip-path="url(#p12a280d8a8)" d="M 180.816265 213.749418 
L 181.158527 207.356025 
L 179.934006 211.604633 
z
" style="stroke:#000000;"/>
    <path clip-path="url(#p12a280d8a8)" d="M 181.158527 146.967513 
L 180.816265 140.576 
L 179.934006 142.72563 
z
" style="stroke:#000000;"/>
    <path clip-path="url(#p12a280d8a8)" d="M 181.158527 207.356025 
L 176.170098 211.567147 
L 179.934006 211.604633 
z
" style="stroke:#000000;"/>
    <path clip-path="url(#p12a280d8a8)" d="M 180.816265 140.576 
L 176.321023 138.548021 
L 180.084194 138.509778 
z
" style="stroke:#000000;"/>
    <path clip-path="url(#p12a280d8a8)" d="M 180.084194 215.81966 
L 175.800409 215.081821 
L 176.321023 215.777817 
z
" style="stroke:#000000;"/>
    <path clip-path="url(#p12a280d8a8)" d="M 179.56612 139.209307 
L 176.321023 138.548021 
L 175.800409 139.246856 
z
" style="stroke:#000000;"/>
    <path clip-path="url(#p12a280d8a8)" d="M 175.800409 139.246856 
L 176.170098 142.759514 
L 175.252697 140.192304 
z
" style="stroke:#000000;"/>
    <path clip-path="url(#p12a280d8a8)" d="M 176.170098 211.567147 
L 175.800409 215.081821 
L 175.252697 214.139359 
z
" style="stroke:#000000;"/>
    <path clip-path="url(#p12a280d8a8)" d="M 180.816265 213.749418 
L 179.56612 215.122976 
L 180.084194 215.81966 
z
" style="stroke:#000000;"/>
    <path clip-path="url(#p12a280d8a8)" d="M 179.56612 139.209307 
L 180.816265 140.576 
L 180.084194 138.509778 
z
" style="stroke:#000000;"/>
    <path clip-path="url(#p12a280d8a8)" d="M 176.321023 138.548021 
L 179.56612 139.209307 
L 180.084194 138.509778 
z
" style="stroke:#000000;"/>
    <path clip-path="url(#p12a280d8a8)" d="M 179.56612 215.122976 
L 180.816265 213.749418 
L 179.934006 211.604633 
z
" style="stroke:#000000;"/>
    <path clip-path="url(#p12a280d8a8)" d="M 180.816265 140.576 
L 179.56612 139.209307 
L 179.934006 142.72563 
z
" style="stroke:#000000;"/>
    <path clip-path="url(#p12a280d8a8)" d="M 179.934006 142.72563 
L 175.252697 140.192304 
L 176.170098 142.759514 
z
" style="stroke:#000000;"/>
    <path clip-path="url(#p12a280d8a8)" d="M 175.800409 215.081821 
L 180.084194 215.81966 
L 179.56612 215.122976 
z
" style="stroke:#000000;"/>
    <path clip-path="url(#p12a280d8a8)" d="M 176.170098 211.567147 
L 179.02108 214.179571 
L 179.934006 211.604633 
z
" style="stroke:#000000;"/>
    <path clip-path="url(#p12a280d8a8)" d="M 179.56612 215.122976 
L 175.252697 214.139359 
L 175.800409 215.081821 
z
" style="stroke:#000000;"/>
    <path clip-path="url(#p12a280d8a8)" d="M 179.02108 214.179571 
L 176.170098 211.567147 
L 175.252697 214.139359 
z
" style="stroke:#000000;"/>
    <path clip-path="url(#p12a280d8a8)" d="M 179.02108 140.155705 
L 175.800409 139.246856 
L 175.252697 140.192304 
z
" style="stroke:#000000;"/>
    <path clip-path="url(#p12a280d8a8)" d="M 175.800409 139.246856 
L 179.02108 140.155705 
L 179.56612 139.209307 
z
" style="stroke:#000000;"/>
    <path clip-path="url(#p12a280d8a8)" d="M 175.252697 140.192304 
L 179.934006 142.72563 
L 179.02108 140.155705 
z
" style="stroke:#000000;"/>
    <path clip-path="url(#p12a280d8a8)" d="M 179.56612 215.122976 
L 179.934006 211.604633 
L 179.02108 214.179571 
z
" style="stroke:#000000;"/>
    <path clip-path="url(#p12a280d8a8)" d="M 179.934006 142.72563 
L 179.56612 139.209307 
L 179.02108 140.155705 
z
" style="stroke:#000000;"/>
    <path clip-path="url(#p12a280d8a8)" d="M 175.252697 214.139359 
L 179.56612 215.122976 
L 179.02108 214.179571 
z
" style="stroke:#000000;"/>
   </g>
  </g>
 </g>
 <defs>
  <clipPath id="p12a280d8a8">
   <rect height="271.8" width="279" x="45" y="43.2"/>
  </clipPath>
 </defs>
</svg>
