<?xml version="1.0" encoding="utf-8" standalone="no"?>
<!DOCTYPE svg PUBLIC "-//W3C//DTD SVG 1.1//EN"
  "http://www.w3.org/Graphics/SVG/1.1/DTD/svg11.dtd">
<!-- Created with matplotlib (https://matplotlib.org/) -->
<svg height="360pt" version="1.1" viewBox="0 0 360 360" width="360pt" xmlns="http://www.w3.org/2000/svg" xmlns:xlink="http://www.w3.org/1999/xlink">
 <defs>
  <style type="text/css">
*{stroke-linecap:butt;stroke-linejoin:round;}
  </style>
 </defs>
 <g id="figure_1">
  <g id="patch_1">
   <path d="M 0 360 
L 360 360 
L 360 0 
L 0 0 
z
" style="fill:#ffffff;"/>
  </g>
  <g id="patch_2">
   <path d="M 45 315 
L 324 315 
L 324 43.2 
L 45 43.2 
z
" style="fill:#ffffff;"/>
  </g>
  <g id="axes_1">
   <g id="Poly3DCollection_1">
    <path clip-path="url(#pfea4a35858)" d="M 180.522951 144.336246 
L 181.099758 147.347042 
L 179.670426 145.197296 
z
" style="stroke:#000000;"/>
    <path clip-path="url(#pfea4a35858)" d="M 181.099758 206.914093 
L 180.522951 209.92358 
L 179.670426 209.060595 
z
" style="stroke:#000000;"/>
    <path clip-path="url(#pfea4a35858)" d="M 177.154783 145.147156 
L 180.522951 144.336246 
L 179.670426 145.197296 
z
" style="stroke:#000000;"/>
    <path clip-path="url(#pfea4a35858)" d="M 177.154783 209.11638 
L 181.099758 206.914093 
L 179.670426 209.060595 
z
" style="stroke:#000000;"/>
    <path clip-path="url(#pfea4a35858)" d="M 178.00729 209.980829 
L 179.670426 209.060595 
L 180.522951 209.92358 
z
" style="stroke:#000000;"/>
    <path clip-path="url(#pfea4a35858)" d="M 180.522951 144.336246 
L 182.487603 145.41824 
L 181.099758 147.347042 
z
" style="stroke:#000000;"/>
    <path clip-path="url(#pfea4a35858)" d="M 182.487603 208.846046 
L 180.522951 209.92358 
L 181.099758 206.914093 
z
" style="stroke:#000000;"/>
    <path clip-path="url(#pfea4a35858)" d="M 182.487603 145.41824 
L 180.522951 144.336246 
L 181.335559 143.688582 
z
" style="stroke:#000000;"/>
    <path clip-path="url(#pfea4a35858)" d="M 180.522951 209.92358 
L 182.487603 208.846046 
L 181.335559 210.573089 
z
" style="stroke:#000000;"/>
    <path clip-path="url(#pfea4a35858)" d="M 178.584086 147.300424 
L 179.670426 145.197296 
L 181.099758 147.347042 
z
" style="stroke:#000000;"/>
    <path clip-path="url(#pfea4a35858)" d="M 179.670426 209.060595 
L 178.00729 209.980829 
L 177.154783 209.11638 
z
" style="stroke:#000000;"/>
    <path clip-path="url(#pfea4a35858)" d="M 178.00729 144.284649 
L 181.335559 143.688582 
L 180.522951 144.336246 
z
" style="stroke:#000000;"/>
    <path clip-path="url(#pfea4a35858)" d="M 179.670426 145.197296 
L 178.584086 147.300424 
L 177.154783 145.147156 
z
" style="stroke:#000000;"/>
    <path clip-path="url(#pfea4a35858)" d="M 178.819882 210.631447 
L 180.522951 209.92358 
L 181.335559 210.573089 
z
" style="stroke:#000000;"/>
    <path clip-path="url(#pfea4a35858)" d="M 180.522951 144.336246 
L 177.154783 145.147156 
L 178.00729 144.284649 
z
" style="stroke:#000000;"/>
    <path clip-path="url(#pfea4a35858)" d="M 182.487603 145.41824 
L 183.027737 150.936332 
L 181.099758 147.347042 
z
" style="stroke:#000000;"/>
    <path clip-path="url(#pfea4a35858)" d="M 183.027737 203.329179 
L 182.487603 208.846046 
L 181.099758 206.914093 
z
" style="stroke:#000000;"/>
    <path clip-path="url(#pfea4a35858)" d="M 181.099758 206.914093 
L 177.154783 209.11638 
L 178.584086 206.966368 
z
" style="stroke:#000000;"/>
    <path clip-path="url(#pfea4a35858)" d="M 180.522951 209.92358 
L 178.819882 210.631447 
L 178.00729 209.980829 
z
" style="stroke:#000000;"/>
    <path clip-path="url(#pfea4a35858)" d="M 182.487603 208.846046 
L 178.819882 210.631447 
L 181.335559 210.573089 
z
" style="stroke:#000000;"/>
    <path clip-path="url(#pfea4a35858)" d="M 183.027737 150.936332 
L 178.584086 147.300424 
L 181.099758 147.347042 
z
" style="stroke:#000000;"/>
    <path clip-path="url(#pfea4a35858)" d="M 181.335559 143.688582 
L 178.00729 144.284649 
L 178.819882 143.635881 
z
" style="stroke:#000000;"/>
    <path clip-path="url(#pfea4a35858)" d="M 178.00729 209.980829 
L 178.584086 206.966368 
L 177.154783 209.11638 
z
" style="stroke:#000000;"/>
    <path clip-path="url(#pfea4a35858)" d="M 178.584086 147.300424 
L 178.00729 144.284649 
L 177.154783 145.147156 
z
" style="stroke:#000000;"/>
    <path clip-path="url(#pfea4a35858)" d="M 181.335559 143.688582 
L 179.971908 145.368373 
L 182.487603 145.41824 
z
" style="stroke:#000000;"/>
    <path clip-path="url(#pfea4a35858)" d="M 181.099758 206.914093 
L 180.512033 203.375562 
L 183.027737 203.329179 
z
" style="stroke:#000000;"/>
    <path clip-path="url(#pfea4a35858)" d="M 184.542599 149.238001 
L 183.027737 150.936332 
L 182.487603 145.41824 
z
" style="stroke:#000000;"/>
    <path clip-path="url(#pfea4a35858)" d="M 183.027737 203.329179 
L 184.542599 205.030949 
L 182.487603 208.846046 
z
" style="stroke:#000000;"/>
    <path clip-path="url(#pfea4a35858)" d="M 179.971908 145.368373 
L 181.335559 143.688582 
L 178.819882 143.635881 
z
" style="stroke:#000000;"/>
    <path clip-path="url(#pfea4a35858)" d="M 180.512033 203.375562 
L 181.099758 206.914093 
L 178.584086 206.966368 
z
" style="stroke:#000000;"/>
    <path clip-path="url(#pfea4a35858)" d="M 178.819882 210.631447 
L 182.487603 208.846046 
L 179.971908 208.90158 
z
" style="stroke:#000000;"/>
    <path clip-path="url(#pfea4a35858)" d="M 178.00729 209.980829 
L 179.971908 208.90158 
L 178.584086 206.966368 
z
" style="stroke:#000000;"/>
    <path clip-path="url(#pfea4a35858)" d="M 179.971908 145.368373 
L 178.00729 144.284649 
L 178.584086 147.300424 
z
" style="stroke:#000000;"/>
    <path clip-path="url(#pfea4a35858)" d="M 179.971908 208.90158 
L 178.00729 209.980829 
L 178.819882 210.631447 
z
" style="stroke:#000000;"/>
    <path clip-path="url(#pfea4a35858)" d="M 178.00729 144.284649 
L 179.971908 145.368373 
L 178.819882 143.635881 
z
" style="stroke:#000000;"/>
    <path clip-path="url(#pfea4a35858)" d="M 184.542599 205.030949 
L 179.971908 208.90158 
L 182.487603 208.846046 
z
" style="stroke:#000000;"/>
    <path clip-path="url(#pfea4a35858)" d="M 178.584086 147.300424 
L 183.027737 150.936332 
L 180.512033 150.895621 
z
" style="stroke:#000000;"/>
    <path clip-path="url(#pfea4a35858)" d="M 184.542599 149.238001 
L 184.700288 154.82592 
L 183.027737 150.936332 
z
" style="stroke:#000000;"/>
    <path clip-path="url(#pfea4a35858)" d="M 184.700288 199.443388 
L 184.542599 205.030949 
L 183.027737 203.329179 
z
" style="stroke:#000000;"/>
    <path clip-path="url(#pfea4a35858)" d="M 184.700288 154.82592 
L 180.512033 150.895621 
L 183.027737 150.936332 
z
" style="stroke:#000000;"/>
    <path clip-path="url(#pfea4a35858)" d="M 182.487603 145.41824 
L 182.026876 149.194422 
L 184.542599 149.238001 
z
" style="stroke:#000000;"/>
    <path clip-path="url(#pfea4a35858)" d="M 179.971908 208.90158 
L 180.512033 203.375562 
L 178.584086 206.966368 
z
" style="stroke:#000000;"/>
    <path clip-path="url(#pfea4a35858)" d="M 180.512033 150.895621 
L 179.971908 145.368373 
L 178.584086 147.300424 
z
" style="stroke:#000000;"/>
    <path clip-path="url(#pfea4a35858)" d="M 182.026876 149.194422 
L 182.487603 145.41824 
L 179.971908 145.368373 
z
" style="stroke:#000000;"/>
    <path clip-path="url(#pfea4a35858)" d="M 183.027737 203.329179 
L 182.184563 199.483356 
L 184.700288 199.443388 
z
" style="stroke:#000000;"/>
    <path clip-path="url(#pfea4a35858)" d="M 186.325623 153.378165 
L 184.700288 154.82592 
L 184.542599 149.238001 
z
" style="stroke:#000000;"/>
    <path clip-path="url(#pfea4a35858)" d="M 184.700288 199.443388 
L 186.325623 200.894833 
L 184.542599 205.030949 
z
" style="stroke:#000000;"/>
    <path clip-path="url(#pfea4a35858)" d="M 182.184563 199.483356 
L 183.027737 203.329179 
L 180.512033 203.375562 
z
" style="stroke:#000000;"/>
    <path clip-path="url(#pfea4a35858)" d="M 179.971908 208.90158 
L 184.542599 205.030949 
L 182.026876 205.08021 
z
" style="stroke:#000000;"/>
    <path clip-path="url(#pfea4a35858)" d="M 184.700288 154.82592 
L 186.325623 153.378165 
L 186.097306 158.971833 
z
" style="stroke:#000000;"/>
    <path clip-path="url(#pfea4a35858)" d="M 186.325623 200.894833 
L 184.700288 199.443388 
L 186.097306 195.300647 
z
" style="stroke:#000000;"/>
    <path clip-path="url(#pfea4a35858)" d="M 180.512033 150.895621 
L 184.700288 154.82592 
L 182.184563 154.791636 
z
" style="stroke:#000000;"/>
    <path clip-path="url(#pfea4a35858)" d="M 182.026876 205.08021 
L 180.512033 203.375562 
L 179.971908 208.90158 
z
" style="stroke:#000000;"/>
    <path clip-path="url(#pfea4a35858)" d="M 180.512033 150.895621 
L 182.026876 149.194422 
L 179.971908 145.368373 
z
" style="stroke:#000000;"/>
    <path clip-path="url(#pfea4a35858)" d="M 186.325623 200.894833 
L 182.026876 205.08021 
L 184.542599 205.030949 
z
" style="stroke:#000000;"/>
    <path clip-path="url(#pfea4a35858)" d="M 186.097306 158.971833 
L 182.184563 154.791636 
L 184.700288 154.82592 
z
" style="stroke:#000000;"/>
    <path clip-path="url(#pfea4a35858)" d="M 184.700288 199.443388 
L 183.581569 195.333751 
L 186.097306 195.300647 
z
" style="stroke:#000000;"/>
    <path clip-path="url(#pfea4a35858)" d="M 184.542599 149.238001 
L 183.809884 153.341432 
L 186.325623 153.378165 
z
" style="stroke:#000000;"/>
    <path clip-path="url(#pfea4a35858)" d="M 182.026876 205.08021 
L 182.184563 199.483356 
L 180.512033 203.375562 
z
" style="stroke:#000000;"/>
    <path clip-path="url(#pfea4a35858)" d="M 182.184563 154.791636 
L 182.026876 149.194422 
L 180.512033 150.895621 
z
" style="stroke:#000000;"/>
    <path clip-path="url(#pfea4a35858)" d="M 187.815129 157.792337 
L 186.097306 158.971833 
L 186.325623 153.378165 
z
" style="stroke:#000000;"/>
    <path clip-path="url(#pfea4a35858)" d="M 186.097306 195.300647 
L 187.815129 196.484042 
L 186.325623 200.894833 
z
" style="stroke:#000000;"/>
    <path clip-path="url(#pfea4a35858)" d="M 183.809884 153.341432 
L 184.542599 149.238001 
L 182.026876 149.194422 
z
" style="stroke:#000000;"/>
    <path clip-path="url(#pfea4a35858)" d="M 183.581569 195.333751 
L 184.700288 199.443388 
L 182.184563 199.483356 
z
" style="stroke:#000000;"/>
    <path clip-path="url(#pfea4a35858)" d="M 186.097306 158.971833 
L 187.815129 157.792337 
L 187.201911 163.327012 
z
" style="stroke:#000000;"/>
    <path clip-path="url(#pfea4a35858)" d="M 187.815129 196.484042 
L 186.097306 195.300647 
L 187.201911 190.947975 
z
" style="stroke:#000000;"/>
    <path clip-path="url(#pfea4a35858)" d="M 187.201911 163.327012 
L 183.581569 158.944423 
L 186.097306 158.971833 
z
" style="stroke:#000000;"/>
    <path clip-path="url(#pfea4a35858)" d="M 182.184563 154.791636 
L 186.097306 158.971833 
L 183.581569 158.944423 
z
" style="stroke:#000000;"/>
    <path clip-path="url(#pfea4a35858)" d="M 182.026876 205.08021 
L 186.325623 200.894833 
L 183.809884 200.937262 
z
" style="stroke:#000000;"/>
    <path clip-path="url(#pfea4a35858)" d="M 187.815129 196.484042 
L 183.809884 200.937262 
L 186.325623 200.894833 
z
" style="stroke:#000000;"/>
    <path clip-path="url(#pfea4a35858)" d="M 186.097306 195.300647 
L 184.686166 190.973848 
L 187.201911 190.947975 
z
" style="stroke:#000000;"/>
    <path clip-path="url(#pfea4a35858)" d="M 183.809884 200.937262 
L 182.184563 199.483356 
L 182.026876 205.08021 
z
" style="stroke:#000000;"/>
    <path clip-path="url(#pfea4a35858)" d="M 182.184563 154.791636 
L 183.809884 153.341432 
L 182.026876 149.194422 
z
" style="stroke:#000000;"/>
    <path clip-path="url(#pfea4a35858)" d="M 188.99297 162.430074 
L 187.201911 163.327012 
L 187.815129 157.792337 
z
" style="stroke:#000000;"/>
    <path clip-path="url(#pfea4a35858)" d="M 187.201911 190.947975 
L 188.99297 191.848979 
L 187.815129 196.484042 
z
" style="stroke:#000000;"/>
    <path clip-path="url(#pfea4a35858)" d="M 187.201911 163.327012 
L 188.99297 162.430074 
L 188.000681 167.841567 
z
" style="stroke:#000000;"/>
    <path clip-path="url(#pfea4a35858)" d="M 188.99297 191.848979 
L 187.201911 190.947975 
L 188.000681 186.435234 
z
" style="stroke:#000000;"/>
    <path clip-path="url(#pfea4a35858)" d="M 184.686166 190.973848 
L 186.097306 195.300647 
L 183.581569 195.333751 
z
" style="stroke:#000000;"/>
    <path clip-path="url(#pfea4a35858)" d="M 186.325623 153.378165 
L 185.299381 157.762929 
L 187.815129 157.792337 
z
" style="stroke:#000000;"/>
    <path clip-path="url(#pfea4a35858)" d="M 182.184563 199.483356 
L 183.809884 200.937262 
L 183.581569 195.333751 
z
" style="stroke:#000000;"/>
    <path clip-path="url(#pfea4a35858)" d="M 183.809884 153.341432 
L 182.184563 154.791636 
L 183.581569 158.944423 
z
" style="stroke:#000000;"/>
    <path clip-path="url(#pfea4a35858)" d="M 188.000681 167.841567 
L 184.686166 163.306841 
L 187.201911 163.327012 
z
" style="stroke:#000000;"/>
    <path clip-path="url(#pfea4a35858)" d="M 185.299381 157.762929 
L 186.325623 153.378165 
L 183.809884 153.341432 
z
" style="stroke:#000000;"/>
    <path clip-path="url(#pfea4a35858)" d="M 183.581569 158.944423 
L 187.201911 163.327012 
L 184.686166 163.306841 
z
" style="stroke:#000000;"/>
    <path clip-path="url(#pfea4a35858)" d="M 187.201911 190.947975 
L 185.484933 186.453594 
L 188.000681 186.435234 
z
" style="stroke:#000000;"/>
    <path clip-path="url(#pfea4a35858)" d="M 188.000681 167.841567 
L 189.84478 167.238143 
L 188.483874 172.463423 
z
" style="stroke:#000000;"/>
    <path clip-path="url(#pfea4a35858)" d="M 189.84478 187.042843 
L 188.000681 186.435234 
L 188.483874 181.814474 
z
" style="stroke:#000000;"/>
    <path clip-path="url(#pfea4a35858)" d="M 189.84478 167.238143 
L 188.000681 167.841567 
L 188.99297 162.430074 
z
" style="stroke:#000000;"/>
    <path clip-path="url(#pfea4a35858)" d="M 188.000681 186.435234 
L 189.84478 187.042843 
L 188.99297 191.848979 
z
" style="stroke:#000000;"/>
    <path clip-path="url(#pfea4a35858)" d="M 183.809884 200.937262 
L 187.815129 196.484042 
L 185.299381 196.519157 
z
" style="stroke:#000000;"/>
    <path clip-path="url(#pfea4a35858)" d="M 188.483874 172.463423 
L 185.484933 167.828915 
L 188.000681 167.841567 
z
" style="stroke:#000000;"/>
    <path clip-path="url(#pfea4a35858)" d="M 188.99297 191.848979 
L 185.299381 196.519157 
L 187.815129 196.484042 
z
" style="stroke:#000000;"/>
    <path clip-path="url(#pfea4a35858)" d="M 185.484933 186.453594 
L 187.201911 190.947975 
L 184.686166 190.973848 
z
" style="stroke:#000000;"/>
    <path clip-path="url(#pfea4a35858)" d="M 188.000681 186.435234 
L 185.968125 181.825131 
L 188.483874 181.814474 
z
" style="stroke:#000000;"/>
    <path clip-path="url(#pfea4a35858)" d="M 190.360096 182.121224 
L 188.483874 181.814474 
L 188.645607 177.139132 
z
" style="stroke:#000000;"/>
    <path clip-path="url(#pfea4a35858)" d="M 188.483874 172.463423 
L 190.360096 172.160932 
L 188.645607 177.139132 
z
" style="stroke:#000000;"/>
    <path clip-path="url(#pfea4a35858)" d="M 185.299381 196.519157 
L 183.581569 195.333751 
L 183.809884 200.937262 
z
" style="stroke:#000000;"/>
    <path clip-path="url(#pfea4a35858)" d="M 183.581569 158.944423 
L 185.299381 157.762929 
L 183.809884 153.341432 
z
" style="stroke:#000000;"/>
    <path clip-path="url(#pfea4a35858)" d="M 188.645607 177.139132 
L 185.968125 172.458478 
L 188.483874 172.463423 
z
" style="stroke:#000000;"/>
    <path clip-path="url(#pfea4a35858)" d="M 184.686166 163.306841 
L 188.000681 167.841567 
L 185.484933 167.828915 
z
" style="stroke:#000000;"/>
    <path clip-path="url(#pfea4a35858)" d="M 188.483874 181.814474 
L 186.129857 177.141989 
L 188.645607 177.139132 
z
" style="stroke:#000000;"/>
    <path clip-path="url(#pfea4a35858)" d="M 187.815129 157.792337 
L 186.477219 162.408383 
L 188.99297 162.430074 
z
" style="stroke:#000000;"/>
    <path clip-path="url(#pfea4a35858)" d="M 183.581569 195.333751 
L 185.299381 196.519157 
L 184.686166 190.973848 
z
" style="stroke:#000000;"/>
    <path clip-path="url(#pfea4a35858)" d="M 185.299381 157.762929 
L 183.581569 158.944423 
L 184.686166 163.306841 
z
" style="stroke:#000000;"/>
    <path clip-path="url(#pfea4a35858)" d="M 190.360096 172.160932 
L 188.483874 172.463423 
L 189.84478 167.238143 
z
" style="stroke:#000000;"/>
    <path clip-path="url(#pfea4a35858)" d="M 188.483874 181.814474 
L 190.360096 182.121224 
L 189.84478 187.042843 
z
" style="stroke:#000000;"/>
    <path clip-path="url(#pfea4a35858)" d="M 185.968125 181.825131 
L 188.000681 186.435234 
L 185.484933 186.453594 
z
" style="stroke:#000000;"/>
    <path clip-path="url(#pfea4a35858)" d="M 190.532571 177.141274 
L 188.645607 177.139132 
L 190.360096 172.160932 
z
" style="stroke:#000000;"/>
    <path clip-path="url(#pfea4a35858)" d="M 188.645607 177.139132 
L 190.532571 177.141274 
L 190.360096 182.121224 
z
" style="stroke:#000000;"/>
    <path clip-path="url(#pfea4a35858)" d="M 186.477219 162.408383 
L 187.815129 157.792337 
L 185.299381 157.762929 
z
" style="stroke:#000000;"/>
    <path clip-path="url(#pfea4a35858)" d="M 185.484933 167.828915 
L 188.483874 172.463423 
L 185.968125 172.458478 
z
" style="stroke:#000000;"/>
    <path clip-path="url(#pfea4a35858)" d="M 189.84478 187.042843 
L 186.477219 191.876386 
L 188.99297 191.848979 
z
" style="stroke:#000000;"/>
    <path clip-path="url(#pfea4a35858)" d="M 186.129857 177.141989 
L 188.483874 181.814474 
L 185.968125 181.825131 
z
" style="stroke:#000000;"/>
    <path clip-path="url(#pfea4a35858)" d="M 185.968125 172.458478 
L 188.645607 177.139132 
L 186.129857 177.141989 
z
" style="stroke:#000000;"/>
    <path clip-path="url(#pfea4a35858)" d="M 185.299381 196.519157 
L 188.99297 191.848979 
L 186.477219 191.876386 
z
" style="stroke:#000000;"/>
    <path clip-path="url(#pfea4a35858)" d="M 188.99297 162.430074 
L 187.32903 167.224469 
L 189.84478 167.238143 
z
" style="stroke:#000000;"/>
    <path clip-path="url(#pfea4a35858)" d="M 193.05588 156.14338 
L 188.331571 146.687606 
L 189.903059 147.25303 
z
" style="stroke:#000000;"/>
    <path clip-path="url(#pfea4a35858)" d="M 193.05588 141.824681 
L 189.903059 147.25303 
L 188.331571 146.687606 
z
" style="stroke:#000000;"/>
    <path clip-path="url(#pfea4a35858)" d="M 186.477219 191.876386 
L 184.686166 190.973848 
L 185.299381 196.519157 
z
" style="stroke:#000000;"/>
    <path clip-path="url(#pfea4a35858)" d="M 184.686166 163.306841 
L 186.477219 162.408383 
L 185.299381 157.762929 
z
" style="stroke:#000000;"/>
    <path clip-path="url(#pfea4a35858)" d="M 184.686166 190.973848 
L 186.477219 191.876386 
L 185.484933 186.453594 
z
" style="stroke:#000000;"/>
    <path clip-path="url(#pfea4a35858)" d="M 186.477219 162.408383 
L 184.686166 163.306841 
L 185.484933 167.828915 
z
" style="stroke:#000000;"/>
    <path clip-path="url(#pfea4a35858)" d="M 185.815822 146.639663 
L 193.05588 141.824681 
L 188.331571 146.687606 
z
" style="stroke:#000000;"/>
    <path clip-path="url(#pfea4a35858)" d="M 193.05588 160.916279 
L 185.815822 146.639663 
L 188.331571 146.687606 
z
" style="stroke:#000000;"/>
    <path clip-path="url(#pfea4a35858)" d="M 190.360096 182.121224 
L 187.32903 187.06224 
L 189.84478 187.042843 
z
" style="stroke:#000000;"/>
    <path clip-path="url(#pfea4a35858)" d="M 187.32903 167.224469 
L 188.99297 162.430074 
L 186.477219 162.408383 
z
" style="stroke:#000000;"/>
    <path clip-path="url(#pfea4a35858)" d="M 189.84478 167.238143 
L 187.844346 172.155476 
L 190.360096 172.160932 
z
" style="stroke:#000000;"/>
    <path clip-path="url(#pfea4a35858)" d="M 186.477219 191.876386 
L 189.84478 187.042843 
L 187.32903 187.06224 
z
" style="stroke:#000000;"/>
    <path clip-path="url(#pfea4a35858)" d="M 190.532571 177.141274 
L 187.844346 182.132406 
L 190.360096 182.121224 
z
" style="stroke:#000000;"/>
    <path clip-path="url(#pfea4a35858)" d="M 185.484933 186.453594 
L 187.32903 187.06224 
L 185.968125 181.825131 
z
" style="stroke:#000000;"/>
    <path clip-path="url(#pfea4a35858)" d="M 187.32903 167.224469 
L 185.484933 167.828915 
L 185.968125 172.458478 
z
" style="stroke:#000000;"/>
    <path clip-path="url(#pfea4a35858)" d="M 190.360096 172.160932 
L 188.016822 177.144138 
L 190.532571 177.141274 
z
" style="stroke:#000000;"/>
    <path clip-path="url(#pfea4a35858)" d="M 187.32903 187.06224 
L 185.484933 186.453594 
L 186.477219 191.876386 
z
" style="stroke:#000000;"/>
    <path clip-path="url(#pfea4a35858)" d="M 185.484933 167.828915 
L 187.32903 167.224469 
L 186.477219 162.408383 
z
" style="stroke:#000000;"/>
    <path clip-path="url(#pfea4a35858)" d="M 193.05588 156.14338 
L 193.05588 160.916279 
L 188.331571 146.687606 
z
" style="stroke:#000000;"/>
    <path clip-path="url(#pfea4a35858)" d="M 187.844346 172.155476 
L 185.968125 172.458478 
L 186.129857 177.141989 
z
" style="stroke:#000000;"/>
    <path clip-path="url(#pfea4a35858)" d="M 185.968125 181.825131 
L 187.844346 182.132406 
L 186.129857 177.141989 
z
" style="stroke:#000000;"/>
    <path clip-path="url(#pfea4a35858)" d="M 187.844346 172.155476 
L 189.84478 167.238143 
L 187.32903 167.224469 
z
" style="stroke:#000000;"/>
    <path clip-path="url(#pfea4a35858)" d="M 187.32903 187.06224 
L 190.360096 182.121224 
L 187.844346 182.132406 
z
" style="stroke:#000000;"/>
    <path clip-path="url(#pfea4a35858)" d="M 193.05588 141.824681 
L 193.05588 144.211131 
L 189.903059 147.25303 
z
" style="stroke:#000000;"/>
    <path clip-path="url(#pfea4a35858)" d="M 187.844346 182.132406 
L 185.968125 181.825131 
L 187.32903 187.06224 
z
" style="stroke:#000000;"/>
    <path clip-path="url(#pfea4a35858)" d="M 185.968125 172.458478 
L 187.844346 172.155476 
L 187.32903 167.224469 
z
" style="stroke:#000000;"/>
    <path clip-path="url(#pfea4a35858)" d="M 188.016822 177.144138 
L 190.360096 172.160932 
L 187.844346 172.155476 
z
" style="stroke:#000000;"/>
    <path clip-path="url(#pfea4a35858)" d="M 187.844346 182.132406 
L 190.532571 177.141274 
L 188.016822 177.144138 
z
" style="stroke:#000000;"/>
    <path clip-path="url(#pfea4a35858)" d="M 188.016822 177.144138 
L 186.129857 177.141989 
L 187.844346 182.132406 
z
" style="stroke:#000000;"/>
    <path clip-path="url(#pfea4a35858)" d="M 186.129857 177.141989 
L 188.016822 177.144138 
L 187.844346 172.155476 
z
" style="stroke:#000000;"/>
    <path clip-path="url(#pfea4a35858)" d="M 189.903059 147.25303 
L 190.540143 144.158893 
L 187.387308 147.20598 
z
" style="stroke:#000000;"/>
    <path clip-path="url(#pfea4a35858)" d="M 190.540143 156.11111 
L 189.903059 147.25303 
L 187.387308 147.20598 
z
" style="stroke:#000000;"/>
    <path clip-path="url(#pfea4a35858)" d="M 190.540143 144.158893 
L 189.903059 147.25303 
L 193.05588 144.211131 
z
" style="stroke:#000000;"/>
    <path clip-path="url(#pfea4a35858)" d="M 189.903059 147.25303 
L 190.540143 156.11111 
L 193.05588 156.14338 
z
" style="stroke:#000000;"/>
    <path clip-path="url(#pfea4a35858)" d="M 185.815822 146.639663 
L 190.540143 156.11111 
L 187.387308 147.20598 
z
" style="stroke:#000000;"/>
    <path clip-path="url(#pfea4a35858)" d="M 187.387308 147.20598 
L 190.540143 141.768449 
L 185.815822 146.639663 
z
" style="stroke:#000000;"/>
    <path clip-path="url(#pfea4a35858)" d="M 193.05588 141.824681 
L 185.815822 146.639663 
L 190.540143 141.768449 
z
" style="stroke:#000000;"/>
    <path clip-path="url(#pfea4a35858)" d="M 185.815822 146.639663 
L 193.05588 160.916279 
L 190.540143 160.891996 
z
" style="stroke:#000000;"/>
    <path clip-path="url(#pfea4a35858)" d="M 190.540143 156.11111 
L 185.815822 146.639663 
L 190.540143 160.891996 
z
" style="stroke:#000000;"/>
    <path clip-path="url(#pfea4a35858)" d="M 193.05588 141.824681 
L 196.221896 147.135111 
L 193.05588 144.211131 
z
" style="stroke:#000000;"/>
    <path clip-path="url(#pfea4a35858)" d="M 190.540143 141.768449 
L 187.387308 147.20598 
L 190.540143 144.158893 
z
" style="stroke:#000000;"/>
    <path clip-path="url(#pfea4a35858)" d="M 193.05588 156.14338 
L 197.809879 146.506989 
L 193.05588 160.916279 
z
" style="stroke:#000000;"/>
    <path clip-path="url(#pfea4a35858)" d="M 190.540143 141.768449 
L 197.809879 146.506989 
L 193.05588 141.824681 
z
" style="stroke:#000000;"/>
    <path clip-path="url(#pfea4a35858)" d="M 197.809879 146.506989 
L 190.540143 160.891996 
L 193.05588 160.916279 
z
" style="stroke:#000000;"/>
    <path clip-path="url(#pfea4a35858)" d="M 196.221896 147.135111 
L 193.05588 141.824681 
L 197.809879 146.506989 
z
" style="stroke:#000000;"/>
    <path clip-path="url(#pfea4a35858)" d="M 197.809879 146.506989 
L 193.05588 156.14338 
L 196.221896 147.135111 
z
" style="stroke:#000000;"/>
    <path clip-path="url(#pfea4a35858)" d="M 193.05588 144.211131 
L 193.706195 147.087666 
L 190.540143 144.158893 
z
" style="stroke:#000000;"/>
    <path clip-path="url(#pfea4a35858)" d="M 193.706195 147.087666 
L 193.05588 156.14338 
L 190.540143 156.11111 
z
" style="stroke:#000000;"/>
    <path clip-path="url(#pfea4a35858)" d="M 193.706195 147.087666 
L 193.05588 144.211131 
L 196.221896 147.135111 
z
" style="stroke:#000000;"/>
    <path clip-path="url(#pfea4a35858)" d="M 193.05588 156.14338 
L 193.706195 147.087666 
L 196.221896 147.135111 
z
" style="stroke:#000000;"/>
    <path clip-path="url(#pfea4a35858)" d="M 197.492016 177.149173 
L 195.587633 177.147011 
L 195.761305 172.149251 
z
" style="stroke:#000000;"/>
    <path clip-path="url(#pfea4a35858)" d="M 195.587633 177.147011 
L 197.492016 177.149173 
L 195.761305 182.145165 
z
" style="stroke:#000000;"/>
    <path clip-path="url(#pfea4a35858)" d="M 195.761305 182.145165 
L 193.071923 177.149894 
L 195.587633 177.147011 
z
" style="stroke:#000000;"/>
    <path clip-path="url(#pfea4a35858)" d="M 195.587633 177.147011 
L 193.245598 172.143756 
L 195.761305 172.149251 
z
" style="stroke:#000000;"/>
    <path clip-path="url(#pfea4a35858)" d="M 197.655686 172.445402 
L 195.761305 172.149251 
L 196.280669 167.203234 
z
" style="stroke:#000000;"/>
    <path clip-path="url(#pfea4a35858)" d="M 195.761305 182.145165 
L 197.655686 181.853315 
L 196.280669 187.092362 
z
" style="stroke:#000000;"/>
    <path clip-path="url(#pfea4a35858)" d="M 193.706195 147.087666 
L 190.540143 141.768449 
L 190.540143 144.158893 
z
" style="stroke:#000000;"/>
    <path clip-path="url(#pfea4a35858)" d="M 196.280669 187.092362 
L 193.245598 182.156428 
L 195.761305 182.145165 
z
" style="stroke:#000000;"/>
    <path clip-path="url(#pfea4a35858)" d="M 195.761305 172.149251 
L 193.764969 167.189442 
L 196.280669 167.203234 
z
" style="stroke:#000000;"/>
    <path clip-path="url(#pfea4a35858)" d="M 197.655686 181.853315 
L 195.761305 182.145165 
L 197.492016 177.149173 
z
" style="stroke:#000000;"/>
    <path clip-path="url(#pfea4a35858)" d="M 195.761305 172.149251 
L 197.655686 172.445402 
L 197.492016 177.149173 
z
" style="stroke:#000000;"/>
    <path clip-path="url(#pfea4a35858)" d="M 195.294204 146.458441 
L 190.540143 156.11111 
L 190.540143 160.891996 
z
" style="stroke:#000000;"/>
    <path clip-path="url(#pfea4a35858)" d="M 198.145088 167.790533 
L 196.280669 167.203234 
L 197.14073 162.35989 
z
" style="stroke:#000000;"/>
    <path clip-path="url(#pfea4a35858)" d="M 196.280669 187.092362 
L 198.145088 186.509294 
L 197.14073 191.937658 
z
" style="stroke:#000000;"/>
    <path clip-path="url(#pfea4a35858)" d="M 193.245598 172.143756 
L 195.587633 177.147011 
L 193.071923 177.149894 
z
" style="stroke:#000000;"/>
    <path clip-path="url(#pfea4a35858)" d="M 196.280669 167.203234 
L 198.145088 167.790533 
L 197.655686 172.445402 
z
" style="stroke:#000000;"/>
    <path clip-path="url(#pfea4a35858)" d="M 198.145088 186.509294 
L 196.280669 187.092362 
L 197.655686 181.853315 
z
" style="stroke:#000000;"/>
    <path clip-path="url(#pfea4a35858)" d="M 193.071923 177.149894 
L 195.761305 182.145165 
L 193.245598 182.156428 
z
" style="stroke:#000000;"/>
    <path clip-path="url(#pfea4a35858)" d="M 197.14073 191.937658 
L 193.764969 187.111925 
L 196.280669 187.092362 
z
" style="stroke:#000000;"/>
    <path clip-path="url(#pfea4a35858)" d="M 193.764969 167.189442 
L 195.761305 172.149251 
L 193.245598 172.143756 
z
" style="stroke:#000000;"/>
    <path clip-path="url(#pfea4a35858)" d="M 196.280669 167.203234 
L 194.625043 162.337963 
L 197.14073 162.35989 
z
" style="stroke:#000000;"/>
    <path clip-path="url(#pfea4a35858)" d="M 193.245598 182.156428 
L 196.280669 187.092362 
L 193.764969 187.111925 
z
" style="stroke:#000000;"/>
    <path clip-path="url(#pfea4a35858)" d="M 197.809879 146.506989 
L 190.540143 141.768449 
L 195.294204 146.458441 
z
" style="stroke:#000000;"/>
    <path clip-path="url(#pfea4a35858)" d="M 190.540143 160.891996 
L 197.809879 146.506989 
L 195.294204 146.458441 
z
" style="stroke:#000000;"/>
    <path clip-path="url(#pfea4a35858)" d="M 197.14073 162.35989 
L 198.955504 163.232642 
L 198.145088 167.790533 
z
" style="stroke:#000000;"/>
    <path clip-path="url(#pfea4a35858)" d="M 198.955504 191.069025 
L 197.14073 191.937658 
L 198.145088 186.509294 
z
" style="stroke:#000000;"/>
    <path clip-path="url(#pfea4a35858)" d="M 198.955504 163.232642 
L 197.14073 162.35989 
L 198.333193 157.66931 
z
" style="stroke:#000000;"/>
    <path clip-path="url(#pfea4a35858)" d="M 197.14073 191.937658 
L 198.955504 191.069025 
L 198.333193 196.630945 
z
" style="stroke:#000000;"/>
    <path clip-path="url(#pfea4a35858)" d="M 190.540143 141.768449 
L 193.706195 147.087666 
L 195.294204 146.458441 
z
" style="stroke:#000000;"/>
    <path clip-path="url(#pfea4a35858)" d="M 190.540143 156.11111 
L 195.294204 146.458441 
L 193.706195 147.087666 
z
" style="stroke:#000000;"/>
    <path clip-path="url(#pfea4a35858)" d="M 194.625043 162.337963 
L 196.280669 167.203234 
L 193.764969 167.189442 
z
" style="stroke:#000000;"/>
    <path clip-path="url(#pfea4a35858)" d="M 198.333193 196.630945 
L 194.625043 191.965362 
L 197.14073 191.937658 
z
" style="stroke:#000000;"/>
    <path clip-path="url(#pfea4a35858)" d="M 197.655686 172.445402 
L 194.976336 177.152063 
L 197.492016 177.149173 
z
" style="stroke:#000000;"/>
    <path clip-path="url(#pfea4a35858)" d="M 197.492016 177.149173 
L 195.140009 181.864102 
L 197.655686 181.853315 
z
" style="stroke:#000000;"/>
    <path clip-path="url(#pfea4a35858)" d="M 193.764969 187.111925 
L 197.14073 191.937658 
L 194.625043 191.965362 
z
" style="stroke:#000000;"/>
    <path clip-path="url(#pfea4a35858)" d="M 198.145088 167.790533 
L 195.140009 172.440397 
L 197.655686 172.445402 
z
" style="stroke:#000000;"/>
    <path clip-path="url(#pfea4a35858)" d="M 197.14073 162.35989 
L 195.817528 157.639489 
L 198.333193 157.66931 
z
" style="stroke:#000000;"/>
    <path clip-path="url(#pfea4a35858)" d="M 194.976336 177.152063 
L 193.071923 177.149894 
L 193.245598 182.156428 
z
" style="stroke:#000000;"/>
    <path clip-path="url(#pfea4a35858)" d="M 193.071923 177.149894 
L 194.976336 177.152063 
L 193.245598 172.143756 
z
" style="stroke:#000000;"/>
    <path clip-path="url(#pfea4a35858)" d="M 197.655686 181.853315 
L 195.62942 186.527902 
L 198.145088 186.509294 
z
" style="stroke:#000000;"/>
    <path clip-path="url(#pfea4a35858)" d="M 195.140009 181.864102 
L 193.245598 182.156428 
L 193.764969 187.111925 
z
" style="stroke:#000000;"/>
    <path clip-path="url(#pfea4a35858)" d="M 193.245598 172.143756 
L 195.140009 172.440397 
L 193.764969 167.189442 
z
" style="stroke:#000000;"/>
    <path clip-path="url(#pfea4a35858)" d="M 198.333193 157.66931 
L 200.079059 158.819056 
L 198.955504 163.232642 
z
" style="stroke:#000000;"/>
    <path clip-path="url(#pfea4a35858)" d="M 200.079059 195.485162 
L 198.333193 196.630945 
L 198.955504 191.069025 
z
" style="stroke:#000000;"/>
    <path clip-path="url(#pfea4a35858)" d="M 195.817528 157.639489 
L 197.14073 162.35989 
L 194.625043 162.337963 
z
" style="stroke:#000000;"/>
    <path clip-path="url(#pfea4a35858)" d="M 195.140009 181.864102 
L 197.492016 177.149173 
L 194.976336 177.152063 
z
" style="stroke:#000000;"/>
    <path clip-path="url(#pfea4a35858)" d="M 198.955504 163.232642 
L 195.62942 167.777711 
L 198.145088 167.790533 
z
" style="stroke:#000000;"/>
    <path clip-path="url(#pfea4a35858)" d="M 194.976336 177.152063 
L 197.655686 172.445402 
L 195.140009 172.440397 
z
" style="stroke:#000000;"/>
    <path clip-path="url(#pfea4a35858)" d="M 200.079059 158.819056 
L 198.333193 157.66931 
L 199.846554 153.180231 
z
" style="stroke:#000000;"/>
    <path clip-path="url(#pfea4a35858)" d="M 198.333193 196.630945 
L 200.079059 195.485162 
L 199.846554 201.123459 
z
" style="stroke:#000000;"/>
    <path clip-path="url(#pfea4a35858)" d="M 195.140009 172.440397 
L 193.245598 172.143756 
L 194.976336 177.152063 
z
" style="stroke:#000000;"/>
    <path clip-path="url(#pfea4a35858)" d="M 193.245598 182.156428 
L 195.140009 181.864102 
L 194.976336 177.152063 
z
" style="stroke:#000000;"/>
    <path clip-path="url(#pfea4a35858)" d="M 195.62942 186.527902 
L 197.655686 181.853315 
L 195.140009 181.864102 
z
" style="stroke:#000000;"/>
    <path clip-path="url(#pfea4a35858)" d="M 198.145088 186.509294 
L 196.439852 191.095303 
L 198.955504 191.069025 
z
" style="stroke:#000000;"/>
    <path clip-path="url(#pfea4a35858)" d="M 194.625043 191.965362 
L 198.333193 196.630945 
L 195.817528 196.666552 
z
" style="stroke:#000000;"/>
    <path clip-path="url(#pfea4a35858)" d="M 195.140009 172.440397 
L 198.145088 167.790533 
L 195.62942 167.777711 
z
" style="stroke:#000000;"/>
    <path clip-path="url(#pfea4a35858)" d="M 199.846554 201.123459 
L 195.817528 196.666552 
L 198.333193 196.630945 
z
" style="stroke:#000000;"/>
    <path clip-path="url(#pfea4a35858)" d="M 195.62942 186.527902 
L 193.764969 187.111925 
L 194.625043 191.965362 
z
" style="stroke:#000000;"/>
    <path clip-path="url(#pfea4a35858)" d="M 193.764969 167.189442 
L 195.62942 167.777711 
L 194.625043 162.337963 
z
" style="stroke:#000000;"/>
    <path clip-path="url(#pfea4a35858)" d="M 193.764969 187.111925 
L 195.62942 186.527902 
L 195.140009 181.864102 
z
" style="stroke:#000000;"/>
    <path clip-path="url(#pfea4a35858)" d="M 195.62942 167.777711 
L 193.764969 167.189442 
L 195.140009 172.440397 
z
" style="stroke:#000000;"/>
    <path clip-path="url(#pfea4a35858)" d="M 196.439852 191.095303 
L 198.145088 186.509294 
L 195.62942 186.527902 
z
" style="stroke:#000000;"/>
    <path clip-path="url(#pfea4a35858)" d="M 200.079059 158.819056 
L 196.439852 163.212156 
L 198.955504 163.232642 
z
" style="stroke:#000000;"/>
    <path clip-path="url(#pfea4a35858)" d="M 198.333193 157.66931 
L 197.330921 153.142835 
L 199.846554 153.180231 
z
" style="stroke:#000000;"/>
    <path clip-path="url(#pfea4a35858)" d="M 195.62942 167.777711 
L 198.955504 163.232642 
L 196.439852 163.212156 
z
" style="stroke:#000000;"/>
    <path clip-path="url(#pfea4a35858)" d="M 199.846554 153.180231 
L 201.504797 154.595822 
L 200.079059 158.819056 
z
" style="stroke:#000000;"/>
    <path clip-path="url(#pfea4a35858)" d="M 201.504797 199.711632 
L 199.846554 201.123459 
L 200.079059 195.485162 
z
" style="stroke:#000000;"/>
    <path clip-path="url(#pfea4a35858)" d="M 197.330921 153.142835 
L 198.333193 157.66931 
L 195.817528 157.639489 
z
" style="stroke:#000000;"/>
    <path clip-path="url(#pfea4a35858)" d="M 198.955504 191.069025 
L 197.563432 195.518884 
L 200.079059 195.485162 
z
" style="stroke:#000000;"/>
    <path clip-path="url(#pfea4a35858)" d="M 194.625043 191.965362 
L 196.439852 191.095303 
L 195.62942 186.527902 
z
" style="stroke:#000000;"/>
    <path clip-path="url(#pfea4a35858)" d="M 196.439852 163.212156 
L 194.625043 162.337963 
L 195.62942 167.777711 
z
" style="stroke:#000000;"/>
    <path clip-path="url(#pfea4a35858)" d="M 196.439852 191.095303 
L 194.625043 191.965362 
L 195.817528 196.666552 
z
" style="stroke:#000000;"/>
    <path clip-path="url(#pfea4a35858)" d="M 194.625043 162.337963 
L 196.439852 163.212156 
L 195.817528 157.639489 
z
" style="stroke:#000000;"/>
    <path clip-path="url(#pfea4a35858)" d="M 201.666061 148.939907 
L 201.504797 154.595822 
L 199.846554 153.180231 
z
" style="stroke:#000000;"/>
    <path clip-path="url(#pfea4a35858)" d="M 201.504797 199.711632 
L 201.666061 205.367913 
L 199.846554 201.123459 
z
" style="stroke:#000000;"/>
    <path clip-path="url(#pfea4a35858)" d="M 197.563432 195.518884 
L 198.955504 191.069025 
L 196.439852 191.095303 
z
" style="stroke:#000000;"/>
    <path clip-path="url(#pfea4a35858)" d="M 195.817528 196.666552 
L 199.846554 201.123459 
L 197.330921 201.166654 
z
" style="stroke:#000000;"/>
    <path clip-path="url(#pfea4a35858)" d="M 201.666061 205.367913 
L 197.330921 201.166654 
L 199.846554 201.123459 
z
" style="stroke:#000000;"/>
    <path clip-path="url(#pfea4a35858)" d="M 201.504797 154.595822 
L 197.563432 158.791134 
L 200.079059 158.819056 
z
" style="stroke:#000000;"/>
    <path clip-path="url(#pfea4a35858)" d="M 196.439852 163.212156 
L 200.079059 158.819056 
L 197.563432 158.791134 
z
" style="stroke:#000000;"/>
    <path clip-path="url(#pfea4a35858)" d="M 195.817528 196.666552 
L 197.563432 195.518884 
L 196.439852 191.095303 
z
" style="stroke:#000000;"/>
    <path clip-path="url(#pfea4a35858)" d="M 197.563432 158.791134 
L 195.817528 157.639489 
L 196.439852 163.212156 
z
" style="stroke:#000000;"/>
    <path clip-path="url(#pfea4a35858)" d="M 200.079059 195.485162 
L 198.989205 199.752499 
L 201.504797 199.711632 
z
" style="stroke:#000000;"/>
    <path clip-path="url(#pfea4a35858)" d="M 199.846554 153.180231 
L 199.150474 148.89533 
L 201.666061 148.939907 
z
" style="stroke:#000000;"/>
    <path clip-path="url(#pfea4a35858)" d="M 197.563432 195.518884 
L 195.817528 196.666552 
L 197.330921 201.166654 
z
" style="stroke:#000000;"/>
    <path clip-path="url(#pfea4a35858)" d="M 195.817528 157.639489 
L 197.563432 158.791134 
L 197.330921 153.142835 
z
" style="stroke:#000000;"/>
    <path clip-path="url(#pfea4a35858)" d="M 201.666061 148.939907 
L 203.218751 150.6073 
L 201.504797 154.595822 
z
" style="stroke:#000000;"/>
    <path clip-path="url(#pfea4a35858)" d="M 203.218751 203.704045 
L 201.666061 205.367913 
L 201.504797 199.711632 
z
" style="stroke:#000000;"/>
    <path clip-path="url(#pfea4a35858)" d="M 199.150474 148.89533 
L 199.846554 153.180231 
L 197.330921 153.142835 
z
" style="stroke:#000000;"/>
    <path clip-path="url(#pfea4a35858)" d="M 198.989205 199.752499 
L 200.079059 195.485162 
L 197.563432 195.518884 
z
" style="stroke:#000000;"/>
    <path clip-path="url(#pfea4a35858)" d="M 197.563432 158.791134 
L 201.504797 154.595822 
L 198.989205 154.560767 
z
" style="stroke:#000000;"/>
    <path clip-path="url(#pfea4a35858)" d="M 197.330921 201.166654 
L 201.666061 205.367913 
L 199.150474 205.418303 
z
" style="stroke:#000000;"/>
    <path clip-path="url(#pfea4a35858)" d="M 203.773897 144.993048 
L 203.218751 150.6073 
L 201.666061 148.939907 
z
" style="stroke:#000000;"/>
    <path clip-path="url(#pfea4a35858)" d="M 203.218751 203.704045 
L 203.773897 209.319556 
L 201.666061 205.367913 
z
" style="stroke:#000000;"/>
    <path clip-path="url(#pfea4a35858)" d="M 203.218751 150.6073 
L 198.989205 154.560767 
L 201.504797 154.595822 
z
" style="stroke:#000000;"/>
    <path clip-path="url(#pfea4a35858)" d="M 197.330921 201.166654 
L 198.989205 199.752499 
L 197.563432 195.518884 
z
" style="stroke:#000000;"/>
    <path clip-path="url(#pfea4a35858)" d="M 198.989205 154.560767 
L 197.330921 153.142835 
L 197.563432 158.791134 
z
" style="stroke:#000000;"/>
    <path clip-path="url(#pfea4a35858)" d="M 203.773897 209.319556 
L 199.150474 205.418303 
L 201.666061 205.367913 
z
" style="stroke:#000000;"/>
    <path clip-path="url(#pfea4a35858)" d="M 201.504797 199.711632 
L 200.703207 203.751684 
L 203.218751 203.704045 
z
" style="stroke:#000000;"/>
    <path clip-path="url(#pfea4a35858)" d="M 199.150474 205.418303 
L 198.989205 199.752499 
L 197.330921 201.166654 
z
" style="stroke:#000000;"/>
    <path clip-path="url(#pfea4a35858)" d="M 198.989205 154.560767 
L 199.150474 148.89533 
L 197.330921 153.142835 
z
" style="stroke:#000000;"/>
    <path clip-path="url(#pfea4a35858)" d="M 200.703207 203.751684 
L 201.504797 199.711632 
L 198.989205 199.752499 
z
" style="stroke:#000000;"/>
    <path clip-path="url(#pfea4a35858)" d="M 201.666061 148.939907 
L 201.258371 144.941757 
L 203.773897 144.993048 
z
" style="stroke:#000000;"/>
    <path clip-path="url(#pfea4a35858)" d="M 203.773897 144.993048 
L 205.20401 146.896093 
L 203.218751 150.6073 
z
" style="stroke:#000000;"/>
    <path clip-path="url(#pfea4a35858)" d="M 205.20401 207.419758 
L 203.773897 209.319556 
L 203.218751 203.704045 
z
" style="stroke:#000000;"/>
    <path clip-path="url(#pfea4a35858)" d="M 201.258371 144.941757 
L 201.666061 148.939907 
L 199.150474 148.89533 
z
" style="stroke:#000000;"/>
    <path clip-path="url(#pfea4a35858)" d="M 198.989205 154.560767 
L 203.218751 150.6073 
L 200.703207 150.565486 
z
" style="stroke:#000000;"/>
    <path clip-path="url(#pfea4a35858)" d="M 199.150474 205.418303 
L 200.703207 203.751684 
L 198.989205 199.752499 
z
" style="stroke:#000000;"/>
    <path clip-path="url(#pfea4a35858)" d="M 200.703207 150.565486 
L 199.150474 148.89533 
L 198.989205 154.560767 
z
" style="stroke:#000000;"/>
    <path clip-path="url(#pfea4a35858)" d="M 205.20401 146.896093 
L 200.703207 150.565486 
L 203.218751 150.6073 
z
" style="stroke:#000000;"/>
    <path clip-path="url(#pfea4a35858)" d="M 199.150474 205.418303 
L 203.773897 209.319556 
L 201.258371 209.376676 
z
" style="stroke:#000000;"/>
    <path clip-path="url(#pfea4a35858)" d="M 205.799954 143.812451 
L 203.773897 144.993048 
L 204.960652 143.18909 
z
" style="stroke:#000000;"/>
    <path clip-path="url(#pfea4a35858)" d="M 203.773897 209.319556 
L 205.799954 210.504753 
L 204.960652 211.126209 
z
" style="stroke:#000000;"/>
    <path clip-path="url(#pfea4a35858)" d="M 203.773897 144.993048 
L 205.799954 143.812451 
L 205.20401 146.896093 
z
" style="stroke:#000000;"/>
    <path clip-path="url(#pfea4a35858)" d="M 205.799954 210.504753 
L 203.773897 209.319556 
L 205.20401 207.419758 
z
" style="stroke:#000000;"/>
    <path clip-path="url(#pfea4a35858)" d="M 204.960652 211.126209 
L 201.258371 209.376676 
L 203.773897 209.319556 
z
" style="stroke:#000000;"/>
    <path clip-path="url(#pfea4a35858)" d="M 203.218751 203.704045 
L 202.688532 207.473727 
L 205.20401 207.419758 
z
" style="stroke:#000000;"/>
    <path clip-path="url(#pfea4a35858)" d="M 203.773897 144.993048 
L 202.445165 143.134716 
L 204.960652 143.18909 
z
" style="stroke:#000000;"/>
    <path clip-path="url(#pfea4a35858)" d="M 201.258371 209.376676 
L 200.703207 203.751684 
L 199.150474 205.418303 
z
" style="stroke:#000000;"/>
    <path clip-path="url(#pfea4a35858)" d="M 200.703207 150.565486 
L 201.258371 144.941757 
L 199.150474 148.89533 
z
" style="stroke:#000000;"/>
    <path clip-path="url(#pfea4a35858)" d="M 202.688532 207.473727 
L 203.218751 203.704045 
L 200.703207 203.751684 
z
" style="stroke:#000000;"/>
    <path clip-path="url(#pfea4a35858)" d="M 202.445165 143.134716 
L 203.773897 144.993048 
L 201.258371 144.941757 
z
" style="stroke:#000000;"/>
    <path clip-path="url(#pfea4a35858)" d="M 205.20401 146.896093 
L 205.799954 143.812451 
L 206.682458 144.65274 
z
" style="stroke:#000000;"/>
    <path clip-path="url(#pfea4a35858)" d="M 205.799954 210.504753 
L 205.20401 207.419758 
L 206.682458 209.666467 
z
" style="stroke:#000000;"/>
    <path clip-path="url(#pfea4a35858)" d="M 202.445165 143.134716 
L 205.799954 143.812451 
L 204.960652 143.18909 
z
" style="stroke:#000000;"/>
    <path clip-path="url(#pfea4a35858)" d="M 200.703207 150.565486 
L 205.20401 146.896093 
L 202.688532 146.847964 
z
" style="stroke:#000000;"/>
    <path clip-path="url(#pfea4a35858)" d="M 201.258371 209.376676 
L 204.960652 211.126209 
L 202.445165 211.18642 
z
" style="stroke:#000000;"/>
    <path clip-path="url(#pfea4a35858)" d="M 203.284497 210.563949 
L 204.960652 211.126209 
L 205.799954 210.504753 
z
" style="stroke:#000000;"/>
    <path clip-path="url(#pfea4a35858)" d="M 202.688532 207.473727 
L 206.682458 209.666467 
L 205.20401 207.419758 
z
" style="stroke:#000000;"/>
    <path clip-path="url(#pfea4a35858)" d="M 201.258371 209.376676 
L 202.688532 207.473727 
L 200.703207 203.751684 
z
" style="stroke:#000000;"/>
    <path clip-path="url(#pfea4a35858)" d="M 202.688532 146.847964 
L 201.258371 144.941757 
L 200.703207 150.565486 
z
" style="stroke:#000000;"/>
    <path clip-path="url(#pfea4a35858)" d="M 203.284497 143.759099 
L 206.682458 144.65274 
L 205.799954 143.812451 
z
" style="stroke:#000000;"/>
    <path clip-path="url(#pfea4a35858)" d="M 204.960652 211.126209 
L 203.284497 210.563949 
L 202.445165 211.18642 
z
" style="stroke:#000000;"/>
    <path clip-path="url(#pfea4a35858)" d="M 204.167033 144.600776 
L 205.20401 146.896093 
L 206.682458 144.65274 
z
" style="stroke:#000000;"/>
    <path clip-path="url(#pfea4a35858)" d="M 205.799954 143.812451 
L 202.445165 143.134716 
L 203.284497 143.759099 
z
" style="stroke:#000000;"/>
    <path clip-path="url(#pfea4a35858)" d="M 204.167033 209.724282 
L 205.799954 210.504753 
L 206.682458 209.666467 
z
" style="stroke:#000000;"/>
    <path clip-path="url(#pfea4a35858)" d="M 205.20401 146.896093 
L 204.167033 144.600776 
L 202.688532 146.847964 
z
" style="stroke:#000000;"/>
    <path clip-path="url(#pfea4a35858)" d="M 203.284497 210.563949 
L 201.258371 209.376676 
L 202.445165 211.18642 
z
" style="stroke:#000000;"/>
    <path clip-path="url(#pfea4a35858)" d="M 201.258371 144.941757 
L 203.284497 143.759099 
L 202.445165 143.134716 
z
" style="stroke:#000000;"/>
    <path clip-path="url(#pfea4a35858)" d="M 201.258371 209.376676 
L 203.284497 210.563949 
L 202.688532 207.473727 
z
" style="stroke:#000000;"/>
    <path clip-path="url(#pfea4a35858)" d="M 203.284497 143.759099 
L 201.258371 144.941757 
L 202.688532 146.847964 
z
" style="stroke:#000000;"/>
    <path clip-path="url(#pfea4a35858)" d="M 205.799954 210.504753 
L 204.167033 209.724282 
L 203.284497 210.563949 
z
" style="stroke:#000000;"/>
    <path clip-path="url(#pfea4a35858)" d="M 206.682458 209.666467 
L 202.688532 207.473727 
L 204.167033 209.724282 
z
" style="stroke:#000000;"/>
    <path clip-path="url(#pfea4a35858)" d="M 206.682458 144.65274 
L 203.284497 143.759099 
L 204.167033 144.600776 
z
" style="stroke:#000000;"/>
    <path clip-path="url(#pfea4a35858)" d="M 202.688532 207.473727 
L 203.284497 210.563949 
L 204.167033 209.724282 
z
" style="stroke:#000000;"/>
    <path clip-path="url(#pfea4a35858)" d="M 203.284497 143.759099 
L 202.688532 146.847964 
L 204.167033 144.600776 
z
" style="stroke:#000000;"/>
   </g>
  </g>
 </g>
 <defs>
  <clipPath id="pfea4a35858">
   <rect height="271.8" width="279" x="45" y="43.2"/>
  </clipPath>
 </defs>
</svg>
