<?xml version="1.0" encoding="utf-8" standalone="no"?>
<!DOCTYPE svg PUBLIC "-//W3C//DTD SVG 1.1//EN"
  "http://www.w3.org/Graphics/SVG/1.1/DTD/svg11.dtd">
<!-- Created with matplotlib (https://matplotlib.org/) -->
<svg height="360pt" version="1.1" viewBox="0 0 360 360" width="360pt" xmlns="http://www.w3.org/2000/svg" xmlns:xlink="http://www.w3.org/1999/xlink">
 <defs>
  <style type="text/css">
*{stroke-linecap:butt;stroke-linejoin:round;}
  </style>
 </defs>
 <g id="figure_1">
  <g id="patch_1">
   <path d="M 45 315 
L 324 315 
L 324 43.2 
L 45 43.2 
z
" style="fill:#ffffff;"/>
  </g>
  <g id="axes_1">
   <g id="Poly3DCollection_1">
    <path clip-path="url(#p7939bf5d27)" d="M 198.529982 207.519266 
L 198.071596 204.731363 
L 199.207454 206.718902 
z
" style="stroke:#000000;"/>
    <path clip-path="url(#p7939bf5d27)" d="M 198.071596 149.539501 
L 198.529982 146.750234 
L 199.207454 147.54858 
z
" style="stroke:#000000;"/>
    <path clip-path="url(#p7939bf5d27)" d="M 201.821288 206.760288 
L 198.529982 207.519266 
L 199.207454 206.718902 
z
" style="stroke:#000000;"/>
    <path clip-path="url(#p7939bf5d27)" d="M 201.821288 147.511709 
L 198.071596 149.539501 
L 199.207454 147.54858 
z
" style="stroke:#000000;"/>
    <path clip-path="url(#p7939bf5d27)" d="M 201.144467 146.712284 
L 199.207454 147.54858 
L 198.529982 146.750234 
z
" style="stroke:#000000;"/>
    <path clip-path="url(#p7939bf5d27)" d="M 199.207454 147.54858 
L 201.144467 146.712284 
L 201.821288 147.511709 
z
" style="stroke:#000000;"/>
    <path clip-path="url(#p7939bf5d27)" d="M 200.686521 204.770158 
L 199.207454 206.718902 
L 198.071596 204.731363 
z
" style="stroke:#000000;"/>
    <path clip-path="url(#p7939bf5d27)" d="M 198.529982 207.519266 
L 196.968626 206.522672 
L 198.071596 204.731363 
z
" style="stroke:#000000;"/>
    <path clip-path="url(#p7939bf5d27)" d="M 196.968626 147.751477 
L 198.529982 146.750234 
L 198.071596 149.539501 
z
" style="stroke:#000000;"/>
    <path clip-path="url(#p7939bf5d27)" d="M 199.207454 206.718902 
L 200.686521 204.770158 
L 201.821288 206.760288 
z
" style="stroke:#000000;"/>
    <path clip-path="url(#p7939bf5d27)" d="M 201.144467 207.561735 
L 197.884203 208.12183 
L 198.529982 207.519266 
z
" style="stroke:#000000;"/>
    <path clip-path="url(#p7939bf5d27)" d="M 196.968626 206.522672 
L 198.529982 207.519266 
L 197.884203 208.12183 
z
" style="stroke:#000000;"/>
    <path clip-path="url(#p7939bf5d27)" d="M 198.529982 146.750234 
L 196.968626 147.751477 
L 197.884203 146.149592 
z
" style="stroke:#000000;"/>
    <path clip-path="url(#p7939bf5d27)" d="M 198.529982 207.519266 
L 201.821288 206.760288 
L 201.144467 207.561735 
z
" style="stroke:#000000;"/>
    <path clip-path="url(#p7939bf5d27)" d="M 200.499307 146.110826 
L 198.529982 146.750234 
L 197.884203 146.149592 
z
" style="stroke:#000000;"/>
    <path clip-path="url(#p7939bf5d27)" d="M 198.071596 149.539501 
L 201.821288 147.511709 
L 200.686521 149.505229 
z
" style="stroke:#000000;"/>
    <path clip-path="url(#p7939bf5d27)" d="M 198.529982 146.750234 
L 200.499307 146.110826 
L 201.144467 146.712284 
z
" style="stroke:#000000;"/>
    <path clip-path="url(#p7939bf5d27)" d="M 196.968626 206.522672 
L 196.539341 201.411248 
L 198.071596 204.731363 
z
" style="stroke:#000000;"/>
    <path clip-path="url(#p7939bf5d27)" d="M 196.539341 152.864179 
L 196.968626 147.751477 
L 198.071596 149.539501 
z
" style="stroke:#000000;"/>
    <path clip-path="url(#p7939bf5d27)" d="M 197.884203 208.12183 
L 201.144467 207.561735 
L 200.499307 208.165121 
z
" style="stroke:#000000;"/>
    <path clip-path="url(#p7939bf5d27)" d="M 201.144467 146.712284 
L 200.686521 149.505229 
L 201.821288 147.511709 
z
" style="stroke:#000000;"/>
    <path clip-path="url(#p7939bf5d27)" d="M 200.686521 204.770158 
L 201.144467 207.561735 
L 201.821288 206.760288 
z
" style="stroke:#000000;"/>
    <path clip-path="url(#p7939bf5d27)" d="M 196.968626 147.751477 
L 200.499307 146.110826 
L 197.884203 146.149592 
z
" style="stroke:#000000;"/>
    <path clip-path="url(#p7939bf5d27)" d="M 196.539341 201.411248 
L 200.686521 204.770158 
L 198.071596 204.731363 
z
" style="stroke:#000000;"/>
    <path clip-path="url(#p7939bf5d27)" d="M 197.884203 208.12183 
L 199.584606 206.563879 
L 196.968626 206.522672 
z
" style="stroke:#000000;"/>
    <path clip-path="url(#p7939bf5d27)" d="M 199.584606 206.563879 
L 197.884203 208.12183 
L 200.499307 208.165121 
z
" style="stroke:#000000;"/>
    <path clip-path="url(#p7939bf5d27)" d="M 199.155731 152.834269 
L 198.071596 149.539501 
L 200.686521 149.505229 
z
" style="stroke:#000000;"/>
    <path clip-path="url(#p7939bf5d27)" d="M 198.071596 149.539501 
L 199.155731 152.834269 
L 196.539341 152.864179 
z
" style="stroke:#000000;"/>
    <path clip-path="url(#p7939bf5d27)" d="M 201.144467 146.712284 
L 199.584606 147.714802 
L 200.686521 149.505229 
z
" style="stroke:#000000;"/>
    <path clip-path="url(#p7939bf5d27)" d="M 199.584606 206.563879 
L 201.144467 207.561735 
L 200.686521 204.770158 
z
" style="stroke:#000000;"/>
    <path clip-path="url(#p7939bf5d27)" d="M 195.335299 202.989335 
L 196.539341 201.411248 
L 196.968626 206.522672 
z
" style="stroke:#000000;"/>
    <path clip-path="url(#p7939bf5d27)" d="M 196.539341 152.864179 
L 195.335299 151.289677 
L 196.968626 147.751477 
z
" style="stroke:#000000;"/>
    <path clip-path="url(#p7939bf5d27)" d="M 199.584606 147.714802 
L 201.144467 146.712284 
L 200.499307 146.110826 
z
" style="stroke:#000000;"/>
    <path clip-path="url(#p7939bf5d27)" d="M 201.144467 207.561735 
L 199.584606 206.563879 
L 200.499307 208.165121 
z
" style="stroke:#000000;"/>
    <path clip-path="url(#p7939bf5d27)" d="M 200.499307 146.110826 
L 196.968626 147.751477 
L 199.584606 147.714802 
z
" style="stroke:#000000;"/>
    <path clip-path="url(#p7939bf5d27)" d="M 200.686521 204.770158 
L 196.539341 201.411248 
L 199.155731 201.445694 
z
" style="stroke:#000000;"/>
    <path clip-path="url(#p7939bf5d27)" d="M 195.335299 151.289677 
L 199.584606 147.714802 
L 196.968626 147.751477 
z
" style="stroke:#000000;"/>
    <path clip-path="url(#p7939bf5d27)" d="M 195.335299 202.989335 
L 195.20996 197.811817 
L 196.539341 201.411248 
z
" style="stroke:#000000;"/>
    <path clip-path="url(#p7939bf5d27)" d="M 195.20996 156.467569 
L 195.335299 151.289677 
L 196.539341 152.864179 
z
" style="stroke:#000000;"/>
    <path clip-path="url(#p7939bf5d27)" d="M 199.584606 147.714802 
L 199.155731 152.834269 
L 200.686521 149.505229 
z
" style="stroke:#000000;"/>
    <path clip-path="url(#p7939bf5d27)" d="M 199.155731 201.445694 
L 199.584606 206.563879 
L 200.686521 204.770158 
z
" style="stroke:#000000;"/>
    <path clip-path="url(#p7939bf5d27)" d="M 195.20996 197.811817 
L 199.155731 201.445694 
L 196.539341 201.411248 
z
" style="stroke:#000000;"/>
    <path clip-path="url(#p7939bf5d27)" d="M 197.952837 203.025911 
L 196.968626 206.522672 
L 199.584606 206.563879 
z
" style="stroke:#000000;"/>
    <path clip-path="url(#p7939bf5d27)" d="M 196.968626 206.522672 
L 197.952837 203.025911 
L 195.335299 202.989335 
z
" style="stroke:#000000;"/>
    <path clip-path="url(#p7939bf5d27)" d="M 196.539341 152.864179 
L 197.827616 156.442407 
L 195.20996 156.467569 
z
" style="stroke:#000000;"/>
    <path clip-path="url(#p7939bf5d27)" d="M 197.827616 156.442407 
L 196.539341 152.864179 
L 199.155731 152.834269 
z
" style="stroke:#000000;"/>
    <path clip-path="url(#p7939bf5d27)" d="M 199.584606 147.714802 
L 195.335299 151.289677 
L 197.952837 151.257646 
z
" style="stroke:#000000;"/>
    <path clip-path="url(#p7939bf5d27)" d="M 193.917994 199.157938 
L 195.20996 197.811817 
L 195.335299 202.989335 
z
" style="stroke:#000000;"/>
    <path clip-path="url(#p7939bf5d27)" d="M 195.20996 156.467569 
L 193.917994 155.125295 
L 195.335299 151.289677 
z
" style="stroke:#000000;"/>
    <path clip-path="url(#p7939bf5d27)" d="M 197.952837 151.257646 
L 199.155731 152.834269 
L 199.584606 147.714802 
z
" style="stroke:#000000;"/>
    <path clip-path="url(#p7939bf5d27)" d="M 199.155731 201.445694 
L 197.952837 203.025911 
L 199.584606 206.563879 
z
" style="stroke:#000000;"/>
    <path clip-path="url(#p7939bf5d27)" d="M 199.155731 201.445694 
L 195.20996 197.811817 
L 197.827616 197.841525 
z
" style="stroke:#000000;"/>
    <path clip-path="url(#p7939bf5d27)" d="M 195.20996 197.811817 
L 193.917994 199.157938 
L 194.099488 193.973798 
z
" style="stroke:#000000;"/>
    <path clip-path="url(#p7939bf5d27)" d="M 193.917994 155.125295 
L 195.20996 156.467569 
L 194.099488 160.308894 
z
" style="stroke:#000000;"/>
    <path clip-path="url(#p7939bf5d27)" d="M 193.917994 155.125295 
L 197.952837 151.257646 
L 195.335299 151.289677 
z
" style="stroke:#000000;"/>
    <path clip-path="url(#p7939bf5d27)" d="M 194.099488 193.973798 
L 197.827616 197.841525 
L 195.20996 197.811817 
z
" style="stroke:#000000;"/>
    <path clip-path="url(#p7939bf5d27)" d="M 197.952837 151.257646 
L 197.827616 156.442407 
L 199.155731 152.834269 
z
" style="stroke:#000000;"/>
    <path clip-path="url(#p7939bf5d27)" d="M 197.827616 197.841525 
L 197.952837 203.025911 
L 199.155731 201.445694 
z
" style="stroke:#000000;"/>
    <path clip-path="url(#p7939bf5d27)" d="M 195.20996 156.467569 
L 196.7182 160.288811 
L 194.099488 160.308894 
z
" style="stroke:#000000;"/>
    <path clip-path="url(#p7939bf5d27)" d="M 195.335299 202.989335 
L 196.536879 199.189469 
L 193.917994 199.157938 
z
" style="stroke:#000000;"/>
    <path clip-path="url(#p7939bf5d27)" d="M 196.536879 199.189469 
L 195.335299 202.989335 
L 197.952837 203.025911 
z
" style="stroke:#000000;"/>
    <path clip-path="url(#p7939bf5d27)" d="M 196.7182 160.288811 
L 195.20996 156.467569 
L 197.827616 156.442407 
z
" style="stroke:#000000;"/>
    <path clip-path="url(#p7939bf5d27)" d="M 192.733902 195.071456 
L 194.099488 193.973798 
L 193.917994 199.157938 
z
" style="stroke:#000000;"/>
    <path clip-path="url(#p7939bf5d27)" d="M 194.099488 160.308894 
L 192.733902 159.215303 
L 193.917994 155.125295 
z
" style="stroke:#000000;"/>
    <path clip-path="url(#p7939bf5d27)" d="M 197.827616 197.841525 
L 194.099488 193.973798 
L 196.7182 193.998437 
z
" style="stroke:#000000;"/>
    <path clip-path="url(#p7939bf5d27)" d="M 197.952837 151.257646 
L 193.917994 155.125295 
L 196.536879 155.098321 
z
" style="stroke:#000000;"/>
    <path clip-path="url(#p7939bf5d27)" d="M 194.099488 193.973798 
L 192.733902 195.071456 
L 193.221395 189.940817 
z
" style="stroke:#000000;"/>
    <path clip-path="url(#p7939bf5d27)" d="M 192.733902 159.215303 
L 194.099488 160.308894 
L 193.221395 164.344491 
z
" style="stroke:#000000;"/>
    <path clip-path="url(#p7939bf5d27)" d="M 193.221395 189.940817 
L 196.7182 193.998437 
L 194.099488 193.973798 
z
" style="stroke:#000000;"/>
    <path clip-path="url(#p7939bf5d27)" d="M 196.536879 155.098321 
L 197.827616 156.442407 
L 197.952837 151.257646 
z
" style="stroke:#000000;"/>
    <path clip-path="url(#p7939bf5d27)" d="M 197.827616 197.841525 
L 196.536879 199.189469 
L 197.952837 203.025911 
z
" style="stroke:#000000;"/>
    <path clip-path="url(#p7939bf5d27)" d="M 192.733902 159.215303 
L 196.536879 155.098321 
L 193.917994 155.125295 
z
" style="stroke:#000000;"/>
    <path clip-path="url(#p7939bf5d27)" d="M 194.099488 160.308894 
L 195.840939 164.329757 
L 193.221395 164.344491 
z
" style="stroke:#000000;"/>
    <path clip-path="url(#p7939bf5d27)" d="M 197.827616 156.442407 
L 196.536879 155.098321 
L 196.7182 160.288811 
z
" style="stroke:#000000;"/>
    <path clip-path="url(#p7939bf5d27)" d="M 196.536879 199.189469 
L 197.827616 197.841525 
L 196.7182 193.998437 
z
" style="stroke:#000000;"/>
    <path clip-path="url(#p7939bf5d27)" d="M 195.840939 164.329757 
L 194.099488 160.308894 
L 196.7182 160.288811 
z
" style="stroke:#000000;"/>
    <path clip-path="url(#p7939bf5d27)" d="M 193.917994 199.157938 
L 195.353907 195.097584 
L 192.733902 195.071456 
z
" style="stroke:#000000;"/>
    <path clip-path="url(#p7939bf5d27)" d="M 191.797503 190.776656 
L 193.221395 189.940817 
L 192.733902 195.071456 
z
" style="stroke:#000000;"/>
    <path clip-path="url(#p7939bf5d27)" d="M 193.221395 164.344491 
L 191.797503 163.512892 
L 192.733902 159.215303 
z
" style="stroke:#000000;"/>
    <path clip-path="url(#p7939bf5d27)" d="M 193.221395 189.940817 
L 191.797503 190.776656 
L 192.586389 185.759149 
z
" style="stroke:#000000;"/>
    <path clip-path="url(#p7939bf5d27)" d="M 191.797503 163.512892 
L 193.221395 164.344491 
L 192.586389 168.528049 
z
" style="stroke:#000000;"/>
    <path clip-path="url(#p7939bf5d27)" d="M 195.353907 195.097584 
L 193.917994 199.157938 
L 196.536879 199.189469 
z
" style="stroke:#000000;"/>
    <path clip-path="url(#p7939bf5d27)" d="M 192.586389 185.759149 
L 195.840939 189.960113 
L 193.221395 189.940817 
z
" style="stroke:#000000;"/>
    <path clip-path="url(#p7939bf5d27)" d="M 196.7182 193.998437 
L 193.221395 189.940817 
L 195.840939 189.960113 
z
" style="stroke:#000000;"/>
    <path clip-path="url(#p7939bf5d27)" d="M 193.221395 164.344491 
L 195.206534 168.518872 
L 192.586389 168.528049 
z
" style="stroke:#000000;"/>
    <path clip-path="url(#p7939bf5d27)" d="M 196.536879 155.098321 
L 192.733902 159.215303 
L 195.353907 159.193741 
z
" style="stroke:#000000;"/>
    <path clip-path="url(#p7939bf5d27)" d="M 195.353907 159.193741 
L 196.7182 160.288811 
L 196.536879 155.098321 
z
" style="stroke:#000000;"/>
    <path clip-path="url(#p7939bf5d27)" d="M 196.7182 193.998437 
L 195.353907 195.097584 
L 196.536879 199.189469 
z
" style="stroke:#000000;"/>
    <path clip-path="url(#p7939bf5d27)" d="M 195.206534 168.518872 
L 193.221395 164.344491 
L 195.840939 164.329757 
z
" style="stroke:#000000;"/>
    <path clip-path="url(#p7939bf5d27)" d="M 192.586389 185.759149 
L 191.120267 186.322922 
L 192.202247 181.477124 
z
" style="stroke:#000000;"/>
    <path clip-path="url(#p7939bf5d27)" d="M 191.120267 167.968643 
L 192.586389 168.528049 
L 192.202247 172.811219 
z
" style="stroke:#000000;"/>
    <path clip-path="url(#p7939bf5d27)" d="M 192.202247 181.477124 
L 195.206534 185.772893 
L 192.586389 185.759149 
z
" style="stroke:#000000;"/>
    <path clip-path="url(#p7939bf5d27)" d="M 191.797503 163.512892 
L 195.353907 159.193741 
L 192.733902 159.215303 
z
" style="stroke:#000000;"/>
    <path clip-path="url(#p7939bf5d27)" d="M 191.120267 186.322922 
L 192.586389 185.759149 
L 191.797503 190.776656 
z
" style="stroke:#000000;"/>
    <path clip-path="url(#p7939bf5d27)" d="M 192.586389 168.528049 
L 191.120267 167.968643 
L 191.797503 163.512892 
z
" style="stroke:#000000;"/>
    <path clip-path="url(#p7939bf5d27)" d="M 196.7182 160.288811 
L 195.353907 159.193741 
L 195.840939 164.329757 
z
" style="stroke:#000000;"/>
    <path clip-path="url(#p7939bf5d27)" d="M 195.353907 195.097584 
L 196.7182 193.998437 
L 195.840939 189.960113 
z
" style="stroke:#000000;"/>
    <path clip-path="url(#p7939bf5d27)" d="M 192.586389 168.528049 
L 194.822756 172.807738 
L 192.202247 172.811219 
z
" style="stroke:#000000;"/>
    <path clip-path="url(#p7939bf5d27)" d="M 195.840939 189.960113 
L 192.586389 185.759149 
L 195.206534 185.772893 
z
" style="stroke:#000000;"/>
    <path clip-path="url(#p7939bf5d27)" d="M 190.710548 172.530911 
L 192.202247 172.811219 
L 192.073667 177.144363 
z
" style="stroke:#000000;"/>
    <path clip-path="url(#p7939bf5d27)" d="M 192.202247 181.477124 
L 190.710548 181.761874 
L 192.073667 177.144363 
z
" style="stroke:#000000;"/>
    <path clip-path="url(#p7939bf5d27)" d="M 192.073667 177.144363 
L 194.822756 181.485174 
L 192.202247 181.477124 
z
" style="stroke:#000000;"/>
    <path clip-path="url(#p7939bf5d27)" d="M 192.202247 172.811219 
L 194.694297 177.146648 
L 192.073667 177.144363 
z
" style="stroke:#000000;"/>
    <path clip-path="url(#p7939bf5d27)" d="M 192.733902 195.071456 
L 194.418393 190.797088 
L 191.797503 190.776656 
z
" style="stroke:#000000;"/>
    <path clip-path="url(#p7939bf5d27)" d="M 194.822756 172.807738 
L 192.586389 168.528049 
L 195.206534 168.518872 
z
" style="stroke:#000000;"/>
    <path clip-path="url(#p7939bf5d27)" d="M 194.418393 190.797088 
L 192.733902 195.071456 
L 195.353907 195.097584 
z
" style="stroke:#000000;"/>
    <path clip-path="url(#p7939bf5d27)" d="M 190.710548 181.761874 
L 192.202247 181.477124 
L 191.120267 186.322922 
z
" style="stroke:#000000;"/>
    <path clip-path="url(#p7939bf5d27)" d="M 192.202247 172.811219 
L 190.710548 172.530911 
L 191.120267 167.968643 
z
" style="stroke:#000000;"/>
    <path clip-path="url(#p7939bf5d27)" d="M 195.206534 185.772893 
L 192.202247 181.477124 
L 194.822756 181.485174 
z
" style="stroke:#000000;"/>
    <path clip-path="url(#p7939bf5d27)" d="M 194.694297 177.146648 
L 192.202247 172.811219 
L 194.822756 172.807738 
z
" style="stroke:#000000;"/>
    <path clip-path="url(#p7939bf5d27)" d="M 190.573412 177.146596 
L 192.073667 177.144363 
L 190.710548 181.761874 
z
" style="stroke:#000000;"/>
    <path clip-path="url(#p7939bf5d27)" d="M 192.073667 177.144363 
L 190.573412 177.146596 
L 190.710548 172.530911 
z
" style="stroke:#000000;"/>
    <path clip-path="url(#p7939bf5d27)" d="M 194.822756 181.485174 
L 192.073667 177.144363 
L 194.694297 177.146648 
z
" style="stroke:#000000;"/>
    <path clip-path="url(#p7939bf5d27)" d="M 195.353907 159.193741 
L 191.797503 163.512892 
L 194.418393 163.497033 
z
" style="stroke:#000000;"/>
    <path clip-path="url(#p7939bf5d27)" d="M 191.120267 167.968643 
L 194.418393 163.497033 
L 191.797503 163.512892 
z
" style="stroke:#000000;"/>
    <path clip-path="url(#p7939bf5d27)" d="M 194.418393 163.497033 
L 195.840939 164.329757 
L 195.353907 159.193741 
z
" style="stroke:#000000;"/>
    <path clip-path="url(#p7939bf5d27)" d="M 195.840939 189.960113 
L 194.418393 190.797088 
L 195.353907 195.097584 
z
" style="stroke:#000000;"/>
    <path clip-path="url(#p7939bf5d27)" d="M 195.840939 164.329757 
L 194.418393 163.497033 
L 195.206534 168.518872 
z
" style="stroke:#000000;"/>
    <path clip-path="url(#p7939bf5d27)" d="M 194.418393 190.797088 
L 195.840939 189.960113 
L 195.206534 185.772893 
z
" style="stroke:#000000;"/>
    <path clip-path="url(#p7939bf5d27)" d="M 191.797503 190.776656 
L 193.741796 186.337434 
L 191.120267 186.322922 
z
" style="stroke:#000000;"/>
    <path clip-path="url(#p7939bf5d27)" d="M 192.323331 148.924075 
L 188.566991 157.685194 
L 191.073931 149.447128 
z
" style="stroke:#000000;"/>
    <path clip-path="url(#p7939bf5d27)" d="M 191.073931 149.447128 
L 188.566991 144.414018 
L 192.323331 148.924075 
z
" style="stroke:#000000;"/>
    <path clip-path="url(#p7939bf5d27)" d="M 193.741796 186.337434 
L 191.797503 190.776656 
L 194.418393 190.797088 
z
" style="stroke:#000000;"/>
    <path clip-path="url(#p7939bf5d27)" d="M 190.710548 172.530911 
L 193.741796 167.958709 
L 191.120267 167.968643 
z
" style="stroke:#000000;"/>
    <path clip-path="url(#p7939bf5d27)" d="M 195.206534 168.518872 
L 193.741796 167.958709 
L 194.822756 172.807738 
z
" style="stroke:#000000;"/>
    <path clip-path="url(#p7939bf5d27)" d="M 193.741796 186.337434 
L 195.206534 185.772893 
L 194.822756 181.485174 
z
" style="stroke:#000000;"/>
    <path clip-path="url(#p7939bf5d27)" d="M 191.120267 186.322922 
L 193.332462 181.770314 
L 190.710548 181.761874 
z
" style="stroke:#000000;"/>
    <path clip-path="url(#p7939bf5d27)" d="M 194.418393 163.497033 
L 191.120267 167.968643 
L 193.741796 167.958709 
z
" style="stroke:#000000;"/>
    <path clip-path="url(#p7939bf5d27)" d="M 193.741796 167.958709 
L 195.206534 168.518872 
L 194.418393 163.497033 
z
" style="stroke:#000000;"/>
    <path clip-path="url(#p7939bf5d27)" d="M 195.206534 185.772893 
L 193.741796 186.337434 
L 194.418393 190.797088 
z
" style="stroke:#000000;"/>
    <path clip-path="url(#p7939bf5d27)" d="M 190.573412 177.146596 
L 193.332462 172.527052 
L 190.710548 172.530911 
z
" style="stroke:#000000;"/>
    <path clip-path="url(#p7939bf5d27)" d="M 193.332462 181.770314 
L 194.822756 181.485174 
L 194.694297 177.146648 
z
" style="stroke:#000000;"/>
    <path clip-path="url(#p7939bf5d27)" d="M 194.822756 172.807738 
L 193.332462 172.527052 
L 194.694297 177.146648 
z
" style="stroke:#000000;"/>
    <path clip-path="url(#p7939bf5d27)" d="M 190.710548 181.761874 
L 193.195456 177.148888 
L 190.573412 177.146596 
z
" style="stroke:#000000;"/>
    <path clip-path="url(#p7939bf5d27)" d="M 192.323331 148.924075 
L 191.190918 144.372621 
L 194.943725 148.888813 
z
" style="stroke:#000000;"/>
    <path clip-path="url(#p7939bf5d27)" d="M 191.190918 162.091141 
L 192.323331 148.924075 
L 194.943725 148.888813 
z
" style="stroke:#000000;"/>
    <path clip-path="url(#p7939bf5d27)" d="M 193.332462 181.770314 
L 191.120267 186.322922 
L 193.741796 186.337434 
z
" style="stroke:#000000;"/>
    <path clip-path="url(#p7939bf5d27)" d="M 193.741796 167.958709 
L 190.710548 172.530911 
L 193.332462 172.527052 
z
" style="stroke:#000000;"/>
    <path clip-path="url(#p7939bf5d27)" d="M 188.566991 157.685194 
L 192.323331 148.924075 
L 188.566991 162.108919 
z
" style="stroke:#000000;"/>
    <path clip-path="url(#p7939bf5d27)" d="M 193.332462 172.527052 
L 194.822756 172.807738 
L 193.741796 167.958709 
z
" style="stroke:#000000;"/>
    <path clip-path="url(#p7939bf5d27)" d="M 194.822756 181.485174 
L 193.332462 181.770314 
L 193.741796 186.337434 
z
" style="stroke:#000000;"/>
    <path clip-path="url(#p7939bf5d27)" d="M 193.695503 149.412523 
L 188.566991 146.625881 
L 191.073931 149.447128 
z
" style="stroke:#000000;"/>
    <path clip-path="url(#p7939bf5d27)" d="M 188.566991 157.685194 
L 193.695503 149.412523 
L 191.073931 149.447128 
z
" style="stroke:#000000;"/>
    <path clip-path="url(#p7939bf5d27)" d="M 193.195456 177.148888 
L 190.710548 181.761874 
L 193.332462 181.770314 
z
" style="stroke:#000000;"/>
    <path clip-path="url(#p7939bf5d27)" d="M 193.332462 172.527052 
L 190.573412 177.146596 
L 193.195456 177.148888 
z
" style="stroke:#000000;"/>
    <path clip-path="url(#p7939bf5d27)" d="M 193.195456 177.148888 
L 194.694297 177.146648 
L 193.332462 172.527052 
z
" style="stroke:#000000;"/>
    <path clip-path="url(#p7939bf5d27)" d="M 194.694297 177.146648 
L 193.195456 177.148888 
L 193.332462 181.770314 
z
" style="stroke:#000000;"/>
    <path clip-path="url(#p7939bf5d27)" d="M 188.566991 144.414018 
L 191.073931 149.447128 
L 188.566991 146.625881 
z
" style="stroke:#000000;"/>
    <path clip-path="url(#p7939bf5d27)" d="M 191.190918 144.372621 
L 192.323331 148.924075 
L 188.566991 144.414018 
z
" style="stroke:#000000;"/>
    <path clip-path="url(#p7939bf5d27)" d="M 192.323331 148.924075 
L 191.190918 162.091141 
L 188.566991 162.108919 
z
" style="stroke:#000000;"/>
    <path clip-path="url(#p7939bf5d27)" d="M 191.190918 144.372621 
L 193.695503 149.412523 
L 194.943725 148.888813 
z
" style="stroke:#000000;"/>
    <path clip-path="url(#p7939bf5d27)" d="M 191.190918 157.661511 
L 194.943725 148.888813 
L 193.695503 149.412523 
z
" style="stroke:#000000;"/>
    <path clip-path="url(#p7939bf5d27)" d="M 188.566991 146.625881 
L 193.695503 149.412523 
L 191.190918 146.587436 
z
" style="stroke:#000000;"/>
    <path clip-path="url(#p7939bf5d27)" d="M 193.695503 149.412523 
L 188.566991 157.685194 
L 191.190918 157.661511 
z
" style="stroke:#000000;"/>
    <path clip-path="url(#p7939bf5d27)" d="M 191.190918 157.661511 
L 191.190918 162.091141 
L 194.943725 148.888813 
z
" style="stroke:#000000;"/>
    <path clip-path="url(#p7939bf5d27)" d="M 191.190918 144.372621 
L 191.190918 146.587436 
L 193.695503 149.412523 
z
" style="stroke:#000000;"/>
    <path clip-path="url(#p7939bf5d27)" d="M 186.04914 149.334045 
L 188.566991 144.414018 
L 188.566991 146.625881 
z
" style="stroke:#000000;"/>
    <path clip-path="url(#p7939bf5d27)" d="M 184.7861 148.750848 
L 188.566991 157.685194 
L 188.566991 162.108919 
z
" style="stroke:#000000;"/>
    <path clip-path="url(#p7939bf5d27)" d="M 191.190918 146.587436 
L 186.04914 149.334045 
L 188.566991 146.625881 
z
" style="stroke:#000000;"/>
    <path clip-path="url(#p7939bf5d27)" d="M 186.04914 149.334045 
L 191.190918 157.661511 
L 188.566991 157.685194 
z
" style="stroke:#000000;"/>
    <path clip-path="url(#p7939bf5d27)" d="M 188.566991 157.685194 
L 184.7861 148.750848 
L 186.04914 149.334045 
z
" style="stroke:#000000;"/>
    <path clip-path="url(#p7939bf5d27)" d="M 188.566991 144.414018 
L 186.04914 149.334045 
L 184.7861 148.750848 
z
" style="stroke:#000000;"/>
    <path clip-path="url(#p7939bf5d27)" d="M 188.566991 144.414018 
L 187.41355 148.715122 
L 191.190918 144.372621 
z
" style="stroke:#000000;"/>
    <path clip-path="url(#p7939bf5d27)" d="M 187.41355 148.715122 
L 188.566991 162.108919 
L 191.190918 162.091141 
z
" style="stroke:#000000;"/>
    <path clip-path="url(#p7939bf5d27)" d="M 191.190918 144.372621 
L 188.675417 149.299139 
L 191.190918 146.587436 
z
" style="stroke:#000000;"/>
    <path clip-path="url(#p7939bf5d27)" d="M 185.038928 177.154837 
L 186.553587 177.152582 
L 186.415462 181.785436 
z
" style="stroke:#000000;"/>
    <path clip-path="url(#p7939bf5d27)" d="M 186.553587 177.152582 
L 185.038928 177.154837 
L 186.415462 172.520139 
z
" style="stroke:#000000;"/>
    <path clip-path="url(#p7939bf5d27)" d="M 186.415462 172.520139 
L 189.179394 177.154889 
L 186.553587 177.152582 
z
" style="stroke:#000000;"/>
    <path clip-path="url(#p7939bf5d27)" d="M 186.553587 177.152582 
L 189.041398 181.793939 
L 186.415462 181.785436 
z
" style="stroke:#000000;"/>
    <path clip-path="url(#p7939bf5d27)" d="M 186.04914 149.334045 
L 191.190918 146.587436 
L 188.675417 149.299139 
z
" style="stroke:#000000;"/>
    <path clip-path="url(#p7939bf5d27)" d="M 191.190918 157.661511 
L 186.04914 149.334045 
L 188.675417 149.299139 
z
" style="stroke:#000000;"/>
    <path clip-path="url(#p7939bf5d27)" d="M 184.908745 181.515386 
L 186.415462 181.785436 
L 186.002396 186.371229 
z
" style="stroke:#000000;"/>
    <path clip-path="url(#p7939bf5d27)" d="M 186.415462 172.520139 
L 184.908745 172.794676 
L 186.002396 167.935576 
z
" style="stroke:#000000;"/>
    <path clip-path="url(#p7939bf5d27)" d="M 186.002396 167.935576 
L 189.041398 172.516251 
L 186.415462 172.520139 
z
" style="stroke:#000000;"/>
    <path clip-path="url(#p7939bf5d27)" d="M 191.190918 157.661511 
L 187.41355 148.715122 
L 191.190918 162.091141 
z
" style="stroke:#000000;"/>
    <path clip-path="url(#p7939bf5d27)" d="M 186.415462 181.785436 
L 188.628716 186.38587 
L 186.002396 186.371229 
z
" style="stroke:#000000;"/>
    <path clip-path="url(#p7939bf5d27)" d="M 187.41355 148.715122 
L 188.566991 144.414018 
L 184.7861 148.750848 
z
" style="stroke:#000000;"/>
    <path clip-path="url(#p7939bf5d27)" d="M 188.566991 162.108919 
L 187.41355 148.715122 
L 184.7861 148.750848 
z
" style="stroke:#000000;"/>
    <path clip-path="url(#p7939bf5d27)" d="M 189.041398 181.793939 
L 186.553587 177.152582 
L 189.179394 177.154889 
z
" style="stroke:#000000;"/>
    <path clip-path="url(#p7939bf5d27)" d="M 184.908745 172.794676 
L 186.415462 172.520139 
L 185.038928 177.154837 
z
" style="stroke:#000000;"/>
    <path clip-path="url(#p7939bf5d27)" d="M 186.415462 181.785436 
L 184.908745 181.515386 
L 185.038928 177.154837 
z
" style="stroke:#000000;"/>
    <path clip-path="url(#p7939bf5d27)" d="M 189.179394 177.154889 
L 186.415462 172.520139 
L 189.041398 172.516251 
z
" style="stroke:#000000;"/>
    <path clip-path="url(#p7939bf5d27)" d="M 184.51947 185.831444 
L 186.002396 186.371229 
L 185.318337 190.86286 
z
" style="stroke:#000000;"/>
    <path clip-path="url(#p7939bf5d27)" d="M 186.002396 167.935576 
L 184.51947 168.479777 
L 185.318337 163.445981 
z
" style="stroke:#000000;"/>
    <path clip-path="url(#p7939bf5d27)" d="M 185.318337 163.445981 
L 188.628716 167.925554 
L 186.002396 167.935576 
z
" style="stroke:#000000;"/>
    <path clip-path="url(#p7939bf5d27)" d="M 188.628716 186.38587 
L 186.415462 181.785436 
L 189.041398 181.793939 
z
" style="stroke:#000000;"/>
    <path clip-path="url(#p7939bf5d27)" d="M 186.002396 186.371229 
L 184.51947 185.831444 
L 184.908745 181.515386 
z
" style="stroke:#000000;"/>
    <path clip-path="url(#p7939bf5d27)" d="M 184.51947 168.479777 
L 186.002396 167.935576 
L 184.908745 172.794676 
z
" style="stroke:#000000;"/>
    <path clip-path="url(#p7939bf5d27)" d="M 189.041398 172.516251 
L 186.002396 167.935576 
L 188.628716 167.925554 
z
" style="stroke:#000000;"/>
    <path clip-path="url(#p7939bf5d27)" d="M 186.002396 186.371229 
L 187.945293 190.883523 
L 185.318337 190.86286 
z
" style="stroke:#000000;"/>
    <path clip-path="url(#p7939bf5d27)" d="M 188.675417 149.299139 
L 191.190918 144.372621 
L 187.41355 148.715122 
z
" style="stroke:#000000;"/>
    <path clip-path="url(#p7939bf5d27)" d="M 187.41355 148.715122 
L 191.190918 157.661511 
L 188.675417 149.299139 
z
" style="stroke:#000000;"/>
    <path clip-path="url(#p7939bf5d27)" d="M 187.945293 190.883523 
L 186.002396 186.371229 
L 188.628716 186.38587 
z
" style="stroke:#000000;"/>
    <path clip-path="url(#p7939bf5d27)" d="M 185.318337 190.86286 
L 183.874834 190.058545 
L 184.51947 185.831444 
z
" style="stroke:#000000;"/>
    <path clip-path="url(#p7939bf5d27)" d="M 183.874834 164.254595 
L 185.318337 163.445981 
L 184.51947 168.479777 
z
" style="stroke:#000000;"/>
    <path clip-path="url(#p7939bf5d27)" d="M 183.874834 190.058545 
L 185.318337 190.86286 
L 184.369847 195.213991 
z
" style="stroke:#000000;"/>
    <path clip-path="url(#p7939bf5d27)" d="M 185.318337 163.445981 
L 183.874834 164.254595 
L 184.369847 159.097675 
z
" style="stroke:#000000;"/>
    <path clip-path="url(#p7939bf5d27)" d="M 188.628716 167.925554 
L 185.318337 163.445981 
L 187.945293 163.429943 
z
" style="stroke:#000000;"/>
    <path clip-path="url(#p7939bf5d27)" d="M 184.369847 159.097675 
L 187.945293 163.429943 
L 185.318337 163.445981 
z
" style="stroke:#000000;"/>
    <path clip-path="url(#p7939bf5d27)" d="M 184.908745 181.515386 
L 187.666144 177.15715 
L 185.038928 177.154837 
z
" style="stroke:#000000;"/>
    <path clip-path="url(#p7939bf5d27)" d="M 187.666144 177.15715 
L 189.179394 177.154889 
L 189.041398 172.516251 
z
" style="stroke:#000000;"/>
    <path clip-path="url(#p7939bf5d27)" d="M 189.179394 177.154889 
L 187.666144 177.15715 
L 189.041398 181.793939 
z
" style="stroke:#000000;"/>
    <path clip-path="url(#p7939bf5d27)" d="M 185.038928 177.154837 
L 187.536082 172.791151 
L 184.908745 172.794676 
z
" style="stroke:#000000;"/>
    <path clip-path="url(#p7939bf5d27)" d="M 184.51947 185.831444 
L 187.536082 181.523538 
L 184.908745 181.515386 
z
" style="stroke:#000000;"/>
    <path clip-path="url(#p7939bf5d27)" d="M 187.536082 172.791151 
L 189.041398 172.516251 
L 188.628716 167.925554 
z
" style="stroke:#000000;"/>
    <path clip-path="url(#p7939bf5d27)" d="M 189.041398 181.793939 
L 187.536082 181.523538 
L 188.628716 186.38587 
z
" style="stroke:#000000;"/>
    <path clip-path="url(#p7939bf5d27)" d="M 185.318337 190.86286 
L 186.997683 195.2405 
L 184.369847 195.213991 
z
" style="stroke:#000000;"/>
    <path clip-path="url(#p7939bf5d27)" d="M 184.908745 172.794676 
L 187.147167 168.47047 
L 184.51947 168.479777 
z
" style="stroke:#000000;"/>
    <path clip-path="url(#p7939bf5d27)" d="M 186.997683 195.2405 
L 185.318337 190.86286 
L 187.945293 190.883523 
z
" style="stroke:#000000;"/>
    <path clip-path="url(#p7939bf5d27)" d="M 187.536082 172.791151 
L 185.038928 177.154837 
L 187.666144 177.15715 
z
" style="stroke:#000000;"/>
    <path clip-path="url(#p7939bf5d27)" d="M 187.666144 177.15715 
L 184.908745 181.515386 
L 187.536082 181.523538 
z
" style="stroke:#000000;"/>
    <path clip-path="url(#p7939bf5d27)" d="M 187.536082 181.523538 
L 189.041398 181.793939 
L 187.666144 177.15715 
z
" style="stroke:#000000;"/>
    <path clip-path="url(#p7939bf5d27)" d="M 189.041398 172.516251 
L 187.536082 172.791151 
L 187.666144 177.15715 
z
" style="stroke:#000000;"/>
    <path clip-path="url(#p7939bf5d27)" d="M 183.874834 190.058545 
L 187.147167 185.845381 
L 184.51947 185.831444 
z
" style="stroke:#000000;"/>
    <path clip-path="url(#p7939bf5d27)" d="M 187.147167 168.47047 
L 184.908745 172.794676 
L 187.536082 172.791151 
z
" style="stroke:#000000;"/>
    <path clip-path="url(#p7939bf5d27)" d="M 184.369847 195.213991 
L 182.981069 194.152897 
L 183.874834 190.058545 
z
" style="stroke:#000000;"/>
    <path clip-path="url(#p7939bf5d27)" d="M 182.981069 160.162905 
L 184.369847 159.097675 
L 183.874834 164.254595 
z
" style="stroke:#000000;"/>
    <path clip-path="url(#p7939bf5d27)" d="M 187.147167 168.47047 
L 188.628716 167.925554 
L 187.945293 163.429943 
z
" style="stroke:#000000;"/>
    <path clip-path="url(#p7939bf5d27)" d="M 188.628716 186.38587 
L 187.147167 185.845381 
L 187.945293 190.883523 
z
" style="stroke:#000000;"/>
    <path clip-path="url(#p7939bf5d27)" d="M 187.945293 163.429943 
L 184.369847 159.097675 
L 186.997683 159.075799 
z
" style="stroke:#000000;"/>
    <path clip-path="url(#p7939bf5d27)" d="M 187.536082 181.523538 
L 184.51947 185.831444 
L 187.147167 185.845381 
z
" style="stroke:#000000;"/>
    <path clip-path="url(#p7939bf5d27)" d="M 188.628716 167.925554 
L 187.147167 168.47047 
L 187.536082 172.791151 
z
" style="stroke:#000000;"/>
    <path clip-path="url(#p7939bf5d27)" d="M 187.147167 185.845381 
L 188.628716 186.38587 
L 187.536082 181.523538 
z
" style="stroke:#000000;"/>
    <path clip-path="url(#p7939bf5d27)" d="M 184.51947 168.479777 
L 186.503128 164.239621 
L 183.874834 164.254595 
z
" style="stroke:#000000;"/>
    <path clip-path="url(#p7939bf5d27)" d="M 182.981069 194.152897 
L 184.369847 195.213991 
L 183.166027 199.37951 
z
" style="stroke:#000000;"/>
    <path clip-path="url(#p7939bf5d27)" d="M 184.369847 159.097675 
L 182.981069 160.162905 
L 183.166027 154.935741 
z
" style="stroke:#000000;"/>
    <path clip-path="url(#p7939bf5d27)" d="M 183.166027 154.935741 
L 186.997683 159.075799 
L 184.369847 159.097675 
z
" style="stroke:#000000;"/>
    <path clip-path="url(#p7939bf5d27)" d="M 186.503128 164.239621 
L 184.51947 168.479777 
L 187.147167 168.47047 
z
" style="stroke:#000000;"/>
    <path clip-path="url(#p7939bf5d27)" d="M 182.981069 194.152897 
L 186.503128 190.078156 
L 183.874834 190.058545 
z
" style="stroke:#000000;"/>
    <path clip-path="url(#p7939bf5d27)" d="M 187.147167 185.845381 
L 183.874834 190.058545 
L 186.503128 190.078156 
z
" style="stroke:#000000;"/>
    <path clip-path="url(#p7939bf5d27)" d="M 184.369847 195.213991 
L 185.794976 199.411632 
L 183.166027 199.37951 
z
" style="stroke:#000000;"/>
    <path clip-path="url(#p7939bf5d27)" d="M 187.945293 163.429943 
L 186.503128 164.239621 
L 187.147167 168.47047 
z
" style="stroke:#000000;"/>
    <path clip-path="url(#p7939bf5d27)" d="M 186.503128 190.078156 
L 187.945293 190.883523 
L 187.147167 185.845381 
z
" style="stroke:#000000;"/>
    <path clip-path="url(#p7939bf5d27)" d="M 186.503128 164.239621 
L 187.945293 163.429943 
L 186.997683 159.075799 
z
" style="stroke:#000000;"/>
    <path clip-path="url(#p7939bf5d27)" d="M 187.945293 190.883523 
L 186.503128 190.078156 
L 186.997683 195.2405 
z
" style="stroke:#000000;"/>
    <path clip-path="url(#p7939bf5d27)" d="M 185.794976 199.411632 
L 184.369847 195.213991 
L 186.997683 195.2405 
z
" style="stroke:#000000;"/>
    <path clip-path="url(#p7939bf5d27)" d="M 183.874834 164.254595 
L 185.61019 160.142431 
L 182.981069 160.162905 
z
" style="stroke:#000000;"/>
    <path clip-path="url(#p7939bf5d27)" d="M 183.166027 199.37951 
L 181.846849 198.071868 
L 182.981069 194.152897 
z
" style="stroke:#000000;"/>
    <path clip-path="url(#p7939bf5d27)" d="M 181.846849 156.247311 
L 183.166027 154.935741 
L 182.981069 160.162905 
z
" style="stroke:#000000;"/>
    <path clip-path="url(#p7939bf5d27)" d="M 185.61019 160.142431 
L 183.874834 164.254595 
L 186.503128 164.239621 
z
" style="stroke:#000000;"/>
    <path clip-path="url(#p7939bf5d27)" d="M 186.997683 159.075799 
L 183.166027 154.935741 
L 185.794976 154.90826 
z
" style="stroke:#000000;"/>
    <path clip-path="url(#p7939bf5d27)" d="M 181.718553 203.315649 
L 181.846849 198.071868 
L 183.166027 199.37951 
z
" style="stroke:#000000;"/>
    <path clip-path="url(#p7939bf5d27)" d="M 181.846849 156.247311 
L 181.718553 151.003912 
L 183.166027 154.935741 
z
" style="stroke:#000000;"/>
    <path clip-path="url(#p7939bf5d27)" d="M 186.503128 190.078156 
L 182.981069 194.152897 
L 185.61019 194.178014 
z
" style="stroke:#000000;"/>
    <path clip-path="url(#p7939bf5d27)" d="M 186.997683 159.075799 
L 185.61019 160.142431 
L 186.503128 164.239621 
z
" style="stroke:#000000;"/>
    <path clip-path="url(#p7939bf5d27)" d="M 185.61019 194.178014 
L 186.997683 195.2405 
L 186.503128 190.078156 
z
" style="stroke:#000000;"/>
    <path clip-path="url(#p7939bf5d27)" d="M 181.718553 151.003912 
L 185.794976 154.90826 
L 183.166027 154.935741 
z
" style="stroke:#000000;"/>
    <path clip-path="url(#p7939bf5d27)" d="M 181.846849 198.071868 
L 185.61019 194.178014 
L 182.981069 194.152897 
z
" style="stroke:#000000;"/>
    <path clip-path="url(#p7939bf5d27)" d="M 185.61019 160.142431 
L 186.997683 159.075799 
L 185.794976 154.90826 
z
" style="stroke:#000000;"/>
    <path clip-path="url(#p7939bf5d27)" d="M 186.997683 195.2405 
L 185.61019 194.178014 
L 185.794976 199.411632 
z
" style="stroke:#000000;"/>
    <path clip-path="url(#p7939bf5d27)" d="M 182.981069 160.162905 
L 184.477016 156.22156 
L 181.846849 156.247311 
z
" style="stroke:#000000;"/>
    <path clip-path="url(#p7939bf5d27)" d="M 183.166027 199.37951 
L 184.348837 203.353097 
L 181.718553 203.315649 
z
" style="stroke:#000000;"/>
    <path clip-path="url(#p7939bf5d27)" d="M 184.348837 203.353097 
L 183.166027 199.37951 
L 185.794976 199.411632 
z
" style="stroke:#000000;"/>
    <path clip-path="url(#p7939bf5d27)" d="M 184.477016 156.22156 
L 182.981069 160.162905 
L 185.61019 160.142431 
z
" style="stroke:#000000;"/>
    <path clip-path="url(#p7939bf5d27)" d="M 181.718553 203.315649 
L 180.483231 201.774369 
L 181.846849 198.071868 
z
" style="stroke:#000000;"/>
    <path clip-path="url(#p7939bf5d27)" d="M 180.483231 152.54887 
L 181.718553 151.003912 
L 181.846849 156.247311 
z
" style="stroke:#000000;"/>
    <path clip-path="url(#p7939bf5d27)" d="M 185.61019 194.178014 
L 181.846849 198.071868 
L 184.477016 198.102272 
z
" style="stroke:#000000;"/>
    <path clip-path="url(#p7939bf5d27)" d="M 185.794976 154.90826 
L 181.718553 151.003912 
L 184.348837 150.971117 
z
" style="stroke:#000000;"/>
    <path clip-path="url(#p7939bf5d27)" d="M 185.794976 154.90826 
L 184.477016 156.22156 
L 185.61019 160.142431 
z
" style="stroke:#000000;"/>
    <path clip-path="url(#p7939bf5d27)" d="M 184.477016 198.102272 
L 185.794976 199.411632 
L 185.61019 194.178014 
z
" style="stroke:#000000;"/>
    <path clip-path="url(#p7939bf5d27)" d="M 180.483231 201.774369 
L 184.477016 198.102272 
L 181.846849 198.071868 
z
" style="stroke:#000000;"/>
    <path clip-path="url(#p7939bf5d27)" d="M 180.041531 206.980968 
L 180.483231 201.774369 
L 181.718553 203.315649 
z
" style="stroke:#000000;"/>
    <path clip-path="url(#p7939bf5d27)" d="M 180.483231 152.54887 
L 180.041531 147.343587 
L 181.718553 151.003912 
z
" style="stroke:#000000;"/>
    <path clip-path="url(#p7939bf5d27)" d="M 184.348837 150.971117 
L 184.477016 156.22156 
L 185.794976 154.90826 
z
" style="stroke:#000000;"/>
    <path clip-path="url(#p7939bf5d27)" d="M 184.477016 198.102272 
L 184.348837 203.353097 
L 185.794976 199.411632 
z
" style="stroke:#000000;"/>
    <path clip-path="url(#p7939bf5d27)" d="M 180.041531 147.343587 
L 184.348837 150.971117 
L 181.718553 151.003912 
z
" style="stroke:#000000;"/>
    <path clip-path="url(#p7939bf5d27)" d="M 181.846849 156.247311 
L 183.11465 152.518118 
L 180.483231 152.54887 
z
" style="stroke:#000000;"/>
    <path clip-path="url(#p7939bf5d27)" d="M 183.11465 152.518118 
L 181.846849 156.247311 
L 184.477016 156.22156 
z
" style="stroke:#000000;"/>
    <path clip-path="url(#p7939bf5d27)" d="M 182.673356 207.023399 
L 181.718553 203.315649 
L 184.348837 203.353097 
z
" style="stroke:#000000;"/>
    <path clip-path="url(#p7939bf5d27)" d="M 181.718553 203.315649 
L 182.673356 207.023399 
L 180.041531 206.980968 
z
" style="stroke:#000000;"/>
    <path clip-path="url(#p7939bf5d27)" d="M 184.477016 198.102272 
L 180.483231 201.774369 
L 183.11465 201.809785 
z
" style="stroke:#000000;"/>
    <path clip-path="url(#p7939bf5d27)" d="M 180.041531 206.980968 
L 178.903608 205.220905 
L 180.483231 201.774369 
z
" style="stroke:#000000;"/>
    <path clip-path="url(#p7939bf5d27)" d="M 178.903608 149.107039 
L 180.041531 147.343587 
L 180.483231 152.54887 
z
" style="stroke:#000000;"/>
    <path clip-path="url(#p7939bf5d27)" d="M 184.348837 150.971117 
L 183.11465 152.518118 
L 184.477016 156.22156 
z
" style="stroke:#000000;"/>
    <path clip-path="url(#p7939bf5d27)" d="M 183.11465 201.809785 
L 184.348837 203.353097 
L 184.477016 198.102272 
z
" style="stroke:#000000;"/>
    <path clip-path="url(#p7939bf5d27)" d="M 184.348837 150.971117 
L 180.041531 147.343587 
L 182.673356 147.305823 
z
" style="stroke:#000000;"/>
    <path clip-path="url(#p7939bf5d27)" d="M 178.903608 205.220905 
L 183.11465 201.809785 
L 180.483231 201.774369 
z
" style="stroke:#000000;"/>
    <path clip-path="url(#p7939bf5d27)" d="M 179.09725 145.670301 
L 182.673356 147.305823 
L 180.041531 147.343587 
z
" style="stroke:#000000;"/>
    <path clip-path="url(#p7939bf5d27)" d="M 178.429397 208.081689 
L 180.041531 206.980968 
L 179.09725 208.657066 
z
" style="stroke:#000000;"/>
    <path clip-path="url(#p7939bf5d27)" d="M 180.041531 147.343587 
L 178.429397 146.247667 
L 179.09725 145.670301 
z
" style="stroke:#000000;"/>
    <path clip-path="url(#p7939bf5d27)" d="M 182.673356 147.305823 
L 183.11465 152.518118 
L 184.348837 150.971117 
z
" style="stroke:#000000;"/>
    <path clip-path="url(#p7939bf5d27)" d="M 183.11465 201.809785 
L 182.673356 207.023399 
L 184.348837 203.353097 
z
" style="stroke:#000000;"/>
    <path clip-path="url(#p7939bf5d27)" d="M 180.041531 206.980968 
L 178.429397 208.081689 
L 178.903608 205.220905 
z
" style="stroke:#000000;"/>
    <path clip-path="url(#p7939bf5d27)" d="M 178.429397 146.247667 
L 180.041531 147.343587 
L 178.903608 149.107039 
z
" style="stroke:#000000;"/>
    <path clip-path="url(#p7939bf5d27)" d="M 181.536474 149.071612 
L 180.483231 152.54887 
L 183.11465 152.518118 
z
" style="stroke:#000000;"/>
    <path clip-path="url(#p7939bf5d27)" d="M 180.483231 152.54887 
L 181.536474 149.071612 
L 178.903608 149.107039 
z
" style="stroke:#000000;"/>
    <path clip-path="url(#p7939bf5d27)" d="M 180.041531 206.980968 
L 181.72994 208.701787 
L 179.09725 208.657066 
z
" style="stroke:#000000;"/>
    <path clip-path="url(#p7939bf5d27)" d="M 181.72994 208.701787 
L 180.041531 206.980968 
L 182.673356 207.023399 
z
" style="stroke:#000000;"/>
    <path clip-path="url(#p7939bf5d27)" d="M 183.11465 201.809785 
L 178.903608 205.220905 
L 181.536474 205.261008 
z
" style="stroke:#000000;"/>
    <path clip-path="url(#p7939bf5d27)" d="M 182.673356 147.305823 
L 179.09725 145.670301 
L 181.72994 145.630255 
z
" style="stroke:#000000;"/>
    <path clip-path="url(#p7939bf5d27)" d="M 178.903608 205.220905 
L 178.429397 208.081689 
L 177.727135 207.305288 
z
" style="stroke:#000000;"/>
    <path clip-path="url(#p7939bf5d27)" d="M 178.429397 146.247667 
L 178.903608 149.107039 
L 177.727135 147.026159 
z
" style="stroke:#000000;"/>
    <path clip-path="url(#p7939bf5d27)" d="M 181.72994 208.701787 
L 178.429397 208.081689 
L 179.09725 208.657066 
z
" style="stroke:#000000;"/>
    <path clip-path="url(#p7939bf5d27)" d="M 182.673356 147.305823 
L 181.536474 149.071612 
L 183.11465 152.518118 
z
" style="stroke:#000000;"/>
    <path clip-path="url(#p7939bf5d27)" d="M 181.536474 205.261008 
L 182.673356 207.023399 
L 183.11465 201.809785 
z
" style="stroke:#000000;"/>
    <path clip-path="url(#p7939bf5d27)" d="M 181.062696 146.208375 
L 179.09725 145.670301 
L 178.429397 146.247667 
z
" style="stroke:#000000;"/>
    <path clip-path="url(#p7939bf5d27)" d="M 181.536474 149.071612 
L 177.727135 147.026159 
L 178.903608 149.107039 
z
" style="stroke:#000000;"/>
    <path clip-path="url(#p7939bf5d27)" d="M 179.09725 145.670301 
L 181.062696 146.208375 
L 181.72994 145.630255 
z
" style="stroke:#000000;"/>
    <path clip-path="url(#p7939bf5d27)" d="M 181.062696 208.125661 
L 177.727135 207.305288 
L 178.429397 208.081689 
z
" style="stroke:#000000;"/>
    <path clip-path="url(#p7939bf5d27)" d="M 181.062696 146.208375 
L 182.673356 147.305823 
L 181.72994 145.630255 
z
" style="stroke:#000000;"/>
    <path clip-path="url(#p7939bf5d27)" d="M 182.673356 207.023399 
L 181.062696 208.125661 
L 181.72994 208.701787 
z
" style="stroke:#000000;"/>
    <path clip-path="url(#p7939bf5d27)" d="M 178.429397 208.081689 
L 181.72994 208.701787 
L 181.062696 208.125661 
z
" style="stroke:#000000;"/>
    <path clip-path="url(#p7939bf5d27)" d="M 180.361074 207.34824 
L 178.903608 205.220905 
L 177.727135 207.305288 
z
" style="stroke:#000000;"/>
    <path clip-path="url(#p7939bf5d27)" d="M 182.673356 147.305823 
L 181.062696 146.208375 
L 181.536474 149.071612 
z
" style="stroke:#000000;"/>
    <path clip-path="url(#p7939bf5d27)" d="M 181.062696 208.125661 
L 182.673356 207.023399 
L 181.536474 205.261008 
z
" style="stroke:#000000;"/>
    <path clip-path="url(#p7939bf5d27)" d="M 178.903608 205.220905 
L 180.361074 207.34824 
L 181.536474 205.261008 
z
" style="stroke:#000000;"/>
    <path clip-path="url(#p7939bf5d27)" d="M 180.361074 146.987892 
L 178.429397 146.247667 
L 177.727135 147.026159 
z
" style="stroke:#000000;"/>
    <path clip-path="url(#p7939bf5d27)" d="M 178.429397 146.247667 
L 180.361074 146.987892 
L 181.062696 146.208375 
z
" style="stroke:#000000;"/>
    <path clip-path="url(#p7939bf5d27)" d="M 177.727135 147.026159 
L 181.536474 149.071612 
L 180.361074 146.987892 
z
" style="stroke:#000000;"/>
    <path clip-path="url(#p7939bf5d27)" d="M 177.727135 207.305288 
L 181.062696 208.125661 
L 180.361074 207.34824 
z
" style="stroke:#000000;"/>
    <path clip-path="url(#p7939bf5d27)" d="M 181.536474 149.071612 
L 181.062696 146.208375 
L 180.361074 146.987892 
z
" style="stroke:#000000;"/>
    <path clip-path="url(#p7939bf5d27)" d="M 181.062696 208.125661 
L 181.536474 205.261008 
L 180.361074 207.34824 
z
" style="stroke:#000000;"/>
   </g>
  </g>
 </g>
 <defs>
  <clipPath id="p7939bf5d27">
   <rect height="271.8" width="279" x="45" y="43.2"/>
  </clipPath>
 </defs>
</svg>
