<?xml version="1.0" encoding="utf-8" standalone="no"?>
<!DOCTYPE svg PUBLIC "-//W3C//DTD SVG 1.1//EN"
  "http://www.w3.org/Graphics/SVG/1.1/DTD/svg11.dtd">
<!-- Created with matplotlib (https://matplotlib.org/) -->
<svg height="360pt" version="1.1" viewBox="0 0 360 360" width="360pt" xmlns="http://www.w3.org/2000/svg" xmlns:xlink="http://www.w3.org/1999/xlink">
 <defs>
  <style type="text/css">
*{stroke-linecap:butt;stroke-linejoin:round;}
  </style>
 </defs>
 <g id="figure_1">
  <g id="patch_1">
   <path d="M 45 315 
L 324 315 
L 324 43.2 
L 45 43.2 
z
" style="fill:#ffffff;"/>
  </g>
  <g id="axes_1">
   <g id="Poly3DCollection_1">
    <path clip-path="url(#p7914e9663c)" d="M 201.906884 207.620552 
L 201.250416 204.81953 
L 202.877465 206.824483 
z
" style="stroke:#000000;"/>
    <path clip-path="url(#p7914e9663c)" d="M 201.250416 149.461615 
L 201.906884 146.659727 
L 202.877465 147.454517 
z
" style="stroke:#000000;"/>
    <path clip-path="url(#p7914e9663c)" d="M 201.906884 207.620552 
L 199.671609 206.605203 
L 201.250416 204.81953 
z
" style="stroke:#000000;"/>
    <path clip-path="url(#p7914e9663c)" d="M 199.671609 147.678023 
L 201.906884 146.659727 
L 201.250416 149.461615 
z
" style="stroke:#000000;"/>
    <path clip-path="url(#p7914e9663c)" d="M 204.54973 206.883789 
L 201.906884 207.620552 
L 202.877465 206.824483 
z
" style="stroke:#000000;"/>
    <path clip-path="url(#p7914e9663c)" d="M 199.671609 206.605203 
L 201.906884 207.620552 
L 200.982099 208.218227 
z
" style="stroke:#000000;"/>
    <path clip-path="url(#p7914e9663c)" d="M 201.906884 146.659727 
L 199.671609 147.678023 
L 200.982099 146.063271 
z
" style="stroke:#000000;"/>
    <path clip-path="url(#p7914e9663c)" d="M 204.54973 147.401679 
L 201.250416 149.461615 
L 202.877465 147.454517 
z
" style="stroke:#000000;"/>
    <path clip-path="url(#p7914e9663c)" d="M 203.577941 146.605368 
L 202.877465 147.454517 
L 201.906884 146.659727 
z
" style="stroke:#000000;"/>
    <path clip-path="url(#p7914e9663c)" d="M 202.920655 204.875084 
L 202.877465 206.824483 
L 201.250416 204.81953 
z
" style="stroke:#000000;"/>
    <path clip-path="url(#p7914e9663c)" d="M 199.671609 206.605203 
L 199.057426 201.476629 
L 201.250416 204.81953 
z
" style="stroke:#000000;"/>
    <path clip-path="url(#p7914e9663c)" d="M 199.057426 152.807407 
L 199.671609 147.678023 
L 201.250416 149.461615 
z
" style="stroke:#000000;"/>
    <path clip-path="url(#p7914e9663c)" d="M 203.577941 207.681385 
L 200.982099 208.218227 
L 201.906884 207.620552 
z
" style="stroke:#000000;"/>
    <path clip-path="url(#p7914e9663c)" d="M 202.652005 146.007765 
L 201.906884 146.659727 
L 200.982099 146.063271 
z
" style="stroke:#000000;"/>
    <path clip-path="url(#p7914e9663c)" d="M 202.877465 147.454517 
L 203.577941 146.605368 
L 204.54973 147.401679 
z
" style="stroke:#000000;"/>
    <path clip-path="url(#p7914e9663c)" d="M 202.877465 206.824483 
L 202.920655 204.875084 
L 204.54973 206.883789 
z
" style="stroke:#000000;"/>
    <path clip-path="url(#p7914e9663c)" d="M 201.906884 207.620552 
L 204.54973 206.883789 
L 203.577941 207.681385 
z
" style="stroke:#000000;"/>
    <path clip-path="url(#p7914e9663c)" d="M 199.671609 147.678023 
L 202.652005 146.007765 
L 200.982099 146.063271 
z
" style="stroke:#000000;"/>
    <path clip-path="url(#p7914e9663c)" d="M 199.057426 201.476629 
L 202.920655 204.875084 
L 201.250416 204.81953 
z
" style="stroke:#000000;"/>
    <path clip-path="url(#p7914e9663c)" d="M 197.335691 203.04803 
L 199.057426 201.476629 
L 199.671609 206.605203 
z
" style="stroke:#000000;"/>
    <path clip-path="url(#p7914e9663c)" d="M 199.057426 152.807407 
L 197.335691 151.238277 
L 199.671609 147.678023 
z
" style="stroke:#000000;"/>
    <path clip-path="url(#p7914e9663c)" d="M 201.250416 149.461615 
L 204.54973 147.401679 
L 202.920655 149.412538 
z
" style="stroke:#000000;"/>
    <path clip-path="url(#p7914e9663c)" d="M 200.982099 208.218227 
L 201.339879 206.664168 
L 199.671609 206.605203 
z
" style="stroke:#000000;"/>
    <path clip-path="url(#p7914e9663c)" d="M 201.906884 146.659727 
L 202.652005 146.007765 
L 203.577941 146.605368 
z
" style="stroke:#000000;"/>
    <path clip-path="url(#p7914e9663c)" d="M 201.250416 149.461615 
L 200.724929 152.764618 
L 199.057426 152.807407 
z
" style="stroke:#000000;"/>
    <path clip-path="url(#p7914e9663c)" d="M 200.982099 208.218227 
L 203.577941 207.681385 
L 202.652005 208.280212 
z
" style="stroke:#000000;"/>
    <path clip-path="url(#p7914e9663c)" d="M 197.335691 203.04803 
L 197.156536 197.858585 
L 199.057426 201.476629 
z
" style="stroke:#000000;"/>
    <path clip-path="url(#p7914e9663c)" d="M 197.156536 156.427958 
L 197.335691 151.238277 
L 199.057426 152.807407 
z
" style="stroke:#000000;"/>
    <path clip-path="url(#p7914e9663c)" d="M 201.339879 206.664168 
L 200.982099 208.218227 
L 202.652005 208.280212 
z
" style="stroke:#000000;"/>
    <path clip-path="url(#p7914e9663c)" d="M 197.335691 151.238277 
L 201.339879 147.625543 
L 199.671609 147.678023 
z
" style="stroke:#000000;"/>
    <path clip-path="url(#p7914e9663c)" d="M 200.724929 152.764618 
L 201.250416 149.461615 
L 202.920655 149.412538 
z
" style="stroke:#000000;"/>
    <path clip-path="url(#p7914e9663c)" d="M 203.577941 146.605368 
L 202.920655 149.412538 
L 204.54973 147.401679 
z
" style="stroke:#000000;"/>
    <path clip-path="url(#p7914e9663c)" d="M 202.920655 204.875084 
L 203.577941 207.681385 
L 204.54973 206.883789 
z
" style="stroke:#000000;"/>
    <path clip-path="url(#p7914e9663c)" d="M 202.652005 146.007765 
L 199.671609 147.678023 
L 201.339879 147.625543 
z
" style="stroke:#000000;"/>
    <path clip-path="url(#p7914e9663c)" d="M 197.156536 197.858585 
L 200.724929 201.525906 
L 199.057426 201.476629 
z
" style="stroke:#000000;"/>
    <path clip-path="url(#p7914e9663c)" d="M 195.3107 199.197682 
L 197.156536 197.858585 
L 197.335691 203.04803 
z
" style="stroke:#000000;"/>
    <path clip-path="url(#p7914e9663c)" d="M 197.156536 156.427958 
L 195.3107 155.091295 
L 197.335691 151.238277 
z
" style="stroke:#000000;"/>
    <path clip-path="url(#p7914e9663c)" d="M 202.920655 204.875084 
L 199.057426 201.476629 
L 200.724929 201.525906 
z
" style="stroke:#000000;"/>
    <path clip-path="url(#p7914e9663c)" d="M 199.671609 206.605203 
L 199.001041 203.100314 
L 197.335691 203.04803 
z
" style="stroke:#000000;"/>
    <path clip-path="url(#p7914e9663c)" d="M 199.057426 152.807407 
L 198.821662 156.391991 
L 197.156536 156.427958 
z
" style="stroke:#000000;"/>
    <path clip-path="url(#p7914e9663c)" d="M 203.577941 146.605368 
L 201.339879 147.625543 
L 202.920655 149.412538 
z
" style="stroke:#000000;"/>
    <path clip-path="url(#p7914e9663c)" d="M 201.339879 206.664168 
L 203.577941 207.681385 
L 202.920655 204.875084 
z
" style="stroke:#000000;"/>
    <path clip-path="url(#p7914e9663c)" d="M 197.156536 197.858585 
L 195.3107 199.197682 
L 195.569908 194.005939 
z
" style="stroke:#000000;"/>
    <path clip-path="url(#p7914e9663c)" d="M 195.3107 155.091295 
L 197.156536 156.427958 
L 195.569908 160.282695 
z
" style="stroke:#000000;"/>
    <path clip-path="url(#p7914e9663c)" d="M 201.339879 147.625543 
L 203.577941 146.605368 
L 202.652005 146.007765 
z
" style="stroke:#000000;"/>
    <path clip-path="url(#p7914e9663c)" d="M 203.577941 207.681385 
L 201.339879 206.664168 
L 202.652005 208.280212 
z
" style="stroke:#000000;"/>
    <path clip-path="url(#p7914e9663c)" d="M 199.001041 203.100314 
L 199.671609 206.605203 
L 201.339879 206.664168 
z
" style="stroke:#000000;"/>
    <path clip-path="url(#p7914e9663c)" d="M 198.821662 156.391991 
L 199.057426 152.807407 
L 200.724929 152.764618 
z
" style="stroke:#000000;"/>
    <path clip-path="url(#p7914e9663c)" d="M 201.339879 147.625543 
L 200.724929 152.764618 
L 202.920655 149.412538 
z
" style="stroke:#000000;"/>
    <path clip-path="url(#p7914e9663c)" d="M 200.724929 201.525906 
L 201.339879 206.664168 
L 202.920655 204.875084 
z
" style="stroke:#000000;"/>
    <path clip-path="url(#p7914e9663c)" d="M 195.3107 155.091295 
L 199.001041 151.192489 
L 197.335691 151.238277 
z
" style="stroke:#000000;"/>
    <path clip-path="url(#p7914e9663c)" d="M 195.569908 194.005939 
L 198.821662 197.901049 
L 197.156536 197.858585 
z
" style="stroke:#000000;"/>
    <path clip-path="url(#p7914e9663c)" d="M 193.620321 195.096898 
L 195.569908 194.005939 
L 195.3107 199.197682 
z
" style="stroke:#000000;"/>
    <path clip-path="url(#p7914e9663c)" d="M 195.569908 160.282695 
L 193.620321 159.194307 
L 195.3107 155.091295 
z
" style="stroke:#000000;"/>
    <path clip-path="url(#p7914e9663c)" d="M 201.339879 147.625543 
L 197.335691 151.238277 
L 199.001041 151.192489 
z
" style="stroke:#000000;"/>
    <path clip-path="url(#p7914e9663c)" d="M 200.724929 201.525906 
L 197.156536 197.858585 
L 198.821662 197.901049 
z
" style="stroke:#000000;"/>
    <path clip-path="url(#p7914e9663c)" d="M 195.569908 194.005939 
L 193.620321 195.096898 
L 194.316098 189.961882 
z
" style="stroke:#000000;"/>
    <path clip-path="url(#p7914e9663c)" d="M 193.620321 159.194307 
L 195.569908 160.282695 
L 194.316098 164.328406 
z
" style="stroke:#000000;"/>
    <path clip-path="url(#p7914e9663c)" d="M 197.156536 156.427958 
L 197.233045 160.254008 
L 195.569908 160.282695 
z
" style="stroke:#000000;"/>
    <path clip-path="url(#p7914e9663c)" d="M 197.335691 203.04803 
L 196.973511 199.242713 
L 195.3107 199.197682 
z
" style="stroke:#000000;"/>
    <path clip-path="url(#p7914e9663c)" d="M 199.001041 151.192489 
L 200.724929 152.764618 
L 201.339879 147.625543 
z
" style="stroke:#000000;"/>
    <path clip-path="url(#p7914e9663c)" d="M 200.724929 201.525906 
L 199.001041 203.100314 
L 201.339879 206.664168 
z
" style="stroke:#000000;"/>
    <path clip-path="url(#p7914e9663c)" d="M 194.316098 189.961882 
L 197.233045 194.041132 
L 195.569908 194.005939 
z
" style="stroke:#000000;"/>
    <path clip-path="url(#p7914e9663c)" d="M 192.284451 190.791931 
L 194.316098 189.961882 
L 193.620321 195.096898 
z
" style="stroke:#000000;"/>
    <path clip-path="url(#p7914e9663c)" d="M 194.316098 164.328406 
L 192.284451 163.501036 
L 193.620321 159.194307 
z
" style="stroke:#000000;"/>
    <path clip-path="url(#p7914e9663c)" d="M 196.973511 199.242713 
L 197.335691 203.04803 
L 199.001041 203.100314 
z
" style="stroke:#000000;"/>
    <path clip-path="url(#p7914e9663c)" d="M 197.233045 160.254008 
L 197.156536 156.427958 
L 198.821662 156.391991 
z
" style="stroke:#000000;"/>
    <path clip-path="url(#p7914e9663c)" d="M 194.316098 189.961882 
L 192.284451 190.791931 
L 193.409826 185.772042 
z
" style="stroke:#000000;"/>
    <path clip-path="url(#p7914e9663c)" d="M 192.284451 163.501036 
L 194.316098 164.328406 
L 193.409826 168.51944 
z
" style="stroke:#000000;"/>
    <path clip-path="url(#p7914e9663c)" d="M 193.620321 159.194307 
L 196.973511 155.05277 
L 195.3107 155.091295 
z
" style="stroke:#000000;"/>
    <path clip-path="url(#p7914e9663c)" d="M 195.569908 160.282695 
L 195.97766 164.307372 
L 194.316098 164.328406 
z
" style="stroke:#000000;"/>
    <path clip-path="url(#p7914e9663c)" d="M 199.001041 151.192489 
L 198.821662 156.391991 
L 200.724929 152.764618 
z
" style="stroke:#000000;"/>
    <path clip-path="url(#p7914e9663c)" d="M 198.821662 197.901049 
L 199.001041 203.100314 
L 200.724929 201.525906 
z
" style="stroke:#000000;"/>
    <path clip-path="url(#p7914e9663c)" d="M 198.821662 197.901049 
L 195.569908 194.005939 
L 197.233045 194.041132 
z
" style="stroke:#000000;"/>
    <path clip-path="url(#p7914e9663c)" d="M 199.001041 151.192489 
L 195.3107 155.091295 
L 196.973511 155.05277 
z
" style="stroke:#000000;"/>
    <path clip-path="url(#p7914e9663c)" d="M 195.3107 199.197682 
L 195.281009 195.134185 
L 193.620321 195.096898 
z
" style="stroke:#000000;"/>
    <path clip-path="url(#p7914e9663c)" d="M 193.409826 185.772042 
L 191.318802 186.331402 
L 192.861763 181.483929 
z
" style="stroke:#000000;"/>
    <path clip-path="url(#p7914e9663c)" d="M 191.318802 167.962838 
L 193.409826 168.51944 
L 192.861763 172.808276 
z
" style="stroke:#000000;"/>
    <path clip-path="url(#p7914e9663c)" d="M 193.409826 185.772042 
L 195.97766 189.989428 
L 194.316098 189.961882 
z
" style="stroke:#000000;"/>
    <path clip-path="url(#p7914e9663c)" d="M 191.318802 186.331402 
L 193.409826 185.772042 
L 192.284451 190.791931 
z
" style="stroke:#000000;"/>
    <path clip-path="url(#p7914e9663c)" d="M 193.409826 168.51944 
L 191.318802 167.962838 
L 192.284451 163.501036 
z
" style="stroke:#000000;"/>
    <path clip-path="url(#p7914e9663c)" d="M 190.734799 172.529037 
L 192.861763 172.808276 
L 192.678344 177.146224 
z
" style="stroke:#000000;"/>
    <path clip-path="url(#p7914e9663c)" d="M 192.861763 181.483929 
L 190.734799 181.765973 
L 192.678344 177.146224 
z
" style="stroke:#000000;"/>
    <path clip-path="url(#p7914e9663c)" d="M 194.316098 164.328406 
L 195.070249 168.506345 
L 193.409826 168.51944 
z
" style="stroke:#000000;"/>
    <path clip-path="url(#p7914e9663c)" d="M 195.97766 164.307372 
L 195.569908 160.282695 
L 197.233045 160.254008 
z
" style="stroke:#000000;"/>
    <path clip-path="url(#p7914e9663c)" d="M 196.973511 155.05277 
L 198.821662 156.391991 
L 199.001041 151.192489 
z
" style="stroke:#000000;"/>
    <path clip-path="url(#p7914e9663c)" d="M 198.821662 197.901049 
L 196.973511 199.242713 
L 199.001041 203.100314 
z
" style="stroke:#000000;"/>
    <path clip-path="url(#p7914e9663c)" d="M 190.734799 181.765973 
L 192.861763 181.483929 
L 191.318802 186.331402 
z
" style="stroke:#000000;"/>
    <path clip-path="url(#p7914e9663c)" d="M 192.861763 172.808276 
L 190.734799 172.529037 
L 191.318802 167.962838 
z
" style="stroke:#000000;"/>
    <path clip-path="url(#p7914e9663c)" d="M 192.861763 181.483929 
L 195.070249 185.791654 
L 193.409826 185.772042 
z
" style="stroke:#000000;"/>
    <path clip-path="url(#p7914e9663c)" d="M 192.284451 163.501036 
L 195.281009 159.163535 
L 193.620321 159.194307 
z
" style="stroke:#000000;"/>
    <path clip-path="url(#p7914e9663c)" d="M 195.281009 195.134185 
L 195.3107 199.197682 
L 196.973511 199.242713 
z
" style="stroke:#000000;"/>
    <path clip-path="url(#p7914e9663c)" d="M 197.233045 194.041132 
L 194.316098 189.961882 
L 195.97766 189.989428 
z
" style="stroke:#000000;"/>
    <path clip-path="url(#p7914e9663c)" d="M 193.409826 168.51944 
L 194.521497 172.803311 
L 192.861763 172.808276 
z
" style="stroke:#000000;"/>
    <path clip-path="url(#p7914e9663c)" d="M 190.539365 177.147634 
L 192.678344 177.146224 
L 190.734799 181.765973 
z
" style="stroke:#000000;"/>
    <path clip-path="url(#p7914e9663c)" d="M 192.678344 177.146224 
L 190.539365 177.147634 
L 190.734799 172.529037 
z
" style="stroke:#000000;"/>
    <path clip-path="url(#p7914e9663c)" d="M 192.678344 177.146224 
L 194.521497 181.495414 
L 192.861763 181.483929 
z
" style="stroke:#000000;"/>
    <path clip-path="url(#p7914e9663c)" d="M 192.861763 172.808276 
L 194.337848 177.149484 
L 192.678344 177.146224 
z
" style="stroke:#000000;"/>
    <path clip-path="url(#p7914e9663c)" d="M 193.620321 195.096898 
L 193.943458 190.821072 
L 192.284451 190.791931 
z
" style="stroke:#000000;"/>
    <path clip-path="url(#p7914e9663c)" d="M 198.821662 156.391991 
L 196.973511 155.05277 
L 197.233045 160.254008 
z
" style="stroke:#000000;"/>
    <path clip-path="url(#p7914e9663c)" d="M 196.973511 199.242713 
L 198.821662 197.901049 
L 197.233045 194.041132 
z
" style="stroke:#000000;"/>
    <path clip-path="url(#p7914e9663c)" d="M 196.973511 155.05277 
L 193.620321 159.194307 
L 195.281009 159.163535 
z
" style="stroke:#000000;"/>
    <path clip-path="url(#p7914e9663c)" d="M 195.070249 168.506345 
L 194.316098 164.328406 
L 195.97766 164.307372 
z
" style="stroke:#000000;"/>
    <path clip-path="url(#p7914e9663c)" d="M 193.0345 148.893237 
L 187.681928 157.685876 
L 191.252748 149.427293 
z
" style="stroke:#000000;"/>
    <path clip-path="url(#p7914e9663c)" d="M 191.252748 149.427293 
L 187.681928 144.415211 
L 193.0345 148.893237 
z
" style="stroke:#000000;"/>
    <path clip-path="url(#p7914e9663c)" d="M 195.97766 189.989428 
L 193.409826 185.772042 
L 195.070249 185.791654 
z
" style="stroke:#000000;"/>
    <path clip-path="url(#p7914e9663c)" d="M 191.318802 167.962838 
L 193.943458 163.478417 
L 192.284451 163.501036 
z
" style="stroke:#000000;"/>
    <path clip-path="url(#p7914e9663c)" d="M 192.284451 190.791931 
L 192.976592 186.352091 
L 191.318802 186.331402 
z
" style="stroke:#000000;"/>
    <path clip-path="url(#p7914e9663c)" d="M 194.521497 172.803311 
L 193.409826 168.51944 
L 195.070249 168.506345 
z
" style="stroke:#000000;"/>
    <path clip-path="url(#p7914e9663c)" d="M 195.281009 159.163535 
L 197.233045 160.254008 
L 196.973511 155.05277 
z
" style="stroke:#000000;"/>
    <path clip-path="url(#p7914e9663c)" d="M 197.233045 194.041132 
L 195.281009 195.134185 
L 196.973511 199.242713 
z
" style="stroke:#000000;"/>
    <path clip-path="url(#p7914e9663c)" d="M 193.943458 190.821072 
L 193.620321 195.096898 
L 195.281009 195.134185 
z
" style="stroke:#000000;"/>
    <path clip-path="url(#p7914e9663c)" d="M 195.070249 185.791654 
L 192.861763 181.483929 
L 194.521497 181.495414 
z
" style="stroke:#000000;"/>
    <path clip-path="url(#p7914e9663c)" d="M 197.233045 160.254008 
L 195.281009 159.163535 
L 195.97766 164.307372 
z
" style="stroke:#000000;"/>
    <path clip-path="url(#p7914e9663c)" d="M 195.281009 195.134185 
L 197.233045 194.041132 
L 195.97766 189.989428 
z
" style="stroke:#000000;"/>
    <path clip-path="url(#p7914e9663c)" d="M 194.337848 177.149484 
L 192.861763 172.808276 
L 194.521497 172.803311 
z
" style="stroke:#000000;"/>
    <path clip-path="url(#p7914e9663c)" d="M 190.734799 172.529037 
L 192.976592 167.948676 
L 191.318802 167.962838 
z
" style="stroke:#000000;"/>
    <path clip-path="url(#p7914e9663c)" d="M 187.681928 157.685876 
L 193.0345 148.893237 
L 187.681928 162.109431 
z
" style="stroke:#000000;"/>
    <path clip-path="url(#p7914e9663c)" d="M 194.521497 181.495414 
L 192.678344 177.146224 
L 194.337848 177.149484 
z
" style="stroke:#000000;"/>
    <path clip-path="url(#p7914e9663c)" d="M 195.281009 159.163535 
L 192.284451 163.501036 
L 193.943458 163.478417 
z
" style="stroke:#000000;"/>
    <path clip-path="url(#p7914e9663c)" d="M 191.318802 186.331402 
L 192.391853 181.778003 
L 190.734799 181.765973 
z
" style="stroke:#000000;"/>
    <path clip-path="url(#p7914e9663c)" d="M 190.539365 177.147634 
L 192.391853 172.523537 
L 190.734799 172.529037 
z
" style="stroke:#000000;"/>
    <path clip-path="url(#p7914e9663c)" d="M 190.734799 181.765973 
L 192.196172 177.150899 
L 190.539365 177.147634 
z
" style="stroke:#000000;"/>
    <path clip-path="url(#p7914e9663c)" d="M 187.681928 144.415211 
L 191.252748 149.427293 
L 187.681928 146.626989 
z
" style="stroke:#000000;"/>
    <path clip-path="url(#p7914e9663c)" d="M 192.976592 186.352091 
L 192.284451 190.791931 
L 193.943458 190.821072 
z
" style="stroke:#000000;"/>
    <path clip-path="url(#p7914e9663c)" d="M 193.943458 163.478417 
L 195.97766 164.307372 
L 195.281009 159.163535 
z
" style="stroke:#000000;"/>
    <path clip-path="url(#p7914e9663c)" d="M 195.97766 189.989428 
L 193.943458 190.821072 
L 195.281009 195.134185 
z
" style="stroke:#000000;"/>
    <path clip-path="url(#p7914e9663c)" d="M 192.910455 149.377962 
L 187.681928 146.626989 
L 191.252748 149.427293 
z
" style="stroke:#000000;"/>
    <path clip-path="url(#p7914e9663c)" d="M 187.681928 157.685876 
L 192.910455 149.377962 
L 191.252748 149.427293 
z
" style="stroke:#000000;"/>
    <path clip-path="url(#p7914e9663c)" d="M 195.97766 164.307372 
L 193.943458 163.478417 
L 195.070249 168.506345 
z
" style="stroke:#000000;"/>
    <path clip-path="url(#p7914e9663c)" d="M 193.943458 190.821072 
L 195.97766 189.989428 
L 195.070249 185.791654 
z
" style="stroke:#000000;"/>
    <path clip-path="url(#p7914e9663c)" d="M 193.943458 163.478417 
L 191.318802 167.962838 
L 192.976592 167.948676 
z
" style="stroke:#000000;"/>
    <path clip-path="url(#p7914e9663c)" d="M 193.0345 148.893237 
L 189.335124 144.35629 
L 194.694452 148.842927 
z
" style="stroke:#000000;"/>
    <path clip-path="url(#p7914e9663c)" d="M 189.335124 162.084128 
L 193.0345 148.893237 
L 194.694452 148.842927 
z
" style="stroke:#000000;"/>
    <path clip-path="url(#p7914e9663c)" d="M 192.391853 181.778003 
L 191.318802 186.331402 
L 192.976592 186.352091 
z
" style="stroke:#000000;"/>
    <path clip-path="url(#p7914e9663c)" d="M 189.335124 144.35629 
L 193.0345 148.893237 
L 187.681928 144.415211 
z
" style="stroke:#000000;"/>
    <path clip-path="url(#p7914e9663c)" d="M 193.0345 148.893237 
L 189.335124 162.084128 
L 187.681928 162.109431 
z
" style="stroke:#000000;"/>
    <path clip-path="url(#p7914e9663c)" d="M 192.976592 167.948676 
L 190.734799 172.529037 
L 192.391853 172.523537 
z
" style="stroke:#000000;"/>
    <path clip-path="url(#p7914e9663c)" d="M 195.070249 168.506345 
L 192.976592 167.948676 
L 194.521497 172.803311 
z
" style="stroke:#000000;"/>
    <path clip-path="url(#p7914e9663c)" d="M 192.976592 186.352091 
L 195.070249 185.791654 
L 194.521497 181.495414 
z
" style="stroke:#000000;"/>
    <path clip-path="url(#p7914e9663c)" d="M 192.976592 167.948676 
L 195.070249 168.506345 
L 193.943458 163.478417 
z
" style="stroke:#000000;"/>
    <path clip-path="url(#p7914e9663c)" d="M 195.070249 185.791654 
L 192.976592 186.352091 
L 193.943458 190.821072 
z
" style="stroke:#000000;"/>
    <path clip-path="url(#p7914e9663c)" d="M 192.196172 177.150899 
L 190.734799 181.765973 
L 192.391853 181.778003 
z
" style="stroke:#000000;"/>
    <path clip-path="url(#p7914e9663c)" d="M 192.391853 172.523537 
L 190.539365 177.147634 
L 192.196172 177.150899 
z
" style="stroke:#000000;"/>
    <path clip-path="url(#p7914e9663c)" d="M 192.391853 181.778003 
L 194.521497 181.495414 
L 194.337848 177.149484 
z
" style="stroke:#000000;"/>
    <path clip-path="url(#p7914e9663c)" d="M 194.521497 172.803311 
L 192.391853 172.523537 
L 194.337848 177.149484 
z
" style="stroke:#000000;"/>
    <path clip-path="url(#p7914e9663c)" d="M 192.391853 172.523537 
L 194.521497 172.803311 
L 192.976592 167.948676 
z
" style="stroke:#000000;"/>
    <path clip-path="url(#p7914e9663c)" d="M 194.521497 181.495414 
L 192.391853 181.778003 
L 192.976592 186.352091 
z
" style="stroke:#000000;"/>
    <path clip-path="url(#p7914e9663c)" d="M 184.101321 149.35603 
L 187.681928 144.415211 
L 187.681928 146.626989 
z
" style="stroke:#000000;"/>
    <path clip-path="url(#p7914e9663c)" d="M 192.196172 177.150899 
L 194.337848 177.149484 
L 192.391853 172.523537 
z
" style="stroke:#000000;"/>
    <path clip-path="url(#p7914e9663c)" d="M 194.337848 177.149484 
L 192.196172 177.150899 
L 192.391853 181.778003 
z
" style="stroke:#000000;"/>
    <path clip-path="url(#p7914e9663c)" d="M 182.307334 148.784072 
L 187.681928 157.685876 
L 187.681928 162.109431 
z
" style="stroke:#000000;"/>
    <path clip-path="url(#p7914e9663c)" d="M 189.335124 144.35629 
L 192.910455 149.377962 
L 194.694452 148.842927 
z
" style="stroke:#000000;"/>
    <path clip-path="url(#p7914e9663c)" d="M 189.335124 157.652168 
L 194.694452 148.842927 
L 192.910455 149.377962 
z
" style="stroke:#000000;"/>
    <path clip-path="url(#p7914e9663c)" d="M 187.681928 146.626989 
L 192.910455 149.377962 
L 189.335124 146.57227 
z
" style="stroke:#000000;"/>
    <path clip-path="url(#p7914e9663c)" d="M 192.910455 149.377962 
L 187.681928 157.685876 
L 189.335124 157.652168 
z
" style="stroke:#000000;"/>
    <path clip-path="url(#p7914e9663c)" d="M 189.335124 146.57227 
L 184.101321 149.35603 
L 187.681928 146.626989 
z
" style="stroke:#000000;"/>
    <path clip-path="url(#p7914e9663c)" d="M 184.101321 149.35603 
L 189.335124 157.652168 
L 187.681928 157.685876 
z
" style="stroke:#000000;"/>
    <path clip-path="url(#p7914e9663c)" d="M 187.681928 157.685876 
L 182.307334 148.784072 
L 184.101321 149.35603 
z
" style="stroke:#000000;"/>
    <path clip-path="url(#p7914e9663c)" d="M 187.681928 144.415211 
L 184.101321 149.35603 
L 182.307334 148.784072 
z
" style="stroke:#000000;"/>
    <path clip-path="url(#p7914e9663c)" d="M 189.335124 157.652168 
L 189.335124 162.084128 
L 194.694452 148.842927 
z
" style="stroke:#000000;"/>
    <path clip-path="url(#p7914e9663c)" d="M 182.666328 177.152824 
L 184.818227 177.151406 
L 184.621905 181.780822 
z
" style="stroke:#000000;"/>
    <path clip-path="url(#p7914e9663c)" d="M 184.818227 177.151406 
L 182.666328 177.152824 
L 184.621905 172.522248 
z
" style="stroke:#000000;"/>
    <path clip-path="url(#p7914e9663c)" d="M 189.335124 144.35629 
L 189.335124 146.57227 
L 192.910455 149.377962 
z
" style="stroke:#000000;"/>
    <path clip-path="url(#p7914e9663c)" d="M 182.481473 181.508041 
L 184.621905 181.780822 
L 184.034901 186.361844 
z
" style="stroke:#000000;"/>
    <path clip-path="url(#p7914e9663c)" d="M 184.621905 172.522248 
L 182.481473 172.797851 
L 184.034901 167.942 
z
" style="stroke:#000000;"/>
    <path clip-path="url(#p7914e9663c)" d="M 182.481473 172.797851 
L 184.621905 172.522248 
L 182.666328 177.152824 
z
" style="stroke:#000000;"/>
    <path clip-path="url(#p7914e9663c)" d="M 184.621905 181.780822 
L 182.481473 181.508041 
L 182.666328 177.152824 
z
" style="stroke:#000000;"/>
    <path clip-path="url(#p7914e9663c)" d="M 184.621905 172.522248 
L 186.467791 177.154685 
L 184.818227 177.151406 
z
" style="stroke:#000000;"/>
    <path clip-path="url(#p7914e9663c)" d="M 184.818227 177.151406 
L 186.27122 181.792908 
L 184.621905 181.780822 
z
" style="stroke:#000000;"/>
    <path clip-path="url(#p7914e9663c)" d="M 181.928805 185.817601 
L 184.034901 186.361844 
L 183.063132 190.846256 
z
" style="stroke:#000000;"/>
    <path clip-path="url(#p7914e9663c)" d="M 184.034901 167.942 
L 181.928805 168.48902 
L 183.063132 163.45887 
z
" style="stroke:#000000;"/>
    <path clip-path="url(#p7914e9663c)" d="M 184.034901 186.361844 
L 181.928805 185.817601 
L 182.481473 181.508041 
z
" style="stroke:#000000;"/>
    <path clip-path="url(#p7914e9663c)" d="M 181.928805 168.48902 
L 184.034901 167.942 
L 182.481473 172.797851 
z
" style="stroke:#000000;"/>
    <path clip-path="url(#p7914e9663c)" d="M 184.034901 167.942 
L 186.27122 172.516723 
L 184.621905 172.522248 
z
" style="stroke:#000000;"/>
    <path clip-path="url(#p7914e9663c)" d="M 187.681928 144.415211 
L 183.953704 148.733347 
L 189.335124 144.35629 
z
" style="stroke:#000000;"/>
    <path clip-path="url(#p7914e9663c)" d="M 183.953704 148.733347 
L 187.681928 162.109431 
L 189.335124 162.084128 
z
" style="stroke:#000000;"/>
    <path clip-path="url(#p7914e9663c)" d="M 184.621905 181.780822 
L 185.68347 186.382649 
L 184.034901 186.361844 
z
" style="stroke:#000000;"/>
    <path clip-path="url(#p7914e9663c)" d="M 183.953704 148.733347 
L 187.681928 144.415211 
L 182.307334 148.784072 
z
" style="stroke:#000000;"/>
    <path clip-path="url(#p7914e9663c)" d="M 187.681928 162.109431 
L 183.953704 148.733347 
L 182.307334 148.784072 
z
" style="stroke:#000000;"/>
    <path clip-path="url(#p7914e9663c)" d="M 183.063132 163.45887 
L 185.68347 167.927759 
L 184.034901 167.942 
z
" style="stroke:#000000;"/>
    <path clip-path="url(#p7914e9663c)" d="M 183.063132 190.846256 
L 181.013895 190.036072 
L 181.928805 185.817601 
z
" style="stroke:#000000;"/>
    <path clip-path="url(#p7914e9663c)" d="M 181.013895 164.271755 
L 183.063132 163.45887 
L 181.928805 168.48902 
z
" style="stroke:#000000;"/>
    <path clip-path="url(#p7914e9663c)" d="M 184.101321 149.35603 
L 189.335124 146.57227 
L 185.749974 149.306428 
z
" style="stroke:#000000;"/>
    <path clip-path="url(#p7914e9663c)" d="M 189.335124 157.652168 
L 184.101321 149.35603 
L 185.749974 149.306428 
z
" style="stroke:#000000;"/>
    <path clip-path="url(#p7914e9663c)" d="M 181.013895 190.036072 
L 183.063132 190.846256 
L 181.716417 195.186721 
z
" style="stroke:#000000;"/>
    <path clip-path="url(#p7914e9663c)" d="M 183.063132 163.45887 
L 181.013895 164.271755 
L 181.716417 159.12018 
z
" style="stroke:#000000;"/>
    <path clip-path="url(#p7914e9663c)" d="M 184.034901 186.361844 
L 184.710465 190.875604 
L 183.063132 190.846256 
z
" style="stroke:#000000;"/>
    <path clip-path="url(#p7914e9663c)" d="M 189.335124 144.35629 
L 185.749974 149.306428 
L 189.335124 146.57227 
z
" style="stroke:#000000;"/>
    <path clip-path="url(#p7914e9663c)" d="M 186.27122 181.792908 
L 184.818227 177.151406 
L 186.467791 177.154685 
z
" style="stroke:#000000;"/>
    <path clip-path="url(#p7914e9663c)" d="M 186.467791 177.154685 
L 184.621905 172.522248 
L 186.27122 172.516723 
z
" style="stroke:#000000;"/>
    <path clip-path="url(#p7914e9663c)" d="M 185.68347 186.382649 
L 184.621905 181.780822 
L 186.27122 181.792908 
z
" style="stroke:#000000;"/>
    <path clip-path="url(#p7914e9663c)" d="M 181.716417 159.12018 
L 184.710465 163.43609 
L 183.063132 163.45887 
z
" style="stroke:#000000;"/>
    <path clip-path="url(#p7914e9663c)" d="M 182.481473 181.508041 
L 184.313156 177.156109 
L 182.666328 177.152824 
z
" style="stroke:#000000;"/>
    <path clip-path="url(#p7914e9663c)" d="M 189.335124 157.652168 
L 183.953704 148.733347 
L 189.335124 162.084128 
z
" style="stroke:#000000;"/>
    <path clip-path="url(#p7914e9663c)" d="M 186.27122 172.516723 
L 184.034901 167.942 
L 185.68347 167.927759 
z
" style="stroke:#000000;"/>
    <path clip-path="url(#p7914e9663c)" d="M 182.666328 177.152824 
L 184.128065 172.792846 
L 182.481473 172.797851 
z
" style="stroke:#000000;"/>
    <path clip-path="url(#p7914e9663c)" d="M 181.716417 195.186721 
L 179.746029 194.118803 
L 181.013895 190.036072 
z
" style="stroke:#000000;"/>
    <path clip-path="url(#p7914e9663c)" d="M 179.746029 160.190696 
L 181.716417 159.12018 
L 181.013895 164.271755 
z
" style="stroke:#000000;"/>
    <path clip-path="url(#p7914e9663c)" d="M 181.928805 185.817601 
L 184.128065 181.519618 
L 182.481473 181.508041 
z
" style="stroke:#000000;"/>
    <path clip-path="url(#p7914e9663c)" d="M 183.063132 190.846256 
L 183.362034 195.22435 
L 181.716417 195.186721 
z
" style="stroke:#000000;"/>
    <path clip-path="url(#p7914e9663c)" d="M 179.746029 194.118803 
L 181.716417 195.186721 
L 180.008344 199.337311 
z
" style="stroke:#000000;"/>
    <path clip-path="url(#p7914e9663c)" d="M 181.716417 159.12018 
L 179.746029 160.190696 
L 180.008344 154.971842 
z
" style="stroke:#000000;"/>
    <path clip-path="url(#p7914e9663c)" d="M 182.481473 172.797851 
L 183.574693 168.475809 
L 181.928805 168.48902 
z
" style="stroke:#000000;"/>
    <path clip-path="url(#p7914e9663c)" d="M 184.710465 190.875604 
L 184.034901 186.361844 
L 185.68347 186.382649 
z
" style="stroke:#000000;"/>
    <path clip-path="url(#p7914e9663c)" d="M 185.68347 167.927759 
L 183.063132 163.45887 
L 184.710465 163.43609 
z
" style="stroke:#000000;"/>
    <path clip-path="url(#p7914e9663c)" d="M 181.013895 190.036072 
L 183.574693 185.837387 
L 181.928805 185.817601 
z
" style="stroke:#000000;"/>
    <path clip-path="url(#p7914e9663c)" d="M 185.749974 149.306428 
L 189.335124 144.35629 
L 183.953704 148.733347 
z
" style="stroke:#000000;"/>
    <path clip-path="url(#p7914e9663c)" d="M 183.953704 148.733347 
L 189.335124 157.652168 
L 185.749974 149.306428 
z
" style="stroke:#000000;"/>
    <path clip-path="url(#p7914e9663c)" d="M 181.928805 168.48902 
L 182.658617 164.250506 
L 181.013895 164.271755 
z
" style="stroke:#000000;"/>
    <path clip-path="url(#p7914e9663c)" d="M 180.008344 154.971842 
L 183.362034 159.089126 
L 181.716417 159.12018 
z
" style="stroke:#000000;"/>
    <path clip-path="url(#p7914e9663c)" d="M 180.008344 199.337311 
L 178.138101 198.022463 
L 179.746029 194.118803 
z
" style="stroke:#000000;"/>
    <path clip-path="url(#p7914e9663c)" d="M 178.138101 156.289156 
L 180.008344 154.971842 
L 179.746029 160.190696 
z
" style="stroke:#000000;"/>
    <path clip-path="url(#p7914e9663c)" d="M 183.362034 195.22435 
L 183.063132 190.846256 
L 184.710465 190.875604 
z
" style="stroke:#000000;"/>
    <path clip-path="url(#p7914e9663c)" d="M 184.128065 172.792846 
L 182.666328 177.152824 
L 184.313156 177.156109 
z
" style="stroke:#000000;"/>
    <path clip-path="url(#p7914e9663c)" d="M 184.313156 177.156109 
L 182.481473 181.508041 
L 184.128065 181.519618 
z
" style="stroke:#000000;"/>
    <path clip-path="url(#p7914e9663c)" d="M 184.313156 177.156109 
L 186.467791 177.154685 
L 186.27122 172.516723 
z
" style="stroke:#000000;"/>
    <path clip-path="url(#p7914e9663c)" d="M 186.467791 177.154685 
L 184.313156 177.156109 
L 186.27122 181.792908 
z
" style="stroke:#000000;"/>
    <path clip-path="url(#p7914e9663c)" d="M 183.574693 168.475809 
L 182.481473 172.797851 
L 184.128065 172.792846 
z
" style="stroke:#000000;"/>
    <path clip-path="url(#p7914e9663c)" d="M 179.746029 194.118803 
L 182.658617 190.0639 
L 181.013895 190.036072 
z
" style="stroke:#000000;"/>
    <path clip-path="url(#p7914e9663c)" d="M 181.716417 195.186721 
L 181.651783 199.382874 
L 180.008344 199.337311 
z
" style="stroke:#000000;"/>
    <path clip-path="url(#p7914e9663c)" d="M 184.710465 163.43609 
L 181.716417 159.12018 
L 183.362034 159.089126 
z
" style="stroke:#000000;"/>
    <path clip-path="url(#p7914e9663c)" d="M 184.128065 181.519618 
L 181.928805 185.817601 
L 183.574693 185.837387 
z
" style="stroke:#000000;"/>
    <path clip-path="url(#p7914e9663c)" d="M 184.128065 172.792846 
L 186.27122 172.516723 
L 185.68347 167.927759 
z
" style="stroke:#000000;"/>
    <path clip-path="url(#p7914e9663c)" d="M 186.27122 181.792908 
L 184.128065 181.519618 
L 185.68347 186.382649 
z
" style="stroke:#000000;"/>
    <path clip-path="url(#p7914e9663c)" d="M 177.956294 203.253664 
L 178.138101 198.022463 
L 180.008344 199.337311 
z
" style="stroke:#000000;"/>
    <path clip-path="url(#p7914e9663c)" d="M 178.138101 156.289156 
L 177.956294 151.058195 
L 180.008344 154.971842 
z
" style="stroke:#000000;"/>
    <path clip-path="url(#p7914e9663c)" d="M 181.013895 164.271755 
L 181.389132 160.161659 
L 179.746029 160.190696 
z
" style="stroke:#000000;"/>
    <path clip-path="url(#p7914e9663c)" d="M 182.658617 164.250506 
L 181.928805 168.48902 
L 183.574693 168.475809 
z
" style="stroke:#000000;"/>
    <path clip-path="url(#p7914e9663c)" d="M 184.128065 181.519618 
L 186.27122 181.792908 
L 184.313156 177.156109 
z
" style="stroke:#000000;"/>
    <path clip-path="url(#p7914e9663c)" d="M 186.27122 172.516723 
L 184.128065 172.792846 
L 184.313156 177.156109 
z
" style="stroke:#000000;"/>
    <path clip-path="url(#p7914e9663c)" d="M 183.574693 168.475809 
L 185.68347 167.927759 
L 184.710465 163.43609 
z
" style="stroke:#000000;"/>
    <path clip-path="url(#p7914e9663c)" d="M 185.68347 186.382649 
L 183.574693 185.837387 
L 184.710465 190.875604 
z
" style="stroke:#000000;"/>
    <path clip-path="url(#p7914e9663c)" d="M 183.574693 185.837387 
L 181.013895 190.036072 
L 182.658617 190.0639 
z
" style="stroke:#000000;"/>
    <path clip-path="url(#p7914e9663c)" d="M 185.68347 167.927759 
L 183.574693 168.475809 
L 184.128065 172.792846 
z
" style="stroke:#000000;"/>
    <path clip-path="url(#p7914e9663c)" d="M 183.574693 185.837387 
L 185.68347 186.382649 
L 184.128065 181.519618 
z
" style="stroke:#000000;"/>
    <path clip-path="url(#p7914e9663c)" d="M 181.651783 199.382874 
L 181.716417 195.186721 
L 183.362034 195.22435 
z
" style="stroke:#000000;"/>
    <path clip-path="url(#p7914e9663c)" d="M 177.956294 151.058195 
L 181.651783 154.932863 
L 180.008344 154.971842 
z
" style="stroke:#000000;"/>
    <path clip-path="url(#p7914e9663c)" d="M 178.138101 198.022463 
L 181.389132 194.154425 
L 179.746029 194.118803 
z
" style="stroke:#000000;"/>
    <path clip-path="url(#p7914e9663c)" d="M 177.956294 203.253664 
L 176.206504 201.705457 
L 178.138101 198.022463 
z
" style="stroke:#000000;"/>
    <path clip-path="url(#p7914e9663c)" d="M 176.206504 152.608709 
L 177.956294 151.058195 
L 178.138101 156.289156 
z
" style="stroke:#000000;"/>
    <path clip-path="url(#p7914e9663c)" d="M 181.389132 160.161659 
L 181.013895 164.271755 
L 182.658617 164.250506 
z
" style="stroke:#000000;"/>
    <path clip-path="url(#p7914e9663c)" d="M 183.362034 159.089126 
L 180.008344 154.971842 
L 181.651783 154.932863 
z
" style="stroke:#000000;"/>
    <path clip-path="url(#p7914e9663c)" d="M 184.710465 163.43609 
L 182.658617 164.250506 
L 183.574693 168.475809 
z
" style="stroke:#000000;"/>
    <path clip-path="url(#p7914e9663c)" d="M 182.658617 190.0639 
L 184.710465 190.875604 
L 183.574693 185.837387 
z
" style="stroke:#000000;"/>
    <path clip-path="url(#p7914e9663c)" d="M 179.746029 160.190696 
L 179.779147 156.252662 
L 178.138101 156.289156 
z
" style="stroke:#000000;"/>
    <path clip-path="url(#p7914e9663c)" d="M 180.008344 199.337311 
L 179.597108 203.306731 
L 177.956294 203.253664 
z
" style="stroke:#000000;"/>
    <path clip-path="url(#p7914e9663c)" d="M 182.658617 164.250506 
L 184.710465 163.43609 
L 183.362034 159.089126 
z
" style="stroke:#000000;"/>
    <path clip-path="url(#p7914e9663c)" d="M 184.710465 190.875604 
L 182.658617 190.0639 
L 183.362034 195.22435 
z
" style="stroke:#000000;"/>
    <path clip-path="url(#p7914e9663c)" d="M 182.658617 190.0639 
L 179.746029 194.118803 
L 181.389132 194.154425 
z
" style="stroke:#000000;"/>
    <path clip-path="url(#p7914e9663c)" d="M 175.581187 206.894006 
L 176.206504 201.705457 
L 177.956294 203.253664 
z
" style="stroke:#000000;"/>
    <path clip-path="url(#p7914e9663c)" d="M 176.206504 152.608709 
L 175.581187 147.420984 
L 177.956294 151.058195 
z
" style="stroke:#000000;"/>
    <path clip-path="url(#p7914e9663c)" d="M 179.597108 203.306731 
L 180.008344 199.337311 
L 181.651783 199.382874 
z
" style="stroke:#000000;"/>
    <path clip-path="url(#p7914e9663c)" d="M 179.779147 156.252662 
L 179.746029 160.190696 
L 181.389132 160.161659 
z
" style="stroke:#000000;"/>
    <path clip-path="url(#p7914e9663c)" d="M 183.362034 159.089126 
L 181.389132 160.161659 
L 182.658617 164.250506 
z
" style="stroke:#000000;"/>
    <path clip-path="url(#p7914e9663c)" d="M 181.389132 194.154425 
L 183.362034 195.22435 
L 182.658617 190.0639 
z
" style="stroke:#000000;"/>
    <path clip-path="url(#p7914e9663c)" d="M 176.206504 201.705457 
L 179.779147 198.065551 
L 178.138101 198.022463 
z
" style="stroke:#000000;"/>
    <path clip-path="url(#p7914e9663c)" d="M 181.389132 160.161659 
L 183.362034 159.089126 
L 181.651783 154.932863 
z
" style="stroke:#000000;"/>
    <path clip-path="url(#p7914e9663c)" d="M 183.362034 195.22435 
L 181.389132 194.154425 
L 181.651783 199.382874 
z
" style="stroke:#000000;"/>
    <path clip-path="url(#p7914e9663c)" d="M 175.581187 147.420984 
L 179.597108 151.011722 
L 177.956294 151.058195 
z
" style="stroke:#000000;"/>
    <path clip-path="url(#p7914e9663c)" d="M 181.389132 194.154425 
L 178.138101 198.022463 
L 179.779147 198.065551 
z
" style="stroke:#000000;"/>
    <path clip-path="url(#p7914e9663c)" d="M 181.651783 154.932863 
L 177.956294 151.058195 
L 179.597108 151.011722 
z
" style="stroke:#000000;"/>
    <path clip-path="url(#p7914e9663c)" d="M 175.581187 206.894006 
L 173.971031 205.12802 
L 176.206504 201.705457 
z
" style="stroke:#000000;"/>
    <path clip-path="url(#p7914e9663c)" d="M 173.971031 149.189093 
L 175.581187 147.420984 
L 176.206504 152.608709 
z
" style="stroke:#000000;"/>
    <path clip-path="url(#p7914e9663c)" d="M 178.138101 156.289156 
L 177.845076 152.565164 
L 176.206504 152.608709 
z
" style="stroke:#000000;"/>
    <path clip-path="url(#p7914e9663c)" d="M 177.956294 203.253664 
L 177.218956 206.95407 
L 175.581187 206.894006 
z
" style="stroke:#000000;"/>
    <path clip-path="url(#p7914e9663c)" d="M 173.30037 207.974968 
L 175.581187 206.894006 
L 174.244953 208.555513 
z
" style="stroke:#000000;"/>
    <path clip-path="url(#p7914e9663c)" d="M 175.581187 147.420984 
L 173.30037 146.34303 
L 174.244953 145.761239 
z
" style="stroke:#000000;"/>
    <path clip-path="url(#p7914e9663c)" d="M 181.651783 154.932863 
L 179.779147 156.252662 
L 181.389132 160.161659 
z
" style="stroke:#000000;"/>
    <path clip-path="url(#p7914e9663c)" d="M 179.779147 198.065551 
L 181.651783 199.382874 
L 181.389132 194.154425 
z
" style="stroke:#000000;"/>
    <path clip-path="url(#p7914e9663c)" d="M 175.581187 206.894006 
L 173.30037 207.974968 
L 173.971031 205.12802 
z
" style="stroke:#000000;"/>
    <path clip-path="url(#p7914e9663c)" d="M 173.30037 146.34303 
L 175.581187 147.420984 
L 173.971031 149.189093 
z
" style="stroke:#000000;"/>
    <path clip-path="url(#p7914e9663c)" d="M 177.845076 152.565164 
L 178.138101 156.289156 
L 179.779147 156.252662 
z
" style="stroke:#000000;"/>
    <path clip-path="url(#p7914e9663c)" d="M 177.218956 206.95407 
L 177.956294 203.253664 
L 179.597108 203.306731 
z
" style="stroke:#000000;"/>
    <path clip-path="url(#p7914e9663c)" d="M 173.971031 205.12802 
L 177.845076 201.755605 
L 176.206504 201.705457 
z
" style="stroke:#000000;"/>
    <path clip-path="url(#p7914e9663c)" d="M 179.597108 151.011722 
L 179.779147 156.252662 
L 181.651783 154.932863 
z
" style="stroke:#000000;"/>
    <path clip-path="url(#p7914e9663c)" d="M 179.779147 198.065551 
L 179.597108 203.306731 
L 181.651783 199.382874 
z
" style="stroke:#000000;"/>
    <path clip-path="url(#p7914e9663c)" d="M 179.779147 198.065551 
L 176.206504 201.705457 
L 177.845076 201.755605 
z
" style="stroke:#000000;"/>
    <path clip-path="url(#p7914e9663c)" d="M 174.244953 145.761239 
L 177.218956 147.367527 
L 175.581187 147.420984 
z
" style="stroke:#000000;"/>
    <path clip-path="url(#p7914e9663c)" d="M 173.971031 205.12802 
L 173.30037 207.974968 
L 172.307556 207.193997 
z
" style="stroke:#000000;"/>
    <path clip-path="url(#p7914e9663c)" d="M 173.30037 146.34303 
L 173.971031 149.189093 
L 172.307556 147.12531 
z
" style="stroke:#000000;"/>
    <path clip-path="url(#p7914e9663c)" d="M 176.206504 152.608709 
L 175.606732 149.13898 
L 173.971031 149.189093 
z
" style="stroke:#000000;"/>
    <path clip-path="url(#p7914e9663c)" d="M 179.597108 151.011722 
L 175.581187 147.420984 
L 177.218956 147.367527 
z
" style="stroke:#000000;"/>
    <path clip-path="url(#p7914e9663c)" d="M 175.581187 206.894006 
L 175.881006 208.61878 
L 174.244953 208.555513 
z
" style="stroke:#000000;"/>
    <path clip-path="url(#p7914e9663c)" d="M 179.597108 151.011722 
L 177.845076 152.565164 
L 179.779147 156.252662 
z
" style="stroke:#000000;"/>
    <path clip-path="url(#p7914e9663c)" d="M 177.845076 201.755605 
L 179.597108 203.306731 
L 179.779147 198.065551 
z
" style="stroke:#000000;"/>
    <path clip-path="url(#p7914e9663c)" d="M 175.881006 208.61878 
L 173.30037 207.974968 
L 174.244953 208.555513 
z
" style="stroke:#000000;"/>
    <path clip-path="url(#p7914e9663c)" d="M 175.606732 149.13898 
L 176.206504 152.608709 
L 177.845076 152.565164 
z
" style="stroke:#000000;"/>
    <path clip-path="url(#p7914e9663c)" d="M 174.935208 146.287467 
L 174.244953 145.761239 
L 173.30037 146.34303 
z
" style="stroke:#000000;"/>
    <path clip-path="url(#p7914e9663c)" d="M 175.881006 208.61878 
L 175.581187 206.894006 
L 177.218956 206.95407 
z
" style="stroke:#000000;"/>
    <path clip-path="url(#p7914e9663c)" d="M 175.606732 149.13898 
L 172.307556 147.12531 
L 173.971031 149.189093 
z
" style="stroke:#000000;"/>
    <path clip-path="url(#p7914e9663c)" d="M 177.218956 147.367527 
L 177.845076 152.565164 
L 179.597108 151.011722 
z
" style="stroke:#000000;"/>
    <path clip-path="url(#p7914e9663c)" d="M 177.845076 201.755605 
L 177.218956 206.95407 
L 179.597108 203.306731 
z
" style="stroke:#000000;"/>
    <path clip-path="url(#p7914e9663c)" d="M 177.845076 201.755605 
L 173.971031 205.12802 
L 175.606732 205.184748 
z
" style="stroke:#000000;"/>
    <path clip-path="url(#p7914e9663c)" d="M 177.218956 147.367527 
L 174.244953 145.761239 
L 175.881006 145.704585 
z
" style="stroke:#000000;"/>
    <path clip-path="url(#p7914e9663c)" d="M 174.935208 208.037149 
L 172.307556 207.193997 
L 173.30037 207.974968 
z
" style="stroke:#000000;"/>
    <path clip-path="url(#p7914e9663c)" d="M 173.941115 207.254709 
L 173.971031 205.12802 
L 172.307556 207.193997 
z
" style="stroke:#000000;"/>
    <path clip-path="url(#p7914e9663c)" d="M 173.941115 147.071221 
L 173.30037 146.34303 
L 172.307556 147.12531 
z
" style="stroke:#000000;"/>
    <path clip-path="url(#p7914e9663c)" d="M 174.244953 145.761239 
L 174.935208 146.287467 
L 175.881006 145.704585 
z
" style="stroke:#000000;"/>
    <path clip-path="url(#p7914e9663c)" d="M 173.30037 207.974968 
L 175.881006 208.61878 
L 174.935208 208.037149 
z
" style="stroke:#000000;"/>
    <path clip-path="url(#p7914e9663c)" d="M 177.218956 147.367527 
L 175.606732 149.13898 
L 177.845076 152.565164 
z
" style="stroke:#000000;"/>
    <path clip-path="url(#p7914e9663c)" d="M 175.606732 205.184748 
L 177.218956 206.95407 
L 177.845076 201.755605 
z
" style="stroke:#000000;"/>
    <path clip-path="url(#p7914e9663c)" d="M 173.971031 205.12802 
L 173.941115 207.254709 
L 175.606732 205.184748 
z
" style="stroke:#000000;"/>
    <path clip-path="url(#p7914e9663c)" d="M 173.30037 146.34303 
L 173.941115 147.071221 
L 174.935208 146.287467 
z
" style="stroke:#000000;"/>
    <path clip-path="url(#p7914e9663c)" d="M 172.307556 147.12531 
L 175.606732 149.13898 
L 173.941115 147.071221 
z
" style="stroke:#000000;"/>
    <path clip-path="url(#p7914e9663c)" d="M 174.935208 146.287467 
L 177.218956 147.367527 
L 175.881006 145.704585 
z
" style="stroke:#000000;"/>
    <path clip-path="url(#p7914e9663c)" d="M 177.218956 206.95407 
L 174.935208 208.037149 
L 175.881006 208.61878 
z
" style="stroke:#000000;"/>
    <path clip-path="url(#p7914e9663c)" d="M 172.307556 207.193997 
L 174.935208 208.037149 
L 173.941115 207.254709 
z
" style="stroke:#000000;"/>
    <path clip-path="url(#p7914e9663c)" d="M 177.218956 147.367527 
L 174.935208 146.287467 
L 175.606732 149.13898 
z
" style="stroke:#000000;"/>
    <path clip-path="url(#p7914e9663c)" d="M 174.935208 208.037149 
L 177.218956 206.95407 
L 175.606732 205.184748 
z
" style="stroke:#000000;"/>
    <path clip-path="url(#p7914e9663c)" d="M 175.606732 149.13898 
L 174.935208 146.287467 
L 173.941115 147.071221 
z
" style="stroke:#000000;"/>
    <path clip-path="url(#p7914e9663c)" d="M 174.935208 208.037149 
L 175.606732 205.184748 
L 173.941115 207.254709 
z
" style="stroke:#000000;"/>
   </g>
  </g>
 </g>
 <defs>
  <clipPath id="p7914e9663c">
   <rect height="271.8" width="279" x="45" y="43.2"/>
  </clipPath>
 </defs>
</svg>
