<?xml version="1.0" encoding="utf-8" standalone="no"?>
<!DOCTYPE svg PUBLIC "-//W3C//DTD SVG 1.1//EN"
  "http://www.w3.org/Graphics/SVG/1.1/DTD/svg11.dtd">
<!-- Created with matplotlib (https://matplotlib.org/) -->
<svg height="360pt" version="1.1" viewBox="0 0 360 360" width="360pt" xmlns="http://www.w3.org/2000/svg" xmlns:xlink="http://www.w3.org/1999/xlink">
 <defs>
  <style type="text/css">
*{stroke-linecap:butt;stroke-linejoin:round;}
  </style>
 </defs>
 <g id="figure_1">
  <g id="patch_1">
   <path d="M 0 360 
L 360 360 
L 360 0 
L 0 0 
z
" style="fill:#ffffff;"/>
  </g>
  <g id="patch_2">
   <path d="M 45 315 
L 324 315 
L 324 43.2 
L 45 43.2 
z
" style="fill:#ffffff;"/>
  </g>
  <g id="axes_1">
   <g id="Poly3DCollection_1">
    <path clip-path="url(#p225dea7b4e)" d="M 193.545122 204.250715 
L 190.379479 204.963233 
L 190.771776 204.228791 
z
" style="stroke:#000000;"/>
    <path clip-path="url(#p225dea7b4e)" d="M 190.114028 151.846549 
L 190.379479 149.291835 
L 190.771776 150.024135 
z
" style="stroke:#000000;"/>
    <path clip-path="url(#p225dea7b4e)" d="M 190.379479 204.963233 
L 190.114028 202.40997 
L 190.771776 204.228791 
z
" style="stroke:#000000;"/>
    <path clip-path="url(#p225dea7b4e)" d="M 193.545122 150.004798 
L 190.114028 151.846549 
L 190.771776 150.024135 
z
" style="stroke:#000000;"/>
    <path clip-path="url(#p225dea7b4e)" d="M 193.154277 149.271929 
L 190.771776 150.024135 
L 190.379479 149.291835 
z
" style="stroke:#000000;"/>
    <path clip-path="url(#p225dea7b4e)" d="M 190.771776 150.024135 
L 193.154277 149.271929 
L 193.545122 150.004798 
z
" style="stroke:#000000;"/>
    <path clip-path="url(#p225dea7b4e)" d="M 190.771776 204.228791 
L 192.889808 202.430531 
L 193.545122 204.250715 
z
" style="stroke:#000000;"/>
    <path clip-path="url(#p225dea7b4e)" d="M 190.379479 204.963233 
L 193.545122 204.250715 
L 193.154277 204.98573 
z
" style="stroke:#000000;"/>
    <path clip-path="url(#p225dea7b4e)" d="M 192.889808 202.430531 
L 190.771776 204.228791 
L 190.114028 202.40997 
z
" style="stroke:#000000;"/>
    <path clip-path="url(#p225dea7b4e)" d="M 193.154277 204.98573 
L 190.005505 205.51646 
L 190.379479 204.963233 
z
" style="stroke:#000000;"/>
    <path clip-path="url(#p225dea7b4e)" d="M 190.114028 151.846549 
L 193.545122 150.004798 
L 192.889808 151.82858 
z
" style="stroke:#000000;"/>
    <path clip-path="url(#p225dea7b4e)" d="M 189.475242 150.206979 
L 190.379479 149.291835 
L 190.114028 151.846549 
z
" style="stroke:#000000;"/>
    <path clip-path="url(#p225dea7b4e)" d="M 190.379479 204.963233 
L 189.475242 204.053029 
L 190.114028 202.40997 
z
" style="stroke:#000000;"/>
    <path clip-path="url(#p225dea7b4e)" d="M 192.781686 148.720313 
L 190.379479 149.291835 
L 190.005505 148.740652 
z
" style="stroke:#000000;"/>
    <path clip-path="url(#p225dea7b4e)" d="M 190.379479 149.291835 
L 189.475242 150.206979 
L 190.005505 148.740652 
z
" style="stroke:#000000;"/>
    <path clip-path="url(#p225dea7b4e)" d="M 189.475242 204.053029 
L 190.379479 204.963233 
L 190.005505 205.51646 
z
" style="stroke:#000000;"/>
    <path clip-path="url(#p225dea7b4e)" d="M 192.889808 202.430531 
L 193.154277 204.98573 
L 193.545122 204.250715 
z
" style="stroke:#000000;"/>
    <path clip-path="url(#p225dea7b4e)" d="M 193.154277 149.271929 
L 192.889808 151.82858 
L 193.545122 150.004798 
z
" style="stroke:#000000;"/>
    <path clip-path="url(#p225dea7b4e)" d="M 190.379479 149.291835 
L 192.781686 148.720313 
L 193.154277 149.271929 
z
" style="stroke:#000000;"/>
    <path clip-path="url(#p225dea7b4e)" d="M 190.005505 205.51646 
L 193.154277 204.98573 
L 192.781686 205.539392 
z
" style="stroke:#000000;"/>
    <path clip-path="url(#p225dea7b4e)" d="M 189.475242 150.206979 
L 192.781686 148.720313 
L 190.005505 148.740652 
z
" style="stroke:#000000;"/>
    <path clip-path="url(#p225dea7b4e)" d="M 189.226598 199.370603 
L 192.889808 202.430531 
L 190.114028 202.40997 
z
" style="stroke:#000000;"/>
    <path clip-path="url(#p225dea7b4e)" d="M 189.475242 150.206979 
L 190.114028 151.846549 
L 189.226598 154.890764 
z
" style="stroke:#000000;"/>
    <path clip-path="url(#p225dea7b4e)" d="M 190.114028 202.40997 
L 189.475242 204.053029 
L 189.226598 199.370603 
z
" style="stroke:#000000;"/>
    <path clip-path="url(#p225dea7b4e)" d="M 192.253383 204.074865 
L 193.154277 204.98573 
L 192.889808 202.430531 
z
" style="stroke:#000000;"/>
    <path clip-path="url(#p225dea7b4e)" d="M 193.154277 149.271929 
L 192.253383 150.187742 
L 192.889808 151.82858 
z
" style="stroke:#000000;"/>
    <path clip-path="url(#p225dea7b4e)" d="M 192.253383 204.074865 
L 190.005505 205.51646 
L 192.781686 205.539392 
z
" style="stroke:#000000;"/>
    <path clip-path="url(#p225dea7b4e)" d="M 192.005658 154.875093 
L 190.114028 151.846549 
L 192.889808 151.82858 
z
" style="stroke:#000000;"/>
    <path clip-path="url(#p225dea7b4e)" d="M 190.005505 205.51646 
L 192.253383 204.074865 
L 189.475242 204.053029 
z
" style="stroke:#000000;"/>
    <path clip-path="url(#p225dea7b4e)" d="M 193.154277 204.98573 
L 192.253383 204.074865 
L 192.781686 205.539392 
z
" style="stroke:#000000;"/>
    <path clip-path="url(#p225dea7b4e)" d="M 192.253383 150.187742 
L 193.154277 149.271929 
L 192.781686 148.720313 
z
" style="stroke:#000000;"/>
    <path clip-path="url(#p225dea7b4e)" d="M 190.114028 151.846549 
L 192.005658 154.875093 
L 189.226598 154.890764 
z
" style="stroke:#000000;"/>
    <path clip-path="url(#p225dea7b4e)" d="M 192.781686 148.720313 
L 189.475242 150.206979 
L 192.253383 150.187742 
z
" style="stroke:#000000;"/>
    <path clip-path="url(#p225dea7b4e)" d="M 192.889808 202.430531 
L 189.226598 199.370603 
L 192.005658 199.388874 
z
" style="stroke:#000000;"/>
    <path clip-path="url(#p225dea7b4e)" d="M 192.253383 204.074865 
L 192.889808 202.430531 
L 192.005658 199.388874 
z
" style="stroke:#000000;"/>
    <path clip-path="url(#p225dea7b4e)" d="M 192.889808 151.82858 
L 192.253383 150.187742 
L 192.005658 154.875093 
z
" style="stroke:#000000;"/>
    <path clip-path="url(#p225dea7b4e)" d="M 189.475242 150.206979 
L 189.226598 154.890764 
L 188.529147 153.446773 
z
" style="stroke:#000000;"/>
    <path clip-path="url(#p225dea7b4e)" d="M 189.226598 199.370603 
L 189.475242 204.053029 
L 188.529147 200.818404 
z
" style="stroke:#000000;"/>
    <path clip-path="url(#p225dea7b4e)" d="M 188.529147 153.446773 
L 192.253383 150.187742 
L 189.475242 150.206979 
z
" style="stroke:#000000;"/>
    <path clip-path="url(#p225dea7b4e)" d="M 191.310784 200.837801 
L 189.475242 204.053029 
L 192.253383 204.074865 
z
" style="stroke:#000000;"/>
    <path clip-path="url(#p225dea7b4e)" d="M 188.456537 196.074486 
L 192.005658 199.388874 
L 189.226598 199.370603 
z
" style="stroke:#000000;"/>
    <path clip-path="url(#p225dea7b4e)" d="M 188.529147 153.446773 
L 189.226598 154.890764 
L 188.456537 158.191088 
z
" style="stroke:#000000;"/>
    <path clip-path="url(#p225dea7b4e)" d="M 189.226598 199.370603 
L 188.529147 200.818404 
L 188.456537 196.074486 
z
" style="stroke:#000000;"/>
    <path clip-path="url(#p225dea7b4e)" d="M 189.475242 204.053029 
L 191.310784 200.837801 
L 188.529147 200.818404 
z
" style="stroke:#000000;"/>
    <path clip-path="url(#p225dea7b4e)" d="M 191.238443 158.177919 
L 189.226598 154.890764 
L 192.005658 154.875093 
z
" style="stroke:#000000;"/>
    <path clip-path="url(#p225dea7b4e)" d="M 192.253383 204.074865 
L 192.005658 199.388874 
L 191.310784 200.837801 
z
" style="stroke:#000000;"/>
    <path clip-path="url(#p225dea7b4e)" d="M 192.005658 154.875093 
L 192.253383 150.187742 
L 191.310784 153.429981 
z
" style="stroke:#000000;"/>
    <path clip-path="url(#p225dea7b4e)" d="M 189.226598 154.890764 
L 191.238443 158.177919 
L 188.456537 158.191088 
z
" style="stroke:#000000;"/>
    <path clip-path="url(#p225dea7b4e)" d="M 192.253383 150.187742 
L 188.529147 153.446773 
L 191.310784 153.429981 
z
" style="stroke:#000000;"/>
    <path clip-path="url(#p225dea7b4e)" d="M 192.005658 199.388874 
L 188.456537 196.074486 
L 191.238443 196.090261 
z
" style="stroke:#000000;"/>
    <path clip-path="url(#p225dea7b4e)" d="M 191.310784 200.837801 
L 192.005658 199.388874 
L 191.238443 196.090261 
z
" style="stroke:#000000;"/>
    <path clip-path="url(#p225dea7b4e)" d="M 192.005658 154.875093 
L 191.310784 153.429981 
L 191.238443 158.177919 
z
" style="stroke:#000000;"/>
    <path clip-path="url(#p225dea7b4e)" d="M 188.529147 153.446773 
L 188.456537 158.191088 
L 187.708036 156.959935 
z
" style="stroke:#000000;"/>
    <path clip-path="url(#p225dea7b4e)" d="M 188.456537 196.074486 
L 188.529147 200.818404 
L 187.708036 197.309727 
z
" style="stroke:#000000;"/>
    <path clip-path="url(#p225dea7b4e)" d="M 187.708036 156.959935 
L 191.310784 153.429981 
L 188.529147 153.446773 
z
" style="stroke:#000000;"/>
    <path clip-path="url(#p225dea7b4e)" d="M 187.813191 192.558981 
L 191.238443 196.090261 
L 188.456537 196.074486 
z
" style="stroke:#000000;"/>
    <path clip-path="url(#p225dea7b4e)" d="M 187.708036 156.959935 
L 188.456537 158.191088 
L 187.813191 161.710107 
z
" style="stroke:#000000;"/>
    <path clip-path="url(#p225dea7b4e)" d="M 188.456537 196.074486 
L 187.708036 197.309727 
L 187.813191 192.558981 
z
" style="stroke:#000000;"/>
    <path clip-path="url(#p225dea7b4e)" d="M 190.492706 197.326466 
L 188.529147 200.818404 
L 191.310784 200.837801 
z
" style="stroke:#000000;"/>
    <path clip-path="url(#p225dea7b4e)" d="M 190.597473 161.699616 
L 188.456537 158.191088 
L 191.238443 158.177919 
z
" style="stroke:#000000;"/>
    <path clip-path="url(#p225dea7b4e)" d="M 188.456537 158.191088 
L 190.597473 161.699616 
L 187.813191 161.710107 
z
" style="stroke:#000000;"/>
    <path clip-path="url(#p225dea7b4e)" d="M 188.529147 200.818404 
L 190.492706 197.326466 
L 187.708036 197.309727 
z
" style="stroke:#000000;"/>
    <path clip-path="url(#p225dea7b4e)" d="M 191.238443 158.177919 
L 191.310784 153.429981 
L 190.492706 156.945809 
z
" style="stroke:#000000;"/>
    <path clip-path="url(#p225dea7b4e)" d="M 191.310784 200.837801 
L 191.238443 196.090261 
L 190.492706 197.326466 
z
" style="stroke:#000000;"/>
    <path clip-path="url(#p225dea7b4e)" d="M 191.238443 196.090261 
L 187.813191 192.558981 
L 190.597473 192.572084 
z
" style="stroke:#000000;"/>
    <path clip-path="url(#p225dea7b4e)" d="M 191.310784 153.429981 
L 187.708036 156.959935 
L 190.492706 156.945809 
z
" style="stroke:#000000;"/>
    <path clip-path="url(#p225dea7b4e)" d="M 190.492706 197.326466 
L 191.238443 196.090261 
L 190.597473 192.572084 
z
" style="stroke:#000000;"/>
    <path clip-path="url(#p225dea7b4e)" d="M 191.238443 158.177919 
L 190.492706 156.945809 
L 190.597473 161.699616 
z
" style="stroke:#000000;"/>
    <path clip-path="url(#p225dea7b4e)" d="M 187.813191 161.710107 
L 187.021931 160.706983 
L 187.708036 156.959935 
z
" style="stroke:#000000;"/>
    <path clip-path="url(#p225dea7b4e)" d="M 187.021931 193.566427 
L 187.813191 192.558981 
L 187.708036 197.309727 
z
" style="stroke:#000000;"/>
    <path clip-path="url(#p225dea7b4e)" d="M 187.304413 188.864146 
L 190.597473 192.572084 
L 187.813191 192.558981 
z
" style="stroke:#000000;"/>
    <path clip-path="url(#p225dea7b4e)" d="M 187.021931 160.706983 
L 187.813191 161.710107 
L 187.304413 165.407721 
z
" style="stroke:#000000;"/>
    <path clip-path="url(#p225dea7b4e)" d="M 187.813191 192.558981 
L 187.021931 193.566427 
L 187.304413 188.864146 
z
" style="stroke:#000000;"/>
    <path clip-path="url(#p225dea7b4e)" d="M 190.090573 165.400052 
L 187.813191 161.710107 
L 190.597473 161.699616 
z
" style="stroke:#000000;"/>
    <path clip-path="url(#p225dea7b4e)" d="M 187.021931 160.706983 
L 190.492706 156.945809 
L 187.708036 156.959935 
z
" style="stroke:#000000;"/>
    <path clip-path="url(#p225dea7b4e)" d="M 187.813191 161.710107 
L 190.090573 165.400052 
L 187.304413 165.407721 
z
" style="stroke:#000000;"/>
    <path clip-path="url(#p225dea7b4e)" d="M 189.809134 193.580318 
L 187.708036 197.309727 
L 190.492706 197.326466 
z
" style="stroke:#000000;"/>
    <path clip-path="url(#p225dea7b4e)" d="M 190.597473 192.572084 
L 187.304413 188.864146 
L 190.090573 188.874431 
z
" style="stroke:#000000;"/>
    <path clip-path="url(#p225dea7b4e)" d="M 187.708036 197.309727 
L 189.809134 193.580318 
L 187.021931 193.566427 
z
" style="stroke:#000000;"/>
    <path clip-path="url(#p225dea7b4e)" d="M 190.597473 192.572084 
L 189.809134 193.580318 
L 190.492706 197.326466 
z
" style="stroke:#000000;"/>
    <path clip-path="url(#p225dea7b4e)" d="M 189.809134 160.695711 
L 190.597473 161.699616 
L 190.492706 156.945809 
z
" style="stroke:#000000;"/>
    <path clip-path="url(#p225dea7b4e)" d="M 186.936451 185.032505 
L 190.090573 188.874431 
L 187.304413 188.864146 
z
" style="stroke:#000000;"/>
    <path clip-path="url(#p225dea7b4e)" d="M 187.304413 165.407721 
L 186.479282 164.64492 
L 187.021931 160.706983 
z
" style="stroke:#000000;"/>
    <path clip-path="url(#p225dea7b4e)" d="M 186.479282 189.631455 
L 187.304413 188.864146 
L 187.021931 193.566427 
z
" style="stroke:#000000;"/>
    <path clip-path="url(#p225dea7b4e)" d="M 190.492706 156.945809 
L 187.021931 160.706983 
L 189.809134 160.695711 
z
" style="stroke:#000000;"/>
    <path clip-path="url(#p225dea7b4e)" d="M 186.479282 164.64492 
L 187.304413 165.407721 
L 186.936451 169.241373 
z
" style="stroke:#000000;"/>
    <path clip-path="url(#p225dea7b4e)" d="M 187.304413 188.864146 
L 186.479282 189.631455 
L 186.936451 185.032505 
z
" style="stroke:#000000;"/>
    <path clip-path="url(#p225dea7b4e)" d="M 189.809134 193.580318 
L 190.597473 192.572084 
L 190.090573 188.874431 
z
" style="stroke:#000000;"/>
    <path clip-path="url(#p225dea7b4e)" d="M 190.597473 161.699616 
L 189.809134 160.695711 
L 190.090573 165.400052 
z
" style="stroke:#000000;"/>
    <path clip-path="url(#p225dea7b4e)" d="M 187.304413 165.407721 
L 189.723969 169.236635 
L 186.936451 169.241373 
z
" style="stroke:#000000;"/>
    <path clip-path="url(#p225dea7b4e)" d="M 189.723969 169.236635 
L 187.304413 165.407721 
L 190.090573 165.400052 
z
" style="stroke:#000000;"/>
    <path clip-path="url(#p225dea7b4e)" d="M 190.090573 188.874431 
L 186.936451 185.032505 
L 189.723969 185.039861 
z
" style="stroke:#000000;"/>
    <path clip-path="url(#p225dea7b4e)" d="M 186.713842 181.108492 
L 189.723969 185.039861 
L 186.936451 185.032505 
z
" style="stroke:#000000;"/>
    <path clip-path="url(#p225dea7b4e)" d="M 186.479282 164.64492 
L 189.809134 160.695711 
L 187.021931 160.706983 
z
" style="stroke:#000000;"/>
    <path clip-path="url(#p225dea7b4e)" d="M 186.936451 169.241373 
L 189.502181 173.164869 
L 186.713842 173.166601 
z
" style="stroke:#000000;"/>
    <path clip-path="url(#p225dea7b4e)" d="M 186.086783 168.728316 
L 186.936451 169.241373 
L 186.713842 173.166601 
z
" style="stroke:#000000;"/>
    <path clip-path="url(#p225dea7b4e)" d="M 186.936451 185.032505 
L 186.086783 185.550203 
L 186.713842 181.108492 
z
" style="stroke:#000000;"/>
    <path clip-path="url(#p225dea7b4e)" d="M 189.502181 173.164869 
L 186.936451 169.241373 
L 189.723969 169.236635 
z
" style="stroke:#000000;"/>
    <path clip-path="url(#p225dea7b4e)" d="M 186.639327 177.13775 
L 189.502181 181.112845 
L 186.713842 181.108492 
z
" style="stroke:#000000;"/>
    <path clip-path="url(#p225dea7b4e)" d="M 189.268487 189.642342 
L 187.021931 193.566427 
L 189.809134 193.580318 
z
" style="stroke:#000000;"/>
    <path clip-path="url(#p225dea7b4e)" d="M 186.713842 173.166601 
L 189.427942 177.139061 
L 186.639327 177.13775 
z
" style="stroke:#000000;"/>
    <path clip-path="url(#p225dea7b4e)" d="M 186.936451 169.241373 
L 186.086783 168.728316 
L 186.479282 164.64492 
z
" style="stroke:#000000;"/>
    <path clip-path="url(#p225dea7b4e)" d="M 186.086783 185.550203 
L 186.936451 185.032505 
L 186.479282 189.631455 
z
" style="stroke:#000000;"/>
    <path clip-path="url(#p225dea7b4e)" d="M 187.021931 193.566427 
L 189.268487 189.642342 
L 186.479282 189.631455 
z
" style="stroke:#000000;"/>
    <path clip-path="url(#p225dea7b4e)" d="M 189.723969 185.039861 
L 186.713842 181.108492 
L 189.502181 181.112845 
z
" style="stroke:#000000;"/>
    <path clip-path="url(#p225dea7b4e)" d="M 190.090573 188.874431 
L 189.268487 189.642342 
L 189.809134 193.580318 
z
" style="stroke:#000000;"/>
    <path clip-path="url(#p225dea7b4e)" d="M 189.268487 164.636656 
L 190.090573 165.400052 
L 189.809134 160.695711 
z
" style="stroke:#000000;"/>
    <path clip-path="url(#p225dea7b4e)" d="M 189.268487 189.642342 
L 190.090573 188.874431 
L 189.723969 185.039861 
z
" style="stroke:#000000;"/>
    <path clip-path="url(#p225dea7b4e)" d="M 190.090573 165.400052 
L 189.268487 164.636656 
L 189.723969 169.236635 
z
" style="stroke:#000000;"/>
    <path clip-path="url(#p225dea7b4e)" d="M 186.713842 181.108492 
L 185.849311 181.370146 
L 186.639327 177.13775 
z
" style="stroke:#000000;"/>
    <path clip-path="url(#p225dea7b4e)" d="M 185.849311 172.909671 
L 186.713842 173.166601 
L 186.639327 177.13775 
z
" style="stroke:#000000;"/>
    <path clip-path="url(#p225dea7b4e)" d="M 189.427942 177.139061 
L 186.713842 173.166601 
L 189.502181 173.164869 
z
" style="stroke:#000000;"/>
    <path clip-path="url(#p225dea7b4e)" d="M 189.502181 181.112845 
L 186.639327 177.13775 
L 189.427942 177.139061 
z
" style="stroke:#000000;"/>
    <path clip-path="url(#p225dea7b4e)" d="M 189.809134 160.695711 
L 186.479282 164.64492 
L 189.268487 164.636656 
z
" style="stroke:#000000;"/>
    <path clip-path="url(#p225dea7b4e)" d="M 186.713842 173.166601 
L 185.849311 172.909671 
L 186.086783 168.728316 
z
" style="stroke:#000000;"/>
    <path clip-path="url(#p225dea7b4e)" d="M 185.849311 181.370146 
L 186.713842 181.108492 
L 186.086783 185.550203 
z
" style="stroke:#000000;"/>
    <path clip-path="url(#p225dea7b4e)" d="M 186.086783 168.728316 
L 189.268487 164.636656 
L 186.479282 164.64492 
z
" style="stroke:#000000;"/>
    <path clip-path="url(#p225dea7b4e)" d="M 188.877435 185.557967 
L 189.723969 185.039861 
L 189.502181 181.112845 
z
" style="stroke:#000000;"/>
    <path clip-path="url(#p225dea7b4e)" d="M 189.723969 169.236635 
L 188.877435 168.723179 
L 189.502181 173.164869 
z
" style="stroke:#000000;"/>
    <path clip-path="url(#p225dea7b4e)" d="M 186.639327 177.13775 
L 185.769825 177.140125 
L 185.849311 172.909671 
z
" style="stroke:#000000;"/>
    <path clip-path="url(#p225dea7b4e)" d="M 185.769825 177.140125 
L 186.639327 177.13775 
L 185.849311 181.370146 
z
" style="stroke:#000000;"/>
    <path clip-path="url(#p225dea7b4e)" d="M 186.479282 189.631455 
L 188.877435 185.557967 
L 186.086783 185.550203 
z
" style="stroke:#000000;"/>
    <path clip-path="url(#p225dea7b4e)" d="M 188.877435 185.557967 
L 186.479282 189.631455 
L 189.268487 189.642342 
z
" style="stroke:#000000;"/>
    <path clip-path="url(#p225dea7b4e)" d="M 189.723969 185.039861 
L 188.877435 185.557967 
L 189.268487 189.642342 
z
" style="stroke:#000000;"/>
    <path clip-path="url(#p225dea7b4e)" d="M 188.877435 168.723179 
L 189.723969 169.236635 
L 189.268487 164.636656 
z
" style="stroke:#000000;"/>
    <path clip-path="url(#p225dea7b4e)" d="M 189.502181 173.164869 
L 188.640839 172.907739 
L 189.427942 177.139061 
z
" style="stroke:#000000;"/>
    <path clip-path="url(#p225dea7b4e)" d="M 188.640839 181.374705 
L 189.502181 181.112845 
L 189.427942 177.139061 
z
" style="stroke:#000000;"/>
    <path clip-path="url(#p225dea7b4e)" d="M 189.268487 164.636656 
L 186.086783 168.728316 
L 188.877435 168.723179 
z
" style="stroke:#000000;"/>
    <path clip-path="url(#p225dea7b4e)" d="M 185.849311 172.909671 
L 188.877435 168.723179 
L 186.086783 168.728316 
z
" style="stroke:#000000;"/>
    <path clip-path="url(#p225dea7b4e)" d="M 186.059927 151.753097 
L 184.606726 147.136351 
L 186.78401 151.275324 
z
" style="stroke:#000000;"/>
    <path clip-path="url(#p225dea7b4e)" d="M 186.78401 151.275324 
L 184.606726 159.301331 
L 186.059927 151.753097 
z
" style="stroke:#000000;"/>
    <path clip-path="url(#p225dea7b4e)" d="M 186.086783 185.550203 
L 188.640839 181.374705 
L 185.849311 181.370146 
z
" style="stroke:#000000;"/>
    <path clip-path="url(#p225dea7b4e)" d="M 186.78401 151.275324 
L 187.402834 147.114603 
L 189.572091 151.256822 
z
" style="stroke:#000000;"/>
    <path clip-path="url(#p225dea7b4e)" d="M 187.402834 163.347045 
L 186.78401 151.275324 
L 189.572091 151.256822 
z
" style="stroke:#000000;"/>
    <path clip-path="url(#p225dea7b4e)" d="M 189.502181 181.112845 
L 188.640839 181.374705 
L 188.877435 185.557967 
z
" style="stroke:#000000;"/>
    <path clip-path="url(#p225dea7b4e)" d="M 188.640839 172.907739 
L 189.502181 173.164869 
L 188.877435 168.723179 
z
" style="stroke:#000000;"/>
    <path clip-path="url(#p225dea7b4e)" d="M 188.640839 181.374705 
L 186.086783 185.550203 
L 188.877435 185.557967 
z
" style="stroke:#000000;"/>
    <path clip-path="url(#p225dea7b4e)" d="M 185.769825 177.140125 
L 188.640839 172.907739 
L 185.849311 172.909671 
z
" style="stroke:#000000;"/>
    <path clip-path="url(#p225dea7b4e)" d="M 185.849311 181.370146 
L 188.561646 177.14144 
L 185.769825 177.140125 
z
" style="stroke:#000000;"/>
    <path clip-path="url(#p225dea7b4e)" d="M 188.877435 168.723179 
L 185.849311 172.909671 
L 188.640839 172.907739 
z
" style="stroke:#000000;"/>
    <path clip-path="url(#p225dea7b4e)" d="M 189.427942 177.139061 
L 188.561646 177.14144 
L 188.640839 181.374705 
z
" style="stroke:#000000;"/>
    <path clip-path="url(#p225dea7b4e)" d="M 188.561646 177.14144 
L 189.427942 177.139061 
L 188.640839 172.907739 
z
" style="stroke:#000000;"/>
    <path clip-path="url(#p225dea7b4e)" d="M 188.561646 177.14144 
L 185.849311 181.370146 
L 188.640839 181.374705 
z
" style="stroke:#000000;"/>
    <path clip-path="url(#p225dea7b4e)" d="M 188.640839 172.907739 
L 185.769825 177.140125 
L 188.561646 177.14144 
z
" style="stroke:#000000;"/>
    <path clip-path="url(#p225dea7b4e)" d="M 188.850679 151.73494 
L 184.606726 149.163848 
L 186.059927 151.753097 
z
" style="stroke:#000000;"/>
    <path clip-path="url(#p225dea7b4e)" d="M 184.606726 159.301331 
L 188.850679 151.73494 
L 186.059927 151.753097 
z
" style="stroke:#000000;"/>
    <path clip-path="url(#p225dea7b4e)" d="M 187.402834 159.288935 
L 189.572091 151.256822 
L 188.850679 151.73494 
z
" style="stroke:#000000;"/>
    <path clip-path="url(#p225dea7b4e)" d="M 187.402834 147.114603 
L 188.850679 151.73494 
L 189.572091 151.256822 
z
" style="stroke:#000000;"/>
    <path clip-path="url(#p225dea7b4e)" d="M 184.606726 159.301331 
L 186.78401 151.275324 
L 184.606726 163.356325 
z
" style="stroke:#000000;"/>
    <path clip-path="url(#p225dea7b4e)" d="M 187.402834 147.114603 
L 186.78401 151.275324 
L 184.606726 147.136351 
z
" style="stroke:#000000;"/>
    <path clip-path="url(#p225dea7b4e)" d="M 186.78401 151.275324 
L 187.402834 163.347045 
L 184.606726 163.356325 
z
" style="stroke:#000000;"/>
    <path clip-path="url(#p225dea7b4e)" d="M 184.606726 147.136351 
L 186.059927 151.753097 
L 184.606726 149.163848 
z
" style="stroke:#000000;"/>
    <path clip-path="url(#p225dea7b4e)" d="M 189.572091 151.256822 
L 187.402834 159.288935 
L 187.402834 163.347045 
z
" style="stroke:#000000;"/>
    <path clip-path="url(#p225dea7b4e)" d="M 184.606726 149.163848 
L 188.850679 151.73494 
L 187.402834 149.143658 
z
" style="stroke:#000000;"/>
    <path clip-path="url(#p225dea7b4e)" d="M 188.850679 151.73494 
L 184.606726 159.301331 
L 187.402834 159.288935 
z
" style="stroke:#000000;"/>
    <path clip-path="url(#p225dea7b4e)" d="M 188.850679 151.73494 
L 187.402834 147.114603 
L 187.402834 149.143658 
z
" style="stroke:#000000;"/>
    <path clip-path="url(#p225dea7b4e)" d="M 184.606726 147.136351 
L 184.606726 149.163848 
L 183.146771 151.643085 
z
" style="stroke:#000000;"/>
    <path clip-path="url(#p225dea7b4e)" d="M 187.402834 149.143658 
L 183.146771 151.643085 
L 184.606726 149.163848 
z
" style="stroke:#000000;"/>
    <path clip-path="url(#p225dea7b4e)" d="M 183.146771 151.643085 
L 187.402834 159.288935 
L 184.606726 159.301331 
z
" style="stroke:#000000;"/>
    <path clip-path="url(#p225dea7b4e)" d="M 184.606726 159.301331 
L 184.606726 163.356325 
L 182.414247 151.106779 
z
" style="stroke:#000000;"/>
    <path clip-path="url(#p225dea7b4e)" d="M 187.402834 147.114603 
L 185.948257 151.624758 
L 187.402834 149.143658 
z
" style="stroke:#000000;"/>
    <path clip-path="url(#p225dea7b4e)" d="M 184.606726 147.136351 
L 185.218428 151.088017 
L 187.402834 147.114603 
z
" style="stroke:#000000;"/>
    <path clip-path="url(#p225dea7b4e)" d="M 185.218428 151.088017 
L 184.606726 163.356325 
L 187.402834 163.347045 
z
" style="stroke:#000000;"/>
    <path clip-path="url(#p225dea7b4e)" d="M 187.402834 159.288935 
L 185.218428 151.088017 
L 187.402834 163.347045 
z
" style="stroke:#000000;"/>
    <path clip-path="url(#p225dea7b4e)" d="M 184.606726 147.136351 
L 183.146771 151.643085 
L 182.414247 151.106779 
z
" style="stroke:#000000;"/>
    <path clip-path="url(#p225dea7b4e)" d="M 184.606726 159.301331 
L 182.414247 151.106779 
L 183.146771 151.643085 
z
" style="stroke:#000000;"/>
    <path clip-path="url(#p225dea7b4e)" d="M 183.146771 151.643085 
L 187.402834 149.143658 
L 185.948257 151.624758 
z
" style="stroke:#000000;"/>
    <path clip-path="url(#p225dea7b4e)" d="M 187.402834 159.288935 
L 183.146771 151.643085 
L 185.948257 151.624758 
z
" style="stroke:#000000;"/>
    <path clip-path="url(#p225dea7b4e)" d="M 183.359206 172.899675 
L 186.239713 177.147815 
L 183.439304 177.146491 
z
" style="stroke:#000000;"/>
    <path clip-path="url(#p225dea7b4e)" d="M 183.439304 177.146491 
L 186.15991 181.398341 
L 183.359206 181.393745 
z
" style="stroke:#000000;"/>
    <path clip-path="url(#p225dea7b4e)" d="M 183.439304 177.146491 
L 182.560888 177.14889 
L 183.359206 172.899675 
z
" style="stroke:#000000;"/>
    <path clip-path="url(#p225dea7b4e)" d="M 182.560888 177.14889 
L 183.439304 177.146491 
L 183.359206 181.393745 
z
" style="stroke:#000000;"/>
    <path clip-path="url(#p225dea7b4e)" d="M 183.119663 168.696609 
L 186.15991 172.897728 
L 183.359206 172.899675 
z
" style="stroke:#000000;"/>
    <path clip-path="url(#p225dea7b4e)" d="M 186.15991 181.398341 
L 183.439304 177.146491 
L 186.239713 177.147815 
z
" style="stroke:#000000;"/>
    <path clip-path="url(#p225dea7b4e)" d="M 186.239713 177.147815 
L 183.359206 172.899675 
L 186.15991 172.897728 
z
" style="stroke:#000000;"/>
    <path clip-path="url(#p225dea7b4e)" d="M 183.359206 181.393745 
L 185.921248 185.605956 
L 183.119663 185.598119 
z
" style="stroke:#000000;"/>
    <path clip-path="url(#p225dea7b4e)" d="M 183.359206 172.899675 
L 182.485382 173.151338 
L 183.119663 168.696609 
z
" style="stroke:#000000;"/>
    <path clip-path="url(#p225dea7b4e)" d="M 182.485382 181.146855 
L 183.359206 181.393745 
L 183.119663 185.598119 
z
" style="stroke:#000000;"/>
    <path clip-path="url(#p225dea7b4e)" d="M 185.218428 151.088017 
L 184.606726 147.136351 
L 182.414247 151.106779 
z
" style="stroke:#000000;"/>
    <path clip-path="url(#p225dea7b4e)" d="M 184.606726 163.356325 
L 185.218428 151.088017 
L 182.414247 151.106779 
z
" style="stroke:#000000;"/>
    <path clip-path="url(#p225dea7b4e)" d="M 185.921248 185.605956 
L 183.359206 181.393745 
L 186.15991 181.398341 
z
" style="stroke:#000000;"/>
    <path clip-path="url(#p225dea7b4e)" d="M 185.218428 151.088017 
L 187.402834 159.288935 
L 185.948257 151.624758 
z
" style="stroke:#000000;"/>
    <path clip-path="url(#p225dea7b4e)" d="M 185.948257 151.624758 
L 187.402834 147.114603 
L 185.218428 151.088017 
z
" style="stroke:#000000;"/>
    <path clip-path="url(#p225dea7b4e)" d="M 186.15991 172.897728 
L 183.119663 168.696609 
L 185.921248 168.691423 
z
" style="stroke:#000000;"/>
    <path clip-path="url(#p225dea7b4e)" d="M 182.722941 164.58027 
L 185.921248 168.691423 
L 183.119663 168.696609 
z
" style="stroke:#000000;"/>
    <path clip-path="url(#p225dea7b4e)" d="M 183.359206 181.393745 
L 182.485382 181.146855 
L 182.560888 177.14889 
z
" style="stroke:#000000;"/>
    <path clip-path="url(#p225dea7b4e)" d="M 182.485382 173.151338 
L 183.359206 172.899675 
L 182.560888 177.14889 
z
" style="stroke:#000000;"/>
    <path clip-path="url(#p225dea7b4e)" d="M 183.119663 168.696609 
L 182.259595 169.195161 
L 182.722941 164.58027 
z
" style="stroke:#000000;"/>
    <path clip-path="url(#p225dea7b4e)" d="M 182.259595 185.104266 
L 183.119663 185.598119 
L 182.722941 189.716626 
z
" style="stroke:#000000;"/>
    <path clip-path="url(#p225dea7b4e)" d="M 183.119663 185.598119 
L 185.525986 189.727644 
L 182.722941 189.716626 
z
" style="stroke:#000000;"/>
    <path clip-path="url(#p225dea7b4e)" d="M 185.525986 189.727644 
L 183.119663 185.598119 
L 185.921248 185.605956 
z
" style="stroke:#000000;"/>
    <path clip-path="url(#p225dea7b4e)" d="M 186.239713 177.147815 
L 185.36453 177.150218 
L 186.15991 181.398341 
z
" style="stroke:#000000;"/>
    <path clip-path="url(#p225dea7b4e)" d="M 185.36453 177.150218 
L 186.239713 177.147815 
L 186.15991 172.897728 
z
" style="stroke:#000000;"/>
    <path clip-path="url(#p225dea7b4e)" d="M 182.259595 169.195161 
L 183.119663 168.696609 
L 182.485382 173.151338 
z
" style="stroke:#000000;"/>
    <path clip-path="url(#p225dea7b4e)" d="M 183.119663 185.598119 
L 182.259595 185.104266 
L 182.485382 181.146855 
z
" style="stroke:#000000;"/>
    <path clip-path="url(#p225dea7b4e)" d="M 185.921248 168.691423 
L 182.722941 164.58027 
L 185.525986 164.571906 
z
" style="stroke:#000000;"/>
    <path clip-path="url(#p225dea7b4e)" d="M 186.15991 181.398341 
L 185.289302 181.151267 
L 185.921248 185.605956 
z
" style="stroke:#000000;"/>
    <path clip-path="url(#p225dea7b4e)" d="M 185.289302 173.149583 
L 186.15991 172.897728 
L 185.921248 168.691423 
z
" style="stroke:#000000;"/>
    <path clip-path="url(#p225dea7b4e)" d="M 182.172809 160.592946 
L 185.525986 164.571906 
L 182.722941 164.58027 
z
" style="stroke:#000000;"/>
    <path clip-path="url(#p225dea7b4e)" d="M 182.485382 181.146855 
L 185.36453 177.150218 
L 182.560888 177.14889 
z
" style="stroke:#000000;"/>
    <path clip-path="url(#p225dea7b4e)" d="M 182.560888 177.14889 
L 185.289302 173.149583 
L 182.485382 173.151338 
z
" style="stroke:#000000;"/>
    <path clip-path="url(#p225dea7b4e)" d="M 186.15991 172.897728 
L 185.289302 173.149583 
L 185.36453 177.150218 
z
" style="stroke:#000000;"/>
    <path clip-path="url(#p225dea7b4e)" d="M 185.289302 181.151267 
L 186.15991 181.398341 
L 185.36453 177.150218 
z
" style="stroke:#000000;"/>
    <path clip-path="url(#p225dea7b4e)" d="M 181.885673 165.320944 
L 182.722941 164.58027 
L 182.259595 169.195161 
z
" style="stroke:#000000;"/>
    <path clip-path="url(#p225dea7b4e)" d="M 182.722941 189.716626 
L 181.885673 188.980526 
L 182.259595 185.104266 
z
" style="stroke:#000000;"/>
    <path clip-path="url(#p225dea7b4e)" d="M 182.722941 164.58027 
L 181.885673 165.320944 
L 182.172809 160.592946 
z
" style="stroke:#000000;"/>
    <path clip-path="url(#p225dea7b4e)" d="M 181.885673 188.980526 
L 182.722941 189.716626 
L 182.172809 193.706955 
z
" style="stroke:#000000;"/>
    <path clip-path="url(#p225dea7b4e)" d="M 182.259595 185.104266 
L 185.289302 181.151267 
L 182.485382 181.146855 
z
" style="stroke:#000000;"/>
    <path clip-path="url(#p225dea7b4e)" d="M 184.977879 193.721062 
L 182.722941 189.716626 
L 185.525986 189.727644 
z
" style="stroke:#000000;"/>
    <path clip-path="url(#p225dea7b4e)" d="M 185.921248 185.605956 
L 185.064346 185.111733 
L 185.525986 189.727644 
z
" style="stroke:#000000;"/>
    <path clip-path="url(#p225dea7b4e)" d="M 185.064346 169.190352 
L 185.921248 168.691423 
L 185.525986 164.571906 
z
" style="stroke:#000000;"/>
    <path clip-path="url(#p225dea7b4e)" d="M 185.289302 173.149583 
L 182.560888 177.14889 
L 185.36453 177.150218 
z
" style="stroke:#000000;"/>
    <path clip-path="url(#p225dea7b4e)" d="M 182.722941 189.716626 
L 184.977879 193.721062 
L 182.172809 193.706955 
z
" style="stroke:#000000;"/>
    <path clip-path="url(#p225dea7b4e)" d="M 185.36453 177.150218 
L 182.485382 181.146855 
L 185.289302 181.151267 
z
" style="stroke:#000000;"/>
    <path clip-path="url(#p225dea7b4e)" d="M 182.485382 173.151338 
L 185.064346 169.190352 
L 182.259595 169.195161 
z
" style="stroke:#000000;"/>
    <path clip-path="url(#p225dea7b4e)" d="M 185.064346 185.111733 
L 185.921248 185.605956 
L 185.289302 181.151267 
z
" style="stroke:#000000;"/>
    <path clip-path="url(#p225dea7b4e)" d="M 185.921248 168.691423 
L 185.064346 169.190352 
L 185.289302 173.149583 
z
" style="stroke:#000000;"/>
    <path clip-path="url(#p225dea7b4e)" d="M 185.064346 169.190352 
L 182.485382 173.151338 
L 185.289302 173.149583 
z
" style="stroke:#000000;"/>
    <path clip-path="url(#p225dea7b4e)" d="M 185.525986 164.571906 
L 182.172809 160.592946 
L 184.977879 160.581498 
z
" style="stroke:#000000;"/>
    <path clip-path="url(#p225dea7b4e)" d="M 185.289302 181.151267 
L 182.259595 185.104266 
L 185.064346 185.111733 
z
" style="stroke:#000000;"/>
    <path clip-path="url(#p225dea7b4e)" d="M 181.885673 188.980526 
L 185.064346 185.111733 
L 182.259595 185.104266 
z
" style="stroke:#000000;"/>
    <path clip-path="url(#p225dea7b4e)" d="M 182.259595 169.195161 
L 184.691799 165.313141 
L 181.885673 165.320944 
z
" style="stroke:#000000;"/>
    <path clip-path="url(#p225dea7b4e)" d="M 184.691799 165.313141 
L 182.259595 169.195161 
L 185.064346 169.190352 
z
" style="stroke:#000000;"/>
    <path clip-path="url(#p225dea7b4e)" d="M 181.367197 161.568667 
L 182.172809 160.592946 
L 181.885673 165.320944 
z
" style="stroke:#000000;"/>
    <path clip-path="url(#p225dea7b4e)" d="M 182.172809 193.706955 
L 181.367197 192.735635 
L 181.885673 188.980526 
z
" style="stroke:#000000;"/>
    <path clip-path="url(#p225dea7b4e)" d="M 184.691799 188.99099 
L 185.525986 189.727644 
L 185.064346 185.111733 
z
" style="stroke:#000000;"/>
    <path clip-path="url(#p225dea7b4e)" d="M 185.525986 164.571906 
L 184.691799 165.313141 
L 185.064346 169.190352 
z
" style="stroke:#000000;"/>
    <path clip-path="url(#p225dea7b4e)" d="M 181.474496 156.775822 
L 184.977879 160.581498 
L 182.172809 160.592946 
z
" style="stroke:#000000;"/>
    <path clip-path="url(#p225dea7b4e)" d="M 185.525986 189.727644 
L 184.691799 188.99099 
L 184.977879 193.721062 
z
" style="stroke:#000000;"/>
    <path clip-path="url(#p225dea7b4e)" d="M 184.691799 165.313141 
L 185.525986 164.571906 
L 184.977879 160.581498 
z
" style="stroke:#000000;"/>
    <path clip-path="url(#p225dea7b4e)" d="M 185.064346 185.111733 
L 181.885673 188.980526 
L 184.691799 188.99099 
z
" style="stroke:#000000;"/>
    <path clip-path="url(#p225dea7b4e)" d="M 182.172809 160.592946 
L 181.367197 161.568667 
L 181.474496 156.775822 
z
" style="stroke:#000000;"/>
    <path clip-path="url(#p225dea7b4e)" d="M 181.367197 192.735635 
L 182.172809 193.706955 
L 181.474496 197.527894 
z
" style="stroke:#000000;"/>
    <path clip-path="url(#p225dea7b4e)" d="M 184.282134 197.544968 
L 182.172809 193.706955 
L 184.977879 193.721062 
z
" style="stroke:#000000;"/>
    <path clip-path="url(#p225dea7b4e)" d="M 181.367197 192.735635 
L 184.691799 188.99099 
L 181.885673 188.980526 
z
" style="stroke:#000000;"/>
    <path clip-path="url(#p225dea7b4e)" d="M 182.172809 193.706955 
L 184.282134 197.544968 
L 181.474496 197.527894 
z
" style="stroke:#000000;"/>
    <path clip-path="url(#p225dea7b4e)" d="M 184.17523 161.557958 
L 181.885673 165.320944 
L 184.691799 165.313141 
z
" style="stroke:#000000;"/>
    <path clip-path="url(#p225dea7b4e)" d="M 184.977879 160.581498 
L 181.474496 156.775822 
L 184.282134 156.761412 
z
" style="stroke:#000000;"/>
    <path clip-path="url(#p225dea7b4e)" d="M 181.885673 165.320944 
L 184.17523 161.557958 
L 181.367197 161.568667 
z
" style="stroke:#000000;"/>
    <path clip-path="url(#p225dea7b4e)" d="M 184.17523 192.74901 
L 184.977879 193.721062 
L 184.691799 188.99099 
z
" style="stroke:#000000;"/>
    <path clip-path="url(#p225dea7b4e)" d="M 184.977879 160.581498 
L 184.17523 161.557958 
L 184.691799 165.313141 
z
" style="stroke:#000000;"/>
    <path clip-path="url(#p225dea7b4e)" d="M 184.691799 188.99099 
L 181.367197 192.735635 
L 184.17523 192.74901 
z
" style="stroke:#000000;"/>
    <path clip-path="url(#p225dea7b4e)" d="M 184.17523 161.557958 
L 184.977879 160.581498 
L 184.282134 156.761412 
z
" style="stroke:#000000;"/>
    <path clip-path="url(#p225dea7b4e)" d="M 184.977879 193.721062 
L 184.17523 192.74901 
L 184.282134 197.544968 
z
" style="stroke:#000000;"/>
    <path clip-path="url(#p225dea7b4e)" d="M 180.709154 157.977261 
L 181.474496 156.775822 
L 181.367197 161.568667 
z
" style="stroke:#000000;"/>
    <path clip-path="url(#p225dea7b4e)" d="M 181.474496 197.527894 
L 180.709154 196.330636 
L 181.367197 192.735635 
z
" style="stroke:#000000;"/>
    <path clip-path="url(#p225dea7b4e)" d="M 180.634714 153.168881 
L 184.282134 156.761412 
L 181.474496 156.775822 
z
" style="stroke:#000000;"/>
    <path clip-path="url(#p225dea7b4e)" d="M 180.709154 196.330636 
L 184.17523 192.74901 
L 181.367197 192.735635 
z
" style="stroke:#000000;"/>
    <path clip-path="url(#p225dea7b4e)" d="M 181.474496 156.775822 
L 180.709154 157.977261 
L 180.634714 153.168881 
z
" style="stroke:#000000;"/>
    <path clip-path="url(#p225dea7b4e)" d="M 180.709154 196.330636 
L 181.474496 197.527894 
L 180.634714 201.139423 
z
" style="stroke:#000000;"/>
    <path clip-path="url(#p225dea7b4e)" d="M 183.445439 201.159314 
L 181.474496 197.527894 
L 184.282134 197.544968 
z
" style="stroke:#000000;"/>
    <path clip-path="url(#p225dea7b4e)" d="M 183.519605 157.963763 
L 181.367197 161.568667 
L 184.17523 161.557958 
z
" style="stroke:#000000;"/>
    <path clip-path="url(#p225dea7b4e)" d="M 181.367197 161.568667 
L 183.519605 157.963763 
L 180.709154 157.977261 
z
" style="stroke:#000000;"/>
    <path clip-path="url(#p225dea7b4e)" d="M 181.474496 197.527894 
L 183.445439 201.159314 
L 180.634714 201.139423 
z
" style="stroke:#000000;"/>
    <path clip-path="url(#p225dea7b4e)" d="M 183.519605 196.346805 
L 184.282134 197.544968 
L 184.17523 192.74901 
z
" style="stroke:#000000;"/>
    <path clip-path="url(#p225dea7b4e)" d="M 184.282134 156.761412 
L 183.519605 157.963763 
L 184.17523 161.557958 
z
" style="stroke:#000000;"/>
    <path clip-path="url(#p225dea7b4e)" d="M 184.17523 192.74901 
L 180.709154 196.330636 
L 183.519605 196.346805 
z
" style="stroke:#000000;"/>
    <path clip-path="url(#p225dea7b4e)" d="M 184.282134 156.761412 
L 180.634714 153.168881 
L 183.445439 153.151661 
z
" style="stroke:#000000;"/>
    <path clip-path="url(#p225dea7b4e)" d="M 184.282134 197.544968 
L 183.519605 196.346805 
L 183.445439 201.159314 
z
" style="stroke:#000000;"/>
    <path clip-path="url(#p225dea7b4e)" d="M 183.519605 157.963763 
L 184.282134 156.761412 
L 183.445439 153.151661 
z
" style="stroke:#000000;"/>
    <path clip-path="url(#p225dea7b4e)" d="M 180.634714 153.168881 
L 180.709154 157.977261 
L 179.917904 154.584272 
z
" style="stroke:#000000;"/>
    <path clip-path="url(#p225dea7b4e)" d="M 180.709154 196.330636 
L 180.634714 201.139423 
L 179.917904 199.727947 
z
" style="stroke:#000000;"/>
    <path clip-path="url(#p225dea7b4e)" d="M 179.917904 199.727947 
L 183.519605 196.346805 
L 180.709154 196.330636 
z
" style="stroke:#000000;"/>
    <path clip-path="url(#p225dea7b4e)" d="M 179.661578 149.810008 
L 183.445439 153.151661 
L 180.634714 153.168881 
z
" style="stroke:#000000;"/>
    <path clip-path="url(#p225dea7b4e)" d="M 182.731263 154.56813 
L 180.709154 157.977261 
L 183.519605 157.963763 
z
" style="stroke:#000000;"/>
    <path clip-path="url(#p225dea7b4e)" d="M 180.634714 153.168881 
L 179.917904 154.584272 
L 179.661578 149.810008 
z
" style="stroke:#000000;"/>
    <path clip-path="url(#p225dea7b4e)" d="M 179.917904 199.727947 
L 180.634714 201.139423 
L 179.661578 204.503611 
z
" style="stroke:#000000;"/>
    <path clip-path="url(#p225dea7b4e)" d="M 180.709154 157.977261 
L 182.731263 154.56813 
L 179.917904 154.584272 
z
" style="stroke:#000000;"/>
    <path clip-path="url(#p225dea7b4e)" d="M 182.475878 204.52614 
L 180.634714 201.139423 
L 183.445439 201.159314 
z
" style="stroke:#000000;"/>
    <path clip-path="url(#p225dea7b4e)" d="M 183.445439 201.159314 
L 183.519605 196.346805 
L 182.731263 199.746768 
z
" style="stroke:#000000;"/>
    <path clip-path="url(#p225dea7b4e)" d="M 183.519605 157.963763 
L 183.445439 153.151661 
L 182.731263 154.56813 
z
" style="stroke:#000000;"/>
    <path clip-path="url(#p225dea7b4e)" d="M 183.519605 196.346805 
L 179.917904 199.727947 
L 182.731263 199.746768 
z
" style="stroke:#000000;"/>
    <path clip-path="url(#p225dea7b4e)" d="M 180.634714 201.139423 
L 182.475878 204.52614 
L 179.661578 204.503611 
z
" style="stroke:#000000;"/>
    <path clip-path="url(#p225dea7b4e)" d="M 183.445439 153.151661 
L 179.661578 149.810008 
L 182.475878 149.79016 
z
" style="stroke:#000000;"/>
    <path clip-path="url(#p225dea7b4e)" d="M 183.445439 201.159314 
L 182.731263 199.746768 
L 182.475878 204.52614 
z
" style="stroke:#000000;"/>
    <path clip-path="url(#p225dea7b4e)" d="M 182.731263 154.56813 
L 183.445439 153.151661 
L 182.475878 149.79016 
z
" style="stroke:#000000;"/>
    <path clip-path="url(#p225dea7b4e)" d="M 179.661578 149.810008 
L 179.917904 154.584272 
L 179.001159 151.425817 
z
" style="stroke:#000000;"/>
    <path clip-path="url(#p225dea7b4e)" d="M 179.917904 199.727947 
L 179.661578 204.503611 
L 179.001159 202.89141 
z
" style="stroke:#000000;"/>
    <path clip-path="url(#p225dea7b4e)" d="M 179.001159 202.89141 
L 182.731263 199.746768 
L 179.917904 199.727947 
z
" style="stroke:#000000;"/>
    <path clip-path="url(#p225dea7b4e)" d="M 179.11355 148.274049 
L 182.475878 149.79016 
L 179.661578 149.810008 
z
" style="stroke:#000000;"/>
    <path clip-path="url(#p225dea7b4e)" d="M 181.817884 151.407201 
L 179.917904 154.584272 
L 182.731263 154.56813 
z
" style="stroke:#000000;"/>
    <path clip-path="url(#p225dea7b4e)" d="M 179.661578 149.810008 
L 178.725915 148.802624 
L 179.11355 148.274049 
z
" style="stroke:#000000;"/>
    <path clip-path="url(#p225dea7b4e)" d="M 178.725915 205.516107 
L 179.661578 204.503611 
L 179.11355 206.042564 
z
" style="stroke:#000000;"/>
    <path clip-path="url(#p225dea7b4e)" d="M 181.929863 206.066305 
L 179.661578 204.503611 
L 182.475878 204.52614 
z
" style="stroke:#000000;"/>
    <path clip-path="url(#p225dea7b4e)" d="M 179.917904 154.584272 
L 181.817884 151.407201 
L 179.001159 151.425817 
z
" style="stroke:#000000;"/>
    <path clip-path="url(#p225dea7b4e)" d="M 179.661578 204.503611 
L 181.929863 206.066305 
L 179.11355 206.042564 
z
" style="stroke:#000000;"/>
    <path clip-path="url(#p225dea7b4e)" d="M 178.725915 148.802624 
L 179.661578 149.810008 
L 179.001159 151.425817 
z
" style="stroke:#000000;"/>
    <path clip-path="url(#p225dea7b4e)" d="M 179.661578 204.503611 
L 178.725915 205.516107 
L 179.001159 202.89141 
z
" style="stroke:#000000;"/>
    <path clip-path="url(#p225dea7b4e)" d="M 182.475878 204.52614 
L 182.731263 199.746768 
L 181.817884 202.912712 
z
" style="stroke:#000000;"/>
    <path clip-path="url(#p225dea7b4e)" d="M 182.731263 154.56813 
L 182.475878 149.79016 
L 181.817884 151.407201 
z
" style="stroke:#000000;"/>
    <path clip-path="url(#p225dea7b4e)" d="M 182.731263 199.746768 
L 179.001159 202.89141 
L 181.817884 202.912712 
z
" style="stroke:#000000;"/>
    <path clip-path="url(#p225dea7b4e)" d="M 182.475878 149.79016 
L 179.11355 148.274049 
L 181.929863 148.252993 
z
" style="stroke:#000000;"/>
    <path clip-path="url(#p225dea7b4e)" d="M 181.929863 206.066305 
L 178.725915 205.516107 
L 179.11355 206.042564 
z
" style="stroke:#000000;"/>
    <path clip-path="url(#p225dea7b4e)" d="M 181.54365 148.781965 
L 179.11355 148.274049 
L 178.725915 148.802624 
z
" style="stroke:#000000;"/>
    <path clip-path="url(#p225dea7b4e)" d="M 178.725915 148.802624 
L 179.001159 151.425817 
L 178.318275 149.51567 
z
" style="stroke:#000000;"/>
    <path clip-path="url(#p225dea7b4e)" d="M 179.001159 202.89141 
L 178.725915 205.516107 
L 178.318275 204.805287 
z
" style="stroke:#000000;"/>
    <path clip-path="url(#p225dea7b4e)" d="M 182.475878 204.52614 
L 181.54365 205.539454 
L 181.929863 206.066305 
z
" style="stroke:#000000;"/>
    <path clip-path="url(#p225dea7b4e)" d="M 181.54365 148.781965 
L 182.475878 149.79016 
L 181.929863 148.252993 
z
" style="stroke:#000000;"/>
    <path clip-path="url(#p225dea7b4e)" d="M 179.11355 148.274049 
L 181.54365 148.781965 
L 181.929863 148.252993 
z
" style="stroke:#000000;"/>
    <path clip-path="url(#p225dea7b4e)" d="M 181.54365 205.539454 
L 182.475878 204.52614 
L 181.817884 202.912712 
z
" style="stroke:#000000;"/>
    <path clip-path="url(#p225dea7b4e)" d="M 182.475878 149.79016 
L 181.54365 148.781965 
L 181.817884 151.407201 
z
" style="stroke:#000000;"/>
    <path clip-path="url(#p225dea7b4e)" d="M 181.817884 151.407201 
L 178.318275 149.51567 
L 179.001159 151.425817 
z
" style="stroke:#000000;"/>
    <path clip-path="url(#p225dea7b4e)" d="M 178.725915 205.516107 
L 181.929863 206.066305 
L 181.54365 205.539454 
z
" style="stroke:#000000;"/>
    <path clip-path="url(#p225dea7b4e)" d="M 179.001159 202.89141 
L 181.137507 204.828098 
L 181.817884 202.912712 
z
" style="stroke:#000000;"/>
    <path clip-path="url(#p225dea7b4e)" d="M 181.54365 205.539454 
L 178.318275 204.805287 
L 178.725915 205.516107 
z
" style="stroke:#000000;"/>
    <path clip-path="url(#p225dea7b4e)" d="M 181.137507 204.828098 
L 179.001159 202.89141 
L 178.318275 204.805287 
z
" style="stroke:#000000;"/>
    <path clip-path="url(#p225dea7b4e)" d="M 181.137507 149.495552 
L 178.725915 148.802624 
L 178.318275 149.51567 
z
" style="stroke:#000000;"/>
    <path clip-path="url(#p225dea7b4e)" d="M 178.725915 148.802624 
L 181.137507 149.495552 
L 181.54365 148.781965 
z
" style="stroke:#000000;"/>
    <path clip-path="url(#p225dea7b4e)" d="M 178.318275 149.51567 
L 181.817884 151.407201 
L 181.137507 149.495552 
z
" style="stroke:#000000;"/>
    <path clip-path="url(#p225dea7b4e)" d="M 181.54365 205.539454 
L 181.817884 202.912712 
L 181.137507 204.828098 
z
" style="stroke:#000000;"/>
    <path clip-path="url(#p225dea7b4e)" d="M 181.817884 151.407201 
L 181.54365 148.781965 
L 181.137507 149.495552 
z
" style="stroke:#000000;"/>
    <path clip-path="url(#p225dea7b4e)" d="M 178.318275 204.805287 
L 181.54365 205.539454 
L 181.137507 204.828098 
z
" style="stroke:#000000;"/>
   </g>
  </g>
 </g>
 <defs>
  <clipPath id="p225dea7b4e">
   <rect height="271.8" width="279" x="45" y="43.2"/>
  </clipPath>
 </defs>
</svg>
