<?xml version="1.0" encoding="utf-8" standalone="no"?>
<!DOCTYPE svg PUBLIC "-//W3C//DTD SVG 1.1//EN"
  "http://www.w3.org/Graphics/SVG/1.1/DTD/svg11.dtd">
<!-- Created with matplotlib (https://matplotlib.org/) -->
<svg height="360pt" version="1.1" viewBox="0 0 360 360" width="360pt" xmlns="http://www.w3.org/2000/svg" xmlns:xlink="http://www.w3.org/1999/xlink">
 <defs>
  <style type="text/css">
*{stroke-linecap:butt;stroke-linejoin:round;}
  </style>
 </defs>
 <g id="figure_1">
  <g id="patch_1">
   <path d="M 45 315 
L 324 315 
L 324 43.2 
L 45 43.2 
z
" style="fill:#ffffff;"/>
  </g>
  <g id="axes_1">
   <g id="Poly3DCollection_1">
    <path clip-path="url(#pd3b3fa6a6e)" d="M 198.930875 149.611163 
L 199.528487 146.826934 
L 200.411934 147.61929 
z
" style="stroke:#000000;"/>
    <path clip-path="url(#pd3b3fa6a6e)" d="M 199.528487 207.43343 
L 198.930875 204.650243 
L 200.411934 206.639535 
z
" style="stroke:#000000;"/>
    <path clip-path="url(#pd3b3fa6a6e)" d="M 202.423113 206.693217 
L 199.528487 207.43343 
L 200.411934 206.639535 
z
" style="stroke:#000000;"/>
    <path clip-path="url(#pd3b3fa6a6e)" d="M 202.423113 147.571463 
L 198.930875 149.611163 
L 200.411934 147.61929 
z
" style="stroke:#000000;"/>
    <path clip-path="url(#pd3b3fa6a6e)" d="M 201.539057 146.777722 
L 200.411934 147.61929 
L 199.528487 146.826934 
z
" style="stroke:#000000;"/>
    <path clip-path="url(#pd3b3fa6a6e)" d="M 197.493356 147.834316 
L 199.528487 146.826934 
L 198.930875 149.611163 
z
" style="stroke:#000000;"/>
    <path clip-path="url(#pd3b3fa6a6e)" d="M 199.528487 207.43343 
L 197.493356 206.429596 
L 198.930875 204.650243 
z
" style="stroke:#000000;"/>
    <path clip-path="url(#pd3b3fa6a6e)" d="M 199.528487 146.826934 
L 197.493356 147.834316 
L 198.686596 146.231758 
z
" style="stroke:#000000;"/>
    <path clip-path="url(#pd3b3fa6a6e)" d="M 197.493356 206.429596 
L 199.528487 207.43343 
L 198.686596 208.030074 
z
" style="stroke:#000000;"/>
    <path clip-path="url(#pd3b3fa6a6e)" d="M 200.941033 204.700542 
L 200.411934 206.639535 
L 198.930875 204.650243 
z
" style="stroke:#000000;"/>
    <path clip-path="url(#pd3b3fa6a6e)" d="M 201.539057 207.488503 
L 198.686596 208.030074 
L 199.528487 207.43343 
z
" style="stroke:#000000;"/>
    <path clip-path="url(#pd3b3fa6a6e)" d="M 200.411934 147.61929 
L 201.539057 146.777722 
L 202.423113 147.571463 
z
" style="stroke:#000000;"/>
    <path clip-path="url(#pd3b3fa6a6e)" d="M 200.696585 146.1815 
L 199.528487 146.826934 
L 198.686596 146.231758 
z
" style="stroke:#000000;"/>
    <path clip-path="url(#pd3b3fa6a6e)" d="M 197.493356 147.834316 
L 198.930875 149.611163 
L 196.934037 152.93369 
z
" style="stroke:#000000;"/>
    <path clip-path="url(#pd3b3fa6a6e)" d="M 198.930875 204.650243 
L 197.493356 206.429596 
L 196.934037 201.331196 
z
" style="stroke:#000000;"/>
    <path clip-path="url(#pd3b3fa6a6e)" d="M 200.411934 206.639535 
L 200.941033 204.700542 
L 202.423113 206.693217 
z
" style="stroke:#000000;"/>
    <path clip-path="url(#pd3b3fa6a6e)" d="M 199.528487 207.43343 
L 202.423113 206.693217 
L 201.539057 207.488503 
z
" style="stroke:#000000;"/>
    <path clip-path="url(#pd3b3fa6a6e)" d="M 198.930875 149.611163 
L 202.423113 147.571463 
L 200.941033 149.566729 
z
" style="stroke:#000000;"/>
    <path clip-path="url(#pd3b3fa6a6e)" d="M 197.493356 147.834316 
L 200.696585 146.1815 
L 198.686596 146.231758 
z
" style="stroke:#000000;"/>
    <path clip-path="url(#pd3b3fa6a6e)" d="M 196.934037 201.331196 
L 200.941033 204.700542 
L 198.930875 204.650243 
z
" style="stroke:#000000;"/>
    <path clip-path="url(#pd3b3fa6a6e)" d="M 199.528487 146.826934 
L 200.696585 146.1815 
L 201.539057 146.777722 
z
" style="stroke:#000000;"/>
    <path clip-path="url(#pd3b3fa6a6e)" d="M 198.686596 208.030074 
L 199.502519 206.482997 
L 197.493356 206.429596 
z
" style="stroke:#000000;"/>
    <path clip-path="url(#pd3b3fa6a6e)" d="M 198.686596 208.030074 
L 201.539057 207.488503 
L 200.696585 208.086198 
z
" style="stroke:#000000;"/>
    <path clip-path="url(#pd3b3fa6a6e)" d="M 197.493356 147.834316 
L 196.934037 152.93369 
L 195.365807 151.369965 
z
" style="stroke:#000000;"/>
    <path clip-path="url(#pd3b3fa6a6e)" d="M 196.934037 201.331196 
L 197.493356 206.429596 
L 195.365807 202.897655 
z
" style="stroke:#000000;"/>
    <path clip-path="url(#pd3b3fa6a6e)" d="M 198.930875 149.611163 
L 198.942812 152.894935 
L 196.934037 152.93369 
z
" style="stroke:#000000;"/>
    <path clip-path="url(#pd3b3fa6a6e)" d="M 200.941033 204.700542 
L 201.539057 207.488503 
L 202.423113 206.693217 
z
" style="stroke:#000000;"/>
    <path clip-path="url(#pd3b3fa6a6e)" d="M 201.539057 146.777722 
L 200.941033 149.566729 
L 202.423113 147.571463 
z
" style="stroke:#000000;"/>
    <path clip-path="url(#pd3b3fa6a6e)" d="M 199.502519 206.482997 
L 198.686596 208.030074 
L 200.696585 208.086198 
z
" style="stroke:#000000;"/>
    <path clip-path="url(#pd3b3fa6a6e)" d="M 198.942812 152.894935 
L 198.930875 149.611163 
L 200.941033 149.566729 
z
" style="stroke:#000000;"/>
    <path clip-path="url(#pd3b3fa6a6e)" d="M 195.365807 151.369965 
L 196.934037 152.93369 
L 195.2026 156.531118 
z
" style="stroke:#000000;"/>
    <path clip-path="url(#pd3b3fa6a6e)" d="M 196.934037 201.331196 
L 195.365807 202.897655 
L 195.2026 197.736787 
z
" style="stroke:#000000;"/>
    <path clip-path="url(#pd3b3fa6a6e)" d="M 195.365807 151.369965 
L 199.502519 147.786788 
L 197.493356 147.834316 
z
" style="stroke:#000000;"/>
    <path clip-path="url(#pd3b3fa6a6e)" d="M 200.696585 146.1815 
L 197.493356 147.834316 
L 199.502519 147.786788 
z
" style="stroke:#000000;"/>
    <path clip-path="url(#pd3b3fa6a6e)" d="M 200.941033 204.700542 
L 196.934037 201.331196 
L 198.942812 201.375829 
z
" style="stroke:#000000;"/>
    <path clip-path="url(#pd3b3fa6a6e)" d="M 199.502519 206.482997 
L 201.539057 207.488503 
L 200.941033 204.700542 
z
" style="stroke:#000000;"/>
    <path clip-path="url(#pd3b3fa6a6e)" d="M 201.539057 146.777722 
L 199.502519 147.786788 
L 200.941033 149.566729 
z
" style="stroke:#000000;"/>
    <path clip-path="url(#pd3b3fa6a6e)" d="M 195.2026 197.736787 
L 198.942812 201.375829 
L 196.934037 201.331196 
z
" style="stroke:#000000;"/>
    <path clip-path="url(#pd3b3fa6a6e)" d="M 201.539057 207.488503 
L 199.502519 206.482997 
L 200.696585 208.086198 
z
" style="stroke:#000000;"/>
    <path clip-path="url(#pd3b3fa6a6e)" d="M 199.502519 147.786788 
L 201.539057 146.777722 
L 200.696585 146.1815 
z
" style="stroke:#000000;"/>
    <path clip-path="url(#pd3b3fa6a6e)" d="M 197.493356 206.429596 
L 197.37349 202.945025 
L 195.365807 202.897655 
z
" style="stroke:#000000;"/>
    <path clip-path="url(#pd3b3fa6a6e)" d="M 195.365807 151.369965 
L 195.2026 156.531118 
L 193.520797 155.198688 
z
" style="stroke:#000000;"/>
    <path clip-path="url(#pd3b3fa6a6e)" d="M 195.2026 197.736787 
L 195.365807 202.897655 
L 193.520797 199.072149 
z
" style="stroke:#000000;"/>
    <path clip-path="url(#pd3b3fa6a6e)" d="M 196.934037 152.93369 
L 197.210169 156.498532 
L 195.2026 156.531118 
z
" style="stroke:#000000;"/>
    <path clip-path="url(#pd3b3fa6a6e)" d="M 197.37349 202.945025 
L 197.493356 206.429596 
L 199.502519 206.482997 
z
" style="stroke:#000000;"/>
    <path clip-path="url(#pd3b3fa6a6e)" d="M 199.502519 206.482997 
L 200.941033 204.700542 
L 198.942812 201.375829 
z
" style="stroke:#000000;"/>
    <path clip-path="url(#pd3b3fa6a6e)" d="M 200.941033 149.566729 
L 199.502519 147.786788 
L 198.942812 152.894935 
z
" style="stroke:#000000;"/>
    <path clip-path="url(#pd3b3fa6a6e)" d="M 193.520797 155.198688 
L 195.2026 156.531118 
L 193.757001 160.362989 
z
" style="stroke:#000000;"/>
    <path clip-path="url(#pd3b3fa6a6e)" d="M 195.2026 197.736787 
L 193.520797 199.072149 
L 193.757001 193.907436 
z
" style="stroke:#000000;"/>
    <path clip-path="url(#pd3b3fa6a6e)" d="M 197.210169 156.498532 
L 196.934037 152.93369 
L 198.942812 152.894935 
z
" style="stroke:#000000;"/>
    <path clip-path="url(#pd3b3fa6a6e)" d="M 199.502519 147.786788 
L 195.365807 151.369965 
L 197.37349 151.328482 
z
" style="stroke:#000000;"/>
    <path clip-path="url(#pd3b3fa6a6e)" d="M 193.520797 155.198688 
L 197.37349 151.328482 
L 195.365807 151.369965 
z
" style="stroke:#000000;"/>
    <path clip-path="url(#pd3b3fa6a6e)" d="M 193.757001 193.907436 
L 197.210169 197.77526 
L 195.2026 197.736787 
z
" style="stroke:#000000;"/>
    <path clip-path="url(#pd3b3fa6a6e)" d="M 198.942812 201.375829 
L 195.2026 197.736787 
L 197.210169 197.77526 
z
" style="stroke:#000000;"/>
    <path clip-path="url(#pd3b3fa6a6e)" d="M 199.502519 206.482997 
L 198.942812 201.375829 
L 197.37349 202.945025 
z
" style="stroke:#000000;"/>
    <path clip-path="url(#pd3b3fa6a6e)" d="M 198.942812 152.894935 
L 199.502519 147.786788 
L 197.37349 151.328482 
z
" style="stroke:#000000;"/>
    <path clip-path="url(#pd3b3fa6a6e)" d="M 195.2026 156.531118 
L 195.763559 160.336992 
L 193.757001 160.362989 
z
" style="stroke:#000000;"/>
    <path clip-path="url(#pd3b3fa6a6e)" d="M 193.757001 160.362989 
L 191.980196 159.27782 
L 193.520797 155.198688 
z
" style="stroke:#000000;"/>
    <path clip-path="url(#pd3b3fa6a6e)" d="M 191.980196 194.995702 
L 193.757001 193.907436 
L 193.520797 199.072149 
z
" style="stroke:#000000;"/>
    <path clip-path="url(#pd3b3fa6a6e)" d="M 195.365807 202.897655 
L 195.52719 199.11296 
L 193.520797 199.072149 
z
" style="stroke:#000000;"/>
    <path clip-path="url(#pd3b3fa6a6e)" d="M 191.980196 159.27782 
L 193.757001 160.362989 
L 192.614373 164.386128 
z
" style="stroke:#000000;"/>
    <path clip-path="url(#pd3b3fa6a6e)" d="M 193.757001 193.907436 
L 191.980196 194.995702 
L 192.614373 189.886289 
z
" style="stroke:#000000;"/>
    <path clip-path="url(#pd3b3fa6a6e)" d="M 195.52719 199.11296 
L 195.365807 202.897655 
L 197.37349 202.945025 
z
" style="stroke:#000000;"/>
    <path clip-path="url(#pd3b3fa6a6e)" d="M 195.763559 160.336992 
L 195.2026 156.531118 
L 197.210169 156.498532 
z
" style="stroke:#000000;"/>
    <path clip-path="url(#pd3b3fa6a6e)" d="M 197.37349 202.945025 
L 198.942812 201.375829 
L 197.210169 197.77526 
z
" style="stroke:#000000;"/>
    <path clip-path="url(#pd3b3fa6a6e)" d="M 198.942812 152.894935 
L 197.37349 151.328482 
L 197.210169 156.498532 
z
" style="stroke:#000000;"/>
    <path clip-path="url(#pd3b3fa6a6e)" d="M 192.614373 189.886289 
L 195.763559 193.939329 
L 193.757001 193.907436 
z
" style="stroke:#000000;"/>
    <path clip-path="url(#pd3b3fa6a6e)" d="M 197.210169 197.77526 
L 193.757001 193.907436 
L 195.763559 193.939329 
z
" style="stroke:#000000;"/>
    <path clip-path="url(#pd3b3fa6a6e)" d="M 197.37349 151.328482 
L 193.520797 155.198688 
L 195.52719 155.163774 
z
" style="stroke:#000000;"/>
    <path clip-path="url(#pd3b3fa6a6e)" d="M 191.980196 159.27782 
L 195.52719 155.163774 
L 193.520797 155.198688 
z
" style="stroke:#000000;"/>
    <path clip-path="url(#pd3b3fa6a6e)" d="M 193.757001 160.362989 
L 194.620131 164.367062 
L 192.614373 164.386128 
z
" style="stroke:#000000;"/>
    <path clip-path="url(#pd3b3fa6a6e)" d="M 192.614373 164.386128 
L 190.762393 163.561107 
L 191.980196 159.27782 
z
" style="stroke:#000000;"/>
    <path clip-path="url(#pd3b3fa6a6e)" d="M 190.762393 190.714538 
L 192.614373 189.886289 
L 191.980196 194.995702 
z
" style="stroke:#000000;"/>
    <path clip-path="url(#pd3b3fa6a6e)" d="M 190.762393 163.561107 
L 192.614373 164.386128 
L 191.788321 168.554861 
z
" style="stroke:#000000;"/>
    <path clip-path="url(#pd3b3fa6a6e)" d="M 192.614373 189.886289 
L 190.762393 190.714538 
L 191.788321 185.718996 
z
" style="stroke:#000000;"/>
    <path clip-path="url(#pd3b3fa6a6e)" d="M 193.520797 199.072149 
L 193.985507 195.029504 
L 191.980196 194.995702 
z
" style="stroke:#000000;"/>
    <path clip-path="url(#pd3b3fa6a6e)" d="M 197.37349 202.945025 
L 197.210169 197.77526 
L 195.52719 199.11296 
z
" style="stroke:#000000;"/>
    <path clip-path="url(#pd3b3fa6a6e)" d="M 197.210169 156.498532 
L 197.37349 151.328482 
L 195.52719 155.163774 
z
" style="stroke:#000000;"/>
    <path clip-path="url(#pd3b3fa6a6e)" d="M 191.788321 185.718996 
L 194.620131 189.911257 
L 192.614373 189.886289 
z
" style="stroke:#000000;"/>
    <path clip-path="url(#pd3b3fa6a6e)" d="M 194.620131 164.367062 
L 193.757001 160.362989 
L 195.763559 160.336992 
z
" style="stroke:#000000;"/>
    <path clip-path="url(#pd3b3fa6a6e)" d="M 189.881925 167.999854 
L 191.788321 168.554861 
L 191.288713 172.821589 
z
" style="stroke:#000000;"/>
    <path clip-path="url(#pd3b3fa6a6e)" d="M 191.788321 185.718996 
L 189.881925 186.277325 
L 191.288713 181.453138 
z
" style="stroke:#000000;"/>
    <path clip-path="url(#pd3b3fa6a6e)" d="M 192.614373 164.386128 
L 193.793498 168.542989 
L 191.788321 168.554861 
z
" style="stroke:#000000;"/>
    <path clip-path="url(#pd3b3fa6a6e)" d="M 191.788321 168.554861 
L 189.881925 167.999854 
L 190.762393 163.561107 
z
" style="stroke:#000000;"/>
    <path clip-path="url(#pd3b3fa6a6e)" d="M 189.881925 186.277325 
L 191.788321 185.718996 
L 190.762393 190.714538 
z
" style="stroke:#000000;"/>
    <path clip-path="url(#pd3b3fa6a6e)" d="M 195.52719 199.11296 
L 197.210169 197.77526 
L 195.763559 193.939329 
z
" style="stroke:#000000;"/>
    <path clip-path="url(#pd3b3fa6a6e)" d="M 197.210169 156.498532 
L 195.52719 155.163774 
L 195.763559 160.336992 
z
" style="stroke:#000000;"/>
    <path clip-path="url(#pd3b3fa6a6e)" d="M 193.985507 195.029504 
L 193.520797 199.072149 
L 195.52719 199.11296 
z
" style="stroke:#000000;"/>
    <path clip-path="url(#pd3b3fa6a6e)" d="M 195.763559 193.939329 
L 192.614373 189.886289 
L 194.620131 189.911257 
z
" style="stroke:#000000;"/>
    <path clip-path="url(#pd3b3fa6a6e)" d="M 191.288713 181.453138 
L 189.349372 181.734836 
L 191.1215 177.137509 
z
" style="stroke:#000000;"/>
    <path clip-path="url(#pd3b3fa6a6e)" d="M 189.349372 172.543272 
L 191.288713 172.821589 
L 191.1215 177.137509 
z
" style="stroke:#000000;"/>
    <path clip-path="url(#pd3b3fa6a6e)" d="M 191.288713 181.453138 
L 193.793498 185.736775 
L 191.788321 185.718996 
z
" style="stroke:#000000;"/>
    <path clip-path="url(#pd3b3fa6a6e)" d="M 190.762393 163.561107 
L 193.985507 159.249925 
L 191.980196 159.27782 
z
" style="stroke:#000000;"/>
    <path clip-path="url(#pd3b3fa6a6e)" d="M 191.788321 168.554861 
L 193.293537 172.817087 
L 191.288713 172.821589 
z
" style="stroke:#000000;"/>
    <path clip-path="url(#pd3b3fa6a6e)" d="M 195.52719 155.163774 
L 191.980196 159.27782 
L 193.985507 159.249925 
z
" style="stroke:#000000;"/>
    <path clip-path="url(#pd3b3fa6a6e)" d="M 191.288713 172.821589 
L 189.349372 172.543272 
L 189.881925 167.999854 
z
" style="stroke:#000000;"/>
    <path clip-path="url(#pd3b3fa6a6e)" d="M 189.349372 181.734836 
L 191.288713 181.453138 
L 189.881925 186.277325 
z
" style="stroke:#000000;"/>
    <path clip-path="url(#pd3b3fa6a6e)" d="M 191.1215 177.137509 
L 193.293537 181.463551 
L 191.288713 181.453138 
z
" style="stroke:#000000;"/>
    <path clip-path="url(#pd3b3fa6a6e)" d="M 193.793498 168.542989 
L 192.614373 164.386128 
L 194.620131 164.367062 
z
" style="stroke:#000000;"/>
    <path clip-path="url(#pd3b3fa6a6e)" d="M 191.288713 172.821589 
L 193.126207 177.140465 
L 191.1215 177.137509 
z
" style="stroke:#000000;"/>
    <path clip-path="url(#pd3b3fa6a6e)" d="M 191.980196 194.995702 
L 192.766846 190.740961 
L 190.762393 190.714538 
z
" style="stroke:#000000;"/>
    <path clip-path="url(#pd3b3fa6a6e)" d="M 191.1215 177.137509 
L 189.171144 177.139209 
L 189.349372 172.543272 
z
" style="stroke:#000000;"/>
    <path clip-path="url(#pd3b3fa6a6e)" d="M 189.171144 177.139209 
L 191.1215 177.137509 
L 189.349372 181.734836 
z
" style="stroke:#000000;"/>
    <path clip-path="url(#pd3b3fa6a6e)" d="M 194.620131 189.911257 
L 191.788321 185.718996 
L 193.793498 185.736775 
z
" style="stroke:#000000;"/>
    <path clip-path="url(#pd3b3fa6a6e)" d="M 195.763559 193.939329 
L 193.985507 195.029504 
L 195.52719 199.11296 
z
" style="stroke:#000000;"/>
    <path clip-path="url(#pd3b3fa6a6e)" d="M 193.985507 159.249925 
L 195.763559 160.336992 
L 195.52719 155.163774 
z
" style="stroke:#000000;"/>
    <path clip-path="url(#pd3b3fa6a6e)" d="M 193.985507 195.029504 
L 195.763559 193.939329 
L 194.620131 189.911257 
z
" style="stroke:#000000;"/>
    <path clip-path="url(#pd3b3fa6a6e)" d="M 195.763559 160.336992 
L 193.985507 159.249925 
L 194.620131 164.367062 
z
" style="stroke:#000000;"/>
    <path clip-path="url(#pd3b3fa6a6e)" d="M 193.293537 172.817087 
L 191.788321 168.554861 
L 193.793498 168.542989 
z
" style="stroke:#000000;"/>
    <path clip-path="url(#pd3b3fa6a6e)" d="M 189.881925 167.999854 
L 192.766846 163.540598 
L 190.762393 163.561107 
z
" style="stroke:#000000;"/>
    <path clip-path="url(#pd3b3fa6a6e)" d="M 192.766846 190.740961 
L 191.980196 194.995702 
L 193.985507 195.029504 
z
" style="stroke:#000000;"/>
    <path clip-path="url(#pd3b3fa6a6e)" d="M 189.821693 149.556091 
L 186.56463 144.559904 
L 191.446183 149.028493 
z
" style="stroke:#000000;"/>
    <path clip-path="url(#pd3b3fa6a6e)" d="M 191.446183 149.028493 
L 186.56463 157.768651 
L 189.821693 149.556091 
z
" style="stroke:#000000;"/>
    <path clip-path="url(#pd3b3fa6a6e)" d="M 193.793498 185.736775 
L 191.288713 181.453138 
L 193.293537 181.463551 
z
" style="stroke:#000000;"/>
    <path clip-path="url(#pd3b3fa6a6e)" d="M 190.762393 190.714538 
L 191.885757 186.296088 
L 189.881925 186.277325 
z
" style="stroke:#000000;"/>
    <path clip-path="url(#pd3b3fa6a6e)" d="M 193.126207 177.140465 
L 191.288713 172.821589 
L 193.293537 172.817087 
z
" style="stroke:#000000;"/>
    <path clip-path="url(#pd3b3fa6a6e)" d="M 193.293537 181.463551 
L 191.1215 177.137509 
L 193.126207 177.140465 
z
" style="stroke:#000000;"/>
    <path clip-path="url(#pd3b3fa6a6e)" d="M 193.985507 159.249925 
L 190.762393 163.561107 
L 192.766846 163.540598 
z
" style="stroke:#000000;"/>
    <path clip-path="url(#pd3b3fa6a6e)" d="M 189.349372 172.543272 
L 191.885757 167.987011 
L 189.881925 167.999854 
z
" style="stroke:#000000;"/>
    <path clip-path="url(#pd3b3fa6a6e)" d="M 194.620131 189.911257 
L 192.766846 190.740961 
L 193.985507 195.029504 
z
" style="stroke:#000000;"/>
    <path clip-path="url(#pd3b3fa6a6e)" d="M 192.766846 163.540598 
L 194.620131 164.367062 
L 193.985507 159.249925 
z
" style="stroke:#000000;"/>
    <path clip-path="url(#pd3b3fa6a6e)" d="M 189.881925 186.277325 
L 191.352827 181.745746 
L 189.349372 181.734836 
z
" style="stroke:#000000;"/>
    <path clip-path="url(#pd3b3fa6a6e)" d="M 192.766846 190.740961 
L 194.620131 189.911257 
L 193.793498 185.736775 
z
" style="stroke:#000000;"/>
    <path clip-path="url(#pd3b3fa6a6e)" d="M 194.620131 164.367062 
L 192.766846 163.540598 
L 193.793498 168.542989 
z
" style="stroke:#000000;"/>
    <path clip-path="url(#pd3b3fa6a6e)" d="M 191.885757 186.296088 
L 190.762393 190.714538 
L 192.766846 190.740961 
z
" style="stroke:#000000;"/>
    <path clip-path="url(#pd3b3fa6a6e)" d="M 186.56463 157.768651 
L 191.446183 149.028493 
L 186.56463 162.171567 
z
" style="stroke:#000000;"/>
    <path clip-path="url(#pd3b3fa6a6e)" d="M 189.171144 177.139209 
L 191.352827 172.538284 
L 189.349372 172.543272 
z
" style="stroke:#000000;"/>
    <path clip-path="url(#pd3b3fa6a6e)" d="M 189.349372 181.734836 
L 191.174473 177.142171 
L 189.171144 177.139209 
z
" style="stroke:#000000;"/>
    <path clip-path="url(#pd3b3fa6a6e)" d="M 192.766846 163.540598 
L 189.881925 167.999854 
L 191.885757 167.987011 
z
" style="stroke:#000000;"/>
    <path clip-path="url(#pd3b3fa6a6e)" d="M 186.56463 144.559904 
L 189.821693 149.556091 
L 186.56463 146.761362 
z
" style="stroke:#000000;"/>
    <path clip-path="url(#pd3b3fa6a6e)" d="M 191.825483 149.511354 
L 186.56463 146.761362 
L 189.821693 149.556091 
z
" style="stroke:#000000;"/>
    <path clip-path="url(#pd3b3fa6a6e)" d="M 186.56463 157.768651 
L 191.825483 149.511354 
L 189.821693 149.556091 
z
" style="stroke:#000000;"/>
    <path clip-path="url(#pd3b3fa6a6e)" d="M 191.885757 186.296088 
L 193.793498 185.736775 
L 193.293537 181.463551 
z
" style="stroke:#000000;"/>
    <path clip-path="url(#pd3b3fa6a6e)" d="M 193.793498 168.542989 
L 191.885757 167.987011 
L 193.293537 172.817087 
z
" style="stroke:#000000;"/>
    <path clip-path="url(#pd3b3fa6a6e)" d="M 191.446183 149.028493 
L 188.566107 144.506438 
L 193.451119 148.982881 
z
" style="stroke:#000000;"/>
    <path clip-path="url(#pd3b3fa6a6e)" d="M 188.566107 162.148607 
L 191.446183 149.028493 
L 193.451119 148.982881 
z
" style="stroke:#000000;"/>
    <path clip-path="url(#pd3b3fa6a6e)" d="M 191.352827 181.745746 
L 189.881925 186.277325 
L 191.885757 186.296088 
z
" style="stroke:#000000;"/>
    <path clip-path="url(#pd3b3fa6a6e)" d="M 193.793498 185.736775 
L 191.885757 186.296088 
L 192.766846 190.740961 
z
" style="stroke:#000000;"/>
    <path clip-path="url(#pd3b3fa6a6e)" d="M 191.885757 167.987011 
L 193.793498 168.542989 
L 192.766846 163.540598 
z
" style="stroke:#000000;"/>
    <path clip-path="url(#pd3b3fa6a6e)" d="M 191.885757 167.987011 
L 189.349372 172.543272 
L 191.352827 172.538284 
z
" style="stroke:#000000;"/>
    <path clip-path="url(#pd3b3fa6a6e)" d="M 193.293537 172.817087 
L 191.352827 172.538284 
L 193.126207 177.140465 
z
" style="stroke:#000000;"/>
    <path clip-path="url(#pd3b3fa6a6e)" d="M 191.352827 181.745746 
L 193.293537 181.463551 
L 193.126207 177.140465 
z
" style="stroke:#000000;"/>
    <path clip-path="url(#pd3b3fa6a6e)" d="M 188.566107 144.506438 
L 191.446183 149.028493 
L 186.56463 144.559904 
z
" style="stroke:#000000;"/>
    <path clip-path="url(#pd3b3fa6a6e)" d="M 191.446183 149.028493 
L 188.566107 162.148607 
L 186.56463 162.171567 
z
" style="stroke:#000000;"/>
    <path clip-path="url(#pd3b3fa6a6e)" d="M 191.174473 177.142171 
L 189.349372 181.734836 
L 191.352827 181.745746 
z
" style="stroke:#000000;"/>
    <path clip-path="url(#pd3b3fa6a6e)" d="M 191.352827 172.538284 
L 189.171144 177.139209 
L 191.174473 177.142171 
z
" style="stroke:#000000;"/>
    <path clip-path="url(#pd3b3fa6a6e)" d="M 193.293537 181.463551 
L 191.352827 181.745746 
L 191.885757 186.296088 
z
" style="stroke:#000000;"/>
    <path clip-path="url(#pd3b3fa6a6e)" d="M 191.352827 172.538284 
L 193.293537 172.817087 
L 191.885757 167.987011 
z
" style="stroke:#000000;"/>
    <path clip-path="url(#pd3b3fa6a6e)" d="M 193.126207 177.140465 
L 191.174473 177.142171 
L 191.352827 181.745746 
z
" style="stroke:#000000;"/>
    <path clip-path="url(#pd3b3fa6a6e)" d="M 191.174473 177.142171 
L 193.126207 177.140465 
L 191.352827 172.538284 
z
" style="stroke:#000000;"/>
    <path clip-path="url(#pd3b3fa6a6e)" d="M 188.566107 157.738065 
L 193.451119 148.982881 
L 191.825483 149.511354 
z
" style="stroke:#000000;"/>
    <path clip-path="url(#pd3b3fa6a6e)" d="M 188.566107 144.506438 
L 191.825483 149.511354 
L 193.451119 148.982881 
z
" style="stroke:#000000;"/>
    <path clip-path="url(#pd3b3fa6a6e)" d="M 186.56463 144.559904 
L 186.56463 146.761362 
L 183.296746 149.470134 
z
" style="stroke:#000000;"/>
    <path clip-path="url(#pd3b3fa6a6e)" d="M 186.56463 146.761362 
L 191.825483 149.511354 
L 188.566107 146.711709 
z
" style="stroke:#000000;"/>
    <path clip-path="url(#pd3b3fa6a6e)" d="M 191.825483 149.511354 
L 186.56463 157.768651 
L 188.566107 157.738065 
z
" style="stroke:#000000;"/>
    <path clip-path="url(#pd3b3fa6a6e)" d="M 186.56463 157.768651 
L 186.56463 162.171567 
L 181.658728 148.896819 
z
" style="stroke:#000000;"/>
    <path clip-path="url(#pd3b3fa6a6e)" d="M 193.451119 148.982881 
L 188.566107 157.738065 
L 188.566107 162.148607 
z
" style="stroke:#000000;"/>
    <path clip-path="url(#pd3b3fa6a6e)" d="M 188.566107 146.711709 
L 183.296746 149.470134 
L 186.56463 146.761362 
z
" style="stroke:#000000;"/>
    <path clip-path="url(#pd3b3fa6a6e)" d="M 183.296746 149.470134 
L 188.566107 157.738065 
L 186.56463 157.768651 
z
" style="stroke:#000000;"/>
    <path clip-path="url(#pd3b3fa6a6e)" d="M 191.825483 149.511354 
L 188.566107 144.506438 
L 188.566107 146.711709 
z
" style="stroke:#000000;"/>
    <path clip-path="url(#pd3b3fa6a6e)" d="M 186.56463 144.559904 
L 183.296746 149.470134 
L 181.658728 148.896819 
z
" style="stroke:#000000;"/>
    <path clip-path="url(#pd3b3fa6a6e)" d="M 186.56463 157.768651 
L 181.658728 148.896819 
L 183.296746 149.470134 
z
" style="stroke:#000000;"/>
    <path clip-path="url(#pd3b3fa6a6e)" d="M 183.951191 177.143759 
L 181.98655 177.145471 
L 183.771981 172.535084 
z
" style="stroke:#000000;"/>
    <path clip-path="url(#pd3b3fa6a6e)" d="M 181.98655 177.145471 
L 183.951191 177.143759 
L 183.771981 181.752746 
z
" style="stroke:#000000;"/>
    <path clip-path="url(#pd3b3fa6a6e)" d="M 183.771981 172.535084 
L 181.817748 172.809014 
L 183.236109 167.974719 
z
" style="stroke:#000000;"/>
    <path clip-path="url(#pd3b3fa6a6e)" d="M 181.817748 181.482222 
L 183.771981 181.752746 
L 183.236109 186.314045 
z
" style="stroke:#000000;"/>
    <path clip-path="url(#pd3b3fa6a6e)" d="M 183.771981 172.535084 
L 185.950799 177.146736 
L 183.951191 177.143759 
z
" style="stroke:#000000;"/>
    <path clip-path="url(#pd3b3fa6a6e)" d="M 183.951191 177.143759 
L 185.771461 181.763719 
L 183.771981 181.752746 
z
" style="stroke:#000000;"/>
    <path clip-path="url(#pd3b3fa6a6e)" d="M 186.56463 144.559904 
L 183.656687 148.85075 
L 188.566107 144.506438 
z
" style="stroke:#000000;"/>
    <path clip-path="url(#pd3b3fa6a6e)" d="M 183.656687 148.85075 
L 186.56463 162.171567 
L 188.566107 162.148607 
z
" style="stroke:#000000;"/>
    <path clip-path="url(#pd3b3fa6a6e)" d="M 183.771981 181.752746 
L 181.817748 181.482222 
L 181.98655 177.145471 
z
" style="stroke:#000000;"/>
    <path clip-path="url(#pd3b3fa6a6e)" d="M 181.817748 172.809014 
L 183.771981 172.535084 
L 181.98655 177.145471 
z
" style="stroke:#000000;"/>
    <path clip-path="url(#pd3b3fa6a6e)" d="M 183.236109 167.974719 
L 185.771461 172.530067 
L 183.771981 172.535084 
z
" style="stroke:#000000;"/>
    <path clip-path="url(#pd3b3fa6a6e)" d="M 183.236109 167.974719 
L 181.313048 168.518168 
L 182.348875 163.510247 
z
" style="stroke:#000000;"/>
    <path clip-path="url(#pd3b3fa6a6e)" d="M 181.313048 185.773948 
L 183.236109 186.314045 
L 182.348875 190.780064 
z
" style="stroke:#000000;"/>
    <path clip-path="url(#pd3b3fa6a6e)" d="M 183.771981 181.752746 
L 185.235203 186.332934 
L 183.236109 186.314045 
z
" style="stroke:#000000;"/>
    <path clip-path="url(#pd3b3fa6a6e)" d="M 183.656687 148.85075 
L 186.56463 144.559904 
L 181.658728 148.896819 
z
" style="stroke:#000000;"/>
    <path clip-path="url(#pd3b3fa6a6e)" d="M 186.56463 162.171567 
L 183.656687 148.85075 
L 181.658728 148.896819 
z
" style="stroke:#000000;"/>
    <path clip-path="url(#pd3b3fa6a6e)" d="M 181.313048 168.518168 
L 183.236109 167.974719 
L 181.817748 172.809014 
z
" style="stroke:#000000;"/>
    <path clip-path="url(#pd3b3fa6a6e)" d="M 183.236109 186.314045 
L 181.313048 185.773948 
L 181.817748 181.482222 
z
" style="stroke:#000000;"/>
    <path clip-path="url(#pd3b3fa6a6e)" d="M 183.296746 149.470134 
L 188.566107 146.711709 
L 185.295883 149.425099 
z
" style="stroke:#000000;"/>
    <path clip-path="url(#pd3b3fa6a6e)" d="M 188.566107 157.738065 
L 183.296746 149.470134 
L 185.295883 149.425099 
z
" style="stroke:#000000;"/>
    <path clip-path="url(#pd3b3fa6a6e)" d="M 188.566107 144.506438 
L 185.295883 149.425099 
L 188.566107 146.711709 
z
" style="stroke:#000000;"/>
    <path clip-path="url(#pd3b3fa6a6e)" d="M 182.348875 163.510247 
L 185.235203 167.961789 
L 183.236109 167.974719 
z
" style="stroke:#000000;"/>
    <path clip-path="url(#pd3b3fa6a6e)" d="M 185.771461 181.763719 
L 183.951191 177.143759 
L 185.950799 177.146736 
z
" style="stroke:#000000;"/>
    <path clip-path="url(#pd3b3fa6a6e)" d="M 185.950799 177.146736 
L 183.771981 172.535084 
L 185.771461 172.530067 
z
" style="stroke:#000000;"/>
    <path clip-path="url(#pd3b3fa6a6e)" d="M 188.566107 157.738065 
L 183.656687 148.85075 
L 188.566107 162.148607 
z
" style="stroke:#000000;"/>
    <path clip-path="url(#pd3b3fa6a6e)" d="M 183.236109 186.314045 
L 184.347331 190.806714 
L 182.348875 190.780064 
z
" style="stroke:#000000;"/>
    <path clip-path="url(#pd3b3fa6a6e)" d="M 180.477445 164.317796 
L 182.348875 163.510247 
L 181.313048 168.518168 
z
" style="stroke:#000000;"/>
    <path clip-path="url(#pd3b3fa6a6e)" d="M 182.348875 190.780064 
L 180.477445 189.975777 
L 181.313048 185.773948 
z
" style="stroke:#000000;"/>
    <path clip-path="url(#pd3b3fa6a6e)" d="M 182.348875 163.510247 
L 180.477445 164.317796 
L 181.119081 159.188408 
z
" style="stroke:#000000;"/>
    <path clip-path="url(#pd3b3fa6a6e)" d="M 180.477445 189.975777 
L 182.348875 190.780064 
L 181.119081 195.104046 
z
" style="stroke:#000000;"/>
    <path clip-path="url(#pd3b3fa6a6e)" d="M 185.235203 186.332934 
L 183.771981 181.752746 
L 185.771461 181.763719 
z
" style="stroke:#000000;"/>
    <path clip-path="url(#pd3b3fa6a6e)" d="M 185.771461 172.530067 
L 183.236109 167.974719 
L 185.235203 167.961789 
z
" style="stroke:#000000;"/>
    <path clip-path="url(#pd3b3fa6a6e)" d="M 181.119081 159.188408 
L 184.347331 163.489561 
L 182.348875 163.510247 
z
" style="stroke:#000000;"/>
    <path clip-path="url(#pd3b3fa6a6e)" d="M 181.817748 181.482222 
L 183.984744 177.148454 
L 181.98655 177.145471 
z
" style="stroke:#000000;"/>
    <path clip-path="url(#pd3b3fa6a6e)" d="M 181.98655 177.145471 
L 183.815821 172.804469 
L 181.817748 172.809014 
z
" style="stroke:#000000;"/>
    <path clip-path="url(#pd3b3fa6a6e)" d="M 184.347331 190.806714 
L 183.236109 186.314045 
L 185.235203 186.332934 
z
" style="stroke:#000000;"/>
    <path clip-path="url(#pd3b3fa6a6e)" d="M 181.313048 185.773948 
L 183.815821 181.492735 
L 181.817748 181.482222 
z
" style="stroke:#000000;"/>
    <path clip-path="url(#pd3b3fa6a6e)" d="M 183.656687 148.85075 
L 188.566107 157.738065 
L 185.295883 149.425099 
z
" style="stroke:#000000;"/>
    <path clip-path="url(#pd3b3fa6a6e)" d="M 185.295883 149.425099 
L 188.566107 144.506438 
L 183.656687 148.85075 
z
" style="stroke:#000000;"/>
    <path clip-path="url(#pd3b3fa6a6e)" d="M 182.348875 190.780064 
L 183.11665 195.138223 
L 181.119081 195.104046 
z
" style="stroke:#000000;"/>
    <path clip-path="url(#pd3b3fa6a6e)" d="M 185.235203 167.961789 
L 182.348875 163.510247 
L 184.347331 163.489561 
z
" style="stroke:#000000;"/>
    <path clip-path="url(#pd3b3fa6a6e)" d="M 181.817748 172.809014 
L 183.310756 168.506169 
L 181.313048 168.518168 
z
" style="stroke:#000000;"/>
    <path clip-path="url(#pd3b3fa6a6e)" d="M 179.319277 160.25202 
L 181.119081 159.188408 
L 180.477445 164.317796 
z
" style="stroke:#000000;"/>
    <path clip-path="url(#pd3b3fa6a6e)" d="M 181.119081 195.104046 
L 179.319277 194.043572 
L 180.477445 189.975777 
z
" style="stroke:#000000;"/>
    <path clip-path="url(#pd3b3fa6a6e)" d="M 181.119081 159.188408 
L 179.319277 160.25202 
L 179.558916 155.054604 
z
" style="stroke:#000000;"/>
    <path clip-path="url(#pd3b3fa6a6e)" d="M 179.319277 194.043572 
L 181.119081 195.104046 
L 179.558916 199.240569 
z
" style="stroke:#000000;"/>
    <path clip-path="url(#pd3b3fa6a6e)" d="M 180.477445 189.975777 
L 183.310756 185.791918 
L 181.313048 185.773948 
z
" style="stroke:#000000;"/>
    <path clip-path="url(#pd3b3fa6a6e)" d="M 185.950799 177.146736 
L 183.984744 177.148454 
L 185.771461 181.763719 
z
" style="stroke:#000000;"/>
    <path clip-path="url(#pd3b3fa6a6e)" d="M 183.984744 177.148454 
L 185.950799 177.146736 
L 185.771461 172.530067 
z
" style="stroke:#000000;"/>
    <path clip-path="url(#pd3b3fa6a6e)" d="M 183.11665 195.138223 
L 182.348875 190.780064 
L 184.347331 190.806714 
z
" style="stroke:#000000;"/>
    <path clip-path="url(#pd3b3fa6a6e)" d="M 183.815821 172.804469 
L 181.98655 177.145471 
L 183.984744 177.148454 
z
" style="stroke:#000000;"/>
    <path clip-path="url(#pd3b3fa6a6e)" d="M 181.313048 168.518168 
L 182.47455 164.298494 
L 180.477445 164.317796 
z
" style="stroke:#000000;"/>
    <path clip-path="url(#pd3b3fa6a6e)" d="M 183.984744 177.148454 
L 181.817748 181.482222 
L 183.815821 181.492735 
z
" style="stroke:#000000;"/>
    <path clip-path="url(#pd3b3fa6a6e)" d="M 185.771461 181.763719 
L 183.815821 181.492735 
L 185.235203 186.332934 
z
" style="stroke:#000000;"/>
    <path clip-path="url(#pd3b3fa6a6e)" d="M 183.815821 172.804469 
L 185.771461 172.530067 
L 185.235203 167.961789 
z
" style="stroke:#000000;"/>
    <path clip-path="url(#pd3b3fa6a6e)" d="M 179.558916 155.054604 
L 183.11665 159.160203 
L 181.119081 159.188408 
z
" style="stroke:#000000;"/>
    <path clip-path="url(#pd3b3fa6a6e)" d="M 183.310756 168.506169 
L 181.817748 172.809014 
L 183.815821 172.804469 
z
" style="stroke:#000000;"/>
    <path clip-path="url(#pd3b3fa6a6e)" d="M 184.347331 163.489561 
L 181.119081 159.188408 
L 183.11665 159.160203 
z
" style="stroke:#000000;"/>
    <path clip-path="url(#pd3b3fa6a6e)" d="M 183.815821 181.492735 
L 181.313048 185.773948 
L 183.310756 185.791918 
z
" style="stroke:#000000;"/>
    <path clip-path="url(#pd3b3fa6a6e)" d="M 185.771461 172.530067 
L 183.815821 172.804469 
L 183.984744 177.148454 
z
" style="stroke:#000000;"/>
    <path clip-path="url(#pd3b3fa6a6e)" d="M 183.815821 181.492735 
L 185.771461 181.763719 
L 183.984744 177.148454 
z
" style="stroke:#000000;"/>
    <path clip-path="url(#pd3b3fa6a6e)" d="M 179.319277 194.043572 
L 182.47455 190.001055 
L 180.477445 189.975777 
z
" style="stroke:#000000;"/>
    <path clip-path="url(#pd3b3fa6a6e)" d="M 181.119081 195.104046 
L 181.555355 199.281964 
L 179.558916 199.240569 
z
" style="stroke:#000000;"/>
    <path clip-path="url(#pd3b3fa6a6e)" d="M 177.850126 156.363696 
L 179.558916 155.054604 
L 179.319277 160.25202 
z
" style="stroke:#000000;"/>
    <path clip-path="url(#pd3b3fa6a6e)" d="M 179.558916 199.240569 
L 177.850126 197.934456 
L 179.319277 194.043572 
z
" style="stroke:#000000;"/>
    <path clip-path="url(#pd3b3fa6a6e)" d="M 185.235203 186.332934 
L 183.310756 185.791918 
L 184.347331 190.806714 
z
" style="stroke:#000000;"/>
    <path clip-path="url(#pd3b3fa6a6e)" d="M 183.310756 168.506169 
L 185.235203 167.961789 
L 184.347331 163.489561 
z
" style="stroke:#000000;"/>
    <path clip-path="url(#pd3b3fa6a6e)" d="M 182.47455 164.298494 
L 181.313048 168.518168 
L 183.310756 168.506169 
z
" style="stroke:#000000;"/>
    <path clip-path="url(#pd3b3fa6a6e)" d="M 183.310756 185.791918 
L 185.235203 186.332934 
L 183.815821 181.492735 
z
" style="stroke:#000000;"/>
    <path clip-path="url(#pd3b3fa6a6e)" d="M 185.235203 167.961789 
L 183.310756 168.506169 
L 183.815821 172.804469 
z
" style="stroke:#000000;"/>
    <path clip-path="url(#pd3b3fa6a6e)" d="M 180.477445 164.317796 
L 181.315542 160.225638 
L 179.319277 160.25202 
z
" style="stroke:#000000;"/>
    <path clip-path="url(#pd3b3fa6a6e)" d="M 183.310756 185.791918 
L 180.477445 189.975777 
L 182.47455 190.001055 
z
" style="stroke:#000000;"/>
    <path clip-path="url(#pd3b3fa6a6e)" d="M 179.558916 155.054604 
L 177.850126 156.363696 
L 177.683987 151.152751 
z
" style="stroke:#000000;"/>
    <path clip-path="url(#pd3b3fa6a6e)" d="M 177.850126 197.934456 
L 179.558916 199.240569 
L 177.683987 203.145691 
z
" style="stroke:#000000;"/>
    <path clip-path="url(#pd3b3fa6a6e)" d="M 181.555355 199.281964 
L 181.119081 195.104046 
L 183.11665 195.138223 
z
" style="stroke:#000000;"/>
    <path clip-path="url(#pd3b3fa6a6e)" d="M 182.47455 190.001055 
L 184.347331 190.806714 
L 183.310756 185.791918 
z
" style="stroke:#000000;"/>
    <path clip-path="url(#pd3b3fa6a6e)" d="M 184.347331 163.489561 
L 182.47455 164.298494 
L 183.310756 168.506169 
z
" style="stroke:#000000;"/>
    <path clip-path="url(#pd3b3fa6a6e)" d="M 184.347331 190.806714 
L 182.47455 190.001055 
L 183.11665 195.138223 
z
" style="stroke:#000000;"/>
    <path clip-path="url(#pd3b3fa6a6e)" d="M 182.47455 164.298494 
L 184.347331 163.489561 
L 183.11665 159.160203 
z
" style="stroke:#000000;"/>
    <path clip-path="url(#pd3b3fa6a6e)" d="M 181.315542 160.225638 
L 180.477445 164.317796 
L 182.47455 164.298494 
z
" style="stroke:#000000;"/>
    <path clip-path="url(#pd3b3fa6a6e)" d="M 183.11665 159.160203 
L 179.558916 155.054604 
L 181.555355 155.019191 
z
" style="stroke:#000000;"/>
    <path clip-path="url(#pd3b3fa6a6e)" d="M 177.683987 151.152751 
L 181.555355 155.019191 
L 179.558916 155.054604 
z
" style="stroke:#000000;"/>
    <path clip-path="url(#pd3b3fa6a6e)" d="M 177.850126 197.934456 
L 181.315542 194.075937 
L 179.319277 194.043572 
z
" style="stroke:#000000;"/>
    <path clip-path="url(#pd3b3fa6a6e)" d="M 182.47455 190.001055 
L 179.319277 194.043572 
L 181.315542 194.075937 
z
" style="stroke:#000000;"/>
    <path clip-path="url(#pd3b3fa6a6e)" d="M 177.683987 151.152751 
L 177.850126 156.363696 
L 176.084736 152.694021 
z
" style="stroke:#000000;"/>
    <path clip-path="url(#pd3b3fa6a6e)" d="M 177.850126 197.934456 
L 177.683987 203.145691 
L 176.084736 201.607208 
z
" style="stroke:#000000;"/>
    <path clip-path="url(#pd3b3fa6a6e)" d="M 179.319277 160.25202 
L 179.845324 156.33053 
L 177.850126 156.363696 
z
" style="stroke:#000000;"/>
    <path clip-path="url(#pd3b3fa6a6e)" d="M 179.558916 199.240569 
L 179.679063 203.19392 
L 177.683987 203.145691 
z
" style="stroke:#000000;"/>
    <path clip-path="url(#pd3b3fa6a6e)" d="M 181.315542 194.075937 
L 183.11665 195.138223 
L 182.47455 190.001055 
z
" style="stroke:#000000;"/>
    <path clip-path="url(#pd3b3fa6a6e)" d="M 183.11665 159.160203 
L 181.315542 160.225638 
L 182.47455 164.298494 
z
" style="stroke:#000000;"/>
    <path clip-path="url(#pd3b3fa6a6e)" d="M 179.679063 203.19392 
L 179.558916 199.240569 
L 181.555355 199.281964 
z
" style="stroke:#000000;"/>
    <path clip-path="url(#pd3b3fa6a6e)" d="M 183.11665 195.138223 
L 181.315542 194.075937 
L 181.555355 199.281964 
z
" style="stroke:#000000;"/>
    <path clip-path="url(#pd3b3fa6a6e)" d="M 181.315542 160.225638 
L 183.11665 159.160203 
L 181.555355 155.019191 
z
" style="stroke:#000000;"/>
    <path clip-path="url(#pd3b3fa6a6e)" d="M 179.845324 156.33053 
L 179.319277 160.25202 
L 181.315542 160.225638 
z
" style="stroke:#000000;"/>
    <path clip-path="url(#pd3b3fa6a6e)" d="M 177.683987 151.152751 
L 176.084736 152.694021 
L 175.513105 147.524276 
z
" style="stroke:#000000;"/>
    <path clip-path="url(#pd3b3fa6a6e)" d="M 176.084736 201.607208 
L 177.683987 203.145691 
L 175.513105 206.77795 
z
" style="stroke:#000000;"/>
    <path clip-path="url(#pd3b3fa6a6e)" d="M 176.084736 201.607208 
L 179.845324 197.973614 
L 177.850126 197.934456 
z
" style="stroke:#000000;"/>
    <path clip-path="url(#pd3b3fa6a6e)" d="M 181.315542 194.075937 
L 177.850126 197.934456 
L 179.845324 197.973614 
z
" style="stroke:#000000;"/>
    <path clip-path="url(#pd3b3fa6a6e)" d="M 181.555355 155.019191 
L 177.683987 151.152751 
L 179.679063 151.110515 
z
" style="stroke:#000000;"/>
    <path clip-path="url(#pd3b3fa6a6e)" d="M 175.513105 147.524276 
L 179.679063 151.110515 
L 177.683987 151.152751 
z
" style="stroke:#000000;"/>
    <path clip-path="url(#pd3b3fa6a6e)" d="M 177.850126 156.363696 
L 178.078645 152.654435 
L 176.084736 152.694021 
z
" style="stroke:#000000;"/>
    <path clip-path="url(#pd3b3fa6a6e)" d="M 179.845324 197.973614 
L 181.555355 199.281964 
L 181.315542 194.075937 
z
" style="stroke:#000000;"/>
    <path clip-path="url(#pd3b3fa6a6e)" d="M 181.555355 155.019191 
L 179.845324 156.33053 
L 181.315542 160.225638 
z
" style="stroke:#000000;"/>
    <path clip-path="url(#pd3b3fa6a6e)" d="M 175.513105 147.524276 
L 176.084736 152.694021 
L 174.040925 149.282447 
z
" style="stroke:#000000;"/>
    <path clip-path="url(#pd3b3fa6a6e)" d="M 176.084736 201.607208 
L 175.513105 206.77795 
L 174.040925 205.022345 
z
" style="stroke:#000000;"/>
    <path clip-path="url(#pd3b3fa6a6e)" d="M 177.683987 203.145691 
L 177.506596 206.832559 
L 175.513105 206.77795 
z
" style="stroke:#000000;"/>
    <path clip-path="url(#pd3b3fa6a6e)" d="M 178.078645 152.654435 
L 177.850126 156.363696 
L 179.845324 156.33053 
z
" style="stroke:#000000;"/>
    <path clip-path="url(#pd3b3fa6a6e)" d="M 181.555355 199.281964 
L 179.845324 197.973614 
L 179.679063 203.19392 
z
" style="stroke:#000000;"/>
    <path clip-path="url(#pd3b3fa6a6e)" d="M 179.845324 156.33053 
L 181.555355 155.019191 
L 179.679063 151.110515 
z
" style="stroke:#000000;"/>
    <path clip-path="url(#pd3b3fa6a6e)" d="M 177.506596 206.832559 
L 177.683987 203.145691 
L 179.679063 203.19392 
z
" style="stroke:#000000;"/>
    <path clip-path="url(#pd3b3fa6a6e)" d="M 175.513105 147.524276 
L 173.42762 146.444932 
L 174.291401 145.867447 
z
" style="stroke:#000000;"/>
    <path clip-path="url(#pd3b3fa6a6e)" d="M 173.42762 207.860929 
L 175.513105 206.77795 
L 174.291401 208.436909 
z
" style="stroke:#000000;"/>
    <path clip-path="url(#pd3b3fa6a6e)" d="M 179.845324 197.973614 
L 176.084736 201.607208 
L 178.078645 201.652798 
z
" style="stroke:#000000;"/>
    <path clip-path="url(#pd3b3fa6a6e)" d="M 173.42762 146.444932 
L 175.513105 147.524276 
L 174.040925 149.282447 
z
" style="stroke:#000000;"/>
    <path clip-path="url(#pd3b3fa6a6e)" d="M 175.513105 206.77795 
L 173.42762 207.860929 
L 174.040925 205.022345 
z
" style="stroke:#000000;"/>
    <path clip-path="url(#pd3b3fa6a6e)" d="M 174.040925 205.022345 
L 178.078645 201.652798 
L 176.084736 201.607208 
z
" style="stroke:#000000;"/>
    <path clip-path="url(#pd3b3fa6a6e)" d="M 174.291401 145.867447 
L 177.506596 147.475673 
L 175.513105 147.524276 
z
" style="stroke:#000000;"/>
    <path clip-path="url(#pd3b3fa6a6e)" d="M 179.679063 151.110515 
L 175.513105 147.524276 
L 177.506596 147.475673 
z
" style="stroke:#000000;"/>
    <path clip-path="url(#pd3b3fa6a6e)" d="M 179.679063 203.19392 
L 179.845324 197.973614 
L 178.078645 201.652798 
z
" style="stroke:#000000;"/>
    <path clip-path="url(#pd3b3fa6a6e)" d="M 179.845324 156.33053 
L 179.679063 151.110515 
L 178.078645 152.654435 
z
" style="stroke:#000000;"/>
    <path clip-path="url(#pd3b3fa6a6e)" d="M 176.084736 152.694021 
L 176.033336 149.236873 
L 174.040925 149.282447 
z
" style="stroke:#000000;"/>
    <path clip-path="url(#pd3b3fa6a6e)" d="M 175.513105 206.77795 
L 176.283996 208.494443 
L 174.291401 208.436909 
z
" style="stroke:#000000;"/>
    <path clip-path="url(#pd3b3fa6a6e)" d="M 173.42762 146.444932 
L 174.040925 149.282447 
L 172.519589 147.222199 
z
" style="stroke:#000000;"/>
    <path clip-path="url(#pd3b3fa6a6e)" d="M 174.040925 205.022345 
L 173.42762 207.860929 
L 172.519589 207.085245 
z
" style="stroke:#000000;"/>
    <path clip-path="url(#pd3b3fa6a6e)" d="M 176.033336 149.236873 
L 176.084736 152.694021 
L 178.078645 152.654435 
z
" style="stroke:#000000;"/>
    <path clip-path="url(#pd3b3fa6a6e)" d="M 179.679063 203.19392 
L 178.078645 201.652798 
L 177.506596 206.832559 
z
" style="stroke:#000000;"/>
    <path clip-path="url(#pd3b3fa6a6e)" d="M 178.078645 152.654435 
L 179.679063 151.110515 
L 177.506596 147.475673 
z
" style="stroke:#000000;"/>
    <path clip-path="url(#pd3b3fa6a6e)" d="M 176.283996 208.494443 
L 173.42762 207.860929 
L 174.291401 208.436909 
z
" style="stroke:#000000;"/>
    <path clip-path="url(#pd3b3fa6a6e)" d="M 176.283996 208.494443 
L 175.513105 206.77795 
L 177.506596 206.832559 
z
" style="stroke:#000000;"/>
    <path clip-path="url(#pd3b3fa6a6e)" d="M 175.419579 146.394396 
L 174.291401 145.867447 
L 173.42762 146.444932 
z
" style="stroke:#000000;"/>
    <path clip-path="url(#pd3b3fa6a6e)" d="M 178.078645 201.652798 
L 174.040925 205.022345 
L 176.033336 205.073934 
z
" style="stroke:#000000;"/>
    <path clip-path="url(#pd3b3fa6a6e)" d="M 177.506596 147.475673 
L 174.291401 145.867447 
L 176.283996 145.815926 
z
" style="stroke:#000000;"/>
    <path clip-path="url(#pd3b3fa6a6e)" d="M 176.033336 149.236873 
L 172.519589 147.222199 
L 174.040925 149.282447 
z
" style="stroke:#000000;"/>
    <path clip-path="url(#pd3b3fa6a6e)" d="M 175.419579 207.917484 
L 172.519589 207.085245 
L 173.42762 207.860929 
z
" style="stroke:#000000;"/>
    <path clip-path="url(#pd3b3fa6a6e)" d="M 174.510879 207.140473 
L 174.040925 205.022345 
L 172.519589 207.085245 
z
" style="stroke:#000000;"/>
    <path clip-path="url(#pd3b3fa6a6e)" d="M 177.506596 206.832559 
L 178.078645 201.652798 
L 176.033336 205.073934 
z
" style="stroke:#000000;"/>
    <path clip-path="url(#pd3b3fa6a6e)" d="M 178.078645 152.654435 
L 177.506596 147.475673 
L 176.033336 149.236873 
z
" style="stroke:#000000;"/>
    <path clip-path="url(#pd3b3fa6a6e)" d="M 174.291401 145.867447 
L 175.419579 146.394396 
L 176.283996 145.815926 
z
" style="stroke:#000000;"/>
    <path clip-path="url(#pd3b3fa6a6e)" d="M 174.510879 147.172995 
L 173.42762 146.444932 
L 172.519589 147.222199 
z
" style="stroke:#000000;"/>
    <path clip-path="url(#pd3b3fa6a6e)" d="M 173.42762 207.860929 
L 176.283996 208.494443 
L 175.419579 207.917484 
z
" style="stroke:#000000;"/>
    <path clip-path="url(#pd3b3fa6a6e)" d="M 174.040925 205.022345 
L 174.510879 207.140473 
L 176.033336 205.073934 
z
" style="stroke:#000000;"/>
    <path clip-path="url(#pd3b3fa6a6e)" d="M 177.506596 206.832559 
L 175.419579 207.917484 
L 176.283996 208.494443 
z
" style="stroke:#000000;"/>
    <path clip-path="url(#pd3b3fa6a6e)" d="M 175.419579 146.394396 
L 177.506596 147.475673 
L 176.283996 145.815926 
z
" style="stroke:#000000;"/>
    <path clip-path="url(#pd3b3fa6a6e)" d="M 175.419579 207.917484 
L 177.506596 206.832559 
L 176.033336 205.073934 
z
" style="stroke:#000000;"/>
    <path clip-path="url(#pd3b3fa6a6e)" d="M 177.506596 147.475673 
L 175.419579 146.394396 
L 176.033336 149.236873 
z
" style="stroke:#000000;"/>
    <path clip-path="url(#pd3b3fa6a6e)" d="M 173.42762 146.444932 
L 174.510879 147.172995 
L 175.419579 146.394396 
z
" style="stroke:#000000;"/>
    <path clip-path="url(#pd3b3fa6a6e)" d="M 172.519589 147.222199 
L 176.033336 149.236873 
L 174.510879 147.172995 
z
" style="stroke:#000000;"/>
    <path clip-path="url(#pd3b3fa6a6e)" d="M 172.519589 207.085245 
L 175.419579 207.917484 
L 174.510879 207.140473 
z
" style="stroke:#000000;"/>
    <path clip-path="url(#pd3b3fa6a6e)" d="M 175.419579 207.917484 
L 176.033336 205.073934 
L 174.510879 207.140473 
z
" style="stroke:#000000;"/>
    <path clip-path="url(#pd3b3fa6a6e)" d="M 176.033336 149.236873 
L 175.419579 146.394396 
L 174.510879 147.172995 
z
" style="stroke:#000000;"/>
   </g>
  </g>
 </g>
 <defs>
  <clipPath id="pd3b3fa6a6e">
   <rect height="271.8" width="279" x="45" y="43.2"/>
  </clipPath>
 </defs>
</svg>
