<?xml version="1.0" encoding="utf-8" standalone="no"?>
<!DOCTYPE svg PUBLIC "-//W3C//DTD SVG 1.1//EN"
  "http://www.w3.org/Graphics/SVG/1.1/DTD/svg11.dtd">
<!-- Created with matplotlib (https://matplotlib.org/) -->
<svg height="360pt" version="1.1" viewBox="0 0 360 360" width="360pt" xmlns="http://www.w3.org/2000/svg" xmlns:xlink="http://www.w3.org/1999/xlink">
 <defs>
  <style type="text/css">
*{stroke-linecap:butt;stroke-linejoin:round;}
  </style>
 </defs>
 <g id="figure_1">
  <g id="patch_1">
   <path d="M 45 315 
L 324 315 
L 324 43.2 
L 45 43.2 
z
" style="fill:#ffffff;"/>
  </g>
  <g id="axes_1">
   <g id="Poly3DCollection_1">
    <path clip-path="url(#pbe257a8a1b)" d="M 200.718843 149.585223 
L 201.372321 146.79664 
L 202.338483 147.587597 
z
" style="stroke:#000000;"/>
    <path clip-path="url(#pbe257a8a1b)" d="M 201.372321 207.467332 
L 200.718843 204.679606 
L 202.338483 206.675108 
z
" style="stroke:#000000;"/>
    <path clip-path="url(#pbe257a8a1b)" d="M 199.147235 147.810202 
L 201.372321 146.79664 
L 200.718843 149.585223 
z
" style="stroke:#000000;"/>
    <path clip-path="url(#pbe257a8a1b)" d="M 201.372321 207.467332 
L 199.147235 206.456689 
L 200.718843 204.679606 
z
" style="stroke:#000000;"/>
    <path clip-path="url(#pbe257a8a1b)" d="M 204.001764 206.733851 
L 201.372321 207.467332 
L 202.338483 206.675108 
z
" style="stroke:#000000;"/>
    <path clip-path="url(#pbe257a8a1b)" d="M 201.372321 146.79664 
L 199.147235 147.810202 
L 200.45175 146.203072 
z
" style="stroke:#000000;"/>
    <path clip-path="url(#pbe257a8a1b)" d="M 199.147235 206.456689 
L 201.372321 207.467332 
L 200.45175 208.062108 
z
" style="stroke:#000000;"/>
    <path clip-path="url(#pbe257a8a1b)" d="M 204.001764 147.535262 
L 200.718843 149.585223 
L 202.338483 147.587597 
z
" style="stroke:#000000;"/>
    <path clip-path="url(#pbe257a8a1b)" d="M 203.034405 146.742798 
L 202.338483 147.587597 
L 201.372321 146.79664 
z
" style="stroke:#000000;"/>
    <path clip-path="url(#pbe257a8a1b)" d="M 202.380117 204.734633 
L 202.338483 206.675108 
L 200.718843 204.679606 
z
" style="stroke:#000000;"/>
    <path clip-path="url(#pbe257a8a1b)" d="M 199.147235 147.810202 
L 200.718843 149.585223 
L 198.535855 152.915178 
z
" style="stroke:#000000;"/>
    <path clip-path="url(#pbe257a8a1b)" d="M 200.718843 204.679606 
L 199.147235 206.456689 
L 198.535855 201.352515 
z
" style="stroke:#000000;"/>
    <path clip-path="url(#pbe257a8a1b)" d="M 203.034405 207.527587 
L 200.45175 208.062108 
L 201.372321 207.467332 
z
" style="stroke:#000000;"/>
    <path clip-path="url(#pbe257a8a1b)" d="M 202.112692 146.148094 
L 201.372321 146.79664 
L 200.45175 146.203072 
z
" style="stroke:#000000;"/>
    <path clip-path="url(#pbe257a8a1b)" d="M 202.338483 147.587597 
L 203.034405 146.742798 
L 204.001764 147.535262 
z
" style="stroke:#000000;"/>
    <path clip-path="url(#pbe257a8a1b)" d="M 202.338483 206.675108 
L 202.380117 204.734633 
L 204.001764 206.733851 
z
" style="stroke:#000000;"/>
    <path clip-path="url(#pbe257a8a1b)" d="M 201.372321 207.467332 
L 204.001764 206.733851 
L 203.034405 207.527587 
z
" style="stroke:#000000;"/>
    <path clip-path="url(#pbe257a8a1b)" d="M 199.147235 147.810202 
L 202.112692 146.148094 
L 200.45175 146.203072 
z
" style="stroke:#000000;"/>
    <path clip-path="url(#pbe257a8a1b)" d="M 198.535855 201.352515 
L 202.380117 204.734633 
L 200.718843 204.679606 
z
" style="stroke:#000000;"/>
    <path clip-path="url(#pbe257a8a1b)" d="M 199.147235 147.810202 
L 198.535855 152.915178 
L 196.821986 151.3536 
z
" style="stroke:#000000;"/>
    <path clip-path="url(#pbe257a8a1b)" d="M 198.535855 201.352515 
L 199.147235 206.456689 
L 196.821986 202.916342 
z
" style="stroke:#000000;"/>
    <path clip-path="url(#pbe257a8a1b)" d="M 200.718843 149.585223 
L 204.001764 147.535262 
L 202.380117 149.536613 
z
" style="stroke:#000000;"/>
    <path clip-path="url(#pbe257a8a1b)" d="M 200.45175 208.062108 
L 200.806557 206.515094 
L 199.147235 206.456689 
z
" style="stroke:#000000;"/>
    <path clip-path="url(#pbe257a8a1b)" d="M 201.372321 146.79664 
L 202.112692 146.148094 
L 203.034405 146.742798 
z
" style="stroke:#000000;"/>
    <path clip-path="url(#pbe257a8a1b)" d="M 200.718843 149.585223 
L 200.194416 152.872797 
L 198.535855 152.915178 
z
" style="stroke:#000000;"/>
    <path clip-path="url(#pbe257a8a1b)" d="M 200.45175 208.062108 
L 203.034405 207.527587 
L 202.112692 208.123504 
z
" style="stroke:#000000;"/>
    <path clip-path="url(#pbe257a8a1b)" d="M 196.821986 151.3536 
L 198.535855 152.915178 
L 196.64365 156.518545 
z
" style="stroke:#000000;"/>
    <path clip-path="url(#pbe257a8a1b)" d="M 198.535855 201.352515 
L 196.821986 202.916342 
L 196.64365 197.751632 
z
" style="stroke:#000000;"/>
    <path clip-path="url(#pbe257a8a1b)" d="M 200.806557 206.515094 
L 200.45175 208.062108 
L 202.112692 208.123504 
z
" style="stroke:#000000;"/>
    <path clip-path="url(#pbe257a8a1b)" d="M 196.821986 151.3536 
L 200.806557 147.758222 
L 199.147235 147.810202 
z
" style="stroke:#000000;"/>
    <path clip-path="url(#pbe257a8a1b)" d="M 200.194416 152.872797 
L 200.718843 149.585223 
L 202.380117 149.536613 
z
" style="stroke:#000000;"/>
    <path clip-path="url(#pbe257a8a1b)" d="M 202.380117 204.734633 
L 203.034405 207.527587 
L 204.001764 206.733851 
z
" style="stroke:#000000;"/>
    <path clip-path="url(#pbe257a8a1b)" d="M 203.034405 146.742798 
L 202.380117 149.536613 
L 204.001764 147.535262 
z
" style="stroke:#000000;"/>
    <path clip-path="url(#pbe257a8a1b)" d="M 202.112692 146.148094 
L 199.147235 147.810202 
L 200.806557 147.758222 
z
" style="stroke:#000000;"/>
    <path clip-path="url(#pbe257a8a1b)" d="M 196.64365 197.751632 
L 200.194416 201.401324 
L 198.535855 201.352515 
z
" style="stroke:#000000;"/>
    <path clip-path="url(#pbe257a8a1b)" d="M 196.821986 151.3536 
L 196.64365 156.518545 
L 194.806258 155.188323 
z
" style="stroke:#000000;"/>
    <path clip-path="url(#pbe257a8a1b)" d="M 196.64365 197.751632 
L 196.821986 202.916342 
L 194.806258 199.084264 
z
" style="stroke:#000000;"/>
    <path clip-path="url(#pbe257a8a1b)" d="M 202.380117 204.734633 
L 198.535855 201.352515 
L 200.194416 201.401324 
z
" style="stroke:#000000;"/>
    <path clip-path="url(#pbe257a8a1b)" d="M 199.147235 206.456689 
L 198.478413 202.968129 
L 196.821986 202.916342 
z
" style="stroke:#000000;"/>
    <path clip-path="url(#pbe257a8a1b)" d="M 198.535855 152.915178 
L 198.299855 156.482921 
L 196.64365 156.518545 
z
" style="stroke:#000000;"/>
    <path clip-path="url(#pbe257a8a1b)" d="M 200.806557 206.515094 
L 203.034405 207.527587 
L 202.380117 204.734633 
z
" style="stroke:#000000;"/>
    <path clip-path="url(#pbe257a8a1b)" d="M 203.034405 146.742798 
L 200.806557 147.758222 
L 202.380117 149.536613 
z
" style="stroke:#000000;"/>
    <path clip-path="url(#pbe257a8a1b)" d="M 194.806258 155.188323 
L 196.64365 156.518545 
L 195.06428 160.354947 
z
" style="stroke:#000000;"/>
    <path clip-path="url(#pbe257a8a1b)" d="M 196.64365 197.751632 
L 194.806258 199.084264 
L 195.06428 193.917302 
z
" style="stroke:#000000;"/>
    <path clip-path="url(#pbe257a8a1b)" d="M 203.034405 207.527587 
L 200.806557 206.515094 
L 202.112692 208.123504 
z
" style="stroke:#000000;"/>
    <path clip-path="url(#pbe257a8a1b)" d="M 200.806557 147.758222 
L 203.034405 146.742798 
L 202.112692 146.148094 
z
" style="stroke:#000000;"/>
    <path clip-path="url(#pbe257a8a1b)" d="M 198.478413 202.968129 
L 199.147235 206.456689 
L 200.806557 206.515094 
z
" style="stroke:#000000;"/>
    <path clip-path="url(#pbe257a8a1b)" d="M 198.299855 156.482921 
L 198.535855 152.915178 
L 200.194416 152.872797 
z
" style="stroke:#000000;"/>
    <path clip-path="url(#pbe257a8a1b)" d="M 200.806557 206.515094 
L 202.380117 204.734633 
L 200.194416 201.401324 
z
" style="stroke:#000000;"/>
    <path clip-path="url(#pbe257a8a1b)" d="M 202.380117 149.536613 
L 200.806557 147.758222 
L 200.194416 152.872797 
z
" style="stroke:#000000;"/>
    <path clip-path="url(#pbe257a8a1b)" d="M 194.806258 155.188323 
L 198.478413 151.308248 
L 196.821986 151.3536 
z
" style="stroke:#000000;"/>
    <path clip-path="url(#pbe257a8a1b)" d="M 195.06428 193.917302 
L 198.299855 197.793692 
L 196.64365 197.751632 
z
" style="stroke:#000000;"/>
    <path clip-path="url(#pbe257a8a1b)" d="M 195.06428 160.354947 
L 193.123625 159.271809 
L 194.806258 155.188323 
z
" style="stroke:#000000;"/>
    <path clip-path="url(#pbe257a8a1b)" d="M 193.123625 195.002986 
L 195.06428 193.917302 
L 194.806258 199.084264 
z
" style="stroke:#000000;"/>
    <path clip-path="url(#pbe257a8a1b)" d="M 200.806557 147.758222 
L 196.821986 151.3536 
L 198.478413 151.308248 
z
" style="stroke:#000000;"/>
    <path clip-path="url(#pbe257a8a1b)" d="M 200.194416 201.401324 
L 196.64365 197.751632 
L 198.299855 197.793692 
z
" style="stroke:#000000;"/>
    <path clip-path="url(#pbe257a8a1b)" d="M 193.123625 159.271809 
L 195.06428 160.354947 
L 193.816212 164.381381 
z
" style="stroke:#000000;"/>
    <path clip-path="url(#pbe257a8a1b)" d="M 195.06428 193.917302 
L 193.123625 195.002986 
L 193.816212 189.892505 
z
" style="stroke:#000000;"/>
    <path clip-path="url(#pbe257a8a1b)" d="M 196.64365 156.518545 
L 196.718514 160.326533 
L 195.06428 160.354947 
z
" style="stroke:#000000;"/>
    <path clip-path="url(#pbe257a8a1b)" d="M 196.821986 202.916342 
L 196.46017 199.128866 
L 194.806258 199.084264 
z
" style="stroke:#000000;"/>
    <path clip-path="url(#pbe257a8a1b)" d="M 200.806557 206.515094 
L 200.194416 201.401324 
L 198.478413 202.968129 
z
" style="stroke:#000000;"/>
    <path clip-path="url(#pbe257a8a1b)" d="M 200.194416 152.872797 
L 200.806557 147.758222 
L 198.478413 151.308248 
z
" style="stroke:#000000;"/>
    <path clip-path="url(#pbe257a8a1b)" d="M 193.816212 189.892505 
L 196.718514 193.952159 
L 195.06428 193.917302 
z
" style="stroke:#000000;"/>
    <path clip-path="url(#pbe257a8a1b)" d="M 193.816212 164.381381 
L 191.793883 163.558004 
L 193.123625 159.271809 
z
" style="stroke:#000000;"/>
    <path clip-path="url(#pbe257a8a1b)" d="M 191.793883 190.718535 
L 193.816212 189.892505 
L 193.123625 195.002986 
z
" style="stroke:#000000;"/>
    <path clip-path="url(#pbe257a8a1b)" d="M 196.46017 199.128866 
L 196.821986 202.916342 
L 198.478413 202.968129 
z
" style="stroke:#000000;"/>
    <path clip-path="url(#pbe257a8a1b)" d="M 196.718514 160.326533 
L 196.64365 156.518545 
L 198.299855 156.482921 
z
" style="stroke:#000000;"/>
    <path clip-path="url(#pbe257a8a1b)" d="M 191.793883 163.558004 
L 193.816212 164.381381 
L 192.914094 168.552423 
z
" style="stroke:#000000;"/>
    <path clip-path="url(#pbe257a8a1b)" d="M 193.816212 189.892505 
L 191.793883 190.718535 
L 192.914094 185.722647 
z
" style="stroke:#000000;"/>
    <path clip-path="url(#pbe257a8a1b)" d="M 193.123625 159.271809 
L 196.46017 155.150166 
L 194.806258 155.188323 
z
" style="stroke:#000000;"/>
    <path clip-path="url(#pbe257a8a1b)" d="M 195.06428 160.354947 
L 195.468886 164.360548 
L 193.816212 164.381381 
z
" style="stroke:#000000;"/>
    <path clip-path="url(#pbe257a8a1b)" d="M 198.478413 202.968129 
L 200.194416 201.401324 
L 198.299855 197.793692 
z
" style="stroke:#000000;"/>
    <path clip-path="url(#pbe257a8a1b)" d="M 200.194416 152.872797 
L 198.478413 151.308248 
L 198.299855 156.482921 
z
" style="stroke:#000000;"/>
    <path clip-path="url(#pbe257a8a1b)" d="M 198.299855 197.793692 
L 195.06428 193.917302 
L 196.718514 193.952159 
z
" style="stroke:#000000;"/>
    <path clip-path="url(#pbe257a8a1b)" d="M 198.478413 151.308248 
L 194.806258 155.188323 
L 196.46017 155.150166 
z
" style="stroke:#000000;"/>
    <path clip-path="url(#pbe257a8a1b)" d="M 194.806258 199.084264 
L 194.775432 195.039917 
L 193.123625 195.002986 
z
" style="stroke:#000000;"/>
    <path clip-path="url(#pbe257a8a1b)" d="M 190.832667 167.998507 
L 192.914094 168.552423 
L 192.368545 172.820783 
z
" style="stroke:#000000;"/>
    <path clip-path="url(#pbe257a8a1b)" d="M 192.914094 185.722647 
L 190.832667 186.279294 
L 192.368545 181.455002 
z
" style="stroke:#000000;"/>
    <path clip-path="url(#pbe257a8a1b)" d="M 192.914094 185.722647 
L 195.468886 189.919788 
L 193.816212 189.892505 
z
" style="stroke:#000000;"/>
    <path clip-path="url(#pbe257a8a1b)" d="M 192.914094 168.552423 
L 190.832667 167.998507 
L 191.793883 163.558004 
z
" style="stroke:#000000;"/>
    <path clip-path="url(#pbe257a8a1b)" d="M 190.832667 186.279294 
L 192.914094 185.722647 
L 191.793883 190.718535 
z
" style="stroke:#000000;"/>
    <path clip-path="url(#pbe257a8a1b)" d="M 192.368545 181.455002 
L 190.251348 181.735675 
L 192.185969 177.138012 
z
" style="stroke:#000000;"/>
    <path clip-path="url(#pbe257a8a1b)" d="M 190.251348 172.542888 
L 192.368545 172.820783 
L 192.185969 177.138012 
z
" style="stroke:#000000;"/>
    <path clip-path="url(#pbe257a8a1b)" d="M 193.816212 164.381381 
L 194.565639 168.539452 
L 192.914094 168.552423 
z
" style="stroke:#000000;"/>
    <path clip-path="url(#pbe257a8a1b)" d="M 195.468886 164.360548 
L 195.06428 160.354947 
L 196.718514 160.326533 
z
" style="stroke:#000000;"/>
    <path clip-path="url(#pbe257a8a1b)" d="M 198.478413 202.968129 
L 198.299855 197.793692 
L 196.46017 199.128866 
z
" style="stroke:#000000;"/>
    <path clip-path="url(#pbe257a8a1b)" d="M 198.299855 156.482921 
L 198.478413 151.308248 
L 196.46017 155.150166 
z
" style="stroke:#000000;"/>
    <path clip-path="url(#pbe257a8a1b)" d="M 192.368545 172.820783 
L 190.251348 172.542888 
L 190.832667 167.998507 
z
" style="stroke:#000000;"/>
    <path clip-path="url(#pbe257a8a1b)" d="M 190.251348 181.735675 
L 192.368545 181.455002 
L 190.832667 186.279294 
z
" style="stroke:#000000;"/>
    <path clip-path="url(#pbe257a8a1b)" d="M 192.368545 181.455002 
L 194.565639 185.742072 
L 192.914094 185.722647 
z
" style="stroke:#000000;"/>
    <path clip-path="url(#pbe257a8a1b)" d="M 191.793883 163.558004 
L 194.775432 159.241331 
L 193.123625 159.271809 
z
" style="stroke:#000000;"/>
    <path clip-path="url(#pbe257a8a1b)" d="M 194.775432 195.039917 
L 194.806258 199.084264 
L 196.46017 199.128866 
z
" style="stroke:#000000;"/>
    <path clip-path="url(#pbe257a8a1b)" d="M 196.718514 193.952159 
L 193.816212 189.892505 
L 195.468886 189.919788 
z
" style="stroke:#000000;"/>
    <path clip-path="url(#pbe257a8a1b)" d="M 192.914094 168.552423 
L 194.019407 172.815865 
L 192.368545 172.820783 
z
" style="stroke:#000000;"/>
    <path clip-path="url(#pbe257a8a1b)" d="M 192.185969 177.138012 
L 190.056812 177.139409 
L 190.251348 172.542888 
z
" style="stroke:#000000;"/>
    <path clip-path="url(#pbe257a8a1b)" d="M 190.056812 177.139409 
L 192.185969 177.138012 
L 190.251348 181.735675 
z
" style="stroke:#000000;"/>
    <path clip-path="url(#pbe257a8a1b)" d="M 192.185969 177.138012 
L 194.019407 181.466378 
L 192.368545 181.455002 
z
" style="stroke:#000000;"/>
    <path clip-path="url(#pbe257a8a1b)" d="M 192.368545 172.820783 
L 193.836601 177.141241 
L 192.185969 177.138012 
z
" style="stroke:#000000;"/>
    <path clip-path="url(#pbe257a8a1b)" d="M 193.123625 195.002986 
L 193.444024 190.747398 
L 191.793883 190.718535 
z
" style="stroke:#000000;"/>
    <path clip-path="url(#pbe257a8a1b)" d="M 196.46017 199.128866 
L 198.299855 197.793692 
L 196.718514 193.952159 
z
" style="stroke:#000000;"/>
    <path clip-path="url(#pbe257a8a1b)" d="M 198.299855 156.482921 
L 196.46017 155.150166 
L 196.718514 160.326533 
z
" style="stroke:#000000;"/>
    <path clip-path="url(#pbe257a8a1b)" d="M 196.46017 155.150166 
L 193.123625 159.271809 
L 194.775432 159.241331 
z
" style="stroke:#000000;"/>
    <path clip-path="url(#pbe257a8a1b)" d="M 194.565639 168.539452 
L 193.816212 164.381381 
L 195.468886 164.360548 
z
" style="stroke:#000000;"/>
    <path clip-path="url(#pbe257a8a1b)" d="M 190.766917 149.551539 
L 187.212522 144.563611 
L 192.54049 149.019949 
z
" style="stroke:#000000;"/>
    <path clip-path="url(#pbe257a8a1b)" d="M 192.54049 149.019949 
L 187.212522 157.770772 
L 190.766917 149.551539 
z
" style="stroke:#000000;"/>
    <path clip-path="url(#pbe257a8a1b)" d="M 195.468886 189.919788 
L 192.914094 185.722647 
L 194.565639 185.742072 
z
" style="stroke:#000000;"/>
    <path clip-path="url(#pbe257a8a1b)" d="M 190.832667 167.998507 
L 193.444024 163.535601 
L 191.793883 163.558004 
z
" style="stroke:#000000;"/>
    <path clip-path="url(#pbe257a8a1b)" d="M 191.793883 190.718535 
L 192.481603 186.299785 
L 190.832667 186.279294 
z
" style="stroke:#000000;"/>
    <path clip-path="url(#pbe257a8a1b)" d="M 194.019407 172.815865 
L 192.914094 168.552423 
L 194.565639 168.539452 
z
" style="stroke:#000000;"/>
    <path clip-path="url(#pbe257a8a1b)" d="M 196.718514 193.952159 
L 194.775432 195.039917 
L 196.46017 199.128866 
z
" style="stroke:#000000;"/>
    <path clip-path="url(#pbe257a8a1b)" d="M 194.775432 159.241331 
L 196.718514 160.326533 
L 196.46017 155.150166 
z
" style="stroke:#000000;"/>
    <path clip-path="url(#pbe257a8a1b)" d="M 193.444024 190.747398 
L 193.123625 195.002986 
L 194.775432 195.039917 
z
" style="stroke:#000000;"/>
    <path clip-path="url(#pbe257a8a1b)" d="M 194.565639 185.742072 
L 192.368545 181.455002 
L 194.019407 181.466378 
z
" style="stroke:#000000;"/>
    <path clip-path="url(#pbe257a8a1b)" d="M 194.775432 195.039917 
L 196.718514 193.952159 
L 195.468886 189.919788 
z
" style="stroke:#000000;"/>
    <path clip-path="url(#pbe257a8a1b)" d="M 196.718514 160.326533 
L 194.775432 159.241331 
L 195.468886 164.360548 
z
" style="stroke:#000000;"/>
    <path clip-path="url(#pbe257a8a1b)" d="M 193.836601 177.141241 
L 192.368545 172.820783 
L 194.019407 172.815865 
z
" style="stroke:#000000;"/>
    <path clip-path="url(#pbe257a8a1b)" d="M 190.251348 172.542888 
L 192.481603 167.98448 
L 190.832667 167.998507 
z
" style="stroke:#000000;"/>
    <path clip-path="url(#pbe257a8a1b)" d="M 187.212522 157.770772 
L 192.54049 149.019949 
L 187.212522 162.173159 
z
" style="stroke:#000000;"/>
    <path clip-path="url(#pbe257a8a1b)" d="M 194.019407 181.466378 
L 192.185969 177.138012 
L 193.836601 177.141241 
z
" style="stroke:#000000;"/>
    <path clip-path="url(#pbe257a8a1b)" d="M 194.775432 159.241331 
L 191.793883 163.558004 
L 193.444024 163.535601 
z
" style="stroke:#000000;"/>
    <path clip-path="url(#pbe257a8a1b)" d="M 190.832667 186.279294 
L 191.899554 181.74759 
L 190.251348 181.735675 
z
" style="stroke:#000000;"/>
    <path clip-path="url(#pbe257a8a1b)" d="M 190.056812 177.139409 
L 191.899554 172.537441 
L 190.251348 172.542888 
z
" style="stroke:#000000;"/>
    <path clip-path="url(#pbe257a8a1b)" d="M 190.251348 181.735675 
L 191.704773 177.142644 
L 190.056812 177.139409 
z
" style="stroke:#000000;"/>
    <path clip-path="url(#pbe257a8a1b)" d="M 187.212522 144.563611 
L 190.766917 149.551539 
L 187.212522 146.764804 
z
" style="stroke:#000000;"/>
    <path clip-path="url(#pbe257a8a1b)" d="M 192.481603 186.299785 
L 191.793883 190.718535 
L 193.444024 190.747398 
z
" style="stroke:#000000;"/>
    <path clip-path="url(#pbe257a8a1b)" d="M 195.468886 189.919788 
L 193.444024 190.747398 
L 194.775432 195.039917 
z
" style="stroke:#000000;"/>
    <path clip-path="url(#pbe257a8a1b)" d="M 193.444024 163.535601 
L 195.468886 164.360548 
L 194.775432 159.241331 
z
" style="stroke:#000000;"/>
    <path clip-path="url(#pbe257a8a1b)" d="M 192.41577 149.502679 
L 187.212522 146.764804 
L 190.766917 149.551539 
z
" style="stroke:#000000;"/>
    <path clip-path="url(#pbe257a8a1b)" d="M 187.212522 157.770772 
L 192.41577 149.502679 
L 190.766917 149.551539 
z
" style="stroke:#000000;"/>
    <path clip-path="url(#pbe257a8a1b)" d="M 193.444024 190.747398 
L 195.468886 189.919788 
L 194.565639 185.742072 
z
" style="stroke:#000000;"/>
    <path clip-path="url(#pbe257a8a1b)" d="M 195.468886 164.360548 
L 193.444024 163.535601 
L 194.565639 168.539452 
z
" style="stroke:#000000;"/>
    <path clip-path="url(#pbe257a8a1b)" d="M 193.444024 163.535601 
L 190.832667 167.998507 
L 192.481603 167.98448 
z
" style="stroke:#000000;"/>
    <path clip-path="url(#pbe257a8a1b)" d="M 192.54049 149.019949 
L 188.856904 144.505252 
L 194.191568 148.970119 
z
" style="stroke:#000000;"/>
    <path clip-path="url(#pbe257a8a1b)" d="M 188.856904 162.148098 
L 192.54049 149.019949 
L 194.191568 148.970119 
z
" style="stroke:#000000;"/>
    <path clip-path="url(#pbe257a8a1b)" d="M 191.899554 181.74759 
L 190.832667 186.279294 
L 192.481603 186.299785 
z
" style="stroke:#000000;"/>
    <path clip-path="url(#pbe257a8a1b)" d="M 188.856904 144.505252 
L 192.54049 149.019949 
L 187.212522 144.563611 
z
" style="stroke:#000000;"/>
    <path clip-path="url(#pbe257a8a1b)" d="M 192.54049 149.019949 
L 188.856904 162.148098 
L 187.212522 162.173159 
z
" style="stroke:#000000;"/>
    <path clip-path="url(#pbe257a8a1b)" d="M 192.481603 167.98448 
L 190.251348 172.542888 
L 191.899554 172.537441 
z
" style="stroke:#000000;"/>
    <path clip-path="url(#pbe257a8a1b)" d="M 192.481603 186.299785 
L 194.565639 185.742072 
L 194.019407 181.466378 
z
" style="stroke:#000000;"/>
    <path clip-path="url(#pbe257a8a1b)" d="M 194.565639 168.539452 
L 192.481603 167.98448 
L 194.019407 172.815865 
z
" style="stroke:#000000;"/>
    <path clip-path="url(#pbe257a8a1b)" d="M 194.565639 185.742072 
L 192.481603 186.299785 
L 193.444024 190.747398 
z
" style="stroke:#000000;"/>
    <path clip-path="url(#pbe257a8a1b)" d="M 192.481603 167.98448 
L 194.565639 168.539452 
L 193.444024 163.535601 
z
" style="stroke:#000000;"/>
    <path clip-path="url(#pbe257a8a1b)" d="M 191.704773 177.142644 
L 190.251348 181.735675 
L 191.899554 181.74759 
z
" style="stroke:#000000;"/>
    <path clip-path="url(#pbe257a8a1b)" d="M 191.899554 172.537441 
L 190.056812 177.139409 
L 191.704773 177.142644 
z
" style="stroke:#000000;"/>
    <path clip-path="url(#pbe257a8a1b)" d="M 194.019407 172.815865 
L 191.899554 172.537441 
L 193.836601 177.141241 
z
" style="stroke:#000000;"/>
    <path clip-path="url(#pbe257a8a1b)" d="M 191.899554 181.74759 
L 194.019407 181.466378 
L 193.836601 177.141241 
z
" style="stroke:#000000;"/>
    <path clip-path="url(#pbe257a8a1b)" d="M 194.019407 181.466378 
L 191.899554 181.74759 
L 192.481603 186.299785 
z
" style="stroke:#000000;"/>
    <path clip-path="url(#pbe257a8a1b)" d="M 191.899554 172.537441 
L 194.019407 172.815865 
L 192.481603 167.98448 
z
" style="stroke:#000000;"/>
    <path clip-path="url(#pbe257a8a1b)" d="M 187.212522 144.563611 
L 187.212522 146.764804 
L 183.648432 149.480957 
z
" style="stroke:#000000;"/>
    <path clip-path="url(#pbe257a8a1b)" d="M 193.836601 177.141241 
L 191.704773 177.142644 
L 191.899554 181.74759 
z
" style="stroke:#000000;"/>
    <path clip-path="url(#pbe257a8a1b)" d="M 191.704773 177.142644 
L 193.836601 177.141241 
L 191.899554 172.537441 
z
" style="stroke:#000000;"/>
    <path clip-path="url(#pbe257a8a1b)" d="M 187.212522 157.770772 
L 187.212522 162.173159 
L 181.862739 148.911826 
z
" style="stroke:#000000;"/>
    <path clip-path="url(#pbe257a8a1b)" d="M 188.856904 157.737386 
L 194.191568 148.970119 
L 192.41577 149.502679 
z
" style="stroke:#000000;"/>
    <path clip-path="url(#pbe257a8a1b)" d="M 188.856904 144.505252 
L 192.41577 149.502679 
L 194.191568 148.970119 
z
" style="stroke:#000000;"/>
    <path clip-path="url(#pbe257a8a1b)" d="M 187.212522 146.764804 
L 192.41577 149.502679 
L 188.856904 146.710608 
z
" style="stroke:#000000;"/>
    <path clip-path="url(#pbe257a8a1b)" d="M 192.41577 149.502679 
L 187.212522 157.770772 
L 188.856904 157.737386 
z
" style="stroke:#000000;"/>
    <path clip-path="url(#pbe257a8a1b)" d="M 188.856904 146.710608 
L 183.648432 149.480957 
L 187.212522 146.764804 
z
" style="stroke:#000000;"/>
    <path clip-path="url(#pbe257a8a1b)" d="M 183.648432 149.480957 
L 188.856904 157.737386 
L 187.212522 157.770772 
z
" style="stroke:#000000;"/>
    <path clip-path="url(#pbe257a8a1b)" d="M 187.212522 144.563611 
L 183.648432 149.480957 
L 181.862739 148.911826 
z
" style="stroke:#000000;"/>
    <path clip-path="url(#pbe257a8a1b)" d="M 187.212522 157.770772 
L 181.862739 148.911826 
L 183.648432 149.480957 
z
" style="stroke:#000000;"/>
    <path clip-path="url(#pbe257a8a1b)" d="M 194.191568 148.970119 
L 188.856904 157.737386 
L 188.856904 162.148098 
z
" style="stroke:#000000;"/>
    <path clip-path="url(#pbe257a8a1b)" d="M 184.362028 177.143145 
L 182.220072 177.14455 
L 184.166612 172.536165 
z
" style="stroke:#000000;"/>
    <path clip-path="url(#pbe257a8a1b)" d="M 182.220072 177.14455 
L 184.362028 177.143145 
L 184.166612 181.750382 
z
" style="stroke:#000000;"/>
    <path clip-path="url(#pbe257a8a1b)" d="M 192.41577 149.502679 
L 188.856904 144.505252 
L 188.856904 146.710608 
z
" style="stroke:#000000;"/>
    <path clip-path="url(#pbe257a8a1b)" d="M 184.166612 172.536165 
L 182.036072 172.810458 
L 183.582319 167.977867 
z
" style="stroke:#000000;"/>
    <path clip-path="url(#pbe257a8a1b)" d="M 182.036072 181.478884 
L 184.166612 181.750382 
L 183.582319 186.309446 
z
" style="stroke:#000000;"/>
    <path clip-path="url(#pbe257a8a1b)" d="M 184.166612 181.750382 
L 182.036072 181.478884 
L 182.220072 177.14455 
z
" style="stroke:#000000;"/>
    <path clip-path="url(#pbe257a8a1b)" d="M 182.036072 172.810458 
L 184.166612 172.536165 
L 182.220072 177.14455 
z
" style="stroke:#000000;"/>
    <path clip-path="url(#pbe257a8a1b)" d="M 184.166612 172.536165 
L 186.002811 177.146393 
L 184.362028 177.143145 
z
" style="stroke:#000000;"/>
    <path clip-path="url(#pbe257a8a1b)" d="M 184.362028 177.143145 
L 185.807149 181.762352 
L 184.166612 181.750382 
z
" style="stroke:#000000;"/>
    <path clip-path="url(#pbe257a8a1b)" d="M 183.582319 167.977867 
L 181.485961 168.522292 
L 182.615041 163.516241 
z
" style="stroke:#000000;"/>
    <path clip-path="url(#pbe257a8a1b)" d="M 181.485961 185.767771 
L 183.582319 186.309446 
L 182.615041 190.772341 
z
" style="stroke:#000000;"/>
    <path clip-path="url(#pbe257a8a1b)" d="M 181.485961 168.522292 
L 183.582319 167.977867 
L 182.036072 172.810458 
z
" style="stroke:#000000;"/>
    <path clip-path="url(#pbe257a8a1b)" d="M 183.582319 186.309446 
L 181.485961 185.767771 
L 182.036072 181.478884 
z
" style="stroke:#000000;"/>
    <path clip-path="url(#pbe257a8a1b)" d="M 183.582319 167.977867 
L 185.807149 172.530692 
L 184.166612 172.536165 
z
" style="stroke:#000000;"/>
    <path clip-path="url(#pbe257a8a1b)" d="M 187.212522 144.563611 
L 183.500357 148.861586 
L 188.856904 144.505252 
z
" style="stroke:#000000;"/>
    <path clip-path="url(#pbe257a8a1b)" d="M 183.500357 148.861586 
L 187.212522 162.173159 
L 188.856904 162.148098 
z
" style="stroke:#000000;"/>
    <path clip-path="url(#pbe257a8a1b)" d="M 184.166612 181.750382 
L 185.222116 186.330051 
L 183.582319 186.309446 
z
" style="stroke:#000000;"/>
    <path clip-path="url(#pbe257a8a1b)" d="M 183.500357 148.861586 
L 187.212522 144.563611 
L 181.862739 148.911826 
z
" style="stroke:#000000;"/>
    <path clip-path="url(#pbe257a8a1b)" d="M 187.212522 162.173159 
L 183.500357 148.861586 
L 181.862739 148.911826 
z
" style="stroke:#000000;"/>
    <path clip-path="url(#pbe257a8a1b)" d="M 182.615041 163.516241 
L 185.222116 167.963762 
L 183.582319 167.977867 
z
" style="stroke:#000000;"/>
    <path clip-path="url(#pbe257a8a1b)" d="M 180.575287 164.325271 
L 182.615041 163.516241 
L 181.485961 168.522292 
z
" style="stroke:#000000;"/>
    <path clip-path="url(#pbe257a8a1b)" d="M 182.615041 190.772341 
L 180.575287 189.965987 
L 181.485961 185.767771 
z
" style="stroke:#000000;"/>
    <path clip-path="url(#pbe257a8a1b)" d="M 183.648432 149.480957 
L 188.856904 146.710608 
L 185.288313 149.431829 
z
" style="stroke:#000000;"/>
    <path clip-path="url(#pbe257a8a1b)" d="M 188.856904 157.737386 
L 183.648432 149.480957 
L 185.288313 149.431829 
z
" style="stroke:#000000;"/>
    <path clip-path="url(#pbe257a8a1b)" d="M 182.615041 163.516241 
L 180.575287 164.325271 
L 181.274556 159.198389 
z
" style="stroke:#000000;"/>
    <path clip-path="url(#pbe257a8a1b)" d="M 180.575287 189.965987 
L 182.615041 190.772341 
L 181.274556 195.091951 
z
" style="stroke:#000000;"/>
    <path clip-path="url(#pbe257a8a1b)" d="M 183.582319 186.309446 
L 184.253614 190.801408 
L 182.615041 190.772341 
z
" style="stroke:#000000;"/>
    <path clip-path="url(#pbe257a8a1b)" d="M 188.856904 144.505252 
L 185.288313 149.431829 
L 188.856904 146.710608 
z
" style="stroke:#000000;"/>
    <path clip-path="url(#pbe257a8a1b)" d="M 185.807149 181.762352 
L 184.362028 177.143145 
L 186.002811 177.146393 
z
" style="stroke:#000000;"/>
    <path clip-path="url(#pbe257a8a1b)" d="M 186.002811 177.146393 
L 184.166612 172.536165 
L 185.807149 172.530692 
z
" style="stroke:#000000;"/>
    <path clip-path="url(#pbe257a8a1b)" d="M 185.222116 186.330051 
L 184.166612 181.750382 
L 185.807149 181.762352 
z
" style="stroke:#000000;"/>
    <path clip-path="url(#pbe257a8a1b)" d="M 181.274556 159.198389 
L 184.253614 163.49368 
L 182.615041 163.516241 
z
" style="stroke:#000000;"/>
    <path clip-path="url(#pbe257a8a1b)" d="M 182.036072 181.478884 
L 183.858144 177.147804 
L 182.220072 177.14455 
z
" style="stroke:#000000;"/>
    <path clip-path="url(#pbe257a8a1b)" d="M 188.856904 157.737386 
L 183.500357 148.861586 
L 188.856904 162.148098 
z
" style="stroke:#000000;"/>
    <path clip-path="url(#pbe257a8a1b)" d="M 185.807149 172.530692 
L 183.582319 167.977867 
L 185.222116 167.963762 
z
" style="stroke:#000000;"/>
    <path clip-path="url(#pbe257a8a1b)" d="M 182.220072 177.14455 
L 183.67391 172.8055 
L 182.036072 172.810458 
z
" style="stroke:#000000;"/>
    <path clip-path="url(#pbe257a8a1b)" d="M 179.313295 160.263826 
L 181.274556 159.198389 
L 180.575287 164.325271 
z
" style="stroke:#000000;"/>
    <path clip-path="url(#pbe257a8a1b)" d="M 181.274556 195.091951 
L 179.313295 194.029088 
L 180.575287 189.965987 
z
" style="stroke:#000000;"/>
    <path clip-path="url(#pbe257a8a1b)" d="M 181.485961 185.767771 
L 183.67391 181.49035 
L 182.036072 181.478884 
z
" style="stroke:#000000;"/>
    <path clip-path="url(#pbe257a8a1b)" d="M 182.615041 190.772341 
L 182.911428 195.12922 
L 181.274556 195.091951 
z
" style="stroke:#000000;"/>
    <path clip-path="url(#pbe257a8a1b)" d="M 181.274556 159.198389 
L 179.313295 160.263826 
L 179.574394 155.070011 
z
" style="stroke:#000000;"/>
    <path clip-path="url(#pbe257a8a1b)" d="M 179.313295 194.029088 
L 181.274556 195.091951 
L 179.574394 199.22256 
z
" style="stroke:#000000;"/>
    <path clip-path="url(#pbe257a8a1b)" d="M 182.036072 172.810458 
L 183.123102 168.509208 
L 181.485961 168.522292 
z
" style="stroke:#000000;"/>
    <path clip-path="url(#pbe257a8a1b)" d="M 184.253614 190.801408 
L 183.582319 186.309446 
L 185.222116 186.330051 
z
" style="stroke:#000000;"/>
    <path clip-path="url(#pbe257a8a1b)" d="M 185.222116 167.963762 
L 182.615041 163.516241 
L 184.253614 163.49368 
z
" style="stroke:#000000;"/>
    <path clip-path="url(#pbe257a8a1b)" d="M 180.575287 189.965987 
L 183.123102 185.787367 
L 181.485961 185.767771 
z
" style="stroke:#000000;"/>
    <path clip-path="url(#pbe257a8a1b)" d="M 183.500357 148.861586 
L 188.856904 157.737386 
L 185.288313 149.431829 
z
" style="stroke:#000000;"/>
    <path clip-path="url(#pbe257a8a1b)" d="M 185.288313 149.431829 
L 188.856904 144.505252 
L 183.500357 148.861586 
z
" style="stroke:#000000;"/>
    <path clip-path="url(#pbe257a8a1b)" d="M 181.485961 168.522292 
L 182.211271 164.304226 
L 180.575287 164.325271 
z
" style="stroke:#000000;"/>
    <path clip-path="url(#pbe257a8a1b)" d="M 179.574394 155.070011 
L 182.911428 159.167633 
L 181.274556 159.198389 
z
" style="stroke:#000000;"/>
    <path clip-path="url(#pbe257a8a1b)" d="M 177.712824 156.381069 
L 179.574394 155.070011 
L 179.313295 160.263826 
z
" style="stroke:#000000;"/>
    <path clip-path="url(#pbe257a8a1b)" d="M 179.574394 199.22256 
L 177.712824 197.913945 
L 179.313295 194.029088 
z
" style="stroke:#000000;"/>
    <path clip-path="url(#pbe257a8a1b)" d="M 182.911428 195.12922 
L 182.615041 190.772341 
L 184.253614 190.801408 
z
" style="stroke:#000000;"/>
    <path clip-path="url(#pbe257a8a1b)" d="M 183.67391 172.8055 
L 182.220072 177.14455 
L 183.858144 177.147804 
z
" style="stroke:#000000;"/>
    <path clip-path="url(#pbe257a8a1b)" d="M 183.858144 177.147804 
L 182.036072 181.478884 
L 183.67391 181.49035 
z
" style="stroke:#000000;"/>
    <path clip-path="url(#pbe257a8a1b)" d="M 186.002811 177.146393 
L 183.858144 177.147804 
L 185.807149 181.762352 
z
" style="stroke:#000000;"/>
    <path clip-path="url(#pbe257a8a1b)" d="M 183.858144 177.147804 
L 186.002811 177.146393 
L 185.807149 172.530692 
z
" style="stroke:#000000;"/>
    <path clip-path="url(#pbe257a8a1b)" d="M 183.123102 168.509208 
L 182.036072 172.810458 
L 183.67391 172.8055 
z
" style="stroke:#000000;"/>
    <path clip-path="url(#pbe257a8a1b)" d="M 179.313295 194.029088 
L 182.211271 189.993548 
L 180.575287 189.965987 
z
" style="stroke:#000000;"/>
    <path clip-path="url(#pbe257a8a1b)" d="M 181.274556 195.091951 
L 181.209107 199.267686 
L 179.574394 199.22256 
z
" style="stroke:#000000;"/>
    <path clip-path="url(#pbe257a8a1b)" d="M 184.253614 163.49368 
L 181.274556 159.198389 
L 182.911428 159.167633 
z
" style="stroke:#000000;"/>
    <path clip-path="url(#pbe257a8a1b)" d="M 183.67391 181.49035 
L 181.485961 185.767771 
L 183.123102 185.787367 
z
" style="stroke:#000000;"/>
    <path clip-path="url(#pbe257a8a1b)" d="M 185.807149 181.762352 
L 183.67391 181.49035 
L 185.222116 186.330051 
z
" style="stroke:#000000;"/>
    <path clip-path="url(#pbe257a8a1b)" d="M 183.67391 172.8055 
L 185.807149 172.530692 
L 185.222116 167.963762 
z
" style="stroke:#000000;"/>
    <path clip-path="url(#pbe257a8a1b)" d="M 179.574394 155.070011 
L 177.712824 156.381069 
L 177.531861 151.175237 
z
" style="stroke:#000000;"/>
    <path clip-path="url(#pbe257a8a1b)" d="M 177.712824 197.913945 
L 179.574394 199.22256 
L 177.531861 203.120014 
z
" style="stroke:#000000;"/>
    <path clip-path="url(#pbe257a8a1b)" d="M 180.575287 164.325271 
L 180.947675 160.235067 
L 179.313295 160.263826 
z
" style="stroke:#000000;"/>
    <path clip-path="url(#pbe257a8a1b)" d="M 182.211271 164.304226 
L 181.485961 168.522292 
L 183.123102 168.509208 
z
" style="stroke:#000000;"/>
    <path clip-path="url(#pbe257a8a1b)" d="M 185.807149 172.530692 
L 183.67391 172.8055 
L 183.858144 177.147804 
z
" style="stroke:#000000;"/>
    <path clip-path="url(#pbe257a8a1b)" d="M 183.67391 181.49035 
L 185.807149 181.762352 
L 183.858144 177.147804 
z
" style="stroke:#000000;"/>
    <path clip-path="url(#pbe257a8a1b)" d="M 185.222116 186.330051 
L 183.123102 185.787367 
L 184.253614 190.801408 
z
" style="stroke:#000000;"/>
    <path clip-path="url(#pbe257a8a1b)" d="M 183.123102 168.509208 
L 185.222116 167.963762 
L 184.253614 163.49368 
z
" style="stroke:#000000;"/>
    <path clip-path="url(#pbe257a8a1b)" d="M 183.123102 185.787367 
L 180.575287 189.965987 
L 182.211271 189.993548 
z
" style="stroke:#000000;"/>
    <path clip-path="url(#pbe257a8a1b)" d="M 183.123102 185.787367 
L 185.222116 186.330051 
L 183.67391 181.49035 
z
" style="stroke:#000000;"/>
    <path clip-path="url(#pbe257a8a1b)" d="M 185.222116 167.963762 
L 183.123102 168.509208 
L 183.67391 172.8055 
z
" style="stroke:#000000;"/>
    <path clip-path="url(#pbe257a8a1b)" d="M 181.209107 199.267686 
L 181.274556 195.091951 
L 182.911428 195.12922 
z
" style="stroke:#000000;"/>
    <path clip-path="url(#pbe257a8a1b)" d="M 177.531861 151.175237 
L 181.209107 155.031406 
L 179.574394 155.070011 
z
" style="stroke:#000000;"/>
    <path clip-path="url(#pbe257a8a1b)" d="M 177.712824 197.913945 
L 180.947675 194.064369 
L 179.313295 194.029088 
z
" style="stroke:#000000;"/>
    <path clip-path="url(#pbe257a8a1b)" d="M 177.531861 151.175237 
L 177.712824 156.381069 
L 175.7902 152.718378 
z
" style="stroke:#000000;"/>
    <path clip-path="url(#pbe257a8a1b)" d="M 177.712824 197.913945 
L 177.531861 203.120014 
L 175.7902 201.579158 
z
" style="stroke:#000000;"/>
    <path clip-path="url(#pbe257a8a1b)" d="M 180.947675 160.235067 
L 180.575287 164.325271 
L 182.211271 164.304226 
z
" style="stroke:#000000;"/>
    <path clip-path="url(#pbe257a8a1b)" d="M 182.911428 159.167633 
L 179.574394 155.070011 
L 181.209107 155.031406 
z
" style="stroke:#000000;"/>
    <path clip-path="url(#pbe257a8a1b)" d="M 182.211271 189.993548 
L 184.253614 190.801408 
L 183.123102 185.787367 
z
" style="stroke:#000000;"/>
    <path clip-path="url(#pbe257a8a1b)" d="M 184.253614 163.49368 
L 182.211271 164.304226 
L 183.123102 168.509208 
z
" style="stroke:#000000;"/>
    <path clip-path="url(#pbe257a8a1b)" d="M 179.313295 160.263826 
L 179.345168 156.344924 
L 177.712824 156.381069 
z
" style="stroke:#000000;"/>
    <path clip-path="url(#pbe257a8a1b)" d="M 179.574394 199.22256 
L 179.163974 203.172572 
L 177.531861 203.120014 
z
" style="stroke:#000000;"/>
    <path clip-path="url(#pbe257a8a1b)" d="M 184.253614 190.801408 
L 182.211271 189.993548 
L 182.911428 195.12922 
z
" style="stroke:#000000;"/>
    <path clip-path="url(#pbe257a8a1b)" d="M 182.211271 164.304226 
L 184.253614 163.49368 
L 182.911428 159.167633 
z
" style="stroke:#000000;"/>
    <path clip-path="url(#pbe257a8a1b)" d="M 182.211271 189.993548 
L 179.313295 194.029088 
L 180.947675 194.064369 
z
" style="stroke:#000000;"/>
    <path clip-path="url(#pbe257a8a1b)" d="M 177.531861 151.175237 
L 175.7902 152.718378 
L 175.167789 147.555618 
z
" style="stroke:#000000;"/>
    <path clip-path="url(#pbe257a8a1b)" d="M 175.7902 201.579158 
L 177.531861 203.120014 
L 175.167789 206.742735 
z
" style="stroke:#000000;"/>
    <path clip-path="url(#pbe257a8a1b)" d="M 179.163974 203.172572 
L 179.574394 199.22256 
L 181.209107 199.267686 
z
" style="stroke:#000000;"/>
    <path clip-path="url(#pbe257a8a1b)" d="M 179.345168 156.344924 
L 179.313295 160.263826 
L 180.947675 160.235067 
z
" style="stroke:#000000;"/>
    <path clip-path="url(#pbe257a8a1b)" d="M 180.947675 194.064369 
L 182.911428 195.12922 
L 182.211271 189.993548 
z
" style="stroke:#000000;"/>
    <path clip-path="url(#pbe257a8a1b)" d="M 182.911428 159.167633 
L 180.947675 160.235067 
L 182.211271 164.304226 
z
" style="stroke:#000000;"/>
    <path clip-path="url(#pbe257a8a1b)" d="M 175.7902 201.579158 
L 179.345168 197.95662 
L 177.712824 197.913945 
z
" style="stroke:#000000;"/>
    <path clip-path="url(#pbe257a8a1b)" d="M 182.911428 195.12922 
L 180.947675 194.064369 
L 181.209107 199.267686 
z
" style="stroke:#000000;"/>
    <path clip-path="url(#pbe257a8a1b)" d="M 180.947675 160.235067 
L 182.911428 159.167633 
L 181.209107 155.031406 
z
" style="stroke:#000000;"/>
    <path clip-path="url(#pbe257a8a1b)" d="M 175.167789 147.555618 
L 179.163974 151.12921 
L 177.531861 151.175237 
z
" style="stroke:#000000;"/>
    <path clip-path="url(#pbe257a8a1b)" d="M 180.947675 194.064369 
L 177.712824 197.913945 
L 179.345168 197.95662 
z
" style="stroke:#000000;"/>
    <path clip-path="url(#pbe257a8a1b)" d="M 181.209107 155.031406 
L 177.531861 151.175237 
L 179.163974 151.12921 
z
" style="stroke:#000000;"/>
    <path clip-path="url(#pbe257a8a1b)" d="M 175.167789 147.555618 
L 175.7902 152.718378 
L 173.565127 149.315304 
z
" style="stroke:#000000;"/>
    <path clip-path="url(#pbe257a8a1b)" d="M 175.7902 201.579158 
L 175.167789 206.742735 
L 173.565127 204.985151 
z
" style="stroke:#000000;"/>
    <path clip-path="url(#pbe257a8a1b)" d="M 177.712824 156.381069 
L 177.420091 152.675251 
L 175.7902 152.718378 
z
" style="stroke:#000000;"/>
    <path clip-path="url(#pbe257a8a1b)" d="M 177.531861 203.120014 
L 176.796885 206.802222 
L 175.167789 206.742735 
z
" style="stroke:#000000;"/>
    <path clip-path="url(#pbe257a8a1b)" d="M 175.167789 147.555618 
L 172.89759 146.482967 
L 173.837773 145.903924 
z
" style="stroke:#000000;"/>
    <path clip-path="url(#pbe257a8a1b)" d="M 172.89759 207.818365 
L 175.167789 206.742735 
L 173.837773 208.396174 
z
" style="stroke:#000000;"/>
    <path clip-path="url(#pbe257a8a1b)" d="M 179.345168 197.95662 
L 181.209107 199.267686 
L 180.947675 194.064369 
z
" style="stroke:#000000;"/>
    <path clip-path="url(#pbe257a8a1b)" d="M 181.209107 155.031406 
L 179.345168 156.344924 
L 180.947675 160.235067 
z
" style="stroke:#000000;"/>
    <path clip-path="url(#pbe257a8a1b)" d="M 172.89759 146.482967 
L 175.167789 147.555618 
L 173.565127 149.315304 
z
" style="stroke:#000000;"/>
    <path clip-path="url(#pbe257a8a1b)" d="M 175.167789 206.742735 
L 172.89759 207.818365 
L 173.565127 204.985151 
z
" style="stroke:#000000;"/>
    <path clip-path="url(#pbe257a8a1b)" d="M 177.420091 152.675251 
L 177.712824 156.381069 
L 179.345168 156.344924 
z
" style="stroke:#000000;"/>
    <path clip-path="url(#pbe257a8a1b)" d="M 176.796885 206.802222 
L 177.531861 203.120014 
L 179.163974 203.172572 
z
" style="stroke:#000000;"/>
    <path clip-path="url(#pbe257a8a1b)" d="M 173.565127 204.985151 
L 177.420091 201.628825 
L 175.7902 201.579158 
z
" style="stroke:#000000;"/>
    <path clip-path="url(#pbe257a8a1b)" d="M 181.209107 199.267686 
L 179.345168 197.95662 
L 179.163974 203.172572 
z
" style="stroke:#000000;"/>
    <path clip-path="url(#pbe257a8a1b)" d="M 179.345168 156.344924 
L 181.209107 155.031406 
L 179.163974 151.12921 
z
" style="stroke:#000000;"/>
    <path clip-path="url(#pbe257a8a1b)" d="M 179.345168 197.95662 
L 175.7902 201.579158 
L 177.420091 201.628825 
z
" style="stroke:#000000;"/>
    <path clip-path="url(#pbe257a8a1b)" d="M 173.837773 145.903924 
L 176.796885 147.502674 
L 175.167789 147.555618 
z
" style="stroke:#000000;"/>
    <path clip-path="url(#pbe257a8a1b)" d="M 172.89759 146.482967 
L 173.565127 149.315304 
L 171.909402 147.261534 
z
" style="stroke:#000000;"/>
    <path clip-path="url(#pbe257a8a1b)" d="M 173.565127 204.985151 
L 172.89759 207.818365 
L 171.909402 207.041094 
z
" style="stroke:#000000;"/>
    <path clip-path="url(#pbe257a8a1b)" d="M 175.7902 152.718378 
L 175.192173 149.265672 
L 173.565127 149.315304 
z
" style="stroke:#000000;"/>
    <path clip-path="url(#pbe257a8a1b)" d="M 179.163974 151.12921 
L 175.167789 147.555618 
L 176.796885 147.502674 
z
" style="stroke:#000000;"/>
    <path clip-path="url(#pbe257a8a1b)" d="M 175.167789 206.742735 
L 175.465168 208.458833 
L 173.837773 208.396174 
z
" style="stroke:#000000;"/>
    <path clip-path="url(#pbe257a8a1b)" d="M 179.163974 203.172572 
L 179.345168 197.95662 
L 177.420091 201.628825 
z
" style="stroke:#000000;"/>
    <path clip-path="url(#pbe257a8a1b)" d="M 179.345168 156.344924 
L 179.163974 151.12921 
L 177.420091 152.675251 
z
" style="stroke:#000000;"/>
    <path clip-path="url(#pbe257a8a1b)" d="M 175.465168 208.458833 
L 172.89759 207.818365 
L 173.837773 208.396174 
z
" style="stroke:#000000;"/>
    <path clip-path="url(#pbe257a8a1b)" d="M 175.192173 149.265672 
L 175.7902 152.718378 
L 177.420091 152.675251 
z
" style="stroke:#000000;"/>
    <path clip-path="url(#pbe257a8a1b)" d="M 174.523781 146.427937 
L 173.837773 145.903924 
L 172.89759 146.482967 
z
" style="stroke:#000000;"/>
    <path clip-path="url(#pbe257a8a1b)" d="M 175.465168 208.458833 
L 175.167789 206.742735 
L 176.796885 206.802222 
z
" style="stroke:#000000;"/>
    <path clip-path="url(#pbe257a8a1b)" d="M 175.192173 149.265672 
L 171.909402 147.261534 
L 173.565127 149.315304 
z
" style="stroke:#000000;"/>
    <path clip-path="url(#pbe257a8a1b)" d="M 179.163974 203.172572 
L 177.420091 201.628825 
L 176.796885 206.802222 
z
" style="stroke:#000000;"/>
    <path clip-path="url(#pbe257a8a1b)" d="M 177.420091 152.675251 
L 179.163974 151.12921 
L 176.796885 147.502674 
z
" style="stroke:#000000;"/>
    <path clip-path="url(#pbe257a8a1b)" d="M 177.420091 201.628825 
L 173.565127 204.985151 
L 175.192173 205.041334 
z
" style="stroke:#000000;"/>
    <path clip-path="url(#pbe257a8a1b)" d="M 176.796885 147.502674 
L 173.837773 145.903924 
L 175.465168 145.847814 
z
" style="stroke:#000000;"/>
    <path clip-path="url(#pbe257a8a1b)" d="M 174.523781 207.879948 
L 171.909402 207.041094 
L 172.89759 207.818365 
z
" style="stroke:#000000;"/>
    <path clip-path="url(#pbe257a8a1b)" d="M 173.534327 207.101222 
L 173.565127 204.985151 
L 171.909402 207.041094 
z
" style="stroke:#000000;"/>
    <path clip-path="url(#pbe257a8a1b)" d="M 173.534327 147.207965 
L 172.89759 146.482967 
L 171.909402 147.261534 
z
" style="stroke:#000000;"/>
    <path clip-path="url(#pbe257a8a1b)" d="M 173.837773 145.903924 
L 174.523781 146.427937 
L 175.465168 145.847814 
z
" style="stroke:#000000;"/>
    <path clip-path="url(#pbe257a8a1b)" d="M 172.89759 207.818365 
L 175.465168 208.458833 
L 174.523781 207.879948 
z
" style="stroke:#000000;"/>
    <path clip-path="url(#pbe257a8a1b)" d="M 176.796885 206.802222 
L 177.420091 201.628825 
L 175.192173 205.041334 
z
" style="stroke:#000000;"/>
    <path clip-path="url(#pbe257a8a1b)" d="M 177.420091 152.675251 
L 176.796885 147.502674 
L 175.192173 149.265672 
z
" style="stroke:#000000;"/>
    <path clip-path="url(#pbe257a8a1b)" d="M 173.565127 204.985151 
L 173.534327 207.101222 
L 175.192173 205.041334 
z
" style="stroke:#000000;"/>
    <path clip-path="url(#pbe257a8a1b)" d="M 172.89759 146.482967 
L 173.534327 147.207965 
L 174.523781 146.427937 
z
" style="stroke:#000000;"/>
    <path clip-path="url(#pbe257a8a1b)" d="M 171.909402 147.261534 
L 175.192173 149.265672 
L 173.534327 147.207965 
z
" style="stroke:#000000;"/>
    <path clip-path="url(#pbe257a8a1b)" d="M 176.796885 206.802222 
L 174.523781 207.879948 
L 175.465168 208.458833 
z
" style="stroke:#000000;"/>
    <path clip-path="url(#pbe257a8a1b)" d="M 174.523781 146.427937 
L 176.796885 147.502674 
L 175.465168 145.847814 
z
" style="stroke:#000000;"/>
    <path clip-path="url(#pbe257a8a1b)" d="M 171.909402 207.041094 
L 174.523781 207.879948 
L 173.534327 207.101222 
z
" style="stroke:#000000;"/>
    <path clip-path="url(#pbe257a8a1b)" d="M 174.523781 207.879948 
L 176.796885 206.802222 
L 175.192173 205.041334 
z
" style="stroke:#000000;"/>
    <path clip-path="url(#pbe257a8a1b)" d="M 176.796885 147.502674 
L 174.523781 146.427937 
L 175.192173 149.265672 
z
" style="stroke:#000000;"/>
    <path clip-path="url(#pbe257a8a1b)" d="M 174.523781 207.879948 
L 175.192173 205.041334 
L 173.534327 207.101222 
z
" style="stroke:#000000;"/>
    <path clip-path="url(#pbe257a8a1b)" d="M 175.192173 149.265672 
L 174.523781 146.427937 
L 173.534327 147.207965 
z
" style="stroke:#000000;"/>
   </g>
  </g>
 </g>
 <defs>
  <clipPath id="pbe257a8a1b">
   <rect height="271.8" width="279" x="45" y="43.2"/>
  </clipPath>
 </defs>
</svg>
