<?xml version="1.0" encoding="utf-8" standalone="no"?>
<!DOCTYPE svg PUBLIC "-//W3C//DTD SVG 1.1//EN"
  "http://www.w3.org/Graphics/SVG/1.1/DTD/svg11.dtd">
<!-- Created with matplotlib (https://matplotlib.org/) -->
<svg height="360pt" version="1.1" viewBox="0 0 360 360" width="360pt" xmlns="http://www.w3.org/2000/svg" xmlns:xlink="http://www.w3.org/1999/xlink">
 <defs>
  <style type="text/css">
*{stroke-linecap:butt;stroke-linejoin:round;}
  </style>
 </defs>
 <g id="figure_1">
  <g id="patch_1">
   <path d="M 0 360 
L 360 360 
L 360 0 
L 0 0 
z
" style="fill:#ffffff;"/>
  </g>
  <g id="patch_2">
   <path d="M 45 315 
L 324 315 
L 324 43.2 
L 45 43.2 
z
" style="fill:#ffffff;"/>
  </g>
  <g id="axes_1">
   <g id="Poly3DCollection_1">
    <path clip-path="url(#p953f9e20cc)" d="M 198.068806 204.352276 
L 194.891417 205.067291 
L 195.282242 204.330197 
z
" style="stroke:#000000;"/>
    <path clip-path="url(#p953f9e20cc)" d="M 194.891417 205.067291 
L 194.626961 202.505073 
L 195.282242 204.330197 
z
" style="stroke:#000000;"/>
    <path clip-path="url(#p953f9e20cc)" d="M 194.626961 151.763438 
L 194.891417 149.19976 
L 195.282242 149.934695 
z
" style="stroke:#000000;"/>
    <path clip-path="url(#p953f9e20cc)" d="M 198.068806 149.915222 
L 194.626961 151.763438 
L 195.282242 149.934695 
z
" style="stroke:#000000;"/>
    <path clip-path="url(#p953f9e20cc)" d="M 197.679446 149.179712 
L 195.282242 149.934695 
L 194.891417 149.19976 
z
" style="stroke:#000000;"/>
    <path clip-path="url(#p953f9e20cc)" d="M 195.282242 149.934695 
L 197.679446 149.179712 
L 198.068806 149.915222 
z
" style="stroke:#000000;"/>
    <path clip-path="url(#p953f9e20cc)" d="M 195.282242 204.330197 
L 197.415982 202.52578 
L 198.068806 204.352276 
z
" style="stroke:#000000;"/>
    <path clip-path="url(#p953f9e20cc)" d="M 194.891417 205.067291 
L 198.068806 204.352276 
L 197.679446 205.089947 
z
" style="stroke:#000000;"/>
    <path clip-path="url(#p953f9e20cc)" d="M 197.415982 202.52578 
L 195.282242 204.330197 
L 194.626961 202.505073 
z
" style="stroke:#000000;"/>
    <path clip-path="url(#p953f9e20cc)" d="M 197.679446 205.089947 
L 194.518844 205.622531 
L 194.891417 205.067291 
z
" style="stroke:#000000;"/>
    <path clip-path="url(#p953f9e20cc)" d="M 194.626961 151.763438 
L 198.068806 149.915222 
L 197.415982 151.745342 
z
" style="stroke:#000000;"/>
    <path clip-path="url(#p953f9e20cc)" d="M 194.891417 205.067291 
L 193.990565 204.154027 
L 194.626961 202.505073 
z
" style="stroke:#000000;"/>
    <path clip-path="url(#p953f9e20cc)" d="M 193.990565 150.117998 
L 194.891417 149.19976 
L 194.626961 151.763438 
z
" style="stroke:#000000;"/>
    <path clip-path="url(#p953f9e20cc)" d="M 197.308271 148.626095 
L 194.891417 149.19976 
L 194.518844 148.646577 
z
" style="stroke:#000000;"/>
    <path clip-path="url(#p953f9e20cc)" d="M 193.990565 204.154027 
L 194.891417 205.067291 
L 194.518844 205.622531 
z
" style="stroke:#000000;"/>
    <path clip-path="url(#p953f9e20cc)" d="M 194.891417 149.19976 
L 193.990565 150.117998 
L 194.518844 148.646577 
z
" style="stroke:#000000;"/>
    <path clip-path="url(#p953f9e20cc)" d="M 197.679446 149.179712 
L 197.415982 151.745342 
L 198.068806 149.915222 
z
" style="stroke:#000000;"/>
    <path clip-path="url(#p953f9e20cc)" d="M 197.415982 202.52578 
L 197.679446 205.089947 
L 198.068806 204.352276 
z
" style="stroke:#000000;"/>
    <path clip-path="url(#p953f9e20cc)" d="M 194.891417 149.19976 
L 197.308271 148.626095 
L 197.679446 149.179712 
z
" style="stroke:#000000;"/>
    <path clip-path="url(#p953f9e20cc)" d="M 194.518844 205.622531 
L 197.679446 205.089947 
L 197.308271 205.645625 
z
" style="stroke:#000000;"/>
    <path clip-path="url(#p953f9e20cc)" d="M 193.990565 150.117998 
L 197.308271 148.626095 
L 194.518844 148.646577 
z
" style="stroke:#000000;"/>
    <path clip-path="url(#p953f9e20cc)" d="M 193.742851 199.455114 
L 197.415982 202.52578 
L 194.626961 202.505073 
z
" style="stroke:#000000;"/>
    <path clip-path="url(#p953f9e20cc)" d="M 193.990565 204.154027 
L 193.742851 199.455114 
L 194.626961 202.505073 
z
" style="stroke:#000000;"/>
    <path clip-path="url(#p953f9e20cc)" d="M 193.742851 154.818279 
L 193.990565 150.117998 
L 194.626961 151.763438 
z
" style="stroke:#000000;"/>
    <path clip-path="url(#p953f9e20cc)" d="M 197.679446 149.179712 
L 196.781972 150.098624 
L 197.415982 151.745342 
z
" style="stroke:#000000;"/>
    <path clip-path="url(#p953f9e20cc)" d="M 196.781972 204.176017 
L 197.679446 205.089947 
L 197.415982 202.52578 
z
" style="stroke:#000000;"/>
    <path clip-path="url(#p953f9e20cc)" d="M 196.781972 204.176017 
L 194.518844 205.622531 
L 197.308271 205.645625 
z
" style="stroke:#000000;"/>
    <path clip-path="url(#p953f9e20cc)" d="M 196.535187 154.802497 
L 194.626961 151.763438 
L 197.415982 151.745342 
z
" style="stroke:#000000;"/>
    <path clip-path="url(#p953f9e20cc)" d="M 194.518844 205.622531 
L 196.781972 204.176017 
L 193.990565 204.154027 
z
" style="stroke:#000000;"/>
    <path clip-path="url(#p953f9e20cc)" d="M 196.781972 150.098624 
L 197.679446 149.179712 
L 197.308271 148.626095 
z
" style="stroke:#000000;"/>
    <path clip-path="url(#p953f9e20cc)" d="M 197.679446 205.089947 
L 196.781972 204.176017 
L 197.308271 205.645625 
z
" style="stroke:#000000;"/>
    <path clip-path="url(#p953f9e20cc)" d="M 194.626961 151.763438 
L 196.535187 154.802497 
L 193.742851 154.818279 
z
" style="stroke:#000000;"/>
    <path clip-path="url(#p953f9e20cc)" d="M 197.308271 148.626095 
L 193.990565 150.117998 
L 196.781972 150.098624 
z
" style="stroke:#000000;"/>
    <path clip-path="url(#p953f9e20cc)" d="M 197.415982 202.52578 
L 193.742851 199.455114 
L 196.535187 199.473515 
z
" style="stroke:#000000;"/>
    <path clip-path="url(#p953f9e20cc)" d="M 196.781972 150.098624 
L 196.535187 154.802497 
L 197.415982 151.745342 
z
" style="stroke:#000000;"/>
    <path clip-path="url(#p953f9e20cc)" d="M 196.535187 199.473515 
L 196.781972 204.176017 
L 197.415982 202.52578 
z
" style="stroke:#000000;"/>
    <path clip-path="url(#p953f9e20cc)" d="M 193.048004 200.908126 
L 193.742851 199.455114 
L 193.990565 204.154027 
z
" style="stroke:#000000;"/>
    <path clip-path="url(#p953f9e20cc)" d="M 193.742851 154.818279 
L 193.048004 153.369104 
L 193.990565 150.117998 
z
" style="stroke:#000000;"/>
    <path clip-path="url(#p953f9e20cc)" d="M 193.048004 153.369104 
L 196.781972 150.098624 
L 193.990565 150.117998 
z
" style="stroke:#000000;"/>
    <path clip-path="url(#p953f9e20cc)" d="M 195.842942 200.927661 
L 193.990565 204.154027 
L 196.781972 204.176017 
z
" style="stroke:#000000;"/>
    <path clip-path="url(#p953f9e20cc)" d="M 192.975665 196.147454 
L 196.535187 199.473515 
L 193.742851 199.455114 
z
" style="stroke:#000000;"/>
    <path clip-path="url(#p953f9e20cc)" d="M 193.048004 200.908126 
L 192.975665 196.147454 
L 193.742851 199.455114 
z
" style="stroke:#000000;"/>
    <path clip-path="url(#p953f9e20cc)" d="M 192.975665 158.130176 
L 193.048004 153.369104 
L 193.742851 154.818279 
z
" style="stroke:#000000;"/>
    <path clip-path="url(#p953f9e20cc)" d="M 193.990565 204.154027 
L 195.842942 200.927661 
L 193.048004 200.908126 
z
" style="stroke:#000000;"/>
    <path clip-path="url(#p953f9e20cc)" d="M 195.770874 158.116914 
L 193.742851 154.818279 
L 196.535187 154.802497 
z
" style="stroke:#000000;"/>
    <path clip-path="url(#p953f9e20cc)" d="M 195.842942 153.352194 
L 196.535187 154.802497 
L 196.781972 150.098624 
z
" style="stroke:#000000;"/>
    <path clip-path="url(#p953f9e20cc)" d="M 196.535187 199.473515 
L 195.842942 200.927661 
L 196.781972 204.176017 
z
" style="stroke:#000000;"/>
    <path clip-path="url(#p953f9e20cc)" d="M 193.742851 154.818279 
L 195.770874 158.116914 
L 192.975665 158.130176 
z
" style="stroke:#000000;"/>
    <path clip-path="url(#p953f9e20cc)" d="M 196.781972 150.098624 
L 193.048004 153.369104 
L 195.842942 153.352194 
z
" style="stroke:#000000;"/>
    <path clip-path="url(#p953f9e20cc)" d="M 196.535187 199.473515 
L 192.975665 196.147454 
L 195.770874 196.163341 
z
" style="stroke:#000000;"/>
    <path clip-path="url(#p953f9e20cc)" d="M 195.842942 153.352194 
L 195.770874 158.116914 
L 196.535187 154.802497 
z
" style="stroke:#000000;"/>
    <path clip-path="url(#p953f9e20cc)" d="M 195.770874 196.163341 
L 195.842942 200.927661 
L 196.535187 199.473515 
z
" style="stroke:#000000;"/>
    <path clip-path="url(#p953f9e20cc)" d="M 192.229951 197.387153 
L 192.975665 196.147454 
L 193.048004 200.908126 
z
" style="stroke:#000000;"/>
    <path clip-path="url(#p953f9e20cc)" d="M 192.975665 158.130176 
L 192.229951 156.894595 
L 193.048004 153.369104 
z
" style="stroke:#000000;"/>
    <path clip-path="url(#p953f9e20cc)" d="M 192.229951 156.894595 
L 195.842942 153.352194 
L 193.048004 153.369104 
z
" style="stroke:#000000;"/>
    <path clip-path="url(#p953f9e20cc)" d="M 192.334715 192.619588 
L 195.770874 196.163341 
L 192.975665 196.147454 
z
" style="stroke:#000000;"/>
    <path clip-path="url(#p953f9e20cc)" d="M 192.975665 196.147454 
L 192.229951 197.387153 
L 192.334715 192.619588 
z
" style="stroke:#000000;"/>
    <path clip-path="url(#p953f9e20cc)" d="M 192.229951 156.894595 
L 192.975665 158.130176 
L 192.334715 161.661581 
z
" style="stroke:#000000;"/>
    <path clip-path="url(#p953f9e20cc)" d="M 195.027952 197.404011 
L 193.048004 200.908126 
L 195.842942 200.927661 
z
" style="stroke:#000000;"/>
    <path clip-path="url(#p953f9e20cc)" d="M 195.132324 161.651016 
L 192.975665 158.130176 
L 195.770874 158.116914 
z
" style="stroke:#000000;"/>
    <path clip-path="url(#p953f9e20cc)" d="M 192.975665 158.130176 
L 195.132324 161.651016 
L 192.334715 161.661581 
z
" style="stroke:#000000;"/>
    <path clip-path="url(#p953f9e20cc)" d="M 193.048004 200.908126 
L 195.027952 197.404011 
L 192.229951 197.387153 
z
" style="stroke:#000000;"/>
    <path clip-path="url(#p953f9e20cc)" d="M 195.027952 156.880368 
L 195.770874 158.116914 
L 195.842942 153.352194 
z
" style="stroke:#000000;"/>
    <path clip-path="url(#p953f9e20cc)" d="M 195.770874 196.163341 
L 195.027952 197.404011 
L 195.842942 200.927661 
z
" style="stroke:#000000;"/>
    <path clip-path="url(#p953f9e20cc)" d="M 195.770874 196.163341 
L 192.334715 192.619588 
L 195.132324 192.632784 
z
" style="stroke:#000000;"/>
    <path clip-path="url(#p953f9e20cc)" d="M 195.842942 153.352194 
L 192.229951 156.894595 
L 195.027952 156.880368 
z
" style="stroke:#000000;"/>
    <path clip-path="url(#p953f9e20cc)" d="M 195.770874 158.116914 
L 195.027952 156.880368 
L 195.132324 161.651016 
z
" style="stroke:#000000;"/>
    <path clip-path="url(#p953f9e20cc)" d="M 195.027952 197.404011 
L 195.770874 196.163341 
L 195.132324 192.632784 
z
" style="stroke:#000000;"/>
    <path clip-path="url(#p953f9e20cc)" d="M 191.546396 193.630679 
L 192.334715 192.619588 
L 192.229951 197.387153 
z
" style="stroke:#000000;"/>
    <path clip-path="url(#p953f9e20cc)" d="M 192.334715 161.661581 
L 191.546396 160.654843 
L 192.229951 156.894595 
z
" style="stroke:#000000;"/>
    <path clip-path="url(#p953f9e20cc)" d="M 191.827828 188.91172 
L 195.132324 192.632784 
L 192.334715 192.619588 
z
" style="stroke:#000000;"/>
    <path clip-path="url(#p953f9e20cc)" d="M 192.334715 192.619588 
L 191.546396 193.630679 
L 191.827828 188.91172 
z
" style="stroke:#000000;"/>
    <path clip-path="url(#p953f9e20cc)" d="M 191.546396 160.654843 
L 192.334715 161.661581 
L 191.827828 165.372248 
z
" style="stroke:#000000;"/>
    <path clip-path="url(#p953f9e20cc)" d="M 194.627335 165.364524 
L 192.334715 161.661581 
L 195.132324 161.651016 
z
" style="stroke:#000000;"/>
    <path clip-path="url(#p953f9e20cc)" d="M 191.546396 160.654843 
L 195.027952 156.880368 
L 192.229951 156.894595 
z
" style="stroke:#000000;"/>
    <path clip-path="url(#p953f9e20cc)" d="M 192.334715 161.661581 
L 194.627335 165.364524 
L 191.827828 165.372248 
z
" style="stroke:#000000;"/>
    <path clip-path="url(#p953f9e20cc)" d="M 194.346955 193.644669 
L 192.229951 197.387153 
L 195.027952 197.404011 
z
" style="stroke:#000000;"/>
    <path clip-path="url(#p953f9e20cc)" d="M 195.132324 192.632784 
L 191.827828 188.91172 
L 194.627335 188.922079 
z
" style="stroke:#000000;"/>
    <path clip-path="url(#p953f9e20cc)" d="M 192.229951 197.387153 
L 194.346955 193.644669 
L 191.546396 193.630679 
z
" style="stroke:#000000;"/>
    <path clip-path="url(#p953f9e20cc)" d="M 194.346955 160.643491 
L 195.132324 161.651016 
L 195.027952 156.880368 
z
" style="stroke:#000000;"/>
    <path clip-path="url(#p953f9e20cc)" d="M 195.132324 192.632784 
L 194.346955 193.644669 
L 195.027952 197.404011 
z
" style="stroke:#000000;"/>
    <path clip-path="url(#p953f9e20cc)" d="M 191.461232 185.066533 
L 194.627335 188.922079 
L 191.827828 188.91172 
z
" style="stroke:#000000;"/>
    <path clip-path="url(#p953f9e20cc)" d="M 191.005759 189.681813 
L 191.827828 188.91172 
L 191.546396 193.630679 
z
" style="stroke:#000000;"/>
    <path clip-path="url(#p953f9e20cc)" d="M 191.827828 165.372248 
L 191.005759 164.606695 
L 191.546396 160.654843 
z
" style="stroke:#000000;"/>
    <path clip-path="url(#p953f9e20cc)" d="M 195.027952 156.880368 
L 191.546396 160.654843 
L 194.346955 160.643491 
z
" style="stroke:#000000;"/>
    <path clip-path="url(#p953f9e20cc)" d="M 191.827828 188.91172 
L 191.005759 189.681813 
L 191.461232 185.066533 
z
" style="stroke:#000000;"/>
    <path clip-path="url(#p953f9e20cc)" d="M 191.005759 164.606695 
L 191.827828 165.372248 
L 191.461232 169.21946 
z
" style="stroke:#000000;"/>
    <path clip-path="url(#p953f9e20cc)" d="M 195.132324 161.651016 
L 194.346955 160.643491 
L 194.627335 165.364524 
z
" style="stroke:#000000;"/>
    <path clip-path="url(#p953f9e20cc)" d="M 194.346955 193.644669 
L 195.132324 192.632784 
L 194.627335 188.922079 
z
" style="stroke:#000000;"/>
    <path clip-path="url(#p953f9e20cc)" d="M 191.827828 165.372248 
L 194.262111 169.214688 
L 191.461232 169.21946 
z
" style="stroke:#000000;"/>
    <path clip-path="url(#p953f9e20cc)" d="M 194.262111 169.214688 
L 191.827828 165.372248 
L 194.627335 165.364524 
z
" style="stroke:#000000;"/>
    <path clip-path="url(#p953f9e20cc)" d="M 194.627335 188.922079 
L 191.461232 185.066533 
L 194.262111 185.073942 
z
" style="stroke:#000000;"/>
    <path clip-path="url(#p953f9e20cc)" d="M 191.239449 181.128627 
L 194.262111 185.073942 
L 191.461232 185.066533 
z
" style="stroke:#000000;"/>
    <path clip-path="url(#p953f9e20cc)" d="M 191.005759 164.606695 
L 194.346955 160.643491 
L 191.546396 160.654843 
z
" style="stroke:#000000;"/>
    <path clip-path="url(#p953f9e20cc)" d="M 191.461232 169.21946 
L 194.041157 173.156846 
L 191.239449 173.158591 
z
" style="stroke:#000000;"/>
    <path clip-path="url(#p953f9e20cc)" d="M 191.461232 185.066533 
L 190.614713 185.586114 
L 191.239449 181.128627 
z
" style="stroke:#000000;"/>
    <path clip-path="url(#p953f9e20cc)" d="M 190.614713 168.704553 
L 191.461232 169.21946 
L 191.239449 173.158591 
z
" style="stroke:#000000;"/>
    <path clip-path="url(#p953f9e20cc)" d="M 194.041157 173.156846 
L 191.461232 169.21946 
L 194.262111 169.214688 
z
" style="stroke:#000000;"/>
    <path clip-path="url(#p953f9e20cc)" d="M 191.165211 177.143814 
L 194.041157 181.133011 
L 191.239449 181.128627 
z
" style="stroke:#000000;"/>
    <path clip-path="url(#p953f9e20cc)" d="M 193.808342 189.692777 
L 191.546396 193.630679 
L 194.346955 193.644669 
z
" style="stroke:#000000;"/>
    <path clip-path="url(#p953f9e20cc)" d="M 191.239449 173.158591 
L 193.967197 177.145134 
L 191.165211 177.143814 
z
" style="stroke:#000000;"/>
    <path clip-path="url(#p953f9e20cc)" d="M 190.614713 185.586114 
L 191.461232 185.066533 
L 191.005759 189.681813 
z
" style="stroke:#000000;"/>
    <path clip-path="url(#p953f9e20cc)" d="M 191.461232 169.21946 
L 190.614713 168.704553 
L 191.005759 164.606695 
z
" style="stroke:#000000;"/>
    <path clip-path="url(#p953f9e20cc)" d="M 191.546396 193.630679 
L 193.808342 189.692777 
L 191.005759 189.681813 
z
" style="stroke:#000000;"/>
    <path clip-path="url(#p953f9e20cc)" d="M 194.262111 185.073942 
L 191.239449 181.128627 
L 194.041157 181.133011 
z
" style="stroke:#000000;"/>
    <path clip-path="url(#p953f9e20cc)" d="M 193.808342 164.598372 
L 194.627335 165.364524 
L 194.346955 160.643491 
z
" style="stroke:#000000;"/>
    <path clip-path="url(#p953f9e20cc)" d="M 194.627335 188.922079 
L 193.808342 189.692777 
L 194.346955 193.644669 
z
" style="stroke:#000000;"/>
    <path clip-path="url(#p953f9e20cc)" d="M 194.627335 165.364524 
L 193.808342 164.598372 
L 194.262111 169.214688 
z
" style="stroke:#000000;"/>
    <path clip-path="url(#p953f9e20cc)" d="M 193.808342 189.692777 
L 194.627335 188.922079 
L 194.262111 185.073942 
z
" style="stroke:#000000;"/>
    <path clip-path="url(#p953f9e20cc)" d="M 190.37812 172.900737 
L 191.239449 173.158591 
L 191.165211 177.143814 
z
" style="stroke:#000000;"/>
    <path clip-path="url(#p953f9e20cc)" d="M 191.239449 181.128627 
L 190.37812 181.391237 
L 191.165211 177.143814 
z
" style="stroke:#000000;"/>
    <path clip-path="url(#p953f9e20cc)" d="M 193.967197 177.145134 
L 191.239449 173.158591 
L 194.041157 173.156846 
z
" style="stroke:#000000;"/>
    <path clip-path="url(#p953f9e20cc)" d="M 194.041157 181.133011 
L 191.165211 177.143814 
L 193.967197 177.145134 
z
" style="stroke:#000000;"/>
    <path clip-path="url(#p953f9e20cc)" d="M 194.346955 160.643491 
L 191.005759 164.606695 
L 193.808342 164.598372 
z
" style="stroke:#000000;"/>
    <path clip-path="url(#p953f9e20cc)" d="M 190.37812 181.391237 
L 191.239449 181.128627 
L 190.614713 185.586114 
z
" style="stroke:#000000;"/>
    <path clip-path="url(#p953f9e20cc)" d="M 191.239449 173.158591 
L 190.37812 172.900737 
L 190.614713 168.704553 
z
" style="stroke:#000000;"/>
    <path clip-path="url(#p953f9e20cc)" d="M 190.614713 168.704553 
L 193.808342 164.598372 
L 191.005759 164.606695 
z
" style="stroke:#000000;"/>
    <path clip-path="url(#p953f9e20cc)" d="M 194.262111 169.214688 
L 193.418758 168.699379 
L 194.041157 173.156846 
z
" style="stroke:#000000;"/>
    <path clip-path="url(#p953f9e20cc)" d="M 193.418758 185.593933 
L 194.262111 185.073942 
L 194.041157 181.133011 
z
" style="stroke:#000000;"/>
    <path clip-path="url(#p953f9e20cc)" d="M 190.298928 177.146206 
L 191.165211 177.143814 
L 190.37812 181.391237 
z
" style="stroke:#000000;"/>
    <path clip-path="url(#p953f9e20cc)" d="M 191.165211 177.143814 
L 190.298928 177.146206 
L 190.37812 172.900737 
z
" style="stroke:#000000;"/>
    <path clip-path="url(#p953f9e20cc)" d="M 191.005759 189.681813 
L 193.418758 185.593933 
L 190.614713 185.586114 
z
" style="stroke:#000000;"/>
    <path clip-path="url(#p953f9e20cc)" d="M 193.418758 185.593933 
L 191.005759 189.681813 
L 193.808342 189.692777 
z
" style="stroke:#000000;"/>
    <path clip-path="url(#p953f9e20cc)" d="M 193.418758 168.699379 
L 194.262111 169.214688 
L 193.808342 164.598372 
z
" style="stroke:#000000;"/>
    <path clip-path="url(#p953f9e20cc)" d="M 194.262111 185.073942 
L 193.418758 185.593933 
L 193.808342 189.692777 
z
" style="stroke:#000000;"/>
    <path clip-path="url(#p953f9e20cc)" d="M 193.183049 181.395829 
L 194.041157 181.133011 
L 193.967197 177.145134 
z
" style="stroke:#000000;"/>
    <path clip-path="url(#p953f9e20cc)" d="M 194.041157 173.156846 
L 193.183049 172.898792 
L 193.967197 177.145134 
z
" style="stroke:#000000;"/>
    <path clip-path="url(#p953f9e20cc)" d="M 193.808342 164.598372 
L 190.614713 168.704553 
L 193.418758 168.699379 
z
" style="stroke:#000000;"/>
    <path clip-path="url(#p953f9e20cc)" d="M 190.37812 172.900737 
L 193.418758 168.699379 
L 190.614713 168.704553 
z
" style="stroke:#000000;"/>
    <path clip-path="url(#p953f9e20cc)" d="M 190.587957 151.669112 
L 189.140122 147.035754 
L 191.309357 151.189743 
z
" style="stroke:#000000;"/>
    <path clip-path="url(#p953f9e20cc)" d="M 191.309357 151.189743 
L 189.140122 159.243991 
L 190.587957 151.669112 
z
" style="stroke:#000000;"/>
    <path clip-path="url(#p953f9e20cc)" d="M 190.614713 185.586114 
L 193.183049 181.395829 
L 190.37812 181.391237 
z
" style="stroke:#000000;"/>
    <path clip-path="url(#p953f9e20cc)" d="M 191.309357 151.189743 
L 191.949678 147.01385 
L 194.110804 151.171109 
z
" style="stroke:#000000;"/>
    <path clip-path="url(#p953f9e20cc)" d="M 191.949678 163.304058 
L 191.309357 151.189743 
L 194.110804 151.171109 
z
" style="stroke:#000000;"/>
    <path clip-path="url(#p953f9e20cc)" d="M 193.183049 172.898792 
L 194.041157 173.156846 
L 193.418758 168.699379 
z
" style="stroke:#000000;"/>
    <path clip-path="url(#p953f9e20cc)" d="M 194.041157 181.133011 
L 193.183049 181.395829 
L 193.418758 185.593933 
z
" style="stroke:#000000;"/>
    <path clip-path="url(#p953f9e20cc)" d="M 193.183049 181.395829 
L 190.614713 185.586114 
L 193.418758 185.593933 
z
" style="stroke:#000000;"/>
    <path clip-path="url(#p953f9e20cc)" d="M 190.298928 177.146206 
L 193.183049 172.898792 
L 190.37812 172.900737 
z
" style="stroke:#000000;"/>
    <path clip-path="url(#p953f9e20cc)" d="M 190.37812 181.391237 
L 193.104154 177.147529 
L 190.298928 177.146206 
z
" style="stroke:#000000;"/>
    <path clip-path="url(#p953f9e20cc)" d="M 193.418758 168.699379 
L 190.37812 172.900737 
L 193.183049 172.898792 
z
" style="stroke:#000000;"/>
    <path clip-path="url(#p953f9e20cc)" d="M 193.104154 177.147529 
L 193.967197 177.145134 
L 193.183049 172.898792 
z
" style="stroke:#000000;"/>
    <path clip-path="url(#p953f9e20cc)" d="M 193.967197 177.145134 
L 193.104154 177.147529 
L 193.183049 181.395829 
z
" style="stroke:#000000;"/>
    <path clip-path="url(#p953f9e20cc)" d="M 193.104154 177.147529 
L 190.37812 181.391237 
L 193.183049 181.395829 
z
" style="stroke:#000000;"/>
    <path clip-path="url(#p953f9e20cc)" d="M 193.183049 172.898792 
L 190.298928 177.146206 
L 193.104154 177.147529 
z
" style="stroke:#000000;"/>
    <path clip-path="url(#p953f9e20cc)" d="M 193.392102 151.650826 
L 189.140122 149.07046 
L 190.587957 151.669112 
z
" style="stroke:#000000;"/>
    <path clip-path="url(#p953f9e20cc)" d="M 189.140122 159.243991 
L 193.392102 151.650826 
L 190.587957 151.669112 
z
" style="stroke:#000000;"/>
    <path clip-path="url(#p953f9e20cc)" d="M 191.949678 147.01385 
L 193.392102 151.650826 
L 194.110804 151.171109 
z
" style="stroke:#000000;"/>
    <path clip-path="url(#p953f9e20cc)" d="M 191.949678 159.231506 
L 194.110804 151.171109 
L 193.392102 151.650826 
z
" style="stroke:#000000;"/>
    <path clip-path="url(#p953f9e20cc)" d="M 189.140122 159.243991 
L 191.309357 151.189743 
L 189.140122 163.313403 
z
" style="stroke:#000000;"/>
    <path clip-path="url(#p953f9e20cc)" d="M 191.949678 147.01385 
L 191.309357 151.189743 
L 189.140122 147.035754 
z
" style="stroke:#000000;"/>
    <path clip-path="url(#p953f9e20cc)" d="M 191.309357 151.189743 
L 191.949678 163.304058 
L 189.140122 163.313403 
z
" style="stroke:#000000;"/>
    <path clip-path="url(#p953f9e20cc)" d="M 189.140122 147.035754 
L 190.587957 151.669112 
L 189.140122 149.07046 
z
" style="stroke:#000000;"/>
    <path clip-path="url(#p953f9e20cc)" d="M 191.949678 159.231506 
L 191.949678 163.304058 
L 194.110804 151.171109 
z
" style="stroke:#000000;"/>
    <path clip-path="url(#p953f9e20cc)" d="M 189.140122 149.07046 
L 193.392102 151.650826 
L 191.949678 149.050126 
z
" style="stroke:#000000;"/>
    <path clip-path="url(#p953f9e20cc)" d="M 193.392102 151.650826 
L 189.140122 159.243991 
L 191.949678 159.231506 
z
" style="stroke:#000000;"/>
    <path clip-path="url(#p953f9e20cc)" d="M 191.949678 147.01385 
L 191.949678 149.050126 
L 193.392102 151.650826 
z
" style="stroke:#000000;"/>
    <path clip-path="url(#p953f9e20cc)" d="M 187.685535 151.558315 
L 189.140122 147.035754 
L 189.140122 149.07046 
z
" style="stroke:#000000;"/>
    <path clip-path="url(#p953f9e20cc)" d="M 191.949678 149.050126 
L 187.685535 151.558315 
L 189.140122 149.07046 
z
" style="stroke:#000000;"/>
    <path clip-path="url(#p953f9e20cc)" d="M 187.685535 151.558315 
L 191.949678 159.231506 
L 189.140122 159.243991 
z
" style="stroke:#000000;"/>
    <path clip-path="url(#p953f9e20cc)" d="M 186.955694 151.019997 
L 189.140122 159.243991 
L 189.140122 163.313403 
z
" style="stroke:#000000;"/>
    <path clip-path="url(#p953f9e20cc)" d="M 191.949678 147.01385 
L 190.500523 151.539858 
L 191.949678 149.050126 
z
" style="stroke:#000000;"/>
    <path clip-path="url(#p953f9e20cc)" d="M 189.140122 147.035754 
L 189.773406 151.001101 
L 191.949678 147.01385 
z
" style="stroke:#000000;"/>
    <path clip-path="url(#p953f9e20cc)" d="M 189.773406 151.001101 
L 189.140122 163.313403 
L 191.949678 163.304058 
z
" style="stroke:#000000;"/>
    <path clip-path="url(#p953f9e20cc)" d="M 191.949678 159.231506 
L 189.773406 151.001101 
L 191.949678 163.304058 
z
" style="stroke:#000000;"/>
    <path clip-path="url(#p953f9e20cc)" d="M 189.140122 147.035754 
L 187.685535 151.558315 
L 186.955694 151.019997 
z
" style="stroke:#000000;"/>
    <path clip-path="url(#p953f9e20cc)" d="M 189.140122 159.243991 
L 186.955694 151.019997 
L 187.685535 151.558315 
z
" style="stroke:#000000;"/>
    <path clip-path="url(#p953f9e20cc)" d="M 187.685535 151.558315 
L 191.949678 149.050126 
L 190.500523 151.539858 
z
" style="stroke:#000000;"/>
    <path clip-path="url(#p953f9e20cc)" d="M 191.949678 159.231506 
L 187.685535 151.558315 
L 190.500523 151.539858 
z
" style="stroke:#000000;"/>
    <path clip-path="url(#p953f9e20cc)" d="M 187.897191 172.89067 
L 190.790895 177.15395 
L 187.976995 177.152617 
z
" style="stroke:#000000;"/>
    <path clip-path="url(#p953f9e20cc)" d="M 187.976995 177.152617 
L 190.711389 181.419633 
L 187.897191 181.415004 
z
" style="stroke:#000000;"/>
    <path clip-path="url(#p953f9e20cc)" d="M 187.101799 177.155033 
L 187.976995 177.152617 
L 187.897191 181.415004 
z
" style="stroke:#000000;"/>
    <path clip-path="url(#p953f9e20cc)" d="M 187.976995 177.152617 
L 187.101799 177.155033 
L 187.897191 172.89067 
z
" style="stroke:#000000;"/>
    <path clip-path="url(#p953f9e20cc)" d="M 187.658526 168.67262 
L 190.711389 172.888709 
L 187.897191 172.89067 
z
" style="stroke:#000000;"/>
    <path clip-path="url(#p953f9e20cc)" d="M 190.711389 181.419633 
L 187.976995 177.152617 
L 190.790895 177.15395 
z
" style="stroke:#000000;"/>
    <path clip-path="url(#p953f9e20cc)" d="M 190.790895 177.15395 
L 187.897191 172.89067 
L 190.711389 172.888709 
z
" style="stroke:#000000;"/>
    <path clip-path="url(#p953f9e20cc)" d="M 187.897191 181.415004 
L 190.473615 185.642265 
L 187.658526 185.634371 
z
" style="stroke:#000000;"/>
    <path clip-path="url(#p953f9e20cc)" d="M 187.026569 181.167262 
L 187.897191 181.415004 
L 187.658526 185.634371 
z
" style="stroke:#000000;"/>
    <path clip-path="url(#p953f9e20cc)" d="M 187.897191 172.89067 
L 187.026569 173.143219 
L 187.658526 168.67262 
z
" style="stroke:#000000;"/>
    <path clip-path="url(#p953f9e20cc)" d="M 189.773406 151.001101 
L 189.140122 147.035754 
L 186.955694 151.019997 
z
" style="stroke:#000000;"/>
    <path clip-path="url(#p953f9e20cc)" d="M 189.140122 163.313403 
L 189.773406 151.001101 
L 186.955694 151.019997 
z
" style="stroke:#000000;"/>
    <path clip-path="url(#p953f9e20cc)" d="M 190.473615 185.642265 
L 187.897191 181.415004 
L 190.711389 181.419633 
z
" style="stroke:#000000;"/>
    <path clip-path="url(#p953f9e20cc)" d="M 190.500523 151.539858 
L 191.949678 147.01385 
L 189.773406 151.001101 
z
" style="stroke:#000000;"/>
    <path clip-path="url(#p953f9e20cc)" d="M 189.773406 151.001101 
L 191.949678 159.231506 
L 190.500523 151.539858 
z
" style="stroke:#000000;"/>
    <path clip-path="url(#p953f9e20cc)" d="M 190.711389 172.888709 
L 187.658526 168.67262 
L 190.473615 168.667397 
z
" style="stroke:#000000;"/>
    <path clip-path="url(#p953f9e20cc)" d="M 187.263258 164.541584 
L 190.473615 168.667397 
L 187.658526 168.67262 
z
" style="stroke:#000000;"/>
    <path clip-path="url(#p953f9e20cc)" d="M 187.026569 173.143219 
L 187.897191 172.89067 
L 187.101799 177.155033 
z
" style="stroke:#000000;"/>
    <path clip-path="url(#p953f9e20cc)" d="M 187.897191 181.415004 
L 187.026569 181.167262 
L 187.101799 177.155033 
z
" style="stroke:#000000;"/>
    <path clip-path="url(#p953f9e20cc)" d="M 186.801609 185.138806 
L 187.658526 185.634371 
L 187.263258 189.76759 
z
" style="stroke:#000000;"/>
    <path clip-path="url(#p953f9e20cc)" d="M 187.658526 168.67262 
L 186.801609 169.172918 
L 187.263258 164.541584 
z
" style="stroke:#000000;"/>
    <path clip-path="url(#p953f9e20cc)" d="M 187.658526 185.634371 
L 190.079822 189.778687 
L 187.263258 189.76759 
z
" style="stroke:#000000;"/>
    <path clip-path="url(#p953f9e20cc)" d="M 190.079822 189.778687 
L 187.658526 185.634371 
L 190.473615 185.642265 
z
" style="stroke:#000000;"/>
    <path clip-path="url(#p953f9e20cc)" d="M 189.918965 177.15637 
L 190.790895 177.15395 
L 190.711389 172.888709 
z
" style="stroke:#000000;"/>
    <path clip-path="url(#p953f9e20cc)" d="M 190.790895 177.15395 
L 189.918965 177.15637 
L 190.711389 181.419633 
z
" style="stroke:#000000;"/>
    <path clip-path="url(#p953f9e20cc)" d="M 187.658526 185.634371 
L 186.801609 185.138806 
L 187.026569 181.167262 
z
" style="stroke:#000000;"/>
    <path clip-path="url(#p953f9e20cc)" d="M 186.801609 169.172918 
L 187.658526 168.67262 
L 187.026569 173.143219 
z
" style="stroke:#000000;"/>
    <path clip-path="url(#p953f9e20cc)" d="M 190.473615 168.667397 
L 187.263258 164.541584 
L 190.079822 164.533161 
z
" style="stroke:#000000;"/>
    <path clip-path="url(#p953f9e20cc)" d="M 189.844016 173.141451 
L 190.711389 172.888709 
L 190.473615 168.667397 
z
" style="stroke:#000000;"/>
    <path clip-path="url(#p953f9e20cc)" d="M 190.711389 181.419633 
L 189.844016 181.171706 
L 190.473615 185.642265 
z
" style="stroke:#000000;"/>
    <path clip-path="url(#p953f9e20cc)" d="M 186.71514 160.539993 
L 190.079822 164.533161 
L 187.263258 164.541584 
z
" style="stroke:#000000;"/>
    <path clip-path="url(#p953f9e20cc)" d="M 187.026569 181.167262 
L 189.918965 177.15637 
L 187.101799 177.155033 
z
" style="stroke:#000000;"/>
    <path clip-path="url(#p953f9e20cc)" d="M 187.101799 177.155033 
L 189.844016 173.141451 
L 187.026569 173.143219 
z
" style="stroke:#000000;"/>
    <path clip-path="url(#p953f9e20cc)" d="M 189.844016 181.171706 
L 190.711389 181.419633 
L 189.918965 177.15637 
z
" style="stroke:#000000;"/>
    <path clip-path="url(#p953f9e20cc)" d="M 190.711389 172.888709 
L 189.844016 173.141451 
L 189.918965 177.15637 
z
" style="stroke:#000000;"/>
    <path clip-path="url(#p953f9e20cc)" d="M 187.263258 189.76759 
L 186.429054 189.028929 
L 186.801609 185.138806 
z
" style="stroke:#000000;"/>
    <path clip-path="url(#p953f9e20cc)" d="M 186.429054 165.284852 
L 187.263258 164.541584 
L 186.801609 169.172918 
z
" style="stroke:#000000;"/>
    <path clip-path="url(#p953f9e20cc)" d="M 186.429054 189.028929 
L 187.263258 189.76759 
L 186.71514 193.772208 
z
" style="stroke:#000000;"/>
    <path clip-path="url(#p953f9e20cc)" d="M 187.263258 164.541584 
L 186.429054 165.284852 
L 186.71514 160.539993 
z
" style="stroke:#000000;"/>
    <path clip-path="url(#p953f9e20cc)" d="M 186.801609 185.138806 
L 189.844016 181.171706 
L 187.026569 181.167262 
z
" style="stroke:#000000;"/>
    <path clip-path="url(#p953f9e20cc)" d="M 189.533749 193.786416 
L 187.263258 189.76759 
L 190.079822 189.778687 
z
" style="stroke:#000000;"/>
    <path clip-path="url(#p953f9e20cc)" d="M 189.619895 169.168075 
L 190.473615 168.667397 
L 190.079822 164.533161 
z
" style="stroke:#000000;"/>
    <path clip-path="url(#p953f9e20cc)" d="M 190.473615 185.642265 
L 189.619895 185.146326 
L 190.079822 189.778687 
z
" style="stroke:#000000;"/>
    <path clip-path="url(#p953f9e20cc)" d="M 189.844016 173.141451 
L 187.101799 177.155033 
L 189.918965 177.15637 
z
" style="stroke:#000000;"/>
    <path clip-path="url(#p953f9e20cc)" d="M 187.263258 189.76759 
L 189.533749 193.786416 
L 186.71514 193.772208 
z
" style="stroke:#000000;"/>
    <path clip-path="url(#p953f9e20cc)" d="M 189.918965 177.15637 
L 187.026569 181.167262 
L 189.844016 181.171706 
z
" style="stroke:#000000;"/>
    <path clip-path="url(#p953f9e20cc)" d="M 187.026569 173.143219 
L 189.619895 169.168075 
L 186.801609 169.172918 
z
" style="stroke:#000000;"/>
    <path clip-path="url(#p953f9e20cc)" d="M 190.473615 168.667397 
L 189.619895 169.168075 
L 189.844016 173.141451 
z
" style="stroke:#000000;"/>
    <path clip-path="url(#p953f9e20cc)" d="M 189.619895 185.146326 
L 190.473615 185.642265 
L 189.844016 181.171706 
z
" style="stroke:#000000;"/>
    <path clip-path="url(#p953f9e20cc)" d="M 189.619895 169.168075 
L 187.026569 173.143219 
L 189.844016 173.141451 
z
" style="stroke:#000000;"/>
    <path clip-path="url(#p953f9e20cc)" d="M 190.079822 164.533161 
L 186.71514 160.539993 
L 189.533749 160.528463 
z
" style="stroke:#000000;"/>
    <path clip-path="url(#p953f9e20cc)" d="M 189.844016 181.171706 
L 186.801609 185.138806 
L 189.619895 185.146326 
z
" style="stroke:#000000;"/>
    <path clip-path="url(#p953f9e20cc)" d="M 186.429054 189.028929 
L 189.619895 185.146326 
L 186.801609 185.138806 
z
" style="stroke:#000000;"/>
    <path clip-path="url(#p953f9e20cc)" d="M 186.801609 169.172918 
L 189.248729 165.276993 
L 186.429054 165.284852 
z
" style="stroke:#000000;"/>
    <path clip-path="url(#p953f9e20cc)" d="M 189.248729 165.276993 
L 186.801609 169.172918 
L 189.619895 169.168075 
z
" style="stroke:#000000;"/>
    <path clip-path="url(#p953f9e20cc)" d="M 186.71514 193.772208 
L 185.912471 192.7975 
L 186.429054 189.028929 
z
" style="stroke:#000000;"/>
    <path clip-path="url(#p953f9e20cc)" d="M 185.912471 161.519133 
L 186.71514 160.539993 
L 186.429054 165.284852 
z
" style="stroke:#000000;"/>
    <path clip-path="url(#p953f9e20cc)" d="M 190.079822 164.533161 
L 189.248729 165.276993 
L 189.619895 169.168075 
z
" style="stroke:#000000;"/>
    <path clip-path="url(#p953f9e20cc)" d="M 189.248729 189.039468 
L 190.079822 189.778687 
L 189.619895 185.146326 
z
" style="stroke:#000000;"/>
    <path clip-path="url(#p953f9e20cc)" d="M 186.019378 156.709169 
L 189.533749 160.528463 
L 186.71514 160.539993 
z
" style="stroke:#000000;"/>
    <path clip-path="url(#p953f9e20cc)" d="M 189.248729 165.276993 
L 190.079822 164.533161 
L 189.533749 160.528463 
z
" style="stroke:#000000;"/>
    <path clip-path="url(#p953f9e20cc)" d="M 190.079822 189.778687 
L 189.248729 189.039468 
L 189.533749 193.786416 
z
" style="stroke:#000000;"/>
    <path clip-path="url(#p953f9e20cc)" d="M 189.619895 185.146326 
L 186.429054 189.028929 
L 189.248729 189.039468 
z
" style="stroke:#000000;"/>
    <path clip-path="url(#p953f9e20cc)" d="M 185.912471 192.7975 
L 186.71514 193.772208 
L 186.019378 197.606874 
z
" style="stroke:#000000;"/>
    <path clip-path="url(#p953f9e20cc)" d="M 186.71514 160.539993 
L 185.912471 161.519133 
L 186.019378 156.709169 
z
" style="stroke:#000000;"/>
    <path clip-path="url(#p953f9e20cc)" d="M 188.840581 197.624071 
L 186.71514 193.772208 
L 189.533749 193.786416 
z
" style="stroke:#000000;"/>
    <path clip-path="url(#p953f9e20cc)" d="M 185.912471 192.7975 
L 189.248729 189.039468 
L 186.429054 189.028929 
z
" style="stroke:#000000;"/>
    <path clip-path="url(#p953f9e20cc)" d="M 186.71514 193.772208 
L 188.840581 197.624071 
L 186.019378 197.606874 
z
" style="stroke:#000000;"/>
    <path clip-path="url(#p953f9e20cc)" d="M 188.734072 161.508348 
L 186.429054 165.284852 
L 189.248729 165.276993 
z
" style="stroke:#000000;"/>
    <path clip-path="url(#p953f9e20cc)" d="M 189.533749 160.528463 
L 186.019378 156.709169 
L 188.840581 156.694656 
z
" style="stroke:#000000;"/>
    <path clip-path="url(#p953f9e20cc)" d="M 186.429054 165.284852 
L 188.734072 161.508348 
L 185.912471 161.519133 
z
" style="stroke:#000000;"/>
    <path clip-path="url(#p953f9e20cc)" d="M 189.533749 160.528463 
L 188.734072 161.508348 
L 189.248729 165.276993 
z
" style="stroke:#000000;"/>
    <path clip-path="url(#p953f9e20cc)" d="M 188.734072 192.810971 
L 189.533749 193.786416 
L 189.248729 189.039468 
z
" style="stroke:#000000;"/>
    <path clip-path="url(#p953f9e20cc)" d="M 189.248729 189.039468 
L 185.912471 192.7975 
L 188.734072 192.810971 
z
" style="stroke:#000000;"/>
    <path clip-path="url(#p953f9e20cc)" d="M 188.734072 161.508348 
L 189.533749 160.528463 
L 188.840581 156.694656 
z
" style="stroke:#000000;"/>
    <path clip-path="url(#p953f9e20cc)" d="M 189.533749 193.786416 
L 188.734072 192.810971 
L 188.840581 197.624071 
z
" style="stroke:#000000;"/>
    <path clip-path="url(#p953f9e20cc)" d="M 186.019378 197.606874 
L 185.256826 196.405429 
L 185.912471 192.7975 
z
" style="stroke:#000000;"/>
    <path clip-path="url(#p953f9e20cc)" d="M 185.256826 157.914826 
L 186.019378 156.709169 
L 185.912471 161.519133 
z
" style="stroke:#000000;"/>
    <path clip-path="url(#p953f9e20cc)" d="M 185.182657 153.089232 
L 188.840581 156.694656 
L 186.019378 156.709169 
z
" style="stroke:#000000;"/>
    <path clip-path="url(#p953f9e20cc)" d="M 185.256826 196.405429 
L 188.734072 192.810971 
L 185.912471 192.7975 
z
" style="stroke:#000000;"/>
    <path clip-path="url(#p953f9e20cc)" d="M 185.182657 201.231432 
L 185.256826 196.405429 
L 186.019378 197.606874 
z
" style="stroke:#000000;"/>
    <path clip-path="url(#p953f9e20cc)" d="M 185.256826 157.914826 
L 185.182657 153.089232 
L 186.019378 156.709169 
z
" style="stroke:#000000;"/>
    <path clip-path="url(#p953f9e20cc)" d="M 188.006978 201.251466 
L 186.019378 197.606874 
L 188.840581 197.624071 
z
" style="stroke:#000000;"/>
    <path clip-path="url(#p953f9e20cc)" d="M 188.080871 157.901231 
L 185.912471 161.519133 
L 188.734072 161.508348 
z
" style="stroke:#000000;"/>
    <path clip-path="url(#p953f9e20cc)" d="M 185.912471 161.519133 
L 188.080871 157.901231 
L 185.256826 157.914826 
z
" style="stroke:#000000;"/>
    <path clip-path="url(#p953f9e20cc)" d="M 186.019378 197.606874 
L 188.006978 201.251466 
L 185.182657 201.231432 
z
" style="stroke:#000000;"/>
    <path clip-path="url(#p953f9e20cc)" d="M 188.840581 156.694656 
L 188.080871 157.901231 
L 188.734072 161.508348 
z
" style="stroke:#000000;"/>
    <path clip-path="url(#p953f9e20cc)" d="M 188.080871 196.421714 
L 188.840581 197.624071 
L 188.734072 192.810971 
z
" style="stroke:#000000;"/>
    <path clip-path="url(#p953f9e20cc)" d="M 188.734072 192.810971 
L 185.256826 196.405429 
L 188.080871 196.421714 
z
" style="stroke:#000000;"/>
    <path clip-path="url(#p953f9e20cc)" d="M 188.840581 156.694656 
L 185.182657 153.089232 
L 188.006978 153.071889 
z
" style="stroke:#000000;"/>
    <path clip-path="url(#p953f9e20cc)" d="M 188.006978 153.071889 
L 188.080871 157.901231 
L 188.840581 156.694656 
z
" style="stroke:#000000;"/>
    <path clip-path="url(#p953f9e20cc)" d="M 188.080871 196.421714 
L 188.006978 201.251466 
L 188.840581 197.624071 
z
" style="stroke:#000000;"/>
    <path clip-path="url(#p953f9e20cc)" d="M 185.182657 201.231432 
L 184.468453 199.815004 
L 185.256826 196.405429 
z
" style="stroke:#000000;"/>
    <path clip-path="url(#p953f9e20cc)" d="M 184.468453 154.509604 
L 185.182657 153.089232 
L 185.256826 157.914826 
z
" style="stroke:#000000;"/>
    <path clip-path="url(#p953f9e20cc)" d="M 184.468453 199.815004 
L 188.080871 196.421714 
L 185.256826 196.405429 
z
" style="stroke:#000000;"/>
    <path clip-path="url(#p953f9e20cc)" d="M 184.213057 149.718199 
L 188.006978 153.071889 
L 185.182657 153.089232 
z
" style="stroke:#000000;"/>
    <path clip-path="url(#p953f9e20cc)" d="M 187.295436 154.493345 
L 185.256826 157.914826 
L 188.080871 157.901231 
z
" style="stroke:#000000;"/>
    <path clip-path="url(#p953f9e20cc)" d="M 184.213057 204.607819 
L 184.468453 199.815004 
L 185.182657 201.231432 
z
" style="stroke:#000000;"/>
    <path clip-path="url(#p953f9e20cc)" d="M 184.468453 154.509604 
L 184.213057 149.718199 
L 185.182657 153.089232 
z
" style="stroke:#000000;"/>
    <path clip-path="url(#p953f9e20cc)" d="M 185.256826 157.914826 
L 187.295436 154.493345 
L 184.468453 154.509604 
z
" style="stroke:#000000;"/>
    <path clip-path="url(#p953f9e20cc)" d="M 187.040991 204.63051 
L 185.182657 201.231432 
L 188.006978 201.251466 
z
" style="stroke:#000000;"/>
    <path clip-path="url(#p953f9e20cc)" d="M 188.006978 153.071889 
L 187.295436 154.493345 
L 188.080871 157.901231 
z
" style="stroke:#000000;"/>
    <path clip-path="url(#p953f9e20cc)" d="M 187.295436 199.83396 
L 188.006978 201.251466 
L 188.080871 196.421714 
z
" style="stroke:#000000;"/>
    <path clip-path="url(#p953f9e20cc)" d="M 188.080871 196.421714 
L 184.468453 199.815004 
L 187.295436 199.83396 
z
" style="stroke:#000000;"/>
    <path clip-path="url(#p953f9e20cc)" d="M 185.182657 201.231432 
L 187.040991 204.63051 
L 184.213057 204.607819 
z
" style="stroke:#000000;"/>
    <path clip-path="url(#p953f9e20cc)" d="M 188.006978 153.071889 
L 184.213057 149.718199 
L 187.040991 149.698208 
z
" style="stroke:#000000;"/>
    <path clip-path="url(#p953f9e20cc)" d="M 187.040991 149.698208 
L 187.295436 154.493345 
L 188.006978 153.071889 
z
" style="stroke:#000000;"/>
    <path clip-path="url(#p953f9e20cc)" d="M 187.295436 199.83396 
L 187.040991 204.63051 
L 188.006978 201.251466 
z
" style="stroke:#000000;"/>
    <path clip-path="url(#p953f9e20cc)" d="M 184.213057 204.607819 
L 183.555033 202.989944 
L 184.468453 199.815004 
z
" style="stroke:#000000;"/>
    <path clip-path="url(#p953f9e20cc)" d="M 183.555033 151.339708 
L 184.213057 149.718199 
L 184.468453 154.509604 
z
" style="stroke:#000000;"/>
    <path clip-path="url(#p953f9e20cc)" d="M 183.555033 202.989944 
L 187.295436 199.83396 
L 184.468453 199.815004 
z
" style="stroke:#000000;"/>
    <path clip-path="url(#p953f9e20cc)" d="M 183.667017 148.176651 
L 187.040991 149.698208 
L 184.213057 149.718199 
z
" style="stroke:#000000;"/>
    <path clip-path="url(#p953f9e20cc)" d="M 186.385416 151.320958 
L 184.468453 154.509604 
L 187.295436 154.493345 
z
" style="stroke:#000000;"/>
    <path clip-path="url(#p953f9e20cc)" d="M 183.280785 205.624104 
L 184.213057 204.607819 
L 183.667017 206.152383 
z
" style="stroke:#000000;"/>
    <path clip-path="url(#p953f9e20cc)" d="M 184.213057 149.718199 
L 183.280785 148.707063 
L 183.667017 148.176651 
z
" style="stroke:#000000;"/>
    <path clip-path="url(#p953f9e20cc)" d="M 186.496983 206.176295 
L 184.213057 204.607819 
L 187.040991 204.63051 
z
" style="stroke:#000000;"/>
    <path clip-path="url(#p953f9e20cc)" d="M 184.468453 154.509604 
L 186.385416 151.320958 
L 183.555033 151.339708 
z
" style="stroke:#000000;"/>
    <path clip-path="url(#p953f9e20cc)" d="M 184.213057 204.607819 
L 186.496983 206.176295 
L 183.667017 206.152383 
z
" style="stroke:#000000;"/>
    <path clip-path="url(#p953f9e20cc)" d="M 184.213057 204.607819 
L 183.280785 205.624104 
L 183.555033 202.989944 
z
" style="stroke:#000000;"/>
    <path clip-path="url(#p953f9e20cc)" d="M 183.280785 148.707063 
L 184.213057 149.718199 
L 183.555033 151.339708 
z
" style="stroke:#000000;"/>
    <path clip-path="url(#p953f9e20cc)" d="M 187.040991 149.698208 
L 186.385416 151.320958 
L 187.295436 154.493345 
z
" style="stroke:#000000;"/>
    <path clip-path="url(#p953f9e20cc)" d="M 186.385416 203.011399 
L 187.040991 204.63051 
L 187.295436 199.83396 
z
" style="stroke:#000000;"/>
    <path clip-path="url(#p953f9e20cc)" d="M 187.295436 199.83396 
L 183.555033 202.989944 
L 186.385416 203.011399 
z
" style="stroke:#000000;"/>
    <path clip-path="url(#p953f9e20cc)" d="M 187.040991 149.698208 
L 183.667017 148.176651 
L 186.496983 148.155443 
z
" style="stroke:#000000;"/>
    <path clip-path="url(#p953f9e20cc)" d="M 186.496983 206.176295 
L 183.280785 205.624104 
L 183.667017 206.152383 
z
" style="stroke:#000000;"/>
    <path clip-path="url(#p953f9e20cc)" d="M 186.112189 148.686255 
L 183.667017 148.176651 
L 183.280785 148.707063 
z
" style="stroke:#000000;"/>
    <path clip-path="url(#p953f9e20cc)" d="M 183.555033 202.989944 
L 183.280785 205.624104 
L 182.87462 204.910801 
z
" style="stroke:#000000;"/>
    <path clip-path="url(#p953f9e20cc)" d="M 183.280785 148.707063 
L 183.555033 151.339708 
L 182.87462 149.422608 
z
" style="stroke:#000000;"/>
    <path clip-path="url(#p953f9e20cc)" d="M 186.112189 148.686255 
L 187.040991 149.698208 
L 186.496983 148.155443 
z
" style="stroke:#000000;"/>
    <path clip-path="url(#p953f9e20cc)" d="M 187.040991 204.63051 
L 186.112189 205.647619 
L 186.496983 206.176295 
z
" style="stroke:#000000;"/>
    <path clip-path="url(#p953f9e20cc)" d="M 183.667017 148.176651 
L 186.112189 148.686255 
L 186.496983 148.155443 
z
" style="stroke:#000000;"/>
    <path clip-path="url(#p953f9e20cc)" d="M 187.040991 149.698208 
L 186.112189 148.686255 
L 186.385416 151.320958 
z
" style="stroke:#000000;"/>
    <path clip-path="url(#p953f9e20cc)" d="M 186.112189 205.647619 
L 187.040991 204.63051 
L 186.385416 203.011399 
z
" style="stroke:#000000;"/>
    <path clip-path="url(#p953f9e20cc)" d="M 186.385416 151.320958 
L 182.87462 149.422608 
L 183.555033 151.339708 
z
" style="stroke:#000000;"/>
    <path clip-path="url(#p953f9e20cc)" d="M 183.280785 205.624104 
L 186.496983 206.176295 
L 186.112189 205.647619 
z
" style="stroke:#000000;"/>
    <path clip-path="url(#p953f9e20cc)" d="M 183.555033 202.989944 
L 185.707535 204.933776 
L 186.385416 203.011399 
z
" style="stroke:#000000;"/>
    <path clip-path="url(#p953f9e20cc)" d="M 186.112189 205.647619 
L 182.87462 204.910801 
L 183.280785 205.624104 
z
" style="stroke:#000000;"/>
    <path clip-path="url(#p953f9e20cc)" d="M 185.707535 204.933776 
L 183.555033 202.989944 
L 182.87462 204.910801 
z
" style="stroke:#000000;"/>
    <path clip-path="url(#p953f9e20cc)" d="M 185.707535 149.402345 
L 183.280785 148.707063 
L 182.87462 149.422608 
z
" style="stroke:#000000;"/>
    <path clip-path="url(#p953f9e20cc)" d="M 183.280785 148.707063 
L 185.707535 149.402345 
L 186.112189 148.686255 
z
" style="stroke:#000000;"/>
    <path clip-path="url(#p953f9e20cc)" d="M 182.87462 149.422608 
L 186.385416 151.320958 
L 185.707535 149.402345 
z
" style="stroke:#000000;"/>
    <path clip-path="url(#p953f9e20cc)" d="M 186.385416 151.320958 
L 186.112189 148.686255 
L 185.707535 149.402345 
z
" style="stroke:#000000;"/>
    <path clip-path="url(#p953f9e20cc)" d="M 186.112189 205.647619 
L 186.385416 203.011399 
L 185.707535 204.933776 
z
" style="stroke:#000000;"/>
    <path clip-path="url(#p953f9e20cc)" d="M 182.87462 204.910801 
L 186.112189 205.647619 
L 185.707535 204.933776 
z
" style="stroke:#000000;"/>
   </g>
  </g>
 </g>
 <defs>
  <clipPath id="p953f9e20cc">
   <rect height="271.8" width="279" x="45" y="43.2"/>
  </clipPath>
 </defs>
</svg>
