<?xml version="1.0" encoding="utf-8" standalone="no"?>
<!DOCTYPE svg PUBLIC "-//W3C//DTD SVG 1.1//EN"
  "http://www.w3.org/Graphics/SVG/1.1/DTD/svg11.dtd">
<!-- Created with matplotlib (https://matplotlib.org/) -->
<svg height="360pt" version="1.1" viewBox="0 0 360 360" width="360pt" xmlns="http://www.w3.org/2000/svg" xmlns:xlink="http://www.w3.org/1999/xlink">
 <defs>
  <style type="text/css">
*{stroke-linecap:butt;stroke-linejoin:round;}
  </style>
 </defs>
 <g id="figure_1">
  <g id="patch_1">
   <path d="M 45 315 
L 324 315 
L 324 43.2 
L 45 43.2 
z
" style="fill:#ffffff;"/>
  </g>
  <g id="axes_1">
   <g id="Poly3DCollection_1">
    <path clip-path="url(#pa71f07653a)" d="M 199.698517 202.890043 
L 199.143513 200.522952 
L 200.519164 202.219015 
z
" style="stroke:#000000;"/>
    <path clip-path="url(#pa71f07653a)" d="M 199.143513 153.760966 
L 199.698517 151.393143 
L 200.519164 152.06309 
z
" style="stroke:#000000;"/>
    <path clip-path="url(#pa71f07653a)" d="M 199.698517 202.890043 
L 197.808907 202.029001 
L 199.143513 200.522952 
z
" style="stroke:#000000;"/>
    <path clip-path="url(#pa71f07653a)" d="M 197.808907 152.256677 
L 199.698517 151.393143 
L 199.143513 153.760966 
z
" style="stroke:#000000;"/>
    <path clip-path="url(#pa71f07653a)" d="M 201.927722 202.261755 
L 199.698517 202.890043 
L 200.519164 202.219015 
z
" style="stroke:#000000;"/>
    <path clip-path="url(#pa71f07653a)" d="M 197.808907 202.029001 
L 199.698517 202.890043 
L 198.916681 203.393483 
z
" style="stroke:#000000;"/>
    <path clip-path="url(#pa71f07653a)" d="M 199.698517 151.393143 
L 197.808907 152.256677 
L 198.916681 150.890735 
z
" style="stroke:#000000;"/>
    <path clip-path="url(#pa71f07653a)" d="M 201.927722 152.025818 
L 199.143513 153.760966 
L 200.519164 152.06309 
z
" style="stroke:#000000;"/>
    <path clip-path="url(#pa71f07653a)" d="M 201.106211 151.35479 
L 200.519164 152.06309 
L 199.698517 151.393143 
z
" style="stroke:#000000;"/>
    <path clip-path="url(#pa71f07653a)" d="M 200.550623 200.563009 
L 200.519164 202.219015 
L 199.143513 200.522952 
z
" style="stroke:#000000;"/>
    <path clip-path="url(#pa71f07653a)" d="M 197.808907 202.029001 
L 197.28979 197.696442 
L 199.143513 200.522952 
z
" style="stroke:#000000;"/>
    <path clip-path="url(#pa71f07653a)" d="M 197.28979 156.58992 
L 197.808907 152.256677 
L 199.143513 153.760966 
z
" style="stroke:#000000;"/>
    <path clip-path="url(#pa71f07653a)" d="M 201.106211 202.933868 
L 198.916681 203.393483 
L 199.698517 202.890043 
z
" style="stroke:#000000;"/>
    <path clip-path="url(#pa71f07653a)" d="M 200.323551 150.851569 
L 199.698517 151.393143 
L 198.916681 150.890735 
z
" style="stroke:#000000;"/>
    <path clip-path="url(#pa71f07653a)" d="M 200.519164 152.06309 
L 201.106211 151.35479 
L 201.927722 152.025818 
z
" style="stroke:#000000;"/>
    <path clip-path="url(#pa71f07653a)" d="M 200.519164 202.219015 
L 200.550623 200.563009 
L 201.927722 202.261755 
z
" style="stroke:#000000;"/>
    <path clip-path="url(#pa71f07653a)" d="M 199.698517 202.890043 
L 201.927722 202.261755 
L 201.106211 202.933868 
z
" style="stroke:#000000;"/>
    <path clip-path="url(#pa71f07653a)" d="M 197.808907 152.256677 
L 200.323551 150.851569 
L 198.916681 150.890735 
z
" style="stroke:#000000;"/>
    <path clip-path="url(#pa71f07653a)" d="M 197.28979 197.696442 
L 200.550623 200.563009 
L 199.143513 200.522952 
z
" style="stroke:#000000;"/>
    <path clip-path="url(#pa71f07653a)" d="M 195.834757 199.021414 
L 197.28979 197.696442 
L 197.808907 202.029001 
z
" style="stroke:#000000;"/>
    <path clip-path="url(#pa71f07653a)" d="M 197.28979 156.58992 
L 195.834757 155.266867 
L 197.808907 152.256677 
z
" style="stroke:#000000;"/>
    <path clip-path="url(#pa71f07653a)" d="M 199.143513 153.760966 
L 201.927722 152.025818 
L 200.550623 153.726384 
z
" style="stroke:#000000;"/>
    <path clip-path="url(#pa71f07653a)" d="M 198.916681 203.393483 
L 199.214608 202.071483 
L 197.808907 202.029001 
z
" style="stroke:#000000;"/>
    <path clip-path="url(#pa71f07653a)" d="M 199.698517 151.393143 
L 200.323551 150.851569 
L 201.106211 151.35479 
z
" style="stroke:#000000;"/>
    <path clip-path="url(#pa71f07653a)" d="M 199.143513 153.760966 
L 198.694943 156.559832 
L 197.28979 156.58992 
z
" style="stroke:#000000;"/>
    <path clip-path="url(#pa71f07653a)" d="M 198.916681 203.393483 
L 201.106211 202.933868 
L 200.323551 203.438124 
z
" style="stroke:#000000;"/>
    <path clip-path="url(#pa71f07653a)" d="M 195.834757 199.021414 
L 195.683371 194.638619 
L 197.28979 197.696442 
z
" style="stroke:#000000;"/>
    <path clip-path="url(#pa71f07653a)" d="M 195.683371 159.649861 
L 195.834757 155.266867 
L 197.28979 156.58992 
z
" style="stroke:#000000;"/>
    <path clip-path="url(#pa71f07653a)" d="M 199.214608 202.071483 
L 198.916681 203.393483 
L 200.323551 203.438124 
z
" style="stroke:#000000;"/>
    <path clip-path="url(#pa71f07653a)" d="M 195.834757 155.266867 
L 199.214608 152.219675 
L 197.808907 152.256677 
z
" style="stroke:#000000;"/>
    <path clip-path="url(#pa71f07653a)" d="M 198.694943 156.559832 
L 199.143513 153.760966 
L 200.550623 153.726384 
z
" style="stroke:#000000;"/>
    <path clip-path="url(#pa71f07653a)" d="M 201.106211 151.35479 
L 200.550623 153.726384 
L 201.927722 152.025818 
z
" style="stroke:#000000;"/>
    <path clip-path="url(#pa71f07653a)" d="M 200.550623 200.563009 
L 201.106211 202.933868 
L 201.927722 202.261755 
z
" style="stroke:#000000;"/>
    <path clip-path="url(#pa71f07653a)" d="M 200.323551 150.851569 
L 197.808907 152.256677 
L 199.214608 152.219675 
z
" style="stroke:#000000;"/>
    <path clip-path="url(#pa71f07653a)" d="M 195.683371 194.638619 
L 198.694943 197.732012 
L 197.28979 197.696442 
z
" style="stroke:#000000;"/>
    <path clip-path="url(#pa71f07653a)" d="M 194.123825 195.767453 
L 195.683371 194.638619 
L 195.834757 199.021414 
z
" style="stroke:#000000;"/>
    <path clip-path="url(#pa71f07653a)" d="M 195.683371 159.649861 
L 194.123825 158.523084 
L 195.834757 155.266867 
z
" style="stroke:#000000;"/>
    <path clip-path="url(#pa71f07653a)" d="M 200.550623 200.563009 
L 197.28979 197.696442 
L 198.694943 197.732012 
z
" style="stroke:#000000;"/>
    <path clip-path="url(#pa71f07653a)" d="M 197.808907 202.029001 
L 197.238371 199.059121 
L 195.834757 199.021414 
z
" style="stroke:#000000;"/>
    <path clip-path="url(#pa71f07653a)" d="M 197.28979 156.58992 
L 197.086825 159.624646 
L 195.683371 159.649861 
z
" style="stroke:#000000;"/>
    <path clip-path="url(#pa71f07653a)" d="M 201.106211 151.35479 
L 199.214608 152.219675 
L 200.550623 153.726384 
z
" style="stroke:#000000;"/>
    <path clip-path="url(#pa71f07653a)" d="M 199.214608 202.071483 
L 201.106211 202.933868 
L 200.550623 200.563009 
z
" style="stroke:#000000;"/>
    <path clip-path="url(#pa71f07653a)" d="M 195.683371 194.638619 
L 194.123825 195.767453 
L 194.34281 191.383656 
z
" style="stroke:#000000;"/>
    <path clip-path="url(#pa71f07653a)" d="M 194.123825 158.523084 
L 195.683371 159.649861 
L 194.34281 162.906592 
z
" style="stroke:#000000;"/>
    <path clip-path="url(#pa71f07653a)" d="M 199.214608 152.219675 
L 201.106211 151.35479 
L 200.323551 150.851569 
z
" style="stroke:#000000;"/>
    <path clip-path="url(#pa71f07653a)" d="M 201.106211 202.933868 
L 199.214608 202.071483 
L 200.323551 203.438124 
z
" style="stroke:#000000;"/>
    <path clip-path="url(#pa71f07653a)" d="M 197.238371 199.059121 
L 197.808907 202.029001 
L 199.214608 202.071483 
z
" style="stroke:#000000;"/>
    <path clip-path="url(#pa71f07653a)" d="M 197.086825 159.624646 
L 197.28979 156.58992 
L 198.694943 156.559832 
z
" style="stroke:#000000;"/>
    <path clip-path="url(#pa71f07653a)" d="M 199.214608 152.219675 
L 198.694943 156.559832 
L 200.550623 153.726384 
z
" style="stroke:#000000;"/>
    <path clip-path="url(#pa71f07653a)" d="M 198.694943 197.732012 
L 199.214608 202.071483 
L 200.550623 200.563009 
z
" style="stroke:#000000;"/>
    <path clip-path="url(#pa71f07653a)" d="M 194.123825 158.523084 
L 197.238371 155.234648 
L 195.834757 155.266867 
z
" style="stroke:#000000;"/>
    <path clip-path="url(#pa71f07653a)" d="M 194.34281 191.383656 
L 197.086825 194.669324 
L 195.683371 194.638619 
z
" style="stroke:#000000;"/>
    <path clip-path="url(#pa71f07653a)" d="M 192.695928 192.303135 
L 194.34281 191.383656 
L 194.123825 195.767453 
z
" style="stroke:#000000;"/>
    <path clip-path="url(#pa71f07653a)" d="M 194.34281 162.906592 
L 192.695928 161.989285 
L 194.123825 158.523084 
z
" style="stroke:#000000;"/>
    <path clip-path="url(#pa71f07653a)" d="M 199.214608 152.219675 
L 195.834757 155.266867 
L 197.238371 155.234648 
z
" style="stroke:#000000;"/>
    <path clip-path="url(#pa71f07653a)" d="M 198.694943 197.732012 
L 195.683371 194.638619 
L 197.086825 194.669324 
z
" style="stroke:#000000;"/>
    <path clip-path="url(#pa71f07653a)" d="M 194.34281 191.383656 
L 192.695928 192.303135 
L 193.28363 187.967905 
z
" style="stroke:#000000;"/>
    <path clip-path="url(#pa71f07653a)" d="M 192.695928 161.989285 
L 194.34281 162.906592 
L 193.28363 166.323739 
z
" style="stroke:#000000;"/>
    <path clip-path="url(#pa71f07653a)" d="M 195.683371 159.649861 
L 195.744844 162.886571 
L 194.34281 162.906592 
z
" style="stroke:#000000;"/>
    <path clip-path="url(#pa71f07653a)" d="M 195.834757 199.021414 
L 195.525627 195.799982 
L 194.123825 195.767453 
z
" style="stroke:#000000;"/>
    <path clip-path="url(#pa71f07653a)" d="M 197.238371 155.234648 
L 198.694943 156.559832 
L 199.214608 152.219675 
z
" style="stroke:#000000;"/>
    <path clip-path="url(#pa71f07653a)" d="M 198.694943 197.732012 
L 197.238371 199.059121 
L 199.214608 202.071483 
z
" style="stroke:#000000;"/>
    <path clip-path="url(#pa71f07653a)" d="M 193.28363 187.967905 
L 195.744844 191.409172 
L 194.34281 191.383656 
z
" style="stroke:#000000;"/>
    <path clip-path="url(#pa71f07653a)" d="M 191.567695 188.667377 
L 193.28363 187.967905 
L 192.695928 192.303135 
z
" style="stroke:#000000;"/>
    <path clip-path="url(#pa71f07653a)" d="M 193.28363 166.323739 
L 191.567695 165.62653 
L 192.695928 161.989285 
z
" style="stroke:#000000;"/>
    <path clip-path="url(#pa71f07653a)" d="M 195.525627 195.799982 
L 195.834757 199.021414 
L 197.238371 199.059121 
z
" style="stroke:#000000;"/>
    <path clip-path="url(#pa71f07653a)" d="M 195.744844 162.886571 
L 195.683371 159.649861 
L 197.086825 159.624646 
z
" style="stroke:#000000;"/>
    <path clip-path="url(#pa71f07653a)" d="M 193.28363 187.967905 
L 191.567695 188.667377 
L 192.518138 184.429732 
z
" style="stroke:#000000;"/>
    <path clip-path="url(#pa71f07653a)" d="M 191.567695 165.62653 
L 193.28363 166.323739 
L 192.518138 169.862922 
z
" style="stroke:#000000;"/>
    <path clip-path="url(#pa71f07653a)" d="M 192.695928 161.989285 
L 195.525627 158.496051 
L 194.123825 158.523084 
z
" style="stroke:#000000;"/>
    <path clip-path="url(#pa71f07653a)" d="M 194.34281 162.906592 
L 194.68454 166.309177 
L 193.28363 166.323739 
z
" style="stroke:#000000;"/>
    <path clip-path="url(#pa71f07653a)" d="M 197.238371 155.234648 
L 197.086825 159.624646 
L 198.694943 156.559832 
z
" style="stroke:#000000;"/>
    <path clip-path="url(#pa71f07653a)" d="M 197.086825 194.669324 
L 197.238371 199.059121 
L 198.694943 197.732012 
z
" style="stroke:#000000;"/>
    <path clip-path="url(#pa71f07653a)" d="M 197.086825 194.669324 
L 194.34281 191.383656 
L 195.744844 191.409172 
z
" style="stroke:#000000;"/>
    <path clip-path="url(#pa71f07653a)" d="M 197.238371 155.234648 
L 194.123825 158.523084 
L 195.525627 158.496051 
z
" style="stroke:#000000;"/>
    <path clip-path="url(#pa71f07653a)" d="M 194.123825 195.767453 
L 194.096214 192.330138 
L 192.695928 192.303135 
z
" style="stroke:#000000;"/>
    <path clip-path="url(#pa71f07653a)" d="M 192.518138 184.429732 
L 190.75225 184.901045 
L 192.055251 180.809049 
z
" style="stroke:#000000;"/>
    <path clip-path="url(#pa71f07653a)" d="M 190.75225 169.393937 
L 192.518138 169.862922 
L 192.055251 173.484215 
z
" style="stroke:#000000;"/>
    <path clip-path="url(#pa71f07653a)" d="M 192.518138 184.429732 
L 194.68454 187.987967 
L 193.28363 187.967905 
z
" style="stroke:#000000;"/>
    <path clip-path="url(#pa71f07653a)" d="M 190.75225 184.901045 
L 192.518138 184.429732 
L 191.567695 188.667377 
z
" style="stroke:#000000;"/>
    <path clip-path="url(#pa71f07653a)" d="M 192.518138 169.862922 
L 190.75225 169.393937 
L 191.567695 165.62653 
z
" style="stroke:#000000;"/>
    <path clip-path="url(#pa71f07653a)" d="M 190.259134 173.248949 
L 192.055251 173.484215 
L 191.900346 177.146734 
z
" style="stroke:#000000;"/>
    <path clip-path="url(#pa71f07653a)" d="M 192.055251 180.809049 
L 190.259134 181.046684 
L 191.900346 177.146734 
z
" style="stroke:#000000;"/>
    <path clip-path="url(#pa71f07653a)" d="M 193.28363 166.323739 
L 193.918235 169.854019 
L 192.518138 169.862922 
z
" style="stroke:#000000;"/>
    <path clip-path="url(#pa71f07653a)" d="M 194.68454 166.309177 
L 194.34281 162.906592 
L 195.744844 162.886571 
z
" style="stroke:#000000;"/>
    <path clip-path="url(#pa71f07653a)" d="M 195.525627 158.496051 
L 197.086825 159.624646 
L 197.238371 155.234648 
z
" style="stroke:#000000;"/>
    <path clip-path="url(#pa71f07653a)" d="M 197.086825 194.669324 
L 195.525627 195.799982 
L 197.238371 199.059121 
z
" style="stroke:#000000;"/>
    <path clip-path="url(#pa71f07653a)" d="M 190.259134 181.046684 
L 192.055251 180.809049 
L 190.75225 184.901045 
z
" style="stroke:#000000;"/>
    <path clip-path="url(#pa71f07653a)" d="M 192.055251 173.484215 
L 190.259134 173.248949 
L 190.75225 169.393937 
z
" style="stroke:#000000;"/>
    <path clip-path="url(#pa71f07653a)" d="M 192.055251 180.809049 
L 193.918235 184.444138 
L 192.518138 184.429732 
z
" style="stroke:#000000;"/>
    <path clip-path="url(#pa71f07653a)" d="M 191.567695 165.62653 
L 194.096214 161.967783 
L 192.695928 161.989285 
z
" style="stroke:#000000;"/>
    <path clip-path="url(#pa71f07653a)" d="M 194.096214 192.330138 
L 194.123825 195.767453 
L 195.525627 195.799982 
z
" style="stroke:#000000;"/>
    <path clip-path="url(#pa71f07653a)" d="M 195.744844 191.409172 
L 193.28363 187.967905 
L 194.68454 187.987967 
z
" style="stroke:#000000;"/>
    <path clip-path="url(#pa71f07653a)" d="M 192.518138 169.862922 
L 193.454857 173.481106 
L 192.055251 173.484215 
z
" style="stroke:#000000;"/>
    <path clip-path="url(#pa71f07653a)" d="M 190.094122 177.147925 
L 191.900346 177.146734 
L 190.259134 181.046684 
z
" style="stroke:#000000;"/>
    <path clip-path="url(#pa71f07653a)" d="M 191.900346 177.146734 
L 190.094122 177.147925 
L 190.259134 173.248949 
z
" style="stroke:#000000;"/>
    <path clip-path="url(#pa71f07653a)" d="M 191.900346 177.146734 
L 193.454857 180.817663 
L 192.055251 180.809049 
z
" style="stroke:#000000;"/>
    <path clip-path="url(#pa71f07653a)" d="M 192.055251 173.484215 
L 193.299786 177.149487 
L 191.900346 177.146734 
z
" style="stroke:#000000;"/>
    <path clip-path="url(#pa71f07653a)" d="M 192.695928 192.303135 
L 192.966781 188.688572 
L 191.567695 188.667377 
z
" style="stroke:#000000;"/>
    <path clip-path="url(#pa71f07653a)" d="M 197.086825 159.624646 
L 195.525627 158.496051 
L 195.744844 162.886571 
z
" style="stroke:#000000;"/>
    <path clip-path="url(#pa71f07653a)" d="M 195.525627 195.799982 
L 197.086825 194.669324 
L 195.744844 191.409172 
z
" style="stroke:#000000;"/>
    <path clip-path="url(#pa71f07653a)" d="M 195.525627 158.496051 
L 192.695928 161.989285 
L 194.096214 161.967783 
z
" style="stroke:#000000;"/>
    <path clip-path="url(#pa71f07653a)" d="M 193.918235 169.854019 
L 193.28363 166.323739 
L 194.68454 166.309177 
z
" style="stroke:#000000;"/>
    <path clip-path="url(#pa71f07653a)" d="M 192.20114 153.292555 
L 187.681929 160.721488 
L 190.696474 153.745953 
z
" style="stroke:#000000;"/>
    <path clip-path="url(#pa71f07653a)" d="M 190.696474 153.745953 
L 187.681929 149.52056 
L 192.20114 153.292555 
z
" style="stroke:#000000;"/>
    <path clip-path="url(#pa71f07653a)" d="M 194.68454 187.987967 
L 192.518138 184.429732 
L 193.918235 184.444138 
z
" style="stroke:#000000;"/>
    <path clip-path="url(#pa71f07653a)" d="M 190.75225 169.393937 
L 192.966781 165.610842 
L 191.567695 165.62653 
z
" style="stroke:#000000;"/>
    <path clip-path="url(#pa71f07653a)" d="M 191.567695 188.667377 
L 192.150469 184.916216 
L 190.75225 184.901045 
z
" style="stroke:#000000;"/>
    <path clip-path="url(#pa71f07653a)" d="M 193.454857 173.481106 
L 192.518138 169.862922 
L 193.918235 169.854019 
z
" style="stroke:#000000;"/>
    <path clip-path="url(#pa71f07653a)" d="M 194.096214 161.967783 
L 195.744844 162.886571 
L 195.525627 158.496051 
z
" style="stroke:#000000;"/>
    <path clip-path="url(#pa71f07653a)" d="M 195.744844 191.409172 
L 194.096214 192.330138 
L 195.525627 195.799982 
z
" style="stroke:#000000;"/>
    <path clip-path="url(#pa71f07653a)" d="M 192.966781 188.688572 
L 192.695928 192.303135 
L 194.096214 192.330138 
z
" style="stroke:#000000;"/>
    <path clip-path="url(#pa71f07653a)" d="M 193.918235 184.444138 
L 192.055251 180.809049 
L 193.454857 180.817663 
z
" style="stroke:#000000;"/>
    <path clip-path="url(#pa71f07653a)" d="M 195.744844 162.886571 
L 194.096214 161.967783 
L 194.68454 166.309177 
z
" style="stroke:#000000;"/>
    <path clip-path="url(#pa71f07653a)" d="M 194.096214 192.330138 
L 195.744844 191.409172 
L 194.68454 187.987967 
z
" style="stroke:#000000;"/>
    <path clip-path="url(#pa71f07653a)" d="M 193.299786 177.149487 
L 192.055251 173.484215 
L 193.454857 173.481106 
z
" style="stroke:#000000;"/>
    <path clip-path="url(#pa71f07653a)" d="M 190.259134 173.248949 
L 192.150469 169.384277 
L 190.75225 169.393937 
z
" style="stroke:#000000;"/>
    <path clip-path="url(#pa71f07653a)" d="M 187.681929 160.721488 
L 192.20114 153.292555 
L 187.681929 164.455131 
z
" style="stroke:#000000;"/>
    <path clip-path="url(#pa71f07653a)" d="M 193.454857 180.817663 
L 191.900346 177.146734 
L 193.299786 177.149487 
z
" style="stroke:#000000;"/>
    <path clip-path="url(#pa71f07653a)" d="M 194.096214 161.967783 
L 191.567695 165.62653 
L 192.966781 165.610842 
z
" style="stroke:#000000;"/>
    <path clip-path="url(#pa71f07653a)" d="M 190.75225 184.901045 
L 191.656828 181.055684 
L 190.259134 181.046684 
z
" style="stroke:#000000;"/>
    <path clip-path="url(#pa71f07653a)" d="M 190.094122 177.147925 
L 191.656828 173.245461 
L 190.259134 173.248949 
z
" style="stroke:#000000;"/>
    <path clip-path="url(#pa71f07653a)" d="M 190.259134 181.046684 
L 191.49164 177.150682 
L 190.094122 177.147925 
z
" style="stroke:#000000;"/>
    <path clip-path="url(#pa71f07653a)" d="M 187.681929 149.52056 
L 190.696474 153.745953 
L 187.681929 151.387382 
z
" style="stroke:#000000;"/>
    <path clip-path="url(#pa71f07653a)" d="M 192.150469 184.916216 
L 191.567695 188.667377 
L 192.966781 188.688572 
z
" style="stroke:#000000;"/>
    <path clip-path="url(#pa71f07653a)" d="M 192.966781 165.610842 
L 194.68454 166.309177 
L 194.096214 161.967783 
z
" style="stroke:#000000;"/>
    <path clip-path="url(#pa71f07653a)" d="M 194.68454 187.987967 
L 192.966781 188.688572 
L 194.096214 192.330138 
z
" style="stroke:#000000;"/>
    <path clip-path="url(#pa71f07653a)" d="M 192.094634 153.711235 
L 187.681929 151.387382 
L 190.696474 153.745953 
z
" style="stroke:#000000;"/>
    <path clip-path="url(#pa71f07653a)" d="M 187.681929 160.721488 
L 192.094634 153.711235 
L 190.696474 153.745953 
z
" style="stroke:#000000;"/>
    <path clip-path="url(#pa71f07653a)" d="M 194.68454 166.309177 
L 192.966781 165.610842 
L 193.918235 169.854019 
z
" style="stroke:#000000;"/>
    <path clip-path="url(#pa71f07653a)" d="M 192.966781 188.688572 
L 194.68454 187.987967 
L 193.918235 184.444138 
z
" style="stroke:#000000;"/>
    <path clip-path="url(#pa71f07653a)" d="M 192.966781 165.610842 
L 190.75225 169.393937 
L 192.150469 169.384277 
z
" style="stroke:#000000;"/>
    <path clip-path="url(#pa71f07653a)" d="M 192.20114 153.292555 
L 189.076873 149.479028 
L 193.6009 153.257131 
z
" style="stroke:#000000;"/>
    <path clip-path="url(#pa71f07653a)" d="M 189.076873 164.437541 
L 192.20114 153.292555 
L 193.6009 153.257131 
z
" style="stroke:#000000;"/>
    <path clip-path="url(#pa71f07653a)" d="M 191.656828 181.055684 
L 190.75225 184.901045 
L 192.150469 184.916216 
z
" style="stroke:#000000;"/>
    <path clip-path="url(#pa71f07653a)" d="M 189.076873 149.479028 
L 192.20114 153.292555 
L 187.681929 149.52056 
z
" style="stroke:#000000;"/>
    <path clip-path="url(#pa71f07653a)" d="M 192.20114 153.292555 
L 189.076873 164.437541 
L 187.681929 164.455131 
z
" style="stroke:#000000;"/>
    <path clip-path="url(#pa71f07653a)" d="M 192.150469 169.384277 
L 190.259134 173.248949 
L 191.656828 173.245461 
z
" style="stroke:#000000;"/>
    <path clip-path="url(#pa71f07653a)" d="M 193.918235 169.854019 
L 192.150469 169.384277 
L 193.454857 173.481106 
z
" style="stroke:#000000;"/>
    <path clip-path="url(#pa71f07653a)" d="M 192.150469 184.916216 
L 193.918235 184.444138 
L 193.454857 180.817663 
z
" style="stroke:#000000;"/>
    <path clip-path="url(#pa71f07653a)" d="M 192.150469 169.384277 
L 193.918235 169.854019 
L 192.966781 165.610842 
z
" style="stroke:#000000;"/>
    <path clip-path="url(#pa71f07653a)" d="M 193.918235 184.444138 
L 192.150469 184.916216 
L 192.966781 188.688572 
z
" style="stroke:#000000;"/>
    <path clip-path="url(#pa71f07653a)" d="M 191.49164 177.150682 
L 190.259134 181.046684 
L 191.656828 181.055684 
z
" style="stroke:#000000;"/>
    <path clip-path="url(#pa71f07653a)" d="M 191.656828 173.245461 
L 190.094122 177.147925 
L 191.49164 177.150682 
z
" style="stroke:#000000;"/>
    <path clip-path="url(#pa71f07653a)" d="M 191.656828 181.055684 
L 193.454857 180.817663 
L 193.299786 177.149487 
z
" style="stroke:#000000;"/>
    <path clip-path="url(#pa71f07653a)" d="M 193.454857 173.481106 
L 191.656828 173.245461 
L 193.299786 177.149487 
z
" style="stroke:#000000;"/>
    <path clip-path="url(#pa71f07653a)" d="M 191.656828 173.245461 
L 193.454857 173.481106 
L 192.150469 169.384277 
z
" style="stroke:#000000;"/>
    <path clip-path="url(#pa71f07653a)" d="M 193.454857 180.817663 
L 191.656828 181.055684 
L 192.150469 184.916216 
z
" style="stroke:#000000;"/>
    <path clip-path="url(#pa71f07653a)" d="M 184.66041 153.695806 
L 187.681929 149.52056 
L 187.681929 151.387382 
z
" style="stroke:#000000;"/>
    <path clip-path="url(#pa71f07653a)" d="M 191.49164 177.150682 
L 193.299786 177.149487 
L 191.656828 173.245461 
z
" style="stroke:#000000;"/>
    <path clip-path="url(#pa71f07653a)" d="M 193.299786 177.149487 
L 191.49164 177.150682 
L 191.656828 181.055684 
z
" style="stroke:#000000;"/>
    <path clip-path="url(#pa71f07653a)" d="M 183.147029 153.215717 
L 187.681929 160.721488 
L 187.681929 164.455131 
z
" style="stroke:#000000;"/>
    <path clip-path="url(#pa71f07653a)" d="M 189.076873 149.479028 
L 192.094634 153.711235 
L 193.6009 153.257131 
z
" style="stroke:#000000;"/>
    <path clip-path="url(#pa71f07653a)" d="M 189.076873 160.697913 
L 193.6009 153.257131 
L 192.094634 153.711235 
z
" style="stroke:#000000;"/>
    <path clip-path="url(#pa71f07653a)" d="M 187.681929 151.387382 
L 192.094634 153.711235 
L 189.076873 151.348842 
z
" style="stroke:#000000;"/>
    <path clip-path="url(#pa71f07653a)" d="M 192.094634 153.711235 
L 187.681929 160.721488 
L 189.076873 160.697913 
z
" style="stroke:#000000;"/>
    <path clip-path="url(#pa71f07653a)" d="M 189.076873 151.348842 
L 184.66041 153.695806 
L 187.681929 151.387382 
z
" style="stroke:#000000;"/>
    <path clip-path="url(#pa71f07653a)" d="M 184.66041 153.695806 
L 189.076873 160.697913 
L 187.681929 160.721488 
z
" style="stroke:#000000;"/>
    <path clip-path="url(#pa71f07653a)" d="M 187.681929 149.52056 
L 184.66041 153.695806 
L 183.147029 153.215717 
z
" style="stroke:#000000;"/>
    <path clip-path="url(#pa71f07653a)" d="M 187.681929 160.721488 
L 183.147029 153.215717 
L 184.66041 153.695806 
z
" style="stroke:#000000;"/>
    <path clip-path="url(#pa71f07653a)" d="M 189.076873 160.697913 
L 189.076873 164.437541 
L 193.6009 153.257131 
z
" style="stroke:#000000;"/>
    <path clip-path="url(#pa71f07653a)" d="M 183.449845 177.152306 
L 185.265273 177.151109 
L 185.099629 181.057792 
z
" style="stroke:#000000;"/>
    <path clip-path="url(#pa71f07653a)" d="M 185.265273 177.151109 
L 183.449845 177.152306 
L 185.099629 173.244644 
z
" style="stroke:#000000;"/>
    <path clip-path="url(#pa71f07653a)" d="M 189.076873 149.479028 
L 189.076873 151.348842 
L 192.094634 153.711235 
z
" style="stroke:#000000;"/>
    <path clip-path="url(#pa71f07653a)" d="M 183.293916 180.827127 
L 185.099629 181.057792 
L 184.604374 184.923365 
z
" style="stroke:#000000;"/>
    <path clip-path="url(#pa71f07653a)" d="M 185.099629 173.244644 
L 183.293916 173.477689 
L 184.604374 169.379724 
z
" style="stroke:#000000;"/>
    <path clip-path="url(#pa71f07653a)" d="M 183.293916 173.477689 
L 185.099629 173.244644 
L 183.449845 177.152306 
z
" style="stroke:#000000;"/>
    <path clip-path="url(#pa71f07653a)" d="M 185.099629 181.057792 
L 183.293916 180.827127 
L 183.449845 177.152306 
z
" style="stroke:#000000;"/>
    <path clip-path="url(#pa71f07653a)" d="M 185.099629 173.244644 
L 186.657632 177.153875 
L 185.265273 177.151109 
z
" style="stroke:#000000;"/>
    <path clip-path="url(#pa71f07653a)" d="M 185.265273 177.151109 
L 186.49181 181.066828 
L 185.099629 181.057792 
z
" style="stroke:#000000;"/>
    <path clip-path="url(#pa71f07653a)" d="M 182.827749 184.463184 
L 184.604374 184.923365 
L 183.78457 188.706878 
z
" style="stroke:#000000;"/>
    <path clip-path="url(#pa71f07653a)" d="M 184.604374 169.379724 
L 182.827749 169.842247 
L 183.78457 165.597291 
z
" style="stroke:#000000;"/>
    <path clip-path="url(#pa71f07653a)" d="M 184.604374 184.923365 
L 182.827749 184.463184 
L 183.293916 180.827127 
z
" style="stroke:#000000;"/>
    <path clip-path="url(#pa71f07653a)" d="M 182.827749 169.842247 
L 184.604374 169.379724 
L 183.293916 173.477689 
z
" style="stroke:#000000;"/>
    <path clip-path="url(#pa71f07653a)" d="M 184.604374 169.379724 
L 186.49181 173.241142 
L 185.099629 173.244644 
z
" style="stroke:#000000;"/>
    <path clip-path="url(#pa71f07653a)" d="M 187.681929 149.52056 
L 184.537116 153.180047 
L 189.076873 149.479028 
z
" style="stroke:#000000;"/>
    <path clip-path="url(#pa71f07653a)" d="M 184.537116 153.180047 
L 187.681929 164.455131 
L 189.076873 164.437541 
z
" style="stroke:#000000;"/>
    <path clip-path="url(#pa71f07653a)" d="M 185.099629 181.057792 
L 185.996025 184.938607 
L 184.604374 184.923365 
z
" style="stroke:#000000;"/>
    <path clip-path="url(#pa71f07653a)" d="M 184.537116 153.180047 
L 187.681929 149.52056 
L 183.147029 153.215717 
z
" style="stroke:#000000;"/>
    <path clip-path="url(#pa71f07653a)" d="M 187.681929 164.455131 
L 184.537116 153.180047 
L 183.147029 153.215717 
z
" style="stroke:#000000;"/>
    <path clip-path="url(#pa71f07653a)" d="M 183.78457 165.597291 
L 185.996025 169.370018 
L 184.604374 169.379724 
z
" style="stroke:#000000;"/>
    <path clip-path="url(#pa71f07653a)" d="M 183.78457 188.706878 
L 182.056104 188.021913 
L 182.827749 184.463184 
z
" style="stroke:#000000;"/>
    <path clip-path="url(#pa71f07653a)" d="M 182.056104 166.284536 
L 183.78457 165.597291 
L 182.827749 169.842247 
z
" style="stroke:#000000;"/>
    <path clip-path="url(#pa71f07653a)" d="M 184.66041 153.695806 
L 189.076873 151.348842 
L 186.052121 153.660927 
z
" style="stroke:#000000;"/>
    <path clip-path="url(#pa71f07653a)" d="M 189.076873 160.697913 
L 184.66041 153.695806 
L 186.052121 153.660927 
z
" style="stroke:#000000;"/>
    <path clip-path="url(#pa71f07653a)" d="M 182.056104 188.021913 
L 183.78457 188.706878 
L 182.648611 192.368158 
z
" style="stroke:#000000;"/>
    <path clip-path="url(#pa71f07653a)" d="M 183.78457 165.597291 
L 182.056104 166.284536 
L 182.648611 161.93751 
z
" style="stroke:#000000;"/>
    <path clip-path="url(#pa71f07653a)" d="M 184.604374 184.923365 
L 185.175341 188.7282 
L 183.78457 188.706878 
z
" style="stroke:#000000;"/>
    <path clip-path="url(#pa71f07653a)" d="M 189.076873 149.479028 
L 186.052121 153.660927 
L 189.076873 151.348842 
z
" style="stroke:#000000;"/>
    <path clip-path="url(#pa71f07653a)" d="M 186.49181 181.066828 
L 185.265273 177.151109 
L 186.657632 177.153875 
z
" style="stroke:#000000;"/>
    <path clip-path="url(#pa71f07653a)" d="M 186.657632 177.153875 
L 185.099629 173.244644 
L 186.49181 173.241142 
z
" style="stroke:#000000;"/>
    <path clip-path="url(#pa71f07653a)" d="M 185.996025 184.938607 
L 185.099629 181.057792 
L 186.49181 181.066828 
z
" style="stroke:#000000;"/>
    <path clip-path="url(#pa71f07653a)" d="M 182.648611 161.93751 
L 185.175341 165.581509 
L 183.78457 165.597291 
z
" style="stroke:#000000;"/>
    <path clip-path="url(#pa71f07653a)" d="M 183.293916 180.827127 
L 184.840257 177.155076 
L 183.449845 177.152306 
z
" style="stroke:#000000;"/>
    <path clip-path="url(#pa71f07653a)" d="M 189.076873 160.697913 
L 184.537116 153.180047 
L 189.076873 164.437541 
z
" style="stroke:#000000;"/>
    <path clip-path="url(#pa71f07653a)" d="M 186.49181 173.241142 
L 184.604374 169.379724 
L 185.996025 169.370018 
z
" style="stroke:#000000;"/>
    <path clip-path="url(#pa71f07653a)" d="M 183.449845 177.152306 
L 184.68416 173.474559 
L 183.293916 173.477689 
z
" style="stroke:#000000;"/>
    <path clip-path="url(#pa71f07653a)" d="M 182.648611 192.368158 
L 180.986911 191.465433 
L 182.056104 188.021913 
z
" style="stroke:#000000;"/>
    <path clip-path="url(#pa71f07653a)" d="M 180.986911 162.842425 
L 182.648611 161.93751 
L 182.056104 166.284536 
z
" style="stroke:#000000;"/>
    <path clip-path="url(#pa71f07653a)" d="M 182.827749 184.463184 
L 184.68416 180.835799 
L 183.293916 180.827127 
z
" style="stroke:#000000;"/>
    <path clip-path="url(#pa71f07653a)" d="M 183.78457 188.706878 
L 184.038162 192.39537 
L 182.648611 192.368158 
z
" style="stroke:#000000;"/>
    <path clip-path="url(#pa71f07653a)" d="M 180.986911 191.465433 
L 182.648611 192.368158 
L 181.208108 195.868253 
z
" style="stroke:#000000;"/>
    <path clip-path="url(#pa71f07653a)" d="M 182.648611 161.93751 
L 180.986911 162.842425 
L 181.208108 158.439314 
z
" style="stroke:#000000;"/>
    <path clip-path="url(#pa71f07653a)" d="M 183.293916 173.477689 
L 184.217493 169.833277 
L 182.827749 169.842247 
z
" style="stroke:#000000;"/>
    <path clip-path="url(#pa71f07653a)" d="M 185.175341 188.7282 
L 184.604374 184.923365 
L 185.996025 184.938607 
z
" style="stroke:#000000;"/>
    <path clip-path="url(#pa71f07653a)" d="M 185.996025 169.370018 
L 183.78457 165.597291 
L 185.175341 165.581509 
z
" style="stroke:#000000;"/>
    <path clip-path="url(#pa71f07653a)" d="M 182.056104 188.021913 
L 184.217493 184.477698 
L 182.827749 184.463184 
z
" style="stroke:#000000;"/>
    <path clip-path="url(#pa71f07653a)" d="M 186.052121 153.660927 
L 189.076873 149.479028 
L 184.537116 153.180047 
z
" style="stroke:#000000;"/>
    <path clip-path="url(#pa71f07653a)" d="M 184.537116 153.180047 
L 189.076873 160.697913 
L 186.052121 153.660927 
z
" style="stroke:#000000;"/>
    <path clip-path="url(#pa71f07653a)" d="M 182.827749 169.842247 
L 183.445018 166.269848 
L 182.056104 166.284536 
z
" style="stroke:#000000;"/>
    <path clip-path="url(#pa71f07653a)" d="M 181.208108 158.439314 
L 184.038162 161.915842 
L 182.648611 161.93751 
z
" style="stroke:#000000;"/>
    <path clip-path="url(#pa71f07653a)" d="M 181.208108 195.868253 
L 179.631175 194.757016 
L 180.986911 191.465433 
z
" style="stroke:#000000;"/>
    <path clip-path="url(#pa71f07653a)" d="M 179.631175 159.55263 
L 181.208108 158.439314 
L 180.986911 162.842425 
z
" style="stroke:#000000;"/>
    <path clip-path="url(#pa71f07653a)" d="M 184.038162 192.39537 
L 183.78457 188.706878 
L 185.175341 188.7282 
z
" style="stroke:#000000;"/>
    <path clip-path="url(#pa71f07653a)" d="M 184.68416 173.474559 
L 183.449845 177.152306 
L 184.840257 177.155076 
z
" style="stroke:#000000;"/>
    <path clip-path="url(#pa71f07653a)" d="M 184.840257 177.155076 
L 183.293916 180.827127 
L 184.68416 180.835799 
z
" style="stroke:#000000;"/>
    <path clip-path="url(#pa71f07653a)" d="M 184.840257 177.155076 
L 186.657632 177.153875 
L 186.49181 173.241142 
z
" style="stroke:#000000;"/>
    <path clip-path="url(#pa71f07653a)" d="M 186.657632 177.153875 
L 184.840257 177.155076 
L 186.49181 181.066828 
z
" style="stroke:#000000;"/>
    <path clip-path="url(#pa71f07653a)" d="M 184.217493 169.833277 
L 183.293916 173.477689 
L 184.68416 173.474559 
z
" style="stroke:#000000;"/>
    <path clip-path="url(#pa71f07653a)" d="M 180.986911 191.465433 
L 183.445018 188.042148 
L 182.056104 188.021913 
z
" style="stroke:#000000;"/>
    <path clip-path="url(#pa71f07653a)" d="M 182.648611 192.368158 
L 182.59611 195.901105 
L 181.208108 195.868253 
z
" style="stroke:#000000;"/>
    <path clip-path="url(#pa71f07653a)" d="M 185.175341 165.581509 
L 182.648611 161.93751 
L 184.038162 161.915842 
z
" style="stroke:#000000;"/>
    <path clip-path="url(#pa71f07653a)" d="M 184.68416 180.835799 
L 182.827749 184.463184 
L 184.217493 184.477698 
z
" style="stroke:#000000;"/>
    <path clip-path="url(#pa71f07653a)" d="M 184.68416 173.474559 
L 186.49181 173.241142 
L 185.996025 169.370018 
z
" style="stroke:#000000;"/>
    <path clip-path="url(#pa71f07653a)" d="M 186.49181 181.066828 
L 184.68416 180.835799 
L 185.996025 184.938607 
z
" style="stroke:#000000;"/>
    <path clip-path="url(#pa71f07653a)" d="M 179.4779 199.169589 
L 179.631175 194.757016 
L 181.208108 195.868253 
z
" style="stroke:#000000;"/>
    <path clip-path="url(#pa71f07653a)" d="M 179.631175 159.55263 
L 179.4779 155.140259 
L 181.208108 158.439314 
z
" style="stroke:#000000;"/>
    <path clip-path="url(#pa71f07653a)" d="M 182.056104 166.284536 
L 182.374675 162.822198 
L 180.986911 162.842425 
z
" style="stroke:#000000;"/>
    <path clip-path="url(#pa71f07653a)" d="M 183.445018 166.269848 
L 182.827749 169.842247 
L 184.217493 169.833277 
z
" style="stroke:#000000;"/>
    <path clip-path="url(#pa71f07653a)" d="M 184.68416 180.835799 
L 186.49181 181.066828 
L 184.840257 177.155076 
z
" style="stroke:#000000;"/>
    <path clip-path="url(#pa71f07653a)" d="M 186.49181 173.241142 
L 184.68416 173.474559 
L 184.840257 177.155076 
z
" style="stroke:#000000;"/>
    <path clip-path="url(#pa71f07653a)" d="M 184.217493 169.833277 
L 185.996025 169.370018 
L 185.175341 165.581509 
z
" style="stroke:#000000;"/>
    <path clip-path="url(#pa71f07653a)" d="M 185.996025 184.938607 
L 184.217493 184.477698 
L 185.175341 188.7282 
z
" style="stroke:#000000;"/>
    <path clip-path="url(#pa71f07653a)" d="M 184.217493 184.477698 
L 182.056104 188.021913 
L 183.445018 188.042148 
z
" style="stroke:#000000;"/>
    <path clip-path="url(#pa71f07653a)" d="M 185.996025 169.370018 
L 184.217493 169.833277 
L 184.68416 173.474559 
z
" style="stroke:#000000;"/>
    <path clip-path="url(#pa71f07653a)" d="M 184.217493 184.477698 
L 185.996025 184.938607 
L 184.68416 180.835799 
z
" style="stroke:#000000;"/>
    <path clip-path="url(#pa71f07653a)" d="M 182.59611 195.901105 
L 182.648611 192.368158 
L 184.038162 192.39537 
z
" style="stroke:#000000;"/>
    <path clip-path="url(#pa71f07653a)" d="M 179.4779 155.140259 
L 182.59611 158.412012 
L 181.208108 158.439314 
z
" style="stroke:#000000;"/>
    <path clip-path="url(#pa71f07653a)" d="M 179.631175 194.757016 
L 182.374675 191.491212 
L 180.986911 191.465433 
z
" style="stroke:#000000;"/>
    <path clip-path="url(#pa71f07653a)" d="M 179.4779 199.169589 
L 178.00288 197.861441 
L 179.631175 194.757016 
z
" style="stroke:#000000;"/>
    <path clip-path="url(#pa71f07653a)" d="M 178.00288 156.450352 
L 179.4779 155.140259 
L 179.631175 159.55263 
z
" style="stroke:#000000;"/>
    <path clip-path="url(#pa71f07653a)" d="M 182.374675 162.822198 
L 182.056104 166.284536 
L 183.445018 166.269848 
z
" style="stroke:#000000;"/>
    <path clip-path="url(#pa71f07653a)" d="M 184.038162 161.915842 
L 181.208108 158.439314 
L 182.59611 158.412012 
z
" style="stroke:#000000;"/>
    <path clip-path="url(#pa71f07653a)" d="M 185.175341 165.581509 
L 183.445018 166.269848 
L 184.217493 169.833277 
z
" style="stroke:#000000;"/>
    <path clip-path="url(#pa71f07653a)" d="M 183.445018 188.042148 
L 185.175341 188.7282 
L 184.217493 184.477698 
z
" style="stroke:#000000;"/>
    <path clip-path="url(#pa71f07653a)" d="M 180.986911 162.842425 
L 181.017478 159.527103 
L 179.631175 159.55263 
z
" style="stroke:#000000;"/>
    <path clip-path="url(#pa71f07653a)" d="M 181.208108 195.868253 
L 180.864038 199.207772 
L 179.4779 199.169589 
z
" style="stroke:#000000;"/>
    <path clip-path="url(#pa71f07653a)" d="M 183.445018 166.269848 
L 185.175341 165.581509 
L 184.038162 161.915842 
z
" style="stroke:#000000;"/>
    <path clip-path="url(#pa71f07653a)" d="M 185.175341 188.7282 
L 183.445018 188.042148 
L 184.038162 192.39537 
z
" style="stroke:#000000;"/>
    <path clip-path="url(#pa71f07653a)" d="M 183.445018 188.042148 
L 180.986911 191.465433 
L 182.374675 191.491212 
z
" style="stroke:#000000;"/>
    <path clip-path="url(#pa71f07653a)" d="M 177.475831 202.236833 
L 178.00288 197.861441 
L 179.4779 199.169589 
z
" style="stroke:#000000;"/>
    <path clip-path="url(#pa71f07653a)" d="M 178.00288 156.450352 
L 177.475831 152.075655 
L 179.4779 155.140259 
z
" style="stroke:#000000;"/>
    <path clip-path="url(#pa71f07653a)" d="M 180.864038 199.207772 
L 181.208108 195.868253 
L 182.59611 195.901105 
z
" style="stroke:#000000;"/>
    <path clip-path="url(#pa71f07653a)" d="M 181.017478 159.527103 
L 180.986911 162.842425 
L 182.374675 162.822198 
z
" style="stroke:#000000;"/>
    <path clip-path="url(#pa71f07653a)" d="M 184.038162 161.915842 
L 182.374675 162.822198 
L 183.445018 166.269848 
z
" style="stroke:#000000;"/>
    <path clip-path="url(#pa71f07653a)" d="M 182.374675 191.491212 
L 184.038162 192.39537 
L 183.445018 188.042148 
z
" style="stroke:#000000;"/>
    <path clip-path="url(#pa71f07653a)" d="M 178.00288 197.861441 
L 181.017478 194.788101 
L 179.631175 194.757016 
z
" style="stroke:#000000;"/>
    <path clip-path="url(#pa71f07653a)" d="M 182.374675 162.822198 
L 184.038162 161.915842 
L 182.59611 158.412012 
z
" style="stroke:#000000;"/>
    <path clip-path="url(#pa71f07653a)" d="M 184.038162 192.39537 
L 182.374675 191.491212 
L 182.59611 195.901105 
z
" style="stroke:#000000;"/>
    <path clip-path="url(#pa71f07653a)" d="M 177.475831 152.075655 
L 180.864038 155.107634 
L 179.4779 155.140259 
z
" style="stroke:#000000;"/>
    <path clip-path="url(#pa71f07653a)" d="M 182.374675 191.491212 
L 179.631175 194.757016 
L 181.017478 194.788101 
z
" style="stroke:#000000;"/>
    <path clip-path="url(#pa71f07653a)" d="M 182.59611 158.412012 
L 179.4779 155.140259 
L 180.864038 155.107634 
z
" style="stroke:#000000;"/>
    <path clip-path="url(#pa71f07653a)" d="M 177.475831 202.236833 
L 176.118893 200.745086 
L 178.00288 197.861441 
z
" style="stroke:#000000;"/>
    <path clip-path="url(#pa71f07653a)" d="M 176.118893 153.569191 
L 177.475831 152.075655 
L 178.00288 156.450352 
z
" style="stroke:#000000;"/>
    <path clip-path="url(#pa71f07653a)" d="M 179.631175 159.55263 
L 179.387426 156.419817 
L 178.00288 156.450352 
z
" style="stroke:#000000;"/>
    <path clip-path="url(#pa71f07653a)" d="M 179.4779 199.169589 
L 178.859808 202.279982 
L 177.475831 202.236833 
z
" style="stroke:#000000;"/>
    <path clip-path="url(#pa71f07653a)" d="M 175.553778 203.145009 
L 177.475831 202.236833 
L 176.349718 203.636083 
z
" style="stroke:#000000;"/>
    <path clip-path="url(#pa71f07653a)" d="M 177.475831 152.075655 
L 175.553778 151.170013 
L 176.349718 150.67789 
z
" style="stroke:#000000;"/>
    <path clip-path="url(#pa71f07653a)" d="M 182.59611 158.412012 
L 181.017478 159.527103 
L 182.374675 162.822198 
z
" style="stroke:#000000;"/>
    <path clip-path="url(#pa71f07653a)" d="M 181.017478 194.788101 
L 182.59611 195.901105 
L 182.374675 191.491212 
z
" style="stroke:#000000;"/>
    <path clip-path="url(#pa71f07653a)" d="M 177.475831 202.236833 
L 175.553778 203.145009 
L 176.118893 200.745086 
z
" style="stroke:#000000;"/>
    <path clip-path="url(#pa71f07653a)" d="M 175.553778 151.170013 
L 177.475831 152.075655 
L 176.118893 153.569191 
z
" style="stroke:#000000;"/>
    <path clip-path="url(#pa71f07653a)" d="M 179.387426 156.419817 
L 179.631175 159.55263 
L 181.017478 159.527103 
z
" style="stroke:#000000;"/>
    <path clip-path="url(#pa71f07653a)" d="M 178.859808 202.279982 
L 179.4779 199.169589 
L 180.864038 199.207772 
z
" style="stroke:#000000;"/>
    <path clip-path="url(#pa71f07653a)" d="M 176.118893 200.745086 
L 179.387426 197.897541 
L 178.00288 197.861441 
z
" style="stroke:#000000;"/>
    <path clip-path="url(#pa71f07653a)" d="M 180.864038 155.107634 
L 181.017478 159.527103 
L 182.59611 158.412012 
z
" style="stroke:#000000;"/>
    <path clip-path="url(#pa71f07653a)" d="M 181.017478 194.788101 
L 180.864038 199.207772 
L 182.59611 195.901105 
z
" style="stroke:#000000;"/>
    <path clip-path="url(#pa71f07653a)" d="M 181.017478 194.788101 
L 178.00288 197.861441 
L 179.387426 197.897541 
z
" style="stroke:#000000;"/>
    <path clip-path="url(#pa71f07653a)" d="M 176.349718 150.67789 
L 178.859808 152.038072 
L 177.475831 152.075655 
z
" style="stroke:#000000;"/>
    <path clip-path="url(#pa71f07653a)" d="M 176.118893 200.745086 
L 175.553778 203.145009 
L 174.717293 202.484906 
z
" style="stroke:#000000;"/>
    <path clip-path="url(#pa71f07653a)" d="M 175.553778 151.170013 
L 176.118893 153.569191 
L 174.717293 151.831219 
z
" style="stroke:#000000;"/>
    <path clip-path="url(#pa71f07653a)" d="M 178.00288 156.450352 
L 177.501401 153.533994 
L 176.118893 153.569191 
z
" style="stroke:#000000;"/>
    <path clip-path="url(#pa71f07653a)" d="M 180.864038 155.107634 
L 177.475831 152.075655 
L 178.859808 152.038072 
z
" style="stroke:#000000;"/>
    <path clip-path="url(#pa71f07653a)" d="M 177.475831 202.236833 
L 177.732477 203.681503 
L 176.349718 203.636083 
z
" style="stroke:#000000;"/>
    <path clip-path="url(#pa71f07653a)" d="M 180.864038 155.107634 
L 179.387426 156.419817 
L 181.017478 159.527103 
z
" style="stroke:#000000;"/>
    <path clip-path="url(#pa71f07653a)" d="M 179.387426 197.897541 
L 180.864038 199.207772 
L 181.017478 194.788101 
z
" style="stroke:#000000;"/>
    <path clip-path="url(#pa71f07653a)" d="M 177.732477 203.681503 
L 175.553778 203.145009 
L 176.349718 203.636083 
z
" style="stroke:#000000;"/>
    <path clip-path="url(#pa71f07653a)" d="M 177.501401 153.533994 
L 178.00288 156.450352 
L 179.387426 156.419817 
z
" style="stroke:#000000;"/>
    <path clip-path="url(#pa71f07653a)" d="M 176.935675 151.130944 
L 176.349718 150.67789 
L 175.553778 151.170013 
z
" style="stroke:#000000;"/>
    <path clip-path="url(#pa71f07653a)" d="M 177.732477 203.681503 
L 177.475831 202.236833 
L 178.859808 202.279982 
z
" style="stroke:#000000;"/>
    <path clip-path="url(#pa71f07653a)" d="M 177.501401 153.533994 
L 174.717293 151.831219 
L 176.118893 153.569191 
z
" style="stroke:#000000;"/>
    <path clip-path="url(#pa71f07653a)" d="M 178.859808 152.038072 
L 179.387426 156.419817 
L 180.864038 155.107634 
z
" style="stroke:#000000;"/>
    <path clip-path="url(#pa71f07653a)" d="M 179.387426 197.897541 
L 178.859808 202.279982 
L 180.864038 199.207772 
z
" style="stroke:#000000;"/>
    <path clip-path="url(#pa71f07653a)" d="M 179.387426 197.897541 
L 176.118893 200.745086 
L 177.501401 200.785855 
z
" style="stroke:#000000;"/>
    <path clip-path="url(#pa71f07653a)" d="M 178.859808 152.038072 
L 176.349718 150.67789 
L 177.732477 150.638041 
z
" style="stroke:#000000;"/>
    <path clip-path="url(#pa71f07653a)" d="M 176.935675 203.189652 
L 174.717293 202.484906 
L 175.553778 203.145009 
z
" style="stroke:#000000;"/>
    <path clip-path="url(#pa71f07653a)" d="M 176.098283 202.5285 
L 176.118893 200.745086 
L 174.717293 202.484906 
z
" style="stroke:#000000;"/>
    <path clip-path="url(#pa71f07653a)" d="M 176.098283 151.793203 
L 175.553778 151.170013 
L 174.717293 151.831219 
z
" style="stroke:#000000;"/>
    <path clip-path="url(#pa71f07653a)" d="M 176.349718 150.67789 
L 176.935675 151.130944 
L 177.732477 150.638041 
z
" style="stroke:#000000;"/>
    <path clip-path="url(#pa71f07653a)" d="M 175.553778 203.145009 
L 177.732477 203.681503 
L 176.935675 203.189652 
z
" style="stroke:#000000;"/>
    <path clip-path="url(#pa71f07653a)" d="M 178.859808 152.038072 
L 177.501401 153.533994 
L 179.387426 156.419817 
z
" style="stroke:#000000;"/>
    <path clip-path="url(#pa71f07653a)" d="M 177.501401 200.785855 
L 178.859808 202.279982 
L 179.387426 197.897541 
z
" style="stroke:#000000;"/>
    <path clip-path="url(#pa71f07653a)" d="M 176.118893 200.745086 
L 176.098283 202.5285 
L 177.501401 200.785855 
z
" style="stroke:#000000;"/>
    <path clip-path="url(#pa71f07653a)" d="M 175.553778 151.170013 
L 176.098283 151.793203 
L 176.935675 151.130944 
z
" style="stroke:#000000;"/>
    <path clip-path="url(#pa71f07653a)" d="M 174.717293 151.831219 
L 177.501401 153.533994 
L 176.098283 151.793203 
z
" style="stroke:#000000;"/>
    <path clip-path="url(#pa71f07653a)" d="M 176.935675 151.130944 
L 178.859808 152.038072 
L 177.732477 150.638041 
z
" style="stroke:#000000;"/>
    <path clip-path="url(#pa71f07653a)" d="M 178.859808 202.279982 
L 176.935675 203.189652 
L 177.732477 203.681503 
z
" style="stroke:#000000;"/>
    <path clip-path="url(#pa71f07653a)" d="M 174.717293 202.484906 
L 176.935675 203.189652 
L 176.098283 202.5285 
z
" style="stroke:#000000;"/>
    <path clip-path="url(#pa71f07653a)" d="M 178.859808 152.038072 
L 176.935675 151.130944 
L 177.501401 153.533994 
z
" style="stroke:#000000;"/>
    <path clip-path="url(#pa71f07653a)" d="M 176.935675 203.189652 
L 178.859808 202.279982 
L 177.501401 200.785855 
z
" style="stroke:#000000;"/>
    <path clip-path="url(#pa71f07653a)" d="M 177.501401 153.533994 
L 176.935675 151.130944 
L 176.098283 151.793203 
z
" style="stroke:#000000;"/>
    <path clip-path="url(#pa71f07653a)" d="M 176.935675 203.189652 
L 177.501401 200.785855 
L 176.098283 202.5285 
z
" style="stroke:#000000;"/>
   </g>
  </g>
 </g>
 <defs>
  <clipPath id="pa71f07653a">
   <rect height="271.8" width="279" x="45" y="43.2"/>
  </clipPath>
 </defs>
</svg>
