<?xml version="1.0" encoding="utf-8" standalone="no"?>
<!DOCTYPE svg PUBLIC "-//W3C//DTD SVG 1.1//EN"
  "http://www.w3.org/Graphics/SVG/1.1/DTD/svg11.dtd">
<!-- Created with matplotlib (https://matplotlib.org/) -->
<svg height="360pt" version="1.1" viewBox="0 0 360 360" width="360pt" xmlns="http://www.w3.org/2000/svg" xmlns:xlink="http://www.w3.org/1999/xlink">
 <defs>
  <style type="text/css">
*{stroke-linecap:butt;stroke-linejoin:round;}
  </style>
 </defs>
 <g id="figure_1">
  <g id="patch_1">
   <path d="M 0 360 
L 360 360 
L 360 0 
L 0 0 
z
" style="fill:#ffffff;"/>
  </g>
  <g id="patch_2">
   <path d="M 45 315 
L 324 315 
L 324 43.2 
L 45 43.2 
z
" style="fill:#ffffff;"/>
  </g>
  <g id="axes_1">
   <g id="Poly3DCollection_1">
    <path clip-path="url(#p562d65f43d)" d="M 199.074298 201.552915 
L 198.548004 199.308541 
L 199.852514 200.917134 
z
" style="stroke:#000000;"/>
    <path clip-path="url(#p562d65f43d)" d="M 198.548004 154.976164 
L 199.074298 152.731095 
L 199.852514 153.365851 
z
" style="stroke:#000000;"/>
    <path clip-path="url(#p562d65f43d)" d="M 199.074298 201.552915 
L 197.282484 200.735711 
L 198.548004 199.308541 
z
" style="stroke:#000000;"/>
    <path clip-path="url(#p562d65f43d)" d="M 197.282484 153.550662 
L 199.074298 152.731095 
L 198.548004 154.976164 
z
" style="stroke:#000000;"/>
    <path clip-path="url(#p562d65f43d)" d="M 201.186807 200.955683 
L 199.074298 201.552915 
L 199.852514 200.917134 
z
" style="stroke:#000000;"/>
    <path clip-path="url(#p562d65f43d)" d="M 197.282484 200.735711 
L 199.074298 201.552915 
L 198.332909 202.029814 
z
" style="stroke:#000000;"/>
    <path clip-path="url(#p562d65f43d)" d="M 199.074298 152.731095 
L 197.282484 153.550662 
L 198.332909 152.255174 
z
" style="stroke:#000000;"/>
    <path clip-path="url(#p562d65f43d)" d="M 201.186807 153.332488 
L 198.548004 154.976164 
L 199.852514 153.365851 
z
" style="stroke:#000000;"/>
    <path clip-path="url(#p562d65f43d)" d="M 200.407813 152.696762 
L 199.852514 153.365851 
L 199.074298 152.731095 
z
" style="stroke:#000000;"/>
    <path clip-path="url(#p562d65f43d)" d="M 199.880993 199.344675 
L 199.852514 200.917134 
L 198.548004 199.308541 
z
" style="stroke:#000000;"/>
    <path clip-path="url(#p562d65f43d)" d="M 197.282484 200.735711 
L 196.790258 196.628166 
L 198.548004 199.308541 
z
" style="stroke:#000000;"/>
    <path clip-path="url(#p562d65f43d)" d="M 196.790258 157.658856 
L 197.282484 153.550662 
L 198.548004 154.976164 
z
" style="stroke:#000000;"/>
    <path clip-path="url(#p562d65f43d)" d="M 200.407813 201.592438 
L 198.332909 202.029814 
L 199.074298 201.552915 
z
" style="stroke:#000000;"/>
    <path clip-path="url(#p562d65f43d)" d="M 199.665683 152.220111 
L 199.074298 152.731095 
L 198.332909 152.255174 
z
" style="stroke:#000000;"/>
    <path clip-path="url(#p562d65f43d)" d="M 199.852514 153.365851 
L 200.407813 152.696762 
L 201.186807 153.332488 
z
" style="stroke:#000000;"/>
    <path clip-path="url(#p562d65f43d)" d="M 199.852514 200.917134 
L 199.880993 199.344675 
L 201.186807 200.955683 
z
" style="stroke:#000000;"/>
    <path clip-path="url(#p562d65f43d)" d="M 199.074298 201.552915 
L 201.186807 200.955683 
L 200.407813 201.592438 
z
" style="stroke:#000000;"/>
    <path clip-path="url(#p562d65f43d)" d="M 197.282484 153.550662 
L 199.665683 152.220111 
L 198.332909 152.255174 
z
" style="stroke:#000000;"/>
    <path clip-path="url(#p562d65f43d)" d="M 196.790258 196.628166 
L 199.880993 199.344675 
L 198.548004 199.308541 
z
" style="stroke:#000000;"/>
    <path clip-path="url(#p562d65f43d)" d="M 195.41065 197.883647 
L 196.790258 196.628166 
L 197.282484 200.735711 
z
" style="stroke:#000000;"/>
    <path clip-path="url(#p562d65f43d)" d="M 196.790258 157.658856 
L 195.41065 156.405194 
L 197.282484 153.550662 
z
" style="stroke:#000000;"/>
    <path clip-path="url(#p562d65f43d)" d="M 198.548004 154.976164 
L 201.186807 153.332488 
L 199.880993 154.945221 
z
" style="stroke:#000000;"/>
    <path clip-path="url(#p562d65f43d)" d="M 198.332909 202.029814 
L 198.614206 200.774024 
L 197.282484 200.735711 
z
" style="stroke:#000000;"/>
    <path clip-path="url(#p562d65f43d)" d="M 199.074298 152.731095 
L 199.665683 152.220111 
L 200.407813 152.696762 
z
" style="stroke:#000000;"/>
    <path clip-path="url(#p562d65f43d)" d="M 198.548004 154.976164 
L 198.121487 157.631954 
L 196.790258 157.658856 
z
" style="stroke:#000000;"/>
    <path clip-path="url(#p562d65f43d)" d="M 198.332909 202.029814 
L 200.407813 201.592438 
L 199.665683 202.070069 
z
" style="stroke:#000000;"/>
    <path clip-path="url(#p562d65f43d)" d="M 195.41065 197.883647 
L 195.267116 193.728794 
L 196.790258 196.628166 
z
" style="stroke:#000000;"/>
    <path clip-path="url(#p562d65f43d)" d="M 195.267116 160.560237 
L 195.41065 156.405194 
L 196.790258 157.658856 
z
" style="stroke:#000000;"/>
    <path clip-path="url(#p562d65f43d)" d="M 198.614206 200.774024 
L 198.332909 202.029814 
L 199.665683 202.070069 
z
" style="stroke:#000000;"/>
    <path clip-path="url(#p562d65f43d)" d="M 195.41065 156.405194 
L 198.614206 153.517546 
L 197.282484 153.550662 
z
" style="stroke:#000000;"/>
    <path clip-path="url(#p562d65f43d)" d="M 198.121487 157.631954 
L 198.548004 154.976164 
L 199.880993 154.945221 
z
" style="stroke:#000000;"/>
    <path clip-path="url(#p562d65f43d)" d="M 200.407813 152.696762 
L 199.880993 154.945221 
L 201.186807 153.332488 
z
" style="stroke:#000000;"/>
    <path clip-path="url(#p562d65f43d)" d="M 199.880993 199.344675 
L 200.407813 201.592438 
L 201.186807 200.955683 
z
" style="stroke:#000000;"/>
    <path clip-path="url(#p562d65f43d)" d="M 199.665683 152.220111 
L 197.282484 153.550662 
L 198.614206 153.517546 
z
" style="stroke:#000000;"/>
    <path clip-path="url(#p562d65f43d)" d="M 195.267116 193.728794 
L 198.121487 196.660267 
L 196.790258 196.628166 
z
" style="stroke:#000000;"/>
    <path clip-path="url(#p562d65f43d)" d="M 193.788512 194.798353 
L 195.267116 193.728794 
L 195.41065 197.883647 
z
" style="stroke:#000000;"/>
    <path clip-path="url(#p562d65f43d)" d="M 195.267116 160.560237 
L 193.788512 159.492627 
L 195.41065 156.405194 
z
" style="stroke:#000000;"/>
    <path clip-path="url(#p562d65f43d)" d="M 199.880993 199.344675 
L 196.790258 196.628166 
L 198.121487 196.660267 
z
" style="stroke:#000000;"/>
    <path clip-path="url(#p562d65f43d)" d="M 197.282484 200.735711 
L 196.740496 197.917667 
L 195.41065 197.883647 
z
" style="stroke:#000000;"/>
    <path clip-path="url(#p562d65f43d)" d="M 196.790258 157.658856 
L 196.596818 160.537714 
L 195.267116 160.560237 
z
" style="stroke:#000000;"/>
    <path clip-path="url(#p562d65f43d)" d="M 200.407813 152.696762 
L 198.614206 153.517546 
L 199.880993 154.945221 
z
" style="stroke:#000000;"/>
    <path clip-path="url(#p562d65f43d)" d="M 198.614206 200.774024 
L 200.407813 201.592438 
L 199.880993 199.344675 
z
" style="stroke:#000000;"/>
    <path clip-path="url(#p562d65f43d)" d="M 195.267116 193.728794 
L 193.788512 194.798353 
L 193.996125 190.6428 
z
" style="stroke:#000000;"/>
    <path clip-path="url(#p562d65f43d)" d="M 193.788512 159.492627 
L 195.267116 160.560237 
L 193.996125 163.647906 
z
" style="stroke:#000000;"/>
    <path clip-path="url(#p562d65f43d)" d="M 198.614206 153.517546 
L 200.407813 152.696762 
L 199.665683 152.220111 
z
" style="stroke:#000000;"/>
    <path clip-path="url(#p562d65f43d)" d="M 200.407813 201.592438 
L 198.614206 200.774024 
L 199.665683 202.070069 
z
" style="stroke:#000000;"/>
    <path clip-path="url(#p562d65f43d)" d="M 196.740496 197.917667 
L 197.282484 200.735711 
L 198.614206 200.774024 
z
" style="stroke:#000000;"/>
    <path clip-path="url(#p562d65f43d)" d="M 196.596818 160.537714 
L 196.790258 157.658856 
L 198.121487 157.631954 
z
" style="stroke:#000000;"/>
    <path clip-path="url(#p562d65f43d)" d="M 198.614206 153.517546 
L 198.121487 157.631954 
L 199.880993 154.945221 
z
" style="stroke:#000000;"/>
    <path clip-path="url(#p562d65f43d)" d="M 198.121487 196.660267 
L 198.614206 200.774024 
L 199.880993 199.344675 
z
" style="stroke:#000000;"/>
    <path clip-path="url(#p562d65f43d)" d="M 193.788512 159.492627 
L 196.740496 156.376378 
L 195.41065 156.405194 
z
" style="stroke:#000000;"/>
    <path clip-path="url(#p562d65f43d)" d="M 193.996125 190.6428 
L 196.596818 193.75652 
L 195.267116 193.728794 
z
" style="stroke:#000000;"/>
    <path clip-path="url(#p562d65f43d)" d="M 192.434803 191.51395 
L 193.996125 190.6428 
L 193.788512 194.798353 
z
" style="stroke:#000000;"/>
    <path clip-path="url(#p562d65f43d)" d="M 193.996125 163.647906 
L 192.434803 162.778816 
L 193.788512 159.492627 
z
" style="stroke:#000000;"/>
    <path clip-path="url(#p562d65f43d)" d="M 198.614206 153.517546 
L 195.41065 156.405194 
L 196.740496 156.376378 
z
" style="stroke:#000000;"/>
    <path clip-path="url(#p562d65f43d)" d="M 198.121487 196.660267 
L 195.267116 193.728794 
L 196.596818 193.75652 
z
" style="stroke:#000000;"/>
    <path clip-path="url(#p562d65f43d)" d="M 193.996125 190.6428 
L 192.434803 191.51395 
L 192.991961 187.404615 
z
" style="stroke:#000000;"/>
    <path clip-path="url(#p562d65f43d)" d="M 192.434803 162.778816 
L 193.996125 163.647906 
L 192.991961 166.887415 
z
" style="stroke:#000000;"/>
    <path clip-path="url(#p562d65f43d)" d="M 195.267116 160.560237 
L 195.32455 163.630052 
L 193.996125 163.647906 
z
" style="stroke:#000000;"/>
    <path clip-path="url(#p562d65f43d)" d="M 195.41065 197.883647 
L 195.116728 194.827717 
L 193.788512 194.798353 
z
" style="stroke:#000000;"/>
    <path clip-path="url(#p562d65f43d)" d="M 196.740496 156.376378 
L 198.121487 157.631954 
L 198.614206 153.517546 
z
" style="stroke:#000000;"/>
    <path clip-path="url(#p562d65f43d)" d="M 198.121487 196.660267 
L 196.740496 197.917667 
L 198.614206 200.774024 
z
" style="stroke:#000000;"/>
    <path clip-path="url(#p562d65f43d)" d="M 192.991961 187.404615 
L 195.32455 190.665863 
L 193.996125 190.6428 
z
" style="stroke:#000000;"/>
    <path clip-path="url(#p562d65f43d)" d="M 191.365244 188.067293 
L 192.991961 187.404615 
L 192.434803 191.51395 
z
" style="stroke:#000000;"/>
    <path clip-path="url(#p562d65f43d)" d="M 192.991961 166.887415 
L 191.365244 166.226883 
L 192.434803 162.778816 
z
" style="stroke:#000000;"/>
    <path clip-path="url(#p562d65f43d)" d="M 195.116728 194.827717 
L 195.41065 197.883647 
L 196.740496 197.917667 
z
" style="stroke:#000000;"/>
    <path clip-path="url(#p562d65f43d)" d="M 195.32455 163.630052 
L 195.267116 160.560237 
L 196.596818 160.537714 
z
" style="stroke:#000000;"/>
    <path clip-path="url(#p562d65f43d)" d="M 192.991961 187.404615 
L 191.365244 188.067293 
L 192.266256 184.050562 
z
" style="stroke:#000000;"/>
    <path clip-path="url(#p562d65f43d)" d="M 191.365244 166.226883 
L 192.991961 166.887415 
L 192.266256 170.242426 
z
" style="stroke:#000000;"/>
    <path clip-path="url(#p562d65f43d)" d="M 192.434803 162.778816 
L 195.116728 159.468473 
L 193.788512 159.492627 
z
" style="stroke:#000000;"/>
    <path clip-path="url(#p562d65f43d)" d="M 193.996125 163.647906 
L 194.319375 166.874467 
L 192.991961 166.887415 
z
" style="stroke:#000000;"/>
    <path clip-path="url(#p562d65f43d)" d="M 196.740496 156.376378 
L 196.596818 160.537714 
L 198.121487 157.631954 
z
" style="stroke:#000000;"/>
    <path clip-path="url(#p562d65f43d)" d="M 196.596818 193.75652 
L 196.740496 197.917667 
L 198.121487 196.660267 
z
" style="stroke:#000000;"/>
    <path clip-path="url(#p562d65f43d)" d="M 196.596818 193.75652 
L 193.996125 190.6428 
L 195.32455 190.665863 
z
" style="stroke:#000000;"/>
    <path clip-path="url(#p562d65f43d)" d="M 196.740496 156.376378 
L 193.788512 159.492627 
L 195.116728 159.468473 
z
" style="stroke:#000000;"/>
    <path clip-path="url(#p562d65f43d)" d="M 193.788512 194.798353 
L 193.761657 191.538348 
L 192.434803 191.51395 
z
" style="stroke:#000000;"/>
    <path clip-path="url(#p562d65f43d)" d="M 192.266256 184.050562 
L 190.592237 184.497069 
L 191.82744 180.618421 
z
" style="stroke:#000000;"/>
    <path clip-path="url(#p562d65f43d)" d="M 190.592237 169.798126 
L 192.266256 170.242426 
L 191.82744 173.675146 
z
" style="stroke:#000000;"/>
    <path clip-path="url(#p562d65f43d)" d="M 192.266256 184.050562 
L 194.319375 187.422777 
L 192.991961 187.404615 
z
" style="stroke:#000000;"/>
    <path clip-path="url(#p562d65f43d)" d="M 190.592237 184.497069 
L 192.266256 184.050562 
L 191.365244 188.067293 
z
" style="stroke:#000000;"/>
    <path clip-path="url(#p562d65f43d)" d="M 192.266256 170.242426 
L 190.592237 169.798126 
L 191.365244 166.226883 
z
" style="stroke:#000000;"/>
    <path clip-path="url(#p562d65f43d)" d="M 190.124796 173.452268 
L 191.82744 173.675146 
L 191.680591 177.14688 
z
" style="stroke:#000000;"/>
    <path clip-path="url(#p562d65f43d)" d="M 191.82744 180.618421 
L 190.124796 180.843544 
L 191.680591 177.14688 
z
" style="stroke:#000000;"/>
    <path clip-path="url(#p562d65f43d)" d="M 192.991961 166.887415 
L 193.592941 170.234562 
L 192.266256 170.242426 
z
" style="stroke:#000000;"/>
    <path clip-path="url(#p562d65f43d)" d="M 194.319375 166.874467 
L 193.996125 163.647906 
L 195.32455 163.630052 
z
" style="stroke:#000000;"/>
    <path clip-path="url(#p562d65f43d)" d="M 195.116728 159.468473 
L 196.596818 160.537714 
L 196.740496 156.376378 
z
" style="stroke:#000000;"/>
    <path clip-path="url(#p562d65f43d)" d="M 196.596818 193.75652 
L 195.116728 194.827717 
L 196.740496 197.917667 
z
" style="stroke:#000000;"/>
    <path clip-path="url(#p562d65f43d)" d="M 190.124796 180.843544 
L 191.82744 180.618421 
L 190.592237 184.497069 
z
" style="stroke:#000000;"/>
    <path clip-path="url(#p562d65f43d)" d="M 191.82744 173.675146 
L 190.124796 173.452268 
L 190.592237 169.798126 
z
" style="stroke:#000000;"/>
    <path clip-path="url(#p562d65f43d)" d="M 191.82744 180.618421 
L 193.592941 184.063641 
L 192.266256 184.050562 
z
" style="stroke:#000000;"/>
    <path clip-path="url(#p562d65f43d)" d="M 191.365244 166.226883 
L 193.761657 162.759633 
L 192.434803 162.778816 
z
" style="stroke:#000000;"/>
    <path clip-path="url(#p562d65f43d)" d="M 193.761657 191.538348 
L 193.788512 194.798353 
L 195.116728 194.827717 
z
" style="stroke:#000000;"/>
    <path clip-path="url(#p562d65f43d)" d="M 195.32455 190.665863 
L 192.991961 187.404615 
L 194.319375 187.422777 
z
" style="stroke:#000000;"/>
    <path clip-path="url(#p562d65f43d)" d="M 192.266256 170.242426 
L 193.153682 173.672488 
L 191.82744 173.675146 
z
" style="stroke:#000000;"/>
    <path clip-path="url(#p562d65f43d)" d="M 189.968378 177.148009 
L 191.680591 177.14688 
L 190.124796 180.843544 
z
" style="stroke:#000000;"/>
    <path clip-path="url(#p562d65f43d)" d="M 191.680591 177.14688 
L 189.968378 177.148009 
L 190.124796 173.452268 
z
" style="stroke:#000000;"/>
    <path clip-path="url(#p562d65f43d)" d="M 191.680591 177.14688 
L 193.153682 180.626296 
L 191.82744 180.618421 
z
" style="stroke:#000000;"/>
    <path clip-path="url(#p562d65f43d)" d="M 191.82744 173.675146 
L 193.006685 177.149489 
L 191.680591 177.14688 
z
" style="stroke:#000000;"/>
    <path clip-path="url(#p562d65f43d)" d="M 192.434803 191.51395 
L 192.691021 188.086471 
L 191.365244 188.067293 
z
" style="stroke:#000000;"/>
    <path clip-path="url(#p562d65f43d)" d="M 196.596818 160.537714 
L 195.116728 159.468473 
L 195.32455 163.630052 
z
" style="stroke:#000000;"/>
    <path clip-path="url(#p562d65f43d)" d="M 195.116728 194.827717 
L 196.596818 193.75652 
L 195.32455 190.665863 
z
" style="stroke:#000000;"/>
    <path clip-path="url(#p562d65f43d)" d="M 195.116728 159.468473 
L 192.434803 162.778816 
L 193.761657 162.759633 
z
" style="stroke:#000000;"/>
    <path clip-path="url(#p562d65f43d)" d="M 193.592941 170.234562 
L 192.991961 166.887415 
L 194.319375 166.874467 
z
" style="stroke:#000000;"/>
    <path clip-path="url(#p562d65f43d)" d="M 191.965741 154.535227 
L 187.681928 161.578604 
L 190.539365 154.965674 
z
" style="stroke:#000000;"/>
    <path clip-path="url(#p562d65f43d)" d="M 190.539365 154.965674 
L 187.681928 150.962072 
L 191.965741 154.535227 
z
" style="stroke:#000000;"/>
    <path clip-path="url(#p562d65f43d)" d="M 194.319375 187.422777 
L 192.266256 184.050562 
L 193.592941 184.063641 
z
" style="stroke:#000000;"/>
    <path clip-path="url(#p562d65f43d)" d="M 190.592237 169.798126 
L 192.691021 166.212924 
L 191.365244 166.226883 
z
" style="stroke:#000000;"/>
    <path clip-path="url(#p562d65f43d)" d="M 191.365244 188.067293 
L 191.917234 184.510834 
L 190.592237 184.497069 
z
" style="stroke:#000000;"/>
    <path clip-path="url(#p562d65f43d)" d="M 193.153682 173.672488 
L 192.266256 170.242426 
L 193.592941 170.234562 
z
" style="stroke:#000000;"/>
    <path clip-path="url(#p562d65f43d)" d="M 193.761657 162.759633 
L 195.32455 163.630052 
L 195.116728 159.468473 
z
" style="stroke:#000000;"/>
    <path clip-path="url(#p562d65f43d)" d="M 195.32455 190.665863 
L 193.761657 191.538348 
L 195.116728 194.827717 
z
" style="stroke:#000000;"/>
    <path clip-path="url(#p562d65f43d)" d="M 192.691021 188.086471 
L 192.434803 191.51395 
L 193.761657 191.538348 
z
" style="stroke:#000000;"/>
    <path clip-path="url(#p562d65f43d)" d="M 193.592941 184.063641 
L 191.82744 180.618421 
L 193.153682 180.626296 
z
" style="stroke:#000000;"/>
    <path clip-path="url(#p562d65f43d)" d="M 195.32455 163.630052 
L 193.761657 162.759633 
L 194.319375 166.874467 
z
" style="stroke:#000000;"/>
    <path clip-path="url(#p562d65f43d)" d="M 193.761657 191.538348 
L 195.32455 190.665863 
L 194.319375 187.422777 
z
" style="stroke:#000000;"/>
    <path clip-path="url(#p562d65f43d)" d="M 193.006685 177.149489 
L 191.82744 173.675146 
L 193.153682 173.672488 
z
" style="stroke:#000000;"/>
    <path clip-path="url(#p562d65f43d)" d="M 190.124796 173.452268 
L 191.917234 169.789583 
L 190.592237 169.798126 
z
" style="stroke:#000000;"/>
    <path clip-path="url(#p562d65f43d)" d="M 187.681928 161.578604 
L 191.965741 154.535227 
L 187.681928 165.117447 
z
" style="stroke:#000000;"/>
    <path clip-path="url(#p562d65f43d)" d="M 193.153682 180.626296 
L 191.680591 177.14688 
L 193.006685 177.149489 
z
" style="stroke:#000000;"/>
    <path clip-path="url(#p562d65f43d)" d="M 193.761657 162.759633 
L 191.365244 166.226883 
L 192.691021 166.212924 
z
" style="stroke:#000000;"/>
    <path clip-path="url(#p562d65f43d)" d="M 190.592237 184.497069 
L 191.449321 180.851766 
L 190.124796 180.843544 
z
" style="stroke:#000000;"/>
    <path clip-path="url(#p562d65f43d)" d="M 189.968378 177.148009 
L 191.449321 173.44927 
L 190.124796 173.452268 
z
" style="stroke:#000000;"/>
    <path clip-path="url(#p562d65f43d)" d="M 190.124796 180.843544 
L 191.292745 177.150621 
L 189.968378 177.148009 
z
" style="stroke:#000000;"/>
    <path clip-path="url(#p562d65f43d)" d="M 187.681928 150.962072 
L 190.539365 154.965674 
L 187.681928 152.731494 
z
" style="stroke:#000000;"/>
    <path clip-path="url(#p562d65f43d)" d="M 191.917234 184.510834 
L 191.365244 188.067293 
L 192.691021 188.086471 
z
" style="stroke:#000000;"/>
    <path clip-path="url(#p562d65f43d)" d="M 192.691021 166.212924 
L 194.319375 166.874467 
L 193.761657 162.759633 
z
" style="stroke:#000000;"/>
    <path clip-path="url(#p562d65f43d)" d="M 194.319375 187.422777 
L 192.691021 188.086471 
L 193.761657 191.538348 
z
" style="stroke:#000000;"/>
    <path clip-path="url(#p562d65f43d)" d="M 191.864308 154.934619 
L 187.681928 152.731494 
L 190.539365 154.965674 
z
" style="stroke:#000000;"/>
    <path clip-path="url(#p562d65f43d)" d="M 187.681928 161.578604 
L 191.864308 154.934619 
L 190.539365 154.965674 
z
" style="stroke:#000000;"/>
    <path clip-path="url(#p562d65f43d)" d="M 194.319375 166.874467 
L 192.691021 166.212924 
L 193.592941 170.234562 
z
" style="stroke:#000000;"/>
    <path clip-path="url(#p562d65f43d)" d="M 192.691021 188.086471 
L 194.319375 187.422777 
L 193.592941 184.063641 
z
" style="stroke:#000000;"/>
    <path clip-path="url(#p562d65f43d)" d="M 192.691021 166.212924 
L 190.592237 169.798126 
L 191.917234 169.789583 
z
" style="stroke:#000000;"/>
    <path clip-path="url(#p562d65f43d)" d="M 191.965741 154.535227 
L 189.003983 150.9249 
L 193.292123 154.503536 
z
" style="stroke:#000000;"/>
    <path clip-path="url(#p562d65f43d)" d="M 189.003983 165.101783 
L 191.965741 154.535227 
L 193.292123 154.503536 
z
" style="stroke:#000000;"/>
    <path clip-path="url(#p562d65f43d)" d="M 191.449321 180.851766 
L 190.592237 184.497069 
L 191.917234 184.510834 
z
" style="stroke:#000000;"/>
    <path clip-path="url(#p562d65f43d)" d="M 189.003983 150.9249 
L 191.965741 154.535227 
L 187.681928 150.962072 
z
" style="stroke:#000000;"/>
    <path clip-path="url(#p562d65f43d)" d="M 191.965741 154.535227 
L 189.003983 165.101783 
L 187.681928 165.117447 
z
" style="stroke:#000000;"/>
    <path clip-path="url(#p562d65f43d)" d="M 191.917234 169.789583 
L 190.124796 173.452268 
L 191.449321 173.44927 
z
" style="stroke:#000000;"/>
    <path clip-path="url(#p562d65f43d)" d="M 193.592941 170.234562 
L 191.917234 169.789583 
L 193.153682 173.672488 
z
" style="stroke:#000000;"/>
    <path clip-path="url(#p562d65f43d)" d="M 191.917234 184.510834 
L 193.592941 184.063641 
L 193.153682 180.626296 
z
" style="stroke:#000000;"/>
    <path clip-path="url(#p562d65f43d)" d="M 191.917234 169.789583 
L 193.592941 170.234562 
L 192.691021 166.212924 
z
" style="stroke:#000000;"/>
    <path clip-path="url(#p562d65f43d)" d="M 193.592941 184.063641 
L 191.917234 184.510834 
L 192.691021 188.086471 
z
" style="stroke:#000000;"/>
    <path clip-path="url(#p562d65f43d)" d="M 191.292745 177.150621 
L 190.124796 180.843544 
L 191.449321 180.851766 
z
" style="stroke:#000000;"/>
    <path clip-path="url(#p562d65f43d)" d="M 191.449321 173.44927 
L 189.968378 177.148009 
L 191.292745 177.150621 
z
" style="stroke:#000000;"/>
    <path clip-path="url(#p562d65f43d)" d="M 191.449321 180.851766 
L 193.153682 180.626296 
L 193.006685 177.149489 
z
" style="stroke:#000000;"/>
    <path clip-path="url(#p562d65f43d)" d="M 193.153682 173.672488 
L 191.449321 173.44927 
L 193.006685 177.149489 
z
" style="stroke:#000000;"/>
    <path clip-path="url(#p562d65f43d)" d="M 191.449321 173.44927 
L 193.153682 173.672488 
L 191.917234 169.789583 
z
" style="stroke:#000000;"/>
    <path clip-path="url(#p562d65f43d)" d="M 193.153682 180.626296 
L 191.449321 180.851766 
L 191.917234 184.510834 
z
" style="stroke:#000000;"/>
    <path clip-path="url(#p562d65f43d)" d="M 184.818227 154.92082 
L 187.681928 150.962072 
L 187.681928 152.731494 
z
" style="stroke:#000000;"/>
    <path clip-path="url(#p562d65f43d)" d="M 191.292745 177.150621 
L 193.006685 177.149489 
L 191.449321 173.44927 
z
" style="stroke:#000000;"/>
    <path clip-path="url(#p562d65f43d)" d="M 193.006685 177.149489 
L 191.292745 177.150621 
L 191.449321 180.851766 
z
" style="stroke:#000000;"/>
    <path clip-path="url(#p562d65f43d)" d="M 183.384022 154.466492 
L 187.681928 161.578604 
L 187.681928 165.117447 
z
" style="stroke:#000000;"/>
    <path clip-path="url(#p562d65f43d)" d="M 189.003983 150.9249 
L 191.864308 154.934619 
L 193.292123 154.503536 
z
" style="stroke:#000000;"/>
    <path clip-path="url(#p562d65f43d)" d="M 189.003983 161.557562 
L 193.292123 154.503536 
L 191.864308 154.934619 
z
" style="stroke:#000000;"/>
    <path clip-path="url(#p562d65f43d)" d="M 187.681928 152.731494 
L 191.864308 154.934619 
L 189.003983 152.697011 
z
" style="stroke:#000000;"/>
    <path clip-path="url(#p562d65f43d)" d="M 191.864308 154.934619 
L 187.681928 161.578604 
L 189.003983 161.557562 
z
" style="stroke:#000000;"/>
    <path clip-path="url(#p562d65f43d)" d="M 189.003983 152.697011 
L 184.818227 154.92082 
L 187.681928 152.731494 
z
" style="stroke:#000000;"/>
    <path clip-path="url(#p562d65f43d)" d="M 184.818227 154.92082 
L 189.003983 161.557562 
L 187.681928 161.578604 
z
" style="stroke:#000000;"/>
    <path clip-path="url(#p562d65f43d)" d="M 187.681928 150.962072 
L 184.818227 154.92082 
L 183.384022 154.466492 
z
" style="stroke:#000000;"/>
    <path clip-path="url(#p562d65f43d)" d="M 187.681928 161.578604 
L 183.384022 154.466492 
L 184.818227 154.92082 
z
" style="stroke:#000000;"/>
    <path clip-path="url(#p562d65f43d)" d="M 189.003983 161.557562 
L 189.003983 165.101783 
L 193.292123 154.503536 
z
" style="stroke:#000000;"/>
    <path clip-path="url(#p562d65f43d)" d="M 183.670989 177.15216 
L 185.39147 177.151026 
L 185.234484 180.853692 
z
" style="stroke:#000000;"/>
    <path clip-path="url(#p562d65f43d)" d="M 185.39147 177.151026 
L 183.670989 177.15216 
L 185.234484 173.448568 
z
" style="stroke:#000000;"/>
    <path clip-path="url(#p562d65f43d)" d="M 189.003983 150.9249 
L 189.003983 152.697011 
L 191.864308 154.934619 
z
" style="stroke:#000000;"/>
    <path clip-path="url(#p562d65f43d)" d="M 183.52322 180.634947 
L 185.234484 180.853692 
L 184.765121 184.51732 
z
" style="stroke:#000000;"/>
    <path clip-path="url(#p562d65f43d)" d="M 185.234484 173.448568 
L 183.52322 173.669569 
L 184.765121 169.785558 
z
" style="stroke:#000000;"/>
    <path clip-path="url(#p562d65f43d)" d="M 183.52322 173.669569 
L 185.234484 173.448568 
L 183.670989 177.15216 
z
" style="stroke:#000000;"/>
    <path clip-path="url(#p562d65f43d)" d="M 185.234484 180.853692 
L 183.52322 180.634947 
L 183.670989 177.15216 
z
" style="stroke:#000000;"/>
    <path clip-path="url(#p562d65f43d)" d="M 185.234484 173.448568 
L 186.711202 177.153648 
L 185.39147 177.151026 
z
" style="stroke:#000000;"/>
    <path clip-path="url(#p562d65f43d)" d="M 185.39147 177.151026 
L 186.554056 180.861945 
L 185.234484 180.853692 
z
" style="stroke:#000000;"/>
    <path clip-path="url(#p562d65f43d)" d="M 183.081456 184.08093 
L 184.765121 184.51732 
L 183.988198 188.103033 
z
" style="stroke:#000000;"/>
    <path clip-path="url(#p562d65f43d)" d="M 184.765121 169.785558 
L 183.081456 170.224168 
L 183.988198 166.200869 
z
" style="stroke:#000000;"/>
    <path clip-path="url(#p562d65f43d)" d="M 184.765121 184.51732 
L 183.081456 184.08093 
L 183.52322 180.634947 
z
" style="stroke:#000000;"/>
    <path clip-path="url(#p562d65f43d)" d="M 183.081456 170.224168 
L 184.765121 169.785558 
L 183.52322 173.669569 
z
" style="stroke:#000000;"/>
    <path clip-path="url(#p562d65f43d)" d="M 184.765121 169.785558 
L 186.554056 173.445559 
L 185.234484 173.448568 
z
" style="stroke:#000000;"/>
    <path clip-path="url(#p562d65f43d)" d="M 187.681928 150.962072 
L 184.701713 154.434593 
L 189.003983 150.9249 
z
" style="stroke:#000000;"/>
    <path clip-path="url(#p562d65f43d)" d="M 184.701713 154.434593 
L 187.681928 165.117447 
L 189.003983 165.101783 
z
" style="stroke:#000000;"/>
    <path clip-path="url(#p562d65f43d)" d="M 185.234484 180.853692 
L 186.084217 184.531147 
L 184.765121 184.51732 
z
" style="stroke:#000000;"/>
    <path clip-path="url(#p562d65f43d)" d="M 184.701713 154.434593 
L 187.681928 150.962072 
L 183.384022 154.466492 
z
" style="stroke:#000000;"/>
    <path clip-path="url(#p562d65f43d)" d="M 187.681928 165.117447 
L 184.701713 154.434593 
L 183.384022 154.466492 
z
" style="stroke:#000000;"/>
    <path clip-path="url(#p562d65f43d)" d="M 183.988198 166.200869 
L 186.084217 169.776977 
L 184.765121 169.785558 
z
" style="stroke:#000000;"/>
    <path clip-path="url(#p562d65f43d)" d="M 183.988198 188.103033 
L 182.350224 187.4535 
L 183.081456 184.08093 
z
" style="stroke:#000000;"/>
    <path clip-path="url(#p562d65f43d)" d="M 182.350224 166.852562 
L 183.988198 166.200869 
L 183.081456 170.224168 
z
" style="stroke:#000000;"/>
    <path clip-path="url(#p562d65f43d)" d="M 184.818227 154.92082 
L 189.003983 152.697011 
L 186.137377 154.889629 
z
" style="stroke:#000000;"/>
    <path clip-path="url(#p562d65f43d)" d="M 189.003983 161.557562 
L 184.818227 154.92082 
L 186.137377 154.889629 
z
" style="stroke:#000000;"/>
    <path clip-path="url(#p562d65f43d)" d="M 182.350224 187.4535 
L 183.988198 188.103033 
L 182.911698 191.572692 
z
" style="stroke:#000000;"/>
    <path clip-path="url(#p562d65f43d)" d="M 183.988198 166.200869 
L 182.350224 166.852562 
L 182.911698 162.73263 
z
" style="stroke:#000000;"/>
    <path clip-path="url(#p562d65f43d)" d="M 184.765121 184.51732 
L 185.306504 188.122321 
L 183.988198 188.103033 
z
" style="stroke:#000000;"/>
    <path clip-path="url(#p562d65f43d)" d="M 189.003983 150.9249 
L 186.137377 154.889629 
L 189.003983 152.697011 
z
" style="stroke:#000000;"/>
    <path clip-path="url(#p562d65f43d)" d="M 186.554056 180.861945 
L 185.39147 177.151026 
L 186.711202 177.153648 
z
" style="stroke:#000000;"/>
    <path clip-path="url(#p562d65f43d)" d="M 186.711202 177.153648 
L 185.234484 173.448568 
L 186.554056 173.445559 
z
" style="stroke:#000000;"/>
    <path clip-path="url(#p562d65f43d)" d="M 186.084217 184.531147 
L 185.234484 180.853692 
L 186.554056 180.861945 
z
" style="stroke:#000000;"/>
    <path clip-path="url(#p562d65f43d)" d="M 182.911698 162.73263 
L 185.306504 166.186831 
L 183.988198 166.200869 
z
" style="stroke:#000000;"/>
    <path clip-path="url(#p562d65f43d)" d="M 183.52322 180.634947 
L 184.988972 177.154786 
L 183.670989 177.15216 
z
" style="stroke:#000000;"/>
    <path clip-path="url(#p562d65f43d)" d="M 189.003983 161.557562 
L 184.701713 154.434593 
L 189.003983 165.101783 
z
" style="stroke:#000000;"/>
    <path clip-path="url(#p562d65f43d)" d="M 186.554056 173.445559 
L 184.765121 169.785558 
L 186.084217 169.776977 
z
" style="stroke:#000000;"/>
    <path clip-path="url(#p562d65f43d)" d="M 183.670989 177.15216 
L 184.841053 173.666894 
L 183.52322 173.669569 
z
" style="stroke:#000000;"/>
    <path clip-path="url(#p562d65f43d)" d="M 182.911698 191.572692 
L 181.337064 190.716702 
L 182.350224 187.4535 
z
" style="stroke:#000000;"/>
    <path clip-path="url(#p562d65f43d)" d="M 181.337064 163.590696 
L 182.911698 162.73263 
L 182.350224 166.852562 
z
" style="stroke:#000000;"/>
    <path clip-path="url(#p562d65f43d)" d="M 183.081456 184.08093 
L 184.841053 180.642873 
L 183.52322 180.634947 
z
" style="stroke:#000000;"/>
    <path clip-path="url(#p562d65f43d)" d="M 183.988198 188.103033 
L 184.228908 191.597269 
L 182.911698 191.572692 
z
" style="stroke:#000000;"/>
    <path clip-path="url(#p562d65f43d)" d="M 181.337064 190.716702 
L 182.911698 191.572692 
L 181.546666 194.88933 
z
" style="stroke:#000000;"/>
    <path clip-path="url(#p562d65f43d)" d="M 182.911698 162.73263 
L 181.337064 163.590696 
L 181.546666 159.417792 
z
" style="stroke:#000000;"/>
    <path clip-path="url(#p562d65f43d)" d="M 183.52322 173.669569 
L 184.398839 170.216249 
L 183.081456 170.224168 
z
" style="stroke:#000000;"/>
    <path clip-path="url(#p562d65f43d)" d="M 185.306504 188.122321 
L 184.765121 184.51732 
L 186.084217 184.531147 
z
" style="stroke:#000000;"/>
    <path clip-path="url(#p562d65f43d)" d="M 186.084217 169.776977 
L 183.988198 166.200869 
L 185.306504 166.186831 
z
" style="stroke:#000000;"/>
    <path clip-path="url(#p562d65f43d)" d="M 182.350224 187.4535 
L 184.398839 184.094102 
L 183.081456 184.08093 
z
" style="stroke:#000000;"/>
    <path clip-path="url(#p562d65f43d)" d="M 186.137377 154.889629 
L 189.003983 150.9249 
L 184.701713 154.434593 
z
" style="stroke:#000000;"/>
    <path clip-path="url(#p562d65f43d)" d="M 184.701713 154.434593 
L 189.003983 161.557562 
L 186.137377 154.889629 
z
" style="stroke:#000000;"/>
    <path clip-path="url(#p562d65f43d)" d="M 183.081456 170.224168 
L 183.666863 166.839508 
L 182.350224 166.852562 
z
" style="stroke:#000000;"/>
    <path clip-path="url(#p562d65f43d)" d="M 181.546666 159.417792 
L 184.228908 162.713307 
L 182.911698 162.73263 
z
" style="stroke:#000000;"/>
    <path clip-path="url(#p562d65f43d)" d="M 181.546666 194.88933 
L 180.052441 193.835681 
L 181.337064 190.716702 
z
" style="stroke:#000000;"/>
    <path clip-path="url(#p562d65f43d)" d="M 180.052441 160.473411 
L 181.546666 159.417792 
L 181.337064 163.590696 
z
" style="stroke:#000000;"/>
    <path clip-path="url(#p562d65f43d)" d="M 184.228908 191.597269 
L 183.988198 188.103033 
L 185.306504 188.122321 
z
" style="stroke:#000000;"/>
    <path clip-path="url(#p562d65f43d)" d="M 184.841053 173.666894 
L 183.670989 177.15216 
L 184.988972 177.154786 
z
" style="stroke:#000000;"/>
    <path clip-path="url(#p562d65f43d)" d="M 184.988972 177.154786 
L 183.52322 180.634947 
L 184.841053 180.642873 
z
" style="stroke:#000000;"/>
    <path clip-path="url(#p562d65f43d)" d="M 184.988972 177.154786 
L 186.711202 177.153648 
L 186.554056 173.445559 
z
" style="stroke:#000000;"/>
    <path clip-path="url(#p562d65f43d)" d="M 186.711202 177.153648 
L 184.988972 177.154786 
L 186.554056 180.861945 
z
" style="stroke:#000000;"/>
    <path clip-path="url(#p562d65f43d)" d="M 184.398839 170.216249 
L 183.52322 173.669569 
L 184.841053 173.666894 
z
" style="stroke:#000000;"/>
    <path clip-path="url(#p562d65f43d)" d="M 181.337064 190.716702 
L 183.666863 187.47181 
L 182.350224 187.4535 
z
" style="stroke:#000000;"/>
    <path clip-path="url(#p562d65f43d)" d="M 182.911698 191.572692 
L 182.862485 194.918971 
L 181.546666 194.88933 
z
" style="stroke:#000000;"/>
    <path clip-path="url(#p562d65f43d)" d="M 185.306504 166.186831 
L 182.911698 162.73263 
L 184.228908 162.713307 
z
" style="stroke:#000000;"/>
    <path clip-path="url(#p562d65f43d)" d="M 184.841053 180.642873 
L 183.081456 184.08093 
L 184.398839 184.094102 
z
" style="stroke:#000000;"/>
    <path clip-path="url(#p562d65f43d)" d="M 184.841053 173.666894 
L 186.554056 173.445559 
L 186.084217 169.776977 
z
" style="stroke:#000000;"/>
    <path clip-path="url(#p562d65f43d)" d="M 186.554056 180.861945 
L 184.841053 180.642873 
L 186.084217 184.531147 
z
" style="stroke:#000000;"/>
    <path clip-path="url(#p562d65f43d)" d="M 179.90721 198.017297 
L 180.052441 193.835681 
L 181.546666 194.88933 
z
" style="stroke:#000000;"/>
    <path clip-path="url(#p562d65f43d)" d="M 180.052441 160.473411 
L 179.90721 156.291987 
L 181.546666 159.417792 
z
" style="stroke:#000000;"/>
    <path clip-path="url(#p562d65f43d)" d="M 182.350224 166.852562 
L 182.65267 163.572668 
L 181.337064 163.590696 
z
" style="stroke:#000000;"/>
    <path clip-path="url(#p562d65f43d)" d="M 183.666863 166.839508 
L 183.081456 170.224168 
L 184.398839 170.216249 
z
" style="stroke:#000000;"/>
    <path clip-path="url(#p562d65f43d)" d="M 184.841053 180.642873 
L 186.554056 180.861945 
L 184.988972 177.154786 
z
" style="stroke:#000000;"/>
    <path clip-path="url(#p562d65f43d)" d="M 186.554056 173.445559 
L 184.841053 173.666894 
L 184.988972 177.154786 
z
" style="stroke:#000000;"/>
    <path clip-path="url(#p562d65f43d)" d="M 184.398839 170.216249 
L 186.084217 169.776977 
L 185.306504 166.186831 
z
" style="stroke:#000000;"/>
    <path clip-path="url(#p562d65f43d)" d="M 186.084217 184.531147 
L 184.398839 184.094102 
L 185.306504 188.122321 
z
" style="stroke:#000000;"/>
    <path clip-path="url(#p562d65f43d)" d="M 184.398839 184.094102 
L 182.350224 187.4535 
L 183.666863 187.47181 
z
" style="stroke:#000000;"/>
    <path clip-path="url(#p562d65f43d)" d="M 186.084217 169.776977 
L 184.398839 170.216249 
L 184.841053 173.666894 
z
" style="stroke:#000000;"/>
    <path clip-path="url(#p562d65f43d)" d="M 184.398839 184.094102 
L 186.084217 184.531147 
L 184.841053 180.642873 
z
" style="stroke:#000000;"/>
    <path clip-path="url(#p562d65f43d)" d="M 182.862485 194.918971 
L 182.911698 191.572692 
L 184.228908 191.597269 
z
" style="stroke:#000000;"/>
    <path clip-path="url(#p562d65f43d)" d="M 179.90721 156.291987 
L 182.862485 159.39341 
L 181.546666 159.417792 
z
" style="stroke:#000000;"/>
    <path clip-path="url(#p562d65f43d)" d="M 180.052441 193.835681 
L 182.65267 190.73999 
L 181.337064 190.716702 
z
" style="stroke:#000000;"/>
    <path clip-path="url(#p562d65f43d)" d="M 179.90721 198.017297 
L 178.509647 196.777025 
L 180.052441 193.835681 
z
" style="stroke:#000000;"/>
    <path clip-path="url(#p562d65f43d)" d="M 178.509647 157.534101 
L 179.90721 156.291987 
L 180.052441 160.473411 
z
" style="stroke:#000000;"/>
    <path clip-path="url(#p562d65f43d)" d="M 182.65267 163.572668 
L 182.350224 166.852562 
L 183.666863 166.839508 
z
" style="stroke:#000000;"/>
    <path clip-path="url(#p562d65f43d)" d="M 184.228908 162.713307 
L 181.546666 159.417792 
L 182.862485 159.39341 
z
" style="stroke:#000000;"/>
    <path clip-path="url(#p562d65f43d)" d="M 185.306504 166.186831 
L 183.666863 166.839508 
L 184.398839 170.216249 
z
" style="stroke:#000000;"/>
    <path clip-path="url(#p562d65f43d)" d="M 183.666863 187.47181 
L 185.306504 188.122321 
L 184.398839 184.094102 
z
" style="stroke:#000000;"/>
    <path clip-path="url(#p562d65f43d)" d="M 181.337064 163.590696 
L 181.366735 160.450624 
L 180.052441 160.473411 
z
" style="stroke:#000000;"/>
    <path clip-path="url(#p562d65f43d)" d="M 181.546666 194.88933 
L 181.221356 198.051723 
L 179.90721 198.017297 
z
" style="stroke:#000000;"/>
    <path clip-path="url(#p562d65f43d)" d="M 183.666863 166.839508 
L 185.306504 166.186831 
L 184.228908 162.713307 
z
" style="stroke:#000000;"/>
    <path clip-path="url(#p562d65f43d)" d="M 185.306504 188.122321 
L 183.666863 187.47181 
L 184.228908 191.597269 
z
" style="stroke:#000000;"/>
    <path clip-path="url(#p562d65f43d)" d="M 183.666863 187.47181 
L 181.337064 190.716702 
L 182.65267 190.73999 
z
" style="stroke:#000000;"/>
    <path clip-path="url(#p562d65f43d)" d="M 178.010295 200.923085 
L 178.509647 196.777025 
L 179.90721 198.017297 
z
" style="stroke:#000000;"/>
    <path clip-path="url(#p562d65f43d)" d="M 178.509647 157.534101 
L 178.010295 153.3887 
L 179.90721 156.291987 
z
" style="stroke:#000000;"/>
    <path clip-path="url(#p562d65f43d)" d="M 181.221356 198.051723 
L 181.546666 194.88933 
L 182.862485 194.918971 
z
" style="stroke:#000000;"/>
    <path clip-path="url(#p562d65f43d)" d="M 181.366735 160.450624 
L 181.337064 163.590696 
L 182.65267 163.572668 
z
" style="stroke:#000000;"/>
    <path clip-path="url(#p562d65f43d)" d="M 184.228908 162.713307 
L 182.65267 163.572668 
L 183.666863 166.839508 
z
" style="stroke:#000000;"/>
    <path clip-path="url(#p562d65f43d)" d="M 182.65267 190.73999 
L 184.228908 191.597269 
L 183.666863 187.47181 
z
" style="stroke:#000000;"/>
    <path clip-path="url(#p562d65f43d)" d="M 178.509647 196.777025 
L 181.366735 193.863733 
L 180.052441 193.835681 
z
" style="stroke:#000000;"/>
    <path clip-path="url(#p562d65f43d)" d="M 182.65267 163.572668 
L 184.228908 162.713307 
L 182.862485 159.39341 
z
" style="stroke:#000000;"/>
    <path clip-path="url(#p562d65f43d)" d="M 184.228908 191.597269 
L 182.65267 190.73999 
L 182.862485 194.918971 
z
" style="stroke:#000000;"/>
    <path clip-path="url(#p562d65f43d)" d="M 178.010295 153.3887 
L 181.221356 156.262826 
L 179.90721 156.291987 
z
" style="stroke:#000000;"/>
    <path clip-path="url(#p562d65f43d)" d="M 182.65267 190.73999 
L 180.052441 193.835681 
L 181.366735 193.863733 
z
" style="stroke:#000000;"/>
    <path clip-path="url(#p562d65f43d)" d="M 182.862485 159.39341 
L 179.90721 156.291987 
L 181.221356 156.262826 
z
" style="stroke:#000000;"/>
    <path clip-path="url(#p562d65f43d)" d="M 178.010295 200.923085 
L 176.724712 199.50885 
L 178.509647 196.777025 
z
" style="stroke:#000000;"/>
    <path clip-path="url(#p562d65f43d)" d="M 176.724712 154.80463 
L 178.010295 153.3887 
L 178.509647 157.534101 
z
" style="stroke:#000000;"/>
    <path clip-path="url(#p562d65f43d)" d="M 180.052441 160.473411 
L 179.822364 157.506819 
L 178.509647 157.534101 
z
" style="stroke:#000000;"/>
    <path clip-path="url(#p562d65f43d)" d="M 179.90721 198.017297 
L 179.322501 200.961967 
L 178.010295 200.923085 
z
" style="stroke:#000000;"/>
    <path clip-path="url(#p562d65f43d)" d="M 176.189335 201.782757 
L 178.010295 200.923085 
L 176.943394 202.248495 
z
" style="stroke:#000000;"/>
    <path clip-path="url(#p562d65f43d)" d="M 178.010295 153.3887 
L 176.189335 152.531429 
L 176.943394 152.064696 
z
" style="stroke:#000000;"/>
    <path clip-path="url(#p562d65f43d)" d="M 182.862485 159.39341 
L 181.366735 160.450624 
L 182.65267 163.572668 
z
" style="stroke:#000000;"/>
    <path clip-path="url(#p562d65f43d)" d="M 181.366735 193.863733 
L 182.862485 194.918971 
L 182.65267 190.73999 
z
" style="stroke:#000000;"/>
    <path clip-path="url(#p562d65f43d)" d="M 178.010295 200.923085 
L 176.189335 201.782757 
L 176.724712 199.50885 
z
" style="stroke:#000000;"/>
    <path clip-path="url(#p562d65f43d)" d="M 176.189335 152.531429 
L 178.010295 153.3887 
L 176.724712 154.80463 
z
" style="stroke:#000000;"/>
    <path clip-path="url(#p562d65f43d)" d="M 179.822364 157.506819 
L 180.052441 160.473411 
L 181.366735 160.450624 
z
" style="stroke:#000000;"/>
    <path clip-path="url(#p562d65f43d)" d="M 179.322501 200.961967 
L 179.90721 198.017297 
L 181.221356 198.051723 
z
" style="stroke:#000000;"/>
    <path clip-path="url(#p562d65f43d)" d="M 176.724712 199.50885 
L 179.822364 196.809579 
L 178.509647 196.777025 
z
" style="stroke:#000000;"/>
    <path clip-path="url(#p562d65f43d)" d="M 181.221356 156.262826 
L 181.366735 160.450624 
L 182.862485 159.39341 
z
" style="stroke:#000000;"/>
    <path clip-path="url(#p562d65f43d)" d="M 181.366735 193.863733 
L 181.221356 198.051723 
L 182.862485 194.918971 
z
" style="stroke:#000000;"/>
    <path clip-path="url(#p562d65f43d)" d="M 181.366735 193.863733 
L 178.509647 196.777025 
L 179.822364 196.809579 
z
" style="stroke:#000000;"/>
    <path clip-path="url(#p562d65f43d)" d="M 176.943394 152.064696 
L 179.322501 153.355091 
L 178.010295 153.3887 
z
" style="stroke:#000000;"/>
    <path clip-path="url(#p562d65f43d)" d="M 176.724712 199.50885 
L 176.189335 201.782757 
L 175.396889 201.156844 
z
" style="stroke:#000000;"/>
    <path clip-path="url(#p562d65f43d)" d="M 176.189335 152.531429 
L 176.724712 154.80463 
L 175.396889 153.158386 
z
" style="stroke:#000000;"/>
    <path clip-path="url(#p562d65f43d)" d="M 178.509647 157.534101 
L 178.035601 154.773165 
L 176.724712 154.80463 
z
" style="stroke:#000000;"/>
    <path clip-path="url(#p562d65f43d)" d="M 181.221356 156.262826 
L 178.010295 153.3887 
L 179.322501 153.355091 
z
" style="stroke:#000000;"/>
    <path clip-path="url(#p562d65f43d)" d="M 178.010295 200.923085 
L 178.254507 202.289415 
L 176.943394 202.248495 
z
" style="stroke:#000000;"/>
    <path clip-path="url(#p562d65f43d)" d="M 181.221356 156.262826 
L 179.822364 157.506819 
L 181.366735 160.450624 
z
" style="stroke:#000000;"/>
    <path clip-path="url(#p562d65f43d)" d="M 179.822364 196.809579 
L 181.221356 198.051723 
L 181.366735 193.863733 
z
" style="stroke:#000000;"/>
    <path clip-path="url(#p562d65f43d)" d="M 178.254507 202.289415 
L 176.189335 201.782757 
L 176.943394 202.248495 
z
" style="stroke:#000000;"/>
    <path clip-path="url(#p562d65f43d)" d="M 178.035601 154.773165 
L 178.509647 157.534101 
L 179.822364 157.506819 
z
" style="stroke:#000000;"/>
    <path clip-path="url(#p562d65f43d)" d="M 177.499675 152.496488 
L 176.943394 152.064696 
L 176.189335 152.531429 
z
" style="stroke:#000000;"/>
    <path clip-path="url(#p562d65f43d)" d="M 178.254507 202.289415 
L 178.010295 200.923085 
L 179.322501 200.961967 
z
" style="stroke:#000000;"/>
    <path clip-path="url(#p562d65f43d)" d="M 178.035601 154.773165 
L 175.396889 153.158386 
L 176.724712 154.80463 
z
" style="stroke:#000000;"/>
    <path clip-path="url(#p562d65f43d)" d="M 179.322501 153.355091 
L 179.822364 157.506819 
L 181.221356 156.262826 
z
" style="stroke:#000000;"/>
    <path clip-path="url(#p562d65f43d)" d="M 179.822364 196.809579 
L 179.322501 200.961967 
L 181.221356 198.051723 
z
" style="stroke:#000000;"/>
    <path clip-path="url(#p562d65f43d)" d="M 179.822364 196.809579 
L 176.724712 199.50885 
L 178.035601 199.545594 
z
" style="stroke:#000000;"/>
    <path clip-path="url(#p562d65f43d)" d="M 179.322501 153.355091 
L 176.943394 152.064696 
L 178.254507 152.029054 
z
" style="stroke:#000000;"/>
    <path clip-path="url(#p562d65f43d)" d="M 177.499675 201.822978 
L 175.396889 201.156844 
L 176.189335 201.782757 
z
" style="stroke:#000000;"/>
    <path clip-path="url(#p562d65f43d)" d="M 176.706416 201.196122 
L 176.724712 199.50885 
L 175.396889 201.156844 
z
" style="stroke:#000000;"/>
    <path clip-path="url(#p562d65f43d)" d="M 176.706416 153.124392 
L 176.189335 152.531429 
L 175.396889 153.158386 
z
" style="stroke:#000000;"/>
    <path clip-path="url(#p562d65f43d)" d="M 176.943394 152.064696 
L 177.499675 152.496488 
L 178.254507 152.029054 
z
" style="stroke:#000000;"/>
    <path clip-path="url(#p562d65f43d)" d="M 176.189335 201.782757 
L 178.254507 202.289415 
L 177.499675 201.822978 
z
" style="stroke:#000000;"/>
    <path clip-path="url(#p562d65f43d)" d="M 179.322501 153.355091 
L 178.035601 154.773165 
L 179.822364 157.506819 
z
" style="stroke:#000000;"/>
    <path clip-path="url(#p562d65f43d)" d="M 178.035601 199.545594 
L 179.322501 200.961967 
L 179.822364 196.809579 
z
" style="stroke:#000000;"/>
    <path clip-path="url(#p562d65f43d)" d="M 176.724712 199.50885 
L 176.706416 201.196122 
L 178.035601 199.545594 
z
" style="stroke:#000000;"/>
    <path clip-path="url(#p562d65f43d)" d="M 176.189335 152.531429 
L 176.706416 153.124392 
L 177.499675 152.496488 
z
" style="stroke:#000000;"/>
    <path clip-path="url(#p562d65f43d)" d="M 175.396889 153.158386 
L 178.035601 154.773165 
L 176.706416 153.124392 
z
" style="stroke:#000000;"/>
    <path clip-path="url(#p562d65f43d)" d="M 177.499675 152.496488 
L 179.322501 153.355091 
L 178.254507 152.029054 
z
" style="stroke:#000000;"/>
    <path clip-path="url(#p562d65f43d)" d="M 179.322501 200.961967 
L 177.499675 201.822978 
L 178.254507 202.289415 
z
" style="stroke:#000000;"/>
    <path clip-path="url(#p562d65f43d)" d="M 175.396889 201.156844 
L 177.499675 201.822978 
L 176.706416 201.196122 
z
" style="stroke:#000000;"/>
    <path clip-path="url(#p562d65f43d)" d="M 179.322501 153.355091 
L 177.499675 152.496488 
L 178.035601 154.773165 
z
" style="stroke:#000000;"/>
    <path clip-path="url(#p562d65f43d)" d="M 177.499675 201.822978 
L 179.322501 200.961967 
L 178.035601 199.545594 
z
" style="stroke:#000000;"/>
    <path clip-path="url(#p562d65f43d)" d="M 178.035601 154.773165 
L 177.499675 152.496488 
L 176.706416 153.124392 
z
" style="stroke:#000000;"/>
    <path clip-path="url(#p562d65f43d)" d="M 177.499675 201.822978 
L 178.035601 199.545594 
L 176.706416 201.196122 
z
" style="stroke:#000000;"/>
   </g>
  </g>
 </g>
 <defs>
  <clipPath id="p562d65f43d">
   <rect height="271.8" width="279" x="45" y="43.2"/>
  </clipPath>
 </defs>
</svg>
