<?xml version="1.0" encoding="utf-8" standalone="no"?>
<!DOCTYPE svg PUBLIC "-//W3C//DTD SVG 1.1//EN"
  "http://www.w3.org/Graphics/SVG/1.1/DTD/svg11.dtd">
<!-- Created with matplotlib (https://matplotlib.org/) -->
<svg height="360pt" version="1.1" viewBox="0 0 360 360" width="360pt" xmlns="http://www.w3.org/2000/svg" xmlns:xlink="http://www.w3.org/1999/xlink">
 <defs>
  <style type="text/css">
*{stroke-linecap:butt;stroke-linejoin:round;}
  </style>
 </defs>
 <g id="figure_1">
  <g id="patch_1">
   <path d="M 45 315 
L 324 315 
L 324 43.2 
L 45 43.2 
z
" style="fill:#ffffff;"/>
  </g>
  <g id="axes_1">
   <g id="Poly3DCollection_1">
    <path clip-path="url(#p029c1eda08)" d="M 181.787633 177.148844 
L 183.877298 177.148844 
L 183.686511 181.050039 
z
" style="stroke:#000000;"/>
    <path clip-path="url(#p029c1eda08)" d="M 181.608284 180.815971 
L 183.686511 181.050039 
L 183.116228 184.908493 
z
" style="stroke:#000000;"/>
    <path clip-path="url(#p029c1eda08)" d="M 183.877298 177.148844 
L 181.787633 177.148844 
L 183.686511 173.247649 
z
" style="stroke:#000000;"/>
    <path clip-path="url(#p029c1eda08)" d="M 181.072229 184.44291 
L 183.116228 184.908493 
L 182.172702 188.681927 
z
" style="stroke:#000000;"/>
    <path clip-path="url(#p029c1eda08)" d="M 181.608284 173.481717 
L 183.686511 173.247649 
L 181.787633 177.148844 
z
" style="stroke:#000000;"/>
    <path clip-path="url(#p029c1eda08)" d="M 183.686511 173.247649 
L 181.608284 173.481717 
L 183.116228 169.389195 
z
" style="stroke:#000000;"/>
    <path clip-path="url(#p029c1eda08)" d="M 183.686511 181.050039 
L 181.608284 180.815971 
L 181.787633 177.148844 
z
" style="stroke:#000000;"/>
    <path clip-path="url(#p029c1eda08)" d="M 183.116228 184.908493 
L 181.072229 184.44291 
L 181.608284 180.815971 
z
" style="stroke:#000000;"/>
    <path clip-path="url(#p029c1eda08)" d="M 180.18532 187.98995 
L 182.172702 188.681927 
L 180.866286 192.32899 
z
" style="stroke:#000000;"/>
    <path clip-path="url(#p029c1eda08)" d="M 182.172702 188.681927 
L 180.18532 187.98995 
L 181.072229 184.44291 
z
" style="stroke:#000000;"/>
    <path clip-path="url(#p029c1eda08)" d="M 178.957279 191.418202 
L 180.866286 192.32899 
L 179.211257 195.809777 
z
" style="stroke:#000000;"/>
    <path clip-path="url(#p029c1eda08)" d="M 180.866286 192.32899 
L 178.957279 191.418202 
L 180.18532 187.98995 
z
" style="stroke:#000000;"/>
    <path clip-path="url(#p029c1eda08)" d="M 179.211257 195.809777 
L 177.401566 194.690121 
L 178.957279 191.418202 
z
" style="stroke:#000000;"/>
    <path clip-path="url(#p029c1eda08)" d="M 177.225783 199.08604 
L 177.401566 194.690121 
L 179.211257 195.809777 
z
" style="stroke:#000000;"/>
    <path clip-path="url(#p029c1eda08)" d="M 177.225783 199.08604 
L 175.535216 197.769921 
L 177.401566 194.690121 
z
" style="stroke:#000000;"/>
    <path clip-path="url(#p029c1eda08)" d="M 174.931609 202.122099 
L 175.535216 197.769921 
L 177.225783 199.08604 
z
" style="stroke:#000000;"/>
    <path clip-path="url(#p029c1eda08)" d="M 172.732418 203.006178 
L 174.931609 202.122099 
L 173.642732 203.503306 
z
" style="stroke:#000000;"/>
    <path clip-path="url(#p029c1eda08)" d="M 174.931609 202.122099 
L 173.378681 200.6237 
L 175.535216 197.769921 
z
" style="stroke:#000000;"/>
    <path clip-path="url(#p029c1eda08)" d="M 174.931609 202.122099 
L 172.732418 203.006178 
L 173.378681 200.6237 
z
" style="stroke:#000000;"/>
    <path clip-path="url(#p029c1eda08)" d="M 173.378681 200.6237 
L 172.732418 203.006178 
L 171.776326 202.340804 
z
" style="stroke:#000000;"/>
    <path clip-path="url(#p029c1eda08)" d="M 181.072229 169.854778 
L 183.116228 169.389195 
L 181.608284 173.481717 
z
" style="stroke:#000000;"/>
    <path clip-path="url(#p029c1eda08)" d="M 183.116228 169.389195 
L 181.072229 169.854778 
L 182.172702 165.61576 
z
" style="stroke:#000000;"/>
    <path clip-path="url(#p029c1eda08)" d="M 180.18532 166.307737 
L 182.172702 165.61576 
L 181.072229 169.854778 
z
" style="stroke:#000000;"/>
    <path clip-path="url(#p029c1eda08)" d="M 182.172702 165.61576 
L 180.18532 166.307737 
L 180.866286 161.968698 
z
" style="stroke:#000000;"/>
    <path clip-path="url(#p029c1eda08)" d="M 178.957279 162.879486 
L 180.866286 161.968698 
L 180.18532 166.307737 
z
" style="stroke:#000000;"/>
    <path clip-path="url(#p029c1eda08)" d="M 180.866286 161.968698 
L 178.957279 162.879486 
L 179.211257 158.487911 
z
" style="stroke:#000000;"/>
    <path clip-path="url(#p029c1eda08)" d="M 177.401566 159.607567 
L 179.211257 158.487911 
L 178.957279 162.879486 
z
" style="stroke:#000000;"/>
    <path clip-path="url(#p029c1eda08)" d="M 177.401566 159.607567 
L 177.225783 155.211648 
L 179.211257 158.487911 
z
" style="stroke:#000000;"/>
    <path clip-path="url(#p029c1eda08)" d="M 175.535216 156.527767 
L 177.225783 155.211648 
L 177.401566 159.607567 
z
" style="stroke:#000000;"/>
    <path clip-path="url(#p029c1eda08)" d="M 175.535216 156.527767 
L 174.931609 152.175589 
L 177.225783 155.211648 
z
" style="stroke:#000000;"/>
    <path clip-path="url(#p029c1eda08)" d="M 173.378681 153.673987 
L 174.931609 152.175589 
L 175.535216 156.527767 
z
" style="stroke:#000000;"/>
    <path clip-path="url(#p029c1eda08)" d="M 172.732418 151.291509 
L 174.931609 152.175589 
L 173.378681 153.673987 
z
" style="stroke:#000000;"/>
    <path clip-path="url(#p029c1eda08)" d="M 174.931609 152.175589 
L 172.732418 151.291509 
L 173.642732 150.794382 
z
" style="stroke:#000000;"/>
    <path clip-path="url(#p029c1eda08)" d="M 172.732418 151.291509 
L 173.378681 153.673987 
L 171.776326 151.956883 
z
" style="stroke:#000000;"/>
    <path clip-path="url(#p029c1eda08)" d="M 200.594618 203.006178 
L 199.948354 200.6237 
L 201.550709 202.340804 
z
" style="stroke:#000000;"/>
    <path clip-path="url(#p029c1eda08)" d="M 198.395426 202.122099 
L 200.594618 203.006178 
L 199.684303 203.503306 
z
" style="stroke:#000000;"/>
    <path clip-path="url(#p029c1eda08)" d="M 200.594618 203.006178 
L 198.395426 202.122099 
L 199.948354 200.6237 
z
" style="stroke:#000000;"/>
    <path clip-path="url(#p029c1eda08)" d="M 198.395426 202.122099 
L 197.79182 197.769921 
L 199.948354 200.6237 
z
" style="stroke:#000000;"/>
    <path clip-path="url(#p029c1eda08)" d="M 196.101253 199.08604 
L 197.79182 197.769921 
L 198.395426 202.122099 
z
" style="stroke:#000000;"/>
    <path clip-path="url(#p029c1eda08)" d="M 196.101253 199.08604 
L 195.92547 194.690121 
L 197.79182 197.769921 
z
" style="stroke:#000000;"/>
    <path clip-path="url(#p029c1eda08)" d="M 194.115779 195.809777 
L 195.92547 194.690121 
L 196.101253 199.08604 
z
" style="stroke:#000000;"/>
    <path clip-path="url(#p029c1eda08)" d="M 195.92547 194.690121 
L 194.115779 195.809777 
L 194.369757 191.418202 
z
" style="stroke:#000000;"/>
    <path clip-path="url(#p029c1eda08)" d="M 192.46075 192.32899 
L 194.369757 191.418202 
L 194.115779 195.809777 
z
" style="stroke:#000000;"/>
    <path clip-path="url(#p029c1eda08)" d="M 194.369757 191.418202 
L 192.46075 192.32899 
L 193.141716 187.98995 
z
" style="stroke:#000000;"/>
    <path clip-path="url(#p029c1eda08)" d="M 191.154333 188.681927 
L 193.141716 187.98995 
L 192.46075 192.32899 
z
" style="stroke:#000000;"/>
    <path clip-path="url(#p029c1eda08)" d="M 193.141716 187.98995 
L 191.154333 188.681927 
L 192.254806 184.44291 
z
" style="stroke:#000000;"/>
    <path clip-path="url(#p029c1eda08)" d="M 192.254806 184.44291 
L 190.210808 184.908493 
L 191.718752 180.815971 
z
" style="stroke:#000000;"/>
    <path clip-path="url(#p029c1eda08)" d="M 190.210808 184.908493 
L 192.254806 184.44291 
L 191.154333 188.681927 
z
" style="stroke:#000000;"/>
    <path clip-path="url(#p029c1eda08)" d="M 199.948354 153.673987 
L 200.594618 151.291509 
L 201.550709 151.956883 
z
" style="stroke:#000000;"/>
    <path clip-path="url(#p029c1eda08)" d="M 198.395426 152.175589 
L 200.594618 151.291509 
L 199.948354 153.673987 
z
" style="stroke:#000000;"/>
    <path clip-path="url(#p029c1eda08)" d="M 200.594618 151.291509 
L 198.395426 152.175589 
L 199.684303 150.794382 
z
" style="stroke:#000000;"/>
    <path clip-path="url(#p029c1eda08)" d="M 197.79182 156.527767 
L 198.395426 152.175589 
L 199.948354 153.673987 
z
" style="stroke:#000000;"/>
    <path clip-path="url(#p029c1eda08)" d="M 197.79182 156.527767 
L 196.101253 155.211648 
L 198.395426 152.175589 
z
" style="stroke:#000000;"/>
    <path clip-path="url(#p029c1eda08)" d="M 195.92547 159.607567 
L 196.101253 155.211648 
L 197.79182 156.527767 
z
" style="stroke:#000000;"/>
    <path clip-path="url(#p029c1eda08)" d="M 194.115779 158.487911 
L 195.92547 159.607567 
L 194.369757 162.879486 
z
" style="stroke:#000000;"/>
    <path clip-path="url(#p029c1eda08)" d="M 195.92547 159.607567 
L 194.115779 158.487911 
L 196.101253 155.211648 
z
" style="stroke:#000000;"/>
    <path clip-path="url(#p029c1eda08)" d="M 192.46075 161.968698 
L 194.369757 162.879486 
L 193.141716 166.307737 
z
" style="stroke:#000000;"/>
    <path clip-path="url(#p029c1eda08)" d="M 194.369757 162.879486 
L 192.46075 161.968698 
L 194.115779 158.487911 
z
" style="stroke:#000000;"/>
    <path clip-path="url(#p029c1eda08)" d="M 191.154333 165.61576 
L 193.141716 166.307737 
L 192.254806 169.854778 
z
" style="stroke:#000000;"/>
    <path clip-path="url(#p029c1eda08)" d="M 190.210808 169.389195 
L 192.254806 169.854778 
L 191.718752 173.481717 
z
" style="stroke:#000000;"/>
    <path clip-path="url(#p029c1eda08)" d="M 193.141716 166.307737 
L 191.154333 165.61576 
L 192.46075 161.968698 
z
" style="stroke:#000000;"/>
    <path clip-path="url(#p029c1eda08)" d="M 189.640524 173.247649 
L 191.718752 173.481717 
L 191.539403 177.148844 
z
" style="stroke:#000000;"/>
    <path clip-path="url(#p029c1eda08)" d="M 189.640524 181.050039 
L 191.718752 180.815971 
L 190.210808 184.908493 
z
" style="stroke:#000000;"/>
    <path clip-path="url(#p029c1eda08)" d="M 191.718752 180.815971 
L 189.640524 181.050039 
L 191.539403 177.148844 
z
" style="stroke:#000000;"/>
    <path clip-path="url(#p029c1eda08)" d="M 192.254806 169.854778 
L 190.210808 169.389195 
L 191.154333 165.61576 
z
" style="stroke:#000000;"/>
    <path clip-path="url(#p029c1eda08)" d="M 189.449738 177.148844 
L 191.539403 177.148844 
L 189.640524 181.050039 
z
" style="stroke:#000000;"/>
    <path clip-path="url(#p029c1eda08)" d="M 191.718752 173.481717 
L 189.640524 173.247649 
L 190.210808 169.389195 
z
" style="stroke:#000000;"/>
    <path clip-path="url(#p029c1eda08)" d="M 191.539403 177.148844 
L 189.449738 177.148844 
L 189.640524 173.247649 
z
" style="stroke:#000000;"/>
    <path clip-path="url(#p029c1eda08)" d="M 186.663518 160.727223 
L 191.88768 153.26285 
L 186.663518 164.459409 
z
" style="stroke:#000000;"/>
    <path clip-path="url(#p029c1eda08)" d="M 191.88768 153.26285 
L 186.663518 160.727223 
L 190.146293 153.729373 
z
" style="stroke:#000000;"/>
    <path clip-path="url(#p029c1eda08)" d="M 181.439355 153.26285 
L 186.663518 160.727223 
L 186.663518 164.459409 
z
" style="stroke:#000000;"/>
    <path clip-path="url(#p029c1eda08)" d="M 186.663518 160.727223 
L 181.439355 153.26285 
L 183.180743 153.729373 
z
" style="stroke:#000000;"/>
    <path clip-path="url(#p029c1eda08)" d="M 186.663518 149.530663 
L 190.146293 153.729373 
L 186.663518 151.396756 
z
" style="stroke:#000000;"/>
    <path clip-path="url(#p029c1eda08)" d="M 190.146293 153.729373 
L 186.663518 149.530663 
L 191.88768 153.26285 
z
" style="stroke:#000000;"/>
    <path clip-path="url(#p029c1eda08)" d="M 183.180743 153.729373 
L 186.663518 149.530663 
L 186.663518 151.396756 
z
" style="stroke:#000000;"/>
    <path clip-path="url(#p029c1eda08)" d="M 186.663518 149.530663 
L 183.180743 153.729373 
L 181.439355 153.26285 
z
" style="stroke:#000000;"/>
    <path clip-path="url(#p029c1eda08)" d="M 192.46075 192.32899 
L 191.159671 188.706461 
L 191.154333 188.681927 
z
" style="stroke:#000000;"/>
    <path clip-path="url(#p029c1eda08)" d="M 196.101253 199.08604 
L 194.126598 195.847503 
L 194.115779 195.809777 
z
" style="stroke:#000000;"/>
    <path clip-path="url(#p029c1eda08)" d="M 198.395426 202.122099 
L 196.115747 199.12983 
L 196.101253 199.08604 
z
" style="stroke:#000000;"/>
    <path clip-path="url(#p029c1eda08)" d="M 198.395426 152.175589 
L 199.70543 150.748789 
L 199.684303 150.794382 
z
" style="stroke:#000000;"/>
    <path clip-path="url(#p029c1eda08)" d="M 199.684303 203.503306 
L 198.414167 202.171509 
L 198.395426 202.122099 
z
" style="stroke:#000000;"/>
    <path clip-path="url(#p029c1eda08)" d="M 194.115779 195.809777 
L 192.468506 192.360274 
L 192.46075 192.32899 
z
" style="stroke:#000000;"/>
    <path clip-path="url(#p029c1eda08)" d="M 196.101253 155.211648 
L 198.414167 152.132552 
L 198.395426 152.175589 
z
" style="stroke:#000000;"/>
    <path clip-path="url(#p029c1eda08)" d="M 194.115779 158.487911 
L 196.115747 155.174231 
L 196.101253 155.211648 
z
" style="stroke:#000000;"/>
    <path clip-path="url(#p029c1eda08)" d="M 189.640524 173.247649 
L 190.214399 169.378019 
L 190.210808 169.389195 
z
" style="stroke:#000000;"/>
    <path clip-path="url(#p029c1eda08)" d="M 191.154333 165.61576 
L 192.468506 161.943787 
L 192.46075 161.968698 
z
" style="stroke:#000000;"/>
    <path clip-path="url(#p029c1eda08)" d="M 192.46075 161.968698 
L 194.126598 158.456558 
L 194.115779 158.487911 
z
" style="stroke:#000000;"/>
    <path clip-path="url(#p029c1eda08)" d="M 191.154333 188.681927 
L 190.214399 184.926042 
L 190.210808 184.908493 
z
" style="stroke:#000000;"/>
    <path clip-path="url(#p029c1eda08)" d="M 190.210808 184.908493 
L 189.64306 181.060446 
L 189.640524 181.050039 
z
" style="stroke:#000000;"/>
    <path clip-path="url(#p029c1eda08)" d="M 189.640524 181.050039 
L 189.451921 177.152031 
L 189.449738 177.148844 
z
" style="stroke:#000000;"/>
    <path clip-path="url(#p029c1eda08)" d="M 190.210808 169.389195 
L 191.159671 165.5976 
L 191.154333 165.61576 
z
" style="stroke:#000000;"/>
    <path clip-path="url(#p029c1eda08)" d="M 189.449738 177.148844 
L 189.64306 173.243615 
L 189.640524 173.247649 
z
" style="stroke:#000000;"/>
    <path clip-path="url(#p029c1eda08)" d="M 197.79182 156.527767 
L 195.939639 159.578286 
L 195.92547 159.607567 
z
" style="stroke:#000000;"/>
    <path clip-path="url(#p029c1eda08)" d="M 191.718752 180.815971 
L 192.262181 184.459598 
L 192.254806 184.44291 
z
" style="stroke:#000000;"/>
    <path clip-path="url(#p029c1eda08)" d="M 193.141716 187.98995 
L 194.381046 191.4478 
L 194.369757 191.418202 
z
" style="stroke:#000000;"/>
    <path clip-path="url(#p029c1eda08)" d="M 195.92547 194.690121 
L 197.809443 197.811276 
L 197.79182 197.769921 
z
" style="stroke:#000000;"/>
    <path clip-path="url(#p029c1eda08)" d="M 192.254806 169.854778 
L 191.725135 173.478116 
L 191.718752 173.481717 
z
" style="stroke:#000000;"/>
    <path clip-path="url(#p029c1eda08)" d="M 199.96997 200.670337 
L 201.550709 202.340804 
L 199.948354 200.6237 
z
" style="stroke:#000000;"/>
    <path clip-path="url(#p029c1eda08)" d="M 192.254806 184.44291 
L 193.150732 188.013203 
L 193.141716 187.98995 
z
" style="stroke:#000000;"/>
    <path clip-path="url(#p029c1eda08)" d="M 194.369757 191.418202 
L 195.939639 194.725775 
L 195.92547 194.690121 
z
" style="stroke:#000000;"/>
    <path clip-path="url(#p029c1eda08)" d="M 201.57529 151.913442 
L 199.948354 153.673987 
L 201.550709 151.956883 
z
" style="stroke:#000000;"/>
    <path clip-path="url(#p029c1eda08)" d="M 199.948354 153.673987 
L 197.809443 156.492786 
L 197.79182 156.527767 
z
" style="stroke:#000000;"/>
    <path clip-path="url(#p029c1eda08)" d="M 194.369757 162.879486 
L 193.150732 166.290858 
L 193.141716 166.307737 
z
" style="stroke:#000000;"/>
    <path clip-path="url(#p029c1eda08)" d="M 191.539403 177.148844 
L 191.725135 180.825945 
L 191.718752 180.815971 
z
" style="stroke:#000000;"/>
    <path clip-path="url(#p029c1eda08)" d="M 197.79182 197.769921 
L 199.96997 200.670337 
L 199.948354 200.6237 
z
" style="stroke:#000000;"/>
    <path clip-path="url(#p029c1eda08)" d="M 193.141716 166.307737 
L 192.262181 169.844464 
L 192.254806 169.854778 
z
" style="stroke:#000000;"/>
    <path clip-path="url(#p029c1eda08)" d="M 191.718752 173.481717 
L 191.545454 177.152031 
L 191.539403 177.148844 
z
" style="stroke:#000000;"/>
    <path clip-path="url(#p029c1eda08)" d="M 195.92547 159.607567 
L 194.381046 162.856261 
L 194.369757 162.879486 
z
" style="stroke:#000000;"/>
    <path clip-path="url(#p029c1eda08)" d="M 180.866286 161.968698 
L 182.161416 165.5976 
L 182.172702 165.61576 
z
" style="stroke:#000000;"/>
    <path clip-path="url(#p029c1eda08)" d="M 177.225783 155.211648 
L 179.194489 158.456558 
L 179.211257 158.487911 
z
" style="stroke:#000000;"/>
    <path clip-path="url(#p029c1eda08)" d="M 174.931609 152.175589 
L 177.20534 155.174231 
L 177.225783 155.211648 
z
" style="stroke:#000000;"/>
    <path clip-path="url(#p029c1eda08)" d="M 174.931609 202.122099 
L 173.615658 203.555272 
L 173.642732 203.503306 
z
" style="stroke:#000000;"/>
    <path clip-path="url(#p029c1eda08)" d="M 173.642732 150.794382 
L 174.90692 152.132552 
L 174.931609 152.175589 
z
" style="stroke:#000000;"/>
    <path clip-path="url(#p029c1eda08)" d="M 179.211257 158.487911 
L 180.852582 161.943787 
L 180.866286 161.968698 
z
" style="stroke:#000000;"/>
    <path clip-path="url(#p029c1eda08)" d="M 177.225783 199.08604 
L 174.90692 202.171509 
L 174.931609 202.122099 
z
" style="stroke:#000000;"/>
    <path clip-path="url(#p029c1eda08)" d="M 179.211257 195.809777 
L 177.20534 199.12983 
L 177.225783 199.08604 
z
" style="stroke:#000000;"/>
    <path clip-path="url(#p029c1eda08)" d="M 183.686511 181.050039 
L 183.106688 184.926042 
L 183.116228 184.908493 
z
" style="stroke:#000000;"/>
    <path clip-path="url(#p029c1eda08)" d="M 182.172702 188.681927 
L 180.852582 192.360274 
L 180.866286 192.32899 
z
" style="stroke:#000000;"/>
    <path clip-path="url(#p029c1eda08)" d="M 180.866286 192.32899 
L 179.194489 195.847503 
L 179.211257 195.809777 
z
" style="stroke:#000000;"/>
    <path clip-path="url(#p029c1eda08)" d="M 182.172702 165.61576 
L 183.106688 169.378019 
L 183.116228 169.389195 
z
" style="stroke:#000000;"/>
    <path clip-path="url(#p029c1eda08)" d="M 183.116228 169.389195 
L 183.678027 173.243615 
L 183.686511 173.247649 
z
" style="stroke:#000000;"/>
    <path clip-path="url(#p029c1eda08)" d="M 183.686511 173.247649 
L 183.869167 177.152031 
L 183.877298 177.148844 
z
" style="stroke:#000000;"/>
    <path clip-path="url(#p029c1eda08)" d="M 183.116228 184.908493 
L 182.161416 188.706461 
L 182.172702 188.681927 
z
" style="stroke:#000000;"/>
    <path clip-path="url(#p029c1eda08)" d="M 183.877298 177.148844 
L 183.678027 181.060446 
L 183.686511 181.050039 
z
" style="stroke:#000000;"/>
    <path clip-path="url(#p029c1eda08)" d="M 175.535216 197.769921 
L 177.381448 194.725775 
L 177.401566 194.690121 
z
" style="stroke:#000000;"/>
    <path clip-path="url(#p029c1eda08)" d="M 181.608284 173.481717 
L 181.058906 169.844464 
L 181.072229 169.854778 
z
" style="stroke:#000000;"/>
    <path clip-path="url(#p029c1eda08)" d="M 180.18532 166.307737 
L 178.940041 162.856261 
L 178.957279 162.879486 
z
" style="stroke:#000000;"/>
    <path clip-path="url(#p029c1eda08)" d="M 177.401566 159.607567 
L 175.511644 156.492786 
L 175.535216 156.527767 
z
" style="stroke:#000000;"/>
    <path clip-path="url(#p029c1eda08)" d="M 181.072229 184.44291 
L 181.595953 180.825945 
L 181.608284 180.815971 
z
" style="stroke:#000000;"/>
    <path clip-path="url(#p029c1eda08)" d="M 173.351118 153.633724 
L 171.776326 151.956883 
L 173.378681 153.673987 
z
" style="stroke:#000000;"/>
    <path clip-path="url(#p029c1eda08)" d="M 181.072229 169.854778 
L 180.170355 166.290858 
L 180.18532 166.307737 
z
" style="stroke:#000000;"/>
    <path clip-path="url(#p029c1eda08)" d="M 178.957279 162.879486 
L 177.381448 159.578286 
L 177.401566 159.607567 
z
" style="stroke:#000000;"/>
    <path clip-path="url(#p029c1eda08)" d="M 171.745797 202.390619 
L 173.378681 200.6237 
L 171.776326 202.340804 
z
" style="stroke:#000000;"/>
    <path clip-path="url(#p029c1eda08)" d="M 173.378681 200.6237 
L 175.511644 197.811276 
L 175.535216 197.769921 
z
" style="stroke:#000000;"/>
    <path clip-path="url(#p029c1eda08)" d="M 178.957279 191.418202 
L 180.170355 188.013203 
L 180.18532 187.98995 
z
" style="stroke:#000000;"/>
    <path clip-path="url(#p029c1eda08)" d="M 181.787633 177.148844 
L 181.595953 173.478116 
L 181.608284 173.481717 
z
" style="stroke:#000000;"/>
    <path clip-path="url(#p029c1eda08)" d="M 175.535216 156.527767 
L 173.351118 153.633724 
L 173.378681 153.673987 
z
" style="stroke:#000000;"/>
    <path clip-path="url(#p029c1eda08)" d="M 180.18532 187.98995 
L 181.058906 184.459598 
L 181.072229 184.44291 
z
" style="stroke:#000000;"/>
    <path clip-path="url(#p029c1eda08)" d="M 181.608284 180.815971 
L 181.775634 177.152031 
L 181.787633 177.148844 
z
" style="stroke:#000000;"/>
    <path clip-path="url(#p029c1eda08)" d="M 177.401566 194.690121 
L 178.940041 191.4478 
L 178.957279 191.418202 
z
" style="stroke:#000000;"/>
    <path clip-path="url(#p029c1eda08)" d="M 171.745797 151.913442 
L 172.732418 151.291509 
L 171.776326 151.956883 
z
" style="stroke:#000000;"/>
    <path clip-path="url(#p029c1eda08)" d="M 200.617429 151.246837 
L 201.550709 151.956883 
L 200.594618 151.291509 
z
" style="stroke:#000000;"/>
    <path clip-path="url(#p029c1eda08)" d="M 173.615658 203.555272 
L 172.732418 203.006178 
L 173.642732 203.503306 
z
" style="stroke:#000000;"/>
    <path clip-path="url(#p029c1eda08)" d="M 199.70543 150.748789 
L 200.594618 151.291509 
L 199.684303 150.794382 
z
" style="stroke:#000000;"/>
    <path clip-path="url(#p029c1eda08)" d="M 200.617429 203.057225 
L 199.684303 203.503306 
L 200.594618 203.006178 
z
" style="stroke:#000000;"/>
    <path clip-path="url(#p029c1eda08)" d="M 172.703659 151.246837 
L 173.642732 150.794382 
L 172.732418 151.291509 
z
" style="stroke:#000000;"/>
    <path clip-path="url(#p029c1eda08)" d="M 201.57529 202.390619 
L 200.594618 203.006178 
L 201.550709 202.340804 
z
" style="stroke:#000000;"/>
    <path clip-path="url(#p029c1eda08)" d="M 172.703659 203.057225 
L 171.776326 202.340804 
L 172.732418 203.006178 
z
" style="stroke:#000000;"/>
    <path clip-path="url(#p029c1eda08)" d="M 186.660544 149.482731 
L 191.88768 153.26285 
L 186.663518 149.530663 
z
" style="stroke:#000000;"/>
    <path clip-path="url(#p029c1eda08)" d="M 181.426712 153.221826 
L 186.663518 149.530663 
L 181.439355 153.26285 
z
" style="stroke:#000000;"/>
    <path clip-path="url(#p029c1eda08)" d="M 186.663518 164.459409 
L 181.426712 153.221826 
L 181.439355 153.26285 
z
" style="stroke:#000000;"/>
    <path clip-path="url(#p029c1eda08)" d="M 191.88768 153.26285 
L 186.660544 164.439109 
L 186.663518 164.459409 
z
" style="stroke:#000000;"/>
    <path clip-path="url(#p029c1eda08)" d="M 186.660544 151.352278 
L 183.180743 153.729373 
L 186.663518 151.396756 
z
" style="stroke:#000000;"/>
    <path clip-path="url(#p029c1eda08)" d="M 190.149765 153.689212 
L 186.663518 151.396756 
L 190.146293 153.729373 
z
" style="stroke:#000000;"/>
    <path clip-path="url(#p029c1eda08)" d="M 186.663518 160.727223 
L 190.149765 153.689212 
L 190.146293 153.729373 
z
" style="stroke:#000000;"/>
    <path clip-path="url(#p029c1eda08)" d="M 183.180743 153.729373 
L 186.660544 160.700015 
L 186.663518 160.727223 
z
" style="stroke:#000000;"/>
    <path clip-path="url(#p029c1eda08)" d="M 191.159671 188.706461 
L 192.46075 192.32899 
L 192.468506 192.360274 
z
" style="stroke:#000000;"/>
    <path clip-path="url(#p029c1eda08)" d="M 194.126598 195.847503 
L 196.101253 199.08604 
L 196.115747 199.12983 
z
" style="stroke:#000000;"/>
    <path clip-path="url(#p029c1eda08)" d="M 196.115747 199.12983 
L 198.395426 202.122099 
L 198.414167 202.171509 
z
" style="stroke:#000000;"/>
    <path clip-path="url(#p029c1eda08)" d="M 199.70543 150.748789 
L 198.395426 152.175589 
L 198.414167 152.132552 
z
" style="stroke:#000000;"/>
    <path clip-path="url(#p029c1eda08)" d="M 198.414167 202.171509 
L 199.684303 203.503306 
L 199.70543 203.555272 
z
" style="stroke:#000000;"/>
    <path clip-path="url(#p029c1eda08)" d="M 192.468506 192.360274 
L 194.115779 195.809777 
L 194.126598 195.847503 
z
" style="stroke:#000000;"/>
    <path clip-path="url(#p029c1eda08)" d="M 198.414167 152.132552 
L 196.101253 155.211648 
L 196.115747 155.174231 
z
" style="stroke:#000000;"/>
    <path clip-path="url(#p029c1eda08)" d="M 196.115747 155.174231 
L 194.115779 158.487911 
L 194.126598 158.456558 
z
" style="stroke:#000000;"/>
    <path clip-path="url(#p029c1eda08)" d="M 190.214399 169.378019 
L 189.640524 173.247649 
L 189.64306 173.243615 
z
" style="stroke:#000000;"/>
    <path clip-path="url(#p029c1eda08)" d="M 192.468506 161.943787 
L 191.154333 165.61576 
L 191.159671 165.5976 
z
" style="stroke:#000000;"/>
    <path clip-path="url(#p029c1eda08)" d="M 194.126598 158.456558 
L 192.46075 161.968698 
L 192.468506 161.943787 
z
" style="stroke:#000000;"/>
    <path clip-path="url(#p029c1eda08)" d="M 190.214399 184.926042 
L 191.154333 188.681927 
L 191.159671 188.706461 
z
" style="stroke:#000000;"/>
    <path clip-path="url(#p029c1eda08)" d="M 189.64306 181.060446 
L 190.210808 184.908493 
L 190.214399 184.926042 
z
" style="stroke:#000000;"/>
    <path clip-path="url(#p029c1eda08)" d="M 189.451921 177.152031 
L 189.640524 181.050039 
L 189.64306 181.060446 
z
" style="stroke:#000000;"/>
    <path clip-path="url(#p029c1eda08)" d="M 191.159671 165.5976 
L 190.210808 169.389195 
L 190.214399 169.378019 
z
" style="stroke:#000000;"/>
    <path clip-path="url(#p029c1eda08)" d="M 189.64306 173.243615 
L 189.449738 177.148844 
L 189.451921 177.152031 
z
" style="stroke:#000000;"/>
    <path clip-path="url(#p029c1eda08)" d="M 195.939639 159.578286 
L 197.79182 156.527767 
L 197.809443 156.492786 
z
" style="stroke:#000000;"/>
    <path clip-path="url(#p029c1eda08)" d="M 192.262181 184.459598 
L 191.718752 180.815971 
L 191.725135 180.825945 
z
" style="stroke:#000000;"/>
    <path clip-path="url(#p029c1eda08)" d="M 194.381046 191.4478 
L 193.141716 187.98995 
L 193.150732 188.013203 
z
" style="stroke:#000000;"/>
    <path clip-path="url(#p029c1eda08)" d="M 197.809443 197.811276 
L 195.92547 194.690121 
L 195.939639 194.725775 
z
" style="stroke:#000000;"/>
    <path clip-path="url(#p029c1eda08)" d="M 191.725135 173.478116 
L 192.254806 169.854778 
L 192.262181 169.844464 
z
" style="stroke:#000000;"/>
    <path clip-path="url(#p029c1eda08)" d="M 201.550709 202.340804 
L 199.96997 200.670337 
L 201.57529 202.390619 
z
" style="stroke:#000000;"/>
    <path clip-path="url(#p029c1eda08)" d="M 193.150732 188.013203 
L 192.254806 184.44291 
L 192.262181 184.459598 
z
" style="stroke:#000000;"/>
    <path clip-path="url(#p029c1eda08)" d="M 195.939639 194.725775 
L 194.369757 191.418202 
L 194.381046 191.4478 
z
" style="stroke:#000000;"/>
    <path clip-path="url(#p029c1eda08)" d="M 199.948354 153.673987 
L 201.57529 151.913442 
L 199.96997 153.633724 
z
" style="stroke:#000000;"/>
    <path clip-path="url(#p029c1eda08)" d="M 197.809443 156.492786 
L 199.948354 153.673987 
L 199.96997 153.633724 
z
" style="stroke:#000000;"/>
    <path clip-path="url(#p029c1eda08)" d="M 193.150732 166.290858 
L 194.369757 162.879486 
L 194.381046 162.856261 
z
" style="stroke:#000000;"/>
    <path clip-path="url(#p029c1eda08)" d="M 191.725135 180.825945 
L 191.539403 177.148844 
L 191.545454 177.152031 
z
" style="stroke:#000000;"/>
    <path clip-path="url(#p029c1eda08)" d="M 199.96997 200.670337 
L 197.79182 197.769921 
L 197.809443 197.811276 
z
" style="stroke:#000000;"/>
    <path clip-path="url(#p029c1eda08)" d="M 192.262181 169.844464 
L 193.141716 166.307737 
L 193.150732 166.290858 
z
" style="stroke:#000000;"/>
    <path clip-path="url(#p029c1eda08)" d="M 191.545454 177.152031 
L 191.718752 173.481717 
L 191.725135 173.478116 
z
" style="stroke:#000000;"/>
    <path clip-path="url(#p029c1eda08)" d="M 194.381046 162.856261 
L 195.92547 159.607567 
L 195.939639 159.578286 
z
" style="stroke:#000000;"/>
    <path clip-path="url(#p029c1eda08)" d="M 182.161416 165.5976 
L 180.866286 161.968698 
L 180.852582 161.943787 
z
" style="stroke:#000000;"/>
    <path clip-path="url(#p029c1eda08)" d="M 179.194489 158.456558 
L 177.225783 155.211648 
L 177.20534 155.174231 
z
" style="stroke:#000000;"/>
    <path clip-path="url(#p029c1eda08)" d="M 177.20534 155.174231 
L 174.931609 152.175589 
L 174.90692 152.132552 
z
" style="stroke:#000000;"/>
    <path clip-path="url(#p029c1eda08)" d="M 173.615658 203.555272 
L 174.931609 202.122099 
L 174.90692 202.171509 
z
" style="stroke:#000000;"/>
    <path clip-path="url(#p029c1eda08)" d="M 174.90692 152.132552 
L 173.642732 150.794382 
L 173.615658 150.748789 
z
" style="stroke:#000000;"/>
    <path clip-path="url(#p029c1eda08)" d="M 180.852582 161.943787 
L 179.211257 158.487911 
L 179.194489 158.456558 
z
" style="stroke:#000000;"/>
    <path clip-path="url(#p029c1eda08)" d="M 174.90692 202.171509 
L 177.225783 199.08604 
L 177.20534 199.12983 
z
" style="stroke:#000000;"/>
    <path clip-path="url(#p029c1eda08)" d="M 177.20534 199.12983 
L 179.211257 195.809777 
L 179.194489 195.847503 
z
" style="stroke:#000000;"/>
    <path clip-path="url(#p029c1eda08)" d="M 183.106688 184.926042 
L 183.686511 181.050039 
L 183.678027 181.060446 
z
" style="stroke:#000000;"/>
    <path clip-path="url(#p029c1eda08)" d="M 180.852582 192.360274 
L 182.172702 188.681927 
L 182.161416 188.706461 
z
" style="stroke:#000000;"/>
    <path clip-path="url(#p029c1eda08)" d="M 179.194489 195.847503 
L 180.866286 192.32899 
L 180.852582 192.360274 
z
" style="stroke:#000000;"/>
    <path clip-path="url(#p029c1eda08)" d="M 183.106688 169.378019 
L 182.172702 165.61576 
L 182.161416 165.5976 
z
" style="stroke:#000000;"/>
    <path clip-path="url(#p029c1eda08)" d="M 183.678027 173.243615 
L 183.116228 169.389195 
L 183.106688 169.378019 
z
" style="stroke:#000000;"/>
    <path clip-path="url(#p029c1eda08)" d="M 183.869167 177.152031 
L 183.686511 173.247649 
L 183.678027 173.243615 
z
" style="stroke:#000000;"/>
    <path clip-path="url(#p029c1eda08)" d="M 182.161416 188.706461 
L 183.116228 184.908493 
L 183.106688 184.926042 
z
" style="stroke:#000000;"/>
    <path clip-path="url(#p029c1eda08)" d="M 183.678027 181.060446 
L 183.877298 177.148844 
L 183.869167 177.152031 
z
" style="stroke:#000000;"/>
    <path clip-path="url(#p029c1eda08)" d="M 177.381448 194.725775 
L 175.535216 197.769921 
L 175.511644 197.811276 
z
" style="stroke:#000000;"/>
    <path clip-path="url(#p029c1eda08)" d="M 181.058906 169.844464 
L 181.608284 173.481717 
L 181.595953 173.478116 
z
" style="stroke:#000000;"/>
    <path clip-path="url(#p029c1eda08)" d="M 178.940041 162.856261 
L 180.18532 166.307737 
L 180.170355 166.290858 
z
" style="stroke:#000000;"/>
    <path clip-path="url(#p029c1eda08)" d="M 175.511644 156.492786 
L 177.401566 159.607567 
L 177.381448 159.578286 
z
" style="stroke:#000000;"/>
    <path clip-path="url(#p029c1eda08)" d="M 181.595953 180.825945 
L 181.072229 184.44291 
L 181.058906 184.459598 
z
" style="stroke:#000000;"/>
    <path clip-path="url(#p029c1eda08)" d="M 171.776326 151.956883 
L 173.351118 153.633724 
L 171.745797 151.913442 
z
" style="stroke:#000000;"/>
    <path clip-path="url(#p029c1eda08)" d="M 180.170355 166.290858 
L 181.072229 169.854778 
L 181.058906 169.844464 
z
" style="stroke:#000000;"/>
    <path clip-path="url(#p029c1eda08)" d="M 177.381448 159.578286 
L 178.957279 162.879486 
L 178.940041 162.856261 
z
" style="stroke:#000000;"/>
    <path clip-path="url(#p029c1eda08)" d="M 173.378681 200.6237 
L 171.745797 202.390619 
L 173.351118 200.670337 
z
" style="stroke:#000000;"/>
    <path clip-path="url(#p029c1eda08)" d="M 175.511644 197.811276 
L 173.378681 200.6237 
L 173.351118 200.670337 
z
" style="stroke:#000000;"/>
    <path clip-path="url(#p029c1eda08)" d="M 180.170355 188.013203 
L 178.957279 191.418202 
L 178.940041 191.4478 
z
" style="stroke:#000000;"/>
    <path clip-path="url(#p029c1eda08)" d="M 181.595953 173.478116 
L 181.787633 177.148844 
L 181.775634 177.152031 
z
" style="stroke:#000000;"/>
    <path clip-path="url(#p029c1eda08)" d="M 173.351118 153.633724 
L 175.535216 156.527767 
L 175.511644 156.492786 
z
" style="stroke:#000000;"/>
    <path clip-path="url(#p029c1eda08)" d="M 181.058906 184.459598 
L 180.18532 187.98995 
L 180.170355 188.013203 
z
" style="stroke:#000000;"/>
    <path clip-path="url(#p029c1eda08)" d="M 181.775634 177.152031 
L 181.608284 180.815971 
L 181.595953 180.825945 
z
" style="stroke:#000000;"/>
    <path clip-path="url(#p029c1eda08)" d="M 178.940041 191.4478 
L 177.401566 194.690121 
L 177.381448 194.725775 
z
" style="stroke:#000000;"/>
    <path clip-path="url(#p029c1eda08)" d="M 172.732418 151.291509 
L 171.745797 151.913442 
L 172.703659 151.246837 
z
" style="stroke:#000000;"/>
    <path clip-path="url(#p029c1eda08)" d="M 201.550709 151.956883 
L 200.617429 151.246837 
L 201.57529 151.913442 
z
" style="stroke:#000000;"/>
    <path clip-path="url(#p029c1eda08)" d="M 172.732418 203.006178 
L 173.615658 203.555272 
L 172.703659 203.057225 
z
" style="stroke:#000000;"/>
    <path clip-path="url(#p029c1eda08)" d="M 200.594618 151.291509 
L 199.70543 150.748789 
L 200.617429 151.246837 
z
" style="stroke:#000000;"/>
    <path clip-path="url(#p029c1eda08)" d="M 199.684303 203.503306 
L 200.617429 203.057225 
L 199.70543 203.555272 
z
" style="stroke:#000000;"/>
    <path clip-path="url(#p029c1eda08)" d="M 173.642732 150.794382 
L 172.703659 151.246837 
L 173.615658 150.748789 
z
" style="stroke:#000000;"/>
    <path clip-path="url(#p029c1eda08)" d="M 200.594618 203.006178 
L 201.57529 202.390619 
L 200.617429 203.057225 
z
" style="stroke:#000000;"/>
    <path clip-path="url(#p029c1eda08)" d="M 171.776326 202.340804 
L 172.703659 203.057225 
L 171.745797 202.390619 
z
" style="stroke:#000000;"/>
    <path clip-path="url(#p029c1eda08)" d="M 191.88768 153.26285 
L 186.660544 149.482731 
L 191.894376 153.221826 
z
" style="stroke:#000000;"/>
    <path clip-path="url(#p029c1eda08)" d="M 186.663518 149.530663 
L 181.426712 153.221826 
L 186.660544 149.482731 
z
" style="stroke:#000000;"/>
    <path clip-path="url(#p029c1eda08)" d="M 181.426712 153.221826 
L 186.663518 164.459409 
L 186.660544 164.439109 
z
" style="stroke:#000000;"/>
    <path clip-path="url(#p029c1eda08)" d="M 186.660544 164.439109 
L 191.88768 153.26285 
L 191.894376 153.221826 
z
" style="stroke:#000000;"/>
    <path clip-path="url(#p029c1eda08)" d="M 183.180743 153.729373 
L 186.660544 151.352278 
L 183.171322 153.689212 
z
" style="stroke:#000000;"/>
    <path clip-path="url(#p029c1eda08)" d="M 186.663518 151.396756 
L 190.149765 153.689212 
L 186.660544 151.352278 
z
" style="stroke:#000000;"/>
    <path clip-path="url(#p029c1eda08)" d="M 190.149765 153.689212 
L 186.663518 160.727223 
L 186.660544 160.700015 
z
" style="stroke:#000000;"/>
    <path clip-path="url(#p029c1eda08)" d="M 186.660544 160.700015 
L 183.180743 153.729373 
L 183.171322 153.689212 
z
" style="stroke:#000000;"/>
    <path clip-path="url(#p029c1eda08)" d="M 181.775634 177.152031 
L 183.869167 177.152031 
L 183.678027 173.243615 
z
" style="stroke:#000000;"/>
    <path clip-path="url(#p029c1eda08)" d="M 181.595953 173.478116 
L 183.678027 173.243615 
L 183.106688 169.378019 
z
" style="stroke:#000000;"/>
    <path clip-path="url(#p029c1eda08)" d="M 183.869167 177.152031 
L 181.775634 177.152031 
L 183.678027 181.060446 
z
" style="stroke:#000000;"/>
    <path clip-path="url(#p029c1eda08)" d="M 181.058906 169.844464 
L 183.106688 169.378019 
L 182.161416 165.5976 
z
" style="stroke:#000000;"/>
    <path clip-path="url(#p029c1eda08)" d="M 181.595953 180.825945 
L 183.678027 181.060446 
L 181.775634 177.152031 
z
" style="stroke:#000000;"/>
    <path clip-path="url(#p029c1eda08)" d="M 183.678027 181.060446 
L 181.595953 180.825945 
L 183.106688 184.926042 
z
" style="stroke:#000000;"/>
    <path clip-path="url(#p029c1eda08)" d="M 183.678027 173.243615 
L 181.595953 173.478116 
L 181.775634 177.152031 
z
" style="stroke:#000000;"/>
    <path clip-path="url(#p029c1eda08)" d="M 183.106688 169.378019 
L 181.058906 169.844464 
L 181.595953 173.478116 
z
" style="stroke:#000000;"/>
    <path clip-path="url(#p029c1eda08)" d="M 180.170355 166.290858 
L 182.161416 165.5976 
L 180.852582 161.943787 
z
" style="stroke:#000000;"/>
    <path clip-path="url(#p029c1eda08)" d="M 182.161416 165.5976 
L 180.170355 166.290858 
L 181.058906 169.844464 
z
" style="stroke:#000000;"/>
    <path clip-path="url(#p029c1eda08)" d="M 178.940041 162.856261 
L 180.852582 161.943787 
L 179.194489 158.456558 
z
" style="stroke:#000000;"/>
    <path clip-path="url(#p029c1eda08)" d="M 180.852582 161.943787 
L 178.940041 162.856261 
L 180.170355 166.290858 
z
" style="stroke:#000000;"/>
    <path clip-path="url(#p029c1eda08)" d="M 179.194489 158.456558 
L 177.381448 159.578286 
L 178.940041 162.856261 
z
" style="stroke:#000000;"/>
    <path clip-path="url(#p029c1eda08)" d="M 177.20534 155.174231 
L 177.381448 159.578286 
L 179.194489 158.456558 
z
" style="stroke:#000000;"/>
    <path clip-path="url(#p029c1eda08)" d="M 177.20534 155.174231 
L 175.511644 156.492786 
L 177.381448 159.578286 
z
" style="stroke:#000000;"/>
    <path clip-path="url(#p029c1eda08)" d="M 174.90692 152.132552 
L 175.511644 156.492786 
L 177.20534 155.174231 
z
" style="stroke:#000000;"/>
    <path clip-path="url(#p029c1eda08)" d="M 172.703659 151.246837 
L 174.90692 152.132552 
L 173.615658 150.748789 
z
" style="stroke:#000000;"/>
    <path clip-path="url(#p029c1eda08)" d="M 174.90692 152.132552 
L 173.351118 153.633724 
L 175.511644 156.492786 
z
" style="stroke:#000000;"/>
    <path clip-path="url(#p029c1eda08)" d="M 174.90692 152.132552 
L 172.703659 151.246837 
L 173.351118 153.633724 
z
" style="stroke:#000000;"/>
    <path clip-path="url(#p029c1eda08)" d="M 173.351118 153.633724 
L 172.703659 151.246837 
L 171.745797 151.913442 
z
" style="stroke:#000000;"/>
    <path clip-path="url(#p029c1eda08)" d="M 181.058906 184.459598 
L 183.106688 184.926042 
L 181.595953 180.825945 
z
" style="stroke:#000000;"/>
    <path clip-path="url(#p029c1eda08)" d="M 183.106688 184.926042 
L 181.058906 184.459598 
L 182.161416 188.706461 
z
" style="stroke:#000000;"/>
    <path clip-path="url(#p029c1eda08)" d="M 180.170355 188.013203 
L 182.161416 188.706461 
L 181.058906 184.459598 
z
" style="stroke:#000000;"/>
    <path clip-path="url(#p029c1eda08)" d="M 182.161416 188.706461 
L 180.170355 188.013203 
L 180.852582 192.360274 
z
" style="stroke:#000000;"/>
    <path clip-path="url(#p029c1eda08)" d="M 178.940041 191.4478 
L 180.852582 192.360274 
L 180.170355 188.013203 
z
" style="stroke:#000000;"/>
    <path clip-path="url(#p029c1eda08)" d="M 180.852582 192.360274 
L 178.940041 191.4478 
L 179.194489 195.847503 
z
" style="stroke:#000000;"/>
    <path clip-path="url(#p029c1eda08)" d="M 177.381448 194.725775 
L 179.194489 195.847503 
L 178.940041 191.4478 
z
" style="stroke:#000000;"/>
    <path clip-path="url(#p029c1eda08)" d="M 177.381448 194.725775 
L 177.20534 199.12983 
L 179.194489 195.847503 
z
" style="stroke:#000000;"/>
    <path clip-path="url(#p029c1eda08)" d="M 175.511644 197.811276 
L 177.20534 199.12983 
L 177.381448 194.725775 
z
" style="stroke:#000000;"/>
    <path clip-path="url(#p029c1eda08)" d="M 175.511644 197.811276 
L 174.90692 202.171509 
L 177.20534 199.12983 
z
" style="stroke:#000000;"/>
    <path clip-path="url(#p029c1eda08)" d="M 173.351118 200.670337 
L 174.90692 202.171509 
L 175.511644 197.811276 
z
" style="stroke:#000000;"/>
    <path clip-path="url(#p029c1eda08)" d="M 172.703659 203.057225 
L 174.90692 202.171509 
L 173.351118 200.670337 
z
" style="stroke:#000000;"/>
    <path clip-path="url(#p029c1eda08)" d="M 174.90692 202.171509 
L 172.703659 203.057225 
L 173.615658 203.555272 
z
" style="stroke:#000000;"/>
    <path clip-path="url(#p029c1eda08)" d="M 172.703659 203.057225 
L 173.351118 200.670337 
L 171.745797 202.390619 
z
" style="stroke:#000000;"/>
    <path clip-path="url(#p029c1eda08)" d="M 200.617429 151.246837 
L 199.96997 153.633724 
L 201.57529 151.913442 
z
" style="stroke:#000000;"/>
    <path clip-path="url(#p029c1eda08)" d="M 198.414167 152.132552 
L 200.617429 151.246837 
L 199.70543 150.748789 
z
" style="stroke:#000000;"/>
    <path clip-path="url(#p029c1eda08)" d="M 200.617429 151.246837 
L 198.414167 152.132552 
L 199.96997 153.633724 
z
" style="stroke:#000000;"/>
    <path clip-path="url(#p029c1eda08)" d="M 198.414167 152.132552 
L 197.809443 156.492786 
L 199.96997 153.633724 
z
" style="stroke:#000000;"/>
    <path clip-path="url(#p029c1eda08)" d="M 196.115747 155.174231 
L 197.809443 156.492786 
L 198.414167 152.132552 
z
" style="stroke:#000000;"/>
    <path clip-path="url(#p029c1eda08)" d="M 196.115747 155.174231 
L 195.939639 159.578286 
L 197.809443 156.492786 
z
" style="stroke:#000000;"/>
    <path clip-path="url(#p029c1eda08)" d="M 194.126598 158.456558 
L 195.939639 159.578286 
L 196.115747 155.174231 
z
" style="stroke:#000000;"/>
    <path clip-path="url(#p029c1eda08)" d="M 195.939639 159.578286 
L 194.126598 158.456558 
L 194.381046 162.856261 
z
" style="stroke:#000000;"/>
    <path clip-path="url(#p029c1eda08)" d="M 192.468506 161.943787 
L 194.381046 162.856261 
L 194.126598 158.456558 
z
" style="stroke:#000000;"/>
    <path clip-path="url(#p029c1eda08)" d="M 194.381046 162.856261 
L 192.468506 161.943787 
L 193.150732 166.290858 
z
" style="stroke:#000000;"/>
    <path clip-path="url(#p029c1eda08)" d="M 191.159671 165.5976 
L 193.150732 166.290858 
L 192.468506 161.943787 
z
" style="stroke:#000000;"/>
    <path clip-path="url(#p029c1eda08)" d="M 193.150732 166.290858 
L 191.159671 165.5976 
L 192.262181 169.844464 
z
" style="stroke:#000000;"/>
    <path clip-path="url(#p029c1eda08)" d="M 192.262181 169.844464 
L 190.214399 169.378019 
L 191.725135 173.478116 
z
" style="stroke:#000000;"/>
    <path clip-path="url(#p029c1eda08)" d="M 190.214399 169.378019 
L 192.262181 169.844464 
L 191.159671 165.5976 
z
" style="stroke:#000000;"/>
    <path clip-path="url(#p029c1eda08)" d="M 199.96997 200.670337 
L 200.617429 203.057225 
L 201.57529 202.390619 
z
" style="stroke:#000000;"/>
    <path clip-path="url(#p029c1eda08)" d="M 198.414167 202.171509 
L 200.617429 203.057225 
L 199.96997 200.670337 
z
" style="stroke:#000000;"/>
    <path clip-path="url(#p029c1eda08)" d="M 200.617429 203.057225 
L 198.414167 202.171509 
L 199.70543 203.555272 
z
" style="stroke:#000000;"/>
    <path clip-path="url(#p029c1eda08)" d="M 197.809443 197.811276 
L 198.414167 202.171509 
L 199.96997 200.670337 
z
" style="stroke:#000000;"/>
    <path clip-path="url(#p029c1eda08)" d="M 197.809443 197.811276 
L 196.115747 199.12983 
L 198.414167 202.171509 
z
" style="stroke:#000000;"/>
    <path clip-path="url(#p029c1eda08)" d="M 195.939639 194.725775 
L 196.115747 199.12983 
L 197.809443 197.811276 
z
" style="stroke:#000000;"/>
    <path clip-path="url(#p029c1eda08)" d="M 194.126598 195.847503 
L 195.939639 194.725775 
L 194.381046 191.4478 
z
" style="stroke:#000000;"/>
    <path clip-path="url(#p029c1eda08)" d="M 195.939639 194.725775 
L 194.126598 195.847503 
L 196.115747 199.12983 
z
" style="stroke:#000000;"/>
    <path clip-path="url(#p029c1eda08)" d="M 192.468506 192.360274 
L 194.381046 191.4478 
L 193.150732 188.013203 
z
" style="stroke:#000000;"/>
    <path clip-path="url(#p029c1eda08)" d="M 194.381046 191.4478 
L 192.468506 192.360274 
L 194.126598 195.847503 
z
" style="stroke:#000000;"/>
    <path clip-path="url(#p029c1eda08)" d="M 191.159671 188.706461 
L 193.150732 188.013203 
L 192.262181 184.459598 
z
" style="stroke:#000000;"/>
    <path clip-path="url(#p029c1eda08)" d="M 190.214399 184.926042 
L 192.262181 184.459598 
L 191.725135 180.825945 
z
" style="stroke:#000000;"/>
    <path clip-path="url(#p029c1eda08)" d="M 193.150732 188.013203 
L 191.159671 188.706461 
L 192.468506 192.360274 
z
" style="stroke:#000000;"/>
    <path clip-path="url(#p029c1eda08)" d="M 189.64306 181.060446 
L 191.725135 180.825945 
L 191.545454 177.152031 
z
" style="stroke:#000000;"/>
    <path clip-path="url(#p029c1eda08)" d="M 189.64306 173.243615 
L 191.725135 173.478116 
L 190.214399 169.378019 
z
" style="stroke:#000000;"/>
    <path clip-path="url(#p029c1eda08)" d="M 191.725135 173.478116 
L 189.64306 173.243615 
L 191.545454 177.152031 
z
" style="stroke:#000000;"/>
    <path clip-path="url(#p029c1eda08)" d="M 192.262181 184.459598 
L 190.214399 184.926042 
L 191.159671 188.706461 
z
" style="stroke:#000000;"/>
    <path clip-path="url(#p029c1eda08)" d="M 189.451921 177.152031 
L 191.545454 177.152031 
L 189.64306 173.243615 
z
" style="stroke:#000000;"/>
    <path clip-path="url(#p029c1eda08)" d="M 191.725135 180.825945 
L 189.64306 181.060446 
L 190.214399 184.926042 
z
" style="stroke:#000000;"/>
    <path clip-path="url(#p029c1eda08)" d="M 191.545454 177.152031 
L 189.451921 177.152031 
L 189.64306 181.060446 
z
" style="stroke:#000000;"/>
    <path clip-path="url(#p029c1eda08)" d="M 186.660544 149.482731 
L 190.149765 153.689212 
L 191.894376 153.221826 
z
" style="stroke:#000000;"/>
    <path clip-path="url(#p029c1eda08)" d="M 186.660544 149.482731 
L 186.660544 151.352278 
L 190.149765 153.689212 
z
" style="stroke:#000000;"/>
    <path clip-path="url(#p029c1eda08)" d="M 186.660544 149.482731 
L 183.171322 153.689212 
L 186.660544 151.352278 
z
" style="stroke:#000000;"/>
    <path clip-path="url(#p029c1eda08)" d="M 183.171322 153.689212 
L 186.660544 149.482731 
L 181.426712 153.221826 
z
" style="stroke:#000000;"/>
    <path clip-path="url(#p029c1eda08)" d="M 186.660544 160.700015 
L 191.894376 153.221826 
L 190.149765 153.689212 
z
" style="stroke:#000000;"/>
    <path clip-path="url(#p029c1eda08)" d="M 186.660544 160.700015 
L 186.660544 164.439109 
L 191.894376 153.221826 
z
" style="stroke:#000000;"/>
    <path clip-path="url(#p029c1eda08)" d="M 181.426712 153.221826 
L 186.660544 160.700015 
L 183.171322 153.689212 
z
" style="stroke:#000000;"/>
    <path clip-path="url(#p029c1eda08)" d="M 186.660544 160.700015 
L 181.426712 153.221826 
L 186.660544 164.439109 
z
" style="stroke:#000000;"/>
   </g>
  </g>
 </g>
 <defs>
  <clipPath id="p029c1eda08">
   <rect height="271.8" width="279" x="45" y="43.2"/>
  </clipPath>
 </defs>
</svg>
