<?xml version="1.0" encoding="utf-8" standalone="no"?>
<!DOCTYPE svg PUBLIC "-//W3C//DTD SVG 1.1//EN"
  "http://www.w3.org/Graphics/SVG/1.1/DTD/svg11.dtd">
<!-- Created with matplotlib (https://matplotlib.org/) -->
<svg height="360pt" version="1.1" viewBox="0 0 360 360" width="360pt" xmlns="http://www.w3.org/2000/svg" xmlns:xlink="http://www.w3.org/1999/xlink">
 <defs>
  <style type="text/css">
*{stroke-linecap:butt;stroke-linejoin:round;}
  </style>
 </defs>
 <g id="figure_1">
  <g id="patch_1">
   <path d="M 0 360 
L 360 360 
L 360 0 
L 0 0 
z
" style="fill:#ffffff;"/>
  </g>
  <g id="patch_2">
   <path d="M 45 315 
L 324 315 
L 324 43.2 
L 45 43.2 
z
" style="fill:#ffffff;"/>
  </g>
  <g id="axes_1">
   <g id="Poly3DCollection_1">
    <path clip-path="url(#p6efeeb74d6)" d="M 174.174604 199.339788 
L 173.585931 201.589649 
L 172.715264 200.956652 
z
" style="stroke:#000000;"/>
    <path clip-path="url(#p6efeeb74d6)" d="M 173.585931 152.699185 
L 174.174604 154.949405 
L 172.715264 153.331649 
z
" style="stroke:#000000;"/>
    <path clip-path="url(#p6efeeb74d6)" d="M 175.589653 200.76289 
L 173.585931 201.589649 
L 174.174604 199.339788 
z
" style="stroke:#000000;"/>
    <path clip-path="url(#p6efeeb74d6)" d="M 173.585931 152.699185 
L 175.589653 153.527169 
L 174.174604 154.949405 
z
" style="stroke:#000000;"/>
    <path clip-path="url(#p6efeeb74d6)" d="M 173.585931 201.589649 
L 175.589653 200.76289 
L 174.415161 202.063562 
z
" style="stroke:#000000;"/>
    <path clip-path="url(#p6efeeb74d6)" d="M 175.589653 153.527169 
L 173.585931 152.699185 
L 174.415161 152.225779 
z
" style="stroke:#000000;"/>
    <path clip-path="url(#p6efeeb74d6)" d="M 175.589653 200.76289 
L 174.174604 199.339788 
L 176.13986 196.649001 
z
" style="stroke:#000000;"/>
    <path clip-path="url(#p6efeeb74d6)" d="M 174.174604 154.949405 
L 175.589653 153.527169 
L 176.13986 157.641395 
z
" style="stroke:#000000;"/>
    <path clip-path="url(#p6efeeb74d6)" d="M 172.00619 153.294315 
L 173.585931 152.699185 
L 172.715264 153.331649 
z
" style="stroke:#000000;"/>
    <path clip-path="url(#p6efeeb74d6)" d="M 172.00619 200.999789 
L 174.174604 199.339788 
L 172.715264 200.956652 
z
" style="stroke:#000000;"/>
    <path clip-path="url(#p6efeeb74d6)" d="M 172.878218 201.633862 
L 172.715264 200.956652 
L 173.585931 201.589649 
z
" style="stroke:#000000;"/>
    <path clip-path="url(#p6efeeb74d6)" d="M 175.589653 200.76289 
L 176.13986 196.649001 
L 177.681441 197.899978 
z
" style="stroke:#000000;"/>
    <path clip-path="url(#p6efeeb74d6)" d="M 176.13986 157.641395 
L 175.589653 153.527169 
L 177.681441 156.391362 
z
" style="stroke:#000000;"/>
    <path clip-path="url(#p6efeeb74d6)" d="M 173.467812 154.914796 
L 172.715264 153.331649 
L 174.174604 154.949405 
z
" style="stroke:#000000;"/>
    <path clip-path="url(#p6efeeb74d6)" d="M 172.878218 152.660776 
L 174.415161 152.225779 
L 173.585931 152.699185 
z
" style="stroke:#000000;"/>
    <path clip-path="url(#p6efeeb74d6)" d="M 177.681441 197.899978 
L 176.13986 196.649001 
L 177.841781 193.741616 
z
" style="stroke:#000000;"/>
    <path clip-path="url(#p6efeeb74d6)" d="M 176.13986 157.641395 
L 177.681441 156.391362 
L 177.841781 160.549821 
z
" style="stroke:#000000;"/>
    <path clip-path="url(#p6efeeb74d6)" d="M 173.708745 202.108583 
L 173.585931 201.589649 
L 174.415161 202.063562 
z
" style="stroke:#000000;"/>
    <path clip-path="url(#p6efeeb74d6)" d="M 175.589653 200.76289 
L 173.708745 202.108583 
L 174.415161 202.063562 
z
" style="stroke:#000000;"/>
    <path clip-path="url(#p6efeeb74d6)" d="M 176.13986 157.641395 
L 173.467812 154.914796 
L 174.174604 154.949405 
z
" style="stroke:#000000;"/>
    <path clip-path="url(#p6efeeb74d6)" d="M 177.681441 197.899978 
L 177.841781 193.741616 
L 179.493021 194.806623 
z
" style="stroke:#000000;"/>
    <path clip-path="url(#p6efeeb74d6)" d="M 177.841781 160.549821 
L 177.681441 156.391362 
L 179.493021 159.485824 
z
" style="stroke:#000000;"/>
    <path clip-path="url(#p6efeeb74d6)" d="M 174.415161 152.225779 
L 174.885075 153.490147 
L 175.589653 153.527169 
z
" style="stroke:#000000;"/>
    <path clip-path="url(#p6efeeb74d6)" d="M 174.174604 199.339788 
L 175.436143 196.684881 
L 176.13986 196.649001 
z
" style="stroke:#000000;"/>
    <path clip-path="url(#p6efeeb74d6)" d="M 179.493021 194.806623 
L 177.841781 193.741616 
L 179.261222 190.649881 
z
" style="stroke:#000000;"/>
    <path clip-path="url(#p6efeeb74d6)" d="M 177.841781 160.549821 
L 179.493021 159.485824 
L 179.261222 163.642425 
z
" style="stroke:#000000;"/>
    <path clip-path="url(#p6efeeb74d6)" d="M 172.715264 200.956652 
L 172.878218 201.633862 
L 172.00619 200.999789 
z
" style="stroke:#000000;"/>
    <path clip-path="url(#p6efeeb74d6)" d="M 177.681441 197.899978 
L 174.885075 200.805722 
L 175.589653 200.76289 
z
" style="stroke:#000000;"/>
    <path clip-path="url(#p6efeeb74d6)" d="M 172.715264 153.331649 
L 173.467812 154.914796 
L 172.00619 153.294315 
z
" style="stroke:#000000;"/>
    <path clip-path="url(#p6efeeb74d6)" d="M 173.585931 152.699185 
L 172.00619 153.294315 
L 172.878218 152.660776 
z
" style="stroke:#000000;"/>
    <path clip-path="url(#p6efeeb74d6)" d="M 177.841781 160.549821 
L 175.436143 157.611325 
L 176.13986 157.641395 
z
" style="stroke:#000000;"/>
    <path clip-path="url(#p6efeeb74d6)" d="M 179.261222 190.649881 
L 181.003989 191.516789 
L 179.493021 194.806623 
z
" style="stroke:#000000;"/>
    <path clip-path="url(#p6efeeb74d6)" d="M 181.003989 162.776583 
L 179.261222 163.642425 
L 179.493021 159.485824 
z
" style="stroke:#000000;"/>
    <path clip-path="url(#p6efeeb74d6)" d="M 174.174604 199.339788 
L 172.00619 200.999789 
L 173.467812 199.380204 
z
" style="stroke:#000000;"/>
    <path clip-path="url(#p6efeeb74d6)" d="M 175.589653 153.527169 
L 176.980137 156.359169 
L 177.681441 156.391362 
z
" style="stroke:#000000;"/>
    <path clip-path="url(#p6efeeb74d6)" d="M 173.585931 201.589649 
L 173.708745 202.108583 
L 172.878218 201.633862 
z
" style="stroke:#000000;"/>
    <path clip-path="url(#p6efeeb74d6)" d="M 181.003989 191.516789 
L 179.261222 190.649881 
L 180.382199 187.407964 
z
" style="stroke:#000000;"/>
    <path clip-path="url(#p6efeeb74d6)" d="M 179.261222 163.642425 
L 181.003989 162.776583 
L 180.382199 166.885028 
z
" style="stroke:#000000;"/>
    <path clip-path="url(#p6efeeb74d6)" d="M 176.13986 196.649001 
L 177.140728 193.77259 
L 177.841781 193.741616 
z
" style="stroke:#000000;"/>
    <path clip-path="url(#p6efeeb74d6)" d="M 174.415161 152.225779 
L 172.878218 152.660776 
L 173.708745 152.186565 
z
" style="stroke:#000000;"/>
    <path clip-path="url(#p6efeeb74d6)" d="M 174.885075 153.490147 
L 174.415161 152.225779 
L 173.708745 152.186565 
z
" style="stroke:#000000;"/>
    <path clip-path="url(#p6efeeb74d6)" d="M 175.436143 196.684881 
L 174.174604 199.339788 
L 173.467812 199.380204 
z
" style="stroke:#000000;"/>
    <path clip-path="url(#p6efeeb74d6)" d="M 180.382199 187.407964 
L 182.197264 188.067024 
L 181.003989 191.516789 
z
" style="stroke:#000000;"/>
    <path clip-path="url(#p6efeeb74d6)" d="M 182.197264 166.227079 
L 180.382199 166.885028 
L 181.003989 162.776583 
z
" style="stroke:#000000;"/>
    <path clip-path="url(#p6efeeb74d6)" d="M 182.197264 188.067024 
L 180.382199 187.407964 
L 181.192064 184.051815 
z
" style="stroke:#000000;"/>
    <path clip-path="url(#p6efeeb74d6)" d="M 180.382199 166.885028 
L 182.197264 166.227079 
L 181.192064 170.241673 
z
" style="stroke:#000000;"/>
    <path clip-path="url(#p6efeeb74d6)" d="M 179.493021 194.806623 
L 176.980137 197.937983 
L 177.681441 197.899978 
z
" style="stroke:#000000;"/>
    <path clip-path="url(#p6efeeb74d6)" d="M 179.261222 163.642425 
L 177.140728 160.52466 
L 177.841781 160.549821 
z
" style="stroke:#000000;"/>
    <path clip-path="url(#p6efeeb74d6)" d="M 173.708745 202.108583 
L 175.589653 200.76289 
L 174.885075 200.805722 
z
" style="stroke:#000000;"/>
    <path clip-path="url(#p6efeeb74d6)" d="M 173.467812 154.914796 
L 176.13986 157.641395 
L 175.436143 157.611325 
z
" style="stroke:#000000;"/>
    <path clip-path="url(#p6efeeb74d6)" d="M 177.841781 193.741616 
L 178.562393 190.675633 
L 179.261222 190.649881 
z
" style="stroke:#000000;"/>
    <path clip-path="url(#p6efeeb74d6)" d="M 183.059391 184.49558 
L 181.192064 184.051815 
L 181.681665 180.618754 
z
" style="stroke:#000000;"/>
    <path clip-path="url(#p6efeeb74d6)" d="M 181.192064 170.241673 
L 183.059391 169.79905 
L 181.681665 173.675033 
z
" style="stroke:#000000;"/>
    <path clip-path="url(#p6efeeb74d6)" d="M 177.681441 156.391362 
L 178.794555 159.458856 
L 179.493021 159.485824 
z
" style="stroke:#000000;"/>
    <path clip-path="url(#p6efeeb74d6)" d="M 181.192064 184.051815 
L 183.059391 184.49558 
L 182.197264 188.067024 
z
" style="stroke:#000000;"/>
    <path clip-path="url(#p6efeeb74d6)" d="M 183.059391 169.79905 
L 181.192064 170.241673 
L 182.197264 166.227079 
z
" style="stroke:#000000;"/>
    <path clip-path="url(#p6efeeb74d6)" d="M 181.681665 173.675033 
L 183.580604 173.452762 
L 181.845491 177.146944 
z
" style="stroke:#000000;"/>
    <path clip-path="url(#p6efeeb74d6)" d="M 183.580604 180.842187 
L 181.681665 180.618754 
L 181.845491 177.146944 
z
" style="stroke:#000000;"/>
    <path clip-path="url(#p6efeeb74d6)" d="M 176.980137 156.359169 
L 175.589653 153.527169 
L 174.885075 153.490147 
z
" style="stroke:#000000;"/>
    <path clip-path="url(#p6efeeb74d6)" d="M 181.681665 180.618754 
L 183.580604 180.842187 
L 183.059391 184.49558 
z
" style="stroke:#000000;"/>
    <path clip-path="url(#p6efeeb74d6)" d="M 183.580604 173.452762 
L 181.681665 173.675033 
L 183.059391 169.79905 
z
" style="stroke:#000000;"/>
    <path clip-path="url(#p6efeeb74d6)" d="M 180.382199 166.885028 
L 178.562393 163.622489 
L 179.261222 163.642425 
z
" style="stroke:#000000;"/>
    <path clip-path="url(#p6efeeb74d6)" d="M 173.467812 154.914796 
L 172.878218 152.660776 
L 172.00619 153.294315 
z
" style="stroke:#000000;"/>
    <path clip-path="url(#p6efeeb74d6)" d="M 172.878218 201.633862 
L 173.467812 199.380204 
L 172.00619 200.999789 
z
" style="stroke:#000000;"/>
    <path clip-path="url(#p6efeeb74d6)" d="M 177.140728 193.77259 
L 176.13986 196.649001 
L 175.436143 196.684881 
z
" style="stroke:#000000;"/>
    <path clip-path="url(#p6efeeb74d6)" d="M 181.845491 177.146944 
L 183.754996 177.147528 
L 183.580604 180.842187 
z
" style="stroke:#000000;"/>
    <path clip-path="url(#p6efeeb74d6)" d="M 183.754996 177.147528 
L 181.845491 177.146944 
L 183.580604 173.452762 
z
" style="stroke:#000000;"/>
    <path clip-path="url(#p6efeeb74d6)" d="M 181.003989 191.516789 
L 178.794555 194.839408 
L 179.493021 194.806623 
z
" style="stroke:#000000;"/>
    <path clip-path="url(#p6efeeb74d6)" d="M 179.261222 190.649881 
L 179.685127 187.428235 
L 180.382199 187.407964 
z
" style="stroke:#000000;"/>
    <path clip-path="url(#p6efeeb74d6)" d="M 174.885075 200.805722 
L 177.681441 197.899978 
L 176.980137 197.937983 
z
" style="stroke:#000000;"/>
    <path clip-path="url(#p6efeeb74d6)" d="M 175.436143 157.611325 
L 177.841781 160.549821 
L 177.140728 160.52466 
z
" style="stroke:#000000;"/>
    <path clip-path="url(#p6efeeb74d6)" d="M 186.303021 161.588322 
L 181.527366 154.533351 
L 183.11835 154.969233 
z
" style="stroke:#000000;"/>
    <path clip-path="url(#p6efeeb74d6)" d="M 186.303021 150.979242 
L 183.11835 154.969233 
L 181.527366 154.533351 
z
" style="stroke:#000000;"/>
    <path clip-path="url(#p6efeeb74d6)" d="M 179.493021 159.485824 
L 180.307892 162.755176 
L 181.003989 162.776583 
z
" style="stroke:#000000;"/>
    <path clip-path="url(#p6efeeb74d6)" d="M 181.192064 170.241673 
L 179.685127 166.870575 
L 180.382199 166.885028 
z
" style="stroke:#000000;"/>
    <path clip-path="url(#p6efeeb74d6)" d="M 174.885075 153.490147 
L 172.878218 152.660776 
L 173.467812 154.914796 
z
" style="stroke:#000000;"/>
    <path clip-path="url(#p6efeeb74d6)" d="M 172.878218 201.633862 
L 174.885075 200.805722 
L 173.467812 199.380204 
z
" style="stroke:#000000;"/>
    <path clip-path="url(#p6efeeb74d6)" d="M 172.878218 152.660776 
L 174.885075 153.490147 
L 173.708745 152.186565 
z
" style="stroke:#000000;"/>
    <path clip-path="url(#p6efeeb74d6)" d="M 174.885075 200.805722 
L 172.878218 201.633862 
L 173.708745 202.108583 
z
" style="stroke:#000000;"/>
    <path clip-path="url(#p6efeeb74d6)" d="M 180.382199 187.407964 
L 180.496261 184.06641 
L 181.192064 184.051815 
z
" style="stroke:#000000;"/>
    <path clip-path="url(#p6efeeb74d6)" d="M 181.681665 173.675033 
L 180.496261 170.232898 
L 181.192064 170.241673 
z
" style="stroke:#000000;"/>
    <path clip-path="url(#p6efeeb74d6)" d="M 182.197264 188.067024 
L 180.307892 191.544016 
L 181.003989 191.516789 
z
" style="stroke:#000000;"/>
    <path clip-path="url(#p6efeeb74d6)" d="M 178.794555 159.458856 
L 177.681441 156.391362 
L 176.980137 156.359169 
z
" style="stroke:#000000;"/>
    <path clip-path="url(#p6efeeb74d6)" d="M 178.562393 190.675633 
L 177.841781 193.741616 
L 177.140728 193.77259 
z
" style="stroke:#000000;"/>
    <path clip-path="url(#p6efeeb74d6)" d="M 181.192064 184.051815 
L 180.98663 180.62754 
L 181.681665 180.618754 
z
" style="stroke:#000000;"/>
    <path clip-path="url(#p6efeeb74d6)" d="M 181.527366 154.533351 
L 186.303021 161.588322 
L 186.303021 165.124683 
z
" style="stroke:#000000;"/>
    <path clip-path="url(#p6efeeb74d6)" d="M 174.885075 153.490147 
L 173.467812 154.914796 
L 175.436143 157.611325 
z
" style="stroke:#000000;"/>
    <path clip-path="url(#p6efeeb74d6)" d="M 173.467812 199.380204 
L 174.885075 200.805722 
L 175.436143 196.684881 
z
" style="stroke:#000000;"/>
    <path clip-path="url(#p6efeeb74d6)" d="M 181.845491 177.146944 
L 180.98663 173.672068 
L 181.681665 173.675033 
z
" style="stroke:#000000;"/>
    <path clip-path="url(#p6efeeb74d6)" d="M 181.681665 180.618754 
L 181.150714 177.149854 
L 181.845491 177.146944 
z
" style="stroke:#000000;"/>
    <path clip-path="url(#p6efeeb74d6)" d="M 181.003989 162.776583 
L 181.503039 166.211507 
L 182.197264 166.227079 
z
" style="stroke:#000000;"/>
    <path clip-path="url(#p6efeeb74d6)" d="M 177.140728 160.52466 
L 179.261222 163.642425 
L 178.562393 163.622489 
z
" style="stroke:#000000;"/>
    <path clip-path="url(#p6efeeb74d6)" d="M 176.980137 197.937983 
L 179.493021 194.806623 
L 178.794555 194.839408 
z
" style="stroke:#000000;"/>
    <path clip-path="url(#p6efeeb74d6)" d="M 183.11835 154.969233 
L 186.303021 150.979242 
L 186.303021 152.747422 
z
" style="stroke:#000000;"/>
    <path clip-path="url(#p6efeeb74d6)" d="M 183.059391 184.49558 
L 181.503039 188.088418 
L 182.197264 188.067024 
z
" style="stroke:#000000;"/>
    <path clip-path="url(#p6efeeb74d6)" d="M 182.197264 166.227079 
L 182.366519 169.789523 
L 183.059391 169.79905 
z
" style="stroke:#000000;"/>
    <path clip-path="url(#p6efeeb74d6)" d="M 174.885075 153.490147 
L 175.436143 157.611325 
L 176.980137 156.359169 
z
" style="stroke:#000000;"/>
    <path clip-path="url(#p6efeeb74d6)" d="M 175.436143 196.684881 
L 174.885075 200.805722 
L 176.980137 197.937983 
z
" style="stroke:#000000;"/>
    <path clip-path="url(#p6efeeb74d6)" d="M 179.685127 187.428235 
L 179.261222 190.649881 
L 178.562393 190.675633 
z
" style="stroke:#000000;"/>
    <path clip-path="url(#p6efeeb74d6)" d="M 180.83209 154.497992 
L 186.303021 150.979242 
L 181.527366 154.533351 
z
" style="stroke:#000000;"/>
    <path clip-path="url(#p6efeeb74d6)" d="M 186.303021 165.124683 
L 180.83209 154.497992 
L 181.527366 154.533351 
z
" style="stroke:#000000;"/>
    <path clip-path="url(#p6efeeb74d6)" d="M 180.307892 162.755176 
L 179.493021 159.485824 
L 178.794555 159.458856 
z
" style="stroke:#000000;"/>
    <path clip-path="url(#p6efeeb74d6)" d="M 178.562393 163.622489 
L 180.382199 166.885028 
L 179.685127 166.870575 
z
" style="stroke:#000000;"/>
    <path clip-path="url(#p6efeeb74d6)" d="M 183.580604 180.842187 
L 182.366519 184.510931 
L 183.059391 184.49558 
z
" style="stroke:#000000;"/>
    <path clip-path="url(#p6efeeb74d6)" d="M 183.059391 169.79905 
L 182.88855 173.44942 
L 183.580604 173.452762 
z
" style="stroke:#000000;"/>
    <path clip-path="url(#p6efeeb74d6)" d="M 176.980137 156.359169 
L 175.436143 157.611325 
L 177.140728 160.52466 
z
" style="stroke:#000000;"/>
    <path clip-path="url(#p6efeeb74d6)" d="M 175.436143 196.684881 
L 176.980137 197.937983 
L 177.140728 193.77259 
z
" style="stroke:#000000;"/>
    <path clip-path="url(#p6efeeb74d6)" d="M 183.754996 177.147528 
L 182.88855 180.851354 
L 183.580604 180.842187 
z
" style="stroke:#000000;"/>
    <path clip-path="url(#p6efeeb74d6)" d="M 178.794555 194.839408 
L 181.003989 191.516789 
L 180.307892 191.544016 
z
" style="stroke:#000000;"/>
    <path clip-path="url(#p6efeeb74d6)" d="M 183.580604 173.452762 
L 183.063215 177.150441 
L 183.754996 177.147528 
z
" style="stroke:#000000;"/>
    <path clip-path="url(#p6efeeb74d6)" d="M 180.496261 184.06641 
L 180.382199 187.407964 
L 179.685127 187.428235 
z
" style="stroke:#000000;"/>
    <path clip-path="url(#p6efeeb74d6)" d="M 179.685127 166.870575 
L 181.192064 170.241673 
L 180.496261 170.232898 
z
" style="stroke:#000000;"/>
    <path clip-path="url(#p6efeeb74d6)" d="M 186.303021 150.979242 
L 189.491302 154.946048 
L 186.303021 152.747422 
z
" style="stroke:#000000;"/>
    <path clip-path="url(#p6efeeb74d6)" d="M 180.98663 180.62754 
L 181.192064 184.051815 
L 180.496261 184.06641 
z
" style="stroke:#000000;"/>
    <path clip-path="url(#p6efeeb74d6)" d="M 181.503039 166.211507 
L 181.003989 162.776583 
L 180.307892 162.755176 
z
" style="stroke:#000000;"/>
    <path clip-path="url(#p6efeeb74d6)" d="M 176.980137 156.359169 
L 177.140728 160.52466 
L 178.794555 159.458856 
z
" style="stroke:#000000;"/>
    <path clip-path="url(#p6efeeb74d6)" d="M 177.140728 193.77259 
L 176.980137 197.937983 
L 178.794555 194.839408 
z
" style="stroke:#000000;"/>
    <path clip-path="url(#p6efeeb74d6)" d="M 180.496261 170.232898 
L 181.681665 173.675033 
L 180.98663 173.672068 
z
" style="stroke:#000000;"/>
    <path clip-path="url(#p6efeeb74d6)" d="M 186.303021 161.588322 
L 191.086798 154.497822 
L 186.303021 165.124683 
z
" style="stroke:#000000;"/>
    <path clip-path="url(#p6efeeb74d6)" d="M 181.150714 177.149854 
L 181.681665 180.618754 
L 180.98663 180.62754 
z
" style="stroke:#000000;"/>
    <path clip-path="url(#p6efeeb74d6)" d="M 180.98663 173.672068 
L 181.845491 177.146944 
L 181.150714 177.149854 
z
" style="stroke:#000000;"/>
    <path clip-path="url(#p6efeeb74d6)" d="M 180.307892 191.544016 
L 182.197264 188.067024 
L 181.503039 188.088418 
z
" style="stroke:#000000;"/>
    <path clip-path="url(#p6efeeb74d6)" d="M 178.794555 159.458856 
L 177.140728 160.52466 
L 178.562393 163.622489 
z
" style="stroke:#000000;"/>
    <path clip-path="url(#p6efeeb74d6)" d="M 177.140728 193.77259 
L 178.794555 194.839408 
L 178.562393 190.675633 
z
" style="stroke:#000000;"/>
    <path clip-path="url(#p6efeeb74d6)" d="M 185.615243 152.709008 
L 183.11835 154.969233 
L 186.303021 152.747422 
z
" style="stroke:#000000;"/>
    <path clip-path="url(#p6efeeb74d6)" d="M 183.11835 154.969233 
L 185.615243 161.564883 
L 186.303021 161.588322 
z
" style="stroke:#000000;"/>
    <path clip-path="url(#p6efeeb74d6)" d="M 182.366519 169.789523 
L 182.197264 166.227079 
L 181.503039 166.211507 
z
" style="stroke:#000000;"/>
    <path clip-path="url(#p6efeeb74d6)" d="M 191.086798 154.497822 
L 186.303021 161.588322 
L 189.491302 154.946048 
z
" style="stroke:#000000;"/>
    <path clip-path="url(#p6efeeb74d6)" d="M 189.491302 154.946048 
L 186.303021 150.979242 
L 191.086798 154.497822 
z
" style="stroke:#000000;"/>
    <path clip-path="url(#p6efeeb74d6)" d="M 181.503039 188.088418 
L 183.059391 184.49558 
L 182.366519 184.510931 
z
" style="stroke:#000000;"/>
    <path clip-path="url(#p6efeeb74d6)" d="M 178.562393 163.622489 
L 180.307892 162.755176 
L 178.794555 159.458856 
z
" style="stroke:#000000;"/>
    <path clip-path="url(#p6efeeb74d6)" d="M 180.307892 191.544016 
L 178.562393 190.675633 
L 178.794555 194.839408 
z
" style="stroke:#000000;"/>
    <path clip-path="url(#p6efeeb74d6)" d="M 188.853357 177.149088 
L 190.767626 177.149673 
L 189.028076 180.847432 
z
" style="stroke:#000000;"/>
    <path clip-path="url(#p6efeeb74d6)" d="M 190.767626 177.149673 
L 188.853357 177.149088 
L 189.028076 173.45085 
z
" style="stroke:#000000;"/>
    <path clip-path="url(#p6efeeb74d6)" d="M 182.88855 173.44942 
L 183.059391 169.79905 
L 182.366519 169.789523 
z
" style="stroke:#000000;"/>
    <path clip-path="url(#p6efeeb74d6)" d="M 180.307892 162.755176 
L 178.562393 163.622489 
L 179.685127 166.870575 
z
" style="stroke:#000000;"/>
    <path clip-path="url(#p6efeeb74d6)" d="M 178.562393 190.675633 
L 180.307892 191.544016 
L 179.685127 187.428235 
z
" style="stroke:#000000;"/>
    <path clip-path="url(#p6efeeb74d6)" d="M 182.366519 184.510931 
L 183.580604 180.842187 
L 182.88855 180.851354 
z
" style="stroke:#000000;"/>
    <path clip-path="url(#p6efeeb74d6)" d="M 189.028076 180.847432 
L 190.931983 180.627297 
L 189.550396 184.506048 
z
" style="stroke:#000000;"/>
    <path clip-path="url(#p6efeeb74d6)" d="M 190.931983 173.67215 
L 189.028076 173.45085 
L 189.550396 169.792554 
z
" style="stroke:#000000;"/>
    <path clip-path="url(#p6efeeb74d6)" d="M 183.063215 177.150441 
L 183.580604 173.452762 
L 182.88855 173.44942 
z
" style="stroke:#000000;"/>
    <path clip-path="url(#p6efeeb74d6)" d="M 182.88855 180.851354 
L 183.754996 177.147528 
L 183.063215 177.150441 
z
" style="stroke:#000000;"/>
    <path clip-path="url(#p6efeeb74d6)" d="M 189.028076 173.45085 
L 190.931983 173.67215 
L 190.767626 177.149673 
z
" style="stroke:#000000;"/>
    <path clip-path="url(#p6efeeb74d6)" d="M 190.931983 180.627297 
L 189.028076 180.847432 
L 190.767626 177.149673 
z
" style="stroke:#000000;"/>
    <path clip-path="url(#p6efeeb74d6)" d="M 189.550396 184.506048 
L 191.423282 184.067513 
L 190.41478 188.085499 
z
" style="stroke:#000000;"/>
    <path clip-path="url(#p6efeeb74d6)" d="M 191.423282 170.232235 
L 189.550396 169.792554 
L 190.41478 166.213632 
z
" style="stroke:#000000;"/>
    <path clip-path="url(#p6efeeb74d6)" d="M 183.11835 154.969233 
L 185.615243 152.709008 
L 182.42557 154.934602 
z
" style="stroke:#000000;"/>
    <path clip-path="url(#p6efeeb74d6)" d="M 185.615243 161.564883 
L 183.11835 154.969233 
L 182.42557 154.934602 
z
" style="stroke:#000000;"/>
    <path clip-path="url(#p6efeeb74d6)" d="M 191.423282 184.067513 
L 189.550396 184.506048 
L 190.931983 180.627297 
z
" style="stroke:#000000;"/>
    <path clip-path="url(#p6efeeb74d6)" d="M 189.550396 169.792554 
L 191.423282 170.232235 
L 190.931983 173.67215 
z
" style="stroke:#000000;"/>
    <path clip-path="url(#p6efeeb74d6)" d="M 179.685127 166.870575 
L 181.503039 166.211507 
L 180.307892 162.755176 
z
" style="stroke:#000000;"/>
    <path clip-path="url(#p6efeeb74d6)" d="M 181.503039 188.088418 
L 179.685127 187.428235 
L 180.307892 191.544016 
z
" style="stroke:#000000;"/>
    <path clip-path="url(#p6efeeb74d6)" d="M 181.503039 166.211507 
L 179.685127 166.870575 
L 180.496261 170.232898 
z
" style="stroke:#000000;"/>
    <path clip-path="url(#p6efeeb74d6)" d="M 179.685127 187.428235 
L 181.503039 188.088418 
L 180.496261 184.06641 
z
" style="stroke:#000000;"/>
    <path clip-path="url(#p6efeeb74d6)" d="M 186.303021 150.979242 
L 180.83209 154.497992 
L 185.615243 150.937833 
z
" style="stroke:#000000;"/>
    <path clip-path="url(#p6efeeb74d6)" d="M 180.83209 154.497992 
L 186.303021 165.124683 
L 185.615243 165.107233 
z
" style="stroke:#000000;"/>
    <path clip-path="url(#p6efeeb74d6)" d="M 185.615243 150.937833 
L 191.086798 154.497822 
L 186.303021 150.979242 
z
" style="stroke:#000000;"/>
    <path clip-path="url(#p6efeeb74d6)" d="M 191.086798 154.497822 
L 185.615243 165.107233 
L 186.303021 165.124683 
z
" style="stroke:#000000;"/>
    <path clip-path="url(#p6efeeb74d6)" d="M 192.236332 187.433233 
L 190.41478 188.085499 
L 191.423282 184.067513 
z
" style="stroke:#000000;"/>
    <path clip-path="url(#p6efeeb74d6)" d="M 190.41478 166.213632 
L 192.236332 166.867012 
L 191.423282 170.232235 
z
" style="stroke:#000000;"/>
    <path clip-path="url(#p6efeeb74d6)" d="M 190.41478 188.085499 
L 192.236332 187.433233 
L 191.612054 191.547154 
z
" style="stroke:#000000;"/>
    <path clip-path="url(#p6efeeb74d6)" d="M 192.236332 166.867012 
L 190.41478 166.213632 
L 191.612054 162.752709 
z
" style="stroke:#000000;"/>
    <path clip-path="url(#p6efeeb74d6)" d="M 182.366519 169.789523 
L 180.496261 170.232898 
L 180.98663 173.672068 
z
" style="stroke:#000000;"/>
    <path clip-path="url(#p6efeeb74d6)" d="M 180.496261 184.06641 
L 182.366519 184.510931 
L 180.98663 180.62754 
z
" style="stroke:#000000;"/>
    <path clip-path="url(#p6efeeb74d6)" d="M 188.808536 154.911338 
L 186.303021 152.747422 
L 189.491302 154.946048 
z
" style="stroke:#000000;"/>
    <path clip-path="url(#p6efeeb74d6)" d="M 186.303021 161.588322 
L 188.808536 154.911338 
L 189.491302 154.946048 
z
" style="stroke:#000000;"/>
    <path clip-path="url(#p6efeeb74d6)" d="M 180.496261 170.232898 
L 182.366519 169.789523 
L 181.503039 166.211507 
z
" style="stroke:#000000;"/>
    <path clip-path="url(#p6efeeb74d6)" d="M 182.366519 184.510931 
L 180.496261 184.06641 
L 181.503039 188.088418 
z
" style="stroke:#000000;"/>
    <path clip-path="url(#p6efeeb74d6)" d="M 180.98663 180.62754 
L 182.88855 180.851354 
L 181.150714 177.149854 
z
" style="stroke:#000000;"/>
    <path clip-path="url(#p6efeeb74d6)" d="M 182.88855 173.44942 
L 180.98663 173.672068 
L 181.150714 177.149854 
z
" style="stroke:#000000;"/>
    <path clip-path="url(#p6efeeb74d6)" d="M 189.028076 180.847432 
L 188.169587 177.152006 
L 188.853357 177.149088 
z
" style="stroke:#000000;"/>
    <path clip-path="url(#p6efeeb74d6)" d="M 188.853357 177.149088 
L 188.344581 173.447501 
L 189.028076 173.45085 
z
" style="stroke:#000000;"/>
    <path clip-path="url(#p6efeeb74d6)" d="M 180.98663 173.672068 
L 182.88855 173.44942 
L 182.366519 169.789523 
z
" style="stroke:#000000;"/>
    <path clip-path="url(#p6efeeb74d6)" d="M 182.88855 180.851354 
L 180.98663 180.62754 
L 182.366519 184.510931 
z
" style="stroke:#000000;"/>
    <path clip-path="url(#p6efeeb74d6)" d="M 189.550396 184.506048 
L 188.344581 180.856617 
L 189.028076 180.847432 
z
" style="stroke:#000000;"/>
    <path clip-path="url(#p6efeeb74d6)" d="M 193.362492 190.688082 
L 191.612054 191.547154 
L 192.236332 187.433233 
z
" style="stroke:#000000;"/>
    <path clip-path="url(#p6efeeb74d6)" d="M 191.612054 162.752709 
L 193.362492 163.612852 
L 192.236332 166.867012 
z
" style="stroke:#000000;"/>
    <path clip-path="url(#p6efeeb74d6)" d="M 189.028076 173.45085 
L 188.867723 169.783005 
L 189.550396 169.792554 
z
" style="stroke:#000000;"/>
    <path clip-path="url(#p6efeeb74d6)" d="M 181.150714 177.149854 
L 183.063215 177.150441 
L 182.88855 173.44942 
z
" style="stroke:#000000;"/>
    <path clip-path="url(#p6efeeb74d6)" d="M 183.063215 177.150441 
L 181.150714 177.149854 
L 182.88855 180.851354 
z
" style="stroke:#000000;"/>
    <path clip-path="url(#p6efeeb74d6)" d="M 191.612054 191.547154 
L 193.362492 190.688082 
L 193.129548 194.85365 
z
" style="stroke:#000000;"/>
    <path clip-path="url(#p6efeeb74d6)" d="M 193.362492 163.612852 
L 191.612054 162.752709 
L 193.129548 159.447141 
z
" style="stroke:#000000;"/>
    <path clip-path="url(#p6efeeb74d6)" d="M 190.41478 188.085499 
L 188.867723 184.521434 
L 189.550396 184.506048 
z
" style="stroke:#000000;"/>
    <path clip-path="url(#p6efeeb74d6)" d="M 182.42557 154.934602 
L 185.615243 150.937833 
L 180.83209 154.497992 
z
" style="stroke:#000000;"/>
    <path clip-path="url(#p6efeeb74d6)" d="M 180.83209 154.497992 
L 185.615243 161.564883 
L 182.42557 154.934602 
z
" style="stroke:#000000;"/>
    <path clip-path="url(#p6efeeb74d6)" d="M 189.550396 169.792554 
L 189.733467 166.198015 
L 190.41478 166.213632 
z
" style="stroke:#000000;"/>
    <path clip-path="url(#p6efeeb74d6)" d="M 186.303021 152.747422 
L 188.808536 154.911338 
L 185.615243 152.709008 
z
" style="stroke:#000000;"/>
    <path clip-path="url(#p6efeeb74d6)" d="M 188.808536 154.911338 
L 186.303021 161.588322 
L 185.615243 161.564883 
z
" style="stroke:#000000;"/>
    <path clip-path="url(#p6efeeb74d6)" d="M 194.789788 193.796868 
L 193.129548 194.85365 
L 193.362492 190.688082 
z
" style="stroke:#000000;"/>
    <path clip-path="url(#p6efeeb74d6)" d="M 193.129548 159.447141 
L 194.789788 160.50494 
L 193.362492 163.612852 
z
" style="stroke:#000000;"/>
    <path clip-path="url(#p6efeeb74d6)" d="M 191.612054 191.547154 
L 189.733467 188.106955 
L 190.41478 188.085499 
z
" style="stroke:#000000;"/>
    <path clip-path="url(#p6efeeb74d6)" d="M 190.931983 173.67215 
L 190.086869 177.152593 
L 190.767626 177.149673 
z
" style="stroke:#000000;"/>
    <path clip-path="url(#p6efeeb74d6)" d="M 190.767626 177.149673 
L 190.251484 180.636112 
L 190.931983 180.627297 
z
" style="stroke:#000000;"/>
    <path clip-path="url(#p6efeeb74d6)" d="M 185.615243 161.564883 
L 180.83209 154.497992 
L 185.615243 165.107233 
z
" style="stroke:#000000;"/>
    <path clip-path="url(#p6efeeb74d6)" d="M 191.423282 170.232235 
L 190.251484 173.669176 
L 190.931983 173.67215 
z
" style="stroke:#000000;"/>
    <path clip-path="url(#p6efeeb74d6)" d="M 193.129548 194.85365 
L 194.789788 193.796868 
L 194.951106 197.969062 
z
" style="stroke:#000000;"/>
    <path clip-path="url(#p6efeeb74d6)" d="M 194.789788 160.50494 
L 193.129548 159.447141 
L 194.951106 156.332844 
z
" style="stroke:#000000;"/>
    <path clip-path="url(#p6efeeb74d6)" d="M 190.41478 166.213632 
L 190.932626 162.731222 
L 191.612054 162.752709 
z
" style="stroke:#000000;"/>
    <path clip-path="url(#p6efeeb74d6)" d="M 190.931983 180.627297 
L 190.743556 184.082161 
L 191.423282 184.067513 
z
" style="stroke:#000000;"/>
    <path clip-path="url(#p6efeeb74d6)" d="M 185.615243 150.937833 
L 182.42557 154.934602 
L 185.615243 152.709008 
z
" style="stroke:#000000;"/>
    <path clip-path="url(#p6efeeb74d6)" d="M 192.236332 166.867012 
L 190.743556 170.223428 
L 191.423282 170.232235 
z
" style="stroke:#000000;"/>
    <path clip-path="url(#p6efeeb74d6)" d="M 191.423282 184.067513 
L 191.557887 187.45359 
L 192.236332 187.433233 
z
" style="stroke:#000000;"/>
    <path clip-path="url(#p6efeeb74d6)" d="M 188.344581 173.447501 
L 188.853357 177.149088 
L 188.169587 177.152006 
z
" style="stroke:#000000;"/>
    <path clip-path="url(#p6efeeb74d6)" d="M 193.129548 194.85365 
L 190.932626 191.574483 
L 191.612054 191.547154 
z
" style="stroke:#000000;"/>
    <path clip-path="url(#p6efeeb74d6)" d="M 188.169587 177.152006 
L 189.028076 180.847432 
L 188.344581 180.856617 
z
" style="stroke:#000000;"/>
    <path clip-path="url(#p6efeeb74d6)" d="M 194.951106 197.969062 
L 194.789788 193.796868 
L 196.503032 196.725947 
z
" style="stroke:#000000;"/>
    <path clip-path="url(#p6efeeb74d6)" d="M 194.789788 160.50494 
L 194.951106 156.332844 
L 196.503032 157.576908 
z
" style="stroke:#000000;"/>
    <path clip-path="url(#p6efeeb74d6)" d="M 188.867723 169.783005 
L 189.028076 173.45085 
L 188.344581 173.447501 
z
" style="stroke:#000000;"/>
    <path clip-path="url(#p6efeeb74d6)" d="M 188.344581 180.856617 
L 189.550396 184.506048 
L 188.867723 184.521434 
z
" style="stroke:#000000;"/>
    <path clip-path="url(#p6efeeb74d6)" d="M 193.362492 163.612852 
L 191.557887 166.852498 
L 192.236332 166.867012 
z
" style="stroke:#000000;"/>
    <path clip-path="url(#p6efeeb74d6)" d="M 191.612054 162.752709 
L 192.452509 159.420042 
L 193.129548 159.447141 
z
" style="stroke:#000000;"/>
    <path clip-path="url(#p6efeeb74d6)" d="M 191.086798 154.497822 
L 185.615243 150.937833 
L 190.406543 154.462343 
z
" style="stroke:#000000;"/>
    <path clip-path="url(#p6efeeb74d6)" d="M 185.615243 165.107233 
L 191.086798 154.497822 
L 190.406543 154.462343 
z
" style="stroke:#000000;"/>
    <path clip-path="url(#p6efeeb74d6)" d="M 194.951106 197.969062 
L 196.503032 196.725947 
L 197.057345 200.859745 
z
" style="stroke:#000000;"/>
    <path clip-path="url(#p6efeeb74d6)" d="M 196.503032 157.576908 
L 194.951106 156.332844 
L 197.057345 153.44345 
z
" style="stroke:#000000;"/>
    <path clip-path="url(#p6efeeb74d6)" d="M 192.236332 187.433233 
L 192.685821 190.713963 
L 193.362492 190.688082 
z
" style="stroke:#000000;"/>
    <path clip-path="url(#p6efeeb74d6)" d="M 189.733467 166.198015 
L 189.550396 169.792554 
L 188.867723 169.783005 
z
" style="stroke:#000000;"/>
    <path clip-path="url(#p6efeeb74d6)" d="M 188.867723 184.521434 
L 190.41478 188.085499 
L 189.733467 188.106955 
z
" style="stroke:#000000;"/>
    <path clip-path="url(#p6efeeb74d6)" d="M 185.615243 150.937833 
L 185.615243 152.709008 
L 188.808536 154.911338 
z
" style="stroke:#000000;"/>
    <path clip-path="url(#p6efeeb74d6)" d="M 194.951106 197.969062 
L 192.452509 194.886595 
L 193.129548 194.85365 
z
" style="stroke:#000000;"/>
    <path clip-path="url(#p6efeeb74d6)" d="M 194.789788 160.50494 
L 192.685821 163.592817 
L 193.362492 163.612852 
z
" style="stroke:#000000;"/>
    <path clip-path="url(#p6efeeb74d6)" d="M 190.932626 162.731222 
L 190.41478 166.213632 
L 189.733467 166.198015 
z
" style="stroke:#000000;"/>
    <path clip-path="url(#p6efeeb74d6)" d="M 190.251484 180.636112 
L 190.767626 177.149673 
L 190.086869 177.152593 
z
" style="stroke:#000000;"/>
    <path clip-path="url(#p6efeeb74d6)" d="M 190.086869 177.152593 
L 190.931983 173.67215 
L 190.251484 173.669176 
z
" style="stroke:#000000;"/>
    <path clip-path="url(#p6efeeb74d6)" d="M 197.057345 200.859745 
L 196.503032 196.725947 
L 198.483954 199.443329 
z
" style="stroke:#000000;"/>
    <path clip-path="url(#p6efeeb74d6)" d="M 196.503032 157.576908 
L 197.057345 153.44345 
L 198.483954 154.860738 
z
" style="stroke:#000000;"/>
    <path clip-path="url(#p6efeeb74d6)" d="M 185.615243 161.564883 
L 185.615243 165.107233 
L 190.406543 154.462343 
z
" style="stroke:#000000;"/>
    <path clip-path="url(#p6efeeb74d6)" d="M 190.743556 184.082161 
L 190.931983 180.627297 
L 190.251484 180.636112 
z
" style="stroke:#000000;"/>
    <path clip-path="url(#p6efeeb74d6)" d="M 193.362492 190.688082 
L 194.115366 193.828029 
L 194.789788 193.796868 
z
" style="stroke:#000000;"/>
    <path clip-path="url(#p6efeeb74d6)" d="M 193.129548 159.447141 
L 194.276938 156.300453 
L 194.951106 156.332844 
z
" style="stroke:#000000;"/>
    <path clip-path="url(#p6efeeb74d6)" d="M 189.733467 188.106955 
L 191.612054 191.547154 
L 190.932626 191.574483 
z
" style="stroke:#000000;"/>
    <path clip-path="url(#p6efeeb74d6)" d="M 190.251484 173.669176 
L 191.423282 170.232235 
L 190.743556 170.223428 
z
" style="stroke:#000000;"/>
    <path clip-path="url(#p6efeeb74d6)" d="M 191.557887 187.45359 
L 191.423282 184.067513 
L 190.743556 184.082161 
z
" style="stroke:#000000;"/>
    <path clip-path="url(#p6efeeb74d6)" d="M 197.057345 200.859745 
L 199.077861 201.708455 
L 198.24133 202.176599 
z
" style="stroke:#000000;"/>
    <path clip-path="url(#p6efeeb74d6)" d="M 199.077861 152.595976 
L 197.057345 153.44345 
L 198.24133 152.12732 
z
" style="stroke:#000000;"/>
    <path clip-path="url(#p6efeeb74d6)" d="M 199.077861 201.708455 
L 197.057345 200.859745 
L 198.483954 199.443329 
z
" style="stroke:#000000;"/>
    <path clip-path="url(#p6efeeb74d6)" d="M 197.057345 153.44345 
L 199.077861 152.595976 
L 198.483954 154.860738 
z
" style="stroke:#000000;"/>
    <path clip-path="url(#p6efeeb74d6)" d="M 190.743556 170.223428 
L 192.236332 166.867012 
L 191.557887 166.852498 
z
" style="stroke:#000000;"/>
    <path clip-path="url(#p6efeeb74d6)" d="M 192.452509 159.420042 
L 191.612054 162.752709 
L 190.932626 162.731222 
z
" style="stroke:#000000;"/>
    <path clip-path="url(#p6efeeb74d6)" d="M 185.615243 150.937833 
L 188.808536 154.911338 
L 190.406543 154.462343 
z
" style="stroke:#000000;"/>
    <path clip-path="url(#p6efeeb74d6)" d="M 185.615243 161.564883 
L 190.406543 154.462343 
L 188.808536 154.911338 
z
" style="stroke:#000000;"/>
    <path clip-path="url(#p6efeeb74d6)" d="M 196.503032 157.576908 
L 194.115366 160.479627 
L 194.789788 160.50494 
z
" style="stroke:#000000;"/>
    <path clip-path="url(#p6efeeb74d6)" d="M 197.057345 200.859745 
L 194.276938 198.007302 
L 194.951106 197.969062 
z
" style="stroke:#000000;"/>
    <path clip-path="url(#p6efeeb74d6)" d="M 192.685821 190.713963 
L 192.236332 187.433233 
L 191.557887 187.45359 
z
" style="stroke:#000000;"/>
    <path clip-path="url(#p6efeeb74d6)" d="M 190.932626 191.574483 
L 193.129548 194.85365 
L 192.452509 194.886595 
z
" style="stroke:#000000;"/>
    <path clip-path="url(#p6efeeb74d6)" d="M 188.169587 177.152006 
L 190.086869 177.152593 
L 188.344581 173.447501 
z
" style="stroke:#000000;"/>
    <path clip-path="url(#p6efeeb74d6)" d="M 190.086869 177.152593 
L 188.169587 177.152006 
L 188.344581 180.856617 
z
" style="stroke:#000000;"/>
    <path clip-path="url(#p6efeeb74d6)" d="M 194.789788 193.796868 
L 195.831312 196.762088 
L 196.503032 196.725947 
z
" style="stroke:#000000;"/>
    <path clip-path="url(#p6efeeb74d6)" d="M 199.077861 201.708455 
L 198.483954 199.443329 
L 199.956727 201.080559 
z
" style="stroke:#000000;"/>
    <path clip-path="url(#p6efeeb74d6)" d="M 198.483954 154.860738 
L 199.077861 152.595976 
L 199.956727 153.22441 
z
" style="stroke:#000000;"/>
    <path clip-path="url(#p6efeeb74d6)" d="M 191.557887 166.852498 
L 193.362492 163.612852 
L 192.685821 163.592817 
z
" style="stroke:#000000;"/>
    <path clip-path="url(#p6efeeb74d6)" d="M 188.344581 173.447501 
L 190.251484 173.669176 
L 188.867723 169.783005 
z
" style="stroke:#000000;"/>
    <path clip-path="url(#p6efeeb74d6)" d="M 190.251484 180.636112 
L 188.344581 180.856617 
L 188.867723 184.521434 
z
" style="stroke:#000000;"/>
    <path clip-path="url(#p6efeeb74d6)" d="M 194.951106 156.332844 
L 196.386499 153.406143 
L 197.057345 153.44345 
z
" style="stroke:#000000;"/>
    <path clip-path="url(#p6efeeb74d6)" d="M 188.344581 180.856617 
L 190.251484 180.636112 
L 190.086869 177.152593 
z
" style="stroke:#000000;"/>
    <path clip-path="url(#p6efeeb74d6)" d="M 190.251484 173.669176 
L 188.344581 173.447501 
L 190.086869 177.152593 
z
" style="stroke:#000000;"/>
    <path clip-path="url(#p6efeeb74d6)" d="M 188.867723 169.783005 
L 190.743556 170.223428 
L 189.733467 166.198015 
z
" style="stroke:#000000;"/>
    <path clip-path="url(#p6efeeb74d6)" d="M 190.743556 184.082161 
L 188.867723 184.521434 
L 189.733467 188.106955 
z
" style="stroke:#000000;"/>
    <path clip-path="url(#p6efeeb74d6)" d="M 194.276938 156.300453 
L 193.129548 159.447141 
L 192.452509 159.420042 
z
" style="stroke:#000000;"/>
    <path clip-path="url(#p6efeeb74d6)" d="M 190.743556 170.223428 
L 188.867723 169.783005 
L 190.251484 173.669176 
z
" style="stroke:#000000;"/>
    <path clip-path="url(#p6efeeb74d6)" d="M 188.867723 184.521434 
L 190.743556 184.082161 
L 190.251484 180.636112 
z
" style="stroke:#000000;"/>
    <path clip-path="url(#p6efeeb74d6)" d="M 194.115366 193.828029 
L 193.362492 190.688082 
L 192.685821 190.713963 
z
" style="stroke:#000000;"/>
    <path clip-path="url(#p6efeeb74d6)" d="M 198.483954 154.860738 
L 195.831312 157.546619 
L 196.503032 157.576908 
z
" style="stroke:#000000;"/>
    <path clip-path="url(#p6efeeb74d6)" d="M 198.24133 202.176599 
L 196.386499 200.902905 
L 197.057345 200.859745 
z
" style="stroke:#000000;"/>
    <path clip-path="url(#p6efeeb74d6)" d="M 192.685821 163.592817 
L 194.789788 160.50494 
L 194.115366 160.479627 
z
" style="stroke:#000000;"/>
    <path clip-path="url(#p6efeeb74d6)" d="M 192.452509 194.886595 
L 194.951106 197.969062 
L 194.276938 198.007302 
z
" style="stroke:#000000;"/>
    <path clip-path="url(#p6efeeb74d6)" d="M 191.557887 166.852498 
L 189.733467 166.198015 
L 190.743556 170.223428 
z
" style="stroke:#000000;"/>
    <path clip-path="url(#p6efeeb74d6)" d="M 189.733467 188.106955 
L 191.557887 187.45359 
L 190.743556 184.082161 
z
" style="stroke:#000000;"/>
    <path clip-path="url(#p6efeeb74d6)" d="M 189.733467 166.198015 
L 191.557887 166.852498 
L 190.932626 162.731222 
z
" style="stroke:#000000;"/>
    <path clip-path="url(#p6efeeb74d6)" d="M 191.557887 187.45359 
L 189.733467 188.106955 
L 190.932626 191.574483 
z
" style="stroke:#000000;"/>
    <path clip-path="url(#p6efeeb74d6)" d="M 196.503032 196.725947 
L 197.81536 199.484096 
L 198.483954 199.443329 
z
" style="stroke:#000000;"/>
    <path clip-path="url(#p6efeeb74d6)" d="M 197.057345 153.44345 
L 197.572353 152.087772 
L 198.24133 152.12732 
z
" style="stroke:#000000;"/>
    <path clip-path="url(#p6efeeb74d6)" d="M 197.572353 152.087772 
L 199.077861 152.595976 
L 198.24133 152.12732 
z
" style="stroke:#000000;"/>
    <path clip-path="url(#p6efeeb74d6)" d="M 195.831312 196.762088 
L 194.789788 193.796868 
L 194.115366 193.828029 
z
" style="stroke:#000000;"/>
    <path clip-path="url(#p6efeeb74d6)" d="M 192.685821 163.592817 
L 190.932626 162.731222 
L 191.557887 166.852498 
z
" style="stroke:#000000;"/>
    <path clip-path="url(#p6efeeb74d6)" d="M 190.932626 191.574483 
L 192.685821 190.713963 
L 191.557887 187.45359 
z
" style="stroke:#000000;"/>
    <path clip-path="url(#p6efeeb74d6)" d="M 198.410205 201.753071 
L 198.24133 202.176599 
L 199.077861 201.708455 
z
" style="stroke:#000000;"/>
    <path clip-path="url(#p6efeeb74d6)" d="M 196.386499 153.406143 
L 194.951106 156.332844 
L 194.276938 156.300453 
z
" style="stroke:#000000;"/>
    <path clip-path="url(#p6efeeb74d6)" d="M 197.81536 199.484096 
L 199.956727 201.080559 
L 198.483954 199.443329 
z
" style="stroke:#000000;"/>
    <path clip-path="url(#p6efeeb74d6)" d="M 190.932626 162.731222 
L 192.685821 163.592817 
L 192.452509 159.420042 
z
" style="stroke:#000000;"/>
    <path clip-path="url(#p6efeeb74d6)" d="M 192.685821 190.713963 
L 190.932626 191.574483 
L 192.452509 194.886595 
z
" style="stroke:#000000;"/>
    <path clip-path="url(#p6efeeb74d6)" d="M 194.115366 160.479627 
L 196.503032 157.576908 
L 195.831312 157.546619 
z
" style="stroke:#000000;"/>
    <path clip-path="url(#p6efeeb74d6)" d="M 198.410205 152.557218 
L 199.956727 153.22441 
L 199.077861 152.595976 
z
" style="stroke:#000000;"/>
    <path clip-path="url(#p6efeeb74d6)" d="M 199.290458 153.186712 
L 198.483954 154.860738 
L 199.956727 153.22441 
z
" style="stroke:#000000;"/>
    <path clip-path="url(#p6efeeb74d6)" d="M 194.276938 198.007302 
L 197.057345 200.859745 
L 196.386499 200.902905 
z
" style="stroke:#000000;"/>
    <path clip-path="url(#p6efeeb74d6)" d="M 199.290458 201.124116 
L 199.077861 201.708455 
L 199.956727 201.080559 
z
" style="stroke:#000000;"/>
    <path clip-path="url(#p6efeeb74d6)" d="M 194.115366 160.479627 
L 192.452509 159.420042 
L 192.685821 163.592817 
z
" style="stroke:#000000;"/>
    <path clip-path="url(#p6efeeb74d6)" d="M 192.452509 194.886595 
L 194.115366 193.828029 
L 192.685821 190.713963 
z
" style="stroke:#000000;"/>
    <path clip-path="url(#p6efeeb74d6)" d="M 197.81536 199.484096 
L 196.503032 196.725947 
L 195.831312 196.762088 
z
" style="stroke:#000000;"/>
    <path clip-path="url(#p6efeeb74d6)" d="M 197.572353 152.087772 
L 197.057345 153.44345 
L 196.386499 153.406143 
z
" style="stroke:#000000;"/>
    <path clip-path="url(#p6efeeb74d6)" d="M 192.452509 159.420042 
L 194.115366 160.479627 
L 194.276938 156.300453 
z
" style="stroke:#000000;"/>
    <path clip-path="url(#p6efeeb74d6)" d="M 194.115366 193.828029 
L 192.452509 194.886595 
L 194.276938 198.007302 
z
" style="stroke:#000000;"/>
    <path clip-path="url(#p6efeeb74d6)" d="M 195.831312 157.546619 
L 198.483954 154.860738 
L 197.81536 154.825828 
z
" style="stroke:#000000;"/>
    <path clip-path="url(#p6efeeb74d6)" d="M 196.386499 200.902905 
L 198.24133 202.176599 
L 197.572353 202.222003 
z
" style="stroke:#000000;"/>
    <path clip-path="url(#p6efeeb74d6)" d="M 198.24133 202.176599 
L 198.410205 201.753071 
L 197.572353 202.222003 
z
" style="stroke:#000000;"/>
    <path clip-path="url(#p6efeeb74d6)" d="M 194.276938 156.300453 
L 194.115366 160.479627 
L 195.831312 157.546619 
z
" style="stroke:#000000;"/>
    <path clip-path="url(#p6efeeb74d6)" d="M 194.115366 193.828029 
L 194.276938 198.007302 
L 195.831312 196.762088 
z
" style="stroke:#000000;"/>
    <path clip-path="url(#p6efeeb74d6)" d="M 199.077861 152.595976 
L 197.572353 152.087772 
L 198.410205 152.557218 
z
" style="stroke:#000000;"/>
    <path clip-path="url(#p6efeeb74d6)" d="M 198.483954 154.860738 
L 199.290458 153.186712 
L 197.81536 154.825828 
z
" style="stroke:#000000;"/>
    <path clip-path="url(#p6efeeb74d6)" d="M 194.276938 156.300453 
L 195.831312 157.546619 
L 196.386499 153.406143 
z
" style="stroke:#000000;"/>
    <path clip-path="url(#p6efeeb74d6)" d="M 195.831312 196.762088 
L 194.276938 198.007302 
L 196.386499 200.902905 
z
" style="stroke:#000000;"/>
    <path clip-path="url(#p6efeeb74d6)" d="M 199.077861 201.708455 
L 199.290458 201.124116 
L 198.410205 201.753071 
z
" style="stroke:#000000;"/>
    <path clip-path="url(#p6efeeb74d6)" d="M 199.956727 201.080559 
L 197.81536 199.484096 
L 199.290458 201.124116 
z
" style="stroke:#000000;"/>
    <path clip-path="url(#p6efeeb74d6)" d="M 199.956727 153.22441 
L 198.410205 152.557218 
L 199.290458 153.186712 
z
" style="stroke:#000000;"/>
    <path clip-path="url(#p6efeeb74d6)" d="M 196.386499 153.406143 
L 195.831312 157.546619 
L 197.81536 154.825828 
z
" style="stroke:#000000;"/>
    <path clip-path="url(#p6efeeb74d6)" d="M 195.831312 196.762088 
L 196.386499 200.902905 
L 197.81536 199.484096 
z
" style="stroke:#000000;"/>
    <path clip-path="url(#p6efeeb74d6)" d="M 196.386499 153.406143 
L 198.410205 152.557218 
L 197.572353 152.087772 
z
" style="stroke:#000000;"/>
    <path clip-path="url(#p6efeeb74d6)" d="M 198.410205 201.753071 
L 196.386499 200.902905 
L 197.572353 202.222003 
z
" style="stroke:#000000;"/>
    <path clip-path="url(#p6efeeb74d6)" d="M 198.410205 152.557218 
L 196.386499 153.406143 
L 197.81536 154.825828 
z
" style="stroke:#000000;"/>
    <path clip-path="url(#p6efeeb74d6)" d="M 196.386499 200.902905 
L 198.410205 201.753071 
L 197.81536 199.484096 
z
" style="stroke:#000000;"/>
    <path clip-path="url(#p6efeeb74d6)" d="M 198.410205 152.557218 
L 197.81536 154.825828 
L 199.290458 153.186712 
z
" style="stroke:#000000;"/>
    <path clip-path="url(#p6efeeb74d6)" d="M 197.81536 199.484096 
L 198.410205 201.753071 
L 199.290458 201.124116 
z
" style="stroke:#000000;"/>
   </g>
  </g>
 </g>
 <defs>
  <clipPath id="p6efeeb74d6">
   <rect height="271.8" width="279" x="45" y="43.2"/>
  </clipPath>
 </defs>
</svg>
