<?xml version="1.0" encoding="utf-8" standalone="no"?>
<!DOCTYPE svg PUBLIC "-//W3C//DTD SVG 1.1//EN"
  "http://www.w3.org/Graphics/SVG/1.1/DTD/svg11.dtd">
<!-- Created with matplotlib (https://matplotlib.org/) -->
<svg height="360pt" version="1.1" viewBox="0 0 360 360" width="360pt" xmlns="http://www.w3.org/2000/svg" xmlns:xlink="http://www.w3.org/1999/xlink">
 <defs>
  <style type="text/css">
*{stroke-linecap:butt;stroke-linejoin:round;}
  </style>
 </defs>
 <g id="figure_1">
  <g id="patch_1">
   <path d="M 0 360 
L 360 360 
L 360 0 
L 0 0 
z
" style="fill:#ffffff;"/>
  </g>
  <g id="patch_2">
   <path d="M 45 315 
L 324 315 
L 324 43.2 
L 45 43.2 
z
" style="fill:#ffffff;"/>
  </g>
  <g id="axes_1">
   <g id="Poly3DCollection_1">
    <path clip-path="url(#p153f6cc083)" d="M 180.183609 153.499364 
L 182.939671 152.872359 
L 182.710706 153.509195 
z
" style="stroke:#000000;"/>
    <path clip-path="url(#p153f6cc083)" d="M 180.183609 200.762869 
L 183.094587 199.164315 
L 182.710706 200.75151 
z
" style="stroke:#000000;"/>
    <path clip-path="url(#p153f6cc083)" d="M 182.710706 200.75151 
L 180.411224 201.401955 
L 180.183609 200.762869 
z
" style="stroke:#000000;"/>
    <path clip-path="url(#p153f6cc083)" d="M 183.094587 199.164315 
L 182.939671 201.390303 
L 182.710706 200.75151 
z
" style="stroke:#000000;"/>
    <path clip-path="url(#p153f6cc083)" d="M 182.939671 152.872359 
L 183.094587 155.099671 
L 182.710706 153.509195 
z
" style="stroke:#000000;"/>
    <path clip-path="url(#p153f6cc083)" d="M 180.411224 201.401955 
L 182.710706 200.75151 
L 182.939671 201.390303 
z
" style="stroke:#000000;"/>
    <path clip-path="url(#p153f6cc083)" d="M 182.710706 153.509195 
L 180.565227 155.090545 
L 180.183609 153.499364 
z
" style="stroke:#000000;"/>
    <path clip-path="url(#p153f6cc083)" d="M 182.939671 152.872359 
L 180.183609 153.499364 
L 180.411224 152.862237 
z
" style="stroke:#000000;"/>
    <path clip-path="url(#p153f6cc083)" d="M 180.565227 155.090545 
L 182.710706 153.509195 
L 183.094587 155.099671 
z
" style="stroke:#000000;"/>
    <path clip-path="url(#p153f6cc083)" d="M 180.411224 152.862237 
L 183.157917 152.393362 
L 182.939671 152.872359 
z
" style="stroke:#000000;"/>
    <path clip-path="url(#p153f6cc083)" d="M 183.094587 199.164315 
L 180.183609 200.762869 
L 180.565227 199.174973 
z
" style="stroke:#000000;"/>
    <path clip-path="url(#p153f6cc083)" d="M 180.565227 155.090545 
L 180.411224 152.862237 
L 180.183609 153.499364 
z
" style="stroke:#000000;"/>
    <path clip-path="url(#p153f6cc083)" d="M 180.411224 201.401955 
L 180.565227 199.174973 
L 180.183609 200.762869 
z
" style="stroke:#000000;"/>
    <path clip-path="url(#p153f6cc083)" d="M 182.939671 201.390303 
L 180.628184 201.883041 
L 180.411224 201.401955 
z
" style="stroke:#000000;"/>
    <path clip-path="url(#p153f6cc083)" d="M 180.628184 201.883041 
L 182.939671 201.390303 
L 183.157917 201.871166 
z
" style="stroke:#000000;"/>
    <path clip-path="url(#p153f6cc083)" d="M 183.467332 200.594131 
L 182.939671 201.390303 
L 183.094587 199.164315 
z
" style="stroke:#000000;"/>
    <path clip-path="url(#p153f6cc083)" d="M 182.939671 152.872359 
L 183.467332 153.673042 
L 183.094587 155.099671 
z
" style="stroke:#000000;"/>
    <path clip-path="url(#p153f6cc083)" d="M 182.939671 201.390303 
L 183.467332 200.594131 
L 183.157917 201.871166 
z
" style="stroke:#000000;"/>
    <path clip-path="url(#p153f6cc083)" d="M 183.467332 153.673042 
L 182.939671 152.872359 
L 183.157917 152.393362 
z
" style="stroke:#000000;"/>
    <path clip-path="url(#p153f6cc083)" d="M 183.157917 152.393362 
L 180.411224 152.862237 
L 180.628184 152.383019 
z
" style="stroke:#000000;"/>
    <path clip-path="url(#p153f6cc083)" d="M 183.467332 200.594131 
L 180.628184 201.883041 
L 183.157917 201.871166 
z
" style="stroke:#000000;"/>
    <path clip-path="url(#p153f6cc083)" d="M 183.612402 157.755176 
L 180.565227 155.090545 
L 183.094587 155.099671 
z
" style="stroke:#000000;"/>
    <path clip-path="url(#p153f6cc083)" d="M 180.935775 153.663266 
L 180.411224 152.862237 
L 180.565227 155.090545 
z
" style="stroke:#000000;"/>
    <path clip-path="url(#p153f6cc083)" d="M 180.411224 201.401955 
L 180.935775 200.605441 
L 180.565227 199.174973 
z
" style="stroke:#000000;"/>
    <path clip-path="url(#p153f6cc083)" d="M 180.411224 152.862237 
L 180.935775 153.663266 
L 180.628184 152.383019 
z
" style="stroke:#000000;"/>
    <path clip-path="url(#p153f6cc083)" d="M 180.935775 200.605441 
L 180.411224 201.401955 
L 180.628184 201.883041 
z
" style="stroke:#000000;"/>
    <path clip-path="url(#p153f6cc083)" d="M 180.935775 153.663266 
L 183.157917 152.393362 
L 180.628184 152.383019 
z
" style="stroke:#000000;"/>
    <path clip-path="url(#p153f6cc083)" d="M 181.07999 196.522716 
L 183.094587 199.164315 
L 180.565227 199.174973 
z
" style="stroke:#000000;"/>
    <path clip-path="url(#p153f6cc083)" d="M 183.467332 200.594131 
L 183.094587 199.164315 
L 183.612402 196.513236 
z
" style="stroke:#000000;"/>
    <path clip-path="url(#p153f6cc083)" d="M 183.094587 155.099671 
L 183.467332 153.673042 
L 183.612402 157.755176 
z
" style="stroke:#000000;"/>
    <path clip-path="url(#p153f6cc083)" d="M 183.157917 152.393362 
L 180.935775 153.663266 
L 183.467332 153.673042 
z
" style="stroke:#000000;"/>
    <path clip-path="url(#p153f6cc083)" d="M 180.628184 201.883041 
L 183.467332 200.594131 
L 180.935775 200.605441 
z
" style="stroke:#000000;"/>
    <path clip-path="url(#p153f6cc083)" d="M 183.094587 199.164315 
L 181.07999 196.522716 
L 183.612402 196.513236 
z
" style="stroke:#000000;"/>
    <path clip-path="url(#p153f6cc083)" d="M 180.565227 155.090545 
L 183.612402 157.755176 
L 181.07999 157.747232 
z
" style="stroke:#000000;"/>
    <path clip-path="url(#p153f6cc083)" d="M 180.935775 153.663266 
L 180.565227 155.090545 
L 181.07999 157.747232 
z
" style="stroke:#000000;"/>
    <path clip-path="url(#p153f6cc083)" d="M 180.565227 199.174973 
L 180.935775 200.605441 
L 181.07999 196.522716 
z
" style="stroke:#000000;"/>
    <path clip-path="url(#p153f6cc083)" d="M 183.467332 200.594131 
L 183.612402 196.513236 
L 184.019273 197.772821 
z
" style="stroke:#000000;"/>
    <path clip-path="url(#p153f6cc083)" d="M 183.612402 157.755176 
L 183.467332 153.673042 
L 184.019273 156.499069 
z
" style="stroke:#000000;"/>
    <path clip-path="url(#p153f6cc083)" d="M 184.019273 197.772821 
L 180.935775 200.605441 
L 183.467332 200.594131 
z
" style="stroke:#000000;"/>
    <path clip-path="url(#p153f6cc083)" d="M 181.484463 156.490551 
L 183.467332 153.673042 
L 180.935775 153.663266 
z
" style="stroke:#000000;"/>
    <path clip-path="url(#p153f6cc083)" d="M 184.061626 160.632855 
L 181.07999 157.747232 
L 183.612402 157.755176 
z
" style="stroke:#000000;"/>
    <path clip-path="url(#p153f6cc083)" d="M 180.935775 153.663266 
L 181.07999 157.747232 
L 181.484463 156.490551 
z
" style="stroke:#000000;"/>
    <path clip-path="url(#p153f6cc083)" d="M 181.07999 196.522716 
L 180.935775 200.605441 
L 181.484463 197.782877 
z
" style="stroke:#000000;"/>
    <path clip-path="url(#p153f6cc083)" d="M 181.526567 193.647595 
L 183.612402 196.513236 
L 181.07999 196.522716 
z
" style="stroke:#000000;"/>
    <path clip-path="url(#p153f6cc083)" d="M 183.467332 153.673042 
L 181.484463 156.490551 
L 184.019273 156.499069 
z
" style="stroke:#000000;"/>
    <path clip-path="url(#p153f6cc083)" d="M 184.019273 197.772821 
L 183.612402 196.513236 
L 184.061626 193.639398 
z
" style="stroke:#000000;"/>
    <path clip-path="url(#p153f6cc083)" d="M 183.612402 157.755176 
L 184.019273 156.499069 
L 184.061626 160.632855 
z
" style="stroke:#000000;"/>
    <path clip-path="url(#p153f6cc083)" d="M 180.935775 200.605441 
L 184.019273 197.772821 
L 181.484463 197.782877 
z
" style="stroke:#000000;"/>
    <path clip-path="url(#p153f6cc083)" d="M 183.612402 196.513236 
L 181.526567 193.647595 
L 184.061626 193.639398 
z
" style="stroke:#000000;"/>
    <path clip-path="url(#p153f6cc083)" d="M 181.07999 157.747232 
L 184.061626 160.632855 
L 181.526567 160.626196 
z
" style="stroke:#000000;"/>
    <path clip-path="url(#p153f6cc083)" d="M 181.484463 156.490551 
L 181.07999 157.747232 
L 181.526567 160.626196 
z
" style="stroke:#000000;"/>
    <path clip-path="url(#p153f6cc083)" d="M 181.07999 196.522716 
L 181.484463 197.782877 
L 181.526567 193.647595 
z
" style="stroke:#000000;"/>
    <path clip-path="url(#p153f6cc083)" d="M 184.019273 197.772821 
L 184.061626 193.639398 
L 184.498179 194.71383 
z
" style="stroke:#000000;"/>
    <path clip-path="url(#p153f6cc083)" d="M 184.061626 160.632855 
L 184.019273 156.499069 
L 184.498179 159.562154 
z
" style="stroke:#000000;"/>
    <path clip-path="url(#p153f6cc083)" d="M 184.498179 194.71383 
L 181.484463 197.782877 
L 184.019273 197.772821 
z
" style="stroke:#000000;"/>
    <path clip-path="url(#p153f6cc083)" d="M 184.436854 163.700165 
L 181.526567 160.626196 
L 184.061626 160.632855 
z
" style="stroke:#000000;"/>
    <path clip-path="url(#p153f6cc083)" d="M 181.960548 159.555006 
L 184.019273 156.499069 
L 181.484463 156.490551 
z
" style="stroke:#000000;"/>
    <path clip-path="url(#p153f6cc083)" d="M 181.899584 190.58212 
L 184.061626 193.639398 
L 181.526567 193.647595 
z
" style="stroke:#000000;"/>
    <path clip-path="url(#p153f6cc083)" d="M 184.498179 194.71383 
L 184.061626 193.639398 
L 184.436854 190.575295 
z
" style="stroke:#000000;"/>
    <path clip-path="url(#p153f6cc083)" d="M 184.061626 160.632855 
L 184.498179 159.562154 
L 184.436854 163.700165 
z
" style="stroke:#000000;"/>
    <path clip-path="url(#p153f6cc083)" d="M 184.061626 193.639398 
L 181.899584 190.58212 
L 184.436854 190.575295 
z
" style="stroke:#000000;"/>
    <path clip-path="url(#p153f6cc083)" d="M 181.484463 156.490551 
L 181.526567 160.626196 
L 181.960548 159.555006 
z
" style="stroke:#000000;"/>
    <path clip-path="url(#p153f6cc083)" d="M 181.526567 193.647595 
L 181.484463 197.782877 
L 181.960548 194.72252 
z
" style="stroke:#000000;"/>
    <path clip-path="url(#p153f6cc083)" d="M 184.019273 156.499069 
L 181.960548 159.555006 
L 184.498179 159.562154 
z
" style="stroke:#000000;"/>
    <path clip-path="url(#p153f6cc083)" d="M 181.526567 160.626196 
L 184.436854 163.700165 
L 181.899584 163.694882 
z
" style="stroke:#000000;"/>
    <path clip-path="url(#p153f6cc083)" d="M 181.484463 197.782877 
L 184.498179 194.71383 
L 181.960548 194.72252 
z
" style="stroke:#000000;"/>
    <path clip-path="url(#p153f6cc083)" d="M 181.960548 159.555006 
L 181.526567 160.626196 
L 181.899584 163.694882 
z
" style="stroke:#000000;"/>
    <path clip-path="url(#p153f6cc083)" d="M 181.526567 193.647595 
L 181.960548 194.72252 
L 181.899584 190.58212 
z
" style="stroke:#000000;"/>
    <path clip-path="url(#p153f6cc083)" d="M 184.733547 166.922276 
L 181.899584 163.694882 
L 184.436854 163.700165 
z
" style="stroke:#000000;"/>
    <path clip-path="url(#p153f6cc083)" d="M 184.436854 190.575295 
L 184.898257 191.451443 
L 184.498179 194.71383 
z
" style="stroke:#000000;"/>
    <path clip-path="url(#p153f6cc083)" d="M 184.898257 162.827961 
L 184.436854 163.700165 
L 184.498179 159.562154 
z
" style="stroke:#000000;"/>
    <path clip-path="url(#p153f6cc083)" d="M 182.194529 187.361098 
L 184.436854 190.575295 
L 181.899584 190.58212 
z
" style="stroke:#000000;"/>
    <path clip-path="url(#p153f6cc083)" d="M 184.898257 191.451443 
L 184.436854 190.575295 
L 184.733547 187.35572 
z
" style="stroke:#000000;"/>
    <path clip-path="url(#p153f6cc083)" d="M 184.436854 163.700165 
L 184.898257 162.827961 
L 184.733547 166.922276 
z
" style="stroke:#000000;"/>
    <path clip-path="url(#p153f6cc083)" d="M 184.898257 191.451443 
L 181.960548 194.72252 
L 184.498179 194.71383 
z
" style="stroke:#000000;"/>
    <path clip-path="url(#p153f6cc083)" d="M 184.436854 190.575295 
L 182.194529 187.361098 
L 184.733547 187.35572 
z
" style="stroke:#000000;"/>
    <path clip-path="url(#p153f6cc083)" d="M 182.358269 162.822279 
L 184.498179 159.562154 
L 181.960548 159.555006 
z
" style="stroke:#000000;"/>
    <path clip-path="url(#p153f6cc083)" d="M 181.899584 163.694882 
L 184.733547 166.922276 
L 182.194529 166.918442 
z
" style="stroke:#000000;"/>
    <path clip-path="url(#p153f6cc083)" d="M 181.899584 163.694882 
L 182.358269 162.822279 
L 181.960548 159.555006 
z
" style="stroke:#000000;"/>
    <path clip-path="url(#p153f6cc083)" d="M 182.358269 191.45867 
L 181.899584 190.58212 
L 181.960548 194.72252 
z
" style="stroke:#000000;"/>
    <path clip-path="url(#p153f6cc083)" d="M 184.498179 159.562154 
L 182.358269 162.822279 
L 184.898257 162.827961 
z
" style="stroke:#000000;"/>
    <path clip-path="url(#p153f6cc083)" d="M 184.948097 170.262263 
L 182.194529 166.918442 
L 184.733547 166.922276 
z
" style="stroke:#000000;"/>
    <path clip-path="url(#p153f6cc083)" d="M 182.358269 162.822279 
L 181.899584 163.694882 
L 182.194529 166.918442 
z
" style="stroke:#000000;"/>
    <path clip-path="url(#p153f6cc083)" d="M 181.899584 190.58212 
L 182.358269 191.45867 
L 182.194529 187.361098 
z
" style="stroke:#000000;"/>
    <path clip-path="url(#p153f6cc083)" d="M 181.960548 194.72252 
L 184.898257 191.451443 
L 182.358269 191.45867 
z
" style="stroke:#000000;"/>
    <path clip-path="url(#p153f6cc083)" d="M 182.407816 184.021442 
L 184.733547 187.35572 
L 182.194529 187.361098 
z
" style="stroke:#000000;"/>
    <path clip-path="url(#p153f6cc083)" d="M 184.733547 187.35572 
L 182.407816 184.021442 
L 184.948097 184.017567 
z
" style="stroke:#000000;"/>
    <path clip-path="url(#p153f6cc083)" d="M 184.733547 187.35572 
L 185.214629 188.022953 
L 184.898257 191.451443 
z
" style="stroke:#000000;"/>
    <path clip-path="url(#p153f6cc083)" d="M 185.214629 166.259155 
L 184.733547 166.922276 
L 184.898257 162.827961 
z
" style="stroke:#000000;"/>
    <path clip-path="url(#p153f6cc083)" d="M 185.214629 188.022953 
L 184.733547 187.35572 
L 184.948097 184.017567 
z
" style="stroke:#000000;"/>
    <path clip-path="url(#p153f6cc083)" d="M 184.733547 166.922276 
L 185.214629 166.259155 
L 184.948097 170.262263 
z
" style="stroke:#000000;"/>
    <path clip-path="url(#p153f6cc083)" d="M 182.194529 166.918442 
L 184.948097 170.262263 
L 182.407816 170.259933 
z
" style="stroke:#000000;"/>
    <path clip-path="url(#p153f6cc083)" d="M 185.077884 173.681577 
L 182.407816 170.259933 
L 184.948097 170.262263 
z
" style="stroke:#000000;"/>
    <path clip-path="url(#p153f6cc083)" d="M 185.214629 188.022953 
L 182.358269 191.45867 
L 184.898257 191.451443 
z
" style="stroke:#000000;"/>
    <path clip-path="url(#p153f6cc083)" d="M 184.948097 184.017567 
L 182.536838 180.601696 
L 185.077884 180.599362 
z
" style="stroke:#000000;"/>
    <path clip-path="url(#p153f6cc083)" d="M 182.536838 180.601696 
L 184.948097 184.017567 
L 182.407816 184.021442 
z
" style="stroke:#000000;"/>
    <path clip-path="url(#p153f6cc083)" d="M 182.672778 166.255017 
L 184.898257 162.827961 
L 182.358269 162.822279 
z
" style="stroke:#000000;"/>
    <path clip-path="url(#p153f6cc083)" d="M 182.194529 166.918442 
L 182.672778 166.255017 
L 182.358269 162.822279 
z
" style="stroke:#000000;"/>
    <path clip-path="url(#p153f6cc083)" d="M 182.672778 188.028638 
L 182.194529 187.361098 
L 182.358269 191.45867 
z
" style="stroke:#000000;"/>
    <path clip-path="url(#p153f6cc083)" d="M 182.672778 166.255017 
L 182.194529 166.918442 
L 182.407816 170.259933 
z
" style="stroke:#000000;"/>
    <path clip-path="url(#p153f6cc083)" d="M 182.194529 187.361098 
L 182.672778 188.028638 
L 182.407816 184.021442 
z
" style="stroke:#000000;"/>
    <path clip-path="url(#p153f6cc083)" d="M 185.121326 177.140655 
L 182.536838 173.680789 
L 185.077884 173.681577 
z
" style="stroke:#000000;"/>
    <path clip-path="url(#p153f6cc083)" d="M 182.407816 170.259933 
L 185.077884 173.681577 
L 182.536838 173.680789 
z
" style="stroke:#000000;"/>
    <path clip-path="url(#p153f6cc083)" d="M 185.443431 184.46773 
L 184.948097 184.017567 
L 185.077884 180.599362 
z
" style="stroke:#000000;"/>
    <path clip-path="url(#p153f6cc083)" d="M 184.948097 170.262263 
L 185.443431 169.816334 
L 185.077884 173.681577 
z
" style="stroke:#000000;"/>
    <path clip-path="url(#p153f6cc083)" d="M 185.077884 180.599362 
L 182.580024 177.141429 
L 185.121326 177.140655 
z
" style="stroke:#000000;"/>
    <path clip-path="url(#p153f6cc083)" d="M 184.898257 162.827961 
L 182.672778 166.255017 
L 185.214629 166.259155 
z
" style="stroke:#000000;"/>
    <path clip-path="url(#p153f6cc083)" d="M 184.948097 184.017567 
L 185.443431 184.46773 
L 185.214629 188.022953 
z
" style="stroke:#000000;"/>
    <path clip-path="url(#p153f6cc083)" d="M 185.443431 169.816334 
L 184.948097 170.262263 
L 185.214629 166.259155 
z
" style="stroke:#000000;"/>
    <path clip-path="url(#p153f6cc083)" d="M 182.580024 177.141429 
L 185.077884 180.599362 
L 182.536838 180.601696 
z
" style="stroke:#000000;"/>
    <path clip-path="url(#p153f6cc083)" d="M 182.536838 173.680789 
L 185.121326 177.140655 
L 182.580024 177.141429 
z
" style="stroke:#000000;"/>
    <path clip-path="url(#p153f6cc083)" d="M 182.358269 191.45867 
L 185.214629 188.022953 
L 182.672778 188.028638 
z
" style="stroke:#000000;"/>
    <path clip-path="url(#p153f6cc083)" d="M 185.077884 173.681577 
L 185.58185 173.458329 
L 185.121326 177.140655 
z
" style="stroke:#000000;"/>
    <path clip-path="url(#p153f6cc083)" d="M 185.58185 180.826919 
L 185.077884 180.599362 
L 185.121326 177.140655 
z
" style="stroke:#000000;"/>
    <path clip-path="url(#p153f6cc083)" d="M 182.900233 169.8138 
L 182.407816 170.259933 
L 182.536838 173.680789 
z
" style="stroke:#000000;"/>
    <path clip-path="url(#p153f6cc083)" d="M 182.407816 184.021442 
L 182.900233 184.471813 
L 182.536838 180.601696 
z
" style="stroke:#000000;"/>
    <path clip-path="url(#p153f6cc083)" d="M 185.443431 184.46773 
L 182.672778 188.028638 
L 185.214629 188.022953 
z
" style="stroke:#000000;"/>
    <path clip-path="url(#p153f6cc083)" d="M 185.077884 180.599362 
L 185.58185 180.826919 
L 185.443431 184.46773 
z
" style="stroke:#000000;"/>
    <path clip-path="url(#p153f6cc083)" d="M 185.58185 173.458329 
L 185.077884 173.681577 
L 185.443431 169.816334 
z
" style="stroke:#000000;"/>
    <path clip-path="url(#p153f6cc083)" d="M 182.407816 170.259933 
L 182.900233 169.8138 
L 182.672778 166.255017 
z
" style="stroke:#000000;"/>
    <path clip-path="url(#p153f6cc083)" d="M 182.900233 184.471813 
L 182.407816 184.021442 
L 182.672778 188.028638 
z
" style="stroke:#000000;"/>
    <path clip-path="url(#p153f6cc083)" d="M 182.900233 169.8138 
L 185.214629 166.259155 
L 182.672778 166.255017 
z
" style="stroke:#000000;"/>
    <path clip-path="url(#p153f6cc083)" d="M 185.214629 166.259155 
L 182.900233 169.8138 
L 185.443431 169.816334 
z
" style="stroke:#000000;"/>
    <path clip-path="url(#p153f6cc083)" d="M 182.536838 180.601696 
L 183.037836 180.829358 
L 182.580024 177.141429 
z
" style="stroke:#000000;"/>
    <path clip-path="url(#p153f6cc083)" d="M 183.037836 173.457439 
L 182.536838 173.680789 
L 182.580024 177.141429 
z
" style="stroke:#000000;"/>
    <path clip-path="url(#p153f6cc083)" d="M 185.121326 177.140655 
L 185.628179 177.142822 
L 185.58185 180.826919 
z
" style="stroke:#000000;"/>
    <path clip-path="url(#p153f6cc083)" d="M 185.628179 177.142822 
L 185.121326 177.140655 
L 185.58185 173.458329 
z
" style="stroke:#000000;"/>
    <path clip-path="url(#p153f6cc083)" d="M 182.672778 188.028638 
L 185.443431 184.46773 
L 182.900233 184.471813 
z
" style="stroke:#000000;"/>
    <path clip-path="url(#p153f6cc083)" d="M 182.49617 154.603552 
L 186.30598 151.016011 
L 185.036975 154.612943 
z
" style="stroke:#000000;"/>
    <path clip-path="url(#p153f6cc083)" d="M 186.30598 165.140177 
L 182.49617 154.603552 
L 185.036975 154.612943 
z
" style="stroke:#000000;"/>
    <path clip-path="url(#p153f6cc083)" d="M 182.536838 173.680789 
L 183.037836 173.457439 
L 182.900233 169.8138 
z
" style="stroke:#000000;"/>
    <path clip-path="url(#p153f6cc083)" d="M 183.037836 180.829358 
L 182.536838 180.601696 
L 182.900233 184.471813 
z
" style="stroke:#000000;"/>
    <path clip-path="url(#p153f6cc083)" d="M 185.58185 180.826919 
L 182.900233 184.471813 
L 185.443431 184.46773 
z
" style="stroke:#000000;"/>
    <path clip-path="url(#p153f6cc083)" d="M 185.443431 169.816334 
L 183.037836 173.457439 
L 185.58185 173.458329 
z
" style="stroke:#000000;"/>
    <path clip-path="url(#p153f6cc083)" d="M 186.30598 161.609135 
L 185.036975 154.612943 
L 185.459086 155.031476 
z
" style="stroke:#000000;"/>
    <path clip-path="url(#p153f6cc083)" d="M 186.30598 151.016011 
L 185.459086 155.031476 
L 185.036975 154.612943 
z
" style="stroke:#000000;"/>
    <path clip-path="url(#p153f6cc083)" d="M 183.037836 173.457439 
L 185.443431 169.816334 
L 182.900233 169.8138 
z
" style="stroke:#000000;"/>
    <path clip-path="url(#p153f6cc083)" d="M 182.580024 177.141429 
L 183.083892 177.143597 
L 183.037836 173.457439 
z
" style="stroke:#000000;"/>
    <path clip-path="url(#p153f6cc083)" d="M 183.083892 177.143597 
L 182.580024 177.141429 
L 183.037836 180.829358 
z
" style="stroke:#000000;"/>
    <path clip-path="url(#p153f6cc083)" d="M 182.900233 184.471813 
L 185.58185 180.826919 
L 183.037836 180.829358 
z
" style="stroke:#000000;"/>
    <path clip-path="url(#p153f6cc083)" d="M 185.628179 177.142822 
L 183.037836 180.829358 
L 185.58185 180.826919 
z
" style="stroke:#000000;"/>
    <path clip-path="url(#p153f6cc083)" d="M 185.58185 173.458329 
L 183.083892 177.143597 
L 185.628179 177.142822 
z
" style="stroke:#000000;"/>
    <path clip-path="url(#p153f6cc083)" d="M 183.083892 177.143597 
L 185.58185 173.458329 
L 183.037836 173.457439 
z
" style="stroke:#000000;"/>
    <path clip-path="url(#p153f6cc083)" d="M 183.037836 180.829358 
L 185.628179 177.142822 
L 183.083892 177.143597 
z
" style="stroke:#000000;"/>
    <path clip-path="url(#p153f6cc083)" d="M 182.915795 155.022265 
L 183.757703 151.004962 
L 182.49617 154.603552 
z
" style="stroke:#000000;"/>
    <path clip-path="url(#p153f6cc083)" d="M 182.49617 154.603552 
L 183.757703 161.602881 
L 182.915795 155.022265 
z
" style="stroke:#000000;"/>
    <path clip-path="url(#p153f6cc083)" d="M 185.459086 155.031476 
L 183.757703 152.771282 
L 182.915795 155.022265 
z
" style="stroke:#000000;"/>
    <path clip-path="url(#p153f6cc083)" d="M 183.757703 161.602881 
L 185.459086 155.031476 
L 182.915795 155.022265 
z
" style="stroke:#000000;"/>
    <path clip-path="url(#p153f6cc083)" d="M 185.036975 154.612943 
L 186.30598 161.609135 
L 186.30598 165.140177 
z
" style="stroke:#000000;"/>
    <path clip-path="url(#p153f6cc083)" d="M 186.30598 151.016011 
L 182.49617 154.603552 
L 183.757703 151.004962 
z
" style="stroke:#000000;"/>
    <path clip-path="url(#p153f6cc083)" d="M 182.49617 154.603552 
L 186.30598 165.140177 
L 183.757703 165.135521 
z
" style="stroke:#000000;"/>
    <path clip-path="url(#p153f6cc083)" d="M 185.459086 155.031476 
L 186.30598 151.016011 
L 186.30598 152.781531 
z
" style="stroke:#000000;"/>
    <path clip-path="url(#p153f6cc083)" d="M 183.757703 161.602881 
L 182.49617 154.603552 
L 183.757703 165.135521 
z
" style="stroke:#000000;"/>
    <path clip-path="url(#p153f6cc083)" d="M 183.757703 152.771282 
L 185.459086 155.031476 
L 186.30598 152.781531 
z
" style="stroke:#000000;"/>
    <path clip-path="url(#p153f6cc083)" d="M 185.459086 155.031476 
L 183.757703 161.602881 
L 186.30598 161.609135 
z
" style="stroke:#000000;"/>
    <path clip-path="url(#p153f6cc083)" d="M 183.757703 151.004962 
L 182.915795 155.022265 
L 183.757703 152.771282 
z
" style="stroke:#000000;"/>
    <path clip-path="url(#p153f6cc083)" d="M 186.30598 151.016011 
L 187.156457 154.945206 
L 186.30598 152.781531 
z
" style="stroke:#000000;"/>
    <path clip-path="url(#p153f6cc083)" d="M 186.30598 152.781531 
L 184.603173 154.935917 
L 183.757703 152.771282 
z
" style="stroke:#000000;"/>
    <path clip-path="url(#p153f6cc083)" d="M 184.603173 154.935917 
L 186.30598 161.609135 
L 183.757703 161.602881 
z
" style="stroke:#000000;"/>
    <path clip-path="url(#p153f6cc083)" d="M 186.30598 161.609135 
L 187.583046 154.480743 
L 186.30598 165.140177 
z
" style="stroke:#000000;"/>
    <path clip-path="url(#p153f6cc083)" d="M 183.757703 151.004962 
L 183.757703 152.771282 
L 184.603173 154.935917 
z
" style="stroke:#000000;"/>
    <path clip-path="url(#p153f6cc083)" d="M 183.757703 151.004962 
L 187.583046 154.480743 
L 186.30598 151.016011 
z
" style="stroke:#000000;"/>
    <path clip-path="url(#p153f6cc083)" d="M 187.583046 154.480743 
L 183.757703 165.135521 
L 186.30598 165.140177 
z
" style="stroke:#000000;"/>
    <path clip-path="url(#p153f6cc083)" d="M 183.757703 161.602881 
L 183.757703 165.135521 
L 185.027252 154.471233 
z
" style="stroke:#000000;"/>
    <path clip-path="url(#p153f6cc083)" d="M 184.603173 154.935917 
L 186.30598 152.781531 
L 187.156457 154.945206 
z
" style="stroke:#000000;"/>
    <path clip-path="url(#p153f6cc083)" d="M 186.30598 161.609135 
L 184.603173 154.935917 
L 187.156457 154.945206 
z
" style="stroke:#000000;"/>
    <path clip-path="url(#p153f6cc083)" d="M 187.583046 154.480743 
L 186.30598 161.609135 
L 187.156457 154.945206 
z
" style="stroke:#000000;"/>
    <path clip-path="url(#p153f6cc083)" d="M 187.156457 154.945206 
L 186.30598 151.016011 
L 187.583046 154.480743 
z
" style="stroke:#000000;"/>
    <path clip-path="url(#p153f6cc083)" d="M 187.032727 180.846436 
L 184.433793 177.149406 
L 186.986074 177.148625 
z
" style="stroke:#000000;"/>
    <path clip-path="url(#p153f6cc083)" d="M 186.986074 177.148625 
L 184.480172 173.450317 
L 187.032727 173.451213 
z
" style="stroke:#000000;"/>
    <path clip-path="url(#p153f6cc083)" d="M 184.480172 173.450317 
L 186.986074 177.148625 
L 184.433793 177.149406 
z
" style="stroke:#000000;"/>
    <path clip-path="url(#p153f6cc083)" d="M 184.433793 177.149406 
L 187.032727 180.846436 
L 184.480172 180.848894 
z
" style="stroke:#000000;"/>
    <path clip-path="url(#p153f6cc083)" d="M 187.172245 184.506681 
L 184.480172 180.848894 
L 187.032727 180.846436 
z
" style="stroke:#000000;"/>
    <path clip-path="url(#p153f6cc083)" d="M 186.986074 177.148625 
L 187.497656 177.150812 
L 187.032727 180.846436 
z
" style="stroke:#000000;"/>
    <path clip-path="url(#p153f6cc083)" d="M 187.497656 177.150812 
L 186.986074 177.148625 
L 187.032727 173.451213 
z
" style="stroke:#000000;"/>
    <path clip-path="url(#p153f6cc083)" d="M 187.032727 173.451213 
L 184.618868 169.789605 
L 187.172245 169.792161 
z
" style="stroke:#000000;"/>
    <path clip-path="url(#p153f6cc083)" d="M 183.757703 151.004962 
L 184.603173 154.935917 
L 185.027252 154.471233 
z
" style="stroke:#000000;"/>
    <path clip-path="url(#p153f6cc083)" d="M 183.757703 161.602881 
L 185.027252 154.471233 
L 184.603173 154.935917 
z
" style="stroke:#000000;"/>
    <path clip-path="url(#p153f6cc083)" d="M 184.618868 169.789605 
L 187.032727 173.451213 
L 184.480172 173.450317 
z
" style="stroke:#000000;"/>
    <path clip-path="url(#p153f6cc083)" d="M 184.480172 180.848894 
L 187.172245 184.506681 
L 184.618868 184.510799 
z
" style="stroke:#000000;"/>
    <path clip-path="url(#p153f6cc083)" d="M 187.032727 180.846436 
L 187.541624 180.631149 
L 187.172245 184.506681 
z
" style="stroke:#000000;"/>
    <path clip-path="url(#p153f6cc083)" d="M 187.541624 173.67085 
L 187.032727 173.451213 
L 187.172245 169.792161 
z
" style="stroke:#000000;"/>
    <path clip-path="url(#p153f6cc083)" d="M 187.583046 154.480743 
L 183.757703 151.004962 
L 185.027252 154.471233 
z
" style="stroke:#000000;"/>
    <path clip-path="url(#p153f6cc083)" d="M 183.757703 165.135521 
L 187.583046 154.480743 
L 185.027252 154.471233 
z
" style="stroke:#000000;"/>
    <path clip-path="url(#p153f6cc083)" d="M 187.403287 188.091695 
L 184.618868 184.510799 
L 187.172245 184.506681 
z
" style="stroke:#000000;"/>
    <path clip-path="url(#p153f6cc083)" d="M 184.433793 177.149406 
L 184.942364 177.151594 
L 184.480172 173.450317 
z
" style="stroke:#000000;"/>
    <path clip-path="url(#p153f6cc083)" d="M 184.942364 177.151594 
L 184.433793 177.149406 
L 184.480172 180.848894 
z
" style="stroke:#000000;"/>
    <path clip-path="url(#p153f6cc083)" d="M 187.032727 173.451213 
L 187.541624 173.67085 
L 187.497656 177.150812 
z
" style="stroke:#000000;"/>
    <path clip-path="url(#p153f6cc083)" d="M 187.541624 180.631149 
L 187.032727 180.846436 
L 187.497656 177.150812 
z
" style="stroke:#000000;"/>
    <path clip-path="url(#p153f6cc083)" d="M 184.848551 166.204939 
L 187.172245 169.792161 
L 184.618868 169.789605 
z
" style="stroke:#000000;"/>
    <path clip-path="url(#p153f6cc083)" d="M 187.172245 169.792161 
L 184.848551 166.204939 
L 187.403287 166.209122 
z
" style="stroke:#000000;"/>
    <path clip-path="url(#p153f6cc083)" d="M 187.172245 184.506681 
L 187.673096 184.075977 
L 187.403287 188.091695 
z
" style="stroke:#000000;"/>
    <path clip-path="url(#p153f6cc083)" d="M 187.673096 170.227146 
L 187.172245 169.792161 
L 187.403287 166.209122 
z
" style="stroke:#000000;"/>
    <path clip-path="url(#p153f6cc083)" d="M 184.480172 173.450317 
L 184.986073 173.670053 
L 184.618868 169.789605 
z
" style="stroke:#000000;"/>
    <path clip-path="url(#p153f6cc083)" d="M 184.986073 180.633511 
L 184.480172 180.848894 
L 184.618868 184.510799 
z
" style="stroke:#000000;"/>
    <path clip-path="url(#p153f6cc083)" d="M 184.618868 184.510799 
L 187.403287 188.091695 
L 184.848551 188.097442 
z
" style="stroke:#000000;"/>
    <path clip-path="url(#p153f6cc083)" d="M 187.673096 184.075977 
L 187.172245 184.506681 
L 187.541624 180.631149 
z
" style="stroke:#000000;"/>
    <path clip-path="url(#p153f6cc083)" d="M 187.172245 169.792161 
L 187.673096 170.227146 
L 187.541624 173.67085 
z
" style="stroke:#000000;"/>
    <path clip-path="url(#p153f6cc083)" d="M 184.480172 180.848894 
L 184.986073 180.633511 
L 184.942364 177.151594 
z
" style="stroke:#000000;"/>
    <path clip-path="url(#p153f6cc083)" d="M 184.986073 173.670053 
L 184.480172 173.450317 
L 184.942364 177.151594 
z
" style="stroke:#000000;"/>
    <path clip-path="url(#p153f6cc083)" d="M 187.723628 191.564425 
L 184.848551 188.097442 
L 187.403287 188.091695 
z
" style="stroke:#000000;"/>
    <path clip-path="url(#p153f6cc083)" d="M 187.541624 173.67085 
L 184.942364 177.151594 
L 187.497656 177.150812 
z
" style="stroke:#000000;"/>
    <path clip-path="url(#p153f6cc083)" d="M 187.497656 177.150812 
L 184.986073 180.633511 
L 187.541624 180.631149 
z
" style="stroke:#000000;"/>
    <path clip-path="url(#p153f6cc083)" d="M 184.618868 169.789605 
L 185.116772 170.224784 
L 184.848551 166.204939 
z
" style="stroke:#000000;"/>
    <path clip-path="url(#p153f6cc083)" d="M 185.116772 184.079905 
L 184.618868 184.510799 
L 184.848551 188.097442 
z
" style="stroke:#000000;"/>
    <path clip-path="url(#p153f6cc083)" d="M 185.167007 162.733367 
L 187.403287 166.209122 
L 184.848551 166.204939 
z
" style="stroke:#000000;"/>
    <path clip-path="url(#p153f6cc083)" d="M 184.986073 180.633511 
L 187.497656 177.150812 
L 184.942364 177.151594 
z
" style="stroke:#000000;"/>
    <path clip-path="url(#p153f6cc083)" d="M 185.116772 170.224784 
L 184.618868 169.789605 
L 184.986073 173.670053 
z
" style="stroke:#000000;"/>
    <path clip-path="url(#p153f6cc083)" d="M 184.618868 184.510799 
L 185.116772 184.079905 
L 184.986073 180.633511 
z
" style="stroke:#000000;"/>
    <path clip-path="url(#p153f6cc083)" d="M 187.673096 170.227146 
L 184.986073 173.670053 
L 187.541624 173.67085 
z
" style="stroke:#000000;"/>
    <path clip-path="url(#p153f6cc083)" d="M 184.942364 177.151594 
L 187.541624 173.67085 
L 184.986073 173.670053 
z
" style="stroke:#000000;"/>
    <path clip-path="url(#p153f6cc083)" d="M 187.890807 187.449743 
L 187.403287 188.091695 
L 187.673096 184.075977 
z
" style="stroke:#000000;"/>
    <path clip-path="url(#p153f6cc083)" d="M 187.403287 166.209122 
L 187.890807 166.855241 
L 187.673096 170.227146 
z
" style="stroke:#000000;"/>
    <path clip-path="url(#p153f6cc083)" d="M 187.403287 188.091695 
L 187.890807 187.449743 
L 187.723628 191.564425 
z
" style="stroke:#000000;"/>
    <path clip-path="url(#p153f6cc083)" d="M 187.890807 166.855241 
L 187.403287 166.209122 
L 187.723628 162.73913 
z
" style="stroke:#000000;"/>
    <path clip-path="url(#p153f6cc083)" d="M 187.403287 166.209122 
L 185.167007 162.733367 
L 187.723628 162.73913 
z
" style="stroke:#000000;"/>
    <path clip-path="url(#p153f6cc083)" d="M 187.541624 180.631149 
L 185.116772 184.079905 
L 187.673096 184.075977 
z
" style="stroke:#000000;"/>
    <path clip-path="url(#p153f6cc083)" d="M 185.116772 184.079905 
L 187.541624 180.631149 
L 184.986073 180.633511 
z
" style="stroke:#000000;"/>
    <path clip-path="url(#p153f6cc083)" d="M 184.848551 188.097442 
L 187.723628 191.564425 
L 185.167007 191.571755 
z
" style="stroke:#000000;"/>
    <path clip-path="url(#p153f6cc083)" d="M 184.986073 173.670053 
L 187.673096 170.227146 
L 185.116772 170.224784 
z
" style="stroke:#000000;"/>
    <path clip-path="url(#p153f6cc083)" d="M 187.890807 166.855241 
L 185.116772 170.224784 
L 187.673096 170.227146 
z
" style="stroke:#000000;"/>
    <path clip-path="url(#p153f6cc083)" d="M 185.333203 166.851346 
L 184.848551 166.204939 
L 185.116772 170.224784 
z
" style="stroke:#000000;"/>
    <path clip-path="url(#p153f6cc083)" d="M 184.848551 188.097442 
L 185.333203 187.455206 
L 185.116772 184.079905 
z
" style="stroke:#000000;"/>
    <path clip-path="url(#p153f6cc083)" d="M 184.848551 166.204939 
L 185.333203 166.851346 
L 185.167007 162.733367 
z
" style="stroke:#000000;"/>
    <path clip-path="url(#p153f6cc083)" d="M 185.333203 187.455206 
L 184.848551 188.097442 
L 185.167007 191.571755 
z
" style="stroke:#000000;"/>
    <path clip-path="url(#p153f6cc083)" d="M 185.333203 187.455206 
L 187.673096 184.075977 
L 185.116772 184.079905 
z
" style="stroke:#000000;"/>
    <path clip-path="url(#p153f6cc083)" d="M 187.673096 184.075977 
L 185.333203 187.455206 
L 187.890807 187.449743 
z
" style="stroke:#000000;"/>
    <path clip-path="url(#p153f6cc083)" d="M 188.130183 194.888813 
L 185.167007 191.571755 
L 187.723628 191.564425 
z
" style="stroke:#000000;"/>
    <path clip-path="url(#p153f6cc083)" d="M 188.192645 190.717436 
L 187.723628 191.564425 
L 187.890807 187.449743 
z
" style="stroke:#000000;"/>
    <path clip-path="url(#p153f6cc083)" d="M 187.723628 162.73913 
L 188.192645 163.590128 
L 187.890807 166.855241 
z
" style="stroke:#000000;"/>
    <path clip-path="url(#p153f6cc083)" d="M 185.116772 170.224784 
L 187.890807 166.855241 
L 185.333203 166.851346 
z
" style="stroke:#000000;"/>
    <path clip-path="url(#p153f6cc083)" d="M 185.57117 159.410939 
L 187.723628 162.73913 
L 185.167007 162.733367 
z
" style="stroke:#000000;"/>
    <path clip-path="url(#p153f6cc083)" d="M 187.723628 191.564425 
L 188.192645 190.717436 
L 188.130183 194.888813 
z
" style="stroke:#000000;"/>
    <path clip-path="url(#p153f6cc083)" d="M 188.192645 163.590128 
L 187.723628 162.73913 
L 188.130183 159.418217 
z
" style="stroke:#000000;"/>
    <path clip-path="url(#p153f6cc083)" d="M 188.192645 163.590128 
L 185.333203 166.851346 
L 187.890807 166.855241 
z
" style="stroke:#000000;"/>
    <path clip-path="url(#p153f6cc083)" d="M 187.723628 162.73913 
L 185.57117 159.410939 
L 188.130183 159.418217 
z
" style="stroke:#000000;"/>
    <path clip-path="url(#p153f6cc083)" d="M 185.633264 190.724389 
L 187.890807 187.449743 
L 185.333203 187.455206 
z
" style="stroke:#000000;"/>
    <path clip-path="url(#p153f6cc083)" d="M 185.167007 191.571755 
L 188.130183 194.888813 
L 185.57117 194.897661 
z
" style="stroke:#000000;"/>
    <path clip-path="url(#p153f6cc083)" d="M 185.633264 163.584745 
L 185.167007 162.733367 
L 185.333203 166.851346 
z
" style="stroke:#000000;"/>
    <path clip-path="url(#p153f6cc083)" d="M 185.167007 191.571755 
L 185.633264 190.724389 
L 185.333203 187.455206 
z
" style="stroke:#000000;"/>
    <path clip-path="url(#p153f6cc083)" d="M 187.890807 187.449743 
L 185.633264 190.724389 
L 188.192645 190.717436 
z
" style="stroke:#000000;"/>
    <path clip-path="url(#p153f6cc083)" d="M 185.167007 162.733367 
L 185.633264 163.584745 
L 185.57117 159.410939 
z
" style="stroke:#000000;"/>
    <path clip-path="url(#p153f6cc083)" d="M 185.633264 190.724389 
L 185.167007 191.571755 
L 185.57117 194.897661 
z
" style="stroke:#000000;"/>
    <path clip-path="url(#p153f6cc083)" d="M 185.333203 166.851346 
L 188.192645 163.590128 
L 185.633264 163.584745 
z
" style="stroke:#000000;"/>
    <path clip-path="url(#p153f6cc083)" d="M 188.575669 193.844984 
L 188.130183 194.888813 
L 188.192645 190.717436 
z
" style="stroke:#000000;"/>
    <path clip-path="url(#p153f6cc083)" d="M 188.130183 159.418217 
L 188.575669 160.465854 
L 188.192645 163.590128 
z
" style="stroke:#000000;"/>
    <path clip-path="url(#p153f6cc083)" d="M 188.618993 198.029882 
L 185.57117 194.897661 
L 188.130183 194.888813 
z
" style="stroke:#000000;"/>
    <path clip-path="url(#p153f6cc083)" d="M 188.575669 160.465854 
L 185.633264 163.584745 
L 188.192645 163.590128 
z
" style="stroke:#000000;"/>
    <path clip-path="url(#p153f6cc083)" d="M 186.057105 156.272612 
L 188.130183 159.418217 
L 185.57117 159.410939 
z
" style="stroke:#000000;"/>
    <path clip-path="url(#p153f6cc083)" d="M 188.130183 194.888813 
L 188.575669 193.844984 
L 188.618993 198.029882 
z
" style="stroke:#000000;"/>
    <path clip-path="url(#p153f6cc083)" d="M 188.575669 160.465854 
L 188.130183 159.418217 
L 188.618993 156.281327 
z
" style="stroke:#000000;"/>
    <path clip-path="url(#p153f6cc083)" d="M 186.014035 193.853367 
L 188.192645 190.717436 
L 185.633264 190.724389 
z
" style="stroke:#000000;"/>
    <path clip-path="url(#p153f6cc083)" d="M 186.014035 160.459044 
L 185.57117 159.410939 
L 185.633264 163.584745 
z
" style="stroke:#000000;"/>
    <path clip-path="url(#p153f6cc083)" d="M 185.57117 194.897661 
L 186.014035 193.853367 
L 185.633264 190.724389 
z
" style="stroke:#000000;"/>
    <path clip-path="url(#p153f6cc083)" d="M 188.192645 190.717436 
L 186.014035 193.853367 
L 188.575669 193.844984 
z
" style="stroke:#000000;"/>
    <path clip-path="url(#p153f6cc083)" d="M 188.130183 159.418217 
L 186.057105 156.272612 
L 188.618993 156.281327 
z
" style="stroke:#000000;"/>
    <path clip-path="url(#p153f6cc083)" d="M 185.633264 163.584745 
L 188.575669 160.465854 
L 186.014035 160.459044 
z
" style="stroke:#000000;"/>
    <path clip-path="url(#p153f6cc083)" d="M 185.57117 194.897661 
L 188.618993 198.029882 
L 186.057105 198.04017 
z
" style="stroke:#000000;"/>
    <path clip-path="url(#p153f6cc083)" d="M 185.57117 159.410939 
L 186.014035 160.459044 
L 186.057105 156.272612 
z
" style="stroke:#000000;"/>
    <path clip-path="url(#p153f6cc083)" d="M 186.014035 193.853367 
L 185.57117 194.897661 
L 186.057105 198.04017 
z
" style="stroke:#000000;"/>
    <path clip-path="url(#p153f6cc083)" d="M 188.618993 198.029882 
L 188.575669 193.844984 
L 189.036133 196.799553 
z
" style="stroke:#000000;"/>
    <path clip-path="url(#p153f6cc083)" d="M 188.575669 160.465854 
L 188.618993 156.281327 
L 189.036133 157.515221 
z
" style="stroke:#000000;"/>
    <path clip-path="url(#p153f6cc083)" d="M 189.036133 157.515221 
L 186.014035 160.459044 
L 188.575669 160.465854 
z
" style="stroke:#000000;"/>
    <path clip-path="url(#p153f6cc083)" d="M 186.471791 196.809292 
L 188.575669 193.844984 
L 186.014035 193.853367 
z
" style="stroke:#000000;"/>
    <path clip-path="url(#p153f6cc083)" d="M 189.185279 200.954528 
L 186.057105 198.04017 
L 188.618993 198.029882 
z
" style="stroke:#000000;"/>
    <path clip-path="url(#p153f6cc083)" d="M 186.057105 156.272612 
L 186.014035 160.459044 
L 186.471791 157.507059 
z
" style="stroke:#000000;"/>
    <path clip-path="url(#p153f6cc083)" d="M 186.014035 193.853367 
L 186.057105 198.04017 
L 186.471791 196.809292 
z
" style="stroke:#000000;"/>
    <path clip-path="url(#p153f6cc083)" d="M 186.620059 153.351463 
L 188.618993 156.281327 
L 186.057105 156.272612 
z
" style="stroke:#000000;"/>
    <path clip-path="url(#p153f6cc083)" d="M 188.575669 193.844984 
L 186.471791 196.809292 
L 189.036133 196.799553 
z
" style="stroke:#000000;"/>
    <path clip-path="url(#p153f6cc083)" d="M 188.618993 198.029882 
L 189.036133 196.799553 
L 189.185279 200.954528 
z
" style="stroke:#000000;"/>
    <path clip-path="url(#p153f6cc083)" d="M 189.036133 157.515221 
L 188.618993 156.281327 
L 189.185279 153.361521 
z
" style="stroke:#000000;"/>
    <path clip-path="url(#p153f6cc083)" d="M 186.014035 160.459044 
L 189.036133 157.515221 
L 186.471791 157.507059 
z
" style="stroke:#000000;"/>
    <path clip-path="url(#p153f6cc083)" d="M 188.618993 156.281327 
L 186.620059 153.351463 
L 189.185279 153.361521 
z
" style="stroke:#000000;"/>
    <path clip-path="url(#p153f6cc083)" d="M 186.057105 198.04017 
L 189.185279 200.954528 
L 186.620059 200.966164 
z
" style="stroke:#000000;"/>
    <path clip-path="url(#p153f6cc083)" d="M 186.057105 156.272612 
L 186.471791 157.507059 
L 186.620059 153.351463 
z
" style="stroke:#000000;"/>
    <path clip-path="url(#p153f6cc083)" d="M 186.471791 196.809292 
L 186.057105 198.04017 
L 186.620059 200.966164 
z
" style="stroke:#000000;"/>
    <path clip-path="url(#p153f6cc083)" d="M 189.185279 200.954528 
L 189.036133 196.799553 
L 189.569498 199.549597 
z
" style="stroke:#000000;"/>
    <path clip-path="url(#p153f6cc083)" d="M 189.036133 157.515221 
L 189.185279 153.361521 
L 189.569498 154.769737 
z
" style="stroke:#000000;"/>
    <path clip-path="url(#p153f6cc083)" d="M 189.569498 154.769737 
L 186.471791 157.507059 
L 189.036133 157.515221 
z
" style="stroke:#000000;"/>
    <path clip-path="url(#p153f6cc083)" d="M 187.00202 199.560603 
L 189.036133 196.799553 
L 186.471791 196.809292 
z
" style="stroke:#000000;"/>
    <path clip-path="url(#p153f6cc083)" d="M 189.504116 202.291783 
L 186.620059 200.966164 
L 189.185279 200.954528 
z
" style="stroke:#000000;"/>
    <path clip-path="url(#p153f6cc083)" d="M 186.937022 152.016316 
L 189.185279 153.361521 
L 186.620059 153.351463 
z
" style="stroke:#000000;"/>
    <path clip-path="url(#p153f6cc083)" d="M 186.620059 153.351463 
L 186.471791 157.507059 
L 187.00202 154.760311 
z
" style="stroke:#000000;"/>
    <path clip-path="url(#p153f6cc083)" d="M 186.471791 196.809292 
L 186.620059 200.966164 
L 187.00202 199.560603 
z
" style="stroke:#000000;"/>
    <path clip-path="url(#p153f6cc083)" d="M 189.036133 196.799553 
L 187.00202 199.560603 
L 189.569498 199.549597 
z
" style="stroke:#000000;"/>
    <path clip-path="url(#p153f6cc083)" d="M 189.185279 153.361521 
L 186.937022 152.016316 
L 189.504116 152.026991 
z
" style="stroke:#000000;"/>
    <path clip-path="url(#p153f6cc083)" d="M 189.185279 200.954528 
L 189.729609 201.83239 
L 189.504116 202.291783 
z
" style="stroke:#000000;"/>
    <path clip-path="url(#p153f6cc083)" d="M 189.729609 152.488312 
L 189.185279 153.361521 
L 189.504116 152.026991 
z
" style="stroke:#000000;"/>
    <path clip-path="url(#p153f6cc083)" d="M 189.729609 201.83239 
L 189.185279 200.954528 
L 189.569498 199.549597 
z
" style="stroke:#000000;"/>
    <path clip-path="url(#p153f6cc083)" d="M 189.185279 153.361521 
L 189.729609 152.488312 
L 189.569498 154.769737 
z
" style="stroke:#000000;"/>
    <path clip-path="url(#p153f6cc083)" d="M 186.471791 157.507059 
L 189.569498 154.769737 
L 187.00202 154.760311 
z
" style="stroke:#000000;"/>
    <path clip-path="url(#p153f6cc083)" d="M 186.620059 200.966164 
L 189.504116 202.291783 
L 186.937022 202.304039 
z
" style="stroke:#000000;"/>
    <path clip-path="url(#p153f6cc083)" d="M 186.937022 152.016316 
L 189.729609 152.488312 
L 189.504116 152.026991 
z
" style="stroke:#000000;"/>
    <path clip-path="url(#p153f6cc083)" d="M 186.620059 153.351463 
L 187.161189 152.477842 
L 186.937022 152.016316 
z
" style="stroke:#000000;"/>
    <path clip-path="url(#p153f6cc083)" d="M 187.161189 201.844442 
L 186.620059 200.966164 
L 186.937022 202.304039 
z
" style="stroke:#000000;"/>
    <path clip-path="url(#p153f6cc083)" d="M 187.161189 152.477842 
L 186.620059 153.351463 
L 187.00202 154.760311 
z
" style="stroke:#000000;"/>
    <path clip-path="url(#p153f6cc083)" d="M 186.620059 200.966164 
L 187.161189 201.844442 
L 187.00202 199.560603 
z
" style="stroke:#000000;"/>
    <path clip-path="url(#p153f6cc083)" d="M 189.504116 202.291783 
L 187.161189 201.844442 
L 186.937022 202.304039 
z
" style="stroke:#000000;"/>
    <path clip-path="url(#p153f6cc083)" d="M 187.161189 201.844442 
L 189.504116 202.291783 
L 189.729609 201.83239 
z
" style="stroke:#000000;"/>
    <path clip-path="url(#p153f6cc083)" d="M 189.729609 201.83239 
L 189.569498 199.549597 
L 189.966712 201.212583 
z
" style="stroke:#000000;"/>
    <path clip-path="url(#p153f6cc083)" d="M 189.569498 154.769737 
L 189.729609 152.488312 
L 189.966712 153.110146 
z
" style="stroke:#000000;"/>
    <path clip-path="url(#p153f6cc083)" d="M 187.00202 199.560603 
L 189.966712 201.212583 
L 189.569498 199.549597 
z
" style="stroke:#000000;"/>
    <path clip-path="url(#p153f6cc083)" d="M 189.729609 152.488312 
L 186.937022 152.016316 
L 187.161189 152.477842 
z
" style="stroke:#000000;"/>
    <path clip-path="url(#p153f6cc083)" d="M 189.569498 154.769737 
L 187.396898 153.099953 
L 187.00202 154.760311 
z
" style="stroke:#000000;"/>
    <path clip-path="url(#p153f6cc083)" d="M 187.161189 152.477842 
L 189.966712 153.110146 
L 189.729609 152.488312 
z
" style="stroke:#000000;"/>
    <path clip-path="url(#p153f6cc083)" d="M 187.396898 153.099953 
L 189.569498 154.769737 
L 189.966712 153.110146 
z
" style="stroke:#000000;"/>
    <path clip-path="url(#p153f6cc083)" d="M 189.729609 201.83239 
L 187.396898 201.22436 
L 187.161189 201.844442 
z
" style="stroke:#000000;"/>
    <path clip-path="url(#p153f6cc083)" d="M 187.161189 152.477842 
L 187.00202 154.760311 
L 187.396898 153.099953 
z
" style="stroke:#000000;"/>
    <path clip-path="url(#p153f6cc083)" d="M 187.00202 199.560603 
L 187.161189 201.844442 
L 187.396898 201.22436 
z
" style="stroke:#000000;"/>
    <path clip-path="url(#p153f6cc083)" d="M 187.396898 201.22436 
L 189.729609 201.83239 
L 189.966712 201.212583 
z
" style="stroke:#000000;"/>
    <path clip-path="url(#p153f6cc083)" d="M 189.966712 201.212583 
L 187.00202 199.560603 
L 187.396898 201.22436 
z
" style="stroke:#000000;"/>
    <path clip-path="url(#p153f6cc083)" d="M 189.966712 153.110146 
L 187.161189 152.477842 
L 187.396898 153.099953 
z
" style="stroke:#000000;"/>
   </g>
  </g>
 </g>
 <defs>
  <clipPath id="p153f6cc083">
   <rect height="271.8" width="279" x="45" y="43.2"/>
  </clipPath>
 </defs>
</svg>
