<?xml version="1.0" encoding="utf-8" standalone="no"?>
<!DOCTYPE svg PUBLIC "-//W3C//DTD SVG 1.1//EN"
  "http://www.w3.org/Graphics/SVG/1.1/DTD/svg11.dtd">
<!-- Created with matplotlib (https://matplotlib.org/) -->
<svg height="360pt" version="1.1" viewBox="0 0 360 360" width="360pt" xmlns="http://www.w3.org/2000/svg" xmlns:xlink="http://www.w3.org/1999/xlink">
 <defs>
  <style type="text/css">
*{stroke-linecap:butt;stroke-linejoin:round;}
  </style>
 </defs>
 <g id="figure_1">
  <g id="patch_1">
   <path d="M 45 315 
L 324 315 
L 324 43.2 
L 45 43.2 
z
" style="fill:#ffffff;"/>
  </g>
  <g id="axes_1">
   <g id="Poly3DCollection_1">
    <path clip-path="url(#p2b8c4f4b73)" d="M 190.955248 202.024157 
L 188.051057 202.685317 
L 188.295618 202.011594 
z
" style="stroke:#000000;"/>
    <path clip-path="url(#p2b8c4f4b73)" d="M 190.955248 152.233016 
L 187.885581 153.918267 
L 188.295618 152.243971 
z
" style="stroke:#000000;"/>
    <path clip-path="url(#p2b8c4f4b73)" d="M 188.295618 152.243971 
L 190.712182 151.561027 
L 190.955248 152.233016 
z
" style="stroke:#000000;"/>
    <path clip-path="url(#p2b8c4f4b73)" d="M 187.885581 153.918267 
L 188.051057 151.572307 
L 188.295618 152.243971 
z
" style="stroke:#000000;"/>
    <path clip-path="url(#p2b8c4f4b73)" d="M 188.051057 202.685317 
L 187.885581 200.34075 
L 188.295618 202.011594 
z
" style="stroke:#000000;"/>
    <path clip-path="url(#p2b8c4f4b73)" d="M 190.712182 151.561027 
L 188.295618 152.243971 
L 188.051057 151.572307 
z
" style="stroke:#000000;"/>
    <path clip-path="url(#p2b8c4f4b73)" d="M 188.295618 202.011594 
L 190.547717 200.352534 
L 190.955248 202.024157 
z
" style="stroke:#000000;"/>
    <path clip-path="url(#p2b8c4f4b73)" d="M 188.051057 202.685317 
L 190.955248 202.024157 
L 190.712182 202.698205 
z
" style="stroke:#000000;"/>
    <path clip-path="url(#p2b8c4f4b73)" d="M 190.547717 200.352534 
L 188.295618 202.011594 
L 187.885581 200.34075 
z
" style="stroke:#000000;"/>
    <path clip-path="url(#p2b8c4f4b73)" d="M 190.712182 202.698205 
L 187.817931 203.192661 
L 188.051057 202.685317 
z
" style="stroke:#000000;"/>
    <path clip-path="url(#p2b8c4f4b73)" d="M 187.885581 153.918267 
L 190.955248 152.233016 
L 190.547717 153.908093 
z
" style="stroke:#000000;"/>
    <path clip-path="url(#p2b8c4f4b73)" d="M 190.547717 200.352534 
L 190.712182 202.698205 
L 190.955248 202.024157 
z
" style="stroke:#000000;"/>
    <path clip-path="url(#p2b8c4f4b73)" d="M 190.712182 151.561027 
L 190.547717 153.908093 
L 190.955248 152.233016 
z
" style="stroke:#000000;"/>
    <path clip-path="url(#p2b8c4f4b73)" d="M 188.051057 151.572307 
L 190.480481 151.0554 
L 190.712182 151.561027 
z
" style="stroke:#000000;"/>
    <path clip-path="url(#p2b8c4f4b73)" d="M 190.480481 151.0554 
L 188.051057 151.572307 
L 187.817931 151.066925 
z
" style="stroke:#000000;"/>
    <path clip-path="url(#p2b8c4f4b73)" d="M 187.487397 152.414063 
L 188.051057 151.572307 
L 187.885581 153.918267 
z
" style="stroke:#000000;"/>
    <path clip-path="url(#p2b8c4f4b73)" d="M 188.051057 202.685317 
L 187.487397 201.848306 
L 187.885581 200.34075 
z
" style="stroke:#000000;"/>
    <path clip-path="url(#p2b8c4f4b73)" d="M 188.051057 151.572307 
L 187.487397 152.414063 
L 187.817931 151.066925 
z
" style="stroke:#000000;"/>
    <path clip-path="url(#p2b8c4f4b73)" d="M 187.487397 201.848306 
L 188.051057 202.685317 
L 187.817931 203.192661 
z
" style="stroke:#000000;"/>
    <path clip-path="url(#p2b8c4f4b73)" d="M 187.817931 203.192661 
L 190.712182 202.698205 
L 190.480481 203.205797 
z
" style="stroke:#000000;"/>
    <path clip-path="url(#p2b8c4f4b73)" d="M 187.487397 152.414063 
L 190.480481 151.0554 
L 187.817931 151.066925 
z
" style="stroke:#000000;"/>
    <path clip-path="url(#p2b8c4f4b73)" d="M 187.332415 197.54923 
L 190.547717 200.352534 
L 187.885581 200.34075 
z
" style="stroke:#000000;"/>
    <path clip-path="url(#p2b8c4f4b73)" d="M 190.151967 201.860816 
L 190.712182 202.698205 
L 190.547717 200.352534 
z
" style="stroke:#000000;"/>
    <path clip-path="url(#p2b8c4f4b73)" d="M 190.712182 151.561027 
L 190.151967 152.403166 
L 190.547717 153.908093 
z
" style="stroke:#000000;"/>
    <path clip-path="url(#p2b8c4f4b73)" d="M 190.712182 202.698205 
L 190.151967 201.860816 
L 190.480481 203.205797 
z
" style="stroke:#000000;"/>
    <path clip-path="url(#p2b8c4f4b73)" d="M 190.151967 152.403166 
L 190.712182 151.561027 
L 190.480481 151.0554 
z
" style="stroke:#000000;"/>
    <path clip-path="url(#p2b8c4f4b73)" d="M 190.151967 201.860816 
L 187.817931 203.192661 
L 190.480481 203.205797 
z
" style="stroke:#000000;"/>
    <path clip-path="url(#p2b8c4f4b73)" d="M 189.997932 156.70558 
L 187.885581 153.918267 
L 190.547717 153.908093 
z
" style="stroke:#000000;"/>
    <path clip-path="url(#p2b8c4f4b73)" d="M 187.487397 152.414063 
L 187.885581 153.918267 
L 187.332415 156.714443 
z
" style="stroke:#000000;"/>
    <path clip-path="url(#p2b8c4f4b73)" d="M 187.885581 200.34075 
L 187.487397 201.848306 
L 187.332415 197.54923 
z
" style="stroke:#000000;"/>
    <path clip-path="url(#p2b8c4f4b73)" d="M 187.817931 203.192661 
L 190.151967 201.860816 
L 187.487397 201.848306 
z
" style="stroke:#000000;"/>
    <path clip-path="url(#p2b8c4f4b73)" d="M 190.480481 151.0554 
L 187.487397 152.414063 
L 190.151967 152.403166 
z
" style="stroke:#000000;"/>
    <path clip-path="url(#p2b8c4f4b73)" d="M 187.885581 153.918267 
L 189.997932 156.70558 
L 187.332415 156.714443 
z
" style="stroke:#000000;"/>
    <path clip-path="url(#p2b8c4f4b73)" d="M 190.547717 200.352534 
L 187.332415 197.54923 
L 189.997932 197.559709 
z
" style="stroke:#000000;"/>
    <path clip-path="url(#p2b8c4f4b73)" d="M 190.151967 201.860816 
L 190.547717 200.352534 
L 189.997932 197.559709 
z
" style="stroke:#000000;"/>
    <path clip-path="url(#p2b8c4f4b73)" d="M 190.547717 153.908093 
L 190.151967 152.403166 
L 189.997932 156.70558 
z
" style="stroke:#000000;"/>
    <path clip-path="url(#p2b8c4f4b73)" d="M 187.487397 152.414063 
L 187.332415 156.714443 
L 186.897715 155.389842 
z
" style="stroke:#000000;"/>
    <path clip-path="url(#p2b8c4f4b73)" d="M 187.332415 197.54923 
L 187.487397 201.848306 
L 186.897715 198.87749 
z
" style="stroke:#000000;"/>
    <path clip-path="url(#p2b8c4f4b73)" d="M 186.897715 155.389842 
L 190.151967 152.403166 
L 187.487397 152.414063 
z
" style="stroke:#000000;"/>
    <path clip-path="url(#p2b8c4f4b73)" d="M 189.565888 198.88861 
L 187.487397 201.848306 
L 190.151967 201.860816 
z
" style="stroke:#000000;"/>
    <path clip-path="url(#p2b8c4f4b73)" d="M 186.852462 194.522451 
L 189.997932 197.559709 
L 187.332415 197.54923 
z
" style="stroke:#000000;"/>
    <path clip-path="url(#p2b8c4f4b73)" d="M 190.151967 201.860816 
L 189.997932 197.559709 
L 189.565888 198.88861 
z
" style="stroke:#000000;"/>
    <path clip-path="url(#p2b8c4f4b73)" d="M 189.997932 156.70558 
L 190.151967 152.403166 
L 189.565888 155.380341 
z
" style="stroke:#000000;"/>
    <path clip-path="url(#p2b8c4f4b73)" d="M 189.520911 159.737825 
L 187.332415 156.714443 
L 189.997932 156.70558 
z
" style="stroke:#000000;"/>
    <path clip-path="url(#p2b8c4f4b73)" d="M 187.487397 201.848306 
L 189.565888 198.88861 
L 186.897715 198.87749 
z
" style="stroke:#000000;"/>
    <path clip-path="url(#p2b8c4f4b73)" d="M 186.897715 155.389842 
L 187.332415 156.714443 
L 186.852462 159.745262 
z
" style="stroke:#000000;"/>
    <path clip-path="url(#p2b8c4f4b73)" d="M 187.332415 197.54923 
L 186.897715 198.87749 
L 186.852462 194.522451 
z
" style="stroke:#000000;"/>
    <path clip-path="url(#p2b8c4f4b73)" d="M 190.151967 152.403166 
L 186.897715 155.389842 
L 189.565888 155.380341 
z
" style="stroke:#000000;"/>
    <path clip-path="url(#p2b8c4f4b73)" d="M 187.332415 156.714443 
L 189.520911 159.737825 
L 186.852462 159.745262 
z
" style="stroke:#000000;"/>
    <path clip-path="url(#p2b8c4f4b73)" d="M 189.997932 197.559709 
L 186.852462 194.522451 
L 189.520911 194.531507 
z
" style="stroke:#000000;"/>
    <path clip-path="url(#p2b8c4f4b73)" d="M 189.565888 198.88861 
L 189.997932 197.559709 
L 189.520911 194.531507 
z
" style="stroke:#000000;"/>
    <path clip-path="url(#p2b8c4f4b73)" d="M 189.997932 156.70558 
L 189.565888 155.380341 
L 189.520911 159.737825 
z
" style="stroke:#000000;"/>
    <path clip-path="url(#p2b8c4f4b73)" d="M 186.897715 155.389842 
L 186.852462 159.745262 
L 186.385991 158.616036 
z
" style="stroke:#000000;"/>
    <path clip-path="url(#p2b8c4f4b73)" d="M 186.852462 194.522451 
L 186.897715 198.87749 
L 186.385991 195.655604 
z
" style="stroke:#000000;"/>
    <path clip-path="url(#p2b8c4f4b73)" d="M 186.385991 158.616036 
L 189.565888 155.380341 
L 186.897715 155.389842 
z
" style="stroke:#000000;"/>
    <path clip-path="url(#p2b8c4f4b73)" d="M 186.451522 191.294685 
L 189.520911 194.531507 
L 186.852462 194.522451 
z
" style="stroke:#000000;"/>
    <path clip-path="url(#p2b8c4f4b73)" d="M 189.05729 195.665208 
L 186.897715 198.87749 
L 189.565888 198.88861 
z
" style="stroke:#000000;"/>
    <path clip-path="url(#p2b8c4f4b73)" d="M 189.12242 162.970494 
L 186.852462 159.745262 
L 189.520911 159.737825 
z
" style="stroke:#000000;"/>
    <path clip-path="url(#p2b8c4f4b73)" d="M 186.385991 158.616036 
L 186.852462 159.745262 
L 186.451522 162.976404 
z
" style="stroke:#000000;"/>
    <path clip-path="url(#p2b8c4f4b73)" d="M 186.852462 194.522451 
L 186.385991 195.655604 
L 186.451522 191.294685 
z
" style="stroke:#000000;"/>
    <path clip-path="url(#p2b8c4f4b73)" d="M 186.852462 159.745262 
L 189.12242 162.970494 
L 186.451522 162.976404 
z
" style="stroke:#000000;"/>
    <path clip-path="url(#p2b8c4f4b73)" d="M 189.565888 198.88861 
L 189.520911 194.531507 
L 189.05729 195.665208 
z
" style="stroke:#000000;"/>
    <path clip-path="url(#p2b8c4f4b73)" d="M 189.520911 159.737825 
L 189.565888 155.380341 
L 189.05729 158.608055 
z
" style="stroke:#000000;"/>
    <path clip-path="url(#p2b8c4f4b73)" d="M 186.897715 198.87749 
L 189.05729 195.665208 
L 186.385991 195.655604 
z
" style="stroke:#000000;"/>
    <path clip-path="url(#p2b8c4f4b73)" d="M 189.520911 194.531507 
L 186.451522 191.294685 
L 189.12242 191.302217 
z
" style="stroke:#000000;"/>
    <path clip-path="url(#p2b8c4f4b73)" d="M 189.565888 155.380341 
L 186.385991 158.616036 
L 189.05729 158.608055 
z
" style="stroke:#000000;"/>
    <path clip-path="url(#p2b8c4f4b73)" d="M 189.05729 195.665208 
L 189.520911 194.531507 
L 189.12242 191.302217 
z
" style="stroke:#000000;"/>
    <path clip-path="url(#p2b8c4f4b73)" d="M 189.520911 159.737825 
L 189.05729 158.608055 
L 189.12242 162.970494 
z
" style="stroke:#000000;"/>
    <path clip-path="url(#p2b8c4f4b73)" d="M 186.134469 187.90265 
L 189.12242 191.302217 
L 186.451522 191.294685 
z
" style="stroke:#000000;"/>
    <path clip-path="url(#p2b8c4f4b73)" d="M 186.451522 162.976404 
L 185.958446 162.056429 
L 186.385991 158.616036 
z
" style="stroke:#000000;"/>
    <path clip-path="url(#p2b8c4f4b73)" d="M 185.958446 192.218811 
L 186.451522 191.294685 
L 186.385991 195.655604 
z
" style="stroke:#000000;"/>
    <path clip-path="url(#p2b8c4f4b73)" d="M 188.807305 166.366805 
L 186.451522 162.976404 
L 189.12242 162.970494 
z
" style="stroke:#000000;"/>
    <path clip-path="url(#p2b8c4f4b73)" d="M 185.958446 162.056429 
L 186.451522 162.976404 
L 186.134469 166.371108 
z
" style="stroke:#000000;"/>
    <path clip-path="url(#p2b8c4f4b73)" d="M 186.451522 191.294685 
L 185.958446 192.218811 
L 186.134469 187.90265 
z
" style="stroke:#000000;"/>
    <path clip-path="url(#p2b8c4f4b73)" d="M 185.958446 162.056429 
L 189.05729 158.608055 
L 186.385991 158.616036 
z
" style="stroke:#000000;"/>
    <path clip-path="url(#p2b8c4f4b73)" d="M 186.451522 162.976404 
L 188.807305 166.366805 
L 186.134469 166.371108 
z
" style="stroke:#000000;"/>
    <path clip-path="url(#p2b8c4f4b73)" d="M 188.632356 192.226792 
L 186.385991 195.655604 
L 189.05729 195.665208 
z
" style="stroke:#000000;"/>
    <path clip-path="url(#p2b8c4f4b73)" d="M 189.12242 191.302217 
L 186.134469 187.90265 
L 188.807305 187.908577 
z
" style="stroke:#000000;"/>
    <path clip-path="url(#p2b8c4f4b73)" d="M 189.12242 191.302217 
L 188.632356 192.226792 
L 189.05729 195.665208 
z
" style="stroke:#000000;"/>
    <path clip-path="url(#p2b8c4f4b73)" d="M 188.632356 162.050074 
L 189.12242 162.970494 
L 189.05729 158.608055 
z
" style="stroke:#000000;"/>
    <path clip-path="url(#p2b8c4f4b73)" d="M 186.385991 195.655604 
L 188.632356 192.226792 
L 185.958446 192.218811 
z
" style="stroke:#000000;"/>
    <path clip-path="url(#p2b8c4f4b73)" d="M 185.905181 184.385312 
L 188.807305 187.908577 
L 186.134469 187.90265 
z
" style="stroke:#000000;"/>
    <path clip-path="url(#p2b8c4f4b73)" d="M 188.632356 192.226792 
L 189.12242 191.302217 
L 188.807305 187.908577 
z
" style="stroke:#000000;"/>
    <path clip-path="url(#p2b8c4f4b73)" d="M 189.12242 162.970494 
L 188.632356 162.050074 
L 188.807305 166.366805 
z
" style="stroke:#000000;"/>
    <path clip-path="url(#p2b8c4f4b73)" d="M 189.05729 158.608055 
L 185.958446 162.056429 
L 188.632356 162.050074 
z
" style="stroke:#000000;"/>
    <path clip-path="url(#p2b8c4f4b73)" d="M 188.579417 169.887744 
L 186.134469 166.371108 
L 188.807305 166.366805 
z
" style="stroke:#000000;"/>
    <path clip-path="url(#p2b8c4f4b73)" d="M 186.134469 166.371108 
L 188.579417 169.887744 
L 185.905181 169.890376 
z
" style="stroke:#000000;"/>
    <path clip-path="url(#p2b8c4f4b73)" d="M 186.134469 166.371108 
L 185.620322 165.671607 
L 185.958446 162.056429 
z
" style="stroke:#000000;"/>
    <path clip-path="url(#p2b8c4f4b73)" d="M 185.620322 188.606478 
L 186.134469 187.90265 
L 185.958446 192.218811 
z
" style="stroke:#000000;"/>
    <path clip-path="url(#p2b8c4f4b73)" d="M 185.620322 165.671607 
L 186.134469 166.371108 
L 185.905181 169.890376 
z
" style="stroke:#000000;"/>
    <path clip-path="url(#p2b8c4f4b73)" d="M 186.134469 187.90265 
L 185.620322 188.606478 
L 185.905181 184.385312 
z
" style="stroke:#000000;"/>
    <path clip-path="url(#p2b8c4f4b73)" d="M 188.807305 187.908577 
L 185.905181 184.385312 
L 188.579417 184.38957 
z
" style="stroke:#000000;"/>
    <path clip-path="url(#p2b8c4f4b73)" d="M 185.766472 180.783371 
L 188.579417 184.38957 
L 185.905181 184.385312 
z
" style="stroke:#000000;"/>
    <path clip-path="url(#p2b8c4f4b73)" d="M 185.620322 165.671607 
L 188.632356 162.050074 
L 185.958446 162.056429 
z
" style="stroke:#000000;"/>
    <path clip-path="url(#p2b8c4f4b73)" d="M 185.905181 169.890376 
L 188.441555 173.492565 
L 185.766472 173.493485 
z
" style="stroke:#000000;"/>
    <path clip-path="url(#p2b8c4f4b73)" d="M 188.441555 173.492565 
L 185.905181 169.890376 
L 188.579417 169.887744 
z
" style="stroke:#000000;"/>
    <path clip-path="url(#p2b8c4f4b73)" d="M 188.296297 188.612747 
L 185.958446 192.218811 
L 188.632356 192.226792 
z
" style="stroke:#000000;"/>
    <path clip-path="url(#p2b8c4f4b73)" d="M 188.807305 187.908577 
L 188.296297 188.612747 
L 188.632356 192.226792 
z
" style="stroke:#000000;"/>
    <path clip-path="url(#p2b8c4f4b73)" d="M 188.296297 165.666967 
L 188.807305 166.366805 
L 188.632356 162.050074 
z
" style="stroke:#000000;"/>
    <path clip-path="url(#p2b8c4f4b73)" d="M 188.296297 188.612747 
L 188.807305 187.908577 
L 188.579417 184.38957 
z
" style="stroke:#000000;"/>
    <path clip-path="url(#p2b8c4f4b73)" d="M 188.807305 166.366805 
L 188.296297 165.666967 
L 188.579417 169.887744 
z
" style="stroke:#000000;"/>
    <path clip-path="url(#p2b8c4f4b73)" d="M 185.720043 177.138623 
L 188.441555 180.785918 
L 185.766472 180.783371 
z
" style="stroke:#000000;"/>
    <path clip-path="url(#p2b8c4f4b73)" d="M 188.579417 184.38957 
L 185.766472 180.783371 
L 188.441555 180.785918 
z
" style="stroke:#000000;"/>
    <path clip-path="url(#p2b8c4f4b73)" d="M 185.37577 169.419953 
L 185.905181 169.890376 
L 185.766472 173.493485 
z
" style="stroke:#000000;"/>
    <path clip-path="url(#p2b8c4f4b73)" d="M 185.905181 184.385312 
L 185.37577 184.860191 
L 185.766472 180.783371 
z
" style="stroke:#000000;"/>
    <path clip-path="url(#p2b8c4f4b73)" d="M 185.766472 173.493485 
L 188.395409 177.139437 
L 185.720043 177.138623 
z
" style="stroke:#000000;"/>
    <path clip-path="url(#p2b8c4f4b73)" d="M 185.958446 192.218811 
L 188.296297 188.612747 
L 185.620322 188.606478 
z
" style="stroke:#000000;"/>
    <path clip-path="url(#p2b8c4f4b73)" d="M 185.905181 169.890376 
L 185.37577 169.419953 
L 185.620322 165.671607 
z
" style="stroke:#000000;"/>
    <path clip-path="url(#p2b8c4f4b73)" d="M 185.37577 184.860191 
L 185.905181 184.385312 
L 185.620322 188.606478 
z
" style="stroke:#000000;"/>
    <path clip-path="url(#p2b8c4f4b73)" d="M 188.395409 177.139437 
L 185.766472 173.493485 
L 188.441555 173.492565 
z
" style="stroke:#000000;"/>
    <path clip-path="url(#p2b8c4f4b73)" d="M 188.441555 180.785918 
L 185.720043 177.138623 
L 188.395409 177.139437 
z
" style="stroke:#000000;"/>
    <path clip-path="url(#p2b8c4f4b73)" d="M 188.632356 162.050074 
L 185.620322 165.671607 
L 188.296297 165.666967 
z
" style="stroke:#000000;"/>
    <path clip-path="url(#p2b8c4f4b73)" d="M 185.766472 180.783371 
L 185.227816 181.023427 
L 185.720043 177.138623 
z
" style="stroke:#000000;"/>
    <path clip-path="url(#p2b8c4f4b73)" d="M 185.227816 173.257963 
L 185.766472 173.493485 
L 185.720043 177.138623 
z
" style="stroke:#000000;"/>
    <path clip-path="url(#p2b8c4f4b73)" d="M 188.053238 184.864681 
L 188.579417 184.38957 
L 188.441555 180.785918 
z
" style="stroke:#000000;"/>
    <path clip-path="url(#p2b8c4f4b73)" d="M 188.579417 169.887744 
L 188.053238 169.417094 
L 188.441555 173.492565 
z
" style="stroke:#000000;"/>
    <path clip-path="url(#p2b8c4f4b73)" d="M 185.37577 169.419953 
L 188.296297 165.666967 
L 185.620322 165.671607 
z
" style="stroke:#000000;"/>
    <path clip-path="url(#p2b8c4f4b73)" d="M 185.766472 173.493485 
L 185.227816 173.257963 
L 185.37577 169.419953 
z
" style="stroke:#000000;"/>
    <path clip-path="url(#p2b8c4f4b73)" d="M 185.227816 181.023427 
L 185.766472 180.783371 
L 185.37577 184.860191 
z
" style="stroke:#000000;"/>
    <path clip-path="url(#p2b8c4f4b73)" d="M 188.579417 184.38957 
L 188.053238 184.864681 
L 188.296297 188.612747 
z
" style="stroke:#000000;"/>
    <path clip-path="url(#p2b8c4f4b73)" d="M 188.053238 169.417094 
L 188.579417 169.887744 
L 188.296297 165.666967 
z
" style="stroke:#000000;"/>
    <path clip-path="url(#p2b8c4f4b73)" d="M 188.053238 184.864681 
L 185.620322 188.606478 
L 188.296297 188.612747 
z
" style="stroke:#000000;"/>
    <path clip-path="url(#p2b8c4f4b73)" d="M 185.620322 188.606478 
L 188.053238 184.864681 
L 185.37577 184.860191 
z
" style="stroke:#000000;"/>
    <path clip-path="url(#p2b8c4f4b73)" d="M 188.441555 173.492565 
L 187.906188 173.25693 
L 188.395409 177.139437 
z
" style="stroke:#000000;"/>
    <path clip-path="url(#p2b8c4f4b73)" d="M 187.906188 181.026091 
L 188.441555 180.785918 
L 188.395409 177.139437 
z
" style="stroke:#000000;"/>
    <path clip-path="url(#p2b8c4f4b73)" d="M 185.720043 177.138623 
L 185.178295 177.140903 
L 185.227816 173.257963 
z
" style="stroke:#000000;"/>
    <path clip-path="url(#p2b8c4f4b73)" d="M 185.178295 177.140903 
L 185.720043 177.138623 
L 185.227816 181.023427 
z
" style="stroke:#000000;"/>
    <path clip-path="url(#p2b8c4f4b73)" d="M 188.296297 165.666967 
L 185.37577 169.419953 
L 188.053238 169.417094 
z
" style="stroke:#000000;"/>
    <path clip-path="url(#p2b8c4f4b73)" d="M 188.441555 180.785918 
L 187.906188 181.026091 
L 188.053238 184.864681 
z
" style="stroke:#000000;"/>
    <path clip-path="url(#p2b8c4f4b73)" d="M 187.906188 173.25693 
L 188.441555 173.492565 
L 188.053238 169.417094 
z
" style="stroke:#000000;"/>
    <path clip-path="url(#p2b8c4f4b73)" d="M 185.227816 173.257963 
L 188.053238 169.417094 
L 185.37577 169.419953 
z
" style="stroke:#000000;"/>
    <path clip-path="url(#p2b8c4f4b73)" d="M 185.810194 153.399299 
L 187.136811 149.591899 
L 188.48501 153.388826 
z
" style="stroke:#000000;"/>
    <path clip-path="url(#p2b8c4f4b73)" d="M 187.136811 164.485344 
L 185.810194 153.399299 
L 188.48501 153.388826 
z
" style="stroke:#000000;"/>
    <path clip-path="url(#p2b8c4f4b73)" d="M 185.37577 184.860191 
L 187.906188 181.026091 
L 185.227816 181.023427 
z
" style="stroke:#000000;"/>
    <path clip-path="url(#p2b8c4f4b73)" d="M 185.359038 153.839021 
L 184.453714 149.604217 
L 185.810194 153.399299 
z
" style="stroke:#000000;"/>
    <path clip-path="url(#p2b8c4f4b73)" d="M 185.810194 153.399299 
L 184.453714 160.768975 
L 185.359038 153.839021 
z
" style="stroke:#000000;"/>
    <path clip-path="url(#p2b8c4f4b73)" d="M 187.906188 181.026091 
L 185.37577 184.860191 
L 188.053238 184.864681 
z
" style="stroke:#000000;"/>
    <path clip-path="url(#p2b8c4f4b73)" d="M 188.395409 177.139437 
L 187.856969 177.14172 
L 187.906188 181.026091 
z
" style="stroke:#000000;"/>
    <path clip-path="url(#p2b8c4f4b73)" d="M 187.856969 177.14172 
L 188.395409 177.139437 
L 187.906188 173.25693 
z
" style="stroke:#000000;"/>
    <path clip-path="url(#p2b8c4f4b73)" d="M 188.053238 169.417094 
L 185.227816 173.257963 
L 187.906188 173.25693 
z
" style="stroke:#000000;"/>
    <path clip-path="url(#p2b8c4f4b73)" d="M 185.178295 177.140903 
L 187.906188 173.25693 
L 185.227816 173.257963 
z
" style="stroke:#000000;"/>
    <path clip-path="url(#p2b8c4f4b73)" d="M 185.227816 181.023427 
L 187.856969 177.14172 
L 185.178295 177.140903 
z
" style="stroke:#000000;"/>
    <path clip-path="url(#p2b8c4f4b73)" d="M 187.856969 177.14172 
L 185.227816 181.023427 
L 187.906188 181.026091 
z
" style="stroke:#000000;"/>
    <path clip-path="url(#p2b8c4f4b73)" d="M 187.906188 173.25693 
L 185.178295 177.140903 
L 187.856969 177.14172 
z
" style="stroke:#000000;"/>
    <path clip-path="url(#p2b8c4f4b73)" d="M 187.136811 160.761983 
L 188.48501 153.388826 
L 188.036608 153.828745 
z
" style="stroke:#000000;"/>
    <path clip-path="url(#p2b8c4f4b73)" d="M 187.136811 149.591899 
L 188.036608 153.828745 
L 188.48501 153.388826 
z
" style="stroke:#000000;"/>
    <path clip-path="url(#p2b8c4f4b73)" d="M 188.036608 153.828745 
L 184.453714 151.46501 
L 185.359038 153.839021 
z
" style="stroke:#000000;"/>
    <path clip-path="url(#p2b8c4f4b73)" d="M 184.453714 160.768975 
L 188.036608 153.828745 
L 185.359038 153.839021 
z
" style="stroke:#000000;"/>
    <path clip-path="url(#p2b8c4f4b73)" d="M 184.453714 160.768975 
L 185.810194 153.399299 
L 184.453714 164.490561 
z
" style="stroke:#000000;"/>
    <path clip-path="url(#p2b8c4f4b73)" d="M 187.136811 149.591899 
L 185.810194 153.399299 
L 184.453714 149.604217 
z
" style="stroke:#000000;"/>
    <path clip-path="url(#p2b8c4f4b73)" d="M 185.810194 153.399299 
L 187.136811 164.485344 
L 184.453714 164.490561 
z
" style="stroke:#000000;"/>
    <path clip-path="url(#p2b8c4f4b73)" d="M 184.453714 149.604217 
L 185.359038 153.839021 
L 184.453714 151.46501 
z
" style="stroke:#000000;"/>
    <path clip-path="url(#p2b8c4f4b73)" d="M 188.48501 153.388826 
L 187.136811 160.761983 
L 187.136811 164.485344 
z
" style="stroke:#000000;"/>
    <path clip-path="url(#p2b8c4f4b73)" d="M 184.453714 151.46501 
L 188.036608 153.828745 
L 187.136811 151.45358 
z
" style="stroke:#000000;"/>
    <path clip-path="url(#p2b8c4f4b73)" d="M 188.036608 153.828745 
L 184.453714 160.768975 
L 187.136811 160.761983 
z
" style="stroke:#000000;"/>
    <path clip-path="url(#p2b8c4f4b73)" d="M 188.036608 153.828745 
L 187.136811 149.591899 
L 187.136811 151.45358 
z
" style="stroke:#000000;"/>
    <path clip-path="url(#p2b8c4f4b73)" d="M 184.453714 149.604217 
L 184.453714 151.46501 
L 183.544354 153.742768 
z
" style="stroke:#000000;"/>
    <path clip-path="url(#p2b8c4f4b73)" d="M 187.136811 151.45358 
L 183.544354 153.742768 
L 184.453714 151.46501 
z
" style="stroke:#000000;"/>
    <path clip-path="url(#p2b8c4f4b73)" d="M 183.544354 153.742768 
L 187.136811 160.761983 
L 184.453714 160.768975 
z
" style="stroke:#000000;"/>
    <path clip-path="url(#p2b8c4f4b73)" d="M 184.453714 160.768975 
L 184.453714 164.490561 
L 183.088152 153.251815 
z
" style="stroke:#000000;"/>
    <path clip-path="url(#p2b8c4f4b73)" d="M 187.136811 149.591899 
L 186.233001 153.732401 
L 187.136811 151.45358 
z
" style="stroke:#000000;"/>
    <path clip-path="url(#p2b8c4f4b73)" d="M 184.453714 149.604217 
L 185.779582 153.241202 
L 187.136811 149.591899 
z
" style="stroke:#000000;"/>
    <path clip-path="url(#p2b8c4f4b73)" d="M 185.779582 153.241202 
L 184.453714 164.490561 
L 187.136811 164.485344 
z
" style="stroke:#000000;"/>
    <path clip-path="url(#p2b8c4f4b73)" d="M 187.136811 160.761983 
L 185.779582 153.241202 
L 187.136811 164.485344 
z
" style="stroke:#000000;"/>
    <path clip-path="url(#p2b8c4f4b73)" d="M 183.544354 153.742768 
L 187.136811 151.45358 
L 186.233001 153.732401 
z
" style="stroke:#000000;"/>
    <path clip-path="url(#p2b8c4f4b73)" d="M 187.136811 160.761983 
L 183.544354 153.742768 
L 186.233001 153.732401 
z
" style="stroke:#000000;"/>
    <path clip-path="url(#p2b8c4f4b73)" d="M 184.453714 149.604217 
L 183.544354 153.742768 
L 183.088152 153.251815 
z
" style="stroke:#000000;"/>
    <path clip-path="url(#p2b8c4f4b73)" d="M 184.453714 160.768975 
L 183.088152 153.251815 
L 183.544354 153.742768 
z
" style="stroke:#000000;"/>
    <path clip-path="url(#p2b8c4f4b73)" d="M 183.676663 173.249699 
L 186.414085 177.147836 
L 183.72655 177.147014 
z
" style="stroke:#000000;"/>
    <path clip-path="url(#p2b8c4f4b73)" d="M 183.72655 177.147014 
L 186.364502 181.047433 
L 183.676663 181.044748 
z
" style="stroke:#000000;"/>
    <path clip-path="url(#p2b8c4f4b73)" d="M 186.364502 181.047433 
L 183.72655 177.147014 
L 186.414085 177.147836 
z
" style="stroke:#000000;"/>
    <path clip-path="url(#p2b8c4f4b73)" d="M 186.414085 177.147836 
L 183.676663 173.249699 
L 186.364502 173.248659 
z
" style="stroke:#000000;"/>
    <path clip-path="url(#p2b8c4f4b73)" d="M 183.527471 169.392673 
L 186.364502 173.248659 
L 183.676663 173.249699 
z
" style="stroke:#000000;"/>
    <path clip-path="url(#p2b8c4f4b73)" d="M 183.72655 177.147014 
L 183.179473 177.149317 
L 183.676663 173.249699 
z
" style="stroke:#000000;"/>
    <path clip-path="url(#p2b8c4f4b73)" d="M 183.179473 177.149317 
L 183.72655 177.147014 
L 183.676663 181.044748 
z
" style="stroke:#000000;"/>
    <path clip-path="url(#p2b8c4f4b73)" d="M 183.676663 181.044748 
L 186.21622 184.907561 
L 183.527471 184.903031 
z
" style="stroke:#000000;"/>
    <path clip-path="url(#p2b8c4f4b73)" d="M 185.779582 153.241202 
L 187.136811 160.761983 
L 186.233001 153.732401 
z
" style="stroke:#000000;"/>
    <path clip-path="url(#p2b8c4f4b73)" d="M 186.233001 153.732401 
L 187.136811 149.591899 
L 185.779582 153.241202 
z
" style="stroke:#000000;"/>
    <path clip-path="url(#p2b8c4f4b73)" d="M 186.21622 184.907561 
L 183.676663 181.044748 
L 186.364502 181.047433 
z
" style="stroke:#000000;"/>
    <path clip-path="url(#p2b8c4f4b73)" d="M 185.779582 153.241202 
L 184.453714 149.604217 
L 183.088152 153.251815 
z
" style="stroke:#000000;"/>
    <path clip-path="url(#p2b8c4f4b73)" d="M 184.453714 164.490561 
L 185.779582 153.241202 
L 183.088152 153.251815 
z
" style="stroke:#000000;"/>
    <path clip-path="url(#p2b8c4f4b73)" d="M 186.364502 173.248659 
L 183.527471 169.392673 
L 186.21622 169.389788 
z
" style="stroke:#000000;"/>
    <path clip-path="url(#p2b8c4f4b73)" d="M 183.676663 173.249699 
L 183.132451 173.480959 
L 183.527471 169.392673 
z
" style="stroke:#000000;"/>
    <path clip-path="url(#p2b8c4f4b73)" d="M 183.132451 180.81807 
L 183.676663 181.044748 
L 183.527471 184.903031 
z
" style="stroke:#000000;"/>
    <path clip-path="url(#p2b8c4f4b73)" d="M 183.280395 165.615487 
L 186.21622 169.389788 
L 183.527471 169.392673 
z
" style="stroke:#000000;"/>
    <path clip-path="url(#p2b8c4f4b73)" d="M 186.414085 177.147836 
L 185.870346 177.150141 
L 186.364502 181.047433 
z
" style="stroke:#000000;"/>
    <path clip-path="url(#p2b8c4f4b73)" d="M 185.870346 177.150141 
L 186.414085 177.147836 
L 186.364502 173.248659 
z
" style="stroke:#000000;"/>
    <path clip-path="url(#p2b8c4f4b73)" d="M 183.676663 181.044748 
L 183.132451 180.81807 
L 183.179473 177.149317 
z
" style="stroke:#000000;"/>
    <path clip-path="url(#p2b8c4f4b73)" d="M 183.132451 173.480959 
L 183.676663 173.249699 
L 183.179473 177.149317 
z
" style="stroke:#000000;"/>
    <path clip-path="url(#p2b8c4f4b73)" d="M 185.970652 188.688638 
L 183.527471 184.903031 
L 186.21622 184.907561 
z
" style="stroke:#000000;"/>
    <path clip-path="url(#p2b8c4f4b73)" d="M 183.527471 184.903031 
L 185.970652 188.688638 
L 183.280395 188.682297 
z
" style="stroke:#000000;"/>
    <path clip-path="url(#p2b8c4f4b73)" d="M 183.527471 169.392673 
L 182.991843 169.850692 
L 183.280395 165.615487 
z
" style="stroke:#000000;"/>
    <path clip-path="url(#p2b8c4f4b73)" d="M 182.991843 184.449521 
L 183.527471 184.903031 
L 183.280395 188.682297 
z
" style="stroke:#000000;"/>
    <path clip-path="url(#p2b8c4f4b73)" d="M 186.364502 181.047433 
L 185.823611 180.82065 
L 186.21622 184.907561 
z
" style="stroke:#000000;"/>
    <path clip-path="url(#p2b8c4f4b73)" d="M 185.823611 173.480028 
L 186.364502 173.248659 
L 186.21622 169.389788 
z
" style="stroke:#000000;"/>
    <path clip-path="url(#p2b8c4f4b73)" d="M 186.21622 169.389788 
L 183.280395 165.615487 
L 185.970652 165.610793 
z
" style="stroke:#000000;"/>
    <path clip-path="url(#p2b8c4f4b73)" d="M 182.991843 169.850692 
L 183.527471 169.392673 
L 183.132451 173.480959 
z
" style="stroke:#000000;"/>
    <path clip-path="url(#p2b8c4f4b73)" d="M 183.527471 184.903031 
L 182.991843 184.449521 
L 183.132451 180.81807 
z
" style="stroke:#000000;"/>
    <path clip-path="url(#p2b8c4f4b73)" d="M 186.364502 173.248659 
L 185.823611 173.480028 
L 185.870346 177.150141 
z
" style="stroke:#000000;"/>
    <path clip-path="url(#p2b8c4f4b73)" d="M 185.823611 180.82065 
L 186.364502 181.047433 
L 185.870346 177.150141 
z
" style="stroke:#000000;"/>
    <path clip-path="url(#p2b8c4f4b73)" d="M 182.937798 161.957051 
L 185.970652 165.610793 
L 183.280395 165.615487 
z
" style="stroke:#000000;"/>
    <path clip-path="url(#p2b8c4f4b73)" d="M 183.132451 180.81807 
L 185.870346 177.150141 
L 183.179473 177.149317 
z
" style="stroke:#000000;"/>
    <path clip-path="url(#p2b8c4f4b73)" d="M 183.179473 177.149317 
L 185.823611 173.480028 
L 183.132451 173.480959 
z
" style="stroke:#000000;"/>
    <path clip-path="url(#p2b8c4f4b73)" d="M 186.21622 184.907561 
L 185.683861 184.45384 
L 185.970652 188.688638 
z
" style="stroke:#000000;"/>
    <path clip-path="url(#p2b8c4f4b73)" d="M 185.683861 169.848022 
L 186.21622 169.389788 
L 185.970652 165.610793 
z
" style="stroke:#000000;"/>
    <path clip-path="url(#p2b8c4f4b73)" d="M 185.630145 192.351716 
L 183.280395 188.682297 
L 185.970652 188.688638 
z
" style="stroke:#000000;"/>
    <path clip-path="url(#p2b8c4f4b73)" d="M 185.823611 173.480028 
L 183.179473 177.149317 
L 185.870346 177.150141 
z
" style="stroke:#000000;"/>
    <path clip-path="url(#p2b8c4f4b73)" d="M 185.683861 184.45384 
L 186.21622 184.907561 
L 185.823611 180.82065 
z
" style="stroke:#000000;"/>
    <path clip-path="url(#p2b8c4f4b73)" d="M 186.21622 169.389788 
L 185.683861 169.848022 
L 185.823611 173.480028 
z
" style="stroke:#000000;"/>
    <path clip-path="url(#p2b8c4f4b73)" d="M 182.991843 184.449521 
L 185.823611 180.82065 
L 183.132451 180.81807 
z
" style="stroke:#000000;"/>
    <path clip-path="url(#p2b8c4f4b73)" d="M 185.870346 177.150141 
L 183.132451 180.81807 
L 185.823611 180.82065 
z
" style="stroke:#000000;"/>
    <path clip-path="url(#p2b8c4f4b73)" d="M 182.758993 166.29586 
L 183.280395 165.615487 
L 182.991843 169.850692 
z
" style="stroke:#000000;"/>
    <path clip-path="url(#p2b8c4f4b73)" d="M 183.280395 188.682297 
L 182.758993 188.006313 
L 182.991843 184.449521 
z
" style="stroke:#000000;"/>
    <path clip-path="url(#p2b8c4f4b73)" d="M 183.280395 165.615487 
L 182.758993 166.29586 
L 182.937798 161.957051 
z
" style="stroke:#000000;"/>
    <path clip-path="url(#p2b8c4f4b73)" d="M 182.758993 188.006313 
L 183.280395 188.682297 
L 182.937798 192.343617 
z
" style="stroke:#000000;"/>
    <path clip-path="url(#p2b8c4f4b73)" d="M 183.280395 188.682297 
L 185.630145 192.351716 
L 182.937798 192.343617 
z
" style="stroke:#000000;"/>
    <path clip-path="url(#p2b8c4f4b73)" d="M 183.132451 173.480959 
L 185.683861 169.848022 
L 182.991843 169.850692 
z
" style="stroke:#000000;"/>
    <path clip-path="url(#p2b8c4f4b73)" d="M 185.683861 169.848022 
L 183.132451 173.480959 
L 185.823611 173.480028 
z
" style="stroke:#000000;"/>
    <path clip-path="url(#p2b8c4f4b73)" d="M 185.970652 165.610793 
L 182.937798 161.957051 
L 185.630145 161.950601 
z
" style="stroke:#000000;"/>
    <path clip-path="url(#p2b8c4f4b73)" d="M 185.823611 180.82065 
L 182.991843 184.449521 
L 185.683861 184.45384 
z
" style="stroke:#000000;"/>
    <path clip-path="url(#p2b8c4f4b73)" d="M 182.758993 188.006313 
L 185.683861 184.45384 
L 182.991843 184.449521 
z
" style="stroke:#000000;"/>
    <path clip-path="url(#p2b8c4f4b73)" d="M 185.452431 188.012339 
L 185.970652 188.688638 
L 185.683861 184.45384 
z
" style="stroke:#000000;"/>
    <path clip-path="url(#p2b8c4f4b73)" d="M 185.970652 165.610793 
L 185.452431 166.291486 
L 185.683861 169.848022 
z
" style="stroke:#000000;"/>
    <path clip-path="url(#p2b8c4f4b73)" d="M 185.970652 188.688638 
L 185.452431 188.012339 
L 185.630145 192.351716 
z
" style="stroke:#000000;"/>
    <path clip-path="url(#p2b8c4f4b73)" d="M 185.452431 166.291486 
L 185.970652 165.610793 
L 185.630145 161.950601 
z
" style="stroke:#000000;"/>
    <path clip-path="url(#p2b8c4f4b73)" d="M 185.452431 166.291486 
L 182.991843 169.850692 
L 185.683861 169.848022 
z
" style="stroke:#000000;"/>
    <path clip-path="url(#p2b8c4f4b73)" d="M 182.991843 169.850692 
L 185.452431 166.291486 
L 182.758993 166.29586 
z
" style="stroke:#000000;"/>
    <path clip-path="url(#p2b8c4f4b73)" d="M 182.502956 158.455246 
L 185.630145 161.950601 
L 182.937798 161.957051 
z
" style="stroke:#000000;"/>
    <path clip-path="url(#p2b8c4f4b73)" d="M 182.436144 162.85324 
L 182.937798 161.957051 
L 182.758993 166.29586 
z
" style="stroke:#000000;"/>
    <path clip-path="url(#p2b8c4f4b73)" d="M 182.937798 192.343617 
L 182.436144 191.45165 
L 182.758993 188.006313 
z
" style="stroke:#000000;"/>
    <path clip-path="url(#p2b8c4f4b73)" d="M 185.683861 184.45384 
L 182.758993 188.006313 
L 185.452431 188.012339 
z
" style="stroke:#000000;"/>
    <path clip-path="url(#p2b8c4f4b73)" d="M 185.197955 195.858871 
L 182.937798 192.343617 
L 185.630145 192.351716 
z
" style="stroke:#000000;"/>
    <path clip-path="url(#p2b8c4f4b73)" d="M 182.937798 161.957051 
L 182.436144 162.85324 
L 182.502956 158.455246 
z
" style="stroke:#000000;"/>
    <path clip-path="url(#p2b8c4f4b73)" d="M 182.436144 191.45165 
L 182.937798 192.343617 
L 182.502956 195.849082 
z
" style="stroke:#000000;"/>
    <path clip-path="url(#p2b8c4f4b73)" d="M 182.436144 191.45165 
L 185.452431 188.012339 
L 182.758993 188.006313 
z
" style="stroke:#000000;"/>
    <path clip-path="url(#p2b8c4f4b73)" d="M 182.937798 192.343617 
L 185.197955 195.858871 
L 182.502956 195.849082 
z
" style="stroke:#000000;"/>
    <path clip-path="url(#p2b8c4f4b73)" d="M 185.131551 162.847212 
L 182.758993 166.29586 
L 185.452431 166.291486 
z
" style="stroke:#000000;"/>
    <path clip-path="url(#p2b8c4f4b73)" d="M 185.630145 161.950601 
L 182.502956 158.455246 
L 185.197955 158.447111 
z
" style="stroke:#000000;"/>
    <path clip-path="url(#p2b8c4f4b73)" d="M 185.131551 191.459332 
L 185.630145 192.351716 
L 185.452431 188.012339 
z
" style="stroke:#000000;"/>
    <path clip-path="url(#p2b8c4f4b73)" d="M 185.630145 161.950601 
L 185.131551 162.847212 
L 185.452431 166.291486 
z
" style="stroke:#000000;"/>
    <path clip-path="url(#p2b8c4f4b73)" d="M 182.758993 166.29586 
L 185.131551 162.847212 
L 182.436144 162.85324 
z
" style="stroke:#000000;"/>
    <path clip-path="url(#p2b8c4f4b73)" d="M 185.630145 192.351716 
L 185.131551 191.459332 
L 185.197955 195.858871 
z
" style="stroke:#000000;"/>
    <path clip-path="url(#p2b8c4f4b73)" d="M 185.131551 162.847212 
L 185.630145 161.950601 
L 185.197955 158.447111 
z
" style="stroke:#000000;"/>
    <path clip-path="url(#p2b8c4f4b73)" d="M 185.452431 188.012339 
L 182.436144 191.45165 
L 185.131551 191.459332 
z
" style="stroke:#000000;"/>
    <path clip-path="url(#p2b8c4f4b73)" d="M 182.026419 159.558633 
L 182.502956 158.455246 
L 182.436144 162.85324 
z
" style="stroke:#000000;"/>
    <path clip-path="url(#p2b8c4f4b73)" d="M 182.502956 195.849082 
L 182.026419 194.749707 
L 182.436144 191.45165 
z
" style="stroke:#000000;"/>
    <path clip-path="url(#p2b8c4f4b73)" d="M 181.980072 155.146826 
L 185.197955 158.447111 
L 182.502956 158.455246 
z
" style="stroke:#000000;"/>
    <path clip-path="url(#p2b8c4f4b73)" d="M 182.026419 194.749707 
L 185.131551 191.459332 
L 182.436144 191.45165 
z
" style="stroke:#000000;"/>
    <path clip-path="url(#p2b8c4f4b73)" d="M 184.67826 199.173295 
L 182.502956 195.849082 
L 185.197955 195.858871 
z
" style="stroke:#000000;"/>
    <path clip-path="url(#p2b8c4f4b73)" d="M 182.502956 158.455246 
L 182.026419 159.558633 
L 181.980072 155.146826 
z
" style="stroke:#000000;"/>
    <path clip-path="url(#p2b8c4f4b73)" d="M 182.026419 194.749707 
L 182.502956 195.849082 
L 181.980072 199.161904 
z
" style="stroke:#000000;"/>
    <path clip-path="url(#p2b8c4f4b73)" d="M 184.724325 159.551018 
L 182.436144 162.85324 
L 185.131551 162.847212 
z
" style="stroke:#000000;"/>
    <path clip-path="url(#p2b8c4f4b73)" d="M 184.724325 194.758979 
L 185.197955 195.858871 
L 185.131551 191.459332 
z
" style="stroke:#000000;"/>
    <path clip-path="url(#p2b8c4f4b73)" d="M 185.197955 158.447111 
L 184.724325 159.551018 
L 185.131551 162.847212 
z
" style="stroke:#000000;"/>
    <path clip-path="url(#p2b8c4f4b73)" d="M 182.436144 162.85324 
L 184.724325 159.551018 
L 182.026419 159.558633 
z
" style="stroke:#000000;"/>
    <path clip-path="url(#p2b8c4f4b73)" d="M 182.502956 195.849082 
L 184.67826 199.173295 
L 181.980072 199.161904 
z
" style="stroke:#000000;"/>
    <path clip-path="url(#p2b8c4f4b73)" d="M 185.131551 191.459332 
L 182.026419 194.749707 
L 184.724325 194.758979 
z
" style="stroke:#000000;"/>
    <path clip-path="url(#p2b8c4f4b73)" d="M 185.197955 158.447111 
L 181.980072 155.146826 
L 184.67826 155.137093 
z
" style="stroke:#000000;"/>
    <path clip-path="url(#p2b8c4f4b73)" d="M 185.197955 195.858871 
L 184.724325 194.758979 
L 184.67826 199.173295 
z
" style="stroke:#000000;"/>
    <path clip-path="url(#p2b8c4f4b73)" d="M 184.724325 159.551018 
L 185.197955 158.447111 
L 184.67826 155.137093 
z
" style="stroke:#000000;"/>
    <path clip-path="url(#p2b8c4f4b73)" d="M 181.980072 155.146826 
L 182.026419 159.558633 
L 181.5338 156.446547 
z
" style="stroke:#000000;"/>
    <path clip-path="url(#p2b8c4f4b73)" d="M 182.026419 194.749707 
L 181.980072 199.161904 
L 181.5338 197.86594 
z
" style="stroke:#000000;"/>
    <path clip-path="url(#p2b8c4f4b73)" d="M 181.5338 197.86594 
L 184.724325 194.758979 
L 182.026419 194.749707 
z
" style="stroke:#000000;"/>
    <path clip-path="url(#p2b8c4f4b73)" d="M 184.23471 156.437428 
L 182.026419 159.558633 
L 184.724325 159.551018 
z
" style="stroke:#000000;"/>
    <path clip-path="url(#p2b8c4f4b73)" d="M 181.374226 152.066595 
L 184.67826 155.137093 
L 181.980072 155.146826 
z
" style="stroke:#000000;"/>
    <path clip-path="url(#p2b8c4f4b73)" d="M 184.67826 199.173295 
L 184.724325 194.758979 
L 184.23471 197.87672 
z
" style="stroke:#000000;"/>
    <path clip-path="url(#p2b8c4f4b73)" d="M 184.724325 159.551018 
L 184.67826 155.137093 
L 184.23471 156.437428 
z
" style="stroke:#000000;"/>
    <path clip-path="url(#p2b8c4f4b73)" d="M 184.076109 202.260125 
L 181.980072 199.161904 
L 184.67826 199.173295 
z
" style="stroke:#000000;"/>
    <path clip-path="url(#p2b8c4f4b73)" d="M 182.026419 159.558633 
L 184.23471 156.437428 
L 181.5338 156.446547 
z
" style="stroke:#000000;"/>
    <path clip-path="url(#p2b8c4f4b73)" d="M 181.980072 155.146826 
L 181.5338 156.446547 
L 181.374226 152.066595 
z
" style="stroke:#000000;"/>
    <path clip-path="url(#p2b8c4f4b73)" d="M 181.5338 197.86594 
L 181.980072 199.161904 
L 181.374226 202.247234 
z
" style="stroke:#000000;"/>
    <path clip-path="url(#p2b8c4f4b73)" d="M 184.724325 194.758979 
L 181.5338 197.86594 
L 184.23471 197.87672 
z
" style="stroke:#000000;"/>
    <path clip-path="url(#p2b8c4f4b73)" d="M 181.980072 199.161904 
L 184.076109 202.260125 
L 181.374226 202.247234 
z
" style="stroke:#000000;"/>
    <path clip-path="url(#p2b8c4f4b73)" d="M 184.67826 155.137093 
L 181.374226 152.066595 
L 184.076109 152.055368 
z
" style="stroke:#000000;"/>
    <path clip-path="url(#p2b8c4f4b73)" d="M 184.67826 199.173295 
L 184.23471 197.87672 
L 184.076109 202.260125 
z
" style="stroke:#000000;"/>
    <path clip-path="url(#p2b8c4f4b73)" d="M 184.23471 156.437428 
L 184.67826 155.137093 
L 184.076109 152.055368 
z
" style="stroke:#000000;"/>
    <path clip-path="url(#p2b8c4f4b73)" d="M 181.374226 152.066595 
L 181.5338 156.446547 
L 180.963113 153.550157 
z
" style="stroke:#000000;"/>
    <path clip-path="url(#p2b8c4f4b73)" d="M 181.5338 197.86594 
L 181.374226 202.247234 
L 180.963113 200.767134 
z
" style="stroke:#000000;"/>
    <path clip-path="url(#p2b8c4f4b73)" d="M 180.963113 200.767134 
L 184.23471 197.87672 
L 181.5338 197.86594 
z
" style="stroke:#000000;"/>
    <path clip-path="url(#p2b8c4f4b73)" d="M 183.667502 153.539631 
L 181.5338 156.446547 
L 184.23471 156.437428 
z
" style="stroke:#000000;"/>
    <path clip-path="url(#p2b8c4f4b73)" d="M 181.033074 150.658371 
L 184.076109 152.055368 
L 181.374226 152.066595 
z
" style="stroke:#000000;"/>
    <path clip-path="url(#p2b8c4f4b73)" d="M 183.737037 203.671911 
L 181.374226 202.247234 
L 184.076109 202.260125 
z
" style="stroke:#000000;"/>
    <path clip-path="url(#p2b8c4f4b73)" d="M 184.076109 202.260125 
L 184.23471 197.87672 
L 183.667502 200.779326 
z
" style="stroke:#000000;"/>
    <path clip-path="url(#p2b8c4f4b73)" d="M 184.23471 156.437428 
L 184.076109 152.055368 
L 183.667502 153.539631 
z
" style="stroke:#000000;"/>
    <path clip-path="url(#p2b8c4f4b73)" d="M 181.5338 156.446547 
L 183.667502 153.539631 
L 180.963113 153.550157 
z
" style="stroke:#000000;"/>
    <path clip-path="url(#p2b8c4f4b73)" d="M 181.374226 202.247234 
L 183.737037 203.671911 
L 181.033074 203.65833 
z
" style="stroke:#000000;"/>
    <path clip-path="url(#p2b8c4f4b73)" d="M 181.374226 152.066595 
L 180.791782 151.144008 
L 181.033074 150.658371 
z
" style="stroke:#000000;"/>
    <path clip-path="url(#p2b8c4f4b73)" d="M 180.791782 203.174725 
L 181.374226 202.247234 
L 181.033074 203.65833 
z
" style="stroke:#000000;"/>
    <path clip-path="url(#p2b8c4f4b73)" d="M 180.791782 151.144008 
L 181.374226 152.066595 
L 180.963113 153.550157 
z
" style="stroke:#000000;"/>
    <path clip-path="url(#p2b8c4f4b73)" d="M 181.374226 202.247234 
L 180.791782 203.174725 
L 180.963113 200.767134 
z
" style="stroke:#000000;"/>
    <path clip-path="url(#p2b8c4f4b73)" d="M 184.23471 197.87672 
L 180.963113 200.767134 
L 183.667502 200.779326 
z
" style="stroke:#000000;"/>
    <path clip-path="url(#p2b8c4f4b73)" d="M 184.076109 152.055368 
L 181.033074 150.658371 
L 183.737037 150.646457 
z
" style="stroke:#000000;"/>
    <path clip-path="url(#p2b8c4f4b73)" d="M 183.737037 203.671911 
L 180.791782 203.174725 
L 181.033074 203.65833 
z
" style="stroke:#000000;"/>
    <path clip-path="url(#p2b8c4f4b73)" d="M 183.497216 151.13232 
L 184.076109 152.055368 
L 183.737037 150.646457 
z
" style="stroke:#000000;"/>
    <path clip-path="url(#p2b8c4f4b73)" d="M 184.076109 202.260125 
L 183.497216 203.188081 
L 183.737037 203.671911 
z
" style="stroke:#000000;"/>
    <path clip-path="url(#p2b8c4f4b73)" d="M 183.497216 203.188081 
L 184.076109 202.260125 
L 183.667502 200.779326 
z
" style="stroke:#000000;"/>
    <path clip-path="url(#p2b8c4f4b73)" d="M 184.076109 152.055368 
L 183.497216 151.13232 
L 183.667502 153.539631 
z
" style="stroke:#000000;"/>
    <path clip-path="url(#p2b8c4f4b73)" d="M 181.033074 150.658371 
L 183.497216 151.13232 
L 183.737037 150.646457 
z
" style="stroke:#000000;"/>
    <path clip-path="url(#p2b8c4f4b73)" d="M 183.497216 151.13232 
L 181.033074 150.658371 
L 180.791782 151.144008 
z
" style="stroke:#000000;"/>
    <path clip-path="url(#p2b8c4f4b73)" d="M 180.791782 151.144008 
L 180.963113 153.550157 
L 180.538051 151.79889 
z
" style="stroke:#000000;"/>
    <path clip-path="url(#p2b8c4f4b73)" d="M 180.963113 200.767134 
L 180.791782 203.174725 
L 180.538051 202.521979 
z
" style="stroke:#000000;"/>
    <path clip-path="url(#p2b8c4f4b73)" d="M 183.667502 153.539631 
L 180.538051 151.79889 
L 180.963113 153.550157 
z
" style="stroke:#000000;"/>
    <path clip-path="url(#p2b8c4f4b73)" d="M 180.791782 203.174725 
L 183.737037 203.671911 
L 183.497216 203.188081 
z
" style="stroke:#000000;"/>
    <path clip-path="url(#p2b8c4f4b73)" d="M 180.963113 200.767134 
L 183.245031 202.535028 
L 183.667502 200.779326 
z
" style="stroke:#000000;"/>
    <path clip-path="url(#p2b8c4f4b73)" d="M 183.497216 203.188081 
L 180.538051 202.521979 
L 180.791782 203.174725 
z
" style="stroke:#000000;"/>
    <path clip-path="url(#p2b8c4f4b73)" d="M 183.245031 202.535028 
L 180.963113 200.767134 
L 180.538051 202.521979 
z
" style="stroke:#000000;"/>
    <path clip-path="url(#p2b8c4f4b73)" d="M 180.791782 151.144008 
L 183.245031 151.787511 
L 183.497216 151.13232 
z
" style="stroke:#000000;"/>
    <path clip-path="url(#p2b8c4f4b73)" d="M 183.497216 203.188081 
L 183.667502 200.779326 
L 183.245031 202.535028 
z
" style="stroke:#000000;"/>
    <path clip-path="url(#p2b8c4f4b73)" d="M 183.667502 153.539631 
L 183.497216 151.13232 
L 183.245031 151.787511 
z
" style="stroke:#000000;"/>
    <path clip-path="url(#p2b8c4f4b73)" d="M 183.245031 151.787511 
L 180.791782 151.144008 
L 180.538051 151.79889 
z
" style="stroke:#000000;"/>
    <path clip-path="url(#p2b8c4f4b73)" d="M 180.538051 151.79889 
L 183.667502 153.539631 
L 183.245031 151.787511 
z
" style="stroke:#000000;"/>
    <path clip-path="url(#p2b8c4f4b73)" d="M 180.538051 202.521979 
L 183.497216 203.188081 
L 183.245031 202.535028 
z
" style="stroke:#000000;"/>
   </g>
  </g>
 </g>
 <defs>
  <clipPath id="p2b8c4f4b73">
   <rect height="271.8" width="279" x="45" y="43.2"/>
  </clipPath>
 </defs>
</svg>
