<?xml version="1.0" encoding="utf-8" standalone="no"?>
<!DOCTYPE svg PUBLIC "-//W3C//DTD SVG 1.1//EN"
  "http://www.w3.org/Graphics/SVG/1.1/DTD/svg11.dtd">
<!-- Created with matplotlib (https://matplotlib.org/) -->
<svg height="360pt" version="1.1" viewBox="0 0 360 360" width="360pt" xmlns="http://www.w3.org/2000/svg" xmlns:xlink="http://www.w3.org/1999/xlink">
 <defs>
  <style type="text/css">
*{stroke-linecap:butt;stroke-linejoin:round;}
  </style>
 </defs>
 <g id="figure_1">
  <g id="patch_1">
   <path d="M 0 360 
L 360 360 
L 360 0 
L 0 0 
z
" style="fill:#ffffff;"/>
  </g>
  <g id="patch_2">
   <path d="M 45 315 
L 324 315 
L 324 43.2 
L 45 43.2 
z
" style="fill:#ffffff;"/>
  </g>
  <g id="axes_1">
   <g id="Poly3DCollection_1">
    <path clip-path="url(#pde381694a2)" d="M 178.225323 152.771454 
L 178.812609 155.014526 
L 177.356707 153.401897 
z
" style="stroke:#000000;"/>
    <path clip-path="url(#pde381694a2)" d="M 178.812609 199.263743 
L 178.225323 201.506457 
L 177.356707 200.875486 
z
" style="stroke:#000000;"/>
    <path clip-path="url(#pde381694a2)" d="M 178.225323 152.771454 
L 180.224323 153.596831 
L 178.812609 155.014526 
z
" style="stroke:#000000;"/>
    <path clip-path="url(#pde381694a2)" d="M 180.224323 200.682299 
L 178.225323 201.506457 
L 178.812609 199.263743 
z
" style="stroke:#000000;"/>
    <path clip-path="url(#pde381694a2)" d="M 180.224323 153.596831 
L 178.225323 152.771454 
L 179.052599 152.299565 
z
" style="stroke:#000000;"/>
    <path clip-path="url(#pde381694a2)" d="M 178.225323 201.506457 
L 180.224323 200.682299 
L 179.052599 201.978851 
z
" style="stroke:#000000;"/>
    <path clip-path="url(#pde381694a2)" d="M 180.224323 153.596831 
L 180.773232 157.697975 
L 178.812609 155.014526 
z
" style="stroke:#000000;"/>
    <path clip-path="url(#pde381694a2)" d="M 180.773232 196.581489 
L 180.224323 200.682299 
L 178.812609 199.263743 
z
" style="stroke:#000000;"/>
    <path clip-path="url(#pde381694a2)" d="M 176.657709 153.3648 
L 178.225323 152.771454 
L 177.356707 153.401897 
z
" style="stroke:#000000;"/>
    <path clip-path="url(#pde381694a2)" d="M 176.657709 200.918348 
L 178.812609 199.263743 
L 177.356707 200.875486 
z
" style="stroke:#000000;"/>
    <path clip-path="url(#pde381694a2)" d="M 177.52768 201.55039 
L 177.356707 200.875486 
L 178.225323 201.506457 
z
" style="stroke:#000000;"/>
    <path clip-path="url(#pde381694a2)" d="M 182.311175 156.451935 
L 180.773232 157.697975 
L 180.224323 153.596831 
z
" style="stroke:#000000;"/>
    <path clip-path="url(#pde381694a2)" d="M 180.773232 196.581489 
L 182.311175 197.828467 
L 180.224323 200.682299 
z
" style="stroke:#000000;"/>
    <path clip-path="url(#pde381694a2)" d="M 178.115882 154.980137 
L 177.356707 153.401897 
L 178.812609 155.014526 
z
" style="stroke:#000000;"/>
    <path clip-path="url(#pde381694a2)" d="M 177.52768 152.73329 
L 179.052599 152.299565 
L 178.225323 152.771454 
z
" style="stroke:#000000;"/>
    <path clip-path="url(#pde381694a2)" d="M 182.311175 156.451935 
L 182.471137 160.597163 
L 180.773232 157.697975 
z
" style="stroke:#000000;"/>
    <path clip-path="url(#pde381694a2)" d="M 182.471137 193.683336 
L 182.311175 197.828467 
L 180.773232 196.581489 
z
" style="stroke:#000000;"/>
    <path clip-path="url(#pde381694a2)" d="M 178.356247 202.023585 
L 178.225323 201.506457 
L 179.052599 201.978851 
z
" style="stroke:#000000;"/>
    <path clip-path="url(#pde381694a2)" d="M 180.224323 200.682299 
L 178.356247 202.023585 
L 179.052599 201.978851 
z
" style="stroke:#000000;"/>
    <path clip-path="url(#pde381694a2)" d="M 180.773232 157.697975 
L 178.115882 154.980137 
L 178.812609 155.014526 
z
" style="stroke:#000000;"/>
    <path clip-path="url(#pde381694a2)" d="M 184.118476 159.536567 
L 182.471137 160.597163 
L 182.311175 156.451935 
z
" style="stroke:#000000;"/>
    <path clip-path="url(#pde381694a2)" d="M 182.471137 193.683336 
L 184.118476 194.744936 
L 182.311175 197.828467 
z
" style="stroke:#000000;"/>
    <path clip-path="url(#pde381694a2)" d="M 179.052599 152.299565 
L 179.529799 153.560043 
L 180.224323 153.596831 
z
" style="stroke:#000000;"/>
    <path clip-path="url(#pde381694a2)" d="M 178.812609 199.263743 
L 180.079566 196.617141 
L 180.773232 196.581489 
z
" style="stroke:#000000;"/>
    <path clip-path="url(#pde381694a2)" d="M 182.471137 160.597163 
L 184.118476 159.536567 
L 183.887225 163.679935 
z
" style="stroke:#000000;"/>
    <path clip-path="url(#pde381694a2)" d="M 184.118476 194.744936 
L 182.471137 193.683336 
L 183.887225 190.601427 
z
" style="stroke:#000000;"/>
    <path clip-path="url(#pde381694a2)" d="M 177.356707 200.875486 
L 177.52768 201.55039 
L 176.657709 200.918348 
z
" style="stroke:#000000;"/>
    <path clip-path="url(#pde381694a2)" d="M 182.311175 197.828467 
L 179.529799 200.724858 
L 180.224323 200.682299 
z
" style="stroke:#000000;"/>
    <path clip-path="url(#pde381694a2)" d="M 177.356707 153.401897 
L 178.115882 154.980137 
L 176.657709 153.3648 
z
" style="stroke:#000000;"/>
    <path clip-path="url(#pde381694a2)" d="M 178.225323 152.771454 
L 176.657709 153.3648 
L 177.52768 152.73329 
z
" style="stroke:#000000;"/>
    <path clip-path="url(#pde381694a2)" d="M 182.471137 160.597163 
L 180.079566 157.668096 
L 180.773232 157.697975 
z
" style="stroke:#000000;"/>
    <path clip-path="url(#pde381694a2)" d="M 185.625874 162.816862 
L 183.887225 163.679935 
L 184.118476 159.536567 
z
" style="stroke:#000000;"/>
    <path clip-path="url(#pde381694a2)" d="M 183.887225 190.601427 
L 185.625874 191.46556 
L 184.118476 194.744936 
z
" style="stroke:#000000;"/>
    <path clip-path="url(#pde381694a2)" d="M 178.812609 199.263743 
L 176.657709 200.918348 
L 178.115882 199.303902 
z
" style="stroke:#000000;"/>
    <path clip-path="url(#pde381694a2)" d="M 180.224323 153.596831 
L 181.619911 156.419947 
L 182.311175 156.451935 
z
" style="stroke:#000000;"/>
    <path clip-path="url(#pde381694a2)" d="M 178.225323 201.506457 
L 178.356247 202.023585 
L 177.52768 201.55039 
z
" style="stroke:#000000;"/>
    <path clip-path="url(#pde381694a2)" d="M 183.887225 163.679935 
L 185.625874 162.816862 
L 185.005553 166.912223 
z
" style="stroke:#000000;"/>
    <path clip-path="url(#pde381694a2)" d="M 185.625874 191.46556 
L 183.887225 190.601427 
L 185.005553 187.369821 
z
" style="stroke:#000000;"/>
    <path clip-path="url(#pde381694a2)" d="M 180.773232 196.581489 
L 181.780123 193.714113 
L 182.471137 193.683336 
z
" style="stroke:#000000;"/>
    <path clip-path="url(#pde381694a2)" d="M 179.052599 152.299565 
L 177.52768 152.73329 
L 178.356247 152.2606 
z
" style="stroke:#000000;"/>
    <path clip-path="url(#pde381694a2)" d="M 179.529799 153.560043 
L 179.052599 152.299565 
L 178.356247 152.2606 
z
" style="stroke:#000000;"/>
    <path clip-path="url(#pde381694a2)" d="M 180.079566 196.617141 
L 178.812609 199.263743 
L 178.115882 199.303902 
z
" style="stroke:#000000;"/>
    <path clip-path="url(#pde381694a2)" d="M 186.816327 166.256377 
L 185.005553 166.912223 
L 185.625874 162.816862 
z
" style="stroke:#000000;"/>
    <path clip-path="url(#pde381694a2)" d="M 185.005553 187.369821 
L 186.816327 188.02677 
L 185.625874 191.46556 
z
" style="stroke:#000000;"/>
    <path clip-path="url(#pde381694a2)" d="M 185.005553 166.912223 
L 186.816327 166.256377 
L 185.813503 170.258183 
z
" style="stroke:#000000;"/>
    <path clip-path="url(#pde381694a2)" d="M 186.816327 188.02677 
L 185.005553 187.369821 
L 185.813503 184.024353 
z
" style="stroke:#000000;"/>
    <path clip-path="url(#pde381694a2)" d="M 184.118476 194.744936 
L 181.619911 197.866231 
L 182.311175 197.828467 
z
" style="stroke:#000000;"/>
    <path clip-path="url(#pde381694a2)" d="M 183.887225 163.679935 
L 181.780123 160.572163 
L 182.471137 160.597163 
z
" style="stroke:#000000;"/>
    <path clip-path="url(#pde381694a2)" d="M 178.356247 202.023585 
L 180.224323 200.682299 
L 179.529799 200.724858 
z
" style="stroke:#000000;"/>
    <path clip-path="url(#pde381694a2)" d="M 178.115882 154.980137 
L 180.773232 157.697975 
L 180.079566 157.668096 
z
" style="stroke:#000000;"/>
    <path clip-path="url(#pde381694a2)" d="M 182.471137 193.683336 
L 183.198425 190.627015 
L 183.887225 190.601427 
z
" style="stroke:#000000;"/>
    <path clip-path="url(#pde381694a2)" d="M 185.813503 170.258183 
L 187.676414 169.816976 
L 186.301947 173.680612 
z
" style="stroke:#000000;"/>
    <path clip-path="url(#pde381694a2)" d="M 187.676414 184.466695 
L 185.813503 184.024353 
L 186.301947 180.602221 
z
" style="stroke:#000000;"/>
    <path clip-path="url(#pde381694a2)" d="M 182.311175 156.451935 
L 183.430038 159.509771 
L 184.118476 159.536567 
z
" style="stroke:#000000;"/>
    <path clip-path="url(#pde381694a2)" d="M 187.676414 169.816976 
L 185.813503 170.258183 
L 186.816327 166.256377 
z
" style="stroke:#000000;"/>
    <path clip-path="url(#pde381694a2)" d="M 185.813503 184.024353 
L 187.676414 184.466695 
L 186.816327 188.02677 
z
" style="stroke:#000000;"/>
    <path clip-path="url(#pde381694a2)" d="M 188.196393 180.824937 
L 186.301947 180.602221 
L 186.465385 177.141467 
z
" style="stroke:#000000;"/>
    <path clip-path="url(#pde381694a2)" d="M 186.301947 173.680612 
L 188.196393 173.459051 
L 186.465385 177.141467 
z
" style="stroke:#000000;"/>
    <path clip-path="url(#pde381694a2)" d="M 181.619911 156.419947 
L 180.224323 153.596831 
L 179.529799 153.560043 
z
" style="stroke:#000000;"/>
    <path clip-path="url(#pde381694a2)" d="M 188.196393 173.459051 
L 186.301947 173.680612 
L 187.676414 169.816976 
z
" style="stroke:#000000;"/>
    <path clip-path="url(#pde381694a2)" d="M 186.301947 180.602221 
L 188.196393 180.824937 
L 187.676414 184.466695 
z
" style="stroke:#000000;"/>
    <path clip-path="url(#pde381694a2)" d="M 185.005553 166.912223 
L 183.198425 163.660126 
L 183.887225 163.679935 
z
" style="stroke:#000000;"/>
    <path clip-path="url(#pde381694a2)" d="M 177.52768 201.55039 
L 178.115882 199.303902 
L 176.657709 200.918348 
z
" style="stroke:#000000;"/>
    <path clip-path="url(#pde381694a2)" d="M 178.115882 154.980137 
L 177.52768 152.73329 
L 176.657709 153.3648 
z
" style="stroke:#000000;"/>
    <path clip-path="url(#pde381694a2)" d="M 181.780123 193.714113 
L 180.773232 196.581489 
L 180.079566 196.617141 
z
" style="stroke:#000000;"/>
    <path clip-path="url(#pde381694a2)" d="M 188.370372 177.142047 
L 186.465385 177.141467 
L 188.196393 173.459051 
z
" style="stroke:#000000;"/>
    <path clip-path="url(#pde381694a2)" d="M 186.465385 177.141467 
L 188.370372 177.142047 
L 188.196393 180.824937 
z
" style="stroke:#000000;"/>
    <path clip-path="url(#pde381694a2)" d="M 185.625874 191.46556 
L 183.430038 194.777512 
L 184.118476 194.744936 
z
" style="stroke:#000000;"/>
    <path clip-path="url(#pde381694a2)" d="M 183.887225 190.601427 
L 184.318502 187.389964 
L 185.005553 187.369821 
z
" style="stroke:#000000;"/>
    <path clip-path="url(#pde381694a2)" d="M 179.529799 200.724858 
L 182.311175 197.828467 
L 181.619911 197.866231 
z
" style="stroke:#000000;"/>
    <path clip-path="url(#pde381694a2)" d="M 180.079566 157.668096 
L 182.471137 160.597163 
L 181.780123 160.572163 
z
" style="stroke:#000000;"/>
    <path clip-path="url(#pde381694a2)" d="M 190.912361 151.057156 
L 187.735233 155.034395 
L 186.148013 154.599883 
z
" style="stroke:#000000;"/>
    <path clip-path="url(#pde381694a2)" d="M 190.912361 161.632426 
L 186.148013 154.599883 
L 187.735233 155.034395 
z
" style="stroke:#000000;"/>
    <path clip-path="url(#pde381694a2)" d="M 184.118476 159.536567 
L 184.939793 162.795591 
L 185.625874 162.816862 
z
" style="stroke:#000000;"/>
    <path clip-path="url(#pde381694a2)" d="M 185.813503 170.258183 
L 184.318502 166.897862 
L 185.005553 166.912223 
z
" style="stroke:#000000;"/>
    <path clip-path="url(#pde381694a2)" d="M 177.52768 201.55039 
L 179.529799 200.724858 
L 178.115882 199.303902 
z
" style="stroke:#000000;"/>
    <path clip-path="url(#pde381694a2)" d="M 179.529799 153.560043 
L 177.52768 152.73329 
L 178.115882 154.980137 
z
" style="stroke:#000000;"/>
    <path clip-path="url(#pde381694a2)" d="M 179.529799 200.724858 
L 177.52768 201.55039 
L 178.356247 202.023585 
z
" style="stroke:#000000;"/>
    <path clip-path="url(#pde381694a2)" d="M 177.52768 152.73329 
L 179.529799 153.560043 
L 178.356247 152.2606 
z
" style="stroke:#000000;"/>
    <path clip-path="url(#pde381694a2)" d="M 185.005553 187.369821 
L 185.127716 184.038855 
L 185.813503 184.024353 
z
" style="stroke:#000000;"/>
    <path clip-path="url(#pde381694a2)" d="M 186.301947 173.680612 
L 185.127716 170.249464 
L 185.813503 170.258183 
z
" style="stroke:#000000;"/>
    <path clip-path="url(#pde381694a2)" d="M 186.816327 188.02677 
L 184.939793 191.492613 
L 185.625874 191.46556 
z
" style="stroke:#000000;"/>
    <path clip-path="url(#pde381694a2)" d="M 183.430038 159.509771 
L 182.311175 156.451935 
L 181.619911 156.419947 
z
" style="stroke:#000000;"/>
    <path clip-path="url(#pde381694a2)" d="M 183.198425 190.627015 
L 182.471137 193.683336 
L 181.780123 193.714113 
z
" style="stroke:#000000;"/>
    <path clip-path="url(#pde381694a2)" d="M 185.813503 184.024353 
L 185.616924 180.610952 
L 186.301947 180.602221 
z
" style="stroke:#000000;"/>
    <path clip-path="url(#pde381694a2)" d="M 190.912361 161.632426 
L 190.912361 165.157516 
L 186.148013 154.599883 
z
" style="stroke:#000000;"/>
    <path clip-path="url(#pde381694a2)" d="M 179.529799 200.724858 
L 180.079566 196.617141 
L 178.115882 199.303902 
z
" style="stroke:#000000;"/>
    <path clip-path="url(#pde381694a2)" d="M 180.079566 157.668096 
L 179.529799 153.560043 
L 178.115882 154.980137 
z
" style="stroke:#000000;"/>
    <path clip-path="url(#pde381694a2)" d="M 186.465385 177.141467 
L 185.616924 173.677666 
L 186.301947 173.680612 
z
" style="stroke:#000000;"/>
    <path clip-path="url(#pde381694a2)" d="M 186.301947 180.602221 
L 185.780618 177.144359 
L 186.465385 177.141467 
z
" style="stroke:#000000;"/>
    <path clip-path="url(#pde381694a2)" d="M 185.625874 162.816862 
L 186.132109 166.240905 
L 186.816327 166.256377 
z
" style="stroke:#000000;"/>
    <path clip-path="url(#pde381694a2)" d="M 181.780123 160.572163 
L 183.887225 163.679935 
L 183.198425 163.660126 
z
" style="stroke:#000000;"/>
    <path clip-path="url(#pde381694a2)" d="M 181.619911 197.866231 
L 184.118476 194.744936 
L 183.430038 194.777512 
z
" style="stroke:#000000;"/>
    <path clip-path="url(#pde381694a2)" d="M 190.912361 151.057156 
L 190.912361 152.819701 
L 187.735233 155.034395 
z
" style="stroke:#000000;"/>
    <path clip-path="url(#pde381694a2)" d="M 187.676414 184.466695 
L 186.132109 188.048027 
L 186.816327 188.02677 
z
" style="stroke:#000000;"/>
    <path clip-path="url(#pde381694a2)" d="M 186.816327 166.256377 
L 186.993543 169.80751 
L 187.676414 169.816976 
z
" style="stroke:#000000;"/>
    <path clip-path="url(#pde381694a2)" d="M 181.619911 197.866231 
L 180.079566 196.617141 
L 179.529799 200.724858 
z
" style="stroke:#000000;"/>
    <path clip-path="url(#pde381694a2)" d="M 180.079566 157.668096 
L 181.619911 156.419947 
L 179.529799 153.560043 
z
" style="stroke:#000000;"/>
    <path clip-path="url(#pde381694a2)" d="M 184.318502 187.389964 
L 183.887225 190.601427 
L 183.198425 190.627015 
z
" style="stroke:#000000;"/>
    <path clip-path="url(#pde381694a2)" d="M 185.462749 154.564749 
L 190.912361 151.057156 
L 186.148013 154.599883 
z
" style="stroke:#000000;"/>
    <path clip-path="url(#pde381694a2)" d="M 190.912361 165.157516 
L 185.462749 154.564749 
L 186.148013 154.599883 
z
" style="stroke:#000000;"/>
    <path clip-path="url(#pde381694a2)" d="M 184.939793 162.795591 
L 184.118476 159.536567 
L 183.430038 159.509771 
z
" style="stroke:#000000;"/>
    <path clip-path="url(#pde381694a2)" d="M 183.198425 163.660126 
L 185.005553 166.912223 
L 184.318502 166.897862 
z
" style="stroke:#000000;"/>
    <path clip-path="url(#pde381694a2)" d="M 188.196393 180.824937 
L 186.993543 184.481948 
L 187.676414 184.466695 
z
" style="stroke:#000000;"/>
    <path clip-path="url(#pde381694a2)" d="M 187.676414 169.816976 
L 187.514336 173.45573 
L 188.196393 173.459051 
z
" style="stroke:#000000;"/>
    <path clip-path="url(#pde381694a2)" d="M 181.619911 197.866231 
L 181.780123 193.714113 
L 180.079566 196.617141 
z
" style="stroke:#000000;"/>
    <path clip-path="url(#pde381694a2)" d="M 181.780123 160.572163 
L 181.619911 156.419947 
L 180.079566 157.668096 
z
" style="stroke:#000000;"/>
    <path clip-path="url(#pde381694a2)" d="M 188.370372 177.142047 
L 187.514336 180.834046 
L 188.196393 180.824937 
z
" style="stroke:#000000;"/>
    <path clip-path="url(#pde381694a2)" d="M 183.430038 194.777512 
L 185.625874 191.46556 
L 184.939793 191.492613 
z
" style="stroke:#000000;"/>
    <path clip-path="url(#pde381694a2)" d="M 188.196393 173.459051 
L 187.688587 177.144941 
L 188.370372 177.142047 
z
" style="stroke:#000000;"/>
    <path clip-path="url(#pde381694a2)" d="M 185.127716 184.038855 
L 185.005553 187.369821 
L 184.318502 187.389964 
z
" style="stroke:#000000;"/>
    <path clip-path="url(#pde381694a2)" d="M 184.318502 166.897862 
L 185.813503 170.258183 
L 185.127716 170.249464 
z
" style="stroke:#000000;"/>
    <path clip-path="url(#pde381694a2)" d="M 190.912361 151.057156 
L 194.093079 155.011357 
L 190.912361 152.819701 
z
" style="stroke:#000000;"/>
    <path clip-path="url(#pde381694a2)" d="M 185.616924 180.610952 
L 185.813503 184.024353 
L 185.127716 184.038855 
z
" style="stroke:#000000;"/>
    <path clip-path="url(#pde381694a2)" d="M 186.132109 166.240905 
L 185.625874 162.816862 
L 184.939793 162.795591 
z
" style="stroke:#000000;"/>
    <path clip-path="url(#pde381694a2)" d="M 183.430038 194.777512 
L 181.780123 193.714113 
L 181.619911 197.866231 
z
" style="stroke:#000000;"/>
    <path clip-path="url(#pde381694a2)" d="M 181.780123 160.572163 
L 183.430038 159.509771 
L 181.619911 156.419947 
z
" style="stroke:#000000;"/>
    <path clip-path="url(#pde381694a2)" d="M 185.127716 170.249464 
L 186.301947 173.680612 
L 185.616924 173.677666 
z
" style="stroke:#000000;"/>
    <path clip-path="url(#pde381694a2)" d="M 190.912361 161.632426 
L 195.684786 154.564579 
L 190.912361 165.157516 
z
" style="stroke:#000000;"/>
    <path clip-path="url(#pde381694a2)" d="M 185.780618 177.144359 
L 186.301947 180.602221 
L 185.616924 180.610952 
z
" style="stroke:#000000;"/>
    <path clip-path="url(#pde381694a2)" d="M 185.616924 173.677666 
L 186.465385 177.141467 
L 185.780618 177.144359 
z
" style="stroke:#000000;"/>
    <path clip-path="url(#pde381694a2)" d="M 184.939793 191.492613 
L 186.816327 188.02677 
L 186.132109 188.048027 
z
" style="stroke:#000000;"/>
    <path clip-path="url(#pde381694a2)" d="M 181.780123 193.714113 
L 183.430038 194.777512 
L 183.198425 190.627015 
z
" style="stroke:#000000;"/>
    <path clip-path="url(#pde381694a2)" d="M 183.430038 159.509771 
L 181.780123 160.572163 
L 183.198425 163.660126 
z
" style="stroke:#000000;"/>
    <path clip-path="url(#pde381694a2)" d="M 190.23456 152.781531 
L 187.735233 155.034395 
L 190.912361 152.819701 
z
" style="stroke:#000000;"/>
    <path clip-path="url(#pde381694a2)" d="M 187.735233 155.034395 
L 190.23456 161.609135 
L 190.912361 161.632426 
z
" style="stroke:#000000;"/>
    <path clip-path="url(#pde381694a2)" d="M 186.993543 169.80751 
L 186.816327 166.256377 
L 186.132109 166.240905 
z
" style="stroke:#000000;"/>
    <path clip-path="url(#pde381694a2)" d="M 195.684786 154.564579 
L 190.912361 161.632426 
L 194.093079 155.011357 
z
" style="stroke:#000000;"/>
    <path clip-path="url(#pde381694a2)" d="M 194.093079 155.011357 
L 190.912361 151.057156 
L 195.684786 154.564579 
z
" style="stroke:#000000;"/>
    <path clip-path="url(#pde381694a2)" d="M 186.132109 188.048027 
L 187.676414 184.466695 
L 186.993543 184.481948 
z
" style="stroke:#000000;"/>
    <path clip-path="url(#pde381694a2)" d="M 184.939793 191.492613 
L 183.198425 190.627015 
L 183.430038 194.777512 
z
" style="stroke:#000000;"/>
    <path clip-path="url(#pde381694a2)" d="M 183.198425 163.660126 
L 184.939793 162.795591 
L 183.430038 159.509771 
z
" style="stroke:#000000;"/>
    <path clip-path="url(#pde381694a2)" d="M 195.366373 177.144179 
L 193.456648 177.143597 
L 193.630952 173.457151 
z
" style="stroke:#000000;"/>
    <path clip-path="url(#pde381694a2)" d="M 193.456648 177.143597 
L 195.366373 177.144179 
L 193.630952 180.830149 
z
" style="stroke:#000000;"/>
    <path clip-path="url(#pde381694a2)" d="M 187.514336 173.45573 
L 187.676414 169.816976 
L 186.993543 169.80751 
z
" style="stroke:#000000;"/>
    <path clip-path="url(#pde381694a2)" d="M 183.198425 190.627015 
L 184.939793 191.492613 
L 184.318502 187.389964 
z
" style="stroke:#000000;"/>
    <path clip-path="url(#pde381694a2)" d="M 184.939793 162.795591 
L 183.198425 163.660126 
L 184.318502 166.897862 
z
" style="stroke:#000000;"/>
    <path clip-path="url(#pde381694a2)" d="M 186.993543 184.481948 
L 188.196393 180.824937 
L 187.514336 180.834046 
z
" style="stroke:#000000;"/>
    <path clip-path="url(#pde381694a2)" d="M 195.530338 173.677748 
L 193.630952 173.457151 
L 194.152033 169.810521 
z
" style="stroke:#000000;"/>
    <path clip-path="url(#pde381694a2)" d="M 193.630952 180.830149 
L 195.530338 180.61071 
L 194.152033 184.477097 
z
" style="stroke:#000000;"/>
    <path clip-path="url(#pde381694a2)" d="M 187.688587 177.144941 
L 188.196393 173.459051 
L 187.514336 173.45573 
z
" style="stroke:#000000;"/>
    <path clip-path="url(#pde381694a2)" d="M 187.514336 180.834046 
L 188.370372 177.142047 
L 187.688587 177.144941 
z
" style="stroke:#000000;"/>
    <path clip-path="url(#pde381694a2)" d="M 195.530338 180.61071 
L 193.630952 180.830149 
L 195.366373 177.144179 
z
" style="stroke:#000000;"/>
    <path clip-path="url(#pde381694a2)" d="M 193.630952 173.457151 
L 195.530338 173.677748 
L 195.366373 177.144179 
z
" style="stroke:#000000;"/>
    <path clip-path="url(#pde381694a2)" d="M 196.02047 170.248805 
L 194.152033 169.810521 
L 195.014364 166.243016 
z
" style="stroke:#000000;"/>
    <path clip-path="url(#pde381694a2)" d="M 194.152033 184.477097 
L 196.02047 184.039951 
L 195.014364 188.045127 
z
" style="stroke:#000000;"/>
    <path clip-path="url(#pde381694a2)" d="M 187.735233 155.034395 
L 190.23456 152.781531 
L 187.052454 154.999984 
z
" style="stroke:#000000;"/>
    <path clip-path="url(#pde381694a2)" d="M 190.23456 161.609135 
L 187.735233 155.034395 
L 187.052454 154.999984 
z
" style="stroke:#000000;"/>
    <path clip-path="url(#pde381694a2)" d="M 194.152033 169.810521 
L 196.02047 170.248805 
L 195.530338 173.677748 
z
" style="stroke:#000000;"/>
    <path clip-path="url(#pde381694a2)" d="M 196.02047 184.039951 
L 194.152033 184.477097 
L 195.530338 180.61071 
z
" style="stroke:#000000;"/>
    <path clip-path="url(#pde381694a2)" d="M 186.132109 188.048027 
L 184.318502 187.389964 
L 184.939793 191.492613 
z
" style="stroke:#000000;"/>
    <path clip-path="url(#pde381694a2)" d="M 184.318502 166.897862 
L 186.132109 166.240905 
L 184.939793 162.795591 
z
" style="stroke:#000000;"/>
    <path clip-path="url(#pde381694a2)" d="M 184.318502 187.389964 
L 186.132109 188.048027 
L 185.127716 184.038855 
z
" style="stroke:#000000;"/>
    <path clip-path="url(#pde381694a2)" d="M 186.132109 166.240905 
L 184.318502 166.897862 
L 185.127716 170.249464 
z
" style="stroke:#000000;"/>
    <path clip-path="url(#pde381694a2)" d="M 190.912361 151.057156 
L 185.462749 154.564749 
L 190.23456 151.016011 
z
" style="stroke:#000000;"/>
    <path clip-path="url(#pde381694a2)" d="M 185.462749 154.564749 
L 190.912361 165.157516 
L 190.23456 165.140177 
z
" style="stroke:#000000;"/>
    <path clip-path="url(#pde381694a2)" d="M 190.23456 151.016011 
L 195.684786 154.564579 
L 190.912361 151.057156 
z
" style="stroke:#000000;"/>
    <path clip-path="url(#pde381694a2)" d="M 195.684786 154.564579 
L 190.23456 165.140177 
L 190.912361 165.157516 
z
" style="stroke:#000000;"/>
    <path clip-path="url(#pde381694a2)" d="M 195.014364 166.243016 
L 196.831588 166.894321 
L 196.02047 170.248805 
z
" style="stroke:#000000;"/>
    <path clip-path="url(#pde381694a2)" d="M 196.831588 187.394929 
L 195.014364 188.045127 
L 196.02047 184.039951 
z
" style="stroke:#000000;"/>
    <path clip-path="url(#pde381694a2)" d="M 196.831588 166.894321 
L 195.014364 166.243016 
L 196.208794 162.79314 
z
" style="stroke:#000000;"/>
    <path clip-path="url(#pde381694a2)" d="M 195.014364 188.045127 
L 196.831588 187.394929 
L 196.208794 191.495731 
z
" style="stroke:#000000;"/>
    <path clip-path="url(#pde381694a2)" d="M 185.127716 184.038855 
L 186.993543 184.481948 
L 185.616924 180.610952 
z
" style="stroke:#000000;"/>
    <path clip-path="url(#pde381694a2)" d="M 186.993543 169.80751 
L 185.127716 170.249464 
L 185.616924 173.677666 
z
" style="stroke:#000000;"/>
    <path clip-path="url(#pde381694a2)" d="M 193.420268 154.976868 
L 190.912361 152.819701 
L 194.093079 155.011357 
z
" style="stroke:#000000;"/>
    <path clip-path="url(#pde381694a2)" d="M 190.912361 161.632426 
L 193.420268 154.976868 
L 194.093079 155.011357 
z
" style="stroke:#000000;"/>
    <path clip-path="url(#pde381694a2)" d="M 186.993543 184.481948 
L 185.127716 184.038855 
L 186.132109 188.048027 
z
" style="stroke:#000000;"/>
    <path clip-path="url(#pde381694a2)" d="M 185.127716 170.249464 
L 186.993543 169.80751 
L 186.132109 166.240905 
z
" style="stroke:#000000;"/>
    <path clip-path="url(#pde381694a2)" d="M 187.514336 173.45573 
L 185.616924 173.677666 
L 185.780618 177.144359 
z
" style="stroke:#000000;"/>
    <path clip-path="url(#pde381694a2)" d="M 185.616924 180.610952 
L 187.514336 180.834046 
L 185.780618 177.144359 
z
" style="stroke:#000000;"/>
    <path clip-path="url(#pde381694a2)" d="M 193.630952 180.830149 
L 192.782838 177.146496 
L 193.456648 177.143597 
z
" style="stroke:#000000;"/>
    <path clip-path="url(#pde381694a2)" d="M 193.456648 177.143597 
L 192.957416 173.453823 
L 193.630952 173.457151 
z
" style="stroke:#000000;"/>
    <path clip-path="url(#pde381694a2)" d="M 187.514336 180.834046 
L 185.616924 180.610952 
L 186.993543 184.481948 
z
" style="stroke:#000000;"/>
    <path clip-path="url(#pde381694a2)" d="M 185.616924 173.677666 
L 187.514336 173.45573 
L 186.993543 169.80751 
z
" style="stroke:#000000;"/>
    <path clip-path="url(#pde381694a2)" d="M 194.152033 184.477097 
L 192.957416 180.839276 
L 193.630952 180.830149 
z
" style="stroke:#000000;"/>
    <path clip-path="url(#pde381694a2)" d="M 196.208794 162.79314 
L 197.955071 163.650551 
L 196.831588 166.894321 
z
" style="stroke:#000000;"/>
    <path clip-path="url(#pde381694a2)" d="M 197.955071 190.639385 
L 196.208794 191.495731 
L 196.831588 187.394929 
z
" style="stroke:#000000;"/>
    <path clip-path="url(#pde381694a2)" d="M 193.630952 173.457151 
L 193.479314 169.801033 
L 194.152033 169.810521 
z
" style="stroke:#000000;"/>
    <path clip-path="url(#pde381694a2)" d="M 187.688587 177.144941 
L 185.780618 177.144359 
L 187.514336 180.834046 
z
" style="stroke:#000000;"/>
    <path clip-path="url(#pde381694a2)" d="M 185.780618 177.144359 
L 187.688587 177.144941 
L 187.514336 173.45573 
z
" style="stroke:#000000;"/>
    <path clip-path="url(#pde381694a2)" d="M 197.955071 163.650551 
L 196.208794 162.79314 
L 197.72268 159.49813 
z
" style="stroke:#000000;"/>
    <path clip-path="url(#pde381694a2)" d="M 196.208794 191.495731 
L 197.955071 190.639385 
L 197.72268 194.791664 
z
" style="stroke:#000000;"/>
    <path clip-path="url(#pde381694a2)" d="M 195.014364 188.045127 
L 193.479314 184.492385 
L 194.152033 184.477097 
z
" style="stroke:#000000;"/>
    <path clip-path="url(#pde381694a2)" d="M 185.462749 154.564749 
L 190.23456 161.609135 
L 187.052454 154.999984 
z
" style="stroke:#000000;"/>
    <path clip-path="url(#pde381694a2)" d="M 187.052454 154.999984 
L 190.23456 151.016011 
L 185.462749 154.564749 
z
" style="stroke:#000000;"/>
    <path clip-path="url(#pde381694a2)" d="M 194.152033 169.810521 
L 194.342999 166.227499 
L 195.014364 166.243016 
z
" style="stroke:#000000;"/>
    <path clip-path="url(#pde381694a2)" d="M 190.912361 152.819701 
L 193.420268 154.976868 
L 190.23456 152.781531 
z
" style="stroke:#000000;"/>
    <path clip-path="url(#pde381694a2)" d="M 193.420268 154.976868 
L 190.912361 161.632426 
L 190.23456 161.609135 
z
" style="stroke:#000000;"/>
    <path clip-path="url(#pde381694a2)" d="M 197.72268 159.49813 
L 199.37897 160.552567 
L 197.955071 163.650551 
z
" style="stroke:#000000;"/>
    <path clip-path="url(#pde381694a2)" d="M 199.37897 193.738235 
L 197.72268 194.791664 
L 197.955071 190.639385 
z
" style="stroke:#000000;"/>
    <path clip-path="url(#pde381694a2)" d="M 196.208794 191.495731 
L 194.342999 188.066447 
L 195.014364 188.045127 
z
" style="stroke:#000000;"/>
    <path clip-path="url(#pde381694a2)" d="M 195.530338 173.677748 
L 194.69556 177.14708 
L 195.366373 177.144179 
z
" style="stroke:#000000;"/>
    <path clip-path="url(#pde381694a2)" d="M 195.366373 177.144179 
L 194.859784 180.619469 
L 195.530338 180.61071 
z
" style="stroke:#000000;"/>
    <path clip-path="url(#pde381694a2)" d="M 190.23456 161.609135 
L 185.462749 154.564749 
L 190.23456 165.140177 
z
" style="stroke:#000000;"/>
    <path clip-path="url(#pde381694a2)" d="M 196.02047 170.248805 
L 194.859784 173.674792 
L 195.530338 173.677748 
z
" style="stroke:#000000;"/>
    <path clip-path="url(#pde381694a2)" d="M 199.539905 156.393789 
L 199.37897 160.552567 
L 197.72268 159.49813 
z
" style="stroke:#000000;"/>
    <path clip-path="url(#pde381694a2)" d="M 199.37897 193.738235 
L 199.539905 197.897112 
L 197.72268 194.791664 
z
" style="stroke:#000000;"/>
    <path clip-path="url(#pde381694a2)" d="M 195.014364 166.243016 
L 195.539305 162.771789 
L 196.208794 162.79314 
z
" style="stroke:#000000;"/>
    <path clip-path="url(#pde381694a2)" d="M 195.530338 180.61071 
L 195.350685 184.054506 
L 196.02047 184.039951 
z
" style="stroke:#000000;"/>
    <path clip-path="url(#pde381694a2)" d="M 190.23456 151.016011 
L 187.052454 154.999984 
L 190.23456 152.781531 
z
" style="stroke:#000000;"/>
    <path clip-path="url(#pde381694a2)" d="M 196.831588 166.894321 
L 195.350685 170.240055 
L 196.02047 170.248805 
z
" style="stroke:#000000;"/>
    <path clip-path="url(#pde381694a2)" d="M 196.02047 184.039951 
L 196.163078 187.415157 
L 196.831588 187.394929 
z
" style="stroke:#000000;"/>
    <path clip-path="url(#pde381694a2)" d="M 192.957416 173.453823 
L 193.456648 177.143597 
L 192.782838 177.146496 
z
" style="stroke:#000000;"/>
    <path clip-path="url(#pde381694a2)" d="M 197.72268 194.791664 
L 195.539305 191.522887 
L 196.208794 191.495731 
z
" style="stroke:#000000;"/>
    <path clip-path="url(#pde381694a2)" d="M 192.782838 177.146496 
L 193.630952 180.830149 
L 192.957416 180.839276 
z
" style="stroke:#000000;"/>
    <path clip-path="url(#pde381694a2)" d="M 199.539905 156.393789 
L 201.088136 157.633899 
L 199.37897 160.552567 
z
" style="stroke:#000000;"/>
    <path clip-path="url(#pde381694a2)" d="M 201.088136 196.657946 
L 199.539905 197.897112 
L 199.37897 193.738235 
z
" style="stroke:#000000;"/>
    <path clip-path="url(#pde381694a2)" d="M 193.479314 169.801033 
L 193.630952 173.457151 
L 192.957416 173.453823 
z
" style="stroke:#000000;"/>
    <path clip-path="url(#pde381694a2)" d="M 192.957416 180.839276 
L 194.152033 184.477097 
L 193.479314 184.492385 
z
" style="stroke:#000000;"/>
    <path clip-path="url(#pde381694a2)" d="M 197.955071 163.650551 
L 196.163078 166.8799 
L 196.831588 166.894321 
z
" style="stroke:#000000;"/>
    <path clip-path="url(#pde381694a2)" d="M 196.208794 162.79314 
L 197.05557 159.471204 
L 197.72268 159.49813 
z
" style="stroke:#000000;"/>
    <path clip-path="url(#pde381694a2)" d="M 195.684786 154.564579 
L 190.23456 151.016011 
L 195.014474 154.529326 
z
" style="stroke:#000000;"/>
    <path clip-path="url(#pde381694a2)" d="M 190.23456 165.140177 
L 195.684786 154.564579 
L 195.014474 154.529326 
z
" style="stroke:#000000;"/>
    <path clip-path="url(#pde381694a2)" d="M 201.641128 153.513644 
L 201.088136 157.633899 
L 199.539905 156.393789 
z
" style="stroke:#000000;"/>
    <path clip-path="url(#pde381694a2)" d="M 201.088136 196.657946 
L 201.641128 200.778537 
L 199.539905 197.897112 
z
" style="stroke:#000000;"/>
    <path clip-path="url(#pde381694a2)" d="M 196.831588 187.394929 
L 197.288326 190.665101 
L 197.955071 190.639385 
z
" style="stroke:#000000;"/>
    <path clip-path="url(#pde381694a2)" d="M 194.342999 166.227499 
L 194.152033 169.810521 
L 193.479314 169.801033 
z
" style="stroke:#000000;"/>
    <path clip-path="url(#pde381694a2)" d="M 193.479314 184.492385 
L 195.014364 188.045127 
L 194.342999 188.066447 
z
" style="stroke:#000000;"/>
    <path clip-path="url(#pde381694a2)" d="M 193.420268 154.976868 
L 190.23456 151.016011 
L 190.23456 152.781531 
z
" style="stroke:#000000;"/>
    <path clip-path="url(#pde381694a2)" d="M 199.539905 197.897112 
L 197.05557 194.824398 
L 197.72268 194.791664 
z
" style="stroke:#000000;"/>
    <path clip-path="url(#pde381694a2)" d="M 199.37897 160.552567 
L 197.288326 163.630643 
L 197.955071 163.650551 
z
" style="stroke:#000000;"/>
    <path clip-path="url(#pde381694a2)" d="M 195.539305 162.771789 
L 195.014364 166.243016 
L 194.342999 166.227499 
z
" style="stroke:#000000;"/>
    <path clip-path="url(#pde381694a2)" d="M 194.859784 180.619469 
L 195.366373 177.144179 
L 194.69556 177.14708 
z
" style="stroke:#000000;"/>
    <path clip-path="url(#pde381694a2)" d="M 194.69556 177.14708 
L 195.530338 173.677748 
L 194.859784 173.674792 
z
" style="stroke:#000000;"/>
    <path clip-path="url(#pde381694a2)" d="M 201.641128 153.513644 
L 203.064337 154.926424 
L 201.088136 157.633899 
z
" style="stroke:#000000;"/>
    <path clip-path="url(#pde381694a2)" d="M 203.064337 199.366625 
L 201.641128 200.778537 
L 201.088136 196.657946 
z
" style="stroke:#000000;"/>
    <path clip-path="url(#pde381694a2)" d="M 195.014474 154.529326 
L 190.23456 161.609135 
L 190.23456 165.140177 
z
" style="stroke:#000000;"/>
    <path clip-path="url(#pde381694a2)" d="M 195.350685 184.054506 
L 195.530338 180.61071 
L 194.859784 180.619469 
z
" style="stroke:#000000;"/>
    <path clip-path="url(#pde381694a2)" d="M 197.955071 190.639385 
L 198.714465 193.769198 
L 199.37897 193.738235 
z
" style="stroke:#000000;"/>
    <path clip-path="url(#pde381694a2)" d="M 197.72268 159.49813 
L 198.875652 156.361605 
L 199.539905 156.393789 
z
" style="stroke:#000000;"/>
    <path clip-path="url(#pde381694a2)" d="M 194.342999 188.066447 
L 196.208794 191.495731 
L 195.539305 191.522887 
z
" style="stroke:#000000;"/>
    <path clip-path="url(#pde381694a2)" d="M 194.859784 173.674792 
L 196.02047 170.248805 
L 195.350685 170.240055 
z
" style="stroke:#000000;"/>
    <path clip-path="url(#pde381694a2)" d="M 196.163078 187.415157 
L 196.02047 184.039951 
L 195.350685 184.054506 
z
" style="stroke:#000000;"/>
    <path clip-path="url(#pde381694a2)" d="M 203.656829 152.668903 
L 201.641128 153.513644 
L 202.822292 152.201732 
z
" style="stroke:#000000;"/>
    <path clip-path="url(#pde381694a2)" d="M 201.641128 200.778537 
L 203.656829 201.624507 
L 202.822292 202.091169 
z
" style="stroke:#000000;"/>
    <path clip-path="url(#pde381694a2)" d="M 201.641128 153.513644 
L 203.656829 152.668903 
L 203.064337 154.926424 
z
" style="stroke:#000000;"/>
    <path clip-path="url(#pde381694a2)" d="M 203.656829 201.624507 
L 201.641128 200.778537 
L 203.064337 199.366625 
z
" style="stroke:#000000;"/>
    <path clip-path="url(#pde381694a2)" d="M 195.350685 170.240055 
L 196.831588 166.894321 
L 196.163078 166.8799 
z
" style="stroke:#000000;"/>
    <path clip-path="url(#pde381694a2)" d="M 197.05557 159.471204 
L 196.208794 162.79314 
L 195.539305 162.771789 
z
" style="stroke:#000000;"/>
    <path clip-path="url(#pde381694a2)" d="M 190.23456 161.609135 
L 195.014474 154.529326 
L 193.420268 154.976868 
z
" style="stroke:#000000;"/>
    <path clip-path="url(#pde381694a2)" d="M 190.23456 151.016011 
L 193.420268 154.976868 
L 195.014474 154.529326 
z
" style="stroke:#000000;"/>
    <path clip-path="url(#pde381694a2)" d="M 201.088136 157.633899 
L 198.714465 160.527416 
L 199.37897 160.552567 
z
" style="stroke:#000000;"/>
    <path clip-path="url(#pde381694a2)" d="M 201.641128 200.778537 
L 198.875652 197.935108 
L 199.539905 197.897112 
z
" style="stroke:#000000;"/>
    <path clip-path="url(#pde381694a2)" d="M 197.288326 190.665101 
L 196.831588 187.394929 
L 196.163078 187.415157 
z
" style="stroke:#000000;"/>
    <path clip-path="url(#pde381694a2)" d="M 195.539305 191.522887 
L 197.72268 194.791664 
L 197.05557 194.824398 
z
" style="stroke:#000000;"/>
    <path clip-path="url(#pde381694a2)" d="M 194.69556 177.14708 
L 192.782838 177.146496 
L 192.957416 180.839276 
z
" style="stroke:#000000;"/>
    <path clip-path="url(#pde381694a2)" d="M 192.782838 177.146496 
L 194.69556 177.14708 
L 192.957416 173.453823 
z
" style="stroke:#000000;"/>
    <path clip-path="url(#pde381694a2)" d="M 199.37897 193.738235 
L 200.426319 196.693856 
L 201.088136 196.657946 
z
" style="stroke:#000000;"/>
    <path clip-path="url(#pde381694a2)" d="M 203.064337 154.926424 
L 203.656829 152.668903 
L 204.533597 153.29534 
z
" style="stroke:#000000;"/>
    <path clip-path="url(#pde381694a2)" d="M 203.656829 201.624507 
L 203.064337 199.366625 
L 204.533597 200.998604 
z
" style="stroke:#000000;"/>
    <path clip-path="url(#pde381694a2)" d="M 196.163078 166.8799 
L 197.955071 163.650551 
L 197.288326 163.630643 
z
" style="stroke:#000000;"/>
    <path clip-path="url(#pde381694a2)" d="M 194.859784 180.619469 
L 192.957416 180.839276 
L 193.479314 184.492385 
z
" style="stroke:#000000;"/>
    <path clip-path="url(#pde381694a2)" d="M 192.957416 173.453823 
L 194.859784 173.674792 
L 193.479314 169.801033 
z
" style="stroke:#000000;"/>
    <path clip-path="url(#pde381694a2)" d="M 199.539905 156.393789 
L 200.980182 153.476576 
L 201.641128 153.513644 
z
" style="stroke:#000000;"/>
    <path clip-path="url(#pde381694a2)" d="M 194.859784 173.674792 
L 192.957416 173.453823 
L 194.69556 177.14708 
z
" style="stroke:#000000;"/>
    <path clip-path="url(#pde381694a2)" d="M 192.957416 180.839276 
L 194.859784 180.619469 
L 194.69556 177.14708 
z
" style="stroke:#000000;"/>
    <path clip-path="url(#pde381694a2)" d="M 195.350685 184.054506 
L 193.479314 184.492385 
L 194.342999 188.066447 
z
" style="stroke:#000000;"/>
    <path clip-path="url(#pde381694a2)" d="M 193.479314 169.801033 
L 195.350685 170.240055 
L 194.342999 166.227499 
z
" style="stroke:#000000;"/>
    <path clip-path="url(#pde381694a2)" d="M 198.875652 156.361605 
L 197.72268 159.49813 
L 197.05557 159.471204 
z
" style="stroke:#000000;"/>
    <path clip-path="url(#pde381694a2)" d="M 193.479314 184.492385 
L 195.350685 184.054506 
L 194.859784 180.619469 
z
" style="stroke:#000000;"/>
    <path clip-path="url(#pde381694a2)" d="M 195.350685 170.240055 
L 193.479314 169.801033 
L 194.859784 173.674792 
z
" style="stroke:#000000;"/>
    <path clip-path="url(#pde381694a2)" d="M 198.714465 193.769198 
L 197.955071 190.639385 
L 197.288326 190.665101 
z
" style="stroke:#000000;"/>
    <path clip-path="url(#pde381694a2)" d="M 203.064337 154.926424 
L 200.426319 157.603803 
L 201.088136 157.633899 
z
" style="stroke:#000000;"/>
    <path clip-path="url(#pde381694a2)" d="M 202.822292 202.091169 
L 200.980182 200.821422 
L 201.641128 200.778537 
z
" style="stroke:#000000;"/>
    <path clip-path="url(#pde381694a2)" d="M 197.288326 163.630643 
L 199.37897 160.552567 
L 198.714465 160.527416 
z
" style="stroke:#000000;"/>
    <path clip-path="url(#pde381694a2)" d="M 197.05557 194.824398 
L 199.539905 197.897112 
L 198.875652 197.935108 
z
" style="stroke:#000000;"/>
    <path clip-path="url(#pde381694a2)" d="M 194.342999 188.066447 
L 196.163078 187.415157 
L 195.350685 184.054506 
z
" style="stroke:#000000;"/>
    <path clip-path="url(#pde381694a2)" d="M 196.163078 166.8799 
L 194.342999 166.227499 
L 195.350685 170.240055 
z
" style="stroke:#000000;"/>
    <path clip-path="url(#pde381694a2)" d="M 196.163078 187.415157 
L 194.342999 188.066447 
L 195.539305 191.522887 
z
" style="stroke:#000000;"/>
    <path clip-path="url(#pde381694a2)" d="M 194.342999 166.227499 
L 196.163078 166.8799 
L 195.539305 162.771789 
z
" style="stroke:#000000;"/>
    <path clip-path="url(#pde381694a2)" d="M 201.088136 196.657946 
L 202.405632 199.407131 
L 203.064337 199.366625 
z
" style="stroke:#000000;"/>
    <path clip-path="url(#pde381694a2)" d="M 201.641128 153.513644 
L 202.163206 152.162437 
L 202.822292 152.201732 
z
" style="stroke:#000000;"/>
    <path clip-path="url(#pde381694a2)" d="M 202.163206 152.162437 
L 203.656829 152.668903 
L 202.822292 152.201732 
z
" style="stroke:#000000;"/>
    <path clip-path="url(#pde381694a2)" d="M 200.426319 196.693856 
L 199.37897 193.738235 
L 198.714465 193.769198 
z
" style="stroke:#000000;"/>
    <path clip-path="url(#pde381694a2)" d="M 195.539305 191.522887 
L 197.288326 190.665101 
L 196.163078 187.415157 
z
" style="stroke:#000000;"/>
    <path clip-path="url(#pde381694a2)" d="M 197.288326 163.630643 
L 195.539305 162.771789 
L 196.163078 166.8799 
z
" style="stroke:#000000;"/>
    <path clip-path="url(#pde381694a2)" d="M 202.999057 201.668839 
L 202.822292 202.091169 
L 203.656829 201.624507 
z
" style="stroke:#000000;"/>
    <path clip-path="url(#pde381694a2)" d="M 200.980182 153.476576 
L 199.539905 156.393789 
L 198.875652 156.361605 
z
" style="stroke:#000000;"/>
    <path clip-path="url(#pde381694a2)" d="M 202.405632 199.407131 
L 204.533597 200.998604 
L 203.064337 199.366625 
z
" style="stroke:#000000;"/>
    <path clip-path="url(#pde381694a2)" d="M 197.288326 190.665101 
L 195.539305 191.522887 
L 197.05557 194.824398 
z
" style="stroke:#000000;"/>
    <path clip-path="url(#pde381694a2)" d="M 195.539305 162.771789 
L 197.288326 163.630643 
L 197.05557 159.471204 
z
" style="stroke:#000000;"/>
    <path clip-path="url(#pde381694a2)" d="M 198.714465 160.527416 
L 201.088136 157.633899 
L 200.426319 157.603803 
z
" style="stroke:#000000;"/>
    <path clip-path="url(#pde381694a2)" d="M 202.999057 152.630391 
L 204.533597 153.29534 
L 203.656829 152.668903 
z
" style="stroke:#000000;"/>
    <path clip-path="url(#pde381694a2)" d="M 203.877207 153.257883 
L 203.064337 154.926424 
L 204.533597 153.29534 
z
" style="stroke:#000000;"/>
    <path clip-path="url(#pde381694a2)" d="M 198.875652 197.935108 
L 201.641128 200.778537 
L 200.980182 200.821422 
z
" style="stroke:#000000;"/>
    <path clip-path="url(#pde381694a2)" d="M 203.877207 201.041883 
L 203.656829 201.624507 
L 204.533597 200.998604 
z
" style="stroke:#000000;"/>
    <path clip-path="url(#pde381694a2)" d="M 197.05557 194.824398 
L 198.714465 193.769198 
L 197.288326 190.665101 
z
" style="stroke:#000000;"/>
    <path clip-path="url(#pde381694a2)" d="M 198.714465 160.527416 
L 197.05557 159.471204 
L 197.288326 163.630643 
z
" style="stroke:#000000;"/>
    <path clip-path="url(#pde381694a2)" d="M 202.405632 199.407131 
L 201.088136 196.657946 
L 200.426319 196.693856 
z
" style="stroke:#000000;"/>
    <path clip-path="url(#pde381694a2)" d="M 202.163206 152.162437 
L 201.641128 153.513644 
L 200.980182 153.476576 
z
" style="stroke:#000000;"/>
    <path clip-path="url(#pde381694a2)" d="M 198.875652 197.935108 
L 198.714465 193.769198 
L 197.05557 194.824398 
z
" style="stroke:#000000;"/>
    <path clip-path="url(#pde381694a2)" d="M 198.714465 160.527416 
L 198.875652 156.361605 
L 197.05557 159.471204 
z
" style="stroke:#000000;"/>
    <path clip-path="url(#pde381694a2)" d="M 200.426319 157.603803 
L 203.064337 154.926424 
L 202.405632 154.891736 
z
" style="stroke:#000000;"/>
    <path clip-path="url(#pde381694a2)" d="M 200.980182 200.821422 
L 202.822292 202.091169 
L 202.163206 202.136283 
z
" style="stroke:#000000;"/>
    <path clip-path="url(#pde381694a2)" d="M 202.822292 202.091169 
L 202.999057 201.668839 
L 202.163206 202.136283 
z
" style="stroke:#000000;"/>
    <path clip-path="url(#pde381694a2)" d="M 198.875652 197.935108 
L 200.426319 196.693856 
L 198.714465 193.769198 
z
" style="stroke:#000000;"/>
    <path clip-path="url(#pde381694a2)" d="M 200.426319 157.603803 
L 198.875652 156.361605 
L 198.714465 160.527416 
z
" style="stroke:#000000;"/>
    <path clip-path="url(#pde381694a2)" d="M 203.656829 152.668903 
L 202.163206 152.162437 
L 202.999057 152.630391 
z
" style="stroke:#000000;"/>
    <path clip-path="url(#pde381694a2)" d="M 203.064337 154.926424 
L 203.877207 153.257883 
L 202.405632 154.891736 
z
" style="stroke:#000000;"/>
    <path clip-path="url(#pde381694a2)" d="M 200.980182 200.821422 
L 200.426319 196.693856 
L 198.875652 197.935108 
z
" style="stroke:#000000;"/>
    <path clip-path="url(#pde381694a2)" d="M 200.426319 157.603803 
L 200.980182 153.476576 
L 198.875652 156.361605 
z
" style="stroke:#000000;"/>
    <path clip-path="url(#pde381694a2)" d="M 203.656829 201.624507 
L 203.877207 201.041883 
L 202.999057 201.668839 
z
" style="stroke:#000000;"/>
    <path clip-path="url(#pde381694a2)" d="M 204.533597 200.998604 
L 202.405632 199.407131 
L 203.877207 201.041883 
z
" style="stroke:#000000;"/>
    <path clip-path="url(#pde381694a2)" d="M 204.533597 153.29534 
L 202.999057 152.630391 
L 203.877207 153.257883 
z
" style="stroke:#000000;"/>
    <path clip-path="url(#pde381694a2)" d="M 200.980182 200.821422 
L 202.405632 199.407131 
L 200.426319 196.693856 
z
" style="stroke:#000000;"/>
    <path clip-path="url(#pde381694a2)" d="M 202.405632 154.891736 
L 200.980182 153.476576 
L 200.426319 157.603803 
z
" style="stroke:#000000;"/>
    <path clip-path="url(#pde381694a2)" d="M 202.999057 201.668839 
L 200.980182 200.821422 
L 202.163206 202.136283 
z
" style="stroke:#000000;"/>
    <path clip-path="url(#pde381694a2)" d="M 200.980182 153.476576 
L 202.999057 152.630391 
L 202.163206 152.162437 
z
" style="stroke:#000000;"/>
    <path clip-path="url(#pde381694a2)" d="M 200.980182 200.821422 
L 202.999057 201.668839 
L 202.405632 199.407131 
z
" style="stroke:#000000;"/>
    <path clip-path="url(#pde381694a2)" d="M 202.999057 152.630391 
L 200.980182 153.476576 
L 202.405632 154.891736 
z
" style="stroke:#000000;"/>
    <path clip-path="url(#pde381694a2)" d="M 202.405632 199.407131 
L 202.999057 201.668839 
L 203.877207 201.041883 
z
" style="stroke:#000000;"/>
    <path clip-path="url(#pde381694a2)" d="M 202.999057 152.630391 
L 202.405632 154.891736 
L 203.877207 153.257883 
z
" style="stroke:#000000;"/>
   </g>
  </g>
 </g>
 <defs>
  <clipPath id="pde381694a2">
   <rect height="271.8" width="279" x="45" y="43.2"/>
  </clipPath>
 </defs>
</svg>
