<?xml version="1.0" encoding="utf-8" standalone="no"?>
<!DOCTYPE svg PUBLIC "-//W3C//DTD SVG 1.1//EN"
  "http://www.w3.org/Graphics/SVG/1.1/DTD/svg11.dtd">
<!-- Created with matplotlib (https://matplotlib.org/) -->
<svg height="360pt" version="1.1" viewBox="0 0 360 360" width="360pt" xmlns="http://www.w3.org/2000/svg" xmlns:xlink="http://www.w3.org/1999/xlink">
 <defs>
  <style type="text/css">
*{stroke-linecap:butt;stroke-linejoin:round;}
  </style>
 </defs>
 <g id="figure_1">
  <g id="patch_1">
   <path d="M 45 315 
L 324 315 
L 324 43.2 
L 45 43.2 
z
" style="fill:#ffffff;"/>
  </g>
  <g id="axes_1">
   <g id="Poly3DCollection_1">
    <path clip-path="url(#p3de8576333)" d="M 179.858114 151.475317 
L 180.411861 153.83506 
L 179.039324 152.142948 
z
" style="stroke:#000000;"/>
    <path clip-path="url(#p3de8576333)" d="M 180.411861 200.437129 
L 179.858114 202.796145 
L 179.039324 202.12744 
z
" style="stroke:#000000;"/>
    <path clip-path="url(#p3de8576333)" d="M 179.858114 151.475317 
L 181.743443 152.335955 
L 180.411861 153.83506 
z
" style="stroke:#000000;"/>
    <path clip-path="url(#p3de8576333)" d="M 181.743443 201.937981 
L 179.858114 202.796145 
L 180.411861 200.437129 
z
" style="stroke:#000000;"/>
    <path clip-path="url(#p3de8576333)" d="M 177.640385 152.10593 
L 179.858114 151.475317 
L 179.039324 152.142948 
z
" style="stroke:#000000;"/>
    <path clip-path="url(#p3de8576333)" d="M 181.743443 152.335955 
L 179.858114 151.475317 
L 180.63818 150.974652 
z
" style="stroke:#000000;"/>
    <path clip-path="url(#p3de8576333)" d="M 179.858114 202.796145 
L 181.743443 201.937981 
L 180.63818 203.297834 
z
" style="stroke:#000000;"/>
    <path clip-path="url(#p3de8576333)" d="M 177.640385 202.169888 
L 180.411861 200.437129 
L 179.039324 202.12744 
z
" style="stroke:#000000;"/>
    <path clip-path="url(#p3de8576333)" d="M 178.460037 202.839671 
L 179.039324 202.12744 
L 179.858114 202.796145 
z
" style="stroke:#000000;"/>
    <path clip-path="url(#p3de8576333)" d="M 179.014367 153.800714 
L 179.039324 152.142948 
L 180.411861 153.83506 
z
" style="stroke:#000000;"/>
    <path clip-path="url(#p3de8576333)" d="M 181.743443 152.335955 
L 182.261382 156.654385 
L 180.411861 153.83506 
z
" style="stroke:#000000;"/>
    <path clip-path="url(#p3de8576333)" d="M 182.261382 197.620231 
L 181.743443 201.937981 
L 180.411861 200.437129 
z
" style="stroke:#000000;"/>
    <path clip-path="url(#p3de8576333)" d="M 178.460037 151.437226 
L 180.63818 150.974652 
L 179.858114 151.475317 
z
" style="stroke:#000000;"/>
    <path clip-path="url(#p3de8576333)" d="M 179.240924 203.342171 
L 179.858114 202.796145 
L 180.63818 203.297834 
z
" style="stroke:#000000;"/>
    <path clip-path="url(#p3de8576333)" d="M 179.039324 202.12744 
L 178.460037 202.839671 
L 177.640385 202.169888 
z
" style="stroke:#000000;"/>
    <path clip-path="url(#p3de8576333)" d="M 179.039324 152.142948 
L 179.014367 153.800714 
L 177.640385 152.10593 
z
" style="stroke:#000000;"/>
    <path clip-path="url(#p3de8576333)" d="M 179.858114 151.475317 
L 177.640385 152.10593 
L 178.460037 151.437226 
z
" style="stroke:#000000;"/>
    <path clip-path="url(#p3de8576333)" d="M 181.743443 201.937981 
L 179.240924 203.342171 
L 180.63818 203.297834 
z
" style="stroke:#000000;"/>
    <path clip-path="url(#p3de8576333)" d="M 182.261382 156.654385 
L 179.014367 153.800714 
L 180.411861 153.83506 
z
" style="stroke:#000000;"/>
    <path clip-path="url(#p3de8576333)" d="M 183.71311 155.335898 
L 182.261382 156.654385 
L 181.743443 152.335955 
z
" style="stroke:#000000;"/>
    <path clip-path="url(#p3de8576333)" d="M 182.261382 197.620231 
L 183.71311 198.940623 
L 181.743443 201.937981 
z
" style="stroke:#000000;"/>
    <path clip-path="url(#p3de8576333)" d="M 180.411861 200.437129 
L 177.640385 202.169888 
L 179.014367 200.476912 
z
" style="stroke:#000000;"/>
    <path clip-path="url(#p3de8576333)" d="M 180.63818 150.974652 
L 180.347352 152.299207 
L 181.743443 152.335955 
z
" style="stroke:#000000;"/>
    <path clip-path="url(#p3de8576333)" d="M 179.858114 202.796145 
L 179.240924 203.342171 
L 178.460037 202.839671 
z
" style="stroke:#000000;"/>
    <path clip-path="url(#p3de8576333)" d="M 180.411861 200.437129 
L 180.865838 197.655558 
L 182.261382 197.620231 
z
" style="stroke:#000000;"/>
    <path clip-path="url(#p3de8576333)" d="M 180.63818 150.974652 
L 178.460037 151.437226 
L 179.240924 150.935753 
z
" style="stroke:#000000;"/>
    <path clip-path="url(#p3de8576333)" d="M 183.71311 155.335898 
L 183.864151 159.703888 
L 182.261382 156.654385 
z
" style="stroke:#000000;"/>
    <path clip-path="url(#p3de8576333)" d="M 183.864151 194.572832 
L 183.71311 198.940623 
L 182.261382 197.620231 
z
" style="stroke:#000000;"/>
    <path clip-path="url(#p3de8576333)" d="M 180.347352 152.299207 
L 180.63818 150.974652 
L 179.240924 150.935753 
z
" style="stroke:#000000;"/>
    <path clip-path="url(#p3de8576333)" d="M 183.71311 198.940623 
L 180.347352 201.980173 
L 181.743443 201.937981 
z
" style="stroke:#000000;"/>
    <path clip-path="url(#p3de8576333)" d="M 180.865838 197.655558 
L 180.411861 200.437129 
L 179.014367 200.476912 
z
" style="stroke:#000000;"/>
    <path clip-path="url(#p3de8576333)" d="M 178.460037 202.839671 
L 179.014367 200.476912 
L 177.640385 202.169888 
z
" style="stroke:#000000;"/>
    <path clip-path="url(#p3de8576333)" d="M 179.014367 153.800714 
L 178.460037 151.437226 
L 177.640385 152.10593 
z
" style="stroke:#000000;"/>
    <path clip-path="url(#p3de8576333)" d="M 179.240924 203.342171 
L 181.743443 201.937981 
L 180.347352 201.980173 
z
" style="stroke:#000000;"/>
    <path clip-path="url(#p3de8576333)" d="M 183.864151 159.703888 
L 180.865838 156.624503 
L 182.261382 156.654385 
z
" style="stroke:#000000;"/>
    <path clip-path="url(#p3de8576333)" d="M 185.420148 158.581003 
L 183.864151 159.703888 
L 183.71311 155.335898 
z
" style="stroke:#000000;"/>
    <path clip-path="url(#p3de8576333)" d="M 183.864151 194.572832 
L 185.420148 195.697759 
L 183.71311 198.940623 
z
" style="stroke:#000000;"/>
    <path clip-path="url(#p3de8576333)" d="M 179.014367 153.800714 
L 182.261382 156.654385 
L 180.865838 156.624503 
z
" style="stroke:#000000;"/>
    <path clip-path="url(#p3de8576333)" d="M 181.743443 152.335955 
L 182.319099 155.3039 
L 183.71311 155.335898 
z
" style="stroke:#000000;"/>
    <path clip-path="url(#p3de8576333)" d="M 182.261382 197.620231 
L 182.4703 194.603327 
L 183.864151 194.572832 
z
" style="stroke:#000000;"/>
    <path clip-path="url(#p3de8576333)" d="M 178.460037 202.839671 
L 180.347352 201.980173 
L 179.014367 200.476912 
z
" style="stroke:#000000;"/>
    <path clip-path="url(#p3de8576333)" d="M 180.347352 152.299207 
L 178.460037 151.437226 
L 179.014367 153.800714 
z
" style="stroke:#000000;"/>
    <path clip-path="url(#p3de8576333)" d="M 183.864151 159.703888 
L 185.420148 158.581003 
L 185.201662 162.949488 
z
" style="stroke:#000000;"/>
    <path clip-path="url(#p3de8576333)" d="M 185.420148 195.697759 
L 183.864151 194.572832 
L 185.201662 191.328987 
z
" style="stroke:#000000;"/>
    <path clip-path="url(#p3de8576333)" d="M 180.347352 201.980173 
L 178.460037 202.839671 
L 179.240924 203.342171 
z
" style="stroke:#000000;"/>
    <path clip-path="url(#p3de8576333)" d="M 178.460037 151.437226 
L 180.347352 152.299207 
L 179.240924 150.935753 
z
" style="stroke:#000000;"/>
    <path clip-path="url(#p3de8576333)" d="M 182.319099 155.3039 
L 181.743443 152.335955 
L 180.347352 152.299207 
z
" style="stroke:#000000;"/>
    <path clip-path="url(#p3de8576333)" d="M 182.4703 194.603327 
L 182.261382 197.620231 
L 180.865838 197.655558 
z
" style="stroke:#000000;"/>
    <path clip-path="url(#p3de8576333)" d="M 180.347352 201.980173 
L 180.865838 197.655558 
L 179.014367 200.476912 
z
" style="stroke:#000000;"/>
    <path clip-path="url(#p3de8576333)" d="M 180.865838 156.624503 
L 180.347352 152.299207 
L 179.014367 153.800714 
z
" style="stroke:#000000;"/>
    <path clip-path="url(#p3de8576333)" d="M 185.420148 195.697759 
L 182.319099 198.978073 
L 183.71311 198.940623 
z
" style="stroke:#000000;"/>
    <path clip-path="url(#p3de8576333)" d="M 185.201662 162.949488 
L 182.4703 159.678845 
L 183.864151 159.703888 
z
" style="stroke:#000000;"/>
    <path clip-path="url(#p3de8576333)" d="M 186.84479 162.035353 
L 185.201662 162.949488 
L 185.420148 158.581003 
z
" style="stroke:#000000;"/>
    <path clip-path="url(#p3de8576333)" d="M 185.201662 191.328987 
L 186.84479 192.245279 
L 185.420148 195.697759 
z
" style="stroke:#000000;"/>
    <path clip-path="url(#p3de8576333)" d="M 180.347352 201.980173 
L 183.71311 198.940623 
L 182.319099 198.978073 
z
" style="stroke:#000000;"/>
    <path clip-path="url(#p3de8576333)" d="M 180.865838 156.624503 
L 183.864151 159.703888 
L 182.4703 159.678845 
z
" style="stroke:#000000;"/>
    <path clip-path="url(#p3de8576333)" d="M 185.201662 162.949488 
L 186.84479 162.035353 
L 186.258429 166.354941 
z
" style="stroke:#000000;"/>
    <path clip-path="url(#p3de8576333)" d="M 186.84479 192.245279 
L 185.201662 191.328987 
L 186.258429 187.924922 
z
" style="stroke:#000000;"/>
    <path clip-path="url(#p3de8576333)" d="M 183.864151 194.572832 
L 183.809227 191.354328 
L 185.201662 191.328987 
z
" style="stroke:#000000;"/>
    <path clip-path="url(#p3de8576333)" d="M 183.71311 155.335898 
L 184.027944 158.554155 
L 185.420148 158.581003 
z
" style="stroke:#000000;"/>
    <path clip-path="url(#p3de8576333)" d="M 182.319099 198.978073 
L 180.865838 197.655558 
L 180.347352 201.980173 
z
" style="stroke:#000000;"/>
    <path clip-path="url(#p3de8576333)" d="M 180.865838 156.624503 
L 182.319099 155.3039 
L 180.347352 152.299207 
z
" style="stroke:#000000;"/>
    <path clip-path="url(#p3de8576333)" d="M 186.258429 166.354941 
L 183.809227 162.929604 
L 185.201662 162.949488 
z
" style="stroke:#000000;"/>
    <path clip-path="url(#p3de8576333)" d="M 187.970447 165.660143 
L 186.258429 166.354941 
L 186.84479 162.035353 
z
" style="stroke:#000000;"/>
    <path clip-path="url(#p3de8576333)" d="M 186.258429 187.924922 
L 187.970447 188.621966 
L 186.84479 192.245279 
z
" style="stroke:#000000;"/>
    <path clip-path="url(#p3de8576333)" d="M 184.027944 158.554155 
L 183.71311 155.335898 
L 182.319099 155.3039 
z
" style="stroke:#000000;"/>
    <path clip-path="url(#p3de8576333)" d="M 183.809227 191.354328 
L 183.864151 194.572832 
L 182.4703 194.603327 
z
" style="stroke:#000000;"/>
    <path clip-path="url(#p3de8576333)" d="M 186.258429 166.354941 
L 187.970447 165.660143 
L 187.022174 169.881999 
z
" style="stroke:#000000;"/>
    <path clip-path="url(#p3de8576333)" d="M 187.970447 188.621966 
L 186.258429 187.924922 
L 187.022174 184.398866 
z
" style="stroke:#000000;"/>
    <path clip-path="url(#p3de8576333)" d="M 186.84479 192.245279 
L 184.027944 195.730065 
L 185.420148 195.697759 
z
" style="stroke:#000000;"/>
    <path clip-path="url(#p3de8576333)" d="M 185.201662 191.328987 
L 184.867113 187.944846 
L 186.258429 187.924922 
z
" style="stroke:#000000;"/>
    <path clip-path="url(#p3de8576333)" d="M 182.4703 159.678845 
L 182.319099 155.3039 
L 180.865838 156.624503 
z
" style="stroke:#000000;"/>
    <path clip-path="url(#p3de8576333)" d="M 182.319099 198.978073 
L 182.4703 194.603327 
L 180.865838 197.655558 
z
" style="stroke:#000000;"/>
    <path clip-path="url(#p3de8576333)" d="M 182.4703 159.678845 
L 185.201662 162.949488 
L 183.809227 162.929604 
z
" style="stroke:#000000;"/>
    <path clip-path="url(#p3de8576333)" d="M 182.319099 198.978073 
L 185.420148 195.697759 
L 184.027944 195.730065 
z
" style="stroke:#000000;"/>
    <path clip-path="url(#p3de8576333)" d="M 185.420148 158.581003 
L 185.454096 162.013999 
L 186.84479 162.035353 
z
" style="stroke:#000000;"/>
    <path clip-path="url(#p3de8576333)" d="M 187.022174 169.881999 
L 188.784028 169.414636 
L 187.484004 173.490877 
z
" style="stroke:#000000;"/>
    <path clip-path="url(#p3de8576333)" d="M 188.784028 184.868542 
L 187.022174 184.398866 
L 187.484004 180.790594 
z
" style="stroke:#000000;"/>
    <path clip-path="url(#p3de8576333)" d="M 187.022174 169.881999 
L 184.867113 166.340478 
L 186.258429 166.354941 
z
" style="stroke:#000000;"/>
    <path clip-path="url(#p3de8576333)" d="M 188.784028 169.414636 
L 187.022174 169.881999 
L 187.970447 165.660143 
z
" style="stroke:#000000;"/>
    <path clip-path="url(#p3de8576333)" d="M 187.022174 184.398866 
L 188.784028 184.868542 
L 187.970447 188.621966 
z
" style="stroke:#000000;"/>
    <path clip-path="url(#p3de8576333)" d="M 189.276016 181.0274 
L 187.484004 180.790594 
L 187.638556 177.140837 
z
" style="stroke:#000000;"/>
    <path clip-path="url(#p3de8576333)" d="M 187.484004 173.490877 
L 189.276016 173.256423 
L 187.638556 177.140837 
z
" style="stroke:#000000;"/>
    <path clip-path="url(#p3de8576333)" d="M 186.258429 187.924922 
L 185.631669 184.413174 
L 187.022174 184.398866 
z
" style="stroke:#000000;"/>
    <path clip-path="url(#p3de8576333)" d="M 184.867113 187.944846 
L 185.201662 191.328987 
L 183.809227 191.354328 
z
" style="stroke:#000000;"/>
    <path clip-path="url(#p3de8576333)" d="M 184.027944 195.730065 
L 182.4703 194.603327 
L 182.319099 198.978073 
z
" style="stroke:#000000;"/>
    <path clip-path="url(#p3de8576333)" d="M 182.4703 159.678845 
L 184.027944 158.554155 
L 182.319099 155.3039 
z
" style="stroke:#000000;"/>
    <path clip-path="url(#p3de8576333)" d="M 189.276016 173.256423 
L 187.484004 173.490877 
L 188.784028 169.414636 
z
" style="stroke:#000000;"/>
    <path clip-path="url(#p3de8576333)" d="M 187.484004 180.790594 
L 189.276016 181.0274 
L 188.784028 184.868542 
z
" style="stroke:#000000;"/>
    <path clip-path="url(#p3de8576333)" d="M 187.484004 173.490877 
L 185.631669 169.873156 
L 187.022174 169.881999 
z
" style="stroke:#000000;"/>
    <path clip-path="url(#p3de8576333)" d="M 187.970447 188.621966 
L 185.454096 192.272098 
L 186.84479 192.245279 
z
" style="stroke:#000000;"/>
    <path clip-path="url(#p3de8576333)" d="M 185.454096 162.013999 
L 185.420148 158.581003 
L 184.027944 158.554155 
z
" style="stroke:#000000;"/>
    <path clip-path="url(#p3de8576333)" d="M 183.809227 162.929604 
L 186.258429 166.354941 
L 184.867113 166.340478 
z
" style="stroke:#000000;"/>
    <path clip-path="url(#p3de8576333)" d="M 187.022174 184.398866 
L 186.093989 180.799149 
L 187.484004 180.790594 
z
" style="stroke:#000000;"/>
    <path clip-path="url(#p3de8576333)" d="M 189.440651 177.14202 
L 187.638556 177.140837 
L 189.276016 173.256423 
z
" style="stroke:#000000;"/>
    <path clip-path="url(#p3de8576333)" d="M 187.638556 177.140837 
L 189.440651 177.14202 
L 189.276016 181.0274 
z
" style="stroke:#000000;"/>
    <path clip-path="url(#p3de8576333)" d="M 187.638556 177.140837 
L 186.093989 173.487789 
L 187.484004 173.490877 
z
" style="stroke:#000000;"/>
    <path clip-path="url(#p3de8576333)" d="M 187.484004 180.790594 
L 186.248705 177.143571 
L 187.638556 177.140837 
z
" style="stroke:#000000;"/>
    <path clip-path="url(#p3de8576333)" d="M 186.84479 162.035353 
L 186.580949 165.644562 
L 187.970447 165.660143 
z
" style="stroke:#000000;"/>
    <path clip-path="url(#p3de8576333)" d="M 182.4703 194.603327 
L 184.027944 195.730065 
L 183.809227 191.354328 
z
" style="stroke:#000000;"/>
    <path clip-path="url(#p3de8576333)" d="M 184.027944 158.554155 
L 182.4703 159.678845 
L 183.809227 162.929604 
z
" style="stroke:#000000;"/>
    <path clip-path="url(#p3de8576333)" d="M 184.027944 195.730065 
L 186.84479 192.245279 
L 185.454096 192.272098 
z
" style="stroke:#000000;"/>
    <path clip-path="url(#p3de8576333)" d="M 185.631669 184.413174 
L 186.258429 187.924922 
L 184.867113 187.944846 
z
" style="stroke:#000000;"/>
    <path clip-path="url(#p3de8576333)" d="M 191.847316 160.771999 
L 187.338449 153.368452 
L 188.839676 153.820338 
z
" style="stroke:#000000;"/>
    <path clip-path="url(#p3de8576333)" d="M 191.847316 149.609544 
L 188.839676 153.820338 
L 187.338449 153.368452 
z
" style="stroke:#000000;"/>
    <path clip-path="url(#p3de8576333)" d="M 184.867113 166.340478 
L 187.022174 169.881999 
L 185.631669 169.873156 
z
" style="stroke:#000000;"/>
    <path clip-path="url(#p3de8576333)" d="M 188.784028 184.868542 
L 186.580949 188.643016 
L 187.970447 188.621966 
z
" style="stroke:#000000;"/>
    <path clip-path="url(#p3de8576333)" d="M 187.970447 165.660143 
L 187.395394 169.405041 
L 188.784028 169.414636 
z
" style="stroke:#000000;"/>
    <path clip-path="url(#p3de8576333)" d="M 186.093989 180.799149 
L 187.022174 184.398866 
L 185.631669 184.413174 
z
" style="stroke:#000000;"/>
    <path clip-path="url(#p3de8576333)" d="M 185.454096 192.272098 
L 183.809227 191.354328 
L 184.027944 195.730065 
z
" style="stroke:#000000;"/>
    <path clip-path="url(#p3de8576333)" d="M 183.809227 162.929604 
L 185.454096 162.013999 
L 184.027944 158.554155 
z
" style="stroke:#000000;"/>
    <path clip-path="url(#p3de8576333)" d="M 186.580949 165.644562 
L 186.84479 162.035353 
L 185.454096 162.013999 
z
" style="stroke:#000000;"/>
    <path clip-path="url(#p3de8576333)" d="M 185.631669 169.873156 
L 187.484004 173.490877 
L 186.093989 173.487789 
z
" style="stroke:#000000;"/>
    <path clip-path="url(#p3de8576333)" d="M 185.948279 153.333271 
L 191.847316 149.609544 
L 187.338449 153.368452 
z
" style="stroke:#000000;"/>
    <path clip-path="url(#p3de8576333)" d="M 191.847316 164.492817 
L 185.948279 153.333271 
L 187.338449 153.368452 
z
" style="stroke:#000000;"/>
    <path clip-path="url(#p3de8576333)" d="M 183.809227 191.354328 
L 185.454096 192.272098 
L 184.867113 187.944846 
z
" style="stroke:#000000;"/>
    <path clip-path="url(#p3de8576333)" d="M 185.454096 162.013999 
L 183.809227 162.929604 
L 184.867113 166.340478 
z
" style="stroke:#000000;"/>
    <path clip-path="url(#p3de8576333)" d="M 186.248705 177.143571 
L 187.484004 180.790594 
L 186.093989 180.799149 
z
" style="stroke:#000000;"/>
    <path clip-path="url(#p3de8576333)" d="M 189.276016 181.0274 
L 187.395394 184.883608 
L 188.784028 184.868542 
z
" style="stroke:#000000;"/>
    <path clip-path="url(#p3de8576333)" d="M 191.847316 160.771999 
L 191.847316 164.492817 
L 187.338449 153.368452 
z
" style="stroke:#000000;"/>
    <path clip-path="url(#p3de8576333)" d="M 186.093989 173.487789 
L 187.638556 177.140837 
L 186.248705 177.143571 
z
" style="stroke:#000000;"/>
    <path clip-path="url(#p3de8576333)" d="M 185.454096 192.272098 
L 187.970447 188.621966 
L 186.580949 188.643016 
z
" style="stroke:#000000;"/>
    <path clip-path="url(#p3de8576333)" d="M 188.784028 169.414636 
L 187.887906 173.252959 
L 189.276016 173.256423 
z
" style="stroke:#000000;"/>
    <path clip-path="url(#p3de8576333)" d="M 189.440651 177.14202 
L 187.887906 181.036339 
L 189.276016 181.0274 
z
" style="stroke:#000000;"/>
    <path clip-path="url(#p3de8576333)" d="M 189.276016 173.256423 
L 188.052715 177.144757 
L 189.440651 177.14202 
z
" style="stroke:#000000;"/>
    <path clip-path="url(#p3de8576333)" d="M 191.847316 149.609544 
L 191.847316 151.469954 
L 188.839676 153.820338 
z
" style="stroke:#000000;"/>
    <path clip-path="url(#p3de8576333)" d="M 187.395394 169.405041 
L 187.970447 165.660143 
L 186.580949 165.644562 
z
" style="stroke:#000000;"/>
    <path clip-path="url(#p3de8576333)" d="M 186.580949 188.643016 
L 184.867113 187.944846 
L 185.454096 192.272098 
z
" style="stroke:#000000;"/>
    <path clip-path="url(#p3de8576333)" d="M 184.867113 166.340478 
L 186.580949 165.644562 
L 185.454096 162.013999 
z
" style="stroke:#000000;"/>
    <path clip-path="url(#p3de8576333)" d="M 184.867113 187.944846 
L 186.580949 188.643016 
L 185.631669 184.413174 
z
" style="stroke:#000000;"/>
    <path clip-path="url(#p3de8576333)" d="M 186.580949 165.644562 
L 184.867113 166.340478 
L 185.631669 169.873156 
z
" style="stroke:#000000;"/>
    <path clip-path="url(#p3de8576333)" d="M 186.580949 188.643016 
L 188.784028 184.868542 
L 187.395394 184.883608 
z
" style="stroke:#000000;"/>
    <path clip-path="url(#p3de8576333)" d="M 187.887906 173.252959 
L 188.784028 169.414636 
L 187.395394 169.405041 
z
" style="stroke:#000000;"/>
    <path clip-path="url(#p3de8576333)" d="M 187.395394 184.883608 
L 189.276016 181.0274 
L 187.887906 181.036339 
z
" style="stroke:#000000;"/>
    <path clip-path="url(#p3de8576333)" d="M 185.631669 184.413174 
L 187.395394 184.883608 
L 186.093989 180.799149 
z
" style="stroke:#000000;"/>
    <path clip-path="url(#p3de8576333)" d="M 187.395394 169.405041 
L 185.631669 169.873156 
L 186.093989 173.487789 
z
" style="stroke:#000000;"/>
    <path clip-path="url(#p3de8576333)" d="M 187.395394 184.883608 
L 185.631669 184.413174 
L 186.580949 188.643016 
z
" style="stroke:#000000;"/>
    <path clip-path="url(#p3de8576333)" d="M 185.631669 169.873156 
L 187.395394 169.405041 
L 186.580949 165.644562 
z
" style="stroke:#000000;"/>
    <path clip-path="url(#p3de8576333)" d="M 188.052715 177.144757 
L 189.276016 173.256423 
L 187.887906 173.252959 
z
" style="stroke:#000000;"/>
    <path clip-path="url(#p3de8576333)" d="M 187.887906 181.036339 
L 189.440651 177.14202 
L 188.052715 177.144757 
z
" style="stroke:#000000;"/>
    <path clip-path="url(#p3de8576333)" d="M 190.461945 151.431678 
L 188.839676 153.820338 
L 191.847316 151.469954 
z
" style="stroke:#000000;"/>
    <path clip-path="url(#p3de8576333)" d="M 188.839676 153.820338 
L 190.461945 160.748585 
L 191.847316 160.771999 
z
" style="stroke:#000000;"/>
    <path clip-path="url(#p3de8576333)" d="M 187.887906 173.252959 
L 186.093989 173.487789 
L 186.248705 177.143571 
z
" style="stroke:#000000;"/>
    <path clip-path="url(#p3de8576333)" d="M 186.093989 180.799149 
L 187.887906 181.036339 
L 186.248705 177.143571 
z
" style="stroke:#000000;"/>
    <path clip-path="url(#p3de8576333)" d="M 188.839676 153.820338 
L 190.461945 151.431678 
L 187.451102 153.785858 
z
" style="stroke:#000000;"/>
    <path clip-path="url(#p3de8576333)" d="M 190.461945 160.748585 
L 188.839676 153.820338 
L 187.451102 153.785858 
z
" style="stroke:#000000;"/>
    <path clip-path="url(#p3de8576333)" d="M 187.887906 181.036339 
L 186.093989 180.799149 
L 187.395394 184.883608 
z
" style="stroke:#000000;"/>
    <path clip-path="url(#p3de8576333)" d="M 186.093989 173.487789 
L 187.887906 173.252959 
L 187.395394 169.405041 
z
" style="stroke:#000000;"/>
    <path clip-path="url(#p3de8576333)" d="M 191.847316 149.609544 
L 194.861888 153.770535 
L 191.847316 151.469954 
z
" style="stroke:#000000;"/>
    <path clip-path="url(#p3de8576333)" d="M 188.052715 177.144757 
L 186.248705 177.143571 
L 187.887906 181.036339 
z
" style="stroke:#000000;"/>
    <path clip-path="url(#p3de8576333)" d="M 186.248705 177.143571 
L 188.052715 177.144757 
L 187.887906 173.252959 
z
" style="stroke:#000000;"/>
    <path clip-path="url(#p3de8576333)" d="M 191.847316 149.609544 
L 185.948279 153.333271 
L 190.461945 149.568297 
z
" style="stroke:#000000;"/>
    <path clip-path="url(#p3de8576333)" d="M 185.948279 153.333271 
L 191.847316 164.492817 
L 190.461945 164.475348 
z
" style="stroke:#000000;"/>
    <path clip-path="url(#p3de8576333)" d="M 191.847316 160.771999 
L 196.371781 153.292141 
L 191.847316 164.492817 
z
" style="stroke:#000000;"/>
    <path clip-path="url(#p3de8576333)" d="M 187.451102 153.785858 
L 190.461945 149.568297 
L 185.948279 153.333271 
z
" style="stroke:#000000;"/>
    <path clip-path="url(#p3de8576333)" d="M 185.948279 153.333271 
L 190.461945 160.748585 
L 187.451102 153.785858 
z
" style="stroke:#000000;"/>
    <path clip-path="url(#p3de8576333)" d="M 194.861888 153.770535 
L 191.847316 149.609544 
L 196.371781 153.292141 
z
" style="stroke:#000000;"/>
    <path clip-path="url(#p3de8576333)" d="M 196.371781 153.292141 
L 191.847316 160.771999 
L 194.861888 153.770535 
z
" style="stroke:#000000;"/>
    <path clip-path="url(#p3de8576333)" d="M 190.461945 160.748585 
L 185.948279 153.333271 
L 190.461945 164.475348 
z
" style="stroke:#000000;"/>
    <path clip-path="url(#p3de8576333)" d="M 190.461945 149.568297 
L 196.371781 153.292141 
L 191.847316 149.609544 
z
" style="stroke:#000000;"/>
    <path clip-path="url(#p3de8576333)" d="M 196.371781 153.292141 
L 190.461945 164.475348 
L 191.847316 164.492817 
z
" style="stroke:#000000;"/>
    <path clip-path="url(#p3de8576333)" d="M 196.069664 177.14637 
L 194.258418 177.145181 
L 194.423681 173.252147 
z
" style="stroke:#000000;"/>
    <path clip-path="url(#p3de8576333)" d="M 194.258418 177.145181 
L 196.069664 177.14637 
L 194.423681 181.038432 
z
" style="stroke:#000000;"/>
    <path clip-path="url(#p3de8576333)" d="M 190.461945 149.568297 
L 187.451102 153.785858 
L 190.461945 151.431678 
z
" style="stroke:#000000;"/>
    <path clip-path="url(#p3de8576333)" d="M 196.225234 173.484396 
L 194.423681 173.252147 
L 194.917796 169.40052 
z
" style="stroke:#000000;"/>
    <path clip-path="url(#p3de8576333)" d="M 194.423681 181.038432 
L 196.225234 180.808548 
L 194.917796 184.890708 
z
" style="stroke:#000000;"/>
    <path clip-path="url(#p3de8576333)" d="M 193.47974 153.735895 
L 191.847316 151.469954 
L 194.861888 153.770535 
z
" style="stroke:#000000;"/>
    <path clip-path="url(#p3de8576333)" d="M 191.847316 160.771999 
L 193.47974 153.735895 
L 194.861888 153.770535 
z
" style="stroke:#000000;"/>
    <path clip-path="url(#p3de8576333)" d="M 196.225234 180.808548 
L 194.423681 181.038432 
L 196.069664 177.14637 
z
" style="stroke:#000000;"/>
    <path clip-path="url(#p3de8576333)" d="M 194.423681 173.252147 
L 196.225234 173.484396 
L 196.069664 177.14637 
z
" style="stroke:#000000;"/>
    <path clip-path="url(#p3de8576333)" d="M 191.847316 151.469954 
L 193.47974 153.735895 
L 190.461945 151.431678 
z
" style="stroke:#000000;"/>
    <path clip-path="url(#p3de8576333)" d="M 193.47974 153.735895 
L 191.847316 160.771999 
L 190.461945 160.748585 
z
" style="stroke:#000000;"/>
    <path clip-path="url(#p3de8576333)" d="M 194.423681 181.038432 
L 192.875624 177.147929 
L 194.258418 177.145181 
z
" style="stroke:#000000;"/>
    <path clip-path="url(#p3de8576333)" d="M 194.258418 177.145181 
L 193.041064 173.248669 
L 194.423681 173.252147 
z
" style="stroke:#000000;"/>
    <path clip-path="url(#p3de8576333)" d="M 196.690325 169.861465 
L 194.917796 169.40052 
L 195.735711 165.631105 
z
" style="stroke:#000000;"/>
    <path clip-path="url(#p3de8576333)" d="M 194.917796 184.890708 
L 196.690325 184.432089 
L 195.735711 188.661197 
z
" style="stroke:#000000;"/>
    <path clip-path="url(#p3de8576333)" d="M 194.917796 169.40052 
L 196.690325 169.861465 
L 196.225234 173.484396 
z
" style="stroke:#000000;"/>
    <path clip-path="url(#p3de8576333)" d="M 196.690325 184.432089 
L 194.917796 184.890708 
L 196.225234 180.808548 
z
" style="stroke:#000000;"/>
    <path clip-path="url(#p3de8576333)" d="M 194.917796 184.890708 
L 193.041064 181.047406 
L 194.423681 181.038432 
z
" style="stroke:#000000;"/>
    <path clip-path="url(#p3de8576333)" d="M 194.423681 173.252147 
L 193.535708 169.390881 
L 194.917796 169.40052 
z
" style="stroke:#000000;"/>
    <path clip-path="url(#p3de8576333)" d="M 195.735711 188.661197 
L 193.535708 184.905845 
L 194.917796 184.890708 
z
" style="stroke:#000000;"/>
    <path clip-path="url(#p3de8576333)" d="M 195.735711 165.631105 
L 197.460189 166.316006 
L 196.690325 169.861465 
z
" style="stroke:#000000;"/>
    <path clip-path="url(#p3de8576333)" d="M 197.460189 187.978559 
L 195.735711 188.661197 
L 196.690325 184.432089 
z
" style="stroke:#000000;"/>
    <path clip-path="url(#p3de8576333)" d="M 197.460189 166.316006 
L 195.735711 165.631105 
L 196.86905 161.983933 
z
" style="stroke:#000000;"/>
    <path clip-path="url(#p3de8576333)" d="M 195.735711 188.661197 
L 197.460189 187.978559 
L 196.86905 192.309856 
z
" style="stroke:#000000;"/>
    <path clip-path="url(#p3de8576333)" d="M 194.917796 169.40052 
L 194.354499 165.615431 
L 195.735711 165.631105 
z
" style="stroke:#000000;"/>
    <path clip-path="url(#p3de8576333)" d="M 193.47974 153.735895 
L 190.461945 149.568297 
L 190.461945 151.431678 
z
" style="stroke:#000000;"/>
    <path clip-path="url(#p3de8576333)" d="M 193.041064 173.248669 
L 194.258418 177.145181 
L 192.875624 177.147929 
z
" style="stroke:#000000;"/>
    <path clip-path="url(#p3de8576333)" d="M 192.875624 177.147929 
L 194.423681 181.038432 
L 193.041064 181.047406 
z
" style="stroke:#000000;"/>
    <path clip-path="url(#p3de8576333)" d="M 193.535708 169.390881 
L 194.423681 173.252147 
L 193.041064 173.248669 
z
" style="stroke:#000000;"/>
    <path clip-path="url(#p3de8576333)" d="M 196.86905 192.309856 
L 194.354499 188.682372 
L 195.735711 188.661197 
z
" style="stroke:#000000;"/>
    <path clip-path="url(#p3de8576333)" d="M 196.225234 173.484396 
L 194.68881 177.149121 
L 196.069664 177.14637 
z
" style="stroke:#000000;"/>
    <path clip-path="url(#p3de8576333)" d="M 194.991252 153.256716 
L 190.461945 160.748585 
L 190.461945 164.475348 
z
" style="stroke:#000000;"/>
    <path clip-path="url(#p3de8576333)" d="M 193.041064 181.047406 
L 194.917796 184.890708 
L 193.535708 184.905845 
z
" style="stroke:#000000;"/>
    <path clip-path="url(#p3de8576333)" d="M 196.069664 177.14637 
L 194.844547 180.81716 
L 196.225234 180.808548 
z
" style="stroke:#000000;"/>
    <path clip-path="url(#p3de8576333)" d="M 196.86905 161.983933 
L 198.526911 162.885762 
L 197.460189 166.316006 
z
" style="stroke:#000000;"/>
    <path clip-path="url(#p3de8576333)" d="M 198.526911 191.410203 
L 196.86905 192.309856 
L 197.460189 187.978559 
z
" style="stroke:#000000;"/>
    <path clip-path="url(#p3de8576333)" d="M 196.371781 153.292141 
L 190.461945 149.568297 
L 194.991252 153.256716 
z
" style="stroke:#000000;"/>
    <path clip-path="url(#p3de8576333)" d="M 190.461945 164.475348 
L 196.371781 153.292141 
L 194.991252 153.256716 
z
" style="stroke:#000000;"/>
    <path clip-path="url(#p3de8576333)" d="M 196.690325 169.861465 
L 194.844547 173.481287 
L 196.225234 173.484396 
z
" style="stroke:#000000;"/>
    <path clip-path="url(#p3de8576333)" d="M 195.735711 165.631105 
L 195.489054 161.962414 
L 196.86905 161.983933 
z
" style="stroke:#000000;"/>
    <path clip-path="url(#p3de8576333)" d="M 198.526911 162.885762 
L 196.86905 161.983933 
L 198.306225 158.497808 
z
" style="stroke:#000000;"/>
    <path clip-path="url(#p3de8576333)" d="M 196.86905 192.309856 
L 198.526911 191.410203 
L 198.306225 195.797868 
z
" style="stroke:#000000;"/>
    <path clip-path="url(#p3de8576333)" d="M 196.225234 180.808548 
L 195.310137 184.446503 
L 196.690325 184.432089 
z
" style="stroke:#000000;"/>
    <path clip-path="url(#p3de8576333)" d="M 194.354499 165.615431 
L 194.917796 169.40052 
L 193.535708 169.390881 
z
" style="stroke:#000000;"/>
    <path clip-path="url(#p3de8576333)" d="M 193.535708 184.905845 
L 195.735711 188.661197 
L 194.354499 188.682372 
z
" style="stroke:#000000;"/>
    <path clip-path="url(#p3de8576333)" d="M 197.460189 166.316006 
L 195.310137 169.852557 
L 196.690325 169.861465 
z
" style="stroke:#000000;"/>
    <path clip-path="url(#p3de8576333)" d="M 190.461945 160.748585 
L 194.991252 153.256716 
L 193.47974 153.735895 
z
" style="stroke:#000000;"/>
    <path clip-path="url(#p3de8576333)" d="M 190.461945 149.568297 
L 193.47974 153.735895 
L 194.991252 153.256716 
z
" style="stroke:#000000;"/>
    <path clip-path="url(#p3de8576333)" d="M 196.690325 184.432089 
L 196.080827 187.998655 
L 197.460189 187.978559 
z
" style="stroke:#000000;"/>
    <path clip-path="url(#p3de8576333)" d="M 198.306225 195.797868 
L 195.489054 192.336881 
L 196.86905 192.309856 
z
" style="stroke:#000000;"/>
    <path clip-path="url(#p3de8576333)" d="M 198.306225 158.497808 
L 199.879509 159.607324 
L 198.526911 162.885762 
z
" style="stroke:#000000;"/>
    <path clip-path="url(#p3de8576333)" d="M 199.879509 194.690417 
L 198.306225 195.797868 
L 198.526911 191.410203 
z
" style="stroke:#000000;"/>
    <path clip-path="url(#p3de8576333)" d="M 195.489054 161.962414 
L 195.735711 165.631105 
L 194.354499 165.615431 
z
" style="stroke:#000000;"/>
    <path clip-path="url(#p3de8576333)" d="M 194.844547 180.81716 
L 196.069664 177.14637 
L 194.68881 177.149121 
z
" style="stroke:#000000;"/>
    <path clip-path="url(#p3de8576333)" d="M 194.68881 177.149121 
L 196.225234 173.484396 
L 194.844547 173.481287 
z
" style="stroke:#000000;"/>
    <path clip-path="url(#p3de8576333)" d="M 194.68881 177.149121 
L 192.875624 177.147929 
L 193.041064 181.047406 
z
" style="stroke:#000000;"/>
    <path clip-path="url(#p3de8576333)" d="M 192.875624 177.147929 
L 194.68881 177.149121 
L 193.041064 173.248669 
z
" style="stroke:#000000;"/>
    <path clip-path="url(#p3de8576333)" d="M 195.310137 184.446503 
L 196.225234 180.808548 
L 194.844547 180.81716 
z
" style="stroke:#000000;"/>
    <path clip-path="url(#p3de8576333)" d="M 198.526911 162.885762 
L 196.080827 166.301419 
L 197.460189 166.316006 
z
" style="stroke:#000000;"/>
    <path clip-path="url(#p3de8576333)" d="M 196.86905 161.983933 
L 196.927773 158.470694 
L 198.306225 158.497808 
z
" style="stroke:#000000;"/>
    <path clip-path="url(#p3de8576333)" d="M 194.354499 188.682372 
L 196.86905 192.309856 
L 195.489054 192.336881 
z
" style="stroke:#000000;"/>
    <path clip-path="url(#p3de8576333)" d="M 194.844547 173.481287 
L 196.690325 169.861465 
L 195.310137 169.852557 
z
" style="stroke:#000000;"/>
    <path clip-path="url(#p3de8576333)" d="M 194.844547 180.81716 
L 193.041064 181.047406 
L 193.535708 184.905845 
z
" style="stroke:#000000;"/>
    <path clip-path="url(#p3de8576333)" d="M 193.041064 173.248669 
L 194.844547 173.481287 
L 193.535708 169.390881 
z
" style="stroke:#000000;"/>
    <path clip-path="url(#p3de8576333)" d="M 200.03243 155.210159 
L 199.879509 159.607324 
L 198.306225 158.497808 
z
" style="stroke:#000000;"/>
    <path clip-path="url(#p3de8576333)" d="M 199.879509 194.690417 
L 200.03243 199.087782 
L 198.306225 195.797868 
z
" style="stroke:#000000;"/>
    <path clip-path="url(#p3de8576333)" d="M 197.460189 187.978559 
L 197.148696 191.435804 
L 198.526911 191.410203 
z
" style="stroke:#000000;"/>
    <path clip-path="url(#p3de8576333)" d="M 196.080827 187.998655 
L 196.690325 184.432089 
L 195.310137 184.446503 
z
" style="stroke:#000000;"/>
    <path clip-path="url(#p3de8576333)" d="M 194.844547 173.481287 
L 193.041064 173.248669 
L 194.68881 177.149121 
z
" style="stroke:#000000;"/>
    <path clip-path="url(#p3de8576333)" d="M 193.041064 181.047406 
L 194.844547 180.81716 
L 194.68881 177.149121 
z
" style="stroke:#000000;"/>
    <path clip-path="url(#p3de8576333)" d="M 195.310137 184.446503 
L 193.535708 184.905845 
L 194.354499 188.682372 
z
" style="stroke:#000000;"/>
    <path clip-path="url(#p3de8576333)" d="M 193.535708 169.390881 
L 195.310137 169.852557 
L 194.354499 165.615431 
z
" style="stroke:#000000;"/>
    <path clip-path="url(#p3de8576333)" d="M 195.310137 169.852557 
L 197.460189 166.316006 
L 196.080827 166.301419 
z
" style="stroke:#000000;"/>
    <path clip-path="url(#p3de8576333)" d="M 193.535708 184.905845 
L 195.310137 184.446503 
L 194.844547 180.81716 
z
" style="stroke:#000000;"/>
    <path clip-path="url(#p3de8576333)" d="M 195.310137 169.852557 
L 193.535708 169.390881 
L 194.844547 173.481287 
z
" style="stroke:#000000;"/>
    <path clip-path="url(#p3de8576333)" d="M 196.927773 158.470694 
L 196.86905 161.983933 
L 195.489054 161.962414 
z
" style="stroke:#000000;"/>
    <path clip-path="url(#p3de8576333)" d="M 200.03243 199.087782 
L 196.927773 195.830494 
L 198.306225 195.797868 
z
" style="stroke:#000000;"/>
    <path clip-path="url(#p3de8576333)" d="M 199.879509 159.607324 
L 197.148696 162.865674 
L 198.526911 162.885762 
z
" style="stroke:#000000;"/>
    <path clip-path="url(#p3de8576333)" d="M 200.03243 155.210159 
L 201.504029 156.515774 
L 199.879509 159.607324 
z
" style="stroke:#000000;"/>
    <path clip-path="url(#p3de8576333)" d="M 201.504029 197.784098 
L 200.03243 199.087782 
L 199.879509 194.690417 
z
" style="stroke:#000000;"/>
    <path clip-path="url(#p3de8576333)" d="M 197.148696 191.435804 
L 197.460189 187.978559 
L 196.080827 187.998655 
z
" style="stroke:#000000;"/>
    <path clip-path="url(#p3de8576333)" d="M 195.489054 192.336881 
L 198.306225 195.797868 
L 196.927773 195.830494 
z
" style="stroke:#000000;"/>
    <path clip-path="url(#p3de8576333)" d="M 194.354499 188.682372 
L 196.080827 187.998655 
L 195.310137 184.446503 
z
" style="stroke:#000000;"/>
    <path clip-path="url(#p3de8576333)" d="M 196.080827 166.301419 
L 194.354499 165.615431 
L 195.310137 169.852557 
z
" style="stroke:#000000;"/>
    <path clip-path="url(#p3de8576333)" d="M 198.526911 191.410203 
L 198.50275 194.721288 
L 199.879509 194.690417 
z
" style="stroke:#000000;"/>
    <path clip-path="url(#p3de8576333)" d="M 198.306225 158.497808 
L 198.655835 155.177758 
L 200.03243 155.210159 
z
" style="stroke:#000000;"/>
    <path clip-path="url(#p3de8576333)" d="M 196.080827 187.998655 
L 194.354499 188.682372 
L 195.489054 192.336881 
z
" style="stroke:#000000;"/>
    <path clip-path="url(#p3de8576333)" d="M 194.354499 165.615431 
L 196.080827 166.301419 
L 195.489054 161.962414 
z
" style="stroke:#000000;"/>
    <path clip-path="url(#p3de8576333)" d="M 196.080827 166.301419 
L 198.526911 162.885762 
L 197.148696 162.865674 
z
" style="stroke:#000000;"/>
    <path clip-path="url(#p3de8576333)" d="M 202.029855 152.156175 
L 201.504029 156.515774 
L 200.03243 155.210159 
z
" style="stroke:#000000;"/>
    <path clip-path="url(#p3de8576333)" d="M 201.504029 197.784098 
L 202.029855 202.144388 
L 200.03243 199.087782 
z
" style="stroke:#000000;"/>
    <path clip-path="url(#p3de8576333)" d="M 198.655835 155.177758 
L 198.306225 158.497808 
L 196.927773 158.470694 
z
" style="stroke:#000000;"/>
    <path clip-path="url(#p3de8576333)" d="M 198.50275 194.721288 
L 198.526911 191.410203 
L 197.148696 191.435804 
z
" style="stroke:#000000;"/>
    <path clip-path="url(#p3de8576333)" d="M 195.489054 192.336881 
L 197.148696 191.435804 
L 196.080827 187.998655 
z
" style="stroke:#000000;"/>
    <path clip-path="url(#p3de8576333)" d="M 197.148696 162.865674 
L 195.489054 161.962414 
L 196.080827 166.301419 
z
" style="stroke:#000000;"/>
    <path clip-path="url(#p3de8576333)" d="M 201.504029 156.515774 
L 198.50275 159.581972 
L 199.879509 159.607324 
z
" style="stroke:#000000;"/>
    <path clip-path="url(#p3de8576333)" d="M 197.148696 191.435804 
L 195.489054 192.336881 
L 196.927773 195.830494 
z
" style="stroke:#000000;"/>
    <path clip-path="url(#p3de8576333)" d="M 195.489054 161.962414 
L 197.148696 162.865674 
L 196.927773 158.470694 
z
" style="stroke:#000000;"/>
    <path clip-path="url(#p3de8576333)" d="M 202.029855 202.144388 
L 198.655835 199.125702 
L 200.03243 199.087782 
z
" style="stroke:#000000;"/>
    <path clip-path="url(#p3de8576333)" d="M 197.148696 162.865674 
L 199.879509 159.607324 
L 198.50275 159.581972 
z
" style="stroke:#000000;"/>
    <path clip-path="url(#p3de8576333)" d="M 196.927773 195.830494 
L 200.03243 199.087782 
L 198.655835 199.125702 
z
" style="stroke:#000000;"/>
    <path clip-path="url(#p3de8576333)" d="M 202.029855 152.156175 
L 203.383641 153.6446 
L 201.504029 156.515774 
z
" style="stroke:#000000;"/>
    <path clip-path="url(#p3de8576333)" d="M 203.383641 200.657739 
L 202.029855 202.144388 
L 201.504029 197.784098 
z
" style="stroke:#000000;"/>
    <path clip-path="url(#p3de8576333)" d="M 199.879509 194.690417 
L 200.129021 197.819949 
L 201.504029 197.784098 
z
" style="stroke:#000000;"/>
    <path clip-path="url(#p3de8576333)" d="M 200.03243 155.210159 
L 200.655414 152.118851 
L 202.029855 152.156175 
z
" style="stroke:#000000;"/>
    <path clip-path="url(#p3de8576333)" d="M 203.947441 151.253717 
L 202.029855 152.156175 
L 203.153352 150.763267 
z
" style="stroke:#000000;"/>
    <path clip-path="url(#p3de8576333)" d="M 202.029855 202.144388 
L 203.947441 203.049362 
L 203.153352 203.538771 
z
" style="stroke:#000000;"/>
    <path clip-path="url(#p3de8576333)" d="M 196.927773 195.830494 
L 198.50275 194.721288 
L 197.148696 191.435804 
z
" style="stroke:#000000;"/>
    <path clip-path="url(#p3de8576333)" d="M 198.50275 159.581972 
L 196.927773 158.470694 
L 197.148696 162.865674 
z
" style="stroke:#000000;"/>
    <path clip-path="url(#p3de8576333)" d="M 202.029855 152.156175 
L 203.947441 151.253717 
L 203.383641 153.6446 
z
" style="stroke:#000000;"/>
    <path clip-path="url(#p3de8576333)" d="M 203.947441 203.049362 
L 202.029855 202.144388 
L 203.383641 200.657739 
z
" style="stroke:#000000;"/>
    <path clip-path="url(#p3de8576333)" d="M 200.129021 197.819949 
L 199.879509 194.690417 
L 198.50275 194.721288 
z
" style="stroke:#000000;"/>
    <path clip-path="url(#p3de8576333)" d="M 200.655414 152.118851 
L 200.03243 155.210159 
L 198.655835 155.177758 
z
" style="stroke:#000000;"/>
    <path clip-path="url(#p3de8576333)" d="M 203.383641 153.6446 
L 200.129021 156.485449 
L 201.504029 156.515774 
z
" style="stroke:#000000;"/>
    <path clip-path="url(#p3de8576333)" d="M 198.50275 159.581972 
L 198.655835 155.177758 
L 196.927773 158.470694 
z
" style="stroke:#000000;"/>
    <path clip-path="url(#p3de8576333)" d="M 198.655835 199.125702 
L 198.50275 194.721288 
L 196.927773 195.830494 
z
" style="stroke:#000000;"/>
    <path clip-path="url(#p3de8576333)" d="M 198.50275 159.581972 
L 201.504029 156.515774 
L 200.129021 156.485449 
z
" style="stroke:#000000;"/>
    <path clip-path="url(#p3de8576333)" d="M 203.153352 203.538771 
L 200.655414 202.187239 
L 202.029855 202.144388 
z
" style="stroke:#000000;"/>
    <path clip-path="url(#p3de8576333)" d="M 203.383641 153.6446 
L 203.947441 151.253717 
L 204.781979 151.912668 
z
" style="stroke:#000000;"/>
    <path clip-path="url(#p3de8576333)" d="M 203.947441 203.049362 
L 203.383641 200.657739 
L 204.781979 202.391507 
z
" style="stroke:#000000;"/>
    <path clip-path="url(#p3de8576333)" d="M 201.504029 197.784098 
L 202.010663 200.698227 
L 203.383641 200.657739 
z
" style="stroke:#000000;"/>
    <path clip-path="url(#p3de8576333)" d="M 198.655835 199.125702 
L 202.029855 202.144388 
L 200.655414 202.187239 
z
" style="stroke:#000000;"/>
    <path clip-path="url(#p3de8576333)" d="M 202.029855 152.156175 
L 201.780125 150.723692 
L 203.153352 150.763267 
z
" style="stroke:#000000;"/>
    <path clip-path="url(#p3de8576333)" d="M 198.655835 199.125702 
L 200.129021 197.819949 
L 198.50275 194.721288 
z
" style="stroke:#000000;"/>
    <path clip-path="url(#p3de8576333)" d="M 200.129021 156.485449 
L 198.655835 155.177758 
L 198.50275 159.581972 
z
" style="stroke:#000000;"/>
    <path clip-path="url(#p3de8576333)" d="M 201.780125 150.723692 
L 203.947441 151.253717 
L 203.153352 150.763267 
z
" style="stroke:#000000;"/>
    <path clip-path="url(#p3de8576333)" d="M 202.010663 200.698227 
L 201.504029 197.784098 
L 200.129021 197.819949 
z
" style="stroke:#000000;"/>
    <path clip-path="url(#p3de8576333)" d="M 202.575073 203.093698 
L 203.153352 203.538771 
L 203.947441 203.049362 
z
" style="stroke:#000000;"/>
    <path clip-path="url(#p3de8576333)" d="M 201.780125 150.723692 
L 202.029855 152.156175 
L 200.655414 152.118851 
z
" style="stroke:#000000;"/>
    <path clip-path="url(#p3de8576333)" d="M 202.010663 200.698227 
L 204.781979 202.391507 
L 203.383641 200.657739 
z
" style="stroke:#000000;"/>
    <path clip-path="url(#p3de8576333)" d="M 200.655414 202.187239 
L 200.129021 197.819949 
L 198.655835 199.125702 
z
" style="stroke:#000000;"/>
    <path clip-path="url(#p3de8576333)" d="M 200.129021 156.485449 
L 200.655414 152.118851 
L 198.655835 155.177758 
z
" style="stroke:#000000;"/>
    <path clip-path="url(#p3de8576333)" d="M 200.129021 156.485449 
L 203.383641 153.6446 
L 202.010663 153.609646 
z
" style="stroke:#000000;"/>
    <path clip-path="url(#p3de8576333)" d="M 200.655414 202.187239 
L 203.153352 203.538771 
L 201.780125 203.583878 
z
" style="stroke:#000000;"/>
    <path clip-path="url(#p3de8576333)" d="M 202.575073 151.214918 
L 204.781979 151.912668 
L 203.947441 151.253717 
z
" style="stroke:#000000;"/>
    <path clip-path="url(#p3de8576333)" d="M 203.410514 151.874914 
L 203.383641 153.6446 
L 204.781979 151.912668 
z
" style="stroke:#000000;"/>
    <path clip-path="url(#p3de8576333)" d="M 203.410514 202.434801 
L 203.947441 203.049362 
L 204.781979 202.391507 
z
" style="stroke:#000000;"/>
    <path clip-path="url(#p3de8576333)" d="M 203.153352 203.538771 
L 202.575073 203.093698 
L 201.780125 203.583878 
z
" style="stroke:#000000;"/>
    <path clip-path="url(#p3de8576333)" d="M 203.947441 151.253717 
L 201.780125 150.723692 
L 202.575073 151.214918 
z
" style="stroke:#000000;"/>
    <path clip-path="url(#p3de8576333)" d="M 200.655414 202.187239 
L 202.010663 200.698227 
L 200.129021 197.819949 
z
" style="stroke:#000000;"/>
    <path clip-path="url(#p3de8576333)" d="M 202.010663 153.609646 
L 200.655414 152.118851 
L 200.129021 156.485449 
z
" style="stroke:#000000;"/>
    <path clip-path="url(#p3de8576333)" d="M 203.383641 153.6446 
L 203.410514 151.874914 
L 202.010663 153.609646 
z
" style="stroke:#000000;"/>
    <path clip-path="url(#p3de8576333)" d="M 203.947441 203.049362 
L 203.410514 202.434801 
L 202.575073 203.093698 
z
" style="stroke:#000000;"/>
    <path clip-path="url(#p3de8576333)" d="M 204.781979 202.391507 
L 202.010663 200.698227 
L 203.410514 202.434801 
z
" style="stroke:#000000;"/>
    <path clip-path="url(#p3de8576333)" d="M 202.575073 203.093698 
L 200.655414 202.187239 
L 201.780125 203.583878 
z
" style="stroke:#000000;"/>
    <path clip-path="url(#p3de8576333)" d="M 200.655414 152.118851 
L 202.575073 151.214918 
L 201.780125 150.723692 
z
" style="stroke:#000000;"/>
    <path clip-path="url(#p3de8576333)" d="M 204.781979 151.912668 
L 202.575073 151.214918 
L 203.410514 151.874914 
z
" style="stroke:#000000;"/>
    <path clip-path="url(#p3de8576333)" d="M 200.655414 202.187239 
L 202.575073 203.093698 
L 202.010663 200.698227 
z
" style="stroke:#000000;"/>
    <path clip-path="url(#p3de8576333)" d="M 202.575073 151.214918 
L 200.655414 152.118851 
L 202.010663 153.609646 
z
" style="stroke:#000000;"/>
    <path clip-path="url(#p3de8576333)" d="M 202.010663 200.698227 
L 202.575073 203.093698 
L 203.410514 202.434801 
z
" style="stroke:#000000;"/>
    <path clip-path="url(#p3de8576333)" d="M 202.575073 151.214918 
L 202.010663 153.609646 
L 203.410514 151.874914 
z
" style="stroke:#000000;"/>
   </g>
  </g>
 </g>
 <defs>
  <clipPath id="p3de8576333">
   <rect height="271.8" width="279" x="45" y="43.2"/>
  </clipPath>
 </defs>
</svg>
