<?xml version="1.0" encoding="utf-8" standalone="no"?>
<!DOCTYPE svg PUBLIC "-//W3C//DTD SVG 1.1//EN"
  "http://www.w3.org/Graphics/SVG/1.1/DTD/svg11.dtd">
<!-- Created with matplotlib (https://matplotlib.org/) -->
<svg height="360pt" version="1.1" viewBox="0 0 360 360" width="360pt" xmlns="http://www.w3.org/2000/svg" xmlns:xlink="http://www.w3.org/1999/xlink">
 <defs>
  <style type="text/css">
*{stroke-linecap:butt;stroke-linejoin:round;}
  </style>
 </defs>
 <g id="figure_1">
  <g id="patch_1">
   <path d="M 45 315 
L 324 315 
L 324 43.2 
L 45 43.2 
z
" style="fill:#ffffff;"/>
  </g>
  <g id="axes_1">
   <g id="Poly3DCollection_1">
    <path clip-path="url(#pa83f4b67b5)" d="M 188.131213 152.187769 
L 190.991033 151.51977 
L 190.865802 152.193317 
z
" style="stroke:#000000;"/>
    <path clip-path="url(#pa83f4b67b5)" d="M 190.865802 202.069681 
L 188.254771 202.751876 
L 188.131213 202.076042 
z
" style="stroke:#000000;"/>
    <path clip-path="url(#pa83f4b67b5)" d="M 188.131213 202.076042 
L 191.07577 200.395911 
L 190.865802 202.069681 
z
" style="stroke:#000000;"/>
    <path clip-path="url(#pa83f4b67b5)" d="M 188.254771 202.751876 
L 190.865802 202.069681 
L 190.991033 202.745349 
z
" style="stroke:#000000;"/>
    <path clip-path="url(#pa83f4b67b5)" d="M 190.865802 152.193317 
L 188.338376 153.865492 
L 188.131213 152.187769 
z
" style="stroke:#000000;"/>
    <path clip-path="url(#pa83f4b67b5)" d="M 190.991033 151.51977 
L 191.07577 153.870644 
L 190.865802 152.193317 
z
" style="stroke:#000000;"/>
    <path clip-path="url(#pa83f4b67b5)" d="M 191.07577 200.395911 
L 190.991033 202.745349 
L 190.865802 202.069681 
z
" style="stroke:#000000;"/>
    <path clip-path="url(#pa83f4b67b5)" d="M 190.991033 151.51977 
L 188.131213 152.187769 
L 188.254771 151.514058 
z
" style="stroke:#000000;"/>
    <path clip-path="url(#pa83f4b67b5)" d="M 188.338376 153.865492 
L 190.865802 152.193317 
L 191.07577 153.870644 
z
" style="stroke:#000000;"/>
    <path clip-path="url(#pa83f4b67b5)" d="M 188.254771 202.751876 
L 188.338376 200.40188 
L 188.131213 202.076042 
z
" style="stroke:#000000;"/>
    <path clip-path="url(#pa83f4b67b5)" d="M 188.338376 153.865492 
L 188.254771 151.514058 
L 188.131213 152.187769 
z
" style="stroke:#000000;"/>
    <path clip-path="url(#pa83f4b67b5)" d="M 191.07577 200.395911 
L 188.131213 202.076042 
L 188.338376 200.40188 
z
" style="stroke:#000000;"/>
    <path clip-path="url(#pa83f4b67b5)" d="M 188.254771 151.514058 
L 191.110413 151.012872 
L 190.991033 151.51977 
z
" style="stroke:#000000;"/>
    <path clip-path="url(#pa83f4b67b5)" d="M 190.991033 202.745349 
L 188.372556 203.260923 
L 188.254771 202.751876 
z
" style="stroke:#000000;"/>
    <path clip-path="url(#pa83f4b67b5)" d="M 188.372556 203.260923 
L 190.991033 202.745349 
L 191.110413 203.254271 
z
" style="stroke:#000000;"/>
    <path clip-path="url(#pa83f4b67b5)" d="M 191.110413 151.012872 
L 188.254771 151.514058 
L 188.372556 151.007035 
z
" style="stroke:#000000;"/>
    <path clip-path="url(#pa83f4b67b5)" d="M 190.991033 151.51977 
L 191.27968 152.362458 
L 191.07577 153.870644 
z
" style="stroke:#000000;"/>
    <path clip-path="url(#pa83f4b67b5)" d="M 191.27968 201.907554 
L 190.991033 202.745349 
L 191.07577 200.395911 
z
" style="stroke:#000000;"/>
    <path clip-path="url(#pa83f4b67b5)" d="M 191.27968 152.362458 
L 190.991033 151.51977 
L 191.110413 151.012872 
z
" style="stroke:#000000;"/>
    <path clip-path="url(#pa83f4b67b5)" d="M 190.991033 202.745349 
L 191.27968 201.907554 
L 191.110413 203.254271 
z
" style="stroke:#000000;"/>
    <path clip-path="url(#pa83f4b67b5)" d="M 188.254771 202.751876 
L 188.539562 201.91389 
L 188.338376 200.40188 
z
" style="stroke:#000000;"/>
    <path clip-path="url(#pa83f4b67b5)" d="M 188.539562 152.356939 
L 188.254771 151.514058 
L 188.338376 153.865492 
z
" style="stroke:#000000;"/>
    <path clip-path="url(#pa83f4b67b5)" d="M 188.539562 201.91389 
L 188.254771 202.751876 
L 188.372556 203.260923 
z
" style="stroke:#000000;"/>
    <path clip-path="url(#pa83f4b67b5)" d="M 188.254771 151.514058 
L 188.539562 152.356939 
L 188.372556 151.007035 
z
" style="stroke:#000000;"/>
    <path clip-path="url(#pa83f4b67b5)" d="M 191.27968 201.907554 
L 188.372556 203.260923 
L 191.110413 203.254271 
z
" style="stroke:#000000;"/>
    <path clip-path="url(#pa83f4b67b5)" d="M 191.359049 156.672275 
L 188.338376 153.865492 
L 191.07577 153.870644 
z
" style="stroke:#000000;"/>
    <path clip-path="url(#pa83f4b67b5)" d="M 188.539562 152.356939 
L 191.110413 151.012872 
L 188.372556 151.007035 
z
" style="stroke:#000000;"/>
    <path clip-path="url(#pa83f4b67b5)" d="M 188.617871 197.604388 
L 191.07577 200.395911 
L 188.338376 200.40188 
z
" style="stroke:#000000;"/>
    <path clip-path="url(#pa83f4b67b5)" d="M 191.27968 152.362458 
L 191.359049 156.672275 
L 191.07577 153.870644 
z
" style="stroke:#000000;"/>
    <path clip-path="url(#pa83f4b67b5)" d="M 191.359049 197.599081 
L 191.27968 201.907554 
L 191.07577 200.395911 
z
" style="stroke:#000000;"/>
    <path clip-path="url(#pa83f4b67b5)" d="M 191.110413 151.012872 
L 188.539562 152.356939 
L 191.27968 152.362458 
z
" style="stroke:#000000;"/>
    <path clip-path="url(#pa83f4b67b5)" d="M 188.372556 203.260923 
L 191.27968 201.907554 
L 188.539562 201.91389 
z
" style="stroke:#000000;"/>
    <path clip-path="url(#pa83f4b67b5)" d="M 191.07577 200.395911 
L 188.617871 197.604388 
L 191.359049 197.599081 
z
" style="stroke:#000000;"/>
    <path clip-path="url(#pa83f4b67b5)" d="M 188.539562 201.91389 
L 188.617871 197.604388 
L 188.338376 200.40188 
z
" style="stroke:#000000;"/>
    <path clip-path="url(#pa83f4b67b5)" d="M 188.617871 156.667786 
L 188.539562 152.356939 
L 188.338376 153.865492 
z
" style="stroke:#000000;"/>
    <path clip-path="url(#pa83f4b67b5)" d="M 188.338376 153.865492 
L 191.359049 156.672275 
L 188.617871 156.667786 
z
" style="stroke:#000000;"/>
    <path clip-path="url(#pa83f4b67b5)" d="M 191.581677 198.931059 
L 188.539562 201.91389 
L 191.27968 201.907554 
z
" style="stroke:#000000;"/>
    <path clip-path="url(#pa83f4b67b5)" d="M 191.581677 155.344071 
L 191.359049 156.672275 
L 191.27968 152.362458 
z
" style="stroke:#000000;"/>
    <path clip-path="url(#pa83f4b67b5)" d="M 191.359049 197.599081 
L 191.581677 198.931059 
L 191.27968 201.907554 
z
" style="stroke:#000000;"/>
    <path clip-path="url(#pa83f4b67b5)" d="M 188.837525 155.339258 
L 191.27968 152.362458 
L 188.539562 152.356939 
z
" style="stroke:#000000;"/>
    <path clip-path="url(#pa83f4b67b5)" d="M 188.837525 198.936691 
L 188.617871 197.604388 
L 188.539562 201.91389 
z
" style="stroke:#000000;"/>
    <path clip-path="url(#pa83f4b67b5)" d="M 188.617871 156.667786 
L 188.837525 155.339258 
L 188.539562 152.356939 
z
" style="stroke:#000000;"/>
    <path clip-path="url(#pa83f4b67b5)" d="M 191.604854 159.709389 
L 188.617871 156.667786 
L 191.359049 156.672275 
z
" style="stroke:#000000;"/>
    <path clip-path="url(#pa83f4b67b5)" d="M 188.860392 194.57072 
L 191.359049 197.599081 
L 188.617871 197.604388 
z
" style="stroke:#000000;"/>
    <path clip-path="url(#pa83f4b67b5)" d="M 191.27968 152.362458 
L 188.837525 155.339258 
L 191.581677 155.344071 
z
" style="stroke:#000000;"/>
    <path clip-path="url(#pa83f4b67b5)" d="M 188.539562 201.91389 
L 191.581677 198.931059 
L 188.837525 198.936691 
z
" style="stroke:#000000;"/>
    <path clip-path="url(#pa83f4b67b5)" d="M 191.581677 155.344071 
L 191.604854 159.709389 
L 191.359049 156.672275 
z
" style="stroke:#000000;"/>
    <path clip-path="url(#pa83f4b67b5)" d="M 191.604854 194.566133 
L 191.581677 198.931059 
L 191.359049 197.599081 
z
" style="stroke:#000000;"/>
    <path clip-path="url(#pa83f4b67b5)" d="M 191.359049 197.599081 
L 188.860392 194.57072 
L 191.604854 194.566133 
z
" style="stroke:#000000;"/>
    <path clip-path="url(#pa83f4b67b5)" d="M 188.617871 156.667786 
L 191.604854 159.709389 
L 188.860392 159.705622 
z
" style="stroke:#000000;"/>
    <path clip-path="url(#pa83f4b67b5)" d="M 188.837525 198.936691 
L 188.860392 194.57072 
L 188.617871 197.604388 
z
" style="stroke:#000000;"/>
    <path clip-path="url(#pa83f4b67b5)" d="M 188.860392 159.705622 
L 188.837525 155.339258 
L 188.617871 156.667786 
z
" style="stroke:#000000;"/>
    <path clip-path="url(#pa83f4b67b5)" d="M 191.84377 158.577022 
L 191.604854 159.709389 
L 191.581677 155.344071 
z
" style="stroke:#000000;"/>
    <path clip-path="url(#pa83f4b67b5)" d="M 191.604854 194.566133 
L 191.84377 195.702549 
L 191.581677 198.931059 
z
" style="stroke:#000000;"/>
    <path clip-path="url(#pa83f4b67b5)" d="M 191.84377 195.702549 
L 188.837525 198.936691 
L 191.581677 198.931059 
z
" style="stroke:#000000;"/>
    <path clip-path="url(#pa83f4b67b5)" d="M 191.810206 162.947567 
L 188.860392 159.705622 
L 191.604854 159.709389 
z
" style="stroke:#000000;"/>
    <path clip-path="url(#pa83f4b67b5)" d="M 189.096117 158.572979 
L 191.581677 155.344071 
L 188.837525 155.339258 
z
" style="stroke:#000000;"/>
    <path clip-path="url(#pa83f4b67b5)" d="M 189.063001 191.335251 
L 191.604854 194.566133 
L 188.860392 194.57072 
z
" style="stroke:#000000;"/>
    <path clip-path="url(#pa83f4b67b5)" d="M 189.096117 195.707414 
L 188.860392 194.57072 
L 188.837525 198.936691 
z
" style="stroke:#000000;"/>
    <path clip-path="url(#pa83f4b67b5)" d="M 188.860392 159.705622 
L 189.096117 158.572979 
L 188.837525 155.339258 
z
" style="stroke:#000000;"/>
    <path clip-path="url(#pa83f4b67b5)" d="M 191.604854 159.709389 
L 191.84377 158.577022 
L 191.810206 162.947567 
z
" style="stroke:#000000;"/>
    <path clip-path="url(#pa83f4b67b5)" d="M 191.84377 195.702549 
L 191.604854 194.566133 
L 191.810206 191.331436 
z
" style="stroke:#000000;"/>
    <path clip-path="url(#pa83f4b67b5)" d="M 191.604854 194.566133 
L 189.063001 191.335251 
L 191.810206 191.331436 
z
" style="stroke:#000000;"/>
    <path clip-path="url(#pa83f4b67b5)" d="M 191.581677 155.344071 
L 189.096117 158.572979 
L 191.84377 158.577022 
z
" style="stroke:#000000;"/>
    <path clip-path="url(#pa83f4b67b5)" d="M 188.860392 159.705622 
L 191.810206 162.947567 
L 189.063001 162.944574 
z
" style="stroke:#000000;"/>
    <path clip-path="url(#pa83f4b67b5)" d="M 188.837525 198.936691 
L 191.84377 195.702549 
L 189.096117 195.707414 
z
" style="stroke:#000000;"/>
    <path clip-path="url(#pa83f4b67b5)" d="M 188.860392 194.57072 
L 189.096117 195.707414 
L 189.063001 191.335251 
z
" style="stroke:#000000;"/>
    <path clip-path="url(#pa83f4b67b5)" d="M 189.096117 158.572979 
L 188.860392 159.705622 
L 189.063001 162.944574 
z
" style="stroke:#000000;"/>
    <path clip-path="url(#pa83f4b67b5)" d="M 191.9726 166.349929 
L 189.063001 162.944574 
L 191.810206 162.947567 
z
" style="stroke:#000000;"/>
    <path clip-path="url(#pa83f4b67b5)" d="M 189.223226 187.934828 
L 191.810206 191.331436 
L 189.063001 191.335251 
z
" style="stroke:#000000;"/>
    <path clip-path="url(#pa83f4b67b5)" d="M 192.062763 162.024993 
L 191.810206 162.947567 
L 191.84377 158.577022 
z
" style="stroke:#000000;"/>
    <path clip-path="url(#pa83f4b67b5)" d="M 191.810206 191.331436 
L 192.062763 192.258291 
L 191.84377 195.702549 
z
" style="stroke:#000000;"/>
    <path clip-path="url(#pa83f4b67b5)" d="M 192.062763 192.258291 
L 189.096117 195.707414 
L 191.84377 195.702549 
z
" style="stroke:#000000;"/>
    <path clip-path="url(#pa83f4b67b5)" d="M 191.810206 191.331436 
L 189.223226 187.934828 
L 191.9726 187.931826 
z
" style="stroke:#000000;"/>
    <path clip-path="url(#pa83f4b67b5)" d="M 191.810206 162.947567 
L 192.062763 162.024993 
L 191.9726 166.349929 
z
" style="stroke:#000000;"/>
    <path clip-path="url(#pa83f4b67b5)" d="M 192.062763 192.258291 
L 191.810206 191.331436 
L 191.9726 187.931826 
z
" style="stroke:#000000;"/>
    <path clip-path="url(#pa83f4b67b5)" d="M 189.312184 162.021773 
L 191.84377 158.577022 
L 189.096117 158.572979 
z
" style="stroke:#000000;"/>
    <path clip-path="url(#pa83f4b67b5)" d="M 189.063001 162.944574 
L 191.9726 166.349929 
L 189.223226 166.34775 
z
" style="stroke:#000000;"/>
    <path clip-path="url(#pa83f4b67b5)" d="M 189.312184 192.262333 
L 189.063001 191.335251 
L 189.096117 195.707414 
z
" style="stroke:#000000;"/>
    <path clip-path="url(#pa83f4b67b5)" d="M 189.063001 162.944574 
L 189.312184 162.021773 
L 189.096117 158.572979 
z
" style="stroke:#000000;"/>
    <path clip-path="url(#pa83f4b67b5)" d="M 189.063001 191.335251 
L 189.312184 192.262333 
L 189.223226 187.934828 
z
" style="stroke:#000000;"/>
    <path clip-path="url(#pa83f4b67b5)" d="M 189.312184 162.021773 
L 189.063001 162.944574 
L 189.223226 166.34775 
z
" style="stroke:#000000;"/>
    <path clip-path="url(#pa83f4b67b5)" d="M 191.84377 158.577022 
L 189.312184 162.021773 
L 192.062763 162.024993 
z
" style="stroke:#000000;"/>
    <path clip-path="url(#pa83f4b67b5)" d="M 189.096117 195.707414 
L 192.062763 192.258291 
L 189.312184 192.262333 
z
" style="stroke:#000000;"/>
    <path clip-path="url(#pa83f4b67b5)" d="M 192.090046 169.877338 
L 189.223226 166.34775 
L 191.9726 166.349929 
z
" style="stroke:#000000;"/>
    <path clip-path="url(#pa83f4b67b5)" d="M 189.339103 184.408565 
L 191.9726 187.931826 
L 189.223226 187.934828 
z
" style="stroke:#000000;"/>
    <path clip-path="url(#pa83f4b67b5)" d="M 191.9726 187.931826 
L 189.339103 184.408565 
L 192.090046 184.406408 
z
" style="stroke:#000000;"/>
    <path clip-path="url(#pa83f4b67b5)" d="M 189.223226 166.34775 
L 192.090046 169.877338 
L 189.339103 169.876004 
z
" style="stroke:#000000;"/>
    <path clip-path="url(#pa83f4b67b5)" d="M 192.235963 165.648437 
L 191.9726 166.349929 
L 192.062763 162.024993 
z
" style="stroke:#000000;"/>
    <path clip-path="url(#pa83f4b67b5)" d="M 191.9726 187.931826 
L 192.235963 188.637782 
L 192.062763 192.258291 
z
" style="stroke:#000000;"/>
    <path clip-path="url(#pa83f4b67b5)" d="M 191.9726 166.349929 
L 192.235963 165.648437 
L 192.090046 169.877338 
z
" style="stroke:#000000;"/>
    <path clip-path="url(#pa83f4b67b5)" d="M 192.235963 188.637782 
L 191.9726 187.931826 
L 192.090046 184.406408 
z
" style="stroke:#000000;"/>
    <path clip-path="url(#pa83f4b67b5)" d="M 192.161098 173.488912 
L 189.339103 169.876004 
L 192.090046 169.877338 
z
" style="stroke:#000000;"/>
    <path clip-path="url(#pa83f4b67b5)" d="M 192.235963 188.637782 
L 189.312184 192.262333 
L 192.062763 192.258291 
z
" style="stroke:#000000;"/>
    <path clip-path="url(#pa83f4b67b5)" d="M 189.483071 188.640958 
L 189.223226 187.934828 
L 189.312184 192.262333 
z
" style="stroke:#000000;"/>
    <path clip-path="url(#pa83f4b67b5)" d="M 189.223226 166.34775 
L 189.483071 165.646086 
L 189.312184 162.021773 
z
" style="stroke:#000000;"/>
    <path clip-path="url(#pa83f4b67b5)" d="M 189.409206 180.797328 
L 192.090046 184.406408 
L 189.339103 184.408565 
z
" style="stroke:#000000;"/>
    <path clip-path="url(#pa83f4b67b5)" d="M 189.223226 187.934828 
L 189.483071 188.640958 
L 189.339103 184.408565 
z
" style="stroke:#000000;"/>
    <path clip-path="url(#pa83f4b67b5)" d="M 189.483071 165.646086 
L 189.223226 166.34775 
L 189.339103 169.876004 
z
" style="stroke:#000000;"/>
    <path clip-path="url(#pa83f4b67b5)" d="M 189.483071 165.646086 
L 192.062763 162.024993 
L 189.312184 162.021773 
z
" style="stroke:#000000;"/>
    <path clip-path="url(#pa83f4b67b5)" d="M 192.090046 184.406408 
L 189.409206 180.797328 
L 192.161098 180.796037 
z
" style="stroke:#000000;"/>
    <path clip-path="url(#pa83f4b67b5)" d="M 189.339103 169.876004 
L 192.161098 173.488912 
L 189.409206 173.488447 
z
" style="stroke:#000000;"/>
    <path clip-path="url(#pa83f4b67b5)" d="M 192.184881 177.142676 
L 189.409206 173.488447 
L 192.161098 173.488912 
z
" style="stroke:#000000;"/>
    <path clip-path="url(#pa83f4b67b5)" d="M 192.161098 180.796037 
L 189.432671 177.143089 
L 192.184881 177.142676 
z
" style="stroke:#000000;"/>
    <path clip-path="url(#pa83f4b67b5)" d="M 192.062763 162.024993 
L 189.483071 165.646086 
L 192.235963 165.648437 
z
" style="stroke:#000000;"/>
    <path clip-path="url(#pa83f4b67b5)" d="M 189.432671 177.143089 
L 192.161098 180.796037 
L 189.409206 180.797328 
z
" style="stroke:#000000;"/>
    <path clip-path="url(#pa83f4b67b5)" d="M 192.090046 169.877338 
L 192.361236 169.405581 
L 192.161098 173.488912 
z
" style="stroke:#000000;"/>
    <path clip-path="url(#pa83f4b67b5)" d="M 192.361236 184.882761 
L 192.090046 184.406408 
L 192.161098 180.796037 
z
" style="stroke:#000000;"/>
    <path clip-path="url(#pa83f4b67b5)" d="M 189.409206 173.488447 
L 192.184881 177.142676 
L 189.432671 177.143089 
z
" style="stroke:#000000;"/>
    <path clip-path="url(#pa83f4b67b5)" d="M 189.312184 192.262333 
L 192.235963 188.637782 
L 189.483071 188.640958 
z
" style="stroke:#000000;"/>
    <path clip-path="url(#pa83f4b67b5)" d="M 192.361236 169.405581 
L 192.090046 169.877338 
L 192.235963 165.648437 
z
" style="stroke:#000000;"/>
    <path clip-path="url(#pa83f4b67b5)" d="M 192.090046 184.406408 
L 192.361236 184.882761 
L 192.235963 188.637782 
z
" style="stroke:#000000;"/>
    <path clip-path="url(#pa83f4b67b5)" d="M 189.339103 184.408565 
L 189.606671 184.885035 
L 189.409206 180.797328 
z
" style="stroke:#000000;"/>
    <path clip-path="url(#pa83f4b67b5)" d="M 189.606671 169.404133 
L 189.339103 169.876004 
L 189.409206 173.488447 
z
" style="stroke:#000000;"/>
    <path clip-path="url(#pa83f4b67b5)" d="M 192.437029 181.036876 
L 192.161098 180.796037 
L 192.184881 177.142676 
z
" style="stroke:#000000;"/>
    <path clip-path="url(#pa83f4b67b5)" d="M 192.161098 173.488912 
L 192.437029 173.252751 
L 192.184881 177.142676 
z
" style="stroke:#000000;"/>
    <path clip-path="url(#pa83f4b67b5)" d="M 189.606671 184.885035 
L 189.339103 184.408565 
L 189.483071 188.640958 
z
" style="stroke:#000000;"/>
    <path clip-path="url(#pa83f4b67b5)" d="M 189.339103 169.876004 
L 189.606671 169.404133 
L 189.483071 165.646086 
z
" style="stroke:#000000;"/>
    <path clip-path="url(#pa83f4b67b5)" d="M 192.361236 184.882761 
L 189.483071 188.640958 
L 192.235963 188.637782 
z
" style="stroke:#000000;"/>
    <path clip-path="url(#pa83f4b67b5)" d="M 189.681452 173.252227 
L 189.409206 173.488447 
L 189.432671 177.143089 
z
" style="stroke:#000000;"/>
    <path clip-path="url(#pa83f4b67b5)" d="M 189.409206 180.797328 
L 189.681452 181.038225 
L 189.432671 177.143089 
z
" style="stroke:#000000;"/>
    <path clip-path="url(#pa83f4b67b5)" d="M 189.606671 169.404133 
L 192.235963 165.648437 
L 189.483071 165.646086 
z
" style="stroke:#000000;"/>
    <path clip-path="url(#pa83f4b67b5)" d="M 192.437029 173.252751 
L 192.161098 173.488912 
L 192.361236 169.405581 
z
" style="stroke:#000000;"/>
    <path clip-path="url(#pa83f4b67b5)" d="M 192.161098 180.796037 
L 192.437029 181.036876 
L 192.361236 184.882761 
z
" style="stroke:#000000;"/>
    <path clip-path="url(#pa83f4b67b5)" d="M 192.235963 165.648437 
L 189.606671 169.404133 
L 192.361236 169.405581 
z
" style="stroke:#000000;"/>
    <path clip-path="url(#pa83f4b67b5)" d="M 189.483071 188.640958 
L 192.361236 184.882761 
L 189.606671 184.885035 
z
" style="stroke:#000000;"/>
    <path clip-path="url(#pa83f4b67b5)" d="M 192.462398 177.145028 
L 192.184881 177.142676 
L 192.437029 173.252751 
z
" style="stroke:#000000;"/>
    <path clip-path="url(#pa83f4b67b5)" d="M 192.184881 177.142676 
L 192.462398 177.145028 
L 192.437029 181.036876 
z
" style="stroke:#000000;"/>
    <path clip-path="url(#pa83f4b67b5)" d="M 189.681452 181.038225 
L 189.409206 180.797328 
L 189.606671 184.885035 
z
" style="stroke:#000000;"/>
    <path clip-path="url(#pa83f4b67b5)" d="M 189.409206 173.488447 
L 189.681452 173.252227 
L 189.606671 169.404133 
z
" style="stroke:#000000;"/>
    <path clip-path="url(#pa83f4b67b5)" d="M 189.387109 153.341971 
L 192.833607 149.540741 
L 192.138702 153.347277 
z
" style="stroke:#000000;"/>
    <path clip-path="url(#pa83f4b67b5)" d="M 192.833607 164.463678 
L 189.387109 153.341971 
L 192.138702 153.347277 
z
" style="stroke:#000000;"/>
    <path clip-path="url(#pa83f4b67b5)" d="M 192.437029 181.036876 
L 189.606671 184.885035 
L 192.361236 184.882761 
z
" style="stroke:#000000;"/>
    <path clip-path="url(#pa83f4b67b5)" d="M 189.706482 177.145442 
L 189.432671 177.143089 
L 189.681452 181.038225 
z
" style="stroke:#000000;"/>
    <path clip-path="url(#pa83f4b67b5)" d="M 189.432671 177.143089 
L 189.706482 177.145442 
L 189.681452 173.252227 
z
" style="stroke:#000000;"/>
    <path clip-path="url(#pa83f4b67b5)" d="M 189.681452 173.252227 
L 192.361236 169.405581 
L 189.606671 169.404133 
z
" style="stroke:#000000;"/>
    <path clip-path="url(#pa83f4b67b5)" d="M 192.361236 169.405581 
L 189.681452 173.252227 
L 192.437029 173.252751 
z
" style="stroke:#000000;"/>
    <path clip-path="url(#pa83f4b67b5)" d="M 189.606671 184.885035 
L 192.437029 181.036876 
L 189.681452 181.038225 
z
" style="stroke:#000000;"/>
    <path clip-path="url(#pa83f4b67b5)" d="M 192.833607 149.540741 
L 192.369808 153.787344 
L 192.138702 153.347277 
z
" style="stroke:#000000;"/>
    <path clip-path="url(#pa83f4b67b5)" d="M 192.833607 160.732943 
L 192.138702 153.347277 
L 192.369808 153.787344 
z
" style="stroke:#000000;"/>
    <path clip-path="url(#pa83f4b67b5)" d="M 192.462398 177.145028 
L 189.681452 181.038225 
L 192.437029 181.036876 
z
" style="stroke:#000000;"/>
    <path clip-path="url(#pa83f4b67b5)" d="M 192.437029 173.252751 
L 189.706482 177.145442 
L 192.462398 177.145028 
z
" style="stroke:#000000;"/>
    <path clip-path="url(#pa83f4b67b5)" d="M 189.706482 177.145442 
L 192.437029 173.252751 
L 189.681452 173.252227 
z
" style="stroke:#000000;"/>
    <path clip-path="url(#pa83f4b67b5)" d="M 189.681452 181.038225 
L 192.462398 177.145028 
L 189.706482 177.145442 
z
" style="stroke:#000000;"/>
    <path clip-path="url(#pa83f4b67b5)" d="M 189.387109 153.341971 
L 190.072733 160.729401 
L 189.615128 153.782138 
z
" style="stroke:#000000;"/>
    <path clip-path="url(#pa83f4b67b5)" d="M 189.615128 153.782138 
L 190.072733 149.5345 
L 189.387109 153.341971 
z
" style="stroke:#000000;"/>
    <path clip-path="url(#pa83f4b67b5)" d="M 192.369808 153.787344 
L 190.072733 151.400316 
L 189.615128 153.782138 
z
" style="stroke:#000000;"/>
    <path clip-path="url(#pa83f4b67b5)" d="M 190.072733 160.729401 
L 192.369808 153.787344 
L 189.615128 153.782138 
z
" style="stroke:#000000;"/>
    <path clip-path="url(#pa83f4b67b5)" d="M 192.833607 160.732943 
L 192.833607 164.463678 
L 192.138702 153.347277 
z
" style="stroke:#000000;"/>
    <path clip-path="url(#pa83f4b67b5)" d="M 192.833607 149.540741 
L 189.387109 153.341971 
L 190.072733 149.5345 
z
" style="stroke:#000000;"/>
    <path clip-path="url(#pa83f4b67b5)" d="M 189.387109 153.341971 
L 192.833607 164.463678 
L 190.072733 164.461034 
z
" style="stroke:#000000;"/>
    <path clip-path="url(#pa83f4b67b5)" d="M 190.072733 160.729401 
L 189.387109 153.341971 
L 190.072733 164.461034 
z
" style="stroke:#000000;"/>
    <path clip-path="url(#pa83f4b67b5)" d="M 192.833607 149.540741 
L 192.833607 151.406108 
L 192.369808 153.787344 
z
" style="stroke:#000000;"/>
    <path clip-path="url(#pa83f4b67b5)" d="M 190.072733 151.400316 
L 192.369808 153.787344 
L 192.833607 151.406108 
z
" style="stroke:#000000;"/>
    <path clip-path="url(#pa83f4b67b5)" d="M 192.369808 153.787344 
L 190.072733 160.729401 
L 192.833607 160.732943 
z
" style="stroke:#000000;"/>
    <path clip-path="url(#pa83f4b67b5)" d="M 190.072733 149.5345 
L 189.615128 153.782138 
L 190.072733 151.400316 
z
" style="stroke:#000000;"/>
    <path clip-path="url(#pa83f4b67b5)" d="M 192.833607 149.540741 
L 193.299534 153.688063 
L 192.833607 151.406108 
z
" style="stroke:#000000;"/>
    <path clip-path="url(#pa83f4b67b5)" d="M 192.833607 151.406108 
L 190.532438 153.682809 
L 190.072733 151.400316 
z
" style="stroke:#000000;"/>
    <path clip-path="url(#pa83f4b67b5)" d="M 190.532438 153.682809 
L 192.833607 160.732943 
L 190.072733 160.729401 
z
" style="stroke:#000000;"/>
    <path clip-path="url(#pa83f4b67b5)" d="M 190.532438 153.682809 
L 190.072733 149.5345 
L 190.072733 151.400316 
z
" style="stroke:#000000;"/>
    <path clip-path="url(#pa83f4b67b5)" d="M 192.833607 160.732943 
L 193.5333 153.195151 
L 192.833607 164.463678 
z
" style="stroke:#000000;"/>
    <path clip-path="url(#pa83f4b67b5)" d="M 190.072733 149.5345 
L 193.5333 153.195151 
L 192.833607 149.540741 
z
" style="stroke:#000000;"/>
    <path clip-path="url(#pa83f4b67b5)" d="M 193.5333 153.195151 
L 190.072733 164.461034 
L 192.833607 164.463678 
z
" style="stroke:#000000;"/>
    <path clip-path="url(#pa83f4b67b5)" d="M 190.763082 153.189773 
L 190.072733 160.729401 
L 190.072733 164.461034 
z
" style="stroke:#000000;"/>
    <path clip-path="url(#pa83f4b67b5)" d="M 190.532438 153.682809 
L 192.833607 151.406108 
L 193.299534 153.688063 
z
" style="stroke:#000000;"/>
    <path clip-path="url(#pa83f4b67b5)" d="M 192.833607 160.732943 
L 190.532438 153.682809 
L 193.299534 153.688063 
z
" style="stroke:#000000;"/>
    <path clip-path="url(#pa83f4b67b5)" d="M 193.5333 153.195151 
L 192.833607 160.732943 
L 193.299534 153.688063 
z
" style="stroke:#000000;"/>
    <path clip-path="url(#pa83f4b67b5)" d="M 193.299534 153.688063 
L 192.833607 149.540741 
L 193.5333 153.195151 
z
" style="stroke:#000000;"/>
    <path clip-path="url(#pa83f4b67b5)" d="M 193.231739 181.058868 
L 190.440328 177.151747 
L 193.206178 177.151331 
z
" style="stroke:#000000;"/>
    <path clip-path="url(#pa83f4b67b5)" d="M 193.206178 177.151331 
L 190.465549 173.243699 
L 193.231739 173.244227 
z
" style="stroke:#000000;"/>
    <path clip-path="url(#pa83f4b67b5)" d="M 190.465549 173.243699 
L 193.206178 177.151331 
L 190.440328 177.151747 
z
" style="stroke:#000000;"/>
    <path clip-path="url(#pa83f4b67b5)" d="M 190.440328 177.151747 
L 193.231739 181.058868 
L 190.465549 181.060229 
z
" style="stroke:#000000;"/>
    <path clip-path="url(#pa83f4b67b5)" d="M 190.072733 160.729401 
L 190.763082 153.189773 
L 190.532438 153.682809 
z
" style="stroke:#000000;"/>
    <path clip-path="url(#pa83f4b67b5)" d="M 190.072733 149.5345 
L 190.532438 153.682809 
L 190.763082 153.189773 
z
" style="stroke:#000000;"/>
    <path clip-path="url(#pa83f4b67b5)" d="M 193.308185 184.926948 
L 190.465549 181.060229 
L 193.231739 181.058868 
z
" style="stroke:#000000;"/>
    <path clip-path="url(#pa83f4b67b5)" d="M 190.540973 169.37598 
L 193.231739 173.244227 
L 190.465549 173.243699 
z
" style="stroke:#000000;"/>
    <path clip-path="url(#pa83f4b67b5)" d="M 193.231739 173.244227 
L 190.540973 169.37598 
L 193.308185 169.377442 
z
" style="stroke:#000000;"/>
    <path clip-path="url(#pa83f4b67b5)" d="M 193.486504 177.153706 
L 193.206178 177.151331 
L 193.231739 173.244227 
z
" style="stroke:#000000;"/>
    <path clip-path="url(#pa83f4b67b5)" d="M 193.206178 177.151331 
L 193.486504 177.153706 
L 193.231739 181.058868 
z
" style="stroke:#000000;"/>
    <path clip-path="url(#pa83f4b67b5)" d="M 190.465549 181.060229 
L 193.308185 184.926948 
L 190.540973 184.929244 
z
" style="stroke:#000000;"/>
    <path clip-path="url(#pa83f4b67b5)" d="M 193.5333 153.195151 
L 190.072733 149.5345 
L 190.763082 153.189773 
z
" style="stroke:#000000;"/>
    <path clip-path="url(#pa83f4b67b5)" d="M 190.072733 164.461034 
L 193.5333 153.195151 
L 190.763082 153.189773 
z
" style="stroke:#000000;"/>
    <path clip-path="url(#pa83f4b67b5)" d="M 193.510599 173.475992 
L 193.231739 173.244227 
L 193.308185 169.377442 
z
" style="stroke:#000000;"/>
    <path clip-path="url(#pa83f4b67b5)" d="M 193.231739 181.058868 
L 193.510599 180.831829 
L 193.308185 184.926948 
z
" style="stroke:#000000;"/>
    <path clip-path="url(#pa83f4b67b5)" d="M 190.716911 177.154124 
L 190.440328 177.151747 
L 190.465549 181.060229 
z
" style="stroke:#000000;"/>
    <path clip-path="url(#pa83f4b67b5)" d="M 190.440328 177.151747 
L 190.716911 177.154124 
L 190.465549 173.243699 
z
" style="stroke:#000000;"/>
    <path clip-path="url(#pa83f4b67b5)" d="M 193.434789 188.715987 
L 190.540973 184.929244 
L 193.308185 184.926948 
z
" style="stroke:#000000;"/>
    <path clip-path="url(#pa83f4b67b5)" d="M 190.665887 165.588171 
L 193.308185 169.377442 
L 190.540973 169.37598 
z
" style="stroke:#000000;"/>
    <path clip-path="url(#pa83f4b67b5)" d="M 190.740685 180.833136 
L 190.465549 181.060229 
L 190.540973 184.929244 
z
" style="stroke:#000000;"/>
    <path clip-path="url(#pa83f4b67b5)" d="M 190.465549 173.243699 
L 190.740685 173.47552 
L 190.540973 169.37598 
z
" style="stroke:#000000;"/>
    <path clip-path="url(#pa83f4b67b5)" d="M 193.308185 169.377442 
L 190.665887 165.588171 
L 193.434789 165.590549 
z
" style="stroke:#000000;"/>
    <path clip-path="url(#pa83f4b67b5)" d="M 193.510599 180.831829 
L 193.231739 181.058868 
L 193.486504 177.153706 
z
" style="stroke:#000000;"/>
    <path clip-path="url(#pa83f4b67b5)" d="M 193.231739 173.244227 
L 193.510599 173.475992 
L 193.486504 177.153706 
z
" style="stroke:#000000;"/>
    <path clip-path="url(#pa83f4b67b5)" d="M 190.540973 184.929244 
L 193.434789 188.715987 
L 190.665887 188.7192 
z
" style="stroke:#000000;"/>
    <path clip-path="url(#pa83f4b67b5)" d="M 193.582652 169.836404 
L 193.308185 169.377442 
L 193.434789 165.590549 
z
" style="stroke:#000000;"/>
    <path clip-path="url(#pa83f4b67b5)" d="M 193.308185 184.926948 
L 193.582652 184.472638 
L 193.434789 188.715987 
z
" style="stroke:#000000;"/>
    <path clip-path="url(#pa83f4b67b5)" d="M 190.740685 173.47552 
L 190.465549 173.243699 
L 190.716911 177.154124 
z
" style="stroke:#000000;"/>
    <path clip-path="url(#pa83f4b67b5)" d="M 190.465549 181.060229 
L 190.740685 180.833136 
L 190.716911 177.154124 
z
" style="stroke:#000000;"/>
    <path clip-path="url(#pa83f4b67b5)" d="M 193.308185 169.377442 
L 193.582652 169.836404 
L 193.510599 173.475992 
z
" style="stroke:#000000;"/>
    <path clip-path="url(#pa83f4b67b5)" d="M 193.582652 184.472638 
L 193.308185 184.926948 
L 193.510599 180.831829 
z
" style="stroke:#000000;"/>
    <path clip-path="url(#pa83f4b67b5)" d="M 190.811775 184.474827 
L 190.540973 184.929244 
L 190.665887 188.7192 
z
" style="stroke:#000000;"/>
    <path clip-path="url(#pa83f4b67b5)" d="M 190.540973 169.37598 
L 190.811775 169.835051 
L 190.665887 165.588171 
z
" style="stroke:#000000;"/>
    <path clip-path="url(#pa83f4b67b5)" d="M 193.610347 192.387024 
L 190.665887 188.7192 
L 193.434789 188.715987 
z
" style="stroke:#000000;"/>
    <path clip-path="url(#pa83f4b67b5)" d="M 193.510599 173.475992 
L 190.716911 177.154124 
L 193.486504 177.153706 
z
" style="stroke:#000000;"/>
    <path clip-path="url(#pa83f4b67b5)" d="M 190.540973 184.929244 
L 190.811775 184.474827 
L 190.740685 180.833136 
z
" style="stroke:#000000;"/>
    <path clip-path="url(#pa83f4b67b5)" d="M 190.811775 169.835051 
L 190.540973 169.37598 
L 190.740685 173.47552 
z
" style="stroke:#000000;"/>
    <path clip-path="url(#pa83f4b67b5)" d="M 193.486504 177.153706 
L 190.740685 180.833136 
L 193.510599 180.831829 
z
" style="stroke:#000000;"/>
    <path clip-path="url(#pa83f4b67b5)" d="M 190.8391 161.919219 
L 193.434789 165.590549 
L 190.665887 165.588171 
z
" style="stroke:#000000;"/>
    <path clip-path="url(#pa83f4b67b5)" d="M 190.740685 180.833136 
L 193.486504 177.153706 
L 190.716911 177.154124 
z
" style="stroke:#000000;"/>
    <path clip-path="url(#pa83f4b67b5)" d="M 190.716911 177.154124 
L 193.510599 173.475992 
L 190.740685 173.47552 
z
" style="stroke:#000000;"/>
    <path clip-path="url(#pa83f4b67b5)" d="M 193.582652 169.836404 
L 190.740685 173.47552 
L 193.510599 173.475992 
z
" style="stroke:#000000;"/>
    <path clip-path="url(#pa83f4b67b5)" d="M 190.811775 184.474827 
L 193.510599 180.831829 
L 190.740685 180.833136 
z
" style="stroke:#000000;"/>
    <path clip-path="url(#pa83f4b67b5)" d="M 193.434789 165.590549 
L 190.8391 161.919219 
L 193.610347 161.922487 
z
" style="stroke:#000000;"/>
    <path clip-path="url(#pa83f4b67b5)" d="M 193.434789 165.590549 
L 193.701976 166.272313 
L 193.582652 169.836404 
z
" style="stroke:#000000;"/>
    <path clip-path="url(#pa83f4b67b5)" d="M 193.701976 188.038751 
L 193.434789 188.715987 
L 193.582652 184.472638 
z
" style="stroke:#000000;"/>
    <path clip-path="url(#pa83f4b67b5)" d="M 193.510599 180.831829 
L 190.811775 184.474827 
L 193.582652 184.472638 
z
" style="stroke:#000000;"/>
    <path clip-path="url(#pa83f4b67b5)" d="M 193.701976 166.272313 
L 193.434789 165.590549 
L 193.610347 161.922487 
z
" style="stroke:#000000;"/>
    <path clip-path="url(#pa83f4b67b5)" d="M 193.434789 188.715987 
L 193.701976 188.038751 
L 193.610347 192.387024 
z
" style="stroke:#000000;"/>
    <path clip-path="url(#pa83f4b67b5)" d="M 190.665887 188.7192 
L 193.610347 192.387024 
L 190.8391 192.391129 
z
" style="stroke:#000000;"/>
    <path clip-path="url(#pa83f4b67b5)" d="M 190.740685 173.47552 
L 193.582652 169.836404 
L 190.811775 169.835051 
z
" style="stroke:#000000;"/>
    <path clip-path="url(#pa83f4b67b5)" d="M 190.665887 188.7192 
L 190.929506 188.041805 
L 190.811775 184.474827 
z
" style="stroke:#000000;"/>
    <path clip-path="url(#pa83f4b67b5)" d="M 190.929506 166.270097 
L 190.665887 165.588171 
L 190.811775 169.835051 
z
" style="stroke:#000000;"/>
    <path clip-path="url(#pa83f4b67b5)" d="M 190.929506 188.041805 
L 190.665887 188.7192 
L 190.8391 192.391129 
z
" style="stroke:#000000;"/>
    <path clip-path="url(#pa83f4b67b5)" d="M 190.665887 165.588171 
L 190.929506 166.270097 
L 190.8391 161.919219 
z
" style="stroke:#000000;"/>
    <path clip-path="url(#pa83f4b67b5)" d="M 193.701976 166.272313 
L 190.811775 169.835051 
L 193.582652 169.836404 
z
" style="stroke:#000000;"/>
    <path clip-path="url(#pa83f4b67b5)" d="M 190.929506 188.041805 
L 193.582652 184.472638 
L 190.811775 184.474827 
z
" style="stroke:#000000;"/>
    <path clip-path="url(#pa83f4b67b5)" d="M 193.582652 184.472638 
L 190.929506 188.041805 
L 193.701976 188.038751 
z
" style="stroke:#000000;"/>
    <path clip-path="url(#pa83f4b67b5)" d="M 190.811775 169.835051 
L 193.701976 166.272313 
L 190.929506 166.270097 
z
" style="stroke:#000000;"/>
    <path clip-path="url(#pa83f4b67b5)" d="M 193.833187 195.902117 
L 190.8391 192.391129 
L 193.610347 192.387024 
z
" style="stroke:#000000;"/>
    <path clip-path="url(#pa83f4b67b5)" d="M 191.058964 158.407049 
L 193.610347 161.922487 
L 190.8391 161.919219 
z
" style="stroke:#000000;"/>
    <path clip-path="url(#pa83f4b67b5)" d="M 193.610347 161.922487 
L 193.867427 162.820527 
L 193.701976 166.272313 
z
" style="stroke:#000000;"/>
    <path clip-path="url(#pa83f4b67b5)" d="M 193.867427 191.493341 
L 193.610347 192.387024 
L 193.701976 188.038751 
z
" style="stroke:#000000;"/>
    <path clip-path="url(#pa83f4b67b5)" d="M 193.867427 162.820527 
L 193.610347 161.922487 
L 193.833187 158.411172 
z
" style="stroke:#000000;"/>
    <path clip-path="url(#pa83f4b67b5)" d="M 193.610347 192.387024 
L 193.867427 191.493341 
L 193.833187 195.902117 
z
" style="stroke:#000000;"/>
    <path clip-path="url(#pa83f4b67b5)" d="M 193.867427 162.820527 
L 190.929506 166.270097 
L 193.701976 166.272313 
z
" style="stroke:#000000;"/>
    <path clip-path="url(#pa83f4b67b5)" d="M 193.610347 161.922487 
L 191.058964 158.407049 
L 193.833187 158.411172 
z
" style="stroke:#000000;"/>
    <path clip-path="url(#pa83f4b67b5)" d="M 190.8391 192.391129 
L 191.092747 191.497235 
L 190.929506 188.041805 
z
" style="stroke:#000000;"/>
    <path clip-path="url(#pa83f4b67b5)" d="M 191.092747 162.817472 
L 190.8391 161.919219 
L 190.929506 166.270097 
z
" style="stroke:#000000;"/>
    <path clip-path="url(#pa83f4b67b5)" d="M 191.092747 191.497235 
L 193.701976 188.038751 
L 190.929506 188.041805 
z
" style="stroke:#000000;"/>
    <path clip-path="url(#pa83f4b67b5)" d="M 190.8391 192.391129 
L 193.833187 195.902117 
L 191.058964 195.907078 
z
" style="stroke:#000000;"/>
    <path clip-path="url(#pa83f4b67b5)" d="M 191.092747 191.497235 
L 190.8391 192.391129 
L 191.058964 195.907078 
z
" style="stroke:#000000;"/>
    <path clip-path="url(#pa83f4b67b5)" d="M 190.8391 161.919219 
L 191.092747 162.817472 
L 191.058964 158.407049 
z
" style="stroke:#000000;"/>
    <path clip-path="url(#pa83f4b67b5)" d="M 193.701976 188.038751 
L 191.092747 191.497235 
L 193.867427 191.493341 
z
" style="stroke:#000000;"/>
    <path clip-path="url(#pa83f4b67b5)" d="M 190.929506 166.270097 
L 193.867427 162.820527 
L 191.092747 162.817472 
z
" style="stroke:#000000;"/>
    <path clip-path="url(#pa83f4b67b5)" d="M 193.833187 158.411172 
L 194.077409 159.516886 
L 193.867427 162.820527 
z
" style="stroke:#000000;"/>
    <path clip-path="url(#pa83f4b67b5)" d="M 194.077409 194.800542 
L 193.833187 195.902117 
L 193.867427 191.493341 
z
" style="stroke:#000000;"/>
    <path clip-path="url(#pa83f4b67b5)" d="M 194.101163 199.224425 
L 191.058964 195.907078 
L 193.833187 195.902117 
z
" style="stroke:#000000;"/>
    <path clip-path="url(#pa83f4b67b5)" d="M 194.077409 159.516886 
L 191.092747 162.817472 
L 193.867427 162.820527 
z
" style="stroke:#000000;"/>
    <path clip-path="url(#pa83f4b67b5)" d="M 191.323362 155.088472 
L 193.833187 158.411172 
L 191.058964 158.407049 
z
" style="stroke:#000000;"/>
    <path clip-path="url(#pa83f4b67b5)" d="M 191.299926 194.805241 
L 193.867427 191.493341 
L 191.092747 191.497235 
z
" style="stroke:#000000;"/>
    <path clip-path="url(#pa83f4b67b5)" d="M 191.058964 195.907078 
L 191.299926 194.805241 
L 191.092747 191.497235 
z
" style="stroke:#000000;"/>
    <path clip-path="url(#pa83f4b67b5)" d="M 191.299926 159.513026 
L 191.058964 158.407049 
L 191.092747 162.817472 
z
" style="stroke:#000000;"/>
    <path clip-path="url(#pa83f4b67b5)" d="M 194.101163 155.093405 
L 194.077409 159.516886 
L 193.833187 158.411172 
z
" style="stroke:#000000;"/>
    <path clip-path="url(#pa83f4b67b5)" d="M 194.077409 194.800542 
L 194.101163 199.224425 
L 193.833187 195.902117 
z
" style="stroke:#000000;"/>
    <path clip-path="url(#pa83f4b67b5)" d="M 193.867427 191.493341 
L 191.299926 194.805241 
L 194.077409 194.800542 
z
" style="stroke:#000000;"/>
    <path clip-path="url(#pa83f4b67b5)" d="M 193.833187 158.411172 
L 191.323362 155.088472 
L 194.101163 155.093405 
z
" style="stroke:#000000;"/>
    <path clip-path="url(#pa83f4b67b5)" d="M 191.092747 162.817472 
L 194.077409 159.516886 
L 191.299926 159.513026 
z
" style="stroke:#000000;"/>
    <path clip-path="url(#pa83f4b67b5)" d="M 191.058964 195.907078 
L 194.101163 199.224425 
L 191.323362 199.230198 
z
" style="stroke:#000000;"/>
    <path clip-path="url(#pa83f4b67b5)" d="M 191.323362 199.230198 
L 191.299926 194.805241 
L 191.058964 195.907078 
z
" style="stroke:#000000;"/>
    <path clip-path="url(#pa83f4b67b5)" d="M 191.299926 159.513026 
L 191.323362 155.088472 
L 191.058964 158.407049 
z
" style="stroke:#000000;"/>
    <path clip-path="url(#pa83f4b67b5)" d="M 194.101163 155.093405 
L 194.329891 156.395947 
L 194.077409 159.516886 
z
" style="stroke:#000000;"/>
    <path clip-path="url(#pa83f4b67b5)" d="M 194.329891 197.925759 
L 194.101163 199.224425 
L 194.077409 194.800542 
z
" style="stroke:#000000;"/>
    <path clip-path="url(#pa83f4b67b5)" d="M 194.329891 156.395947 
L 191.299926 159.513026 
L 194.077409 159.516886 
z
" style="stroke:#000000;"/>
    <path clip-path="url(#pa83f4b67b5)" d="M 191.549036 197.931224 
L 194.077409 194.800542 
L 191.299926 194.805241 
z
" style="stroke:#000000;"/>
    <path clip-path="url(#pa83f4b67b5)" d="M 191.323362 199.230198 
L 191.549036 197.931224 
L 191.299926 194.805241 
z
" style="stroke:#000000;"/>
    <path clip-path="url(#pa83f4b67b5)" d="M 191.549036 156.391325 
L 191.323362 155.088472 
L 191.299926 159.513026 
z
" style="stroke:#000000;"/>
    <path clip-path="url(#pa83f4b67b5)" d="M 194.411681 202.319038 
L 191.323362 199.230198 
L 194.101163 199.224425 
z
" style="stroke:#000000;"/>
    <path clip-path="url(#pa83f4b67b5)" d="M 191.629734 151.998363 
L 194.101163 155.093405 
L 191.323362 155.088472 
z
" style="stroke:#000000;"/>
    <path clip-path="url(#pa83f4b67b5)" d="M 194.077409 194.800542 
L 191.549036 197.931224 
L 194.329891 197.925759 
z
" style="stroke:#000000;"/>
    <path clip-path="url(#pa83f4b67b5)" d="M 191.299926 159.513026 
L 194.329891 156.395947 
L 191.549036 156.391325 
z
" style="stroke:#000000;"/>
    <path clip-path="url(#pa83f4b67b5)" d="M 194.411681 152.004054 
L 194.329891 156.395947 
L 194.101163 155.093405 
z
" style="stroke:#000000;"/>
    <path clip-path="url(#pa83f4b67b5)" d="M 194.329891 197.925759 
L 194.411681 202.319038 
L 194.101163 199.224425 
z
" style="stroke:#000000;"/>
    <path clip-path="url(#pa83f4b67b5)" d="M 194.101163 155.093405 
L 191.629734 151.998363 
L 194.411681 152.004054 
z
" style="stroke:#000000;"/>
    <path clip-path="url(#pa83f4b67b5)" d="M 191.629734 202.325573 
L 191.549036 197.931224 
L 191.323362 199.230198 
z
" style="stroke:#000000;"/>
    <path clip-path="url(#pa83f4b67b5)" d="M 191.549036 156.391325 
L 191.629734 151.998363 
L 191.323362 155.088472 
z
" style="stroke:#000000;"/>
    <path clip-path="url(#pa83f4b67b5)" d="M 191.323362 199.230198 
L 194.411681 202.319038 
L 191.629734 202.325573 
z
" style="stroke:#000000;"/>
    <path clip-path="url(#pa83f4b67b5)" d="M 194.622407 153.490947 
L 191.549036 156.391325 
L 194.329891 156.395947 
z
" style="stroke:#000000;"/>
    <path clip-path="url(#pa83f4b67b5)" d="M 194.411681 152.004054 
L 194.622407 153.490947 
L 194.329891 156.395947 
z
" style="stroke:#000000;"/>
    <path clip-path="url(#pa83f4b67b5)" d="M 194.622407 200.835717 
L 194.411681 202.319038 
L 194.329891 197.925759 
z
" style="stroke:#000000;"/>
    <path clip-path="url(#pa83f4b67b5)" d="M 191.837647 200.841897 
L 194.329891 197.925759 
L 191.549036 197.931224 
z
" style="stroke:#000000;"/>
    <path clip-path="url(#pa83f4b67b5)" d="M 194.586545 203.734597 
L 191.629734 202.325573 
L 194.411681 202.319038 
z
" style="stroke:#000000;"/>
    <path clip-path="url(#pa83f4b67b5)" d="M 191.802264 150.585419 
L 194.411681 152.004054 
L 191.629734 151.998363 
z
" style="stroke:#000000;"/>
    <path clip-path="url(#pa83f4b67b5)" d="M 191.629734 202.325573 
L 191.837647 200.841897 
L 191.549036 197.931224 
z
" style="stroke:#000000;"/>
    <path clip-path="url(#pa83f4b67b5)" d="M 191.837647 153.485612 
L 191.629734 151.998363 
L 191.549036 156.391325 
z
" style="stroke:#000000;"/>
    <path clip-path="url(#pa83f4b67b5)" d="M 194.329891 197.925759 
L 191.837647 200.841897 
L 194.622407 200.835717 
z
" style="stroke:#000000;"/>
    <path clip-path="url(#pa83f4b67b5)" d="M 194.411681 152.004054 
L 191.802264 150.585419 
L 194.586545 150.591459 
z
" style="stroke:#000000;"/>
    <path clip-path="url(#pa83f4b67b5)" d="M 191.549036 156.391325 
L 194.622407 153.490947 
L 191.837647 153.485612 
z
" style="stroke:#000000;"/>
    <path clip-path="url(#pa83f4b67b5)" d="M 191.629734 202.325573 
L 194.586545 203.734597 
L 191.802264 203.741482 
z
" style="stroke:#000000;"/>
    <path clip-path="url(#pa83f4b67b5)" d="M 194.71023 151.07799 
L 194.411681 152.004054 
L 194.586545 150.591459 
z
" style="stroke:#000000;"/>
    <path clip-path="url(#pa83f4b67b5)" d="M 194.411681 202.319038 
L 194.71023 203.250162 
L 194.586545 203.734597 
z
" style="stroke:#000000;"/>
    <path clip-path="url(#pa83f4b67b5)" d="M 194.411681 152.004054 
L 194.71023 151.07799 
L 194.622407 153.490947 
z
" style="stroke:#000000;"/>
    <path clip-path="url(#pa83f4b67b5)" d="M 194.71023 203.250162 
L 194.411681 202.319038 
L 194.622407 200.835717 
z
" style="stroke:#000000;"/>
    <path clip-path="url(#pa83f4b67b5)" d="M 191.924297 203.256933 
L 191.629734 202.325573 
L 191.802264 203.741482 
z
" style="stroke:#000000;"/>
    <path clip-path="url(#pa83f4b67b5)" d="M 191.629734 151.998363 
L 191.924297 151.072065 
L 191.802264 150.585419 
z
" style="stroke:#000000;"/>
    <path clip-path="url(#pa83f4b67b5)" d="M 191.629734 202.325573 
L 191.924297 203.256933 
L 191.837647 200.841897 
z
" style="stroke:#000000;"/>
    <path clip-path="url(#pa83f4b67b5)" d="M 191.924297 151.072065 
L 191.629734 151.998363 
L 191.837647 153.485612 
z
" style="stroke:#000000;"/>
    <path clip-path="url(#pa83f4b67b5)" d="M 191.802264 150.585419 
L 194.71023 151.07799 
L 194.586545 150.591459 
z
" style="stroke:#000000;"/>
    <path clip-path="url(#pa83f4b67b5)" d="M 194.586545 203.734597 
L 191.924297 203.256933 
L 191.802264 203.741482 
z
" style="stroke:#000000;"/>
    <path clip-path="url(#pa83f4b67b5)" d="M 191.924297 203.256933 
L 194.586545 203.734597 
L 194.71023 203.250162 
z
" style="stroke:#000000;"/>
    <path clip-path="url(#pa83f4b67b5)" d="M 194.71023 151.07799 
L 191.802264 150.585419 
L 191.924297 151.072065 
z
" style="stroke:#000000;"/>
    <path clip-path="url(#pa83f4b67b5)" d="M 191.837647 200.841897 
L 194.840295 202.59613 
L 194.622407 200.835717 
z
" style="stroke:#000000;"/>
    <path clip-path="url(#pa83f4b67b5)" d="M 194.622407 153.490947 
L 194.71023 151.07799 
L 194.840295 151.734226 
z
" style="stroke:#000000;"/>
    <path clip-path="url(#pa83f4b67b5)" d="M 194.71023 203.250162 
L 194.622407 200.835717 
L 194.840295 202.59613 
z
" style="stroke:#000000;"/>
    <path clip-path="url(#pa83f4b67b5)" d="M 194.622407 153.490947 
L 192.052626 151.728457 
L 191.837647 153.485612 
z
" style="stroke:#000000;"/>
    <path clip-path="url(#pa83f4b67b5)" d="M 191.924297 151.072065 
L 194.840295 151.734226 
L 194.71023 151.07799 
z
" style="stroke:#000000;"/>
    <path clip-path="url(#pa83f4b67b5)" d="M 191.837647 200.841897 
L 191.924297 203.256933 
L 192.052626 202.602746 
z
" style="stroke:#000000;"/>
    <path clip-path="url(#pa83f4b67b5)" d="M 191.924297 151.072065 
L 191.837647 153.485612 
L 192.052626 151.728457 
z
" style="stroke:#000000;"/>
    <path clip-path="url(#pa83f4b67b5)" d="M 192.052626 151.728457 
L 194.622407 153.490947 
L 194.840295 151.734226 
z
" style="stroke:#000000;"/>
    <path clip-path="url(#pa83f4b67b5)" d="M 194.71023 203.250162 
L 192.052626 202.602746 
L 191.924297 203.256933 
z
" style="stroke:#000000;"/>
    <path clip-path="url(#pa83f4b67b5)" d="M 194.840295 202.59613 
L 191.837647 200.841897 
L 192.052626 202.602746 
z
" style="stroke:#000000;"/>
    <path clip-path="url(#pa83f4b67b5)" d="M 192.052626 202.602746 
L 194.71023 203.250162 
L 194.840295 202.59613 
z
" style="stroke:#000000;"/>
    <path clip-path="url(#pa83f4b67b5)" d="M 194.840295 151.734226 
L 191.924297 151.072065 
L 192.052626 151.728457 
z
" style="stroke:#000000;"/>
   </g>
  </g>
 </g>
 <defs>
  <clipPath id="pa83f4b67b5">
   <rect height="271.8" width="279" x="45" y="43.2"/>
  </clipPath>
 </defs>
</svg>
