<?xml version="1.0" encoding="utf-8" standalone="no"?>
<!DOCTYPE svg PUBLIC "-//W3C//DTD SVG 1.1//EN"
  "http://www.w3.org/Graphics/SVG/1.1/DTD/svg11.dtd">
<!-- Created with matplotlib (https://matplotlib.org/) -->
<svg height="360pt" version="1.1" viewBox="0 0 360 360" width="360pt" xmlns="http://www.w3.org/2000/svg" xmlns:xlink="http://www.w3.org/1999/xlink">
 <defs>
  <style type="text/css">
*{stroke-linecap:butt;stroke-linejoin:round;}
  </style>
 </defs>
 <g id="figure_1">
  <g id="patch_1">
   <path d="M 45 315 
L 324 315 
L 324 43.2 
L 45 43.2 
z
" style="fill:#ffffff;"/>
  </g>
  <g id="axes_1">
   <g id="Poly3DCollection_1">
    <path clip-path="url(#p411175f40a)" d="M 194.302308 202.089751 
L 191.443279 202.759408 
L 191.564906 202.083383 
z
" style="stroke:#000000;"/>
    <path clip-path="url(#p411175f40a)" d="M 191.564906 152.181367 
L 194.182359 151.501749 
L 194.302308 152.175814 
z
" style="stroke:#000000;"/>
    <path clip-path="url(#p411175f40a)" d="M 194.302308 152.175814 
L 191.360981 153.859546 
L 191.564906 152.181367 
z
" style="stroke:#000000;"/>
    <path clip-path="url(#p411175f40a)" d="M 194.182359 151.501749 
L 191.564906 152.181367 
L 191.443279 151.507467 
z
" style="stroke:#000000;"/>
    <path clip-path="url(#p411175f40a)" d="M 191.564906 202.083383 
L 194.101195 200.414741 
L 194.302308 202.089751 
z
" style="stroke:#000000;"/>
    <path clip-path="url(#p411175f40a)" d="M 191.443279 202.759408 
L 191.360981 200.408766 
L 191.564906 202.083383 
z
" style="stroke:#000000;"/>
    <path clip-path="url(#p411175f40a)" d="M 191.360981 153.859546 
L 191.443279 151.507467 
L 191.564906 152.181367 
z
" style="stroke:#000000;"/>
    <path clip-path="url(#p411175f40a)" d="M 191.443279 202.759408 
L 194.302308 202.089751 
L 194.182359 202.765942 
z
" style="stroke:#000000;"/>
    <path clip-path="url(#p411175f40a)" d="M 194.101195 200.414741 
L 191.564906 202.083383 
L 191.360981 200.408766 
z
" style="stroke:#000000;"/>
    <path clip-path="url(#p411175f40a)" d="M 194.182359 151.501749 
L 194.101195 153.854388 
L 194.302308 152.175814 
z
" style="stroke:#000000;"/>
    <path clip-path="url(#p411175f40a)" d="M 194.101195 200.414741 
L 194.182359 202.765942 
L 194.302308 202.089751 
z
" style="stroke:#000000;"/>
    <path clip-path="url(#p411175f40a)" d="M 191.360981 153.859546 
L 194.302308 152.175814 
L 194.101195 153.854388 
z
" style="stroke:#000000;"/>
    <path clip-path="url(#p411175f40a)" d="M 194.182359 202.765942 
L 191.327336 203.2686 
L 191.443279 202.759408 
z
" style="stroke:#000000;"/>
    <path clip-path="url(#p411175f40a)" d="M 191.443279 151.507467 
L 194.068013 150.994458 
L 194.182359 151.501749 
z
" style="stroke:#000000;"/>
    <path clip-path="url(#p411175f40a)" d="M 194.068013 150.994458 
L 191.443279 151.507467 
L 191.327336 151.0003 
z
" style="stroke:#000000;"/>
    <path clip-path="url(#p411175f40a)" d="M 191.327336 203.2686 
L 194.182359 202.765942 
L 194.068013 203.275259 
z
" style="stroke:#000000;"/>
    <path clip-path="url(#p411175f40a)" d="M 191.443279 202.759408 
L 191.162941 201.921201 
L 191.360981 200.408766 
z
" style="stroke:#000000;"/>
    <path clip-path="url(#p411175f40a)" d="M 191.162941 152.350571 
L 191.443279 151.507467 
L 191.360981 153.859546 
z
" style="stroke:#000000;"/>
    <path clip-path="url(#p411175f40a)" d="M 191.162941 201.921201 
L 191.443279 202.759408 
L 191.327336 203.2686 
z
" style="stroke:#000000;"/>
    <path clip-path="url(#p411175f40a)" d="M 191.443279 151.507467 
L 191.162941 152.350571 
L 191.327336 151.0003 
z
" style="stroke:#000000;"/>
    <path clip-path="url(#p411175f40a)" d="M 194.182359 151.501749 
L 193.905884 152.345047 
L 194.101195 153.854388 
z
" style="stroke:#000000;"/>
    <path clip-path="url(#p411175f40a)" d="M 193.905884 201.927543 
L 194.182359 202.765942 
L 194.101195 200.414741 
z
" style="stroke:#000000;"/>
    <path clip-path="url(#p411175f40a)" d="M 193.905884 152.345047 
L 194.182359 151.501749 
L 194.068013 150.994458 
z
" style="stroke:#000000;"/>
    <path clip-path="url(#p411175f40a)" d="M 194.182359 202.765942 
L 193.905884 201.927543 
L 194.068013 203.275259 
z
" style="stroke:#000000;"/>
    <path clip-path="url(#p411175f40a)" d="M 191.162941 152.350571 
L 194.068013 150.994458 
L 191.327336 151.0003 
z
" style="stroke:#000000;"/>
    <path clip-path="url(#p411175f40a)" d="M 191.085856 197.610512 
L 194.101195 200.414741 
L 191.360981 200.408766 
z
" style="stroke:#000000;"/>
    <path clip-path="url(#p411175f40a)" d="M 193.905884 201.927543 
L 191.327336 203.2686 
L 194.068013 203.275259 
z
" style="stroke:#000000;"/>
    <path clip-path="url(#p411175f40a)" d="M 193.829862 156.658112 
L 191.360981 153.859546 
L 194.101195 153.854388 
z
" style="stroke:#000000;"/>
    <path clip-path="url(#p411175f40a)" d="M 191.162941 201.921201 
L 191.085856 197.610512 
L 191.360981 200.408766 
z
" style="stroke:#000000;"/>
    <path clip-path="url(#p411175f40a)" d="M 191.085856 156.662606 
L 191.162941 152.350571 
L 191.360981 153.859546 
z
" style="stroke:#000000;"/>
    <path clip-path="url(#p411175f40a)" d="M 191.327336 203.2686 
L 193.905884 201.927543 
L 191.162941 201.921201 
z
" style="stroke:#000000;"/>
    <path clip-path="url(#p411175f40a)" d="M 194.068013 150.994458 
L 191.162941 152.350571 
L 193.905884 152.345047 
z
" style="stroke:#000000;"/>
    <path clip-path="url(#p411175f40a)" d="M 191.360981 153.859546 
L 193.829862 156.658112 
L 191.085856 156.662606 
z
" style="stroke:#000000;"/>
    <path clip-path="url(#p411175f40a)" d="M 193.905884 152.345047 
L 193.829862 156.658112 
L 194.101195 153.854388 
z
" style="stroke:#000000;"/>
    <path clip-path="url(#p411175f40a)" d="M 193.829862 197.615825 
L 193.905884 201.927543 
L 194.101195 200.414741 
z
" style="stroke:#000000;"/>
    <path clip-path="url(#p411175f40a)" d="M 194.101195 200.414741 
L 191.085856 197.610512 
L 193.829862 197.615825 
z
" style="stroke:#000000;"/>
    <path clip-path="url(#p411175f40a)" d="M 190.869635 155.333705 
L 193.905884 152.345047 
L 191.162941 152.350571 
z
" style="stroke:#000000;"/>
    <path clip-path="url(#p411175f40a)" d="M 190.869635 198.94319 
L 191.085856 197.610512 
L 191.162941 201.921201 
z
" style="stroke:#000000;"/>
    <path clip-path="url(#p411175f40a)" d="M 191.085856 156.662606 
L 190.869635 155.333705 
L 191.162941 152.350571 
z
" style="stroke:#000000;"/>
    <path clip-path="url(#p411175f40a)" d="M 193.616621 198.948828 
L 191.162941 201.921201 
L 193.905884 201.927543 
z
" style="stroke:#000000;"/>
    <path clip-path="url(#p411175f40a)" d="M 193.616621 155.328888 
L 193.829862 156.658112 
L 193.905884 152.345047 
z
" style="stroke:#000000;"/>
    <path clip-path="url(#p411175f40a)" d="M 193.829862 197.615825 
L 193.616621 198.948828 
L 193.905884 201.927543 
z
" style="stroke:#000000;"/>
    <path clip-path="url(#p411175f40a)" d="M 190.847126 194.576013 
L 193.829862 197.615825 
L 191.085856 197.610512 
z
" style="stroke:#000000;"/>
    <path clip-path="url(#p411175f40a)" d="M 193.594422 159.697505 
L 191.085856 156.662606 
L 193.829862 156.658112 
z
" style="stroke:#000000;"/>
    <path clip-path="url(#p411175f40a)" d="M 191.162941 201.921201 
L 193.616621 198.948828 
L 190.869635 198.94319 
z
" style="stroke:#000000;"/>
    <path clip-path="url(#p411175f40a)" d="M 193.905884 152.345047 
L 190.869635 155.333705 
L 193.616621 155.328888 
z
" style="stroke:#000000;"/>
    <path clip-path="url(#p411175f40a)" d="M 190.869635 198.94319 
L 190.847126 194.576013 
L 191.085856 197.610512 
z
" style="stroke:#000000;"/>
    <path clip-path="url(#p411175f40a)" d="M 190.847126 159.701276 
L 190.869635 155.333705 
L 191.085856 156.662606 
z
" style="stroke:#000000;"/>
    <path clip-path="url(#p411175f40a)" d="M 191.085856 156.662606 
L 193.594422 159.697505 
L 190.847126 159.701276 
z
" style="stroke:#000000;"/>
    <path clip-path="url(#p411175f40a)" d="M 193.829862 197.615825 
L 190.847126 194.576013 
L 193.594422 194.580604 
z
" style="stroke:#000000;"/>
    <path clip-path="url(#p411175f40a)" d="M 193.616621 155.328888 
L 193.594422 159.697505 
L 193.829862 156.658112 
z
" style="stroke:#000000;"/>
    <path clip-path="url(#p411175f40a)" d="M 193.594422 194.580604 
L 193.616621 198.948828 
L 193.829862 197.615825 
z
" style="stroke:#000000;"/>
    <path clip-path="url(#p411175f40a)" d="M 190.615086 195.713028 
L 190.847126 194.576013 
L 190.869635 198.94319 
z
" style="stroke:#000000;"/>
    <path clip-path="url(#p411175f40a)" d="M 190.847126 159.701276 
L 190.615086 158.568314 
L 190.869635 155.333705 
z
" style="stroke:#000000;"/>
    <path clip-path="url(#p411175f40a)" d="M 190.615086 158.568314 
L 193.616621 155.328888 
L 190.869635 155.333705 
z
" style="stroke:#000000;"/>
    <path clip-path="url(#p411175f40a)" d="M 190.647684 191.339654 
L 193.594422 194.580604 
L 190.847126 194.576013 
z
" style="stroke:#000000;"/>
    <path clip-path="url(#p411175f40a)" d="M 193.36558 195.717898 
L 190.869635 198.94319 
L 193.616621 198.948828 
z
" style="stroke:#000000;"/>
    <path clip-path="url(#p411175f40a)" d="M 193.397729 162.938122 
L 190.847126 159.701276 
L 193.594422 159.697505 
z
" style="stroke:#000000;"/>
    <path clip-path="url(#p411175f40a)" d="M 193.36558 158.564267 
L 193.594422 159.697505 
L 193.616621 155.328888 
z
" style="stroke:#000000;"/>
    <path clip-path="url(#p411175f40a)" d="M 193.594422 194.580604 
L 193.36558 195.717898 
L 193.616621 198.948828 
z
" style="stroke:#000000;"/>
    <path clip-path="url(#p411175f40a)" d="M 190.847126 194.576013 
L 190.615086 195.713028 
L 190.647684 191.339654 
z
" style="stroke:#000000;"/>
    <path clip-path="url(#p411175f40a)" d="M 190.615086 158.568314 
L 190.847126 159.701276 
L 190.647684 162.941119 
z
" style="stroke:#000000;"/>
    <path clip-path="url(#p411175f40a)" d="M 190.847126 159.701276 
L 193.397729 162.938122 
L 190.647684 162.941119 
z
" style="stroke:#000000;"/>
    <path clip-path="url(#p411175f40a)" d="M 190.869635 198.94319 
L 193.36558 195.717898 
L 190.615086 195.713028 
z
" style="stroke:#000000;"/>
    <path clip-path="url(#p411175f40a)" d="M 193.594422 194.580604 
L 190.647684 191.339654 
L 193.397729 191.343473 
z
" style="stroke:#000000;"/>
    <path clip-path="url(#p411175f40a)" d="M 193.616621 155.328888 
L 190.615086 158.568314 
L 193.36558 158.564267 
z
" style="stroke:#000000;"/>
    <path clip-path="url(#p411175f40a)" d="M 193.594422 159.697505 
L 193.36558 158.564267 
L 193.397729 162.938122 
z
" style="stroke:#000000;"/>
    <path clip-path="url(#p411175f40a)" d="M 193.36558 195.717898 
L 193.594422 194.580604 
L 193.397729 191.343473 
z
" style="stroke:#000000;"/>
    <path clip-path="url(#p411175f40a)" d="M 190.489963 187.938293 
L 193.397729 191.343473 
L 190.647684 191.339654 
z
" style="stroke:#000000;"/>
    <path clip-path="url(#p411175f40a)" d="M 193.242182 166.343054 
L 190.647684 162.941119 
L 193.397729 162.938122 
z
" style="stroke:#000000;"/>
    <path clip-path="url(#p411175f40a)" d="M 190.402395 192.266999 
L 190.647684 191.339654 
L 190.615086 195.713028 
z
" style="stroke:#000000;"/>
    <path clip-path="url(#p411175f40a)" d="M 190.647684 162.941119 
L 190.402395 162.018059 
L 190.615086 158.568314 
z
" style="stroke:#000000;"/>
    <path clip-path="url(#p411175f40a)" d="M 190.402395 162.018059 
L 193.36558 158.564267 
L 190.615086 158.568314 
z
" style="stroke:#000000;"/>
    <path clip-path="url(#p411175f40a)" d="M 190.647684 162.941119 
L 193.242182 166.343054 
L 190.489963 166.345235 
z
" style="stroke:#000000;"/>
    <path clip-path="url(#p411175f40a)" d="M 190.647684 191.339654 
L 190.402395 192.266999 
L 190.489963 187.938293 
z
" style="stroke:#000000;"/>
    <path clip-path="url(#p411175f40a)" d="M 190.402395 162.018059 
L 190.647684 162.941119 
L 190.489963 166.345235 
z
" style="stroke:#000000;"/>
    <path clip-path="url(#p411175f40a)" d="M 193.155821 192.271046 
L 190.615086 195.713028 
L 193.36558 195.717898 
z
" style="stroke:#000000;"/>
    <path clip-path="url(#p411175f40a)" d="M 193.397729 191.343473 
L 190.489963 187.938293 
L 193.242182 187.941298 
z
" style="stroke:#000000;"/>
    <path clip-path="url(#p411175f40a)" d="M 193.155821 162.014836 
L 193.397729 162.938122 
L 193.36558 158.564267 
z
" style="stroke:#000000;"/>
    <path clip-path="url(#p411175f40a)" d="M 193.397729 191.343473 
L 193.155821 192.271046 
L 193.36558 195.717898 
z
" style="stroke:#000000;"/>
    <path clip-path="url(#p411175f40a)" d="M 193.397729 162.938122 
L 193.155821 162.014836 
L 193.242182 166.343054 
z
" style="stroke:#000000;"/>
    <path clip-path="url(#p411175f40a)" d="M 193.155821 192.271046 
L 193.397729 191.343473 
L 193.242182 187.941298 
z
" style="stroke:#000000;"/>
    <path clip-path="url(#p411175f40a)" d="M 190.615086 195.713028 
L 193.155821 192.271046 
L 190.402395 192.266999 
z
" style="stroke:#000000;"/>
    <path clip-path="url(#p411175f40a)" d="M 193.36558 158.564267 
L 190.402395 162.018059 
L 193.155821 162.014836 
z
" style="stroke:#000000;"/>
    <path clip-path="url(#p411175f40a)" d="M 190.375897 184.411054 
L 193.242182 187.941298 
L 190.489963 187.938293 
z
" style="stroke:#000000;"/>
    <path clip-path="url(#p411175f40a)" d="M 193.129688 169.873131 
L 190.489963 166.345235 
L 193.242182 166.343054 
z
" style="stroke:#000000;"/>
    <path clip-path="url(#p411175f40a)" d="M 190.489963 166.345235 
L 193.129688 169.873131 
L 190.375897 169.874466 
z
" style="stroke:#000000;"/>
    <path clip-path="url(#p411175f40a)" d="M 193.242182 187.941298 
L 190.375897 184.411054 
L 193.129688 184.413214 
z
" style="stroke:#000000;"/>
    <path clip-path="url(#p411175f40a)" d="M 190.23418 188.644623 
L 190.489963 187.938293 
L 190.402395 192.266999 
z
" style="stroke:#000000;"/>
    <path clip-path="url(#p411175f40a)" d="M 190.489963 166.345235 
L 190.23418 165.643373 
L 190.402395 162.018059 
z
" style="stroke:#000000;"/>
    <path clip-path="url(#p411175f40a)" d="M 190.489963 187.938293 
L 190.23418 188.644623 
L 190.375897 184.411054 
z
" style="stroke:#000000;"/>
    <path clip-path="url(#p411175f40a)" d="M 190.23418 165.643373 
L 190.489963 166.345235 
L 190.375897 169.874466 
z
" style="stroke:#000000;"/>
    <path clip-path="url(#p411175f40a)" d="M 190.30689 180.798816 
L 193.129688 184.413214 
L 190.375897 184.411054 
z
" style="stroke:#000000;"/>
    <path clip-path="url(#p411175f40a)" d="M 190.23418 165.643373 
L 193.155821 162.014836 
L 190.402395 162.018059 
z
" style="stroke:#000000;"/>
    <path clip-path="url(#p411175f40a)" d="M 192.989924 165.64102 
L 193.242182 166.343054 
L 193.155821 162.014836 
z
" style="stroke:#000000;"/>
    <path clip-path="url(#p411175f40a)" d="M 193.242182 187.941298 
L 192.989924 188.647802 
L 193.155821 192.271046 
z
" style="stroke:#000000;"/>
    <path clip-path="url(#p411175f40a)" d="M 193.061632 173.487443 
L 190.375897 169.874466 
L 193.129688 169.873131 
z
" style="stroke:#000000;"/>
    <path clip-path="url(#p411175f40a)" d="M 193.242182 166.343054 
L 192.989924 165.64102 
L 193.129688 169.873131 
z
" style="stroke:#000000;"/>
    <path clip-path="url(#p411175f40a)" d="M 192.989924 188.647802 
L 193.242182 187.941298 
L 193.129688 184.413214 
z
" style="stroke:#000000;"/>
    <path clip-path="url(#p411175f40a)" d="M 192.989924 188.647802 
L 190.402395 192.266999 
L 193.155821 192.271046 
z
" style="stroke:#000000;"/>
    <path clip-path="url(#p411175f40a)" d="M 190.375897 169.874466 
L 193.061632 173.487443 
L 190.30689 173.487909 
z
" style="stroke:#000000;"/>
    <path clip-path="url(#p411175f40a)" d="M 193.129688 184.413214 
L 190.30689 180.798816 
L 193.061632 180.800108 
z
" style="stroke:#000000;"/>
    <path clip-path="url(#p411175f40a)" d="M 190.283792 177.143565 
L 193.061632 180.800108 
L 190.30689 180.798816 
z
" style="stroke:#000000;"/>
    <path clip-path="url(#p411175f40a)" d="M 190.30689 173.487909 
L 193.038852 177.143977 
L 190.283792 177.143565 
z
" style="stroke:#000000;"/>
    <path clip-path="url(#p411175f40a)" d="M 190.402395 192.266999 
L 192.989924 188.647802 
L 190.23418 188.644623 
z
" style="stroke:#000000;"/>
    <path clip-path="url(#p411175f40a)" d="M 193.038852 177.143977 
L 190.30689 173.487909 
L 193.061632 173.487443 
z
" style="stroke:#000000;"/>
    <path clip-path="url(#p411175f40a)" d="M 190.375897 184.411054 
L 190.112511 184.88766 
L 190.30689 180.798816 
z
" style="stroke:#000000;"/>
    <path clip-path="url(#p411175f40a)" d="M 190.112511 169.402461 
L 190.375897 169.874466 
L 190.30689 173.487909 
z
" style="stroke:#000000;"/>
    <path clip-path="url(#p411175f40a)" d="M 193.061632 180.800108 
L 190.283792 177.143565 
L 193.038852 177.143977 
z
" style="stroke:#000000;"/>
    <path clip-path="url(#p411175f40a)" d="M 193.155821 162.014836 
L 190.23418 165.643373 
L 192.989924 165.64102 
z
" style="stroke:#000000;"/>
    <path clip-path="url(#p411175f40a)" d="M 190.112511 184.88766 
L 190.375897 184.411054 
L 190.23418 188.644623 
z
" style="stroke:#000000;"/>
    <path clip-path="url(#p411175f40a)" d="M 190.375897 169.874466 
L 190.112511 169.402461 
L 190.23418 165.643373 
z
" style="stroke:#000000;"/>
    <path clip-path="url(#p411175f40a)" d="M 193.129688 169.873131 
L 192.869932 169.401011 
L 193.061632 173.487443 
z
" style="stroke:#000000;"/>
    <path clip-path="url(#p411175f40a)" d="M 192.869932 184.889937 
L 193.129688 184.413214 
L 193.061632 180.800108 
z
" style="stroke:#000000;"/>
    <path clip-path="url(#p411175f40a)" d="M 190.038899 173.251624 
L 190.30689 173.487909 
L 190.283792 177.143565 
z
" style="stroke:#000000;"/>
    <path clip-path="url(#p411175f40a)" d="M 190.30689 180.798816 
L 190.038899 181.039783 
L 190.283792 177.143565 
z
" style="stroke:#000000;"/>
    <path clip-path="url(#p411175f40a)" d="M 192.869932 169.401011 
L 193.129688 169.873131 
L 192.989924 165.64102 
z
" style="stroke:#000000;"/>
    <path clip-path="url(#p411175f40a)" d="M 193.129688 184.413214 
L 192.869932 184.889937 
L 192.989924 188.647802 
z
" style="stroke:#000000;"/>
    <path clip-path="url(#p411175f40a)" d="M 190.112511 169.402461 
L 192.989924 165.64102 
L 190.23418 165.643373 
z
" style="stroke:#000000;"/>
    <path clip-path="url(#p411175f40a)" d="M 192.797334 181.041135 
L 193.061632 180.800108 
L 193.038852 177.143977 
z
" style="stroke:#000000;"/>
    <path clip-path="url(#p411175f40a)" d="M 193.061632 173.487443 
L 192.797334 173.2511 
L 193.038852 177.143977 
z
" style="stroke:#000000;"/>
    <path clip-path="url(#p411175f40a)" d="M 192.869932 184.889937 
L 190.23418 188.644623 
L 192.989924 188.647802 
z
" style="stroke:#000000;"/>
    <path clip-path="url(#p411175f40a)" d="M 190.038899 181.039783 
L 190.30689 180.798816 
L 190.112511 184.88766 
z
" style="stroke:#000000;"/>
    <path clip-path="url(#p411175f40a)" d="M 190.30689 173.487909 
L 190.038899 173.251624 
L 190.112511 169.402461 
z
" style="stroke:#000000;"/>
    <path clip-path="url(#p411175f40a)" d="M 190.23418 188.644623 
L 192.869932 184.889937 
L 190.112511 184.88766 
z
" style="stroke:#000000;"/>
    <path clip-path="url(#p411175f40a)" d="M 192.989924 165.64102 
L 190.112511 169.402461 
L 192.869932 169.401011 
z
" style="stroke:#000000;"/>
    <path clip-path="url(#p411175f40a)" d="M 190.01426 177.145919 
L 190.283792 177.143565 
L 190.038899 181.039783 
z
" style="stroke:#000000;"/>
    <path clip-path="url(#p411175f40a)" d="M 190.283792 177.143565 
L 190.01426 177.145919 
L 190.038899 173.251624 
z
" style="stroke:#000000;"/>
    <path clip-path="url(#p411175f40a)" d="M 192.797334 173.2511 
L 193.061632 173.487443 
L 192.869932 169.401011 
z
" style="stroke:#000000;"/>
    <path clip-path="url(#p411175f40a)" d="M 193.061632 180.800108 
L 192.797334 181.041135 
L 192.869932 184.889937 
z
" style="stroke:#000000;"/>
    <path clip-path="url(#p411175f40a)" d="M 190.038899 173.251624 
L 192.869932 169.401011 
L 190.112511 169.402461 
z
" style="stroke:#000000;"/>
    <path clip-path="url(#p411175f40a)" d="M 190.328642 153.335849 
L 192.417476 149.521049 
L 193.083084 153.330538 
z
" style="stroke:#000000;"/>
    <path clip-path="url(#p411175f40a)" d="M 192.417476 164.455338 
L 190.328642 153.335849 
L 193.083084 153.330538 
z
" style="stroke:#000000;"/>
    <path clip-path="url(#p411175f40a)" d="M 192.773035 177.146333 
L 193.038852 177.143977 
L 192.797334 173.2511 
z
" style="stroke:#000000;"/>
    <path clip-path="url(#p411175f40a)" d="M 193.038852 177.143977 
L 192.773035 177.146333 
L 192.797334 181.041135 
z
" style="stroke:#000000;"/>
    <path clip-path="url(#p411175f40a)" d="M 192.797334 181.041135 
L 190.112511 184.88766 
L 192.869932 184.889937 
z
" style="stroke:#000000;"/>
    <path clip-path="url(#p411175f40a)" d="M 190.112511 184.88766 
L 192.797334 181.041135 
L 190.038899 181.039783 
z
" style="stroke:#000000;"/>
    <path clip-path="url(#p411175f40a)" d="M 192.869932 169.401011 
L 190.038899 173.251624 
L 192.797334 173.2511 
z
" style="stroke:#000000;"/>
    <path clip-path="url(#p411175f40a)" d="M 190.328642 153.335849 
L 189.653733 160.725312 
L 190.104186 153.776131 
z
" style="stroke:#000000;"/>
    <path clip-path="url(#p411175f40a)" d="M 190.104186 153.776131 
L 189.653733 149.527297 
L 190.328642 153.335849 
z
" style="stroke:#000000;"/>
    <path clip-path="url(#p411175f40a)" d="M 190.01426 177.145919 
L 192.797334 173.2511 
L 190.038899 173.251624 
z
" style="stroke:#000000;"/>
    <path clip-path="url(#p411175f40a)" d="M 190.038899 181.039783 
L 192.773035 177.146333 
L 190.01426 177.145919 
z
" style="stroke:#000000;"/>
    <path clip-path="url(#p411175f40a)" d="M 192.773035 177.146333 
L 190.038899 181.039783 
L 192.797334 181.041135 
z
" style="stroke:#000000;"/>
    <path clip-path="url(#p411175f40a)" d="M 192.797334 173.2511 
L 190.01426 177.145919 
L 192.773035 177.146333 
z
" style="stroke:#000000;"/>
    <path clip-path="url(#p411175f40a)" d="M 192.417476 149.521049 
L 192.861722 153.77092 
L 193.083084 153.330538 
z
" style="stroke:#000000;"/>
    <path clip-path="url(#p411175f40a)" d="M 192.417476 160.721766 
L 193.083084 153.330538 
L 192.861722 153.77092 
z
" style="stroke:#000000;"/>
    <path clip-path="url(#p411175f40a)" d="M 192.861722 153.77092 
L 189.653733 151.393633 
L 190.104186 153.776131 
z
" style="stroke:#000000;"/>
    <path clip-path="url(#p411175f40a)" d="M 189.653733 160.725312 
L 192.861722 153.77092 
L 190.104186 153.776131 
z
" style="stroke:#000000;"/>
    <path clip-path="url(#p411175f40a)" d="M 189.653733 160.725312 
L 190.328642 153.335849 
L 189.653733 164.457984 
z
" style="stroke:#000000;"/>
    <path clip-path="url(#p411175f40a)" d="M 192.417476 149.521049 
L 190.328642 153.335849 
L 189.653733 149.527297 
z
" style="stroke:#000000;"/>
    <path clip-path="url(#p411175f40a)" d="M 190.328642 153.335849 
L 192.417476 164.455338 
L 189.653733 164.457984 
z
" style="stroke:#000000;"/>
    <path clip-path="url(#p411175f40a)" d="M 192.417476 160.721766 
L 192.417476 164.455338 
L 193.083084 153.330538 
z
" style="stroke:#000000;"/>
    <path clip-path="url(#p411175f40a)" d="M 189.653733 149.527297 
L 190.104186 153.776131 
L 189.653733 151.393633 
z
" style="stroke:#000000;"/>
    <path clip-path="url(#p411175f40a)" d="M 189.653733 151.393633 
L 192.861722 153.77092 
L 192.417476 151.387835 
z
" style="stroke:#000000;"/>
    <path clip-path="url(#p411175f40a)" d="M 192.861722 153.77092 
L 189.653733 160.725312 
L 192.417476 160.721766 
z
" style="stroke:#000000;"/>
    <path clip-path="url(#p411175f40a)" d="M 192.417476 149.521049 
L 192.417476 151.387835 
L 192.861722 153.77092 
z
" style="stroke:#000000;"/>
    <path clip-path="url(#p411175f40a)" d="M 189.201213 153.676747 
L 189.653733 149.527297 
L 189.653733 151.393633 
z
" style="stroke:#000000;"/>
    <path clip-path="url(#p411175f40a)" d="M 192.417476 151.387835 
L 189.201213 153.676747 
L 189.653733 151.393633 
z
" style="stroke:#000000;"/>
    <path clip-path="url(#p411175f40a)" d="M 189.201213 153.676747 
L 192.417476 160.721766 
L 189.653733 160.725312 
z
" style="stroke:#000000;"/>
    <path clip-path="url(#p411175f40a)" d="M 192.417476 149.521049 
L 191.971191 153.671488 
L 192.417476 151.387835 
z
" style="stroke:#000000;"/>
    <path clip-path="url(#p411175f40a)" d="M 188.974172 153.183566 
L 189.653733 160.725312 
L 189.653733 164.457984 
z
" style="stroke:#000000;"/>
    <path clip-path="url(#p411175f40a)" d="M 189.653733 149.527297 
L 191.747279 153.178181 
L 192.417476 149.521049 
z
" style="stroke:#000000;"/>
    <path clip-path="url(#p411175f40a)" d="M 191.747279 153.178181 
L 189.653733 164.457984 
L 192.417476 164.455338 
z
" style="stroke:#000000;"/>
    <path clip-path="url(#p411175f40a)" d="M 192.417476 160.721766 
L 191.747279 153.178181 
L 192.417476 164.455338 
z
" style="stroke:#000000;"/>
    <path clip-path="url(#p411175f40a)" d="M 189.201213 153.676747 
L 192.417476 151.387835 
L 191.971191 153.671488 
z
" style="stroke:#000000;"/>
    <path clip-path="url(#p411175f40a)" d="M 192.417476 160.721766 
L 189.201213 153.676747 
L 191.971191 153.671488 
z
" style="stroke:#000000;"/>
    <path clip-path="url(#p411175f40a)" d="M 189.653733 160.725312 
L 188.974172 153.183566 
L 189.201213 153.676747 
z
" style="stroke:#000000;"/>
    <path clip-path="url(#p411175f40a)" d="M 189.653733 149.527297 
L 189.201213 153.676747 
L 188.974172 153.183566 
z
" style="stroke:#000000;"/>
    <path clip-path="url(#p411175f40a)" d="M 189.267057 173.243091 
L 192.060612 177.152645 
L 189.291883 177.152228 
z
" style="stroke:#000000;"/>
    <path clip-path="url(#p411175f40a)" d="M 189.291883 177.152228 
L 192.036127 181.063161 
L 189.267057 181.061799 
z
" style="stroke:#000000;"/>
    <path clip-path="url(#p411175f40a)" d="M 192.036127 181.063161 
L 189.291883 177.152228 
L 192.060612 177.152645 
z
" style="stroke:#000000;"/>
    <path clip-path="url(#p411175f40a)" d="M 192.060612 177.152645 
L 189.267057 173.243091 
L 192.036127 173.242563 
z
" style="stroke:#000000;"/>
    <path clip-path="url(#p411175f40a)" d="M 191.971191 153.671488 
L 192.417476 149.521049 
L 191.747279 153.178181 
z
" style="stroke:#000000;"/>
    <path clip-path="url(#p411175f40a)" d="M 191.747279 153.178181 
L 192.417476 160.721766 
L 191.971191 153.671488 
z
" style="stroke:#000000;"/>
    <path clip-path="url(#p411175f40a)" d="M 189.192811 169.374293 
L 192.036127 173.242563 
L 189.267057 173.243091 
z
" style="stroke:#000000;"/>
    <path clip-path="url(#p411175f40a)" d="M 191.962904 184.934192 
L 189.267057 181.061799 
L 192.036127 181.063161 
z
" style="stroke:#000000;"/>
    <path clip-path="url(#p411175f40a)" d="M 189.267057 181.061799 
L 191.962904 184.934192 
L 189.192811 184.931894 
z
" style="stroke:#000000;"/>
    <path clip-path="url(#p411175f40a)" d="M 189.019622 177.154606 
L 189.291883 177.152228 
L 189.267057 181.061799 
z
" style="stroke:#000000;"/>
    <path clip-path="url(#p411175f40a)" d="M 189.291883 177.152228 
L 189.019622 177.154606 
L 189.267057 173.243091 
z
" style="stroke:#000000;"/>
    <path clip-path="url(#p411175f40a)" d="M 192.036127 173.242563 
L 189.192811 169.374293 
L 191.962904 169.372829 
z
" style="stroke:#000000;"/>
    <path clip-path="url(#p411175f40a)" d="M 191.747279 153.178181 
L 189.653733 149.527297 
L 188.974172 153.183566 
z
" style="stroke:#000000;"/>
    <path clip-path="url(#p411175f40a)" d="M 189.653733 164.457984 
L 191.747279 153.178181 
L 188.974172 153.183566 
z
" style="stroke:#000000;"/>
    <path clip-path="url(#p411175f40a)" d="M 188.99622 180.834645 
L 189.267057 181.061799 
L 189.192811 184.931894 
z
" style="stroke:#000000;"/>
    <path clip-path="url(#p411175f40a)" d="M 189.267057 173.243091 
L 188.99622 173.474976 
L 189.192811 169.374293 
z
" style="stroke:#000000;"/>
    <path clip-path="url(#p411175f40a)" d="M 191.792102 177.155024 
L 192.060612 177.152645 
L 192.036127 173.242563 
z
" style="stroke:#000000;"/>
    <path clip-path="url(#p411175f40a)" d="M 192.060612 177.152645 
L 191.792102 177.155024 
L 192.036127 181.063161 
z
" style="stroke:#000000;"/>
    <path clip-path="url(#p411175f40a)" d="M 189.069849 165.585426 
L 191.962904 169.372829 
L 189.192811 169.374293 
z
" style="stroke:#000000;"/>
    <path clip-path="url(#p411175f40a)" d="M 191.841637 188.726126 
L 189.192811 184.931894 
L 191.962904 184.934192 
z
" style="stroke:#000000;"/>
    <path clip-path="url(#p411175f40a)" d="M 191.769023 173.474503 
L 192.036127 173.242563 
L 191.962904 169.372829 
z
" style="stroke:#000000;"/>
    <path clip-path="url(#p411175f40a)" d="M 192.036127 181.063161 
L 191.769023 180.835954 
L 191.962904 184.934192 
z
" style="stroke:#000000;"/>
    <path clip-path="url(#p411175f40a)" d="M 189.192811 184.931894 
L 191.841637 188.726126 
L 189.069849 188.722909 
z
" style="stroke:#000000;"/>
    <path clip-path="url(#p411175f40a)" d="M 188.99622 173.474976 
L 189.267057 173.243091 
L 189.019622 177.154606 
z
" style="stroke:#000000;"/>
    <path clip-path="url(#p411175f40a)" d="M 189.267057 181.061799 
L 188.99622 180.834645 
L 189.019622 177.154606 
z
" style="stroke:#000000;"/>
    <path clip-path="url(#p411175f40a)" d="M 191.962904 169.372829 
L 189.069849 165.585426 
L 191.841637 165.583045 
z
" style="stroke:#000000;"/>
    <path clip-path="url(#p411175f40a)" d="M 188.92624 184.477353 
L 189.192811 184.931894 
L 189.069849 188.722909 
z
" style="stroke:#000000;"/>
    <path clip-path="url(#p411175f40a)" d="M 189.192811 169.374293 
L 188.92624 169.83349 
L 189.069849 165.585426 
z
" style="stroke:#000000;"/>
    <path clip-path="url(#p411175f40a)" d="M 191.769023 180.835954 
L 192.036127 181.063161 
L 191.792102 177.155024 
z
" style="stroke:#000000;"/>
    <path clip-path="url(#p411175f40a)" d="M 192.036127 173.242563 
L 191.769023 173.474503 
L 191.792102 177.155024 
z
" style="stroke:#000000;"/>
    <path clip-path="url(#p411175f40a)" d="M 189.192811 184.931894 
L 188.92624 184.477353 
L 188.99622 180.834645 
z
" style="stroke:#000000;"/>
    <path clip-path="url(#p411175f40a)" d="M 188.92624 169.83349 
L 189.192811 169.374293 
L 188.99622 173.474976 
z
" style="stroke:#000000;"/>
    <path clip-path="url(#p411175f40a)" d="M 191.700007 169.832136 
L 191.962904 169.372829 
L 191.841637 165.583045 
z
" style="stroke:#000000;"/>
    <path clip-path="url(#p411175f40a)" d="M 191.962904 184.934192 
L 191.700007 184.479544 
L 191.841637 188.726126 
z
" style="stroke:#000000;"/>
    <path clip-path="url(#p411175f40a)" d="M 188.899342 161.915447 
L 191.841637 165.583045 
L 189.069849 165.585426 
z
" style="stroke:#000000;"/>
    <path clip-path="url(#p411175f40a)" d="M 188.99622 180.834645 
L 191.792102 177.155024 
L 189.019622 177.154606 
z
" style="stroke:#000000;"/>
    <path clip-path="url(#p411175f40a)" d="M 191.962904 169.372829 
L 191.700007 169.832136 
L 191.769023 173.474503 
z
" style="stroke:#000000;"/>
    <path clip-path="url(#p411175f40a)" d="M 191.700007 184.479544 
L 191.962904 184.934192 
L 191.769023 180.835954 
z
" style="stroke:#000000;"/>
    <path clip-path="url(#p411175f40a)" d="M 189.019622 177.154606 
L 191.769023 173.474503 
L 188.99622 173.474976 
z
" style="stroke:#000000;"/>
    <path clip-path="url(#p411175f40a)" d="M 191.673479 192.399975 
L 189.069849 188.722909 
L 191.841637 188.726126 
z
" style="stroke:#000000;"/>
    <path clip-path="url(#p411175f40a)" d="M 191.769023 173.474503 
L 189.019622 177.154606 
L 191.792102 177.155024 
z
" style="stroke:#000000;"/>
    <path clip-path="url(#p411175f40a)" d="M 191.792102 177.155024 
L 188.99622 180.834645 
L 191.769023 180.835954 
z
" style="stroke:#000000;"/>
    <path clip-path="url(#p411175f40a)" d="M 188.92624 184.477353 
L 191.769023 180.835954 
L 188.99622 180.834645 
z
" style="stroke:#000000;"/>
    <path clip-path="url(#p411175f40a)" d="M 191.700007 169.832136 
L 188.99622 173.474976 
L 191.769023 173.474503 
z
" style="stroke:#000000;"/>
    <path clip-path="url(#p411175f40a)" d="M 189.069849 188.722909 
L 191.673479 192.399975 
L 188.899342 192.395866 
z
" style="stroke:#000000;"/>
    <path clip-path="url(#p411175f40a)" d="M 189.069849 188.722909 
L 188.810349 188.045329 
L 188.92624 184.477353 
z
" style="stroke:#000000;"/>
    <path clip-path="url(#p411175f40a)" d="M 188.810349 166.267539 
L 189.069849 165.585426 
L 188.92624 169.83349 
z
" style="stroke:#000000;"/>
    <path clip-path="url(#p411175f40a)" d="M 188.99622 173.474976 
L 191.700007 169.832136 
L 188.92624 169.83349 
z
" style="stroke:#000000;"/>
    <path clip-path="url(#p411175f40a)" d="M 188.810349 188.045329 
L 189.069849 188.722909 
L 188.899342 192.395866 
z
" style="stroke:#000000;"/>
    <path clip-path="url(#p411175f40a)" d="M 189.069849 165.585426 
L 188.810349 166.267539 
L 188.899342 161.915447 
z
" style="stroke:#000000;"/>
    <path clip-path="url(#p411175f40a)" d="M 191.841637 165.583045 
L 188.899342 161.915447 
L 191.673479 161.912175 
z
" style="stroke:#000000;"/>
    <path clip-path="url(#p411175f40a)" d="M 191.769023 180.835954 
L 188.92624 184.477353 
L 191.700007 184.479544 
z
" style="stroke:#000000;"/>
    <path clip-path="url(#p411175f40a)" d="M 191.841637 165.583045 
L 191.585713 166.265319 
L 191.700007 169.832136 
z
" style="stroke:#000000;"/>
    <path clip-path="url(#p411175f40a)" d="M 191.585713 188.048386 
L 191.841637 188.726126 
L 191.700007 184.479544 
z
" style="stroke:#000000;"/>
    <path clip-path="url(#p411175f40a)" d="M 191.585713 166.265319 
L 191.841637 165.583045 
L 191.673479 161.912175 
z
" style="stroke:#000000;"/>
    <path clip-path="url(#p411175f40a)" d="M 191.841637 188.726126 
L 191.585713 188.048386 
L 191.673479 192.399975 
z
" style="stroke:#000000;"/>
    <path clip-path="url(#p411175f40a)" d="M 188.810349 188.045329 
L 191.700007 184.479544 
L 188.92624 184.477353 
z
" style="stroke:#000000;"/>
    <path clip-path="url(#p411175f40a)" d="M 191.585713 166.265319 
L 188.92624 169.83349 
L 191.700007 169.832136 
z
" style="stroke:#000000;"/>
    <path clip-path="url(#p411175f40a)" d="M 188.92624 169.83349 
L 191.585713 166.265319 
L 188.810349 166.267539 
z
" style="stroke:#000000;"/>
    <path clip-path="url(#p411175f40a)" d="M 191.700007 184.479544 
L 188.810349 188.045329 
L 191.585713 188.048386 
z
" style="stroke:#000000;"/>
    <path clip-path="url(#p411175f40a)" d="M 188.682914 158.402291 
L 191.673479 161.912175 
L 188.899342 161.915447 
z
" style="stroke:#000000;"/>
    <path clip-path="url(#p411175f40a)" d="M 191.460033 195.917769 
L 188.899342 192.395866 
L 191.673479 192.399975 
z
" style="stroke:#000000;"/>
    <path clip-path="url(#p411175f40a)" d="M 188.899342 192.395866 
L 188.649659 191.501728 
L 188.810349 188.045329 
z
" style="stroke:#000000;"/>
    <path clip-path="url(#p411175f40a)" d="M 188.649659 162.813947 
L 188.899342 161.915447 
L 188.810349 166.267539 
z
" style="stroke:#000000;"/>
    <path clip-path="url(#p411175f40a)" d="M 188.649659 191.501728 
L 188.899342 192.395866 
L 188.682914 195.912803 
z
" style="stroke:#000000;"/>
    <path clip-path="url(#p411175f40a)" d="M 188.899342 161.915447 
L 188.649659 162.813947 
L 188.682914 158.402291 
z
" style="stroke:#000000;"/>
    <path clip-path="url(#p411175f40a)" d="M 188.649659 191.501728 
L 191.585713 188.048386 
L 188.810349 188.045329 
z
" style="stroke:#000000;"/>
    <path clip-path="url(#p411175f40a)" d="M 188.899342 192.395866 
L 191.460033 195.917769 
L 188.682914 195.912803 
z
" style="stroke:#000000;"/>
    <path clip-path="url(#p411175f40a)" d="M 191.673479 161.912175 
L 191.427236 162.810889 
L 191.585713 166.265319 
z
" style="stroke:#000000;"/>
    <path clip-path="url(#p411175f40a)" d="M 191.427236 191.505625 
L 191.673479 192.399975 
L 191.585713 188.048386 
z
" style="stroke:#000000;"/>
    <path clip-path="url(#p411175f40a)" d="M 191.427236 162.810889 
L 188.810349 166.267539 
L 191.585713 166.265319 
z
" style="stroke:#000000;"/>
    <path clip-path="url(#p411175f40a)" d="M 191.673479 161.912175 
L 188.682914 158.402291 
L 191.460033 158.398164 
z
" style="stroke:#000000;"/>
    <path clip-path="url(#p411175f40a)" d="M 191.427236 162.810889 
L 191.673479 161.912175 
L 191.460033 158.398164 
z
" style="stroke:#000000;"/>
    <path clip-path="url(#p411175f40a)" d="M 191.673479 192.399975 
L 191.427236 191.505625 
L 191.460033 195.917769 
z
" style="stroke:#000000;"/>
    <path clip-path="url(#p411175f40a)" d="M 188.810349 166.267539 
L 191.427236 162.810889 
L 188.649659 162.813947 
z
" style="stroke:#000000;"/>
    <path clip-path="url(#p411175f40a)" d="M 191.585713 188.048386 
L 188.649659 191.501728 
L 191.427236 191.505625 
z
" style="stroke:#000000;"/>
    <path clip-path="url(#p411175f40a)" d="M 188.682914 195.912803 
L 188.445717 194.810665 
L 188.649659 191.501728 
z
" style="stroke:#000000;"/>
    <path clip-path="url(#p411175f40a)" d="M 188.445717 159.508572 
L 188.682914 158.402291 
L 188.649659 162.813947 
z
" style="stroke:#000000;"/>
    <path clip-path="url(#p411175f40a)" d="M 188.422647 155.082779 
L 191.460033 158.398164 
L 188.682914 158.402291 
z
" style="stroke:#000000;"/>
    <path clip-path="url(#p411175f40a)" d="M 188.445717 194.810665 
L 191.427236 191.505625 
L 188.649659 191.501728 
z
" style="stroke:#000000;"/>
    <path clip-path="url(#p411175f40a)" d="M 191.203352 199.24264 
L 188.682914 195.912803 
L 191.460033 195.917769 
z
" style="stroke:#000000;"/>
    <path clip-path="url(#p411175f40a)" d="M 191.226104 159.504709 
L 188.649659 162.813947 
L 191.427236 162.810889 
z
" style="stroke:#000000;"/>
    <path clip-path="url(#p411175f40a)" d="M 191.460033 158.398164 
L 191.226104 159.504709 
L 191.427236 162.810889 
z
" style="stroke:#000000;"/>
    <path clip-path="url(#p411175f40a)" d="M 191.226104 194.815369 
L 191.460033 195.917769 
L 191.427236 191.505625 
z
" style="stroke:#000000;"/>
    <path clip-path="url(#p411175f40a)" d="M 188.422647 199.236861 
L 188.445717 194.810665 
L 188.682914 195.912803 
z
" style="stroke:#000000;"/>
    <path clip-path="url(#p411175f40a)" d="M 188.445717 159.508572 
L 188.422647 155.082779 
L 188.682914 158.402291 
z
" style="stroke:#000000;"/>
    <path clip-path="url(#p411175f40a)" d="M 188.649659 162.813947 
L 191.226104 159.504709 
L 188.445717 159.508572 
z
" style="stroke:#000000;"/>
    <path clip-path="url(#p411175f40a)" d="M 188.682914 195.912803 
L 191.203352 199.24264 
L 188.422647 199.236861 
z
" style="stroke:#000000;"/>
    <path clip-path="url(#p411175f40a)" d="M 191.427236 191.505625 
L 188.445717 194.810665 
L 191.226104 194.815369 
z
" style="stroke:#000000;"/>
    <path clip-path="url(#p411175f40a)" d="M 191.460033 158.398164 
L 188.422647 155.082779 
L 191.203352 155.077841 
z
" style="stroke:#000000;"/>
    <path clip-path="url(#p411175f40a)" d="M 191.203352 155.077841 
L 191.226104 159.504709 
L 191.460033 158.398164 
z
" style="stroke:#000000;"/>
    <path clip-path="url(#p411175f40a)" d="M 191.226104 194.815369 
L 191.203352 199.24264 
L 191.460033 195.917769 
z
" style="stroke:#000000;"/>
    <path clip-path="url(#p411175f40a)" d="M 188.422647 199.236861 
L 188.200499 197.93753 
L 188.445717 194.810665 
z
" style="stroke:#000000;"/>
    <path clip-path="url(#p411175f40a)" d="M 188.200499 156.385991 
L 188.422647 155.082779 
L 188.445717 159.508572 
z
" style="stroke:#000000;"/>
    <path clip-path="url(#p411175f40a)" d="M 188.200499 197.93753 
L 191.226104 194.815369 
L 188.445717 194.810665 
z
" style="stroke:#000000;"/>
    <path clip-path="url(#p411175f40a)" d="M 190.984264 156.381364 
L 188.445717 159.508572 
L 191.226104 159.504709 
z
" style="stroke:#000000;"/>
    <path clip-path="url(#p411175f40a)" d="M 191.203352 155.077841 
L 190.984264 156.381364 
L 191.226104 159.504709 
z
" style="stroke:#000000;"/>
    <path clip-path="url(#p411175f40a)" d="M 190.984264 197.943 
L 191.203352 199.24264 
L 191.226104 194.815369 
z
" style="stroke:#000000;"/>
    <path clip-path="url(#p411175f40a)" d="M 188.121062 151.991795 
L 191.203352 155.077841 
L 188.422647 155.082779 
z
" style="stroke:#000000;"/>
    <path clip-path="url(#p411175f40a)" d="M 190.905922 202.339654 
L 188.422647 199.236861 
L 191.203352 199.24264 
z
" style="stroke:#000000;"/>
    <path clip-path="url(#p411175f40a)" d="M 188.445717 159.508572 
L 190.984264 156.381364 
L 188.200499 156.385991 
z
" style="stroke:#000000;"/>
    <path clip-path="url(#p411175f40a)" d="M 191.226104 194.815369 
L 188.200499 197.93753 
L 190.984264 197.943 
z
" style="stroke:#000000;"/>
    <path clip-path="url(#p411175f40a)" d="M 188.121062 202.333113 
L 188.200499 197.93753 
L 188.422647 199.236861 
z
" style="stroke:#000000;"/>
    <path clip-path="url(#p411175f40a)" d="M 188.200499 156.385991 
L 188.121062 151.991795 
L 188.422647 155.082779 
z
" style="stroke:#000000;"/>
    <path clip-path="url(#p411175f40a)" d="M 188.422647 199.236861 
L 190.905922 202.339654 
L 188.121062 202.333113 
z
" style="stroke:#000000;"/>
    <path clip-path="url(#p411175f40a)" d="M 190.905922 151.986098 
L 190.984264 156.381364 
L 191.203352 155.077841 
z
" style="stroke:#000000;"/>
    <path clip-path="url(#p411175f40a)" d="M 190.984264 197.943 
L 190.905922 202.339654 
L 191.203352 199.24264 
z
" style="stroke:#000000;"/>
    <path clip-path="url(#p411175f40a)" d="M 191.203352 155.077841 
L 188.121062 151.991795 
L 190.905922 151.986098 
z
" style="stroke:#000000;"/>
    <path clip-path="url(#p411175f40a)" d="M 187.916398 200.849029 
L 190.984264 197.943 
L 188.200499 197.93753 
z
" style="stroke:#000000;"/>
    <path clip-path="url(#p411175f40a)" d="M 188.121062 202.333113 
L 187.916398 200.849029 
L 188.200499 197.93753 
z
" style="stroke:#000000;"/>
    <path clip-path="url(#p411175f40a)" d="M 187.916398 153.479454 
L 188.121062 151.991795 
L 188.200499 156.385991 
z
" style="stroke:#000000;"/>
    <path clip-path="url(#p411175f40a)" d="M 190.704077 153.474113 
L 188.200499 156.385991 
L 190.984264 156.381364 
z
" style="stroke:#000000;"/>
    <path clip-path="url(#p411175f40a)" d="M 187.951228 150.578449 
L 190.905922 151.986098 
L 188.121062 151.991795 
z
" style="stroke:#000000;"/>
    <path clip-path="url(#p411175f40a)" d="M 190.738427 203.756317 
L 188.121062 202.333113 
L 190.905922 202.339654 
z
" style="stroke:#000000;"/>
    <path clip-path="url(#p411175f40a)" d="M 190.905922 151.986098 
L 190.704077 153.474113 
L 190.984264 156.381364 
z
" style="stroke:#000000;"/>
    <path clip-path="url(#p411175f40a)" d="M 190.704077 200.855216 
L 190.905922 202.339654 
L 190.984264 197.943 
z
" style="stroke:#000000;"/>
    <path clip-path="url(#p411175f40a)" d="M 188.200499 156.385991 
L 190.704077 153.474113 
L 187.916398 153.479454 
z
" style="stroke:#000000;"/>
    <path clip-path="url(#p411175f40a)" d="M 188.121062 202.333113 
L 190.738427 203.756317 
L 187.951228 203.749426 
z
" style="stroke:#000000;"/>
    <path clip-path="url(#p411175f40a)" d="M 190.984264 197.943 
L 187.916398 200.849029 
L 190.704077 200.855216 
z
" style="stroke:#000000;"/>
    <path clip-path="url(#p411175f40a)" d="M 190.905922 151.986098 
L 187.951228 150.578449 
L 190.738427 150.572403 
z
" style="stroke:#000000;"/>
    <path clip-path="url(#p411175f40a)" d="M 187.831101 203.264746 
L 188.121062 202.333113 
L 187.951228 203.749426 
z
" style="stroke:#000000;"/>
    <path clip-path="url(#p411175f40a)" d="M 188.121062 151.991795 
L 187.831101 151.065228 
L 187.951228 150.578449 
z
" style="stroke:#000000;"/>
    <path clip-path="url(#p411175f40a)" d="M 188.121062 202.333113 
L 187.831101 203.264746 
L 187.916398 200.849029 
z
" style="stroke:#000000;"/>
    <path clip-path="url(#p411175f40a)" d="M 187.831101 151.065228 
L 188.121062 151.991795 
L 187.916398 153.479454 
z
" style="stroke:#000000;"/>
    <path clip-path="url(#p411175f40a)" d="M 190.619955 151.059296 
L 190.905922 151.986098 
L 190.738427 150.572403 
z
" style="stroke:#000000;"/>
    <path clip-path="url(#p411175f40a)" d="M 190.905922 202.339654 
L 190.619955 203.271523 
L 190.738427 203.756317 
z
" style="stroke:#000000;"/>
    <path clip-path="url(#p411175f40a)" d="M 190.905922 151.986098 
L 190.619955 151.059296 
L 190.704077 153.474113 
z
" style="stroke:#000000;"/>
    <path clip-path="url(#p411175f40a)" d="M 190.619955 203.271523 
L 190.905922 202.339654 
L 190.704077 200.855216 
z
" style="stroke:#000000;"/>
    <path clip-path="url(#p411175f40a)" d="M 190.738427 203.756317 
L 187.831101 203.264746 
L 187.951228 203.749426 
z
" style="stroke:#000000;"/>
    <path clip-path="url(#p411175f40a)" d="M 187.951228 150.578449 
L 190.619955 151.059296 
L 190.738427 150.572403 
z
" style="stroke:#000000;"/>
    <path clip-path="url(#p411175f40a)" d="M 190.619955 151.059296 
L 187.951228 150.578449 
L 187.831101 151.065228 
z
" style="stroke:#000000;"/>
    <path clip-path="url(#p411175f40a)" d="M 187.831101 203.264746 
L 190.738427 203.756317 
L 190.619955 203.271523 
z
" style="stroke:#000000;"/>
    <path clip-path="url(#p411175f40a)" d="M 190.704077 153.474113 
L 187.704777 151.7218 
L 187.916398 153.479454 
z
" style="stroke:#000000;"/>
    <path clip-path="url(#p411175f40a)" d="M 187.916398 200.849029 
L 187.831101 203.264746 
L 187.704777 202.61038 
z
" style="stroke:#000000;"/>
    <path clip-path="url(#p411175f40a)" d="M 187.831101 151.065228 
L 187.916398 153.479454 
L 187.704777 151.7218 
z
" style="stroke:#000000;"/>
    <path clip-path="url(#p411175f40a)" d="M 187.916398 200.849029 
L 190.495371 202.617002 
L 190.704077 200.855216 
z
" style="stroke:#000000;"/>
    <path clip-path="url(#p411175f40a)" d="M 190.619955 203.271523 
L 187.704777 202.61038 
L 187.831101 203.264746 
z
" style="stroke:#000000;"/>
    <path clip-path="url(#p411175f40a)" d="M 190.704077 153.474113 
L 190.619955 151.059296 
L 190.495371 151.716025 
z
" style="stroke:#000000;"/>
    <path clip-path="url(#p411175f40a)" d="M 190.619955 203.271523 
L 190.704077 200.855216 
L 190.495371 202.617002 
z
" style="stroke:#000000;"/>
    <path clip-path="url(#p411175f40a)" d="M 190.495371 202.617002 
L 187.916398 200.849029 
L 187.704777 202.61038 
z
" style="stroke:#000000;"/>
    <path clip-path="url(#p411175f40a)" d="M 187.831101 151.065228 
L 190.495371 151.716025 
L 190.619955 151.059296 
z
" style="stroke:#000000;"/>
    <path clip-path="url(#p411175f40a)" d="M 187.704777 151.7218 
L 190.704077 153.474113 
L 190.495371 151.716025 
z
" style="stroke:#000000;"/>
    <path clip-path="url(#p411175f40a)" d="M 190.495371 151.716025 
L 187.831101 151.065228 
L 187.704777 151.7218 
z
" style="stroke:#000000;"/>
    <path clip-path="url(#p411175f40a)" d="M 187.704777 202.61038 
L 190.619955 203.271523 
L 190.495371 202.617002 
z
" style="stroke:#000000;"/>
   </g>
  </g>
 </g>
 <defs>
  <clipPath id="p411175f40a">
   <rect height="271.8" width="279" x="45" y="43.2"/>
  </clipPath>
 </defs>
</svg>
