<?xml version="1.0" encoding="utf-8" standalone="no"?>
<!DOCTYPE svg PUBLIC "-//W3C//DTD SVG 1.1//EN"
  "http://www.w3.org/Graphics/SVG/1.1/DTD/svg11.dtd">
<!-- Created with matplotlib (https://matplotlib.org/) -->
<svg height="360pt" version="1.1" viewBox="0 0 360 360" width="360pt" xmlns="http://www.w3.org/2000/svg" xmlns:xlink="http://www.w3.org/1999/xlink">
 <defs>
  <style type="text/css">
*{stroke-linecap:butt;stroke-linejoin:round;}
  </style>
 </defs>
 <g id="figure_1">
  <g id="patch_1">
   <path d="M 45 315 
L 324 315 
L 324 43.2 
L 45 43.2 
z
" style="fill:#ffffff;"/>
  </g>
  <g id="axes_1">
   <g id="Poly3DCollection_1">
    <path clip-path="url(#p7539eed768)" d="M 195.883656 202.105567 
L 192.97123 202.768763 
L 193.213554 202.092928 
z
" style="stroke:#000000;"/>
    <path clip-path="url(#p7539eed768)" d="M 195.883656 152.162021 
L 192.807267 153.852395 
L 193.213554 152.173044 
z
" style="stroke:#000000;"/>
    <path clip-path="url(#p7539eed768)" d="M 193.213554 152.173044 
L 195.642839 151.487932 
L 195.883656 152.162021 
z
" style="stroke:#000000;"/>
    <path clip-path="url(#p7539eed768)" d="M 192.97123 202.768763 
L 192.807267 200.417049 
L 193.213554 202.092928 
z
" style="stroke:#000000;"/>
    <path clip-path="url(#p7539eed768)" d="M 192.807267 153.852395 
L 192.97123 151.49928 
L 193.213554 152.173044 
z
" style="stroke:#000000;"/>
    <path clip-path="url(#p7539eed768)" d="M 195.642839 151.487932 
L 193.213554 152.173044 
L 192.97123 151.49928 
z
" style="stroke:#000000;"/>
    <path clip-path="url(#p7539eed768)" d="M 193.213554 202.092928 
L 195.479895 200.428906 
L 195.883656 202.105567 
z
" style="stroke:#000000;"/>
    <path clip-path="url(#p7539eed768)" d="M 192.97123 202.768763 
L 195.883656 202.105567 
L 195.642839 202.78173 
z
" style="stroke:#000000;"/>
    <path clip-path="url(#p7539eed768)" d="M 195.479895 200.428906 
L 193.213554 202.092928 
L 192.807267 200.417049 
z
" style="stroke:#000000;"/>
    <path clip-path="url(#p7539eed768)" d="M 195.642839 202.78173 
L 192.740235 203.277709 
L 192.97123 202.768763 
z
" style="stroke:#000000;"/>
    <path clip-path="url(#p7539eed768)" d="M 192.807267 153.852395 
L 195.883656 152.162021 
L 195.479895 153.842159 
z
" style="stroke:#000000;"/>
    <path clip-path="url(#p7539eed768)" d="M 195.642839 151.487932 
L 195.479895 153.842159 
L 195.883656 152.162021 
z
" style="stroke:#000000;"/>
    <path clip-path="url(#p7539eed768)" d="M 195.479895 200.428906 
L 195.642839 202.78173 
L 195.883656 202.105567 
z
" style="stroke:#000000;"/>
    <path clip-path="url(#p7539eed768)" d="M 192.97123 151.49928 
L 195.413281 150.980713 
L 195.642839 151.487932 
z
" style="stroke:#000000;"/>
    <path clip-path="url(#p7539eed768)" d="M 195.413281 150.980713 
L 192.97123 151.49928 
L 192.740235 150.992308 
z
" style="stroke:#000000;"/>
    <path clip-path="url(#p7539eed768)" d="M 192.97123 202.768763 
L 192.412722 201.929303 
L 192.807267 200.417049 
z
" style="stroke:#000000;"/>
    <path clip-path="url(#p7539eed768)" d="M 192.412722 152.343515 
L 192.97123 151.49928 
L 192.807267 153.852395 
z
" style="stroke:#000000;"/>
    <path clip-path="url(#p7539eed768)" d="M 192.412722 201.929303 
L 192.97123 202.768763 
L 192.740235 203.277709 
z
" style="stroke:#000000;"/>
    <path clip-path="url(#p7539eed768)" d="M 192.97123 151.49928 
L 192.412722 152.343515 
L 192.740235 150.992308 
z
" style="stroke:#000000;"/>
    <path clip-path="url(#p7539eed768)" d="M 192.740235 203.277709 
L 195.642839 202.78173 
L 195.413281 203.290926 
z
" style="stroke:#000000;"/>
    <path clip-path="url(#p7539eed768)" d="M 192.412722 152.343515 
L 195.413281 150.980713 
L 192.740235 150.992308 
z
" style="stroke:#000000;"/>
    <path clip-path="url(#p7539eed768)" d="M 192.259157 197.617073 
L 195.479895 200.428906 
L 192.807267 200.417049 
z
" style="stroke:#000000;"/>
    <path clip-path="url(#p7539eed768)" d="M 195.642839 151.487932 
L 195.087803 152.332551 
L 195.479895 153.842159 
z
" style="stroke:#000000;"/>
    <path clip-path="url(#p7539eed768)" d="M 195.087803 201.941889 
L 195.642839 202.78173 
L 195.479895 200.428906 
z
" style="stroke:#000000;"/>
    <path clip-path="url(#p7539eed768)" d="M 195.087803 152.332551 
L 195.642839 151.487932 
L 195.413281 150.980713 
z
" style="stroke:#000000;"/>
    <path clip-path="url(#p7539eed768)" d="M 195.642839 202.78173 
L 195.087803 201.941889 
L 195.413281 203.290926 
z
" style="stroke:#000000;"/>
    <path clip-path="url(#p7539eed768)" d="M 195.087803 201.941889 
L 192.740235 203.277709 
L 195.413281 203.290926 
z
" style="stroke:#000000;"/>
    <path clip-path="url(#p7539eed768)" d="M 194.935192 156.648138 
L 192.807267 153.852395 
L 195.479895 153.842159 
z
" style="stroke:#000000;"/>
    <path clip-path="url(#p7539eed768)" d="M 192.412722 201.929303 
L 192.259157 197.617073 
L 192.807267 200.417049 
z
" style="stroke:#000000;"/>
    <path clip-path="url(#p7539eed768)" d="M 192.259157 156.657056 
L 192.412722 152.343515 
L 192.807267 153.852395 
z
" style="stroke:#000000;"/>
    <path clip-path="url(#p7539eed768)" d="M 192.740235 203.277709 
L 195.087803 201.941889 
L 192.412722 201.929303 
z
" style="stroke:#000000;"/>
    <path clip-path="url(#p7539eed768)" d="M 195.413281 150.980713 
L 192.412722 152.343515 
L 195.087803 152.332551 
z
" style="stroke:#000000;"/>
    <path clip-path="url(#p7539eed768)" d="M 192.807267 153.852395 
L 194.935192 156.648138 
L 192.259157 156.657056 
z
" style="stroke:#000000;"/>
    <path clip-path="url(#p7539eed768)" d="M 195.479895 200.428906 
L 192.259157 197.617073 
L 194.935192 197.627616 
z
" style="stroke:#000000;"/>
    <path clip-path="url(#p7539eed768)" d="M 195.087803 152.332551 
L 194.935192 156.648138 
L 195.479895 153.842159 
z
" style="stroke:#000000;"/>
    <path clip-path="url(#p7539eed768)" d="M 194.935192 197.627616 
L 195.087803 201.941889 
L 195.479895 200.428906 
z
" style="stroke:#000000;"/>
    <path clip-path="url(#p7539eed768)" d="M 191.828425 198.949484 
L 192.259157 197.617073 
L 192.412722 201.929303 
z
" style="stroke:#000000;"/>
    <path clip-path="url(#p7539eed768)" d="M 192.259157 156.657056 
L 191.828425 155.328327 
L 192.412722 152.343515 
z
" style="stroke:#000000;"/>
    <path clip-path="url(#p7539eed768)" d="M 191.828425 155.328327 
L 195.087803 152.332551 
L 192.412722 152.343515 
z
" style="stroke:#000000;"/>
    <path clip-path="url(#p7539eed768)" d="M 194.507139 198.960672 
L 192.412722 201.929303 
L 195.087803 201.941889 
z
" style="stroke:#000000;"/>
    <path clip-path="url(#p7539eed768)" d="M 191.783585 194.581082 
L 194.935192 197.627616 
L 192.259157 197.617073 
z
" style="stroke:#000000;"/>
    <path clip-path="url(#p7539eed768)" d="M 194.507139 155.318768 
L 194.935192 156.648138 
L 195.087803 152.332551 
z
" style="stroke:#000000;"/>
    <path clip-path="url(#p7539eed768)" d="M 194.935192 197.627616 
L 194.507139 198.960672 
L 195.087803 201.941889 
z
" style="stroke:#000000;"/>
    <path clip-path="url(#p7539eed768)" d="M 194.462577 159.68963 
L 192.259157 156.657056 
L 194.935192 156.648138 
z
" style="stroke:#000000;"/>
    <path clip-path="url(#p7539eed768)" d="M 192.412722 201.929303 
L 194.507139 198.960672 
L 191.828425 198.949484 
z
" style="stroke:#000000;"/>
    <path clip-path="url(#p7539eed768)" d="M 191.828425 198.949484 
L 191.783585 194.581082 
L 192.259157 197.617073 
z
" style="stroke:#000000;"/>
    <path clip-path="url(#p7539eed768)" d="M 191.783585 159.697113 
L 191.828425 155.328327 
L 192.259157 156.657056 
z
" style="stroke:#000000;"/>
    <path clip-path="url(#p7539eed768)" d="M 195.087803 152.332551 
L 191.828425 155.328327 
L 194.507139 155.318768 
z
" style="stroke:#000000;"/>
    <path clip-path="url(#p7539eed768)" d="M 192.259157 156.657056 
L 194.462577 159.68963 
L 191.783585 159.697113 
z
" style="stroke:#000000;"/>
    <path clip-path="url(#p7539eed768)" d="M 194.935192 197.627616 
L 191.783585 194.581082 
L 194.462577 194.590193 
z
" style="stroke:#000000;"/>
    <path clip-path="url(#p7539eed768)" d="M 194.507139 155.318768 
L 194.462577 159.68963 
L 194.935192 156.648138 
z
" style="stroke:#000000;"/>
    <path clip-path="url(#p7539eed768)" d="M 194.462577 194.590193 
L 194.507139 198.960672 
L 194.935192 197.627616 
z
" style="stroke:#000000;"/>
    <path clip-path="url(#p7539eed768)" d="M 191.32137 195.717786 
L 191.783585 194.581082 
L 191.828425 198.949484 
z
" style="stroke:#000000;"/>
    <path clip-path="url(#p7539eed768)" d="M 191.783585 159.697113 
L 191.32137 158.56436 
L 191.828425 155.328327 
z
" style="stroke:#000000;"/>
    <path clip-path="url(#p7539eed768)" d="M 191.32137 158.56436 
L 194.507139 155.318768 
L 191.828425 155.328327 
z
" style="stroke:#000000;"/>
    <path clip-path="url(#p7539eed768)" d="M 191.386303 191.343453 
L 194.462577 194.590193 
L 191.783585 194.581082 
z
" style="stroke:#000000;"/>
    <path clip-path="url(#p7539eed768)" d="M 194.003235 195.727449 
L 191.828425 198.949484 
L 194.507139 198.960672 
z
" style="stroke:#000000;"/>
    <path clip-path="url(#p7539eed768)" d="M 194.067764 162.932191 
L 191.783585 159.697113 
L 194.462577 159.68963 
z
" style="stroke:#000000;"/>
    <path clip-path="url(#p7539eed768)" d="M 191.783585 194.581082 
L 191.32137 195.717786 
L 191.386303 191.343453 
z
" style="stroke:#000000;"/>
    <path clip-path="url(#p7539eed768)" d="M 191.32137 158.56436 
L 191.783585 159.697113 
L 191.386303 162.938138 
z
" style="stroke:#000000;"/>
    <path clip-path="url(#p7539eed768)" d="M 191.783585 159.697113 
L 194.067764 162.932191 
L 191.386303 162.938138 
z
" style="stroke:#000000;"/>
    <path clip-path="url(#p7539eed768)" d="M 194.003235 158.556329 
L 194.462577 159.68963 
L 194.507139 155.318768 
z
" style="stroke:#000000;"/>
    <path clip-path="url(#p7539eed768)" d="M 194.462577 194.590193 
L 194.003235 195.727449 
L 194.507139 198.960672 
z
" style="stroke:#000000;"/>
    <path clip-path="url(#p7539eed768)" d="M 191.828425 198.949484 
L 194.003235 195.727449 
L 191.32137 195.717786 
z
" style="stroke:#000000;"/>
    <path clip-path="url(#p7539eed768)" d="M 194.462577 194.590193 
L 191.386303 191.343453 
L 194.067764 191.351032 
z
" style="stroke:#000000;"/>
    <path clip-path="url(#p7539eed768)" d="M 194.507139 155.318768 
L 191.32137 158.56436 
L 194.003235 158.556329 
z
" style="stroke:#000000;"/>
    <path clip-path="url(#p7539eed768)" d="M 194.462577 159.68963 
L 194.003235 158.556329 
L 194.067764 162.932191 
z
" style="stroke:#000000;"/>
    <path clip-path="url(#p7539eed768)" d="M 194.003235 195.727449 
L 194.462577 194.590193 
L 194.067764 191.351032 
z
" style="stroke:#000000;"/>
    <path clip-path="url(#p7539eed768)" d="M 191.072142 187.941023 
L 194.067764 191.351032 
L 191.386303 191.343453 
z
" style="stroke:#000000;"/>
    <path clip-path="url(#p7539eed768)" d="M 190.897723 192.270482 
L 191.386303 191.343453 
L 191.32137 195.717786 
z
" style="stroke:#000000;"/>
    <path clip-path="url(#p7539eed768)" d="M 191.386303 162.938138 
L 190.897723 162.015285 
L 191.32137 158.56436 
z
" style="stroke:#000000;"/>
    <path clip-path="url(#p7539eed768)" d="M 193.755555 166.338924 
L 191.386303 162.938138 
L 194.067764 162.932191 
z
" style="stroke:#000000;"/>
    <path clip-path="url(#p7539eed768)" d="M 191.386303 191.343453 
L 190.897723 192.270482 
L 191.072142 187.941023 
z
" style="stroke:#000000;"/>
    <path clip-path="url(#p7539eed768)" d="M 190.897723 162.015285 
L 191.386303 162.938138 
L 191.072142 166.343253 
z
" style="stroke:#000000;"/>
    <path clip-path="url(#p7539eed768)" d="M 190.897723 162.015285 
L 194.003235 158.556329 
L 191.32137 158.56436 
z
" style="stroke:#000000;"/>
    <path clip-path="url(#p7539eed768)" d="M 191.386303 162.938138 
L 193.755555 166.338924 
L 191.072142 166.343253 
z
" style="stroke:#000000;"/>
    <path clip-path="url(#p7539eed768)" d="M 193.58222 192.278512 
L 191.32137 195.717786 
L 194.003235 195.727449 
z
" style="stroke:#000000;"/>
    <path clip-path="url(#p7539eed768)" d="M 194.067764 191.351032 
L 191.072142 187.941023 
L 193.755555 187.946987 
z
" style="stroke:#000000;"/>
    <path clip-path="url(#p7539eed768)" d="M 193.58222 162.008891 
L 194.067764 162.932191 
L 194.003235 158.556329 
z
" style="stroke:#000000;"/>
    <path clip-path="url(#p7539eed768)" d="M 194.067764 191.351032 
L 193.58222 192.278512 
L 194.003235 195.727449 
z
" style="stroke:#000000;"/>
    <path clip-path="url(#p7539eed768)" d="M 191.32137 195.717786 
L 193.58222 192.278512 
L 190.897723 192.270482 
z
" style="stroke:#000000;"/>
    <path clip-path="url(#p7539eed768)" d="M 190.844944 184.412882 
L 193.755555 187.946987 
L 191.072142 187.941023 
z
" style="stroke:#000000;"/>
    <path clip-path="url(#p7539eed768)" d="M 194.067764 162.932191 
L 193.58222 162.008891 
L 193.755555 166.338924 
z
" style="stroke:#000000;"/>
    <path clip-path="url(#p7539eed768)" d="M 193.58222 192.278512 
L 194.067764 191.351032 
L 193.755555 187.946987 
z
" style="stroke:#000000;"/>
    <path clip-path="url(#p7539eed768)" d="M 194.003235 158.556329 
L 190.897723 162.015285 
L 193.58222 162.008891 
z
" style="stroke:#000000;"/>
    <path clip-path="url(#p7539eed768)" d="M 193.529769 169.870688 
L 191.072142 166.343253 
L 193.755555 166.338924 
z
" style="stroke:#000000;"/>
    <path clip-path="url(#p7539eed768)" d="M 191.072142 166.343253 
L 193.529769 169.870688 
L 190.844944 169.873336 
z
" style="stroke:#000000;"/>
    <path clip-path="url(#p7539eed768)" d="M 190.56268 188.647068 
L 191.072142 187.941023 
L 190.897723 192.270482 
z
" style="stroke:#000000;"/>
    <path clip-path="url(#p7539eed768)" d="M 191.072142 166.343253 
L 190.56268 165.641563 
L 190.897723 162.015285 
z
" style="stroke:#000000;"/>
    <path clip-path="url(#p7539eed768)" d="M 191.072142 187.941023 
L 190.56268 188.647068 
L 190.844944 184.412882 
z
" style="stroke:#000000;"/>
    <path clip-path="url(#p7539eed768)" d="M 190.56268 165.641563 
L 191.072142 166.343253 
L 190.844944 169.873336 
z
" style="stroke:#000000;"/>
    <path clip-path="url(#p7539eed768)" d="M 193.755555 187.946987 
L 190.844944 184.412882 
L 193.529769 184.417166 
z
" style="stroke:#000000;"/>
    <path clip-path="url(#p7539eed768)" d="M 190.707499 180.799861 
L 193.529769 184.417166 
L 190.844944 184.412882 
z
" style="stroke:#000000;"/>
    <path clip-path="url(#p7539eed768)" d="M 190.56268 165.641563 
L 193.58222 162.008891 
L 190.897723 162.015285 
z
" style="stroke:#000000;"/>
    <path clip-path="url(#p7539eed768)" d="M 190.844944 169.873336 
L 193.393178 173.486607 
L 190.707499 173.487532 
z
" style="stroke:#000000;"/>
    <path clip-path="url(#p7539eed768)" d="M 193.393178 173.486607 
L 190.844944 169.873336 
L 193.529769 169.870688 
z
" style="stroke:#000000;"/>
    <path clip-path="url(#p7539eed768)" d="M 193.249258 188.653376 
L 190.897723 192.270482 
L 193.58222 192.278512 
z
" style="stroke:#000000;"/>
    <path clip-path="url(#p7539eed768)" d="M 193.249258 165.636894 
L 193.755555 166.338924 
L 193.58222 162.008891 
z
" style="stroke:#000000;"/>
    <path clip-path="url(#p7539eed768)" d="M 193.755555 187.946987 
L 193.249258 188.653376 
L 193.58222 192.278512 
z
" style="stroke:#000000;"/>
    <path clip-path="url(#p7539eed768)" d="M 193.755555 166.338924 
L 193.249258 165.636894 
L 193.529769 169.870688 
z
" style="stroke:#000000;"/>
    <path clip-path="url(#p7539eed768)" d="M 193.249258 188.653376 
L 193.755555 187.946987 
L 193.529769 184.417166 
z
" style="stroke:#000000;"/>
    <path clip-path="url(#p7539eed768)" d="M 190.661493 177.143893 
L 193.393178 180.802424 
L 190.707499 180.799861 
z
" style="stroke:#000000;"/>
    <path clip-path="url(#p7539eed768)" d="M 193.529769 184.417166 
L 190.707499 180.799861 
L 193.393178 180.802424 
z
" style="stroke:#000000;"/>
    <path clip-path="url(#p7539eed768)" d="M 190.844944 184.412882 
L 190.320355 184.88926 
L 190.707499 180.799861 
z
" style="stroke:#000000;"/>
    <path clip-path="url(#p7539eed768)" d="M 190.320355 169.401442 
L 190.844944 169.873336 
L 190.707499 173.487532 
z
" style="stroke:#000000;"/>
    <path clip-path="url(#p7539eed768)" d="M 190.707499 173.487532 
L 193.347457 177.144712 
L 190.661493 177.143893 
z
" style="stroke:#000000;"/>
    <path clip-path="url(#p7539eed768)" d="M 190.897723 192.270482 
L 193.249258 188.653376 
L 190.56268 188.647068 
z
" style="stroke:#000000;"/>
    <path clip-path="url(#p7539eed768)" d="M 190.320355 184.88926 
L 190.844944 184.412882 
L 190.56268 188.647068 
z
" style="stroke:#000000;"/>
    <path clip-path="url(#p7539eed768)" d="M 190.844944 169.873336 
L 190.320355 169.401442 
L 190.56268 165.641563 
z
" style="stroke:#000000;"/>
    <path clip-path="url(#p7539eed768)" d="M 193.347457 177.144712 
L 190.707499 173.487532 
L 193.393178 173.486607 
z
" style="stroke:#000000;"/>
    <path clip-path="url(#p7539eed768)" d="M 193.393178 180.802424 
L 190.661493 177.143893 
L 193.347457 177.144712 
z
" style="stroke:#000000;"/>
    <path clip-path="url(#p7539eed768)" d="M 193.58222 162.008891 
L 190.56268 165.641563 
L 193.249258 165.636894 
z
" style="stroke:#000000;"/>
    <path clip-path="url(#p7539eed768)" d="M 190.173748 173.251277 
L 190.707499 173.487532 
L 190.661493 177.143893 
z
" style="stroke:#000000;"/>
    <path clip-path="url(#p7539eed768)" d="M 190.707499 180.799861 
L 190.173748 181.040679 
L 190.661493 177.143893 
z
" style="stroke:#000000;"/>
    <path clip-path="url(#p7539eed768)" d="M 193.529769 169.870688 
L 193.008439 169.398565 
L 193.393178 173.486607 
z
" style="stroke:#000000;"/>
    <path clip-path="url(#p7539eed768)" d="M 193.008439 184.893778 
L 193.529769 184.417166 
L 193.393178 180.802424 
z
" style="stroke:#000000;"/>
    <path clip-path="url(#p7539eed768)" d="M 190.320355 169.401442 
L 193.249258 165.636894 
L 190.56268 165.641563 
z
" style="stroke:#000000;"/>
    <path clip-path="url(#p7539eed768)" d="M 190.173748 181.040679 
L 190.707499 180.799861 
L 190.320355 184.88926 
z
" style="stroke:#000000;"/>
    <path clip-path="url(#p7539eed768)" d="M 190.707499 173.487532 
L 190.173748 173.251277 
L 190.320355 169.401442 
z
" style="stroke:#000000;"/>
    <path clip-path="url(#p7539eed768)" d="M 193.008439 169.398565 
L 193.529769 169.870688 
L 193.249258 165.636894 
z
" style="stroke:#000000;"/>
    <path clip-path="url(#p7539eed768)" d="M 193.529769 184.417166 
L 193.008439 184.893778 
L 193.249258 188.653376 
z
" style="stroke:#000000;"/>
    <path clip-path="url(#p7539eed768)" d="M 193.008439 184.893778 
L 190.56268 188.647068 
L 193.249258 188.653376 
z
" style="stroke:#000000;"/>
    <path clip-path="url(#p7539eed768)" d="M 190.56268 188.647068 
L 193.008439 184.893778 
L 190.320355 184.88926 
z
" style="stroke:#000000;"/>
    <path clip-path="url(#p7539eed768)" d="M 192.862743 181.04336 
L 193.393178 180.802424 
L 193.347457 177.144712 
z
" style="stroke:#000000;"/>
    <path clip-path="url(#p7539eed768)" d="M 193.393178 173.486607 
L 192.862743 173.250237 
L 193.347457 177.144712 
z
" style="stroke:#000000;"/>
    <path clip-path="url(#p7539eed768)" d="M 190.124677 177.146188 
L 190.661493 177.143893 
L 190.173748 181.040679 
z
" style="stroke:#000000;"/>
    <path clip-path="url(#p7539eed768)" d="M 190.661493 177.143893 
L 190.124677 177.146188 
L 190.173748 173.251277 
z
" style="stroke:#000000;"/>
    <path clip-path="url(#p7539eed768)" d="M 193.249258 165.636894 
L 190.320355 169.401442 
L 193.008439 169.398565 
z
" style="stroke:#000000;"/>
    <path clip-path="url(#p7539eed768)" d="M 192.862743 173.250237 
L 193.393178 173.486607 
L 193.008439 169.398565 
z
" style="stroke:#000000;"/>
    <path clip-path="url(#p7539eed768)" d="M 193.393178 180.802424 
L 192.862743 181.04336 
L 193.008439 184.893778 
z
" style="stroke:#000000;"/>
    <path clip-path="url(#p7539eed768)" d="M 190.173748 173.251277 
L 193.008439 169.398565 
L 190.320355 169.401442 
z
" style="stroke:#000000;"/>
    <path clip-path="url(#p7539eed768)" d="M 190.750823 153.331491 
L 192.100446 149.512066 
L 193.436232 153.320953 
z
" style="stroke:#000000;"/>
    <path clip-path="url(#p7539eed768)" d="M 192.100446 164.451533 
L 190.750823 153.331491 
L 193.436232 153.320953 
z
" style="stroke:#000000;"/>
    <path clip-path="url(#p7539eed768)" d="M 190.320355 184.88926 
L 192.862743 181.04336 
L 190.173748 181.040679 
z
" style="stroke:#000000;"/>
    <path clip-path="url(#p7539eed768)" d="M 190.750823 153.331491 
L 189.406688 160.723702 
L 190.303775 153.772492 
z
" style="stroke:#000000;"/>
    <path clip-path="url(#p7539eed768)" d="M 190.303775 153.772492 
L 189.406688 149.524461 
L 190.750823 153.331491 
z
" style="stroke:#000000;"/>
    <path clip-path="url(#p7539eed768)" d="M 192.862743 181.04336 
L 190.320355 184.88926 
L 193.008439 184.893778 
z
" style="stroke:#000000;"/>
    <path clip-path="url(#p7539eed768)" d="M 192.813977 177.147009 
L 193.347457 177.144712 
L 192.862743 173.250237 
z
" style="stroke:#000000;"/>
    <path clip-path="url(#p7539eed768)" d="M 193.347457 177.144712 
L 192.813977 177.147009 
L 192.862743 181.04336 
z
" style="stroke:#000000;"/>
    <path clip-path="url(#p7539eed768)" d="M 193.008439 169.398565 
L 190.173748 173.251277 
L 192.862743 173.250237 
z
" style="stroke:#000000;"/>
    <path clip-path="url(#p7539eed768)" d="M 190.124677 177.146188 
L 192.862743 173.250237 
L 190.173748 173.251277 
z
" style="stroke:#000000;"/>
    <path clip-path="url(#p7539eed768)" d="M 190.173748 181.040679 
L 192.813977 177.147009 
L 190.124677 177.146188 
z
" style="stroke:#000000;"/>
    <path clip-path="url(#p7539eed768)" d="M 192.813977 177.147009 
L 190.173748 181.040679 
L 192.862743 181.04336 
z
" style="stroke:#000000;"/>
    <path clip-path="url(#p7539eed768)" d="M 192.862743 173.250237 
L 190.124677 177.146188 
L 192.813977 177.147009 
z
" style="stroke:#000000;"/>
    <path clip-path="url(#p7539eed768)" d="M 192.100446 149.512066 
L 192.991962 153.762153 
L 193.436232 153.320953 
z
" style="stroke:#000000;"/>
    <path clip-path="url(#p7539eed768)" d="M 192.100446 160.716666 
L 193.436232 153.320953 
L 192.991962 153.762153 
z
" style="stroke:#000000;"/>
    <path clip-path="url(#p7539eed768)" d="M 192.991962 153.762153 
L 189.406688 151.391001 
L 190.303775 153.772492 
z
" style="stroke:#000000;"/>
    <path clip-path="url(#p7539eed768)" d="M 189.406688 160.723702 
L 192.991962 153.762153 
L 190.303775 153.772492 
z
" style="stroke:#000000;"/>
    <path clip-path="url(#p7539eed768)" d="M 189.406688 160.723702 
L 190.750823 153.331491 
L 189.406688 164.456783 
z
" style="stroke:#000000;"/>
    <path clip-path="url(#p7539eed768)" d="M 192.100446 149.512066 
L 190.750823 153.331491 
L 189.406688 149.524461 
z
" style="stroke:#000000;"/>
    <path clip-path="url(#p7539eed768)" d="M 190.750823 153.331491 
L 192.100446 164.451533 
L 189.406688 164.456783 
z
" style="stroke:#000000;"/>
    <path clip-path="url(#p7539eed768)" d="M 189.406688 149.524461 
L 190.303775 153.772492 
L 189.406688 151.391001 
z
" style="stroke:#000000;"/>
    <path clip-path="url(#p7539eed768)" d="M 192.100446 160.716666 
L 192.100446 164.451533 
L 193.436232 153.320953 
z
" style="stroke:#000000;"/>
    <path clip-path="url(#p7539eed768)" d="M 189.406688 151.391001 
L 192.991962 153.762153 
L 192.100446 151.379499 
z
" style="stroke:#000000;"/>
    <path clip-path="url(#p7539eed768)" d="M 192.991962 153.762153 
L 189.406688 160.723702 
L 192.100446 160.716666 
z
" style="stroke:#000000;"/>
    <path clip-path="url(#p7539eed768)" d="M 192.100446 149.512066 
L 192.100446 151.379499 
L 192.991962 153.762153 
z
" style="stroke:#000000;"/>
    <path clip-path="url(#p7539eed768)" d="M 188.505589 153.675644 
L 189.406688 149.524461 
L 189.406688 151.391001 
z
" style="stroke:#000000;"/>
    <path clip-path="url(#p7539eed768)" d="M 192.100446 151.379499 
L 188.505589 153.675644 
L 189.406688 151.391001 
z
" style="stroke:#000000;"/>
    <path clip-path="url(#p7539eed768)" d="M 188.505589 153.675644 
L 192.100446 160.716666 
L 189.406688 160.723702 
z
" style="stroke:#000000;"/>
    <path clip-path="url(#p7539eed768)" d="M 188.053526 153.183095 
L 189.406688 160.723702 
L 189.406688 164.456783 
z
" style="stroke:#000000;"/>
    <path clip-path="url(#p7539eed768)" d="M 192.100446 149.512066 
L 191.204941 153.665213 
L 192.100446 151.379499 
z
" style="stroke:#000000;"/>
    <path clip-path="url(#p7539eed768)" d="M 189.406688 149.524461 
L 190.755685 153.172415 
L 192.100446 149.512066 
z
" style="stroke:#000000;"/>
    <path clip-path="url(#p7539eed768)" d="M 190.755685 153.172415 
L 189.406688 164.456783 
L 192.100446 164.451533 
z
" style="stroke:#000000;"/>
    <path clip-path="url(#p7539eed768)" d="M 192.100446 160.716666 
L 190.755685 153.172415 
L 192.100446 164.451533 
z
" style="stroke:#000000;"/>
    <path clip-path="url(#p7539eed768)" d="M 188.505589 153.675644 
L 192.100446 151.379499 
L 191.204941 153.665213 
z
" style="stroke:#000000;"/>
    <path clip-path="url(#p7539eed768)" d="M 192.100446 160.716666 
L 188.505589 153.675644 
L 191.204941 153.665213 
z
" style="stroke:#000000;"/>
    <path clip-path="url(#p7539eed768)" d="M 189.406688 149.524461 
L 188.505589 153.675644 
L 188.053526 153.183095 
z
" style="stroke:#000000;"/>
    <path clip-path="url(#p7539eed768)" d="M 189.406688 160.723702 
L 188.053526 153.183095 
L 188.505589 153.675644 
z
" style="stroke:#000000;"/>
    <path clip-path="url(#p7539eed768)" d="M 188.636696 173.242961 
L 191.384363 177.153163 
L 188.686131 177.152336 
z
" style="stroke:#000000;"/>
    <path clip-path="url(#p7539eed768)" d="M 188.686131 177.152336 
L 191.335235 181.064834 
L 188.636696 181.062133 
z
" style="stroke:#000000;"/>
    <path clip-path="url(#p7539eed768)" d="M 191.335235 181.064834 
L 188.686131 177.152336 
L 191.384363 177.153163 
z
" style="stroke:#000000;"/>
    <path clip-path="url(#p7539eed768)" d="M 191.384363 177.153163 
L 188.636696 173.242961 
L 191.335235 173.241914 
z
" style="stroke:#000000;"/>
    <path clip-path="url(#p7539eed768)" d="M 188.488859 169.373993 
L 191.335235 173.241914 
L 188.636696 173.242961 
z
" style="stroke:#000000;"/>
    <path clip-path="url(#p7539eed768)" d="M 188.144019 177.154653 
L 188.686131 177.152336 
L 188.636696 181.062133 
z
" style="stroke:#000000;"/>
    <path clip-path="url(#p7539eed768)" d="M 188.686131 177.152336 
L 188.144019 177.154653 
L 188.636696 173.242961 
z
" style="stroke:#000000;"/>
    <path clip-path="url(#p7539eed768)" d="M 188.636696 181.062133 
L 191.188315 184.936924 
L 188.488859 184.932365 
z
" style="stroke:#000000;"/>
    <path clip-path="url(#p7539eed768)" d="M 191.204941 153.665213 
L 192.100446 149.512066 
L 190.755685 153.172415 
z
" style="stroke:#000000;"/>
    <path clip-path="url(#p7539eed768)" d="M 190.755685 153.172415 
L 192.100446 160.716666 
L 191.204941 153.665213 
z
" style="stroke:#000000;"/>
    <path clip-path="url(#p7539eed768)" d="M 191.188315 184.936924 
L 188.636696 181.062133 
L 191.335235 181.064834 
z
" style="stroke:#000000;"/>
    <path clip-path="url(#p7539eed768)" d="M 190.755685 153.172415 
L 189.406688 149.524461 
L 188.053526 153.183095 
z
" style="stroke:#000000;"/>
    <path clip-path="url(#p7539eed768)" d="M 189.406688 164.456783 
L 190.755685 153.172415 
L 188.053526 153.183095 
z
" style="stroke:#000000;"/>
    <path clip-path="url(#p7539eed768)" d="M 191.335235 173.241914 
L 188.488859 169.373993 
L 191.188315 169.37109 
z
" style="stroke:#000000;"/>
    <path clip-path="url(#p7539eed768)" d="M 188.097424 180.834775 
L 188.636696 181.062133 
L 188.488859 184.932365 
z
" style="stroke:#000000;"/>
    <path clip-path="url(#p7539eed768)" d="M 188.636696 173.242961 
L 188.097424 173.474929 
L 188.488859 169.373993 
z
" style="stroke:#000000;"/>
    <path clip-path="url(#p7539eed768)" d="M 188.244026 165.585095 
L 191.188315 169.37109 
L 188.488859 169.373993 
z
" style="stroke:#000000;"/>
    <path clip-path="url(#p7539eed768)" d="M 190.845617 177.155482 
L 191.384363 177.153163 
L 191.335235 173.241914 
z
" style="stroke:#000000;"/>
    <path clip-path="url(#p7539eed768)" d="M 191.384363 177.153163 
L 190.845617 177.155482 
L 191.335235 181.064834 
z
" style="stroke:#000000;"/>
    <path clip-path="url(#p7539eed768)" d="M 188.097424 173.474929 
L 188.636696 173.242961 
L 188.144019 177.154653 
z
" style="stroke:#000000;"/>
    <path clip-path="url(#p7539eed768)" d="M 188.636696 181.062133 
L 188.097424 180.834775 
L 188.144019 177.154653 
z
" style="stroke:#000000;"/>
    <path clip-path="url(#p7539eed768)" d="M 190.945002 188.729736 
L 188.488859 184.932365 
L 191.188315 184.936924 
z
" style="stroke:#000000;"/>
    <path clip-path="url(#p7539eed768)" d="M 188.488859 184.932365 
L 190.945002 188.729736 
L 188.244026 188.723356 
z
" style="stroke:#000000;"/>
    <path clip-path="url(#p7539eed768)" d="M 187.958091 184.477488 
L 188.488859 184.932365 
L 188.244026 188.723356 
z
" style="stroke:#000000;"/>
    <path clip-path="url(#p7539eed768)" d="M 188.488859 169.373993 
L 187.958091 169.833407 
L 188.244026 165.585095 
z
" style="stroke:#000000;"/>
    <path clip-path="url(#p7539eed768)" d="M 190.79931 173.473992 
L 191.335235 173.241914 
L 191.188315 169.37109 
z
" style="stroke:#000000;"/>
    <path clip-path="url(#p7539eed768)" d="M 191.335235 181.064834 
L 190.79931 180.837371 
L 191.188315 184.936924 
z
" style="stroke:#000000;"/>
    <path clip-path="url(#p7539eed768)" d="M 191.188315 169.37109 
L 188.244026 165.585095 
L 190.945002 165.580372 
z
" style="stroke:#000000;"/>
    <path clip-path="url(#p7539eed768)" d="M 188.488859 184.932365 
L 187.958091 184.477488 
L 188.097424 180.834775 
z
" style="stroke:#000000;"/>
    <path clip-path="url(#p7539eed768)" d="M 187.958091 169.833407 
L 188.488859 169.373993 
L 188.097424 173.474929 
z
" style="stroke:#000000;"/>
    <path clip-path="url(#p7539eed768)" d="M 190.79931 180.837371 
L 191.335235 181.064834 
L 190.845617 177.155482 
z
" style="stroke:#000000;"/>
    <path clip-path="url(#p7539eed768)" d="M 191.335235 173.241914 
L 190.79931 173.473992 
L 190.845617 177.155482 
z
" style="stroke:#000000;"/>
    <path clip-path="url(#p7539eed768)" d="M 187.904536 161.915292 
L 190.945002 165.580372 
L 188.244026 165.585095 
z
" style="stroke:#000000;"/>
    <path clip-path="url(#p7539eed768)" d="M 188.097424 180.834775 
L 190.845617 177.155482 
L 188.144019 177.154653 
z
" style="stroke:#000000;"/>
    <path clip-path="url(#p7539eed768)" d="M 188.144019 177.154653 
L 190.79931 173.473992 
L 188.097424 173.474929 
z
" style="stroke:#000000;"/>
    <path clip-path="url(#p7539eed768)" d="M 190.660842 169.83072 
L 191.188315 169.37109 
L 190.945002 165.580372 
z
" style="stroke:#000000;"/>
    <path clip-path="url(#p7539eed768)" d="M 191.188315 184.936924 
L 190.660842 184.481834 
L 190.945002 188.729736 
z
" style="stroke:#000000;"/>
    <path clip-path="url(#p7539eed768)" d="M 190.60762 192.40421 
L 188.244026 188.723356 
L 190.945002 188.729736 
z
" style="stroke:#000000;"/>
    <path clip-path="url(#p7539eed768)" d="M 190.79931 173.473992 
L 188.144019 177.154653 
L 190.845617 177.155482 
z
" style="stroke:#000000;"/>
    <path clip-path="url(#p7539eed768)" d="M 191.188315 169.37109 
L 190.660842 169.83072 
L 190.79931 173.473992 
z
" style="stroke:#000000;"/>
    <path clip-path="url(#p7539eed768)" d="M 190.660842 184.481834 
L 191.188315 184.936924 
L 190.79931 180.837371 
z
" style="stroke:#000000;"/>
    <path clip-path="url(#p7539eed768)" d="M 187.958091 184.477488 
L 190.79931 180.837371 
L 188.097424 180.834775 
z
" style="stroke:#000000;"/>
    <path clip-path="url(#p7539eed768)" d="M 190.845617 177.155482 
L 188.097424 180.834775 
L 190.79931 180.837371 
z
" style="stroke:#000000;"/>
    <path clip-path="url(#p7539eed768)" d="M 188.244026 188.723356 
L 187.727352 188.045327 
L 187.958091 184.477488 
z
" style="stroke:#000000;"/>
    <path clip-path="url(#p7539eed768)" d="M 187.727352 166.26754 
L 188.244026 165.585095 
L 187.958091 169.833407 
z
" style="stroke:#000000;"/>
    <path clip-path="url(#p7539eed768)" d="M 187.727352 188.045327 
L 188.244026 188.723356 
L 187.904536 192.39606 
z
" style="stroke:#000000;"/>
    <path clip-path="url(#p7539eed768)" d="M 188.244026 165.585095 
L 187.727352 166.26754 
L 187.904536 161.915292 
z
" style="stroke:#000000;"/>
    <path clip-path="url(#p7539eed768)" d="M 188.244026 188.723356 
L 190.60762 192.40421 
L 187.904536 192.39606 
z
" style="stroke:#000000;"/>
    <path clip-path="url(#p7539eed768)" d="M 188.097424 173.474929 
L 190.660842 169.83072 
L 187.958091 169.833407 
z
" style="stroke:#000000;"/>
    <path clip-path="url(#p7539eed768)" d="M 190.660842 169.83072 
L 188.097424 173.474929 
L 190.79931 173.473992 
z
" style="stroke:#000000;"/>
    <path clip-path="url(#p7539eed768)" d="M 190.945002 165.580372 
L 187.904536 161.915292 
L 190.60762 161.908803 
z
" style="stroke:#000000;"/>
    <path clip-path="url(#p7539eed768)" d="M 190.79931 180.837371 
L 187.958091 184.477488 
L 190.660842 184.481834 
z
" style="stroke:#000000;"/>
    <path clip-path="url(#p7539eed768)" d="M 187.727352 188.045327 
L 190.660842 184.481834 
L 187.958091 184.477488 
z
" style="stroke:#000000;"/>
    <path clip-path="url(#p7539eed768)" d="M 190.945002 165.580372 
L 190.431535 166.263138 
L 190.660842 169.83072 
z
" style="stroke:#000000;"/>
    <path clip-path="url(#p7539eed768)" d="M 190.431535 188.051391 
L 190.945002 188.729736 
L 190.660842 184.481834 
z
" style="stroke:#000000;"/>
    <path clip-path="url(#p7539eed768)" d="M 190.431535 166.263138 
L 190.945002 165.580372 
L 190.60762 161.908803 
z
" style="stroke:#000000;"/>
    <path clip-path="url(#p7539eed768)" d="M 190.945002 188.729736 
L 190.431535 188.051391 
L 190.60762 192.40421 
z
" style="stroke:#000000;"/>
    <path clip-path="url(#p7539eed768)" d="M 190.431535 166.263138 
L 187.958091 169.833407 
L 190.660842 169.83072 
z
" style="stroke:#000000;"/>
    <path clip-path="url(#p7539eed768)" d="M 187.958091 169.833407 
L 190.431535 166.263138 
L 187.727352 166.26754 
z
" style="stroke:#000000;"/>
    <path clip-path="url(#p7539eed768)" d="M 187.473636 158.402575 
L 190.60762 161.908803 
L 187.904536 161.915292 
z
" style="stroke:#000000;"/>
    <path clip-path="url(#p7539eed768)" d="M 187.904536 192.39606 
L 187.407429 191.50139 
L 187.727352 188.045327 
z
" style="stroke:#000000;"/>
    <path clip-path="url(#p7539eed768)" d="M 187.407429 162.814212 
L 187.904536 161.915292 
L 187.727352 166.26754 
z
" style="stroke:#000000;"/>
    <path clip-path="url(#p7539eed768)" d="M 190.660842 184.481834 
L 187.727352 188.045327 
L 190.431535 188.051391 
z
" style="stroke:#000000;"/>
    <path clip-path="url(#p7539eed768)" d="M 190.179393 195.92231 
L 187.904536 192.39606 
L 190.60762 192.40421 
z
" style="stroke:#000000;"/>
    <path clip-path="url(#p7539eed768)" d="M 187.407429 191.50139 
L 187.904536 192.39606 
L 187.473636 195.912461 
z
" style="stroke:#000000;"/>
    <path clip-path="url(#p7539eed768)" d="M 187.904536 161.915292 
L 187.407429 162.814212 
L 187.473636 158.402575 
z
" style="stroke:#000000;"/>
    <path clip-path="url(#p7539eed768)" d="M 187.407429 191.50139 
L 190.431535 188.051391 
L 187.727352 188.045327 
z
" style="stroke:#000000;"/>
    <path clip-path="url(#p7539eed768)" d="M 187.904536 192.39606 
L 190.179393 195.92231 
L 187.473636 195.912461 
z
" style="stroke:#000000;"/>
    <path clip-path="url(#p7539eed768)" d="M 190.113597 162.808147 
L 187.727352 166.26754 
L 190.431535 166.263138 
z
" style="stroke:#000000;"/>
    <path clip-path="url(#p7539eed768)" d="M 190.60762 161.908803 
L 187.473636 158.402575 
L 190.179393 158.39439 
z
" style="stroke:#000000;"/>
    <path clip-path="url(#p7539eed768)" d="M 190.60762 161.908803 
L 190.113597 162.808147 
L 190.431535 166.263138 
z
" style="stroke:#000000;"/>
    <path clip-path="url(#p7539eed768)" d="M 190.113597 191.50912 
L 190.60762 192.40421 
L 190.431535 188.051391 
z
" style="stroke:#000000;"/>
    <path clip-path="url(#p7539eed768)" d="M 187.727352 166.26754 
L 190.113597 162.808147 
L 187.407429 162.814212 
z
" style="stroke:#000000;"/>
    <path clip-path="url(#p7539eed768)" d="M 190.113597 162.808147 
L 190.60762 161.908803 
L 190.179393 158.39439 
z
" style="stroke:#000000;"/>
    <path clip-path="url(#p7539eed768)" d="M 190.60762 192.40421 
L 190.113597 191.50912 
L 190.179393 195.92231 
z
" style="stroke:#000000;"/>
    <path clip-path="url(#p7539eed768)" d="M 190.431535 188.051391 
L 187.407429 191.50139 
L 190.113597 191.50912 
z
" style="stroke:#000000;"/>
    <path clip-path="url(#p7539eed768)" d="M 187.473636 195.912461 
L 187.001415 194.809744 
L 187.407429 191.50139 
z
" style="stroke:#000000;"/>
    <path clip-path="url(#p7539eed768)" d="M 187.001415 159.509329 
L 187.473636 158.402575 
L 187.407429 162.814212 
z
" style="stroke:#000000;"/>
    <path clip-path="url(#p7539eed768)" d="M 186.955488 155.083807 
L 190.179393 158.39439 
L 187.473636 158.402575 
z
" style="stroke:#000000;"/>
    <path clip-path="url(#p7539eed768)" d="M 187.001415 194.809744 
L 190.113597 191.50912 
L 187.407429 191.50139 
z
" style="stroke:#000000;"/>
    <path clip-path="url(#p7539eed768)" d="M 189.66446 199.24712 
L 187.473636 195.912461 
L 190.179393 195.92231 
z
" style="stroke:#000000;"/>
    <path clip-path="url(#p7539eed768)" d="M 186.955488 199.235658 
L 187.001415 194.809744 
L 187.473636 195.912461 
z
" style="stroke:#000000;"/>
    <path clip-path="url(#p7539eed768)" d="M 187.001415 159.509329 
L 186.955488 155.083807 
L 187.473636 158.402575 
z
" style="stroke:#000000;"/>
    <path clip-path="url(#p7539eed768)" d="M 189.710103 159.501667 
L 187.407429 162.814212 
L 190.113597 162.808147 
z
" style="stroke:#000000;"/>
    <path clip-path="url(#p7539eed768)" d="M 190.179393 158.39439 
L 189.710103 159.501667 
L 190.113597 162.808147 
z
" style="stroke:#000000;"/>
    <path clip-path="url(#p7539eed768)" d="M 189.710103 194.819074 
L 190.179393 195.92231 
L 190.113597 191.50912 
z
" style="stroke:#000000;"/>
    <path clip-path="url(#p7539eed768)" d="M 187.407429 162.814212 
L 189.710103 159.501667 
L 187.001415 159.509329 
z
" style="stroke:#000000;"/>
    <path clip-path="url(#p7539eed768)" d="M 187.473636 195.912461 
L 189.66446 199.24712 
L 186.955488 199.235658 
z
" style="stroke:#000000;"/>
    <path clip-path="url(#p7539eed768)" d="M 190.113597 191.50912 
L 187.001415 194.809744 
L 189.710103 194.819074 
z
" style="stroke:#000000;"/>
    <path clip-path="url(#p7539eed768)" d="M 190.179393 158.39439 
L 186.955488 155.083807 
L 189.66446 155.074013 
z
" style="stroke:#000000;"/>
    <path clip-path="url(#p7539eed768)" d="M 189.66446 155.074013 
L 189.710103 159.501667 
L 190.179393 158.39439 
z
" style="stroke:#000000;"/>
    <path clip-path="url(#p7539eed768)" d="M 189.710103 194.819074 
L 189.66446 199.24712 
L 190.179393 195.92231 
z
" style="stroke:#000000;"/>
    <path clip-path="url(#p7539eed768)" d="M 186.955488 199.235658 
L 186.513255 197.935742 
L 187.001415 194.809744 
z
" style="stroke:#000000;"/>
    <path clip-path="url(#p7539eed768)" d="M 186.513255 156.387503 
L 186.955488 155.083807 
L 187.001415 159.509329 
z
" style="stroke:#000000;"/>
    <path clip-path="url(#p7539eed768)" d="M 186.513255 197.935742 
L 189.710103 194.819074 
L 187.001415 194.809744 
z
" style="stroke:#000000;"/>
    <path clip-path="url(#p7539eed768)" d="M 189.224971 156.378327 
L 187.001415 159.509329 
L 189.710103 159.501667 
z
" style="stroke:#000000;"/>
    <path clip-path="url(#p7539eed768)" d="M 186.355125 151.993898 
L 189.66446 155.074013 
L 186.955488 155.083807 
z
" style="stroke:#000000;"/>
    <path clip-path="url(#p7539eed768)" d="M 189.66446 155.074013 
L 189.224971 156.378327 
L 189.710103 159.501667 
z
" style="stroke:#000000;"/>
    <path clip-path="url(#p7539eed768)" d="M 189.224971 197.94659 
L 189.66446 199.24712 
L 189.710103 194.819074 
z
" style="stroke:#000000;"/>
    <path clip-path="url(#p7539eed768)" d="M 189.067822 202.34367 
L 186.955488 199.235658 
L 189.66446 199.24712 
z
" style="stroke:#000000;"/>
    <path clip-path="url(#p7539eed768)" d="M 187.001415 159.509329 
L 189.224971 156.378327 
L 186.513255 156.387503 
z
" style="stroke:#000000;"/>
    <path clip-path="url(#p7539eed768)" d="M 186.355125 202.330699 
L 186.513255 197.935742 
L 186.955488 199.235658 
z
" style="stroke:#000000;"/>
    <path clip-path="url(#p7539eed768)" d="M 186.513255 156.387503 
L 186.355125 151.993898 
L 186.955488 155.083807 
z
" style="stroke:#000000;"/>
    <path clip-path="url(#p7539eed768)" d="M 189.710103 194.819074 
L 186.513255 197.935742 
L 189.224971 197.94659 
z
" style="stroke:#000000;"/>
    <path clip-path="url(#p7539eed768)" d="M 186.955488 199.235658 
L 189.067822 202.34367 
L 186.355125 202.330699 
z
" style="stroke:#000000;"/>
    <path clip-path="url(#p7539eed768)" d="M 189.66446 155.074013 
L 186.355125 151.993898 
L 189.067822 151.9826 
z
" style="stroke:#000000;"/>
    <path clip-path="url(#p7539eed768)" d="M 189.067822 151.9826 
L 189.224971 156.378327 
L 189.66446 155.074013 
z
" style="stroke:#000000;"/>
    <path clip-path="url(#p7539eed768)" d="M 189.224971 197.94659 
L 189.067822 202.34367 
L 189.66446 199.24712 
z
" style="stroke:#000000;"/>
    <path clip-path="url(#p7539eed768)" d="M 186.355125 202.330699 
L 185.947729 200.846072 
L 186.513255 197.935742 
z
" style="stroke:#000000;"/>
    <path clip-path="url(#p7539eed768)" d="M 185.947729 153.482007 
L 186.355125 151.993898 
L 186.513255 156.387503 
z
" style="stroke:#000000;"/>
    <path clip-path="url(#p7539eed768)" d="M 185.947729 200.846072 
L 189.224971 197.94659 
L 186.513255 197.935742 
z
" style="stroke:#000000;"/>
    <path clip-path="url(#p7539eed768)" d="M 188.662952 153.471416 
L 186.513255 156.387503 
L 189.224971 156.378327 
z
" style="stroke:#000000;"/>
    <path clip-path="url(#p7539eed768)" d="M 186.017058 150.581227 
L 189.067822 151.9826 
L 186.355125 151.993898 
z
" style="stroke:#000000;"/>
    <path clip-path="url(#p7539eed768)" d="M 188.731851 203.759925 
L 186.355125 202.330699 
L 189.067822 202.34367 
z
" style="stroke:#000000;"/>
    <path clip-path="url(#p7539eed768)" d="M 189.067822 151.9826 
L 188.662952 153.471416 
L 189.224971 156.378327 
z
" style="stroke:#000000;"/>
    <path clip-path="url(#p7539eed768)" d="M 188.662952 200.858339 
L 189.067822 202.34367 
L 189.224971 197.94659 
z
" style="stroke:#000000;"/>
    <path clip-path="url(#p7539eed768)" d="M 186.513255 156.387503 
L 188.662952 153.471416 
L 185.947729 153.482007 
z
" style="stroke:#000000;"/>
    <path clip-path="url(#p7539eed768)" d="M 186.355125 202.330699 
L 188.731851 203.759925 
L 186.017058 203.746259 
z
" style="stroke:#000000;"/>
    <path clip-path="url(#p7539eed768)" d="M 185.777947 203.261199 
L 186.355125 202.330699 
L 186.017058 203.746259 
z
" style="stroke:#000000;"/>
    <path clip-path="url(#p7539eed768)" d="M 186.355125 151.993898 
L 185.777947 151.068331 
L 186.017058 150.581227 
z
" style="stroke:#000000;"/>
    <path clip-path="url(#p7539eed768)" d="M 186.355125 202.330699 
L 185.777947 203.261199 
L 185.947729 200.846072 
z
" style="stroke:#000000;"/>
    <path clip-path="url(#p7539eed768)" d="M 185.777947 151.068331 
L 186.355125 151.993898 
L 185.947729 153.482007 
z
" style="stroke:#000000;"/>
    <path clip-path="url(#p7539eed768)" d="M 189.224971 197.94659 
L 185.947729 200.846072 
L 188.662952 200.858339 
z
" style="stroke:#000000;"/>
    <path clip-path="url(#p7539eed768)" d="M 189.067822 151.9826 
L 186.017058 150.581227 
L 188.731851 150.569238 
z
" style="stroke:#000000;"/>
    <path clip-path="url(#p7539eed768)" d="M 188.731851 203.759925 
L 185.777947 203.261199 
L 186.017058 203.746259 
z
" style="stroke:#000000;"/>
    <path clip-path="url(#p7539eed768)" d="M 188.494223 151.05657 
L 189.067822 151.9826 
L 188.731851 150.569238 
z
" style="stroke:#000000;"/>
    <path clip-path="url(#p7539eed768)" d="M 189.067822 202.34367 
L 188.494223 203.274638 
L 188.731851 203.759925 
z
" style="stroke:#000000;"/>
    <path clip-path="url(#p7539eed768)" d="M 189.067822 151.9826 
L 188.494223 151.05657 
L 188.662952 153.471416 
z
" style="stroke:#000000;"/>
    <path clip-path="url(#p7539eed768)" d="M 188.494223 203.274638 
L 189.067822 202.34367 
L 188.662952 200.858339 
z
" style="stroke:#000000;"/>
    <path clip-path="url(#p7539eed768)" d="M 186.017058 150.581227 
L 188.494223 151.05657 
L 188.731851 150.569238 
z
" style="stroke:#000000;"/>
    <path clip-path="url(#p7539eed768)" d="M 188.494223 151.05657 
L 186.017058 150.581227 
L 185.777947 151.068331 
z
" style="stroke:#000000;"/>
    <path clip-path="url(#p7539eed768)" d="M 185.947729 200.846072 
L 185.777947 203.261199 
L 185.526508 202.60647 
z
" style="stroke:#000000;"/>
    <path clip-path="url(#p7539eed768)" d="M 185.777947 151.068331 
L 185.947729 153.482007 
L 185.526508 151.725209 
z
" style="stroke:#000000;"/>
    <path clip-path="url(#p7539eed768)" d="M 188.662952 153.471416 
L 185.526508 151.725209 
L 185.947729 153.482007 
z
" style="stroke:#000000;"/>
    <path clip-path="url(#p7539eed768)" d="M 185.777947 203.261199 
L 188.731851 203.759925 
L 188.494223 203.274638 
z
" style="stroke:#000000;"/>
    <path clip-path="url(#p7539eed768)" d="M 185.947729 200.846072 
L 188.244343 202.619601 
L 188.662952 200.858339 
z
" style="stroke:#000000;"/>
    <path clip-path="url(#p7539eed768)" d="M 188.494223 203.274638 
L 185.526508 202.60647 
L 185.777947 203.261199 
z
" style="stroke:#000000;"/>
    <path clip-path="url(#p7539eed768)" d="M 188.244343 202.619601 
L 185.947729 200.846072 
L 185.526508 202.60647 
z
" style="stroke:#000000;"/>
    <path clip-path="url(#p7539eed768)" d="M 185.777947 151.068331 
L 188.244343 151.713758 
L 188.494223 151.05657 
z
" style="stroke:#000000;"/>
    <path clip-path="url(#p7539eed768)" d="M 188.662952 153.471416 
L 188.494223 151.05657 
L 188.244343 151.713758 
z
" style="stroke:#000000;"/>
    <path clip-path="url(#p7539eed768)" d="M 188.494223 203.274638 
L 188.662952 200.858339 
L 188.244343 202.619601 
z
" style="stroke:#000000;"/>
    <path clip-path="url(#p7539eed768)" d="M 188.244343 151.713758 
L 185.777947 151.068331 
L 185.526508 151.725209 
z
" style="stroke:#000000;"/>
    <path clip-path="url(#p7539eed768)" d="M 185.526508 151.725209 
L 188.662952 153.471416 
L 188.244343 151.713758 
z
" style="stroke:#000000;"/>
    <path clip-path="url(#p7539eed768)" d="M 185.526508 202.60647 
L 188.494223 203.274638 
L 188.244343 202.619601 
z
" style="stroke:#000000;"/>
   </g>
  </g>
 </g>
 <defs>
  <clipPath id="p7539eed768">
   <rect height="271.8" width="279" x="45" y="43.2"/>
  </clipPath>
 </defs>
</svg>
