<?xml version="1.0" encoding="utf-8" standalone="no"?>
<!DOCTYPE svg PUBLIC "-//W3C//DTD SVG 1.1//EN"
  "http://www.w3.org/Graphics/SVG/1.1/DTD/svg11.dtd">
<!-- Created with matplotlib (https://matplotlib.org/) -->
<svg height="360pt" version="1.1" viewBox="0 0 360 360" width="360pt" xmlns="http://www.w3.org/2000/svg" xmlns:xlink="http://www.w3.org/1999/xlink">
 <defs>
  <style type="text/css">
*{stroke-linecap:butt;stroke-linejoin:round;}
  </style>
 </defs>
 <g id="figure_1">
  <g id="patch_1">
   <path d="M 45 315 
L 324 315 
L 324 43.2 
L 45 43.2 
z
" style="fill:#ffffff;"/>
  </g>
  <g id="axes_1">
   <g id="Poly3DCollection_1">
    <path clip-path="url(#p615e778048)" d="M 179.088364 197.296639 
L 178.753272 199.335739 
L 178.257891 198.754407 
z
" style="stroke:#000000;"/>
    <path clip-path="url(#p615e778048)" d="M 178.753272 154.93597 
L 179.088364 156.976067 
L 178.257891 155.515826 
z
" style="stroke:#000000;"/>
    <path clip-path="url(#p615e778048)" d="M 176.34941 155.49659 
L 178.753272 154.93597 
L 178.257891 155.515826 
z
" style="stroke:#000000;"/>
    <path clip-path="url(#p615e778048)" d="M 176.34941 198.776944 
L 179.088364 197.296639 
L 178.257891 198.754407 
z
" style="stroke:#000000;"/>
    <path clip-path="url(#p615e778048)" d="M 176.844446 199.358848 
L 178.257891 198.754407 
L 178.753272 199.335739 
z
" style="stroke:#000000;"/>
    <path clip-path="url(#p615e778048)" d="M 178.257891 198.754407 
L 176.844446 199.358848 
L 176.34941 198.776944 
z
" style="stroke:#000000;"/>
    <path clip-path="url(#p615e778048)" d="M 177.179304 156.958228 
L 178.257891 155.515826 
L 179.088364 156.976067 
z
" style="stroke:#000000;"/>
    <path clip-path="url(#p615e778048)" d="M 179.894368 198.599727 
L 178.753272 199.335739 
L 179.088364 197.296639 
z
" style="stroke:#000000;"/>
    <path clip-path="url(#p615e778048)" d="M 178.753272 154.93597 
L 179.894368 155.67538 
L 179.088364 156.976067 
z
" style="stroke:#000000;"/>
    <path clip-path="url(#p615e778048)" d="M 178.257891 155.515826 
L 177.179304 156.958228 
L 176.34941 155.49659 
z
" style="stroke:#000000;"/>
    <path clip-path="url(#p615e778048)" d="M 176.844446 154.916164 
L 179.225333 154.500556 
L 178.753272 154.93597 
z
" style="stroke:#000000;"/>
    <path clip-path="url(#p615e778048)" d="M 178.753272 199.335739 
L 179.894368 198.599727 
L 179.225333 199.772559 
z
" style="stroke:#000000;"/>
    <path clip-path="url(#p615e778048)" d="M 179.894368 155.67538 
L 178.753272 154.93597 
L 179.225333 154.500556 
z
" style="stroke:#000000;"/>
    <path clip-path="url(#p615e778048)" d="M 178.753272 154.93597 
L 176.34941 155.49659 
L 176.844446 154.916164 
z
" style="stroke:#000000;"/>
    <path clip-path="url(#p615e778048)" d="M 177.316177 199.796099 
L 178.753272 199.335739 
L 179.225333 199.772559 
z
" style="stroke:#000000;"/>
    <path clip-path="url(#p615e778048)" d="M 179.088364 197.296639 
L 176.34941 198.776944 
L 177.179304 197.317783 
z
" style="stroke:#000000;"/>
    <path clip-path="url(#p615e778048)" d="M 178.753272 199.335739 
L 177.316177 199.796099 
L 176.844446 199.358848 
z
" style="stroke:#000000;"/>
    <path clip-path="url(#p615e778048)" d="M 179.894368 198.599727 
L 179.088364 197.296639 
L 180.207959 194.864742 
z
" style="stroke:#000000;"/>
    <path clip-path="url(#p615e778048)" d="M 179.088364 156.976067 
L 179.894368 155.67538 
L 180.207959 159.411299 
z
" style="stroke:#000000;"/>
    <path clip-path="url(#p615e778048)" d="M 179.225333 154.500556 
L 176.844446 154.916164 
L 177.316177 154.480321 
z
" style="stroke:#000000;"/>
    <path clip-path="url(#p615e778048)" d="M 177.179304 156.958228 
L 176.844446 154.916164 
L 176.34941 155.49659 
z
" style="stroke:#000000;"/>
    <path clip-path="url(#p615e778048)" d="M 176.844446 199.358848 
L 177.179304 197.317783 
L 176.34941 198.776944 
z
" style="stroke:#000000;"/>
    <path clip-path="url(#p615e778048)" d="M 179.894368 198.599727 
L 177.316177 199.796099 
L 179.225333 199.772559 
z
" style="stroke:#000000;"/>
    <path clip-path="url(#p615e778048)" d="M 180.207959 159.411299 
L 177.179304 156.958228 
L 179.088364 156.976067 
z
" style="stroke:#000000;"/>
    <path clip-path="url(#p615e778048)" d="M 179.225333 154.500556 
L 177.984746 155.65627 
L 179.894368 155.67538 
z
" style="stroke:#000000;"/>
    <path clip-path="url(#p615e778048)" d="M 177.984746 155.65627 
L 179.225333 154.500556 
L 177.316177 154.480321 
z
" style="stroke:#000000;"/>
    <path clip-path="url(#p615e778048)" d="M 178.298119 194.883553 
L 179.088364 197.296639 
L 177.179304 197.317783 
z
" style="stroke:#000000;"/>
    <path clip-path="url(#p615e778048)" d="M 179.088364 197.296639 
L 178.298119 194.883553 
L 180.207959 194.864742 
z
" style="stroke:#000000;"/>
    <path clip-path="url(#p615e778048)" d="M 177.984746 155.65627 
L 176.844446 154.916164 
L 177.179304 156.958228 
z
" style="stroke:#000000;"/>
    <path clip-path="url(#p615e778048)" d="M 176.844446 199.358848 
L 177.984746 198.622146 
L 177.179304 197.317783 
z
" style="stroke:#000000;"/>
    <path clip-path="url(#p615e778048)" d="M 179.894368 198.599727 
L 180.207959 194.864742 
L 181.087169 196.011869 
z
" style="stroke:#000000;"/>
    <path clip-path="url(#p615e778048)" d="M 180.207959 159.411299 
L 179.894368 155.67538 
L 181.087169 158.26679 
z
" style="stroke:#000000;"/>
    <path clip-path="url(#p615e778048)" d="M 176.844446 154.916164 
L 177.984746 155.65627 
L 177.316177 154.480321 
z
" style="stroke:#000000;"/>
    <path clip-path="url(#p615e778048)" d="M 177.984746 198.622146 
L 176.844446 199.358848 
L 177.316177 199.796099 
z
" style="stroke:#000000;"/>
    <path clip-path="url(#p615e778048)" d="M 177.316177 199.796099 
L 179.894368 198.599727 
L 177.984746 198.622146 
z
" style="stroke:#000000;"/>
    <path clip-path="url(#p615e778048)" d="M 177.179304 156.958228 
L 180.207959 159.411299 
L 178.298119 159.395799 
z
" style="stroke:#000000;"/>
    <path clip-path="url(#p615e778048)" d="M 181.087169 196.011869 
L 177.984746 198.622146 
L 179.894368 198.599727 
z
" style="stroke:#000000;"/>
    <path clip-path="url(#p615e778048)" d="M 181.087169 196.011869 
L 180.207959 194.864742 
L 181.178665 192.231403 
z
" style="stroke:#000000;"/>
    <path clip-path="url(#p615e778048)" d="M 180.207959 159.411299 
L 181.087169 158.26679 
L 181.178665 162.047528 
z
" style="stroke:#000000;"/>
    <path clip-path="url(#p615e778048)" d="M 177.984746 155.65627 
L 177.179304 156.958228 
L 178.298119 159.395799 
z
" style="stroke:#000000;"/>
    <path clip-path="url(#p615e778048)" d="M 177.179304 197.317783 
L 177.984746 198.622146 
L 178.298119 194.883553 
z
" style="stroke:#000000;"/>
    <path clip-path="url(#p615e778048)" d="M 181.178665 162.047528 
L 178.298119 159.395799 
L 180.207959 159.411299 
z
" style="stroke:#000000;"/>
    <path clip-path="url(#p615e778048)" d="M 179.176717 158.25017 
L 179.894368 155.67538 
L 177.984746 155.65627 
z
" style="stroke:#000000;"/>
    <path clip-path="url(#p615e778048)" d="M 179.894368 155.67538 
L 179.176717 158.25017 
L 181.087169 158.26679 
z
" style="stroke:#000000;"/>
    <path clip-path="url(#p615e778048)" d="M 180.207959 194.864742 
L 179.26815 192.247679 
L 181.178665 192.231403 
z
" style="stroke:#000000;"/>
    <path clip-path="url(#p615e778048)" d="M 179.26815 192.247679 
L 180.207959 194.864742 
L 178.298119 194.883553 
z
" style="stroke:#000000;"/>
    <path clip-path="url(#p615e778048)" d="M 177.984746 198.622146 
L 181.087169 196.011869 
L 179.176717 196.031805 
z
" style="stroke:#000000;"/>
    <path clip-path="url(#p615e778048)" d="M 181.087169 196.011869 
L 181.178665 192.231403 
L 182.12147 193.209283 
z
" style="stroke:#000000;"/>
    <path clip-path="url(#p615e778048)" d="M 181.178665 162.047528 
L 181.087169 158.26679 
L 182.12147 161.072456 
z
" style="stroke:#000000;"/>
    <path clip-path="url(#p615e778048)" d="M 177.984746 155.65627 
L 178.298119 159.395799 
L 179.176717 158.25017 
z
" style="stroke:#000000;"/>
    <path clip-path="url(#p615e778048)" d="M 178.298119 194.883553 
L 177.984746 198.622146 
L 179.176717 196.031805 
z
" style="stroke:#000000;"/>
    <path clip-path="url(#p615e778048)" d="M 178.298119 159.395799 
L 181.178665 162.047528 
L 179.26815 162.034569 
z
" style="stroke:#000000;"/>
    <path clip-path="url(#p615e778048)" d="M 182.12147 193.209283 
L 181.178665 192.231403 
L 181.98906 189.426208 
z
" style="stroke:#000000;"/>
    <path clip-path="url(#p615e778048)" d="M 181.178665 162.047528 
L 182.12147 161.072456 
L 181.98906 164.855136 
z
" style="stroke:#000000;"/>
    <path clip-path="url(#p615e778048)" d="M 182.12147 193.209283 
L 179.176717 196.031805 
L 181.087169 196.011869 
z
" style="stroke:#000000;"/>
    <path clip-path="url(#p615e778048)" d="M 181.98906 164.855136 
L 179.26815 162.034569 
L 181.178665 162.047528 
z
" style="stroke:#000000;"/>
    <path clip-path="url(#p615e778048)" d="M 179.176717 158.25017 
L 178.298119 159.395799 
L 179.26815 162.034569 
z
" style="stroke:#000000;"/>
    <path clip-path="url(#p615e778048)" d="M 178.298119 194.883553 
L 179.176717 196.031805 
L 179.26815 192.247679 
z
" style="stroke:#000000;"/>
    <path clip-path="url(#p615e778048)" d="M 181.178665 192.231403 
L 180.077983 189.439777 
L 181.98906 189.426208 
z
" style="stroke:#000000;"/>
    <path clip-path="url(#p615e778048)" d="M 181.087169 158.26679 
L 180.210301 161.058541 
L 182.12147 161.072456 
z
" style="stroke:#000000;"/>
    <path clip-path="url(#p615e778048)" d="M 180.210301 161.058541 
L 181.087169 158.26679 
L 179.176717 158.25017 
z
" style="stroke:#000000;"/>
    <path clip-path="url(#p615e778048)" d="M 180.077983 189.439777 
L 181.178665 192.231403 
L 179.26815 192.247679 
z
" style="stroke:#000000;"/>
    <path clip-path="url(#p615e778048)" d="M 181.98906 189.426208 
L 182.985053 190.223166 
L 182.12147 193.209283 
z
" style="stroke:#000000;"/>
    <path clip-path="url(#p615e778048)" d="M 182.985053 164.061144 
L 181.98906 164.855136 
L 182.12147 161.072456 
z
" style="stroke:#000000;"/>
    <path clip-path="url(#p615e778048)" d="M 179.26815 162.034569 
L 181.98906 164.855136 
L 180.077983 164.844889 
z
" style="stroke:#000000;"/>
    <path clip-path="url(#p615e778048)" d="M 179.176717 196.031805 
L 182.12147 193.209283 
L 180.210301 193.22652 
z
" style="stroke:#000000;"/>
    <path clip-path="url(#p615e778048)" d="M 182.985053 190.223166 
L 181.98906 189.426208 
L 182.629573 186.480723 
z
" style="stroke:#000000;"/>
    <path clip-path="url(#p615e778048)" d="M 181.98906 164.855136 
L 182.985053 164.061144 
L 182.629573 167.802528 
z
" style="stroke:#000000;"/>
    <path clip-path="url(#p615e778048)" d="M 182.629573 167.802528 
L 180.077983 164.844889 
L 181.98906 164.855136 
z
" style="stroke:#000000;"/>
    <path clip-path="url(#p615e778048)" d="M 179.176717 158.25017 
L 179.26815 162.034569 
L 180.210301 161.058541 
z
" style="stroke:#000000;"/>
    <path clip-path="url(#p615e778048)" d="M 179.26815 192.247679 
L 179.176717 196.031805 
L 180.210301 193.22652 
z
" style="stroke:#000000;"/>
    <path clip-path="url(#p615e778048)" d="M 182.985053 190.223166 
L 180.210301 193.22652 
L 182.12147 193.209283 
z
" style="stroke:#000000;"/>
    <path clip-path="url(#p615e778048)" d="M 181.98906 189.426208 
L 180.718052 186.491443 
L 182.629573 186.480723 
z
" style="stroke:#000000;"/>
    <path clip-path="url(#p615e778048)" d="M 180.210301 161.058541 
L 179.26815 162.034569 
L 180.077983 164.844889 
z
" style="stroke:#000000;"/>
    <path clip-path="url(#p615e778048)" d="M 179.26815 192.247679 
L 180.210301 193.22652 
L 180.077983 189.439777 
z
" style="stroke:#000000;"/>
    <path clip-path="url(#p615e778048)" d="M 180.718052 186.491443 
L 181.98906 189.426208 
L 180.077983 189.439777 
z
" style="stroke:#000000;"/>
    <path clip-path="url(#p615e778048)" d="M 182.12147 161.072456 
L 181.073287 164.050118 
L 182.985053 164.061144 
z
" style="stroke:#000000;"/>
    <path clip-path="url(#p615e778048)" d="M 182.629573 186.480723 
L 183.667649 187.087331 
L 182.985053 190.223166 
z
" style="stroke:#000000;"/>
    <path clip-path="url(#p615e778048)" d="M 183.667649 167.199012 
L 182.629573 167.802528 
L 182.985053 164.061144 
z
" style="stroke:#000000;"/>
    <path clip-path="url(#p615e778048)" d="M 183.667649 187.087331 
L 182.629573 186.480723 
L 183.092604 183.428333 
z
" style="stroke:#000000;"/>
    <path clip-path="url(#p615e778048)" d="M 182.629573 167.802528 
L 183.667649 167.199012 
L 183.092604 170.856298 
z
" style="stroke:#000000;"/>
    <path clip-path="url(#p615e778048)" d="M 181.073287 164.050118 
L 182.12147 161.072456 
L 180.210301 161.058541 
z
" style="stroke:#000000;"/>
    <path clip-path="url(#p615e778048)" d="M 183.092604 170.856298 
L 180.718052 167.795134 
L 182.629573 167.802528 
z
" style="stroke:#000000;"/>
    <path clip-path="url(#p615e778048)" d="M 180.077983 164.844889 
L 182.629573 167.802528 
L 180.718052 167.795134 
z
" style="stroke:#000000;"/>
    <path clip-path="url(#p615e778048)" d="M 182.629573 186.480723 
L 181.180763 183.436096 
L 183.092604 183.428333 
z
" style="stroke:#000000;"/>
    <path clip-path="url(#p615e778048)" d="M 180.210301 193.22652 
L 182.985053 190.223166 
L 181.073287 190.23752 
z
" style="stroke:#000000;"/>
    <path clip-path="url(#p615e778048)" d="M 180.077983 164.844889 
L 181.073287 164.050118 
L 180.210301 161.058541 
z
" style="stroke:#000000;"/>
    <path clip-path="url(#p615e778048)" d="M 181.073287 190.23752 
L 180.077983 189.439777 
L 180.210301 193.22652 
z
" style="stroke:#000000;"/>
    <path clip-path="url(#p615e778048)" d="M 181.180763 183.436096 
L 182.629573 186.480723 
L 180.718052 186.491443 
z
" style="stroke:#000000;"/>
    <path clip-path="url(#p615e778048)" d="M 184.161139 183.837365 
L 183.092604 183.428333 
L 183.372644 180.303826 
z
" style="stroke:#000000;"/>
    <path clip-path="url(#p615e778048)" d="M 183.092604 170.856298 
L 184.161139 170.450447 
L 183.372644 173.981638 
z
" style="stroke:#000000;"/>
    <path clip-path="url(#p615e778048)" d="M 183.372644 173.981638 
L 181.180763 170.851863 
L 183.092604 170.856298 
z
" style="stroke:#000000;"/>
    <path clip-path="url(#p615e778048)" d="M 183.667649 187.087331 
L 181.073287 190.23752 
L 182.985053 190.223166 
z
" style="stroke:#000000;"/>
    <path clip-path="url(#p615e778048)" d="M 183.092604 183.428333 
L 184.161139 183.837365 
L 183.667649 187.087331 
z
" style="stroke:#000000;"/>
    <path clip-path="url(#p615e778048)" d="M 184.161139 170.450447 
L 183.092604 170.856298 
L 183.667649 167.199012 
z
" style="stroke:#000000;"/>
    <path clip-path="url(#p615e778048)" d="M 181.073287 164.050118 
L 180.077983 164.844889 
L 180.718052 167.795134 
z
" style="stroke:#000000;"/>
    <path clip-path="url(#p615e778048)" d="M 180.077983 189.439777 
L 181.073287 190.23752 
L 180.718052 186.491443 
z
" style="stroke:#000000;"/>
    <path clip-path="url(#p615e778048)" d="M 183.092604 183.428333 
L 181.46061 180.308559 
L 183.372644 180.303826 
z
" style="stroke:#000000;"/>
    <path clip-path="url(#p615e778048)" d="M 180.718052 167.795134 
L 183.092604 170.856298 
L 181.180763 170.851863 
z
" style="stroke:#000000;"/>
    <path clip-path="url(#p615e778048)" d="M 183.372644 173.981638 
L 184.459618 173.778316 
L 183.466368 177.142872 
z
" style="stroke:#000000;"/>
    <path clip-path="url(#p615e778048)" d="M 184.459618 180.510385 
L 183.372644 180.303826 
L 183.466368 177.142872 
z
" style="stroke:#000000;"/>
    <path clip-path="url(#p615e778048)" d="M 183.466368 177.142872 
L 181.46061 173.980236 
L 183.372644 173.981638 
z
" style="stroke:#000000;"/>
    <path clip-path="url(#p615e778048)" d="M 183.372644 180.303826 
L 181.554269 177.144537 
L 183.466368 177.142872 
z
" style="stroke:#000000;"/>
    <path clip-path="url(#p615e778048)" d="M 182.985053 164.061144 
L 181.755411 167.191026 
L 183.667649 167.199012 
z
" style="stroke:#000000;"/>
    <path clip-path="url(#p615e778048)" d="M 181.46061 180.308559 
L 183.092604 183.428333 
L 181.180763 183.436096 
z
" style="stroke:#000000;"/>
    <path clip-path="url(#p615e778048)" d="M 181.755411 167.191026 
L 182.985053 164.061144 
L 181.073287 164.050118 
z
" style="stroke:#000000;"/>
    <path clip-path="url(#p615e778048)" d="M 183.372644 180.303826 
L 184.459618 180.510385 
L 184.161139 183.837365 
z
" style="stroke:#000000;"/>
    <path clip-path="url(#p615e778048)" d="M 184.459618 173.778316 
L 183.372644 173.981638 
L 184.161139 170.450447 
z
" style="stroke:#000000;"/>
    <path clip-path="url(#p615e778048)" d="M 181.180763 170.851863 
L 183.372644 173.981638 
L 181.46061 173.980236 
z
" style="stroke:#000000;"/>
    <path clip-path="url(#p615e778048)" d="M 181.554269 177.144537 
L 183.372644 180.303826 
L 181.46061 180.308559 
z
" style="stroke:#000000;"/>
    <path clip-path="url(#p615e778048)" d="M 183.466368 177.142872 
L 184.559508 177.144499 
L 184.459618 180.510385 
z
" style="stroke:#000000;"/>
    <path clip-path="url(#p615e778048)" d="M 184.559508 177.144499 
L 183.466368 177.142872 
L 184.459618 173.778316 
z
" style="stroke:#000000;"/>
    <path clip-path="url(#p615e778048)" d="M 181.46061 173.980236 
L 183.466368 177.142872 
L 181.554269 177.144537 
z
" style="stroke:#000000;"/>
    <path clip-path="url(#p615e778048)" d="M 181.073287 190.23752 
L 183.667649 187.087331 
L 181.755411 187.098649 
z
" style="stroke:#000000;"/>
    <path clip-path="url(#p615e778048)" d="M 184.161139 183.837365 
L 181.755411 187.098649 
L 183.667649 187.087331 
z
" style="stroke:#000000;"/>
    <path clip-path="url(#p615e778048)" d="M 180.718052 167.795134 
L 181.755411 167.191026 
L 181.073287 164.050118 
z
" style="stroke:#000000;"/>
    <path clip-path="url(#p615e778048)" d="M 181.755411 187.098649 
L 180.718052 186.491443 
L 181.073287 190.23752 
z
" style="stroke:#000000;"/>
    <path clip-path="url(#p615e778048)" d="M 181.755411 167.191026 
L 180.718052 167.795134 
L 181.180763 170.851863 
z
" style="stroke:#000000;"/>
    <path clip-path="url(#p615e778048)" d="M 180.718052 186.491443 
L 181.755411 187.098649 
L 181.180763 183.436096 
z
" style="stroke:#000000;"/>
    <path clip-path="url(#p615e778048)" d="M 183.667649 167.199012 
L 182.248561 170.445614 
L 184.161139 170.450447 
z
" style="stroke:#000000;"/>
    <path clip-path="url(#p615e778048)" d="M 186.020257 162.958576 
L 183.284379 156.554252 
L 184.194897 156.941773 
z
" style="stroke:#000000;"/>
    <path clip-path="url(#p615e778048)" d="M 186.020257 153.284872 
L 184.194897 156.941773 
L 183.284379 156.554252 
z
" style="stroke:#000000;"/>
    <path clip-path="url(#p615e778048)" d="M 181.372406 156.535939 
L 186.020257 153.284872 
L 183.284379 156.554252 
z
" style="stroke:#000000;"/>
    <path clip-path="url(#p615e778048)" d="M 186.020257 166.183144 
L 181.372406 156.535939 
L 183.284379 156.554252 
z
" style="stroke:#000000;"/>
    <path clip-path="url(#p615e778048)" d="M 182.248561 170.445614 
L 183.667649 167.199012 
L 181.755411 167.191026 
z
" style="stroke:#000000;"/>
    <path clip-path="url(#p615e778048)" d="M 184.459618 180.510385 
L 182.248561 183.845533 
L 184.161139 183.837365 
z
" style="stroke:#000000;"/>
    <path clip-path="url(#p615e778048)" d="M 182.248561 170.445614 
L 181.180763 170.851863 
L 181.46061 173.980236 
z
" style="stroke:#000000;"/>
    <path clip-path="url(#p615e778048)" d="M 181.180763 183.436096 
L 182.248561 183.845533 
L 181.46061 180.308559 
z
" style="stroke:#000000;"/>
    <path clip-path="url(#p615e778048)" d="M 184.161139 170.450447 
L 182.546834 173.776715 
L 184.459618 173.778316 
z
" style="stroke:#000000;"/>
    <path clip-path="url(#p615e778048)" d="M 181.755411 187.098649 
L 184.161139 183.837365 
L 182.248561 183.845533 
z
" style="stroke:#000000;"/>
    <path clip-path="url(#p615e778048)" d="M 181.180763 170.851863 
L 182.248561 170.445614 
L 181.755411 167.191026 
z
" style="stroke:#000000;"/>
    <path clip-path="url(#p615e778048)" d="M 182.248561 183.845533 
L 181.180763 183.436096 
L 181.755411 187.098649 
z
" style="stroke:#000000;"/>
    <path clip-path="url(#p615e778048)" d="M 184.559508 177.144499 
L 182.546834 180.515323 
L 184.459618 180.510385 
z
" style="stroke:#000000;"/>
    <path clip-path="url(#p615e778048)" d="M 181.46061 180.308559 
L 182.546834 180.515323 
L 181.554269 177.144537 
z
" style="stroke:#000000;"/>
    <path clip-path="url(#p615e778048)" d="M 182.546834 173.776715 
L 181.46061 173.980236 
L 181.554269 177.144537 
z
" style="stroke:#000000;"/>
    <path clip-path="url(#p615e778048)" d="M 184.459618 173.778316 
L 182.646655 177.146168 
L 184.559508 177.144499 
z
" style="stroke:#000000;"/>
    <path clip-path="url(#p615e778048)" d="M 182.546834 173.776715 
L 184.161139 170.450447 
L 182.248561 170.445614 
z
" style="stroke:#000000;"/>
    <path clip-path="url(#p615e778048)" d="M 182.248561 183.845533 
L 184.459618 180.510385 
L 182.546834 180.515323 
z
" style="stroke:#000000;"/>
    <path clip-path="url(#p615e778048)" d="M 183.284379 156.554252 
L 186.020257 162.958576 
L 186.020257 166.183144 
z
" style="stroke:#000000;"/>
    <path clip-path="url(#p615e778048)" d="M 181.46061 173.980236 
L 182.546834 173.776715 
L 182.248561 170.445614 
z
" style="stroke:#000000;"/>
    <path clip-path="url(#p615e778048)" d="M 182.546834 180.515323 
L 181.46061 180.308559 
L 182.248561 183.845533 
z
" style="stroke:#000000;"/>
    <path clip-path="url(#p615e778048)" d="M 182.646655 177.146168 
L 184.459618 173.778316 
L 182.546834 173.776715 
z
" style="stroke:#000000;"/>
    <path clip-path="url(#p615e778048)" d="M 182.546834 180.515323 
L 184.559508 177.144499 
L 182.646655 177.146168 
z
" style="stroke:#000000;"/>
    <path clip-path="url(#p615e778048)" d="M 181.554269 177.144537 
L 182.646655 177.146168 
L 182.546834 173.776715 
z
" style="stroke:#000000;"/>
    <path clip-path="url(#p615e778048)" d="M 182.646655 177.146168 
L 181.554269 177.144537 
L 182.546834 180.515323 
z
" style="stroke:#000000;"/>
    <path clip-path="url(#p615e778048)" d="M 184.194897 156.941773 
L 186.020257 153.284872 
L 186.020257 154.897156 
z
" style="stroke:#000000;"/>
    <path clip-path="url(#p615e778048)" d="M 184.194897 156.941773 
L 184.106401 154.877188 
L 182.282296 156.923821 
z
" style="stroke:#000000;"/>
    <path clip-path="url(#p615e778048)" d="M 184.106401 162.946448 
L 184.194897 156.941773 
L 182.282296 156.923821 
z
" style="stroke:#000000;"/>
    <path clip-path="url(#p615e778048)" d="M 182.282296 156.923821 
L 184.106401 153.263336 
L 181.372406 156.535939 
z
" style="stroke:#000000;"/>
    <path clip-path="url(#p615e778048)" d="M 181.372406 156.535939 
L 184.106401 162.946448 
L 182.282296 156.923821 
z
" style="stroke:#000000;"/>
    <path clip-path="url(#p615e778048)" d="M 184.106401 154.877188 
L 184.194897 156.941773 
L 186.020257 154.897156 
z
" style="stroke:#000000;"/>
    <path clip-path="url(#p615e778048)" d="M 184.194897 156.941773 
L 184.106401 162.946448 
L 186.020257 162.958576 
z
" style="stroke:#000000;"/>
    <path clip-path="url(#p615e778048)" d="M 186.020257 153.284872 
L 181.372406 156.535939 
L 184.106401 153.263336 
z
" style="stroke:#000000;"/>
    <path clip-path="url(#p615e778048)" d="M 181.372406 156.535939 
L 186.020257 166.183144 
L 184.106401 166.174153 
z
" style="stroke:#000000;"/>
    <path clip-path="url(#p615e778048)" d="M 184.106401 162.946448 
L 181.372406 156.535939 
L 184.106401 166.174153 
z
" style="stroke:#000000;"/>
    <path clip-path="url(#p615e778048)" d="M 184.106401 153.263336 
L 182.282296 156.923821 
L 184.106401 154.877188 
z
" style="stroke:#000000;"/>
    <path clip-path="url(#p615e778048)" d="M 186.020257 153.284872 
L 187.851405 156.883157 
L 186.020257 154.897156 
z
" style="stroke:#000000;"/>
    <path clip-path="url(#p615e778048)" d="M 186.020257 162.958576 
L 188.769159 156.464415 
L 186.020257 166.183144 
z
" style="stroke:#000000;"/>
    <path clip-path="url(#p615e778048)" d="M 184.106401 153.263336 
L 188.769159 156.464415 
L 186.020257 153.284872 
z
" style="stroke:#000000;"/>
    <path clip-path="url(#p615e778048)" d="M 188.769159 156.464415 
L 184.106401 166.174153 
L 186.020257 166.183144 
z
" style="stroke:#000000;"/>
    <path clip-path="url(#p615e778048)" d="M 186.020257 154.897156 
L 185.936296 156.865092 
L 184.106401 154.877188 
z
" style="stroke:#000000;"/>
    <path clip-path="url(#p615e778048)" d="M 185.936296 156.865092 
L 186.020257 162.958576 
L 184.106401 162.946448 
z
" style="stroke:#000000;"/>
    <path clip-path="url(#p615e778048)" d="M 188.769159 156.464415 
L 186.020257 162.958576 
L 187.851405 156.883157 
z
" style="stroke:#000000;"/>
    <path clip-path="url(#p615e778048)" d="M 187.851405 156.883157 
L 186.020257 153.284872 
L 188.769159 156.464415 
z
" style="stroke:#000000;"/>
    <path clip-path="url(#p615e778048)" d="M 185.936296 156.865092 
L 186.020257 154.897156 
L 187.851405 156.883157 
z
" style="stroke:#000000;"/>
    <path clip-path="url(#p615e778048)" d="M 186.020257 162.958576 
L 185.936296 156.865092 
L 187.851405 156.883157 
z
" style="stroke:#000000;"/>
    <path clip-path="url(#p615e778048)" d="M 184.106401 153.263336 
L 184.106401 154.877188 
L 185.936296 156.865092 
z
" style="stroke:#000000;"/>
    <path clip-path="url(#p615e778048)" d="M 187.484711 177.148855 
L 188.585492 177.150494 
L 187.585126 180.52416 
z
" style="stroke:#000000;"/>
    <path clip-path="url(#p615e778048)" d="M 188.585492 177.150494 
L 187.484711 177.148855 
L 187.585126 173.773848 
z
" style="stroke:#000000;"/>
    <path clip-path="url(#p615e778048)" d="M 187.585126 180.52416 
L 185.569852 177.150532 
L 187.484711 177.148855 
z
" style="stroke:#000000;"/>
    <path clip-path="url(#p615e778048)" d="M 187.484711 177.148855 
L 185.670198 173.772238 
L 187.585126 173.773848 
z
" style="stroke:#000000;"/>
    <path clip-path="url(#p615e778048)" d="M 187.585126 180.52416 
L 188.680066 180.326288 
L 187.88538 183.864529 
z
" style="stroke:#000000;"/>
    <path clip-path="url(#p615e778048)" d="M 188.680066 173.974981 
L 187.585126 173.773848 
L 187.88538 170.434374 
z
" style="stroke:#000000;"/>
    <path clip-path="url(#p615e778048)" d="M 187.88538 183.864529 
L 185.670198 180.529125 
L 187.585126 180.52416 
z
" style="stroke:#000000;"/>
    <path clip-path="url(#p615e778048)" d="M 184.106401 162.946448 
L 184.106401 166.174153 
L 186.853423 156.445927 
z
" style="stroke:#000000;"/>
    <path clip-path="url(#p615e778048)" d="M 187.585126 173.773848 
L 185.970247 170.42951 
L 187.88538 170.434374 
z
" style="stroke:#000000;"/>
    <path clip-path="url(#p615e778048)" d="M 185.670198 173.772238 
L 187.484711 177.148855 
L 185.569852 177.150532 
z
" style="stroke:#000000;"/>
    <path clip-path="url(#p615e778048)" d="M 187.585126 173.773848 
L 188.680066 173.974981 
L 188.585492 177.150494 
z
" style="stroke:#000000;"/>
    <path clip-path="url(#p615e778048)" d="M 188.680066 180.326288 
L 187.585126 180.52416 
L 188.585492 177.150494 
z
" style="stroke:#000000;"/>
    <path clip-path="url(#p615e778048)" d="M 185.569852 177.150532 
L 187.585126 180.52416 
L 185.670198 180.529125 
z
" style="stroke:#000000;"/>
    <path clip-path="url(#p615e778048)" d="M 187.88538 183.864529 
L 188.962829 183.469104 
L 188.38249 187.135028 
z
" style="stroke:#000000;"/>
    <path clip-path="url(#p615e778048)" d="M 188.962829 170.833007 
L 187.88538 170.434374 
L 188.38249 167.165355 
z
" style="stroke:#000000;"/>
    <path clip-path="url(#p615e778048)" d="M 188.38249 187.135028 
L 185.970247 183.872749 
L 187.88538 183.864529 
z
" style="stroke:#000000;"/>
    <path clip-path="url(#p615e778048)" d="M 185.970247 170.42951 
L 187.585126 173.773848 
L 185.670198 173.772238 
z
" style="stroke:#000000;"/>
    <path clip-path="url(#p615e778048)" d="M 188.962829 183.469104 
L 187.88538 183.864529 
L 188.680066 180.326288 
z
" style="stroke:#000000;"/>
    <path clip-path="url(#p615e778048)" d="M 187.88538 170.434374 
L 188.962829 170.833007 
L 188.680066 173.974981 
z
" style="stroke:#000000;"/>
    <path clip-path="url(#p615e778048)" d="M 185.670198 180.529125 
L 187.88538 183.864529 
L 185.970247 183.872749 
z
" style="stroke:#000000;"/>
    <path clip-path="url(#p615e778048)" d="M 187.88538 170.434374 
L 186.467017 167.157303 
L 188.38249 167.165355 
z
" style="stroke:#000000;"/>
    <path clip-path="url(#p615e778048)" d="M 188.769159 156.464415 
L 184.106401 153.263336 
L 186.853423 156.445927 
z
" style="stroke:#000000;"/>
    <path clip-path="url(#p615e778048)" d="M 184.106401 166.174153 
L 188.769159 156.464415 
L 186.853423 156.445927 
z
" style="stroke:#000000;"/>
    <path clip-path="url(#p615e778048)" d="M 184.106401 153.263336 
L 185.936296 156.865092 
L 186.853423 156.445927 
z
" style="stroke:#000000;"/>
    <path clip-path="url(#p615e778048)" d="M 184.106401 162.946448 
L 186.853423 156.445927 
L 185.936296 156.865092 
z
" style="stroke:#000000;"/>
    <path clip-path="url(#p615e778048)" d="M 186.467017 167.157303 
L 187.88538 170.434374 
L 185.970247 170.42951 
z
" style="stroke:#000000;"/>
    <path clip-path="url(#p615e778048)" d="M 189.430968 186.546009 
L 188.38249 187.135028 
L 188.962829 183.469104 
z
" style="stroke:#000000;"/>
    <path clip-path="url(#p615e778048)" d="M 188.38249 167.165355 
L 189.430968 167.757497 
L 188.962829 170.833007 
z
" style="stroke:#000000;"/>
    <path clip-path="url(#p615e778048)" d="M 188.38249 187.135028 
L 189.430968 186.546009 
L 189.071499 190.301345 
z
" style="stroke:#000000;"/>
    <path clip-path="url(#p615e778048)" d="M 189.430968 167.757497 
L 188.38249 167.165355 
L 189.071499 164.00109 
z
" style="stroke:#000000;"/>
    <path clip-path="url(#p615e778048)" d="M 185.970247 183.872749 
L 188.38249 187.135028 
L 186.467017 187.146439 
z
" style="stroke:#000000;"/>
    <path clip-path="url(#p615e778048)" d="M 189.071499 190.301345 
L 186.467017 187.146439 
L 188.38249 187.135028 
z
" style="stroke:#000000;"/>
    <path clip-path="url(#p615e778048)" d="M 188.680066 173.974981 
L 186.669881 177.152174 
L 188.585492 177.150494 
z
" style="stroke:#000000;"/>
    <path clip-path="url(#p615e778048)" d="M 185.569852 177.150532 
L 186.669881 177.152174 
L 185.670198 173.772238 
z
" style="stroke:#000000;"/>
    <path clip-path="url(#p615e778048)" d="M 186.669881 177.152174 
L 185.569852 177.150532 
L 185.670198 180.529125 
z
" style="stroke:#000000;"/>
    <path clip-path="url(#p615e778048)" d="M 188.585492 177.150494 
L 186.76439 180.331065 
L 188.680066 180.326288 
z
" style="stroke:#000000;"/>
    <path clip-path="url(#p615e778048)" d="M 188.962829 170.833007 
L 186.76439 173.973565 
L 188.680066 173.974981 
z
" style="stroke:#000000;"/>
    <path clip-path="url(#p615e778048)" d="M 185.670198 173.772238 
L 186.76439 173.973565 
L 185.970247 170.42951 
z
" style="stroke:#000000;"/>
    <path clip-path="url(#p615e778048)" d="M 186.76439 180.331065 
L 185.670198 180.529125 
L 185.970247 183.872749 
z
" style="stroke:#000000;"/>
    <path clip-path="url(#p615e778048)" d="M 188.38249 167.165355 
L 187.155557 163.989947 
L 189.071499 164.00109 
z
" style="stroke:#000000;"/>
    <path clip-path="url(#p615e778048)" d="M 188.680066 180.326288 
L 187.046961 183.476946 
L 188.962829 183.469104 
z
" style="stroke:#000000;"/>
    <path clip-path="url(#p615e778048)" d="M 187.155557 163.989947 
L 188.38249 167.165355 
L 186.467017 167.157303 
z
" style="stroke:#000000;"/>
    <path clip-path="url(#p615e778048)" d="M 186.76439 180.331065 
L 188.585492 177.150494 
L 186.669881 177.152174 
z
" style="stroke:#000000;"/>
    <path clip-path="url(#p615e778048)" d="M 186.669881 177.152174 
L 188.680066 173.974981 
L 186.76439 173.973565 
z
" style="stroke:#000000;"/>
    <path clip-path="url(#p615e778048)" d="M 185.670198 180.529125 
L 186.76439 180.331065 
L 186.669881 177.152174 
z
" style="stroke:#000000;"/>
    <path clip-path="url(#p615e778048)" d="M 186.76439 173.973565 
L 185.670198 173.772238 
L 186.669881 177.152174 
z
" style="stroke:#000000;"/>
    <path clip-path="url(#p615e778048)" d="M 189.430968 167.757497 
L 187.046961 170.828528 
L 188.962829 170.833007 
z
" style="stroke:#000000;"/>
    <path clip-path="url(#p615e778048)" d="M 187.046961 183.476946 
L 188.680066 180.326288 
L 186.76439 180.331065 
z
" style="stroke:#000000;"/>
    <path clip-path="url(#p615e778048)" d="M 190.079793 189.524619 
L 189.071499 190.301345 
L 189.430968 186.546009 
z
" style="stroke:#000000;"/>
    <path clip-path="url(#p615e778048)" d="M 189.071499 164.00109 
L 190.079793 164.780818 
L 189.430968 167.757497 
z
" style="stroke:#000000;"/>
    <path clip-path="url(#p615e778048)" d="M 185.970247 170.42951 
L 187.046961 170.828528 
L 186.467017 167.157303 
z
" style="stroke:#000000;"/>
    <path clip-path="url(#p615e778048)" d="M 187.046961 183.476946 
L 185.970247 183.872749 
L 186.467017 187.146439 
z
" style="stroke:#000000;"/>
    <path clip-path="url(#p615e778048)" d="M 186.467017 187.146439 
L 189.071499 190.301345 
L 187.155557 190.31585 
z
" style="stroke:#000000;"/>
    <path clip-path="url(#p615e778048)" d="M 186.76439 173.973565 
L 188.962829 170.833007 
L 187.046961 170.828528 
z
" style="stroke:#000000;"/>
    <path clip-path="url(#p615e778048)" d="M 187.046961 170.828528 
L 185.970247 170.42951 
L 186.76439 173.973565 
z
" style="stroke:#000000;"/>
    <path clip-path="url(#p615e778048)" d="M 185.970247 183.872749 
L 187.046961 183.476946 
L 186.76439 180.331065 
z
" style="stroke:#000000;"/>
    <path clip-path="url(#p615e778048)" d="M 188.962829 183.469104 
L 187.514782 186.556856 
L 189.430968 186.546009 
z
" style="stroke:#000000;"/>
    <path clip-path="url(#p615e778048)" d="M 189.071499 190.301345 
L 190.079793 189.524619 
L 189.945546 193.330153 
z
" style="stroke:#000000;"/>
    <path clip-path="url(#p615e778048)" d="M 190.079793 164.780818 
L 189.071499 164.00109 
L 189.945546 160.974884 
z
" style="stroke:#000000;"/>
    <path clip-path="url(#p615e778048)" d="M 189.945546 193.330153 
L 187.155557 190.31585 
L 189.071499 190.301345 
z
" style="stroke:#000000;"/>
    <path clip-path="url(#p615e778048)" d="M 187.514782 186.556856 
L 188.962829 183.469104 
L 187.046961 183.476946 
z
" style="stroke:#000000;"/>
    <path clip-path="url(#p615e778048)" d="M 190.079793 164.780818 
L 187.514782 167.750015 
L 189.430968 167.757497 
z
" style="stroke:#000000;"/>
    <path clip-path="url(#p615e778048)" d="M 187.046961 170.828528 
L 189.430968 167.757497 
L 187.514782 167.750015 
z
" style="stroke:#000000;"/>
    <path clip-path="url(#p615e778048)" d="M 189.071499 164.00109 
L 188.02901 160.960779 
L 189.945546 160.974884 
z
" style="stroke:#000000;"/>
    <path clip-path="url(#p615e778048)" d="M 187.514782 167.750015 
L 186.467017 167.157303 
L 187.046961 170.828528 
z
" style="stroke:#000000;"/>
    <path clip-path="url(#p615e778048)" d="M 186.467017 187.146439 
L 187.514782 186.556856 
L 187.046961 183.476946 
z
" style="stroke:#000000;"/>
    <path clip-path="url(#p615e778048)" d="M 186.467017 167.157303 
L 187.514782 167.750015 
L 187.155557 163.989947 
z
" style="stroke:#000000;"/>
    <path clip-path="url(#p615e778048)" d="M 187.514782 186.556856 
L 186.467017 187.146439 
L 187.155557 190.31585 
z
" style="stroke:#000000;"/>
    <path clip-path="url(#p615e778048)" d="M 188.02901 160.960779 
L 189.071499 164.00109 
L 187.155557 163.989947 
z
" style="stroke:#000000;"/>
    <path clip-path="url(#p615e778048)" d="M 189.430968 186.546009 
L 188.163165 189.538379 
L 190.079793 189.524619 
z
" style="stroke:#000000;"/>
    <path clip-path="url(#p615e778048)" d="M 190.902785 192.373482 
L 189.945546 193.330153 
L 190.079793 189.524619 
z
" style="stroke:#000000;"/>
    <path clip-path="url(#p615e778048)" d="M 189.945546 160.974884 
L 190.902785 161.934406 
L 190.079793 164.780818 
z
" style="stroke:#000000;"/>
    <path clip-path="url(#p615e778048)" d="M 188.163165 189.538379 
L 189.430968 186.546009 
L 187.514782 186.556856 
z
" style="stroke:#000000;"/>
    <path clip-path="url(#p615e778048)" d="M 187.155557 190.31585 
L 189.945546 193.330153 
L 188.02901 193.347626 
z
" style="stroke:#000000;"/>
    <path clip-path="url(#p615e778048)" d="M 189.945546 193.330153 
L 190.902785 192.373482 
L 190.995849 196.189228 
z
" style="stroke:#000000;"/>
    <path clip-path="url(#p615e778048)" d="M 190.902785 161.934406 
L 189.945546 160.974884 
L 190.995849 158.118937 
z
" style="stroke:#000000;"/>
    <path clip-path="url(#p615e778048)" d="M 187.514782 167.750015 
L 190.079793 164.780818 
L 188.163165 164.770427 
z
" style="stroke:#000000;"/>
    <path clip-path="url(#p615e778048)" d="M 188.163165 164.770427 
L 187.155557 163.989947 
L 187.514782 167.750015 
z
" style="stroke:#000000;"/>
    <path clip-path="url(#p615e778048)" d="M 187.155557 190.31585 
L 188.163165 189.538379 
L 187.514782 186.556856 
z
" style="stroke:#000000;"/>
    <path clip-path="url(#p615e778048)" d="M 190.995849 196.189228 
L 188.02901 193.347626 
L 189.945546 193.330153 
z
" style="stroke:#000000;"/>
    <path clip-path="url(#p615e778048)" d="M 190.902785 161.934406 
L 188.163165 164.770427 
L 190.079793 164.780818 
z
" style="stroke:#000000;"/>
    <path clip-path="url(#p615e778048)" d="M 187.155557 163.989947 
L 188.163165 164.770427 
L 188.02901 160.960779 
z
" style="stroke:#000000;"/>
    <path clip-path="url(#p615e778048)" d="M 188.163165 189.538379 
L 187.155557 190.31585 
L 188.02901 193.347626 
z
" style="stroke:#000000;"/>
    <path clip-path="url(#p615e778048)" d="M 190.079793 189.524619 
L 188.985599 192.390034 
L 190.902785 192.373482 
z
" style="stroke:#000000;"/>
    <path clip-path="url(#p615e778048)" d="M 189.945546 160.974884 
L 189.0786 158.102029 
L 190.995849 158.118937 
z
" style="stroke:#000000;"/>
    <path clip-path="url(#p615e778048)" d="M 189.0786 158.102029 
L 189.945546 160.974884 
L 188.02901 160.960779 
z
" style="stroke:#000000;"/>
    <path clip-path="url(#p615e778048)" d="M 188.985599 192.390034 
L 190.079793 189.524619 
L 188.163165 189.538379 
z
" style="stroke:#000000;"/>
    <path clip-path="url(#p615e778048)" d="M 190.995849 196.189228 
L 190.902785 192.373482 
L 191.89165 195.06237 
z
" style="stroke:#000000;"/>
    <path clip-path="url(#p615e778048)" d="M 190.902785 161.934406 
L 190.995849 158.118937 
L 191.89165 159.248463 
z
" style="stroke:#000000;"/>
    <path clip-path="url(#p615e778048)" d="M 188.163165 164.770427 
L 190.902785 161.934406 
L 188.985599 161.921227 
z
" style="stroke:#000000;"/>
    <path clip-path="url(#p615e778048)" d="M 188.02901 193.347626 
L 190.995849 196.189228 
L 189.0786 196.20951 
z
" style="stroke:#000000;"/>
    <path clip-path="url(#p615e778048)" d="M 188.985599 161.921227 
L 188.02901 160.960779 
L 188.163165 164.770427 
z
" style="stroke:#000000;"/>
    <path clip-path="url(#p615e778048)" d="M 188.02901 193.347626 
L 188.985599 192.390034 
L 188.163165 189.538379 
z
" style="stroke:#000000;"/>
    <path clip-path="url(#p615e778048)" d="M 191.89165 159.248463 
L 188.985599 161.921227 
L 190.902785 161.934406 
z
" style="stroke:#000000;"/>
    <path clip-path="url(#p615e778048)" d="M 190.995849 196.189228 
L 191.89165 195.06237 
L 192.211826 198.848177 
z
" style="stroke:#000000;"/>
    <path clip-path="url(#p615e778048)" d="M 191.89165 159.248463 
L 190.995849 158.118937 
L 192.211826 155.463609 
z
" style="stroke:#000000;"/>
    <path clip-path="url(#p615e778048)" d="M 188.02901 160.960779 
L 188.985599 161.921227 
L 189.0786 158.102029 
z
" style="stroke:#000000;"/>
    <path clip-path="url(#p615e778048)" d="M 188.985599 192.390034 
L 188.02901 193.347626 
L 189.0786 196.20951 
z
" style="stroke:#000000;"/>
    <path clip-path="url(#p615e778048)" d="M 192.211826 198.848177 
L 189.0786 196.20951 
L 190.995849 196.189228 
z
" style="stroke:#000000;"/>
    <path clip-path="url(#p615e778048)" d="M 190.902785 192.373482 
L 189.973795 195.081566 
L 191.89165 195.06237 
z
" style="stroke:#000000;"/>
    <path clip-path="url(#p615e778048)" d="M 189.973795 195.081566 
L 190.902785 192.373482 
L 188.985599 192.390034 
z
" style="stroke:#000000;"/>
    <path clip-path="url(#p615e778048)" d="M 190.293754 155.444087 
L 190.995849 158.118937 
L 189.0786 158.102029 
z
" style="stroke:#000000;"/>
    <path clip-path="url(#p615e778048)" d="M 190.995849 158.118937 
L 190.293754 155.444087 
L 192.211826 155.463609 
z
" style="stroke:#000000;"/>
    <path clip-path="url(#p615e778048)" d="M 188.985599 161.921227 
L 191.89165 159.248463 
L 189.973795 159.232647 
z
" style="stroke:#000000;"/>
    <path clip-path="url(#p615e778048)" d="M 192.211826 198.848177 
L 191.89165 195.06237 
L 193.03637 197.562345 
z
" style="stroke:#000000;"/>
    <path clip-path="url(#p615e778048)" d="M 191.89165 159.248463 
L 192.211826 155.463609 
L 193.03637 156.751897 
z
" style="stroke:#000000;"/>
    <path clip-path="url(#p615e778048)" d="M 189.0786 158.102029 
L 188.985599 161.921227 
L 189.973795 159.232647 
z
" style="stroke:#000000;"/>
    <path clip-path="url(#p615e778048)" d="M 188.985599 192.390034 
L 189.0786 196.20951 
L 189.973795 195.081566 
z
" style="stroke:#000000;"/>
    <path clip-path="url(#p615e778048)" d="M 189.0786 196.20951 
L 192.211826 198.848177 
L 190.293754 198.87108 
z
" style="stroke:#000000;"/>
    <path clip-path="url(#p615e778048)" d="M 193.03637 156.751897 
L 189.973795 159.232647 
L 191.89165 159.248463 
z
" style="stroke:#000000;"/>
    <path clip-path="url(#p615e778048)" d="M 192.896086 200.062431 
L 190.293754 198.87108 
L 192.211826 198.848177 
z
" style="stroke:#000000;"/>
    <path clip-path="url(#p615e778048)" d="M 192.211826 198.848177 
L 193.379855 199.640439 
L 192.896086 200.062431 
z
" style="stroke:#000000;"/>
    <path clip-path="url(#p615e778048)" d="M 193.379855 154.674825 
L 192.211826 155.463609 
L 192.896086 154.251393 
z
" style="stroke:#000000;"/>
    <path clip-path="url(#p615e778048)" d="M 189.0786 158.102029 
L 189.973795 159.232647 
L 190.293754 155.444087 
z
" style="stroke:#000000;"/>
    <path clip-path="url(#p615e778048)" d="M 189.973795 195.081566 
L 189.0786 196.20951 
L 190.293754 198.87108 
z
" style="stroke:#000000;"/>
    <path clip-path="url(#p615e778048)" d="M 193.379855 199.640439 
L 192.211826 198.848177 
L 193.03637 197.562345 
z
" style="stroke:#000000;"/>
    <path clip-path="url(#p615e778048)" d="M 192.211826 155.463609 
L 193.379855 154.674825 
L 193.03637 156.751897 
z
" style="stroke:#000000;"/>
    <path clip-path="url(#p615e778048)" d="M 191.117741 197.584006 
L 191.89165 195.06237 
L 189.973795 195.081566 
z
" style="stroke:#000000;"/>
    <path clip-path="url(#p615e778048)" d="M 191.89165 195.06237 
L 191.117741 197.584006 
L 193.03637 197.562345 
z
" style="stroke:#000000;"/>
    <path clip-path="url(#p615e778048)" d="M 192.211826 155.463609 
L 190.977553 154.230673 
L 192.896086 154.251393 
z
" style="stroke:#000000;"/>
    <path clip-path="url(#p615e778048)" d="M 190.977553 154.230673 
L 192.211826 155.463609 
L 190.293754 155.444087 
z
" style="stroke:#000000;"/>
    <path clip-path="url(#p615e778048)" d="M 189.973795 159.232647 
L 193.03637 156.751897 
L 191.117741 156.733622 
z
" style="stroke:#000000;"/>
    <path clip-path="url(#p615e778048)" d="M 190.293754 198.87108 
L 192.896086 200.062431 
L 190.977553 200.086536 
z
" style="stroke:#000000;"/>
    <path clip-path="url(#p615e778048)" d="M 193.379855 199.640439 
L 193.03637 197.562345 
L 193.888385 199.072241 
z
" style="stroke:#000000;"/>
    <path clip-path="url(#p615e778048)" d="M 193.03637 156.751897 
L 193.379855 154.674825 
L 193.888385 155.244538 
z
" style="stroke:#000000;"/>
    <path clip-path="url(#p615e778048)" d="M 190.977553 154.230673 
L 193.379855 154.674825 
L 192.896086 154.251393 
z
" style="stroke:#000000;"/>
    <path clip-path="url(#p615e778048)" d="M 190.293754 155.444087 
L 189.973795 159.232647 
L 191.117741 156.733622 
z
" style="stroke:#000000;"/>
    <path clip-path="url(#p615e778048)" d="M 189.973795 195.081566 
L 190.293754 198.87108 
L 191.117741 197.584006 
z
" style="stroke:#000000;"/>
    <path clip-path="url(#p615e778048)" d="M 191.460995 199.664141 
L 192.896086 200.062431 
L 193.379855 199.640439 
z
" style="stroke:#000000;"/>
    <path clip-path="url(#p615e778048)" d="M 191.117741 197.584006 
L 193.888385 199.072241 
L 193.03637 197.562345 
z
" style="stroke:#000000;"/>
    <path clip-path="url(#p615e778048)" d="M 192.896086 200.062431 
L 191.460995 199.664141 
L 190.977553 200.086536 
z
" style="stroke:#000000;"/>
    <path clip-path="url(#p615e778048)" d="M 191.460995 154.654512 
L 193.888385 155.244538 
L 193.379855 154.674825 
z
" style="stroke:#000000;"/>
    <path clip-path="url(#p615e778048)" d="M 190.293754 155.444087 
L 191.460995 154.654512 
L 190.977553 154.230673 
z
" style="stroke:#000000;"/>
    <path clip-path="url(#p615e778048)" d="M 191.460995 199.664141 
L 190.293754 198.87108 
L 190.977553 200.086536 
z
" style="stroke:#000000;"/>
    <path clip-path="url(#p615e778048)" d="M 193.379855 154.674825 
L 190.977553 154.230673 
L 191.460995 154.654512 
z
" style="stroke:#000000;"/>
    <path clip-path="url(#p615e778048)" d="M 191.969183 155.224773 
L 193.03637 156.751897 
L 193.888385 155.244538 
z
" style="stroke:#000000;"/>
    <path clip-path="url(#p615e778048)" d="M 191.460995 154.654512 
L 190.293754 155.444087 
L 191.117741 156.733622 
z
" style="stroke:#000000;"/>
    <path clip-path="url(#p615e778048)" d="M 190.293754 198.87108 
L 191.460995 199.664141 
L 191.117741 197.584006 
z
" style="stroke:#000000;"/>
    <path clip-path="url(#p615e778048)" d="M 193.03637 156.751897 
L 191.969183 155.224773 
L 191.117741 156.733622 
z
" style="stroke:#000000;"/>
    <path clip-path="url(#p615e778048)" d="M 191.969183 199.095396 
L 193.379855 199.640439 
L 193.888385 199.072241 
z
" style="stroke:#000000;"/>
    <path clip-path="url(#p615e778048)" d="M 193.379855 199.640439 
L 191.969183 199.095396 
L 191.460995 199.664141 
z
" style="stroke:#000000;"/>
    <path clip-path="url(#p615e778048)" d="M 193.888385 199.072241 
L 191.117741 197.584006 
L 191.969183 199.095396 
z
" style="stroke:#000000;"/>
    <path clip-path="url(#p615e778048)" d="M 193.888385 155.244538 
L 191.460995 154.654512 
L 191.969183 155.224773 
z
" style="stroke:#000000;"/>
    <path clip-path="url(#p615e778048)" d="M 191.460995 154.654512 
L 191.117741 156.733622 
L 191.969183 155.224773 
z
" style="stroke:#000000;"/>
    <path clip-path="url(#p615e778048)" d="M 191.117741 197.584006 
L 191.460995 199.664141 
L 191.969183 199.095396 
z
" style="stroke:#000000;"/>
   </g>
  </g>
 </g>
 <defs>
  <clipPath id="p615e778048">
   <rect height="271.8" width="279" x="45" y="43.2"/>
  </clipPath>
 </defs>
</svg>
