<?xml version="1.0" encoding="utf-8" standalone="no"?>
<!DOCTYPE svg PUBLIC "-//W3C//DTD SVG 1.1//EN"
  "http://www.w3.org/Graphics/SVG/1.1/DTD/svg11.dtd">
<!-- Created with matplotlib (https://matplotlib.org/) -->
<svg height="360pt" version="1.1" viewBox="0 0 360 360" width="360pt" xmlns="http://www.w3.org/2000/svg" xmlns:xlink="http://www.w3.org/1999/xlink">
 <defs>
  <style type="text/css">
*{stroke-linecap:butt;stroke-linejoin:round;}
  </style>
 </defs>
 <g id="figure_1">
  <g id="patch_1">
   <path d="M 0 360 
L 360 360 
L 360 0 
L 0 0 
z
" style="fill:#ffffff;"/>
  </g>
  <g id="patch_2">
   <path d="M 45 315 
L 324 315 
L 324 43.2 
L 45 43.2 
z
" style="fill:#ffffff;"/>
  </g>
  <g id="axes_1">
   <g id="Poly3DCollection_1">
    <path clip-path="url(#p7b74b5c9c6)" d="M 176.480404 196.738509 
L 176.015367 198.72327 
L 175.327688 198.161891 
z
" style="stroke:#000000;"/>
    <path clip-path="url(#p7b74b5c9c6)" d="M 176.015367 155.558826 
L 176.480404 157.5442 
L 175.327688 156.119299 
z
" style="stroke:#000000;"/>
    <path clip-path="url(#p7b74b5c9c6)" d="M 177.598539 197.999096 
L 176.015367 198.72327 
L 176.480404 196.738509 
z
" style="stroke:#000000;"/>
    <path clip-path="url(#p7b74b5c9c6)" d="M 176.015367 155.558826 
L 177.598539 156.285087 
L 176.480404 157.5442 
z
" style="stroke:#000000;"/>
    <path clip-path="url(#p7b74b5c9c6)" d="M 174.146359 156.093487 
L 176.015367 155.558826 
L 175.327688 156.119299 
z
" style="stroke:#000000;"/>
    <path clip-path="url(#p7b74b5c9c6)" d="M 176.015367 198.72327 
L 177.598539 197.999096 
L 176.670458 199.14418 
z
" style="stroke:#000000;"/>
    <path clip-path="url(#p7b74b5c9c6)" d="M 177.598539 156.285087 
L 176.015367 155.558826 
L 176.670458 155.13878 
z
" style="stroke:#000000;"/>
    <path clip-path="url(#p7b74b5c9c6)" d="M 174.146359 198.192284 
L 176.480404 196.738509 
L 175.327688 198.161891 
z
" style="stroke:#000000;"/>
    <path clip-path="url(#p7b74b5c9c6)" d="M 174.834644 198.754423 
L 175.327688 198.161891 
L 176.015367 198.72327 
z
" style="stroke:#000000;"/>
    <path clip-path="url(#p7b74b5c9c6)" d="M 175.300091 157.520282 
L 175.327688 156.119299 
L 176.480404 157.5442 
z
" style="stroke:#000000;"/>
    <path clip-path="url(#p7b74b5c9c6)" d="M 177.598539 197.999096 
L 176.480404 196.738509 
L 178.033406 194.367438 
z
" style="stroke:#000000;"/>
    <path clip-path="url(#p7b74b5c9c6)" d="M 176.480404 157.5442 
L 177.598539 156.285087 
L 178.033406 159.917319 
z
" style="stroke:#000000;"/>
    <path clip-path="url(#p7b74b5c9c6)" d="M 174.834644 155.532258 
L 176.670458 155.13878 
L 176.015367 155.558826 
z
" style="stroke:#000000;"/>
    <path clip-path="url(#p7b74b5c9c6)" d="M 175.490313 199.175903 
L 176.015367 198.72327 
L 176.670458 199.14418 
z
" style="stroke:#000000;"/>
    <path clip-path="url(#p7b74b5c9c6)" d="M 175.327688 198.161891 
L 174.834644 198.754423 
L 174.146359 198.192284 
z
" style="stroke:#000000;"/>
    <path clip-path="url(#p7b74b5c9c6)" d="M 175.327688 156.119299 
L 175.300091 157.520282 
L 174.146359 156.093487 
z
" style="stroke:#000000;"/>
    <path clip-path="url(#p7b74b5c9c6)" d="M 176.015367 155.558826 
L 174.146359 156.093487 
L 174.834644 155.532258 
z
" style="stroke:#000000;"/>
    <path clip-path="url(#p7b74b5c9c6)" d="M 177.598539 197.999096 
L 175.490313 199.175903 
L 176.670458 199.14418 
z
" style="stroke:#000000;"/>
    <path clip-path="url(#p7b74b5c9c6)" d="M 178.033406 159.917319 
L 175.300091 157.520282 
L 176.480404 157.5442 
z
" style="stroke:#000000;"/>
    <path clip-path="url(#p7b74b5c9c6)" d="M 177.598539 197.999096 
L 178.033406 194.367438 
L 179.252144 195.476196 
z
" style="stroke:#000000;"/>
    <path clip-path="url(#p7b74b5c9c6)" d="M 178.033406 159.917319 
L 177.598539 156.285087 
L 179.252144 158.810168 
z
" style="stroke:#000000;"/>
    <path clip-path="url(#p7b74b5c9c6)" d="M 176.480404 196.738509 
L 174.146359 198.192284 
L 175.300091 196.767013 
z
" style="stroke:#000000;"/>
    <path clip-path="url(#p7b74b5c9c6)" d="M 176.670458 155.13878 
L 176.419214 156.259474 
L 177.598539 156.285087 
z
" style="stroke:#000000;"/>
    <path clip-path="url(#p7b74b5c9c6)" d="M 176.015367 198.72327 
L 175.490313 199.175903 
L 174.834644 198.754423 
z
" style="stroke:#000000;"/>
    <path clip-path="url(#p7b74b5c9c6)" d="M 176.480404 196.738509 
L 176.854465 194.392785 
L 178.033406 194.367438 
z
" style="stroke:#000000;"/>
    <path clip-path="url(#p7b74b5c9c6)" d="M 176.670458 155.13878 
L 174.834644 155.532258 
L 175.490313 155.111643 
z
" style="stroke:#000000;"/>
    <path clip-path="url(#p7b74b5c9c6)" d="M 179.252144 195.476196 
L 178.033406 194.367438 
L 179.378932 191.803304 
z
" style="stroke:#000000;"/>
    <path clip-path="url(#p7b74b5c9c6)" d="M 178.033406 159.917319 
L 179.252144 158.810168 
L 179.378932 162.483227 
z
" style="stroke:#000000;"/>
    <path clip-path="url(#p7b74b5c9c6)" d="M 176.419214 156.259474 
L 176.670458 155.13878 
L 175.490313 155.111643 
z
" style="stroke:#000000;"/>
    <path clip-path="url(#p7b74b5c9c6)" d="M 179.252144 195.476196 
L 176.419214 198.029299 
L 177.598539 197.999096 
z
" style="stroke:#000000;"/>
    <path clip-path="url(#p7b74b5c9c6)" d="M 176.854465 194.392785 
L 176.480404 196.738509 
L 175.300091 196.767013 
z
" style="stroke:#000000;"/>
    <path clip-path="url(#p7b74b5c9c6)" d="M 175.300091 157.520282 
L 174.834644 155.532258 
L 174.146359 156.093487 
z
" style="stroke:#000000;"/>
    <path clip-path="url(#p7b74b5c9c6)" d="M 174.834644 198.754423 
L 175.300091 196.767013 
L 174.146359 198.192284 
z
" style="stroke:#000000;"/>
    <path clip-path="url(#p7b74b5c9c6)" d="M 175.490313 199.175903 
L 177.598539 197.999096 
L 176.419214 198.029299 
z
" style="stroke:#000000;"/>
    <path clip-path="url(#p7b74b5c9c6)" d="M 179.378932 162.483227 
L 176.854465 159.896563 
L 178.033406 159.917319 
z
" style="stroke:#000000;"/>
    <path clip-path="url(#p7b74b5c9c6)" d="M 179.252144 195.476196 
L 179.378932 191.803304 
L 180.684941 192.747737 
z
" style="stroke:#000000;"/>
    <path clip-path="url(#p7b74b5c9c6)" d="M 179.378932 162.483227 
L 179.252144 158.810168 
L 180.684941 161.540516 
z
" style="stroke:#000000;"/>
    <path clip-path="url(#p7b74b5c9c6)" d="M 175.300091 157.520282 
L 178.033406 159.917319 
L 176.854465 159.896563 
z
" style="stroke:#000000;"/>
    <path clip-path="url(#p7b74b5c9c6)" d="M 177.598539 156.285087 
L 178.074282 158.78792 
L 179.252144 158.810168 
z
" style="stroke:#000000;"/>
    <path clip-path="url(#p7b74b5c9c6)" d="M 178.033406 194.367438 
L 178.201183 191.825231 
L 179.378932 191.803304 
z
" style="stroke:#000000;"/>
    <path clip-path="url(#p7b74b5c9c6)" d="M 176.419214 156.259474 
L 174.834644 155.532258 
L 175.300091 157.520282 
z
" style="stroke:#000000;"/>
    <path clip-path="url(#p7b74b5c9c6)" d="M 174.834644 198.754423 
L 176.419214 198.029299 
L 175.300091 196.767013 
z
" style="stroke:#000000;"/>
    <path clip-path="url(#p7b74b5c9c6)" d="M 180.684941 192.747737 
L 179.378932 191.803304 
L 180.501572 189.074696 
z
" style="stroke:#000000;"/>
    <path clip-path="url(#p7b74b5c9c6)" d="M 179.378932 162.483227 
L 180.684941 161.540516 
L 180.501572 165.213315 
z
" style="stroke:#000000;"/>
    <path clip-path="url(#p7b74b5c9c6)" d="M 174.834644 155.532258 
L 176.419214 156.259474 
L 175.490313 155.111643 
z
" style="stroke:#000000;"/>
    <path clip-path="url(#p7b74b5c9c6)" d="M 176.419214 198.029299 
L 174.834644 198.754423 
L 175.490313 199.175903 
z
" style="stroke:#000000;"/>
    <path clip-path="url(#p7b74b5c9c6)" d="M 178.074282 158.78792 
L 177.598539 156.285087 
L 176.419214 156.259474 
z
" style="stroke:#000000;"/>
    <path clip-path="url(#p7b74b5c9c6)" d="M 178.201183 191.825231 
L 178.033406 194.367438 
L 176.854465 194.392785 
z
" style="stroke:#000000;"/>
    <path clip-path="url(#p7b74b5c9c6)" d="M 176.419214 156.259474 
L 175.300091 157.520282 
L 176.854465 159.896563 
z
" style="stroke:#000000;"/>
    <path clip-path="url(#p7b74b5c9c6)" d="M 175.300091 196.767013 
L 176.419214 198.029299 
L 176.854465 194.392785 
z
" style="stroke:#000000;"/>
    <path clip-path="url(#p7b74b5c9c6)" d="M 180.684941 192.747737 
L 178.074282 195.50304 
L 179.252144 195.476196 
z
" style="stroke:#000000;"/>
    <path clip-path="url(#p7b74b5c9c6)" d="M 180.501572 165.213315 
L 178.201183 162.465896 
L 179.378932 162.483227 
z
" style="stroke:#000000;"/>
    <path clip-path="url(#p7b74b5c9c6)" d="M 180.501572 189.074696 
L 181.880481 189.843841 
L 180.684941 192.747737 
z
" style="stroke:#000000;"/>
    <path clip-path="url(#p7b74b5c9c6)" d="M 181.880481 164.445989 
L 180.501572 165.213315 
L 180.684941 161.540516 
z
" style="stroke:#000000;"/>
    <path clip-path="url(#p7b74b5c9c6)" d="M 176.419214 198.029299 
L 179.252144 195.476196 
L 178.074282 195.50304 
z
" style="stroke:#000000;"/>
    <path clip-path="url(#p7b74b5c9c6)" d="M 176.854465 159.896563 
L 179.378932 162.483227 
L 178.201183 162.465896 
z
" style="stroke:#000000;"/>
    <path clip-path="url(#p7b74b5c9c6)" d="M 181.880481 189.843841 
L 180.501572 189.074696 
L 181.38844 186.211987 
z
" style="stroke:#000000;"/>
    <path clip-path="url(#p7b74b5c9c6)" d="M 180.501572 165.213315 
L 181.880481 164.445989 
L 181.38844 168.077193 
z
" style="stroke:#000000;"/>
    <path clip-path="url(#p7b74b5c9c6)" d="M 179.378932 191.803304 
L 179.324818 189.092978 
L 180.501572 189.074696 
z
" style="stroke:#000000;"/>
    <path clip-path="url(#p7b74b5c9c6)" d="M 179.252144 158.810168 
L 179.50835 161.521914 
L 180.684941 161.540516 
z
" style="stroke:#000000;"/>
    <path clip-path="url(#p7b74b5c9c6)" d="M 176.419214 156.259474 
L 176.854465 159.896563 
L 178.074282 158.78792 
z
" style="stroke:#000000;"/>
    <path clip-path="url(#p7b74b5c9c6)" d="M 176.854465 194.392785 
L 176.419214 198.029299 
L 178.074282 195.50304 
z
" style="stroke:#000000;"/>
    <path clip-path="url(#p7b74b5c9c6)" d="M 181.38844 168.077193 
L 179.324818 165.199633 
L 180.501572 165.213315 
z
" style="stroke:#000000;"/>
    <path clip-path="url(#p7b74b5c9c6)" d="M 181.38844 186.211987 
L 182.824971 186.797016 
L 181.880481 189.843841 
z
" style="stroke:#000000;"/>
    <path clip-path="url(#p7b74b5c9c6)" d="M 182.824971 167.494058 
L 181.38844 168.077193 
L 181.880481 164.445989 
z
" style="stroke:#000000;"/>
    <path clip-path="url(#p7b74b5c9c6)" d="M 179.50835 161.521914 
L 179.252144 158.810168 
L 178.074282 158.78792 
z
" style="stroke:#000000;"/>
    <path clip-path="url(#p7b74b5c9c6)" d="M 179.324818 189.092978 
L 179.378932 191.803304 
L 178.201183 191.825231 
z
" style="stroke:#000000;"/>
    <path clip-path="url(#p7b74b5c9c6)" d="M 182.824971 186.797016 
L 181.38844 186.211987 
L 182.029325 183.2472 
z
" style="stroke:#000000;"/>
    <path clip-path="url(#p7b74b5c9c6)" d="M 181.38844 168.077193 
L 182.824971 167.494058 
L 182.029325 171.042825 
z
" style="stroke:#000000;"/>
    <path clip-path="url(#p7b74b5c9c6)" d="M 181.880481 189.843841 
L 179.50835 192.77094 
L 180.684941 192.747737 
z
" style="stroke:#000000;"/>
    <path clip-path="url(#p7b74b5c9c6)" d="M 180.501572 189.074696 
L 180.212473 186.226439 
L 181.38844 186.211987 
z
" style="stroke:#000000;"/>
    <path clip-path="url(#p7b74b5c9c6)" d="M 178.074282 158.78792 
L 176.854465 159.896563 
L 178.201183 162.465896 
z
" style="stroke:#000000;"/>
    <path clip-path="url(#p7b74b5c9c6)" d="M 176.854465 194.392785 
L 178.074282 195.50304 
L 178.201183 191.825231 
z
" style="stroke:#000000;"/>
    <path clip-path="url(#p7b74b5c9c6)" d="M 178.201183 162.465896 
L 180.501572 165.213315 
L 179.324818 165.199633 
z
" style="stroke:#000000;"/>
    <path clip-path="url(#p7b74b5c9c6)" d="M 178.074282 195.50304 
L 180.684941 192.747737 
L 179.50835 192.77094 
z
" style="stroke:#000000;"/>
    <path clip-path="url(#p7b74b5c9c6)" d="M 180.684941 161.540516 
L 180.704951 164.431271 
L 181.880481 164.445989 
z
" style="stroke:#000000;"/>
    <path clip-path="url(#p7b74b5c9c6)" d="M 183.507529 183.641362 
L 182.029325 183.2472 
L 182.416833 180.213629 
z
" style="stroke:#000000;"/>
    <path clip-path="url(#p7b74b5c9c6)" d="M 182.029325 171.042825 
L 183.507529 170.650613 
L 182.416833 174.076908 
z
" style="stroke:#000000;"/>
    <path clip-path="url(#p7b74b5c9c6)" d="M 182.029325 171.042825 
L 180.212473 168.067345 
L 181.38844 168.077193 
z
" style="stroke:#000000;"/>
    <path clip-path="url(#p7b74b5c9c6)" d="M 182.029325 183.2472 
L 183.507529 183.641362 
L 182.824971 186.797016 
z
" style="stroke:#000000;"/>
    <path clip-path="url(#p7b74b5c9c6)" d="M 183.507529 170.650613 
L 182.029325 171.042825 
L 182.824971 167.494058 
z
" style="stroke:#000000;"/>
    <path clip-path="url(#p7b74b5c9c6)" d="M 182.416833 174.076908 
L 183.920253 173.880167 
L 182.546509 177.145354 
z
" style="stroke:#000000;"/>
    <path clip-path="url(#p7b74b5c9c6)" d="M 183.920253 180.412352 
L 182.416833 180.213629 
L 182.546509 177.145354 
z
" style="stroke:#000000;"/>
    <path clip-path="url(#p7b74b5c9c6)" d="M 181.38844 186.211987 
L 180.853928 183.257682 
L 182.029325 183.2472 
z
" style="stroke:#000000;"/>
    <path clip-path="url(#p7b74b5c9c6)" d="M 180.212473 186.226439 
L 180.501572 189.074696 
L 179.324818 189.092978 
z
" style="stroke:#000000;"/>
    <path clip-path="url(#p7b74b5c9c6)" d="M 178.074282 158.78792 
L 178.201183 162.465896 
L 179.50835 161.521914 
z
" style="stroke:#000000;"/>
    <path clip-path="url(#p7b74b5c9c6)" d="M 178.201183 191.825231 
L 178.074282 195.50304 
L 179.50835 192.77094 
z
" style="stroke:#000000;"/>
    <path clip-path="url(#p7b74b5c9c6)" d="M 182.416833 180.213629 
L 183.920253 180.412352 
L 183.507529 183.641362 
z
" style="stroke:#000000;"/>
    <path clip-path="url(#p7b74b5c9c6)" d="M 183.920253 173.880167 
L 182.416833 174.076908 
L 183.507529 170.650613 
z
" style="stroke:#000000;"/>
    <path clip-path="url(#p7b74b5c9c6)" d="M 182.416833 174.076908 
L 180.853928 171.036949 
L 182.029325 171.042825 
z
" style="stroke:#000000;"/>
    <path clip-path="url(#p7b74b5c9c6)" d="M 182.824971 186.797016 
L 180.704951 189.863163 
L 181.880481 189.843841 
z
" style="stroke:#000000;"/>
    <path clip-path="url(#p7b74b5c9c6)" d="M 180.704951 164.431271 
L 180.684941 161.540516 
L 179.50835 161.521914 
z
" style="stroke:#000000;"/>
    <path clip-path="url(#p7b74b5c9c6)" d="M 179.324818 165.199633 
L 181.38844 168.077193 
L 180.212473 168.067345 
z
" style="stroke:#000000;"/>
    <path clip-path="url(#p7b74b5c9c6)" d="M 182.029325 183.2472 
L 181.24178 180.220045 
L 182.416833 180.213629 
z
" style="stroke:#000000;"/>
    <path clip-path="url(#p7b74b5c9c6)" d="M 182.546509 177.145354 
L 184.058358 177.146351 
L 183.920253 180.412352 
z
" style="stroke:#000000;"/>
    <path clip-path="url(#p7b74b5c9c6)" d="M 184.058358 177.146351 
L 182.546509 177.145354 
L 183.920253 173.880167 
z
" style="stroke:#000000;"/>
    <path clip-path="url(#p7b74b5c9c6)" d="M 182.546509 177.145354 
L 181.24178 174.075098 
L 182.416833 174.076908 
z
" style="stroke:#000000;"/>
    <path clip-path="url(#p7b74b5c9c6)" d="M 182.416833 180.213629 
L 181.371571 177.147657 
L 182.546509 177.145354 
z
" style="stroke:#000000;"/>
    <path clip-path="url(#p7b74b5c9c6)" d="M 181.880481 164.445989 
L 181.650281 167.483422 
L 182.824971 167.494058 
z
" style="stroke:#000000;"/>
    <path clip-path="url(#p7b74b5c9c6)" d="M 179.50835 161.521914 
L 178.201183 162.465896 
L 179.324818 165.199633 
z
" style="stroke:#000000;"/>
    <path clip-path="url(#p7b74b5c9c6)" d="M 178.201183 191.825231 
L 179.50835 192.77094 
L 179.324818 189.092978 
z
" style="stroke:#000000;"/>
    <path clip-path="url(#p7b74b5c9c6)" d="M 179.50835 192.77094 
L 181.880481 189.843841 
L 180.704951 189.863163 
z
" style="stroke:#000000;"/>
    <path clip-path="url(#p7b74b5c9c6)" d="M 180.853928 183.257682 
L 181.38844 186.211987 
L 180.212473 186.226439 
z
" style="stroke:#000000;"/>
    <path clip-path="url(#p7b74b5c9c6)" d="M 186.076887 163.388078 
L 182.294704 157.160223 
L 183.554213 157.541914 
z
" style="stroke:#000000;"/>
    <path clip-path="url(#p7b74b5c9c6)" d="M 186.076887 154.00653 
L 183.554213 157.541914 
L 182.294704 157.160223 
z
" style="stroke:#000000;"/>
    <path clip-path="url(#p7b74b5c9c6)" d="M 180.212473 168.067345 
L 182.029325 171.042825 
L 180.853928 171.036949 
z
" style="stroke:#000000;"/>
    <path clip-path="url(#p7b74b5c9c6)" d="M 183.507529 183.641362 
L 181.650281 186.812261 
L 182.824971 186.797016 
z
" style="stroke:#000000;"/>
    <path clip-path="url(#p7b74b5c9c6)" d="M 182.824971 167.494058 
L 182.333447 170.644207 
L 183.507529 170.650613 
z
" style="stroke:#000000;"/>
    <path clip-path="url(#p7b74b5c9c6)" d="M 181.24178 180.220045 
L 182.029325 183.2472 
L 180.853928 183.257682 
z
" style="stroke:#000000;"/>
    <path clip-path="url(#p7b74b5c9c6)" d="M 179.324818 165.199633 
L 180.704951 164.431271 
L 179.50835 161.521914 
z
" style="stroke:#000000;"/>
    <path clip-path="url(#p7b74b5c9c6)" d="M 180.704951 189.863163 
L 179.324818 189.092978 
L 179.50835 192.77094 
z
" style="stroke:#000000;"/>
    <path clip-path="url(#p7b74b5c9c6)" d="M 181.650281 167.483422 
L 181.880481 164.445989 
L 180.704951 164.431271 
z
" style="stroke:#000000;"/>
    <path clip-path="url(#p7b74b5c9c6)" d="M 180.853928 171.036949 
L 182.416833 174.076908 
L 181.24178 174.075098 
z
" style="stroke:#000000;"/>
    <path clip-path="url(#p7b74b5c9c6)" d="M 181.119543 157.135737 
L 186.076887 154.00653 
L 182.294704 157.160223 
z
" style="stroke:#000000;"/>
    <path clip-path="url(#p7b74b5c9c6)" d="M 186.076887 166.51526 
L 181.119543 157.135737 
L 182.294704 157.160223 
z
" style="stroke:#000000;"/>
    <path clip-path="url(#p7b74b5c9c6)" d="M 180.704951 164.431271 
L 179.324818 165.199633 
L 180.212473 168.067345 
z
" style="stroke:#000000;"/>
    <path clip-path="url(#p7b74b5c9c6)" d="M 179.324818 189.092978 
L 180.704951 189.863163 
L 180.212473 186.226439 
z
" style="stroke:#000000;"/>
    <path clip-path="url(#p7b74b5c9c6)" d="M 181.371571 177.147657 
L 182.416833 180.213629 
L 181.24178 180.220045 
z
" style="stroke:#000000;"/>
    <path clip-path="url(#p7b74b5c9c6)" d="M 183.920253 180.412352 
L 182.333447 183.652378 
L 183.507529 183.641362 
z
" style="stroke:#000000;"/>
    <path clip-path="url(#p7b74b5c9c6)" d="M 182.294704 157.160223 
L 186.076887 163.388078 
L 186.076887 166.51526 
z
" style="stroke:#000000;"/>
    <path clip-path="url(#p7b74b5c9c6)" d="M 181.24178 174.075098 
L 182.546509 177.145354 
L 181.371571 177.147657 
z
" style="stroke:#000000;"/>
    <path clip-path="url(#p7b74b5c9c6)" d="M 180.704951 189.863163 
L 182.824971 186.797016 
L 181.650281 186.812261 
z
" style="stroke:#000000;"/>
    <path clip-path="url(#p7b74b5c9c6)" d="M 183.507529 170.650613 
L 182.746538 173.878092 
L 183.920253 173.880167 
z
" style="stroke:#000000;"/>
    <path clip-path="url(#p7b74b5c9c6)" d="M 184.058358 177.146351 
L 182.746538 180.419039 
L 183.920253 180.412352 
z
" style="stroke:#000000;"/>
    <path clip-path="url(#p7b74b5c9c6)" d="M 183.920253 173.880167 
L 182.884766 177.148657 
L 184.058358 177.146351 
z
" style="stroke:#000000;"/>
    <path clip-path="url(#p7b74b5c9c6)" d="M 183.554213 157.541914 
L 186.076887 154.00653 
L 186.076887 155.570121 
z
" style="stroke:#000000;"/>
    <path clip-path="url(#p7b74b5c9c6)" d="M 182.333447 170.644207 
L 182.824971 167.494058 
L 181.650281 167.483422 
z
" style="stroke:#000000;"/>
    <path clip-path="url(#p7b74b5c9c6)" d="M 180.212473 168.067345 
L 181.650281 167.483422 
L 180.704951 164.431271 
z
" style="stroke:#000000;"/>
    <path clip-path="url(#p7b74b5c9c6)" d="M 181.650281 186.812261 
L 180.212473 186.226439 
L 180.704951 189.863163 
z
" style="stroke:#000000;"/>
    <path clip-path="url(#p7b74b5c9c6)" d="M 181.650281 167.483422 
L 180.212473 168.067345 
L 180.853928 171.036949 
z
" style="stroke:#000000;"/>
    <path clip-path="url(#p7b74b5c9c6)" d="M 180.212473 186.226439 
L 181.650281 186.812261 
L 180.853928 183.257682 
z
" style="stroke:#000000;"/>
    <path clip-path="url(#p7b74b5c9c6)" d="M 181.650281 186.812261 
L 183.507529 183.641362 
L 182.333447 183.652378 
z
" style="stroke:#000000;"/>
    <path clip-path="url(#p7b74b5c9c6)" d="M 182.746538 173.878092 
L 183.507529 170.650613 
L 182.333447 170.644207 
z
" style="stroke:#000000;"/>
    <path clip-path="url(#p7b74b5c9c6)" d="M 182.333447 183.652378 
L 183.920253 180.412352 
L 182.746538 180.419039 
z
" style="stroke:#000000;"/>
    <path clip-path="url(#p7b74b5c9c6)" d="M 182.333447 170.644207 
L 180.853928 171.036949 
L 181.24178 174.075098 
z
" style="stroke:#000000;"/>
    <path clip-path="url(#p7b74b5c9c6)" d="M 180.853928 183.257682 
L 182.333447 183.652378 
L 181.24178 180.220045 
z
" style="stroke:#000000;"/>
    <path clip-path="url(#p7b74b5c9c6)" d="M 180.853928 171.036949 
L 182.333447 170.644207 
L 181.650281 167.483422 
z
" style="stroke:#000000;"/>
    <path clip-path="url(#p7b74b5c9c6)" d="M 182.333447 183.652378 
L 180.853928 183.257682 
L 181.650281 186.812261 
z
" style="stroke:#000000;"/>
    <path clip-path="url(#p7b74b5c9c6)" d="M 182.884766 177.148657 
L 183.920253 173.880167 
L 182.746538 173.878092 
z
" style="stroke:#000000;"/>
    <path clip-path="url(#p7b74b5c9c6)" d="M 182.746538 180.419039 
L 184.058358 177.146351 
L 182.884766 177.148657 
z
" style="stroke:#000000;"/>
    <path clip-path="url(#p7b74b5c9c6)" d="M 184.905095 155.543465 
L 183.554213 157.541914 
L 186.076887 155.570121 
z
" style="stroke:#000000;"/>
    <path clip-path="url(#p7b74b5c9c6)" d="M 183.554213 157.541914 
L 184.905095 163.371917 
L 186.076887 163.388078 
z
" style="stroke:#000000;"/>
    <path clip-path="url(#p7b74b5c9c6)" d="M 181.24178 180.220045 
L 182.746538 180.419039 
L 181.371571 177.147657 
z
" style="stroke:#000000;"/>
    <path clip-path="url(#p7b74b5c9c6)" d="M 182.746538 173.878092 
L 181.24178 174.075098 
L 181.371571 177.147657 
z
" style="stroke:#000000;"/>
    <path clip-path="url(#p7b74b5c9c6)" d="M 183.554213 157.541914 
L 184.905095 155.543465 
L 182.380172 157.517929 
z
" style="stroke:#000000;"/>
    <path clip-path="url(#p7b74b5c9c6)" d="M 184.905095 163.371917 
L 183.554213 157.541914 
L 182.380172 157.517929 
z
" style="stroke:#000000;"/>
    <path clip-path="url(#p7b74b5c9c6)" d="M 181.24178 174.075098 
L 182.746538 173.878092 
L 182.333447 170.644207 
z
" style="stroke:#000000;"/>
    <path clip-path="url(#p7b74b5c9c6)" d="M 182.746538 180.419039 
L 181.24178 180.220045 
L 182.333447 183.652378 
z
" style="stroke:#000000;"/>
    <path clip-path="url(#p7b74b5c9c6)" d="M 186.076887 154.00653 
L 188.604447 157.507273 
L 186.076887 155.570121 
z
" style="stroke:#000000;"/>
    <path clip-path="url(#p7b74b5c9c6)" d="M 181.371571 177.147657 
L 182.884766 177.148657 
L 182.746538 173.878092 
z
" style="stroke:#000000;"/>
    <path clip-path="url(#p7b74b5c9c6)" d="M 182.884766 177.148657 
L 181.371571 177.147657 
L 182.746538 180.419039 
z
" style="stroke:#000000;"/>
    <path clip-path="url(#p7b74b5c9c6)" d="M 186.076887 154.00653 
L 181.119543 157.135737 
L 184.905095 153.977775 
z
" style="stroke:#000000;"/>
    <path clip-path="url(#p7b74b5c9c6)" d="M 181.119543 157.135737 
L 186.076887 166.51526 
L 184.905095 166.503297 
z
" style="stroke:#000000;"/>
    <path clip-path="url(#p7b74b5c9c6)" d="M 186.076887 163.388078 
L 189.870064 157.107126 
L 186.076887 166.51526 
z
" style="stroke:#000000;"/>
    <path clip-path="url(#p7b74b5c9c6)" d="M 182.380172 157.517929 
L 184.905095 153.977775 
L 181.119543 157.135737 
z
" style="stroke:#000000;"/>
    <path clip-path="url(#p7b74b5c9c6)" d="M 181.119543 157.135737 
L 184.905095 163.371917 
L 182.380172 157.517929 
z
" style="stroke:#000000;"/>
    <path clip-path="url(#p7b74b5c9c6)" d="M 189.870064 157.107126 
L 186.076887 163.388078 
L 188.604447 157.507273 
z
" style="stroke:#000000;"/>
    <path clip-path="url(#p7b74b5c9c6)" d="M 188.604447 157.507273 
L 186.076887 154.00653 
L 189.870064 157.107126 
z
" style="stroke:#000000;"/>
    <path clip-path="url(#p7b74b5c9c6)" d="M 184.905095 163.371917 
L 181.119543 157.135737 
L 184.905095 166.503297 
z
" style="stroke:#000000;"/>
    <path clip-path="url(#p7b74b5c9c6)" d="M 184.905095 153.977775 
L 189.870064 157.107126 
L 186.076887 154.00653 
z
" style="stroke:#000000;"/>
    <path clip-path="url(#p7b74b5c9c6)" d="M 189.870064 157.107126 
L 184.905095 166.503297 
L 186.076887 166.51526 
z
" style="stroke:#000000;"/>
    <path clip-path="url(#p7b74b5c9c6)" d="M 188.098544 177.149014 
L 189.616843 177.150015 
L 188.237091 180.420605 
z
" style="stroke:#000000;"/>
    <path clip-path="url(#p7b74b5c9c6)" d="M 189.616843 177.150015 
L 188.098544 177.149014 
L 188.237091 173.877606 
z
" style="stroke:#000000;"/>
    <path clip-path="url(#p7b74b5c9c6)" d="M 184.905095 153.977775 
L 182.380172 157.517929 
L 184.905095 155.543465 
z
" style="stroke:#000000;"/>
    <path clip-path="url(#p7b74b5c9c6)" d="M 188.237091 180.420605 
L 189.747236 180.227092 
L 188.651314 183.657567 
z
" style="stroke:#000000;"/>
    <path clip-path="url(#p7b74b5c9c6)" d="M 189.747236 174.07311 
L 188.237091 173.877606 
L 188.651314 170.64119 
z
" style="stroke:#000000;"/>
    <path clip-path="url(#p7b74b5c9c6)" d="M 187.434915 157.483194 
L 186.076887 155.570121 
L 188.604447 157.507273 
z
" style="stroke:#000000;"/>
    <path clip-path="url(#p7b74b5c9c6)" d="M 186.076887 163.388078 
L 187.434915 157.483194 
L 188.604447 157.507273 
z
" style="stroke:#000000;"/>
    <path clip-path="url(#p7b74b5c9c6)" d="M 188.237091 173.877606 
L 189.747236 174.07311 
L 189.616843 177.150015 
z
" style="stroke:#000000;"/>
    <path clip-path="url(#p7b74b5c9c6)" d="M 189.747236 180.227092 
L 188.237091 180.420605 
L 189.616843 177.150015 
z
" style="stroke:#000000;"/>
    <path clip-path="url(#p7b74b5c9c6)" d="M 186.076887 155.570121 
L 187.434915 157.483194 
L 184.905095 155.543465 
z
" style="stroke:#000000;"/>
    <path clip-path="url(#p7b74b5c9c6)" d="M 187.434915 157.483194 
L 186.076887 163.388078 
L 184.905095 163.371917 
z
" style="stroke:#000000;"/>
    <path clip-path="url(#p7b74b5c9c6)" d="M 188.237091 180.420605 
L 186.928559 177.151328 
L 188.098544 177.149014 
z
" style="stroke:#000000;"/>
    <path clip-path="url(#p7b74b5c9c6)" d="M 188.098544 177.149014 
L 187.06723 173.875524 
L 188.237091 173.877606 
z
" style="stroke:#000000;"/>
    <path clip-path="url(#p7b74b5c9c6)" d="M 188.651314 183.657567 
L 190.137043 183.271531 
L 189.336928 186.825421 
z
" style="stroke:#000000;"/>
    <path clip-path="url(#p7b74b5c9c6)" d="M 190.137043 171.029185 
L 188.651314 170.64119 
L 189.336928 167.47424 
z
" style="stroke:#000000;"/>
    <path clip-path="url(#p7b74b5c9c6)" d="M 190.137043 183.271531 
L 188.651314 183.657567 
L 189.747236 180.227092 
z
" style="stroke:#000000;"/>
    <path clip-path="url(#p7b74b5c9c6)" d="M 188.651314 170.64119 
L 190.137043 171.029185 
L 189.747236 174.07311 
z
" style="stroke:#000000;"/>
    <path clip-path="url(#p7b74b5c9c6)" d="M 188.651314 183.657567 
L 187.06723 180.427314 
L 188.237091 180.420605 
z
" style="stroke:#000000;"/>
    <path clip-path="url(#p7b74b5c9c6)" d="M 188.237091 173.877606 
L 187.481824 170.634759 
L 188.651314 170.64119 
z
" style="stroke:#000000;"/>
    <path clip-path="url(#p7b74b5c9c6)" d="M 189.336928 186.825421 
L 187.481824 183.668627 
L 188.651314 183.657567 
z
" style="stroke:#000000;"/>
    <path clip-path="url(#p7b74b5c9c6)" d="M 190.78224 186.250875 
L 189.336928 186.825421 
L 190.137043 183.271531 
z
" style="stroke:#000000;"/>
    <path clip-path="url(#p7b74b5c9c6)" d="M 189.336928 167.47424 
L 190.78224 168.050692 
L 190.137043 171.029185 
z
" style="stroke:#000000;"/>
    <path clip-path="url(#p7b74b5c9c6)" d="M 189.336928 186.825421 
L 190.78224 186.250875 
L 190.286832 189.890351 
z
" style="stroke:#000000;"/>
    <path clip-path="url(#p7b74b5c9c6)" d="M 190.78224 168.050692 
L 189.336928 167.47424 
L 190.286832 164.410563 
z
" style="stroke:#000000;"/>
    <path clip-path="url(#p7b74b5c9c6)" d="M 188.651314 170.64119 
L 188.168052 167.463551 
L 189.336928 167.47424 
z
" style="stroke:#000000;"/>
    <path clip-path="url(#p7b74b5c9c6)" d="M 184.905095 153.977775 
L 184.905095 155.543465 
L 187.434915 157.483194 
z
" style="stroke:#000000;"/>
    <path clip-path="url(#p7b74b5c9c6)" d="M 187.06723 173.875524 
L 188.098544 177.149014 
L 186.928559 177.151328 
z
" style="stroke:#000000;"/>
    <path clip-path="url(#p7b74b5c9c6)" d="M 186.928559 177.151328 
L 188.237091 180.420605 
L 187.06723 180.427314 
z
" style="stroke:#000000;"/>
    <path clip-path="url(#p7b74b5c9c6)" d="M 187.481824 170.634759 
L 188.237091 173.877606 
L 187.06723 173.875524 
z
" style="stroke:#000000;"/>
    <path clip-path="url(#p7b74b5c9c6)" d="M 190.286832 189.890351 
L 188.168052 186.840741 
L 189.336928 186.825421 
z
" style="stroke:#000000;"/>
    <path clip-path="url(#p7b74b5c9c6)" d="M 189.747236 174.07311 
L 188.448218 177.152331 
L 189.616843 177.150015 
z
" style="stroke:#000000;"/>
    <path clip-path="url(#p7b74b5c9c6)" d="M 184.905095 163.371917 
L 184.905095 166.503297 
L 188.701666 157.082497 
z
" style="stroke:#000000;"/>
    <path clip-path="url(#p7b74b5c9c6)" d="M 187.06723 180.427314 
L 188.651314 183.657567 
L 187.481824 183.668627 
z
" style="stroke:#000000;"/>
    <path clip-path="url(#p7b74b5c9c6)" d="M 189.616843 177.150015 
L 188.578728 180.233544 
L 189.747236 180.227092 
z
" style="stroke:#000000;"/>
    <path clip-path="url(#p7b74b5c9c6)" d="M 191.676125 189.133255 
L 190.286832 189.890351 
L 190.78224 186.250875 
z
" style="stroke:#000000;"/>
    <path clip-path="url(#p7b74b5c9c6)" d="M 190.286832 164.410563 
L 191.676125 165.169491 
L 190.78224 168.050692 
z
" style="stroke:#000000;"/>
    <path clip-path="url(#p7b74b5c9c6)" d="M 189.870064 157.107126 
L 184.905095 153.977775 
L 188.701666 157.082497 
z
" style="stroke:#000000;"/>
    <path clip-path="url(#p7b74b5c9c6)" d="M 184.905095 166.503297 
L 189.870064 157.107126 
L 188.701666 157.082497 
z
" style="stroke:#000000;"/>
    <path clip-path="url(#p7b74b5c9c6)" d="M 190.137043 171.029185 
L 188.578728 174.07129 
L 189.747236 174.07311 
z
" style="stroke:#000000;"/>
    <path clip-path="url(#p7b74b5c9c6)" d="M 189.336928 167.47424 
L 189.118807 164.39575 
L 190.286832 164.410563 
z
" style="stroke:#000000;"/>
    <path clip-path="url(#p7b74b5c9c6)" d="M 190.286832 189.890351 
L 191.676125 189.133255 
L 191.491205 192.819601 
z
" style="stroke:#000000;"/>
    <path clip-path="url(#p7b74b5c9c6)" d="M 191.676125 165.169491 
L 190.286832 164.410563 
L 191.491205 161.482901 
z
" style="stroke:#000000;"/>
    <path clip-path="url(#p7b74b5c9c6)" d="M 189.747236 180.227092 
L 188.968884 183.282078 
L 190.137043 183.271531 
z
" style="stroke:#000000;"/>
    <path clip-path="url(#p7b74b5c9c6)" d="M 188.168052 167.463551 
L 188.651314 170.64119 
L 187.481824 170.634759 
z
" style="stroke:#000000;"/>
    <path clip-path="url(#p7b74b5c9c6)" d="M 187.481824 183.668627 
L 189.336928 186.825421 
L 188.168052 186.840741 
z
" style="stroke:#000000;"/>
    <path clip-path="url(#p7b74b5c9c6)" d="M 190.78224 168.050692 
L 188.968884 171.023272 
L 190.137043 171.029185 
z
" style="stroke:#000000;"/>
    <path clip-path="url(#p7b74b5c9c6)" d="M 184.905095 153.977775 
L 187.434915 157.483194 
L 188.701666 157.082497 
z
" style="stroke:#000000;"/>
    <path clip-path="url(#p7b74b5c9c6)" d="M 184.905095 163.371917 
L 188.701666 157.082497 
L 187.434915 157.483194 
z
" style="stroke:#000000;"/>
    <path clip-path="url(#p7b74b5c9c6)" d="M 190.137043 183.271531 
L 189.614661 186.265431 
L 190.78224 186.250875 
z
" style="stroke:#000000;"/>
    <path clip-path="url(#p7b74b5c9c6)" d="M 191.491205 192.819601 
L 189.118807 189.909798 
L 190.286832 189.890351 
z
" style="stroke:#000000;"/>
    <path clip-path="url(#p7b74b5c9c6)" d="M 192.809399 191.887792 
L 191.491205 192.819601 
L 191.676125 189.133255 
z
" style="stroke:#000000;"/>
    <path clip-path="url(#p7b74b5c9c6)" d="M 191.491205 161.482901 
L 192.809399 162.416448 
L 191.676125 165.169491 
z
" style="stroke:#000000;"/>
    <path clip-path="url(#p7b74b5c9c6)" d="M 189.118807 164.39575 
L 189.336928 167.47424 
L 188.168052 167.463551 
z
" style="stroke:#000000;"/>
    <path clip-path="url(#p7b74b5c9c6)" d="M 188.578728 180.233544 
L 189.616843 177.150015 
L 188.448218 177.152331 
z
" style="stroke:#000000;"/>
    <path clip-path="url(#p7b74b5c9c6)" d="M 188.448218 177.152331 
L 189.747236 174.07311 
L 188.578728 174.07129 
z
" style="stroke:#000000;"/>
    <path clip-path="url(#p7b74b5c9c6)" d="M 186.928559 177.151328 
L 188.448218 177.152331 
L 187.06723 173.875524 
z
" style="stroke:#000000;"/>
    <path clip-path="url(#p7b74b5c9c6)" d="M 188.448218 177.152331 
L 186.928559 177.151328 
L 187.06723 180.427314 
z
" style="stroke:#000000;"/>
    <path clip-path="url(#p7b74b5c9c6)" d="M 188.968884 183.282078 
L 189.747236 180.227092 
L 188.578728 180.233544 
z
" style="stroke:#000000;"/>
    <path clip-path="url(#p7b74b5c9c6)" d="M 191.676125 165.169491 
L 189.614661 168.040772 
L 190.78224 168.050692 
z
" style="stroke:#000000;"/>
    <path clip-path="url(#p7b74b5c9c6)" d="M 190.286832 164.410563 
L 190.324262 161.464143 
L 191.491205 161.482901 
z
" style="stroke:#000000;"/>
    <path clip-path="url(#p7b74b5c9c6)" d="M 188.168052 186.840741 
L 190.286832 189.890351 
L 189.118807 189.909798 
z
" style="stroke:#000000;"/>
    <path clip-path="url(#p7b74b5c9c6)" d="M 188.578728 174.07129 
L 190.137043 171.029185 
L 188.968884 171.023272 
z
" style="stroke:#000000;"/>
    <path clip-path="url(#p7b74b5c9c6)" d="M 187.06723 173.875524 
L 188.578728 174.07129 
L 187.481824 170.634759 
z
" style="stroke:#000000;"/>
    <path clip-path="url(#p7b74b5c9c6)" d="M 188.578728 180.233544 
L 187.06723 180.427314 
L 187.481824 183.668627 
z
" style="stroke:#000000;"/>
    <path clip-path="url(#p7b74b5c9c6)" d="M 191.491205 192.819601 
L 192.809399 191.887792 
L 192.937511 195.581601 
z
" style="stroke:#000000;"/>
    <path clip-path="url(#p7b74b5c9c6)" d="M 192.809399 162.416448 
L 191.491205 161.482901 
L 192.937511 158.722808 
z
" style="stroke:#000000;"/>
    <path clip-path="url(#p7b74b5c9c6)" d="M 190.78224 186.250875 
L 190.509348 189.151694 
L 191.676125 189.133255 
z
" style="stroke:#000000;"/>
    <path clip-path="url(#p7b74b5c9c6)" d="M 189.614661 186.265431 
L 190.137043 183.271531 
L 188.968884 183.282078 
z
" style="stroke:#000000;"/>
    <path clip-path="url(#p7b74b5c9c6)" d="M 187.06723 180.427314 
L 188.578728 180.233544 
L 188.448218 177.152331 
z
" style="stroke:#000000;"/>
    <path clip-path="url(#p7b74b5c9c6)" d="M 188.578728 174.07129 
L 187.06723 173.875524 
L 188.448218 177.152331 
z
" style="stroke:#000000;"/>
    <path clip-path="url(#p7b74b5c9c6)" d="M 187.481824 170.634759 
L 188.968884 171.023272 
L 188.168052 167.463551 
z
" style="stroke:#000000;"/>
    <path clip-path="url(#p7b74b5c9c6)" d="M 188.968884 183.282078 
L 187.481824 183.668627 
L 188.168052 186.840741 
z
" style="stroke:#000000;"/>
    <path clip-path="url(#p7b74b5c9c6)" d="M 188.968884 171.023272 
L 190.78224 168.050692 
L 189.614661 168.040772 
z
" style="stroke:#000000;"/>
    <path clip-path="url(#p7b74b5c9c6)" d="M 188.968884 171.023272 
L 187.481824 170.634759 
L 188.578728 174.07129 
z
" style="stroke:#000000;"/>
    <path clip-path="url(#p7b74b5c9c6)" d="M 187.481824 183.668627 
L 188.968884 183.282078 
L 188.578728 180.233544 
z
" style="stroke:#000000;"/>
    <path clip-path="url(#p7b74b5c9c6)" d="M 190.324262 161.464143 
L 190.286832 164.410563 
L 189.118807 164.39575 
z
" style="stroke:#000000;"/>
    <path clip-path="url(#p7b74b5c9c6)" d="M 192.937511 195.581601 
L 190.324262 192.842997 
L 191.491205 192.819601 
z
" style="stroke:#000000;"/>
    <path clip-path="url(#p7b74b5c9c6)" d="M 192.809399 162.416448 
L 190.509348 165.155691 
L 191.676125 165.169491 
z
" style="stroke:#000000;"/>
    <path clip-path="url(#p7b74b5c9c6)" d="M 192.937511 195.581601 
L 192.809399 191.887792 
L 194.170255 194.484906 
z
" style="stroke:#000000;"/>
    <path clip-path="url(#p7b74b5c9c6)" d="M 192.809399 162.416448 
L 192.937511 158.722808 
L 194.170255 159.821128 
z
" style="stroke:#000000;"/>
    <path clip-path="url(#p7b74b5c9c6)" d="M 190.509348 189.151694 
L 190.78224 186.250875 
L 189.614661 186.265431 
z
" style="stroke:#000000;"/>
    <path clip-path="url(#p7b74b5c9c6)" d="M 189.118807 189.909798 
L 191.491205 192.819601 
L 190.324262 192.842997 
z
" style="stroke:#000000;"/>
    <path clip-path="url(#p7b74b5c9c6)" d="M 189.614661 168.040772 
L 188.168052 167.463551 
L 188.968884 171.023272 
z
" style="stroke:#000000;"/>
    <path clip-path="url(#p7b74b5c9c6)" d="M 188.168052 186.840741 
L 189.614661 186.265431 
L 188.968884 183.282078 
z
" style="stroke:#000000;"/>
    <path clip-path="url(#p7b74b5c9c6)" d="M 191.676125 189.133255 
L 191.643641 191.909946 
L 192.809399 191.887792 
z
" style="stroke:#000000;"/>
    <path clip-path="url(#p7b74b5c9c6)" d="M 191.491205 161.482901 
L 191.771869 158.700325 
L 192.937511 158.722808 
z
" style="stroke:#000000;"/>
    <path clip-path="url(#p7b74b5c9c6)" d="M 188.168052 167.463551 
L 189.614661 168.040772 
L 189.118807 164.39575 
z
" style="stroke:#000000;"/>
    <path clip-path="url(#p7b74b5c9c6)" d="M 189.614661 186.265431 
L 188.168052 186.840741 
L 189.118807 189.909798 
z
" style="stroke:#000000;"/>
    <path clip-path="url(#p7b74b5c9c6)" d="M 189.614661 168.040772 
L 191.676125 165.169491 
L 190.509348 165.155691 
z
" style="stroke:#000000;"/>
    <path clip-path="url(#p7b74b5c9c6)" d="M 192.937511 195.581601 
L 194.170255 194.484906 
L 194.61068 198.146706 
z
" style="stroke:#000000;"/>
    <path clip-path="url(#p7b74b5c9c6)" d="M 194.170255 159.821128 
L 192.937511 158.722808 
L 194.61068 156.159909 
z
" style="stroke:#000000;"/>
    <path clip-path="url(#p7b74b5c9c6)" d="M 191.771869 158.700325 
L 191.491205 161.482901 
L 190.324262 161.464143 
z
" style="stroke:#000000;"/>
    <path clip-path="url(#p7b74b5c9c6)" d="M 191.643641 191.909946 
L 191.676125 189.133255 
L 190.509348 189.151694 
z
" style="stroke:#000000;"/>
    <path clip-path="url(#p7b74b5c9c6)" d="M 190.509348 165.155691 
L 189.118807 164.39575 
L 189.614661 168.040772 
z
" style="stroke:#000000;"/>
    <path clip-path="url(#p7b74b5c9c6)" d="M 189.118807 189.909798 
L 190.509348 189.151694 
L 189.614661 186.265431 
z
" style="stroke:#000000;"/>
    <path clip-path="url(#p7b74b5c9c6)" d="M 194.170255 159.821128 
L 191.643641 162.398937 
L 192.809399 162.416448 
z
" style="stroke:#000000;"/>
    <path clip-path="url(#p7b74b5c9c6)" d="M 189.118807 164.39575 
L 190.509348 165.155691 
L 190.324262 161.464143 
z
" style="stroke:#000000;"/>
    <path clip-path="url(#p7b74b5c9c6)" d="M 190.509348 189.151694 
L 189.118807 189.909798 
L 190.324262 192.842997 
z
" style="stroke:#000000;"/>
    <path clip-path="url(#p7b74b5c9c6)" d="M 194.61068 198.146706 
L 191.771869 195.608728 
L 192.937511 195.581601 
z
" style="stroke:#000000;"/>
    <path clip-path="url(#p7b74b5c9c6)" d="M 190.509348 165.155691 
L 192.809399 162.416448 
L 191.643641 162.398937 
z
" style="stroke:#000000;"/>
    <path clip-path="url(#p7b74b5c9c6)" d="M 190.324262 192.842997 
L 192.937511 195.581601 
L 191.771869 195.608728 
z
" style="stroke:#000000;"/>
    <path clip-path="url(#p7b74b5c9c6)" d="M 194.61068 198.146706 
L 194.170255 194.484906 
L 195.744464 196.896392 
z
" style="stroke:#000000;"/>
    <path clip-path="url(#p7b74b5c9c6)" d="M 194.170255 159.821128 
L 194.61068 156.159909 
L 195.744464 157.411718 
z
" style="stroke:#000000;"/>
    <path clip-path="url(#p7b74b5c9c6)" d="M 192.809399 191.887792 
L 193.005722 194.510569 
L 194.170255 194.484906 
z
" style="stroke:#000000;"/>
    <path clip-path="url(#p7b74b5c9c6)" d="M 192.937511 158.722808 
L 193.446545 156.133959 
L 194.61068 156.159909 
z
" style="stroke:#000000;"/>
    <path clip-path="url(#p7b74b5c9c6)" d="M 194.61068 198.146706 
L 196.216587 198.904284 
L 195.551613 199.316379 
z
" style="stroke:#000000;"/>
    <path clip-path="url(#p7b74b5c9c6)" d="M 196.216587 155.404448 
L 194.61068 156.159909 
L 195.551613 154.991477 
z
" style="stroke:#000000;"/>
    <path clip-path="url(#p7b74b5c9c6)" d="M 191.643641 162.398937 
L 190.324262 161.464143 
L 190.509348 165.155691 
z
" style="stroke:#000000;"/>
    <path clip-path="url(#p7b74b5c9c6)" d="M 190.324262 192.842997 
L 191.643641 191.909946 
L 190.509348 189.151694 
z
" style="stroke:#000000;"/>
    <path clip-path="url(#p7b74b5c9c6)" d="M 196.216587 198.904284 
L 194.61068 198.146706 
L 195.744464 196.896392 
z
" style="stroke:#000000;"/>
    <path clip-path="url(#p7b74b5c9c6)" d="M 194.61068 156.159909 
L 196.216587 155.404448 
L 195.744464 157.411718 
z
" style="stroke:#000000;"/>
    <path clip-path="url(#p7b74b5c9c6)" d="M 193.005722 194.510569 
L 192.809399 191.887792 
L 191.643641 191.909946 
z
" style="stroke:#000000;"/>
    <path clip-path="url(#p7b74b5c9c6)" d="M 193.446545 156.133959 
L 192.937511 158.722808 
L 191.771869 158.700325 
z
" style="stroke:#000000;"/>
    <path clip-path="url(#p7b74b5c9c6)" d="M 195.744464 157.411718 
L 193.005722 159.800114 
L 194.170255 159.821128 
z
" style="stroke:#000000;"/>
    <path clip-path="url(#p7b74b5c9c6)" d="M 190.324262 161.464143 
L 191.643641 162.398937 
L 191.771869 158.700325 
z
" style="stroke:#000000;"/>
    <path clip-path="url(#p7b74b5c9c6)" d="M 191.643641 191.909946 
L 190.324262 192.842997 
L 191.771869 195.608728 
z
" style="stroke:#000000;"/>
    <path clip-path="url(#p7b74b5c9c6)" d="M 191.643641 162.398937 
L 194.170255 159.821128 
L 193.005722 159.800114 
z
" style="stroke:#000000;"/>
    <path clip-path="url(#p7b74b5c9c6)" d="M 195.551613 199.316379 
L 193.446545 198.177305 
L 194.61068 198.146706 
z
" style="stroke:#000000;"/>
    <path clip-path="url(#p7b74b5c9c6)" d="M 196.216587 198.904284 
L 195.744464 196.896392 
L 196.915365 198.350717 
z
" style="stroke:#000000;"/>
    <path clip-path="url(#p7b74b5c9c6)" d="M 195.744464 157.411718 
L 196.216587 155.404448 
L 196.915365 155.958937 
z
" style="stroke:#000000;"/>
    <path clip-path="url(#p7b74b5c9c6)" d="M 194.170255 194.484906 
L 194.581352 196.925319 
L 195.744464 196.896392 
z
" style="stroke:#000000;"/>
    <path clip-path="url(#p7b74b5c9c6)" d="M 191.771869 195.608728 
L 194.61068 198.146706 
L 193.446545 198.177305 
z
" style="stroke:#000000;"/>
    <path clip-path="url(#p7b74b5c9c6)" d="M 194.61068 156.159909 
L 194.388326 154.963944 
L 195.551613 154.991477 
z
" style="stroke:#000000;"/>
    <path clip-path="url(#p7b74b5c9c6)" d="M 191.771869 158.700325 
L 191.643641 162.398937 
L 193.005722 159.800114 
z
" style="stroke:#000000;"/>
    <path clip-path="url(#p7b74b5c9c6)" d="M 191.643641 191.909946 
L 191.771869 195.608728 
L 193.005722 194.510569 
z
" style="stroke:#000000;"/>
    <path clip-path="url(#p7b74b5c9c6)" d="M 194.388326 154.963944 
L 196.216587 155.404448 
L 195.551613 154.991477 
z
" style="stroke:#000000;"/>
    <path clip-path="url(#p7b74b5c9c6)" d="M 194.581352 196.925319 
L 194.170255 194.484906 
L 193.005722 194.510569 
z
" style="stroke:#000000;"/>
    <path clip-path="url(#p7b74b5c9c6)" d="M 195.053901 198.935923 
L 195.551613 199.316379 
L 196.216587 198.904284 
z
" style="stroke:#000000;"/>
    <path clip-path="url(#p7b74b5c9c6)" d="M 194.388326 154.963944 
L 194.61068 156.159909 
L 193.446545 156.133959 
z
" style="stroke:#000000;"/>
    <path clip-path="url(#p7b74b5c9c6)" d="M 194.581352 196.925319 
L 196.915365 198.350717 
L 195.744464 196.896392 
z
" style="stroke:#000000;"/>
    <path clip-path="url(#p7b74b5c9c6)" d="M 191.771869 158.700325 
L 193.005722 159.800114 
L 193.446545 156.133959 
z
" style="stroke:#000000;"/>
    <path clip-path="url(#p7b74b5c9c6)" d="M 193.005722 194.510569 
L 191.771869 195.608728 
L 193.446545 198.177305 
z
" style="stroke:#000000;"/>
    <path clip-path="url(#p7b74b5c9c6)" d="M 193.005722 159.800114 
L 195.744464 157.411718 
L 194.581352 157.387444 
z
" style="stroke:#000000;"/>
    <path clip-path="url(#p7b74b5c9c6)" d="M 193.446545 198.177305 
L 195.551613 199.316379 
L 194.388326 199.348565 
z
" style="stroke:#000000;"/>
    <path clip-path="url(#p7b74b5c9c6)" d="M 195.053901 155.377465 
L 196.915365 155.958937 
L 196.216587 155.404448 
z
" style="stroke:#000000;"/>
    <path clip-path="url(#p7b74b5c9c6)" d="M 195.75331 155.932694 
L 195.744464 157.411718 
L 196.915365 155.958937 
z
" style="stroke:#000000;"/>
    <path clip-path="url(#p7b74b5c9c6)" d="M 195.75331 198.381618 
L 196.216587 198.904284 
L 196.915365 198.350717 
z
" style="stroke:#000000;"/>
    <path clip-path="url(#p7b74b5c9c6)" d="M 195.551613 199.316379 
L 195.053901 198.935923 
L 194.388326 199.348565 
z
" style="stroke:#000000;"/>
    <path clip-path="url(#p7b74b5c9c6)" d="M 196.216587 155.404448 
L 194.388326 154.963944 
L 195.053901 155.377465 
z
" style="stroke:#000000;"/>
    <path clip-path="url(#p7b74b5c9c6)" d="M 193.446545 156.133959 
L 193.005722 159.800114 
L 194.581352 157.387444 
z
" style="stroke:#000000;"/>
    <path clip-path="url(#p7b74b5c9c6)" d="M 193.005722 194.510569 
L 193.446545 198.177305 
L 194.581352 196.925319 
z
" style="stroke:#000000;"/>
    <path clip-path="url(#p7b74b5c9c6)" d="M 195.744464 157.411718 
L 195.75331 155.932694 
L 194.581352 157.387444 
z
" style="stroke:#000000;"/>
    <path clip-path="url(#p7b74b5c9c6)" d="M 196.216587 198.904284 
L 195.75331 198.381618 
L 195.053901 198.935923 
z
" style="stroke:#000000;"/>
    <path clip-path="url(#p7b74b5c9c6)" d="M 196.915365 198.350717 
L 194.581352 196.925319 
L 195.75331 198.381618 
z
" style="stroke:#000000;"/>
    <path clip-path="url(#p7b74b5c9c6)" d="M 193.446545 156.133959 
L 195.053901 155.377465 
L 194.388326 154.963944 
z
" style="stroke:#000000;"/>
    <path clip-path="url(#p7b74b5c9c6)" d="M 195.053901 198.935923 
L 193.446545 198.177305 
L 194.388326 199.348565 
z
" style="stroke:#000000;"/>
    <path clip-path="url(#p7b74b5c9c6)" d="M 196.915365 155.958937 
L 195.053901 155.377465 
L 195.75331 155.932694 
z
" style="stroke:#000000;"/>
    <path clip-path="url(#p7b74b5c9c6)" d="M 195.053901 155.377465 
L 193.446545 156.133959 
L 194.581352 157.387444 
z
" style="stroke:#000000;"/>
    <path clip-path="url(#p7b74b5c9c6)" d="M 193.446545 198.177305 
L 195.053901 198.935923 
L 194.581352 196.925319 
z
" style="stroke:#000000;"/>
    <path clip-path="url(#p7b74b5c9c6)" d="M 195.053901 155.377465 
L 194.581352 157.387444 
L 195.75331 155.932694 
z
" style="stroke:#000000;"/>
    <path clip-path="url(#p7b74b5c9c6)" d="M 194.581352 196.925319 
L 195.053901 198.935923 
L 195.75331 198.381618 
z
" style="stroke:#000000;"/>
   </g>
  </g>
 </g>
 <defs>
  <clipPath id="p7b74b5c9c6">
   <rect height="271.8" width="279" x="45" y="43.2"/>
  </clipPath>
 </defs>
</svg>
