<?xml version="1.0" encoding="utf-8" standalone="no"?>
<!DOCTYPE svg PUBLIC "-//W3C//DTD SVG 1.1//EN"
  "http://www.w3.org/Graphics/SVG/1.1/DTD/svg11.dtd">
<!-- Created with matplotlib (https://matplotlib.org/) -->
<svg height="360pt" version="1.1" viewBox="0 0 360 360" width="360pt" xmlns="http://www.w3.org/2000/svg" xmlns:xlink="http://www.w3.org/1999/xlink">
 <defs>
  <style type="text/css">
*{stroke-linecap:butt;stroke-linejoin:round;}
  </style>
 </defs>
 <g id="figure_1">
  <g id="patch_1">
   <path d="M 0 360 
L 360 360 
L 360 0 
L 0 0 
z
" style="fill:#ffffff;"/>
  </g>
  <g id="patch_2">
   <path d="M 45 315 
L 324 315 
L 324 43.2 
L 45 43.2 
z
" style="fill:#ffffff;"/>
  </g>
  <g id="axes_1">
   <g id="Poly3DCollection_1">
    <path clip-path="url(#pba80d3a5c9)" d="M 179.300414 196.680247 
L 178.975509 198.657162 
L 178.495178 198.093885 
z
" style="stroke:#000000;"/>
    <path clip-path="url(#pba80d3a5c9)" d="M 178.975509 155.615206 
L 179.300414 157.593089 
L 178.495178 156.177053 
z
" style="stroke:#000000;"/>
    <path clip-path="url(#pba80d3a5c9)" d="M 176.645314 156.159024 
L 178.975509 155.615206 
L 178.495178 156.177053 
z
" style="stroke:#000000;"/>
    <path clip-path="url(#pba80d3a5c9)" d="M 176.645314 198.115114 
L 179.300414 196.680247 
L 178.495178 198.093885 
z
" style="stroke:#000000;"/>
    <path clip-path="url(#pba80d3a5c9)" d="M 177.125321 198.678927 
L 178.495178 198.093885 
L 178.975509 198.657162 
z
" style="stroke:#000000;"/>
    <path clip-path="url(#pba80d3a5c9)" d="M 178.495178 198.093885 
L 177.125321 198.678927 
L 176.645314 198.115114 
z
" style="stroke:#000000;"/>
    <path clip-path="url(#pba80d3a5c9)" d="M 177.450005 157.576375 
L 178.495178 156.177053 
L 179.300414 157.593089 
z
" style="stroke:#000000;"/>
    <path clip-path="url(#pba80d3a5c9)" d="M 180.08189 197.943026 
L 178.975509 198.657162 
L 179.300414 196.680247 
z
" style="stroke:#000000;"/>
    <path clip-path="url(#pba80d3a5c9)" d="M 178.975509 155.615206 
L 180.08189 156.332637 
L 179.300414 157.593089 
z
" style="stroke:#000000;"/>
    <path clip-path="url(#pba80d3a5c9)" d="M 178.495178 156.177053 
L 177.450005 157.576375 
L 176.645314 156.159024 
z
" style="stroke:#000000;"/>
    <path clip-path="url(#pba80d3a5c9)" d="M 177.125321 155.596644 
L 179.433217 155.193384 
L 178.975509 155.615206 
z
" style="stroke:#000000;"/>
    <path clip-path="url(#pba80d3a5c9)" d="M 178.975509 198.657162 
L 180.08189 197.943026 
L 179.433217 199.080347 
z
" style="stroke:#000000;"/>
    <path clip-path="url(#pba80d3a5c9)" d="M 180.08189 156.332637 
L 178.975509 155.615206 
L 179.433217 155.193384 
z
" style="stroke:#000000;"/>
    <path clip-path="url(#pba80d3a5c9)" d="M 178.975509 155.615206 
L 176.645314 156.159024 
L 177.125321 155.596644 
z
" style="stroke:#000000;"/>
    <path clip-path="url(#pba80d3a5c9)" d="M 177.582718 199.102518 
L 178.975509 198.657162 
L 179.433217 199.080347 
z
" style="stroke:#000000;"/>
    <path clip-path="url(#pba80d3a5c9)" d="M 179.300414 196.680247 
L 176.645314 198.115114 
L 177.450005 196.700166 
z
" style="stroke:#000000;"/>
    <path clip-path="url(#pba80d3a5c9)" d="M 178.975509 198.657162 
L 177.582718 199.102518 
L 177.125321 198.678927 
z
" style="stroke:#000000;"/>
    <path clip-path="url(#pba80d3a5c9)" d="M 180.08189 197.943026 
L 179.300414 196.680247 
L 180.385928 194.322229 
z
" style="stroke:#000000;"/>
    <path clip-path="url(#pba80d3a5c9)" d="M 179.300414 157.593089 
L 180.08189 156.332637 
L 180.385928 159.954339 
z
" style="stroke:#000000;"/>
    <path clip-path="url(#pba80d3a5c9)" d="M 179.433217 155.193384 
L 177.125321 155.596644 
L 177.582718 155.174419 
z
" style="stroke:#000000;"/>
    <path clip-path="url(#pba80d3a5c9)" d="M 177.450005 157.576375 
L 177.125321 155.596644 
L 176.645314 156.159024 
z
" style="stroke:#000000;"/>
    <path clip-path="url(#pba80d3a5c9)" d="M 177.125321 198.678927 
L 177.450005 196.700166 
L 176.645314 198.115114 
z
" style="stroke:#000000;"/>
    <path clip-path="url(#pba80d3a5c9)" d="M 180.08189 197.943026 
L 177.582718 199.102518 
L 179.433217 199.080347 
z
" style="stroke:#000000;"/>
    <path clip-path="url(#pba80d3a5c9)" d="M 180.385928 159.954339 
L 177.450005 157.576375 
L 179.300414 157.593089 
z
" style="stroke:#000000;"/>
    <path clip-path="url(#pba80d3a5c9)" d="M 179.433217 155.193384 
L 178.230954 156.314729 
L 180.08189 156.332637 
z
" style="stroke:#000000;"/>
    <path clip-path="url(#pba80d3a5c9)" d="M 178.230954 156.314729 
L 179.433217 155.193384 
L 177.582718 155.174419 
z
" style="stroke:#000000;"/>
    <path clip-path="url(#pba80d3a5c9)" d="M 178.534787 194.339955 
L 179.300414 196.680247 
L 177.450005 196.700166 
z
" style="stroke:#000000;"/>
    <path clip-path="url(#pba80d3a5c9)" d="M 179.300414 196.680247 
L 178.534787 194.339955 
L 180.385928 194.322229 
z
" style="stroke:#000000;"/>
    <path clip-path="url(#pba80d3a5c9)" d="M 178.230954 156.314729 
L 177.125321 155.596644 
L 177.450005 157.576375 
z
" style="stroke:#000000;"/>
    <path clip-path="url(#pba80d3a5c9)" d="M 177.125321 198.678927 
L 178.230954 197.964143 
L 177.450005 196.700166 
z
" style="stroke:#000000;"/>
    <path clip-path="url(#pba80d3a5c9)" d="M 180.08189 197.943026 
L 180.385928 194.322229 
L 181.238329 195.433804 
z
" style="stroke:#000000;"/>
    <path clip-path="url(#pba80d3a5c9)" d="M 180.385928 159.954339 
L 180.08189 156.332637 
L 181.238329 158.845303 
z
" style="stroke:#000000;"/>
    <path clip-path="url(#pba80d3a5c9)" d="M 177.125321 155.596644 
L 178.230954 156.314729 
L 177.582718 155.174419 
z
" style="stroke:#000000;"/>
    <path clip-path="url(#pba80d3a5c9)" d="M 178.230954 197.964143 
L 177.125321 198.678927 
L 177.582718 199.102518 
z
" style="stroke:#000000;"/>
    <path clip-path="url(#pba80d3a5c9)" d="M 177.582718 199.102518 
L 180.08189 197.943026 
L 178.230954 197.964143 
z
" style="stroke:#000000;"/>
    <path clip-path="url(#pba80d3a5c9)" d="M 177.450005 157.576375 
L 180.385928 159.954339 
L 178.534787 159.939824 
z
" style="stroke:#000000;"/>
    <path clip-path="url(#pba80d3a5c9)" d="M 181.238329 195.433804 
L 178.230954 197.964143 
L 180.08189 197.943026 
z
" style="stroke:#000000;"/>
    <path clip-path="url(#pba80d3a5c9)" d="M 181.238329 195.433804 
L 180.385928 194.322229 
L 181.327033 191.769142 
z
" style="stroke:#000000;"/>
    <path clip-path="url(#pba80d3a5c9)" d="M 180.385928 159.954339 
L 181.238329 158.845303 
L 181.327033 162.510228 
z
" style="stroke:#000000;"/>
    <path clip-path="url(#pba80d3a5c9)" d="M 178.230954 156.314729 
L 177.450005 157.576375 
L 178.534787 159.939824 
z
" style="stroke:#000000;"/>
    <path clip-path="url(#pba80d3a5c9)" d="M 177.450005 196.700166 
L 178.230954 197.964143 
L 178.534787 194.339955 
z
" style="stroke:#000000;"/>
    <path clip-path="url(#pba80d3a5c9)" d="M 181.327033 162.510228 
L 178.534787 159.939824 
L 180.385928 159.954339 
z
" style="stroke:#000000;"/>
    <path clip-path="url(#pba80d3a5c9)" d="M 179.386614 158.829736 
L 180.08189 156.332637 
L 178.230954 156.314729 
z
" style="stroke:#000000;"/>
    <path clip-path="url(#pba80d3a5c9)" d="M 180.08189 156.332637 
L 179.386614 158.829736 
L 181.238329 158.845303 
z
" style="stroke:#000000;"/>
    <path clip-path="url(#pba80d3a5c9)" d="M 180.385928 194.322229 
L 179.475259 191.784485 
L 181.327033 191.769142 
z
" style="stroke:#000000;"/>
    <path clip-path="url(#pba80d3a5c9)" d="M 179.475259 191.784485 
L 180.385928 194.322229 
L 178.534787 194.339955 
z
" style="stroke:#000000;"/>
    <path clip-path="url(#pba80d3a5c9)" d="M 178.230954 197.964143 
L 181.238329 195.433804 
L 179.386614 195.452586 
z
" style="stroke:#000000;"/>
    <path clip-path="url(#pba80d3a5c9)" d="M 181.238329 195.433804 
L 181.327033 191.769142 
L 182.241041 192.716665 
z
" style="stroke:#000000;"/>
    <path clip-path="url(#pba80d3a5c9)" d="M 181.327033 162.510228 
L 181.238329 158.845303 
L 182.241041 161.565427 
z
" style="stroke:#000000;"/>
    <path clip-path="url(#pba80d3a5c9)" d="M 178.230954 156.314729 
L 178.534787 159.939824 
L 179.386614 158.829736 
z
" style="stroke:#000000;"/>
    <path clip-path="url(#pba80d3a5c9)" d="M 178.534787 194.339955 
L 178.230954 197.964143 
L 179.386614 195.452586 
z
" style="stroke:#000000;"/>
    <path clip-path="url(#pba80d3a5c9)" d="M 178.534787 159.939824 
L 181.327033 162.510228 
L 179.475259 162.498101 
z
" style="stroke:#000000;"/>
    <path clip-path="url(#pba80d3a5c9)" d="M 182.241041 192.716665 
L 181.327033 191.769142 
L 182.112679 189.049654 
z
" style="stroke:#000000;"/>
    <path clip-path="url(#pba80d3a5c9)" d="M 181.327033 162.510228 
L 182.241041 161.565427 
L 182.112679 165.232056 
z
" style="stroke:#000000;"/>
    <path clip-path="url(#pba80d3a5c9)" d="M 182.241041 192.716665 
L 179.386614 195.452586 
L 181.238329 195.433804 
z
" style="stroke:#000000;"/>
    <path clip-path="url(#pba80d3a5c9)" d="M 182.112679 165.232056 
L 179.475259 162.498101 
L 181.327033 162.510228 
z
" style="stroke:#000000;"/>
    <path clip-path="url(#pba80d3a5c9)" d="M 179.386614 158.829736 
L 178.534787 159.939824 
L 179.475259 162.498101 
z
" style="stroke:#000000;"/>
    <path clip-path="url(#pba80d3a5c9)" d="M 178.534787 194.339955 
L 179.386614 195.452586 
L 179.475259 191.784485 
z
" style="stroke:#000000;"/>
    <path clip-path="url(#pba80d3a5c9)" d="M 181.327033 191.769142 
L 180.260376 189.062452 
L 182.112679 189.049654 
z
" style="stroke:#000000;"/>
    <path clip-path="url(#pba80d3a5c9)" d="M 181.238329 158.845303 
L 180.388653 161.552403 
L 182.241041 161.565427 
z
" style="stroke:#000000;"/>
    <path clip-path="url(#pba80d3a5c9)" d="M 180.388653 161.552403 
L 181.238329 158.845303 
L 179.386614 158.829736 
z
" style="stroke:#000000;"/>
    <path clip-path="url(#pba80d3a5c9)" d="M 180.260376 189.062452 
L 181.327033 191.769142 
L 179.475259 191.784485 
z
" style="stroke:#000000;"/>
    <path clip-path="url(#pba80d3a5c9)" d="M 182.112679 189.049654 
L 183.078208 189.821836 
L 182.241041 192.716665 
z
" style="stroke:#000000;"/>
    <path clip-path="url(#pba80d3a5c9)" d="M 183.078208 164.462749 
L 182.112679 165.232056 
L 182.241041 161.565427 
z
" style="stroke:#000000;"/>
    <path clip-path="url(#pba80d3a5c9)" d="M 179.475259 162.498101 
L 182.112679 165.232056 
L 180.260376 165.222478 
z
" style="stroke:#000000;"/>
    <path clip-path="url(#pba80d3a5c9)" d="M 179.386614 195.452586 
L 182.241041 192.716665 
L 180.388653 192.732911 
z
" style="stroke:#000000;"/>
    <path clip-path="url(#pba80d3a5c9)" d="M 183.078208 189.821836 
L 182.112679 189.049654 
L 182.733606 186.194338 
z
" style="stroke:#000000;"/>
    <path clip-path="url(#pba80d3a5c9)" d="M 182.112679 165.232056 
L 183.078208 164.462749 
L 182.733606 168.089221 
z
" style="stroke:#000000;"/>
    <path clip-path="url(#pba80d3a5c9)" d="M 182.733606 168.089221 
L 180.260376 165.222478 
L 182.112679 165.232056 
z
" style="stroke:#000000;"/>
    <path clip-path="url(#pba80d3a5c9)" d="M 179.386614 158.829736 
L 179.475259 162.498101 
L 180.388653 161.552403 
z
" style="stroke:#000000;"/>
    <path clip-path="url(#pba80d3a5c9)" d="M 179.475259 191.784485 
L 179.386614 195.452586 
L 180.388653 192.732911 
z
" style="stroke:#000000;"/>
    <path clip-path="url(#pba80d3a5c9)" d="M 183.078208 189.821836 
L 180.388653 192.732911 
L 182.241041 192.716665 
z
" style="stroke:#000000;"/>
    <path clip-path="url(#pba80d3a5c9)" d="M 182.112679 189.049654 
L 180.880887 186.20446 
L 182.733606 186.194338 
z
" style="stroke:#000000;"/>
    <path clip-path="url(#pba80d3a5c9)" d="M 180.388653 161.552403 
L 179.475259 162.498101 
L 180.260376 165.222478 
z
" style="stroke:#000000;"/>
    <path clip-path="url(#pba80d3a5c9)" d="M 179.475259 191.784485 
L 180.388653 192.732911 
L 180.260376 189.062452 
z
" style="stroke:#000000;"/>
    <path clip-path="url(#pba80d3a5c9)" d="M 180.880887 186.20446 
L 182.112679 189.049654 
L 180.260376 189.062452 
z
" style="stroke:#000000;"/>
    <path clip-path="url(#pba80d3a5c9)" d="M 182.241041 161.565427 
L 181.225258 164.452439 
L 183.078208 164.462749 
z
" style="stroke:#000000;"/>
    <path clip-path="url(#pba80d3a5c9)" d="M 182.733606 186.194338 
L 183.739895 186.782067 
L 183.078208 189.821836 
z
" style="stroke:#000000;"/>
    <path clip-path="url(#pba80d3a5c9)" d="M 183.739895 167.504489 
L 182.733606 168.089221 
L 183.078208 164.462749 
z
" style="stroke:#000000;"/>
    <path clip-path="url(#pba80d3a5c9)" d="M 183.739895 186.782067 
L 182.733606 186.194338 
L 183.182466 183.235525 
z
" style="stroke:#000000;"/>
    <path clip-path="url(#pba80d3a5c9)" d="M 182.733606 168.089221 
L 183.739895 167.504489 
L 183.182466 171.049371 
z
" style="stroke:#000000;"/>
    <path clip-path="url(#pba80d3a5c9)" d="M 181.225258 164.452439 
L 182.241041 161.565427 
L 180.388653 161.552403 
z
" style="stroke:#000000;"/>
    <path clip-path="url(#pba80d3a5c9)" d="M 183.182466 171.049371 
L 180.880887 168.082323 
L 182.733606 168.089221 
z
" style="stroke:#000000;"/>
    <path clip-path="url(#pba80d3a5c9)" d="M 180.260376 165.222478 
L 182.733606 168.089221 
L 180.880887 168.082323 
z
" style="stroke:#000000;"/>
    <path clip-path="url(#pba80d3a5c9)" d="M 182.733606 186.194338 
L 181.329446 183.242868 
L 183.182466 183.235525 
z
" style="stroke:#000000;"/>
    <path clip-path="url(#pba80d3a5c9)" d="M 180.388653 192.732911 
L 183.078208 189.821836 
L 181.225258 189.835372 
z
" style="stroke:#000000;"/>
    <path clip-path="url(#pba80d3a5c9)" d="M 180.260376 165.222478 
L 181.225258 164.452439 
L 180.388653 161.552403 
z
" style="stroke:#000000;"/>
    <path clip-path="url(#pba80d3a5c9)" d="M 181.225258 189.835372 
L 180.260376 189.062452 
L 180.388653 192.732911 
z
" style="stroke:#000000;"/>
    <path clip-path="url(#pba80d3a5c9)" d="M 181.329446 183.242868 
L 182.733606 186.194338 
L 180.880887 186.20446 
z
" style="stroke:#000000;"/>
    <path clip-path="url(#pba80d3a5c9)" d="M 184.218255 183.631818 
L 183.182466 183.235525 
L 183.453929 180.206898 
z
" style="stroke:#000000;"/>
    <path clip-path="url(#pba80d3a5c9)" d="M 183.182466 171.049371 
L 184.218255 170.656162 
L 183.453929 174.078806 
z
" style="stroke:#000000;"/>
    <path clip-path="url(#pba80d3a5c9)" d="M 183.453929 174.078806 
L 181.329446 171.045254 
L 183.182466 171.049371 
z
" style="stroke:#000000;"/>
    <path clip-path="url(#pba80d3a5c9)" d="M 183.739895 186.782067 
L 181.225258 189.835372 
L 183.078208 189.821836 
z
" style="stroke:#000000;"/>
    <path clip-path="url(#pba80d3a5c9)" d="M 183.182466 183.235525 
L 184.218255 183.631818 
L 183.739895 186.782067 
z
" style="stroke:#000000;"/>
    <path clip-path="url(#pba80d3a5c9)" d="M 184.218255 170.656162 
L 183.182466 171.049371 
L 183.739895 167.504489 
z
" style="stroke:#000000;"/>
    <path clip-path="url(#pba80d3a5c9)" d="M 181.225258 164.452439 
L 180.260376 165.222478 
L 180.880887 168.082323 
z
" style="stroke:#000000;"/>
    <path clip-path="url(#pba80d3a5c9)" d="M 180.260376 189.062452 
L 181.225258 189.835372 
L 180.880887 186.20446 
z
" style="stroke:#000000;"/>
    <path clip-path="url(#pba80d3a5c9)" d="M 183.182466 183.235525 
L 181.600728 180.211394 
L 183.453929 180.206898 
z
" style="stroke:#000000;"/>
    <path clip-path="url(#pba80d3a5c9)" d="M 180.880887 168.082323 
L 183.182466 171.049371 
L 181.329446 171.045254 
z
" style="stroke:#000000;"/>
    <path clip-path="url(#pba80d3a5c9)" d="M 183.453929 174.078806 
L 184.507576 173.881821 
L 183.544782 177.142987 
z
" style="stroke:#000000;"/>
    <path clip-path="url(#pba80d3a5c9)" d="M 184.507576 180.407021 
L 183.453929 180.206898 
L 183.544782 177.142987 
z
" style="stroke:#000000;"/>
    <path clip-path="url(#pba80d3a5c9)" d="M 183.544782 177.142987 
L 181.600728 174.077538 
L 183.453929 174.078806 
z
" style="stroke:#000000;"/>
    <path clip-path="url(#pba80d3a5c9)" d="M 183.453929 180.206898 
L 181.69152 177.144602 
L 183.544782 177.142987 
z
" style="stroke:#000000;"/>
    <path clip-path="url(#pba80d3a5c9)" d="M 183.078208 164.462749 
L 181.886503 167.497035 
L 183.739895 167.504489 
z
" style="stroke:#000000;"/>
    <path clip-path="url(#pba80d3a5c9)" d="M 181.600728 180.211394 
L 183.182466 183.235525 
L 181.329446 183.242868 
z
" style="stroke:#000000;"/>
    <path clip-path="url(#pba80d3a5c9)" d="M 181.886503 167.497035 
L 183.078208 164.462749 
L 181.225258 164.452439 
z
" style="stroke:#000000;"/>
    <path clip-path="url(#pba80d3a5c9)" d="M 183.453929 180.206898 
L 184.507576 180.407021 
L 184.218255 183.631818 
z
" style="stroke:#000000;"/>
    <path clip-path="url(#pba80d3a5c9)" d="M 184.507576 173.881821 
L 183.453929 174.078806 
L 184.218255 170.656162 
z
" style="stroke:#000000;"/>
    <path clip-path="url(#pba80d3a5c9)" d="M 181.329446 171.045254 
L 183.453929 174.078806 
L 181.600728 174.077538 
z
" style="stroke:#000000;"/>
    <path clip-path="url(#pba80d3a5c9)" d="M 181.69152 177.144602 
L 183.453929 180.206898 
L 181.600728 180.211394 
z
" style="stroke:#000000;"/>
    <path clip-path="url(#pba80d3a5c9)" d="M 183.544782 177.142987 
L 184.6044 177.144565 
L 184.507576 180.407021 
z
" style="stroke:#000000;"/>
    <path clip-path="url(#pba80d3a5c9)" d="M 184.6044 177.144565 
L 183.544782 177.142987 
L 184.507576 173.881821 
z
" style="stroke:#000000;"/>
    <path clip-path="url(#pba80d3a5c9)" d="M 181.600728 174.077538 
L 183.544782 177.142987 
L 181.69152 177.144602 
z
" style="stroke:#000000;"/>
    <path clip-path="url(#pba80d3a5c9)" d="M 181.225258 189.835372 
L 183.739895 186.782067 
L 181.886503 186.79275 
z
" style="stroke:#000000;"/>
    <path clip-path="url(#pba80d3a5c9)" d="M 184.218255 183.631818 
L 181.886503 186.79275 
L 183.739895 186.782067 
z
" style="stroke:#000000;"/>
    <path clip-path="url(#pba80d3a5c9)" d="M 180.880887 168.082323 
L 181.886503 167.497035 
L 181.225258 164.452439 
z
" style="stroke:#000000;"/>
    <path clip-path="url(#pba80d3a5c9)" d="M 181.886503 186.79275 
L 180.880887 186.20446 
L 181.225258 189.835372 
z
" style="stroke:#000000;"/>
    <path clip-path="url(#pba80d3a5c9)" d="M 181.886503 167.497035 
L 180.880887 168.082323 
L 181.329446 171.045254 
z
" style="stroke:#000000;"/>
    <path clip-path="url(#pba80d3a5c9)" d="M 180.880887 186.20446 
L 181.886503 186.79275 
L 181.329446 183.242868 
z
" style="stroke:#000000;"/>
    <path clip-path="url(#pba80d3a5c9)" d="M 183.739895 167.504489 
L 182.364542 170.651672 
L 184.218255 170.656162 
z
" style="stroke:#000000;"/>
    <path clip-path="url(#pba80d3a5c9)" d="M 186.020259 163.395131 
L 183.368368 157.186409 
L 184.250978 157.562508 
z
" style="stroke:#000000;"/>
    <path clip-path="url(#pba80d3a5c9)" d="M 186.020259 154.01908 
L 184.250978 157.562508 
L 183.368368 157.186409 
z
" style="stroke:#000000;"/>
    <path clip-path="url(#pba80d3a5c9)" d="M 181.515224 157.169253 
L 186.020259 154.01908 
L 183.368368 157.186409 
z
" style="stroke:#000000;"/>
    <path clip-path="url(#pba80d3a5c9)" d="M 186.020259 166.520482 
L 181.515224 157.169253 
L 183.368368 157.186409 
z
" style="stroke:#000000;"/>
    <path clip-path="url(#pba80d3a5c9)" d="M 182.364542 170.651672 
L 183.739895 167.504489 
L 181.886503 167.497035 
z
" style="stroke:#000000;"/>
    <path clip-path="url(#pba80d3a5c9)" d="M 184.507576 180.407021 
L 182.364542 183.639541 
L 184.218255 183.631818 
z
" style="stroke:#000000;"/>
    <path clip-path="url(#pba80d3a5c9)" d="M 182.364542 170.651672 
L 181.329446 171.045254 
L 181.600728 174.077538 
z
" style="stroke:#000000;"/>
    <path clip-path="url(#pba80d3a5c9)" d="M 181.329446 183.242868 
L 182.364542 183.639541 
L 181.600728 180.211394 
z
" style="stroke:#000000;"/>
    <path clip-path="url(#pba80d3a5c9)" d="M 184.218255 170.656162 
L 182.653671 173.880366 
L 184.507576 173.881821 
z
" style="stroke:#000000;"/>
    <path clip-path="url(#pba80d3a5c9)" d="M 181.886503 186.79275 
L 184.218255 183.631818 
L 182.364542 183.639541 
z
" style="stroke:#000000;"/>
    <path clip-path="url(#pba80d3a5c9)" d="M 181.329446 171.045254 
L 182.364542 170.651672 
L 181.886503 167.497035 
z
" style="stroke:#000000;"/>
    <path clip-path="url(#pba80d3a5c9)" d="M 182.364542 183.639541 
L 181.329446 183.242868 
L 181.886503 186.79275 
z
" style="stroke:#000000;"/>
    <path clip-path="url(#pba80d3a5c9)" d="M 184.6044 177.144565 
L 182.653671 180.411709 
L 184.507576 180.407021 
z
" style="stroke:#000000;"/>
    <path clip-path="url(#pba80d3a5c9)" d="M 181.600728 180.211394 
L 182.653671 180.411709 
L 181.69152 177.144602 
z
" style="stroke:#000000;"/>
    <path clip-path="url(#pba80d3a5c9)" d="M 182.653671 173.880366 
L 181.600728 174.077538 
L 181.69152 177.144602 
z
" style="stroke:#000000;"/>
    <path clip-path="url(#pba80d3a5c9)" d="M 184.507576 173.881821 
L 182.75043 177.146182 
L 184.6044 177.144565 
z
" style="stroke:#000000;"/>
    <path clip-path="url(#pba80d3a5c9)" d="M 182.653671 173.880366 
L 184.218255 170.656162 
L 182.364542 170.651672 
z
" style="stroke:#000000;"/>
    <path clip-path="url(#pba80d3a5c9)" d="M 182.364542 183.639541 
L 184.507576 180.407021 
L 182.653671 180.411709 
z
" style="stroke:#000000;"/>
    <path clip-path="url(#pba80d3a5c9)" d="M 183.368368 157.186409 
L 186.020259 163.395131 
L 186.020259 166.520482 
z
" style="stroke:#000000;"/>
    <path clip-path="url(#pba80d3a5c9)" d="M 181.600728 174.077538 
L 182.653671 173.880366 
L 182.364542 170.651672 
z
" style="stroke:#000000;"/>
    <path clip-path="url(#pba80d3a5c9)" d="M 182.653671 180.411709 
L 181.600728 180.211394 
L 182.364542 183.639541 
z
" style="stroke:#000000;"/>
    <path clip-path="url(#pba80d3a5c9)" d="M 182.75043 177.146182 
L 184.507576 173.881821 
L 182.653671 173.880366 
z
" style="stroke:#000000;"/>
    <path clip-path="url(#pba80d3a5c9)" d="M 182.653671 180.411709 
L 184.6044 177.144565 
L 182.75043 177.146182 
z
" style="stroke:#000000;"/>
    <path clip-path="url(#pba80d3a5c9)" d="M 181.69152 177.144602 
L 182.75043 177.146182 
L 182.653671 173.880366 
z
" style="stroke:#000000;"/>
    <path clip-path="url(#pba80d3a5c9)" d="M 182.75043 177.146182 
L 181.69152 177.144602 
L 182.653671 180.411709 
z
" style="stroke:#000000;"/>
    <path clip-path="url(#pba80d3a5c9)" d="M 184.250978 157.562508 
L 186.020259 154.01908 
L 186.020259 155.581755 
z
" style="stroke:#000000;"/>
    <path clip-path="url(#pba80d3a5c9)" d="M 184.250978 157.562508 
L 184.165346 155.563047 
L 182.397244 157.545693 
z
" style="stroke:#000000;"/>
    <path clip-path="url(#pba80d3a5c9)" d="M 184.165346 163.383789 
L 184.250978 157.562508 
L 182.397244 157.545693 
z
" style="stroke:#000000;"/>
    <path clip-path="url(#pba80d3a5c9)" d="M 182.397244 157.545693 
L 184.165346 153.998899 
L 181.515224 157.169253 
z
" style="stroke:#000000;"/>
    <path clip-path="url(#pba80d3a5c9)" d="M 181.515224 157.169253 
L 184.165346 163.383789 
L 182.397244 157.545693 
z
" style="stroke:#000000;"/>
    <path clip-path="url(#pba80d3a5c9)" d="M 184.165346 155.563047 
L 184.250978 157.562508 
L 186.020259 155.581755 
z
" style="stroke:#000000;"/>
    <path clip-path="url(#pba80d3a5c9)" d="M 184.250978 157.562508 
L 184.165346 163.383789 
L 186.020259 163.395131 
z
" style="stroke:#000000;"/>
    <path clip-path="url(#pba80d3a5c9)" d="M 186.020259 154.01908 
L 181.515224 157.169253 
L 184.165346 153.998899 
z
" style="stroke:#000000;"/>
    <path clip-path="url(#pba80d3a5c9)" d="M 181.515224 157.169253 
L 186.020259 166.520482 
L 184.165346 166.512086 
z
" style="stroke:#000000;"/>
    <path clip-path="url(#pba80d3a5c9)" d="M 184.165346 163.383789 
L 181.515224 157.169253 
L 184.165346 166.512086 
z
" style="stroke:#000000;"/>
    <path clip-path="url(#pba80d3a5c9)" d="M 184.165346 153.998899 
L 182.397244 157.545693 
L 184.165346 155.563047 
z
" style="stroke:#000000;"/>
    <path clip-path="url(#pba80d3a5c9)" d="M 186.020259 154.01908 
L 187.794977 157.507607 
L 186.020259 155.581755 
z
" style="stroke:#000000;"/>
    <path clip-path="url(#pba80d3a5c9)" d="M 186.020259 163.395131 
L 188.684384 157.102259 
L 186.020259 166.520482 
z
" style="stroke:#000000;"/>
    <path clip-path="url(#pba80d3a5c9)" d="M 184.165346 153.998899 
L 188.684384 157.102259 
L 186.020259 154.01908 
z
" style="stroke:#000000;"/>
    <path clip-path="url(#pba80d3a5c9)" d="M 188.684384 157.102259 
L 184.165346 166.512086 
L 186.020259 166.520482 
z
" style="stroke:#000000;"/>
    <path clip-path="url(#pba80d3a5c9)" d="M 186.020259 155.581755 
L 185.938887 157.490688 
L 184.165346 155.563047 
z
" style="stroke:#000000;"/>
    <path clip-path="url(#pba80d3a5c9)" d="M 185.938887 157.490688 
L 186.020259 163.395131 
L 184.165346 163.383789 
z
" style="stroke:#000000;"/>
    <path clip-path="url(#pba80d3a5c9)" d="M 187.794977 157.507607 
L 186.020259 154.01908 
L 188.684384 157.102259 
z
" style="stroke:#000000;"/>
    <path clip-path="url(#pba80d3a5c9)" d="M 188.684384 157.102259 
L 186.020259 163.395131 
L 187.794977 157.507607 
z
" style="stroke:#000000;"/>
    <path clip-path="url(#pba80d3a5c9)" d="M 185.938887 157.490688 
L 186.020259 155.581755 
L 187.794977 157.507607 
z
" style="stroke:#000000;"/>
    <path clip-path="url(#pba80d3a5c9)" d="M 186.020259 163.395131 
L 185.938887 157.490688 
L 187.794977 157.507607 
z
" style="stroke:#000000;"/>
    <path clip-path="url(#pba80d3a5c9)" d="M 184.165346 153.998899 
L 184.165346 155.563047 
L 185.938887 157.490688 
z
" style="stroke:#000000;"/>
    <path clip-path="url(#pba80d3a5c9)" d="M 187.439598 177.148786 
L 188.506393 177.150375 
L 187.536914 180.4201 
z
" style="stroke:#000000;"/>
    <path clip-path="url(#pba80d3a5c9)" d="M 188.506393 177.150375 
L 187.439598 177.148786 
L 187.536914 173.877763 
z
" style="stroke:#000000;"/>
    <path clip-path="url(#pba80d3a5c9)" d="M 187.536914 180.4201 
L 185.583743 177.150412 
L 187.439598 177.148786 
z
" style="stroke:#000000;"/>
    <path clip-path="url(#pba80d3a5c9)" d="M 187.439598 177.148786 
L 185.680995 173.8763 
L 187.536914 173.877763 
z
" style="stroke:#000000;"/>
    <path clip-path="url(#pba80d3a5c9)" d="M 187.536914 180.4201 
L 188.598044 180.228234 
L 187.827904 183.657501 
z
" style="stroke:#000000;"/>
    <path clip-path="url(#pba80d3a5c9)" d="M 188.598044 174.072788 
L 187.536914 173.877763 
L 187.827904 170.641228 
z
" style="stroke:#000000;"/>
    <path clip-path="url(#pba80d3a5c9)" d="M 187.827904 183.657501 
L 185.680995 180.424813 
L 187.536914 180.4201 
z
" style="stroke:#000000;"/>
    <path clip-path="url(#pba80d3a5c9)" d="M 184.165346 163.383789 
L 184.165346 166.512086 
L 186.827705 157.084944 
z
" style="stroke:#000000;"/>
    <path clip-path="url(#pba80d3a5c9)" d="M 187.536914 173.877763 
L 185.971792 170.63671 
L 187.827904 170.641228 
z
" style="stroke:#000000;"/>
    <path clip-path="url(#pba80d3a5c9)" d="M 185.680995 173.8763 
L 187.439598 177.148786 
L 185.583743 177.150412 
z
" style="stroke:#000000;"/>
    <path clip-path="url(#pba80d3a5c9)" d="M 187.536914 173.877763 
L 188.598044 174.072788 
L 188.506393 177.150375 
z
" style="stroke:#000000;"/>
    <path clip-path="url(#pba80d3a5c9)" d="M 188.598044 180.228234 
L 187.536914 180.4201 
L 188.506393 177.150375 
z
" style="stroke:#000000;"/>
    <path clip-path="url(#pba80d3a5c9)" d="M 185.583743 177.150412 
L 187.536914 180.4201 
L 185.680995 180.424813 
z
" style="stroke:#000000;"/>
    <path clip-path="url(#pba80d3a5c9)" d="M 187.827904 183.657501 
L 188.872066 183.274086 
L 188.309663 186.827084 
z
" style="stroke:#000000;"/>
    <path clip-path="url(#pba80d3a5c9)" d="M 188.872066 171.027752 
L 187.827904 170.641228 
L 188.309663 167.47308 
z
" style="stroke:#000000;"/>
    <path clip-path="url(#pba80d3a5c9)" d="M 188.309663 186.827084 
L 185.971792 183.665272 
L 187.827904 183.657501 
z
" style="stroke:#000000;"/>
    <path clip-path="url(#pba80d3a5c9)" d="M 185.971792 170.63671 
L 187.536914 173.877763 
L 185.680995 173.8763 
z
" style="stroke:#000000;"/>
    <path clip-path="url(#pba80d3a5c9)" d="M 188.872066 183.274086 
L 187.827904 183.657501 
L 188.598044 180.228234 
z
" style="stroke:#000000;"/>
    <path clip-path="url(#pba80d3a5c9)" d="M 187.827904 170.641228 
L 188.872066 171.027752 
L 188.598044 174.072788 
z
" style="stroke:#000000;"/>
    <path clip-path="url(#pba80d3a5c9)" d="M 185.680995 180.424813 
L 187.827904 183.657501 
L 185.971792 183.665272 
z
" style="stroke:#000000;"/>
    <path clip-path="url(#pba80d3a5c9)" d="M 187.827904 170.641228 
L 186.453232 167.465567 
L 188.309663 167.47308 
z
" style="stroke:#000000;"/>
    <path clip-path="url(#pba80d3a5c9)" d="M 188.684384 157.102259 
L 184.165346 153.998899 
L 186.827705 157.084944 
z
" style="stroke:#000000;"/>
    <path clip-path="url(#pba80d3a5c9)" d="M 184.165346 166.512086 
L 188.684384 157.102259 
L 186.827705 157.084944 
z
" style="stroke:#000000;"/>
    <path clip-path="url(#pba80d3a5c9)" d="M 184.165346 153.998899 
L 185.938887 157.490688 
L 186.827705 157.084944 
z
" style="stroke:#000000;"/>
    <path clip-path="url(#pba80d3a5c9)" d="M 184.165346 163.383789 
L 186.827705 157.084944 
L 185.938887 157.490688 
z
" style="stroke:#000000;"/>
    <path clip-path="url(#pba80d3a5c9)" d="M 186.453232 167.465567 
L 187.827904 170.641228 
L 185.971792 170.63671 
z
" style="stroke:#000000;"/>
    <path clip-path="url(#pba80d3a5c9)" d="M 189.325724 186.25597 
L 188.309663 186.827084 
L 188.872066 183.274086 
z
" style="stroke:#000000;"/>
    <path clip-path="url(#pba80d3a5c9)" d="M 188.309663 167.47308 
L 189.325724 168.04722 
L 188.872066 171.027752 
z
" style="stroke:#000000;"/>
    <path clip-path="url(#pba80d3a5c9)" d="M 188.309663 186.827084 
L 189.325724 186.25597 
L 188.977376 189.895548 
z
" style="stroke:#000000;"/>
    <path clip-path="url(#pba80d3a5c9)" d="M 189.325724 168.04722 
L 188.309663 167.47308 
L 188.977376 164.406604 
z
" style="stroke:#000000;"/>
    <path clip-path="url(#pba80d3a5c9)" d="M 185.971792 183.665272 
L 188.309663 186.827084 
L 186.453232 186.837852 
z
" style="stroke:#000000;"/>
    <path clip-path="url(#pba80d3a5c9)" d="M 188.977376 189.895548 
L 186.453232 186.837852 
L 188.309663 186.827084 
z
" style="stroke:#000000;"/>
    <path clip-path="url(#pba80d3a5c9)" d="M 188.598044 174.072788 
L 186.649832 177.152003 
L 188.506393 177.150375 
z
" style="stroke:#000000;"/>
    <path clip-path="url(#pba80d3a5c9)" d="M 185.583743 177.150412 
L 186.649832 177.152003 
L 185.680995 173.8763 
z
" style="stroke:#000000;"/>
    <path clip-path="url(#pba80d3a5c9)" d="M 186.649832 177.152003 
L 185.583743 177.150412 
L 185.680995 180.424813 
z
" style="stroke:#000000;"/>
    <path clip-path="url(#pba80d3a5c9)" d="M 188.506393 177.150375 
L 186.741423 180.232771 
L 188.598044 180.228234 
z
" style="stroke:#000000;"/>
    <path clip-path="url(#pba80d3a5c9)" d="M 188.872066 171.027752 
L 186.741423 174.071509 
L 188.598044 174.072788 
z
" style="stroke:#000000;"/>
    <path clip-path="url(#pba80d3a5c9)" d="M 185.680995 173.8763 
L 186.741423 174.071509 
L 185.971792 170.63671 
z
" style="stroke:#000000;"/>
    <path clip-path="url(#pba80d3a5c9)" d="M 186.741423 180.232771 
L 185.680995 180.424813 
L 185.971792 183.665272 
z
" style="stroke:#000000;"/>
    <path clip-path="url(#pba80d3a5c9)" d="M 188.309663 167.47308 
L 187.120504 164.396188 
L 188.977376 164.406604 
z
" style="stroke:#000000;"/>
    <path clip-path="url(#pba80d3a5c9)" d="M 188.598044 180.228234 
L 187.015264 183.281502 
L 188.872066 183.274086 
z
" style="stroke:#000000;"/>
    <path clip-path="url(#pba80d3a5c9)" d="M 187.120504 164.396188 
L 188.309663 167.47308 
L 186.453232 167.465567 
z
" style="stroke:#000000;"/>
    <path clip-path="url(#pba80d3a5c9)" d="M 186.741423 180.232771 
L 188.506393 177.150375 
L 186.649832 177.152003 
z
" style="stroke:#000000;"/>
    <path clip-path="url(#pba80d3a5c9)" d="M 186.649832 177.152003 
L 188.598044 174.072788 
L 186.741423 174.071509 
z
" style="stroke:#000000;"/>
    <path clip-path="url(#pba80d3a5c9)" d="M 185.680995 180.424813 
L 186.741423 180.232771 
L 186.649832 177.152003 
z
" style="stroke:#000000;"/>
    <path clip-path="url(#pba80d3a5c9)" d="M 186.741423 174.071509 
L 185.680995 173.8763 
L 186.649832 177.152003 
z
" style="stroke:#000000;"/>
    <path clip-path="url(#pba80d3a5c9)" d="M 189.325724 168.04722 
L 187.015264 171.023595 
L 188.872066 171.027752 
z
" style="stroke:#000000;"/>
    <path clip-path="url(#pba80d3a5c9)" d="M 187.015264 183.281502 
L 188.598044 180.228234 
L 186.741423 180.232771 
z
" style="stroke:#000000;"/>
    <path clip-path="url(#pba80d3a5c9)" d="M 189.95446 189.142461 
L 188.977376 189.895548 
L 189.325724 186.25597 
z
" style="stroke:#000000;"/>
    <path clip-path="url(#pba80d3a5c9)" d="M 188.977376 164.406604 
L 189.95446 165.162601 
L 189.325724 168.04722 
z
" style="stroke:#000000;"/>
    <path clip-path="url(#pba80d3a5c9)" d="M 185.971792 170.63671 
L 187.015264 171.023595 
L 186.453232 167.465567 
z
" style="stroke:#000000;"/>
    <path clip-path="url(#pba80d3a5c9)" d="M 187.015264 183.281502 
L 185.971792 183.665272 
L 186.453232 186.837852 
z
" style="stroke:#000000;"/>
    <path clip-path="url(#pba80d3a5c9)" d="M 186.453232 186.837852 
L 188.977376 189.895548 
L 187.120504 189.909223 
z
" style="stroke:#000000;"/>
    <path clip-path="url(#pba80d3a5c9)" d="M 186.741423 174.071509 
L 188.872066 171.027752 
L 187.015264 171.023595 
z
" style="stroke:#000000;"/>
    <path clip-path="url(#pba80d3a5c9)" d="M 187.015264 171.023595 
L 185.971792 170.63671 
L 186.741423 174.071509 
z
" style="stroke:#000000;"/>
    <path clip-path="url(#pba80d3a5c9)" d="M 185.971792 183.665272 
L 187.015264 183.281502 
L 186.741423 180.232771 
z
" style="stroke:#000000;"/>
    <path clip-path="url(#pba80d3a5c9)" d="M 188.872066 183.274086 
L 187.468623 186.266207 
L 189.325724 186.25597 
z
" style="stroke:#000000;"/>
    <path clip-path="url(#pba80d3a5c9)" d="M 188.977376 189.895548 
L 189.95446 189.142461 
L 189.824372 192.830559 
z
" style="stroke:#000000;"/>
    <path clip-path="url(#pba80d3a5c9)" d="M 189.95446 165.162601 
L 188.977376 164.406604 
L 189.824372 161.474115 
z
" style="stroke:#000000;"/>
    <path clip-path="url(#pba80d3a5c9)" d="M 189.824372 192.830559 
L 187.120504 189.909223 
L 188.977376 189.895548 
z
" style="stroke:#000000;"/>
    <path clip-path="url(#pba80d3a5c9)" d="M 187.468623 186.266207 
L 188.872066 183.274086 
L 187.015264 183.281502 
z
" style="stroke:#000000;"/>
    <path clip-path="url(#pba80d3a5c9)" d="M 189.95446 165.162601 
L 187.468623 168.040243 
L 189.325724 168.04722 
z
" style="stroke:#000000;"/>
    <path clip-path="url(#pba80d3a5c9)" d="M 187.015264 171.023595 
L 189.325724 168.04722 
L 187.468623 168.040243 
z
" style="stroke:#000000;"/>
    <path clip-path="url(#pba80d3a5c9)" d="M 188.977376 164.406604 
L 187.966941 161.460918 
L 189.824372 161.474115 
z
" style="stroke:#000000;"/>
    <path clip-path="url(#pba80d3a5c9)" d="M 187.468623 168.040243 
L 186.453232 167.465567 
L 187.015264 171.023595 
z
" style="stroke:#000000;"/>
    <path clip-path="url(#pba80d3a5c9)" d="M 186.453232 186.837852 
L 187.468623 186.266207 
L 187.015264 183.281502 
z
" style="stroke:#000000;"/>
    <path clip-path="url(#pba80d3a5c9)" d="M 186.453232 167.465567 
L 187.468623 168.040243 
L 187.120504 164.396188 
z
" style="stroke:#000000;"/>
    <path clip-path="url(#pba80d3a5c9)" d="M 187.468623 186.266207 
L 186.453232 186.837852 
L 187.120504 189.909223 
z
" style="stroke:#000000;"/>
    <path clip-path="url(#pba80d3a5c9)" d="M 187.966941 161.460918 
L 188.977376 164.406604 
L 187.120504 164.396188 
z
" style="stroke:#000000;"/>
    <path clip-path="url(#pba80d3a5c9)" d="M 189.325724 186.25597 
L 188.096944 189.155434 
L 189.95446 189.142461 
z
" style="stroke:#000000;"/>
    <path clip-path="url(#pba80d3a5c9)" d="M 190.751939 191.903044 
L 189.824372 192.830559 
L 189.95446 189.142461 
z
" style="stroke:#000000;"/>
    <path clip-path="url(#pba80d3a5c9)" d="M 189.824372 161.474115 
L 190.751939 162.404393 
L 189.95446 165.162601 
z
" style="stroke:#000000;"/>
    <path clip-path="url(#pba80d3a5c9)" d="M 188.096944 189.155434 
L 189.325724 186.25597 
L 187.468623 186.266207 
z
" style="stroke:#000000;"/>
    <path clip-path="url(#pba80d3a5c9)" d="M 187.120504 189.909223 
L 189.824372 192.830559 
L 187.966941 192.84702 
z
" style="stroke:#000000;"/>
    <path clip-path="url(#pba80d3a5c9)" d="M 189.824372 192.830559 
L 190.751939 191.903044 
L 190.842117 195.600856 
z
" style="stroke:#000000;"/>
    <path clip-path="url(#pba80d3a5c9)" d="M 190.751939 162.404393 
L 189.824372 161.474115 
L 190.842117 158.706849 
z
" style="stroke:#000000;"/>
    <path clip-path="url(#pba80d3a5c9)" d="M 187.468623 168.040243 
L 189.95446 165.162601 
L 188.096944 165.152892 
z
" style="stroke:#000000;"/>
    <path clip-path="url(#pba80d3a5c9)" d="M 188.096944 165.152892 
L 187.120504 164.396188 
L 187.468623 168.040243 
z
" style="stroke:#000000;"/>
    <path clip-path="url(#pba80d3a5c9)" d="M 187.120504 189.909223 
L 188.096944 189.155434 
L 187.468623 186.266207 
z
" style="stroke:#000000;"/>
    <path clip-path="url(#pba80d3a5c9)" d="M 190.842117 195.600856 
L 187.966941 192.84702 
L 189.824372 192.830559 
z
" style="stroke:#000000;"/>
    <path clip-path="url(#pba80d3a5c9)" d="M 190.751939 162.404393 
L 188.096944 165.152892 
L 189.95446 165.162601 
z
" style="stroke:#000000;"/>
    <path clip-path="url(#pba80d3a5c9)" d="M 187.120504 164.396188 
L 188.096944 165.152892 
L 187.966941 161.460918 
z
" style="stroke:#000000;"/>
    <path clip-path="url(#pba80d3a5c9)" d="M 188.096944 189.155434 
L 187.120504 189.909223 
L 187.966941 192.84702 
z
" style="stroke:#000000;"/>
    <path clip-path="url(#pba80d3a5c9)" d="M 189.95446 189.142461 
L 188.893899 191.91864 
L 190.751939 191.903044 
z
" style="stroke:#000000;"/>
    <path clip-path="url(#pba80d3a5c9)" d="M 189.824372 161.474115 
L 188.984017 158.691021 
L 190.842117 158.706849 
z
" style="stroke:#000000;"/>
    <path clip-path="url(#pba80d3a5c9)" d="M 188.984017 158.691021 
L 189.824372 161.474115 
L 187.966941 161.460918 
z
" style="stroke:#000000;"/>
    <path clip-path="url(#pba80d3a5c9)" d="M 188.893899 191.91864 
L 189.95446 189.142461 
L 188.096944 189.155434 
z
" style="stroke:#000000;"/>
    <path clip-path="url(#pba80d3a5c9)" d="M 190.842117 195.600856 
L 190.751939 191.903044 
L 191.710104 194.508401 
z
" style="stroke:#000000;"/>
    <path clip-path="url(#pba80d3a5c9)" d="M 190.751939 162.404393 
L 190.842117 158.706849 
L 191.710104 159.801889 
z
" style="stroke:#000000;"/>
    <path clip-path="url(#pba80d3a5c9)" d="M 188.096944 165.152892 
L 190.751939 162.404393 
L 188.893899 162.392066 
z
" style="stroke:#000000;"/>
    <path clip-path="url(#pba80d3a5c9)" d="M 187.966941 192.84702 
L 190.842117 195.600856 
L 188.984017 195.619954 
z
" style="stroke:#000000;"/>
    <path clip-path="url(#pba80d3a5c9)" d="M 188.893899 162.392066 
L 187.966941 161.460918 
L 188.096944 165.152892 
z
" style="stroke:#000000;"/>
    <path clip-path="url(#pba80d3a5c9)" d="M 187.966941 192.84702 
L 188.893899 191.91864 
L 188.096944 189.155434 
z
" style="stroke:#000000;"/>
    <path clip-path="url(#pba80d3a5c9)" d="M 191.710104 159.801889 
L 188.893899 162.392066 
L 190.751939 162.404393 
z
" style="stroke:#000000;"/>
    <path clip-path="url(#pba80d3a5c9)" d="M 190.842117 195.600856 
L 191.710104 194.508401 
L 192.020328 198.176969 
z
" style="stroke:#000000;"/>
    <path clip-path="url(#pba80d3a5c9)" d="M 191.710104 159.801889 
L 190.842117 158.706849 
L 192.020328 156.134245 
z
" style="stroke:#000000;"/>
    <path clip-path="url(#pba80d3a5c9)" d="M 187.966941 161.460918 
L 188.893899 162.392066 
L 188.984017 158.691021 
z
" style="stroke:#000000;"/>
    <path clip-path="url(#pba80d3a5c9)" d="M 188.893899 191.91864 
L 187.966941 192.84702 
L 188.984017 195.619954 
z
" style="stroke:#000000;"/>
    <path clip-path="url(#pba80d3a5c9)" d="M 192.020328 198.176969 
L 188.984017 195.619954 
L 190.842117 195.600856 
z
" style="stroke:#000000;"/>
    <path clip-path="url(#pba80d3a5c9)" d="M 190.751939 191.903044 
L 189.851434 194.526478 
L 191.710104 194.508401 
z
" style="stroke:#000000;"/>
    <path clip-path="url(#pba80d3a5c9)" d="M 189.851434 194.526478 
L 190.751939 191.903044 
L 188.893899 191.91864 
z
" style="stroke:#000000;"/>
    <path clip-path="url(#pba80d3a5c9)" d="M 190.161455 156.115963 
L 190.842117 158.706849 
L 188.984017 158.691021 
z
" style="stroke:#000000;"/>
    <path clip-path="url(#pba80d3a5c9)" d="M 190.842117 158.706849 
L 190.161455 156.115963 
L 192.020328 156.134245 
z
" style="stroke:#000000;"/>
    <path clip-path="url(#pba80d3a5c9)" d="M 188.893899 162.392066 
L 191.710104 159.801889 
L 189.851434 159.787086 
z
" style="stroke:#000000;"/>
    <path clip-path="url(#pba80d3a5c9)" d="M 192.020328 198.176969 
L 191.710104 194.508401 
L 192.81922 196.930471 
z
" style="stroke:#000000;"/>
    <path clip-path="url(#pba80d3a5c9)" d="M 191.710104 159.801889 
L 192.020328 156.134245 
L 192.81922 157.383121 
z
" style="stroke:#000000;"/>
    <path clip-path="url(#pba80d3a5c9)" d="M 188.984017 158.691021 
L 188.893899 162.392066 
L 189.851434 159.787086 
z
" style="stroke:#000000;"/>
    <path clip-path="url(#pba80d3a5c9)" d="M 188.893899 191.91864 
L 188.984017 195.619954 
L 189.851434 194.526478 
z
" style="stroke:#000000;"/>
    <path clip-path="url(#pba80d3a5c9)" d="M 188.984017 195.619954 
L 192.020328 198.176969 
L 190.161455 198.198527 
z
" style="stroke:#000000;"/>
    <path clip-path="url(#pba80d3a5c9)" d="M 192.81922 157.383121 
L 189.851434 159.787086 
L 191.710104 159.801889 
z
" style="stroke:#000000;"/>
    <path clip-path="url(#pba80d3a5c9)" d="M 192.683303 199.353262 
L 190.161455 198.198527 
L 192.020328 198.176969 
z
" style="stroke:#000000;"/>
    <path clip-path="url(#pba80d3a5c9)" d="M 192.020328 198.176969 
L 193.152009 198.944049 
L 192.683303 199.353262 
z
" style="stroke:#000000;"/>
    <path clip-path="url(#pba80d3a5c9)" d="M 193.152009 155.370535 
L 192.020328 156.134245 
L 192.683303 154.959926 
z
" style="stroke:#000000;"/>
    <path clip-path="url(#pba80d3a5c9)" d="M 188.984017 158.691021 
L 189.851434 159.787086 
L 190.161455 156.115963 
z
" style="stroke:#000000;"/>
    <path clip-path="url(#pba80d3a5c9)" d="M 189.851434 194.526478 
L 188.984017 195.619954 
L 190.161455 198.198527 
z
" style="stroke:#000000;"/>
    <path clip-path="url(#pba80d3a5c9)" d="M 193.152009 198.944049 
L 192.020328 198.176969 
L 192.81922 196.930471 
z
" style="stroke:#000000;"/>
    <path clip-path="url(#pba80d3a5c9)" d="M 192.020328 156.134245 
L 193.152009 155.370535 
L 192.81922 157.383121 
z
" style="stroke:#000000;"/>
    <path clip-path="url(#pba80d3a5c9)" d="M 190.959824 196.950862 
L 191.710104 194.508401 
L 189.851434 194.526478 
z
" style="stroke:#000000;"/>
    <path clip-path="url(#pba80d3a5c9)" d="M 191.710104 194.508401 
L 190.959824 196.950862 
L 192.81922 196.930471 
z
" style="stroke:#000000;"/>
    <path clip-path="url(#pba80d3a5c9)" d="M 192.020328 156.134245 
L 190.823997 154.94052 
L 192.683303 154.959926 
z
" style="stroke:#000000;"/>
    <path clip-path="url(#pba80d3a5c9)" d="M 190.823997 154.94052 
L 192.020328 156.134245 
L 190.161455 156.115963 
z
" style="stroke:#000000;"/>
    <path clip-path="url(#pba80d3a5c9)" d="M 189.851434 159.787086 
L 192.81922 157.383121 
L 190.959824 157.366011 
z
" style="stroke:#000000;"/>
    <path clip-path="url(#pba80d3a5c9)" d="M 190.161455 198.198527 
L 192.683303 199.353262 
L 190.823997 199.375948 
z
" style="stroke:#000000;"/>
    <path clip-path="url(#pba80d3a5c9)" d="M 193.152009 198.944049 
L 192.81922 196.930471 
L 193.644693 198.393154 
z
" style="stroke:#000000;"/>
    <path clip-path="url(#pba80d3a5c9)" d="M 192.81922 157.383121 
L 193.152009 155.370535 
L 193.644693 155.922897 
z
" style="stroke:#000000;"/>
    <path clip-path="url(#pba80d3a5c9)" d="M 190.823997 154.94052 
L 193.152009 155.370535 
L 192.683303 154.959926 
z
" style="stroke:#000000;"/>
    <path clip-path="url(#pba80d3a5c9)" d="M 190.161455 156.115963 
L 189.851434 159.787086 
L 190.959824 157.366011 
z
" style="stroke:#000000;"/>
    <path clip-path="url(#pba80d3a5c9)" d="M 189.851434 194.526478 
L 190.161455 198.198527 
L 190.959824 196.950862 
z
" style="stroke:#000000;"/>
    <path clip-path="url(#pba80d3a5c9)" d="M 191.292396 198.966355 
L 192.683303 199.353262 
L 193.152009 198.944049 
z
" style="stroke:#000000;"/>
    <path clip-path="url(#pba80d3a5c9)" d="M 190.959824 196.950862 
L 193.644693 198.393154 
L 192.81922 196.930471 
z
" style="stroke:#000000;"/>
    <path clip-path="url(#pba80d3a5c9)" d="M 192.683303 199.353262 
L 191.292396 198.966355 
L 190.823997 199.375948 
z
" style="stroke:#000000;"/>
    <path clip-path="url(#pba80d3a5c9)" d="M 191.292396 155.351511 
L 193.644693 155.922897 
L 193.152009 155.370535 
z
" style="stroke:#000000;"/>
    <path clip-path="url(#pba80d3a5c9)" d="M 190.161455 156.115963 
L 191.292396 155.351511 
L 190.823997 154.94052 
z
" style="stroke:#000000;"/>
    <path clip-path="url(#pba80d3a5c9)" d="M 191.292396 198.966355 
L 190.161455 198.198527 
L 190.823997 199.375948 
z
" style="stroke:#000000;"/>
    <path clip-path="url(#pba80d3a5c9)" d="M 193.152009 155.370535 
L 190.823997 154.94052 
L 191.292396 155.351511 
z
" style="stroke:#000000;"/>
    <path clip-path="url(#pba80d3a5c9)" d="M 191.784758 155.904389 
L 192.81922 157.383121 
L 193.644693 155.922897 
z
" style="stroke:#000000;"/>
    <path clip-path="url(#pba80d3a5c9)" d="M 191.292396 155.351511 
L 190.161455 156.115963 
L 190.959824 157.366011 
z
" style="stroke:#000000;"/>
    <path clip-path="url(#pba80d3a5c9)" d="M 190.161455 198.198527 
L 191.292396 198.966355 
L 190.959824 196.950862 
z
" style="stroke:#000000;"/>
    <path clip-path="url(#pba80d3a5c9)" d="M 192.81922 157.383121 
L 191.784758 155.904389 
L 190.959824 157.366011 
z
" style="stroke:#000000;"/>
    <path clip-path="url(#pba80d3a5c9)" d="M 191.784758 198.414947 
L 193.152009 198.944049 
L 193.644693 198.393154 
z
" style="stroke:#000000;"/>
    <path clip-path="url(#pba80d3a5c9)" d="M 193.152009 198.944049 
L 191.784758 198.414947 
L 191.292396 198.966355 
z
" style="stroke:#000000;"/>
    <path clip-path="url(#pba80d3a5c9)" d="M 193.644693 198.393154 
L 190.959824 196.950862 
L 191.784758 198.414947 
z
" style="stroke:#000000;"/>
    <path clip-path="url(#pba80d3a5c9)" d="M 193.644693 155.922897 
L 191.292396 155.351511 
L 191.784758 155.904389 
z
" style="stroke:#000000;"/>
    <path clip-path="url(#pba80d3a5c9)" d="M 191.292396 155.351511 
L 190.959824 157.366011 
L 191.784758 155.904389 
z
" style="stroke:#000000;"/>
    <path clip-path="url(#pba80d3a5c9)" d="M 190.959824 196.950862 
L 191.292396 198.966355 
L 191.784758 198.414947 
z
" style="stroke:#000000;"/>
   </g>
  </g>
 </g>
 <defs>
  <clipPath id="pba80d3a5c9">
   <rect height="271.8" width="279" x="45" y="43.2"/>
  </clipPath>
 </defs>
</svg>
