<?xml version="1.0" encoding="utf-8" standalone="no"?>
<!DOCTYPE svg PUBLIC "-//W3C//DTD SVG 1.1//EN"
  "http://www.w3.org/Graphics/SVG/1.1/DTD/svg11.dtd">
<!-- Created with matplotlib (https://matplotlib.org/) -->
<svg height="360pt" version="1.1" viewBox="0 0 360 360" width="360pt" xmlns="http://www.w3.org/2000/svg" xmlns:xlink="http://www.w3.org/1999/xlink">
 <defs>
  <style type="text/css">
*{stroke-linecap:butt;stroke-linejoin:round;}
  </style>
 </defs>
 <g id="figure_1">
  <g id="patch_1">
   <path d="M 0 360 
L 360 360 
L 360 0 
L 0 0 
z
" style="fill:#ffffff;"/>
  </g>
  <g id="patch_2">
   <path d="M 45 315 
L 324 315 
L 324 43.2 
L 45 43.2 
z
" style="fill:#ffffff;"/>
  </g>
  <g id="axes_1">
   <g id="Poly3DCollection_1">
    <path clip-path="url(#pcca2014044)" d="M 182.575276 177.148843 
L 184.32738 177.148843 
L 184.167413 180.419845 
z
" style="stroke:#000000;"/>
    <path clip-path="url(#pcca2014044)" d="M 182.424899 180.223588 
L 184.167413 180.419845 
L 183.689252 183.655011 
z
" style="stroke:#000000;"/>
    <path clip-path="url(#pcca2014044)" d="M 184.32738 177.148843 
L 182.575276 177.148843 
L 184.167413 173.877842 
z
" style="stroke:#000000;"/>
    <path clip-path="url(#pcca2014044)" d="M 181.975438 183.264637 
L 183.689252 183.655011 
L 182.898142 186.81889 
z
" style="stroke:#000000;"/>
    <path clip-path="url(#pcca2014044)" d="M 182.424899 174.074099 
L 184.167413 173.877842 
L 182.575276 177.148843 
z
" style="stroke:#000000;"/>
    <path clip-path="url(#pcca2014044)" d="M 184.167413 173.877842 
L 182.424899 174.074099 
L 183.689252 170.642676 
z
" style="stroke:#000000;"/>
    <path clip-path="url(#pcca2014044)" d="M 184.167413 180.419845 
L 182.424899 180.223588 
L 182.575276 177.148843 
z
" style="stroke:#000000;"/>
    <path clip-path="url(#pcca2014044)" d="M 183.689252 183.655011 
L 181.975438 183.264637 
L 182.424899 180.223588 
z
" style="stroke:#000000;"/>
    <path clip-path="url(#pcca2014044)" d="M 181.231798 186.238694 
L 182.898142 186.81889 
L 181.802762 189.876812 
z
" style="stroke:#000000;"/>
    <path clip-path="url(#pcca2014044)" d="M 182.898142 186.81889 
L 181.231798 186.238694 
L 181.975438 183.264637 
z
" style="stroke:#000000;"/>
    <path clip-path="url(#pcca2014044)" d="M 180.202133 189.113151 
L 181.802762 189.876812 
L 180.415084 192.795318 
z
" style="stroke:#000000;"/>
    <path clip-path="url(#pcca2014044)" d="M 181.802762 189.876812 
L 180.202133 189.113151 
L 181.231798 186.238694 
z
" style="stroke:#000000;"/>
    <path clip-path="url(#pcca2014044)" d="M 180.415084 192.795318 
L 178.897728 191.856529 
L 180.202133 189.113151 
z
" style="stroke:#000000;"/>
    <path clip-path="url(#pcca2014044)" d="M 178.75034 195.542338 
L 178.897728 191.856529 
L 180.415084 192.795318 
z
" style="stroke:#000000;"/>
    <path clip-path="url(#pcca2014044)" d="M 178.75034 195.542338 
L 177.332865 194.438823 
L 178.897728 191.856529 
z
" style="stroke:#000000;"/>
    <path clip-path="url(#pcca2014044)" d="M 176.826764 198.087957 
L 177.332865 194.438823 
L 178.75034 195.542338 
z
" style="stroke:#000000;"/>
    <path clip-path="url(#pcca2014044)" d="M 174.982827 198.829223 
L 176.826764 198.087957 
L 175.746091 199.246045 
z
" style="stroke:#000000;"/>
    <path clip-path="url(#pcca2014044)" d="M 176.826764 198.087957 
L 175.524694 196.831607 
L 177.332865 194.438823 
z
" style="stroke:#000000;"/>
    <path clip-path="url(#pcca2014044)" d="M 176.826764 198.087957 
L 174.982827 198.829223 
L 175.524694 196.831607 
z
" style="stroke:#000000;"/>
    <path clip-path="url(#pcca2014044)" d="M 175.524694 196.831607 
L 174.982827 198.829223 
L 174.181181 198.271333 
z
" style="stroke:#000000;"/>
    <path clip-path="url(#pcca2014044)" d="M 181.975438 171.03305 
L 183.689252 170.642676 
L 182.424899 174.074099 
z
" style="stroke:#000000;"/>
    <path clip-path="url(#pcca2014044)" d="M 183.689252 170.642676 
L 181.975438 171.03305 
L 182.898142 167.478797 
z
" style="stroke:#000000;"/>
    <path clip-path="url(#pcca2014044)" d="M 181.231798 168.058993 
L 182.898142 167.478797 
L 181.975438 171.03305 
z
" style="stroke:#000000;"/>
    <path clip-path="url(#pcca2014044)" d="M 182.898142 167.478797 
L 181.231798 168.058993 
L 181.802762 164.420875 
z
" style="stroke:#000000;"/>
    <path clip-path="url(#pcca2014044)" d="M 180.202133 165.184536 
L 181.802762 164.420875 
L 181.231798 168.058993 
z
" style="stroke:#000000;"/>
    <path clip-path="url(#pcca2014044)" d="M 181.802762 164.420875 
L 180.202133 165.184536 
L 180.415084 161.502369 
z
" style="stroke:#000000;"/>
    <path clip-path="url(#pcca2014044)" d="M 178.897728 162.441158 
L 180.415084 161.502369 
L 180.202133 165.184536 
z
" style="stroke:#000000;"/>
    <path clip-path="url(#pcca2014044)" d="M 178.897728 162.441158 
L 178.75034 158.755349 
L 180.415084 161.502369 
z
" style="stroke:#000000;"/>
    <path clip-path="url(#pcca2014044)" d="M 177.332865 159.858864 
L 178.75034 158.755349 
L 178.897728 162.441158 
z
" style="stroke:#000000;"/>
    <path clip-path="url(#pcca2014044)" d="M 177.332865 159.858864 
L 176.826764 156.20973 
L 178.75034 158.755349 
z
" style="stroke:#000000;"/>
    <path clip-path="url(#pcca2014044)" d="M 175.524694 157.46608 
L 176.826764 156.20973 
L 177.332865 159.858864 
z
" style="stroke:#000000;"/>
    <path clip-path="url(#pcca2014044)" d="M 174.982827 155.468464 
L 176.826764 156.20973 
L 175.524694 157.46608 
z
" style="stroke:#000000;"/>
    <path clip-path="url(#pcca2014044)" d="M 176.826764 156.20973 
L 174.982827 155.468464 
L 175.746091 155.051642 
z
" style="stroke:#000000;"/>
    <path clip-path="url(#pcca2014044)" d="M 174.982827 155.468464 
L 175.524694 157.46608 
L 174.181181 156.026354 
z
" style="stroke:#000000;"/>
    <path clip-path="url(#pcca2014044)" d="M 198.344209 198.829223 
L 197.802342 196.831607 
L 199.145855 198.271333 
z
" style="stroke:#000000;"/>
    <path clip-path="url(#pcca2014044)" d="M 196.500272 198.087957 
L 198.344209 198.829223 
L 197.580945 199.246045 
z
" style="stroke:#000000;"/>
    <path clip-path="url(#pcca2014044)" d="M 198.344209 198.829223 
L 196.500272 198.087957 
L 197.802342 196.831607 
z
" style="stroke:#000000;"/>
    <path clip-path="url(#pcca2014044)" d="M 196.500272 198.087957 
L 195.994171 194.438823 
L 197.802342 196.831607 
z
" style="stroke:#000000;"/>
    <path clip-path="url(#pcca2014044)" d="M 194.576696 195.542338 
L 195.994171 194.438823 
L 196.500272 198.087957 
z
" style="stroke:#000000;"/>
    <path clip-path="url(#pcca2014044)" d="M 194.576696 195.542338 
L 194.429308 191.856529 
L 195.994171 194.438823 
z
" style="stroke:#000000;"/>
    <path clip-path="url(#pcca2014044)" d="M 192.911952 192.795318 
L 194.429308 191.856529 
L 194.576696 195.542338 
z
" style="stroke:#000000;"/>
    <path clip-path="url(#pcca2014044)" d="M 194.429308 191.856529 
L 192.911952 192.795318 
L 193.124903 189.113151 
z
" style="stroke:#000000;"/>
    <path clip-path="url(#pcca2014044)" d="M 191.524274 189.876812 
L 193.124903 189.113151 
L 192.911952 192.795318 
z
" style="stroke:#000000;"/>
    <path clip-path="url(#pcca2014044)" d="M 193.124903 189.113151 
L 191.524274 189.876812 
L 192.095238 186.238694 
z
" style="stroke:#000000;"/>
    <path clip-path="url(#pcca2014044)" d="M 190.428894 186.81889 
L 192.095238 186.238694 
L 191.524274 189.876812 
z
" style="stroke:#000000;"/>
    <path clip-path="url(#pcca2014044)" d="M 192.095238 186.238694 
L 190.428894 186.81889 
L 191.351598 183.264637 
z
" style="stroke:#000000;"/>
    <path clip-path="url(#pcca2014044)" d="M 191.351598 183.264637 
L 189.637784 183.655011 
L 190.902137 180.223588 
z
" style="stroke:#000000;"/>
    <path clip-path="url(#pcca2014044)" d="M 189.637784 183.655011 
L 191.351598 183.264637 
L 190.428894 186.81889 
z
" style="stroke:#000000;"/>
    <path clip-path="url(#pcca2014044)" d="M 197.802342 157.46608 
L 198.344209 155.468464 
L 199.145855 156.026354 
z
" style="stroke:#000000;"/>
    <path clip-path="url(#pcca2014044)" d="M 196.500272 156.20973 
L 198.344209 155.468464 
L 197.802342 157.46608 
z
" style="stroke:#000000;"/>
    <path clip-path="url(#pcca2014044)" d="M 198.344209 155.468464 
L 196.500272 156.20973 
L 197.580945 155.051642 
z
" style="stroke:#000000;"/>
    <path clip-path="url(#pcca2014044)" d="M 195.994171 159.858864 
L 196.500272 156.20973 
L 197.802342 157.46608 
z
" style="stroke:#000000;"/>
    <path clip-path="url(#pcca2014044)" d="M 195.994171 159.858864 
L 194.576696 158.755349 
L 196.500272 156.20973 
z
" style="stroke:#000000;"/>
    <path clip-path="url(#pcca2014044)" d="M 194.429308 162.441158 
L 194.576696 158.755349 
L 195.994171 159.858864 
z
" style="stroke:#000000;"/>
    <path clip-path="url(#pcca2014044)" d="M 192.911952 161.502369 
L 194.429308 162.441158 
L 193.124903 165.184536 
z
" style="stroke:#000000;"/>
    <path clip-path="url(#pcca2014044)" d="M 194.429308 162.441158 
L 192.911952 161.502369 
L 194.576696 158.755349 
z
" style="stroke:#000000;"/>
    <path clip-path="url(#pcca2014044)" d="M 191.524274 164.420875 
L 193.124903 165.184536 
L 192.095238 168.058993 
z
" style="stroke:#000000;"/>
    <path clip-path="url(#pcca2014044)" d="M 193.124903 165.184536 
L 191.524274 164.420875 
L 192.911952 161.502369 
z
" style="stroke:#000000;"/>
    <path clip-path="url(#pcca2014044)" d="M 190.428894 167.478797 
L 192.095238 168.058993 
L 191.351598 171.03305 
z
" style="stroke:#000000;"/>
    <path clip-path="url(#pcca2014044)" d="M 189.637784 170.642676 
L 191.351598 171.03305 
L 190.902137 174.074099 
z
" style="stroke:#000000;"/>
    <path clip-path="url(#pcca2014044)" d="M 192.095238 168.058993 
L 190.428894 167.478797 
L 191.524274 164.420875 
z
" style="stroke:#000000;"/>
    <path clip-path="url(#pcca2014044)" d="M 189.159623 173.877842 
L 190.902137 174.074099 
L 190.75176 177.148843 
z
" style="stroke:#000000;"/>
    <path clip-path="url(#pcca2014044)" d="M 189.159623 180.419845 
L 190.902137 180.223588 
L 189.637784 183.655011 
z
" style="stroke:#000000;"/>
    <path clip-path="url(#pcca2014044)" d="M 190.902137 180.223588 
L 189.159623 180.419845 
L 190.75176 177.148843 
z
" style="stroke:#000000;"/>
    <path clip-path="url(#pcca2014044)" d="M 191.351598 171.03305 
L 189.637784 170.642676 
L 190.428894 167.478797 
z
" style="stroke:#000000;"/>
    <path clip-path="url(#pcca2014044)" d="M 188.999656 177.148843 
L 190.75176 177.148843 
L 189.159623 180.419845 
z
" style="stroke:#000000;"/>
    <path clip-path="url(#pcca2014044)" d="M 190.902137 174.074099 
L 189.159623 173.877842 
L 189.637784 170.642676 
z
" style="stroke:#000000;"/>
    <path clip-path="url(#pcca2014044)" d="M 190.75176 177.148843 
L 188.999656 177.148843 
L 189.159623 173.877842 
z
" style="stroke:#000000;"/>
    <path clip-path="url(#pcca2014044)" d="M 186.663518 163.379946 
L 191.043777 157.121357 
L 186.663518 166.509241 
z
" style="stroke:#000000;"/>
    <path clip-path="url(#pcca2014044)" d="M 191.043777 157.121357 
L 186.663518 163.379946 
L 189.583691 157.512519 
z
" style="stroke:#000000;"/>
    <path clip-path="url(#pcca2014044)" d="M 182.283259 157.121357 
L 186.663518 163.379946 
L 186.663518 166.509241 
z
" style="stroke:#000000;"/>
    <path clip-path="url(#pcca2014044)" d="M 186.663518 163.379946 
L 182.283259 157.121357 
L 183.743345 157.512519 
z
" style="stroke:#000000;"/>
    <path clip-path="url(#pcca2014044)" d="M 186.663518 153.992062 
L 189.583691 157.512519 
L 186.663518 155.556709 
z
" style="stroke:#000000;"/>
    <path clip-path="url(#pcca2014044)" d="M 189.583691 157.512519 
L 186.663518 153.992062 
L 191.043777 157.121357 
z
" style="stroke:#000000;"/>
    <path clip-path="url(#pcca2014044)" d="M 183.743345 157.512519 
L 186.663518 153.992062 
L 186.663518 155.556709 
z
" style="stroke:#000000;"/>
    <path clip-path="url(#pcca2014044)" d="M 186.663518 153.992062 
L 183.743345 157.512519 
L 182.283259 157.121357 
z
" style="stroke:#000000;"/>
    <path clip-path="url(#pcca2014044)" d="M 191.524274 189.876812 
L 190.432243 186.836564 
L 190.428894 186.81889 
z
" style="stroke:#000000;"/>
    <path clip-path="url(#pcca2014044)" d="M 194.576696 195.542338 
L 192.919153 192.822264 
L 192.911952 192.795318 
z
" style="stroke:#000000;"/>
    <path clip-path="url(#pcca2014044)" d="M 196.500272 198.087957 
L 194.58648 195.573546 
L 194.576696 195.542338 
z
" style="stroke:#000000;"/>
    <path clip-path="url(#pcca2014044)" d="M 196.500272 156.20973 
L 197.595391 155.02003 
L 197.580945 155.051642 
z
" style="stroke:#000000;"/>
    <path clip-path="url(#pcca2014044)" d="M 197.580945 199.246045 
L 196.51304 198.123114 
L 196.500272 198.087957 
z
" style="stroke:#000000;"/>
    <path clip-path="url(#pcca2014044)" d="M 192.911952 192.795318 
L 191.529322 189.89923 
L 191.524274 189.876812 
z
" style="stroke:#000000;"/>
    <path clip-path="url(#pcca2014044)" d="M 194.576696 158.755349 
L 196.51304 156.179916 
L 196.500272 156.20973 
z
" style="stroke:#000000;"/>
    <path clip-path="url(#pcca2014044)" d="M 192.911952 161.502369 
L 194.58648 158.729484 
L 194.576696 158.755349 
z
" style="stroke:#000000;"/>
    <path clip-path="url(#pcca2014044)" d="M 189.159623 173.877842 
L 189.639906 170.635254 
L 189.637784 170.642676 
z
" style="stroke:#000000;"/>
    <path clip-path="url(#pcca2014044)" d="M 190.428894 167.478797 
L 191.529322 164.4038 
L 191.524274 164.420875 
z
" style="stroke:#000000;"/>
    <path clip-path="url(#pcca2014044)" d="M 191.524274 164.420875 
L 192.919153 161.480766 
L 192.911952 161.502369 
z
" style="stroke:#000000;"/>
    <path clip-path="url(#pcca2014044)" d="M 190.428894 186.81889 
L 189.639906 183.667776 
L 189.637784 183.655011 
z
" style="stroke:#000000;"/>
    <path clip-path="url(#pcca2014044)" d="M 189.637784 183.655011 
L 189.161003 180.427591 
L 189.159623 180.419845 
z
" style="stroke:#000000;"/>
    <path clip-path="url(#pcca2014044)" d="M 189.159623 180.419845 
L 189.000788 177.151515 
L 188.999656 177.148843 
z
" style="stroke:#000000;"/>
    <path clip-path="url(#pcca2014044)" d="M 189.637784 170.642676 
L 190.432243 167.466465 
L 190.428894 167.478797 
z
" style="stroke:#000000;"/>
    <path clip-path="url(#pcca2014044)" d="M 188.999656 177.148843 
L 189.161003 173.875438 
L 189.159623 173.877842 
z
" style="stroke:#000000;"/>
    <path clip-path="url(#pcca2014044)" d="M 195.994171 159.858864 
L 194.438864 162.421011 
L 194.429308 162.441158 
z
" style="stroke:#000000;"/>
    <path clip-path="url(#pcca2014044)" d="M 190.902137 180.223588 
L 191.356379 183.276797 
L 191.351598 183.264637 
z
" style="stroke:#000000;"/>
    <path clip-path="url(#pcca2014044)" d="M 192.095238 186.238694 
L 193.132434 189.134384 
L 193.124903 189.113151 
z
" style="stroke:#000000;"/>
    <path clip-path="url(#pcca2014044)" d="M 194.429308 191.856529 
L 196.006154 194.468319 
L 195.994171 194.438823 
z
" style="stroke:#000000;"/>
    <path clip-path="url(#pcca2014044)" d="M 191.351598 171.03305 
L 190.90622 174.072 
L 190.902137 174.074099 
z
" style="stroke:#000000;"/>
    <path clip-path="url(#pcca2014044)" d="M 197.817131 196.864815 
L 199.145855 198.271333 
L 197.802342 196.831607 
z
" style="stroke:#000000;"/>
    <path clip-path="url(#pcca2014044)" d="M 191.351598 183.264637 
L 192.101172 186.255468 
L 192.095238 186.238694 
z
" style="stroke:#000000;"/>
    <path clip-path="url(#pcca2014044)" d="M 193.124903 189.113151 
L 194.438864 191.882019 
L 194.429308 191.856529 
z
" style="stroke:#000000;"/>
    <path clip-path="url(#pcca2014044)" d="M 199.162728 155.996255 
L 197.802342 157.46608 
L 199.145855 156.026354 
z
" style="stroke:#000000;"/>
    <path clip-path="url(#pcca2014044)" d="M 197.802342 157.46608 
L 196.006154 159.834711 
L 195.994171 159.858864 
z
" style="stroke:#000000;"/>
    <path clip-path="url(#pcca2014044)" d="M 193.124903 165.184536 
L 192.101172 168.047562 
L 192.095238 168.058993 
z
" style="stroke:#000000;"/>
    <path clip-path="url(#pcca2014044)" d="M 190.75176 177.148843 
L 190.90622 180.23103 
L 190.902137 180.223588 
z
" style="stroke:#000000;"/>
    <path clip-path="url(#pcca2014044)" d="M 195.994171 194.438823 
L 197.817131 196.864815 
L 197.802342 196.831607 
z
" style="stroke:#000000;"/>
    <path clip-path="url(#pcca2014044)" d="M 192.095238 168.058993 
L 191.356379 171.026233 
L 191.351598 171.03305 
z
" style="stroke:#000000;"/>
    <path clip-path="url(#pcca2014044)" d="M 190.902137 174.074099 
L 190.75561 177.151515 
L 190.75176 177.148843 
z
" style="stroke:#000000;"/>
    <path clip-path="url(#pcca2014044)" d="M 194.429308 162.441158 
L 193.132434 165.168645 
L 193.124903 165.184536 
z
" style="stroke:#000000;"/>
    <path clip-path="url(#pcca2014044)" d="M 181.802762 164.420875 
L 182.889808 167.466465 
L 182.898142 167.478797 
z
" style="stroke:#000000;"/>
    <path clip-path="url(#pcca2014044)" d="M 178.75034 158.755349 
L 180.402897 161.480766 
L 180.415084 161.502369 
z
" style="stroke:#000000;"/>
    <path clip-path="url(#pcca2014044)" d="M 176.826764 156.20973 
L 178.735571 158.729484 
L 178.75034 158.755349 
z
" style="stroke:#000000;"/>
    <path clip-path="url(#pcca2014044)" d="M 176.826764 198.087957 
L 175.72666 199.283 
L 175.746091 199.246045 
z
" style="stroke:#000000;"/>
    <path clip-path="url(#pcca2014044)" d="M 175.746091 155.051642 
L 176.80901 156.179916 
L 176.826764 156.20973 
z
" style="stroke:#000000;"/>
    <path clip-path="url(#pcca2014044)" d="M 180.415084 161.502369 
L 181.792728 164.4038 
L 181.802762 164.420875 
z
" style="stroke:#000000;"/>
    <path clip-path="url(#pcca2014044)" d="M 178.75034 195.542338 
L 176.80901 198.123114 
L 176.826764 198.087957 
z
" style="stroke:#000000;"/>
    <path clip-path="url(#pcca2014044)" d="M 180.415084 192.795318 
L 178.735571 195.573546 
L 178.75034 195.542338 
z
" style="stroke:#000000;"/>
    <path clip-path="url(#pcca2014044)" d="M 184.167413 180.419845 
L 183.682145 183.667776 
L 183.689252 183.655011 
z
" style="stroke:#000000;"/>
    <path clip-path="url(#pcca2014044)" d="M 182.898142 186.81889 
L 181.792728 189.89923 
L 181.802762 189.876812 
z
" style="stroke:#000000;"/>
    <path clip-path="url(#pcca2014044)" d="M 181.802762 189.876812 
L 180.402897 192.822264 
L 180.415084 192.795318 
z
" style="stroke:#000000;"/>
    <path clip-path="url(#pcca2014044)" d="M 182.898142 167.478797 
L 183.682145 170.635254 
L 183.689252 170.642676 
z
" style="stroke:#000000;"/>
    <path clip-path="url(#pcca2014044)" d="M 183.689252 170.642676 
L 184.161047 173.875438 
L 184.167413 173.877842 
z
" style="stroke:#000000;"/>
    <path clip-path="url(#pcca2014044)" d="M 184.167413 173.877842 
L 184.321263 177.151515 
L 184.32738 177.148843 
z
" style="stroke:#000000;"/>
    <path clip-path="url(#pcca2014044)" d="M 183.689252 183.655011 
L 182.889808 186.836564 
L 182.898142 186.81889 
z
" style="stroke:#000000;"/>
    <path clip-path="url(#pcca2014044)" d="M 184.32738 177.148843 
L 184.161047 180.427591 
L 184.167413 180.419845 
z
" style="stroke:#000000;"/>
    <path clip-path="url(#pcca2014044)" d="M 177.332865 194.438823 
L 178.883186 191.882019 
L 178.897728 191.856529 
z
" style="stroke:#000000;"/>
    <path clip-path="url(#pcca2014044)" d="M 182.424899 174.074099 
L 181.965672 171.026233 
L 181.975438 171.03305 
z
" style="stroke:#000000;"/>
    <path clip-path="url(#pcca2014044)" d="M 181.231798 168.058993 
L 180.189616 165.168645 
L 180.202133 165.184536 
z
" style="stroke:#000000;"/>
    <path clip-path="url(#pcca2014044)" d="M 178.897728 162.441158 
L 177.315896 159.834711 
L 177.332865 159.858864 
z
" style="stroke:#000000;"/>
    <path clip-path="url(#pcca2014044)" d="M 181.975438 183.264637 
L 182.41583 180.23103 
L 182.424899 180.223588 
z
" style="stroke:#000000;"/>
    <path clip-path="url(#pcca2014044)" d="M 175.50492 157.438214 
L 174.181181 156.026354 
L 175.524694 157.46608 
z
" style="stroke:#000000;"/>
    <path clip-path="url(#pcca2014044)" d="M 181.975438 171.03305 
L 181.220878 168.047562 
L 181.231798 168.058993 
z
" style="stroke:#000000;"/>
    <path clip-path="url(#pcca2014044)" d="M 180.202133 165.184536 
L 178.883186 162.421011 
L 178.897728 162.441158 
z
" style="stroke:#000000;"/>
    <path clip-path="url(#pcca2014044)" d="M 174.159322 198.306775 
L 175.524694 196.831607 
L 174.181181 198.271333 
z
" style="stroke:#000000;"/>
    <path clip-path="url(#pcca2014044)" d="M 175.524694 196.831607 
L 177.315896 194.468319 
L 177.332865 194.438823 
z
" style="stroke:#000000;"/>
    <path clip-path="url(#pcca2014044)" d="M 180.202133 189.113151 
L 181.220878 186.255468 
L 181.231798 186.238694 
z
" style="stroke:#000000;"/>
    <path clip-path="url(#pcca2014044)" d="M 182.575276 177.148843 
L 182.41583 174.072 
L 182.424899 174.074099 
z
" style="stroke:#000000;"/>
    <path clip-path="url(#pcca2014044)" d="M 177.332865 159.858864 
L 175.50492 157.438214 
L 175.524694 157.46608 
z
" style="stroke:#000000;"/>
    <path clip-path="url(#pcca2014044)" d="M 181.231798 186.238694 
L 181.965672 183.276797 
L 181.975438 183.264637 
z
" style="stroke:#000000;"/>
    <path clip-path="url(#pcca2014044)" d="M 182.424899 180.223588 
L 182.566441 177.151515 
L 182.575276 177.148843 
z
" style="stroke:#000000;"/>
    <path clip-path="url(#pcca2014044)" d="M 178.897728 191.856529 
L 180.189616 189.134384 
L 180.202133 189.113151 
z
" style="stroke:#000000;"/>
    <path clip-path="url(#pcca2014044)" d="M 174.159322 155.996255 
L 174.982827 155.468464 
L 174.181181 156.026354 
z
" style="stroke:#000000;"/>
    <path clip-path="url(#pcca2014044)" d="M 198.359838 155.437499 
L 199.145855 156.026354 
L 198.344209 155.468464 
z
" style="stroke:#000000;"/>
    <path clip-path="url(#pcca2014044)" d="M 175.72666 199.283 
L 174.982827 198.829223 
L 175.746091 199.246045 
z
" style="stroke:#000000;"/>
    <path clip-path="url(#pcca2014044)" d="M 197.595391 155.02003 
L 198.344209 155.468464 
L 197.580945 155.051642 
z
" style="stroke:#000000;"/>
    <path clip-path="url(#pcca2014044)" d="M 198.359838 198.865531 
L 197.580945 199.246045 
L 198.344209 198.829223 
z
" style="stroke:#000000;"/>
    <path clip-path="url(#pcca2014044)" d="M 174.962212 155.437499 
L 175.746091 155.051642 
L 174.982827 155.468464 
z
" style="stroke:#000000;"/>
    <path clip-path="url(#pcca2014044)" d="M 199.162728 198.306775 
L 198.344209 198.829223 
L 199.145855 198.271333 
z
" style="stroke:#000000;"/>
    <path clip-path="url(#pcca2014044)" d="M 174.962212 198.865531 
L 174.181181 198.271333 
L 174.982827 198.829223 
z
" style="stroke:#000000;"/>
    <path clip-path="url(#pcca2014044)" d="M 186.661025 153.958806 
L 191.043777 157.121357 
L 186.663518 153.992062 
z
" style="stroke:#000000;"/>
    <path clip-path="url(#pcca2014044)" d="M 182.27397 157.092956 
L 186.663518 153.992062 
L 182.283259 157.121357 
z
" style="stroke:#000000;"/>
    <path clip-path="url(#pcca2014044)" d="M 186.663518 166.509241 
L 182.27397 157.092956 
L 182.283259 157.121357 
z
" style="stroke:#000000;"/>
    <path clip-path="url(#pcca2014044)" d="M 191.043777 157.121357 
L 186.661025 166.495406 
L 186.663518 166.509241 
z
" style="stroke:#000000;"/>
    <path clip-path="url(#pcca2014044)" d="M 186.661025 155.525881 
L 183.743345 157.512519 
L 186.663518 155.556709 
z
" style="stroke:#000000;"/>
    <path clip-path="url(#pcca2014044)" d="M 189.585728 157.484725 
L 186.663518 155.556709 
L 189.583691 157.512519 
z
" style="stroke:#000000;"/>
    <path clip-path="url(#pcca2014044)" d="M 186.663518 163.379946 
L 189.585728 157.484725 
L 189.583691 157.512519 
z
" style="stroke:#000000;"/>
    <path clip-path="url(#pcca2014044)" d="M 183.743345 157.512519 
L 186.661025 163.361256 
L 186.663518 163.379946 
z
" style="stroke:#000000;"/>
    <path clip-path="url(#pcca2014044)" d="M 190.432243 186.836564 
L 191.524274 189.876812 
L 191.529322 189.89923 
z
" style="stroke:#000000;"/>
    <path clip-path="url(#pcca2014044)" d="M 192.919153 192.822264 
L 194.576696 195.542338 
L 194.58648 195.573546 
z
" style="stroke:#000000;"/>
    <path clip-path="url(#pcca2014044)" d="M 194.58648 195.573546 
L 196.500272 198.087957 
L 196.51304 198.123114 
z
" style="stroke:#000000;"/>
    <path clip-path="url(#pcca2014044)" d="M 197.595391 155.02003 
L 196.500272 156.20973 
L 196.51304 156.179916 
z
" style="stroke:#000000;"/>
    <path clip-path="url(#pcca2014044)" d="M 196.51304 198.123114 
L 197.580945 199.246045 
L 197.595391 199.283 
z
" style="stroke:#000000;"/>
    <path clip-path="url(#pcca2014044)" d="M 191.529322 189.89923 
L 192.911952 192.795318 
L 192.919153 192.822264 
z
" style="stroke:#000000;"/>
    <path clip-path="url(#pcca2014044)" d="M 196.51304 156.179916 
L 194.576696 158.755349 
L 194.58648 158.729484 
z
" style="stroke:#000000;"/>
    <path clip-path="url(#pcca2014044)" d="M 194.58648 158.729484 
L 192.911952 161.502369 
L 192.919153 161.480766 
z
" style="stroke:#000000;"/>
    <path clip-path="url(#pcca2014044)" d="M 189.639906 170.635254 
L 189.159623 173.877842 
L 189.161003 173.875438 
z
" style="stroke:#000000;"/>
    <path clip-path="url(#pcca2014044)" d="M 191.529322 164.4038 
L 190.428894 167.478797 
L 190.432243 167.466465 
z
" style="stroke:#000000;"/>
    <path clip-path="url(#pcca2014044)" d="M 192.919153 161.480766 
L 191.524274 164.420875 
L 191.529322 164.4038 
z
" style="stroke:#000000;"/>
    <path clip-path="url(#pcca2014044)" d="M 189.639906 183.667776 
L 190.428894 186.81889 
L 190.432243 186.836564 
z
" style="stroke:#000000;"/>
    <path clip-path="url(#pcca2014044)" d="M 189.161003 180.427591 
L 189.637784 183.655011 
L 189.639906 183.667776 
z
" style="stroke:#000000;"/>
    <path clip-path="url(#pcca2014044)" d="M 189.000788 177.151515 
L 189.159623 180.419845 
L 189.161003 180.427591 
z
" style="stroke:#000000;"/>
    <path clip-path="url(#pcca2014044)" d="M 190.432243 167.466465 
L 189.637784 170.642676 
L 189.639906 170.635254 
z
" style="stroke:#000000;"/>
    <path clip-path="url(#pcca2014044)" d="M 189.161003 173.875438 
L 188.999656 177.148843 
L 189.000788 177.151515 
z
" style="stroke:#000000;"/>
    <path clip-path="url(#pcca2014044)" d="M 194.438864 162.421011 
L 195.994171 159.858864 
L 196.006154 159.834711 
z
" style="stroke:#000000;"/>
    <path clip-path="url(#pcca2014044)" d="M 191.356379 183.276797 
L 190.902137 180.223588 
L 190.90622 180.23103 
z
" style="stroke:#000000;"/>
    <path clip-path="url(#pcca2014044)" d="M 193.132434 189.134384 
L 192.095238 186.238694 
L 192.101172 186.255468 
z
" style="stroke:#000000;"/>
    <path clip-path="url(#pcca2014044)" d="M 196.006154 194.468319 
L 194.429308 191.856529 
L 194.438864 191.882019 
z
" style="stroke:#000000;"/>
    <path clip-path="url(#pcca2014044)" d="M 190.90622 174.072 
L 191.351598 171.03305 
L 191.356379 171.026233 
z
" style="stroke:#000000;"/>
    <path clip-path="url(#pcca2014044)" d="M 199.145855 198.271333 
L 197.817131 196.864815 
L 199.162728 198.306775 
z
" style="stroke:#000000;"/>
    <path clip-path="url(#pcca2014044)" d="M 192.101172 186.255468 
L 191.351598 183.264637 
L 191.356379 183.276797 
z
" style="stroke:#000000;"/>
    <path clip-path="url(#pcca2014044)" d="M 194.438864 191.882019 
L 193.124903 189.113151 
L 193.132434 189.134384 
z
" style="stroke:#000000;"/>
    <path clip-path="url(#pcca2014044)" d="M 197.802342 157.46608 
L 199.162728 155.996255 
L 197.817131 157.438214 
z
" style="stroke:#000000;"/>
    <path clip-path="url(#pcca2014044)" d="M 196.006154 159.834711 
L 197.802342 157.46608 
L 197.817131 157.438214 
z
" style="stroke:#000000;"/>
    <path clip-path="url(#pcca2014044)" d="M 192.101172 168.047562 
L 193.124903 165.184536 
L 193.132434 165.168645 
z
" style="stroke:#000000;"/>
    <path clip-path="url(#pcca2014044)" d="M 190.90622 180.23103 
L 190.75176 177.148843 
L 190.75561 177.151515 
z
" style="stroke:#000000;"/>
    <path clip-path="url(#pcca2014044)" d="M 197.817131 196.864815 
L 195.994171 194.438823 
L 196.006154 194.468319 
z
" style="stroke:#000000;"/>
    <path clip-path="url(#pcca2014044)" d="M 191.356379 171.026233 
L 192.095238 168.058993 
L 192.101172 168.047562 
z
" style="stroke:#000000;"/>
    <path clip-path="url(#pcca2014044)" d="M 190.75561 177.151515 
L 190.902137 174.074099 
L 190.90622 174.072 
z
" style="stroke:#000000;"/>
    <path clip-path="url(#pcca2014044)" d="M 193.132434 165.168645 
L 194.429308 162.441158 
L 194.438864 162.421011 
z
" style="stroke:#000000;"/>
    <path clip-path="url(#pcca2014044)" d="M 182.889808 167.466465 
L 181.802762 164.420875 
L 181.792728 164.4038 
z
" style="stroke:#000000;"/>
    <path clip-path="url(#pcca2014044)" d="M 180.402897 161.480766 
L 178.75034 158.755349 
L 178.735571 158.729484 
z
" style="stroke:#000000;"/>
    <path clip-path="url(#pcca2014044)" d="M 178.735571 158.729484 
L 176.826764 156.20973 
L 176.80901 156.179916 
z
" style="stroke:#000000;"/>
    <path clip-path="url(#pcca2014044)" d="M 175.72666 199.283 
L 176.826764 198.087957 
L 176.80901 198.123114 
z
" style="stroke:#000000;"/>
    <path clip-path="url(#pcca2014044)" d="M 176.80901 156.179916 
L 175.746091 155.051642 
L 175.72666 155.02003 
z
" style="stroke:#000000;"/>
    <path clip-path="url(#pcca2014044)" d="M 181.792728 164.4038 
L 180.415084 161.502369 
L 180.402897 161.480766 
z
" style="stroke:#000000;"/>
    <path clip-path="url(#pcca2014044)" d="M 176.80901 198.123114 
L 178.75034 195.542338 
L 178.735571 195.573546 
z
" style="stroke:#000000;"/>
    <path clip-path="url(#pcca2014044)" d="M 178.735571 195.573546 
L 180.415084 192.795318 
L 180.402897 192.822264 
z
" style="stroke:#000000;"/>
    <path clip-path="url(#pcca2014044)" d="M 183.682145 183.667776 
L 184.167413 180.419845 
L 184.161047 180.427591 
z
" style="stroke:#000000;"/>
    <path clip-path="url(#pcca2014044)" d="M 181.792728 189.89923 
L 182.898142 186.81889 
L 182.889808 186.836564 
z
" style="stroke:#000000;"/>
    <path clip-path="url(#pcca2014044)" d="M 180.402897 192.822264 
L 181.802762 189.876812 
L 181.792728 189.89923 
z
" style="stroke:#000000;"/>
    <path clip-path="url(#pcca2014044)" d="M 183.682145 170.635254 
L 182.898142 167.478797 
L 182.889808 167.466465 
z
" style="stroke:#000000;"/>
    <path clip-path="url(#pcca2014044)" d="M 184.161047 173.875438 
L 183.689252 170.642676 
L 183.682145 170.635254 
z
" style="stroke:#000000;"/>
    <path clip-path="url(#pcca2014044)" d="M 184.321263 177.151515 
L 184.167413 173.877842 
L 184.161047 173.875438 
z
" style="stroke:#000000;"/>
    <path clip-path="url(#pcca2014044)" d="M 182.889808 186.836564 
L 183.689252 183.655011 
L 183.682145 183.667776 
z
" style="stroke:#000000;"/>
    <path clip-path="url(#pcca2014044)" d="M 184.161047 180.427591 
L 184.32738 177.148843 
L 184.321263 177.151515 
z
" style="stroke:#000000;"/>
    <path clip-path="url(#pcca2014044)" d="M 178.883186 191.882019 
L 177.332865 194.438823 
L 177.315896 194.468319 
z
" style="stroke:#000000;"/>
    <path clip-path="url(#pcca2014044)" d="M 181.965672 171.026233 
L 182.424899 174.074099 
L 182.41583 174.072 
z
" style="stroke:#000000;"/>
    <path clip-path="url(#pcca2014044)" d="M 180.189616 165.168645 
L 181.231798 168.058993 
L 181.220878 168.047562 
z
" style="stroke:#000000;"/>
    <path clip-path="url(#pcca2014044)" d="M 177.315896 159.834711 
L 178.897728 162.441158 
L 178.883186 162.421011 
z
" style="stroke:#000000;"/>
    <path clip-path="url(#pcca2014044)" d="M 182.41583 180.23103 
L 181.975438 183.264637 
L 181.965672 183.276797 
z
" style="stroke:#000000;"/>
    <path clip-path="url(#pcca2014044)" d="M 174.181181 156.026354 
L 175.50492 157.438214 
L 174.159322 155.996255 
z
" style="stroke:#000000;"/>
    <path clip-path="url(#pcca2014044)" d="M 181.220878 168.047562 
L 181.975438 171.03305 
L 181.965672 171.026233 
z
" style="stroke:#000000;"/>
    <path clip-path="url(#pcca2014044)" d="M 178.883186 162.421011 
L 180.202133 165.184536 
L 180.189616 165.168645 
z
" style="stroke:#000000;"/>
    <path clip-path="url(#pcca2014044)" d="M 175.524694 196.831607 
L 174.159322 198.306775 
L 175.50492 196.864815 
z
" style="stroke:#000000;"/>
    <path clip-path="url(#pcca2014044)" d="M 177.315896 194.468319 
L 175.524694 196.831607 
L 175.50492 196.864815 
z
" style="stroke:#000000;"/>
    <path clip-path="url(#pcca2014044)" d="M 181.220878 186.255468 
L 180.202133 189.113151 
L 180.189616 189.134384 
z
" style="stroke:#000000;"/>
    <path clip-path="url(#pcca2014044)" d="M 182.41583 174.072 
L 182.575276 177.148843 
L 182.566441 177.151515 
z
" style="stroke:#000000;"/>
    <path clip-path="url(#pcca2014044)" d="M 175.50492 157.438214 
L 177.332865 159.858864 
L 177.315896 159.834711 
z
" style="stroke:#000000;"/>
    <path clip-path="url(#pcca2014044)" d="M 181.965672 183.276797 
L 181.231798 186.238694 
L 181.220878 186.255468 
z
" style="stroke:#000000;"/>
    <path clip-path="url(#pcca2014044)" d="M 182.566441 177.151515 
L 182.424899 180.223588 
L 182.41583 180.23103 
z
" style="stroke:#000000;"/>
    <path clip-path="url(#pcca2014044)" d="M 180.189616 189.134384 
L 178.897728 191.856529 
L 178.883186 191.882019 
z
" style="stroke:#000000;"/>
    <path clip-path="url(#pcca2014044)" d="M 174.982827 155.468464 
L 174.159322 155.996255 
L 174.962212 155.437499 
z
" style="stroke:#000000;"/>
    <path clip-path="url(#pcca2014044)" d="M 199.145855 156.026354 
L 198.359838 155.437499 
L 199.162728 155.996255 
z
" style="stroke:#000000;"/>
    <path clip-path="url(#pcca2014044)" d="M 174.982827 198.829223 
L 175.72666 199.283 
L 174.962212 198.865531 
z
" style="stroke:#000000;"/>
    <path clip-path="url(#pcca2014044)" d="M 198.344209 155.468464 
L 197.595391 155.02003 
L 198.359838 155.437499 
z
" style="stroke:#000000;"/>
    <path clip-path="url(#pcca2014044)" d="M 197.580945 199.246045 
L 198.359838 198.865531 
L 197.595391 199.283 
z
" style="stroke:#000000;"/>
    <path clip-path="url(#pcca2014044)" d="M 175.746091 155.051642 
L 174.962212 155.437499 
L 175.72666 155.02003 
z
" style="stroke:#000000;"/>
    <path clip-path="url(#pcca2014044)" d="M 198.344209 198.829223 
L 199.162728 198.306775 
L 198.359838 198.865531 
z
" style="stroke:#000000;"/>
    <path clip-path="url(#pcca2014044)" d="M 174.181181 198.271333 
L 174.962212 198.865531 
L 174.159322 198.306775 
z
" style="stroke:#000000;"/>
    <path clip-path="url(#pcca2014044)" d="M 191.043777 157.121357 
L 186.661025 153.958806 
L 191.04808 157.092956 
z
" style="stroke:#000000;"/>
    <path clip-path="url(#pcca2014044)" d="M 186.663518 153.992062 
L 182.27397 157.092956 
L 186.661025 153.958806 
z
" style="stroke:#000000;"/>
    <path clip-path="url(#pcca2014044)" d="M 182.27397 157.092956 
L 186.663518 166.509241 
L 186.661025 166.495406 
z
" style="stroke:#000000;"/>
    <path clip-path="url(#pcca2014044)" d="M 186.661025 166.495406 
L 191.043777 157.121357 
L 191.04808 157.092956 
z
" style="stroke:#000000;"/>
    <path clip-path="url(#pcca2014044)" d="M 183.743345 157.512519 
L 186.661025 155.525881 
L 183.736322 157.484725 
z
" style="stroke:#000000;"/>
    <path clip-path="url(#pcca2014044)" d="M 186.663518 155.556709 
L 189.585728 157.484725 
L 186.661025 155.525881 
z
" style="stroke:#000000;"/>
    <path clip-path="url(#pcca2014044)" d="M 189.585728 157.484725 
L 186.663518 163.379946 
L 186.661025 163.361256 
z
" style="stroke:#000000;"/>
    <path clip-path="url(#pcca2014044)" d="M 186.661025 163.361256 
L 183.743345 157.512519 
L 183.736322 157.484725 
z
" style="stroke:#000000;"/>
    <path clip-path="url(#pcca2014044)" d="M 182.566441 177.151515 
L 184.321263 177.151515 
L 184.161047 173.875438 
z
" style="stroke:#000000;"/>
    <path clip-path="url(#pcca2014044)" d="M 182.41583 174.072 
L 184.161047 173.875438 
L 183.682145 170.635254 
z
" style="stroke:#000000;"/>
    <path clip-path="url(#pcca2014044)" d="M 184.321263 177.151515 
L 182.566441 177.151515 
L 184.161047 180.427591 
z
" style="stroke:#000000;"/>
    <path clip-path="url(#pcca2014044)" d="M 181.965672 171.026233 
L 183.682145 170.635254 
L 182.889808 167.466465 
z
" style="stroke:#000000;"/>
    <path clip-path="url(#pcca2014044)" d="M 182.41583 180.23103 
L 184.161047 180.427591 
L 182.566441 177.151515 
z
" style="stroke:#000000;"/>
    <path clip-path="url(#pcca2014044)" d="M 184.161047 180.427591 
L 182.41583 180.23103 
L 183.682145 183.667776 
z
" style="stroke:#000000;"/>
    <path clip-path="url(#pcca2014044)" d="M 184.161047 173.875438 
L 182.41583 174.072 
L 182.566441 177.151515 
z
" style="stroke:#000000;"/>
    <path clip-path="url(#pcca2014044)" d="M 183.682145 170.635254 
L 181.965672 171.026233 
L 182.41583 174.072 
z
" style="stroke:#000000;"/>
    <path clip-path="url(#pcca2014044)" d="M 181.220878 168.047562 
L 182.889808 167.466465 
L 181.792728 164.4038 
z
" style="stroke:#000000;"/>
    <path clip-path="url(#pcca2014044)" d="M 182.889808 167.466465 
L 181.220878 168.047562 
L 181.965672 171.026233 
z
" style="stroke:#000000;"/>
    <path clip-path="url(#pcca2014044)" d="M 180.189616 165.168645 
L 181.792728 164.4038 
L 180.402897 161.480766 
z
" style="stroke:#000000;"/>
    <path clip-path="url(#pcca2014044)" d="M 181.792728 164.4038 
L 180.189616 165.168645 
L 181.220878 168.047562 
z
" style="stroke:#000000;"/>
    <path clip-path="url(#pcca2014044)" d="M 180.402897 161.480766 
L 178.883186 162.421011 
L 180.189616 165.168645 
z
" style="stroke:#000000;"/>
    <path clip-path="url(#pcca2014044)" d="M 178.735571 158.729484 
L 178.883186 162.421011 
L 180.402897 161.480766 
z
" style="stroke:#000000;"/>
    <path clip-path="url(#pcca2014044)" d="M 178.735571 158.729484 
L 177.315896 159.834711 
L 178.883186 162.421011 
z
" style="stroke:#000000;"/>
    <path clip-path="url(#pcca2014044)" d="M 176.80901 156.179916 
L 177.315896 159.834711 
L 178.735571 158.729484 
z
" style="stroke:#000000;"/>
    <path clip-path="url(#pcca2014044)" d="M 174.962212 155.437499 
L 176.80901 156.179916 
L 175.72666 155.02003 
z
" style="stroke:#000000;"/>
    <path clip-path="url(#pcca2014044)" d="M 176.80901 156.179916 
L 175.50492 157.438214 
L 177.315896 159.834711 
z
" style="stroke:#000000;"/>
    <path clip-path="url(#pcca2014044)" d="M 176.80901 156.179916 
L 174.962212 155.437499 
L 175.50492 157.438214 
z
" style="stroke:#000000;"/>
    <path clip-path="url(#pcca2014044)" d="M 175.50492 157.438214 
L 174.962212 155.437499 
L 174.159322 155.996255 
z
" style="stroke:#000000;"/>
    <path clip-path="url(#pcca2014044)" d="M 181.965672 183.276797 
L 183.682145 183.667776 
L 182.41583 180.23103 
z
" style="stroke:#000000;"/>
    <path clip-path="url(#pcca2014044)" d="M 183.682145 183.667776 
L 181.965672 183.276797 
L 182.889808 186.836564 
z
" style="stroke:#000000;"/>
    <path clip-path="url(#pcca2014044)" d="M 181.220878 186.255468 
L 182.889808 186.836564 
L 181.965672 183.276797 
z
" style="stroke:#000000;"/>
    <path clip-path="url(#pcca2014044)" d="M 182.889808 186.836564 
L 181.220878 186.255468 
L 181.792728 189.89923 
z
" style="stroke:#000000;"/>
    <path clip-path="url(#pcca2014044)" d="M 180.189616 189.134384 
L 181.792728 189.89923 
L 181.220878 186.255468 
z
" style="stroke:#000000;"/>
    <path clip-path="url(#pcca2014044)" d="M 181.792728 189.89923 
L 180.189616 189.134384 
L 180.402897 192.822264 
z
" style="stroke:#000000;"/>
    <path clip-path="url(#pcca2014044)" d="M 178.883186 191.882019 
L 180.402897 192.822264 
L 180.189616 189.134384 
z
" style="stroke:#000000;"/>
    <path clip-path="url(#pcca2014044)" d="M 178.883186 191.882019 
L 178.735571 195.573546 
L 180.402897 192.822264 
z
" style="stroke:#000000;"/>
    <path clip-path="url(#pcca2014044)" d="M 177.315896 194.468319 
L 178.735571 195.573546 
L 178.883186 191.882019 
z
" style="stroke:#000000;"/>
    <path clip-path="url(#pcca2014044)" d="M 177.315896 194.468319 
L 176.80901 198.123114 
L 178.735571 195.573546 
z
" style="stroke:#000000;"/>
    <path clip-path="url(#pcca2014044)" d="M 175.50492 196.864815 
L 176.80901 198.123114 
L 177.315896 194.468319 
z
" style="stroke:#000000;"/>
    <path clip-path="url(#pcca2014044)" d="M 174.962212 198.865531 
L 176.80901 198.123114 
L 175.50492 196.864815 
z
" style="stroke:#000000;"/>
    <path clip-path="url(#pcca2014044)" d="M 176.80901 198.123114 
L 174.962212 198.865531 
L 175.72666 199.283 
z
" style="stroke:#000000;"/>
    <path clip-path="url(#pcca2014044)" d="M 174.962212 198.865531 
L 175.50492 196.864815 
L 174.159322 198.306775 
z
" style="stroke:#000000;"/>
    <path clip-path="url(#pcca2014044)" d="M 198.359838 155.437499 
L 197.817131 157.438214 
L 199.162728 155.996255 
z
" style="stroke:#000000;"/>
    <path clip-path="url(#pcca2014044)" d="M 196.51304 156.179916 
L 198.359838 155.437499 
L 197.595391 155.02003 
z
" style="stroke:#000000;"/>
    <path clip-path="url(#pcca2014044)" d="M 198.359838 155.437499 
L 196.51304 156.179916 
L 197.817131 157.438214 
z
" style="stroke:#000000;"/>
    <path clip-path="url(#pcca2014044)" d="M 196.51304 156.179916 
L 196.006154 159.834711 
L 197.817131 157.438214 
z
" style="stroke:#000000;"/>
    <path clip-path="url(#pcca2014044)" d="M 194.58648 158.729484 
L 196.006154 159.834711 
L 196.51304 156.179916 
z
" style="stroke:#000000;"/>
    <path clip-path="url(#pcca2014044)" d="M 194.58648 158.729484 
L 194.438864 162.421011 
L 196.006154 159.834711 
z
" style="stroke:#000000;"/>
    <path clip-path="url(#pcca2014044)" d="M 192.919153 161.480766 
L 194.438864 162.421011 
L 194.58648 158.729484 
z
" style="stroke:#000000;"/>
    <path clip-path="url(#pcca2014044)" d="M 194.438864 162.421011 
L 192.919153 161.480766 
L 193.132434 165.168645 
z
" style="stroke:#000000;"/>
    <path clip-path="url(#pcca2014044)" d="M 191.529322 164.4038 
L 193.132434 165.168645 
L 192.919153 161.480766 
z
" style="stroke:#000000;"/>
    <path clip-path="url(#pcca2014044)" d="M 193.132434 165.168645 
L 191.529322 164.4038 
L 192.101172 168.047562 
z
" style="stroke:#000000;"/>
    <path clip-path="url(#pcca2014044)" d="M 190.432243 167.466465 
L 192.101172 168.047562 
L 191.529322 164.4038 
z
" style="stroke:#000000;"/>
    <path clip-path="url(#pcca2014044)" d="M 192.101172 168.047562 
L 190.432243 167.466465 
L 191.356379 171.026233 
z
" style="stroke:#000000;"/>
    <path clip-path="url(#pcca2014044)" d="M 191.356379 171.026233 
L 189.639906 170.635254 
L 190.90622 174.072 
z
" style="stroke:#000000;"/>
    <path clip-path="url(#pcca2014044)" d="M 189.639906 170.635254 
L 191.356379 171.026233 
L 190.432243 167.466465 
z
" style="stroke:#000000;"/>
    <path clip-path="url(#pcca2014044)" d="M 197.817131 196.864815 
L 198.359838 198.865531 
L 199.162728 198.306775 
z
" style="stroke:#000000;"/>
    <path clip-path="url(#pcca2014044)" d="M 196.51304 198.123114 
L 198.359838 198.865531 
L 197.817131 196.864815 
z
" style="stroke:#000000;"/>
    <path clip-path="url(#pcca2014044)" d="M 198.359838 198.865531 
L 196.51304 198.123114 
L 197.595391 199.283 
z
" style="stroke:#000000;"/>
    <path clip-path="url(#pcca2014044)" d="M 196.006154 194.468319 
L 196.51304 198.123114 
L 197.817131 196.864815 
z
" style="stroke:#000000;"/>
    <path clip-path="url(#pcca2014044)" d="M 196.006154 194.468319 
L 194.58648 195.573546 
L 196.51304 198.123114 
z
" style="stroke:#000000;"/>
    <path clip-path="url(#pcca2014044)" d="M 194.438864 191.882019 
L 194.58648 195.573546 
L 196.006154 194.468319 
z
" style="stroke:#000000;"/>
    <path clip-path="url(#pcca2014044)" d="M 192.919153 192.822264 
L 194.438864 191.882019 
L 193.132434 189.134384 
z
" style="stroke:#000000;"/>
    <path clip-path="url(#pcca2014044)" d="M 194.438864 191.882019 
L 192.919153 192.822264 
L 194.58648 195.573546 
z
" style="stroke:#000000;"/>
    <path clip-path="url(#pcca2014044)" d="M 191.529322 189.89923 
L 193.132434 189.134384 
L 192.101172 186.255468 
z
" style="stroke:#000000;"/>
    <path clip-path="url(#pcca2014044)" d="M 193.132434 189.134384 
L 191.529322 189.89923 
L 192.919153 192.822264 
z
" style="stroke:#000000;"/>
    <path clip-path="url(#pcca2014044)" d="M 190.432243 186.836564 
L 192.101172 186.255468 
L 191.356379 183.276797 
z
" style="stroke:#000000;"/>
    <path clip-path="url(#pcca2014044)" d="M 189.639906 183.667776 
L 191.356379 183.276797 
L 190.90622 180.23103 
z
" style="stroke:#000000;"/>
    <path clip-path="url(#pcca2014044)" d="M 192.101172 186.255468 
L 190.432243 186.836564 
L 191.529322 189.89923 
z
" style="stroke:#000000;"/>
    <path clip-path="url(#pcca2014044)" d="M 189.161003 180.427591 
L 190.90622 180.23103 
L 190.75561 177.151515 
z
" style="stroke:#000000;"/>
    <path clip-path="url(#pcca2014044)" d="M 189.161003 173.875438 
L 190.90622 174.072 
L 189.639906 170.635254 
z
" style="stroke:#000000;"/>
    <path clip-path="url(#pcca2014044)" d="M 190.90622 174.072 
L 189.161003 173.875438 
L 190.75561 177.151515 
z
" style="stroke:#000000;"/>
    <path clip-path="url(#pcca2014044)" d="M 191.356379 183.276797 
L 189.639906 183.667776 
L 190.432243 186.836564 
z
" style="stroke:#000000;"/>
    <path clip-path="url(#pcca2014044)" d="M 189.000788 177.151515 
L 190.75561 177.151515 
L 189.161003 173.875438 
z
" style="stroke:#000000;"/>
    <path clip-path="url(#pcca2014044)" d="M 190.90622 180.23103 
L 189.161003 180.427591 
L 189.639906 183.667776 
z
" style="stroke:#000000;"/>
    <path clip-path="url(#pcca2014044)" d="M 190.75561 177.151515 
L 189.000788 177.151515 
L 189.161003 180.427591 
z
" style="stroke:#000000;"/>
    <path clip-path="url(#pcca2014044)" d="M 186.661025 153.958806 
L 189.585728 157.484725 
L 191.04808 157.092956 
z
" style="stroke:#000000;"/>
    <path clip-path="url(#pcca2014044)" d="M 186.661025 153.958806 
L 186.661025 155.525881 
L 189.585728 157.484725 
z
" style="stroke:#000000;"/>
    <path clip-path="url(#pcca2014044)" d="M 186.661025 153.958806 
L 183.736322 157.484725 
L 186.661025 155.525881 
z
" style="stroke:#000000;"/>
    <path clip-path="url(#pcca2014044)" d="M 183.736322 157.484725 
L 186.661025 153.958806 
L 182.27397 157.092956 
z
" style="stroke:#000000;"/>
    <path clip-path="url(#pcca2014044)" d="M 186.661025 163.361256 
L 191.04808 157.092956 
L 189.585728 157.484725 
z
" style="stroke:#000000;"/>
    <path clip-path="url(#pcca2014044)" d="M 186.661025 163.361256 
L 186.661025 166.495406 
L 191.04808 157.092956 
z
" style="stroke:#000000;"/>
    <path clip-path="url(#pcca2014044)" d="M 182.27397 157.092956 
L 186.661025 163.361256 
L 183.736322 157.484725 
z
" style="stroke:#000000;"/>
    <path clip-path="url(#pcca2014044)" d="M 186.661025 163.361256 
L 182.27397 157.092956 
L 186.661025 166.495406 
z
" style="stroke:#000000;"/>
   </g>
  </g>
 </g>
 <defs>
  <clipPath id="pcca2014044">
   <rect height="271.8" width="279" x="45" y="43.2"/>
  </clipPath>
 </defs>
</svg>
