<?xml version="1.0" encoding="utf-8" standalone="no"?>
<!DOCTYPE svg PUBLIC "-//W3C//DTD SVG 1.1//EN"
  "http://www.w3.org/Graphics/SVG/1.1/DTD/svg11.dtd">
<!-- Created with matplotlib (https://matplotlib.org/) -->
<svg height="360pt" version="1.1" viewBox="0 0 360 360" width="360pt" xmlns="http://www.w3.org/2000/svg" xmlns:xlink="http://www.w3.org/1999/xlink">
 <defs>
  <style type="text/css">
*{stroke-linecap:butt;stroke-linejoin:round;}
  </style>
 </defs>
 <g id="figure_1">
  <g id="patch_1">
   <path d="M 0 360 
L 360 360 
L 360 0 
L 0 0 
z
" style="fill:#ffffff;"/>
  </g>
  <g id="patch_2">
   <path d="M 45 315 
L 324 315 
L 324 43.2 
L 45 43.2 
z
" style="fill:#ffffff;"/>
  </g>
  <g id="axes_1">
   <g id="Poly3DCollection_1">
    <path clip-path="url(#p3c0b665209)" d="M 175.438283 196.807826 
L 174.902275 198.802128 
L 174.109389 198.243303 
z
" style="stroke:#000000;"/>
    <path clip-path="url(#p3c0b665209)" d="M 174.902275 155.491572 
L 175.438283 157.486035 
L 174.109389 156.050159 
z
" style="stroke:#000000;"/>
    <path clip-path="url(#p3c0b665209)" d="M 176.72648 198.065329 
L 174.902275 198.802128 
L 175.438283 196.807826 
z
" style="stroke:#000000;"/>
    <path clip-path="url(#p3c0b665209)" d="M 174.902275 155.491572 
L 176.72648 156.22892 
L 175.438283 157.486035 
z
" style="stroke:#000000;"/>
    <path clip-path="url(#p3c0b665209)" d="M 174.902275 198.802128 
L 176.72648 198.065329 
L 175.6573 199.220038 
z
" style="stroke:#000000;"/>
    <path clip-path="url(#p3c0b665209)" d="M 176.72648 156.22892 
L 174.902275 155.491572 
L 175.6573 155.073889 
z
" style="stroke:#000000;"/>
    <path clip-path="url(#p3c0b665209)" d="M 176.72648 198.065329 
L 175.438283 196.807826 
L 177.227267 194.42067 
z
" style="stroke:#000000;"/>
    <path clip-path="url(#p3c0b665209)" d="M 175.438283 157.486035 
L 176.72648 156.22892 
L 177.227267 159.873729 
z
" style="stroke:#000000;"/>
    <path clip-path="url(#p3c0b665209)" d="M 176.72648 198.065329 
L 177.227267 194.42067 
L 178.630092 195.525595 
z
" style="stroke:#000000;"/>
    <path clip-path="url(#p3c0b665209)" d="M 177.227267 159.873729 
L 176.72648 156.22892 
L 178.630092 158.769226 
z
" style="stroke:#000000;"/>
    <path clip-path="url(#p3c0b665209)" d="M 178.630092 195.525595 
L 177.227267 194.42067 
L 178.775976 191.843063 
z
" style="stroke:#000000;"/>
    <path clip-path="url(#p3c0b665209)" d="M 177.227267 159.873729 
L 178.630092 158.769226 
L 178.775976 162.451801 
z
" style="stroke:#000000;"/>
    <path clip-path="url(#p3c0b665209)" d="M 178.630092 195.525595 
L 178.775976 191.843063 
L 180.27807 192.783359 
z
" style="stroke:#000000;"/>
    <path clip-path="url(#p3c0b665209)" d="M 178.775976 162.451801 
L 178.630092 158.769226 
L 180.27807 161.511957 
z
" style="stroke:#000000;"/>
    <path clip-path="url(#p3c0b665209)" d="M 180.27807 192.783359 
L 178.775976 191.843063 
L 180.067237 189.103476 
z
" style="stroke:#000000;"/>
    <path clip-path="url(#p3c0b665209)" d="M 178.775976 162.451801 
L 180.27807 161.511957 
L 180.067237 165.191777 
z
" style="stroke:#000000;"/>
    <path clip-path="url(#p3c0b665209)" d="M 173.782613 156.020391 
L 174.902275 155.491572 
L 174.109389 156.050159 
z
" style="stroke:#000000;"/>
    <path clip-path="url(#p3c0b665209)" d="M 173.782613 198.278355 
L 175.438283 196.807826 
L 174.109389 198.243303 
z
" style="stroke:#000000;"/>
    <path clip-path="url(#p3c0b665209)" d="M 174.576695 198.838041 
L 174.109389 198.243303 
L 174.902275 198.802128 
z
" style="stroke:#000000;"/>
    <path clip-path="url(#p3c0b665209)" d="M 180.067237 189.103476 
L 181.652134 189.868596 
L 180.27807 192.783359 
z
" style="stroke:#000000;"/>
    <path clip-path="url(#p3c0b665209)" d="M 181.652134 164.427133 
L 180.067237 165.191777 
L 180.27807 161.511957 
z
" style="stroke:#000000;"/>
    <path clip-path="url(#p3c0b665209)" d="M 175.113511 157.458469 
L 174.109389 156.050159 
L 175.438283 157.486035 
z
" style="stroke:#000000;"/>
    <path clip-path="url(#p3c0b665209)" d="M 181.652134 189.868596 
L 180.067237 189.103476 
L 181.086732 186.232013 
z
" style="stroke:#000000;"/>
    <path clip-path="url(#p3c0b665209)" d="M 180.067237 165.191777 
L 181.652134 164.427133 
L 181.086732 168.063546 
z
" style="stroke:#000000;"/>
    <path clip-path="url(#p3c0b665209)" d="M 174.576695 155.460943 
L 175.6573 155.073889 
L 174.902275 155.491572 
z
" style="stroke:#000000;"/>
    <path clip-path="url(#p3c0b665209)" d="M 175.332859 199.256595 
L 174.902275 198.802128 
L 175.6573 199.220038 
z
" style="stroke:#000000;"/>
    <path clip-path="url(#p3c0b665209)" d="M 181.086732 186.232013 
L 182.737001 186.813492 
L 181.652134 189.868596 
z
" style="stroke:#000000;"/>
    <path clip-path="url(#p3c0b665209)" d="M 182.737001 167.482563 
L 181.086732 168.063546 
L 181.652134 164.427133 
z
" style="stroke:#000000;"/>
    <path clip-path="url(#p3c0b665209)" d="M 176.72648 198.065329 
L 175.332859 199.256595 
L 175.6573 199.220038 
z
" style="stroke:#000000;"/>
    <path clip-path="url(#p3c0b665209)" d="M 182.737001 186.813492 
L 181.086732 186.232013 
L 181.823139 183.260298 
z
" style="stroke:#000000;"/>
    <path clip-path="url(#p3c0b665209)" d="M 181.086732 168.063546 
L 182.737001 167.482563 
L 181.823139 171.035482 
z
" style="stroke:#000000;"/>
    <path clip-path="url(#p3c0b665209)" d="M 177.227267 159.873729 
L 175.113511 157.458469 
L 175.438283 157.486035 
z
" style="stroke:#000000;"/>
    <path clip-path="url(#p3c0b665209)" d="M 175.6573 155.073889 
L 176.403651 156.199419 
L 176.72648 156.22892 
z
" style="stroke:#000000;"/>
    <path clip-path="url(#p3c0b665209)" d="M 175.438283 196.807826 
L 176.905193 194.449857 
L 177.227267 194.42067 
z
" style="stroke:#000000;"/>
    <path clip-path="url(#p3c0b665209)" d="M 183.520646 183.651675 
L 181.823139 183.260298 
L 182.268275 180.221119 
z
" style="stroke:#000000;"/>
    <path clip-path="url(#p3c0b665209)" d="M 181.823139 171.035482 
L 183.520646 170.644616 
L 182.268275 174.074795 
z
" style="stroke:#000000;"/>
    <path clip-path="url(#p3c0b665209)" d="M 181.823139 183.260298 
L 183.520646 183.651675 
L 182.737001 186.813492 
z
" style="stroke:#000000;"/>
    <path clip-path="url(#p3c0b665209)" d="M 183.520646 170.644616 
L 181.823139 171.035482 
L 182.737001 167.482563 
z
" style="stroke:#000000;"/>
    <path clip-path="url(#p3c0b665209)" d="M 182.268275 174.074795 
L 183.994347 173.878406 
L 182.417213 177.14798 
z
" style="stroke:#000000;"/>
    <path clip-path="url(#p3c0b665209)" d="M 183.994347 180.418027 
L 182.268275 180.221119 
L 182.417213 177.14798 
z
" style="stroke:#000000;"/>
    <path clip-path="url(#p3c0b665209)" d="M 178.630092 195.525595 
L 176.403651 198.100115 
L 176.72648 198.065329 
z
" style="stroke:#000000;"/>
    <path clip-path="url(#p3c0b665209)" d="M 182.268275 180.221119 
L 183.994347 180.418027 
L 183.520646 183.651675 
z
" style="stroke:#000000;"/>
    <path clip-path="url(#p3c0b665209)" d="M 183.994347 173.878406 
L 182.268275 174.074795 
L 183.520646 170.644616 
z
" style="stroke:#000000;"/>
    <path clip-path="url(#p3c0b665209)" d="M 182.417213 177.14798 
L 184.152831 177.14824 
L 183.994347 180.418027 
z
" style="stroke:#000000;"/>
    <path clip-path="url(#p3c0b665209)" d="M 184.152831 177.14824 
L 182.417213 177.14798 
L 183.994347 173.878406 
z
" style="stroke:#000000;"/>
    <path clip-path="url(#p3c0b665209)" d="M 178.775976 162.451801 
L 176.905193 159.849828 
L 177.227267 159.873729 
z
" style="stroke:#000000;"/>
    <path clip-path="url(#p3c0b665209)" d="M 176.72648 156.22892 
L 178.310135 158.743625 
L 178.630092 158.769226 
z
" style="stroke:#000000;"/>
    <path clip-path="url(#p3c0b665209)" d="M 186.467808 153.995238 
L 183.574233 157.519698 
L 182.127994 157.131004 
z
" style="stroke:#000000;"/>
    <path clip-path="url(#p3c0b665209)" d="M 186.467808 163.381731 
L 182.127994 157.131004 
L 183.574233 157.519698 
z
" style="stroke:#000000;"/>
    <path clip-path="url(#p3c0b665209)" d="M 177.227267 194.42067 
L 178.456239 191.868293 
L 178.775976 191.843063 
z
" style="stroke:#000000;"/>
    <path clip-path="url(#p3c0b665209)" d="M 182.127994 157.131004 
L 186.467808 163.381731 
L 186.467808 166.510562 
z
" style="stroke:#000000;"/>
    <path clip-path="url(#p3c0b665209)" d="M 180.27807 192.783359 
L 178.310135 195.556484 
L 178.630092 195.525595 
z
" style="stroke:#000000;"/>
    <path clip-path="url(#p3c0b665209)" d="M 180.067237 165.191777 
L 178.456239 162.43186 
L 178.775976 162.451801 
z
" style="stroke:#000000;"/>
    <path clip-path="url(#p3c0b665209)" d="M 178.775976 191.843063 
L 179.749448 189.124498 
L 180.067237 189.103476 
z
" style="stroke:#000000;"/>
    <path clip-path="url(#p3c0b665209)" d="M 183.574233 157.519698 
L 186.467808 153.995238 
L 186.467808 155.559653 
z
" style="stroke:#000000;"/>
    <path clip-path="url(#p3c0b665209)" d="M 178.630092 158.769226 
L 179.960599 161.490568 
L 180.27807 161.511957 
z
" style="stroke:#000000;"/>
    <path clip-path="url(#p3c0b665209)" d="M 174.109389 198.243303 
L 174.576695 198.838041 
L 173.782613 198.278355 
z
" style="stroke:#000000;"/>
    <path clip-path="url(#p3c0b665209)" d="M 174.109389 156.050159 
L 175.113511 157.458469 
L 173.782613 156.020391 
z
" style="stroke:#000000;"/>
    <path clip-path="url(#p3c0b665209)" d="M 181.086732 168.063546 
L 179.749448 165.176044 
L 180.067237 165.191777 
z
" style="stroke:#000000;"/>
    <path clip-path="url(#p3c0b665209)" d="M 174.902275 155.491572 
L 173.782613 156.020391 
L 174.576695 155.460943 
z
" style="stroke:#000000;"/>
    <path clip-path="url(#p3c0b665209)" d="M 181.652134 189.868596 
L 179.960599 192.810038 
L 180.27807 192.783359 
z
" style="stroke:#000000;"/>
    <path clip-path="url(#p3c0b665209)" d="M 180.067237 189.103476 
L 180.770482 186.248623 
L 181.086732 186.232013 
z
" style="stroke:#000000;"/>
    <path clip-path="url(#p3c0b665209)" d="M 175.438283 196.807826 
L 173.782613 198.278355 
L 175.113511 196.840677 
z
" style="stroke:#000000;"/>
    <path clip-path="url(#p3c0b665209)" d="M 174.902275 198.802128 
L 175.332859 199.256595 
L 174.576695 198.838041 
z
" style="stroke:#000000;"/>
    <path clip-path="url(#p3c0b665209)" d="M 180.27807 161.511957 
L 181.336738 164.410223 
L 181.652134 164.427133 
z
" style="stroke:#000000;"/>
    <path clip-path="url(#p3c0b665209)" d="M 175.6573 155.073889 
L 174.576695 155.460943 
L 175.332859 155.042617 
z
" style="stroke:#000000;"/>
    <path clip-path="url(#p3c0b665209)" d="M 181.823139 171.035482 
L 180.770482 168.052227 
L 181.086732 168.063546 
z
" style="stroke:#000000;"/>
    <path clip-path="url(#p3c0b665209)" d="M 186.467808 153.995238 
L 189.362845 157.510645 
L 186.467808 155.559653 
z
" style="stroke:#000000;"/>
    <path clip-path="url(#p3c0b665209)" d="M 181.086732 186.232013 
L 181.508001 183.27234 
L 181.823139 183.260298 
z
" style="stroke:#000000;"/>
    <path clip-path="url(#p3c0b665209)" d="M 176.403651 156.199419 
L 175.6573 155.073889 
L 175.332859 155.042617 
z
" style="stroke:#000000;"/>
    <path clip-path="url(#p3c0b665209)" d="M 176.905193 194.449857 
L 175.438283 196.807826 
L 175.113511 196.840677 
z
" style="stroke:#000000;"/>
    <path clip-path="url(#p3c0b665209)" d="M 182.268275 174.074795 
L 181.508001 171.028731 
L 181.823139 171.035482 
z
" style="stroke:#000000;"/>
    <path clip-path="url(#p3c0b665209)" d="M 182.737001 186.813492 
L 181.336738 189.890797 
L 181.652134 189.868596 
z
" style="stroke:#000000;"/>
    <path clip-path="url(#p3c0b665209)" d="M 186.467808 163.381731 
L 190.810913 157.117128 
L 186.467808 166.510562 
z
" style="stroke:#000000;"/>
    <path clip-path="url(#p3c0b665209)" d="M 181.823139 183.260298 
L 181.953809 180.22849 
L 182.268275 180.221119 
z
" style="stroke:#000000;"/>
    <path clip-path="url(#p3c0b665209)" d="M 175.332859 199.256595 
L 176.72648 198.065329 
L 176.403651 198.100115 
z
" style="stroke:#000000;"/>
    <path clip-path="url(#p3c0b665209)" d="M 182.417213 177.14798 
L 181.953809 174.072716 
L 182.268275 174.074795 
z
" style="stroke:#000000;"/>
    <path clip-path="url(#p3c0b665209)" d="M 182.268275 180.221119 
L 182.102971 177.150625 
L 182.417213 177.14798 
z
" style="stroke:#000000;"/>
    <path clip-path="url(#p3c0b665209)" d="M 181.652134 164.427133 
L 182.423243 167.470349 
L 182.737001 167.482563 
z
" style="stroke:#000000;"/>
    <path clip-path="url(#p3c0b665209)" d="M 175.113511 157.458469 
L 177.227267 159.873729 
L 176.905193 159.849828 
z
" style="stroke:#000000;"/>
    <path clip-path="url(#p3c0b665209)" d="M 183.520646 183.651675 
L 182.423243 186.830998 
L 182.737001 186.813492 
z
" style="stroke:#000000;"/>
    <path clip-path="url(#p3c0b665209)" d="M 190.810913 157.117128 
L 186.467808 163.381731 
L 189.362845 157.510645 
z
" style="stroke:#000000;"/>
    <path clip-path="url(#p3c0b665209)" d="M 189.362845 157.510645 
L 186.467808 153.995238 
L 190.810913 157.117128 
z
" style="stroke:#000000;"/>
    <path clip-path="url(#p3c0b665209)" d="M 178.310135 158.743625 
L 176.72648 156.22892 
L 176.403651 156.199419 
z
" style="stroke:#000000;"/>
    <path clip-path="url(#p3c0b665209)" d="M 182.737001 167.482563 
L 183.208072 170.637263 
L 183.520646 170.644616 
z
" style="stroke:#000000;"/>
    <path clip-path="url(#p3c0b665209)" d="M 188.783721 177.148936 
L 190.52127 177.149198 
L 188.942337 180.420184 
z
" style="stroke:#000000;"/>
    <path clip-path="url(#p3c0b665209)" d="M 190.52127 177.149198 
L 188.783721 177.148936 
L 188.942337 173.877737 
z
" style="stroke:#000000;"/>
    <path clip-path="url(#p3c0b665209)" d="M 181.813316 157.102877 
L 186.467808 153.995238 
L 182.127994 157.131004 
z
" style="stroke:#000000;"/>
    <path clip-path="url(#p3c0b665209)" d="M 186.467808 166.510562 
L 181.813316 157.102877 
L 182.127994 157.131004 
z
" style="stroke:#000000;"/>
    <path clip-path="url(#p3c0b665209)" d="M 178.456239 191.868293 
L 177.227267 194.42067 
L 176.905193 194.449857 
z
" style="stroke:#000000;"/>
    <path clip-path="url(#p3c0b665209)" d="M 183.994347 180.418027 
L 183.208072 183.66432 
L 183.520646 183.651675 
z
" style="stroke:#000000;"/>
    <path clip-path="url(#p3c0b665209)" d="M 188.942337 180.420184 
L 190.670423 180.224637 
L 189.416487 183.65591 
z
" style="stroke:#000000;"/>
    <path clip-path="url(#p3c0b665209)" d="M 190.670423 174.073803 
L 188.942337 173.877737 
L 189.416487 170.642154 
z
" style="stroke:#000000;"/>
    <path clip-path="url(#p3c0b665209)" d="M 183.520646 170.644616 
L 183.682488 173.876025 
L 183.994347 173.878406 
z
" style="stroke:#000000;"/>
    <path clip-path="url(#p3c0b665209)" d="M 176.403651 198.100115 
L 178.630092 195.525595 
L 178.310135 195.556484 
z
" style="stroke:#000000;"/>
    <path clip-path="url(#p3c0b665209)" d="M 184.152831 177.14824 
L 183.682488 180.425702 
L 183.994347 180.418027 
z
" style="stroke:#000000;"/>
    <path clip-path="url(#p3c0b665209)" d="M 183.994347 173.878406 
L 183.841211 177.150887 
L 184.152831 177.14824 
z
" style="stroke:#000000;"/>
    <path clip-path="url(#p3c0b665209)" d="M 176.905193 159.849828 
L 178.775976 162.451801 
L 178.456239 162.43186 
z
" style="stroke:#000000;"/>
    <path clip-path="url(#p3c0b665209)" d="M 188.942337 173.877737 
L 190.670423 174.073803 
L 190.52127 177.149198 
z
" style="stroke:#000000;"/>
    <path clip-path="url(#p3c0b665209)" d="M 190.670423 180.224637 
L 188.942337 180.420184 
L 190.52127 177.149198 
z
" style="stroke:#000000;"/>
    <path clip-path="url(#p3c0b665209)" d="M 189.416487 183.65591 
L 191.116247 183.266656 
L 190.201046 186.820915 
z
" style="stroke:#000000;"/>
    <path clip-path="url(#p3c0b665209)" d="M 191.116247 171.031918 
L 189.416487 170.642154 
L 190.201046 167.477384 
z
" style="stroke:#000000;"/>
    <path clip-path="url(#p3c0b665209)" d="M 191.116247 183.266656 
L 189.416487 183.65591 
L 190.670423 180.224637 
z
" style="stroke:#000000;"/>
    <path clip-path="url(#p3c0b665209)" d="M 189.416487 170.642154 
L 191.116247 171.031918 
L 190.670423 174.073803 
z
" style="stroke:#000000;"/>
    <path clip-path="url(#p3c0b665209)" d="M 179.960599 161.490568 
L 178.630092 158.769226 
L 178.310135 158.743625 
z
" style="stroke:#000000;"/>
    <path clip-path="url(#p3c0b665209)" d="M 179.749448 189.124498 
L 178.775976 191.843063 
L 178.456239 191.868293 
z
" style="stroke:#000000;"/>
    <path clip-path="url(#p3c0b665209)" d="M 191.853945 186.242176 
L 190.201046 186.820915 
L 191.116247 183.266656 
z
" style="stroke:#000000;"/>
    <path clip-path="url(#p3c0b665209)" d="M 190.201046 167.477384 
L 191.853945 168.05662 
L 191.116247 171.031918 
z
" style="stroke:#000000;"/>
    <path clip-path="url(#p3c0b665209)" d="M 190.201046 186.820915 
L 191.853945 186.242176 
L 191.287534 189.880751 
z
" style="stroke:#000000;"/>
    <path clip-path="url(#p3c0b665209)" d="M 191.853945 168.05662 
L 190.201046 167.477384 
L 191.287534 164.417875 
z
" style="stroke:#000000;"/>
    <path clip-path="url(#p3c0b665209)" d="M 178.456239 162.43186 
L 180.067237 165.191777 
L 179.749448 165.176044 
z
" style="stroke:#000000;"/>
    <path clip-path="url(#p3c0b665209)" d="M 186.159685 155.529098 
L 183.574233 157.519698 
L 186.467808 155.559653 
z
" style="stroke:#000000;"/>
    <path clip-path="url(#p3c0b665209)" d="M 183.574233 157.519698 
L 186.159685 163.363206 
L 186.467808 163.381731 
z
" style="stroke:#000000;"/>
    <path clip-path="url(#p3c0b665209)" d="M 178.310135 195.556484 
L 180.27807 192.783359 
L 179.960599 192.810038 
z
" style="stroke:#000000;"/>
    <path clip-path="url(#p3c0b665209)" d="M 192.87554 189.118779 
L 191.287534 189.880751 
L 191.853945 186.242176 
z
" style="stroke:#000000;"/>
    <path clip-path="url(#p3c0b665209)" d="M 191.287534 164.417875 
L 192.87554 165.180324 
L 191.853945 168.05662 
z
" style="stroke:#000000;"/>
    <path clip-path="url(#p3c0b665209)" d="M 180.770482 186.248623 
L 180.067237 189.103476 
L 179.749448 189.124498 
z
" style="stroke:#000000;"/>
    <path clip-path="url(#p3c0b665209)" d="M 191.287534 189.880751 
L 192.87554 189.118779 
L 192.664244 192.802139 
z
" style="stroke:#000000;"/>
    <path clip-path="url(#p3c0b665209)" d="M 192.87554 165.180324 
L 191.287534 164.417875 
L 192.664244 161.4969 
z
" style="stroke:#000000;"/>
    <path clip-path="url(#p3c0b665209)" d="M 175.113511 157.458469 
L 174.576695 155.460943 
L 173.782613 156.020391 
z
" style="stroke:#000000;"/>
    <path clip-path="url(#p3c0b665209)" d="M 174.576695 198.838041 
L 175.113511 196.840677 
L 173.782613 198.278355 
z
" style="stroke:#000000;"/>
    <path clip-path="url(#p3c0b665209)" d="M 181.336738 164.410223 
L 180.27807 161.511957 
L 179.960599 161.490568 
z
" style="stroke:#000000;"/>
    <path clip-path="url(#p3c0b665209)" d="M 179.749448 165.176044 
L 181.086732 168.063546 
L 180.770482 168.052227 
z
" style="stroke:#000000;"/>
    <path clip-path="url(#p3c0b665209)" d="M 179.960599 192.810038 
L 181.652134 189.868596 
L 181.336738 189.890797 
z
" style="stroke:#000000;"/>
    <path clip-path="url(#p3c0b665209)" d="M 181.508001 183.27234 
L 181.086732 186.232013 
L 180.770482 186.248623 
z
" style="stroke:#000000;"/>
    <path clip-path="url(#p3c0b665209)" d="M 194.169985 191.865142 
L 192.664244 192.802139 
L 192.87554 189.118779 
z
" style="stroke:#000000;"/>
    <path clip-path="url(#p3c0b665209)" d="M 192.664244 161.4969 
L 194.169985 162.43435 
L 192.87554 165.180324 
z
" style="stroke:#000000;"/>
    <path clip-path="url(#p3c0b665209)" d="M 176.403651 156.199419 
L 174.576695 155.460943 
L 175.113511 157.458469 
z
" style="stroke:#000000;"/>
    <path clip-path="url(#p3c0b665209)" d="M 174.576695 198.838041 
L 176.403651 198.100115 
L 175.113511 196.840677 
z
" style="stroke:#000000;"/>
    <path clip-path="url(#p3c0b665209)" d="M 180.770482 168.052227 
L 181.823139 171.035482 
L 181.508001 171.028731 
z
" style="stroke:#000000;"/>
    <path clip-path="url(#p3c0b665209)" d="M 174.576695 155.460943 
L 176.403651 156.199419 
L 175.332859 155.042617 
z
" style="stroke:#000000;"/>
    <path clip-path="url(#p3c0b665209)" d="M 176.403651 198.100115 
L 174.576695 198.838041 
L 175.332859 199.256595 
z
" style="stroke:#000000;"/>
    <path clip-path="url(#p3c0b665209)" d="M 181.953809 180.22849 
L 181.823139 183.260298 
L 181.508001 183.27234 
z
" style="stroke:#000000;"/>
    <path clip-path="url(#p3c0b665209)" d="M 192.664244 192.802139 
L 194.169985 191.865142 
L 194.316265 195.55314 
z
" style="stroke:#000000;"/>
    <path clip-path="url(#p3c0b665209)" d="M 194.169985 162.43435 
L 192.664244 161.4969 
L 194.316265 158.746397 
z
" style="stroke:#000000;"/>
    <path clip-path="url(#p3c0b665209)" d="M 182.423243 167.470349 
L 181.652134 164.427133 
L 181.336738 164.410223 
z
" style="stroke:#000000;"/>
    <path clip-path="url(#p3c0b665209)" d="M 186.159685 153.962277 
L 190.810913 157.117128 
L 186.467808 153.995238 
z
" style="stroke:#000000;"/>
    <path clip-path="url(#p3c0b665209)" d="M 190.810913 157.117128 
L 186.159685 166.496849 
L 186.467808 166.510562 
z
" style="stroke:#000000;"/>
    <path clip-path="url(#p3c0b665209)" d="M 181.508001 171.028731 
L 182.268275 174.074795 
L 181.953809 174.072716 
z
" style="stroke:#000000;"/>
    <path clip-path="url(#p3c0b665209)" d="M 176.403651 156.199419 
L 175.113511 157.458469 
L 176.905193 159.849828 
z
" style="stroke:#000000;"/>
    <path clip-path="url(#p3c0b665209)" d="M 175.113511 196.840677 
L 176.403651 198.100115 
L 176.905193 194.449857 
z
" style="stroke:#000000;"/>
    <path clip-path="url(#p3c0b665209)" d="M 182.102971 177.150625 
L 182.268275 180.221119 
L 181.953809 180.22849 
z
" style="stroke:#000000;"/>
    <path clip-path="url(#p3c0b665209)" d="M 181.953809 174.072716 
L 182.417213 177.14798 
L 182.102971 177.150625 
z
" style="stroke:#000000;"/>
    <path clip-path="url(#p3c0b665209)" d="M 181.336738 189.890797 
L 182.737001 186.813492 
L 182.423243 186.830998 
z
" style="stroke:#000000;"/>
    <path clip-path="url(#p3c0b665209)" d="M 189.059098 157.483084 
L 186.467808 155.559653 
L 189.362845 157.510645 
z
" style="stroke:#000000;"/>
    <path clip-path="url(#p3c0b665209)" d="M 186.467808 163.381731 
L 189.059098 157.483084 
L 189.362845 157.510645 
z
" style="stroke:#000000;"/>
    <path clip-path="url(#p3c0b665209)" d="M 188.942337 180.420184 
L 188.479098 177.151585 
L 188.783721 177.148936 
z
" style="stroke:#000000;"/>
    <path clip-path="url(#p3c0b665209)" d="M 183.208072 170.637263 
L 182.737001 167.482563 
L 182.423243 167.470349 
z
" style="stroke:#000000;"/>
    <path clip-path="url(#p3c0b665209)" d="M 194.316265 195.55314 
L 194.169985 191.865142 
L 195.723283 194.451367 
z
" style="stroke:#000000;"/>
    <path clip-path="url(#p3c0b665209)" d="M 194.169985 162.43435 
L 194.316265 158.746397 
L 195.723283 159.848592 
z
" style="stroke:#000000;"/>
    <path clip-path="url(#p3c0b665209)" d="M 188.783721 177.148936 
L 188.637954 173.875353 
L 188.942337 173.877737 
z
" style="stroke:#000000;"/>
    <path clip-path="url(#p3c0b665209)" d="M 189.416487 183.65591 
L 188.637954 180.427865 
L 188.942337 180.420184 
z
" style="stroke:#000000;"/>
    <path clip-path="url(#p3c0b665209)" d="M 182.423243 186.830998 
L 183.520646 183.651675 
L 183.208072 183.66432 
z
" style="stroke:#000000;"/>
    <path clip-path="url(#p3c0b665209)" d="M 176.403651 156.199419 
L 176.905193 159.849828 
L 178.310135 158.743625 
z
" style="stroke:#000000;"/>
    <path clip-path="url(#p3c0b665209)" d="M 176.905193 194.449857 
L 176.403651 198.100115 
L 178.310135 195.556484 
z
" style="stroke:#000000;"/>
    <path clip-path="url(#p3c0b665209)" d="M 188.942337 173.877737 
L 189.11282 170.634793 
L 189.416487 170.642154 
z
" style="stroke:#000000;"/>
    <path clip-path="url(#p3c0b665209)" d="M 183.682488 173.876025 
L 183.520646 170.644616 
L 183.208072 170.637263 
z
" style="stroke:#000000;"/>
    <path clip-path="url(#p3c0b665209)" d="M 194.316265 195.55314 
L 195.723283 194.451367 
L 196.225734 198.103903 
z
" style="stroke:#000000;"/>
    <path clip-path="url(#p3c0b665209)" d="M 195.723283 159.848592 
L 194.316265 158.746397 
L 196.225734 156.196207 
z
" style="stroke:#000000;"/>
    <path clip-path="url(#p3c0b665209)" d="M 190.201046 186.820915 
L 189.11282 183.668568 
L 189.416487 183.65591 
z
" style="stroke:#000000;"/>
    <path clip-path="url(#p3c0b665209)" d="M 183.208072 183.66432 
L 183.994347 180.418027 
L 183.682488 180.425702 
z
" style="stroke:#000000;"/>
    <path clip-path="url(#p3c0b665209)" d="M 183.841211 177.150887 
L 183.994347 173.878406 
L 183.682488 173.876025 
z
" style="stroke:#000000;"/>
    <path clip-path="url(#p3c0b665209)" d="M 178.310135 158.743625 
L 176.905193 159.849828 
L 178.456239 162.43186 
z
" style="stroke:#000000;"/>
    <path clip-path="url(#p3c0b665209)" d="M 176.905193 194.449857 
L 178.310135 195.556484 
L 178.456239 191.868293 
z
" style="stroke:#000000;"/>
    <path clip-path="url(#p3c0b665209)" d="M 189.416487 170.642154 
L 189.898566 167.465154 
L 190.201046 167.477384 
z
" style="stroke:#000000;"/>
    <path clip-path="url(#p3c0b665209)" d="M 183.682488 180.425702 
L 184.152831 177.14824 
L 183.841211 177.150887 
z
" style="stroke:#000000;"/>
    <path clip-path="url(#p3c0b665209)" d="M 183.574233 157.519698 
L 186.159685 155.529098 
L 183.261739 157.492165 
z
" style="stroke:#000000;"/>
    <path clip-path="url(#p3c0b665209)" d="M 186.159685 163.363206 
L 183.574233 157.519698 
L 183.261739 157.492165 
z
" style="stroke:#000000;"/>
    <path clip-path="url(#p3c0b665209)" d="M 191.287534 189.880751 
L 189.898566 186.838444 
L 190.201046 186.820915 
z
" style="stroke:#000000;"/>
    <path clip-path="url(#p3c0b665209)" d="M 190.670423 174.073803 
L 190.219274 177.151847 
L 190.52127 177.149198 
z
" style="stroke:#000000;"/>
    <path clip-path="url(#p3c0b665209)" d="M 196.225734 198.103903 
L 195.723283 194.451367 
L 197.518616 196.849085 
z
" style="stroke:#000000;"/>
    <path clip-path="url(#p3c0b665209)" d="M 195.723283 159.848592 
L 196.225734 156.196207 
L 197.518616 157.451414 
z
" style="stroke:#000000;"/>
    <path clip-path="url(#p3c0b665209)" d="M 190.52127 177.149198 
L 190.368652 180.232019 
L 190.670423 180.224637 
z
" style="stroke:#000000;"/>
    <path clip-path="url(#p3c0b665209)" d="M 191.116247 171.031918 
L 190.368652 174.071721 
L 190.670423 174.073803 
z
" style="stroke:#000000;"/>
    <path clip-path="url(#p3c0b665209)" d="M 186.467808 153.995238 
L 181.813316 157.102877 
L 186.159685 153.962277 
z
" style="stroke:#000000;"/>
    <path clip-path="url(#p3c0b665209)" d="M 181.813316 157.102877 
L 186.467808 166.510562 
L 186.159685 166.496849 
z
" style="stroke:#000000;"/>
    <path clip-path="url(#p3c0b665209)" d="M 190.201046 167.477384 
L 190.986697 164.400936 
L 191.287534 164.417875 
z
" style="stroke:#000000;"/>
    <path clip-path="url(#p3c0b665209)" d="M 178.310135 158.743625 
L 178.456239 162.43186 
L 179.960599 161.490568 
z
" style="stroke:#000000;"/>
    <path clip-path="url(#p3c0b665209)" d="M 178.456239 191.868293 
L 178.310135 195.556484 
L 179.960599 192.810038 
z
" style="stroke:#000000;"/>
    <path clip-path="url(#p3c0b665209)" d="M 190.670423 180.224637 
L 190.81515 183.278718 
L 191.116247 183.266656 
z
" style="stroke:#000000;"/>
    <path clip-path="url(#p3c0b665209)" d="M 196.225734 198.103903 
L 198.056745 198.849431 
L 197.298761 199.265038 
z
" style="stroke:#000000;"/>
    <path clip-path="url(#p3c0b665209)" d="M 198.056745 155.451229 
L 196.225734 156.196207 
L 197.298761 155.035395 
z
" style="stroke:#000000;"/>
    <path clip-path="url(#p3c0b665209)" d="M 191.853945 168.05662 
L 190.81515 171.025156 
L 191.116247 171.031918 
z
" style="stroke:#000000;"/>
    <path clip-path="url(#p3c0b665209)" d="M 198.056745 198.849431 
L 196.225734 198.103903 
L 197.518616 196.849085 
z
" style="stroke:#000000;"/>
    <path clip-path="url(#p3c0b665209)" d="M 196.225734 156.196207 
L 198.056745 155.451229 
L 197.518616 157.451414 
z
" style="stroke:#000000;"/>
    <path clip-path="url(#p3c0b665209)" d="M 179.960599 161.490568 
L 178.456239 162.43186 
L 179.749448 165.176044 
z
" style="stroke:#000000;"/>
    <path clip-path="url(#p3c0b665209)" d="M 178.456239 191.868293 
L 179.960599 192.810038 
L 179.749448 189.124498 
z
" style="stroke:#000000;"/>
    <path clip-path="url(#p3c0b665209)" d="M 191.116247 183.266656 
L 191.553964 186.258816 
L 191.853945 186.242176 
z
" style="stroke:#000000;"/>
    <path clip-path="url(#p3c0b665209)" d="M 192.664244 192.802139 
L 190.986697 189.902989 
L 191.287534 189.880751 
z
" style="stroke:#000000;"/>
    <path clip-path="url(#p3c0b665209)" d="M 192.87554 165.180324 
L 191.553964 168.04528 
L 191.853945 168.05662 
z
" style="stroke:#000000;"/>
    <path clip-path="url(#p3c0b665209)" d="M 191.287534 164.417875 
L 192.365488 161.475465 
L 192.664244 161.4969 
z
" style="stroke:#000000;"/>
    <path clip-path="url(#p3c0b665209)" d="M 198.056745 198.849431 
L 197.518616 196.849085 
L 198.852955 198.292647 
z
" style="stroke:#000000;"/>
    <path clip-path="url(#p3c0b665209)" d="M 197.518616 157.451414 
L 198.056745 155.451229 
L 198.852955 156.008253 
z
" style="stroke:#000000;"/>
    <path clip-path="url(#p3c0b665209)" d="M 179.749448 165.176044 
L 181.336738 164.410223 
L 179.960599 161.490568 
z
" style="stroke:#000000;"/>
    <path clip-path="url(#p3c0b665209)" d="M 181.336738 189.890797 
L 179.749448 189.124498 
L 179.960599 192.810038 
z
" style="stroke:#000000;"/>
    <path clip-path="url(#p3c0b665209)" d="M 191.853945 186.242176 
L 192.577105 189.139848 
L 192.87554 189.118779 
z
" style="stroke:#000000;"/>
    <path clip-path="url(#p3c0b665209)" d="M 181.336738 164.410223 
L 179.749448 165.176044 
L 180.770482 168.052227 
z
" style="stroke:#000000;"/>
    <path clip-path="url(#p3c0b665209)" d="M 179.749448 189.124498 
L 181.336738 189.890797 
L 180.770482 186.248623 
z
" style="stroke:#000000;"/>
    <path clip-path="url(#p3c0b665209)" d="M 194.316265 195.55314 
L 192.365488 192.828876 
L 192.664244 192.802139 
z
" style="stroke:#000000;"/>
    <path clip-path="url(#p3c0b665209)" d="M 186.467808 155.559653 
L 189.059098 157.483084 
L 186.159685 155.529098 
z
" style="stroke:#000000;"/>
    <path clip-path="url(#p3c0b665209)" d="M 189.059098 157.483084 
L 186.467808 163.381731 
L 186.159685 163.363206 
z
" style="stroke:#000000;"/>
    <path clip-path="url(#p3c0b665209)" d="M 194.169985 162.43435 
L 192.577105 165.164557 
L 192.87554 165.180324 
z
" style="stroke:#000000;"/>
    <path clip-path="url(#p3c0b665209)" d="M 180.770482 168.052227 
L 182.423243 167.470349 
L 181.336738 164.410223 
z
" style="stroke:#000000;"/>
    <path clip-path="url(#p3c0b665209)" d="M 182.423243 186.830998 
L 180.770482 186.248623 
L 181.336738 189.890797 
z
" style="stroke:#000000;"/>
    <path clip-path="url(#p3c0b665209)" d="M 182.423243 167.470349 
L 180.770482 168.052227 
L 181.508001 171.028731 
z
" style="stroke:#000000;"/>
    <path clip-path="url(#p3c0b665209)" d="M 180.770482 186.248623 
L 182.423243 186.830998 
L 181.508001 183.27234 
z
" style="stroke:#000000;"/>
    <path clip-path="url(#p3c0b665209)" d="M 192.87554 189.118779 
L 193.873508 191.89044 
L 194.169985 191.865142 
z
" style="stroke:#000000;"/>
    <path clip-path="url(#p3c0b665209)" d="M 192.664244 161.4969 
L 194.020009 158.720725 
L 194.316265 158.746397 
z
" style="stroke:#000000;"/>
    <path clip-path="url(#p3c0b665209)" d="M 183.208072 170.637263 
L 181.508001 171.028731 
L 181.953809 174.072716 
z
" style="stroke:#000000;"/>
    <path clip-path="url(#p3c0b665209)" d="M 181.508001 183.27234 
L 183.208072 183.66432 
L 181.953809 180.22849 
z
" style="stroke:#000000;"/>
    <path clip-path="url(#p3c0b665209)" d="M 181.508001 171.028731 
L 183.208072 170.637263 
L 182.423243 167.470349 
z
" style="stroke:#000000;"/>
    <path clip-path="url(#p3c0b665209)" d="M 183.208072 183.66432 
L 181.508001 183.27234 
L 182.423243 186.830998 
z
" style="stroke:#000000;"/>
    <path clip-path="url(#p3c0b665209)" d="M 181.953809 180.22849 
L 183.682488 180.425702 
L 182.102971 177.150625 
z
" style="stroke:#000000;"/>
    <path clip-path="url(#p3c0b665209)" d="M 183.682488 173.876025 
L 181.953809 174.072716 
L 182.102971 177.150625 
z
" style="stroke:#000000;"/>
    <path clip-path="url(#p3c0b665209)" d="M 195.723283 159.848592 
L 193.873508 162.414355 
L 194.169985 162.43435 
z
" style="stroke:#000000;"/>
    <path clip-path="url(#p3c0b665209)" d="M 188.637954 173.875353 
L 188.783721 177.148936 
L 188.479098 177.151585 
z
" style="stroke:#000000;"/>
    <path clip-path="url(#p3c0b665209)" d="M 188.479098 177.151585 
L 188.942337 180.420184 
L 188.637954 180.427865 
z
" style="stroke:#000000;"/>
    <path clip-path="url(#p3c0b665209)" d="M 196.225734 198.103903 
L 194.020009 195.584113 
L 194.316265 195.55314 
z
" style="stroke:#000000;"/>
    <path clip-path="url(#p3c0b665209)" d="M 189.11282 170.634793 
L 188.942337 173.877737 
L 188.637954 173.875353 
z
" style="stroke:#000000;"/>
    <path clip-path="url(#p3c0b665209)" d="M 181.953809 174.072716 
L 183.682488 173.876025 
L 183.208072 170.637263 
z
" style="stroke:#000000;"/>
    <path clip-path="url(#p3c0b665209)" d="M 183.682488 180.425702 
L 181.953809 180.22849 
L 183.208072 183.66432 
z
" style="stroke:#000000;"/>
    <path clip-path="url(#p3c0b665209)" d="M 188.637954 180.427865 
L 189.416487 183.65591 
L 189.11282 183.668568 
z
" style="stroke:#000000;"/>
    <path clip-path="url(#p3c0b665209)" d="M 194.169985 191.865142 
L 195.429156 194.480649 
L 195.723283 194.451367 
z
" style="stroke:#000000;"/>
    <path clip-path="url(#p3c0b665209)" d="M 190.810913 157.117128 
L 186.159685 153.962277 
L 190.509355 157.088958 
z
" style="stroke:#000000;"/>
    <path clip-path="url(#p3c0b665209)" d="M 186.159685 166.496849 
L 190.810913 157.117128 
L 190.509355 157.088958 
z
" style="stroke:#000000;"/>
    <path clip-path="url(#p3c0b665209)" d="M 182.102971 177.150625 
L 183.841211 177.150887 
L 183.682488 173.876025 
z
" style="stroke:#000000;"/>
    <path clip-path="url(#p3c0b665209)" d="M 183.841211 177.150887 
L 182.102971 177.150625 
L 183.682488 180.425702 
z
" style="stroke:#000000;"/>
    <path clip-path="url(#p3c0b665209)" d="M 189.898566 167.465154 
L 189.416487 170.642154 
L 189.11282 170.634793 
z
" style="stroke:#000000;"/>
    <path clip-path="url(#p3c0b665209)" d="M 194.316265 158.746397 
L 195.932368 156.166607 
L 196.225734 156.196207 
z
" style="stroke:#000000;"/>
    <path clip-path="url(#p3c0b665209)" d="M 183.261739 157.492165 
L 186.159685 153.962277 
L 181.813316 157.102877 
z
" style="stroke:#000000;"/>
    <path clip-path="url(#p3c0b665209)" d="M 181.813316 157.102877 
L 186.159685 163.363206 
L 183.261739 157.492165 
z
" style="stroke:#000000;"/>
    <path clip-path="url(#p3c0b665209)" d="M 189.11282 183.668568 
L 190.201046 186.820915 
L 189.898566 186.838444 
z
" style="stroke:#000000;"/>
    <path clip-path="url(#p3c0b665209)" d="M 197.518616 157.451414 
L 195.429156 159.824614 
L 195.723283 159.848592 
z
" style="stroke:#000000;"/>
    <path clip-path="url(#p3c0b665209)" d="M 190.986697 164.400936 
L 190.201046 167.477384 
L 189.898566 167.465154 
z
" style="stroke:#000000;"/>
    <path clip-path="url(#p3c0b665209)" d="M 190.368652 180.232019 
L 190.52127 177.149198 
L 190.219274 177.151847 
z
" style="stroke:#000000;"/>
    <path clip-path="url(#p3c0b665209)" d="M 190.219274 177.151847 
L 190.670423 174.073803 
L 190.368652 174.071721 
z
" style="stroke:#000000;"/>
    <path clip-path="url(#p3c0b665209)" d="M 197.298761 199.265038 
L 195.932368 198.138808 
L 196.225734 198.103903 
z
" style="stroke:#000000;"/>
    <path clip-path="url(#p3c0b665209)" d="M 190.81515 183.278718 
L 190.670423 180.224637 
L 190.368652 180.232019 
z
" style="stroke:#000000;"/>
    <path clip-path="url(#p3c0b665209)" d="M 186.159685 163.363206 
L 181.813316 157.102877 
L 186.159685 166.496849 
z
" style="stroke:#000000;"/>
    <path clip-path="url(#p3c0b665209)" d="M 189.898566 186.838444 
L 191.287534 189.880751 
L 190.986697 189.902989 
z
" style="stroke:#000000;"/>
    <path clip-path="url(#p3c0b665209)" d="M 190.368652 174.071721 
L 191.116247 171.031918 
L 190.81515 171.025156 
z
" style="stroke:#000000;"/>
    <path clip-path="url(#p3c0b665209)" d="M 195.723283 194.451367 
L 197.227207 196.882062 
L 197.518616 196.849085 
z
" style="stroke:#000000;"/>
    <path clip-path="url(#p3c0b665209)" d="M 196.225734 156.196207 
L 197.007019 155.004004 
L 197.298761 155.035395 
z
" style="stroke:#000000;"/>
    <path clip-path="url(#p3c0b665209)" d="M 186.159685 153.962277 
L 183.261739 157.492165 
L 186.159685 155.529098 
z
" style="stroke:#000000;"/>
    <path clip-path="url(#p3c0b665209)" d="M 191.553964 186.258816 
L 191.116247 183.266656 
L 190.81515 183.278718 
z
" style="stroke:#000000;"/>
    <path clip-path="url(#p3c0b665209)" d="M 190.81515 171.025156 
L 191.853945 168.05662 
L 191.553964 168.04528 
z
" style="stroke:#000000;"/>
    <path clip-path="url(#p3c0b665209)" d="M 197.007019 155.004004 
L 198.056745 155.451229 
L 197.298761 155.035395 
z
" style="stroke:#000000;"/>
    <path clip-path="url(#p3c0b665209)" d="M 192.365488 161.475465 
L 191.287534 164.417875 
L 190.986697 164.400936 
z
" style="stroke:#000000;"/>
    <path clip-path="url(#p3c0b665209)" d="M 197.766151 198.88549 
L 197.298761 199.265038 
L 198.056745 198.849431 
z
" style="stroke:#000000;"/>
    <path clip-path="url(#p3c0b665209)" d="M 197.227207 196.882062 
L 198.852955 198.292647 
L 197.518616 196.849085 
z
" style="stroke:#000000;"/>
    <path clip-path="url(#p3c0b665209)" d="M 192.577105 189.139848 
L 191.853945 186.242176 
L 191.553964 186.258816 
z
" style="stroke:#000000;"/>
    <path clip-path="url(#p3c0b665209)" d="M 190.986697 189.902989 
L 192.664244 192.802139 
L 192.365488 192.828876 
z
" style="stroke:#000000;"/>
    <path clip-path="url(#p3c0b665209)" d="M 197.766151 155.420477 
L 198.852955 156.008253 
L 198.056745 155.451229 
z
" style="stroke:#000000;"/>
    <path clip-path="url(#p3c0b665209)" d="M 191.553964 168.04528 
L 192.87554 165.180324 
L 192.577105 165.164557 
z
" style="stroke:#000000;"/>
    <path clip-path="url(#p3c0b665209)" d="M 198.563566 155.978356 
L 197.518616 157.451414 
L 198.852955 156.008253 
z
" style="stroke:#000000;"/>
    <path clip-path="url(#p3c0b665209)" d="M 198.563566 198.327851 
L 198.056745 198.849431 
L 198.852955 198.292647 
z
" style="stroke:#000000;"/>
    <path clip-path="url(#p3c0b665209)" d="M 194.020009 158.720725 
L 192.664244 161.4969 
L 192.365488 161.475465 
z
" style="stroke:#000000;"/>
    <path clip-path="url(#p3c0b665209)" d="M 186.159685 153.962277 
L 186.159685 155.529098 
L 189.059098 157.483084 
z
" style="stroke:#000000;"/>
    <path clip-path="url(#p3c0b665209)" d="M 193.873508 191.89044 
L 192.87554 189.118779 
L 192.577105 189.139848 
z
" style="stroke:#000000;"/>
    <path clip-path="url(#p3c0b665209)" d="M 192.577105 165.164557 
L 194.169985 162.43435 
L 193.873508 162.414355 
z
" style="stroke:#000000;"/>
    <path clip-path="url(#p3c0b665209)" d="M 192.365488 192.828876 
L 194.316265 195.55314 
L 194.020009 195.584113 
z
" style="stroke:#000000;"/>
    <path clip-path="url(#p3c0b665209)" d="M 186.159685 163.363206 
L 186.159685 166.496849 
L 190.509355 157.088958 
z
" style="stroke:#000000;"/>
    <path clip-path="url(#p3c0b665209)" d="M 195.429156 194.480649 
L 194.169985 191.865142 
L 193.873508 191.89044 
z
" style="stroke:#000000;"/>
    <path clip-path="url(#p3c0b665209)" d="M 186.159685 153.962277 
L 189.059098 157.483084 
L 190.509355 157.088958 
z
" style="stroke:#000000;"/>
    <path clip-path="url(#p3c0b665209)" d="M 186.159685 163.363206 
L 190.509355 157.088958 
L 189.059098 157.483084 
z
" style="stroke:#000000;"/>
    <path clip-path="url(#p3c0b665209)" d="M 195.932368 156.166607 
L 194.316265 158.746397 
L 194.020009 158.720725 
z
" style="stroke:#000000;"/>
    <path clip-path="url(#p3c0b665209)" d="M 193.873508 162.414355 
L 195.723283 159.848592 
L 195.429156 159.824614 
z
" style="stroke:#000000;"/>
    <path clip-path="url(#p3c0b665209)" d="M 188.479098 177.151585 
L 190.219274 177.151847 
L 188.637954 173.875353 
z
" style="stroke:#000000;"/>
    <path clip-path="url(#p3c0b665209)" d="M 190.219274 177.151847 
L 188.479098 177.151585 
L 188.637954 180.427865 
z
" style="stroke:#000000;"/>
    <path clip-path="url(#p3c0b665209)" d="M 188.637954 173.875353 
L 190.368652 174.071721 
L 189.11282 170.634793 
z
" style="stroke:#000000;"/>
    <path clip-path="url(#p3c0b665209)" d="M 190.368652 180.232019 
L 188.637954 180.427865 
L 189.11282 183.668568 
z
" style="stroke:#000000;"/>
    <path clip-path="url(#p3c0b665209)" d="M 194.020009 195.584113 
L 196.225734 198.103903 
L 195.932368 198.138808 
z
" style="stroke:#000000;"/>
    <path clip-path="url(#p3c0b665209)" d="M 188.637954 180.427865 
L 190.368652 180.232019 
L 190.219274 177.151847 
z
" style="stroke:#000000;"/>
    <path clip-path="url(#p3c0b665209)" d="M 190.368652 174.071721 
L 188.637954 173.875353 
L 190.219274 177.151847 
z
" style="stroke:#000000;"/>
    <path clip-path="url(#p3c0b665209)" d="M 189.11282 170.634793 
L 190.81515 171.025156 
L 189.898566 167.465154 
z
" style="stroke:#000000;"/>
    <path clip-path="url(#p3c0b665209)" d="M 190.81515 183.278718 
L 189.11282 183.668568 
L 189.898566 186.838444 
z
" style="stroke:#000000;"/>
    <path clip-path="url(#p3c0b665209)" d="M 190.81515 171.025156 
L 189.11282 170.634793 
L 190.368652 174.071721 
z
" style="stroke:#000000;"/>
    <path clip-path="url(#p3c0b665209)" d="M 189.11282 183.668568 
L 190.81515 183.278718 
L 190.368652 180.232019 
z
" style="stroke:#000000;"/>
    <path clip-path="url(#p3c0b665209)" d="M 197.227207 196.882062 
L 195.723283 194.451367 
L 195.429156 194.480649 
z
" style="stroke:#000000;"/>
    <path clip-path="url(#p3c0b665209)" d="M 197.007019 155.004004 
L 196.225734 156.196207 
L 195.932368 156.166607 
z
" style="stroke:#000000;"/>
    <path clip-path="url(#p3c0b665209)" d="M 195.429156 159.824614 
L 197.518616 157.451414 
L 197.227207 157.423742 
z
" style="stroke:#000000;"/>
    <path clip-path="url(#p3c0b665209)" d="M 191.553964 168.04528 
L 189.898566 167.465154 
L 190.81515 171.025156 
z
" style="stroke:#000000;"/>
    <path clip-path="url(#p3c0b665209)" d="M 189.898566 186.838444 
L 191.553964 186.258816 
L 190.81515 183.278718 
z
" style="stroke:#000000;"/>
    <path clip-path="url(#p3c0b665209)" d="M 195.932368 198.138808 
L 197.298761 199.265038 
L 197.007019 199.301734 
z
" style="stroke:#000000;"/>
    <path clip-path="url(#p3c0b665209)" d="M 189.898566 167.465154 
L 191.553964 168.04528 
L 190.986697 164.400936 
z
" style="stroke:#000000;"/>
    <path clip-path="url(#p3c0b665209)" d="M 191.553964 186.258816 
L 189.898566 186.838444 
L 190.986697 189.902989 
z
" style="stroke:#000000;"/>
    <path clip-path="url(#p3c0b665209)" d="M 197.298761 199.265038 
L 197.766151 198.88549 
L 197.007019 199.301734 
z
" style="stroke:#000000;"/>
    <path clip-path="url(#p3c0b665209)" d="M 198.056745 155.451229 
L 197.007019 155.004004 
L 197.766151 155.420477 
z
" style="stroke:#000000;"/>
    <path clip-path="url(#p3c0b665209)" d="M 192.577105 165.164557 
L 190.986697 164.400936 
L 191.553964 168.04528 
z
" style="stroke:#000000;"/>
    <path clip-path="url(#p3c0b665209)" d="M 190.986697 189.902989 
L 192.577105 189.139848 
L 191.553964 186.258816 
z
" style="stroke:#000000;"/>
    <path clip-path="url(#p3c0b665209)" d="M 197.518616 157.451414 
L 198.563566 155.978356 
L 197.227207 157.423742 
z
" style="stroke:#000000;"/>
    <path clip-path="url(#p3c0b665209)" d="M 190.986697 164.400936 
L 192.577105 165.164557 
L 192.365488 161.475465 
z
" style="stroke:#000000;"/>
    <path clip-path="url(#p3c0b665209)" d="M 192.577105 189.139848 
L 190.986697 189.902989 
L 192.365488 192.828876 
z
" style="stroke:#000000;"/>
    <path clip-path="url(#p3c0b665209)" d="M 198.056745 198.849431 
L 198.563566 198.327851 
L 197.766151 198.88549 
z
" style="stroke:#000000;"/>
    <path clip-path="url(#p3c0b665209)" d="M 198.852955 198.292647 
L 197.227207 196.882062 
L 198.563566 198.327851 
z
" style="stroke:#000000;"/>
    <path clip-path="url(#p3c0b665209)" d="M 198.852955 156.008253 
L 197.766151 155.420477 
L 198.563566 155.978356 
z
" style="stroke:#000000;"/>
    <path clip-path="url(#p3c0b665209)" d="M 193.873508 162.414355 
L 192.365488 161.475465 
L 192.577105 165.164557 
z
" style="stroke:#000000;"/>
    <path clip-path="url(#p3c0b665209)" d="M 192.365488 192.828876 
L 193.873508 191.89044 
L 192.577105 189.139848 
z
" style="stroke:#000000;"/>
    <path clip-path="url(#p3c0b665209)" d="M 192.365488 161.475465 
L 193.873508 162.414355 
L 194.020009 158.720725 
z
" style="stroke:#000000;"/>
    <path clip-path="url(#p3c0b665209)" d="M 193.873508 191.89044 
L 192.365488 192.828876 
L 194.020009 195.584113 
z
" style="stroke:#000000;"/>
    <path clip-path="url(#p3c0b665209)" d="M 194.020009 158.720725 
L 193.873508 162.414355 
L 195.429156 159.824614 
z
" style="stroke:#000000;"/>
    <path clip-path="url(#p3c0b665209)" d="M 193.873508 191.89044 
L 194.020009 195.584113 
L 195.429156 194.480649 
z
" style="stroke:#000000;"/>
    <path clip-path="url(#p3c0b665209)" d="M 194.020009 158.720725 
L 195.429156 159.824614 
L 195.932368 156.166607 
z
" style="stroke:#000000;"/>
    <path clip-path="url(#p3c0b665209)" d="M 195.429156 194.480649 
L 194.020009 195.584113 
L 195.932368 198.138808 
z
" style="stroke:#000000;"/>
    <path clip-path="url(#p3c0b665209)" d="M 195.932368 156.166607 
L 195.429156 159.824614 
L 197.227207 157.423742 
z
" style="stroke:#000000;"/>
    <path clip-path="url(#p3c0b665209)" d="M 195.429156 194.480649 
L 195.932368 198.138808 
L 197.227207 196.882062 
z
" style="stroke:#000000;"/>
    <path clip-path="url(#p3c0b665209)" d="M 195.932368 156.166607 
L 197.766151 155.420477 
L 197.007019 155.004004 
z
" style="stroke:#000000;"/>
    <path clip-path="url(#p3c0b665209)" d="M 197.766151 198.88549 
L 195.932368 198.138808 
L 197.007019 199.301734 
z
" style="stroke:#000000;"/>
    <path clip-path="url(#p3c0b665209)" d="M 197.766151 155.420477 
L 195.932368 156.166607 
L 197.227207 157.423742 
z
" style="stroke:#000000;"/>
    <path clip-path="url(#p3c0b665209)" d="M 195.932368 198.138808 
L 197.766151 198.88549 
L 197.227207 196.882062 
z
" style="stroke:#000000;"/>
    <path clip-path="url(#p3c0b665209)" d="M 197.766151 155.420477 
L 197.227207 157.423742 
L 198.563566 155.978356 
z
" style="stroke:#000000;"/>
    <path clip-path="url(#p3c0b665209)" d="M 197.227207 196.882062 
L 197.766151 198.88549 
L 198.563566 198.327851 
z
" style="stroke:#000000;"/>
   </g>
  </g>
 </g>
 <defs>
  <clipPath id="p3c0b665209">
   <rect height="271.8" width="279" x="45" y="43.2"/>
  </clipPath>
 </defs>
</svg>
