<?xml version="1.0" encoding="utf-8" standalone="no"?>
<!DOCTYPE svg PUBLIC "-//W3C//DTD SVG 1.1//EN"
  "http://www.w3.org/Graphics/SVG/1.1/DTD/svg11.dtd">
<!-- Created with matplotlib (https://matplotlib.org/) -->
<svg height="360pt" version="1.1" viewBox="0 0 360 360" width="360pt" xmlns="http://www.w3.org/2000/svg" xmlns:xlink="http://www.w3.org/1999/xlink">
 <defs>
  <style type="text/css">
*{stroke-linecap:butt;stroke-linejoin:round;}
  </style>
 </defs>
 <g id="figure_1">
  <g id="patch_1">
   <path d="M 45 315 
L 324 315 
L 324 43.2 
L 45 43.2 
z
" style="fill:#ffffff;"/>
  </g>
  <g id="axes_1">
   <g id="Poly3DCollection_1">
    <path clip-path="url(#p6ee10554c7)" d="M 193.012191 157.017555 
L 193.347823 154.982032 
L 193.844003 155.560565 
z
" style="stroke:#000000;"/>
    <path clip-path="url(#p6ee10554c7)" d="M 193.347823 199.281994 
L 193.012191 197.247464 
L 193.844003 198.701992 
z
" style="stroke:#000000;"/>
    <path clip-path="url(#p6ee10554c7)" d="M 195.743913 198.724428 
L 193.347823 199.281994 
L 193.844003 198.701992 
z
" style="stroke:#000000;"/>
    <path clip-path="url(#p6ee10554c7)" d="M 195.743913 155.541415 
L 193.012191 157.017555 
L 193.844003 155.560565 
z
" style="stroke:#000000;"/>
    <path clip-path="url(#p6ee10554c7)" d="M 195.248073 154.962315 
L 193.844003 155.560565 
L 193.347823 154.982032 
z
" style="stroke:#000000;"/>
    <path clip-path="url(#p6ee10554c7)" d="M 193.844003 155.560565 
L 195.248073 154.962315 
L 195.743913 155.541415 
z
" style="stroke:#000000;"/>
    <path clip-path="url(#p6ee10554c7)" d="M 194.912672 197.268513 
L 193.844003 198.701992 
L 193.012191 197.247464 
z
" style="stroke:#000000;"/>
    <path clip-path="url(#p6ee10554c7)" d="M 192.20489 155.719824 
L 193.347823 154.982032 
L 193.012191 157.017555 
z
" style="stroke:#000000;"/>
    <path clip-path="url(#p6ee10554c7)" d="M 193.347823 199.281994 
L 192.20489 198.547585 
L 193.012191 197.247464 
z
" style="stroke:#000000;"/>
    <path clip-path="url(#p6ee10554c7)" d="M 193.844003 198.701992 
L 194.912672 197.268513 
L 195.743913 198.724428 
z
" style="stroke:#000000;"/>
    <path clip-path="url(#p6ee10554c7)" d="M 195.248073 199.304999 
L 192.875002 199.71781 
L 193.347823 199.281994 
z
" style="stroke:#000000;"/>
    <path clip-path="url(#p6ee10554c7)" d="M 193.347823 154.982032 
L 192.20489 155.719824 
L 192.875002 154.547616 
z
" style="stroke:#000000;"/>
    <path clip-path="url(#p6ee10554c7)" d="M 192.20489 198.547585 
L 193.347823 199.281994 
L 192.875002 199.71781 
z
" style="stroke:#000000;"/>
    <path clip-path="url(#p6ee10554c7)" d="M 193.347823 199.281994 
L 195.743913 198.724428 
L 195.248073 199.304999 
z
" style="stroke:#000000;"/>
    <path clip-path="url(#p6ee10554c7)" d="M 194.775577 154.527472 
L 193.347823 154.982032 
L 192.875002 154.547616 
z
" style="stroke:#000000;"/>
    <path clip-path="url(#p6ee10554c7)" d="M 193.012191 157.017555 
L 195.743913 155.541415 
L 194.912672 156.999797 
z
" style="stroke:#000000;"/>
    <path clip-path="url(#p6ee10554c7)" d="M 193.347823 154.982032 
L 194.775577 154.527472 
L 195.248073 154.962315 
z
" style="stroke:#000000;"/>
    <path clip-path="url(#p6ee10554c7)" d="M 192.20489 155.719824 
L 193.012191 157.017555 
L 191.890796 159.447346 
z
" style="stroke:#000000;"/>
    <path clip-path="url(#p6ee10554c7)" d="M 193.012191 197.247464 
L 192.20489 198.547585 
L 191.890796 194.820992 
z
" style="stroke:#000000;"/>
    <path clip-path="url(#p6ee10554c7)" d="M 192.875002 199.71781 
L 195.248073 199.304999 
L 194.775577 199.741244 
z
" style="stroke:#000000;"/>
    <path clip-path="url(#p6ee10554c7)" d="M 194.912672 197.268513 
L 195.248073 199.304999 
L 195.743913 198.724428 
z
" style="stroke:#000000;"/>
    <path clip-path="url(#p6ee10554c7)" d="M 195.248073 154.962315 
L 194.912672 156.999797 
L 195.743913 155.541415 
z
" style="stroke:#000000;"/>
    <path clip-path="url(#p6ee10554c7)" d="M 192.20489 155.719824 
L 194.775577 154.527472 
L 192.875002 154.547616 
z
" style="stroke:#000000;"/>
    <path clip-path="url(#p6ee10554c7)" d="M 191.890796 194.820992 
L 194.912672 197.268513 
L 193.012191 197.247464 
z
" style="stroke:#000000;"/>
    <path clip-path="url(#p6ee10554c7)" d="M 192.875002 199.71781 
L 194.105924 198.569904 
L 192.20489 198.547585 
z
" style="stroke:#000000;"/>
    <path clip-path="url(#p6ee10554c7)" d="M 194.105924 198.569904 
L 192.875002 199.71781 
L 194.775577 199.741244 
z
" style="stroke:#000000;"/>
    <path clip-path="url(#p6ee10554c7)" d="M 193.792045 159.431916 
L 193.012191 157.017555 
L 194.912672 156.999797 
z
" style="stroke:#000000;"/>
    <path clip-path="url(#p6ee10554c7)" d="M 193.012191 157.017555 
L 193.792045 159.431916 
L 191.890796 159.447346 
z
" style="stroke:#000000;"/>
    <path clip-path="url(#p6ee10554c7)" d="M 194.105924 198.569904 
L 195.248073 199.304999 
L 194.912672 197.268513 
z
" style="stroke:#000000;"/>
    <path clip-path="url(#p6ee10554c7)" d="M 195.248073 154.962315 
L 194.105924 155.7008 
L 194.912672 156.999797 
z
" style="stroke:#000000;"/>
    <path clip-path="url(#p6ee10554c7)" d="M 192.20489 155.719824 
L 191.890796 159.447346 
L 191.010176 158.305443 
z
" style="stroke:#000000;"/>
    <path clip-path="url(#p6ee10554c7)" d="M 191.890796 194.820992 
L 192.20489 198.547585 
L 191.010176 195.965502 
z
" style="stroke:#000000;"/>
    <path clip-path="url(#p6ee10554c7)" d="M 195.248073 199.304999 
L 194.105924 198.569904 
L 194.775577 199.741244 
z
" style="stroke:#000000;"/>
    <path clip-path="url(#p6ee10554c7)" d="M 194.105924 155.7008 
L 195.248073 154.962315 
L 194.775577 154.527472 
z
" style="stroke:#000000;"/>
    <path clip-path="url(#p6ee10554c7)" d="M 194.775577 154.527472 
L 192.20489 155.719824 
L 194.105924 155.7008 
z
" style="stroke:#000000;"/>
    <path clip-path="url(#p6ee10554c7)" d="M 194.912672 197.268513 
L 191.890796 194.820992 
L 193.792045 194.839719 
z
" style="stroke:#000000;"/>
    <path clip-path="url(#p6ee10554c7)" d="M 191.010176 158.305443 
L 194.105924 155.7008 
L 192.20489 155.719824 
z
" style="stroke:#000000;"/>
    <path clip-path="url(#p6ee10554c7)" d="M 191.010176 158.305443 
L 191.890796 159.447346 
L 190.918533 162.077668 
z
" style="stroke:#000000;"/>
    <path clip-path="url(#p6ee10554c7)" d="M 191.890796 194.820992 
L 191.010176 195.965502 
L 190.918533 192.193548 
z
" style="stroke:#000000;"/>
    <path clip-path="url(#p6ee10554c7)" d="M 194.105924 198.569904 
L 194.912672 197.268513 
L 193.792045 194.839719 
z
" style="stroke:#000000;"/>
    <path clip-path="url(#p6ee10554c7)" d="M 194.912672 156.999797 
L 194.105924 155.7008 
L 193.792045 159.431916 
z
" style="stroke:#000000;"/>
    <path clip-path="url(#p6ee10554c7)" d="M 190.918533 192.193548 
L 193.792045 194.839719 
L 191.890796 194.820992 
z
" style="stroke:#000000;"/>
    <path clip-path="url(#p6ee10554c7)" d="M 192.912027 195.985349 
L 192.20489 198.547585 
L 194.105924 198.569904 
z
" style="stroke:#000000;"/>
    <path clip-path="url(#p6ee10554c7)" d="M 192.20489 198.547585 
L 192.912027 195.985349 
L 191.010176 195.965502 
z
" style="stroke:#000000;"/>
    <path clip-path="url(#p6ee10554c7)" d="M 191.890796 159.447346 
L 192.820446 162.064767 
L 190.918533 162.077668 
z
" style="stroke:#000000;"/>
    <path clip-path="url(#p6ee10554c7)" d="M 192.820446 162.064767 
L 191.890796 159.447346 
L 193.792045 159.431916 
z
" style="stroke:#000000;"/>
    <path clip-path="url(#p6ee10554c7)" d="M 194.105924 155.7008 
L 191.010176 158.305443 
L 192.912027 158.288898 
z
" style="stroke:#000000;"/>
    <path clip-path="url(#p6ee10554c7)" d="M 191.010176 158.305443 
L 190.918533 162.077668 
L 189.97422 161.104818 
z
" style="stroke:#000000;"/>
    <path clip-path="url(#p6ee10554c7)" d="M 190.918533 192.193548 
L 191.010176 195.965502 
L 189.97422 193.169193 
z
" style="stroke:#000000;"/>
    <path clip-path="url(#p6ee10554c7)" d="M 194.105924 198.569904 
L 193.792045 194.839719 
L 192.912027 195.985349 
z
" style="stroke:#000000;"/>
    <path clip-path="url(#p6ee10554c7)" d="M 193.792045 159.431916 
L 194.105924 155.7008 
L 192.912027 158.288898 
z
" style="stroke:#000000;"/>
    <path clip-path="url(#p6ee10554c7)" d="M 193.792045 194.839719 
L 190.918533 192.193548 
L 192.820446 192.209751 
z
" style="stroke:#000000;"/>
    <path clip-path="url(#p6ee10554c7)" d="M 189.97422 161.104818 
L 190.918533 162.077668 
L 190.106841 164.878967 
z
" style="stroke:#000000;"/>
    <path clip-path="url(#p6ee10554c7)" d="M 190.918533 192.193548 
L 189.97422 193.169193 
L 190.106841 189.394651 
z
" style="stroke:#000000;"/>
    <path clip-path="url(#p6ee10554c7)" d="M 189.97422 161.104818 
L 192.912027 158.288898 
L 191.010176 158.305443 
z
" style="stroke:#000000;"/>
    <path clip-path="url(#p6ee10554c7)" d="M 190.106841 189.394651 
L 192.820446 192.209751 
L 190.918533 192.193548 
z
" style="stroke:#000000;"/>
    <path clip-path="url(#p6ee10554c7)" d="M 192.912027 195.985349 
L 193.792045 194.839719 
L 192.820446 192.209751 
z
" style="stroke:#000000;"/>
    <path clip-path="url(#p6ee10554c7)" d="M 193.792045 159.431916 
L 192.912027 158.288898 
L 192.820446 162.064767 
z
" style="stroke:#000000;"/>
    <path clip-path="url(#p6ee10554c7)" d="M 190.918533 162.077668 
L 192.009308 164.868767 
L 190.106841 164.878967 
z
" style="stroke:#000000;"/>
    <path clip-path="url(#p6ee10554c7)" d="M 191.010176 195.965502 
L 191.876777 193.186353 
L 189.97422 193.169193 
z
" style="stroke:#000000;"/>
    <path clip-path="url(#p6ee10554c7)" d="M 191.876777 193.186353 
L 191.010176 195.965502 
L 192.912027 195.985349 
z
" style="stroke:#000000;"/>
    <path clip-path="url(#p6ee10554c7)" d="M 192.009308 164.868767 
L 190.918533 162.077668 
L 192.820446 162.064767 
z
" style="stroke:#000000;"/>
    <path clip-path="url(#p6ee10554c7)" d="M 190.106841 164.878967 
L 189.109258 164.086788 
L 189.97422 161.104818 
z
" style="stroke:#000000;"/>
    <path clip-path="url(#p6ee10554c7)" d="M 189.109258 190.189783 
L 190.106841 189.394651 
L 189.97422 193.169193 
z
" style="stroke:#000000;"/>
    <path clip-path="url(#p6ee10554c7)" d="M 192.820446 192.209751 
L 190.106841 189.394651 
L 192.009308 189.408159 
z
" style="stroke:#000000;"/>
    <path clip-path="url(#p6ee10554c7)" d="M 192.912027 158.288898 
L 189.97422 161.104818 
L 191.876777 161.090966 
z
" style="stroke:#000000;"/>
    <path clip-path="url(#p6ee10554c7)" d="M 189.109258 164.086788 
L 190.106841 164.878967 
L 189.465305 167.819725 
z
" style="stroke:#000000;"/>
    <path clip-path="url(#p6ee10554c7)" d="M 190.106841 189.394651 
L 189.109258 190.189783 
L 189.465305 186.455792 
z
" style="stroke:#000000;"/>
    <path clip-path="url(#p6ee10554c7)" d="M 189.465305 186.455792 
L 192.009308 189.408159 
L 190.106841 189.394651 
z
" style="stroke:#000000;"/>
    <path clip-path="url(#p6ee10554c7)" d="M 192.912027 195.985349 
L 192.820446 192.209751 
L 191.876777 193.186353 
z
" style="stroke:#000000;"/>
    <path clip-path="url(#p6ee10554c7)" d="M 192.820446 162.064767 
L 192.912027 158.288898 
L 191.876777 161.090966 
z
" style="stroke:#000000;"/>
    <path clip-path="url(#p6ee10554c7)" d="M 189.109258 164.086788 
L 191.876777 161.090966 
L 189.97422 161.104818 
z
" style="stroke:#000000;"/>
    <path clip-path="url(#p6ee10554c7)" d="M 190.106841 164.878967 
L 191.368209 167.812364 
L 189.465305 167.819725 
z
" style="stroke:#000000;"/>
    <path clip-path="url(#p6ee10554c7)" d="M 191.876777 193.186353 
L 192.820446 192.209751 
L 192.009308 189.408159 
z
" style="stroke:#000000;"/>
    <path clip-path="url(#p6ee10554c7)" d="M 192.820446 162.064767 
L 191.876777 161.090966 
L 192.009308 164.868767 
z
" style="stroke:#000000;"/>
    <path clip-path="url(#p6ee10554c7)" d="M 191.368209 167.812364 
L 190.106841 164.878967 
L 192.009308 164.868767 
z
" style="stroke:#000000;"/>
    <path clip-path="url(#p6ee10554c7)" d="M 189.97422 193.169193 
L 191.012403 190.204072 
L 189.109258 190.189783 
z
" style="stroke:#000000;"/>
    <path clip-path="url(#p6ee10554c7)" d="M 189.465305 167.819725 
L 188.425574 167.217587 
L 189.109258 164.086788 
z
" style="stroke:#000000;"/>
    <path clip-path="url(#p6ee10554c7)" d="M 188.425574 187.061007 
L 189.465305 186.455792 
L 189.109258 190.189783 
z
" style="stroke:#000000;"/>
    <path clip-path="url(#p6ee10554c7)" d="M 188.425574 167.217587 
L 189.465305 167.819725 
L 189.001535 170.866611 
z
" style="stroke:#000000;"/>
    <path clip-path="url(#p6ee10554c7)" d="M 189.465305 186.455792 
L 188.425574 187.061007 
L 189.001535 183.410279 
z
" style="stroke:#000000;"/>
    <path clip-path="url(#p6ee10554c7)" d="M 191.012403 190.204072 
L 189.97422 193.169193 
L 191.876777 193.186353 
z
" style="stroke:#000000;"/>
    <path clip-path="url(#p6ee10554c7)" d="M 189.001535 183.410279 
L 191.368209 186.466464 
L 189.465305 186.455792 
z
" style="stroke:#000000;"/>
    <path clip-path="url(#p6ee10554c7)" d="M 192.009308 189.408159 
L 189.465305 186.455792 
L 191.368209 186.466464 
z
" style="stroke:#000000;"/>
    <path clip-path="url(#p6ee10554c7)" d="M 189.465305 167.819725 
L 190.904754 170.862197 
L 189.001535 170.866611 
z
" style="stroke:#000000;"/>
    <path clip-path="url(#p6ee10554c7)" d="M 191.876777 161.090966 
L 189.109258 164.086788 
L 191.012403 164.075811 
z
" style="stroke:#000000;"/>
    <path clip-path="url(#p6ee10554c7)" d="M 192.009308 189.408159 
L 191.012403 190.204072 
L 191.876777 193.186353 
z
" style="stroke:#000000;"/>
    <path clip-path="url(#p6ee10554c7)" d="M 191.012403 164.075811 
L 192.009308 164.868767 
L 191.876777 161.090966 
z
" style="stroke:#000000;"/>
    <path clip-path="url(#p6ee10554c7)" d="M 190.904754 170.862197 
L 189.465305 167.819725 
L 191.368209 167.812364 
z
" style="stroke:#000000;"/>
    <path clip-path="url(#p6ee10554c7)" d="M 187.931299 170.461687 
L 189.001535 170.866611 
L 188.721049 173.9849 
z
" style="stroke:#000000;"/>
    <path clip-path="url(#p6ee10554c7)" d="M 189.001535 183.410279 
L 187.931299 183.818371 
L 188.721049 180.29282 
z
" style="stroke:#000000;"/>
    <path clip-path="url(#p6ee10554c7)" d="M 188.721049 180.29282 
L 190.904754 183.418007 
L 189.001535 183.410279 
z
" style="stroke:#000000;"/>
    <path clip-path="url(#p6ee10554c7)" d="M 188.425574 167.217587 
L 191.012403 164.075811 
L 189.109258 164.086788 
z
" style="stroke:#000000;"/>
    <path clip-path="url(#p6ee10554c7)" d="M 189.001535 170.866611 
L 187.931299 170.461687 
L 188.425574 167.217587 
z
" style="stroke:#000000;"/>
    <path clip-path="url(#p6ee10554c7)" d="M 187.931299 183.818371 
L 189.001535 183.410279 
L 188.425574 187.061007 
z
" style="stroke:#000000;"/>
    <path clip-path="url(#p6ee10554c7)" d="M 191.012403 190.204072 
L 192.009308 189.408159 
L 191.368209 186.466464 
z
" style="stroke:#000000;"/>
    <path clip-path="url(#p6ee10554c7)" d="M 192.009308 164.868767 
L 191.012403 164.075811 
L 191.368209 167.812364 
z
" style="stroke:#000000;"/>
    <path clip-path="url(#p6ee10554c7)" d="M 189.001535 170.866611 
L 190.624458 173.983504 
L 188.721049 173.9849 
z
" style="stroke:#000000;"/>
    <path clip-path="url(#p6ee10554c7)" d="M 191.368209 186.466464 
L 189.001535 183.410279 
L 190.904754 183.418007 
z
" style="stroke:#000000;"/>
    <path clip-path="url(#p6ee10554c7)" d="M 188.721049 180.29282 
L 187.632345 180.498902 
L 188.627176 177.138999 
z
" style="stroke:#000000;"/>
    <path clip-path="url(#p6ee10554c7)" d="M 187.632345 173.782041 
L 188.721049 173.9849 
L 188.627176 177.138999 
z
" style="stroke:#000000;"/>
    <path clip-path="url(#p6ee10554c7)" d="M 188.627176 177.138999 
L 190.624458 180.297531 
L 188.721049 180.29282 
z
" style="stroke:#000000;"/>
    <path clip-path="url(#p6ee10554c7)" d="M 188.721049 173.9849 
L 190.530648 177.140657 
L 188.627176 177.138999 
z
" style="stroke:#000000;"/>
    <path clip-path="url(#p6ee10554c7)" d="M 189.109258 190.189783 
L 190.329184 187.072275 
L 188.425574 187.061007 
z
" style="stroke:#000000;"/>
    <path clip-path="url(#p6ee10554c7)" d="M 190.624458 173.983504 
L 189.001535 170.866611 
L 190.904754 170.862197 
z
" style="stroke:#000000;"/>
    <path clip-path="url(#p6ee10554c7)" d="M 190.329184 187.072275 
L 189.109258 190.189783 
L 191.012403 190.204072 
z
" style="stroke:#000000;"/>
    <path clip-path="url(#p6ee10554c7)" d="M 188.721049 173.9849 
L 187.632345 173.782041 
L 187.931299 170.461687 
z
" style="stroke:#000000;"/>
    <path clip-path="url(#p6ee10554c7)" d="M 187.632345 180.498902 
L 188.721049 180.29282 
L 187.931299 183.818371 
z
" style="stroke:#000000;"/>
    <path clip-path="url(#p6ee10554c7)" d="M 190.904754 183.418007 
L 188.721049 180.29282 
L 190.624458 180.297531 
z
" style="stroke:#000000;"/>
    <path clip-path="url(#p6ee10554c7)" d="M 190.530648 177.140657 
L 188.721049 173.9849 
L 190.624458 173.983504 
z
" style="stroke:#000000;"/>
    <path clip-path="url(#p6ee10554c7)" d="M 188.627176 177.138999 
L 187.532297 177.140619 
L 187.632345 173.782041 
z
" style="stroke:#000000;"/>
    <path clip-path="url(#p6ee10554c7)" d="M 187.532297 177.140619 
L 188.627176 177.138999 
L 187.632345 180.498902 
z
" style="stroke:#000000;"/>
    <path clip-path="url(#p6ee10554c7)" d="M 190.624458 180.297531 
L 188.627176 177.138999 
L 190.530648 177.140657 
z
" style="stroke:#000000;"/>
    <path clip-path="url(#p6ee10554c7)" d="M 191.012403 164.075811 
L 188.425574 167.217587 
L 190.329184 167.209637 
z
" style="stroke:#000000;"/>
    <path clip-path="url(#p6ee10554c7)" d="M 187.931299 170.461687 
L 190.329184 167.209637 
L 188.425574 167.217587 
z
" style="stroke:#000000;"/>
    <path clip-path="url(#p6ee10554c7)" d="M 191.368209 186.466464 
L 190.329184 187.072275 
L 191.012403 190.204072 
z
" style="stroke:#000000;"/>
    <path clip-path="url(#p6ee10554c7)" d="M 190.329184 167.209637 
L 191.368209 167.812364 
L 191.012403 164.075811 
z
" style="stroke:#000000;"/>
    <path clip-path="url(#p6ee10554c7)" d="M 190.329184 187.072275 
L 191.368209 186.466464 
L 190.904754 183.418007 
z
" style="stroke:#000000;"/>
    <path clip-path="url(#p6ee10554c7)" d="M 191.368209 167.812364 
L 190.329184 167.209637 
L 190.904754 170.862197 
z
" style="stroke:#000000;"/>
    <path clip-path="url(#p6ee10554c7)" d="M 188.425574 187.061007 
L 189.835243 183.826501 
L 187.931299 183.818371 
z
" style="stroke:#000000;"/>
    <path clip-path="url(#p6ee10554c7)" d="M 187.897487 156.983522 
L 186.06923 153.33496 
L 188.809454 156.596844 
z
" style="stroke:#000000;"/>
    <path clip-path="url(#p6ee10554c7)" d="M 188.809454 156.596844 
L 186.06923 162.986781 
L 187.897487 156.983522 
z
" style="stroke:#000000;"/>
    <path clip-path="url(#p6ee10554c7)" d="M 189.835243 183.826501 
L 188.425574 187.061007 
L 190.329184 187.072275 
z
" style="stroke:#000000;"/>
    <path clip-path="url(#p6ee10554c7)" d="M 187.632345 173.782041 
L 189.835243 170.456876 
L 187.931299 170.461687 
z
" style="stroke:#000000;"/>
    <path clip-path="url(#p6ee10554c7)" d="M 189.835243 183.826501 
L 190.904754 183.418007 
L 190.624458 180.297531 
z
" style="stroke:#000000;"/>
    <path clip-path="url(#p6ee10554c7)" d="M 190.904754 170.862197 
L 189.835243 170.456876 
L 190.624458 173.983504 
z
" style="stroke:#000000;"/>
    <path clip-path="url(#p6ee10554c7)" d="M 187.931299 183.818371 
L 189.536492 180.503817 
L 187.632345 180.498902 
z
" style="stroke:#000000;"/>
    <path clip-path="url(#p6ee10554c7)" d="M 190.329184 167.209637 
L 187.931299 170.461687 
L 189.835243 170.456876 
z
" style="stroke:#000000;"/>
    <path clip-path="url(#p6ee10554c7)" d="M 190.904754 183.418007 
L 189.835243 183.826501 
L 190.329184 187.072275 
z
" style="stroke:#000000;"/>
    <path clip-path="url(#p6ee10554c7)" d="M 189.835243 170.456876 
L 190.904754 170.862197 
L 190.329184 167.209637 
z
" style="stroke:#000000;"/>
    <path clip-path="url(#p6ee10554c7)" d="M 187.532297 177.140619 
L 189.536492 173.780446 
L 187.632345 173.782041 
z
" style="stroke:#000000;"/>
    <path clip-path="url(#p6ee10554c7)" d="M 190.624458 173.983504 
L 189.536492 173.780446 
L 190.530648 177.140657 
z
" style="stroke:#000000;"/>
    <path clip-path="url(#p6ee10554c7)" d="M 189.536492 180.503817 
L 190.624458 180.297531 
L 190.530648 177.140657 
z
" style="stroke:#000000;"/>
    <path clip-path="url(#p6ee10554c7)" d="M 187.632345 180.498902 
L 189.436512 177.14228 
L 187.532297 177.140619 
z
" style="stroke:#000000;"/>
    <path clip-path="url(#p6ee10554c7)" d="M 188.809454 156.596844 
L 187.974434 153.313521 
L 190.712803 156.578613 
z
" style="stroke:#000000;"/>
    <path clip-path="url(#p6ee10554c7)" d="M 187.974434 166.195104 
L 188.809454 156.596844 
L 190.712803 156.578613 
z
" style="stroke:#000000;"/>
    <path clip-path="url(#p6ee10554c7)" d="M 189.536492 180.503817 
L 187.931299 183.818371 
L 189.835243 183.826501 
z
" style="stroke:#000000;"/>
    <path clip-path="url(#p6ee10554c7)" d="M 189.835243 170.456876 
L 187.632345 173.782041 
L 189.536492 173.780446 
z
" style="stroke:#000000;"/>
    <path clip-path="url(#p6ee10554c7)" d="M 186.06923 162.986781 
L 188.809454 156.596844 
L 186.06923 166.204054 
z
" style="stroke:#000000;"/>
    <path clip-path="url(#p6ee10554c7)" d="M 190.624458 180.297531 
L 189.536492 180.503817 
L 189.835243 183.826501 
z
" style="stroke:#000000;"/>
    <path clip-path="url(#p6ee10554c7)" d="M 189.536492 173.780446 
L 190.624458 173.983504 
L 189.835243 170.456876 
z
" style="stroke:#000000;"/>
    <path clip-path="url(#p6ee10554c7)" d="M 189.801454 156.965652 
L 186.06923 154.943597 
L 187.897487 156.983522 
z
" style="stroke:#000000;"/>
    <path clip-path="url(#p6ee10554c7)" d="M 186.06923 162.986781 
L 189.801454 156.965652 
L 187.897487 156.983522 
z
" style="stroke:#000000;"/>
    <path clip-path="url(#p6ee10554c7)" d="M 189.436512 177.14228 
L 187.632345 180.498902 
L 189.536492 180.503817 
z
" style="stroke:#000000;"/>
    <path clip-path="url(#p6ee10554c7)" d="M 189.536492 173.780446 
L 187.532297 177.140619 
L 189.436512 177.14228 
z
" style="stroke:#000000;"/>
    <path clip-path="url(#p6ee10554c7)" d="M 190.530648 177.140657 
L 189.436512 177.14228 
L 189.536492 180.503817 
z
" style="stroke:#000000;"/>
    <path clip-path="url(#p6ee10554c7)" d="M 189.436512 177.14228 
L 190.530648 177.140657 
L 189.536492 173.780446 
z
" style="stroke:#000000;"/>
    <path clip-path="url(#p6ee10554c7)" d="M 186.06923 153.33496 
L 187.897487 156.983522 
L 186.06923 154.943597 
z
" style="stroke:#000000;"/>
    <path clip-path="url(#p6ee10554c7)" d="M 187.974434 153.313521 
L 188.809454 156.596844 
L 186.06923 153.33496 
z
" style="stroke:#000000;"/>
    <path clip-path="url(#p6ee10554c7)" d="M 188.809454 156.596844 
L 187.974434 166.195104 
L 186.06923 166.204054 
z
" style="stroke:#000000;"/>
    <path clip-path="url(#p6ee10554c7)" d="M 187.974434 162.974708 
L 190.712803 156.578613 
L 189.801454 156.965652 
z
" style="stroke:#000000;"/>
    <path clip-path="url(#p6ee10554c7)" d="M 187.974434 153.313521 
L 189.801454 156.965652 
L 190.712803 156.578613 
z
" style="stroke:#000000;"/>
    <path clip-path="url(#p6ee10554c7)" d="M 186.06923 154.943597 
L 189.801454 156.965652 
L 187.974434 154.923719 
z
" style="stroke:#000000;"/>
    <path clip-path="url(#p6ee10554c7)" d="M 189.801454 156.965652 
L 186.06923 162.986781 
L 187.974434 162.974708 
z
" style="stroke:#000000;"/>
    <path clip-path="url(#p6ee10554c7)" d="M 190.712803 156.578613 
L 187.974434 162.974708 
L 187.974434 166.195104 
z
" style="stroke:#000000;"/>
    <path clip-path="url(#p6ee10554c7)" d="M 189.801454 156.965652 
L 187.974434 153.313521 
L 187.974434 154.923719 
z
" style="stroke:#000000;"/>
    <path clip-path="url(#p6ee10554c7)" d="M 186.06923 153.33496 
L 186.06923 154.943597 
L 184.23519 156.925172 
z
" style="stroke:#000000;"/>
    <path clip-path="url(#p6ee10554c7)" d="M 186.06923 162.986781 
L 186.06923 166.204054 
L 183.315992 156.507412 
z
" style="stroke:#000000;"/>
    <path clip-path="url(#p6ee10554c7)" d="M 187.974434 154.923719 
L 184.23519 156.925172 
L 186.06923 154.943597 
z
" style="stroke:#000000;"/>
    <path clip-path="url(#p6ee10554c7)" d="M 184.23519 156.925172 
L 187.974434 162.974708 
L 186.06923 162.986781 
z
" style="stroke:#000000;"/>
    <path clip-path="url(#p6ee10554c7)" d="M 186.06923 153.33496 
L 184.23519 156.925172 
L 183.315992 156.507412 
z
" style="stroke:#000000;"/>
    <path clip-path="url(#p6ee10554c7)" d="M 186.06923 162.986781 
L 183.315992 156.507412 
L 184.23519 156.925172 
z
" style="stroke:#000000;"/>
    <path clip-path="url(#p6ee10554c7)" d="M 186.06923 153.33496 
L 185.223046 156.489008 
L 187.974434 153.313521 
z
" style="stroke:#000000;"/>
    <path clip-path="url(#p6ee10554c7)" d="M 185.223046 156.489008 
L 186.06923 166.204054 
L 187.974434 166.195104 
z
" style="stroke:#000000;"/>
    <path clip-path="url(#p6ee10554c7)" d="M 187.974434 153.313521 
L 186.141627 156.907188 
L 187.974434 154.923719 
z
" style="stroke:#000000;"/>
    <path clip-path="url(#p6ee10554c7)" d="M 184.602462 177.144955 
L 183.499948 177.146586 
L 184.50189 173.777593 
z
" style="stroke:#000000;"/>
    <path clip-path="url(#p6ee10554c7)" d="M 183.499948 177.146586 
L 184.602462 177.144955 
L 184.50189 180.512614 
z
" style="stroke:#000000;"/>
    <path clip-path="url(#p6ee10554c7)" d="M 184.50189 173.777593 
L 186.508653 177.146624 
L 184.602462 177.144955 
z
" style="stroke:#000000;"/>
    <path clip-path="url(#p6ee10554c7)" d="M 184.602462 177.144955 
L 186.408148 180.517556 
L 184.50189 180.512614 
z
" style="stroke:#000000;"/>
    <path clip-path="url(#p6ee10554c7)" d="M 184.23519 156.925172 
L 187.974434 154.923719 
L 186.141627 156.907188 
z
" style="stroke:#000000;"/>
    <path clip-path="url(#p6ee10554c7)" d="M 187.974434 162.974708 
L 184.23519 156.925172 
L 186.141627 156.907188 
z
" style="stroke:#000000;"/>
    <path clip-path="url(#p6ee10554c7)" d="M 184.50189 173.777593 
L 183.405226 173.978273 
L 184.201162 170.445686 
z
" style="stroke:#000000;"/>
    <path clip-path="url(#p6ee10554c7)" d="M 183.405226 180.31518 
L 184.50189 180.512614 
L 184.201162 183.845411 
z
" style="stroke:#000000;"/>
    <path clip-path="url(#p6ee10554c7)" d="M 184.201162 170.445686 
L 186.408148 173.77599 
L 184.50189 173.777593 
z
" style="stroke:#000000;"/>
    <path clip-path="url(#p6ee10554c7)" d="M 187.974434 162.974708 
L 185.223046 156.489008 
L 187.974434 166.195104 
z
" style="stroke:#000000;"/>
    <path clip-path="url(#p6ee10554c7)" d="M 184.50189 180.512614 
L 186.107622 183.853594 
L 184.201162 183.845411 
z
" style="stroke:#000000;"/>
    <path clip-path="url(#p6ee10554c7)" d="M 185.223046 156.489008 
L 186.06923 153.33496 
L 183.315992 156.507412 
z
" style="stroke:#000000;"/>
    <path clip-path="url(#p6ee10554c7)" d="M 186.06923 166.204054 
L 185.223046 156.489008 
L 183.315992 156.507412 
z
" style="stroke:#000000;"/>
    <path clip-path="url(#p6ee10554c7)" d="M 186.408148 180.517556 
L 184.602462 177.144955 
L 186.508653 177.146624 
z
" style="stroke:#000000;"/>
    <path clip-path="url(#p6ee10554c7)" d="M 184.50189 180.512614 
L 183.405226 180.31518 
L 183.499948 177.146586 
z
" style="stroke:#000000;"/>
    <path clip-path="url(#p6ee10554c7)" d="M 183.405226 173.978273 
L 184.50189 173.777593 
L 183.499948 177.146586 
z
" style="stroke:#000000;"/>
    <path clip-path="url(#p6ee10554c7)" d="M 186.508653 177.146624 
L 184.50189 173.777593 
L 186.408148 173.77599 
z
" style="stroke:#000000;"/>
    <path clip-path="url(#p6ee10554c7)" d="M 184.201162 170.445686 
L 183.122018 170.843426 
L 183.70327 167.184082 
z
" style="stroke:#000000;"/>
    <path clip-path="url(#p6ee10554c7)" d="M 183.122018 183.450866 
L 184.201162 183.845411 
L 183.70327 187.108489 
z
" style="stroke:#000000;"/>
    <path clip-path="url(#p6ee10554c7)" d="M 183.70327 167.184082 
L 186.107622 170.440844 
L 184.201162 170.445686 
z
" style="stroke:#000000;"/>
    <path clip-path="url(#p6ee10554c7)" d="M 186.107622 183.853594 
L 184.50189 180.512614 
L 186.408148 180.517556 
z
" style="stroke:#000000;"/>
    <path clip-path="url(#p6ee10554c7)" d="M 183.122018 170.843426 
L 184.201162 170.445686 
L 183.405226 173.978273 
z
" style="stroke:#000000;"/>
    <path clip-path="url(#p6ee10554c7)" d="M 184.201162 183.845411 
L 183.122018 183.450866 
L 183.405226 180.31518 
z
" style="stroke:#000000;"/>
    <path clip-path="url(#p6ee10554c7)" d="M 186.408148 173.77599 
L 184.201162 170.445686 
L 186.107622 170.440844 
z
" style="stroke:#000000;"/>
    <path clip-path="url(#p6ee10554c7)" d="M 184.201162 183.845411 
L 185.610064 187.119849 
L 183.70327 187.108489 
z
" style="stroke:#000000;"/>
    <path clip-path="url(#p6ee10554c7)" d="M 185.223046 156.489008 
L 187.974434 162.974708 
L 186.141627 156.907188 
z
" style="stroke:#000000;"/>
    <path clip-path="url(#p6ee10554c7)" d="M 186.141627 156.907188 
L 187.974434 153.313521 
L 185.223046 156.489008 
z
" style="stroke:#000000;"/>
    <path clip-path="url(#p6ee10554c7)" d="M 185.610064 187.119849 
L 184.201162 183.845411 
L 186.107622 183.853594 
z
" style="stroke:#000000;"/>
    <path clip-path="url(#p6ee10554c7)" d="M 182.653143 167.774897 
L 183.70327 167.184082 
L 183.122018 170.843426 
z
" style="stroke:#000000;"/>
    <path clip-path="url(#p6ee10554c7)" d="M 183.70327 187.108489 
L 182.653143 186.520782 
L 183.122018 183.450866 
z
" style="stroke:#000000;"/>
    <path clip-path="url(#p6ee10554c7)" d="M 183.70327 167.184082 
L 182.653143 167.774897 
L 183.013177 164.027005 
z
" style="stroke:#000000;"/>
    <path clip-path="url(#p6ee10554c7)" d="M 182.653143 186.520782 
L 183.70327 187.108489 
L 183.013177 190.267608 
z
" style="stroke:#000000;"/>
    <path clip-path="url(#p6ee10554c7)" d="M 186.107622 170.440844 
L 183.70327 167.184082 
L 185.610064 167.176066 
z
" style="stroke:#000000;"/>
    <path clip-path="url(#p6ee10554c7)" d="M 183.013177 164.027005 
L 185.610064 167.176066 
L 183.70327 167.184082 
z
" style="stroke:#000000;"/>
    <path clip-path="url(#p6ee10554c7)" d="M 183.405226 180.31518 
L 185.406879 177.148259 
L 183.499948 177.146586 
z
" style="stroke:#000000;"/>
    <path clip-path="url(#p6ee10554c7)" d="M 186.508653 177.146624 
L 185.406879 177.148259 
L 186.408148 180.517556 
z
" style="stroke:#000000;"/>
    <path clip-path="url(#p6ee10554c7)" d="M 185.406879 177.148259 
L 186.508653 177.146624 
L 186.408148 173.77599 
z
" style="stroke:#000000;"/>
    <path clip-path="url(#p6ee10554c7)" d="M 183.499948 177.146586 
L 185.312219 173.976864 
L 183.405226 173.978273 
z
" style="stroke:#000000;"/>
    <path clip-path="url(#p6ee10554c7)" d="M 183.122018 183.450866 
L 185.312219 180.319935 
L 183.405226 180.31518 
z
" style="stroke:#000000;"/>
    <path clip-path="url(#p6ee10554c7)" d="M 186.408148 180.517556 
L 185.312219 180.319935 
L 186.107622 183.853594 
z
" style="stroke:#000000;"/>
    <path clip-path="url(#p6ee10554c7)" d="M 185.312219 173.976864 
L 186.408148 173.77599 
L 186.107622 170.440844 
z
" style="stroke:#000000;"/>
    <path clip-path="url(#p6ee10554c7)" d="M 183.70327 187.108489 
L 184.920434 190.282049 
L 183.013177 190.267608 
z
" style="stroke:#000000;"/>
    <path clip-path="url(#p6ee10554c7)" d="M 183.405226 173.978273 
L 185.029201 170.838966 
L 183.122018 170.843426 
z
" style="stroke:#000000;"/>
    <path clip-path="url(#p6ee10554c7)" d="M 184.920434 190.282049 
L 183.70327 187.108489 
L 185.610064 187.119849 
z
" style="stroke:#000000;"/>
    <path clip-path="url(#p6ee10554c7)" d="M 185.312219 173.976864 
L 183.499948 177.146586 
L 185.406879 177.148259 
z
" style="stroke:#000000;"/>
    <path clip-path="url(#p6ee10554c7)" d="M 185.406879 177.148259 
L 183.405226 180.31518 
L 185.312219 180.319935 
z
" style="stroke:#000000;"/>
    <path clip-path="url(#p6ee10554c7)" d="M 186.408148 173.77599 
L 185.312219 173.976864 
L 185.406879 177.148259 
z
" style="stroke:#000000;"/>
    <path clip-path="url(#p6ee10554c7)" d="M 185.312219 180.319935 
L 186.408148 180.517556 
L 185.406879 177.148259 
z
" style="stroke:#000000;"/>
    <path clip-path="url(#p6ee10554c7)" d="M 182.653143 186.520782 
L 185.029201 183.458672 
L 183.122018 183.450866 
z
" style="stroke:#000000;"/>
    <path clip-path="url(#p6ee10554c7)" d="M 185.029201 170.838966 
L 183.405226 173.978273 
L 185.312219 173.976864 
z
" style="stroke:#000000;"/>
    <path clip-path="url(#p6ee10554c7)" d="M 182.003301 164.804986 
L 183.013177 164.027005 
L 182.653143 167.774897 
z
" style="stroke:#000000;"/>
    <path clip-path="url(#p6ee10554c7)" d="M 183.013177 190.267608 
L 182.003301 189.492617 
L 182.653143 186.520782 
z
" style="stroke:#000000;"/>
    <path clip-path="url(#p6ee10554c7)" d="M 186.107622 183.853594 
L 185.029201 183.458672 
L 185.610064 187.119849 
z
" style="stroke:#000000;"/>
    <path clip-path="url(#p6ee10554c7)" d="M 185.029201 170.838966 
L 186.107622 170.440844 
L 185.610064 167.176066 
z
" style="stroke:#000000;"/>
    <path clip-path="url(#p6ee10554c7)" d="M 185.610064 167.176066 
L 183.013177 164.027005 
L 184.920434 164.015913 
z
" style="stroke:#000000;"/>
    <path clip-path="url(#p6ee10554c7)" d="M 185.312219 180.319935 
L 183.122018 183.450866 
L 185.029201 183.458672 
z
" style="stroke:#000000;"/>
    <path clip-path="url(#p6ee10554c7)" d="M 185.029201 183.458672 
L 186.107622 183.853594 
L 185.312219 180.319935 
z
" style="stroke:#000000;"/>
    <path clip-path="url(#p6ee10554c7)" d="M 186.107622 170.440844 
L 185.029201 170.838966 
L 185.312219 173.976864 
z
" style="stroke:#000000;"/>
    <path clip-path="url(#p6ee10554c7)" d="M 183.122018 170.843426 
L 184.56064 167.767449 
L 182.653143 167.774897 
z
" style="stroke:#000000;"/>
    <path clip-path="url(#p6ee10554c7)" d="M 183.013177 164.027005 
L 182.003301 164.804986 
L 182.137758 161.007687 
z
" style="stroke:#000000;"/>
    <path clip-path="url(#p6ee10554c7)" d="M 182.003301 189.492617 
L 183.013177 190.267608 
L 182.137758 193.289517 
z
" style="stroke:#000000;"/>
    <path clip-path="url(#p6ee10554c7)" d="M 182.137758 161.007687 
L 184.920434 164.015913 
L 183.013177 164.027005 
z
" style="stroke:#000000;"/>
    <path clip-path="url(#p6ee10554c7)" d="M 184.56064 167.767449 
L 183.122018 170.843426 
L 185.029201 170.838966 
z
" style="stroke:#000000;"/>
    <path clip-path="url(#p6ee10554c7)" d="M 182.003301 189.492617 
L 184.56064 186.53158 
L 182.653143 186.520782 
z
" style="stroke:#000000;"/>
    <path clip-path="url(#p6ee10554c7)" d="M 185.029201 183.458672 
L 182.653143 186.520782 
L 184.56064 186.53158 
z
" style="stroke:#000000;"/>
    <path clip-path="url(#p6ee10554c7)" d="M 183.013177 190.267608 
L 184.0456 193.306911 
L 182.137758 193.289517 
z
" style="stroke:#000000;"/>
    <path clip-path="url(#p6ee10554c7)" d="M 184.56064 186.53158 
L 185.610064 187.119849 
L 185.029201 183.458672 
z
" style="stroke:#000000;"/>
    <path clip-path="url(#p6ee10554c7)" d="M 185.610064 167.176066 
L 184.56064 167.767449 
L 185.029201 170.838966 
z
" style="stroke:#000000;"/>
    <path clip-path="url(#p6ee10554c7)" d="M 185.610064 187.119849 
L 184.56064 186.53158 
L 184.920434 190.282049 
z
" style="stroke:#000000;"/>
    <path clip-path="url(#p6ee10554c7)" d="M 184.56064 167.767449 
L 185.610064 167.176066 
L 184.920434 164.015913 
z
" style="stroke:#000000;"/>
    <path clip-path="url(#p6ee10554c7)" d="M 184.0456 193.306911 
L 183.013177 190.267608 
L 184.920434 190.282049 
z
" style="stroke:#000000;"/>
    <path clip-path="url(#p6ee10554c7)" d="M 182.653143 167.774897 
L 183.911232 164.794641 
L 182.003301 164.804986 
z
" style="stroke:#000000;"/>
    <path clip-path="url(#p6ee10554c7)" d="M 181.179021 161.965057 
L 182.137758 161.007687 
L 182.003301 164.804986 
z
" style="stroke:#000000;"/>
    <path clip-path="url(#p6ee10554c7)" d="M 182.137758 193.289517 
L 181.179021 192.334985 
L 182.003301 189.492617 
z
" style="stroke:#000000;"/>
    <path clip-path="url(#p6ee10554c7)" d="M 183.911232 164.794641 
L 182.653143 167.774897 
L 184.56064 167.767449 
z
" style="stroke:#000000;"/>
    <path clip-path="url(#p6ee10554c7)" d="M 184.920434 164.015913 
L 182.137758 161.007687 
L 184.0456 160.993646 
z
" style="stroke:#000000;"/>
    <path clip-path="url(#p6ee10554c7)" d="M 182.137758 161.007687 
L 181.179021 161.965057 
L 181.08581 158.158258 
z
" style="stroke:#000000;"/>
    <path clip-path="url(#p6ee10554c7)" d="M 181.179021 192.334985 
L 182.137758 193.289517 
L 181.08581 196.14206 
z
" style="stroke:#000000;"/>
    <path clip-path="url(#p6ee10554c7)" d="M 184.56064 186.53158 
L 182.003301 189.492617 
L 183.911232 189.506315 
z
" style="stroke:#000000;"/>
    <path clip-path="url(#p6ee10554c7)" d="M 183.911232 189.506315 
L 184.920434 190.282049 
L 184.56064 186.53158 
z
" style="stroke:#000000;"/>
    <path clip-path="url(#p6ee10554c7)" d="M 184.920434 164.015913 
L 183.911232 164.794641 
L 184.56064 167.767449 
z
" style="stroke:#000000;"/>
    <path clip-path="url(#p6ee10554c7)" d="M 181.08581 158.158258 
L 184.0456 160.993646 
L 182.137758 161.007687 
z
" style="stroke:#000000;"/>
    <path clip-path="url(#p6ee10554c7)" d="M 181.179021 192.334985 
L 183.911232 189.506315 
L 182.003301 189.492617 
z
" style="stroke:#000000;"/>
    <path clip-path="url(#p6ee10554c7)" d="M 184.920434 190.282049 
L 183.911232 189.506315 
L 184.0456 193.306911 
z
" style="stroke:#000000;"/>
    <path clip-path="url(#p6ee10554c7)" d="M 183.911232 164.794641 
L 184.920434 164.015913 
L 184.0456 160.993646 
z
" style="stroke:#000000;"/>
    <path clip-path="url(#p6ee10554c7)" d="M 182.003301 164.804986 
L 183.087502 161.951938 
L 181.179021 161.965057 
z
" style="stroke:#000000;"/>
    <path clip-path="url(#p6ee10554c7)" d="M 182.137758 193.289517 
L 182.994354 196.16225 
L 181.08581 196.14206 
z
" style="stroke:#000000;"/>
    <path clip-path="url(#p6ee10554c7)" d="M 182.994354 196.16225 
L 182.137758 193.289517 
L 184.0456 193.306911 
z
" style="stroke:#000000;"/>
    <path clip-path="url(#p6ee10554c7)" d="M 183.087502 161.951938 
L 182.003301 164.804986 
L 183.911232 164.794641 
z
" style="stroke:#000000;"/>
    <path clip-path="url(#p6ee10554c7)" d="M 181.08581 158.158258 
L 181.179021 161.965057 
L 180.18861 159.285246 
z
" style="stroke:#000000;"/>
    <path clip-path="url(#p6ee10554c7)" d="M 181.179021 192.334985 
L 181.08581 196.14206 
L 180.18861 195.017727 
z
" style="stroke:#000000;"/>
    <path clip-path="url(#p6ee10554c7)" d="M 183.911232 189.506315 
L 181.179021 192.334985 
L 183.087502 192.351463 
z
" style="stroke:#000000;"/>
    <path clip-path="url(#p6ee10554c7)" d="M 184.0456 160.993646 
L 181.08581 158.158258 
L 182.994354 158.141427 
z
" style="stroke:#000000;"/>
    <path clip-path="url(#p6ee10554c7)" d="M 183.087502 192.351463 
L 184.0456 193.306911 
L 183.911232 189.506315 
z
" style="stroke:#000000;"/>
    <path clip-path="url(#p6ee10554c7)" d="M 184.0456 160.993646 
L 183.087502 161.951938 
L 183.911232 164.794641 
z
" style="stroke:#000000;"/>
    <path clip-path="url(#p6ee10554c7)" d="M 180.18861 195.017727 
L 183.087502 192.351463 
L 181.179021 192.334985 
z
" style="stroke:#000000;"/>
    <path clip-path="url(#p6ee10554c7)" d="M 181.08581 158.158258 
L 180.18861 159.285246 
L 179.867936 155.50901 
z
" style="stroke:#000000;"/>
    <path clip-path="url(#p6ee10554c7)" d="M 180.18861 195.017727 
L 181.08581 196.14206 
L 179.867936 198.794913 
z
" style="stroke:#000000;"/>
    <path clip-path="url(#p6ee10554c7)" d="M 184.0456 193.306911 
L 183.087502 192.351463 
L 182.994354 196.16225 
z
" style="stroke:#000000;"/>
    <path clip-path="url(#p6ee10554c7)" d="M 183.087502 161.951938 
L 184.0456 160.993646 
L 182.994354 158.141427 
z
" style="stroke:#000000;"/>
    <path clip-path="url(#p6ee10554c7)" d="M 179.867936 155.50901 
L 182.994354 158.141427 
L 181.08581 158.158258 
z
" style="stroke:#000000;"/>
    <path clip-path="url(#p6ee10554c7)" d="M 181.179021 161.965057 
L 182.097751 159.269502 
L 180.18861 159.285246 
z
" style="stroke:#000000;"/>
    <path clip-path="url(#p6ee10554c7)" d="M 182.097751 159.269502 
L 181.179021 161.965057 
L 183.087502 161.951938 
z
" style="stroke:#000000;"/>
    <path clip-path="url(#p6ee10554c7)" d="M 181.777289 198.817712 
L 181.08581 196.14206 
L 182.994354 196.16225 
z
" style="stroke:#000000;"/>
    <path clip-path="url(#p6ee10554c7)" d="M 181.08581 196.14206 
L 181.777289 198.817712 
L 179.867936 198.794913 
z
" style="stroke:#000000;"/>
    <path clip-path="url(#p6ee10554c7)" d="M 183.087502 192.351463 
L 180.18861 195.017727 
L 182.097751 195.036836 
z
" style="stroke:#000000;"/>
    <path clip-path="url(#p6ee10554c7)" d="M 179.867936 155.50901 
L 180.18861 159.285246 
L 179.042108 156.794398 
z
" style="stroke:#000000;"/>
    <path clip-path="url(#p6ee10554c7)" d="M 180.18861 195.017727 
L 179.867936 198.794913 
L 179.042108 197.511969 
z
" style="stroke:#000000;"/>
    <path clip-path="url(#p6ee10554c7)" d="M 182.994354 196.16225 
L 183.087502 192.351463 
L 182.097751 195.036836 
z
" style="stroke:#000000;"/>
    <path clip-path="url(#p6ee10554c7)" d="M 183.087502 161.951938 
L 182.994354 158.141427 
L 182.097751 159.269502 
z
" style="stroke:#000000;"/>
    <path clip-path="url(#p6ee10554c7)" d="M 182.994354 158.141427 
L 179.867936 155.50901 
L 181.777289 155.489577 
z
" style="stroke:#000000;"/>
    <path clip-path="url(#p6ee10554c7)" d="M 179.042108 197.511969 
L 182.097751 195.036836 
L 180.18861 195.017727 
z
" style="stroke:#000000;"/>
    <path clip-path="url(#p6ee10554c7)" d="M 179.18261 154.299579 
L 181.777289 155.489577 
L 179.867936 155.50901 
z
" style="stroke:#000000;"/>
    <path clip-path="url(#p6ee10554c7)" d="M 179.867936 155.50901 
L 178.698089 154.722068 
L 179.18261 154.299579 
z
" style="stroke:#000000;"/>
    <path clip-path="url(#p6ee10554c7)" d="M 178.698089 199.585317 
L 179.867936 198.794913 
L 179.18261 200.006372 
z
" style="stroke:#000000;"/>
    <path clip-path="url(#p6ee10554c7)" d="M 182.994354 196.16225 
L 182.097751 195.036836 
L 181.777289 198.817712 
z
" style="stroke:#000000;"/>
    <path clip-path="url(#p6ee10554c7)" d="M 182.097751 159.269502 
L 182.994354 158.141427 
L 181.777289 155.489577 
z
" style="stroke:#000000;"/>
    <path clip-path="url(#p6ee10554c7)" d="M 178.698089 154.722068 
L 179.867936 155.50901 
L 179.042108 156.794398 
z
" style="stroke:#000000;"/>
    <path clip-path="url(#p6ee10554c7)" d="M 179.867936 198.794913 
L 178.698089 199.585317 
L 179.042108 197.511969 
z
" style="stroke:#000000;"/>
    <path clip-path="url(#p6ee10554c7)" d="M 180.952009 156.776206 
L 180.18861 159.285246 
L 182.097751 159.269502 
z
" style="stroke:#000000;"/>
    <path clip-path="url(#p6ee10554c7)" d="M 180.18861 159.285246 
L 180.952009 156.776206 
L 179.042108 156.794398 
z
" style="stroke:#000000;"/>
    <path clip-path="url(#p6ee10554c7)" d="M 179.867936 198.794913 
L 181.092418 200.030367 
L 179.18261 200.006372 
z
" style="stroke:#000000;"/>
    <path clip-path="url(#p6ee10554c7)" d="M 181.092418 200.030367 
L 179.867936 198.794913 
L 181.777289 198.817712 
z
" style="stroke:#000000;"/>
    <path clip-path="url(#p6ee10554c7)" d="M 182.097751 195.036836 
L 179.042108 197.511969 
L 180.952009 197.533531 
z
" style="stroke:#000000;"/>
    <path clip-path="url(#p6ee10554c7)" d="M 181.777289 155.489577 
L 179.18261 154.299579 
L 181.092418 154.278954 
z
" style="stroke:#000000;"/>
    <path clip-path="url(#p6ee10554c7)" d="M 178.698089 154.722068 
L 179.042108 156.794398 
L 178.188768 155.290503 
z
" style="stroke:#000000;"/>
    <path clip-path="url(#p6ee10554c7)" d="M 179.042108 197.511969 
L 178.698089 199.585317 
L 178.188768 199.018389 
z
" style="stroke:#000000;"/>
    <path clip-path="url(#p6ee10554c7)" d="M 181.092418 200.030367 
L 178.698089 199.585317 
L 179.18261 200.006372 
z
" style="stroke:#000000;"/>
    <path clip-path="url(#p6ee10554c7)" d="M 181.777289 198.817712 
L 182.097751 195.036836 
L 180.952009 197.533531 
z
" style="stroke:#000000;"/>
    <path clip-path="url(#p6ee10554c7)" d="M 182.097751 159.269502 
L 181.777289 155.489577 
L 180.952009 156.776206 
z
" style="stroke:#000000;"/>
    <path clip-path="url(#p6ee10554c7)" d="M 180.608217 154.701846 
L 179.18261 154.299579 
L 178.698089 154.722068 
z
" style="stroke:#000000;"/>
    <path clip-path="url(#p6ee10554c7)" d="M 180.952009 156.776206 
L 178.188768 155.290503 
L 179.042108 156.794398 
z
" style="stroke:#000000;"/>
    <path clip-path="url(#p6ee10554c7)" d="M 179.18261 154.299579 
L 180.608217 154.701846 
L 181.092418 154.278954 
z
" style="stroke:#000000;"/>
    <path clip-path="url(#p6ee10554c7)" d="M 180.608217 199.608911 
L 178.188768 199.018389 
L 178.698089 199.585317 
z
" style="stroke:#000000;"/>
    <path clip-path="url(#p6ee10554c7)" d="M 181.777289 198.817712 
L 180.608217 199.608911 
L 181.092418 200.030367 
z
" style="stroke:#000000;"/>
    <path clip-path="url(#p6ee10554c7)" d="M 180.608217 154.701846 
L 181.777289 155.489577 
L 181.092418 154.278954 
z
" style="stroke:#000000;"/>
    <path clip-path="url(#p6ee10554c7)" d="M 178.698089 199.585317 
L 181.092418 200.030367 
L 180.608217 199.608911 
z
" style="stroke:#000000;"/>
    <path clip-path="url(#p6ee10554c7)" d="M 180.099234 199.041439 
L 179.042108 197.511969 
L 178.188768 199.018389 
z
" style="stroke:#000000;"/>
    <path clip-path="url(#p6ee10554c7)" d="M 180.608217 199.608911 
L 181.777289 198.817712 
L 180.952009 197.533531 
z
" style="stroke:#000000;"/>
    <path clip-path="url(#p6ee10554c7)" d="M 181.777289 155.489577 
L 180.608217 154.701846 
L 180.952009 156.776206 
z
" style="stroke:#000000;"/>
    <path clip-path="url(#p6ee10554c7)" d="M 179.042108 197.511969 
L 180.099234 199.041439 
L 180.952009 197.533531 
z
" style="stroke:#000000;"/>
    <path clip-path="url(#p6ee10554c7)" d="M 180.099234 155.270829 
L 178.698089 154.722068 
L 178.188768 155.290503 
z
" style="stroke:#000000;"/>
    <path clip-path="url(#p6ee10554c7)" d="M 178.698089 154.722068 
L 180.099234 155.270829 
L 180.608217 154.701846 
z
" style="stroke:#000000;"/>
    <path clip-path="url(#p6ee10554c7)" d="M 178.188768 155.290503 
L 180.952009 156.776206 
L 180.099234 155.270829 
z
" style="stroke:#000000;"/>
    <path clip-path="url(#p6ee10554c7)" d="M 178.188768 199.018389 
L 180.608217 199.608911 
L 180.099234 199.041439 
z
" style="stroke:#000000;"/>
    <path clip-path="url(#p6ee10554c7)" d="M 180.608217 199.608911 
L 180.952009 197.533531 
L 180.099234 199.041439 
z
" style="stroke:#000000;"/>
    <path clip-path="url(#p6ee10554c7)" d="M 180.952009 156.776206 
L 180.608217 154.701846 
L 180.099234 155.270829 
z
" style="stroke:#000000;"/>
   </g>
  </g>
 </g>
 <defs>
  <clipPath id="p6ee10554c7">
   <rect height="271.8" width="279" x="45" y="43.2"/>
  </clipPath>
 </defs>
</svg>
