<?xml version="1.0" encoding="utf-8" standalone="no"?>
<!DOCTYPE svg PUBLIC "-//W3C//DTD SVG 1.1//EN"
  "http://www.w3.org/Graphics/SVG/1.1/DTD/svg11.dtd">
<!-- Created with matplotlib (https://matplotlib.org/) -->
<svg height="360pt" version="1.1" viewBox="0 0 360 360" width="360pt" xmlns="http://www.w3.org/2000/svg" xmlns:xlink="http://www.w3.org/1999/xlink">
 <defs>
  <style type="text/css">
*{stroke-linecap:butt;stroke-linejoin:round;}
  </style>
 </defs>
 <g id="figure_1">
  <g id="patch_1">
   <path d="M 0 360 
L 360 360 
L 360 0 
L 0 0 
z
" style="fill:#ffffff;"/>
  </g>
  <g id="patch_2">
   <path d="M 45 315 
L 324 315 
L 324 43.2 
L 45 43.2 
z
" style="fill:#ffffff;"/>
  </g>
  <g id="axes_1">
   <g id="Poly3DCollection_1">
    <path clip-path="url(#p0afe38d381)" d="M 199.496191 157.569265 
L 200.015502 155.58496 
L 200.783601 156.142231 
z
" style="stroke:#000000;"/>
    <path clip-path="url(#p0afe38d381)" d="M 200.015502 198.692627 
L 199.496191 196.708638 
L 200.783601 198.134887 
z
" style="stroke:#000000;"/>
    <path clip-path="url(#p0afe38d381)" d="M 198.24793 156.315887 
L 200.015502 155.58496 
L 199.496191 157.569265 
z
" style="stroke:#000000;"/>
    <path clip-path="url(#p0afe38d381)" d="M 200.015502 198.692627 
L 198.24793 197.962777 
L 199.496191 196.708638 
z
" style="stroke:#000000;"/>
    <path clip-path="url(#p0afe38d381)" d="M 200.015502 155.58496 
L 198.24793 156.315887 
L 199.283983 155.167932 
z
" style="stroke:#000000;"/>
    <path clip-path="url(#p0afe38d381)" d="M 198.24793 197.962777 
L 200.015502 198.692627 
L 199.283983 199.110101 
z
" style="stroke:#000000;"/>
    <path clip-path="url(#p0afe38d381)" d="M 198.24793 156.315887 
L 199.496191 157.569265 
L 197.762595 159.943525 
z
" style="stroke:#000000;"/>
    <path clip-path="url(#p0afe38d381)" d="M 199.496191 196.708638 
L 198.24793 197.962777 
L 197.762595 194.335435 
z
" style="stroke:#000000;"/>
    <path clip-path="url(#p0afe38d381)" d="M 201.404161 198.168712 
L 200.015502 198.692627 
L 200.783601 198.134887 
z
" style="stroke:#000000;"/>
    <path clip-path="url(#p0afe38d381)" d="M 201.404161 156.113506 
L 199.496191 157.569265 
L 200.783601 156.142231 
z
" style="stroke:#000000;"/>
    <path clip-path="url(#p0afe38d381)" d="M 200.635003 155.5554 
L 200.783601 156.142231 
L 200.015502 155.58496 
z
" style="stroke:#000000;"/>
    <path clip-path="url(#p0afe38d381)" d="M 198.24793 156.315887 
L 197.762595 159.943525 
L 196.402832 158.841999 
z
" style="stroke:#000000;"/>
    <path clip-path="url(#p0afe38d381)" d="M 197.762595 194.335435 
L 198.24793 197.962777 
L 196.402832 195.43779 
z
" style="stroke:#000000;"/>
    <path clip-path="url(#p0afe38d381)" d="M 200.114976 196.740346 
L 200.783601 198.134887 
L 199.496191 196.708638 
z
" style="stroke:#000000;"/>
    <path clip-path="url(#p0afe38d381)" d="M 200.635003 198.727287 
L 199.283983 199.110101 
L 200.015502 198.692627 
z
" style="stroke:#000000;"/>
    <path clip-path="url(#p0afe38d381)" d="M 196.402832 158.841999 
L 197.762595 159.943525 
L 196.261408 162.508326 
z
" style="stroke:#000000;"/>
    <path clip-path="url(#p0afe38d381)" d="M 197.762595 194.335435 
L 196.402832 195.43779 
L 196.261408 191.771549 
z
" style="stroke:#000000;"/>
    <path clip-path="url(#p0afe38d381)" d="M 199.902475 155.137747 
L 200.015502 155.58496 
L 199.283983 155.167932 
z
" style="stroke:#000000;"/>
    <path clip-path="url(#p0afe38d381)" d="M 198.24793 156.315887 
L 199.902475 155.137747 
L 199.283983 155.167932 
z
" style="stroke:#000000;"/>
    <path clip-path="url(#p0afe38d381)" d="M 197.762595 194.335435 
L 200.114976 196.740346 
L 199.496191 196.708638 
z
" style="stroke:#000000;"/>
    <path clip-path="url(#p0afe38d381)" d="M 196.402832 158.841999 
L 196.261408 162.508326 
L 194.805028 161.570804 
z
" style="stroke:#000000;"/>
    <path clip-path="url(#p0afe38d381)" d="M 196.261408 191.771549 
L 196.402832 195.43779 
L 194.805028 192.709959 
z
" style="stroke:#000000;"/>
    <path clip-path="url(#p0afe38d381)" d="M 199.283983 199.110101 
L 198.864992 197.99636 
L 198.24793 197.962777 
z
" style="stroke:#000000;"/>
    <path clip-path="url(#p0afe38d381)" d="M 199.496191 157.569265 
L 198.378987 159.92045 
L 197.762595 159.943525 
z
" style="stroke:#000000;"/>
    <path clip-path="url(#p0afe38d381)" d="M 194.805028 161.570804 
L 196.261408 162.508326 
L 195.009467 165.235245 
z
" style="stroke:#000000;"/>
    <path clip-path="url(#p0afe38d381)" d="M 196.261408 191.771549 
L 194.805028 192.709959 
L 195.009467 189.045394 
z
" style="stroke:#000000;"/>
    <path clip-path="url(#p0afe38d381)" d="M 200.783601 156.142231 
L 200.635003 155.5554 
L 201.404161 156.113506 
z
" style="stroke:#000000;"/>
    <path clip-path="url(#p0afe38d381)" d="M 196.402832 158.841999 
L 198.864992 156.287407 
L 198.24793 156.315887 
z
" style="stroke:#000000;"/>
    <path clip-path="url(#p0afe38d381)" d="M 200.783601 198.134887 
L 200.114976 196.740346 
L 201.404161 198.168712 
z
" style="stroke:#000000;"/>
    <path clip-path="url(#p0afe38d381)" d="M 200.015502 198.692627 
L 201.404161 198.168712 
L 200.635003 198.727287 
z
" style="stroke:#000000;"/>
    <path clip-path="url(#p0afe38d381)" d="M 196.261408 191.771549 
L 198.378987 194.363615 
L 197.762595 194.335435 
z
" style="stroke:#000000;"/>
    <path clip-path="url(#p0afe38d381)" d="M 195.009467 165.235245 
L 193.472454 164.47237 
L 194.805028 161.570804 
z
" style="stroke:#000000;"/>
    <path clip-path="url(#p0afe38d381)" d="M 193.472454 189.809205 
L 195.009467 189.045394 
L 194.805028 192.709959 
z
" style="stroke:#000000;"/>
    <path clip-path="url(#p0afe38d381)" d="M 199.496191 157.569265 
L 201.404161 156.113506 
L 200.114976 157.542659 
z
" style="stroke:#000000;"/>
    <path clip-path="url(#p0afe38d381)" d="M 198.24793 197.962777 
L 197.017346 195.46762 
L 196.402832 195.43779 
z
" style="stroke:#000000;"/>
    <path clip-path="url(#p0afe38d381)" d="M 200.015502 155.58496 
L 199.902475 155.137747 
L 200.635003 155.5554 
z
" style="stroke:#000000;"/>
    <path clip-path="url(#p0afe38d381)" d="M 193.472454 164.47237 
L 195.009467 165.235245 
L 194.020822 168.094181 
z
" style="stroke:#000000;"/>
    <path clip-path="url(#p0afe38d381)" d="M 195.009467 189.045394 
L 193.472454 189.809205 
L 194.020822 186.187059 
z
" style="stroke:#000000;"/>
    <path clip-path="url(#p0afe38d381)" d="M 197.762595 159.943525 
L 196.875727 162.489067 
L 196.261408 162.508326 
z
" style="stroke:#000000;"/>
    <path clip-path="url(#p0afe38d381)" d="M 199.283983 199.110101 
L 200.635003 198.727287 
L 199.902475 199.145387 
z
" style="stroke:#000000;"/>
    <path clip-path="url(#p0afe38d381)" d="M 198.864992 197.99636 
L 199.283983 199.110101 
L 199.902475 199.145387 
z
" style="stroke:#000000;"/>
    <path clip-path="url(#p0afe38d381)" d="M 198.378987 159.92045 
L 199.496191 157.569265 
L 200.114976 157.542659 
z
" style="stroke:#000000;"/>
    <path clip-path="url(#p0afe38d381)" d="M 194.020822 168.094181 
L 192.420125 167.514504 
L 193.472454 164.47237 
z
" style="stroke:#000000;"/>
    <path clip-path="url(#p0afe38d381)" d="M 192.420125 186.767713 
L 194.020822 186.187059 
L 193.472454 189.809205 
z
" style="stroke:#000000;"/>
    <path clip-path="url(#p0afe38d381)" d="M 192.420125 167.514504 
L 194.020822 168.094181 
L 193.306591 171.053479 
z
" style="stroke:#000000;"/>
    <path clip-path="url(#p0afe38d381)" d="M 194.020822 186.187059 
L 192.420125 186.767713 
L 193.306591 183.228197 
z
" style="stroke:#000000;"/>
    <path clip-path="url(#p0afe38d381)" d="M 194.805028 161.570804 
L 197.017346 158.817275 
L 196.402832 158.841999 
z
" style="stroke:#000000;"/>
    <path clip-path="url(#p0afe38d381)" d="M 195.009467 189.045394 
L 196.875727 191.795915 
L 196.261408 191.771549 
z
" style="stroke:#000000;"/>
    <path clip-path="url(#p0afe38d381)" d="M 199.902475 155.137747 
L 198.24793 156.315887 
L 198.864992 156.287407 
z
" style="stroke:#000000;"/>
    <path clip-path="url(#p0afe38d381)" d="M 200.114976 196.740346 
L 197.762595 194.335435 
L 198.378987 194.363615 
z
" style="stroke:#000000;"/>
    <path clip-path="url(#p0afe38d381)" d="M 196.261408 162.508326 
L 195.622056 165.220048 
L 195.009467 165.235245 
z
" style="stroke:#000000;"/>
    <path clip-path="url(#p0afe38d381)" d="M 191.659863 170.663526 
L 193.306591 171.053479 
L 192.874817 174.080285 
z
" style="stroke:#000000;"/>
    <path clip-path="url(#p0afe38d381)" d="M 193.306591 183.228197 
L 191.659863 183.619154 
L 192.874817 180.201654 
z
" style="stroke:#000000;"/>
    <path clip-path="url(#p0afe38d381)" d="M 196.402832 195.43779 
L 195.417335 192.73573 
L 194.805028 192.709959 
z
" style="stroke:#000000;"/>
    <path clip-path="url(#p0afe38d381)" d="M 193.306591 171.053479 
L 191.659863 170.663526 
L 192.420125 167.514504 
z
" style="stroke:#000000;"/>
    <path clip-path="url(#p0afe38d381)" d="M 191.659863 183.619154 
L 193.306591 183.228197 
L 192.420125 186.767713 
z
" style="stroke:#000000;"/>
    <path clip-path="url(#p0afe38d381)" d="M 192.874817 180.201654 
L 191.200247 180.398493 
L 192.730343 177.141014 
z
" style="stroke:#000000;"/>
    <path clip-path="url(#p0afe38d381)" d="M 191.200247 173.884467 
L 192.874817 174.080285 
L 192.730343 177.141014 
z
" style="stroke:#000000;"/>
    <path clip-path="url(#p0afe38d381)" d="M 197.017346 195.46762 
L 198.24793 197.962777 
L 198.864992 197.99636 
z
" style="stroke:#000000;"/>
    <path clip-path="url(#p0afe38d381)" d="M 192.874817 174.080285 
L 191.200247 173.884467 
L 191.659863 170.663526 
z
" style="stroke:#000000;"/>
    <path clip-path="url(#p0afe38d381)" d="M 191.200247 180.398493 
L 192.874817 180.201654 
L 191.659863 183.619154 
z
" style="stroke:#000000;"/>
    <path clip-path="url(#p0afe38d381)" d="M 194.020822 186.187059 
L 195.622056 189.0657 
L 195.009467 189.045394 
z
" style="stroke:#000000;"/>
    <path clip-path="url(#p0afe38d381)" d="M 200.114976 196.740346 
L 200.635003 198.727287 
L 201.404161 198.168712 
z
" style="stroke:#000000;"/>
    <path clip-path="url(#p0afe38d381)" d="M 200.635003 155.5554 
L 200.114976 157.542659 
L 201.404161 156.113506 
z
" style="stroke:#000000;"/>
    <path clip-path="url(#p0afe38d381)" d="M 196.875727 162.489067 
L 197.762595 159.943525 
L 198.378987 159.92045 
z
" style="stroke:#000000;"/>
    <path clip-path="url(#p0afe38d381)" d="M 192.730343 177.141014 
L 191.046468 177.141527 
L 191.200247 173.884467 
z
" style="stroke:#000000;"/>
    <path clip-path="url(#p0afe38d381)" d="M 191.046468 177.141527 
L 192.730343 177.141014 
L 191.200247 180.398493 
z
" style="stroke:#000000;"/>
    <path clip-path="url(#p0afe38d381)" d="M 193.472454 164.47237 
L 195.417335 161.550142 
L 194.805028 161.570804 
z
" style="stroke:#000000;"/>
    <path clip-path="url(#p0afe38d381)" d="M 195.009467 165.235245 
L 194.632045 168.083246 
L 194.020822 168.094181 
z
" style="stroke:#000000;"/>
    <path clip-path="url(#p0afe38d381)" d="M 198.864992 156.287407 
L 196.402832 158.841999 
L 197.017346 158.817275 
z
" style="stroke:#000000;"/>
    <path clip-path="url(#p0afe38d381)" d="M 198.378987 194.363615 
L 196.261408 191.771549 
L 196.875727 191.795915 
z
" style="stroke:#000000;"/>
    <path clip-path="url(#p0afe38d381)" d="M 191.607871 157.590423 
L 188.799731 154.074622 
L 193.010891 157.205508 
z
" style="stroke:#000000;"/>
    <path clip-path="url(#p0afe38d381)" d="M 193.010891 157.205508 
L 188.799731 163.426347 
L 191.607871 157.590423 
z
" style="stroke:#000000;"/>
    <path clip-path="url(#p0afe38d381)" d="M 194.805028 192.709959 
L 194.082919 189.830656 
L 193.472454 189.809205 
z
" style="stroke:#000000;"/>
    <path clip-path="url(#p0afe38d381)" d="M 193.306591 183.228197 
L 194.632045 186.203106 
L 194.020822 186.187059 
z
" style="stroke:#000000;"/>
    <path clip-path="url(#p0afe38d381)" d="M 198.864992 197.99636 
L 200.635003 198.727287 
L 200.114976 196.740346 
z
" style="stroke:#000000;"/>
    <path clip-path="url(#p0afe38d381)" d="M 200.635003 155.5554 
L 198.864992 156.287407 
L 200.114976 157.542659 
z
" style="stroke:#000000;"/>
    <path clip-path="url(#p0afe38d381)" d="M 200.635003 198.727287 
L 198.864992 197.99636 
L 199.902475 199.145387 
z
" style="stroke:#000000;"/>
    <path clip-path="url(#p0afe38d381)" d="M 198.864992 156.287407 
L 200.635003 155.5554 
L 199.902475 155.137747 
z
" style="stroke:#000000;"/>
    <path clip-path="url(#p0afe38d381)" d="M 194.020822 168.094181 
L 193.916827 171.046956 
L 193.306591 171.053479 
z
" style="stroke:#000000;"/>
    <path clip-path="url(#p0afe38d381)" d="M 192.874817 180.201654 
L 193.916827 183.239833 
L 193.306591 183.228197 
z
" style="stroke:#000000;"/>
    <path clip-path="url(#p0afe38d381)" d="M 192.420125 167.514504 
L 194.082919 164.456031 
L 193.472454 164.47237 
z
" style="stroke:#000000;"/>
    <path clip-path="url(#p0afe38d381)" d="M 195.417335 192.73573 
L 196.402832 195.43779 
L 197.017346 195.46762 
z
" style="stroke:#000000;"/>
    <path clip-path="url(#p0afe38d381)" d="M 195.622056 165.220048 
L 196.261408 162.508326 
L 196.875727 162.489067 
z
" style="stroke:#000000;"/>
    <path clip-path="url(#p0afe38d381)" d="M 193.306591 171.053479 
L 193.484455 174.078277 
L 192.874817 174.080285 
z
" style="stroke:#000000;"/>
    <path clip-path="url(#p0afe38d381)" d="M 188.799731 163.426347 
L 193.010891 157.205508 
L 188.799731 166.543589 
z
" style="stroke:#000000;"/>
    <path clip-path="url(#p0afe38d381)" d="M 198.864992 197.99636 
L 200.114976 196.740346 
L 198.378987 194.363615 
z
" style="stroke:#000000;"/>
    <path clip-path="url(#p0afe38d381)" d="M 200.114976 157.542659 
L 198.864992 156.287407 
L 198.378987 159.92045 
z
" style="stroke:#000000;"/>
    <path clip-path="url(#p0afe38d381)" d="M 192.730343 177.141014 
L 193.484455 180.208776 
L 192.874817 180.201654 
z
" style="stroke:#000000;"/>
    <path clip-path="url(#p0afe38d381)" d="M 192.874817 174.080285 
L 193.339781 177.14357 
L 192.730343 177.141014 
z
" style="stroke:#000000;"/>
    <path clip-path="url(#p0afe38d381)" d="M 193.472454 189.809205 
L 193.029134 186.78463 
L 192.420125 186.767713 
z
" style="stroke:#000000;"/>
    <path clip-path="url(#p0afe38d381)" d="M 196.875727 191.795915 
L 195.009467 189.045394 
L 195.622056 189.0657 
z
" style="stroke:#000000;"/>
    <path clip-path="url(#p0afe38d381)" d="M 197.017346 158.817275 
L 194.805028 161.570804 
L 195.417335 161.550142 
z
" style="stroke:#000000;"/>
    <path clip-path="url(#p0afe38d381)" d="M 188.799731 154.074622 
L 191.607871 157.590423 
L 188.799731 155.633243 
z
" style="stroke:#000000;"/>
    <path clip-path="url(#p0afe38d381)" d="M 191.659863 170.663526 
L 193.029134 167.5027 
L 192.420125 167.514504 
z
" style="stroke:#000000;"/>
    <path clip-path="url(#p0afe38d381)" d="M 192.420125 186.767713 
L 192.26782 183.631376 
L 191.659863 183.619154 
z
" style="stroke:#000000;"/>
    <path clip-path="url(#p0afe38d381)" d="M 198.864992 197.99636 
L 198.378987 194.363615 
L 197.017346 195.46762 
z
" style="stroke:#000000;"/>
    <path clip-path="url(#p0afe38d381)" d="M 198.378987 159.92045 
L 198.864992 156.287407 
L 197.017346 158.817275 
z
" style="stroke:#000000;"/>
    <path clip-path="url(#p0afe38d381)" d="M 194.632045 168.083246 
L 195.009467 165.235245 
L 195.622056 165.220048 
z
" style="stroke:#000000;"/>
    <path clip-path="url(#p0afe38d381)" d="M 194.082919 189.830656 
L 194.805028 192.709959 
L 195.417335 192.73573 
z
" style="stroke:#000000;"/>
    <path clip-path="url(#p0afe38d381)" d="M 195.622056 189.0657 
L 194.020822 186.187059 
L 194.632045 186.203106 
z
" style="stroke:#000000;"/>
    <path clip-path="url(#p0afe38d381)" d="M 191.200247 173.884467 
L 192.26782 170.656419 
L 191.659863 170.663526 
z
" style="stroke:#000000;"/>
    <path clip-path="url(#p0afe38d381)" d="M 191.659863 183.619154 
L 191.807569 180.405911 
L 191.200247 180.398493 
z
" style="stroke:#000000;"/>
    <path clip-path="url(#p0afe38d381)" d="M 197.017346 195.46762 
L 198.378987 194.363615 
L 196.875727 191.795915 
z
" style="stroke:#000000;"/>
    <path clip-path="url(#p0afe38d381)" d="M 198.378987 159.92045 
L 197.017346 158.817275 
L 196.875727 162.489067 
z
" style="stroke:#000000;"/>
    <path clip-path="url(#p0afe38d381)" d="M 191.046468 177.141527 
L 191.807569 173.882165 
L 191.200247 173.884467 
z
" style="stroke:#000000;"/>
    <path clip-path="url(#p0afe38d381)" d="M 195.417335 161.550142 
L 193.472454 164.47237 
L 194.082919 164.456031 
z
" style="stroke:#000000;"/>
    <path clip-path="url(#p0afe38d381)" d="M 191.200247 180.398493 
L 191.653576 177.144085 
L 191.046468 177.141527 
z
" style="stroke:#000000;"/>
    <path clip-path="url(#p0afe38d381)" d="M 193.916827 171.046956 
L 194.020822 168.094181 
L 194.632045 168.083246 
z
" style="stroke:#000000;"/>
    <path clip-path="url(#p0afe38d381)" d="M 194.632045 186.203106 
L 193.306591 183.228197 
L 193.916827 183.239833 
z
" style="stroke:#000000;"/>
    <path clip-path="url(#p0afe38d381)" d="M 192.215757 157.563811 
L 188.799731 155.633243 
L 191.607871 157.590423 
z
" style="stroke:#000000;"/>
    <path clip-path="url(#p0afe38d381)" d="M 188.799731 163.426347 
L 192.215757 157.563811 
L 191.607871 157.590423 
z
" style="stroke:#000000;"/>
    <path clip-path="url(#p0afe38d381)" d="M 188.799731 154.074622 
L 188.799731 155.633243 
L 185.988786 157.572605 
z
" style="stroke:#000000;"/>
    <path clip-path="url(#p0afe38d381)" d="M 193.484455 174.078277 
L 193.306591 171.053479 
L 193.916827 171.046956 
z
" style="stroke:#000000;"/>
    <path clip-path="url(#p0afe38d381)" d="M 193.029134 186.78463 
L 193.472454 189.809205 
L 194.082919 189.830656 
z
" style="stroke:#000000;"/>
    <path clip-path="url(#p0afe38d381)" d="M 197.017346 195.46762 
L 196.875727 191.795915 
L 195.417335 192.73573 
z
" style="stroke:#000000;"/>
    <path clip-path="url(#p0afe38d381)" d="M 196.875727 162.489067 
L 197.017346 158.817275 
L 195.417335 161.550142 
z
" style="stroke:#000000;"/>
    <path clip-path="url(#p0afe38d381)" d="M 193.916827 183.239833 
L 192.874817 180.201654 
L 193.484455 180.208776 
z
" style="stroke:#000000;"/>
    <path clip-path="url(#p0afe38d381)" d="M 189.403729 154.042748 
L 193.010891 157.205508 
L 188.799731 154.074622 
z
" style="stroke:#000000;"/>
    <path clip-path="url(#p0afe38d381)" d="M 193.010891 157.205508 
L 189.403729 166.530329 
L 188.799731 166.543589 
z
" style="stroke:#000000;"/>
    <path clip-path="url(#p0afe38d381)" d="M 188.799731 163.426347 
L 188.799731 166.543589 
L 184.582261 157.178198 
z
" style="stroke:#000000;"/>
    <path clip-path="url(#p0afe38d381)" d="M 193.339781 177.14357 
L 192.874817 174.080285 
L 193.484455 174.078277 
z
" style="stroke:#000000;"/>
    <path clip-path="url(#p0afe38d381)" d="M 193.484455 180.208776 
L 192.730343 177.141014 
L 193.339781 177.14357 
z
" style="stroke:#000000;"/>
    <path clip-path="url(#p0afe38d381)" d="M 194.082919 164.456031 
L 192.420125 167.514504 
L 193.029134 167.5027 
z
" style="stroke:#000000;"/>
    <path clip-path="url(#p0afe38d381)" d="M 195.417335 192.73573 
L 196.875727 191.795915 
L 195.622056 189.0657 
z
" style="stroke:#000000;"/>
    <path clip-path="url(#p0afe38d381)" d="M 196.875727 162.489067 
L 195.417335 161.550142 
L 195.622056 165.220048 
z
" style="stroke:#000000;"/>
    <path clip-path="url(#p0afe38d381)" d="M 192.26782 183.631376 
L 192.420125 186.767713 
L 193.029134 186.78463 
z
" style="stroke:#000000;"/>
    <path clip-path="url(#p0afe38d381)" d="M 188.799731 154.074622 
L 185.988786 157.572605 
L 184.582261 157.178198 
z
" style="stroke:#000000;"/>
    <path clip-path="url(#p0afe38d381)" d="M 188.799731 163.426347 
L 184.582261 157.178198 
L 185.988786 157.572605 
z
" style="stroke:#000000;"/>
    <path clip-path="url(#p0afe38d381)" d="M 193.029134 167.5027 
L 191.659863 170.663526 
L 192.26782 170.656419 
z
" style="stroke:#000000;"/>
    <path clip-path="url(#p0afe38d381)" d="M 195.622056 189.0657 
L 194.082919 189.830656 
L 195.417335 192.73573 
z
" style="stroke:#000000;"/>
    <path clip-path="url(#p0afe38d381)" d="M 194.082919 164.456031 
L 195.622056 165.220048 
L 195.417335 161.550142 
z
" style="stroke:#000000;"/>
    <path clip-path="url(#p0afe38d381)" d="M 193.010891 157.205508 
L 189.403729 154.042748 
L 193.620717 157.178329 
z
" style="stroke:#000000;"/>
    <path clip-path="url(#p0afe38d381)" d="M 189.403729 166.530329 
L 193.010891 157.205508 
L 193.620717 157.178329 
z
" style="stroke:#000000;"/>
    <path clip-path="url(#p0afe38d381)" d="M 186.5512 177.142897 
L 184.863622 177.143411 
L 186.397166 173.88315 
z
" style="stroke:#000000;"/>
    <path clip-path="url(#p0afe38d381)" d="M 184.863622 177.143411 
L 186.5512 177.142897 
L 186.397166 180.402738 
z
" style="stroke:#000000;"/>
    <path clip-path="url(#p0afe38d381)" d="M 191.807569 180.405911 
L 191.659863 183.619154 
L 192.26782 183.631376 
z
" style="stroke:#000000;"/>
    <path clip-path="url(#p0afe38d381)" d="M 194.082919 189.830656 
L 195.622056 189.0657 
L 194.632045 186.203106 
z
" style="stroke:#000000;"/>
    <path clip-path="url(#p0afe38d381)" d="M 195.622056 165.220048 
L 194.082919 164.456031 
L 194.632045 168.083246 
z
" style="stroke:#000000;"/>
    <path clip-path="url(#p0afe38d381)" d="M 192.26782 170.656419 
L 191.200247 173.884467 
L 191.807569 173.882165 
z
" style="stroke:#000000;"/>
    <path clip-path="url(#p0afe38d381)" d="M 186.397166 173.88315 
L 184.718736 174.078332 
L 185.93669 170.658679 
z
" style="stroke:#000000;"/>
    <path clip-path="url(#p0afe38d381)" d="M 184.718736 180.208579 
L 186.397166 180.402738 
L 185.93669 183.627489 
z
" style="stroke:#000000;"/>
    <path clip-path="url(#p0afe38d381)" d="M 191.653576 177.144085 
L 191.200247 180.398493 
L 191.807569 180.405911 
z
" style="stroke:#000000;"/>
    <path clip-path="url(#p0afe38d381)" d="M 191.807569 173.882165 
L 191.046468 177.141527 
L 191.653576 177.144085 
z
" style="stroke:#000000;"/>
    <path clip-path="url(#p0afe38d381)" d="M 186.397166 180.402738 
L 184.718736 180.208579 
L 184.863622 177.143411 
z
" style="stroke:#000000;"/>
    <path clip-path="url(#p0afe38d381)" d="M 184.718736 174.078332 
L 186.397166 173.88315 
L 184.863622 177.143411 
z
" style="stroke:#000000;"/>
    <path clip-path="url(#p0afe38d381)" d="M 185.93669 170.658679 
L 184.285642 171.046463 
L 185.174674 167.504311 
z
" style="stroke:#000000;"/>
    <path clip-path="url(#p0afe38d381)" d="M 184.285642 183.240712 
L 185.93669 183.627489 
L 185.174674 186.782322 
z
" style="stroke:#000000;"/>
    <path clip-path="url(#p0afe38d381)" d="M 189.403729 155.603696 
L 185.988786 157.572605 
L 188.799731 155.633243 
z
" style="stroke:#000000;"/>
    <path clip-path="url(#p0afe38d381)" d="M 185.988786 157.572605 
L 189.403729 163.408434 
L 188.799731 163.426347 
z
" style="stroke:#000000;"/>
    <path clip-path="url(#p0afe38d381)" d="M 184.285642 171.046463 
L 185.93669 170.658679 
L 184.718736 174.078332 
z
" style="stroke:#000000;"/>
    <path clip-path="url(#p0afe38d381)" d="M 185.93669 183.627489 
L 184.285642 183.240712 
L 184.718736 180.208579 
z
" style="stroke:#000000;"/>
    <path clip-path="url(#p0afe38d381)" d="M 194.632045 186.203106 
L 193.029134 186.78463 
L 194.082919 189.830656 
z
" style="stroke:#000000;"/>
    <path clip-path="url(#p0afe38d381)" d="M 193.029134 167.5027 
L 194.632045 168.083246 
L 194.082919 164.456031 
z
" style="stroke:#000000;"/>
    <path clip-path="url(#p0afe38d381)" d="M 193.029134 186.78463 
L 194.632045 186.203106 
L 193.916827 183.239833 
z
" style="stroke:#000000;"/>
    <path clip-path="url(#p0afe38d381)" d="M 194.632045 168.083246 
L 193.029134 167.5027 
L 193.916827 171.046956 
z
" style="stroke:#000000;"/>
    <path clip-path="url(#p0afe38d381)" d="M 183.568936 168.08055 
L 185.174674 167.504311 
L 184.285642 171.046463 
z
" style="stroke:#000000;"/>
    <path clip-path="url(#p0afe38d381)" d="M 185.174674 186.782322 
L 183.568936 186.207061 
L 184.285642 183.240712 
z
" style="stroke:#000000;"/>
    <path clip-path="url(#p0afe38d381)" d="M 185.174674 167.504311 
L 183.568936 168.08055 
L 184.119236 164.454149 
z
" style="stroke:#000000;"/>
    <path clip-path="url(#p0afe38d381)" d="M 183.568936 186.207061 
L 185.174674 186.782322 
L 184.119236 189.833128 
z
" style="stroke:#000000;"/>
    <path clip-path="url(#p0afe38d381)" d="M 192.26782 183.631376 
L 193.916827 183.239833 
L 193.484455 180.208776 
z
" style="stroke:#000000;"/>
    <path clip-path="url(#p0afe38d381)" d="M 193.916827 171.046956 
L 192.26782 170.656419 
L 193.484455 174.078277 
z
" style="stroke:#000000;"/>
    <path clip-path="url(#p0afe38d381)" d="M 188.799731 155.633243 
L 192.215757 157.563811 
L 189.403729 155.603696 
z
" style="stroke:#000000;"/>
    <path clip-path="url(#p0afe38d381)" d="M 192.215757 157.563811 
L 188.799731 163.426347 
L 189.403729 163.408434 
z
" style="stroke:#000000;"/>
    <path clip-path="url(#p0afe38d381)" d="M 193.916827 183.239833 
L 192.26782 183.631376 
L 193.029134 186.78463 
z
" style="stroke:#000000;"/>
    <path clip-path="url(#p0afe38d381)" d="M 192.26782 170.656419 
L 193.916827 171.046956 
L 193.029134 167.5027 
z
" style="stroke:#000000;"/>
    <path clip-path="url(#p0afe38d381)" d="M 193.484455 174.078277 
L 191.807569 173.882165 
L 193.339781 177.14357 
z
" style="stroke:#000000;"/>
    <path clip-path="url(#p0afe38d381)" d="M 191.807569 180.405911 
L 193.484455 180.208776 
L 193.339781 177.14357 
z
" style="stroke:#000000;"/>
    <path clip-path="url(#p0afe38d381)" d="M 186.397166 173.88315 
L 187.152082 177.145459 
L 186.5512 177.142897 
z
" style="stroke:#000000;"/>
    <path clip-path="url(#p0afe38d381)" d="M 186.5512 177.142897 
L 186.997834 180.410169 
L 186.397166 180.402738 
z
" style="stroke:#000000;"/>
    <path clip-path="url(#p0afe38d381)" d="M 193.484455 180.208776 
L 191.807569 180.405911 
L 192.26782 183.631376 
z
" style="stroke:#000000;"/>
    <path clip-path="url(#p0afe38d381)" d="M 191.807569 173.882165 
L 193.484455 174.078277 
L 192.26782 170.656419 
z
" style="stroke:#000000;"/>
    <path clip-path="url(#p0afe38d381)" d="M 185.93669 170.658679 
L 186.997834 173.880844 
L 186.397166 173.88315 
z
" style="stroke:#000000;"/>
    <path clip-path="url(#p0afe38d381)" d="M 182.576262 165.212704 
L 184.119236 164.454149 
L 183.568936 168.08055 
z
" style="stroke:#000000;"/>
    <path clip-path="url(#p0afe38d381)" d="M 184.119236 189.833128 
L 182.576262 189.075513 
L 183.568936 186.207061 
z
" style="stroke:#000000;"/>
    <path clip-path="url(#p0afe38d381)" d="M 186.397166 180.402738 
L 186.536719 183.639736 
L 185.93669 183.627489 
z
" style="stroke:#000000;"/>
    <path clip-path="url(#p0afe38d381)" d="M 193.339781 177.14357 
L 191.653576 177.144085 
L 191.807569 180.405911 
z
" style="stroke:#000000;"/>
    <path clip-path="url(#p0afe38d381)" d="M 191.653576 177.144085 
L 193.339781 177.14357 
L 191.807569 173.882165 
z
" style="stroke:#000000;"/>
    <path clip-path="url(#p0afe38d381)" d="M 185.180411 157.150937 
L 188.799731 154.074622 
L 184.582261 157.178198 
z
" style="stroke:#000000;"/>
    <path clip-path="url(#p0afe38d381)" d="M 188.799731 166.543589 
L 185.180411 157.150937 
L 184.582261 157.178198 
z
" style="stroke:#000000;"/>
    <path clip-path="url(#p0afe38d381)" d="M 184.119236 164.454149 
L 182.576262 165.212704 
L 182.781591 161.541169 
z
" style="stroke:#000000;"/>
    <path clip-path="url(#p0afe38d381)" d="M 182.576262 189.075513 
L 184.119236 189.833128 
L 182.781591 192.746923 
z
" style="stroke:#000000;"/>
    <path clip-path="url(#p0afe38d381)" d="M 185.174674 167.504311 
L 186.536719 170.651558 
L 185.93669 170.658679 
z
" style="stroke:#000000;"/>
    <path clip-path="url(#p0afe38d381)" d="M 189.403729 163.408434 
L 193.620717 157.178329 
L 192.215757 157.563811 
z
" style="stroke:#000000;"/>
    <path clip-path="url(#p0afe38d381)" d="M 189.403729 154.042748 
L 192.215757 157.563811 
L 193.620717 157.178329 
z
" style="stroke:#000000;"/>
    <path clip-path="url(#p0afe38d381)" d="M 185.93669 183.627489 
L 185.773646 186.799284 
L 185.174674 186.782322 
z
" style="stroke:#000000;"/>
    <path clip-path="url(#p0afe38d381)" d="M 181.318216 162.473978 
L 182.781591 161.541169 
L 182.576262 165.212704 
z
" style="stroke:#000000;"/>
    <path clip-path="url(#p0afe38d381)" d="M 182.781591 192.746923 
L 181.318216 191.815006 
L 182.576262 189.075513 
z
" style="stroke:#000000;"/>
    <path clip-path="url(#p0afe38d381)" d="M 184.119236 164.454149 
L 185.773646 167.492476 
L 185.174674 167.504311 
z
" style="stroke:#000000;"/>
    <path clip-path="url(#p0afe38d381)" d="M 184.718736 180.208579 
L 185.462163 177.145975 
L 184.863622 177.143411 
z
" style="stroke:#000000;"/>
    <path clip-path="url(#p0afe38d381)" d="M 184.863622 177.143411 
L 185.317076 174.076318 
L 184.718736 174.078332 
z
" style="stroke:#000000;"/>
    <path clip-path="url(#p0afe38d381)" d="M 193.620717 157.178329 
L 189.403729 163.408434 
L 189.403729 166.530329 
z
" style="stroke:#000000;"/>
    <path clip-path="url(#p0afe38d381)" d="M 188.799731 154.074622 
L 185.180411 157.150937 
L 189.403729 154.042748 
z
" style="stroke:#000000;"/>
    <path clip-path="url(#p0afe38d381)" d="M 185.180411 157.150937 
L 188.799731 166.543589 
L 189.403729 166.530329 
z
" style="stroke:#000000;"/>
    <path clip-path="url(#p0afe38d381)" d="M 184.285642 183.240712 
L 185.317076 180.215721 
L 184.718736 180.208579 
z
" style="stroke:#000000;"/>
    <path clip-path="url(#p0afe38d381)" d="M 182.781591 161.541169 
L 181.318216 162.473978 
L 181.176032 158.797065 
z
" style="stroke:#000000;"/>
    <path clip-path="url(#p0afe38d381)" d="M 181.318216 191.815006 
L 182.781591 192.746923 
L 181.176032 195.492005 
z
" style="stroke:#000000;"/>
    <path clip-path="url(#p0afe38d381)" d="M 185.174674 186.782322 
L 184.716745 189.85465 
L 184.119236 189.833128 
z
" style="stroke:#000000;"/>
    <path clip-path="url(#p0afe38d381)" d="M 184.718736 174.078332 
L 184.883381 171.039919 
L 184.285642 171.046463 
z
" style="stroke:#000000;"/>
    <path clip-path="url(#p0afe38d381)" d="M 192.215757 157.563811 
L 189.403729 154.042748 
L 189.403729 155.603696 
z
" style="stroke:#000000;"/>
    <path clip-path="url(#p0afe38d381)" d="M 185.988786 157.572605 
L 189.403729 155.603696 
L 186.588888 157.54594 
z
" style="stroke:#000000;"/>
    <path clip-path="url(#p0afe38d381)" d="M 189.403729 163.408434 
L 185.988786 157.572605 
L 186.588888 157.54594 
z
" style="stroke:#000000;"/>
    <path clip-path="url(#p0afe38d381)" d="M 183.568936 186.207061 
L 184.883381 183.252385 
L 184.285642 183.240712 
z
" style="stroke:#000000;"/>
    <path clip-path="url(#p0afe38d381)" d="M 184.285642 171.046463 
L 184.16568 168.069574 
L 183.568936 168.08055 
z
" style="stroke:#000000;"/>
    <path clip-path="url(#p0afe38d381)" d="M 186.997834 180.410169 
L 186.5512 177.142897 
L 187.152082 177.145459 
z
" style="stroke:#000000;"/>
    <path clip-path="url(#p0afe38d381)" d="M 182.781591 161.541169 
L 184.716745 164.437755 
L 184.119236 164.454149 
z
" style="stroke:#000000;"/>
    <path clip-path="url(#p0afe38d381)" d="M 187.152082 177.145459 
L 186.397166 173.88315 
L 186.997834 173.880844 
z
" style="stroke:#000000;"/>
    <path clip-path="url(#p0afe38d381)" d="M 181.176032 158.797065 
L 181.318216 162.473978 
L 179.808228 159.89405 
z
" style="stroke:#000000;"/>
    <path clip-path="url(#p0afe38d381)" d="M 181.318216 191.815006 
L 181.176032 195.492005 
L 179.808228 194.395854 
z
" style="stroke:#000000;"/>
    <path clip-path="url(#p0afe38d381)" d="M 186.536719 183.639736 
L 186.397166 180.402738 
L 186.997834 180.410169 
z
" style="stroke:#000000;"/>
    <path clip-path="url(#p0afe38d381)" d="M 186.997834 173.880844 
L 185.93669 170.658679 
L 186.536719 170.651558 
z
" style="stroke:#000000;"/>
    <path clip-path="url(#p0afe38d381)" d="M 182.576262 189.075513 
L 184.16568 186.223168 
L 183.568936 186.207061 
z
" style="stroke:#000000;"/>
    <path clip-path="url(#p0afe38d381)" d="M 184.119236 189.833128 
L 183.377243 192.772804 
L 182.781591 192.746923 
z
" style="stroke:#000000;"/>
    <path clip-path="url(#p0afe38d381)" d="M 181.176032 158.797065 
L 179.808228 159.89405 
L 179.319702 156.251502 
z
" style="stroke:#000000;"/>
    <path clip-path="url(#p0afe38d381)" d="M 179.808228 194.395854 
L 181.176032 195.492005 
L 179.319702 198.0387 
z
" style="stroke:#000000;"/>
    <path clip-path="url(#p0afe38d381)" d="M 183.568936 168.08055 
L 183.171629 165.197439 
L 182.576262 165.212704 
z
" style="stroke:#000000;"/>
    <path clip-path="url(#p0afe38d381)" d="M 185.773646 186.799284 
L 185.93669 183.627489 
L 186.536719 183.639736 
z
" style="stroke:#000000;"/>
    <path clip-path="url(#p0afe38d381)" d="M 186.536719 170.651558 
L 185.174674 167.504311 
L 185.773646 167.492476 
z
" style="stroke:#000000;"/>
    <path clip-path="url(#p0afe38d381)" d="M 189.403729 154.042748 
L 186.588888 157.54594 
L 189.403729 155.603696 
z
" style="stroke:#000000;"/>
    <path clip-path="url(#p0afe38d381)" d="M 181.176032 158.797065 
L 183.377243 161.520419 
L 182.781591 161.541169 
z
" style="stroke:#000000;"/>
    <path clip-path="url(#p0afe38d381)" d="M 181.318216 191.815006 
L 183.171629 189.095909 
L 182.576262 189.075513 
z
" style="stroke:#000000;"/>
    <path clip-path="url(#p0afe38d381)" d="M 184.716745 189.85465 
L 185.174674 186.782322 
L 185.773646 186.799284 
z
" style="stroke:#000000;"/>
    <path clip-path="url(#p0afe38d381)" d="M 185.317076 174.076318 
L 184.863622 177.143411 
L 185.462163 177.145975 
z
" style="stroke:#000000;"/>
    <path clip-path="url(#p0afe38d381)" d="M 185.462163 177.145975 
L 184.718736 180.208579 
L 185.317076 180.215721 
z
" style="stroke:#000000;"/>
    <path clip-path="url(#p0afe38d381)" d="M 179.319702 156.251502 
L 179.808228 159.89405 
L 178.062456 157.501123 
z
" style="stroke:#000000;"/>
    <path clip-path="url(#p0afe38d381)" d="M 179.808228 194.395854 
L 179.319702 198.0387 
L 178.062456 196.789845 
z
" style="stroke:#000000;"/>
    <path clip-path="url(#p0afe38d381)" d="M 189.403729 163.408434 
L 185.180411 157.150937 
L 189.403729 166.530329 
z
" style="stroke:#000000;"/>
    <path clip-path="url(#p0afe38d381)" d="M 184.883381 171.039919 
L 184.718736 174.078332 
L 185.317076 174.076318 
z
" style="stroke:#000000;"/>
    <path clip-path="url(#p0afe38d381)" d="M 182.576262 165.212704 
L 181.911835 162.454617 
L 181.318216 162.473978 
z
" style="stroke:#000000;"/>
    <path clip-path="url(#p0afe38d381)" d="M 182.781591 192.746923 
L 181.769453 195.521997 
L 181.176032 195.492005 
z
" style="stroke:#000000;"/>
    <path clip-path="url(#p0afe38d381)" d="M 185.773646 167.492476 
L 184.119236 164.454149 
L 184.716745 164.437755 
z
" style="stroke:#000000;"/>
    <path clip-path="url(#p0afe38d381)" d="M 185.317076 180.215721 
L 184.285642 183.240712 
L 184.883381 183.252385 
z
" style="stroke:#000000;"/>
    <path clip-path="url(#p0afe38d381)" d="M 184.16568 168.069574 
L 184.285642 171.046463 
L 184.883381 171.039919 
z
" style="stroke:#000000;"/>
    <path clip-path="url(#p0afe38d381)" d="M 179.319702 156.251502 
L 177.539078 155.505556 
L 178.276271 155.092167 
z
" style="stroke:#000000;"/>
    <path clip-path="url(#p0afe38d381)" d="M 177.539078 198.785731 
L 179.319702 198.0387 
L 178.276271 199.198671 
z
" style="stroke:#000000;"/>
    <path clip-path="url(#p0afe38d381)" d="M 177.539078 155.505556 
L 179.319702 156.251502 
L 178.062456 157.501123 
z
" style="stroke:#000000;"/>
    <path clip-path="url(#p0afe38d381)" d="M 179.319702 198.0387 
L 177.539078 198.785731 
L 178.062456 196.789845 
z
" style="stroke:#000000;"/>
    <path clip-path="url(#p0afe38d381)" d="M 184.883381 183.252385 
L 183.568936 186.207061 
L 184.16568 186.223168 
z
" style="stroke:#000000;"/>
    <path clip-path="url(#p0afe38d381)" d="M 183.377243 192.772804 
L 184.119236 189.833128 
L 184.716745 189.85465 
z
" style="stroke:#000000;"/>
    <path clip-path="url(#p0afe38d381)" d="M 185.180411 157.150937 
L 189.403729 163.408434 
L 186.588888 157.54594 
z
" style="stroke:#000000;"/>
    <path clip-path="url(#p0afe38d381)" d="M 186.588888 157.54594 
L 189.403729 154.042748 
L 185.180411 157.150937 
z
" style="stroke:#000000;"/>
    <path clip-path="url(#p0afe38d381)" d="M 179.808228 194.395854 
L 181.911835 191.839501 
L 181.318216 191.815006 
z
" style="stroke:#000000;"/>
    <path clip-path="url(#p0afe38d381)" d="M 179.319702 156.251502 
L 181.769453 158.772207 
L 181.176032 158.797065 
z
" style="stroke:#000000;"/>
    <path clip-path="url(#p0afe38d381)" d="M 183.171629 165.197439 
L 183.568936 168.08055 
L 184.16568 168.069574 
z
" style="stroke:#000000;"/>
    <path clip-path="url(#p0afe38d381)" d="M 184.716745 164.437755 
L 182.781591 161.541169 
L 183.377243 161.520419 
z
" style="stroke:#000000;"/>
    <path clip-path="url(#p0afe38d381)" d="M 187.152082 177.145459 
L 185.462163 177.145975 
L 186.997834 180.410169 
z
" style="stroke:#000000;"/>
    <path clip-path="url(#p0afe38d381)" d="M 185.462163 177.145975 
L 187.152082 177.145459 
L 186.997834 173.880844 
z
" style="stroke:#000000;"/>
    <path clip-path="url(#p0afe38d381)" d="M 181.318216 162.473978 
L 180.399749 159.870826 
L 179.808228 159.89405 
z
" style="stroke:#000000;"/>
    <path clip-path="url(#p0afe38d381)" d="M 177.539078 155.505556 
L 178.062456 157.501123 
L 176.764606 156.05975 
z
" style="stroke:#000000;"/>
    <path clip-path="url(#p0afe38d381)" d="M 178.062456 196.789845 
L 177.539078 198.785731 
L 176.764606 198.232009 
z
" style="stroke:#000000;"/>
    <path clip-path="url(#p0afe38d381)" d="M 184.16568 186.223168 
L 182.576262 189.075513 
L 183.171629 189.095909 
z
" style="stroke:#000000;"/>
    <path clip-path="url(#p0afe38d381)" d="M 186.997834 180.410169 
L 185.317076 180.215721 
L 186.536719 183.639736 
z
" style="stroke:#000000;"/>
    <path clip-path="url(#p0afe38d381)" d="M 185.317076 174.076318 
L 186.997834 173.880844 
L 186.536719 170.651558 
z
" style="stroke:#000000;"/>
    <path clip-path="url(#p0afe38d381)" d="M 181.176032 195.492005 
L 179.910543 198.07251 
L 179.319702 198.0387 
z
" style="stroke:#000000;"/>
    <path clip-path="url(#p0afe38d381)" d="M 186.997834 173.880844 
L 185.317076 174.076318 
L 185.462163 177.145975 
z
" style="stroke:#000000;"/>
    <path clip-path="url(#p0afe38d381)" d="M 185.317076 180.215721 
L 186.997834 180.410169 
L 185.462163 177.145975 
z
" style="stroke:#000000;"/>
    <path clip-path="url(#p0afe38d381)" d="M 186.536719 183.639736 
L 184.883381 183.252385 
L 185.773646 186.799284 
z
" style="stroke:#000000;"/>
    <path clip-path="url(#p0afe38d381)" d="M 184.883381 171.039919 
L 186.536719 170.651558 
L 185.773646 167.492476 
z
" style="stroke:#000000;"/>
    <path clip-path="url(#p0afe38d381)" d="M 181.769453 195.521997 
L 182.781591 192.746923 
L 183.377243 192.772804 
z
" style="stroke:#000000;"/>
    <path clip-path="url(#p0afe38d381)" d="M 184.883381 183.252385 
L 186.536719 183.639736 
L 185.317076 180.215721 
z
" style="stroke:#000000;"/>
    <path clip-path="url(#p0afe38d381)" d="M 186.536719 170.651558 
L 184.883381 171.039919 
L 185.317076 174.076318 
z
" style="stroke:#000000;"/>
    <path clip-path="url(#p0afe38d381)" d="M 181.911835 162.454617 
L 182.576262 165.212704 
L 183.171629 165.197439 
z
" style="stroke:#000000;"/>
    <path clip-path="url(#p0afe38d381)" d="M 178.062456 196.789845 
L 180.399749 194.424215 
L 179.808228 194.395854 
z
" style="stroke:#000000;"/>
    <path clip-path="url(#p0afe38d381)" d="M 178.276271 155.092167 
L 179.910543 156.222829 
L 179.319702 156.251502 
z
" style="stroke:#000000;"/>
    <path clip-path="url(#p0afe38d381)" d="M 183.171629 189.095909 
L 181.318216 191.815006 
L 181.911835 191.839501 
z
" style="stroke:#000000;"/>
    <path clip-path="url(#p0afe38d381)" d="M 183.377243 161.520419 
L 181.176032 158.797065 
L 181.769453 158.772207 
z
" style="stroke:#000000;"/>
    <path clip-path="url(#p0afe38d381)" d="M 184.16568 186.223168 
L 185.773646 186.799284 
L 184.883381 183.252385 
z
" style="stroke:#000000;"/>
    <path clip-path="url(#p0afe38d381)" d="M 185.773646 167.492476 
L 184.16568 168.069574 
L 184.883381 171.039919 
z
" style="stroke:#000000;"/>
    <path clip-path="url(#p0afe38d381)" d="M 185.773646 186.799284 
L 184.16568 186.223168 
L 184.716745 189.85465 
z
" style="stroke:#000000;"/>
    <path clip-path="url(#p0afe38d381)" d="M 184.16568 168.069574 
L 185.773646 167.492476 
L 184.716745 164.437755 
z
" style="stroke:#000000;"/>
    <path clip-path="url(#p0afe38d381)" d="M 179.808228 159.89405 
L 178.651549 157.474314 
L 178.062456 157.501123 
z
" style="stroke:#000000;"/>
    <path clip-path="url(#p0afe38d381)" d="M 179.319702 198.0387 
L 178.865661 199.234222 
L 178.276271 199.198671 
z
" style="stroke:#000000;"/>
    <path clip-path="url(#p0afe38d381)" d="M 178.865661 199.234222 
L 177.539078 198.785731 
L 178.276271 199.198671 
z
" style="stroke:#000000;"/>
    <path clip-path="url(#p0afe38d381)" d="M 180.399749 159.870826 
L 181.318216 162.473978 
L 181.911835 162.454617 
z
" style="stroke:#000000;"/>
    <path clip-path="url(#p0afe38d381)" d="M 183.171629 189.095909 
L 184.716745 189.85465 
L 184.16568 186.223168 
z
" style="stroke:#000000;"/>
    <path clip-path="url(#p0afe38d381)" d="M 184.716745 164.437755 
L 183.171629 165.197439 
L 184.16568 168.069574 
z
" style="stroke:#000000;"/>
    <path clip-path="url(#p0afe38d381)" d="M 178.127443 155.475759 
L 178.276271 155.092167 
L 177.539078 155.505556 
z
" style="stroke:#000000;"/>
    <path clip-path="url(#p0afe38d381)" d="M 179.910543 198.07251 
L 181.176032 195.492005 
L 181.769453 195.521997 
z
" style="stroke:#000000;"/>
    <path clip-path="url(#p0afe38d381)" d="M 178.651549 157.474314 
L 176.764606 156.05975 
L 178.062456 157.501123 
z
" style="stroke:#000000;"/>
    <path clip-path="url(#p0afe38d381)" d="M 184.716745 189.85465 
L 183.171629 189.095909 
L 183.377243 192.772804 
z
" style="stroke:#000000;"/>
    <path clip-path="url(#p0afe38d381)" d="M 183.171629 165.197439 
L 184.716745 164.437755 
L 183.377243 161.520419 
z
" style="stroke:#000000;"/>
    <path clip-path="url(#p0afe38d381)" d="M 181.911835 191.839501 
L 179.808228 194.395854 
L 180.399749 194.424215 
z
" style="stroke:#000000;"/>
    <path clip-path="url(#p0afe38d381)" d="M 178.127443 198.820669 
L 176.764606 198.232009 
L 177.539078 198.785731 
z
" style="stroke:#000000;"/>
    <path clip-path="url(#p0afe38d381)" d="M 177.351894 198.266124 
L 178.062456 196.789845 
L 176.764606 198.232009 
z
" style="stroke:#000000;"/>
    <path clip-path="url(#p0afe38d381)" d="M 181.769453 158.772207 
L 179.319702 156.251502 
L 179.910543 156.222829 
z
" style="stroke:#000000;"/>
    <path clip-path="url(#p0afe38d381)" d="M 177.351894 156.030778 
L 177.539078 155.505556 
L 176.764606 156.05975 
z
" style="stroke:#000000;"/>
    <path clip-path="url(#p0afe38d381)" d="M 181.911835 191.839501 
L 183.377243 192.772804 
L 183.171629 189.095909 
z
" style="stroke:#000000;"/>
    <path clip-path="url(#p0afe38d381)" d="M 183.377243 161.520419 
L 181.911835 162.454617 
L 183.171629 165.197439 
z
" style="stroke:#000000;"/>
    <path clip-path="url(#p0afe38d381)" d="M 178.651549 157.474314 
L 179.808228 159.89405 
L 180.399749 159.870826 
z
" style="stroke:#000000;"/>
    <path clip-path="url(#p0afe38d381)" d="M 178.865661 199.234222 
L 179.319702 198.0387 
L 179.910543 198.07251 
z
" style="stroke:#000000;"/>
    <path clip-path="url(#p0afe38d381)" d="M 183.377243 192.772804 
L 181.911835 191.839501 
L 181.769453 195.521997 
z
" style="stroke:#000000;"/>
    <path clip-path="url(#p0afe38d381)" d="M 181.911835 162.454617 
L 183.377243 161.520419 
L 181.769453 158.772207 
z
" style="stroke:#000000;"/>
    <path clip-path="url(#p0afe38d381)" d="M 180.399749 194.424215 
L 178.062456 196.789845 
L 178.651549 196.821795 
z
" style="stroke:#000000;"/>
    <path clip-path="url(#p0afe38d381)" d="M 179.910543 156.222829 
L 178.276271 155.092167 
L 178.865661 155.061756 
z
" style="stroke:#000000;"/>
    <path clip-path="url(#p0afe38d381)" d="M 178.276271 155.092167 
L 178.127443 155.475759 
L 178.865661 155.061756 
z
" style="stroke:#000000;"/>
    <path clip-path="url(#p0afe38d381)" d="M 181.769453 195.521997 
L 181.911835 191.839501 
L 180.399749 194.424215 
z
" style="stroke:#000000;"/>
    <path clip-path="url(#p0afe38d381)" d="M 181.911835 162.454617 
L 181.769453 158.772207 
L 180.399749 159.870826 
z
" style="stroke:#000000;"/>
    <path clip-path="url(#p0afe38d381)" d="M 177.539078 198.785731 
L 178.865661 199.234222 
L 178.127443 198.820669 
z
" style="stroke:#000000;"/>
    <path clip-path="url(#p0afe38d381)" d="M 178.062456 196.789845 
L 177.351894 198.266124 
L 178.651549 196.821795 
z
" style="stroke:#000000;"/>
    <path clip-path="url(#p0afe38d381)" d="M 181.769453 195.521997 
L 180.399749 194.424215 
L 179.910543 198.07251 
z
" style="stroke:#000000;"/>
    <path clip-path="url(#p0afe38d381)" d="M 180.399749 159.870826 
L 181.769453 158.772207 
L 179.910543 156.222829 
z
" style="stroke:#000000;"/>
    <path clip-path="url(#p0afe38d381)" d="M 177.539078 155.505556 
L 177.351894 156.030778 
L 178.127443 155.475759 
z
" style="stroke:#000000;"/>
    <path clip-path="url(#p0afe38d381)" d="M 176.764606 156.05975 
L 178.651549 157.474314 
L 177.351894 156.030778 
z
" style="stroke:#000000;"/>
    <path clip-path="url(#p0afe38d381)" d="M 176.764606 198.232009 
L 178.127443 198.820669 
L 177.351894 198.266124 
z
" style="stroke:#000000;"/>
    <path clip-path="url(#p0afe38d381)" d="M 179.910543 198.07251 
L 180.399749 194.424215 
L 178.651549 196.821795 
z
" style="stroke:#000000;"/>
    <path clip-path="url(#p0afe38d381)" d="M 180.399749 159.870826 
L 179.910543 156.222829 
L 178.651549 157.474314 
z
" style="stroke:#000000;"/>
    <path clip-path="url(#p0afe38d381)" d="M 179.910543 198.07251 
L 178.127443 198.820669 
L 178.865661 199.234222 
z
" style="stroke:#000000;"/>
    <path clip-path="url(#p0afe38d381)" d="M 178.127443 155.475759 
L 179.910543 156.222829 
L 178.865661 155.061756 
z
" style="stroke:#000000;"/>
    <path clip-path="url(#p0afe38d381)" d="M 178.127443 198.820669 
L 179.910543 198.07251 
L 178.651549 196.821795 
z
" style="stroke:#000000;"/>
    <path clip-path="url(#p0afe38d381)" d="M 179.910543 156.222829 
L 178.127443 155.475759 
L 178.651549 157.474314 
z
" style="stroke:#000000;"/>
    <path clip-path="url(#p0afe38d381)" d="M 178.127443 198.820669 
L 178.651549 196.821795 
L 177.351894 198.266124 
z
" style="stroke:#000000;"/>
    <path clip-path="url(#p0afe38d381)" d="M 178.651549 157.474314 
L 178.127443 155.475759 
L 177.351894 156.030778 
z
" style="stroke:#000000;"/>
   </g>
  </g>
 </g>
 <defs>
  <clipPath id="p0afe38d381">
   <rect height="271.8" width="279" x="45" y="43.2"/>
  </clipPath>
 </defs>
</svg>
