<?xml version="1.0" encoding="utf-8" standalone="no"?>
<!DOCTYPE svg PUBLIC "-//W3C//DTD SVG 1.1//EN"
  "http://www.w3.org/Graphics/SVG/1.1/DTD/svg11.dtd">
<!-- Created with matplotlib (https://matplotlib.org/) -->
<svg height="360pt" version="1.1" viewBox="0 0 360 360" width="360pt" xmlns="http://www.w3.org/2000/svg" xmlns:xlink="http://www.w3.org/1999/xlink">
 <defs>
  <style type="text/css">
*{stroke-linecap:butt;stroke-linejoin:round;}
  </style>
 </defs>
 <g id="figure_1">
  <g id="patch_1">
   <path d="M 0 360 
L 360 360 
L 360 0 
L 0 0 
z
" style="fill:#ffffff;"/>
  </g>
  <g id="patch_2">
   <path d="M 45 315 
L 324 315 
L 324 43.2 
L 45 43.2 
z
" style="fill:#ffffff;"/>
  </g>
  <g id="axes_1">
   <g id="Poly3DCollection_1">
    <path clip-path="url(#p6c959cadb5)" d="M 179.606178 155.574075 
L 180.126058 157.559468 
L 178.837235 156.131654 
z
" style="stroke:#000000;"/>
    <path clip-path="url(#p6c959cadb5)" d="M 180.126058 196.720314 
L 179.606178 198.70539 
L 178.837235 198.147343 
z
" style="stroke:#000000;"/>
    <path clip-path="url(#p6c959cadb5)" d="M 179.606178 155.574075 
L 181.375689 156.3054 
L 180.126058 157.559468 
z
" style="stroke:#000000;"/>
    <path clip-path="url(#p6c959cadb5)" d="M 181.375689 197.975144 
L 179.606178 198.70539 
L 180.126058 196.720314 
z
" style="stroke:#000000;"/>
    <path clip-path="url(#p6c959cadb5)" d="M 181.375689 156.3054 
L 179.606178 155.574075 
L 180.338499 155.156817 
z
" style="stroke:#000000;"/>
    <path clip-path="url(#p6c959cadb5)" d="M 179.606178 198.70539 
L 181.375689 197.975144 
L 180.338499 199.123094 
z
" style="stroke:#000000;"/>
    <path clip-path="url(#p6c959cadb5)" d="M 181.375689 156.3054 
L 181.861558 159.935028 
L 180.126058 157.559468 
z
" style="stroke:#000000;"/>
    <path clip-path="url(#p6c959cadb5)" d="M 181.861558 194.345812 
L 181.375689 197.975144 
L 180.126058 196.720314 
z
" style="stroke:#000000;"/>
    <path clip-path="url(#p6c959cadb5)" d="M 178.220925 156.102896 
L 179.606178 155.574075 
L 178.837235 156.131654 
z
" style="stroke:#000000;"/>
    <path clip-path="url(#p6c959cadb5)" d="M 178.220925 198.181204 
L 180.126058 196.720314 
L 178.837235 198.147343 
z
" style="stroke:#000000;"/>
    <path clip-path="url(#p6c959cadb5)" d="M 178.990929 198.740088 
L 178.837235 198.147343 
L 179.606178 198.70539 
z
" style="stroke:#000000;"/>
    <path clip-path="url(#p6c959cadb5)" d="M 183.222813 158.832895 
L 181.861558 159.935028 
L 181.375689 156.3054 
z
" style="stroke:#000000;"/>
    <path clip-path="url(#p6c959cadb5)" d="M 181.861558 194.345812 
L 183.222813 195.448775 
L 181.375689 197.975144 
z
" style="stroke:#000000;"/>
    <path clip-path="url(#p6c959cadb5)" d="M 179.511527 157.532832 
L 178.837235 156.131654 
L 180.126058 157.559468 
z
" style="stroke:#000000;"/>
    <path clip-path="url(#p6c959cadb5)" d="M 178.990929 155.544483 
L 180.338499 155.156817 
L 179.606178 155.574075 
z
" style="stroke:#000000;"/>
    <path clip-path="url(#p6c959cadb5)" d="M 183.222813 158.832895 
L 183.364393 162.501234 
L 181.861558 159.935028 
z
" style="stroke:#000000;"/>
    <path clip-path="url(#p6c959cadb5)" d="M 183.364393 191.780522 
L 183.222813 195.448775 
L 181.861558 194.345812 
z
" style="stroke:#000000;"/>
    <path clip-path="url(#p6c959cadb5)" d="M 179.724262 199.15842 
L 179.606178 198.70539 
L 180.338499 199.123094 
z
" style="stroke:#000000;"/>
    <path clip-path="url(#p6c959cadb5)" d="M 181.375689 197.975144 
L 179.724262 199.15842 
L 180.338499 199.123094 
z
" style="stroke:#000000;"/>
    <path clip-path="url(#p6c959cadb5)" d="M 181.861558 159.935028 
L 179.511527 157.532832 
L 180.126058 157.559468 
z
" style="stroke:#000000;"/>
    <path clip-path="url(#p6c959cadb5)" d="M 184.822373 161.563195 
L 183.364393 162.501234 
L 183.222813 158.832895 
z
" style="stroke:#000000;"/>
    <path clip-path="url(#p6c959cadb5)" d="M 183.364393 191.780522 
L 184.822373 192.719449 
L 183.222813 195.448775 
z
" style="stroke:#000000;"/>
    <path clip-path="url(#p6c959cadb5)" d="M 180.338499 155.156817 
L 180.762885 156.276889 
L 181.375689 156.3054 
z
" style="stroke:#000000;"/>
    <path clip-path="url(#p6c959cadb5)" d="M 180.126058 196.720314 
L 181.249425 194.374023 
L 181.861558 194.345812 
z
" style="stroke:#000000;"/>
    <path clip-path="url(#p6c959cadb5)" d="M 183.364393 162.501234 
L 184.822373 161.563195 
L 184.617709 165.229649 
z
" style="stroke:#000000;"/>
    <path clip-path="url(#p6c959cadb5)" d="M 184.822373 192.719449 
L 183.364393 191.780522 
L 184.617709 189.052871 
z
" style="stroke:#000000;"/>
    <path clip-path="url(#p6c959cadb5)" d="M 178.837235 198.147343 
L 178.990929 198.740088 
L 178.220925 198.181204 
z
" style="stroke:#000000;"/>
    <path clip-path="url(#p6c959cadb5)" d="M 183.222813 195.448775 
L 180.762885 198.008764 
L 181.375689 197.975144 
z
" style="stroke:#000000;"/>
    <path clip-path="url(#p6c959cadb5)" d="M 178.837235 156.131654 
L 179.511527 157.532832 
L 178.220925 156.102896 
z
" style="stroke:#000000;"/>
    <path clip-path="url(#p6c959cadb5)" d="M 179.606178 155.574075 
L 178.220925 156.102896 
L 178.990929 155.544483 
z
" style="stroke:#000000;"/>
    <path clip-path="url(#p6c959cadb5)" d="M 183.364393 162.501234 
L 181.249425 159.911927 
L 181.861558 159.935028 
z
" style="stroke:#000000;"/>
    <path clip-path="url(#p6c959cadb5)" d="M 186.15641 164.466354 
L 184.617709 165.229649 
L 184.822373 161.563195 
z
" style="stroke:#000000;"/>
    <path clip-path="url(#p6c959cadb5)" d="M 184.617709 189.052871 
L 186.15641 189.817104 
L 184.822373 192.719449 
z
" style="stroke:#000000;"/>
    <path clip-path="url(#p6c959cadb5)" d="M 180.126058 196.720314 
L 178.220925 198.181204 
L 179.511527 196.752056 
z
" style="stroke:#000000;"/>
    <path clip-path="url(#p6c959cadb5)" d="M 181.375689 156.3054 
L 182.612563 158.808144 
L 183.222813 158.832895 
z
" style="stroke:#000000;"/>
    <path clip-path="url(#p6c959cadb5)" d="M 179.606178 198.70539 
L 179.724262 199.15842 
L 178.990929 198.740088 
z
" style="stroke:#000000;"/>
    <path clip-path="url(#p6c959cadb5)" d="M 184.617709 165.229649 
L 186.15641 164.466354 
L 185.60744 168.090154 
z
" style="stroke:#000000;"/>
    <path clip-path="url(#p6c959cadb5)" d="M 186.15641 189.817104 
L 184.617709 189.052871 
L 185.60744 186.192968 
z
" style="stroke:#000000;"/>
    <path clip-path="url(#p6c959cadb5)" d="M 181.861558 194.345812 
L 182.754338 191.804914 
L 183.364393 191.780522 
z
" style="stroke:#000000;"/>
    <path clip-path="url(#p6c959cadb5)" d="M 180.338499 155.156817 
L 178.990929 155.544483 
L 179.724262 155.126599 
z
" style="stroke:#000000;"/>
    <path clip-path="url(#p6c959cadb5)" d="M 180.762885 156.276889 
L 180.338499 155.156817 
L 179.724262 155.126599 
z
" style="stroke:#000000;"/>
    <path clip-path="url(#p6c959cadb5)" d="M 181.249425 194.374023 
L 180.126058 196.720314 
L 179.511527 196.752056 
z
" style="stroke:#000000;"/>
    <path clip-path="url(#p6c959cadb5)" d="M 187.209896 167.510157 
L 185.60744 168.090154 
L 186.15641 164.466354 
z
" style="stroke:#000000;"/>
    <path clip-path="url(#p6c959cadb5)" d="M 185.60744 186.192968 
L 187.209896 186.773942 
L 186.15641 189.817104 
z
" style="stroke:#000000;"/>
    <path clip-path="url(#p6c959cadb5)" d="M 185.60744 168.090154 
L 187.209896 167.510157 
L 186.322455 171.051077 
z
" style="stroke:#000000;"/>
    <path clip-path="url(#p6c959cadb5)" d="M 187.209896 186.773942 
L 185.60744 186.192968 
L 186.322455 183.232482 
z
" style="stroke:#000000;"/>
    <path clip-path="url(#p6c959cadb5)" d="M 184.822373 192.719449 
L 182.612563 195.478638 
L 183.222813 195.448775 
z
" style="stroke:#000000;"/>
    <path clip-path="url(#p6c959cadb5)" d="M 184.617709 165.229649 
L 182.754338 162.481954 
L 183.364393 162.501234 
z
" style="stroke:#000000;"/>
    <path clip-path="url(#p6c959cadb5)" d="M 179.724262 199.15842 
L 181.375689 197.975144 
L 180.762885 198.008764 
z
" style="stroke:#000000;"/>
    <path clip-path="url(#p6c959cadb5)" d="M 179.511527 157.532832 
L 181.861558 159.935028 
L 181.249425 159.911927 
z
" style="stroke:#000000;"/>
    <path clip-path="url(#p6c959cadb5)" d="M 183.364393 191.780522 
L 184.009388 189.0732 
L 184.617709 189.052871 
z
" style="stroke:#000000;"/>
    <path clip-path="url(#p6c959cadb5)" d="M 186.322455 171.051077 
L 187.970993 170.660909 
L 186.754704 174.079546 
z
" style="stroke:#000000;"/>
    <path clip-path="url(#p6c959cadb5)" d="M 187.970993 183.623655 
L 186.322455 183.232482 
L 186.754704 180.204277 
z
" style="stroke:#000000;"/>
    <path clip-path="url(#p6c959cadb5)" d="M 183.222813 158.832895 
L 184.214334 161.542511 
L 184.822373 161.563195 
z
" style="stroke:#000000;"/>
    <path clip-path="url(#p6c959cadb5)" d="M 187.970993 170.660909 
L 186.322455 171.051077 
L 187.209896 167.510157 
z
" style="stroke:#000000;"/>
    <path clip-path="url(#p6c959cadb5)" d="M 186.322455 183.232482 
L 187.970993 183.623655 
L 187.209896 186.773942 
z
" style="stroke:#000000;"/>
    <path clip-path="url(#p6c959cadb5)" d="M 188.431114 180.401225 
L 186.754704 180.204277 
L 186.899337 177.141955 
z
" style="stroke:#000000;"/>
    <path clip-path="url(#p6c959cadb5)" d="M 186.754704 174.079546 
L 188.431114 173.883619 
L 186.899337 177.141955 
z
" style="stroke:#000000;"/>
    <path clip-path="url(#p6c959cadb5)" d="M 182.612563 158.808144 
L 181.375689 156.3054 
L 180.762885 156.276889 
z
" style="stroke:#000000;"/>
    <path clip-path="url(#p6c959cadb5)" d="M 188.431114 173.883619 
L 186.754704 174.079546 
L 187.970993 170.660909 
z
" style="stroke:#000000;"/>
    <path clip-path="url(#p6c959cadb5)" d="M 186.754704 180.204277 
L 188.431114 180.401225 
L 187.970993 183.623655 
z
" style="stroke:#000000;"/>
    <path clip-path="url(#p6c959cadb5)" d="M 185.60744 168.090154 
L 184.009388 165.214435 
L 184.617709 165.229649 
z
" style="stroke:#000000;"/>
    <path clip-path="url(#p6c959cadb5)" d="M 178.990929 198.740088 
L 179.511527 196.752056 
L 178.220925 198.181204 
z
" style="stroke:#000000;"/>
    <path clip-path="url(#p6c959cadb5)" d="M 179.511527 157.532832 
L 178.990929 155.544483 
L 178.220925 156.102896 
z
" style="stroke:#000000;"/>
    <path clip-path="url(#p6c959cadb5)" d="M 182.754338 191.804914 
L 181.861558 194.345812 
L 181.249425 194.374023 
z
" style="stroke:#000000;"/>
    <path clip-path="url(#p6c959cadb5)" d="M 188.585063 177.142469 
L 186.899337 177.141955 
L 188.431114 173.883619 
z
" style="stroke:#000000;"/>
    <path clip-path="url(#p6c959cadb5)" d="M 186.899337 177.141955 
L 188.585063 177.142469 
L 188.431114 180.401225 
z
" style="stroke:#000000;"/>
    <path clip-path="url(#p6c959cadb5)" d="M 186.15641 189.817104 
L 184.214334 192.745249 
L 184.822373 192.719449 
z
" style="stroke:#000000;"/>
    <path clip-path="url(#p6c959cadb5)" d="M 184.617709 189.052871 
L 185.000488 186.209033 
L 185.60744 186.192968 
z
" style="stroke:#000000;"/>
    <path clip-path="url(#p6c959cadb5)" d="M 180.762885 198.008764 
L 183.222813 195.448775 
L 182.612563 195.478638 
z
" style="stroke:#000000;"/>
    <path clip-path="url(#p6c959cadb5)" d="M 181.249425 159.911927 
L 183.364393 162.501234 
L 182.754338 162.481954 
z
" style="stroke:#000000;"/>
    <path clip-path="url(#p6c959cadb5)" d="M 190.834269 154.062885 
L 188.023042 157.580624 
L 186.618481 157.1955 
z
" style="stroke:#000000;"/>
    <path clip-path="url(#p6c959cadb5)" d="M 190.834269 163.419751 
L 186.618481 157.1955 
L 188.023042 157.580624 
z
" style="stroke:#000000;"/>
    <path clip-path="url(#p6c959cadb5)" d="M 184.822373 161.563195 
L 185.550218 164.449997 
L 186.15641 164.466354 
z
" style="stroke:#000000;"/>
    <path clip-path="url(#p6c959cadb5)" d="M 186.322455 171.051077 
L 185.000488 168.079207 
L 185.60744 168.090154 
z
" style="stroke:#000000;"/>
    <path clip-path="url(#p6c959cadb5)" d="M 178.990929 198.740088 
L 180.762885 198.008764 
L 179.511527 196.752056 
z
" style="stroke:#000000;"/>
    <path clip-path="url(#p6c959cadb5)" d="M 180.762885 156.276889 
L 178.990929 155.544483 
L 179.511527 157.532832 
z
" style="stroke:#000000;"/>
    <path clip-path="url(#p6c959cadb5)" d="M 180.762885 198.008764 
L 178.990929 198.740088 
L 179.724262 199.15842 
z
" style="stroke:#000000;"/>
    <path clip-path="url(#p6c959cadb5)" d="M 178.990929 155.544483 
L 180.762885 156.276889 
L 179.724262 155.126599 
z
" style="stroke:#000000;"/>
    <path clip-path="url(#p6c959cadb5)" d="M 185.60744 186.192968 
L 185.716494 183.24413 
L 186.322455 183.232482 
z
" style="stroke:#000000;"/>
    <path clip-path="url(#p6c959cadb5)" d="M 186.754704 174.079546 
L 185.716494 171.044546 
L 186.322455 171.051077 
z
" style="stroke:#000000;"/>
    <path clip-path="url(#p6c959cadb5)" d="M 187.209896 186.773942 
L 185.550218 189.838578 
L 186.15641 189.817104 
z
" style="stroke:#000000;"/>
    <path clip-path="url(#p6c959cadb5)" d="M 184.214334 161.542511 
L 183.222813 158.832895 
L 182.612563 158.808144 
z
" style="stroke:#000000;"/>
    <path clip-path="url(#p6c959cadb5)" d="M 184.009388 189.0732 
L 183.364393 191.780522 
L 182.754338 191.804914 
z
" style="stroke:#000000;"/>
    <path clip-path="url(#p6c959cadb5)" d="M 186.322455 183.232482 
L 186.14934 180.211406 
L 186.754704 180.204277 
z
" style="stroke:#000000;"/>
    <path clip-path="url(#p6c959cadb5)" d="M 190.834269 163.419751 
L 190.834269 166.538706 
L 186.618481 157.1955 
z
" style="stroke:#000000;"/>
    <path clip-path="url(#p6c959cadb5)" d="M 180.762885 198.008764 
L 181.249425 194.374023 
L 179.511527 196.752056 
z
" style="stroke:#000000;"/>
    <path clip-path="url(#p6c959cadb5)" d="M 181.249425 159.911927 
L 180.762885 156.276889 
L 179.511527 157.532832 
z
" style="stroke:#000000;"/>
    <path clip-path="url(#p6c959cadb5)" d="M 186.899337 177.141955 
L 186.14934 174.077535 
L 186.754704 174.079546 
z
" style="stroke:#000000;"/>
    <path clip-path="url(#p6c959cadb5)" d="M 186.754704 180.204277 
L 186.294174 177.144515 
L 186.899337 177.141955 
z
" style="stroke:#000000;"/>
    <path clip-path="url(#p6c959cadb5)" d="M 186.15641 164.466354 
L 186.605163 167.498341 
L 187.209896 167.510157 
z
" style="stroke:#000000;"/>
    <path clip-path="url(#p6c959cadb5)" d="M 182.754338 162.481954 
L 184.617709 165.229649 
L 184.009388 165.214435 
z
" style="stroke:#000000;"/>
    <path clip-path="url(#p6c959cadb5)" d="M 182.612563 195.478638 
L 184.822373 192.719449 
L 184.214334 192.745249 
z
" style="stroke:#000000;"/>
    <path clip-path="url(#p6c959cadb5)" d="M 190.834269 154.062885 
L 190.834269 155.622362 
L 188.023042 157.580624 
z
" style="stroke:#000000;"/>
    <path clip-path="url(#p6c959cadb5)" d="M 187.970993 183.623655 
L 186.605163 186.790879 
L 187.209896 186.773942 
z
" style="stroke:#000000;"/>
    <path clip-path="url(#p6c959cadb5)" d="M 187.209896 167.510157 
L 187.367315 170.653794 
L 187.970993 170.660909 
z
" style="stroke:#000000;"/>
    <path clip-path="url(#p6c959cadb5)" d="M 182.612563 195.478638 
L 181.249425 194.374023 
L 180.762885 198.008764 
z
" style="stroke:#000000;"/>
    <path clip-path="url(#p6c959cadb5)" d="M 181.249425 159.911927 
L 182.612563 158.808144 
L 180.762885 156.276889 
z
" style="stroke:#000000;"/>
    <path clip-path="url(#p6c959cadb5)" d="M 185.000488 186.209033 
L 184.617709 189.052871 
L 184.009388 189.0732 
z
" style="stroke:#000000;"/>
    <path clip-path="url(#p6c959cadb5)" d="M 186.012929 157.168291 
L 190.834269 154.062885 
L 186.618481 157.1955 
z
" style="stroke:#000000;"/>
    <path clip-path="url(#p6c959cadb5)" d="M 190.834269 166.538706 
L 186.012929 157.168291 
L 186.618481 157.1955 
z
" style="stroke:#000000;"/>
    <path clip-path="url(#p6c959cadb5)" d="M 185.550218 164.449997 
L 184.822373 161.563195 
L 184.214334 161.542511 
z
" style="stroke:#000000;"/>
    <path clip-path="url(#p6c959cadb5)" d="M 184.009388 165.214435 
L 185.60744 168.090154 
L 185.000488 168.079207 
z
" style="stroke:#000000;"/>
    <path clip-path="url(#p6c959cadb5)" d="M 188.431114 180.401225 
L 187.367315 183.63589 
L 187.970993 183.623655 
z
" style="stroke:#000000;"/>
    <path clip-path="url(#p6c959cadb5)" d="M 187.970993 170.660909 
L 187.828073 173.881315 
L 188.431114 173.883619 
z
" style="stroke:#000000;"/>
    <path clip-path="url(#p6c959cadb5)" d="M 182.612563 195.478638 
L 182.754338 191.804914 
L 181.249425 194.374023 
z
" style="stroke:#000000;"/>
    <path clip-path="url(#p6c959cadb5)" d="M 182.754338 162.481954 
L 182.612563 158.808144 
L 181.249425 159.911927 
z
" style="stroke:#000000;"/>
    <path clip-path="url(#p6c959cadb5)" d="M 188.585063 177.142469 
L 187.828073 180.408651 
L 188.431114 180.401225 
z
" style="stroke:#000000;"/>
    <path clip-path="url(#p6c959cadb5)" d="M 184.214334 192.745249 
L 186.15641 189.817104 
L 185.550218 189.838578 
z
" style="stroke:#000000;"/>
    <path clip-path="url(#p6c959cadb5)" d="M 188.431114 173.883619 
L 187.982235 177.14503 
L 188.585063 177.142469 
z
" style="stroke:#000000;"/>
    <path clip-path="url(#p6c959cadb5)" d="M 185.716494 183.24413 
L 185.60744 186.192968 
L 185.000488 186.209033 
z
" style="stroke:#000000;"/>
    <path clip-path="url(#p6c959cadb5)" d="M 185.000488 168.079207 
L 186.322455 171.051077 
L 185.716494 171.044546 
z
" style="stroke:#000000;"/>
    <path clip-path="url(#p6c959cadb5)" d="M 190.834269 154.062885 
L 193.648306 157.562786 
L 190.834269 155.622362 
z
" style="stroke:#000000;"/>
    <path clip-path="url(#p6c959cadb5)" d="M 186.14934 180.211406 
L 186.322455 183.232482 
L 185.716494 183.24413 
z
" style="stroke:#000000;"/>
    <path clip-path="url(#p6c959cadb5)" d="M 186.605163 167.498341 
L 186.15641 164.466354 
L 185.550218 164.449997 
z
" style="stroke:#000000;"/>
    <path clip-path="url(#p6c959cadb5)" d="M 184.214334 192.745249 
L 182.754338 191.804914 
L 182.612563 195.478638 
z
" style="stroke:#000000;"/>
    <path clip-path="url(#p6c959cadb5)" d="M 182.754338 162.481954 
L 184.214334 161.542511 
L 182.612563 158.808144 
z
" style="stroke:#000000;"/>
    <path clip-path="url(#p6c959cadb5)" d="M 185.716494 171.044546 
L 186.754704 174.079546 
L 186.14934 174.077535 
z
" style="stroke:#000000;"/>
    <path clip-path="url(#p6c959cadb5)" d="M 190.834269 163.419751 
L 195.056379 157.16816 
L 190.834269 166.538706 
z
" style="stroke:#000000;"/>
    <path clip-path="url(#p6c959cadb5)" d="M 186.294174 177.144515 
L 186.754704 180.204277 
L 186.14934 180.211406 
z
" style="stroke:#000000;"/>
    <path clip-path="url(#p6c959cadb5)" d="M 186.14934 174.077535 
L 186.899337 177.141955 
L 186.294174 177.144515 
z
" style="stroke:#000000;"/>
    <path clip-path="url(#p6c959cadb5)" d="M 185.550218 189.838578 
L 187.209896 186.773942 
L 186.605163 186.790879 
z
" style="stroke:#000000;"/>
    <path clip-path="url(#p6c959cadb5)" d="M 182.754338 191.804914 
L 184.214334 192.745249 
L 184.009388 189.0732 
z
" style="stroke:#000000;"/>
    <path clip-path="url(#p6c959cadb5)" d="M 184.214334 161.542511 
L 182.754338 162.481954 
L 184.009388 165.214435 
z
" style="stroke:#000000;"/>
    <path clip-path="url(#p6c959cadb5)" d="M 190.234559 155.592783 
L 188.023042 157.580624 
L 190.834269 155.622362 
z
" style="stroke:#000000;"/>
    <path clip-path="url(#p6c959cadb5)" d="M 188.023042 157.580624 
L 190.234559 163.401817 
L 190.834269 163.419751 
z
" style="stroke:#000000;"/>
    <path clip-path="url(#p6c959cadb5)" d="M 187.367315 170.653794 
L 187.209896 167.510157 
L 186.605163 167.498341 
z
" style="stroke:#000000;"/>
    <path clip-path="url(#p6c959cadb5)" d="M 193.648306 157.562786 
L 190.834269 154.062885 
L 195.056379 157.16816 
z
" style="stroke:#000000;"/>
    <path clip-path="url(#p6c959cadb5)" d="M 195.056379 157.16816 
L 190.834269 163.419751 
L 193.648306 157.562786 
z
" style="stroke:#000000;"/>
    <path clip-path="url(#p6c959cadb5)" d="M 186.605163 186.790879 
L 187.970993 183.623655 
L 187.367315 183.63589 
z
" style="stroke:#000000;"/>
    <path clip-path="url(#p6c959cadb5)" d="M 185.550218 189.838578 
L 184.009388 189.0732 
L 184.214334 192.745249 
z
" style="stroke:#000000;"/>
    <path clip-path="url(#p6c959cadb5)" d="M 184.009388 165.214435 
L 185.550218 164.449997 
L 184.214334 161.542511 
z
" style="stroke:#000000;"/>
    <path clip-path="url(#p6c959cadb5)" d="M 194.774708 177.144355 
L 193.085274 177.14384 
L 193.239477 173.882301 
z
" style="stroke:#000000;"/>
    <path clip-path="url(#p6c959cadb5)" d="M 193.085274 177.14384 
L 194.774708 177.144355 
L 193.239477 180.405474 
z
" style="stroke:#000000;"/>
    <path clip-path="url(#p6c959cadb5)" d="M 187.828073 173.881315 
L 187.970993 170.660909 
L 187.367315 170.653794 
z
" style="stroke:#000000;"/>
    <path clip-path="url(#p6c959cadb5)" d="M 184.009388 189.0732 
L 185.550218 189.838578 
L 185.000488 186.209033 
z
" style="stroke:#000000;"/>
    <path clip-path="url(#p6c959cadb5)" d="M 185.550218 164.449997 
L 184.009388 165.214435 
L 185.000488 168.079207 
z
" style="stroke:#000000;"/>
    <path clip-path="url(#p6c959cadb5)" d="M 187.367315 183.63589 
L 188.431114 180.401225 
L 187.828073 180.408651 
z
" style="stroke:#000000;"/>
    <path clip-path="url(#p6c959cadb5)" d="M 194.919754 174.07759 
L 193.239477 173.882301 
L 193.70046 170.656057 
z
" style="stroke:#000000;"/>
    <path clip-path="url(#p6c959cadb5)" d="M 193.239477 180.405474 
L 194.919754 180.211209 
L 193.70046 183.631999 
z
" style="stroke:#000000;"/>
    <path clip-path="url(#p6c959cadb5)" d="M 187.982235 177.14503 
L 188.431114 173.883619 
L 187.828073 173.881315 
z
" style="stroke:#000000;"/>
    <path clip-path="url(#p6c959cadb5)" d="M 187.828073 180.408651 
L 188.585063 177.142469 
L 187.982235 177.14503 
z
" style="stroke:#000000;"/>
    <path clip-path="url(#p6c959cadb5)" d="M 194.919754 180.211209 
L 193.239477 180.405474 
L 194.774708 177.144355 
z
" style="stroke:#000000;"/>
    <path clip-path="url(#p6c959cadb5)" d="M 193.239477 173.882301 
L 194.919754 174.07759 
L 194.774708 177.144355 
z
" style="stroke:#000000;"/>
    <path clip-path="url(#p6c959cadb5)" d="M 195.353325 171.044053 
L 193.70046 170.656057 
L 194.463314 167.499953 
z
" style="stroke:#000000;"/>
    <path clip-path="url(#p6c959cadb5)" d="M 193.70046 183.631999 
L 195.353325 183.24501 
L 194.463314 186.788568 
z
" style="stroke:#000000;"/>
    <path clip-path="url(#p6c959cadb5)" d="M 188.023042 157.580624 
L 190.234559 155.592783 
L 187.419435 157.553983 
z
" style="stroke:#000000;"/>
    <path clip-path="url(#p6c959cadb5)" d="M 190.234559 163.401817 
L 188.023042 157.580624 
L 187.419435 157.553983 
z
" style="stroke:#000000;"/>
    <path clip-path="url(#p6c959cadb5)" d="M 193.70046 170.656057 
L 195.353325 171.044053 
L 194.919754 174.07759 
z
" style="stroke:#000000;"/>
    <path clip-path="url(#p6c959cadb5)" d="M 195.353325 183.24501 
L 193.70046 183.631999 
L 194.919754 180.211209 
z
" style="stroke:#000000;"/>
    <path clip-path="url(#p6c959cadb5)" d="M 186.605163 186.790879 
L 185.000488 186.209033 
L 185.550218 189.838578 
z
" style="stroke:#000000;"/>
    <path clip-path="url(#p6c959cadb5)" d="M 185.000488 168.079207 
L 186.605163 167.498341 
L 185.550218 164.449997 
z
" style="stroke:#000000;"/>
    <path clip-path="url(#p6c959cadb5)" d="M 185.000488 186.209033 
L 186.605163 186.790879 
L 185.716494 183.24413 
z
" style="stroke:#000000;"/>
    <path clip-path="url(#p6c959cadb5)" d="M 186.605163 167.498341 
L 185.000488 168.079207 
L 185.716494 171.044546 
z
" style="stroke:#000000;"/>
    <path clip-path="url(#p6c959cadb5)" d="M 190.834269 154.062885 
L 186.012929 157.168291 
L 190.234559 154.030976 
z
" style="stroke:#000000;"/>
    <path clip-path="url(#p6c959cadb5)" d="M 186.012929 157.168291 
L 190.834269 166.538706 
L 190.234559 166.525431 
z
" style="stroke:#000000;"/>
    <path clip-path="url(#p6c959cadb5)" d="M 190.234559 154.030976 
L 195.056379 157.16816 
L 190.834269 154.062885 
z
" style="stroke:#000000;"/>
    <path clip-path="url(#p6c959cadb5)" d="M 195.056379 157.16816 
L 190.234559 166.525431 
L 190.834269 166.538706 
z
" style="stroke:#000000;"/>
    <path clip-path="url(#p6c959cadb5)" d="M 194.463314 167.499953 
L 196.07082 168.076508 
L 195.353325 171.044053 
z
" style="stroke:#000000;"/>
    <path clip-path="url(#p6c959cadb5)" d="M 196.07082 186.212992 
L 194.463314 186.788568 
L 195.353325 183.24501 
z
" style="stroke:#000000;"/>
    <path clip-path="url(#p6c959cadb5)" d="M 196.07082 168.076508 
L 194.463314 167.499953 
L 195.519913 164.448112 
z
" style="stroke:#000000;"/>
    <path clip-path="url(#p6c959cadb5)" d="M 194.463314 186.788568 
L 196.07082 186.212992 
L 195.519913 189.841053 
z
" style="stroke:#000000;"/>
    <path clip-path="url(#p6c959cadb5)" d="M 185.716494 183.24413 
L 187.367315 183.63589 
L 186.14934 180.211406 
z
" style="stroke:#000000;"/>
    <path clip-path="url(#p6c959cadb5)" d="M 187.367315 170.653794 
L 185.716494 171.044546 
L 186.14934 174.077535 
z
" style="stroke:#000000;"/>
    <path clip-path="url(#p6c959cadb5)" d="M 193.052501 157.536092 
L 190.834269 155.622362 
L 193.648306 157.562786 
z
" style="stroke:#000000;"/>
    <path clip-path="url(#p6c959cadb5)" d="M 190.834269 163.419751 
L 193.052501 157.536092 
L 193.648306 157.562786 
z
" style="stroke:#000000;"/>
    <path clip-path="url(#p6c959cadb5)" d="M 187.367315 183.63589 
L 185.716494 183.24413 
L 186.605163 186.790879 
z
" style="stroke:#000000;"/>
    <path clip-path="url(#p6c959cadb5)" d="M 185.716494 171.044546 
L 187.367315 170.653794 
L 186.605163 167.498341 
z
" style="stroke:#000000;"/>
    <path clip-path="url(#p6c959cadb5)" d="M 187.828073 173.881315 
L 186.14934 174.077535 
L 186.294174 177.144515 
z
" style="stroke:#000000;"/>
    <path clip-path="url(#p6c959cadb5)" d="M 186.14934 180.211406 
L 187.828073 180.408651 
L 186.294174 177.144515 
z
" style="stroke:#000000;"/>
    <path clip-path="url(#p6c959cadb5)" d="M 193.239477 180.405474 
L 192.488687 177.146406 
L 193.085274 177.14384 
z
" style="stroke:#000000;"/>
    <path clip-path="url(#p6c959cadb5)" d="M 193.085274 177.14384 
L 192.643104 173.879993 
L 193.239477 173.882301 
z
" style="stroke:#000000;"/>
    <path clip-path="url(#p6c959cadb5)" d="M 187.828073 180.408651 
L 186.14934 180.211406 
L 187.367315 183.63589 
z
" style="stroke:#000000;"/>
    <path clip-path="url(#p6c959cadb5)" d="M 186.14934 174.077535 
L 187.828073 173.881315 
L 187.367315 170.653794 
z
" style="stroke:#000000;"/>
    <path clip-path="url(#p6c959cadb5)" d="M 193.70046 183.631999 
L 192.643104 180.412913 
L 193.239477 180.405474 
z
" style="stroke:#000000;"/>
    <path clip-path="url(#p6c959cadb5)" d="M 195.519913 164.448112 
L 197.064586 165.207083 
L 196.07082 168.076508 
z
" style="stroke:#000000;"/>
    <path clip-path="url(#p6c959cadb5)" d="M 197.064586 189.083024 
L 195.519913 189.841053 
L 196.07082 186.212992 
z
" style="stroke:#000000;"/>
    <path clip-path="url(#p6c959cadb5)" d="M 193.239477 173.882301 
L 193.104727 170.648928 
L 193.70046 170.656057 
z
" style="stroke:#000000;"/>
    <path clip-path="url(#p6c959cadb5)" d="M 187.982235 177.14503 
L 186.294174 177.144515 
L 187.828073 180.408651 
z
" style="stroke:#000000;"/>
    <path clip-path="url(#p6c959cadb5)" d="M 186.294174 177.144515 
L 187.982235 177.14503 
L 187.828073 173.881315 
z
" style="stroke:#000000;"/>
    <path clip-path="url(#p6c959cadb5)" d="M 197.064586 165.207083 
L 195.519913 164.448112 
L 196.859031 161.533528 
z
" style="stroke:#000000;"/>
    <path clip-path="url(#p6c959cadb5)" d="M 195.519913 189.841053 
L 197.064586 189.083024 
L 196.859031 192.756453 
z
" style="stroke:#000000;"/>
    <path clip-path="url(#p6c959cadb5)" d="M 194.463314 186.788568 
L 193.104727 183.64426 
L 193.70046 183.631999 
z
" style="stroke:#000000;"/>
    <path clip-path="url(#p6c959cadb5)" d="M 186.012929 157.168291 
L 190.234559 163.401817 
L 187.419435 157.553983 
z
" style="stroke:#000000;"/>
    <path clip-path="url(#p6c959cadb5)" d="M 187.419435 157.553983 
L 190.234559 154.030976 
L 186.012929 157.168291 
z
" style="stroke:#000000;"/>
    <path clip-path="url(#p6c959cadb5)" d="M 193.70046 170.656057 
L 193.868641 167.488106 
L 194.463314 167.499953 
z
" style="stroke:#000000;"/>
    <path clip-path="url(#p6c959cadb5)" d="M 190.834269 155.622362 
L 193.052501 157.536092 
L 190.234559 155.592783 
z
" style="stroke:#000000;"/>
    <path clip-path="url(#p6c959cadb5)" d="M 193.052501 157.536092 
L 190.834269 163.419751 
L 190.234559 163.401817 
z
" style="stroke:#000000;"/>
    <path clip-path="url(#p6c959cadb5)" d="M 196.859031 161.533528 
L 198.324017 162.466849 
L 197.064586 165.207083 
z
" style="stroke:#000000;"/>
    <path clip-path="url(#p6c959cadb5)" d="M 198.324017 191.824026 
L 196.859031 192.756453 
L 197.064586 189.083024 
z
" style="stroke:#000000;"/>
    <path clip-path="url(#p6c959cadb5)" d="M 195.519913 189.841053 
L 193.868641 186.805548 
L 194.463314 186.788568 
z
" style="stroke:#000000;"/>
    <path clip-path="url(#p6c959cadb5)" d="M 194.919754 174.07759 
L 194.180468 177.146922 
L 194.774708 177.144355 
z
" style="stroke:#000000;"/>
    <path clip-path="url(#p6c959cadb5)" d="M 194.774708 177.144355 
L 194.325715 180.218359 
L 194.919754 180.211209 
z
" style="stroke:#000000;"/>
    <path clip-path="url(#p6c959cadb5)" d="M 190.234559 163.401817 
L 186.012929 157.168291 
L 190.234559 166.525431 
z
" style="stroke:#000000;"/>
    <path clip-path="url(#p6c959cadb5)" d="M 195.353325 171.044053 
L 194.325715 174.075573 
L 194.919754 174.07759 
z
" style="stroke:#000000;"/>
    <path clip-path="url(#p6c959cadb5)" d="M 198.466358 158.787912 
L 198.324017 162.466849 
L 196.859031 161.533528 
z
" style="stroke:#000000;"/>
    <path clip-path="url(#p6c959cadb5)" d="M 198.324017 191.824026 
L 198.466358 195.503049 
L 196.859031 192.756453 
z
" style="stroke:#000000;"/>
    <path clip-path="url(#p6c959cadb5)" d="M 194.463314 167.499953 
L 194.926708 164.431701 
L 195.519913 164.448112 
z
" style="stroke:#000000;"/>
    <path clip-path="url(#p6c959cadb5)" d="M 194.919754 180.211209 
L 194.759888 183.256696 
L 195.353325 183.24501 
z
" style="stroke:#000000;"/>
    <path clip-path="url(#p6c959cadb5)" d="M 190.234559 154.030976 
L 187.419435 157.553983 
L 190.234559 155.592783 
z
" style="stroke:#000000;"/>
    <path clip-path="url(#p6c959cadb5)" d="M 196.07082 168.076508 
L 194.759888 171.037502 
L 195.353325 171.044053 
z
" style="stroke:#000000;"/>
    <path clip-path="url(#p6c959cadb5)" d="M 195.353325 183.24501 
L 195.47838 186.229117 
L 196.07082 186.212992 
z
" style="stroke:#000000;"/>
    <path clip-path="url(#p6c959cadb5)" d="M 192.643104 173.879993 
L 193.085274 177.14384 
L 192.488687 177.146406 
z
" style="stroke:#000000;"/>
    <path clip-path="url(#p6c959cadb5)" d="M 196.859031 192.756453 
L 194.926708 189.862599 
L 195.519913 189.841053 
z
" style="stroke:#000000;"/>
    <path clip-path="url(#p6c959cadb5)" d="M 192.488687 177.146406 
L 193.239477 180.405474 
L 192.643104 180.412913 
z
" style="stroke:#000000;"/>
    <path clip-path="url(#p6c959cadb5)" d="M 198.466358 158.787912 
L 199.835668 159.885498 
L 198.324017 162.466849 
z
" style="stroke:#000000;"/>
    <path clip-path="url(#p6c959cadb5)" d="M 199.835668 194.406298 
L 198.466358 195.503049 
L 198.324017 191.824026 
z
" style="stroke:#000000;"/>
    <path clip-path="url(#p6c959cadb5)" d="M 193.104727 170.648928 
L 193.239477 173.882301 
L 192.643104 173.879993 
z
" style="stroke:#000000;"/>
    <path clip-path="url(#p6c959cadb5)" d="M 192.643104 180.412913 
L 193.70046 183.631999 
L 193.104727 183.64426 
z
" style="stroke:#000000;"/>
    <path clip-path="url(#p6c959cadb5)" d="M 197.064586 165.207083 
L 195.47838 168.06552 
L 196.07082 168.076508 
z
" style="stroke:#000000;"/>
    <path clip-path="url(#p6c959cadb5)" d="M 195.519913 164.448112 
L 196.267686 161.512755 
L 196.859031 161.533528 
z
" style="stroke:#000000;"/>
    <path clip-path="url(#p6c959cadb5)" d="M 195.056379 157.16816 
L 190.234559 154.030976 
L 194.46253 157.140869 
z
" style="stroke:#000000;"/>
    <path clip-path="url(#p6c959cadb5)" d="M 190.234559 166.525431 
L 195.056379 157.16816 
L 194.46253 157.140869 
z
" style="stroke:#000000;"/>
    <path clip-path="url(#p6c959cadb5)" d="M 200.324732 156.240944 
L 199.835668 159.885498 
L 198.466358 158.787912 
z
" style="stroke:#000000;"/>
    <path clip-path="url(#p6c959cadb5)" d="M 199.835668 194.406298 
L 200.324732 198.05115 
L 198.466358 195.503049 
z
" style="stroke:#000000;"/>
    <path clip-path="url(#p6c959cadb5)" d="M 196.07082 186.212992 
L 196.473527 189.103442 
L 197.064586 189.083024 
z
" style="stroke:#000000;"/>
    <path clip-path="url(#p6c959cadb5)" d="M 193.868641 167.488106 
L 193.70046 170.656057 
L 193.104727 170.648928 
z
" style="stroke:#000000;"/>
    <path clip-path="url(#p6c959cadb5)" d="M 193.104727 183.64426 
L 194.463314 186.788568 
L 193.868641 186.805548 
z
" style="stroke:#000000;"/>
    <path clip-path="url(#p6c959cadb5)" d="M 193.052501 157.536092 
L 190.234559 154.030976 
L 190.234559 155.592783 
z
" style="stroke:#000000;"/>
    <path clip-path="url(#p6c959cadb5)" d="M 198.466358 195.503049 
L 196.267686 192.782363 
L 196.859031 192.756453 
z
" style="stroke:#000000;"/>
    <path clip-path="url(#p6c959cadb5)" d="M 198.324017 162.466849 
L 196.473527 165.191802 
L 197.064586 165.207083 
z
" style="stroke:#000000;"/>
    <path clip-path="url(#p6c959cadb5)" d="M 194.926708 164.431701 
L 194.463314 167.499953 
L 193.868641 167.488106 
z
" style="stroke:#000000;"/>
    <path clip-path="url(#p6c959cadb5)" d="M 194.325715 180.218359 
L 194.774708 177.144355 
L 194.180468 177.146922 
z
" style="stroke:#000000;"/>
    <path clip-path="url(#p6c959cadb5)" d="M 194.180468 177.146922 
L 194.919754 174.07759 
L 194.325715 174.075573 
z
" style="stroke:#000000;"/>
    <path clip-path="url(#p6c959cadb5)" d="M 200.324732 156.240944 
L 201.583363 157.491251 
L 199.835668 159.885498 
z
" style="stroke:#000000;"/>
    <path clip-path="url(#p6c959cadb5)" d="M 201.583363 196.80161 
L 200.324732 198.05115 
L 199.835668 194.406298 
z
" style="stroke:#000000;"/>
    <path clip-path="url(#p6c959cadb5)" d="M 194.46253 157.140869 
L 190.234559 163.401817 
L 190.234559 166.525431 
z
" style="stroke:#000000;"/>
    <path clip-path="url(#p6c959cadb5)" d="M 194.759888 183.256696 
L 194.919754 180.211209 
L 194.325715 180.218359 
z
" style="stroke:#000000;"/>
    <path clip-path="url(#p6c959cadb5)" d="M 197.064586 189.083024 
L 197.73471 191.848548 
L 198.324017 191.824026 
z
" style="stroke:#000000;"/>
    <path clip-path="url(#p6c959cadb5)" d="M 196.859031 161.533528 
L 197.877248 158.763027 
L 198.466358 158.787912 
z
" style="stroke:#000000;"/>
    <path clip-path="url(#p6c959cadb5)" d="M 193.868641 186.805548 
L 195.519913 189.841053 
L 194.926708 189.862599 
z
" style="stroke:#000000;"/>
    <path clip-path="url(#p6c959cadb5)" d="M 194.325715 174.075573 
L 195.353325 171.044053 
L 194.759888 171.037502 
z
" style="stroke:#000000;"/>
    <path clip-path="url(#p6c959cadb5)" d="M 195.47838 186.229117 
L 195.353325 183.24501 
L 194.759888 183.256696 
z
" style="stroke:#000000;"/>
    <path clip-path="url(#p6c959cadb5)" d="M 202.107318 155.494584 
L 200.324732 156.240944 
L 201.369313 155.080968 
z
" style="stroke:#000000;"/>
    <path clip-path="url(#p6c959cadb5)" d="M 200.324732 198.05115 
L 202.107318 198.798597 
L 201.369313 199.211762 
z
" style="stroke:#000000;"/>
    <path clip-path="url(#p6c959cadb5)" d="M 200.324732 156.240944 
L 202.107318 155.494584 
L 201.583363 157.491251 
z
" style="stroke:#000000;"/>
    <path clip-path="url(#p6c959cadb5)" d="M 202.107318 198.798597 
L 200.324732 198.05115 
L 201.583363 196.80161 
z
" style="stroke:#000000;"/>
    <path clip-path="url(#p6c959cadb5)" d="M 194.759888 171.037502 
L 196.07082 168.076508 
L 195.47838 168.06552 
z
" style="stroke:#000000;"/>
    <path clip-path="url(#p6c959cadb5)" d="M 196.267686 161.512755 
L 195.519913 164.448112 
L 194.926708 164.431701 
z
" style="stroke:#000000;"/>
    <path clip-path="url(#p6c959cadb5)" d="M 190.234559 163.401817 
L 194.46253 157.140869 
L 193.052501 157.536092 
z
" style="stroke:#000000;"/>
    <path clip-path="url(#p6c959cadb5)" d="M 190.234559 154.030976 
L 193.052501 157.536092 
L 194.46253 157.140869 
z
" style="stroke:#000000;"/>
    <path clip-path="url(#p6c959cadb5)" d="M 199.835668 159.885498 
L 197.73471 162.447466 
L 198.324017 162.466849 
z
" style="stroke:#000000;"/>
    <path clip-path="url(#p6c959cadb5)" d="M 200.324732 198.05115 
L 197.877248 195.533075 
L 198.466358 195.503049 
z
" style="stroke:#000000;"/>
    <path clip-path="url(#p6c959cadb5)" d="M 196.473527 189.103442 
L 196.07082 186.212992 
L 195.47838 186.229117 
z
" style="stroke:#000000;"/>
    <path clip-path="url(#p6c959cadb5)" d="M 194.926708 189.862599 
L 196.859031 192.756453 
L 196.267686 192.782363 
z
" style="stroke:#000000;"/>
    <path clip-path="url(#p6c959cadb5)" d="M 194.180468 177.146922 
L 192.488687 177.146406 
L 192.643104 180.412913 
z
" style="stroke:#000000;"/>
    <path clip-path="url(#p6c959cadb5)" d="M 192.488687 177.146406 
L 194.180468 177.146922 
L 192.643104 173.879993 
z
" style="stroke:#000000;"/>
    <path clip-path="url(#p6c959cadb5)" d="M 198.324017 191.824026 
L 199.248463 194.43469 
L 199.835668 194.406298 
z
" style="stroke:#000000;"/>
    <path clip-path="url(#p6c959cadb5)" d="M 201.583363 157.491251 
L 202.107318 155.494584 
L 202.882643 156.049081 
z
" style="stroke:#000000;"/>
    <path clip-path="url(#p6c959cadb5)" d="M 202.107318 198.798597 
L 201.583363 196.80161 
L 202.882643 198.244571 
z
" style="stroke:#000000;"/>
    <path clip-path="url(#p6c959cadb5)" d="M 195.47838 168.06552 
L 197.064586 165.207083 
L 196.473527 165.191802 
z
" style="stroke:#000000;"/>
    <path clip-path="url(#p6c959cadb5)" d="M 194.325715 180.218359 
L 192.643104 180.412913 
L 193.104727 183.64426 
z
" style="stroke:#000000;"/>
    <path clip-path="url(#p6c959cadb5)" d="M 192.643104 173.879993 
L 194.325715 174.075573 
L 193.104727 170.648928 
z
" style="stroke:#000000;"/>
    <path clip-path="url(#p6c959cadb5)" d="M 198.466358 158.787912 
L 199.738209 156.21224 
L 200.324732 156.240944 
z
" style="stroke:#000000;"/>
    <path clip-path="url(#p6c959cadb5)" d="M 194.325715 174.075573 
L 192.643104 173.879993 
L 194.180468 177.146922 
z
" style="stroke:#000000;"/>
    <path clip-path="url(#p6c959cadb5)" d="M 192.643104 180.412913 
L 194.325715 180.218359 
L 194.180468 177.146922 
z
" style="stroke:#000000;"/>
    <path clip-path="url(#p6c959cadb5)" d="M 194.759888 183.256696 
L 193.104727 183.64426 
L 193.868641 186.805548 
z
" style="stroke:#000000;"/>
    <path clip-path="url(#p6c959cadb5)" d="M 193.104727 170.648928 
L 194.759888 171.037502 
L 193.868641 167.488106 
z
" style="stroke:#000000;"/>
    <path clip-path="url(#p6c959cadb5)" d="M 197.877248 158.763027 
L 196.859031 161.533528 
L 196.267686 161.512755 
z
" style="stroke:#000000;"/>
    <path clip-path="url(#p6c959cadb5)" d="M 193.104727 183.64426 
L 194.759888 183.256696 
L 194.325715 180.218359 
z
" style="stroke:#000000;"/>
    <path clip-path="url(#p6c959cadb5)" d="M 194.759888 171.037502 
L 193.104727 170.648928 
L 194.325715 174.075573 
z
" style="stroke:#000000;"/>
    <path clip-path="url(#p6c959cadb5)" d="M 197.73471 191.848548 
L 197.064586 189.083024 
L 196.473527 189.103442 
z
" style="stroke:#000000;"/>
    <path clip-path="url(#p6c959cadb5)" d="M 201.583363 157.491251 
L 199.248463 159.862249 
L 199.835668 159.885498 
z
" style="stroke:#000000;"/>
    <path clip-path="url(#p6c959cadb5)" d="M 201.369313 199.211762 
L 199.738209 198.084997 
L 200.324732 198.05115 
z
" style="stroke:#000000;"/>
    <path clip-path="url(#p6c959cadb5)" d="M 196.473527 165.191802 
L 198.324017 162.466849 
L 197.73471 162.447466 
z
" style="stroke:#000000;"/>
    <path clip-path="url(#p6c959cadb5)" d="M 196.267686 192.782363 
L 198.466358 195.503049 
L 197.877248 195.533075 
z
" style="stroke:#000000;"/>
    <path clip-path="url(#p6c959cadb5)" d="M 193.868641 186.805548 
L 195.47838 186.229117 
L 194.759888 183.256696 
z
" style="stroke:#000000;"/>
    <path clip-path="url(#p6c959cadb5)" d="M 195.47838 168.06552 
L 193.868641 167.488106 
L 194.759888 171.037502 
z
" style="stroke:#000000;"/>
    <path clip-path="url(#p6c959cadb5)" d="M 195.47838 186.229117 
L 193.868641 186.805548 
L 194.926708 189.862599 
z
" style="stroke:#000000;"/>
    <path clip-path="url(#p6c959cadb5)" d="M 193.868641 167.488106 
L 195.47838 168.06552 
L 194.926708 164.431701 
z
" style="stroke:#000000;"/>
    <path clip-path="url(#p6c959cadb5)" d="M 199.835668 194.406298 
L 200.998592 196.833595 
L 201.583363 196.80161 
z
" style="stroke:#000000;"/>
    <path clip-path="url(#p6c959cadb5)" d="M 200.324732 156.240944 
L 200.784244 155.050524 
L 201.369313 155.080968 
z
" style="stroke:#000000;"/>
    <path clip-path="url(#p6c959cadb5)" d="M 200.784244 155.050524 
L 202.107318 155.494584 
L 201.369313 155.080968 
z
" style="stroke:#000000;"/>
    <path clip-path="url(#p6c959cadb5)" d="M 199.248463 194.43469 
L 198.324017 191.824026 
L 197.73471 191.848548 
z
" style="stroke:#000000;"/>
    <path clip-path="url(#p6c959cadb5)" d="M 194.926708 189.862599 
L 196.473527 189.103442 
L 195.47838 186.229117 
z
" style="stroke:#000000;"/>
    <path clip-path="url(#p6c959cadb5)" d="M 196.473527 165.191802 
L 194.926708 164.431701 
L 195.47838 168.06552 
z
" style="stroke:#000000;"/>
    <path clip-path="url(#p6c959cadb5)" d="M 201.523276 198.833573 
L 201.369313 199.211762 
L 202.107318 198.798597 
z
" style="stroke:#000000;"/>
    <path clip-path="url(#p6c959cadb5)" d="M 199.738209 156.21224 
L 198.466358 158.787912 
L 197.877248 158.763027 
z
" style="stroke:#000000;"/>
    <path clip-path="url(#p6c959cadb5)" d="M 200.998592 196.833595 
L 202.882643 198.244571 
L 201.583363 196.80161 
z
" style="stroke:#000000;"/>
    <path clip-path="url(#p6c959cadb5)" d="M 196.473527 189.103442 
L 194.926708 189.862599 
L 196.267686 192.782363 
z
" style="stroke:#000000;"/>
    <path clip-path="url(#p6c959cadb5)" d="M 194.926708 164.431701 
L 196.473527 165.191802 
L 196.267686 161.512755 
z
" style="stroke:#000000;"/>
    <path clip-path="url(#p6c959cadb5)" d="M 197.73471 162.447466 
L 199.835668 159.885498 
L 199.248463 159.862249 
z
" style="stroke:#000000;"/>
    <path clip-path="url(#p6c959cadb5)" d="M 201.523276 155.464754 
L 202.882643 156.049081 
L 202.107318 155.494584 
z
" style="stroke:#000000;"/>
    <path clip-path="url(#p6c959cadb5)" d="M 202.299681 156.020077 
L 201.583363 157.491251 
L 202.882643 156.049081 
z
" style="stroke:#000000;"/>
    <path clip-path="url(#p6c959cadb5)" d="M 197.877248 195.533075 
L 200.324732 198.05115 
L 199.738209 198.084997 
z
" style="stroke:#000000;"/>
    <path clip-path="url(#p6c959cadb5)" d="M 202.299681 198.278724 
L 202.107318 198.798597 
L 202.882643 198.244571 
z
" style="stroke:#000000;"/>
    <path clip-path="url(#p6c959cadb5)" d="M 196.267686 192.782363 
L 197.73471 191.848548 
L 196.473527 189.103442 
z
" style="stroke:#000000;"/>
    <path clip-path="url(#p6c959cadb5)" d="M 197.73471 162.447466 
L 196.267686 161.512755 
L 196.473527 165.191802 
z
" style="stroke:#000000;"/>
    <path clip-path="url(#p6c959cadb5)" d="M 200.998592 196.833595 
L 199.835668 194.406298 
L 199.248463 194.43469 
z
" style="stroke:#000000;"/>
    <path clip-path="url(#p6c959cadb5)" d="M 200.784244 155.050524 
L 200.324732 156.240944 
L 199.738209 156.21224 
z
" style="stroke:#000000;"/>
    <path clip-path="url(#p6c959cadb5)" d="M 197.877248 195.533075 
L 197.73471 191.848548 
L 196.267686 192.782363 
z
" style="stroke:#000000;"/>
    <path clip-path="url(#p6c959cadb5)" d="M 197.73471 162.447466 
L 197.877248 158.763027 
L 196.267686 161.512755 
z
" style="stroke:#000000;"/>
    <path clip-path="url(#p6c959cadb5)" d="M 199.248463 159.862249 
L 201.583363 157.491251 
L 200.998592 157.464412 
z
" style="stroke:#000000;"/>
    <path clip-path="url(#p6c959cadb5)" d="M 199.738209 198.084997 
L 201.369313 199.211762 
L 200.784244 199.247352 
z
" style="stroke:#000000;"/>
    <path clip-path="url(#p6c959cadb5)" d="M 201.369313 199.211762 
L 201.523276 198.833573 
L 200.784244 199.247352 
z
" style="stroke:#000000;"/>
    <path clip-path="url(#p6c959cadb5)" d="M 197.877248 195.533075 
L 199.248463 194.43469 
L 197.73471 191.848548 
z
" style="stroke:#000000;"/>
    <path clip-path="url(#p6c959cadb5)" d="M 199.248463 159.862249 
L 197.877248 158.763027 
L 197.73471 162.447466 
z
" style="stroke:#000000;"/>
    <path clip-path="url(#p6c959cadb5)" d="M 202.107318 155.494584 
L 200.784244 155.050524 
L 201.523276 155.464754 
z
" style="stroke:#000000;"/>
    <path clip-path="url(#p6c959cadb5)" d="M 201.583363 157.491251 
L 202.299681 156.020077 
L 200.998592 157.464412 
z
" style="stroke:#000000;"/>
    <path clip-path="url(#p6c959cadb5)" d="M 199.738209 198.084997 
L 199.248463 194.43469 
L 197.877248 195.533075 
z
" style="stroke:#000000;"/>
    <path clip-path="url(#p6c959cadb5)" d="M 199.248463 159.862249 
L 199.738209 156.21224 
L 197.877248 158.763027 
z
" style="stroke:#000000;"/>
    <path clip-path="url(#p6c959cadb5)" d="M 202.107318 198.798597 
L 202.299681 198.278724 
L 201.523276 198.833573 
z
" style="stroke:#000000;"/>
    <path clip-path="url(#p6c959cadb5)" d="M 202.882643 198.244571 
L 200.998592 196.833595 
L 202.299681 198.278724 
z
" style="stroke:#000000;"/>
    <path clip-path="url(#p6c959cadb5)" d="M 202.882643 156.049081 
L 201.523276 155.464754 
L 202.299681 156.020077 
z
" style="stroke:#000000;"/>
    <path clip-path="url(#p6c959cadb5)" d="M 199.738209 198.084997 
L 200.998592 196.833595 
L 199.248463 194.43469 
z
" style="stroke:#000000;"/>
    <path clip-path="url(#p6c959cadb5)" d="M 200.998592 157.464412 
L 199.738209 156.21224 
L 199.248463 159.862249 
z
" style="stroke:#000000;"/>
    <path clip-path="url(#p6c959cadb5)" d="M 201.523276 198.833573 
L 199.738209 198.084997 
L 200.784244 199.247352 
z
" style="stroke:#000000;"/>
    <path clip-path="url(#p6c959cadb5)" d="M 199.738209 156.21224 
L 201.523276 155.464754 
L 200.784244 155.050524 
z
" style="stroke:#000000;"/>
    <path clip-path="url(#p6c959cadb5)" d="M 199.738209 198.084997 
L 201.523276 198.833573 
L 200.998592 196.833595 
z
" style="stroke:#000000;"/>
    <path clip-path="url(#p6c959cadb5)" d="M 201.523276 155.464754 
L 199.738209 156.21224 
L 200.998592 157.464412 
z
" style="stroke:#000000;"/>
    <path clip-path="url(#p6c959cadb5)" d="M 200.998592 196.833595 
L 201.523276 198.833573 
L 202.299681 198.278724 
z
" style="stroke:#000000;"/>
    <path clip-path="url(#p6c959cadb5)" d="M 201.523276 155.464754 
L 200.998592 157.464412 
L 202.299681 156.020077 
z
" style="stroke:#000000;"/>
   </g>
  </g>
 </g>
 <defs>
  <clipPath id="p6c959cadb5">
   <rect height="271.8" width="279" x="45" y="43.2"/>
  </clipPath>
 </defs>
</svg>
