<?xml version="1.0" encoding="utf-8" standalone="no"?>
<!DOCTYPE svg PUBLIC "-//W3C//DTD SVG 1.1//EN"
  "http://www.w3.org/Graphics/SVG/1.1/DTD/svg11.dtd">
<!-- Created with matplotlib (https://matplotlib.org/) -->
<svg height="360pt" version="1.1" viewBox="0 0 360 360" width="360pt" xmlns="http://www.w3.org/2000/svg" xmlns:xlink="http://www.w3.org/1999/xlink">
 <defs>
  <style type="text/css">
*{stroke-linecap:butt;stroke-linejoin:round;}
  </style>
 </defs>
 <g id="figure_1">
  <g id="patch_1">
   <path d="M 0 360 
L 360 360 
L 360 0 
L 0 0 
z
" style="fill:#ffffff;"/>
  </g>
  <g id="patch_2">
   <path d="M 45 315 
L 324 315 
L 324 43.2 
L 45 43.2 
z
" style="fill:#ffffff;"/>
  </g>
  <g id="axes_1">
   <g id="Poly3DCollection_1">
    <path clip-path="url(#p1517341926)" d="M 180.51884 155.588233 
L 181.015464 157.571421 
L 179.784375 156.146674 
z
" style="stroke:#000000;"/>
    <path clip-path="url(#p1517341926)" d="M 181.015464 196.706069 
L 180.51884 198.688789 
L 179.784375 198.129656 
z
" style="stroke:#000000;"/>
    <path clip-path="url(#p1517341926)" d="M 180.51884 155.588233 
L 182.209374 156.316163 
L 181.015464 157.571421 
z
" style="stroke:#000000;"/>
    <path clip-path="url(#p1517341926)" d="M 182.209374 197.962452 
L 180.51884 198.688789 
L 181.015464 196.706069 
z
" style="stroke:#000000;"/>
    <path clip-path="url(#p1517341926)" d="M 182.209374 156.316163 
L 180.51884 155.588233 
L 181.218414 155.170012 
z
" style="stroke:#000000;"/>
    <path clip-path="url(#p1517341926)" d="M 180.51884 198.688789 
L 182.209374 197.962452 
L 181.218414 199.107669 
z
" style="stroke:#000000;"/>
    <path clip-path="url(#p1517341926)" d="M 178.882567 156.119213 
L 180.51884 155.588233 
L 179.784375 156.146674 
z
" style="stroke:#000000;"/>
    <path clip-path="url(#p1517341926)" d="M 178.882567 198.161991 
L 181.015464 196.706069 
L 179.784375 198.129656 
z
" style="stroke:#000000;"/>
    <path clip-path="url(#p1517341926)" d="M 182.209374 156.316163 
L 182.673646 159.943109 
L 181.015464 157.571421 
z
" style="stroke:#000000;"/>
    <path clip-path="url(#p1517341926)" d="M 182.673646 194.335943 
L 182.209374 197.962452 
L 181.015464 196.706069 
z
" style="stroke:#000000;"/>
    <path clip-path="url(#p1517341926)" d="M 179.617895 198.721927 
L 179.784375 198.129656 
L 180.51884 198.688789 
z
" style="stroke:#000000;"/>
    <path clip-path="url(#p1517341926)" d="M 180.115103 157.545981 
L 179.784375 156.146674 
L 181.015464 157.571421 
z
" style="stroke:#000000;"/>
    <path clip-path="url(#p1517341926)" d="M 179.617895 155.559971 
L 181.218414 155.170012 
L 180.51884 155.588233 
z
" style="stroke:#000000;"/>
    <path clip-path="url(#p1517341926)" d="M 180.318292 199.14141 
L 180.51884 198.688789 
L 181.218414 199.107669 
z
" style="stroke:#000000;"/>
    <path clip-path="url(#p1517341926)" d="M 183.974599 158.839632 
L 182.673646 159.943109 
L 182.209374 156.316163 
z
" style="stroke:#000000;"/>
    <path clip-path="url(#p1517341926)" d="M 182.673646 194.335943 
L 183.974599 195.440646 
L 182.209374 197.962452 
z
" style="stroke:#000000;"/>
    <path clip-path="url(#p1517341926)" d="M 182.209374 197.962452 
L 180.318292 199.14141 
L 181.218414 199.107669 
z
" style="stroke:#000000;"/>
    <path clip-path="url(#p1517341926)" d="M 182.673646 159.943109 
L 180.115103 157.545981 
L 181.015464 157.571421 
z
" style="stroke:#000000;"/>
    <path clip-path="url(#p1517341926)" d="M 179.784375 198.129656 
L 179.617895 198.721927 
L 178.882567 198.161991 
z
" style="stroke:#000000;"/>
    <path clip-path="url(#p1517341926)" d="M 183.974599 158.839632 
L 184.109923 162.506326 
L 182.673646 159.943109 
z
" style="stroke:#000000;"/>
    <path clip-path="url(#p1517341926)" d="M 184.109923 191.774079 
L 183.974599 195.440646 
L 182.673646 194.335943 
z
" style="stroke:#000000;"/>
    <path clip-path="url(#p1517341926)" d="M 181.218414 155.170012 
L 181.310418 156.288926 
L 182.209374 156.316163 
z
" style="stroke:#000000;"/>
    <path clip-path="url(#p1517341926)" d="M 179.784375 156.146674 
L 180.115103 157.545981 
L 178.882567 156.119213 
z
" style="stroke:#000000;"/>
    <path clip-path="url(#p1517341926)" d="M 180.51884 155.588233 
L 178.882567 156.119213 
L 179.617895 155.559971 
z
" style="stroke:#000000;"/>
    <path clip-path="url(#p1517341926)" d="M 181.015464 196.706069 
L 181.775237 194.362896 
L 182.673646 194.335943 
z
" style="stroke:#000000;"/>
    <path clip-path="url(#p1517341926)" d="M 181.015464 196.706069 
L 178.882567 198.161991 
L 180.115103 196.736386 
z
" style="stroke:#000000;"/>
    <path clip-path="url(#p1517341926)" d="M 180.51884 198.688789 
L 180.318292 199.14141 
L 179.617895 198.721927 
z
" style="stroke:#000000;"/>
    <path clip-path="url(#p1517341926)" d="M 181.218414 155.170012 
L 179.617895 155.559971 
L 180.318292 155.141149 
z
" style="stroke:#000000;"/>
    <path clip-path="url(#p1517341926)" d="M 183.974599 195.440646 
L 181.310418 197.99457 
L 182.209374 197.962452 
z
" style="stroke:#000000;"/>
    <path clip-path="url(#p1517341926)" d="M 185.503683 161.566939 
L 184.109923 162.506326 
L 183.974599 158.839632 
z
" style="stroke:#000000;"/>
    <path clip-path="url(#p1517341926)" d="M 184.109923 191.774079 
L 185.503683 192.714779 
L 183.974599 195.440646 
z
" style="stroke:#000000;"/>
    <path clip-path="url(#p1517341926)" d="M 184.109923 162.506326 
L 181.775237 159.921038 
L 182.673646 159.943109 
z
" style="stroke:#000000;"/>
    <path clip-path="url(#p1517341926)" d="M 184.109923 162.506326 
L 185.503683 161.566939 
L 185.308014 165.23258 
z
" style="stroke:#000000;"/>
    <path clip-path="url(#p1517341926)" d="M 185.503683 192.714779 
L 184.109923 191.774079 
L 185.308014 189.048955 
z
" style="stroke:#000000;"/>
    <path clip-path="url(#p1517341926)" d="M 181.310418 156.288926 
L 181.218414 155.170012 
L 180.318292 155.141149 
z
" style="stroke:#000000;"/>
    <path clip-path="url(#p1517341926)" d="M 181.775237 194.362896 
L 181.015464 196.706069 
L 180.115103 196.736386 
z
" style="stroke:#000000;"/>
    <path clip-path="url(#p1517341926)" d="M 182.209374 156.316163 
L 183.077723 158.815979 
L 183.974599 158.839632 
z
" style="stroke:#000000;"/>
    <path clip-path="url(#p1517341926)" d="M 180.318292 199.14141 
L 182.209374 197.962452 
L 181.310418 197.99457 
z
" style="stroke:#000000;"/>
    <path clip-path="url(#p1517341926)" d="M 182.673646 194.335943 
L 183.213207 191.79739 
L 184.109923 191.774079 
z
" style="stroke:#000000;"/>
    <path clip-path="url(#p1517341926)" d="M 180.115103 157.545981 
L 182.673646 159.943109 
L 181.775237 159.921038 
z
" style="stroke:#000000;"/>
    <path clip-path="url(#p1517341926)" d="M 179.617895 198.721927 
L 180.115103 196.736386 
L 178.882567 198.161991 
z
" style="stroke:#000000;"/>
    <path clip-path="url(#p1517341926)" d="M 180.115103 157.545981 
L 179.617895 155.559971 
L 178.882567 156.119213 
z
" style="stroke:#000000;"/>
    <path clip-path="url(#p1517341926)" d="M 186.779263 164.468071 
L 185.308014 165.23258 
L 185.503683 161.566939 
z
" style="stroke:#000000;"/>
    <path clip-path="url(#p1517341926)" d="M 185.308014 189.048955 
L 186.779263 189.81485 
L 185.503683 192.714779 
z
" style="stroke:#000000;"/>
    <path clip-path="url(#p1517341926)" d="M 185.308014 165.23258 
L 186.779263 164.468071 
L 186.254314 168.091646 
z
" style="stroke:#000000;"/>
    <path clip-path="url(#p1517341926)" d="M 186.779263 189.81485 
L 185.308014 189.048955 
L 186.254314 186.19078 
z
" style="stroke:#000000;"/>
    <path clip-path="url(#p1517341926)" d="M 185.503683 192.714779 
L 183.077723 195.469184 
L 183.974599 195.440646 
z
" style="stroke:#000000;"/>
    <path clip-path="url(#p1517341926)" d="M 185.308014 165.23258 
L 183.213207 162.487901 
L 184.109923 162.506326 
z
" style="stroke:#000000;"/>
    <path clip-path="url(#p1517341926)" d="M 183.077723 158.815979 
L 182.209374 156.316163 
L 181.310418 156.288926 
z
" style="stroke:#000000;"/>
    <path clip-path="url(#p1517341926)" d="M 179.617895 198.721927 
L 181.310418 197.99457 
L 180.115103 196.736386 
z
" style="stroke:#000000;"/>
    <path clip-path="url(#p1517341926)" d="M 181.310418 156.288926 
L 179.617895 155.559971 
L 180.115103 157.545981 
z
" style="stroke:#000000;"/>
    <path clip-path="url(#p1517341926)" d="M 181.310418 197.99457 
L 179.617895 198.721927 
L 180.318292 199.14141 
z
" style="stroke:#000000;"/>
    <path clip-path="url(#p1517341926)" d="M 179.617895 155.559971 
L 181.310418 156.288926 
L 180.318292 155.141149 
z
" style="stroke:#000000;"/>
    <path clip-path="url(#p1517341926)" d="M 183.213207 191.79739 
L 182.673646 194.335943 
L 181.775237 194.362896 
z
" style="stroke:#000000;"/>
    <path clip-path="url(#p1517341926)" d="M 184.109923 191.774079 
L 184.412711 189.068386 
L 185.308014 189.048955 
z
" style="stroke:#000000;"/>
    <path clip-path="url(#p1517341926)" d="M 183.974599 158.839632 
L 184.608611 161.547167 
L 185.503683 161.566939 
z
" style="stroke:#000000;"/>
    <path clip-path="url(#p1517341926)" d="M 181.310418 197.99457 
L 183.974599 195.440646 
L 183.077723 195.469184 
z
" style="stroke:#000000;"/>
    <path clip-path="url(#p1517341926)" d="M 187.786789 167.510689 
L 186.254314 168.091646 
L 186.779263 164.468071 
z
" style="stroke:#000000;"/>
    <path clip-path="url(#p1517341926)" d="M 186.254314 186.19078 
L 187.786789 186.773181 
L 186.779263 189.81485 
z
" style="stroke:#000000;"/>
    <path clip-path="url(#p1517341926)" d="M 186.254314 168.091646 
L 187.786789 167.510689 
L 186.938052 171.051701 
z
" style="stroke:#000000;"/>
    <path clip-path="url(#p1517341926)" d="M 187.786789 186.773181 
L 186.254314 186.19078 
L 186.938052 183.231369 
z
" style="stroke:#000000;"/>
    <path clip-path="url(#p1517341926)" d="M 181.775237 159.921038 
L 184.109923 162.506326 
L 183.213207 162.487901 
z
" style="stroke:#000000;"/>
    <path clip-path="url(#p1517341926)" d="M 181.310418 197.99457 
L 181.775237 194.362896 
L 180.115103 196.736386 
z
" style="stroke:#000000;"/>
    <path clip-path="url(#p1517341926)" d="M 181.775237 159.921038 
L 181.310418 156.288926 
L 180.115103 157.545981 
z
" style="stroke:#000000;"/>
    <path clip-path="url(#p1517341926)" d="M 186.254314 168.091646 
L 184.412711 165.218038 
L 185.308014 165.23258 
z
" style="stroke:#000000;"/>
    <path clip-path="url(#p1517341926)" d="M 186.938052 171.051701 
L 188.514795 170.66092 
L 187.351433 174.079688 
z
" style="stroke:#000000;"/>
    <path clip-path="url(#p1517341926)" d="M 188.514795 183.623635 
L 186.938052 183.231369 
L 187.351433 180.203771 
z
" style="stroke:#000000;"/>
    <path clip-path="url(#p1517341926)" d="M 186.779263 189.81485 
L 184.608611 192.739441 
L 185.503683 192.714779 
z
" style="stroke:#000000;"/>
    <path clip-path="url(#p1517341926)" d="M 185.308014 189.048955 
L 185.360128 186.206138 
L 186.254314 186.19078 
z
" style="stroke:#000000;"/>
    <path clip-path="url(#p1517341926)" d="M 188.514795 170.66092 
L 186.938052 171.051701 
L 187.786789 167.510689 
z
" style="stroke:#000000;"/>
    <path clip-path="url(#p1517341926)" d="M 186.938052 183.231369 
L 188.514795 183.623635 
L 187.786789 186.773181 
z
" style="stroke:#000000;"/>
    <path clip-path="url(#p1517341926)" d="M 188.954956 180.401408 
L 187.351433 180.203771 
L 187.48976 177.141795 
z
" style="stroke:#000000;"/>
    <path clip-path="url(#p1517341926)" d="M 187.351433 174.079688 
L 188.954956 173.883563 
L 187.48976 177.141795 
z
" style="stroke:#000000;"/>
    <path clip-path="url(#p1517341926)" d="M 184.608611 161.547167 
L 183.974599 158.839632 
L 183.077723 158.815979 
z
" style="stroke:#000000;"/>
    <path clip-path="url(#p1517341926)" d="M 184.412711 189.068386 
L 184.109923 191.774079 
L 183.213207 191.79739 
z
" style="stroke:#000000;"/>
    <path clip-path="url(#p1517341926)" d="M 185.503683 161.566939 
L 185.885697 164.452432 
L 186.779263 164.468071 
z
" style="stroke:#000000;"/>
    <path clip-path="url(#p1517341926)" d="M 183.077723 195.469184 
L 181.775237 194.362896 
L 181.310418 197.99457 
z
" style="stroke:#000000;"/>
    <path clip-path="url(#p1517341926)" d="M 181.775237 159.921038 
L 183.077723 158.815979 
L 181.310418 156.288926 
z
" style="stroke:#000000;"/>
    <path clip-path="url(#p1517341926)" d="M 186.938052 171.051701 
L 185.360128 168.08118 
L 186.254314 168.091646 
z
" style="stroke:#000000;"/>
    <path clip-path="url(#p1517341926)" d="M 188.954956 173.883563 
L 187.351433 174.079688 
L 188.514795 170.66092 
z
" style="stroke:#000000;"/>
    <path clip-path="url(#p1517341926)" d="M 187.351433 180.203771 
L 188.954956 180.401408 
L 188.514795 183.623635 
z
" style="stroke:#000000;"/>
    <path clip-path="url(#p1517341926)" d="M 183.213207 162.487901 
L 185.308014 165.23258 
L 184.412711 165.218038 
z
" style="stroke:#000000;"/>
    <path clip-path="url(#p1517341926)" d="M 186.254314 186.19078 
L 186.044674 183.242507 
L 186.938052 183.231369 
z
" style="stroke:#000000;"/>
    <path clip-path="url(#p1517341926)" d="M 183.077723 195.469184 
L 185.503683 192.714779 
L 184.608611 192.739441 
z
" style="stroke:#000000;"/>
    <path clip-path="url(#p1517341926)" d="M 189.102234 177.142554 
L 187.48976 177.141795 
L 188.954956 173.883563 
z
" style="stroke:#000000;"/>
    <path clip-path="url(#p1517341926)" d="M 187.48976 177.141795 
L 189.102234 177.142554 
L 188.954956 180.401408 
z
" style="stroke:#000000;"/>
    <path clip-path="url(#p1517341926)" d="M 183.077723 195.469184 
L 183.213207 191.79739 
L 181.775237 194.362896 
z
" style="stroke:#000000;"/>
    <path clip-path="url(#p1517341926)" d="M 183.213207 162.487901 
L 183.077723 158.815979 
L 181.775237 159.921038 
z
" style="stroke:#000000;"/>
    <path clip-path="url(#p1517341926)" d="M 187.351433 174.079688 
L 186.044674 171.045457 
L 186.938052 171.051701 
z
" style="stroke:#000000;"/>
    <path clip-path="url(#p1517341926)" d="M 187.786789 186.773181 
L 185.885697 189.835382 
L 186.779263 189.81485 
z
" style="stroke:#000000;"/>
    <path clip-path="url(#p1517341926)" d="M 186.938052 183.231369 
L 186.458543 180.210589 
L 187.351433 180.203771 
z
" style="stroke:#000000;"/>
    <path clip-path="url(#p1517341926)" d="M 191.254424 154.057733 
L 188.564584 157.580587 
L 187.221153 157.19764 
z
" style="stroke:#000000;"/>
    <path clip-path="url(#p1517341926)" d="M 191.254424 163.416855 
L 187.221153 157.19764 
L 188.564584 157.580587 
z
" style="stroke:#000000;"/>
    <path clip-path="url(#p1517341926)" d="M 185.360128 186.206138 
L 185.308014 189.048955 
L 184.412711 189.068386 
z
" style="stroke:#000000;"/>
    <path clip-path="url(#p1517341926)" d="M 187.48976 177.141795 
L 186.458543 174.077765 
L 187.351433 174.079688 
z
" style="stroke:#000000;"/>
    <path clip-path="url(#p1517341926)" d="M 187.351433 180.203771 
L 186.597034 177.144242 
L 187.48976 177.141795 
z
" style="stroke:#000000;"/>
    <path clip-path="url(#p1517341926)" d="M 186.779263 164.468071 
L 186.894413 167.499389 
L 187.786789 167.510689 
z
" style="stroke:#000000;"/>
    <path clip-path="url(#p1517341926)" d="M 185.885697 164.452432 
L 185.503683 161.566939 
L 184.608611 161.547167 
z
" style="stroke:#000000;"/>
    <path clip-path="url(#p1517341926)" d="M 184.412711 165.218038 
L 186.254314 168.091646 
L 185.360128 168.08118 
z
" style="stroke:#000000;"/>
    <path clip-path="url(#p1517341926)" d="M 184.608611 192.739441 
L 183.213207 191.79739 
L 183.077723 195.469184 
z
" style="stroke:#000000;"/>
    <path clip-path="url(#p1517341926)" d="M 183.213207 162.487901 
L 184.608611 161.547167 
L 183.077723 158.815979 
z
" style="stroke:#000000;"/>
    <path clip-path="url(#p1517341926)" d="M 188.514795 183.623635 
L 186.894413 186.789377 
L 187.786789 186.773181 
z
" style="stroke:#000000;"/>
    <path clip-path="url(#p1517341926)" d="M 184.608611 192.739441 
L 186.779263 189.81485 
L 185.885697 189.835382 
z
" style="stroke:#000000;"/>
    <path clip-path="url(#p1517341926)" d="M 191.254424 163.416855 
L 191.254424 166.536563 
L 187.221153 157.19764 
z
" style="stroke:#000000;"/>
    <path clip-path="url(#p1517341926)" d="M 186.044674 183.242507 
L 186.254314 186.19078 
L 185.360128 186.206138 
z
" style="stroke:#000000;"/>
    <path clip-path="url(#p1517341926)" d="M 187.786789 167.510689 
L 187.62328 170.654116 
L 188.514795 170.66092 
z
" style="stroke:#000000;"/>
    <path clip-path="url(#p1517341926)" d="M 183.213207 191.79739 
L 184.608611 192.739441 
L 184.412711 189.068386 
z
" style="stroke:#000000;"/>
    <path clip-path="url(#p1517341926)" d="M 184.608611 161.547167 
L 183.213207 162.487901 
L 184.412711 165.218038 
z
" style="stroke:#000000;"/>
    <path clip-path="url(#p1517341926)" d="M 185.360128 168.08118 
L 186.938052 171.051701 
L 186.044674 171.045457 
z
" style="stroke:#000000;"/>
    <path clip-path="url(#p1517341926)" d="M 186.328109 157.171623 
L 191.254424 154.057733 
L 187.221153 157.19764 
z
" style="stroke:#000000;"/>
    <path clip-path="url(#p1517341926)" d="M 191.254424 166.536563 
L 186.328109 157.171623 
L 187.221153 157.19764 
z
" style="stroke:#000000;"/>
    <path clip-path="url(#p1517341926)" d="M 191.254424 154.057733 
L 191.254424 155.617586 
L 188.564584 157.580587 
z
" style="stroke:#000000;"/>
    <path clip-path="url(#p1517341926)" d="M 188.954956 180.401408 
L 187.62328 183.635338 
L 188.514795 183.623635 
z
" style="stroke:#000000;"/>
    <path clip-path="url(#p1517341926)" d="M 186.458543 180.210589 
L 186.938052 183.231369 
L 186.044674 183.242507 
z
" style="stroke:#000000;"/>
    <path clip-path="url(#p1517341926)" d="M 188.514795 170.66092 
L 188.063962 173.881359 
L 188.954956 173.883563 
z
" style="stroke:#000000;"/>
    <path clip-path="url(#p1517341926)" d="M 186.894413 167.499389 
L 186.779263 164.468071 
L 185.885697 164.452432 
z
" style="stroke:#000000;"/>
    <path clip-path="url(#p1517341926)" d="M 186.044674 171.045457 
L 187.351433 174.079688 
L 186.458543 174.077765 
z
" style="stroke:#000000;"/>
    <path clip-path="url(#p1517341926)" d="M 189.102234 177.142554 
L 188.063962 180.40851 
L 188.954956 180.401408 
z
" style="stroke:#000000;"/>
    <path clip-path="url(#p1517341926)" d="M 188.954956 173.883563 
L 188.211415 177.145004 
L 189.102234 177.142554 
z
" style="stroke:#000000;"/>
    <path clip-path="url(#p1517341926)" d="M 186.597034 177.144242 
L 187.351433 180.203771 
L 186.458543 180.210589 
z
" style="stroke:#000000;"/>
    <path clip-path="url(#p1517341926)" d="M 186.458543 174.077765 
L 187.48976 177.141795 
L 186.597034 177.144242 
z
" style="stroke:#000000;"/>
    <path clip-path="url(#p1517341926)" d="M 185.885697 189.835382 
L 187.786789 186.773181 
L 186.894413 186.789377 
z
" style="stroke:#000000;"/>
    <path clip-path="url(#p1517341926)" d="M 185.885697 189.835382 
L 184.412711 189.068386 
L 184.608611 192.739441 
z
" style="stroke:#000000;"/>
    <path clip-path="url(#p1517341926)" d="M 184.412711 165.218038 
L 185.885697 164.452432 
L 184.608611 161.547167 
z
" style="stroke:#000000;"/>
    <path clip-path="url(#p1517341926)" d="M 184.412711 189.068386 
L 185.885697 189.835382 
L 185.360128 186.206138 
z
" style="stroke:#000000;"/>
    <path clip-path="url(#p1517341926)" d="M 185.885697 164.452432 
L 184.412711 165.218038 
L 185.360128 168.08118 
z
" style="stroke:#000000;"/>
    <path clip-path="url(#p1517341926)" d="M 187.62328 170.654116 
L 187.786789 167.510689 
L 186.894413 167.499389 
z
" style="stroke:#000000;"/>
    <path clip-path="url(#p1517341926)" d="M 186.894413 186.789377 
L 188.514795 183.623635 
L 187.62328 183.635338 
z
" style="stroke:#000000;"/>
    <path clip-path="url(#p1517341926)" d="M 190.366152 155.589283 
L 188.564584 157.580587 
L 191.254424 155.617586 
z
" style="stroke:#000000;"/>
    <path clip-path="url(#p1517341926)" d="M 188.564584 157.580587 
L 190.366152 163.399695 
L 191.254424 163.416855 
z
" style="stroke:#000000;"/>
    <path clip-path="url(#p1517341926)" d="M 188.063962 173.881359 
L 188.514795 170.66092 
L 187.62328 170.654116 
z
" style="stroke:#000000;"/>
    <path clip-path="url(#p1517341926)" d="M 186.894413 186.789377 
L 185.360128 186.206138 
L 185.885697 189.835382 
z
" style="stroke:#000000;"/>
    <path clip-path="url(#p1517341926)" d="M 185.360128 168.08118 
L 186.894413 167.499389 
L 185.885697 164.452432 
z
" style="stroke:#000000;"/>
    <path clip-path="url(#p1517341926)" d="M 191.254424 154.057733 
L 193.948241 157.554201 
L 191.254424 155.617586 
z
" style="stroke:#000000;"/>
    <path clip-path="url(#p1517341926)" d="M 185.360128 186.206138 
L 186.894413 186.789377 
L 186.044674 183.242507 
z
" style="stroke:#000000;"/>
    <path clip-path="url(#p1517341926)" d="M 186.894413 167.499389 
L 185.360128 168.08118 
L 186.044674 171.045457 
z
" style="stroke:#000000;"/>
    <path clip-path="url(#p1517341926)" d="M 187.62328 183.635338 
L 188.954956 180.401408 
L 188.063962 180.40851 
z
" style="stroke:#000000;"/>
    <path clip-path="url(#p1517341926)" d="M 188.211415 177.145004 
L 188.954956 173.883563 
L 188.063962 173.881359 
z
" style="stroke:#000000;"/>
    <path clip-path="url(#p1517341926)" d="M 188.063962 180.40851 
L 189.102234 177.142554 
L 188.211415 177.145004 
z
" style="stroke:#000000;"/>
    <path clip-path="url(#p1517341926)" d="M 191.254424 163.416855 
L 195.296643 157.157196 
L 191.254424 166.536563 
z
" style="stroke:#000000;"/>
    <path clip-path="url(#p1517341926)" d="M 186.044674 183.242507 
L 187.62328 183.635338 
L 186.458543 180.210589 
z
" style="stroke:#000000;"/>
    <path clip-path="url(#p1517341926)" d="M 187.62328 170.654116 
L 186.044674 171.045457 
L 186.458543 174.077765 
z
" style="stroke:#000000;"/>
    <path clip-path="url(#p1517341926)" d="M 188.564584 157.580587 
L 190.366152 155.589283 
L 187.673128 157.555107 
z
" style="stroke:#000000;"/>
    <path clip-path="url(#p1517341926)" d="M 190.366152 163.399695 
L 188.564584 157.580587 
L 187.673128 157.555107 
z
" style="stroke:#000000;"/>
    <path clip-path="url(#p1517341926)" d="M 187.62328 183.635338 
L 186.044674 183.242507 
L 186.894413 186.789377 
z
" style="stroke:#000000;"/>
    <path clip-path="url(#p1517341926)" d="M 186.044674 171.045457 
L 187.62328 170.654116 
L 186.894413 167.499389 
z
" style="stroke:#000000;"/>
    <path clip-path="url(#p1517341926)" d="M 188.063962 173.881359 
L 186.458543 174.077765 
L 186.597034 177.144242 
z
" style="stroke:#000000;"/>
    <path clip-path="url(#p1517341926)" d="M 186.458543 180.210589 
L 188.063962 180.40851 
L 186.597034 177.144242 
z
" style="stroke:#000000;"/>
    <path clip-path="url(#p1517341926)" d="M 191.254424 154.057733 
L 186.328109 157.171623 
L 190.366152 154.0272 
z
" style="stroke:#000000;"/>
    <path clip-path="url(#p1517341926)" d="M 186.328109 157.171623 
L 191.254424 166.536563 
L 190.366152 166.52386 
z
" style="stroke:#000000;"/>
    <path clip-path="url(#p1517341926)" d="M 188.063962 180.40851 
L 186.458543 180.210589 
L 187.62328 183.635338 
z
" style="stroke:#000000;"/>
    <path clip-path="url(#p1517341926)" d="M 186.458543 174.077765 
L 188.063962 173.881359 
L 187.62328 170.654116 
z
" style="stroke:#000000;"/>
    <path clip-path="url(#p1517341926)" d="M 193.948241 157.554201 
L 191.254424 154.057733 
L 195.296643 157.157196 
z
" style="stroke:#000000;"/>
    <path clip-path="url(#p1517341926)" d="M 195.296643 157.157196 
L 191.254424 163.416855 
L 193.948241 157.554201 
z
" style="stroke:#000000;"/>
    <path clip-path="url(#p1517341926)" d="M 188.211415 177.145004 
L 186.597034 177.144242 
L 188.063962 180.40851 
z
" style="stroke:#000000;"/>
    <path clip-path="url(#p1517341926)" d="M 186.597034 177.144242 
L 188.211415 177.145004 
L 188.063962 173.881359 
z
" style="stroke:#000000;"/>
    <path clip-path="url(#p1517341926)" d="M 195.026883 177.145345 
L 193.409159 177.144583 
L 193.556797 173.881612 
z
" style="stroke:#000000;"/>
    <path clip-path="url(#p1517341926)" d="M 193.409159 177.144583 
L 195.026883 177.145345 
L 193.556797 180.407694 
z
" style="stroke:#000000;"/>
    <path clip-path="url(#p1517341926)" d="M 186.328109 157.171623 
L 190.366152 163.399695 
L 187.673128 157.555107 
z
" style="stroke:#000000;"/>
    <path clip-path="url(#p1517341926)" d="M 187.673128 157.555107 
L 190.366152 154.0272 
L 186.328109 157.171623 
z
" style="stroke:#000000;"/>
    <path clip-path="url(#p1517341926)" d="M 195.165794 174.076796 
L 193.556797 173.881612 
L 193.998178 170.653743 
z
" style="stroke:#000000;"/>
    <path clip-path="url(#p1517341926)" d="M 193.556797 180.407694 
L 195.165794 180.214026 
L 193.998178 183.635979 
z
" style="stroke:#000000;"/>
    <path clip-path="url(#p1517341926)" d="M 190.366152 154.0272 
L 195.296643 157.157196 
L 191.254424 154.057733 
z
" style="stroke:#000000;"/>
    <path clip-path="url(#p1517341926)" d="M 195.296643 157.157196 
L 190.366152 166.52386 
L 191.254424 166.536563 
z
" style="stroke:#000000;"/>
    <path clip-path="url(#p1517341926)" d="M 195.165794 180.214026 
L 193.556797 180.407694 
L 195.026883 177.145345 
z
" style="stroke:#000000;"/>
    <path clip-path="url(#p1517341926)" d="M 193.556797 173.881612 
L 195.165794 174.076796 
L 195.026883 177.145345 
z
" style="stroke:#000000;"/>
    <path clip-path="url(#p1517341926)" d="M 195.581046 171.04131 
L 193.998178 170.653743 
L 194.728671 167.495593 
z
" style="stroke:#000000;"/>
    <path clip-path="url(#p1517341926)" d="M 193.998178 183.635979 
L 195.581046 183.249902 
L 194.728671 186.794817 
z
" style="stroke:#000000;"/>
    <path clip-path="url(#p1517341926)" d="M 193.063163 157.528645 
L 191.254424 155.617586 
L 193.948241 157.554201 
z
" style="stroke:#000000;"/>
    <path clip-path="url(#p1517341926)" d="M 191.254424 163.416855 
L 193.063163 157.528645 
L 193.948241 157.554201 
z
" style="stroke:#000000;"/>
    <path clip-path="url(#p1517341926)" d="M 193.998178 170.653743 
L 195.581046 171.04131 
L 195.165794 174.076796 
z
" style="stroke:#000000;"/>
    <path clip-path="url(#p1517341926)" d="M 195.581046 183.249902 
L 193.998178 183.635979 
L 195.165794 180.214026 
z
" style="stroke:#000000;"/>
    <path clip-path="url(#p1517341926)" d="M 190.366152 163.399695 
L 186.328109 157.171623 
L 190.366152 166.52386 
z
" style="stroke:#000000;"/>
    <path clip-path="url(#p1517341926)" d="M 193.556797 180.407694 
L 192.523441 177.147039 
L 193.409159 177.144583 
z
" style="stroke:#000000;"/>
    <path clip-path="url(#p1517341926)" d="M 193.409159 177.144583 
L 192.671255 173.879403 
L 193.556797 173.881612 
z
" style="stroke:#000000;"/>
    <path clip-path="url(#p1517341926)" d="M 193.998178 183.635979 
L 192.671255 180.414814 
L 193.556797 180.407694 
z
" style="stroke:#000000;"/>
    <path clip-path="url(#p1517341926)" d="M 194.728671 167.495593 
L 196.268294 168.07146 
L 195.581046 171.04131 
z
" style="stroke:#000000;"/>
    <path clip-path="url(#p1517341926)" d="M 196.268294 186.220401 
L 194.728671 186.794817 
L 195.581046 183.249902 
z
" style="stroke:#000000;"/>
    <path clip-path="url(#p1517341926)" d="M 190.366152 154.0272 
L 187.673128 157.555107 
L 190.366152 155.589283 
z
" style="stroke:#000000;"/>
    <path clip-path="url(#p1517341926)" d="M 196.268294 168.07146 
L 194.728671 167.495593 
L 195.740604 164.441086 
z
" style="stroke:#000000;"/>
    <path clip-path="url(#p1517341926)" d="M 194.728671 186.794817 
L 196.268294 186.220401 
L 195.740604 189.850277 
z
" style="stroke:#000000;"/>
    <path clip-path="url(#p1517341926)" d="M 193.556797 173.881612 
L 193.11316 170.646918 
L 193.998178 170.653743 
z
" style="stroke:#000000;"/>
    <path clip-path="url(#p1517341926)" d="M 191.254424 155.617586 
L 193.063163 157.528645 
L 190.366152 155.589283 
z
" style="stroke:#000000;"/>
    <path clip-path="url(#p1517341926)" d="M 193.063163 157.528645 
L 191.254424 163.416855 
L 190.366152 163.399695 
z
" style="stroke:#000000;"/>
    <path clip-path="url(#p1517341926)" d="M 194.728671 186.794817 
L 193.11316 183.647717 
L 193.998178 183.635979 
z
" style="stroke:#000000;"/>
    <path clip-path="url(#p1517341926)" d="M 193.998178 170.653743 
L 193.84452 167.48425 
L 194.728671 167.495593 
z
" style="stroke:#000000;"/>
    <path clip-path="url(#p1517341926)" d="M 195.740604 164.441086 
L 197.220305 165.199198 
L 196.268294 168.07146 
z
" style="stroke:#000000;"/>
    <path clip-path="url(#p1517341926)" d="M 197.220305 189.093559 
L 195.740604 189.850277 
L 196.268294 186.220401 
z
" style="stroke:#000000;"/>
    <path clip-path="url(#p1517341926)" d="M 197.220305 165.199198 
L 195.740604 164.441086 
L 197.023374 161.523053 
z
" style="stroke:#000000;"/>
    <path clip-path="url(#p1517341926)" d="M 195.740604 189.850277 
L 197.220305 189.093559 
L 197.023374 192.769519 
z
" style="stroke:#000000;"/>
    <path clip-path="url(#p1517341926)" d="M 195.740604 189.850277 
L 193.84452 186.811075 
L 194.728671 186.794817 
z
" style="stroke:#000000;"/>
    <path clip-path="url(#p1517341926)" d="M 195.165794 174.076796 
L 194.143085 177.147803 
L 195.026883 177.145345 
z
" style="stroke:#000000;"/>
    <path clip-path="url(#p1517341926)" d="M 195.026883 177.145345 
L 194.282161 180.220873 
L 195.165794 180.214026 
z
" style="stroke:#000000;"/>
    <path clip-path="url(#p1517341926)" d="M 192.671255 173.879403 
L 193.409159 177.144583 
L 192.523441 177.147039 
z
" style="stroke:#000000;"/>
    <path clip-path="url(#p1517341926)" d="M 192.523441 177.147039 
L 193.556797 180.407694 
L 192.671255 180.414814 
z
" style="stroke:#000000;"/>
    <path clip-path="url(#p1517341926)" d="M 195.581046 171.04131 
L 194.282161 174.074865 
L 195.165794 174.076796 
z
" style="stroke:#000000;"/>
    <path clip-path="url(#p1517341926)" d="M 194.728671 167.495593 
L 194.857655 164.42537 
L 195.740604 164.441086 
z
" style="stroke:#000000;"/>
    <path clip-path="url(#p1517341926)" d="M 193.11316 170.646918 
L 193.556797 173.881612 
L 192.671255 173.879403 
z
" style="stroke:#000000;"/>
    <path clip-path="url(#p1517341926)" d="M 195.165794 180.214026 
L 194.697907 183.261093 
L 195.581046 183.249902 
z
" style="stroke:#000000;"/>
    <path clip-path="url(#p1517341926)" d="M 192.671255 180.414814 
L 193.998178 183.635979 
L 193.11316 183.647717 
z
" style="stroke:#000000;"/>
    <path clip-path="url(#p1517341926)" d="M 193.063163 157.528645 
L 190.366152 154.0272 
L 190.366152 155.589283 
z
" style="stroke:#000000;"/>
    <path clip-path="url(#p1517341926)" d="M 195.296643 157.157196 
L 190.366152 154.0272 
L 194.413166 157.131063 
z
" style="stroke:#000000;"/>
    <path clip-path="url(#p1517341926)" d="M 190.366152 166.52386 
L 195.296643 157.157196 
L 194.413166 157.131063 
z
" style="stroke:#000000;"/>
    <path clip-path="url(#p1517341926)" d="M 196.268294 168.07146 
L 194.697907 171.035037 
L 195.581046 171.04131 
z
" style="stroke:#000000;"/>
    <path clip-path="url(#p1517341926)" d="M 197.023374 161.523053 
L 198.427051 162.45546 
L 197.220305 165.199198 
z
" style="stroke:#000000;"/>
    <path clip-path="url(#p1517341926)" d="M 198.427051 191.838434 
L 197.023374 192.769519 
L 197.220305 189.093559 
z
" style="stroke:#000000;"/>
    <path clip-path="url(#p1517341926)" d="M 193.84452 167.48425 
L 193.998178 170.653743 
L 193.11316 170.646918 
z
" style="stroke:#000000;"/>
    <path clip-path="url(#p1517341926)" d="M 195.581046 183.249902 
L 195.385972 186.235844 
L 196.268294 186.220401 
z
" style="stroke:#000000;"/>
    <path clip-path="url(#p1517341926)" d="M 194.413166 157.131063 
L 190.366152 163.399695 
L 190.366152 166.52386 
z
" style="stroke:#000000;"/>
    <path clip-path="url(#p1517341926)" d="M 197.023374 192.769519 
L 194.857655 189.87091 
L 195.740604 189.850277 
z
" style="stroke:#000000;"/>
    <path clip-path="url(#p1517341926)" d="M 193.11316 183.647717 
L 194.728671 186.794817 
L 193.84452 186.811075 
z
" style="stroke:#000000;"/>
    <path clip-path="url(#p1517341926)" d="M 198.563454 158.773088 
L 198.427051 162.45546 
L 197.023374 161.523053 
z
" style="stroke:#000000;"/>
    <path clip-path="url(#p1517341926)" d="M 198.427051 191.838434 
L 198.563454 195.520934 
L 197.023374 192.769519 
z
" style="stroke:#000000;"/>
    <path clip-path="url(#p1517341926)" d="M 197.220305 165.199198 
L 195.385972 168.060936 
L 196.268294 168.07146 
z
" style="stroke:#000000;"/>
    <path clip-path="url(#p1517341926)" d="M 195.740604 164.441086 
L 196.141949 161.503156 
L 197.023374 161.523053 
z
" style="stroke:#000000;"/>
    <path clip-path="url(#p1517341926)" d="M 194.857655 164.42537 
L 194.728671 167.495593 
L 193.84452 167.48425 
z
" style="stroke:#000000;"/>
    <path clip-path="url(#p1517341926)" d="M 194.282161 180.220873 
L 195.026883 177.145345 
L 194.143085 177.147803 
z
" style="stroke:#000000;"/>
    <path clip-path="url(#p1517341926)" d="M 194.143085 177.147803 
L 195.165794 174.076796 
L 194.282161 174.074865 
z
" style="stroke:#000000;"/>
    <path clip-path="url(#p1517341926)" d="M 196.268294 186.220401 
L 196.339115 189.113118 
L 197.220305 189.093559 
z
" style="stroke:#000000;"/>
    <path clip-path="url(#p1517341926)" d="M 190.366152 163.399695 
L 194.413166 157.131063 
L 193.063163 157.528645 
z
" style="stroke:#000000;"/>
    <path clip-path="url(#p1517341926)" d="M 190.366152 154.0272 
L 193.063163 157.528645 
L 194.413166 157.131063 
z
" style="stroke:#000000;"/>
    <path clip-path="url(#p1517341926)" d="M 194.697907 183.261093 
L 195.165794 180.214026 
L 194.282161 180.220873 
z
" style="stroke:#000000;"/>
    <path clip-path="url(#p1517341926)" d="M 193.84452 186.811075 
L 195.740604 189.850277 
L 194.857655 189.87091 
z
" style="stroke:#000000;"/>
    <path clip-path="url(#p1517341926)" d="M 194.282161 174.074865 
L 195.581046 171.04131 
L 194.697907 171.035037 
z
" style="stroke:#000000;"/>
    <path clip-path="url(#p1517341926)" d="M 198.563454 158.773088 
L 199.875806 159.869839 
L 198.427051 162.45546 
z
" style="stroke:#000000;"/>
    <path clip-path="url(#p1517341926)" d="M 199.875806 194.42542 
L 198.563454 195.520934 
L 198.427051 191.838434 
z
" style="stroke:#000000;"/>
    <path clip-path="url(#p1517341926)" d="M 194.143085 177.147803 
L 192.523441 177.147039 
L 192.671255 180.414814 
z
" style="stroke:#000000;"/>
    <path clip-path="url(#p1517341926)" d="M 192.523441 177.147039 
L 194.143085 177.147803 
L 192.671255 173.879403 
z
" style="stroke:#000000;"/>
    <path clip-path="url(#p1517341926)" d="M 198.563454 195.520934 
L 196.141949 192.794337 
L 197.023374 192.769519 
z
" style="stroke:#000000;"/>
    <path clip-path="url(#p1517341926)" d="M 195.385972 186.235844 
L 195.581046 183.249902 
L 194.697907 183.261093 
z
" style="stroke:#000000;"/>
    <path clip-path="url(#p1517341926)" d="M 198.427051 162.45546 
L 196.339115 165.184561 
L 197.220305 165.199198 
z
" style="stroke:#000000;"/>
    <path clip-path="url(#p1517341926)" d="M 194.282161 180.220873 
L 192.671255 180.414814 
L 193.11316 183.647717 
z
" style="stroke:#000000;"/>
    <path clip-path="url(#p1517341926)" d="M 192.671255 173.879403 
L 194.282161 174.074865 
L 193.11316 170.646918 
z
" style="stroke:#000000;"/>
    <path clip-path="url(#p1517341926)" d="M 194.697907 171.035037 
L 196.268294 168.07146 
L 195.385972 168.060936 
z
" style="stroke:#000000;"/>
    <path clip-path="url(#p1517341926)" d="M 200.344603 156.220814 
L 199.875806 159.869839 
L 198.563454 158.773088 
z
" style="stroke:#000000;"/>
    <path clip-path="url(#p1517341926)" d="M 199.875806 194.42542 
L 200.344603 198.074887 
L 198.563454 195.520934 
z
" style="stroke:#000000;"/>
    <path clip-path="url(#p1517341926)" d="M 196.141949 161.503156 
L 195.740604 164.441086 
L 194.857655 164.42537 
z
" style="stroke:#000000;"/>
    <path clip-path="url(#p1517341926)" d="M 197.220305 189.093559 
L 197.547296 191.861929 
L 198.427051 191.838434 
z
" style="stroke:#000000;"/>
    <path clip-path="url(#p1517341926)" d="M 197.023374 161.523053 
L 197.683861 158.749246 
L 198.563454 158.773088 
z
" style="stroke:#000000;"/>
    <path clip-path="url(#p1517341926)" d="M 194.282161 174.074865 
L 192.671255 173.879403 
L 194.143085 177.147803 
z
" style="stroke:#000000;"/>
    <path clip-path="url(#p1517341926)" d="M 192.671255 180.414814 
L 194.282161 180.220873 
L 194.143085 177.147803 
z
" style="stroke:#000000;"/>
    <path clip-path="url(#p1517341926)" d="M 194.697907 183.261093 
L 193.11316 183.647717 
L 193.84452 186.811075 
z
" style="stroke:#000000;"/>
    <path clip-path="url(#p1517341926)" d="M 193.11316 170.646918 
L 194.697907 171.035037 
L 193.84452 167.48425 
z
" style="stroke:#000000;"/>
    <path clip-path="url(#p1517341926)" d="M 196.339115 189.113118 
L 196.268294 186.220401 
L 195.385972 186.235844 
z
" style="stroke:#000000;"/>
    <path clip-path="url(#p1517341926)" d="M 194.857655 189.87091 
L 197.023374 192.769519 
L 196.141949 192.794337 
z
" style="stroke:#000000;"/>
    <path clip-path="url(#p1517341926)" d="M 193.11316 183.647717 
L 194.697907 183.261093 
L 194.282161 180.220873 
z
" style="stroke:#000000;"/>
    <path clip-path="url(#p1517341926)" d="M 194.697907 171.035037 
L 193.11316 170.646918 
L 194.282161 174.074865 
z
" style="stroke:#000000;"/>
    <path clip-path="url(#p1517341926)" d="M 195.385972 168.060936 
L 197.220305 165.199198 
L 196.339115 165.184561 
z
" style="stroke:#000000;"/>
    <path clip-path="url(#p1517341926)" d="M 200.344603 156.220814 
L 201.551251 157.470509 
L 199.875806 159.869839 
z
" style="stroke:#000000;"/>
    <path clip-path="url(#p1517341926)" d="M 201.551251 196.826329 
L 200.344603 198.074887 
L 199.875806 194.42542 
z
" style="stroke:#000000;"/>
    <path clip-path="url(#p1517341926)" d="M 199.875806 159.869839 
L 197.547296 162.43689 
L 198.427051 162.45546 
z
" style="stroke:#000000;"/>
    <path clip-path="url(#p1517341926)" d="M 193.84452 186.811075 
L 195.385972 186.235844 
L 194.697907 183.261093 
z
" style="stroke:#000000;"/>
    <path clip-path="url(#p1517341926)" d="M 195.385972 168.060936 
L 193.84452 167.48425 
L 194.697907 171.035037 
z
" style="stroke:#000000;"/>
    <path clip-path="url(#p1517341926)" d="M 195.385972 186.235844 
L 193.84452 186.811075 
L 194.857655 189.87091 
z
" style="stroke:#000000;"/>
    <path clip-path="url(#p1517341926)" d="M 193.84452 167.48425 
L 195.385972 168.060936 
L 194.857655 164.42537 
z
" style="stroke:#000000;"/>
    <path clip-path="url(#p1517341926)" d="M 200.344603 198.074887 
L 197.683861 195.549702 
L 198.563454 195.520934 
z
" style="stroke:#000000;"/>
    <path clip-path="url(#p1517341926)" d="M 197.683861 158.749246 
L 197.023374 161.523053 
L 196.141949 161.503156 
z
" style="stroke:#000000;"/>
    <path clip-path="url(#p1517341926)" d="M 197.547296 191.861929 
L 197.220305 189.093559 
L 196.339115 189.113118 
z
" style="stroke:#000000;"/>
    <path clip-path="url(#p1517341926)" d="M 198.427051 191.838434 
L 198.997777 194.452629 
L 199.875806 194.42542 
z
" style="stroke:#000000;"/>
    <path clip-path="url(#p1517341926)" d="M 202.053641 155.470642 
L 200.344603 156.220814 
L 201.346023 155.05781 
z
" style="stroke:#000000;"/>
    <path clip-path="url(#p1517341926)" d="M 200.344603 198.074887 
L 202.053641 198.826669 
L 201.346023 199.238834 
z
" style="stroke:#000000;"/>
    <path clip-path="url(#p1517341926)" d="M 200.344603 156.220814 
L 202.053641 155.470642 
L 201.551251 157.470509 
z
" style="stroke:#000000;"/>
    <path clip-path="url(#p1517341926)" d="M 202.053641 198.826669 
L 200.344603 198.074887 
L 201.551251 196.826329 
z
" style="stroke:#000000;"/>
    <path clip-path="url(#p1517341926)" d="M 198.563454 158.773088 
L 199.467132 156.193303 
L 200.344603 156.220814 
z
" style="stroke:#000000;"/>
    <path clip-path="url(#p1517341926)" d="M 196.339115 165.184561 
L 198.427051 162.45546 
L 197.547296 162.43689 
z
" style="stroke:#000000;"/>
    <path clip-path="url(#p1517341926)" d="M 196.141949 192.794337 
L 198.563454 195.520934 
L 197.683861 195.549702 
z
" style="stroke:#000000;"/>
    <path clip-path="url(#p1517341926)" d="M 194.857655 189.87091 
L 196.339115 189.113118 
L 195.385972 186.235844 
z
" style="stroke:#000000;"/>
    <path clip-path="url(#p1517341926)" d="M 196.339115 165.184561 
L 194.857655 164.42537 
L 195.385972 168.060936 
z
" style="stroke:#000000;"/>
    <path clip-path="url(#p1517341926)" d="M 196.339115 189.113118 
L 194.857655 189.87091 
L 196.141949 192.794337 
z
" style="stroke:#000000;"/>
    <path clip-path="url(#p1517341926)" d="M 194.857655 164.42537 
L 196.339115 165.184561 
L 196.141949 161.503156 
z
" style="stroke:#000000;"/>
    <path clip-path="url(#p1517341926)" d="M 201.551251 157.470509 
L 202.053641 155.470642 
L 202.79714 156.024525 
z
" style="stroke:#000000;"/>
    <path clip-path="url(#p1517341926)" d="M 202.053641 198.826669 
L 201.551251 196.826329 
L 202.79714 198.273486 
z
" style="stroke:#000000;"/>
    <path clip-path="url(#p1517341926)" d="M 201.551251 157.470509 
L 198.997777 159.847559 
L 199.875806 159.869839 
z
" style="stroke:#000000;"/>
    <path clip-path="url(#p1517341926)" d="M 198.997777 194.452629 
L 198.427051 191.838434 
L 197.547296 191.861929 
z
" style="stroke:#000000;"/>
    <path clip-path="url(#p1517341926)" d="M 201.346023 199.238834 
L 199.467132 198.107327 
L 200.344603 198.074887 
z
" style="stroke:#000000;"/>
    <path clip-path="url(#p1517341926)" d="M 199.467132 156.193303 
L 198.563454 158.773088 
L 197.683861 158.749246 
z
" style="stroke:#000000;"/>
    <path clip-path="url(#p1517341926)" d="M 199.875806 194.42542 
L 200.675218 196.85699 
L 201.551251 196.826329 
z
" style="stroke:#000000;"/>
    <path clip-path="url(#p1517341926)" d="M 200.344603 156.220814 
L 200.469746 155.028626 
L 201.346023 155.05781 
z
" style="stroke:#000000;"/>
    <path clip-path="url(#p1517341926)" d="M 196.141949 192.794337 
L 197.547296 191.861929 
L 196.339115 189.113118 
z
" style="stroke:#000000;"/>
    <path clip-path="url(#p1517341926)" d="M 197.547296 162.43689 
L 196.141949 161.503156 
L 196.339115 165.184561 
z
" style="stroke:#000000;"/>
    <path clip-path="url(#p1517341926)" d="M 197.547296 162.43689 
L 199.875806 159.869839 
L 198.997777 159.847559 
z
" style="stroke:#000000;"/>
    <path clip-path="url(#p1517341926)" d="M 197.683861 195.549702 
L 197.547296 191.861929 
L 196.141949 192.794337 
z
" style="stroke:#000000;"/>
    <path clip-path="url(#p1517341926)" d="M 197.547296 162.43689 
L 197.683861 158.749246 
L 196.141949 161.503156 
z
" style="stroke:#000000;"/>
    <path clip-path="url(#p1517341926)" d="M 197.683861 195.549702 
L 200.344603 198.074887 
L 199.467132 198.107327 
z
" style="stroke:#000000;"/>
    <path clip-path="url(#p1517341926)" d="M 200.469746 155.028626 
L 202.053641 155.470642 
L 201.346023 155.05781 
z
" style="stroke:#000000;"/>
    <path clip-path="url(#p1517341926)" d="M 201.178209 198.860201 
L 201.346023 199.238834 
L 202.053641 198.826669 
z
" style="stroke:#000000;"/>
    <path clip-path="url(#p1517341926)" d="M 200.675218 196.85699 
L 202.79714 198.273486 
L 201.551251 196.826329 
z
" style="stroke:#000000;"/>
    <path clip-path="url(#p1517341926)" d="M 200.675218 196.85699 
L 199.875806 194.42542 
L 198.997777 194.452629 
z
" style="stroke:#000000;"/>
    <path clip-path="url(#p1517341926)" d="M 201.178209 155.442044 
L 202.79714 156.024525 
L 202.053641 155.470642 
z
" style="stroke:#000000;"/>
    <path clip-path="url(#p1517341926)" d="M 201.922594 155.996715 
L 201.551251 157.470509 
L 202.79714 156.024525 
z
" style="stroke:#000000;"/>
    <path clip-path="url(#p1517341926)" d="M 200.469746 155.028626 
L 200.344603 156.220814 
L 199.467132 156.193303 
z
" style="stroke:#000000;"/>
    <path clip-path="url(#p1517341926)" d="M 197.683861 195.549702 
L 198.997777 194.452629 
L 197.547296 191.861929 
z
" style="stroke:#000000;"/>
    <path clip-path="url(#p1517341926)" d="M 198.997777 159.847559 
L 197.683861 158.749246 
L 197.547296 162.43689 
z
" style="stroke:#000000;"/>
    <path clip-path="url(#p1517341926)" d="M 201.922594 198.306233 
L 202.053641 198.826669 
L 202.79714 198.273486 
z
" style="stroke:#000000;"/>
    <path clip-path="url(#p1517341926)" d="M 198.997777 159.847559 
L 201.551251 157.470509 
L 200.675218 157.44478 
z
" style="stroke:#000000;"/>
    <path clip-path="url(#p1517341926)" d="M 199.467132 198.107327 
L 201.346023 199.238834 
L 200.469746 199.272951 
z
" style="stroke:#000000;"/>
    <path clip-path="url(#p1517341926)" d="M 199.467132 198.107327 
L 198.997777 194.452629 
L 197.683861 195.549702 
z
" style="stroke:#000000;"/>
    <path clip-path="url(#p1517341926)" d="M 198.997777 159.847559 
L 199.467132 156.193303 
L 197.683861 158.749246 
z
" style="stroke:#000000;"/>
    <path clip-path="url(#p1517341926)" d="M 201.346023 199.238834 
L 201.178209 198.860201 
L 200.469746 199.272951 
z
" style="stroke:#000000;"/>
    <path clip-path="url(#p1517341926)" d="M 202.053641 155.470642 
L 200.469746 155.028626 
L 201.178209 155.442044 
z
" style="stroke:#000000;"/>
    <path clip-path="url(#p1517341926)" d="M 201.551251 157.470509 
L 201.922594 155.996715 
L 200.675218 157.44478 
z
" style="stroke:#000000;"/>
    <path clip-path="url(#p1517341926)" d="M 202.053641 198.826669 
L 201.922594 198.306233 
L 201.178209 198.860201 
z
" style="stroke:#000000;"/>
    <path clip-path="url(#p1517341926)" d="M 199.467132 198.107327 
L 200.675218 196.85699 
L 198.997777 194.452629 
z
" style="stroke:#000000;"/>
    <path clip-path="url(#p1517341926)" d="M 200.675218 157.44478 
L 199.467132 156.193303 
L 198.997777 159.847559 
z
" style="stroke:#000000;"/>
    <path clip-path="url(#p1517341926)" d="M 202.79714 198.273486 
L 200.675218 196.85699 
L 201.922594 198.306233 
z
" style="stroke:#000000;"/>
    <path clip-path="url(#p1517341926)" d="M 202.79714 156.024525 
L 201.178209 155.442044 
L 201.922594 155.996715 
z
" style="stroke:#000000;"/>
    <path clip-path="url(#p1517341926)" d="M 201.178209 198.860201 
L 199.467132 198.107327 
L 200.469746 199.272951 
z
" style="stroke:#000000;"/>
    <path clip-path="url(#p1517341926)" d="M 199.467132 156.193303 
L 201.178209 155.442044 
L 200.469746 155.028626 
z
" style="stroke:#000000;"/>
    <path clip-path="url(#p1517341926)" d="M 199.467132 198.107327 
L 201.178209 198.860201 
L 200.675218 196.85699 
z
" style="stroke:#000000;"/>
    <path clip-path="url(#p1517341926)" d="M 201.178209 155.442044 
L 199.467132 156.193303 
L 200.675218 157.44478 
z
" style="stroke:#000000;"/>
    <path clip-path="url(#p1517341926)" d="M 200.675218 196.85699 
L 201.178209 198.860201 
L 201.922594 198.306233 
z
" style="stroke:#000000;"/>
    <path clip-path="url(#p1517341926)" d="M 201.178209 155.442044 
L 200.675218 157.44478 
L 201.922594 155.996715 
z
" style="stroke:#000000;"/>
   </g>
  </g>
 </g>
 <defs>
  <clipPath id="p1517341926">
   <rect height="271.8" width="279" x="45" y="43.2"/>
  </clipPath>
 </defs>
</svg>
