<?xml version="1.0" encoding="utf-8" standalone="no"?>
<!DOCTYPE svg PUBLIC "-//W3C//DTD SVG 1.1//EN"
  "http://www.w3.org/Graphics/SVG/1.1/DTD/svg11.dtd">
<!-- Created with matplotlib (https://matplotlib.org/) -->
<svg height="360pt" version="1.1" viewBox="0 0 360 360" width="360pt" xmlns="http://www.w3.org/2000/svg" xmlns:xlink="http://www.w3.org/1999/xlink">
 <defs>
  <style type="text/css">
*{stroke-linecap:butt;stroke-linejoin:round;}
  </style>
 </defs>
 <g id="figure_1">
  <g id="patch_1">
   <path d="M 0 360 
L 360 360 
L 360 0 
L 0 0 
z
" style="fill:#ffffff;"/>
  </g>
  <g id="patch_2">
   <path d="M 45 315 
L 324 315 
L 324 43.2 
L 45 43.2 
z
" style="fill:#ffffff;"/>
  </g>
  <g id="axes_1">
   <g id="Poly3DCollection_1">
    <path clip-path="url(#pba6a0d1690)" d="M 186.661071 155.62996 
L 186.929399 157.605912 
L 186.264407 156.192119 
z
" style="stroke:#000000;"/>
    <path clip-path="url(#pba6a0d1690)" d="M 186.929399 196.664966 
L 186.661071 198.639863 
L 186.264407 198.076145 
z
" style="stroke:#000000;"/>
    <path clip-path="url(#pba6a0d1690)" d="M 184.255456 156.177337 
L 186.661071 155.62996 
L 186.264407 156.192119 
z
" style="stroke:#000000;"/>
    <path clip-path="url(#pba6a0d1690)" d="M 184.255456 198.093551 
L 186.929399 196.664966 
L 186.264407 198.076145 
z
" style="stroke:#000000;"/>
    <path clip-path="url(#pba6a0d1690)" d="M 184.651507 198.65771 
L 186.264407 198.076145 
L 186.661071 198.639863 
z
" style="stroke:#000000;"/>
    <path clip-path="url(#pba6a0d1690)" d="M 186.264407 198.076145 
L 184.651507 198.65771 
L 184.255456 198.093551 
z
" style="stroke:#000000;"/>
    <path clip-path="url(#pba6a0d1690)" d="M 184.919419 157.592206 
L 186.264407 156.192119 
L 186.929399 157.605912 
z
" style="stroke:#000000;"/>
    <path clip-path="url(#pba6a0d1690)" d="M 186.264407 156.192119 
L 184.919419 157.592206 
L 184.255456 156.177337 
z
" style="stroke:#000000;"/>
    <path clip-path="url(#pba6a0d1690)" d="M 186.661071 155.62996 
L 184.255456 156.177337 
L 184.651507 155.614739 
z
" style="stroke:#000000;"/>
    <path clip-path="url(#pba6a0d1690)" d="M 184.651507 155.614739 
L 187.03908 155.20772 
L 186.661071 155.62996 
z
" style="stroke:#000000;"/>
    <path clip-path="url(#pba6a0d1690)" d="M 186.661071 155.62996 
L 187.574849 156.345186 
L 186.929399 157.605912 
z
" style="stroke:#000000;"/>
    <path clip-path="url(#pba6a0d1690)" d="M 187.574849 197.928228 
L 186.661071 198.639863 
L 186.929399 196.664966 
z
" style="stroke:#000000;"/>
    <path clip-path="url(#pba6a0d1690)" d="M 187.574849 156.345186 
L 186.661071 155.62996 
L 187.03908 155.20772 
z
" style="stroke:#000000;"/>
    <path clip-path="url(#pba6a0d1690)" d="M 186.661071 198.639863 
L 187.574849 197.928228 
L 187.03908 199.063589 
z
" style="stroke:#000000;"/>
    <path clip-path="url(#pba6a0d1690)" d="M 185.028931 199.081769 
L 186.661071 198.639863 
L 187.03908 199.063589 
z
" style="stroke:#000000;"/>
    <path clip-path="url(#pba6a0d1690)" d="M 186.929399 196.664966 
L 184.255456 198.093551 
L 184.919419 196.6813 
z
" style="stroke:#000000;"/>
    <path clip-path="url(#pba6a0d1690)" d="M 186.661071 198.639863 
L 185.028931 199.081769 
L 184.651507 198.65771 
z
" style="stroke:#000000;"/>
    <path clip-path="url(#pba6a0d1690)" d="M 184.651507 198.65771 
L 184.919419 196.6813 
L 184.255456 198.093551 
z
" style="stroke:#000000;"/>
    <path clip-path="url(#pba6a0d1690)" d="M 184.919419 157.592206 
L 184.651507 155.614739 
L 184.255456 156.177337 
z
" style="stroke:#000000;"/>
    <path clip-path="url(#pba6a0d1690)" d="M 187.03908 155.20772 
L 184.651507 155.614739 
L 185.028931 155.192167 
z
" style="stroke:#000000;"/>
    <path clip-path="url(#pba6a0d1690)" d="M 187.574849 197.928228 
L 185.028931 199.081769 
L 187.03908 199.063589 
z
" style="stroke:#000000;"/>
    <path clip-path="url(#pba6a0d1690)" d="M 187.574849 156.345186 
L 187.825988 159.964136 
L 186.929399 157.605912 
z
" style="stroke:#000000;"/>
    <path clip-path="url(#pba6a0d1690)" d="M 187.825988 194.310265 
L 187.574849 197.928228 
L 186.929399 196.664966 
z
" style="stroke:#000000;"/>
    <path clip-path="url(#pba6a0d1690)" d="M 187.825988 159.964136 
L 184.919419 157.592206 
L 186.929399 157.605912 
z
" style="stroke:#000000;"/>
    <path clip-path="url(#pba6a0d1690)" d="M 187.03908 155.20772 
L 185.563873 156.3305 
L 187.574849 156.345186 
z
" style="stroke:#000000;"/>
    <path clip-path="url(#pba6a0d1690)" d="M 185.563873 156.3305 
L 187.03908 155.20772 
L 185.028931 155.192167 
z
" style="stroke:#000000;"/>
    <path clip-path="url(#pba6a0d1690)" d="M 185.814624 194.324802 
L 186.929399 196.664966 
L 184.919419 196.6813 
z
" style="stroke:#000000;"/>
    <path clip-path="url(#pba6a0d1690)" d="M 184.651507 198.65771 
L 185.563873 197.945546 
L 184.919419 196.6813 
z
" style="stroke:#000000;"/>
    <path clip-path="url(#pba6a0d1690)" d="M 185.563873 156.3305 
L 184.651507 155.614739 
L 184.919419 157.592206 
z
" style="stroke:#000000;"/>
    <path clip-path="url(#pba6a0d1690)" d="M 186.929399 196.664966 
L 185.814624 194.324802 
L 187.825988 194.310265 
z
" style="stroke:#000000;"/>
    <path clip-path="url(#pba6a0d1690)" d="M 185.563873 197.945546 
L 184.651507 198.65771 
L 185.028931 199.081769 
z
" style="stroke:#000000;"/>
    <path clip-path="url(#pba6a0d1690)" d="M 184.651507 155.614739 
L 185.563873 156.3305 
L 185.028931 155.192167 
z
" style="stroke:#000000;"/>
    <path clip-path="url(#pba6a0d1690)" d="M 185.028931 199.081769 
L 187.574849 197.928228 
L 185.563873 197.945546 
z
" style="stroke:#000000;"/>
    <path clip-path="url(#pba6a0d1690)" d="M 184.919419 157.592206 
L 187.825988 159.964136 
L 185.814624 159.952232 
z
" style="stroke:#000000;"/>
    <path clip-path="url(#pba6a0d1690)" d="M 188.530143 158.854685 
L 187.825988 159.964136 
L 187.574849 156.345186 
z
" style="stroke:#000000;"/>
    <path clip-path="url(#pba6a0d1690)" d="M 187.825988 194.310265 
L 188.530143 195.422483 
L 187.574849 197.928228 
z
" style="stroke:#000000;"/>
    <path clip-path="url(#pba6a0d1690)" d="M 185.563873 197.945546 
L 185.814624 194.324802 
L 184.919419 196.6813 
z
" style="stroke:#000000;"/>
    <path clip-path="url(#pba6a0d1690)" d="M 185.814624 159.952232 
L 185.563873 156.3305 
L 184.919419 157.592206 
z
" style="stroke:#000000;"/>
    <path clip-path="url(#pba6a0d1690)" d="M 188.530143 195.422483 
L 185.563873 197.945546 
L 187.574849 197.928228 
z
" style="stroke:#000000;"/>
    <path clip-path="url(#pba6a0d1690)" d="M 188.603426 162.517446 
L 185.814624 159.952232 
L 187.825988 159.964136 
z
" style="stroke:#000000;"/>
    <path clip-path="url(#pba6a0d1690)" d="M 188.530143 158.854685 
L 188.603426 162.517446 
L 187.825988 159.964136 
z
" style="stroke:#000000;"/>
    <path clip-path="url(#pba6a0d1690)" d="M 188.603426 191.76001 
L 188.530143 195.422483 
L 187.825988 194.310265 
z
" style="stroke:#000000;"/>
    <path clip-path="url(#pba6a0d1690)" d="M 186.517694 158.841916 
L 187.574849 156.345186 
L 185.563873 156.3305 
z
" style="stroke:#000000;"/>
    <path clip-path="url(#pba6a0d1690)" d="M 187.574849 156.345186 
L 186.517694 158.841916 
L 188.530143 158.854685 
z
" style="stroke:#000000;"/>
    <path clip-path="url(#pba6a0d1690)" d="M 186.590863 191.772596 
L 187.825988 194.310265 
L 185.814624 194.324802 
z
" style="stroke:#000000;"/>
    <path clip-path="url(#pba6a0d1690)" d="M 187.825988 194.310265 
L 186.590863 191.772596 
L 188.603426 191.76001 
z
" style="stroke:#000000;"/>
    <path clip-path="url(#pba6a0d1690)" d="M 186.517694 195.43789 
L 185.814624 194.324802 
L 185.563873 197.945546 
z
" style="stroke:#000000;"/>
    <path clip-path="url(#pba6a0d1690)" d="M 185.814624 159.952232 
L 186.517694 158.841916 
L 185.563873 156.3305 
z
" style="stroke:#000000;"/>
    <path clip-path="url(#pba6a0d1690)" d="M 185.563873 197.945546 
L 188.530143 195.422483 
L 186.517694 195.43789 
z
" style="stroke:#000000;"/>
    <path clip-path="url(#pba6a0d1690)" d="M 185.814624 159.952232 
L 188.603426 162.517446 
L 186.590863 162.507499 
z
" style="stroke:#000000;"/>
    <path clip-path="url(#pba6a0d1690)" d="M 189.35859 161.572172 
L 188.603426 162.517446 
L 188.530143 158.854685 
z
" style="stroke:#000000;"/>
    <path clip-path="url(#pba6a0d1690)" d="M 188.603426 191.76001 
L 189.35859 192.708253 
L 188.530143 195.422483 
z
" style="stroke:#000000;"/>
    <path clip-path="url(#pba6a0d1690)" d="M 186.517694 195.43789 
L 186.590863 191.772596 
L 185.814624 194.324802 
z
" style="stroke:#000000;"/>
    <path clip-path="url(#pba6a0d1690)" d="M 186.590863 162.507499 
L 186.517694 158.841916 
L 185.814624 159.952232 
z
" style="stroke:#000000;"/>
    <path clip-path="url(#pba6a0d1690)" d="M 189.35859 192.708253 
L 186.517694 195.43789 
L 188.530143 195.422483 
z
" style="stroke:#000000;"/>
    <path clip-path="url(#pba6a0d1690)" d="M 189.252529 165.23712 
L 186.590863 162.507499 
L 188.603426 162.517446 
z
" style="stroke:#000000;"/>
    <path clip-path="url(#pba6a0d1690)" d="M 188.603426 162.517446 
L 189.35859 161.572172 
L 189.252529 165.23712 
z
" style="stroke:#000000;"/>
    <path clip-path="url(#pba6a0d1690)" d="M 189.35859 192.708253 
L 188.603426 191.76001 
L 189.252529 189.042888 
z
" style="stroke:#000000;"/>
    <path clip-path="url(#pba6a0d1690)" d="M 187.344863 161.561486 
L 188.530143 158.854685 
L 186.517694 158.841916 
z
" style="stroke:#000000;"/>
    <path clip-path="url(#pba6a0d1690)" d="M 188.603426 191.76001 
L 187.238966 189.053387 
L 189.252529 189.042888 
z
" style="stroke:#000000;"/>
    <path clip-path="url(#pba6a0d1690)" d="M 187.238966 189.053387 
L 188.603426 191.76001 
L 186.590863 191.772596 
z
" style="stroke:#000000;"/>
    <path clip-path="url(#pba6a0d1690)" d="M 188.530143 158.854685 
L 187.344863 161.561486 
L 189.35859 161.572172 
z
" style="stroke:#000000;"/>
    <path clip-path="url(#pba6a0d1690)" d="M 186.590863 162.507499 
L 189.252529 165.23712 
L 187.238966 165.229262 
z
" style="stroke:#000000;"/>
    <path clip-path="url(#pba6a0d1690)" d="M 187.344863 192.721581 
L 186.590863 191.772596 
L 186.517694 195.43789 
z
" style="stroke:#000000;"/>
    <path clip-path="url(#pba6a0d1690)" d="M 186.590863 162.507499 
L 187.344863 161.561486 
L 186.517694 158.841916 
z
" style="stroke:#000000;"/>
    <path clip-path="url(#pba6a0d1690)" d="M 186.517694 195.43789 
L 189.35859 192.708253 
L 187.344863 192.721581 
z
" style="stroke:#000000;"/>
    <path clip-path="url(#pba6a0d1690)" d="M 190.050362 164.467358 
L 189.252529 165.23712 
L 189.35859 161.572172 
z
" style="stroke:#000000;"/>
    <path clip-path="url(#pba6a0d1690)" d="M 189.252529 189.042888 
L 190.050362 189.815786 
L 189.35859 192.708253 
z
" style="stroke:#000000;"/>
    <path clip-path="url(#pba6a0d1690)" d="M 189.765598 168.092505 
L 187.238966 165.229262 
L 189.252529 165.23712 
z
" style="stroke:#000000;"/>
    <path clip-path="url(#pba6a0d1690)" d="M 189.252529 165.23712 
L 190.050362 164.467358 
L 189.765598 168.092505 
z
" style="stroke:#000000;"/>
    <path clip-path="url(#pba6a0d1690)" d="M 190.050362 189.815786 
L 189.252529 189.042888 
L 189.765598 186.189519 
z
" style="stroke:#000000;"/>
    <path clip-path="url(#pba6a0d1690)" d="M 186.590863 191.772596 
L 187.344863 192.721581 
L 187.238966 189.053387 
z
" style="stroke:#000000;"/>
    <path clip-path="url(#pba6a0d1690)" d="M 187.344863 161.561486 
L 186.590863 162.507499 
L 187.238966 165.229262 
z
" style="stroke:#000000;"/>
    <path clip-path="url(#pba6a0d1690)" d="M 190.050362 189.815786 
L 187.344863 192.721581 
L 189.35859 192.708253 
z
" style="stroke:#000000;"/>
    <path clip-path="url(#pba6a0d1690)" d="M 189.252529 189.042888 
L 187.751244 186.197823 
L 189.765598 186.189519 
z
" style="stroke:#000000;"/>
    <path clip-path="url(#pba6a0d1690)" d="M 187.751244 186.197823 
L 189.252529 189.042888 
L 187.238966 189.053387 
z
" style="stroke:#000000;"/>
    <path clip-path="url(#pba6a0d1690)" d="M 188.03557 164.458899 
L 189.35859 161.572172 
L 187.344863 161.561486 
z
" style="stroke:#000000;"/>
    <path clip-path="url(#pba6a0d1690)" d="M 187.238966 165.229262 
L 189.765598 168.092505 
L 187.751244 168.086846 
z
" style="stroke:#000000;"/>
    <path clip-path="url(#pba6a0d1690)" d="M 189.35859 161.572172 
L 188.03557 164.458899 
L 190.050362 164.467358 
z
" style="stroke:#000000;"/>
    <path clip-path="url(#pba6a0d1690)" d="M 190.136519 171.051175 
L 187.751244 168.086846 
L 189.765598 168.092505 
z
" style="stroke:#000000;"/>
    <path clip-path="url(#pba6a0d1690)" d="M 190.597196 167.507404 
L 189.765598 168.092505 
L 190.050362 164.467358 
z
" style="stroke:#000000;"/>
    <path clip-path="url(#pba6a0d1690)" d="M 189.765598 186.189519 
L 190.597196 186.777888 
L 190.050362 189.815786 
z
" style="stroke:#000000;"/>
    <path clip-path="url(#pba6a0d1690)" d="M 189.765598 168.092505 
L 190.597196 167.507404 
L 190.136519 171.051175 
z
" style="stroke:#000000;"/>
    <path clip-path="url(#pba6a0d1690)" d="M 190.597196 186.777888 
L 189.765598 186.189519 
L 190.136519 183.232307 
z
" style="stroke:#000000;"/>
    <path clip-path="url(#pba6a0d1690)" d="M 188.03557 189.826892 
L 187.238966 189.053387 
L 187.344863 192.721581 
z
" style="stroke:#000000;"/>
    <path clip-path="url(#pba6a0d1690)" d="M 187.238966 165.229262 
L 188.03557 164.458899 
L 187.344863 161.561486 
z
" style="stroke:#000000;"/>
    <path clip-path="url(#pba6a0d1690)" d="M 189.765598 186.189519 
L 188.121595 183.238332 
L 190.136519 183.232307 
z
" style="stroke:#000000;"/>
    <path clip-path="url(#pba6a0d1690)" d="M 187.344863 192.721581 
L 190.050362 189.815786 
L 188.03557 189.826892 
z
" style="stroke:#000000;"/>
    <path clip-path="url(#pba6a0d1690)" d="M 188.121595 183.238332 
L 189.765598 186.189519 
L 187.751244 186.197823 
z
" style="stroke:#000000;"/>
    <path clip-path="url(#pba6a0d1690)" d="M 187.238966 189.053387 
L 188.03557 189.826892 
L 187.751244 186.197823 
z
" style="stroke:#000000;"/>
    <path clip-path="url(#pba6a0d1690)" d="M 188.03557 164.458899 
L 187.238966 165.229262 
L 187.751244 168.086846 
z
" style="stroke:#000000;"/>
    <path clip-path="url(#pba6a0d1690)" d="M 190.36086 174.079333 
L 188.121595 171.047797 
L 190.136519 171.051175 
z
" style="stroke:#000000;"/>
    <path clip-path="url(#pba6a0d1690)" d="M 190.597196 186.777888 
L 188.03557 189.826892 
L 190.050362 189.815786 
z
" style="stroke:#000000;"/>
    <path clip-path="url(#pba6a0d1690)" d="M 187.751244 168.086846 
L 190.136519 171.051175 
L 188.121595 171.047797 
z
" style="stroke:#000000;"/>
    <path clip-path="url(#pba6a0d1690)" d="M 190.136519 171.051175 
L 190.99256 170.657737 
L 190.36086 174.079333 
z
" style="stroke:#000000;"/>
    <path clip-path="url(#pba6a0d1690)" d="M 190.99256 183.629109 
L 190.136519 183.232307 
L 190.36086 180.205031 
z
" style="stroke:#000000;"/>
    <path clip-path="url(#pba6a0d1690)" d="M 190.136519 183.232307 
L 188.345591 180.20872 
L 190.36086 180.205031 
z
" style="stroke:#000000;"/>
    <path clip-path="url(#pba6a0d1690)" d="M 190.99256 170.657737 
L 190.136519 171.051175 
L 190.597196 167.507404 
z
" style="stroke:#000000;"/>
    <path clip-path="url(#pba6a0d1690)" d="M 190.136519 183.232307 
L 190.99256 183.629109 
L 190.597196 186.777888 
z
" style="stroke:#000000;"/>
    <path clip-path="url(#pba6a0d1690)" d="M 190.435944 177.142329 
L 188.345591 174.078292 
L 190.36086 174.079333 
z
" style="stroke:#000000;"/>
    <path clip-path="url(#pba6a0d1690)" d="M 190.36086 180.205031 
L 188.420559 177.143654 
L 190.435944 177.142329 
z
" style="stroke:#000000;"/>
    <path clip-path="url(#pba6a0d1690)" d="M 190.050362 164.467358 
L 188.581563 167.501288 
L 190.597196 167.507404 
z
" style="stroke:#000000;"/>
    <path clip-path="url(#pba6a0d1690)" d="M 188.345591 180.20872 
L 190.136519 183.232307 
L 188.121595 183.238332 
z
" style="stroke:#000000;"/>
    <path clip-path="url(#pba6a0d1690)" d="M 191.231698 180.405491 
L 190.36086 180.205031 
L 190.435944 177.142329 
z
" style="stroke:#000000;"/>
    <path clip-path="url(#pba6a0d1690)" d="M 190.36086 174.079333 
L 191.231698 173.882296 
L 190.435944 177.142329 
z
" style="stroke:#000000;"/>
    <path clip-path="url(#pba6a0d1690)" d="M 188.581563 167.501288 
L 190.050362 164.467358 
L 188.03557 164.458899 
z
" style="stroke:#000000;"/>
    <path clip-path="url(#pba6a0d1690)" d="M 188.121595 171.047797 
L 190.36086 174.079333 
L 188.345591 174.078292 
z
" style="stroke:#000000;"/>
    <path clip-path="url(#pba6a0d1690)" d="M 188.581563 186.786655 
L 187.751244 186.197823 
L 188.03557 189.826892 
z
" style="stroke:#000000;"/>
    <path clip-path="url(#pba6a0d1690)" d="M 187.751244 168.086846 
L 188.581563 167.501288 
L 188.03557 164.458899 
z
" style="stroke:#000000;"/>
    <path clip-path="url(#pba6a0d1690)" d="M 188.420559 177.143654 
L 190.36086 180.205031 
L 188.345591 180.20872 
z
" style="stroke:#000000;"/>
    <path clip-path="url(#pba6a0d1690)" d="M 187.751244 186.197823 
L 188.581563 186.786655 
L 188.121595 183.238332 
z
" style="stroke:#000000;"/>
    <path clip-path="url(#pba6a0d1690)" d="M 188.581563 167.501288 
L 187.751244 168.086846 
L 188.121595 171.047797 
z
" style="stroke:#000000;"/>
    <path clip-path="url(#pba6a0d1690)" d="M 188.345591 174.078292 
L 190.435944 177.142329 
L 188.420559 177.143654 
z
" style="stroke:#000000;"/>
    <path clip-path="url(#pba6a0d1690)" d="M 191.231698 173.882296 
L 190.36086 174.079333 
L 190.99256 170.657737 
z
" style="stroke:#000000;"/>
    <path clip-path="url(#pba6a0d1690)" d="M 190.36086 180.205031 
L 191.231698 180.405491 
L 190.99256 183.629109 
z
" style="stroke:#000000;"/>
    <path clip-path="url(#pba6a0d1690)" d="M 188.03557 189.826892 
L 190.597196 186.777888 
L 188.581563 186.786655 
z
" style="stroke:#000000;"/>
    <path clip-path="url(#pba6a0d1690)" d="M 190.99256 183.629109 
L 188.581563 186.786655 
L 190.597196 186.777888 
z
" style="stroke:#000000;"/>
    <path clip-path="url(#pba6a0d1690)" d="M 191.31173 177.14405 
L 190.435944 177.142329 
L 191.231698 173.882296 
z
" style="stroke:#000000;"/>
    <path clip-path="url(#pba6a0d1690)" d="M 190.435944 177.142329 
L 191.31173 177.14405 
L 191.231698 180.405491 
z
" style="stroke:#000000;"/>
    <path clip-path="url(#pba6a0d1690)" d="M 190.597196 167.507404 
L 188.976319 170.654052 
L 190.99256 170.657737 
z
" style="stroke:#000000;"/>
    <path clip-path="url(#pba6a0d1690)" d="M 188.121595 183.238332 
L 188.976319 183.635447 
L 188.345591 180.20872 
z
" style="stroke:#000000;"/>
    <path clip-path="url(#pba6a0d1690)" d="M 188.976319 170.654052 
L 188.121595 171.047797 
L 188.345591 174.078292 
z
" style="stroke:#000000;"/>
    <path clip-path="url(#pba6a0d1690)" d="M 188.976319 170.654052 
L 190.597196 167.507404 
L 188.581563 167.501288 
z
" style="stroke:#000000;"/>
    <path clip-path="url(#pba6a0d1690)" d="M 188.27499 157.17958 
L 192.482183 154.023097 
L 190.290151 157.193658 
z
" style="stroke:#000000;"/>
    <path clip-path="url(#pba6a0d1690)" d="M 192.482183 166.522153 
L 188.27499 157.17958 
L 190.290151 157.193658 
z
" style="stroke:#000000;"/>
    <path clip-path="url(#pba6a0d1690)" d="M 188.976319 183.635447 
L 188.121595 183.238332 
L 188.581563 186.786655 
z
" style="stroke:#000000;"/>
    <path clip-path="url(#pba6a0d1690)" d="M 188.121595 171.047797 
L 188.976319 170.654052 
L 188.581563 167.501288 
z
" style="stroke:#000000;"/>
    <path clip-path="url(#pba6a0d1690)" d="M 192.482183 154.023097 
L 191.019607 157.56836 
L 190.290151 157.193658 
z
" style="stroke:#000000;"/>
    <path clip-path="url(#pba6a0d1690)" d="M 192.482183 163.397389 
L 190.290151 157.193658 
L 191.019607 157.56836 
z
" style="stroke:#000000;"/>
    <path clip-path="url(#pba6a0d1690)" d="M 191.231698 180.405491 
L 188.976319 183.635447 
L 190.99256 183.629109 
z
" style="stroke:#000000;"/>
    <path clip-path="url(#pba6a0d1690)" d="M 188.581563 186.786655 
L 190.99256 183.629109 
L 188.976319 183.635447 
z
" style="stroke:#000000;"/>
    <path clip-path="url(#pba6a0d1690)" d="M 189.21509 173.881102 
L 188.345591 174.078292 
L 188.420559 177.143654 
z
" style="stroke:#000000;"/>
    <path clip-path="url(#pba6a0d1690)" d="M 188.345591 180.20872 
L 189.21509 180.409338 
L 188.420559 177.143654 
z
" style="stroke:#000000;"/>
    <path clip-path="url(#pba6a0d1690)" d="M 190.99256 170.657737 
L 189.21509 173.881102 
L 191.231698 173.882296 
z
" style="stroke:#000000;"/>
    <path clip-path="url(#pba6a0d1690)" d="M 191.31173 177.14405 
L 189.21509 180.409338 
L 191.231698 180.405491 
z
" style="stroke:#000000;"/>
    <path clip-path="url(#pba6a0d1690)" d="M 191.231698 173.882296 
L 189.294999 177.145378 
L 191.31173 177.14405 
z
" style="stroke:#000000;"/>
    <path clip-path="url(#pba6a0d1690)" d="M 189.21509 173.881102 
L 190.99256 170.657737 
L 188.976319 170.654052 
z
" style="stroke:#000000;"/>
    <path clip-path="url(#pba6a0d1690)" d="M 189.21509 180.409338 
L 188.345591 180.20872 
L 188.976319 183.635447 
z
" style="stroke:#000000;"/>
    <path clip-path="url(#pba6a0d1690)" d="M 188.345591 174.078292 
L 189.21509 173.881102 
L 188.976319 170.654052 
z
" style="stroke:#000000;"/>
    <path clip-path="url(#pba6a0d1690)" d="M 188.976319 183.635447 
L 191.231698 180.405491 
L 189.21509 180.409338 
z
" style="stroke:#000000;"/>
    <path clip-path="url(#pba6a0d1690)" d="M 189.294999 177.145378 
L 188.420559 177.143654 
L 189.21509 180.409338 
z
" style="stroke:#000000;"/>
    <path clip-path="url(#pba6a0d1690)" d="M 188.420559 177.143654 
L 189.294999 177.145378 
L 189.21509 173.881102 
z
" style="stroke:#000000;"/>
    <path clip-path="url(#pba6a0d1690)" d="M 189.294999 177.145378 
L 191.231698 173.882296 
L 189.21509 173.881102 
z
" style="stroke:#000000;"/>
    <path clip-path="url(#pba6a0d1690)" d="M 189.21509 180.409338 
L 191.31173 177.14405 
L 189.294999 177.145378 
z
" style="stroke:#000000;"/>
    <path clip-path="url(#pba6a0d1690)" d="M 192.482183 163.397389 
L 192.482183 166.522153 
L 190.290151 157.193658 
z
" style="stroke:#000000;"/>
    <path clip-path="url(#pba6a0d1690)" d="M 188.27499 157.17958 
L 190.463653 163.388078 
L 189.003324 157.554561 
z
" style="stroke:#000000;"/>
    <path clip-path="url(#pba6a0d1690)" d="M 189.003324 157.554561 
L 190.463653 154.00653 
L 188.27499 157.17958 
z
" style="stroke:#000000;"/>
    <path clip-path="url(#pba6a0d1690)" d="M 191.019607 157.56836 
L 190.463653 155.570121 
L 189.003324 157.554561 
z
" style="stroke:#000000;"/>
    <path clip-path="url(#pba6a0d1690)" d="M 190.463653 163.388078 
L 191.019607 157.56836 
L 189.003324 157.554561 
z
" style="stroke:#000000;"/>
    <path clip-path="url(#pba6a0d1690)" d="M 192.482183 154.023097 
L 192.482183 155.585479 
L 191.019607 157.56836 
z
" style="stroke:#000000;"/>
    <path clip-path="url(#pba6a0d1690)" d="M 192.482183 154.023097 
L 188.27499 157.17958 
L 190.463653 154.00653 
z
" style="stroke:#000000;"/>
    <path clip-path="url(#pba6a0d1690)" d="M 188.27499 157.17958 
L 192.482183 166.522153 
L 190.463653 166.51526 
z
" style="stroke:#000000;"/>
    <path clip-path="url(#pba6a0d1690)" d="M 190.463653 155.570121 
L 191.019607 157.56836 
L 192.482183 155.585479 
z
" style="stroke:#000000;"/>
    <path clip-path="url(#pba6a0d1690)" d="M 191.019607 157.56836 
L 190.463653 163.388078 
L 192.482183 163.397389 
z
" style="stroke:#000000;"/>
    <path clip-path="url(#pba6a0d1690)" d="M 190.463653 163.388078 
L 188.27499 157.17958 
L 190.463653 166.51526 
z
" style="stroke:#000000;"/>
    <path clip-path="url(#pba6a0d1690)" d="M 190.463653 154.00653 
L 189.003324 157.554561 
L 190.463653 155.570121 
z
" style="stroke:#000000;"/>
    <path clip-path="url(#pba6a0d1690)" d="M 192.482183 154.023097 
L 193.949665 157.508452 
L 192.482183 155.585479 
z
" style="stroke:#000000;"/>
    <path clip-path="url(#pba6a0d1690)" d="M 192.482183 163.397389 
L 194.685254 157.101833 
L 192.482183 166.522153 
z
" style="stroke:#000000;"/>
    <path clip-path="url(#pba6a0d1690)" d="M 192.482183 155.585479 
L 191.928885 157.49456 
L 190.463653 155.570121 
z
" style="stroke:#000000;"/>
    <path clip-path="url(#pba6a0d1690)" d="M 191.928885 157.49456 
L 192.482183 163.397389 
L 190.463653 163.388078 
z
" style="stroke:#000000;"/>
    <path clip-path="url(#pba6a0d1690)" d="M 190.463653 154.00653 
L 194.685254 157.101833 
L 192.482183 154.023097 
z
" style="stroke:#000000;"/>
    <path clip-path="url(#pba6a0d1690)" d="M 194.685254 157.101833 
L 190.463653 166.51526 
L 192.482183 166.522153 
z
" style="stroke:#000000;"/>
    <path clip-path="url(#pba6a0d1690)" d="M 191.928885 157.49456 
L 190.463653 154.00653 
L 190.463653 155.570121 
z
" style="stroke:#000000;"/>
    <path clip-path="url(#pba6a0d1690)" d="M 191.928885 157.49456 
L 192.482183 155.585479 
L 193.949665 157.508452 
z
" style="stroke:#000000;"/>
    <path clip-path="url(#pba6a0d1690)" d="M 192.482183 163.397389 
L 191.928885 157.49456 
L 193.949665 157.508452 
z
" style="stroke:#000000;"/>
    <path clip-path="url(#pba6a0d1690)" d="M 193.949665 157.508452 
L 192.482183 154.023097 
L 194.685254 157.101833 
z
" style="stroke:#000000;"/>
    <path clip-path="url(#pba6a0d1690)" d="M 194.685254 157.101833 
L 192.482183 163.397389 
L 193.949665 157.508452 
z
" style="stroke:#000000;"/>
    <path clip-path="url(#pba6a0d1690)" d="M 192.663347 157.087614 
L 190.463653 163.388078 
L 190.463653 166.51526 
z
" style="stroke:#000000;"/>
    <path clip-path="url(#pba6a0d1690)" d="M 193.736252 180.419762 
L 191.635445 177.149991 
L 193.655775 177.148657 
z
" style="stroke:#000000;"/>
    <path clip-path="url(#pba6a0d1690)" d="M 193.655775 177.148657 
L 191.715799 173.876667 
L 193.736252 173.877867 
z
" style="stroke:#000000;"/>
    <path clip-path="url(#pba6a0d1690)" d="M 194.538037 177.150391 
L 193.655775 177.148657 
L 193.736252 173.877867 
z
" style="stroke:#000000;"/>
    <path clip-path="url(#pba6a0d1690)" d="M 193.655775 177.148657 
L 194.538037 177.150391 
L 193.736252 180.419762 
z
" style="stroke:#000000;"/>
    <path clip-path="url(#pba6a0d1690)" d="M 193.976895 183.657134 
L 191.715799 180.423632 
L 193.736252 180.419762 
z
" style="stroke:#000000;"/>
    <path clip-path="url(#pba6a0d1690)" d="M 194.613842 174.072766 
L 193.736252 173.877867 
L 193.976895 170.641442 
z
" style="stroke:#000000;"/>
    <path clip-path="url(#pba6a0d1690)" d="M 193.736252 180.419762 
L 194.613842 180.228313 
L 193.976895 183.657134 
z
" style="stroke:#000000;"/>
    <path clip-path="url(#pba6a0d1690)" d="M 193.736252 173.877867 
L 191.956073 170.637731 
L 193.976895 170.641442 
z
" style="stroke:#000000;"/>
    <path clip-path="url(#pba6a0d1690)" d="M 191.715799 173.876667 
L 193.655775 177.148657 
L 191.635445 177.149991 
z
" style="stroke:#000000;"/>
    <path clip-path="url(#pba6a0d1690)" d="M 191.635445 177.149991 
L 193.736252 180.419762 
L 191.715799 180.423632 
z
" style="stroke:#000000;"/>
    <path clip-path="url(#pba6a0d1690)" d="M 191.956073 170.637731 
L 193.736252 173.877867 
L 191.715799 173.876667 
z
" style="stroke:#000000;"/>
    <path clip-path="url(#pba6a0d1690)" d="M 194.613842 180.228313 
L 193.736252 180.419762 
L 194.538037 177.150391 
z
" style="stroke:#000000;"/>
    <path clip-path="url(#pba6a0d1690)" d="M 193.736252 173.877867 
L 194.613842 174.072766 
L 194.538037 177.150391 
z
" style="stroke:#000000;"/>
    <path clip-path="url(#pba6a0d1690)" d="M 194.375326 186.82701 
L 191.956073 183.663515 
L 193.976895 183.657134 
z
" style="stroke:#000000;"/>
    <path clip-path="url(#pba6a0d1690)" d="M 191.715799 180.423632 
L 193.976895 183.657134 
L 191.956073 183.663515 
z
" style="stroke:#000000;"/>
    <path clip-path="url(#pba6a0d1690)" d="M 190.463653 163.388078 
L 192.663347 157.087614 
L 191.928885 157.49456 
z
" style="stroke:#000000;"/>
    <path clip-path="url(#pba6a0d1690)" d="M 190.463653 154.00653 
L 191.928885 157.49456 
L 192.663347 157.087614 
z
" style="stroke:#000000;"/>
    <path clip-path="url(#pba6a0d1690)" d="M 194.840491 171.027585 
L 193.976895 170.641442 
L 194.375326 167.473131 
z
" style="stroke:#000000;"/>
    <path clip-path="url(#pba6a0d1690)" d="M 193.976895 183.657134 
L 194.840491 183.274385 
L 194.375326 186.82701 
z
" style="stroke:#000000;"/>
    <path clip-path="url(#pba6a0d1690)" d="M 194.685254 157.101833 
L 190.463653 154.00653 
L 192.663347 157.087614 
z
" style="stroke:#000000;"/>
    <path clip-path="url(#pba6a0d1690)" d="M 190.463653 166.51526 
L 194.685254 157.101833 
L 192.663347 157.087614 
z
" style="stroke:#000000;"/>
    <path clip-path="url(#pba6a0d1690)" d="M 193.976895 170.641442 
L 192.353894 167.466962 
L 194.375326 167.473131 
z
" style="stroke:#000000;"/>
    <path clip-path="url(#pba6a0d1690)" d="M 193.976895 170.641442 
L 194.840491 171.027585 
L 194.613842 174.072766 
z
" style="stroke:#000000;"/>
    <path clip-path="url(#pba6a0d1690)" d="M 194.840491 183.274385 
L 193.976895 183.657134 
L 194.613842 180.228313 
z
" style="stroke:#000000;"/>
    <path clip-path="url(#pba6a0d1690)" d="M 192.353894 167.466962 
L 193.976895 170.641442 
L 191.956073 170.637731 
z
" style="stroke:#000000;"/>
    <path clip-path="url(#pba6a0d1690)" d="M 192.516356 177.151728 
L 191.635445 177.149991 
L 191.715799 180.423632 
z
" style="stroke:#000000;"/>
    <path clip-path="url(#pba6a0d1690)" d="M 191.635445 177.149991 
L 192.516356 177.151728 
L 191.715799 173.876667 
z
" style="stroke:#000000;"/>
    <path clip-path="url(#pba6a0d1690)" d="M 191.956073 183.663515 
L 194.375326 186.82701 
L 192.353894 186.835853 
z
" style="stroke:#000000;"/>
    <path clip-path="url(#pba6a0d1690)" d="M 194.927597 189.896219 
L 192.353894 186.835853 
L 194.375326 186.82701 
z
" style="stroke:#000000;"/>
    <path clip-path="url(#pba6a0d1690)" d="M 192.592044 180.232038 
L 191.715799 180.423632 
L 191.956073 183.663515 
z
" style="stroke:#000000;"/>
    <path clip-path="url(#pba6a0d1690)" d="M 191.715799 173.876667 
L 192.592044 174.071715 
L 191.956073 170.637731 
z
" style="stroke:#000000;"/>
    <path clip-path="url(#pba6a0d1690)" d="M 194.613842 174.072766 
L 192.516356 177.151728 
L 194.538037 177.150391 
z
" style="stroke:#000000;"/>
    <path clip-path="url(#pba6a0d1690)" d="M 194.375326 167.473131 
L 195.215743 168.046674 
L 194.840491 171.027585 
z
" style="stroke:#000000;"/>
    <path clip-path="url(#pba6a0d1690)" d="M 195.215743 186.256771 
L 194.375326 186.82701 
L 194.840491 183.274385 
z
" style="stroke:#000000;"/>
    <path clip-path="url(#pba6a0d1690)" d="M 194.538037 177.150391 
L 192.592044 180.232038 
L 194.613842 180.228313 
z
" style="stroke:#000000;"/>
    <path clip-path="url(#pba6a0d1690)" d="M 195.215743 168.046674 
L 194.375326 167.473131 
L 194.927597 164.406093 
z
" style="stroke:#000000;"/>
    <path clip-path="url(#pba6a0d1690)" d="M 194.375326 186.82701 
L 195.215743 186.256771 
L 194.927597 189.896219 
z
" style="stroke:#000000;"/>
    <path clip-path="url(#pba6a0d1690)" d="M 194.840491 171.027585 
L 192.592044 174.071715 
L 194.613842 174.072766 
z
" style="stroke:#000000;"/>
    <path clip-path="url(#pba6a0d1690)" d="M 194.375326 167.473131 
L 192.90532 164.397539 
L 194.927597 164.406093 
z
" style="stroke:#000000;"/>
    <path clip-path="url(#pba6a0d1690)" d="M 192.592044 174.071715 
L 191.715799 173.876667 
L 192.516356 177.151728 
z
" style="stroke:#000000;"/>
    <path clip-path="url(#pba6a0d1690)" d="M 191.715799 180.423632 
L 192.592044 180.232038 
L 192.516356 177.151728 
z
" style="stroke:#000000;"/>
    <path clip-path="url(#pba6a0d1690)" d="M 194.613842 180.228313 
L 192.818347 183.280475 
L 194.840491 183.274385 
z
" style="stroke:#000000;"/>
    <path clip-path="url(#pba6a0d1690)" d="M 192.90532 164.397539 
L 194.375326 167.473131 
L 192.353894 167.466962 
z
" style="stroke:#000000;"/>
    <path clip-path="url(#pba6a0d1690)" d="M 192.592044 180.232038 
L 194.538037 177.150391 
L 192.516356 177.151728 
z
" style="stroke:#000000;"/>
    <path clip-path="url(#pba6a0d1690)" d="M 192.516356 177.151728 
L 194.613842 174.072766 
L 192.592044 174.071715 
z
" style="stroke:#000000;"/>
    <path clip-path="url(#pba6a0d1690)" d="M 192.818347 183.280475 
L 191.956073 183.663515 
L 192.353894 186.835853 
z
" style="stroke:#000000;"/>
    <path clip-path="url(#pba6a0d1690)" d="M 191.956073 170.637731 
L 192.818347 171.024171 
L 192.353894 167.466962 
z
" style="stroke:#000000;"/>
    <path clip-path="url(#pba6a0d1690)" d="M 192.818347 183.280475 
L 194.613842 180.228313 
L 192.592044 180.232038 
z
" style="stroke:#000000;"/>
    <path clip-path="url(#pba6a0d1690)" d="M 191.956073 183.663515 
L 192.818347 183.280475 
L 192.592044 180.232038 
z
" style="stroke:#000000;"/>
    <path clip-path="url(#pba6a0d1690)" d="M 192.818347 171.024171 
L 191.956073 170.637731 
L 192.592044 174.071715 
z
" style="stroke:#000000;"/>
    <path clip-path="url(#pba6a0d1690)" d="M 195.215743 168.046674 
L 192.818347 171.024171 
L 194.840491 171.027585 
z
" style="stroke:#000000;"/>
    <path clip-path="url(#pba6a0d1690)" d="M 192.353894 186.835853 
L 194.927597 189.896219 
L 192.90532 189.90745 
z
" style="stroke:#000000;"/>
    <path clip-path="url(#pba6a0d1690)" d="M 192.592044 174.071715 
L 194.840491 171.027585 
L 192.818347 171.024171 
z
" style="stroke:#000000;"/>
    <path clip-path="url(#pba6a0d1690)" d="M 194.927597 164.406093 
L 195.735858 165.161331 
L 195.215743 168.046674 
z
" style="stroke:#000000;"/>
    <path clip-path="url(#pba6a0d1690)" d="M 195.735858 189.144158 
L 194.927597 189.896219 
L 195.215743 186.256771 
z
" style="stroke:#000000;"/>
    <path clip-path="url(#pba6a0d1690)" d="M 194.840491 183.274385 
L 193.193024 186.265179 
L 195.215743 186.256771 
z
" style="stroke:#000000;"/>
    <path clip-path="url(#pba6a0d1690)" d="M 195.628239 192.832534 
L 192.90532 189.90745 
L 194.927597 189.896219 
z
" style="stroke:#000000;"/>
    <path clip-path="url(#pba6a0d1690)" d="M 193.193024 186.265179 
L 194.840491 183.274385 
L 192.818347 183.280475 
z
" style="stroke:#000000;"/>
    <path clip-path="url(#pba6a0d1690)" d="M 195.735858 165.161331 
L 194.927597 164.406093 
L 195.628239 161.472532 
z
" style="stroke:#000000;"/>
    <path clip-path="url(#pba6a0d1690)" d="M 194.927597 189.896219 
L 195.735858 189.144158 
L 195.628239 192.832534 
z
" style="stroke:#000000;"/>
    <path clip-path="url(#pba6a0d1690)" d="M 192.353894 186.835853 
L 193.193024 186.265179 
L 192.818347 183.280475 
z
" style="stroke:#000000;"/>
    <path clip-path="url(#pba6a0d1690)" d="M 193.193024 168.040944 
L 192.353894 167.466962 
L 192.818347 171.024171 
z
" style="stroke:#000000;"/>
    <path clip-path="url(#pba6a0d1690)" d="M 193.193024 186.265179 
L 192.353894 186.835853 
L 192.90532 189.90745 
z
" style="stroke:#000000;"/>
    <path clip-path="url(#pba6a0d1690)" d="M 192.353894 167.466962 
L 193.193024 168.040944 
L 192.90532 164.397539 
z
" style="stroke:#000000;"/>
    <path clip-path="url(#pba6a0d1690)" d="M 192.818347 171.024171 
L 195.215743 168.046674 
L 193.193024 168.040944 
z
" style="stroke:#000000;"/>
    <path clip-path="url(#pba6a0d1690)" d="M 193.60489 161.461693 
L 194.927597 164.406093 
L 192.90532 164.397539 
z
" style="stroke:#000000;"/>
    <path clip-path="url(#pba6a0d1690)" d="M 195.735858 165.161331 
L 193.193024 168.040944 
L 195.215743 168.046674 
z
" style="stroke:#000000;"/>
    <path clip-path="url(#pba6a0d1690)" d="M 194.927597 164.406093 
L 193.60489 161.461693 
L 195.628239 161.472532 
z
" style="stroke:#000000;"/>
    <path clip-path="url(#pba6a0d1690)" d="M 195.215743 186.256771 
L 193.712344 189.154814 
L 195.735858 189.144158 
z
" style="stroke:#000000;"/>
    <path clip-path="url(#pba6a0d1690)" d="M 193.712344 189.154814 
L 195.215743 186.256771 
L 193.193024 186.265179 
z
" style="stroke:#000000;"/>
    <path clip-path="url(#pba6a0d1690)" d="M 192.90532 189.90745 
L 195.628239 192.832534 
L 193.60489 192.846054 
z
" style="stroke:#000000;"/>
    <path clip-path="url(#pba6a0d1690)" d="M 195.628239 161.472532 
L 196.395638 162.401959 
L 195.735858 165.161331 
z
" style="stroke:#000000;"/>
    <path clip-path="url(#pba6a0d1690)" d="M 196.395638 191.906123 
L 195.628239 192.832534 
L 195.735858 189.144158 
z
" style="stroke:#000000;"/>
    <path clip-path="url(#pba6a0d1690)" d="M 192.90532 189.90745 
L 193.712344 189.154814 
L 193.193024 186.265179 
z
" style="stroke:#000000;"/>
    <path clip-path="url(#pba6a0d1690)" d="M 193.712344 165.153356 
L 192.90532 164.397539 
L 193.193024 168.040944 
z
" style="stroke:#000000;"/>
    <path clip-path="url(#pba6a0d1690)" d="M 193.193024 168.040944 
L 195.735858 165.161331 
L 193.712344 165.153356 
z
" style="stroke:#000000;"/>
    <path clip-path="url(#pba6a0d1690)" d="M 193.712344 189.154814 
L 192.90532 189.90745 
L 193.60489 192.846054 
z
" style="stroke:#000000;"/>
    <path clip-path="url(#pba6a0d1690)" d="M 192.90532 164.397539 
L 193.712344 165.153356 
L 193.60489 161.461693 
z
" style="stroke:#000000;"/>
    <path clip-path="url(#pba6a0d1690)" d="M 196.47025 195.604771 
L 193.60489 192.846054 
L 195.628239 192.832534 
z
" style="stroke:#000000;"/>
    <path clip-path="url(#pba6a0d1690)" d="M 196.47025 158.703604 
L 196.395638 162.401959 
L 195.628239 161.472532 
z
" style="stroke:#000000;"/>
    <path clip-path="url(#pba6a0d1690)" d="M 196.395638 191.906123 
L 196.47025 195.604771 
L 195.628239 192.832534 
z
" style="stroke:#000000;"/>
    <path clip-path="url(#pba6a0d1690)" d="M 196.395638 162.401959 
L 193.712344 165.153356 
L 195.735858 165.161331 
z
" style="stroke:#000000;"/>
    <path clip-path="url(#pba6a0d1690)" d="M 194.445614 158.690601 
L 195.628239 161.472532 
L 193.60489 161.461693 
z
" style="stroke:#000000;"/>
    <path clip-path="url(#pba6a0d1690)" d="M 195.735858 189.144158 
L 194.371116 191.918935 
L 196.395638 191.906123 
z
" style="stroke:#000000;"/>
    <path clip-path="url(#pba6a0d1690)" d="M 194.371116 191.918935 
L 195.735858 189.144158 
L 193.712344 189.154814 
z
" style="stroke:#000000;"/>
    <path clip-path="url(#pba6a0d1690)" d="M 195.628239 161.472532 
L 194.445614 158.690601 
L 196.47025 158.703604 
z
" style="stroke:#000000;"/>
    <path clip-path="url(#pba6a0d1690)" d="M 193.60489 192.846054 
L 194.371116 191.918935 
L 193.712344 189.154814 
z
" style="stroke:#000000;"/>
    <path clip-path="url(#pba6a0d1690)" d="M 194.371116 162.391832 
L 193.60489 161.461693 
L 193.712344 165.153356 
z
" style="stroke:#000000;"/>
    <path clip-path="url(#pba6a0d1690)" d="M 193.712344 165.153356 
L 196.395638 162.401959 
L 194.371116 162.391832 
z
" style="stroke:#000000;"/>
    <path clip-path="url(#pba6a0d1690)" d="M 193.60489 192.846054 
L 196.47025 195.604771 
L 194.445614 195.62046 
z
" style="stroke:#000000;"/>
    <path clip-path="url(#pba6a0d1690)" d="M 196.47025 158.703604 
L 197.18847 159.797783 
L 196.395638 162.401959 
z
" style="stroke:#000000;"/>
    <path clip-path="url(#pba6a0d1690)" d="M 197.18847 194.513415 
L 196.47025 195.604771 
L 196.395638 191.906123 
z
" style="stroke:#000000;"/>
    <path clip-path="url(#pba6a0d1690)" d="M 194.445614 195.62046 
L 194.371116 191.918935 
L 193.60489 192.846054 
z
" style="stroke:#000000;"/>
    <path clip-path="url(#pba6a0d1690)" d="M 194.371116 162.391832 
L 194.445614 158.690601 
L 193.60489 161.461693 
z
" style="stroke:#000000;"/>
    <path clip-path="url(#pba6a0d1690)" d="M 197.18847 159.797783 
L 194.371116 162.391832 
L 196.395638 162.401959 
z
" style="stroke:#000000;"/>
    <path clip-path="url(#pba6a0d1690)" d="M 197.44519 198.183505 
L 194.445614 195.62046 
L 196.47025 195.604771 
z
" style="stroke:#000000;"/>
    <path clip-path="url(#pba6a0d1690)" d="M 197.44519 156.128702 
L 197.18847 159.797783 
L 196.47025 158.703604 
z
" style="stroke:#000000;"/>
    <path clip-path="url(#pba6a0d1690)" d="M 197.18847 194.513415 
L 197.44519 198.183505 
L 196.47025 195.604771 
z
" style="stroke:#000000;"/>
    <path clip-path="url(#pba6a0d1690)" d="M 195.162736 194.528267 
L 196.395638 191.906123 
L 194.371116 191.918935 
z
" style="stroke:#000000;"/>
    <path clip-path="url(#pba6a0d1690)" d="M 196.395638 191.906123 
L 195.162736 194.528267 
L 197.18847 194.513415 
z
" style="stroke:#000000;"/>
    <path clip-path="url(#pba6a0d1690)" d="M 195.419065 156.11368 
L 196.47025 158.703604 
L 194.445614 158.690601 
z
" style="stroke:#000000;"/>
    <path clip-path="url(#pba6a0d1690)" d="M 196.47025 158.703604 
L 195.419065 156.11368 
L 197.44519 156.128702 
z
" style="stroke:#000000;"/>
    <path clip-path="url(#pba6a0d1690)" d="M 194.445614 195.62046 
L 195.162736 194.528267 
L 194.371116 191.918935 
z
" style="stroke:#000000;"/>
    <path clip-path="url(#pba6a0d1690)" d="M 195.162736 159.785621 
L 194.445614 158.690601 
L 194.371116 162.391832 
z
" style="stroke:#000000;"/>
    <path clip-path="url(#pba6a0d1690)" d="M 194.371116 162.391832 
L 197.18847 159.797783 
L 195.162736 159.785621 
z
" style="stroke:#000000;"/>
    <path clip-path="url(#pba6a0d1690)" d="M 194.445614 195.62046 
L 197.44519 198.183505 
L 195.419065 198.201219 
z
" style="stroke:#000000;"/>
    <path clip-path="url(#pba6a0d1690)" d="M 197.44519 156.128702 
L 198.106356 157.376795 
L 197.18847 159.797783 
z
" style="stroke:#000000;"/>
    <path clip-path="url(#pba6a0d1690)" d="M 198.106356 196.93801 
L 197.44519 198.183505 
L 197.18847 194.513415 
z
" style="stroke:#000000;"/>
    <path clip-path="url(#pba6a0d1690)" d="M 195.419065 198.201219 
L 195.162736 194.528267 
L 194.445614 195.62046 
z
" style="stroke:#000000;"/>
    <path clip-path="url(#pba6a0d1690)" d="M 195.162736 159.785621 
L 195.419065 156.11368 
L 194.445614 158.690601 
z
" style="stroke:#000000;"/>
    <path clip-path="url(#pba6a0d1690)" d="M 198.106356 157.376795 
L 195.162736 159.785621 
L 197.18847 159.797783 
z
" style="stroke:#000000;"/>
    <path clip-path="url(#pba6a0d1690)" d="M 197.993865 199.361393 
L 195.419065 198.201219 
L 197.44519 198.183505 
z
" style="stroke:#000000;"/>
    <path clip-path="url(#pba6a0d1690)" d="M 198.381798 155.362975 
L 197.44519 156.128702 
L 197.993865 154.95297 
z
" style="stroke:#000000;"/>
    <path clip-path="url(#pba6a0d1690)" d="M 197.44519 198.183505 
L 198.381798 198.952913 
L 197.993865 199.361393 
z
" style="stroke:#000000;"/>
    <path clip-path="url(#pba6a0d1690)" d="M 196.079222 196.954767 
L 197.18847 194.513415 
L 195.162736 194.528267 
z
" style="stroke:#000000;"/>
    <path clip-path="url(#pba6a0d1690)" d="M 197.44519 156.128702 
L 198.381798 155.362975 
L 198.106356 157.376795 
z
" style="stroke:#000000;"/>
    <path clip-path="url(#pba6a0d1690)" d="M 198.381798 198.952913 
L 197.44519 198.183505 
L 198.106356 196.93801 
z
" style="stroke:#000000;"/>
    <path clip-path="url(#pba6a0d1690)" d="M 197.18847 194.513415 
L 196.079222 196.954767 
L 198.106356 196.93801 
z
" style="stroke:#000000;"/>
    <path clip-path="url(#pba6a0d1690)" d="M 197.44519 156.128702 
L 195.966902 154.937024 
L 197.993865 154.95297 
z
" style="stroke:#000000;"/>
    <path clip-path="url(#pba6a0d1690)" d="M 195.966902 154.937024 
L 197.44519 156.128702 
L 195.419065 156.11368 
z
" style="stroke:#000000;"/>
    <path clip-path="url(#pba6a0d1690)" d="M 195.162736 159.785621 
L 198.106356 157.376795 
L 196.079222 157.362734 
z
" style="stroke:#000000;"/>
    <path clip-path="url(#pba6a0d1690)" d="M 195.419065 198.201219 
L 196.079222 196.954767 
L 195.162736 194.528267 
z
" style="stroke:#000000;"/>
    <path clip-path="url(#pba6a0d1690)" d="M 196.079222 157.362734 
L 195.419065 156.11368 
L 195.162736 159.785621 
z
" style="stroke:#000000;"/>
    <path clip-path="url(#pba6a0d1690)" d="M 195.419065 198.201219 
L 197.993865 199.361393 
L 195.966902 199.380035 
z
" style="stroke:#000000;"/>
    <path clip-path="url(#pba6a0d1690)" d="M 195.966902 154.937024 
L 198.381798 155.362975 
L 197.993865 154.95297 
z
" style="stroke:#000000;"/>
    <path clip-path="url(#pba6a0d1690)" d="M 198.106356 157.376795 
L 198.381798 155.362975 
L 198.789608 155.914784 
z
" style="stroke:#000000;"/>
    <path clip-path="url(#pba6a0d1690)" d="M 198.381798 198.952913 
L 198.106356 196.93801 
L 198.789608 198.402707 
z
" style="stroke:#000000;"/>
    <path clip-path="url(#pba6a0d1690)" d="M 196.354244 198.971245 
L 197.993865 199.361393 
L 198.381798 198.952913 
z
" style="stroke:#000000;"/>
    <path clip-path="url(#pba6a0d1690)" d="M 196.079222 196.954767 
L 198.789608 198.402707 
L 198.106356 196.93801 
z
" style="stroke:#000000;"/>
    <path clip-path="url(#pba6a0d1690)" d="M 197.993865 199.361393 
L 196.354244 198.971245 
L 195.966902 199.380035 
z
" style="stroke:#000000;"/>
    <path clip-path="url(#pba6a0d1690)" d="M 196.354244 198.971245 
L 195.419065 198.201219 
L 195.966902 199.380035 
z
" style="stroke:#000000;"/>
    <path clip-path="url(#pba6a0d1690)" d="M 195.419065 156.11368 
L 196.354244 155.34734 
L 195.966902 154.937024 
z
" style="stroke:#000000;"/>
    <path clip-path="url(#pba6a0d1690)" d="M 195.419065 198.201219 
L 196.354244 198.971245 
L 196.079222 196.954767 
z
" style="stroke:#000000;"/>
    <path clip-path="url(#pba6a0d1690)" d="M 196.354244 155.34734 
L 195.419065 156.11368 
L 196.079222 157.362734 
z
" style="stroke:#000000;"/>
    <path clip-path="url(#pba6a0d1690)" d="M 198.381798 155.362975 
L 195.966902 154.937024 
L 196.354244 155.34734 
z
" style="stroke:#000000;"/>
    <path clip-path="url(#pba6a0d1690)" d="M 196.354244 155.34734 
L 198.789608 155.914784 
L 198.381798 155.362975 
z
" style="stroke:#000000;"/>
    <path clip-path="url(#pba6a0d1690)" d="M 196.761432 155.899572 
L 198.106356 157.376795 
L 198.789608 155.914784 
z
" style="stroke:#000000;"/>
    <path clip-path="url(#pba6a0d1690)" d="M 198.106356 157.376795 
L 196.761432 155.899572 
L 196.079222 157.362734 
z
" style="stroke:#000000;"/>
    <path clip-path="url(#pba6a0d1690)" d="M 196.761432 198.420619 
L 198.381798 198.952913 
L 198.789608 198.402707 
z
" style="stroke:#000000;"/>
    <path clip-path="url(#pba6a0d1690)" d="M 198.381798 198.952913 
L 196.761432 198.420619 
L 196.354244 198.971245 
z
" style="stroke:#000000;"/>
    <path clip-path="url(#pba6a0d1690)" d="M 198.789608 198.402707 
L 196.079222 196.954767 
L 196.761432 198.420619 
z
" style="stroke:#000000;"/>
    <path clip-path="url(#pba6a0d1690)" d="M 198.789608 155.914784 
L 196.354244 155.34734 
L 196.761432 155.899572 
z
" style="stroke:#000000;"/>
    <path clip-path="url(#pba6a0d1690)" d="M 196.079222 196.954767 
L 196.354244 198.971245 
L 196.761432 198.420619 
z
" style="stroke:#000000;"/>
    <path clip-path="url(#pba6a0d1690)" d="M 196.354244 155.34734 
L 196.079222 157.362734 
L 196.761432 155.899572 
z
" style="stroke:#000000;"/>
   </g>
  </g>
 </g>
 <defs>
  <clipPath id="pba6a0d1690">
   <rect height="271.8" width="279" x="45" y="43.2"/>
  </clipPath>
 </defs>
</svg>
