<?xml version="1.0" encoding="utf-8" standalone="no"?>
<!DOCTYPE svg PUBLIC "-//W3C//DTD SVG 1.1//EN"
  "http://www.w3.org/Graphics/SVG/1.1/DTD/svg11.dtd">
<!-- Created with matplotlib (https://matplotlib.org/) -->
<svg height="360pt" version="1.1" viewBox="0 0 360 360" width="360pt" xmlns="http://www.w3.org/2000/svg" xmlns:xlink="http://www.w3.org/1999/xlink">
 <defs>
  <style type="text/css">
*{stroke-linecap:butt;stroke-linejoin:round;}
  </style>
 </defs>
 <g id="figure_1">
  <g id="patch_1">
   <path d="M 0 360 
L 360 360 
L 360 0 
L 0 0 
z
" style="fill:#ffffff;"/>
  </g>
  <g id="patch_2">
   <path d="M 45 315 
L 324 315 
L 324 43.2 
L 45 43.2 
z
" style="fill:#ffffff;"/>
  </g>
  <g id="axes_1">
   <g id="Poly3DCollection_1">
    <path clip-path="url(#p4636ed50f9)" d="M 196.022778 198.118678 
L 193.573628 198.670492 
L 193.87559 198.105324 
z
" style="stroke:#000000;"/>
    <path clip-path="url(#p4636ed50f9)" d="M 193.573628 198.670492 
L 193.369352 196.693437 
L 193.87559 198.105324 
z
" style="stroke:#000000;"/>
    <path clip-path="url(#p4636ed50f9)" d="M 193.369352 157.582021 
L 193.573628 155.603838 
L 193.87559 156.167338 
z
" style="stroke:#000000;"/>
    <path clip-path="url(#p4636ed50f9)" d="M 196.022778 156.155998 
L 193.369352 157.582021 
L 193.87559 156.167338 
z
" style="stroke:#000000;"/>
    <path clip-path="url(#p4636ed50f9)" d="M 195.721686 155.59216 
L 193.87559 156.167338 
L 193.573628 155.603838 
z
" style="stroke:#000000;"/>
    <path clip-path="url(#p4636ed50f9)" d="M 193.87559 156.167338 
L 195.721686 155.59216 
L 196.022778 156.155998 
z
" style="stroke:#000000;"/>
    <path clip-path="url(#p4636ed50f9)" d="M 193.87559 198.105324 
L 195.517999 196.705969 
L 196.022778 198.118678 
z
" style="stroke:#000000;"/>
    <path clip-path="url(#p4636ed50f9)" d="M 193.573628 198.670492 
L 196.022778 198.118678 
L 195.721686 198.684185 
z
" style="stroke:#000000;"/>
    <path clip-path="url(#p4636ed50f9)" d="M 195.517999 196.705969 
L 193.87559 198.105324 
L 193.369352 196.693437 
z
" style="stroke:#000000;"/>
    <path clip-path="url(#p4636ed50f9)" d="M 195.721686 198.684185 
L 193.28585 199.095479 
L 193.573628 198.670492 
z
" style="stroke:#000000;"/>
    <path clip-path="url(#p4636ed50f9)" d="M 193.369352 157.582021 
L 196.022778 156.155998 
L 195.517999 157.571505 
z
" style="stroke:#000000;"/>
    <path clip-path="url(#p4636ed50f9)" d="M 193.573628 198.670492 
L 192.87794 197.959533 
L 193.369352 196.693437 
z
" style="stroke:#000000;"/>
    <path clip-path="url(#p4636ed50f9)" d="M 192.87794 156.318638 
L 193.573628 155.603838 
L 193.369352 157.582021 
z
" style="stroke:#000000;"/>
    <path clip-path="url(#p4636ed50f9)" d="M 195.434738 155.168507 
L 193.573628 155.603838 
L 193.28585 155.18044 
z
" style="stroke:#000000;"/>
    <path clip-path="url(#p4636ed50f9)" d="M 192.87794 197.959533 
L 193.573628 198.670492 
L 193.28585 199.095479 
z
" style="stroke:#000000;"/>
    <path clip-path="url(#p4636ed50f9)" d="M 193.573628 155.603838 
L 192.87794 156.318638 
L 193.28585 155.18044 
z
" style="stroke:#000000;"/>
    <path clip-path="url(#p4636ed50f9)" d="M 195.721686 155.59216 
L 195.517999 157.571505 
L 196.022778 156.155998 
z
" style="stroke:#000000;"/>
    <path clip-path="url(#p4636ed50f9)" d="M 195.517999 196.705969 
L 195.721686 198.684185 
L 196.022778 198.118678 
z
" style="stroke:#000000;"/>
    <path clip-path="url(#p4636ed50f9)" d="M 193.573628 155.603838 
L 195.434738 155.168507 
L 195.721686 155.59216 
z
" style="stroke:#000000;"/>
    <path clip-path="url(#p4636ed50f9)" d="M 193.28585 199.095479 
L 195.721686 198.684185 
L 195.434738 199.109429 
z
" style="stroke:#000000;"/>
    <path clip-path="url(#p4636ed50f9)" d="M 192.87794 156.318638 
L 195.434738 155.168507 
L 193.28585 155.18044 
z
" style="stroke:#000000;"/>
    <path clip-path="url(#p4636ed50f9)" d="M 192.686722 194.33691 
L 195.517999 196.705969 
L 193.369352 196.693437 
z
" style="stroke:#000000;"/>
    <path clip-path="url(#p4636ed50f9)" d="M 192.87794 197.959533 
L 192.686722 194.33691 
L 193.369352 196.693437 
z
" style="stroke:#000000;"/>
    <path clip-path="url(#p4636ed50f9)" d="M 192.686722 159.942318 
L 192.87794 156.318638 
L 193.369352 157.582021 
z
" style="stroke:#000000;"/>
    <path clip-path="url(#p4636ed50f9)" d="M 195.721686 155.59216 
L 195.028002 156.307368 
L 195.517999 157.571505 
z
" style="stroke:#000000;"/>
    <path clip-path="url(#p4636ed50f9)" d="M 195.028002 197.972823 
L 195.721686 198.684185 
L 195.517999 196.705969 
z
" style="stroke:#000000;"/>
    <path clip-path="url(#p4636ed50f9)" d="M 195.028002 197.972823 
L 193.28585 199.095479 
L 195.434738 199.109429 
z
" style="stroke:#000000;"/>
    <path clip-path="url(#p4636ed50f9)" d="M 194.837335 159.933182 
L 193.369352 157.582021 
L 195.517999 157.571505 
z
" style="stroke:#000000;"/>
    <path clip-path="url(#p4636ed50f9)" d="M 193.28585 199.095479 
L 195.028002 197.972823 
L 192.87794 197.959533 
z
" style="stroke:#000000;"/>
    <path clip-path="url(#p4636ed50f9)" d="M 195.028002 156.307368 
L 195.721686 155.59216 
L 195.434738 155.168507 
z
" style="stroke:#000000;"/>
    <path clip-path="url(#p4636ed50f9)" d="M 195.721686 198.684185 
L 195.028002 197.972823 
L 195.434738 199.109429 
z
" style="stroke:#000000;"/>
    <path clip-path="url(#p4636ed50f9)" d="M 193.369352 157.582021 
L 194.837335 159.933182 
L 192.686722 159.942318 
z
" style="stroke:#000000;"/>
    <path clip-path="url(#p4636ed50f9)" d="M 195.434738 155.168507 
L 192.87794 156.318638 
L 195.028002 156.307368 
z
" style="stroke:#000000;"/>
    <path clip-path="url(#p4636ed50f9)" d="M 195.517999 196.705969 
L 192.686722 194.33691 
L 194.837335 194.348066 
z
" style="stroke:#000000;"/>
    <path clip-path="url(#p4636ed50f9)" d="M 195.028002 156.307368 
L 194.837335 159.933182 
L 195.517999 157.571505 
z
" style="stroke:#000000;"/>
    <path clip-path="url(#p4636ed50f9)" d="M 194.837335 194.348066 
L 195.028002 197.972823 
L 195.517999 196.705969 
z
" style="stroke:#000000;"/>
    <path clip-path="url(#p4636ed50f9)" d="M 192.150537 195.451805 
L 192.686722 194.33691 
L 192.87794 197.959533 
z
" style="stroke:#000000;"/>
    <path clip-path="url(#p4636ed50f9)" d="M 192.686722 159.942318 
L 192.150537 158.830384 
L 192.87794 156.318638 
z
" style="stroke:#000000;"/>
    <path clip-path="url(#p4636ed50f9)" d="M 192.150537 158.830384 
L 195.028002 156.307368 
L 192.87794 156.318638 
z
" style="stroke:#000000;"/>
    <path clip-path="url(#p4636ed50f9)" d="M 194.302694 195.463629 
L 192.87794 197.959533 
L 195.028002 197.972823 
z
" style="stroke:#000000;"/>
    <path clip-path="url(#p4636ed50f9)" d="M 192.094732 191.784055 
L 194.837335 194.348066 
L 192.686722 194.33691 
z
" style="stroke:#000000;"/>
    <path clip-path="url(#p4636ed50f9)" d="M 192.150537 195.451805 
L 192.094732 191.784055 
L 192.686722 194.33691 
z
" style="stroke:#000000;"/>
    <path clip-path="url(#p4636ed50f9)" d="M 192.094732 162.498441 
L 192.150537 158.830384 
L 192.686722 159.942318 
z
" style="stroke:#000000;"/>
    <path clip-path="url(#p4636ed50f9)" d="M 192.87794 197.959533 
L 194.302694 195.463629 
L 192.150537 195.451805 
z
" style="stroke:#000000;"/>
    <path clip-path="url(#p4636ed50f9)" d="M 194.247049 162.490807 
L 192.686722 159.942318 
L 194.837335 159.933182 
z
" style="stroke:#000000;"/>
    <path clip-path="url(#p4636ed50f9)" d="M 194.302694 158.820584 
L 194.837335 159.933182 
L 195.028002 156.307368 
z
" style="stroke:#000000;"/>
    <path clip-path="url(#p4636ed50f9)" d="M 194.837335 194.348066 
L 194.302694 195.463629 
L 195.028002 197.972823 
z
" style="stroke:#000000;"/>
    <path clip-path="url(#p4636ed50f9)" d="M 192.686722 159.942318 
L 194.247049 162.490807 
L 192.094732 162.498441 
z
" style="stroke:#000000;"/>
    <path clip-path="url(#p4636ed50f9)" d="M 195.028002 156.307368 
L 192.150537 158.830384 
L 194.302694 158.820584 
z
" style="stroke:#000000;"/>
    <path clip-path="url(#p4636ed50f9)" d="M 194.837335 194.348066 
L 192.094732 191.784055 
L 194.247049 191.793714 
z
" style="stroke:#000000;"/>
    <path clip-path="url(#p4636ed50f9)" d="M 194.302694 158.820584 
L 194.247049 162.490807 
L 194.837335 159.933182 
z
" style="stroke:#000000;"/>
    <path clip-path="url(#p4636ed50f9)" d="M 194.247049 191.793714 
L 194.302694 195.463629 
L 194.837335 194.348066 
z
" style="stroke:#000000;"/>
    <path clip-path="url(#p4636ed50f9)" d="M 191.519634 192.734719 
L 192.094732 191.784055 
L 192.150537 195.451805 
z
" style="stroke:#000000;"/>
    <path clip-path="url(#p4636ed50f9)" d="M 192.094732 162.498441 
L 191.519634 161.550953 
L 192.150537 158.830384 
z
" style="stroke:#000000;"/>
    <path clip-path="url(#p4636ed50f9)" d="M 191.519634 161.550953 
L 194.302694 158.820584 
L 192.150537 158.830384 
z
" style="stroke:#000000;"/>
    <path clip-path="url(#p4636ed50f9)" d="M 191.600409 189.063627 
L 194.247049 191.793714 
L 192.094732 191.784055 
z
" style="stroke:#000000;"/>
    <path clip-path="url(#p4636ed50f9)" d="M 192.094732 191.784055 
L 191.519634 192.734719 
L 191.600409 189.063627 
z
" style="stroke:#000000;"/>
    <path clip-path="url(#p4636ed50f9)" d="M 191.519634 161.550953 
L 192.094732 162.498441 
L 191.600409 165.221599 
z
" style="stroke:#000000;"/>
    <path clip-path="url(#p4636ed50f9)" d="M 193.673605 192.74495 
L 192.150537 195.451805 
L 194.302694 195.463629 
z
" style="stroke:#000000;"/>
    <path clip-path="url(#p4636ed50f9)" d="M 193.754149 165.215568 
L 192.094732 162.498441 
L 194.247049 162.490807 
z
" style="stroke:#000000;"/>
    <path clip-path="url(#p4636ed50f9)" d="M 192.094732 162.498441 
L 193.754149 165.215568 
L 191.600409 165.221599 
z
" style="stroke:#000000;"/>
    <path clip-path="url(#p4636ed50f9)" d="M 192.150537 195.451805 
L 193.673605 192.74495 
L 191.519634 192.734719 
z
" style="stroke:#000000;"/>
    <path clip-path="url(#p4636ed50f9)" d="M 193.673605 161.542751 
L 194.247049 162.490807 
L 194.302694 158.820584 
z
" style="stroke:#000000;"/>
    <path clip-path="url(#p4636ed50f9)" d="M 194.247049 191.793714 
L 193.673605 192.74495 
L 194.302694 195.463629 
z
" style="stroke:#000000;"/>
    <path clip-path="url(#p4636ed50f9)" d="M 194.247049 191.793714 
L 191.600409 189.063627 
L 193.754149 189.071686 
z
" style="stroke:#000000;"/>
    <path clip-path="url(#p4636ed50f9)" d="M 194.302694 158.820584 
L 191.519634 161.550953 
L 193.673605 161.542751 
z
" style="stroke:#000000;"/>
    <path clip-path="url(#p4636ed50f9)" d="M 194.247049 162.490807 
L 193.673605 161.542751 
L 193.754149 165.215568 
z
" style="stroke:#000000;"/>
    <path clip-path="url(#p4636ed50f9)" d="M 193.673605 192.74495 
L 194.247049 191.793714 
L 193.754149 189.071686 
z
" style="stroke:#000000;"/>
    <path clip-path="url(#p4636ed50f9)" d="M 190.992751 189.838605 
L 191.600409 189.063627 
L 191.519634 192.734719 
z
" style="stroke:#000000;"/>
    <path clip-path="url(#p4636ed50f9)" d="M 191.600409 165.221599 
L 190.992751 164.449977 
L 191.519634 161.550953 
z
" style="stroke:#000000;"/>
    <path clip-path="url(#p4636ed50f9)" d="M 191.209647 186.206346 
L 193.754149 189.071686 
L 191.600409 189.063627 
z
" style="stroke:#000000;"/>
    <path clip-path="url(#p4636ed50f9)" d="M 191.600409 189.063627 
L 190.992751 189.838605 
L 191.209647 186.206346 
z
" style="stroke:#000000;"/>
    <path clip-path="url(#p4636ed50f9)" d="M 190.992751 164.449977 
L 191.600409 165.221599 
L 191.209647 168.081038 
z
" style="stroke:#000000;"/>
    <path clip-path="url(#p4636ed50f9)" d="M 193.36451 168.076694 
L 191.600409 165.221599 
L 193.754149 165.215568 
z
" style="stroke:#000000;"/>
    <path clip-path="url(#p4636ed50f9)" d="M 190.992751 164.449977 
L 193.673605 161.542751 
L 191.519634 161.550953 
z
" style="stroke:#000000;"/>
    <path clip-path="url(#p4636ed50f9)" d="M 191.600409 165.221599 
L 193.36451 168.076694 
L 191.209647 168.081038 
z
" style="stroke:#000000;"/>
    <path clip-path="url(#p4636ed50f9)" d="M 193.148239 189.84713 
L 191.519634 192.734719 
L 193.673605 192.74495 
z
" style="stroke:#000000;"/>
    <path clip-path="url(#p4636ed50f9)" d="M 193.754149 189.071686 
L 191.209647 186.206346 
L 193.36451 186.212721 
z
" style="stroke:#000000;"/>
    <path clip-path="url(#p4636ed50f9)" d="M 191.519634 192.734719 
L 193.148239 189.84713 
L 190.992751 189.838605 
z
" style="stroke:#000000;"/>
    <path clip-path="url(#p4636ed50f9)" d="M 193.148239 164.443483 
L 193.754149 165.215568 
L 193.673605 161.542751 
z
" style="stroke:#000000;"/>
    <path clip-path="url(#p4636ed50f9)" d="M 193.754149 189.071686 
L 193.148239 189.84713 
L 193.673605 192.74495 
z
" style="stroke:#000000;"/>
    <path clip-path="url(#p4636ed50f9)" d="M 190.927126 183.244738 
L 193.36451 186.212721 
L 191.209647 186.206346 
z
" style="stroke:#000000;"/>
    <path clip-path="url(#p4636ed50f9)" d="M 190.576219 186.796378 
L 191.209647 186.206346 
L 190.992751 189.838605 
z
" style="stroke:#000000;"/>
    <path clip-path="url(#p4636ed50f9)" d="M 191.209647 168.081038 
L 190.576219 167.494504 
L 190.992751 164.449977 
z
" style="stroke:#000000;"/>
    <path clip-path="url(#p4636ed50f9)" d="M 193.673605 161.542751 
L 190.992751 164.449977 
L 193.148239 164.443483 
z
" style="stroke:#000000;"/>
    <path clip-path="url(#p4636ed50f9)" d="M 191.209647 186.206346 
L 190.576219 186.796378 
L 190.927126 183.244738 
z
" style="stroke:#000000;"/>
    <path clip-path="url(#p4636ed50f9)" d="M 190.576219 167.494504 
L 191.209647 168.081038 
L 190.927126 171.044206 
z
" style="stroke:#000000;"/>
    <path clip-path="url(#p4636ed50f9)" d="M 193.754149 165.215568 
L 193.148239 164.443483 
L 193.36451 168.076694 
z
" style="stroke:#000000;"/>
    <path clip-path="url(#p4636ed50f9)" d="M 193.148239 189.84713 
L 193.754149 189.071686 
L 193.36451 186.212721 
z
" style="stroke:#000000;"/>
    <path clip-path="url(#p4636ed50f9)" d="M 191.209647 168.081038 
L 193.082803 171.041612 
L 190.927126 171.044206 
z
" style="stroke:#000000;"/>
    <path clip-path="url(#p4636ed50f9)" d="M 193.082803 171.041612 
L 191.209647 168.081038 
L 193.36451 168.076694 
z
" style="stroke:#000000;"/>
    <path clip-path="url(#p4636ed50f9)" d="M 193.36451 186.212721 
L 190.927126 183.244738 
L 193.082803 183.249364 
z
" style="stroke:#000000;"/>
    <path clip-path="url(#p4636ed50f9)" d="M 190.756245 180.212725 
L 193.082803 183.249364 
L 190.927126 183.244738 
z
" style="stroke:#000000;"/>
    <path clip-path="url(#p4636ed50f9)" d="M 190.576219 167.494504 
L 193.148239 164.443483 
L 190.992751 164.449977 
z
" style="stroke:#000000;"/>
    <path clip-path="url(#p4636ed50f9)" d="M 190.927126 171.044206 
L 192.912412 174.076364 
L 190.756245 174.077163 
z
" style="stroke:#000000;"/>
    <path clip-path="url(#p4636ed50f9)" d="M 190.927126 183.244738 
L 190.275043 183.642724 
L 190.756245 180.212725 
z
" style="stroke:#000000;"/>
    <path clip-path="url(#p4636ed50f9)" d="M 190.275043 170.64982 
L 190.927126 171.044206 
L 190.756245 174.077163 
z
" style="stroke:#000000;"/>
    <path clip-path="url(#p4636ed50f9)" d="M 192.912412 174.076364 
L 190.927126 171.044206 
L 193.082803 171.041612 
z
" style="stroke:#000000;"/>
    <path clip-path="url(#p4636ed50f9)" d="M 190.699051 177.145102 
L 192.912412 180.215557 
L 190.756245 180.212725 
z
" style="stroke:#000000;"/>
    <path clip-path="url(#p4636ed50f9)" d="M 192.732905 186.803108 
L 190.992751 189.838605 
L 193.148239 189.84713 
z
" style="stroke:#000000;"/>
    <path clip-path="url(#p4636ed50f9)" d="M 190.756245 174.077163 
L 192.855383 177.146119 
L 190.699051 177.145102 
z
" style="stroke:#000000;"/>
    <path clip-path="url(#p4636ed50f9)" d="M 190.275043 183.642724 
L 190.927126 183.244738 
L 190.576219 186.796378 
z
" style="stroke:#000000;"/>
    <path clip-path="url(#p4636ed50f9)" d="M 190.927126 171.044206 
L 190.275043 170.64982 
L 190.576219 167.494504 
z
" style="stroke:#000000;"/>
    <path clip-path="url(#p4636ed50f9)" d="M 190.992751 189.838605 
L 192.732905 186.803108 
L 190.576219 186.796378 
z
" style="stroke:#000000;"/>
    <path clip-path="url(#p4636ed50f9)" d="M 193.082803 183.249364 
L 190.756245 180.212725 
L 192.912412 180.215557 
z
" style="stroke:#000000;"/>
    <path clip-path="url(#p4636ed50f9)" d="M 192.732905 167.489808 
L 193.36451 168.076694 
L 193.148239 164.443483 
z
" style="stroke:#000000;"/>
    <path clip-path="url(#p4636ed50f9)" d="M 193.36451 186.212721 
L 192.732905 186.803108 
L 193.148239 189.84713 
z
" style="stroke:#000000;"/>
    <path clip-path="url(#p4636ed50f9)" d="M 193.36451 168.076694 
L 192.732905 167.489808 
L 193.082803 171.041612 
z
" style="stroke:#000000;"/>
    <path clip-path="url(#p4636ed50f9)" d="M 192.732905 186.803108 
L 193.36451 186.212721 
L 193.082803 183.249364 
z
" style="stroke:#000000;"/>
    <path clip-path="url(#p4636ed50f9)" d="M 190.092865 173.879702 
L 190.756245 174.077163 
L 190.699051 177.145102 
z
" style="stroke:#000000;"/>
    <path clip-path="url(#p4636ed50f9)" d="M 190.756245 180.212725 
L 190.092865 180.413848 
L 190.699051 177.145102 
z
" style="stroke:#000000;"/>
    <path clip-path="url(#p4636ed50f9)" d="M 192.855383 177.146119 
L 190.756245 174.077163 
L 192.912412 174.076364 
z
" style="stroke:#000000;"/>
    <path clip-path="url(#p4636ed50f9)" d="M 192.912412 180.215557 
L 190.699051 177.145102 
L 192.855383 177.146119 
z
" style="stroke:#000000;"/>
    <path clip-path="url(#p4636ed50f9)" d="M 193.148239 164.443483 
L 190.576219 167.494504 
L 192.732905 167.489808 
z
" style="stroke:#000000;"/>
    <path clip-path="url(#p4636ed50f9)" d="M 190.092865 180.413848 
L 190.756245 180.212725 
L 190.275043 183.642724 
z
" style="stroke:#000000;"/>
    <path clip-path="url(#p4636ed50f9)" d="M 190.756245 174.077163 
L 190.092865 173.879702 
L 190.275043 170.64982 
z
" style="stroke:#000000;"/>
    <path clip-path="url(#p4636ed50f9)" d="M 190.275043 170.64982 
L 192.732905 167.489808 
L 190.576219 167.494504 
z
" style="stroke:#000000;"/>
    <path clip-path="url(#p4636ed50f9)" d="M 193.082803 171.041612 
L 192.432594 170.646991 
L 192.912412 174.076364 
z
" style="stroke:#000000;"/>
    <path clip-path="url(#p4636ed50f9)" d="M 192.432594 183.64759 
L 193.082803 183.249364 
L 192.912412 180.215557 
z
" style="stroke:#000000;"/>
    <path clip-path="url(#p4636ed50f9)" d="M 190.031894 177.146944 
L 190.699051 177.145102 
L 190.092865 180.413848 
z
" style="stroke:#000000;"/>
    <path clip-path="url(#p4636ed50f9)" d="M 190.699051 177.145102 
L 190.031894 177.146944 
L 190.092865 173.879702 
z
" style="stroke:#000000;"/>
    <path clip-path="url(#p4636ed50f9)" d="M 190.576219 186.796378 
L 192.432594 183.64759 
L 190.275043 183.642724 
z
" style="stroke:#000000;"/>
    <path clip-path="url(#p4636ed50f9)" d="M 192.432594 183.64759 
L 190.576219 186.796378 
L 192.732905 186.803108 
z
" style="stroke:#000000;"/>
    <path clip-path="url(#p4636ed50f9)" d="M 192.432594 170.646991 
L 193.082803 171.041612 
L 192.732905 167.489808 
z
" style="stroke:#000000;"/>
    <path clip-path="url(#p4636ed50f9)" d="M 193.082803 183.249364 
L 192.432594 183.64759 
L 192.732905 186.803108 
z
" style="stroke:#000000;"/>
    <path clip-path="url(#p4636ed50f9)" d="M 192.25094 180.416803 
L 192.912412 180.215557 
L 192.855383 177.146119 
z
" style="stroke:#000000;"/>
    <path clip-path="url(#p4636ed50f9)" d="M 192.912412 174.076364 
L 192.25094 173.878786 
L 192.855383 177.146119 
z
" style="stroke:#000000;"/>
    <path clip-path="url(#p4636ed50f9)" d="M 192.732905 167.489808 
L 190.275043 170.64982 
L 192.432594 170.646991 
z
" style="stroke:#000000;"/>
    <path clip-path="url(#p4636ed50f9)" d="M 190.092865 173.879702 
L 192.432594 170.646991 
L 190.275043 170.64982 
z
" style="stroke:#000000;"/>
    <path clip-path="url(#p4636ed50f9)" d="M 190.810105 157.164397 
L 189.140122 163.37601 
L 190.254439 157.538677 
z
" style="stroke:#000000;"/>
    <path clip-path="url(#p4636ed50f9)" d="M 190.254439 157.538677 
L 189.140122 153.985059 
L 190.810105 157.164397 
z
" style="stroke:#000000;"/>
    <path clip-path="url(#p4636ed50f9)" d="M 190.275043 183.642724 
L 192.25094 180.416803 
L 190.092865 180.413848 
z
" style="stroke:#000000;"/>
    <path clip-path="url(#p4636ed50f9)" d="M 190.810105 157.164397 
L 191.300935 153.972336 
L 192.966118 157.15359 
z
" style="stroke:#000000;"/>
    <path clip-path="url(#p4636ed50f9)" d="M 191.300935 166.501034 
L 190.810105 157.164397 
L 192.966118 157.15359 
z
" style="stroke:#000000;"/>
    <path clip-path="url(#p4636ed50f9)" d="M 192.25094 173.878786 
L 192.912412 174.076364 
L 192.432594 170.646991 
z
" style="stroke:#000000;"/>
    <path clip-path="url(#p4636ed50f9)" d="M 192.912412 180.215557 
L 192.25094 180.416803 
L 192.432594 183.64759 
z
" style="stroke:#000000;"/>
    <path clip-path="url(#p4636ed50f9)" d="M 192.25094 180.416803 
L 190.275043 183.642724 
L 192.432594 183.64759 
z
" style="stroke:#000000;"/>
    <path clip-path="url(#p4636ed50f9)" d="M 190.031894 177.146944 
L 192.25094 173.878786 
L 190.092865 173.879702 
z
" style="stroke:#000000;"/>
    <path clip-path="url(#p4636ed50f9)" d="M 190.092865 180.413848 
L 192.190144 177.147963 
L 190.031894 177.146944 
z
" style="stroke:#000000;"/>
    <path clip-path="url(#p4636ed50f9)" d="M 192.432594 170.646991 
L 190.092865 173.879702 
L 192.25094 173.878786 
z
" style="stroke:#000000;"/>
    <path clip-path="url(#p4636ed50f9)" d="M 192.190144 177.147963 
L 192.855383 177.146119 
L 192.25094 173.878786 
z
" style="stroke:#000000;"/>
    <path clip-path="url(#p4636ed50f9)" d="M 192.855383 177.146119 
L 192.190144 177.147963 
L 192.25094 180.416803 
z
" style="stroke:#000000;"/>
    <path clip-path="url(#p4636ed50f9)" d="M 192.190144 177.147963 
L 190.092865 180.413848 
L 192.25094 180.416803 
z
" style="stroke:#000000;"/>
    <path clip-path="url(#p4636ed50f9)" d="M 192.25094 173.878786 
L 190.031894 177.146944 
L 192.190144 177.147963 
z
" style="stroke:#000000;"/>
    <path clip-path="url(#p4636ed50f9)" d="M 192.412049 157.528082 
L 189.140122 155.550217 
L 190.254439 157.538677 
z
" style="stroke:#000000;"/>
    <path clip-path="url(#p4636ed50f9)" d="M 189.140122 163.37601 
L 192.412049 157.528082 
L 190.254439 157.538677 
z
" style="stroke:#000000;"/>
    <path clip-path="url(#p4636ed50f9)" d="M 191.300935 153.972336 
L 192.412049 157.528082 
L 192.966118 157.15359 
z
" style="stroke:#000000;"/>
    <path clip-path="url(#p4636ed50f9)" d="M 191.300935 163.36886 
L 192.966118 157.15359 
L 192.412049 157.528082 
z
" style="stroke:#000000;"/>
    <path clip-path="url(#p4636ed50f9)" d="M 189.140122 163.37601 
L 190.810105 157.164397 
L 189.140122 166.506327 
z
" style="stroke:#000000;"/>
    <path clip-path="url(#p4636ed50f9)" d="M 191.300935 153.972336 
L 190.810105 157.164397 
L 189.140122 153.985059 
z
" style="stroke:#000000;"/>
    <path clip-path="url(#p4636ed50f9)" d="M 190.810105 157.164397 
L 191.300935 166.501034 
L 189.140122 166.506327 
z
" style="stroke:#000000;"/>
    <path clip-path="url(#p4636ed50f9)" d="M 189.140122 153.985059 
L 190.254439 157.538677 
L 189.140122 155.550217 
z
" style="stroke:#000000;"/>
    <path clip-path="url(#p4636ed50f9)" d="M 191.300935 163.36886 
L 191.300935 166.501034 
L 192.966118 157.15359 
z
" style="stroke:#000000;"/>
    <path clip-path="url(#p4636ed50f9)" d="M 189.140122 155.550217 
L 192.412049 157.528082 
L 191.300935 155.538423 
z
" style="stroke:#000000;"/>
    <path clip-path="url(#p4636ed50f9)" d="M 192.412049 157.528082 
L 189.140122 163.37601 
L 191.300935 163.36886 
z
" style="stroke:#000000;"/>
    <path clip-path="url(#p4636ed50f9)" d="M 191.300935 153.972336 
L 191.300935 155.538423 
L 192.412049 157.528082 
z
" style="stroke:#000000;"/>
    <path clip-path="url(#p4636ed50f9)" d="M 188.021811 157.474539 
L 189.140122 153.985059 
L 189.140122 155.550217 
z
" style="stroke:#000000;"/>
    <path clip-path="url(#p4636ed50f9)" d="M 191.300935 155.538423 
L 188.021811 157.474539 
L 189.140122 155.550217 
z
" style="stroke:#000000;"/>
    <path clip-path="url(#p4636ed50f9)" d="M 188.021811 157.474539 
L 191.300935 163.36886 
L 189.140122 163.37601 
z
" style="stroke:#000000;"/>
    <path clip-path="url(#p4636ed50f9)" d="M 187.46115 157.06609 
L 189.140122 163.37601 
L 189.140122 166.506327 
z
" style="stroke:#000000;"/>
    <path clip-path="url(#p4636ed50f9)" d="M 191.300935 153.972336 
L 190.185835 157.463868 
L 191.300935 155.538423 
z
" style="stroke:#000000;"/>
    <path clip-path="url(#p4636ed50f9)" d="M 189.140122 153.985059 
L 189.626783 157.055167 
L 191.300935 153.972336 
z
" style="stroke:#000000;"/>
    <path clip-path="url(#p4636ed50f9)" d="M 189.626783 157.055167 
L 189.140122 166.506327 
L 191.300935 166.501034 
z
" style="stroke:#000000;"/>
    <path clip-path="url(#p4636ed50f9)" d="M 191.300935 163.36886 
L 189.626783 157.055167 
L 191.300935 166.501034 
z
" style="stroke:#000000;"/>
    <path clip-path="url(#p4636ed50f9)" d="M 189.140122 163.37601 
L 187.46115 157.06609 
L 188.021811 157.474539 
z
" style="stroke:#000000;"/>
    <path clip-path="url(#p4636ed50f9)" d="M 189.140122 153.985059 
L 188.021811 157.474539 
L 187.46115 157.06609 
z
" style="stroke:#000000;"/>
    <path clip-path="url(#p4636ed50f9)" d="M 188.021811 157.474539 
L 191.300935 155.538423 
L 190.185835 157.463868 
z
" style="stroke:#000000;"/>
    <path clip-path="url(#p4636ed50f9)" d="M 191.300935 163.36886 
L 188.021811 157.474539 
L 190.185835 157.463868 
z
" style="stroke:#000000;"/>
    <path clip-path="url(#p4636ed50f9)" d="M 188.184461 173.874961 
L 190.409175 177.1529 
L 188.245794 177.151875 
z
" style="stroke:#000000;"/>
    <path clip-path="url(#p4636ed50f9)" d="M 188.245794 177.151875 
L 190.348018 180.4321 
L 188.184461 180.429128 
z
" style="stroke:#000000;"/>
    <path clip-path="url(#p4636ed50f9)" d="M 187.573363 177.153732 
L 188.245794 177.151875 
L 188.184461 180.429128 
z
" style="stroke:#000000;"/>
    <path clip-path="url(#p4636ed50f9)" d="M 188.245794 177.151875 
L 187.573363 177.153732 
L 188.184461 173.874961 
z
" style="stroke:#000000;"/>
    <path clip-path="url(#p4636ed50f9)" d="M 188.001058 170.632374 
L 190.348018 173.874039 
L 188.184461 173.874961 
z
" style="stroke:#000000;"/>
    <path clip-path="url(#p4636ed50f9)" d="M 190.348018 180.4321 
L 188.245794 177.151875 
L 190.409175 177.1529 
z
" style="stroke:#000000;"/>
    <path clip-path="url(#p4636ed50f9)" d="M 190.409175 177.1529 
L 188.184461 173.874961 
L 190.348018 173.874039 
z
" style="stroke:#000000;"/>
    <path clip-path="url(#p4636ed50f9)" d="M 188.184461 180.429128 
L 190.165141 183.677629 
L 188.001058 183.672728 
z
" style="stroke:#000000;"/>
    <path clip-path="url(#p4636ed50f9)" d="M 187.515583 180.237651 
L 188.184461 180.429128 
L 188.001058 183.672728 
z
" style="stroke:#000000;"/>
    <path clip-path="url(#p4636ed50f9)" d="M 188.184461 173.874961 
L 187.515583 174.070132 
L 188.001058 170.632374 
z
" style="stroke:#000000;"/>
    <path clip-path="url(#p4636ed50f9)" d="M 189.626783 157.055167 
L 189.140122 153.985059 
L 187.46115 157.06609 
z
" style="stroke:#000000;"/>
    <path clip-path="url(#p4636ed50f9)" d="M 189.140122 166.506327 
L 189.626783 157.055167 
L 187.46115 157.06609 
z
" style="stroke:#000000;"/>
    <path clip-path="url(#p4636ed50f9)" d="M 190.165141 183.677629 
L 188.184461 180.429128 
L 190.348018 180.4321 
z
" style="stroke:#000000;"/>
    <path clip-path="url(#p4636ed50f9)" d="M 190.185835 157.463868 
L 191.300935 153.972336 
L 189.626783 157.055167 
z
" style="stroke:#000000;"/>
    <path clip-path="url(#p4636ed50f9)" d="M 189.626783 157.055167 
L 191.300935 163.36886 
L 190.185835 157.463868 
z
" style="stroke:#000000;"/>
    <path clip-path="url(#p4636ed50f9)" d="M 190.348018 173.874039 
L 188.001058 170.632374 
L 190.165141 170.629524 
z
" style="stroke:#000000;"/>
    <path clip-path="url(#p4636ed50f9)" d="M 187.697383 167.457811 
L 190.165141 170.629524 
L 188.001058 170.632374 
z
" style="stroke:#000000;"/>
    <path clip-path="url(#p4636ed50f9)" d="M 187.515583 174.070132 
L 188.184461 173.874961 
L 187.573363 177.153732 
z
" style="stroke:#000000;"/>
    <path clip-path="url(#p4636ed50f9)" d="M 188.184461 180.429128 
L 187.515583 180.237651 
L 187.573363 177.153732 
z
" style="stroke:#000000;"/>
    <path clip-path="url(#p4636ed50f9)" d="M 187.342821 183.289787 
L 188.001058 183.672728 
L 187.697383 186.848968 
z
" style="stroke:#000000;"/>
    <path clip-path="url(#p4636ed50f9)" d="M 188.001058 170.632374 
L 187.342821 171.01895 
L 187.697383 167.457811 
z
" style="stroke:#000000;"/>
    <path clip-path="url(#p4636ed50f9)" d="M 188.001058 183.672728 
L 189.862338 186.855761 
L 187.697383 186.848968 
z
" style="stroke:#000000;"/>
    <path clip-path="url(#p4636ed50f9)" d="M 189.862338 186.855761 
L 188.001058 183.672728 
L 190.165141 183.677629 
z
" style="stroke:#000000;"/>
    <path clip-path="url(#p4636ed50f9)" d="M 189.738674 177.154759 
L 190.409175 177.1529 
L 190.348018 173.874039 
z
" style="stroke:#000000;"/>
    <path clip-path="url(#p4636ed50f9)" d="M 190.409175 177.1529 
L 189.738674 177.154759 
L 190.348018 180.4321 
z
" style="stroke:#000000;"/>
    <path clip-path="url(#p4636ed50f9)" d="M 188.001058 183.672728 
L 187.342821 183.289787 
L 187.515583 180.237651 
z
" style="stroke:#000000;"/>
    <path clip-path="url(#p4636ed50f9)" d="M 187.342821 171.01895 
L 188.001058 170.632374 
L 187.515583 174.070132 
z
" style="stroke:#000000;"/>
    <path clip-path="url(#p4636ed50f9)" d="M 190.165141 170.629524 
L 187.697383 167.457811 
L 189.862338 167.453072 
z
" style="stroke:#000000;"/>
    <path clip-path="url(#p4636ed50f9)" d="M 189.68106 174.069325 
L 190.348018 173.874039 
L 190.165141 170.629524 
z
" style="stroke:#000000;"/>
    <path clip-path="url(#p4636ed50f9)" d="M 190.348018 180.4321 
L 189.68106 180.240513 
L 190.165141 183.677629 
z
" style="stroke:#000000;"/>
    <path clip-path="url(#p4636ed50f9)" d="M 187.276424 164.384386 
L 189.862338 167.453072 
L 187.697383 167.457811 
z
" style="stroke:#000000;"/>
    <path clip-path="url(#p4636ed50f9)" d="M 187.515583 180.237651 
L 189.738674 177.154759 
L 187.573363 177.153732 
z
" style="stroke:#000000;"/>
    <path clip-path="url(#p4636ed50f9)" d="M 187.573363 177.153732 
L 189.68106 174.069325 
L 187.515583 174.070132 
z
" style="stroke:#000000;"/>
    <path clip-path="url(#p4636ed50f9)" d="M 189.68106 180.240513 
L 190.348018 180.4321 
L 189.738674 177.154759 
z
" style="stroke:#000000;"/>
    <path clip-path="url(#p4636ed50f9)" d="M 190.348018 173.874039 
L 189.68106 174.069325 
L 189.738674 177.154759 
z
" style="stroke:#000000;"/>
    <path clip-path="url(#p4636ed50f9)" d="M 187.697383 186.848968 
L 187.056775 186.278346 
L 187.342821 183.289787 
z
" style="stroke:#000000;"/>
    <path clip-path="url(#p4636ed50f9)" d="M 187.056775 168.031971 
L 187.697383 167.457811 
L 187.342821 171.01895 
z
" style="stroke:#000000;"/>
    <path clip-path="url(#p4636ed50f9)" d="M 187.056775 186.278346 
L 187.697383 186.848968 
L 187.276424 189.924717 
z
" style="stroke:#000000;"/>
    <path clip-path="url(#p4636ed50f9)" d="M 187.697383 167.457811 
L 187.056775 168.031971 
L 187.276424 164.384386 
z
" style="stroke:#000000;"/>
    <path clip-path="url(#p4636ed50f9)" d="M 187.342821 183.289787 
L 189.68106 180.240513 
L 187.515583 180.237651 
z
" style="stroke:#000000;"/>
    <path clip-path="url(#p4636ed50f9)" d="M 189.442587 189.933345 
L 187.697383 186.848968 
L 189.862338 186.855761 
z
" style="stroke:#000000;"/>
    <path clip-path="url(#p4636ed50f9)" d="M 189.508794 171.016327 
L 190.165141 170.629524 
L 189.862338 167.453072 
z
" style="stroke:#000000;"/>
    <path clip-path="url(#p4636ed50f9)" d="M 190.165141 183.677629 
L 189.508794 183.294466 
L 189.862338 186.855761 
z
" style="stroke:#000000;"/>
    <path clip-path="url(#p4636ed50f9)" d="M 189.68106 174.069325 
L 187.573363 177.153732 
L 189.738674 177.154759 
z
" style="stroke:#000000;"/>
    <path clip-path="url(#p4636ed50f9)" d="M 187.697383 186.848968 
L 189.442587 189.933345 
L 187.276424 189.924717 
z
" style="stroke:#000000;"/>
    <path clip-path="url(#p4636ed50f9)" d="M 189.738674 177.154759 
L 187.515583 180.237651 
L 189.68106 180.240513 
z
" style="stroke:#000000;"/>
    <path clip-path="url(#p4636ed50f9)" d="M 187.515583 174.070132 
L 189.508794 171.016327 
L 187.342821 171.01895 
z
" style="stroke:#000000;"/>
    <path clip-path="url(#p4636ed50f9)" d="M 190.165141 170.629524 
L 189.508794 171.016327 
L 189.68106 174.069325 
z
" style="stroke:#000000;"/>
    <path clip-path="url(#p4636ed50f9)" d="M 189.508794 183.294466 
L 190.165141 183.677629 
L 189.68106 180.240513 
z
" style="stroke:#000000;"/>
    <path clip-path="url(#p4636ed50f9)" d="M 189.508794 171.016327 
L 187.515583 174.070132 
L 189.68106 174.069325 
z
" style="stroke:#000000;"/>
    <path clip-path="url(#p4636ed50f9)" d="M 189.862338 167.453072 
L 187.276424 164.384386 
L 189.442587 164.377815 
z
" style="stroke:#000000;"/>
    <path clip-path="url(#p4636ed50f9)" d="M 189.68106 180.240513 
L 187.342821 183.289787 
L 189.508794 183.294466 
z
" style="stroke:#000000;"/>
    <path clip-path="url(#p4636ed50f9)" d="M 187.056775 186.278346 
L 189.508794 183.294466 
L 187.342821 183.289787 
z
" style="stroke:#000000;"/>
    <path clip-path="url(#p4636ed50f9)" d="M 187.342821 171.01895 
L 189.223568 168.027568 
L 187.056775 168.031971 
z
" style="stroke:#000000;"/>
    <path clip-path="url(#p4636ed50f9)" d="M 189.223568 168.027568 
L 187.342821 171.01895 
L 189.508794 171.016327 
z
" style="stroke:#000000;"/>
    <path clip-path="url(#p4636ed50f9)" d="M 187.276424 189.924717 
L 186.660275 189.172047 
L 187.056775 186.278346 
z
" style="stroke:#000000;"/>
    <path clip-path="url(#p4636ed50f9)" d="M 186.660275 165.140459 
L 187.276424 164.384386 
L 187.056775 168.031971 
z
" style="stroke:#000000;"/>
    <path clip-path="url(#p4636ed50f9)" d="M 189.862338 167.453072 
L 189.223568 168.027568 
L 189.508794 171.016327 
z
" style="stroke:#000000;"/>
    <path clip-path="url(#p4636ed50f9)" d="M 189.223568 186.284806 
L 189.862338 186.855761 
L 189.508794 183.294466 
z
" style="stroke:#000000;"/>
    <path clip-path="url(#p4636ed50f9)" d="M 186.742318 161.444279 
L 189.442587 164.377815 
L 187.276424 164.384386 
z
" style="stroke:#000000;"/>
    <path clip-path="url(#p4636ed50f9)" d="M 189.223568 168.027568 
L 189.862338 167.453072 
L 189.442587 164.377815 
z
" style="stroke:#000000;"/>
    <path clip-path="url(#p4636ed50f9)" d="M 189.862338 186.855761 
L 189.223568 186.284806 
L 189.442587 189.933345 
z
" style="stroke:#000000;"/>
    <path clip-path="url(#p4636ed50f9)" d="M 189.508794 183.294466 
L 187.056775 186.278346 
L 189.223568 186.284806 
z
" style="stroke:#000000;"/>
    <path clip-path="url(#p4636ed50f9)" d="M 186.660275 189.172047 
L 187.276424 189.924717 
L 186.742318 192.867774 
z
" style="stroke:#000000;"/>
    <path clip-path="url(#p4636ed50f9)" d="M 187.276424 164.384386 
L 186.660275 165.140459 
L 186.742318 161.444279 
z
" style="stroke:#000000;"/>
    <path clip-path="url(#p4636ed50f9)" d="M 188.910014 192.878163 
L 187.276424 189.924717 
L 189.442587 189.933345 
z
" style="stroke:#000000;"/>
    <path clip-path="url(#p4636ed50f9)" d="M 186.660275 189.172047 
L 189.223568 186.284806 
L 187.056775 186.278346 
z
" style="stroke:#000000;"/>
    <path clip-path="url(#p4636ed50f9)" d="M 187.276424 189.924717 
L 188.910014 192.878163 
L 186.742318 192.867774 
z
" style="stroke:#000000;"/>
    <path clip-path="url(#p4636ed50f9)" d="M 188.828205 165.134331 
L 187.056775 168.031971 
L 189.223568 168.027568 
z
" style="stroke:#000000;"/>
    <path clip-path="url(#p4636ed50f9)" d="M 189.442587 164.377815 
L 186.742318 161.444279 
L 188.910014 161.43595 
z
" style="stroke:#000000;"/>
    <path clip-path="url(#p4636ed50f9)" d="M 187.056775 168.031971 
L 188.828205 165.134331 
L 186.660275 165.140459 
z
" style="stroke:#000000;"/>
    <path clip-path="url(#p4636ed50f9)" d="M 189.442587 164.377815 
L 188.828205 165.134331 
L 189.223568 168.027568 
z
" style="stroke:#000000;"/>
    <path clip-path="url(#p4636ed50f9)" d="M 188.828205 189.180235 
L 189.442587 189.933345 
L 189.223568 186.284806 
z
" style="stroke:#000000;"/>
    <path clip-path="url(#p4636ed50f9)" d="M 189.223568 186.284806 
L 186.660275 189.172047 
L 188.828205 189.180235 
z
" style="stroke:#000000;"/>
    <path clip-path="url(#p4636ed50f9)" d="M 188.828205 165.134331 
L 189.442587 164.377815 
L 188.910014 161.43595 
z
" style="stroke:#000000;"/>
    <path clip-path="url(#p4636ed50f9)" d="M 189.442587 189.933345 
L 188.828205 189.180235 
L 188.910014 192.878163 
z
" style="stroke:#000000;"/>
    <path clip-path="url(#p4636ed50f9)" d="M 186.742318 192.867774 
L 186.157256 191.940484 
L 186.660275 189.172047 
z
" style="stroke:#000000;"/>
    <path clip-path="url(#p4636ed50f9)" d="M 186.157256 162.3748 
L 186.742318 161.444279 
L 186.660275 165.140459 
z
" style="stroke:#000000;"/>
    <path clip-path="url(#p4636ed50f9)" d="M 186.100369 158.668636 
L 188.910014 161.43595 
L 186.742318 161.444279 
z
" style="stroke:#000000;"/>
    <path clip-path="url(#p4636ed50f9)" d="M 186.157256 191.940484 
L 188.828205 189.180235 
L 186.660275 189.172047 
z
" style="stroke:#000000;"/>
    <path clip-path="url(#p4636ed50f9)" d="M 186.100369 195.646962 
L 186.157256 191.940484 
L 186.742318 192.867774 
z
" style="stroke:#000000;"/>
    <path clip-path="url(#p4636ed50f9)" d="M 186.157256 162.3748 
L 186.100369 158.668636 
L 186.742318 161.444279 
z
" style="stroke:#000000;"/>
    <path clip-path="url(#p4636ed50f9)" d="M 188.269905 195.659018 
L 186.742318 192.867774 
L 188.910014 192.878163 
z
" style="stroke:#000000;"/>
    <path clip-path="url(#p4636ed50f9)" d="M 188.326629 162.367019 
L 186.660275 165.140459 
L 188.828205 165.134331 
z
" style="stroke:#000000;"/>
    <path clip-path="url(#p4636ed50f9)" d="M 186.660275 165.140459 
L 188.326629 162.367019 
L 186.157256 162.3748 
z
" style="stroke:#000000;"/>
    <path clip-path="url(#p4636ed50f9)" d="M 186.742318 192.867774 
L 188.269905 195.659018 
L 186.100369 195.646962 
z
" style="stroke:#000000;"/>
    <path clip-path="url(#p4636ed50f9)" d="M 188.910014 161.43595 
L 188.326629 162.367019 
L 188.828205 165.134331 
z
" style="stroke:#000000;"/>
    <path clip-path="url(#p4636ed50f9)" d="M 188.326629 191.950329 
L 188.910014 192.878163 
L 188.828205 189.180235 
z
" style="stroke:#000000;"/>
    <path clip-path="url(#p4636ed50f9)" d="M 188.828205 189.180235 
L 186.157256 191.940484 
L 188.326629 191.950329 
z
" style="stroke:#000000;"/>
    <path clip-path="url(#p4636ed50f9)" d="M 188.910014 161.43595 
L 186.100369 158.668636 
L 188.269905 158.658644 
z
" style="stroke:#000000;"/>
    <path clip-path="url(#p4636ed50f9)" d="M 188.269905 158.658644 
L 188.326629 162.367019 
L 188.910014 161.43595 
z
" style="stroke:#000000;"/>
    <path clip-path="url(#p4636ed50f9)" d="M 188.326629 191.950329 
L 188.269905 195.659018 
L 188.910014 192.878163 
z
" style="stroke:#000000;"/>
    <path clip-path="url(#p4636ed50f9)" d="M 186.100369 195.646962 
L 185.552731 194.554403 
L 186.157256 191.940484 
z
" style="stroke:#000000;"/>
    <path clip-path="url(#p4636ed50f9)" d="M 185.552731 159.764219 
L 186.100369 158.668636 
L 186.157256 162.3748 
z
" style="stroke:#000000;"/>
    <path clip-path="url(#p4636ed50f9)" d="M 185.552731 194.554403 
L 188.326629 191.950329 
L 186.157256 191.940484 
z
" style="stroke:#000000;"/>
    <path clip-path="url(#p4636ed50f9)" d="M 185.356968 156.086868 
L 188.269905 158.658644 
L 186.100369 158.668636 
z
" style="stroke:#000000;"/>
    <path clip-path="url(#p4636ed50f9)" d="M 187.723836 159.754872 
L 186.157256 162.3748 
L 188.326629 162.367019 
z
" style="stroke:#000000;"/>
    <path clip-path="url(#p4636ed50f9)" d="M 185.356968 198.232835 
L 185.552731 194.554403 
L 186.100369 195.646962 
z
" style="stroke:#000000;"/>
    <path clip-path="url(#p4636ed50f9)" d="M 185.552731 159.764219 
L 185.356968 156.086868 
L 186.100369 158.668636 
z
" style="stroke:#000000;"/>
    <path clip-path="url(#p4636ed50f9)" d="M 186.157256 162.3748 
L 187.723836 159.754872 
L 185.552731 159.764219 
z
" style="stroke:#000000;"/>
    <path clip-path="url(#p4636ed50f9)" d="M 187.528635 198.246449 
L 186.100369 195.646962 
L 188.269905 195.659018 
z
" style="stroke:#000000;"/>
    <path clip-path="url(#p4636ed50f9)" d="M 188.269905 158.658644 
L 187.723836 159.754872 
L 188.326629 162.367019 
z
" style="stroke:#000000;"/>
    <path clip-path="url(#p4636ed50f9)" d="M 187.723836 194.565817 
L 188.269905 195.659018 
L 188.326629 191.950329 
z
" style="stroke:#000000;"/>
    <path clip-path="url(#p4636ed50f9)" d="M 188.326629 191.950329 
L 185.552731 194.554403 
L 187.723836 194.565817 
z
" style="stroke:#000000;"/>
    <path clip-path="url(#p4636ed50f9)" d="M 186.100369 195.646962 
L 187.528635 198.246449 
L 185.356968 198.232835 
z
" style="stroke:#000000;"/>
    <path clip-path="url(#p4636ed50f9)" d="M 188.269905 158.658644 
L 185.356968 156.086868 
L 187.528635 156.075323 
z
" style="stroke:#000000;"/>
    <path clip-path="url(#p4636ed50f9)" d="M 187.528635 156.075323 
L 187.723836 159.754872 
L 188.269905 158.658644 
z
" style="stroke:#000000;"/>
    <path clip-path="url(#p4636ed50f9)" d="M 187.723836 194.565817 
L 187.528635 198.246449 
L 188.269905 195.659018 
z
" style="stroke:#000000;"/>
    <path clip-path="url(#p4636ed50f9)" d="M 185.356968 198.232835 
L 184.852758 196.985759 
L 185.552731 194.554403 
z
" style="stroke:#000000;"/>
    <path clip-path="url(#p4636ed50f9)" d="M 184.852758 157.336728 
L 185.356968 156.086868 
L 185.552731 159.764219 
z
" style="stroke:#000000;"/>
    <path clip-path="url(#p4636ed50f9)" d="M 184.852758 196.985759 
L 187.723836 194.565817 
L 185.552731 194.554403 
z
" style="stroke:#000000;"/>
    <path clip-path="url(#p4636ed50f9)" d="M 184.938549 154.907704 
L 187.528635 156.075323 
L 185.356968 156.086868 
z
" style="stroke:#000000;"/>
    <path clip-path="url(#p4636ed50f9)" d="M 187.02587 157.32592 
L 185.552731 159.764219 
L 187.723836 159.754872 
z
" style="stroke:#000000;"/>
    <path clip-path="url(#p4636ed50f9)" d="M 184.642689 199.005645 
L 185.356968 198.232835 
L 184.938549 199.414309 
z
" style="stroke:#000000;"/>
    <path clip-path="url(#p4636ed50f9)" d="M 185.356968 156.086868 
L 184.642689 155.318002 
L 184.938549 154.907704 
z
" style="stroke:#000000;"/>
    <path clip-path="url(#p4636ed50f9)" d="M 187.111414 199.428638 
L 185.356968 198.232835 
L 187.528635 198.246449 
z
" style="stroke:#000000;"/>
    <path clip-path="url(#p4636ed50f9)" d="M 185.552731 159.764219 
L 187.02587 157.32592 
L 184.852758 157.336728 
z
" style="stroke:#000000;"/>
    <path clip-path="url(#p4636ed50f9)" d="M 185.356968 198.232835 
L 187.111414 199.428638 
L 184.938549 199.414309 
z
" style="stroke:#000000;"/>
    <path clip-path="url(#p4636ed50f9)" d="M 185.356968 198.232835 
L 184.642689 199.005645 
L 184.852758 196.985759 
z
" style="stroke:#000000;"/>
    <path clip-path="url(#p4636ed50f9)" d="M 184.642689 155.318002 
L 185.356968 156.086868 
L 184.852758 157.336728 
z
" style="stroke:#000000;"/>
    <path clip-path="url(#p4636ed50f9)" d="M 187.528635 156.075323 
L 187.02587 157.32592 
L 187.723836 159.754872 
z
" style="stroke:#000000;"/>
    <path clip-path="url(#p4636ed50f9)" d="M 187.02587 196.998639 
L 187.528635 198.246449 
L 187.723836 194.565817 
z
" style="stroke:#000000;"/>
    <path clip-path="url(#p4636ed50f9)" d="M 187.723836 194.565817 
L 184.852758 196.985759 
L 187.02587 196.998639 
z
" style="stroke:#000000;"/>
    <path clip-path="url(#p4636ed50f9)" d="M 187.528635 156.075323 
L 184.938549 154.907704 
L 187.111414 154.895447 
z
" style="stroke:#000000;"/>
    <path clip-path="url(#p4636ed50f9)" d="M 187.111414 199.428638 
L 184.642689 199.005645 
L 184.938549 199.414309 
z
" style="stroke:#000000;"/>
    <path clip-path="url(#p4636ed50f9)" d="M 186.816402 155.305984 
L 184.938549 154.907704 
L 184.642689 155.318002 
z
" style="stroke:#000000;"/>
    <path clip-path="url(#p4636ed50f9)" d="M 184.852758 196.985759 
L 184.642689 199.005645 
L 184.33165 198.454944 
z
" style="stroke:#000000;"/>
    <path clip-path="url(#p4636ed50f9)" d="M 184.642689 155.318002 
L 184.852758 157.336728 
L 184.33165 155.870422 
z
" style="stroke:#000000;"/>
    <path clip-path="url(#p4636ed50f9)" d="M 186.816402 155.305984 
L 187.528635 156.075323 
L 187.111414 154.895447 
z
" style="stroke:#000000;"/>
    <path clip-path="url(#p4636ed50f9)" d="M 187.528635 198.246449 
L 186.816402 199.019737 
L 187.111414 199.428638 
z
" style="stroke:#000000;"/>
    <path clip-path="url(#p4636ed50f9)" d="M 184.938549 154.907704 
L 186.816402 155.305984 
L 187.111414 154.895447 
z
" style="stroke:#000000;"/>
    <path clip-path="url(#p4636ed50f9)" d="M 187.528635 156.075323 
L 186.816402 155.305984 
L 187.02587 157.32592 
z
" style="stroke:#000000;"/>
    <path clip-path="url(#p4636ed50f9)" d="M 186.816402 199.019737 
L 187.528635 198.246449 
L 187.02587 196.998639 
z
" style="stroke:#000000;"/>
    <path clip-path="url(#p4636ed50f9)" d="M 187.02587 157.32592 
L 184.33165 155.870422 
L 184.852758 157.336728 
z
" style="stroke:#000000;"/>
    <path clip-path="url(#p4636ed50f9)" d="M 184.642689 199.005645 
L 187.111414 199.428638 
L 186.816402 199.019737 
z
" style="stroke:#000000;"/>
    <path clip-path="url(#p4636ed50f9)" d="M 184.852758 196.985759 
L 186.506254 198.468712 
L 187.02587 196.998639 
z
" style="stroke:#000000;"/>
    <path clip-path="url(#p4636ed50f9)" d="M 186.816402 199.019737 
L 184.33165 198.454944 
L 184.642689 199.005645 
z
" style="stroke:#000000;"/>
    <path clip-path="url(#p4636ed50f9)" d="M 186.506254 198.468712 
L 184.852758 196.985759 
L 184.33165 198.454944 
z
" style="stroke:#000000;"/>
    <path clip-path="url(#p4636ed50f9)" d="M 186.506254 155.858728 
L 184.642689 155.318002 
L 184.33165 155.870422 
z
" style="stroke:#000000;"/>
    <path clip-path="url(#p4636ed50f9)" d="M 184.642689 155.318002 
L 186.506254 155.858728 
L 186.816402 155.305984 
z
" style="stroke:#000000;"/>
    <path clip-path="url(#p4636ed50f9)" d="M 184.33165 155.870422 
L 187.02587 157.32592 
L 186.506254 155.858728 
z
" style="stroke:#000000;"/>
    <path clip-path="url(#p4636ed50f9)" d="M 187.02587 157.32592 
L 186.816402 155.305984 
L 186.506254 155.858728 
z
" style="stroke:#000000;"/>
    <path clip-path="url(#p4636ed50f9)" d="M 186.816402 199.019737 
L 187.02587 196.998639 
L 186.506254 198.468712 
z
" style="stroke:#000000;"/>
    <path clip-path="url(#p4636ed50f9)" d="M 184.33165 198.454944 
L 186.816402 199.019737 
L 186.506254 198.468712 
z
" style="stroke:#000000;"/>
   </g>
  </g>
 </g>
 <defs>
  <clipPath id="p4636ed50f9">
   <rect height="271.8" width="279" x="45" y="43.2"/>
  </clipPath>
 </defs>
</svg>
