<?xml version="1.0" encoding="utf-8" standalone="no"?>
<!DOCTYPE svg PUBLIC "-//W3C//DTD SVG 1.1//EN"
  "http://www.w3.org/Graphics/SVG/1.1/DTD/svg11.dtd">
<!-- Created with matplotlib (https://matplotlib.org/) -->
<svg height="360pt" version="1.1" viewBox="0 0 360 360" width="360pt" xmlns="http://www.w3.org/2000/svg" xmlns:xlink="http://www.w3.org/1999/xlink">
 <defs>
  <style type="text/css">
*{stroke-linecap:butt;stroke-linejoin:round;}
  </style>
 </defs>
 <g id="figure_1">
  <g id="patch_1">
   <path d="M 45 315 
L 324 315 
L 324 43.2 
L 45 43.2 
z
" style="fill:#ffffff;"/>
  </g>
  <g id="axes_1">
   <g id="Poly3DCollection_1">
    <path clip-path="url(#pdaf81cfa4c)" d="M 216.940244 244.882898 
L 215.615377 238.682898 
L 218.896956 243.070887 
z
" style="stroke:#000000;"/>
    <path clip-path="url(#pdaf81cfa4c)" d="M 215.615377 115.567819 
L 216.940244 109.365496 
L 218.896956 111.174078 
z
" style="stroke:#000000;"/>
    <path clip-path="url(#pdaf81cfa4c)" d="M 223.472249 243.331437 
L 216.940244 244.882898 
L 218.896956 243.070887 
z
" style="stroke:#000000;"/>
    <path clip-path="url(#pdaf81cfa4c)" d="M 223.472249 110.92659 
L 215.615377 115.567819 
L 218.896956 111.174078 
z
" style="stroke:#000000;"/>
    <path clip-path="url(#pdaf81cfa4c)" d="M 221.512639 109.110784 
L 218.896956 111.174078 
L 216.940244 109.365496 
z
" style="stroke:#000000;"/>
    <path clip-path="url(#pdaf81cfa4c)" d="M 216.940244 244.882898 
L 212.424383 242.722731 
L 215.615377 238.682898 
z
" style="stroke:#000000;"/>
    <path clip-path="url(#pdaf81cfa4c)" d="M 212.424383 111.533578 
L 216.940244 109.365496 
L 215.615377 115.567819 
z
" style="stroke:#000000;"/>
    <path clip-path="url(#pdaf81cfa4c)" d="M 212.424383 242.722731 
L 216.940244 244.882898 
L 215.073538 246.253813 
z
" style="stroke:#000000;"/>
    <path clip-path="url(#pdaf81cfa4c)" d="M 216.940244 109.365496 
L 212.424383 111.533578 
L 215.073538 107.997854 
z
" style="stroke:#000000;"/>
    <path clip-path="url(#pdaf81cfa4c)" d="M 220.185799 238.92696 
L 218.896956 243.070887 
L 215.615377 238.682898 
z
" style="stroke:#000000;"/>
    <path clip-path="url(#pdaf81cfa4c)" d="M 221.512639 245.150699 
L 215.073538 246.253813 
L 216.940244 244.882898 
z
" style="stroke:#000000;"/>
    <path clip-path="url(#pdaf81cfa4c)" d="M 218.896956 111.174078 
L 221.512639 109.110784 
L 223.472249 110.92659 
z
" style="stroke:#000000;"/>
    <path clip-path="url(#pdaf81cfa4c)" d="M 219.643152 107.737616 
L 216.940244 109.365496 
L 215.073538 107.997854 
z
" style="stroke:#000000;"/>
    <path clip-path="url(#pdaf81cfa4c)" d="M 212.424383 242.722731 
L 211.18124 231.327106 
L 215.615377 238.682898 
z
" style="stroke:#000000;"/>
    <path clip-path="url(#pdaf81cfa4c)" d="M 211.18124 122.931383 
L 212.424383 111.533578 
L 215.615377 115.567819 
z
" style="stroke:#000000;"/>
    <path clip-path="url(#pdaf81cfa4c)" d="M 218.896956 243.070887 
L 220.185799 238.92696 
L 223.472249 243.331437 
z
" style="stroke:#000000;"/>
    <path clip-path="url(#pdaf81cfa4c)" d="M 216.940244 244.882898 
L 223.472249 243.331437 
L 221.512639 245.150699 
z
" style="stroke:#000000;"/>
    <path clip-path="url(#pdaf81cfa4c)" d="M 215.615377 115.567819 
L 223.472249 110.92659 
L 220.185799 115.336862 
z
" style="stroke:#000000;"/>
    <path clip-path="url(#pdaf81cfa4c)" d="M 212.424383 111.533578 
L 219.643152 107.737616 
L 215.073538 107.997854 
z
" style="stroke:#000000;"/>
    <path clip-path="url(#pdaf81cfa4c)" d="M 211.18124 231.327106 
L 220.185799 238.92696 
L 215.615377 238.682898 
z
" style="stroke:#000000;"/>
    <path clip-path="url(#pdaf81cfa4c)" d="M 216.940244 109.365496 
L 219.643152 107.737616 
L 221.512639 109.110784 
z
" style="stroke:#000000;"/>
    <path clip-path="url(#pdaf81cfa4c)" d="M 215.073538 246.253813 
L 216.990028 242.98281 
L 212.424383 242.722731 
z
" style="stroke:#000000;"/>
    <path clip-path="url(#pdaf81cfa4c)" d="M 215.073538 246.253813 
L 221.512639 245.150699 
L 219.643152 246.527163 
z
" style="stroke:#000000;"/>
    <path clip-path="url(#pdaf81cfa4c)" d="M 207.690986 234.892884 
L 211.18124 231.327106 
L 212.424383 242.722731 
z
" style="stroke:#000000;"/>
    <path clip-path="url(#pdaf81cfa4c)" d="M 211.18124 122.931383 
L 207.690986 119.371721 
L 212.424383 111.533578 
z
" style="stroke:#000000;"/>
    <path clip-path="url(#pdaf81cfa4c)" d="M 215.615377 115.567819 
L 215.745012 122.728371 
L 211.18124 122.931383 
z
" style="stroke:#000000;"/>
    <path clip-path="url(#pdaf81cfa4c)" d="M 221.512639 109.110784 
L 220.185799 115.336862 
L 223.472249 110.92659 
z
" style="stroke:#000000;"/>
    <path clip-path="url(#pdaf81cfa4c)" d="M 220.185799 238.92696 
L 221.512639 245.150699 
L 223.472249 243.331437 
z
" style="stroke:#000000;"/>
    <path clip-path="url(#pdaf81cfa4c)" d="M 216.990028 242.98281 
L 215.073538 246.253813 
L 219.643152 246.527163 
z
" style="stroke:#000000;"/>
    <path clip-path="url(#pdaf81cfa4c)" d="M 215.745012 122.728371 
L 215.615377 115.567819 
L 220.185799 115.336862 
z
" style="stroke:#000000;"/>
    <path clip-path="url(#pdaf81cfa4c)" d="M 207.690986 234.892884 
L 207.327354 223.32739 
L 211.18124 231.327106 
z
" style="stroke:#000000;"/>
    <path clip-path="url(#pdaf81cfa4c)" d="M 207.327354 130.937853 
L 207.690986 119.371721 
L 211.18124 122.931383 
z
" style="stroke:#000000;"/>
    <path clip-path="url(#pdaf81cfa4c)" d="M 207.690986 119.371721 
L 216.990028 111.286648 
L 212.424383 111.533578 
z
" style="stroke:#000000;"/>
    <path clip-path="url(#pdaf81cfa4c)" d="M 219.643152 107.737616 
L 212.424383 111.533578 
L 216.990028 111.286648 
z
" style="stroke:#000000;"/>
    <path clip-path="url(#pdaf81cfa4c)" d="M 220.185799 238.92696 
L 211.18124 231.327106 
L 215.745012 231.543282 
z
" style="stroke:#000000;"/>
    <path clip-path="url(#pdaf81cfa4c)" d="M 221.512639 109.110784 
L 216.990028 111.286648 
L 220.185799 115.336862 
z
" style="stroke:#000000;"/>
    <path clip-path="url(#pdaf81cfa4c)" d="M 216.990028 242.98281 
L 221.512639 245.150699 
L 220.185799 238.92696 
z
" style="stroke:#000000;"/>
    <path clip-path="url(#pdaf81cfa4c)" d="M 207.327354 223.32739 
L 215.745012 231.543282 
L 211.18124 231.327106 
z
" style="stroke:#000000;"/>
    <path clip-path="url(#pdaf81cfa4c)" d="M 216.990028 111.286648 
L 221.512639 109.110784 
L 219.643152 107.737616 
z
" style="stroke:#000000;"/>
    <path clip-path="url(#pdaf81cfa4c)" d="M 221.512639 245.150699 
L 216.990028 242.98281 
L 219.643152 246.527163 
z
" style="stroke:#000000;"/>
    <path clip-path="url(#pdaf81cfa4c)" d="M 212.424383 242.722731 
L 212.249468 235.123265 
L 207.690986 234.892884 
z
" style="stroke:#000000;"/>
    <path clip-path="url(#pdaf81cfa4c)" d="M 203.575832 226.374002 
L 207.327354 223.32739 
L 207.690986 234.892884 
z
" style="stroke:#000000;"/>
    <path clip-path="url(#pdaf81cfa4c)" d="M 207.327354 130.937853 
L 203.575832 127.897816 
L 207.690986 119.371721 
z
" style="stroke:#000000;"/>
    <path clip-path="url(#pdaf81cfa4c)" d="M 211.18124 122.931383 
L 211.885282 130.765461 
L 207.327354 130.937853 
z
" style="stroke:#000000;"/>
    <path clip-path="url(#pdaf81cfa4c)" d="M 212.249468 235.123265 
L 212.424383 242.722731 
L 216.990028 242.98281 
z
" style="stroke:#000000;"/>
    <path clip-path="url(#pdaf81cfa4c)" d="M 216.990028 111.286648 
L 215.745012 122.728371 
L 220.185799 115.336862 
z
" style="stroke:#000000;"/>
    <path clip-path="url(#pdaf81cfa4c)" d="M 215.745012 231.543282 
L 216.990028 242.98281 
L 220.185799 238.92696 
z
" style="stroke:#000000;"/>
    <path clip-path="url(#pdaf81cfa4c)" d="M 207.327354 223.32739 
L 203.575832 226.374002 
L 204.103205 214.775899 
z
" style="stroke:#000000;"/>
    <path clip-path="url(#pdaf81cfa4c)" d="M 203.575832 127.897816 
L 207.327354 130.937853 
L 204.103205 139.494994 
z
" style="stroke:#000000;"/>
    <path clip-path="url(#pdaf81cfa4c)" d="M 211.885282 130.765461 
L 211.18124 122.931383 
L 215.745012 122.728371 
z
" style="stroke:#000000;"/>
    <path clip-path="url(#pdaf81cfa4c)" d="M 216.990028 111.286648 
L 207.690986 119.371721 
L 212.249468 119.154553 
z
" style="stroke:#000000;"/>
    <path clip-path="url(#pdaf81cfa4c)" d="M 203.575832 127.897816 
L 212.249468 119.154553 
L 207.690986 119.371721 
z
" style="stroke:#000000;"/>
    <path clip-path="url(#pdaf81cfa4c)" d="M 204.103205 214.775899 
L 211.885282 223.512999 
L 207.327354 223.32739 
z
" style="stroke:#000000;"/>
    <path clip-path="url(#pdaf81cfa4c)" d="M 215.745012 231.543282 
L 207.327354 223.32739 
L 211.885282 223.512999 
z
" style="stroke:#000000;"/>
    <path clip-path="url(#pdaf81cfa4c)" d="M 212.249468 119.154553 
L 215.745012 122.728371 
L 216.990028 111.286648 
z
" style="stroke:#000000;"/>
    <path clip-path="url(#pdaf81cfa4c)" d="M 215.745012 231.543282 
L 212.249468 235.123265 
L 216.990028 242.98281 
z
" style="stroke:#000000;"/>
    <path clip-path="url(#pdaf81cfa4c)" d="M 207.327354 130.937853 
L 208.656199 139.355529 
L 204.103205 139.494994 
z
" style="stroke:#000000;"/>
    <path clip-path="url(#pdaf81cfa4c)" d="M 200.132245 217.263465 
L 204.103205 214.775899 
L 203.575832 226.374002 
z
" style="stroke:#000000;"/>
    <path clip-path="url(#pdaf81cfa4c)" d="M 204.103205 139.494994 
L 200.132245 137.014388 
L 203.575832 127.897816 
z
" style="stroke:#000000;"/>
    <path clip-path="url(#pdaf81cfa4c)" d="M 207.690986 234.892884 
L 208.128015 226.571798 
L 203.575832 226.374002 
z
" style="stroke:#000000;"/>
    <path clip-path="url(#pdaf81cfa4c)" d="M 204.103205 214.775899 
L 200.132245 217.263465 
L 201.55059 205.772359 
z
" style="stroke:#000000;"/>
    <path clip-path="url(#pdaf81cfa4c)" d="M 200.132245 137.014388 
L 204.103205 139.494994 
L 201.55059 148.503008 
z
" style="stroke:#000000;"/>
    <path clip-path="url(#pdaf81cfa4c)" d="M 208.128015 226.571798 
L 207.690986 234.892884 
L 212.249468 235.123265 
z
" style="stroke:#000000;"/>
    <path clip-path="url(#pdaf81cfa4c)" d="M 208.656199 139.355529 
L 207.327354 130.937853 
L 211.885282 130.765461 
z
" style="stroke:#000000;"/>
    <path clip-path="url(#pdaf81cfa4c)" d="M 212.249468 119.154553 
L 211.885282 130.765461 
L 215.745012 122.728371 
z
" style="stroke:#000000;"/>
    <path clip-path="url(#pdaf81cfa4c)" d="M 211.885282 223.512999 
L 212.249468 235.123265 
L 215.745012 231.543282 
z
" style="stroke:#000000;"/>
    <path clip-path="url(#pdaf81cfa4c)" d="M 201.55059 205.772359 
L 208.656199 214.928626 
L 204.103205 214.775899 
z
" style="stroke:#000000;"/>
    <path clip-path="url(#pdaf81cfa4c)" d="M 211.885282 223.512999 
L 204.103205 214.775899 
L 208.656199 214.928626 
z
" style="stroke:#000000;"/>
    <path clip-path="url(#pdaf81cfa4c)" d="M 212.249468 119.154553 
L 203.575832 127.897816 
L 208.128015 127.713288 
z
" style="stroke:#000000;"/>
    <path clip-path="url(#pdaf81cfa4c)" d="M 200.132245 137.014388 
L 208.128015 127.713288 
L 203.575832 127.897816 
z
" style="stroke:#000000;"/>
    <path clip-path="url(#pdaf81cfa4c)" d="M 204.103205 139.494994 
L 206.099647 148.398369 
L 201.55059 148.503008 
z
" style="stroke:#000000;"/>
    <path clip-path="url(#pdaf81cfa4c)" d="M 197.405408 207.6684 
L 201.55059 205.772359 
L 200.132245 217.263465 
z
" style="stroke:#000000;"/>
    <path clip-path="url(#pdaf81cfa4c)" d="M 201.55059 148.503008 
L 197.405408 146.614232 
L 200.132245 137.014388 
z
" style="stroke:#000000;"/>
    <path clip-path="url(#pdaf81cfa4c)" d="M 201.55059 205.772359 
L 197.405408 207.6684 
L 199.702892 196.423396 
z
" style="stroke:#000000;"/>
    <path clip-path="url(#pdaf81cfa4c)" d="M 197.405408 146.614232 
L 201.55059 148.503008 
L 199.702892 157.855209 
z
" style="stroke:#000000;"/>
    <path clip-path="url(#pdaf81cfa4c)" d="M 203.575832 226.374002 
L 204.679104 217.426179 
L 200.132245 217.263465 
z
" style="stroke:#000000;"/>
    <path clip-path="url(#pdaf81cfa4c)" d="M 208.128015 127.713288 
L 211.885282 130.765461 
L 212.249468 119.154553 
z
" style="stroke:#000000;"/>
    <path clip-path="url(#pdaf81cfa4c)" d="M 211.885282 223.512999 
L 208.128015 226.571798 
L 212.249468 235.123265 
z
" style="stroke:#000000;"/>
    <path clip-path="url(#pdaf81cfa4c)" d="M 199.702892 196.423396 
L 206.099647 205.890295 
L 201.55059 205.772359 
z
" style="stroke:#000000;"/>
    <path clip-path="url(#pdaf81cfa4c)" d="M 206.099647 148.398369 
L 204.103205 139.494994 
L 208.656199 139.355529 
z
" style="stroke:#000000;"/>
    <path clip-path="url(#pdaf81cfa4c)" d="M 199.702892 196.423396 
L 195.431282 197.702899 
L 198.584433 186.841004 
z
" style="stroke:#000000;"/>
    <path clip-path="url(#pdaf81cfa4c)" d="M 195.431282 156.583193 
L 199.702892 157.855209 
L 198.584433 167.439562 
z
" style="stroke:#000000;"/>
    <path clip-path="url(#pdaf81cfa4c)" d="M 201.55059 148.503008 
L 204.249084 157.786852 
L 199.702892 157.855209 
z
" style="stroke:#000000;"/>
    <path clip-path="url(#pdaf81cfa4c)" d="M 195.431282 197.702899 
L 199.702892 196.423396 
L 197.405408 207.6684 
z
" style="stroke:#000000;"/>
    <path clip-path="url(#pdaf81cfa4c)" d="M 199.702892 157.855209 
L 195.431282 156.583193 
L 197.405408 146.614232 
z
" style="stroke:#000000;"/>
    <path clip-path="url(#pdaf81cfa4c)" d="M 211.885282 130.765461 
L 208.128015 127.713288 
L 208.656199 139.355529 
z
" style="stroke:#000000;"/>
    <path clip-path="url(#pdaf81cfa4c)" d="M 208.128015 226.571798 
L 211.885282 223.512999 
L 208.656199 214.928626 
z
" style="stroke:#000000;"/>
    <path clip-path="url(#pdaf81cfa4c)" d="M 204.679104 217.426179 
L 203.575832 226.374002 
L 208.128015 226.571798 
z
" style="stroke:#000000;"/>
    <path clip-path="url(#pdaf81cfa4c)" d="M 208.656199 214.928626 
L 201.55059 205.772359 
L 206.099647 205.890295 
z
" style="stroke:#000000;"/>
    <path clip-path="url(#pdaf81cfa4c)" d="M 194.236153 166.801236 
L 198.584433 167.439562 
L 198.209942 177.140611 
z
" style="stroke:#000000;"/>
    <path clip-path="url(#pdaf81cfa4c)" d="M 198.584433 186.841004 
L 194.236153 187.486951 
L 198.209942 177.140611 
z
" style="stroke:#000000;"/>
    <path clip-path="url(#pdaf81cfa4c)" d="M 198.584433 186.841004 
L 204.249084 196.505075 
L 199.702892 196.423396 
z
" style="stroke:#000000;"/>
    <path clip-path="url(#pdaf81cfa4c)" d="M 197.405408 146.614232 
L 204.679104 136.86499 
L 200.132245 137.014388 
z
" style="stroke:#000000;"/>
    <path clip-path="url(#pdaf81cfa4c)" d="M 199.702892 157.855209 
L 203.128884 167.408472 
L 198.584433 167.439562 
z
" style="stroke:#000000;"/>
    <path clip-path="url(#pdaf81cfa4c)" d="M 208.128015 127.713288 
L 200.132245 137.014388 
L 204.679104 136.86499 
z
" style="stroke:#000000;"/>
    <path clip-path="url(#pdaf81cfa4c)" d="M 194.236153 187.486951 
L 198.584433 186.841004 
L 195.431282 197.702899 
z
" style="stroke:#000000;"/>
    <path clip-path="url(#pdaf81cfa4c)" d="M 198.584433 167.439562 
L 194.236153 166.801236 
L 195.431282 156.583193 
z
" style="stroke:#000000;"/>
    <path clip-path="url(#pdaf81cfa4c)" d="M 198.209942 177.140611 
L 203.128884 186.885431 
L 198.584433 186.841004 
z
" style="stroke:#000000;"/>
    <path clip-path="url(#pdaf81cfa4c)" d="M 204.249084 157.786852 
L 201.55059 148.503008 
L 206.099647 148.398369 
z
" style="stroke:#000000;"/>
    <path clip-path="url(#pdaf81cfa4c)" d="M 198.584433 167.439562 
L 202.753809 177.147282 
L 198.209942 177.140611 
z
" style="stroke:#000000;"/>
    <path clip-path="url(#pdaf81cfa4c)" d="M 200.132245 217.263465 
L 201.948019 207.793971 
L 197.405408 207.6684 
z
" style="stroke:#000000;"/>
    <path clip-path="url(#pdaf81cfa4c)" d="M 193.836 177.144444 
L 198.209942 177.140611 
L 194.236153 187.486951 
z
" style="stroke:#000000;"/>
    <path clip-path="url(#pdaf81cfa4c)" d="M 198.209942 177.140611 
L 193.836 177.144444 
L 194.236153 166.801236 
z
" style="stroke:#000000;"/>
    <path clip-path="url(#pdaf81cfa4c)" d="M 206.099647 205.890295 
L 199.702892 196.423396 
L 204.249084 196.505075 
z
" style="stroke:#000000;"/>
    <path clip-path="url(#pdaf81cfa4c)" d="M 204.679104 136.86499 
L 208.656199 139.355529 
L 208.128015 127.713288 
z
" style="stroke:#000000;"/>
    <path clip-path="url(#pdaf81cfa4c)" d="M 208.656199 214.928626 
L 204.679104 217.426179 
L 208.128015 226.571798 
z
" style="stroke:#000000;"/>
    <path clip-path="url(#pdaf81cfa4c)" d="M 208.656199 139.355529 
L 204.679104 136.86499 
L 206.099647 148.398369 
z
" style="stroke:#000000;"/>
    <path clip-path="url(#pdaf81cfa4c)" d="M 204.679104 217.426179 
L 208.656199 214.928626 
L 206.099647 205.890295 
z
" style="stroke:#000000;"/>
    <path clip-path="url(#pdaf81cfa4c)" d="M 203.128884 167.408472 
L 199.702892 157.855209 
L 204.249084 157.786852 
z
" style="stroke:#000000;"/>
    <path clip-path="url(#pdaf81cfa4c)" d="M 195.431282 156.583193 
L 201.948019 146.502014 
L 197.405408 146.614232 
z
" style="stroke:#000000;"/>
    <path clip-path="url(#pdaf81cfa4c)" d="M 201.948019 207.793971 
L 200.132245 217.263465 
L 204.679104 217.426179 
z
" style="stroke:#000000;"/>
    <path clip-path="url(#pdaf81cfa4c)" d="M 198.937034 113.965294 
L 187.97355 133.47339 
L 195.296153 115.086995 
z
" style="stroke:#000000;"/>
    <path clip-path="url(#pdaf81cfa4c)" d="M 195.296153 115.086995 
L 187.97355 103.694169 
L 198.937034 113.965294 
z
" style="stroke:#000000;"/>
    <path clip-path="url(#pdaf81cfa4c)" d="M 204.249084 196.505075 
L 198.584433 186.841004 
L 203.128884 186.885431 
z
" style="stroke:#000000;"/>
    <path clip-path="url(#pdaf81cfa4c)" d="M 197.405408 207.6684 
L 199.970798 197.789745 
L 195.431282 197.702899 
z
" style="stroke:#000000;"/>
    <path clip-path="url(#pdaf81cfa4c)" d="M 202.753809 177.147282 
L 198.584433 167.439562 
L 203.128884 167.408472 
z
" style="stroke:#000000;"/>
    <path clip-path="url(#pdaf81cfa4c)" d="M 203.128884 186.885431 
L 198.209942 177.140611 
L 202.753809 177.147282 
z
" style="stroke:#000000;"/>
    <path clip-path="url(#pdaf81cfa4c)" d="M 204.679104 136.86499 
L 197.405408 146.614232 
L 201.948019 146.502014 
z
" style="stroke:#000000;"/>
    <path clip-path="url(#pdaf81cfa4c)" d="M 194.236153 166.801236 
L 199.970798 156.509727 
L 195.431282 156.583193 
z
" style="stroke:#000000;"/>
    <path clip-path="url(#pdaf81cfa4c)" d="M 201.948019 146.502014 
L 206.099647 148.398369 
L 204.679104 136.86499 
z
" style="stroke:#000000;"/>
    <path clip-path="url(#pdaf81cfa4c)" d="M 206.099647 205.890295 
L 201.948019 207.793971 
L 204.679104 217.426179 
z
" style="stroke:#000000;"/>
    <path clip-path="url(#pdaf81cfa4c)" d="M 195.431282 197.702899 
L 198.773787 187.533997 
L 194.236153 187.486951 
z
" style="stroke:#000000;"/>
    <path clip-path="url(#pdaf81cfa4c)" d="M 206.099647 148.398369 
L 201.948019 146.502014 
L 204.249084 157.786852 
z
" style="stroke:#000000;"/>
    <path clip-path="url(#pdaf81cfa4c)" d="M 201.948019 207.793971 
L 206.099647 205.890295 
L 204.249084 196.505075 
z
" style="stroke:#000000;"/>
    <path clip-path="url(#pdaf81cfa4c)" d="M 199.970798 197.789745 
L 197.405408 207.6684 
L 201.948019 207.793971 
z
" style="stroke:#000000;"/>
    <path clip-path="url(#pdaf81cfa4c)" d="M 187.97355 133.47339 
L 198.937034 113.965294 
L 187.97355 143.399797 
z
" style="stroke:#000000;"/>
    <path clip-path="url(#pdaf81cfa4c)" d="M 193.836 177.144444 
L 198.773787 166.767586 
L 194.236153 166.801236 
z
" style="stroke:#000000;"/>
    <path clip-path="url(#pdaf81cfa4c)" d="M 194.236153 187.486951 
L 198.373004 177.151145 
L 193.836 177.144444 
z
" style="stroke:#000000;"/>
    <path clip-path="url(#pdaf81cfa4c)" d="M 201.948019 146.502014 
L 195.431282 156.583193 
L 199.970798 156.509727 
z
" style="stroke:#000000;"/>
    <path clip-path="url(#pdaf81cfa4c)" d="M 187.97355 103.694169 
L 195.296153 115.086995 
L 187.97355 108.657372 
z
" style="stroke:#000000;"/>
    <path clip-path="url(#pdaf81cfa4c)" d="M 199.835457 114.851732 
L 187.97355 108.657372 
L 195.296153 115.086995 
z
" style="stroke:#000000;"/>
    <path clip-path="url(#pdaf81cfa4c)" d="M 187.97355 133.47339 
L 199.835457 114.851732 
L 195.296153 115.086995 
z
" style="stroke:#000000;"/>
    <path clip-path="url(#pdaf81cfa4c)" d="M 204.249084 157.786852 
L 199.970798 156.509727 
L 203.128884 167.408472 
z
" style="stroke:#000000;"/>
    <path clip-path="url(#pdaf81cfa4c)" d="M 199.970798 197.789745 
L 204.249084 196.505075 
L 203.128884 186.885431 
z
" style="stroke:#000000;"/>
    <path clip-path="url(#pdaf81cfa4c)" d="M 198.937034 113.965294 
L 192.501235 103.413436 
L 203.482035 113.726106 
z
" style="stroke:#000000;"/>
    <path clip-path="url(#pdaf81cfa4c)" d="M 192.501235 143.274456 
L 198.937034 113.965294 
L 203.482035 113.726106 
z
" style="stroke:#000000;"/>
    <path clip-path="url(#pdaf81cfa4c)" d="M 198.773787 187.533997 
L 195.431282 197.702899 
L 199.970798 197.789745 
z
" style="stroke:#000000;"/>
    <path clip-path="url(#pdaf81cfa4c)" d="M 199.970798 156.509727 
L 204.249084 157.786852 
L 201.948019 146.502014 
z
" style="stroke:#000000;"/>
    <path clip-path="url(#pdaf81cfa4c)" d="M 204.249084 196.505075 
L 199.970798 197.789745 
L 201.948019 207.793971 
z
" style="stroke:#000000;"/>
    <path clip-path="url(#pdaf81cfa4c)" d="M 199.970798 156.509727 
L 194.236153 166.801236 
L 198.773787 166.767586 
z
" style="stroke:#000000;"/>
    <path clip-path="url(#pdaf81cfa4c)" d="M 198.773787 187.533997 
L 203.128884 186.885431 
L 202.753809 177.147282 
z
" style="stroke:#000000;"/>
    <path clip-path="url(#pdaf81cfa4c)" d="M 203.128884 167.408472 
L 198.773787 166.767586 
L 202.753809 177.147282 
z
" style="stroke:#000000;"/>
    <path clip-path="url(#pdaf81cfa4c)" d="M 192.501235 103.413436 
L 198.937034 113.965294 
L 187.97355 103.694169 
z
" style="stroke:#000000;"/>
    <path clip-path="url(#pdaf81cfa4c)" d="M 198.937034 113.965294 
L 192.501235 143.274456 
L 187.97355 143.399797 
z
" style="stroke:#000000;"/>
    <path clip-path="url(#pdaf81cfa4c)" d="M 198.373004 177.151145 
L 194.236153 187.486951 
L 198.773787 187.533997 
z
" style="stroke:#000000;"/>
    <path clip-path="url(#pdaf81cfa4c)" d="M 198.773787 166.767586 
L 193.836 177.144444 
L 198.373004 177.151145 
z
" style="stroke:#000000;"/>
    <path clip-path="url(#pdaf81cfa4c)" d="M 198.773787 166.767586 
L 203.128884 167.408472 
L 199.970798 156.509727 
z
" style="stroke:#000000;"/>
    <path clip-path="url(#pdaf81cfa4c)" d="M 203.128884 186.885431 
L 198.773787 187.533997 
L 199.970798 197.789745 
z
" style="stroke:#000000;"/>
    <path clip-path="url(#pdaf81cfa4c)" d="M 198.373004 177.151145 
L 202.753809 177.147282 
L 198.773787 166.767586 
z
" style="stroke:#000000;"/>
    <path clip-path="url(#pdaf81cfa4c)" d="M 202.753809 177.147282 
L 198.373004 177.151145 
L 198.773787 187.533997 
z
" style="stroke:#000000;"/>
    <path clip-path="url(#pdaf81cfa4c)" d="M 192.501235 103.413436 
L 199.835457 114.851732 
L 203.482035 113.726106 
z
" style="stroke:#000000;"/>
    <path clip-path="url(#pdaf81cfa4c)" d="M 192.501235 133.309201 
L 203.482035 113.726106 
L 199.835457 114.851732 
z
" style="stroke:#000000;"/>
    <path clip-path="url(#pdaf81cfa4c)" d="M 180.595981 114.634065 
L 187.97355 103.694169 
L 187.97355 108.657372 
z
" style="stroke:#000000;"/>
    <path clip-path="url(#pdaf81cfa4c)" d="M 187.97355 108.657372 
L 199.835457 114.851732 
L 192.501235 108.396064 
z
" style="stroke:#000000;"/>
    <path clip-path="url(#pdaf81cfa4c)" d="M 199.835457 114.851732 
L 187.97355 133.47339 
L 192.501235 133.309201 
z
" style="stroke:#000000;"/>
    <path clip-path="url(#pdaf81cfa4c)" d="M 176.88639 113.271968 
L 187.97355 133.47339 
L 187.97355 143.399797 
z
" style="stroke:#000000;"/>
    <path clip-path="url(#pdaf81cfa4c)" d="M 192.501235 133.309201 
L 192.501235 143.274456 
L 203.482035 113.726106 
z
" style="stroke:#000000;"/>
    <path clip-path="url(#pdaf81cfa4c)" d="M 192.501235 108.396064 
L 180.595981 114.634065 
L 187.97355 108.657372 
z
" style="stroke:#000000;"/>
    <path clip-path="url(#pdaf81cfa4c)" d="M 180.595981 114.634065 
L 192.501235 133.309201 
L 187.97355 133.47339 
z
" style="stroke:#000000;"/>
    <path clip-path="url(#pdaf81cfa4c)" d="M 192.501235 103.413436 
L 192.501235 108.396064 
L 199.835457 114.851732 
z
" style="stroke:#000000;"/>
    <path clip-path="url(#pdaf81cfa4c)" d="M 187.97355 103.694169 
L 180.595981 114.634065 
L 176.88639 113.271968 
z
" style="stroke:#000000;"/>
    <path clip-path="url(#pdaf81cfa4c)" d="M 187.97355 133.47339 
L 176.88639 113.271968 
L 180.595981 114.634065 
z
" style="stroke:#000000;"/>
    <path clip-path="url(#pdaf81cfa4c)" d="M 177.629424 177.158646 
L 182.075921 177.154749 
L 181.670786 187.564288 
z
" style="stroke:#000000;"/>
    <path clip-path="url(#pdaf81cfa4c)" d="M 182.075921 177.154749 
L 177.629424 177.158646 
L 181.670786 166.745921 
z
" style="stroke:#000000;"/>
    <path clip-path="url(#pdaf81cfa4c)" d="M 177.246861 186.965574 
L 181.670786 187.564288 
L 180.458796 197.873217 
z
" style="stroke:#000000;"/>
    <path clip-path="url(#pdaf81cfa4c)" d="M 181.670786 166.745921 
L 177.246861 167.352388 
L 180.458796 156.439116 
z
" style="stroke:#000000;"/>
    <path clip-path="url(#pdaf81cfa4c)" d="M 181.670786 166.745921 
L 186.594094 177.161531 
L 182.075921 177.154749 
z
" style="stroke:#000000;"/>
    <path clip-path="url(#pdaf81cfa4c)" d="M 182.075921 177.154749 
L 186.1883 187.611941 
L 181.670786 187.564288 
z
" style="stroke:#000000;"/>
    <path clip-path="url(#pdaf81cfa4c)" d="M 187.97355 103.694169 
L 181.396077 113.027342 
L 192.501235 103.413436 
z
" style="stroke:#000000;"/>
    <path clip-path="url(#pdaf81cfa4c)" d="M 181.396077 113.027342 
L 187.97355 143.399797 
L 192.501235 143.274456 
z
" style="stroke:#000000;"/>
    <path clip-path="url(#pdaf81cfa4c)" d="M 177.246861 167.352388 
L 181.670786 166.745921 
L 177.629424 177.158646 
z
" style="stroke:#000000;"/>
    <path clip-path="url(#pdaf81cfa4c)" d="M 181.670786 187.564288 
L 177.246861 186.965574 
L 177.629424 177.158646 
z
" style="stroke:#000000;"/>
    <path clip-path="url(#pdaf81cfa4c)" d="M 180.458796 156.439116 
L 186.1883 166.711837 
L 181.670786 166.745921 
z
" style="stroke:#000000;"/>
    <path clip-path="url(#pdaf81cfa4c)" d="M 176.102539 196.676993 
L 180.458796 197.873217 
L 178.450302 207.9808 
z
" style="stroke:#000000;"/>
    <path clip-path="url(#pdaf81cfa4c)" d="M 180.458796 156.439116 
L 176.102539 157.642974 
L 178.450302 146.335053 
z
" style="stroke:#000000;"/>
    <path clip-path="url(#pdaf81cfa4c)" d="M 181.670786 187.564288 
L 184.974336 197.961399 
L 180.458796 197.873217 
z
" style="stroke:#000000;"/>
    <path clip-path="url(#pdaf81cfa4c)" d="M 181.396077 113.027342 
L 187.97355 103.694169 
L 176.88639 113.271968 
z
" style="stroke:#000000;"/>
    <path clip-path="url(#pdaf81cfa4c)" d="M 187.97355 143.399797 
L 181.396077 113.027342 
L 176.88639 113.271968 
z
" style="stroke:#000000;"/>
    <path clip-path="url(#pdaf81cfa4c)" d="M 180.458796 197.873217 
L 176.102539 196.676993 
L 177.246861 186.965574 
z
" style="stroke:#000000;"/>
    <path clip-path="url(#pdaf81cfa4c)" d="M 176.102539 157.642974 
L 180.458796 156.439116 
L 177.246861 167.352388 
z
" style="stroke:#000000;"/>
    <path clip-path="url(#pdaf81cfa4c)" d="M 180.595981 114.634065 
L 192.501235 108.396064 
L 185.111744 114.39525 
z
" style="stroke:#000000;"/>
    <path clip-path="url(#pdaf81cfa4c)" d="M 192.501235 133.309201 
L 180.595981 114.634065 
L 185.111744 114.39525 
z
" style="stroke:#000000;"/>
    <path clip-path="url(#pdaf81cfa4c)" d="M 192.501235 103.413436 
L 185.111744 114.39525 
L 192.501235 108.396064 
z
" style="stroke:#000000;"/>
    <path clip-path="url(#pdaf81cfa4c)" d="M 178.450302 146.335053 
L 184.974336 156.36452 
L 180.458796 156.439116 
z
" style="stroke:#000000;"/>
    <path clip-path="url(#pdaf81cfa4c)" d="M 186.1883 187.611941 
L 182.075921 177.154749 
L 186.594094 177.161531 
z
" style="stroke:#000000;"/>
    <path clip-path="url(#pdaf81cfa4c)" d="M 186.594094 177.161531 
L 181.670786 166.745921 
L 186.1883 166.711837 
z
" style="stroke:#000000;"/>
    <path clip-path="url(#pdaf81cfa4c)" d="M 192.501235 133.309201 
L 181.396077 113.027342 
L 192.501235 143.274456 
z
" style="stroke:#000000;"/>
    <path clip-path="url(#pdaf81cfa4c)" d="M 180.458796 197.873217 
L 182.962557 208.108821 
L 178.450302 207.9808 
z
" style="stroke:#000000;"/>
    <path clip-path="url(#pdaf81cfa4c)" d="M 178.450302 207.9808 
L 174.20633 206.197419 
L 176.102539 196.676993 
z
" style="stroke:#000000;"/>
    <path clip-path="url(#pdaf81cfa4c)" d="M 174.20633 148.125871 
L 178.450302 146.335053 
L 176.102539 157.642974 
z
" style="stroke:#000000;"/>
    <path clip-path="url(#pdaf81cfa4c)" d="M 174.20633 206.197419 
L 178.450302 207.9808 
L 175.662557 217.7875 
z
" style="stroke:#000000;"/>
    <path clip-path="url(#pdaf81cfa4c)" d="M 178.450302 146.335053 
L 174.20633 148.125871 
L 175.662557 136.533239 
z
" style="stroke:#000000;"/>
    <path clip-path="url(#pdaf81cfa4c)" d="M 184.974336 197.961399 
L 181.670786 187.564288 
L 186.1883 187.611941 
z
" style="stroke:#000000;"/>
    <path clip-path="url(#pdaf81cfa4c)" d="M 186.1883 166.711837 
L 180.458796 156.439116 
L 184.974336 156.36452 
z
" style="stroke:#000000;"/>
    <path clip-path="url(#pdaf81cfa4c)" d="M 175.662557 136.533239 
L 182.962557 146.220645 
L 178.450302 146.335053 
z
" style="stroke:#000000;"/>
    <path clip-path="url(#pdaf81cfa4c)" d="M 177.246861 186.965574 
L 182.140332 177.165458 
L 177.629424 177.158646 
z
" style="stroke:#000000;"/>
    <path clip-path="url(#pdaf81cfa4c)" d="M 177.629424 177.158646 
L 181.757141 167.320614 
L 177.246861 167.352388 
z
" style="stroke:#000000;"/>
    <path clip-path="url(#pdaf81cfa4c)" d="M 182.962557 208.108821 
L 180.458796 197.873217 
L 184.974336 197.961399 
z
" style="stroke:#000000;"/>
    <path clip-path="url(#pdaf81cfa4c)" d="M 176.102539 196.676993 
L 181.757141 187.010979 
L 177.246861 186.965574 
z
" style="stroke:#000000;"/>
    <path clip-path="url(#pdaf81cfa4c)" d="M 185.111744 114.39525 
L 192.501235 103.413436 
L 181.396077 113.027342 
z
" style="stroke:#000000;"/>
    <path clip-path="url(#pdaf81cfa4c)" d="M 181.396077 113.027342 
L 192.501235 133.309201 
L 185.111744 114.39525 
z
" style="stroke:#000000;"/>
    <path clip-path="url(#pdaf81cfa4c)" d="M 178.450302 207.9808 
L 180.170227 217.954323 
L 175.662557 217.7875 
z
" style="stroke:#000000;"/>
    <path clip-path="url(#pdaf81cfa4c)" d="M 184.974336 156.36452 
L 178.450302 146.335053 
L 182.962557 146.220645 
z
" style="stroke:#000000;"/>
    <path clip-path="url(#pdaf81cfa4c)" d="M 177.246861 167.352388 
L 180.610935 157.572953 
L 176.102539 157.642974 
z
" style="stroke:#000000;"/>
    <path clip-path="url(#pdaf81cfa4c)" d="M 175.662557 217.7875 
L 171.574773 215.432432 
L 174.20633 206.197419 
z
" style="stroke:#000000;"/>
    <path clip-path="url(#pdaf81cfa4c)" d="M 171.574773 138.895471 
L 175.662557 136.533239 
L 174.20633 148.125871 
z
" style="stroke:#000000;"/>
    <path clip-path="url(#pdaf81cfa4c)" d="M 171.574773 215.432432 
L 175.662557 217.7875 
L 172.119594 227.195806 
z
" style="stroke:#000000;"/>
    <path clip-path="url(#pdaf81cfa4c)" d="M 175.662557 136.533239 
L 171.574773 138.895471 
L 172.119594 127.131142 
z
" style="stroke:#000000;"/>
    <path clip-path="url(#pdaf81cfa4c)" d="M 174.20633 206.197419 
L 180.610935 196.760661 
L 176.102539 196.676993 
z
" style="stroke:#000000;"/>
    <path clip-path="url(#pdaf81cfa4c)" d="M 182.140332 177.165458 
L 186.594094 177.161531 
L 186.1883 166.711837 
z
" style="stroke:#000000;"/>
    <path clip-path="url(#pdaf81cfa4c)" d="M 186.594094 177.161531 
L 182.140332 177.165458 
L 186.1883 187.611941 
z
" style="stroke:#000000;"/>
    <path clip-path="url(#pdaf81cfa4c)" d="M 180.170227 217.954323 
L 178.450302 207.9808 
L 182.962557 208.108821 
z
" style="stroke:#000000;"/>
    <path clip-path="url(#pdaf81cfa4c)" d="M 181.757141 167.320614 
L 177.629424 177.158646 
L 182.140332 177.165458 
z
" style="stroke:#000000;"/>
    <path clip-path="url(#pdaf81cfa4c)" d="M 176.102539 157.642974 
L 178.711593 148.018275 
L 174.20633 148.125871 
z
" style="stroke:#000000;"/>
    <path clip-path="url(#pdaf81cfa4c)" d="M 182.140332 177.165458 
L 177.246861 186.965574 
L 181.757141 187.010979 
z
" style="stroke:#000000;"/>
    <path clip-path="url(#pdaf81cfa4c)" d="M 181.757141 167.320614 
L 186.1883 166.711837 
L 184.974336 156.36452 
z
" style="stroke:#000000;"/>
    <path clip-path="url(#pdaf81cfa4c)" d="M 186.1883 187.611941 
L 181.757141 187.010979 
L 184.974336 197.961399 
z
" style="stroke:#000000;"/>
    <path clip-path="url(#pdaf81cfa4c)" d="M 172.119594 127.131142 
L 180.170227 136.380068 
L 175.662557 136.533239 
z
" style="stroke:#000000;"/>
    <path clip-path="url(#pdaf81cfa4c)" d="M 180.610935 157.572953 
L 177.246861 167.352388 
L 181.757141 167.320614 
z
" style="stroke:#000000;"/>
    <path clip-path="url(#pdaf81cfa4c)" d="M 182.962557 146.220645 
L 175.662557 136.533239 
L 180.170227 136.380068 
z
" style="stroke:#000000;"/>
    <path clip-path="url(#pdaf81cfa4c)" d="M 181.757141 187.010979 
L 176.102539 196.676993 
L 180.610935 196.760661 
z
" style="stroke:#000000;"/>
    <path clip-path="url(#pdaf81cfa4c)" d="M 181.757141 187.010979 
L 186.1883 187.611941 
L 182.140332 177.165458 
z
" style="stroke:#000000;"/>
    <path clip-path="url(#pdaf81cfa4c)" d="M 186.1883 166.711837 
L 181.757141 167.320614 
L 182.140332 177.165458 
z
" style="stroke:#000000;"/>
    <path clip-path="url(#pdaf81cfa4c)" d="M 171.574773 215.432432 
L 178.711593 206.318689 
L 174.20633 206.197419 
z
" style="stroke:#000000;"/>
    <path clip-path="url(#pdaf81cfa4c)" d="M 175.662557 217.7875 
L 176.621392 227.400048 
L 172.119594 227.195806 
z
" style="stroke:#000000;"/>
    <path clip-path="url(#pdaf81cfa4c)" d="M 172.119594 227.195806 
L 168.230985 224.289567 
L 171.574773 215.432432 
z
" style="stroke:#000000;"/>
    <path clip-path="url(#pdaf81cfa4c)" d="M 168.230985 130.044197 
L 172.119594 127.131142 
L 171.574773 138.895471 
z
" style="stroke:#000000;"/>
    <path clip-path="url(#pdaf81cfa4c)" d="M 180.610935 157.572953 
L 184.974336 156.36452 
L 182.962557 146.220645 
z
" style="stroke:#000000;"/>
    <path clip-path="url(#pdaf81cfa4c)" d="M 184.974336 197.961399 
L 180.610935 196.760661 
L 182.962557 208.108821 
z
" style="stroke:#000000;"/>
    <path clip-path="url(#pdaf81cfa4c)" d="M 178.711593 148.018275 
L 176.102539 157.642974 
L 180.610935 157.572953 
z
" style="stroke:#000000;"/>
    <path clip-path="url(#pdaf81cfa4c)" d="M 184.974336 156.36452 
L 180.610935 157.572953 
L 181.757141 167.320614 
z
" style="stroke:#000000;"/>
    <path clip-path="url(#pdaf81cfa4c)" d="M 180.610935 196.760661 
L 184.974336 197.961399 
L 181.757141 187.010979 
z
" style="stroke:#000000;"/>
    <path clip-path="url(#pdaf81cfa4c)" d="M 174.20633 148.125871 
L 176.075663 138.751304 
L 171.574773 138.895471 
z
" style="stroke:#000000;"/>
    <path clip-path="url(#pdaf81cfa4c)" d="M 180.610935 196.760661 
L 174.20633 206.197419 
L 178.711593 206.318689 
z
" style="stroke:#000000;"/>
    <path clip-path="url(#pdaf81cfa4c)" d="M 167.852455 236.11028 
L 168.230985 224.289567 
L 172.119594 227.195806 
z
" style="stroke:#000000;"/>
    <path clip-path="url(#pdaf81cfa4c)" d="M 168.230985 130.044197 
L 167.852455 118.224147 
L 172.119594 127.131142 
z
" style="stroke:#000000;"/>
    <path clip-path="url(#pdaf81cfa4c)" d="M 176.621392 227.400048 
L 175.662557 217.7875 
L 180.170227 217.954323 
z
" style="stroke:#000000;"/>
    <path clip-path="url(#pdaf81cfa4c)" d="M 182.962557 146.220645 
L 178.711593 148.018275 
L 180.610935 157.572953 
z
" style="stroke:#000000;"/>
    <path clip-path="url(#pdaf81cfa4c)" d="M 178.711593 206.318689 
L 182.962557 208.108821 
L 180.610935 196.760661 
z
" style="stroke:#000000;"/>
    <path clip-path="url(#pdaf81cfa4c)" d="M 178.711593 148.018275 
L 182.962557 146.220645 
L 180.170227 136.380068 
z
" style="stroke:#000000;"/>
    <path clip-path="url(#pdaf81cfa4c)" d="M 182.962557 208.108821 
L 178.711593 206.318689 
L 180.170227 217.954323 
z
" style="stroke:#000000;"/>
    <path clip-path="url(#pdaf81cfa4c)" d="M 176.075663 138.751304 
L 174.20633 148.125871 
L 178.711593 148.018275 
z
" style="stroke:#000000;"/>
    <path clip-path="url(#pdaf81cfa4c)" d="M 180.170227 136.380068 
L 172.119594 127.131142 
L 176.621392 126.940601 
z
" style="stroke:#000000;"/>
    <path clip-path="url(#pdaf81cfa4c)" d="M 167.852455 118.224147 
L 176.621392 126.940601 
L 172.119594 127.131142 
z
" style="stroke:#000000;"/>
    <path clip-path="url(#pdaf81cfa4c)" d="M 168.230985 224.289567 
L 176.075663 215.590308 
L 171.574773 215.432432 
z
" style="stroke:#000000;"/>
    <path clip-path="url(#pdaf81cfa4c)" d="M 178.711593 206.318689 
L 171.574773 215.432432 
L 176.075663 215.590308 
z
" style="stroke:#000000;"/>
    <path clip-path="url(#pdaf81cfa4c)" d="M 167.852455 236.11028 
L 164.204612 232.678975 
L 168.230985 224.289567 
z
" style="stroke:#000000;"/>
    <path clip-path="url(#pdaf81cfa4c)" d="M 164.204612 121.661845 
L 167.852455 118.224147 
L 168.230985 130.044197 
z
" style="stroke:#000000;"/>
    <path clip-path="url(#pdaf81cfa4c)" d="M 171.574773 138.895471 
L 172.726281 129.864796 
L 168.230985 130.044197 
z
" style="stroke:#000000;"/>
    <path clip-path="url(#pdaf81cfa4c)" d="M 172.119594 227.195806 
L 172.347114 236.350209 
L 167.852455 236.11028 
z
" style="stroke:#000000;"/>
    <path clip-path="url(#pdaf81cfa4c)" d="M 180.170227 136.380068 
L 176.075663 138.751304 
L 178.711593 148.018275 
z
" style="stroke:#000000;"/>
    <path clip-path="url(#pdaf81cfa4c)" d="M 176.075663 215.590308 
L 180.170227 217.954323 
L 178.711593 206.318689 
z
" style="stroke:#000000;"/>
    <path clip-path="url(#pdaf81cfa4c)" d="M 172.347114 236.350209 
L 172.119594 227.195806 
L 176.621392 227.400048 
z
" style="stroke:#000000;"/>
    <path clip-path="url(#pdaf81cfa4c)" d="M 176.075663 138.751304 
L 180.170227 136.380068 
L 176.621392 126.940601 
z
" style="stroke:#000000;"/>
    <path clip-path="url(#pdaf81cfa4c)" d="M 180.170227 217.954323 
L 176.075663 215.590308 
L 176.621392 227.400048 
z
" style="stroke:#000000;"/>
    <path clip-path="url(#pdaf81cfa4c)" d="M 172.726281 129.864796 
L 171.574773 138.895471 
L 176.075663 138.751304 
z
" style="stroke:#000000;"/>
    <path clip-path="url(#pdaf81cfa4c)" d="M 162.898923 244.439589 
L 164.204612 232.678975 
L 167.852455 236.11028 
z
" style="stroke:#000000;"/>
    <path clip-path="url(#pdaf81cfa4c)" d="M 164.204612 121.661845 
L 162.898923 109.90352 
L 167.852455 118.224147 
z
" style="stroke:#000000;"/>
    <path clip-path="url(#pdaf81cfa4c)" d="M 164.204612 232.678975 
L 172.726281 224.482722 
L 168.230985 224.289567 
z
" style="stroke:#000000;"/>
    <path clip-path="url(#pdaf81cfa4c)" d="M 176.075663 215.590308 
L 168.230985 224.289567 
L 172.726281 224.482722 
z
" style="stroke:#000000;"/>
    <path clip-path="url(#pdaf81cfa4c)" d="M 176.621392 126.940601 
L 167.852455 118.224147 
L 172.347114 117.997978 
z
" style="stroke:#000000;"/>
    <path clip-path="url(#pdaf81cfa4c)" d="M 162.898923 109.90352 
L 172.347114 117.997978 
L 167.852455 118.224147 
z
" style="stroke:#000000;"/>
    <path clip-path="url(#pdaf81cfa4c)" d="M 168.230985 130.044197 
L 168.693111 121.448876 
L 164.204612 121.661845 
z
" style="stroke:#000000;"/>
    <path clip-path="url(#pdaf81cfa4c)" d="M 176.621392 126.940601 
L 172.726281 129.864796 
L 176.075663 138.751304 
z
" style="stroke:#000000;"/>
    <path clip-path="url(#pdaf81cfa4c)" d="M 172.726281 224.482722 
L 176.621392 227.400048 
L 176.075663 215.590308 
z
" style="stroke:#000000;"/>
    <path clip-path="url(#pdaf81cfa4c)" d="M 162.898923 244.439589 
L 159.531824 240.513396 
L 164.204612 232.678975 
z
" style="stroke:#000000;"/>
    <path clip-path="url(#pdaf81cfa4c)" d="M 159.531824 113.835614 
L 162.898923 109.90352 
L 164.204612 121.661845 
z
" style="stroke:#000000;"/>
    <path clip-path="url(#pdaf81cfa4c)" d="M 167.852455 236.11028 
L 167.385204 244.713134 
L 162.898923 244.439589 
z
" style="stroke:#000000;"/>
    <path clip-path="url(#pdaf81cfa4c)" d="M 168.693111 121.448876 
L 168.230985 130.044197 
L 172.726281 129.864796 
z
" style="stroke:#000000;"/>
    <path clip-path="url(#pdaf81cfa4c)" d="M 172.347114 117.997978 
L 172.726281 129.864796 
L 176.621392 126.940601 
z
" style="stroke:#000000;"/>
    <path clip-path="url(#pdaf81cfa4c)" d="M 172.726281 224.482722 
L 172.347114 236.350209 
L 176.621392 227.400048 
z
" style="stroke:#000000;"/>
    <path clip-path="url(#pdaf81cfa4c)" d="M 167.385204 244.713134 
L 167.852455 236.11028 
L 172.347114 236.350209 
z
" style="stroke:#000000;"/>
    <path clip-path="url(#pdaf81cfa4c)" d="M 158.12722 246.992072 
L 162.898923 244.439589 
L 160.10515 248.262082 
z
" style="stroke:#000000;"/>
    <path clip-path="url(#pdaf81cfa4c)" d="M 162.898923 109.90352 
L 158.12722 107.359399 
L 160.10515 106.085922 
z
" style="stroke:#000000;"/>
    <path clip-path="url(#pdaf81cfa4c)" d="M 172.726281 224.482722 
L 164.204612 232.678975 
L 168.693111 232.905755 
z
" style="stroke:#000000;"/>
    <path clip-path="url(#pdaf81cfa4c)" d="M 162.898923 244.439589 
L 158.12722 246.992072 
L 159.531824 240.513396 
z
" style="stroke:#000000;"/>
    <path clip-path="url(#pdaf81cfa4c)" d="M 158.12722 107.359399 
L 162.898923 109.90352 
L 159.531824 113.835614 
z
" style="stroke:#000000;"/>
    <path clip-path="url(#pdaf81cfa4c)" d="M 159.531824 240.513396 
L 168.693111 232.905755 
L 164.204612 232.678975 
z
" style="stroke:#000000;"/>
    <path clip-path="url(#pdaf81cfa4c)" d="M 160.10515 106.085922 
L 167.385204 109.643804 
L 162.898923 109.90352 
z
" style="stroke:#000000;"/>
    <path clip-path="url(#pdaf81cfa4c)" d="M 172.347114 117.997978 
L 162.898923 109.90352 
L 167.385204 109.643804 
z
" style="stroke:#000000;"/>
    <path clip-path="url(#pdaf81cfa4c)" d="M 172.347114 117.997978 
L 168.693111 121.448876 
L 172.726281 129.864796 
z
" style="stroke:#000000;"/>
    <path clip-path="url(#pdaf81cfa4c)" d="M 168.693111 232.905755 
L 172.347114 236.350209 
L 172.726281 224.482722 
z
" style="stroke:#000000;"/>
    <path clip-path="url(#pdaf81cfa4c)" d="M 164.204612 121.661845 
L 164.012354 113.591069 
L 159.531824 113.835614 
z
" style="stroke:#000000;"/>
    <path clip-path="url(#pdaf81cfa4c)" d="M 162.898923 244.439589 
L 164.586663 248.551186 
L 160.10515 248.262082 
z
" style="stroke:#000000;"/>
    <path clip-path="url(#pdaf81cfa4c)" d="M 159.531824 240.513396 
L 158.12722 246.992072 
L 156.045596 245.268301 
z
" style="stroke:#000000;"/>
    <path clip-path="url(#pdaf81cfa4c)" d="M 158.12722 107.359399 
L 159.531824 113.835614 
L 156.045596 109.086818 
z
" style="stroke:#000000;"/>
    <path clip-path="url(#pdaf81cfa4c)" d="M 164.012354 113.591069 
L 164.204612 121.661845 
L 168.693111 121.448876 
z
" style="stroke:#000000;"/>
    <path clip-path="url(#pdaf81cfa4c)" d="M 167.385204 109.643804 
L 168.693111 121.448876 
L 172.347114 117.997978 
z
" style="stroke:#000000;"/>
    <path clip-path="url(#pdaf81cfa4c)" d="M 168.693111 232.905755 
L 167.385204 244.713134 
L 172.347114 236.350209 
z
" style="stroke:#000000;"/>
    <path clip-path="url(#pdaf81cfa4c)" d="M 164.586663 248.551186 
L 158.12722 246.992072 
L 160.10515 248.262082 
z
" style="stroke:#000000;"/>
    <path clip-path="url(#pdaf81cfa4c)" d="M 164.586663 248.551186 
L 162.898923 244.439589 
L 167.385204 244.713134 
z
" style="stroke:#000000;"/>
    <path clip-path="url(#pdaf81cfa4c)" d="M 162.605338 107.08895 
L 160.10515 106.085922 
L 158.12722 107.359399 
z
" style="stroke:#000000;"/>
    <path clip-path="url(#pdaf81cfa4c)" d="M 168.693111 232.905755 
L 159.531824 240.513396 
L 164.012354 240.771817 
z
" style="stroke:#000000;"/>
    <path clip-path="url(#pdaf81cfa4c)" d="M 167.385204 109.643804 
L 160.10515 106.085922 
L 164.586663 105.810688 
z
" style="stroke:#000000;"/>
    <path clip-path="url(#pdaf81cfa4c)" d="M 164.012354 113.591069 
L 156.045596 109.086818 
L 159.531824 113.835614 
z
" style="stroke:#000000;"/>
    <path clip-path="url(#pdaf81cfa4c)" d="M 162.605338 247.276417 
L 156.045596 245.268301 
L 158.12722 246.992072 
z
" style="stroke:#000000;"/>
    <path clip-path="url(#pdaf81cfa4c)" d="M 160.520124 245.546088 
L 159.531824 240.513396 
L 156.045596 245.268301 
z
" style="stroke:#000000;"/>
    <path clip-path="url(#pdaf81cfa4c)" d="M 167.385204 109.643804 
L 164.012354 113.591069 
L 168.693111 121.448876 
z
" style="stroke:#000000;"/>
    <path clip-path="url(#pdaf81cfa4c)" d="M 164.012354 240.771817 
L 167.385204 244.713134 
L 168.693111 232.905755 
z
" style="stroke:#000000;"/>
    <path clip-path="url(#pdaf81cfa4c)" d="M 160.10515 106.085922 
L 162.605338 107.08895 
L 164.586663 105.810688 
z
" style="stroke:#000000;"/>
    <path clip-path="url(#pdaf81cfa4c)" d="M 160.520124 108.822956 
L 158.12722 107.359399 
L 156.045596 109.086818 
z
" style="stroke:#000000;"/>
    <path clip-path="url(#pdaf81cfa4c)" d="M 158.12722 246.992072 
L 164.586663 248.551186 
L 162.605338 247.276417 
z
" style="stroke:#000000;"/>
    <path clip-path="url(#pdaf81cfa4c)" d="M 159.531824 240.513396 
L 160.520124 245.546088 
L 164.012354 240.771817 
z
" style="stroke:#000000;"/>
    <path clip-path="url(#pdaf81cfa4c)" d="M 162.605338 107.08895 
L 167.385204 109.643804 
L 164.586663 105.810688 
z
" style="stroke:#000000;"/>
    <path clip-path="url(#pdaf81cfa4c)" d="M 167.385204 244.713134 
L 162.605338 247.276417 
L 164.586663 248.551186 
z
" style="stroke:#000000;"/>
    <path clip-path="url(#pdaf81cfa4c)" d="M 167.385204 109.643804 
L 162.605338 107.08895 
L 164.012354 113.591069 
z
" style="stroke:#000000;"/>
    <path clip-path="url(#pdaf81cfa4c)" d="M 162.605338 247.276417 
L 167.385204 244.713134 
L 164.012354 240.771817 
z
" style="stroke:#000000;"/>
    <path clip-path="url(#pdaf81cfa4c)" d="M 158.12722 107.359399 
L 160.520124 108.822956 
L 162.605338 107.08895 
z
" style="stroke:#000000;"/>
    <path clip-path="url(#pdaf81cfa4c)" d="M 156.045596 109.086818 
L 164.012354 113.591069 
L 160.520124 108.822956 
z
" style="stroke:#000000;"/>
    <path clip-path="url(#pdaf81cfa4c)" d="M 156.045596 245.268301 
L 162.605338 247.276417 
L 160.520124 245.546088 
z
" style="stroke:#000000;"/>
    <path clip-path="url(#pdaf81cfa4c)" d="M 164.012354 113.591069 
L 162.605338 107.08895 
L 160.520124 108.822956 
z
" style="stroke:#000000;"/>
    <path clip-path="url(#pdaf81cfa4c)" d="M 162.605338 247.276417 
L 164.012354 240.771817 
L 160.520124 245.546088 
z
" style="stroke:#000000;"/>
   </g>
  </g>
 </g>
 <defs>
  <clipPath id="pdaf81cfa4c">
   <rect height="271.8" width="279" x="45" y="43.2"/>
  </clipPath>
 </defs>
</svg>
