<?xml version="1.0" encoding="utf-8" standalone="no"?>
<!DOCTYPE svg PUBLIC "-//W3C//DTD SVG 1.1//EN"
  "http://www.w3.org/Graphics/SVG/1.1/DTD/svg11.dtd">
<!-- Created with matplotlib (https://matplotlib.org/) -->
<svg height="360pt" version="1.1" viewBox="0 0 360 360" width="360pt" xmlns="http://www.w3.org/2000/svg" xmlns:xlink="http://www.w3.org/1999/xlink">
 <defs>
  <style type="text/css">
*{stroke-linecap:butt;stroke-linejoin:round;}
  </style>
 </defs>
 <g id="figure_1">
  <g id="patch_1">
   <path d="M 0 360 
L 360 360 
L 360 0 
L 0 0 
z
" style="fill:#ffffff;"/>
  </g>
  <g id="patch_2">
   <path d="M 45 315 
L 324 315 
L 324 43.2 
L 45 43.2 
z
" style="fill:#ffffff;"/>
  </g>
  <g id="axes_1">
   <g id="Poly3DCollection_1">
    <path clip-path="url(#p685aa949a8)" d="M 163.618301 126.297458 
L 164.875466 130.976724 
L 161.758938 127.613418 
z
" style="stroke:#000000;"/>
    <path clip-path="url(#p685aa949a8)" d="M 164.875466 223.294004 
L 163.618301 227.972894 
L 161.758938 226.656378 
z
" style="stroke:#000000;"/>
    <path clip-path="url(#p685aa949a8)" d="M 163.618301 126.297458 
L 167.897483 128.017891 
L 164.875466 130.976724 
z
" style="stroke:#000000;"/>
    <path clip-path="url(#p685aa949a8)" d="M 167.897483 226.253739 
L 163.618301 227.972894 
L 164.875466 223.294004 
z
" style="stroke:#000000;"/>
    <path clip-path="url(#p685aa949a8)" d="M 167.897483 128.017891 
L 163.618301 126.297458 
L 165.389201 125.3123 
z
" style="stroke:#000000;"/>
    <path clip-path="url(#p685aa949a8)" d="M 163.618301 227.972894 
L 167.897483 226.253739 
L 165.389201 228.958581 
z
" style="stroke:#000000;"/>
    <path clip-path="url(#p685aa949a8)" d="M 167.897483 128.017891 
L 169.072541 136.573854 
L 164.875466 130.976724 
z
" style="stroke:#000000;"/>
    <path clip-path="url(#p685aa949a8)" d="M 169.072541 217.698127 
L 167.897483 226.253739 
L 164.875466 223.294004 
z
" style="stroke:#000000;"/>
    <path clip-path="url(#p685aa949a8)" d="M 172.364898 133.973087 
L 169.072541 136.573854 
L 167.897483 128.017891 
z
" style="stroke:#000000;"/>
    <path clip-path="url(#p685aa949a8)" d="M 169.072541 217.698127 
L 172.364898 220.299879 
L 167.897483 226.253739 
z
" style="stroke:#000000;"/>
    <path clip-path="url(#p685aa949a8)" d="M 172.364898 133.973087 
L 172.707342 142.621469 
L 169.072541 136.573854 
z
" style="stroke:#000000;"/>
    <path clip-path="url(#p685aa949a8)" d="M 172.707342 211.651599 
L 172.364898 220.299879 
L 169.072541 217.698127 
z
" style="stroke:#000000;"/>
    <path clip-path="url(#p685aa949a8)" d="M 176.234005 140.407587 
L 172.707342 142.621469 
L 172.364898 133.973087 
z
" style="stroke:#000000;"/>
    <path clip-path="url(#p685aa949a8)" d="M 172.707342 211.651599 
L 176.234005 213.866535 
L 172.364898 220.299879 
z
" style="stroke:#000000;"/>
    <path clip-path="url(#p685aa949a8)" d="M 172.707342 142.621469 
L 176.234005 140.407587 
L 175.73893 149.052467 
z
" style="stroke:#000000;"/>
    <path clip-path="url(#p685aa949a8)" d="M 176.234005 213.866535 
L 172.707342 211.651599 
L 175.73893 205.221507 
z
" style="stroke:#000000;"/>
    <path clip-path="url(#p685aa949a8)" d="M 160.945652 127.440635 
L 163.618301 126.297458 
L 161.758938 127.613418 
z
" style="stroke:#000000;"/>
    <path clip-path="url(#p685aa949a8)" d="M 160.945652 226.841504 
L 164.875466 223.294004 
L 161.758938 226.656378 
z
" style="stroke:#000000;"/>
    <path clip-path="url(#p685aa949a8)" d="M 162.811602 228.162809 
L 161.758938 226.656378 
L 163.618301 227.972894 
z
" style="stroke:#000000;"/>
    <path clip-path="url(#p685aa949a8)" d="M 179.461172 147.250719 
L 175.73893 149.052467 
L 176.234005 140.407587 
z
" style="stroke:#000000;"/>
    <path clip-path="url(#p685aa949a8)" d="M 175.73893 205.221507 
L 179.461172 207.024368 
L 176.234005 213.866535 
z
" style="stroke:#000000;"/>
    <path clip-path="url(#p685aa949a8)" d="M 164.073223 130.816051 
L 161.758938 127.613418 
L 164.875466 130.976724 
z
" style="stroke:#000000;"/>
    <path clip-path="url(#p685aa949a8)" d="M 175.73893 149.052467 
L 179.461172 147.250719 
L 178.133125 155.795742 
z
" style="stroke:#000000;"/>
    <path clip-path="url(#p685aa949a8)" d="M 179.461172 207.024368 
L 175.73893 205.221507 
L 178.133125 198.478947 
z
" style="stroke:#000000;"/>
    <path clip-path="url(#p685aa949a8)" d="M 162.811602 126.11989 
L 165.389201 125.3123 
L 163.618301 126.297458 
z
" style="stroke:#000000;"/>
    <path clip-path="url(#p685aa949a8)" d="M 164.588778 229.152089 
L 163.618301 227.972894 
L 165.389201 228.958581 
z
" style="stroke:#000000;"/>
    <path clip-path="url(#p685aa949a8)" d="M 182.00986 154.426417 
L 178.133125 155.795742 
L 179.461172 147.250719 
z
" style="stroke:#000000;"/>
    <path clip-path="url(#p685aa949a8)" d="M 178.133125 198.478947 
L 182.00986 199.849431 
L 179.461172 207.024368 
z
" style="stroke:#000000;"/>
    <path clip-path="url(#p685aa949a8)" d="M 167.897483 226.253739 
L 164.588778 229.152089 
L 165.389201 228.958581 
z
" style="stroke:#000000;"/>
    <path clip-path="url(#p685aa949a8)" d="M 178.133125 155.795742 
L 182.00986 154.426417 
L 179.862872 162.776469 
z
" style="stroke:#000000;"/>
    <path clip-path="url(#p685aa949a8)" d="M 182.00986 199.849431 
L 178.133125 198.478947 
L 179.862872 191.498738 
z
" style="stroke:#000000;"/>
    <path clip-path="url(#p685aa949a8)" d="M 169.072541 136.573854 
L 164.073223 130.816051 
L 164.875466 130.976724 
z
" style="stroke:#000000;"/>
    <path clip-path="url(#p685aa949a8)" d="M 165.389201 125.3123 
L 167.105954 127.846477 
L 167.897483 128.017891 
z
" style="stroke:#000000;"/>
    <path clip-path="url(#p685aa949a8)" d="M 164.875466 223.294004 
L 168.285178 217.85098 
L 169.072541 217.698127 
z
" style="stroke:#000000;"/>
    <path clip-path="url(#p685aa949a8)" d="M 179.862872 162.776469 
L 183.851289 161.855065 
L 180.908596 169.91697 
z
" style="stroke:#000000;"/>
    <path clip-path="url(#p685aa949a8)" d="M 183.851289 192.421334 
L 179.862872 191.498738 
L 180.908596 184.358549 
z
" style="stroke:#000000;"/>
    <path clip-path="url(#p685aa949a8)" d="M 183.851289 161.855065 
L 179.862872 162.776469 
L 182.00986 154.426417 
z
" style="stroke:#000000;"/>
    <path clip-path="url(#p685aa949a8)" d="M 179.862872 191.498738 
L 183.851289 192.421334 
L 182.00986 199.849431 
z
" style="stroke:#000000;"/>
    <path clip-path="url(#p685aa949a8)" d="M 184.964569 184.82277 
L 180.908596 184.358549 
L 181.258509 177.137812 
z
" style="stroke:#000000;"/>
    <path clip-path="url(#p685aa949a8)" d="M 180.908596 169.91697 
L 184.964569 169.453961 
L 181.258509 177.137812 
z
" style="stroke:#000000;"/>
    <path clip-path="url(#p685aa949a8)" d="M 172.364898 220.299879 
L 167.105954 226.43751 
L 167.897483 226.253739 
z
" style="stroke:#000000;"/>
    <path clip-path="url(#p685aa949a8)" d="M 184.964569 169.453961 
L 180.908596 169.91697 
L 183.851289 161.855065 
z
" style="stroke:#000000;"/>
    <path clip-path="url(#p685aa949a8)" d="M 180.908596 184.358549 
L 184.964569 184.82277 
L 183.851289 192.421334 
z
" style="stroke:#000000;"/>
    <path clip-path="url(#p685aa949a8)" d="M 185.337062 177.138421 
L 181.258509 177.137812 
L 184.964569 169.453961 
z
" style="stroke:#000000;"/>
    <path clip-path="url(#p685aa949a8)" d="M 181.258509 177.137812 
L 185.337062 177.138421 
L 184.964569 184.82277 
z
" style="stroke:#000000;"/>
    <path clip-path="url(#p685aa949a8)" d="M 172.707342 142.621469 
L 168.285178 136.433361 
L 169.072541 136.573854 
z
" style="stroke:#000000;"/>
    <path clip-path="url(#p685aa949a8)" d="M 167.897483 128.017891 
L 171.589217 133.823146 
L 172.364898 133.973087 
z
" style="stroke:#000000;"/>
    <path clip-path="url(#p685aa949a8)" d="M 190.779654 122.710515 
L 183.977221 131.011537 
L 180.579033 130.106132 
z
" style="stroke:#000000;"/>
    <path clip-path="url(#p685aa949a8)" d="M 190.779654 144.776212 
L 180.579033 130.106132 
L 183.977221 131.011537 
z
" style="stroke:#000000;"/>
    <path clip-path="url(#p685aa949a8)" d="M 169.072541 217.698127 
L 171.932876 211.782629 
L 172.707342 211.651599 
z
" style="stroke:#000000;"/>
    <path clip-path="url(#p685aa949a8)" d="M 190.779654 144.776212 
L 190.779654 152.131445 
L 180.579033 130.106132 
z
" style="stroke:#000000;"/>
    <path clip-path="url(#p685aa949a8)" d="M 176.234005 213.866535 
L 171.589217 220.462186 
L 172.364898 220.299879 
z
" style="stroke:#000000;"/>
    <path clip-path="url(#p685aa949a8)" d="M 175.73893 149.052467 
L 171.932876 142.502806 
L 172.707342 142.621469 
z
" style="stroke:#000000;"/>
    <path clip-path="url(#p685aa949a8)" d="M 190.779654 122.710515 
L 190.779654 126.388132 
L 183.977221 131.011537 
z
" style="stroke:#000000;"/>
    <path clip-path="url(#p685aa949a8)" d="M 172.707342 211.651599 
L 174.975227 205.329307 
L 175.73893 205.221507 
z
" style="stroke:#000000;"/>
    <path clip-path="url(#p685aa949a8)" d="M 172.364898 133.973087 
L 175.47206 140.280877 
L 176.234005 140.407587 
z
" style="stroke:#000000;"/>
    <path clip-path="url(#p685aa949a8)" d="M 161.758938 226.656378 
L 162.811602 228.162809 
L 160.945652 226.841504 
z
" style="stroke:#000000;"/>
    <path clip-path="url(#p685aa949a8)" d="M 178.133125 155.795742 
L 174.975227 148.957041 
L 175.73893 149.052467 
z
" style="stroke:#000000;"/>
    <path clip-path="url(#p685aa949a8)" d="M 161.758938 127.613418 
L 164.073223 130.816051 
L 160.945652 127.440635 
z
" style="stroke:#000000;"/>
    <path clip-path="url(#p685aa949a8)" d="M 163.618301 126.297458 
L 160.945652 127.440635 
L 162.811602 126.11989 
z
" style="stroke:#000000;"/>
    <path clip-path="url(#p685aa949a8)" d="M 179.461172 207.024368 
L 175.47206 214.00562 
L 176.234005 213.866535 
z
" style="stroke:#000000;"/>
    <path clip-path="url(#p685aa949a8)" d="M 175.73893 205.221507 
L 177.377926 198.562369 
L 178.133125 198.478947 
z
" style="stroke:#000000;"/>
    <path clip-path="url(#p685aa949a8)" d="M 164.875466 223.294004 
L 160.945652 226.841504 
L 164.073223 223.467027 
z
" style="stroke:#000000;"/>
    <path clip-path="url(#p685aa949a8)" d="M 163.618301 227.972894 
L 164.588778 229.152089 
L 162.811602 228.162809 
z
" style="stroke:#000000;"/>
    <path clip-path="url(#p685aa949a8)" d="M 176.234005 140.407587 
L 178.710691 147.14874 
L 179.461172 147.250719 
z
" style="stroke:#000000;"/>
    <path clip-path="url(#p685aa949a8)" d="M 165.389201 125.3123 
L 162.811602 126.11989 
L 164.588778 125.131143 
z
" style="stroke:#000000;"/>
    <path clip-path="url(#p685aa949a8)" d="M 179.862872 162.776469 
L 177.377926 155.724699 
L 178.133125 155.795742 
z
" style="stroke:#000000;"/>
    <path clip-path="url(#p685aa949a8)" d="M 190.779654 122.710515 
L 197.590173 130.958735 
L 190.779654 126.388132 
z
" style="stroke:#000000;"/>
    <path clip-path="url(#p685aa949a8)" d="M 178.133125 198.478947 
L 179.113819 191.556908 
L 179.862872 191.498738 
z
" style="stroke:#000000;"/>
    <path clip-path="url(#p685aa949a8)" d="M 167.105954 127.846477 
L 165.389201 125.3123 
L 164.588778 125.131143 
z
" style="stroke:#000000;"/>
    <path clip-path="url(#p685aa949a8)" d="M 168.285178 217.85098 
L 164.875466 223.294004 
L 164.073223 223.467027 
z
" style="stroke:#000000;"/>
    <path clip-path="url(#p685aa949a8)" d="M 180.908596 169.91697 
L 179.113819 162.730681 
L 179.862872 162.776469 
z
" style="stroke:#000000;"/>
    <path clip-path="url(#p685aa949a8)" d="M 182.00986 199.849431 
L 178.710691 207.138728 
L 179.461172 207.024368 
z
" style="stroke:#000000;"/>
    <path clip-path="url(#p685aa949a8)" d="M 190.779654 144.776212 
L 200.99847 130.025291 
L 190.779654 152.131445 
z
" style="stroke:#000000;"/>
    <path clip-path="url(#p685aa949a8)" d="M 179.862872 191.498738 
L 180.16326 184.390879 
L 180.908596 184.358549 
z
" style="stroke:#000000;"/>
    <path clip-path="url(#p685aa949a8)" d="M 164.588778 229.152089 
L 167.897483 226.253739 
L 167.105954 226.43751 
z
" style="stroke:#000000;"/>
    <path clip-path="url(#p685aa949a8)" d="M 181.258509 177.137812 
L 180.16326 169.897025 
L 180.908596 169.91697 
z
" style="stroke:#000000;"/>
    <path clip-path="url(#p685aa949a8)" d="M 180.908596 184.358549 
L 180.514417 177.144005 
L 181.258509 177.137812 
z
" style="stroke:#000000;"/>
    <path clip-path="url(#p685aa949a8)" d="M 179.461172 147.250719 
L 181.268438 154.350393 
L 182.00986 154.426417 
z
" style="stroke:#000000;"/>
    <path clip-path="url(#p685aa949a8)" d="M 164.073223 130.816051 
L 169.072541 136.573854 
L 168.285178 136.433361 
z
" style="stroke:#000000;"/>
    <path clip-path="url(#p685aa949a8)" d="M 183.851289 192.421334 
L 181.268438 199.937843 
L 182.00986 199.849431 
z
" style="stroke:#000000;"/>
    <path clip-path="url(#p685aa949a8)" d="M 197.590173 130.958735 
L 190.779654 122.710515 
L 200.99847 130.025291 
z
" style="stroke:#000000;"/>
    <path clip-path="url(#p685aa949a8)" d="M 200.99847 130.025291 
L 190.779654 144.776212 
L 197.590173 130.958735 
z
" style="stroke:#000000;"/>
    <path clip-path="url(#p685aa949a8)" d="M 171.589217 133.823146 
L 167.897483 128.017891 
L 167.105954 127.846477 
z
" style="stroke:#000000;"/>
    <path clip-path="url(#p685aa949a8)" d="M 182.00986 154.426417 
L 183.116415 161.805925 
L 183.851289 161.855065 
z
" style="stroke:#000000;"/>
    <path clip-path="url(#p685aa949a8)" d="M 200.316648 177.14066 
L 196.227422 177.140049 
L 196.600647 169.447892 
z
" style="stroke:#000000;"/>
    <path clip-path="url(#p685aa949a8)" d="M 196.227422 177.140049 
L 200.316648 177.14066 
L 196.600647 184.832317 
z
" style="stroke:#000000;"/>
    <path clip-path="url(#p685aa949a8)" d="M 179.832525 129.942086 
L 190.779654 122.710515 
L 180.579033 130.106132 
z
" style="stroke:#000000;"/>
    <path clip-path="url(#p685aa949a8)" d="M 190.779654 152.131445 
L 179.832525 129.942086 
L 180.579033 130.106132 
z
" style="stroke:#000000;"/>
    <path clip-path="url(#p685aa949a8)" d="M 171.932876 211.782629 
L 169.072541 217.698127 
L 168.285178 217.85098 
z
" style="stroke:#000000;"/>
    <path clip-path="url(#p685aa949a8)" d="M 184.964569 184.82277 
L 183.116415 192.482865 
L 183.851289 192.421334 
z
" style="stroke:#000000;"/>
    <path clip-path="url(#p685aa949a8)" d="M 200.667749 169.90746 
L 196.600647 169.447892 
L 197.716407 161.838631 
z
" style="stroke:#000000;"/>
    <path clip-path="url(#p685aa949a8)" d="M 196.600647 184.832317 
L 200.667749 184.373965 
L 197.716407 192.441911 
z
" style="stroke:#000000;"/>
    <path clip-path="url(#p685aa949a8)" d="M 183.851289 161.855065 
L 184.233655 169.432332 
L 184.964569 169.453961 
z
" style="stroke:#000000;"/>
    <path clip-path="url(#p685aa949a8)" d="M 167.105954 226.43751 
L 172.364898 220.299879 
L 171.589217 220.462186 
z
" style="stroke:#000000;"/>
    <path clip-path="url(#p685aa949a8)" d="M 185.337062 177.138421 
L 184.233655 184.856793 
L 184.964569 184.82277 
z
" style="stroke:#000000;"/>
    <path clip-path="url(#p685aa949a8)" d="M 184.964569 169.453961 
L 184.607472 177.144619 
L 185.337062 177.138421 
z
" style="stroke:#000000;"/>
    <path clip-path="url(#p685aa949a8)" d="M 168.285178 136.433361 
L 172.707342 142.621469 
L 171.932876 142.502806 
z
" style="stroke:#000000;"/>
    <path clip-path="url(#p685aa949a8)" d="M 200.667749 184.373965 
L 196.600647 184.832317 
L 200.316648 177.14066 
z
" style="stroke:#000000;"/>
    <path clip-path="url(#p685aa949a8)" d="M 196.600647 169.447892 
L 200.667749 169.90746 
L 200.316648 177.14066 
z
" style="stroke:#000000;"/>
    <path clip-path="url(#p685aa949a8)" d="M 201.717279 162.752316 
L 197.716407 161.838631 
L 199.562893 154.39422 
z
" style="stroke:#000000;"/>
    <path clip-path="url(#p685aa949a8)" d="M 197.716407 192.441911 
L 201.717279 191.529422 
L 199.562893 199.886874 
z
" style="stroke:#000000;"/>
    <path clip-path="url(#p685aa949a8)" d="M 197.716407 161.838631 
L 201.717279 162.752316 
L 200.667749 169.90746 
z
" style="stroke:#000000;"/>
    <path clip-path="url(#p685aa949a8)" d="M 201.717279 191.529422 
L 197.716407 192.441911 
L 200.667749 184.373965 
z
" style="stroke:#000000;"/>
    <path clip-path="url(#p685aa949a8)" d="M 175.47206 140.280877 
L 172.364898 133.973087 
L 171.589217 133.823146 
z
" style="stroke:#000000;"/>
    <path clip-path="url(#p685aa949a8)" d="M 174.975227 205.329307 
L 172.707342 211.651599 
L 171.932876 211.782629 
z
" style="stroke:#000000;"/>
    <path clip-path="url(#p685aa949a8)" d="M 199.562893 154.39422 
L 203.454162 155.75231 
L 201.717279 162.752316 
z
" style="stroke:#000000;"/>
    <path clip-path="url(#p685aa949a8)" d="M 203.454162 198.529947 
L 199.562893 199.886874 
L 201.717279 191.529422 
z
" style="stroke:#000000;"/>
    <path clip-path="url(#p685aa949a8)" d="M 203.454162 155.75231 
L 199.562893 154.39422 
L 202.120542 147.194941 
z
" style="stroke:#000000;"/>
    <path clip-path="url(#p685aa949a8)" d="M 199.562893 199.886874 
L 203.454162 198.529947 
L 202.120542 207.086918 
z
" style="stroke:#000000;"/>
    <path clip-path="url(#p685aa949a8)" d="M 171.932876 142.502806 
L 175.73893 149.052467 
L 174.975227 148.957041 
z
" style="stroke:#000000;"/>
    <path clip-path="url(#p685aa949a8)" d="M 190.069434 126.210469 
L 183.977221 131.011537 
L 190.779654 126.388132 
z
" style="stroke:#000000;"/>
    <path clip-path="url(#p685aa949a8)" d="M 183.977221 131.011537 
L 190.069434 144.665168 
L 190.779654 144.776212 
z
" style="stroke:#000000;"/>
    <path clip-path="url(#p685aa949a8)" d="M 171.589217 220.462186 
L 176.234005 213.866535 
L 175.47206 214.00562 
z
" style="stroke:#000000;"/>
    <path clip-path="url(#p685aa949a8)" d="M 202.120542 147.194941 
L 205.859969 148.983041 
L 203.454162 155.75231 
z
" style="stroke:#000000;"/>
    <path clip-path="url(#p685aa949a8)" d="M 205.859969 205.299936 
L 202.120542 207.086918 
L 203.454162 198.529947 
z
" style="stroke:#000000;"/>
    <path clip-path="url(#p685aa949a8)" d="M 177.377926 198.562369 
L 175.73893 205.221507 
L 174.975227 205.329307 
z
" style="stroke:#000000;"/>
    <path clip-path="url(#p685aa949a8)" d="M 205.859969 148.983041 
L 202.120542 147.194941 
L 205.362328 140.318446 
z
" style="stroke:#000000;"/>
    <path clip-path="url(#p685aa949a8)" d="M 202.120542 207.086918 
L 205.859969 205.299936 
L 205.362328 213.964382 
z
" style="stroke:#000000;"/>
    <path clip-path="url(#p685aa949a8)" d="M 162.811602 228.162809 
L 164.073223 223.467027 
L 160.945652 226.841504 
z
" style="stroke:#000000;"/>
    <path clip-path="url(#p685aa949a8)" d="M 164.073223 130.816051 
L 162.811602 126.11989 
L 160.945652 127.440635 
z
" style="stroke:#000000;"/>
    <path clip-path="url(#p685aa949a8)" d="M 178.710691 147.14874 
L 176.234005 140.407587 
L 175.47206 140.280877 
z
" style="stroke:#000000;"/>
    <path clip-path="url(#p685aa949a8)" d="M 174.975227 148.957041 
L 178.133125 155.795742 
L 177.377926 155.724699 
z
" style="stroke:#000000;"/>
    <path clip-path="url(#p685aa949a8)" d="M 175.47206 214.00562 
L 179.461172 207.024368 
L 178.710691 207.138728 
z
" style="stroke:#000000;"/>
    <path clip-path="url(#p685aa949a8)" d="M 179.113819 191.556908 
L 178.133125 198.478947 
L 177.377926 198.562369 
z
" style="stroke:#000000;"/>
    <path clip-path="url(#p685aa949a8)" d="M 205.362328 140.318446 
L 208.909157 142.517653 
L 205.859969 148.983041 
z
" style="stroke:#000000;"/>
    <path clip-path="url(#p685aa949a8)" d="M 208.909157 211.766235 
L 205.362328 213.964382 
L 205.859969 205.299936 
z
" style="stroke:#000000;"/>
    <path clip-path="url(#p685aa949a8)" d="M 162.811602 228.162809 
L 167.105954 226.43751 
L 164.073223 223.467027 
z
" style="stroke:#000000;"/>
    <path clip-path="url(#p685aa949a8)" d="M 167.105954 127.846477 
L 162.811602 126.11989 
L 164.073223 130.816051 
z
" style="stroke:#000000;"/>
    <path clip-path="url(#p685aa949a8)" d="M 177.377926 155.724699 
L 179.862872 162.776469 
L 179.113819 162.730681 
z
" style="stroke:#000000;"/>
    <path clip-path="url(#p685aa949a8)" d="M 167.105954 226.43751 
L 162.811602 228.162809 
L 164.588778 229.152089 
z
" style="stroke:#000000;"/>
    <path clip-path="url(#p685aa949a8)" d="M 162.811602 126.11989 
L 167.105954 127.846477 
L 164.588778 125.131143 
z
" style="stroke:#000000;"/>
    <path clip-path="url(#p685aa949a8)" d="M 180.16326 184.390879 
L 179.862872 191.498738 
L 179.113819 191.556908 
z
" style="stroke:#000000;"/>
    <path clip-path="url(#p685aa949a8)" d="M 209.253793 133.839409 
L 208.909157 142.517653 
L 205.362328 140.318446 
z
" style="stroke:#000000;"/>
    <path clip-path="url(#p685aa949a8)" d="M 208.909157 211.766235 
L 209.253793 220.444582 
L 205.362328 213.964382 
z
" style="stroke:#000000;"/>
    <path clip-path="url(#p685aa949a8)" d="M 181.268438 154.350393 
L 179.461172 147.250719 
L 178.710691 147.14874 
z
" style="stroke:#000000;"/>
    <path clip-path="url(#p685aa949a8)" d="M 190.069434 122.519529 
L 200.99847 130.025291 
L 190.779654 122.710515 
z
" style="stroke:#000000;"/>
    <path clip-path="url(#p685aa949a8)" d="M 200.99847 130.025291 
L 190.069434 152.047047 
L 190.779654 152.131445 
z
" style="stroke:#000000;"/>
    <path clip-path="url(#p685aa949a8)" d="M 179.113819 162.730681 
L 180.908596 169.91697 
L 180.16326 169.897025 
z
" style="stroke:#000000;"/>
    <path clip-path="url(#p685aa949a8)" d="M 167.105954 226.43751 
L 168.285178 217.85098 
L 164.073223 223.467027 
z
" style="stroke:#000000;"/>
    <path clip-path="url(#p685aa949a8)" d="M 168.285178 136.433361 
L 167.105954 127.846477 
L 164.073223 130.816051 
z
" style="stroke:#000000;"/>
    <path clip-path="url(#p685aa949a8)" d="M 180.514417 177.144005 
L 180.908596 184.358549 
L 180.16326 184.390879 
z
" style="stroke:#000000;"/>
    <path clip-path="url(#p685aa949a8)" d="M 180.16326 169.897025 
L 181.258509 177.137812 
L 180.514417 177.144005 
z
" style="stroke:#000000;"/>
    <path clip-path="url(#p685aa949a8)" d="M 178.710691 207.138728 
L 182.00986 199.849431 
L 181.268438 199.937843 
z
" style="stroke:#000000;"/>
    <path clip-path="url(#p685aa949a8)" d="M 196.904218 130.797536 
L 190.779654 126.388132 
L 197.590173 130.958735 
z
" style="stroke:#000000;"/>
    <path clip-path="url(#p685aa949a8)" d="M 190.779654 144.776212 
L 196.904218 130.797536 
L 197.590173 130.958735 
z
" style="stroke:#000000;"/>
    <path clip-path="url(#p685aa949a8)" d="M 196.600647 184.832317 
L 195.536609 177.146258 
L 196.227422 177.140049 
z
" style="stroke:#000000;"/>
    <path clip-path="url(#p685aa949a8)" d="M 209.253793 133.839409 
L 212.56933 136.426077 
L 208.909157 142.517653 
z
" style="stroke:#000000;"/>
    <path clip-path="url(#p685aa949a8)" d="M 212.56933 217.858905 
L 209.253793 220.444582 
L 208.909157 211.766235 
z
" style="stroke:#000000;"/>
    <path clip-path="url(#p685aa949a8)" d="M 183.116415 161.805925 
L 182.00986 154.426417 
L 181.268438 154.350393 
z
" style="stroke:#000000;"/>
    <path clip-path="url(#p685aa949a8)" d="M 196.227422 177.140049 
L 195.911165 169.426219 
L 196.600647 169.447892 
z
" style="stroke:#000000;"/>
    <path clip-path="url(#p685aa949a8)" d="M 197.716407 192.441911 
L 195.911165 184.866409 
L 196.600647 184.832317 
z
" style="stroke:#000000;"/>
    <path clip-path="url(#p685aa949a8)" d="M 181.268438 199.937843 
L 183.851289 192.421334 
L 183.116415 192.482865 
z
" style="stroke:#000000;"/>
    <path clip-path="url(#p685aa949a8)" d="M 171.589217 220.462186 
L 168.285178 217.85098 
L 167.105954 226.43751 
z
" style="stroke:#000000;"/>
    <path clip-path="url(#p685aa949a8)" d="M 168.285178 136.433361 
L 171.589217 133.823146 
L 167.105954 127.846477 
z
" style="stroke:#000000;"/>
    <path clip-path="url(#p685aa949a8)" d="M 196.600647 169.447892 
L 197.030902 161.789372 
L 197.716407 161.838631 
z
" style="stroke:#000000;"/>
    <path clip-path="url(#p685aa949a8)" d="M 213.753587 127.827771 
L 212.56933 136.426077 
L 209.253793 133.839409 
z
" style="stroke:#000000;"/>
    <path clip-path="url(#p685aa949a8)" d="M 212.56933 217.858905 
L 213.753587 226.457565 
L 209.253793 220.444582 
z
" style="stroke:#000000;"/>
    <path clip-path="url(#p685aa949a8)" d="M 184.233655 169.432332 
L 183.851289 161.855065 
L 183.116415 161.805925 
z
" style="stroke:#000000;"/>
    <path clip-path="url(#p685aa949a8)" d="M 199.562893 199.886874 
L 197.030902 192.503592 
L 197.716407 192.441911 
z
" style="stroke:#000000;"/>
    <path clip-path="url(#p685aa949a8)" d="M 183.116415 192.482865 
L 184.964569 184.82277 
L 184.233655 184.856793 
z
" style="stroke:#000000;"/>
    <path clip-path="url(#p685aa949a8)" d="M 184.607472 177.144619 
L 184.964569 169.453961 
L 184.233655 169.432332 
z
" style="stroke:#000000;"/>
    <path clip-path="url(#p685aa949a8)" d="M 171.589217 220.462186 
L 171.932876 211.782629 
L 168.285178 217.85098 
z
" style="stroke:#000000;"/>
    <path clip-path="url(#p685aa949a8)" d="M 171.932876 142.502806 
L 171.589217 133.823146 
L 168.285178 136.433361 
z
" style="stroke:#000000;"/>
    <path clip-path="url(#p685aa949a8)" d="M 197.716407 161.838631 
L 198.883972 154.317962 
L 199.562893 154.39422 
z
" style="stroke:#000000;"/>
    <path clip-path="url(#p685aa949a8)" d="M 184.233655 184.856793 
L 185.337062 177.138421 
L 184.607472 177.144619 
z
" style="stroke:#000000;"/>
    <path clip-path="url(#p685aa949a8)" d="M 183.977221 131.011537 
L 190.069434 126.210469 
L 183.242795 130.85072 
z
" style="stroke:#000000;"/>
    <path clip-path="url(#p685aa949a8)" d="M 190.069434 144.665168 
L 183.977221 131.011537 
L 183.242795 130.85072 
z
" style="stroke:#000000;"/>
    <path clip-path="url(#p685aa949a8)" d="M 202.120542 207.086918 
L 198.883972 199.975558 
L 199.562893 199.886874 
z
" style="stroke:#000000;"/>
    <path clip-path="url(#p685aa949a8)" d="M 200.667749 169.90746 
L 199.640416 177.146873 
L 200.316648 177.14066 
z
" style="stroke:#000000;"/>
    <path clip-path="url(#p685aa949a8)" d="M 213.753587 127.827771 
L 216.801504 130.77482 
L 212.56933 136.426077 
z
" style="stroke:#000000;"/>
    <path clip-path="url(#p685aa949a8)" d="M 216.801504 223.511427 
L 213.753587 226.457565 
L 212.56933 217.858905 
z
" style="stroke:#000000;"/>
    <path clip-path="url(#p685aa949a8)" d="M 200.316648 177.14066 
L 199.992769 184.406407 
L 200.667749 184.373965 
z
" style="stroke:#000000;"/>
    <path clip-path="url(#p685aa949a8)" d="M 201.717279 162.752316 
L 199.992769 169.887445 
L 200.667749 169.90746 
z
" style="stroke:#000000;"/>
    <path clip-path="url(#p685aa949a8)" d="M 190.779654 122.710515 
L 179.832525 129.942086 
L 190.069434 122.519529 
z
" style="stroke:#000000;"/>
    <path clip-path="url(#p685aa949a8)" d="M 179.832525 129.942086 
L 190.779654 152.131445 
L 190.069434 152.047047 
z
" style="stroke:#000000;"/>
    <path clip-path="url(#p685aa949a8)" d="M 199.562893 154.39422 
L 201.450744 147.092558 
L 202.120542 147.194941 
z
" style="stroke:#000000;"/>
    <path clip-path="url(#p685aa949a8)" d="M 175.47206 214.00562 
L 171.932876 211.782629 
L 171.589217 220.462186 
z
" style="stroke:#000000;"/>
    <path clip-path="url(#p685aa949a8)" d="M 171.932876 142.502806 
L 175.47206 140.280877 
L 171.589217 133.823146 
z
" style="stroke:#000000;"/>
    <path clip-path="url(#p685aa949a8)" d="M 200.667749 184.373965 
L 201.046042 191.587815 
L 201.717279 191.529422 
z
" style="stroke:#000000;"/>
    <path clip-path="url(#p685aa949a8)" d="M 218.070396 126.063418 
L 213.753587 127.827771 
L 216.283139 125.089201 
z
" style="stroke:#000000;"/>
    <path clip-path="url(#p685aa949a8)" d="M 213.753587 226.457565 
L 218.070396 228.223208 
L 216.283139 229.19689 
z
" style="stroke:#000000;"/>
    <path clip-path="url(#p685aa949a8)" d="M 203.454162 155.75231 
L 201.046042 162.706353 
L 201.717279 162.752316 
z
" style="stroke:#000000;"/>
    <path clip-path="url(#p685aa949a8)" d="M 213.753587 127.827771 
L 218.070396 126.063418 
L 216.801504 130.77482 
z
" style="stroke:#000000;"/>
    <path clip-path="url(#p685aa949a8)" d="M 218.070396 228.223208 
L 213.753587 226.457565 
L 216.801504 223.511427 
z
" style="stroke:#000000;"/>
    <path clip-path="url(#p685aa949a8)" d="M 171.932876 211.782629 
L 175.47206 214.00562 
L 174.975227 205.329307 
z
" style="stroke:#000000;"/>
    <path clip-path="url(#p685aa949a8)" d="M 175.47206 140.280877 
L 171.932876 142.502806 
L 174.975227 148.957041 
z
" style="stroke:#000000;"/>
    <path clip-path="url(#p685aa949a8)" d="M 201.717279 191.529422 
L 202.789123 198.61374 
L 203.454162 198.529947 
z
" style="stroke:#000000;"/>
    <path clip-path="url(#p685aa949a8)" d="M 205.362328 213.964382 
L 201.450744 207.201732 
L 202.120542 207.086918 
z
" style="stroke:#000000;"/>
    <path clip-path="url(#p685aa949a8)" d="M 205.859969 148.983041 
L 202.789123 155.680952 
L 203.454162 155.75231 
z
" style="stroke:#000000;"/>
    <path clip-path="url(#p685aa949a8)" d="M 202.120542 147.194941 
L 204.7041 140.191089 
L 205.362328 140.318446 
z
" style="stroke:#000000;"/>
    <path clip-path="url(#p685aa949a8)" d="M 216.801504 130.77482 
L 218.070396 126.063418 
L 219.948128 127.369975 
z
" style="stroke:#000000;"/>
    <path clip-path="url(#p685aa949a8)" d="M 218.070396 228.223208 
L 216.801504 223.511427 
L 219.948128 226.917212 
z
" style="stroke:#000000;"/>
    <path clip-path="url(#p685aa949a8)" d="M 178.710691 207.138728 
L 174.975227 205.329307 
L 175.47206 214.00562 
z
" style="stroke:#000000;"/>
    <path clip-path="url(#p685aa949a8)" d="M 174.975227 148.957041 
L 178.710691 147.14874 
L 175.47206 140.280877 
z
" style="stroke:#000000;"/>
    <path clip-path="url(#p685aa949a8)" d="M 203.454162 198.529947 
L 205.203518 205.408305 
L 205.859969 205.299936 
z
" style="stroke:#000000;"/>
    <path clip-path="url(#p685aa949a8)" d="M 174.975227 205.329307 
L 178.710691 207.138728 
L 177.377926 198.562369 
z
" style="stroke:#000000;"/>
    <path clip-path="url(#p685aa949a8)" d="M 178.710691 147.14874 
L 174.975227 148.957041 
L 177.377926 155.724699 
z
" style="stroke:#000000;"/>
    <path clip-path="url(#p685aa949a8)" d="M 209.253793 220.444582 
L 204.7041 214.104177 
L 205.362328 213.964382 
z
" style="stroke:#000000;"/>
    <path clip-path="url(#p685aa949a8)" d="M 190.779654 126.388132 
L 196.904218 130.797536 
L 190.069434 126.210469 
z
" style="stroke:#000000;"/>
    <path clip-path="url(#p685aa949a8)" d="M 196.904218 130.797536 
L 190.779654 144.776212 
L 190.069434 144.665168 
z
" style="stroke:#000000;"/>
    <path clip-path="url(#p685aa949a8)" d="M 208.909157 142.517653 
L 205.203518 148.88711 
L 205.859969 148.983041 
z
" style="stroke:#000000;"/>
    <path clip-path="url(#p685aa949a8)" d="M 181.268438 199.937843 
L 177.377926 198.562369 
L 178.710691 207.138728 
z
" style="stroke:#000000;"/>
    <path clip-path="url(#p685aa949a8)" d="M 177.377926 155.724699 
L 181.268438 154.350393 
L 178.710691 147.14874 
z
" style="stroke:#000000;"/>
    <path clip-path="url(#p685aa949a8)" d="M 177.377926 198.562369 
L 181.268438 199.937843 
L 179.113819 191.556908 
z
" style="stroke:#000000;"/>
    <path clip-path="url(#p685aa949a8)" d="M 181.268438 154.350393 
L 177.377926 155.724699 
L 179.113819 162.730681 
z
" style="stroke:#000000;"/>
    <path clip-path="url(#p685aa949a8)" d="M 205.859969 205.299936 
L 208.263595 211.898097 
L 208.909157 211.766235 
z
" style="stroke:#000000;"/>
    <path clip-path="url(#p685aa949a8)" d="M 205.362328 140.318446 
L 208.609462 133.688498 
L 209.253793 133.839409 
z
" style="stroke:#000000;"/>
    <path clip-path="url(#p685aa949a8)" d="M 179.113819 191.556908 
L 183.116415 192.482865 
L 180.16326 184.390879 
z
" style="stroke:#000000;"/>
    <path clip-path="url(#p685aa949a8)" d="M 183.116415 161.805925 
L 179.113819 162.730681 
L 180.16326 169.897025 
z
" style="stroke:#000000;"/>
    <path clip-path="url(#p685aa949a8)" d="M 183.116415 192.482865 
L 179.113819 191.556908 
L 181.268438 199.937843 
z
" style="stroke:#000000;"/>
    <path clip-path="url(#p685aa949a8)" d="M 179.113819 162.730681 
L 183.116415 161.805925 
L 181.268438 154.350393 
z
" style="stroke:#000000;"/>
    <path clip-path="url(#p685aa949a8)" d="M 184.233655 169.432332 
L 180.16326 169.897025 
L 180.514417 177.144005 
z
" style="stroke:#000000;"/>
    <path clip-path="url(#p685aa949a8)" d="M 180.16326 184.390879 
L 184.233655 184.856793 
L 180.514417 177.144005 
z
" style="stroke:#000000;"/>
    <path clip-path="url(#p685aa949a8)" d="M 212.56933 136.426077 
L 208.263595 142.398236 
L 208.909157 142.517653 
z
" style="stroke:#000000;"/>
    <path clip-path="url(#p685aa949a8)" d="M 195.911165 169.426219 
L 196.227422 177.140049 
L 195.536609 177.146258 
z
" style="stroke:#000000;"/>
    <path clip-path="url(#p685aa949a8)" d="M 195.536609 177.146258 
L 196.600647 184.832317 
L 195.911165 184.866409 
z
" style="stroke:#000000;"/>
    <path clip-path="url(#p685aa949a8)" d="M 213.753587 226.457565 
L 208.609462 220.60794 
L 209.253793 220.444582 
z
" style="stroke:#000000;"/>
    <path clip-path="url(#p685aa949a8)" d="M 197.030902 161.789372 
L 196.600647 169.447892 
L 195.911165 169.426219 
z
" style="stroke:#000000;"/>
    <path clip-path="url(#p685aa949a8)" d="M 184.233655 184.856793 
L 180.16326 184.390879 
L 183.116415 192.482865 
z
" style="stroke:#000000;"/>
    <path clip-path="url(#p685aa949a8)" d="M 180.16326 169.897025 
L 184.233655 169.432332 
L 183.116415 161.805925 
z
" style="stroke:#000000;"/>
    <path clip-path="url(#p685aa949a8)" d="M 195.911165 184.866409 
L 197.716407 192.441911 
L 197.030902 192.503592 
z
" style="stroke:#000000;"/>
    <path clip-path="url(#p685aa949a8)" d="M 208.909157 211.766235 
L 211.936847 218.012924 
L 212.56933 217.858905 
z
" style="stroke:#000000;"/>
    <path clip-path="url(#p685aa949a8)" d="M 200.99847 130.025291 
L 190.069434 122.519529 
L 200.324669 129.860659 
z
" style="stroke:#000000;"/>
    <path clip-path="url(#p685aa949a8)" d="M 190.069434 152.047047 
L 200.99847 130.025291 
L 200.324669 129.860659 
z
" style="stroke:#000000;"/>
    <path clip-path="url(#p685aa949a8)" d="M 184.607472 177.144619 
L 180.514417 177.144005 
L 184.233655 184.856793 
z
" style="stroke:#000000;"/>
    <path clip-path="url(#p685aa949a8)" d="M 180.514417 177.144005 
L 184.607472 177.144619 
L 184.233655 169.432332 
z
" style="stroke:#000000;"/>
    <path clip-path="url(#p685aa949a8)" d="M 198.883972 154.317962 
L 197.716407 161.838631 
L 197.030902 161.789372 
z
" style="stroke:#000000;"/>
    <path clip-path="url(#p685aa949a8)" d="M 209.253793 133.839409 
L 213.125337 127.654977 
L 213.753587 127.827771 
z
" style="stroke:#000000;"/>
    <path clip-path="url(#p685aa949a8)" d="M 179.832525 129.942086 
L 190.069434 144.665168 
L 183.242795 130.85072 
z
" style="stroke:#000000;"/>
    <path clip-path="url(#p685aa949a8)" d="M 183.242795 130.85072 
L 190.069434 122.519529 
L 179.832525 129.942086 
z
" style="stroke:#000000;"/>
    <path clip-path="url(#p685aa949a8)" d="M 197.030902 192.503592 
L 199.562893 199.886874 
L 198.883972 199.975558 
z
" style="stroke:#000000;"/>
    <path clip-path="url(#p685aa949a8)" d="M 216.801504 130.77482 
L 211.936847 136.284511 
L 212.56933 136.426077 
z
" style="stroke:#000000;"/>
    <path clip-path="url(#p685aa949a8)" d="M 201.450744 147.092558 
L 199.562893 154.39422 
L 198.883972 154.317962 
z
" style="stroke:#000000;"/>
    <path clip-path="url(#p685aa949a8)" d="M 199.992769 184.406407 
L 200.316648 177.14066 
L 199.640416 177.146873 
z
" style="stroke:#000000;"/>
    <path clip-path="url(#p685aa949a8)" d="M 199.640416 177.146873 
L 200.667749 169.90746 
L 199.992769 169.887445 
z
" style="stroke:#000000;"/>
    <path clip-path="url(#p685aa949a8)" d="M 216.283139 229.19689 
L 213.125337 226.642815 
L 213.753587 226.457565 
z
" style="stroke:#000000;"/>
    <path clip-path="url(#p685aa949a8)" d="M 201.046042 191.587815 
L 200.667749 184.373965 
L 199.992769 184.406407 
z
" style="stroke:#000000;"/>
    <path clip-path="url(#p685aa949a8)" d="M 190.069434 144.665168 
L 179.832525 129.942086 
L 190.069434 152.047047 
z
" style="stroke:#000000;"/>
    <path clip-path="url(#p685aa949a8)" d="M 198.883972 199.975558 
L 202.120542 207.086918 
L 201.450744 207.201732 
z
" style="stroke:#000000;"/>
    <path clip-path="url(#p685aa949a8)" d="M 199.992769 169.887445 
L 201.717279 162.752316 
L 201.046042 162.706353 
z
" style="stroke:#000000;"/>
    <path clip-path="url(#p685aa949a8)" d="M 212.56933 217.858905 
L 216.184155 223.686028 
L 216.801504 223.511427 
z
" style="stroke:#000000;"/>
    <path clip-path="url(#p685aa949a8)" d="M 213.753587 127.827771 
L 215.663935 124.906425 
L 216.283139 125.089201 
z
" style="stroke:#000000;"/>
    <path clip-path="url(#p685aa949a8)" d="M 190.069434 122.519529 
L 183.242795 130.85072 
L 190.069434 126.210469 
z
" style="stroke:#000000;"/>
    <path clip-path="url(#p685aa949a8)" d="M 202.789123 198.61374 
L 201.717279 191.529422 
L 201.046042 191.587815 
z
" style="stroke:#000000;"/>
    <path clip-path="url(#p685aa949a8)" d="M 201.046042 162.706353 
L 203.454162 155.75231 
L 202.789123 155.680952 
z
" style="stroke:#000000;"/>
    <path clip-path="url(#p685aa949a8)" d="M 215.663935 124.906425 
L 218.070396 126.063418 
L 216.283139 125.089201 
z
" style="stroke:#000000;"/>
    <path clip-path="url(#p685aa949a8)" d="M 204.7041 140.191089 
L 202.120542 147.194941 
L 201.450744 147.092558 
z
" style="stroke:#000000;"/>
    <path clip-path="url(#p685aa949a8)" d="M 217.457586 228.41494 
L 216.283139 229.19689 
L 218.070396 228.223208 
z
" style="stroke:#000000;"/>
    <path clip-path="url(#p685aa949a8)" d="M 216.184155 223.686028 
L 219.948128 226.917212 
L 216.801504 223.511427 
z
" style="stroke:#000000;"/>
    <path clip-path="url(#p685aa949a8)" d="M 205.203518 205.408305 
L 203.454162 198.529947 
L 202.789123 198.61374 
z
" style="stroke:#000000;"/>
    <path clip-path="url(#p685aa949a8)" d="M 201.450744 207.201732 
L 205.362328 213.964382 
L 204.7041 214.104177 
z
" style="stroke:#000000;"/>
    <path clip-path="url(#p685aa949a8)" d="M 217.457586 125.884151 
L 219.948128 127.369975 
L 218.070396 126.063418 
z
" style="stroke:#000000;"/>
    <path clip-path="url(#p685aa949a8)" d="M 202.789123 155.680952 
L 205.859969 148.983041 
L 205.203518 148.88711 
z
" style="stroke:#000000;"/>
    <path clip-path="url(#p685aa949a8)" d="M 219.342038 127.195425 
L 216.801504 130.77482 
L 219.948128 127.369975 
z
" style="stroke:#000000;"/>
    <path clip-path="url(#p685aa949a8)" d="M 219.342038 227.104232 
L 218.070396 228.223208 
L 219.948128 226.917212 
z
" style="stroke:#000000;"/>
    <path clip-path="url(#p685aa949a8)" d="M 208.609462 133.688498 
L 205.362328 140.318446 
L 204.7041 140.191089 
z
" style="stroke:#000000;"/>
    <path clip-path="url(#p685aa949a8)" d="M 196.904218 130.797536 
L 190.069434 122.519529 
L 190.069434 126.210469 
z
" style="stroke:#000000;"/>
    <path clip-path="url(#p685aa949a8)" d="M 208.263595 211.898097 
L 205.859969 205.299936 
L 205.203518 205.408305 
z
" style="stroke:#000000;"/>
    <path clip-path="url(#p685aa949a8)" d="M 205.203518 148.88711 
L 208.909157 142.517653 
L 208.263595 142.398236 
z
" style="stroke:#000000;"/>
    <path clip-path="url(#p685aa949a8)" d="M 204.7041 214.104177 
L 209.253793 220.444582 
L 208.609462 220.60794 
z
" style="stroke:#000000;"/>
    <path clip-path="url(#p685aa949a8)" d="M 200.324669 129.860659 
L 190.069434 144.665168 
L 190.069434 152.047047 
z
" style="stroke:#000000;"/>
    <path clip-path="url(#p685aa949a8)" d="M 211.936847 218.012924 
L 208.909157 211.766235 
L 208.263595 211.898097 
z
" style="stroke:#000000;"/>
    <path clip-path="url(#p685aa949a8)" d="M 190.069434 144.665168 
L 200.324669 129.860659 
L 196.904218 130.797536 
z
" style="stroke:#000000;"/>
    <path clip-path="url(#p685aa949a8)" d="M 190.069434 122.519529 
L 196.904218 130.797536 
L 200.324669 129.860659 
z
" style="stroke:#000000;"/>
    <path clip-path="url(#p685aa949a8)" d="M 213.125337 127.654977 
L 209.253793 133.839409 
L 208.609462 133.688498 
z
" style="stroke:#000000;"/>
    <path clip-path="url(#p685aa949a8)" d="M 208.263595 142.398236 
L 212.56933 136.426077 
L 211.936847 136.284511 
z
" style="stroke:#000000;"/>
    <path clip-path="url(#p685aa949a8)" d="M 199.640416 177.146873 
L 195.536609 177.146258 
L 195.911165 184.866409 
z
" style="stroke:#000000;"/>
    <path clip-path="url(#p685aa949a8)" d="M 195.536609 177.146258 
L 199.640416 177.146873 
L 195.911165 169.426219 
z
" style="stroke:#000000;"/>
    <path clip-path="url(#p685aa949a8)" d="M 199.992769 184.406407 
L 195.911165 184.866409 
L 197.030902 192.503592 
z
" style="stroke:#000000;"/>
    <path clip-path="url(#p685aa949a8)" d="M 195.911165 169.426219 
L 199.992769 169.887445 
L 197.030902 161.789372 
z
" style="stroke:#000000;"/>
    <path clip-path="url(#p685aa949a8)" d="M 208.609462 220.60794 
L 213.753587 226.457565 
L 213.125337 226.642815 
z
" style="stroke:#000000;"/>
    <path clip-path="url(#p685aa949a8)" d="M 199.992769 169.887445 
L 195.911165 169.426219 
L 199.640416 177.146873 
z
" style="stroke:#000000;"/>
    <path clip-path="url(#p685aa949a8)" d="M 195.911165 184.866409 
L 199.992769 184.406407 
L 199.640416 177.146873 
z
" style="stroke:#000000;"/>
    <path clip-path="url(#p685aa949a8)" d="M 201.046042 191.587815 
L 197.030902 192.503592 
L 198.883972 199.975558 
z
" style="stroke:#000000;"/>
    <path clip-path="url(#p685aa949a8)" d="M 197.030902 161.789372 
L 201.046042 162.706353 
L 198.883972 154.317962 
z
" style="stroke:#000000;"/>
    <path clip-path="url(#p685aa949a8)" d="M 197.030902 192.503592 
L 201.046042 191.587815 
L 199.992769 184.406407 
z
" style="stroke:#000000;"/>
    <path clip-path="url(#p685aa949a8)" d="M 201.046042 162.706353 
L 197.030902 161.789372 
L 199.992769 169.887445 
z
" style="stroke:#000000;"/>
    <path clip-path="url(#p685aa949a8)" d="M 216.184155 223.686028 
L 212.56933 217.858905 
L 211.936847 218.012924 
z
" style="stroke:#000000;"/>
    <path clip-path="url(#p685aa949a8)" d="M 215.663935 124.906425 
L 213.753587 127.827771 
L 213.125337 127.654977 
z
" style="stroke:#000000;"/>
    <path clip-path="url(#p685aa949a8)" d="M 198.883972 199.975558 
L 202.789123 198.61374 
L 201.046042 191.587815 
z
" style="stroke:#000000;"/>
    <path clip-path="url(#p685aa949a8)" d="M 202.789123 155.680952 
L 198.883972 154.317962 
L 201.046042 162.706353 
z
" style="stroke:#000000;"/>
    <path clip-path="url(#p685aa949a8)" d="M 211.936847 136.284511 
L 216.801504 130.77482 
L 216.184155 130.612681 
z
" style="stroke:#000000;"/>
    <path clip-path="url(#p685aa949a8)" d="M 213.125337 226.642815 
L 216.283139 229.19689 
L 215.663935 229.392128 
z
" style="stroke:#000000;"/>
    <path clip-path="url(#p685aa949a8)" d="M 202.789123 198.61374 
L 198.883972 199.975558 
L 201.450744 207.201732 
z
" style="stroke:#000000;"/>
    <path clip-path="url(#p685aa949a8)" d="M 198.883972 154.317962 
L 202.789123 155.680952 
L 201.450744 147.092558 
z
" style="stroke:#000000;"/>
    <path clip-path="url(#p685aa949a8)" d="M 216.283139 229.19689 
L 217.457586 228.41494 
L 215.663935 229.392128 
z
" style="stroke:#000000;"/>
    <path clip-path="url(#p685aa949a8)" d="M 218.070396 126.063418 
L 215.663935 124.906425 
L 217.457586 125.884151 
z
" style="stroke:#000000;"/>
    <path clip-path="url(#p685aa949a8)" d="M 201.450744 207.201732 
L 205.203518 205.408305 
L 202.789123 198.61374 
z
" style="stroke:#000000;"/>
    <path clip-path="url(#p685aa949a8)" d="M 205.203518 148.88711 
L 201.450744 147.092558 
L 202.789123 155.680952 
z
" style="stroke:#000000;"/>
    <path clip-path="url(#p685aa949a8)" d="M 216.801504 130.77482 
L 219.342038 127.195425 
L 216.184155 130.612681 
z
" style="stroke:#000000;"/>
    <path clip-path="url(#p685aa949a8)" d="M 205.203518 205.408305 
L 201.450744 207.201732 
L 204.7041 214.104177 
z
" style="stroke:#000000;"/>
    <path clip-path="url(#p685aa949a8)" d="M 201.450744 147.092558 
L 205.203518 148.88711 
L 204.7041 140.191089 
z
" style="stroke:#000000;"/>
    <path clip-path="url(#p685aa949a8)" d="M 218.070396 228.223208 
L 219.342038 227.104232 
L 217.457586 228.41494 
z
" style="stroke:#000000;"/>
    <path clip-path="url(#p685aa949a8)" d="M 219.948128 226.917212 
L 216.184155 223.686028 
L 219.342038 227.104232 
z
" style="stroke:#000000;"/>
    <path clip-path="url(#p685aa949a8)" d="M 219.948128 127.369975 
L 217.457586 125.884151 
L 219.342038 127.195425 
z
" style="stroke:#000000;"/>
    <path clip-path="url(#p685aa949a8)" d="M 204.7041 214.104177 
L 208.263595 211.898097 
L 205.203518 205.408305 
z
" style="stroke:#000000;"/>
    <path clip-path="url(#p685aa949a8)" d="M 208.263595 142.398236 
L 204.7041 140.191089 
L 205.203518 148.88711 
z
" style="stroke:#000000;"/>
    <path clip-path="url(#p685aa949a8)" d="M 208.609462 220.60794 
L 208.263595 211.898097 
L 204.7041 214.104177 
z
" style="stroke:#000000;"/>
    <path clip-path="url(#p685aa949a8)" d="M 208.263595 142.398236 
L 208.609462 133.688498 
L 204.7041 140.191089 
z
" style="stroke:#000000;"/>
    <path clip-path="url(#p685aa949a8)" d="M 208.609462 220.60794 
L 211.936847 218.012924 
L 208.263595 211.898097 
z
" style="stroke:#000000;"/>
    <path clip-path="url(#p685aa949a8)" d="M 211.936847 136.284511 
L 208.609462 133.688498 
L 208.263595 142.398236 
z
" style="stroke:#000000;"/>
    <path clip-path="url(#p685aa949a8)" d="M 213.125337 226.642815 
L 211.936847 218.012924 
L 208.609462 220.60794 
z
" style="stroke:#000000;"/>
    <path clip-path="url(#p685aa949a8)" d="M 211.936847 136.284511 
L 213.125337 127.654977 
L 208.609462 133.688498 
z
" style="stroke:#000000;"/>
    <path clip-path="url(#p685aa949a8)" d="M 213.125337 226.642815 
L 216.184155 223.686028 
L 211.936847 218.012924 
z
" style="stroke:#000000;"/>
    <path clip-path="url(#p685aa949a8)" d="M 216.184155 130.612681 
L 213.125337 127.654977 
L 211.936847 136.284511 
z
" style="stroke:#000000;"/>
    <path clip-path="url(#p685aa949a8)" d="M 217.457586 228.41494 
L 213.125337 226.642815 
L 215.663935 229.392128 
z
" style="stroke:#000000;"/>
    <path clip-path="url(#p685aa949a8)" d="M 213.125337 127.654977 
L 217.457586 125.884151 
L 215.663935 124.906425 
z
" style="stroke:#000000;"/>
    <path clip-path="url(#p685aa949a8)" d="M 213.125337 226.642815 
L 217.457586 228.41494 
L 216.184155 223.686028 
z
" style="stroke:#000000;"/>
    <path clip-path="url(#p685aa949a8)" d="M 217.457586 125.884151 
L 213.125337 127.654977 
L 216.184155 130.612681 
z
" style="stroke:#000000;"/>
    <path clip-path="url(#p685aa949a8)" d="M 216.184155 223.686028 
L 217.457586 228.41494 
L 219.342038 227.104232 
z
" style="stroke:#000000;"/>
    <path clip-path="url(#p685aa949a8)" d="M 217.457586 125.884151 
L 216.184155 130.612681 
L 219.342038 127.195425 
z
" style="stroke:#000000;"/>
   </g>
  </g>
 </g>
 <defs>
  <clipPath id="p685aa949a8">
   <rect height="271.8" width="279" x="45" y="43.2"/>
  </clipPath>
 </defs>
</svg>
