<?xml version="1.0" encoding="utf-8" standalone="no"?>
<!DOCTYPE svg PUBLIC "-//W3C//DTD SVG 1.1//EN"
  "http://www.w3.org/Graphics/SVG/1.1/DTD/svg11.dtd">
<!-- Created with matplotlib (https://matplotlib.org/) -->
<svg height="360pt" version="1.1" viewBox="0 0 360 360" width="360pt" xmlns="http://www.w3.org/2000/svg" xmlns:xlink="http://www.w3.org/1999/xlink">
 <defs>
  <style type="text/css">
*{stroke-linecap:butt;stroke-linejoin:round;}
  </style>
 </defs>
 <g id="figure_1">
  <g id="patch_1">
   <path d="M 45 315 
L 324 315 
L 324 43.2 
L 45 43.2 
z
" style="fill:#ffffff;"/>
  </g>
  <g id="axes_1">
   <g id="Poly3DCollection_1">
    <path clip-path="url(#p56a392aaa9)" d="M 222.697898 245.463124 
L 221.058025 239.186411 
L 225.122189 243.675367 
z
" style="stroke:#000000;"/>
    <path clip-path="url(#p56a392aaa9)" d="M 221.058025 115.091343 
L 222.697898 108.813627 
L 225.122189 110.599901 
z
" style="stroke:#000000;"/>
    <path clip-path="url(#p56a392aaa9)" d="M 222.697898 245.463124 
L 217.113585 243.194639 
L 221.058025 239.186411 
z
" style="stroke:#000000;"/>
    <path clip-path="url(#p56a392aaa9)" d="M 217.113585 111.085528 
L 222.697898 108.813627 
L 221.058025 115.091343 
z
" style="stroke:#000000;"/>
    <path clip-path="url(#p56a392aaa9)" d="M 217.113585 243.194639 
L 222.697898 245.463124 
L 220.387727 246.806186 
z
" style="stroke:#000000;"/>
    <path clip-path="url(#p56a392aaa9)" d="M 222.697898 108.813627 
L 217.113585 111.085528 
L 220.387727 107.471978 
z
" style="stroke:#000000;"/>
    <path clip-path="url(#p56a392aaa9)" d="M 217.113585 243.194639 
L 215.578922 231.698495 
L 221.058025 239.186411 
z
" style="stroke:#000000;"/>
    <path clip-path="url(#p56a392aaa9)" d="M 215.578922 122.582612 
L 217.113585 111.085528 
L 221.058025 115.091343 
z
" style="stroke:#000000;"/>
    <path clip-path="url(#p56a392aaa9)" d="M 227.21039 243.998571 
L 222.697898 245.463124 
L 225.122189 243.675367 
z
" style="stroke:#000000;"/>
    <path clip-path="url(#p56a392aaa9)" d="M 227.21039 110.292898 
L 221.058025 115.091343 
L 225.122189 110.599901 
z
" style="stroke:#000000;"/>
    <path clip-path="url(#p56a392aaa9)" d="M 224.775523 108.498028 
L 225.122189 110.599901 
L 222.697898 108.813627 
z
" style="stroke:#000000;"/>
    <path clip-path="url(#p56a392aaa9)" d="M 211.276194 235.226502 
L 215.578922 231.698495 
L 217.113585 243.194639 
z
" style="stroke:#000000;"/>
    <path clip-path="url(#p56a392aaa9)" d="M 215.578922 122.582612 
L 211.276194 119.057237 
L 217.113585 111.085528 
z
" style="stroke:#000000;"/>
    <path clip-path="url(#p56a392aaa9)" d="M 223.12849 239.488577 
L 225.122189 243.675367 
L 221.058025 239.186411 
z
" style="stroke:#000000;"/>
    <path clip-path="url(#p56a392aaa9)" d="M 224.775523 245.794938 
L 220.387727 246.806186 
L 222.697898 245.463124 
z
" style="stroke:#000000;"/>
    <path clip-path="url(#p56a392aaa9)" d="M 211.276194 235.226502 
L 210.828422 223.59097 
L 215.578922 231.698495 
z
" style="stroke:#000000;"/>
    <path clip-path="url(#p56a392aaa9)" d="M 210.828422 130.693043 
L 211.276194 119.057237 
L 215.578922 122.582612 
z
" style="stroke:#000000;"/>
    <path clip-path="url(#p56a392aaa9)" d="M 222.455264 107.149889 
L 222.697898 108.813627 
L 220.387727 107.471978 
z
" style="stroke:#000000;"/>
    <path clip-path="url(#p56a392aaa9)" d="M 217.113585 111.085528 
L 222.455264 107.149889 
L 220.387727 107.471978 
z
" style="stroke:#000000;"/>
    <path clip-path="url(#p56a392aaa9)" d="M 215.578922 231.698495 
L 223.12849 239.488577 
L 221.058025 239.186411 
z
" style="stroke:#000000;"/>
    <path clip-path="url(#p56a392aaa9)" d="M 206.214436 226.597881 
L 210.828422 223.59097 
L 211.276194 235.226502 
z
" style="stroke:#000000;"/>
    <path clip-path="url(#p56a392aaa9)" d="M 210.828422 130.693043 
L 206.214436 127.688956 
L 211.276194 119.057237 
z
" style="stroke:#000000;"/>
    <path clip-path="url(#p56a392aaa9)" d="M 220.387727 246.806186 
L 219.16681 243.516028 
L 217.113585 243.194639 
z
" style="stroke:#000000;"/>
    <path clip-path="url(#p56a392aaa9)" d="M 221.058025 115.091343 
L 217.625432 122.331927 
L 215.578922 122.582612 
z
" style="stroke:#000000;"/>
    <path clip-path="url(#p56a392aaa9)" d="M 210.828422 223.59097 
L 206.214436 226.597881 
L 206.862436 214.954937 
z
" style="stroke:#000000;"/>
    <path clip-path="url(#p56a392aaa9)" d="M 206.214436 127.688956 
L 210.828422 130.693043 
L 206.862436 139.331503 
z
" style="stroke:#000000;"/>
    <path clip-path="url(#p56a392aaa9)" d="M 225.122189 110.599901 
L 224.775523 108.498028 
L 227.21039 110.292898 
z
" style="stroke:#000000;"/>
    <path clip-path="url(#p56a392aaa9)" d="M 211.276194 119.057237 
L 219.16681 110.780388 
L 217.113585 111.085528 
z
" style="stroke:#000000;"/>
    <path clip-path="url(#p56a392aaa9)" d="M 225.122189 243.675367 
L 223.12849 239.488577 
L 227.21039 243.998571 
z
" style="stroke:#000000;"/>
    <path clip-path="url(#p56a392aaa9)" d="M 222.697898 245.463124 
L 227.21039 243.998571 
L 224.775523 245.794938 
z
" style="stroke:#000000;"/>
    <path clip-path="url(#p56a392aaa9)" d="M 210.828422 223.59097 
L 217.625432 231.965437 
L 215.578922 231.698495 
z
" style="stroke:#000000;"/>
    <path clip-path="url(#p56a392aaa9)" d="M 201.988122 217.404836 
L 206.862436 214.954937 
L 206.214436 226.597881 
z
" style="stroke:#000000;"/>
    <path clip-path="url(#p56a392aaa9)" d="M 206.862436 139.331503 
L 201.988122 136.884586 
L 206.214436 127.688956 
z
" style="stroke:#000000;"/>
    <path clip-path="url(#p56a392aaa9)" d="M 221.058025 115.091343 
L 227.21039 110.292898 
L 223.12849 114.805402 
z
" style="stroke:#000000;"/>
    <path clip-path="url(#p56a392aaa9)" d="M 217.113585 243.194639 
L 213.303856 235.510399 
L 211.276194 235.226502 
z
" style="stroke:#000000;"/>
    <path clip-path="url(#p56a392aaa9)" d="M 222.697898 108.813627 
L 222.455264 107.149889 
L 224.775523 108.498028 
z
" style="stroke:#000000;"/>
    <path clip-path="url(#p56a392aaa9)" d="M 206.862436 214.954937 
L 201.988122 217.404836 
L 203.727821 205.887582 
z
" style="stroke:#000000;"/>
    <path clip-path="url(#p56a392aaa9)" d="M 201.988122 136.884586 
L 206.862436 139.331503 
L 203.727821 148.400776 
z
" style="stroke:#000000;"/>
    <path clip-path="url(#p56a392aaa9)" d="M 215.578922 122.582612 
L 212.854121 130.480652 
L 210.828422 130.693043 
z
" style="stroke:#000000;"/>
    <path clip-path="url(#p56a392aaa9)" d="M 220.387727 246.806186 
L 224.775523 245.794938 
L 222.455264 247.144505 
z
" style="stroke:#000000;"/>
    <path clip-path="url(#p56a392aaa9)" d="M 219.16681 243.516028 
L 220.387727 246.806186 
L 222.455264 247.144505 
z
" style="stroke:#000000;"/>
    <path clip-path="url(#p56a392aaa9)" d="M 217.625432 122.331927 
L 221.058025 115.091343 
L 223.12849 114.805402 
z
" style="stroke:#000000;"/>
    <path clip-path="url(#p56a392aaa9)" d="M 198.647532 207.751476 
L 203.727821 205.887582 
L 201.988122 217.404836 
z
" style="stroke:#000000;"/>
    <path clip-path="url(#p56a392aaa9)" d="M 203.727821 148.400776 
L 198.647532 146.53999 
L 201.988122 136.884586 
z
" style="stroke:#000000;"/>
    <path clip-path="url(#p56a392aaa9)" d="M 203.727821 205.887582 
L 198.647532 207.751476 
L 201.461776 196.491691 
z
" style="stroke:#000000;"/>
    <path clip-path="url(#p56a392aaa9)" d="M 198.647532 146.53999 
L 203.727821 148.400776 
L 201.461776 157.798053 
z
" style="stroke:#000000;"/>
    <path clip-path="url(#p56a392aaa9)" d="M 206.214436 127.688956 
L 213.303856 118.789623 
L 211.276194 119.057237 
z
" style="stroke:#000000;"/>
    <path clip-path="url(#p56a392aaa9)" d="M 206.862436 214.954937 
L 212.854121 223.819647 
L 210.828422 223.59097 
z
" style="stroke:#000000;"/>
    <path clip-path="url(#p56a392aaa9)" d="M 222.455264 107.149889 
L 217.113585 111.085528 
L 219.16681 110.780388 
z
" style="stroke:#000000;"/>
    <path clip-path="url(#p56a392aaa9)" d="M 223.12849 239.488577 
L 215.578922 231.698495 
L 217.625432 231.965437 
z
" style="stroke:#000000;"/>
    <path clip-path="url(#p56a392aaa9)" d="M 210.828422 130.693043 
L 208.870732 139.160004 
L 206.862436 139.331503 
z
" style="stroke:#000000;"/>
    <path clip-path="url(#p56a392aaa9)" d="M 201.461776 196.491691 
L 196.232405 197.747374 
L 200.091274 186.874372 
z
" style="stroke:#000000;"/>
    <path clip-path="url(#p56a392aaa9)" d="M 196.232405 156.54557 
L 201.461776 157.798053 
L 200.091274 167.41621 
z
" style="stroke:#000000;"/>
    <path clip-path="url(#p56a392aaa9)" d="M 211.276194 235.226502 
L 208.219885 226.841034 
L 206.214436 226.597881 
z
" style="stroke:#000000;"/>
    <path clip-path="url(#p56a392aaa9)" d="M 196.232405 197.747374 
L 201.461776 196.491691 
L 198.647532 207.751476 
z
" style="stroke:#000000;"/>
    <path clip-path="url(#p56a392aaa9)" d="M 201.461776 157.798053 
L 196.232405 156.54557 
L 198.647532 146.53999 
z
" style="stroke:#000000;"/>
    <path clip-path="url(#p56a392aaa9)" d="M 194.771652 166.787041 
L 200.091274 167.41621 
L 199.632593 177.145432 
z
" style="stroke:#000000;"/>
    <path clip-path="url(#p56a392aaa9)" d="M 200.091274 186.874372 
L 194.771652 187.506797 
L 199.632593 177.145432 
z
" style="stroke:#000000;"/>
    <path clip-path="url(#p56a392aaa9)" d="M 213.303856 235.510399 
L 217.113585 243.194639 
L 219.16681 243.516028 
z
" style="stroke:#000000;"/>
    <path clip-path="url(#p56a392aaa9)" d="M 194.771652 187.506797 
L 200.091274 186.874372 
L 196.232405 197.747374 
z
" style="stroke:#000000;"/>
    <path clip-path="url(#p56a392aaa9)" d="M 200.091274 167.41621 
L 194.771652 166.787041 
L 196.232405 156.54557 
z
" style="stroke:#000000;"/>
    <path clip-path="url(#p56a392aaa9)" d="M 203.727821 205.887582 
L 208.870732 215.142744 
L 206.862436 214.954937 
z
" style="stroke:#000000;"/>
    <path clip-path="url(#p56a392aaa9)" d="M 224.775523 108.498028 
L 223.12849 114.805402 
L 227.21039 110.292898 
z
" style="stroke:#000000;"/>
    <path clip-path="url(#p56a392aaa9)" d="M 223.12849 239.488577 
L 224.775523 245.794938 
L 227.21039 243.998571 
z
" style="stroke:#000000;"/>
    <path clip-path="url(#p56a392aaa9)" d="M 212.854121 130.480652 
L 215.578922 122.582612 
L 217.625432 122.331927 
z
" style="stroke:#000000;"/>
    <path clip-path="url(#p56a392aaa9)" d="M 194.282793 177.147068 
L 199.632593 177.145432 
L 194.771652 187.506797 
z
" style="stroke:#000000;"/>
    <path clip-path="url(#p56a392aaa9)" d="M 199.632593 177.145432 
L 194.282793 177.147068 
L 194.771652 166.787041 
z
" style="stroke:#000000;"/>
    <path clip-path="url(#p56a392aaa9)" d="M 201.988122 136.884586 
L 208.219885 127.462114 
L 206.214436 127.688956 
z
" style="stroke:#000000;"/>
    <path clip-path="url(#p56a392aaa9)" d="M 206.862436 139.331503 
L 205.722343 148.272296 
L 203.727821 148.400776 
z
" style="stroke:#000000;"/>
    <path clip-path="url(#p56a392aaa9)" d="M 219.16681 110.780388 
L 211.276194 119.057237 
L 213.303856 118.789623 
z
" style="stroke:#000000;"/>
    <path clip-path="url(#p56a392aaa9)" d="M 217.625432 231.965437 
L 210.828422 223.59097 
L 212.854121 223.819647 
z
" style="stroke:#000000;"/>
    <path clip-path="url(#p56a392aaa9)" d="M 200.523237 113.779234 
L 187.133853 133.48132 
L 196.067191 114.968917 
z
" style="stroke:#000000;"/>
    <path clip-path="url(#p56a392aaa9)" d="M 196.067191 114.968917 
L 187.133853 103.707727 
L 200.523237 113.779234 
z
" style="stroke:#000000;"/>
    <path clip-path="url(#p56a392aaa9)" d="M 206.214436 226.597881 
L 203.974992 217.604457 
L 201.988122 217.404836 
z
" style="stroke:#000000;"/>
    <path clip-path="url(#p56a392aaa9)" d="M 201.461776 196.491691 
L 205.722343 206.032388 
L 203.727821 205.887582 
z
" style="stroke:#000000;"/>
    <path clip-path="url(#p56a392aaa9)" d="M 224.775523 108.498028 
L 219.16681 110.780388 
L 223.12849 114.805402 
z
" style="stroke:#000000;"/>
    <path clip-path="url(#p56a392aaa9)" d="M 219.16681 243.516028 
L 224.775523 245.794938 
L 223.12849 239.488577 
z
" style="stroke:#000000;"/>
    <path clip-path="url(#p56a392aaa9)" d="M 219.16681 110.780388 
L 224.775523 108.498028 
L 222.455264 107.149889 
z
" style="stroke:#000000;"/>
    <path clip-path="url(#p56a392aaa9)" d="M 224.775523 245.794938 
L 219.16681 243.516028 
L 222.455264 247.144505 
z
" style="stroke:#000000;"/>
    <path clip-path="url(#p56a392aaa9)" d="M 203.727821 148.400776 
L 203.446329 157.714212 
L 201.461776 157.798053 
z
" style="stroke:#000000;"/>
    <path clip-path="url(#p56a392aaa9)" d="M 200.091274 186.874372 
L 203.446329 196.591872 
L 201.461776 196.491691 
z
" style="stroke:#000000;"/>
    <path clip-path="url(#p56a392aaa9)" d="M 198.647532 146.53999 
L 203.974992 136.701302 
L 201.988122 136.884586 
z
" style="stroke:#000000;"/>
    <path clip-path="url(#p56a392aaa9)" d="M 208.219885 226.841034 
L 211.276194 235.226502 
L 213.303856 235.510399 
z
" style="stroke:#000000;"/>
    <path clip-path="url(#p56a392aaa9)" d="M 208.870732 139.160004 
L 210.828422 130.693043 
L 212.854121 130.480652 
z
" style="stroke:#000000;"/>
    <path clip-path="url(#p56a392aaa9)" d="M 201.461776 157.798053 
L 202.069795 167.378103 
L 200.091274 167.41621 
z
" style="stroke:#000000;"/>
    <path clip-path="url(#p56a392aaa9)" d="M 187.133853 133.48132 
L 200.523237 113.779234 
L 187.133853 143.405851 
z
" style="stroke:#000000;"/>
    <path clip-path="url(#p56a392aaa9)" d="M 219.16681 110.780388 
L 217.625432 122.331927 
L 223.12849 114.805402 
z
" style="stroke:#000000;"/>
    <path clip-path="url(#p56a392aaa9)" d="M 217.625432 231.965437 
L 219.16681 243.516028 
L 223.12849 239.488577 
z
" style="stroke:#000000;"/>
    <path clip-path="url(#p56a392aaa9)" d="M 199.632593 177.145432 
L 202.069795 186.928828 
L 200.091274 186.874372 
z
" style="stroke:#000000;"/>
    <path clip-path="url(#p56a392aaa9)" d="M 200.091274 167.41621 
L 201.609094 177.153607 
L 199.632593 177.145432 
z
" style="stroke:#000000;"/>
    <path clip-path="url(#p56a392aaa9)" d="M 201.988122 217.404836 
L 200.619695 207.905283 
L 198.647532 207.751476 
z
" style="stroke:#000000;"/>
    <path clip-path="url(#p56a392aaa9)" d="M 212.854121 223.819647 
L 206.862436 214.954937 
L 208.870732 215.142744 
z
" style="stroke:#000000;"/>
    <path clip-path="url(#p56a392aaa9)" d="M 213.303856 118.789623 
L 206.214436 127.688956 
L 208.219885 127.462114 
z
" style="stroke:#000000;"/>
    <path clip-path="url(#p56a392aaa9)" d="M 187.133853 103.707727 
L 196.067191 114.968917 
L 187.133853 108.669993 
z
" style="stroke:#000000;"/>
    <path clip-path="url(#p56a392aaa9)" d="M 196.232405 156.54557 
L 200.619695 146.402539 
L 198.647532 146.53999 
z
" style="stroke:#000000;"/>
    <path clip-path="url(#p56a392aaa9)" d="M 198.647532 207.751476 
L 198.193922 197.853625 
L 196.232405 197.747374 
z
" style="stroke:#000000;"/>
    <path clip-path="url(#p56a392aaa9)" d="M 213.303856 118.789623 
L 217.625432 122.331927 
L 219.16681 110.780388 
z
" style="stroke:#000000;"/>
    <path clip-path="url(#p56a392aaa9)" d="M 217.625432 231.965437 
L 213.303856 235.510399 
L 219.16681 243.516028 
z
" style="stroke:#000000;"/>
    <path clip-path="url(#p56a392aaa9)" d="M 205.722343 148.272296 
L 206.862436 139.331503 
L 208.870732 139.160004 
z
" style="stroke:#000000;"/>
    <path clip-path="url(#p56a392aaa9)" d="M 203.974992 217.604457 
L 206.214436 226.597881 
L 208.219885 226.841034 
z
" style="stroke:#000000;"/>
    <path clip-path="url(#p56a392aaa9)" d="M 208.870732 215.142744 
L 203.727821 205.887582 
L 205.722343 206.032388 
z
" style="stroke:#000000;"/>
    <path clip-path="url(#p56a392aaa9)" d="M 194.771652 166.787041 
L 198.193922 156.455689 
L 196.232405 156.54557 
z
" style="stroke:#000000;"/>
    <path clip-path="url(#p56a392aaa9)" d="M 196.232405 197.747374 
L 196.726726 187.564315 
L 194.771652 187.506797 
z
" style="stroke:#000000;"/>
    <path clip-path="url(#p56a392aaa9)" d="M 213.303856 118.789623 
L 212.854121 130.480652 
L 217.625432 122.331927 
z
" style="stroke:#000000;"/>
    <path clip-path="url(#p56a392aaa9)" d="M 212.854121 223.819647 
L 213.303856 235.510399 
L 217.625432 231.965437 
z
" style="stroke:#000000;"/>
    <path clip-path="url(#p56a392aaa9)" d="M 194.282793 177.147068 
L 196.726726 166.745901 
L 194.771652 166.787041 
z
" style="stroke:#000000;"/>
    <path clip-path="url(#p56a392aaa9)" d="M 208.219885 127.462114 
L 201.988122 136.884586 
L 203.974992 136.701302 
z
" style="stroke:#000000;"/>
    <path clip-path="url(#p56a392aaa9)" d="M 194.771652 187.506797 
L 196.23571 177.155259 
L 194.282793 177.147068 
z
" style="stroke:#000000;"/>
    <path clip-path="url(#p56a392aaa9)" d="M 203.446329 157.714212 
L 203.727821 148.400776 
L 205.722343 148.272296 
z
" style="stroke:#000000;"/>
    <path clip-path="url(#p56a392aaa9)" d="M 205.722343 206.032388 
L 201.461776 196.491691 
L 203.446329 196.591872 
z
" style="stroke:#000000;"/>
    <path clip-path="url(#p56a392aaa9)" d="M 198.02798 114.681111 
L 187.133853 108.669993 
L 196.067191 114.968917 
z
" style="stroke:#000000;"/>
    <path clip-path="url(#p56a392aaa9)" d="M 187.133853 133.48132 
L 198.02798 114.681111 
L 196.067191 114.968917 
z
" style="stroke:#000000;"/>
    <path clip-path="url(#p56a392aaa9)" d="M 178.172072 114.776426 
L 187.133853 103.707727 
L 187.133853 108.669993 
z
" style="stroke:#000000;"/>
    <path clip-path="url(#p56a392aaa9)" d="M 202.069795 167.378103 
L 201.461776 157.798053 
L 203.446329 157.714212 
z
" style="stroke:#000000;"/>
    <path clip-path="url(#p56a392aaa9)" d="M 200.619695 207.905283 
L 201.988122 217.404836 
L 203.974992 217.604457 
z
" style="stroke:#000000;"/>
    <path clip-path="url(#p56a392aaa9)" d="M 208.219885 127.462114 
L 212.854121 130.480652 
L 213.303856 118.789623 
z
" style="stroke:#000000;"/>
    <path clip-path="url(#p56a392aaa9)" d="M 212.854121 223.819647 
L 208.219885 226.841034 
L 213.303856 235.510399 
z
" style="stroke:#000000;"/>
    <path clip-path="url(#p56a392aaa9)" d="M 203.446329 196.591872 
L 200.091274 186.874372 
L 202.069795 186.928828 
z
" style="stroke:#000000;"/>
    <path clip-path="url(#p56a392aaa9)" d="M 189.055179 103.365768 
L 200.523237 113.779234 
L 187.133853 103.707727 
z
" style="stroke:#000000;"/>
    <path clip-path="url(#p56a392aaa9)" d="M 200.523237 113.779234 
L 189.055179 143.253173 
L 187.133853 143.405851 
z
" style="stroke:#000000;"/>
    <path clip-path="url(#p56a392aaa9)" d="M 173.680473 113.48458 
L 187.133853 133.48132 
L 187.133853 143.405851 
z
" style="stroke:#000000;"/>
    <path clip-path="url(#p56a392aaa9)" d="M 201.609094 177.153607 
L 200.091274 167.41621 
L 202.069795 167.378103 
z
" style="stroke:#000000;"/>
    <path clip-path="url(#p56a392aaa9)" d="M 202.069795 186.928828 
L 199.632593 177.145432 
L 201.609094 177.153607 
z
" style="stroke:#000000;"/>
    <path clip-path="url(#p56a392aaa9)" d="M 203.974992 136.701302 
L 198.647532 146.53999 
L 200.619695 146.402539 
z
" style="stroke:#000000;"/>
    <path clip-path="url(#p56a392aaa9)" d="M 212.854121 130.480652 
L 208.219885 127.462114 
L 208.870732 139.160004 
z
" style="stroke:#000000;"/>
    <path clip-path="url(#p56a392aaa9)" d="M 208.219885 226.841034 
L 212.854121 223.819647 
L 208.870732 215.142744 
z
" style="stroke:#000000;"/>
    <path clip-path="url(#p56a392aaa9)" d="M 198.193922 197.853625 
L 198.647532 207.751476 
L 200.619695 207.905283 
z
" style="stroke:#000000;"/>
    <path clip-path="url(#p56a392aaa9)" d="M 187.133853 133.48132 
L 173.680473 113.48458 
L 178.172072 114.776426 
z
" style="stroke:#000000;"/>
    <path clip-path="url(#p56a392aaa9)" d="M 187.133853 103.707727 
L 178.172072 114.776426 
L 173.680473 113.48458 
z
" style="stroke:#000000;"/>
    <path clip-path="url(#p56a392aaa9)" d="M 200.619695 146.402539 
L 196.232405 156.54557 
L 198.193922 156.455689 
z
" style="stroke:#000000;"/>
    <path clip-path="url(#p56a392aaa9)" d="M 203.974992 136.701302 
L 208.870732 139.160004 
L 208.219885 127.462114 
z
" style="stroke:#000000;"/>
    <path clip-path="url(#p56a392aaa9)" d="M 208.870732 215.142744 
L 203.974992 217.604457 
L 208.219885 226.841034 
z
" style="stroke:#000000;"/>
    <path clip-path="url(#p56a392aaa9)" d="M 200.523237 113.779234 
L 189.055179 103.365768 
L 202.50366 113.485997 
z
" style="stroke:#000000;"/>
    <path clip-path="url(#p56a392aaa9)" d="M 189.055179 143.253173 
L 200.523237 113.779234 
L 202.50366 113.485997 
z
" style="stroke:#000000;"/>
    <path clip-path="url(#p56a392aaa9)" d="M 174.579365 177.153096 
L 179.96671 177.151448 
L 179.475272 187.539665 
z
" style="stroke:#000000;"/>
    <path clip-path="url(#p56a392aaa9)" d="M 179.96671 177.151448 
L 174.579365 177.153096 
L 179.475272 166.763532 
z
" style="stroke:#000000;"/>
    <path clip-path="url(#p56a392aaa9)" d="M 196.726726 187.564315 
L 196.232405 197.747374 
L 198.193922 197.853625 
z
" style="stroke:#000000;"/>
    <path clip-path="url(#p56a392aaa9)" d="M 208.870732 139.160004 
L 203.974992 136.701302 
L 205.722343 148.272296 
z
" style="stroke:#000000;"/>
    <path clip-path="url(#p56a392aaa9)" d="M 203.974992 217.604457 
L 208.870732 215.142744 
L 205.722343 206.032388 
z
" style="stroke:#000000;"/>
    <path clip-path="url(#p56a392aaa9)" d="M 198.193922 156.455689 
L 194.771652 166.787041 
L 196.726726 166.745901 
z
" style="stroke:#000000;"/>
    <path clip-path="url(#p56a392aaa9)" d="M 174.116507 186.927313 
L 179.475272 187.539665 
L 178.005795 197.819757 
z
" style="stroke:#000000;"/>
    <path clip-path="url(#p56a392aaa9)" d="M 179.475272 166.763532 
L 174.116507 167.379163 
L 178.005795 156.484339 
z
" style="stroke:#000000;"/>
    <path clip-path="url(#p56a392aaa9)" d="M 196.23571 177.155259 
L 194.771652 187.506797 
L 196.726726 187.564315 
z
" style="stroke:#000000;"/>
    <path clip-path="url(#p56a392aaa9)" d="M 196.726726 166.745901 
L 194.282793 177.147068 
L 196.23571 177.155259 
z
" style="stroke:#000000;"/>
    <path clip-path="url(#p56a392aaa9)" d="M 174.116507 167.379163 
L 179.475272 166.763532 
L 174.579365 177.153096 
z
" style="stroke:#000000;"/>
    <path clip-path="url(#p56a392aaa9)" d="M 179.475272 187.539665 
L 174.116507 186.927313 
L 174.579365 177.153096 
z
" style="stroke:#000000;"/>
    <path clip-path="url(#p56a392aaa9)" d="M 172.732623 196.599466 
L 178.005795 197.819757 
L 175.572883 207.884242 
z
" style="stroke:#000000;"/>
    <path clip-path="url(#p56a392aaa9)" d="M 178.005795 156.484339 
L 172.732623 157.707857 
L 175.572883 146.421343 
z
" style="stroke:#000000;"/>
    <path clip-path="url(#p56a392aaa9)" d="M 189.055179 108.351693 
L 178.172072 114.776426 
L 187.133853 108.669993 
z
" style="stroke:#000000;"/>
    <path clip-path="url(#p56a392aaa9)" d="M 178.172072 114.776426 
L 189.055179 133.281321 
L 187.133853 133.48132 
z
" style="stroke:#000000;"/>
    <path clip-path="url(#p56a392aaa9)" d="M 178.005795 197.819757 
L 172.732623 196.599466 
L 174.116507 186.927313 
z
" style="stroke:#000000;"/>
    <path clip-path="url(#p56a392aaa9)" d="M 172.732623 157.707857 
L 178.005795 156.484339 
L 174.116507 167.379163 
z
" style="stroke:#000000;"/>
    <path clip-path="url(#p56a392aaa9)" d="M 200.619695 146.402539 
L 205.722343 148.272296 
L 203.974992 136.701302 
z
" style="stroke:#000000;"/>
    <path clip-path="url(#p56a392aaa9)" d="M 205.722343 206.032388 
L 200.619695 207.905283 
L 203.974992 217.604457 
z
" style="stroke:#000000;"/>
    <path clip-path="url(#p56a392aaa9)" d="M 205.722343 148.272296 
L 200.619695 146.402539 
L 203.446329 157.714212 
z
" style="stroke:#000000;"/>
    <path clip-path="url(#p56a392aaa9)" d="M 200.619695 207.905283 
L 205.722343 206.032388 
L 203.446329 196.591872 
z
" style="stroke:#000000;"/>
    <path clip-path="url(#p56a392aaa9)" d="M 175.572883 207.884242 
L 170.441477 206.068223 
L 172.732623 196.599466 
z
" style="stroke:#000000;"/>
    <path clip-path="url(#p56a392aaa9)" d="M 170.441477 148.240501 
L 175.572883 146.421343 
L 172.732623 157.707857 
z
" style="stroke:#000000;"/>
    <path clip-path="url(#p56a392aaa9)" d="M 170.441477 206.068223 
L 175.572883 207.884242 
L 172.200777 217.627542 
z
" style="stroke:#000000;"/>
    <path clip-path="url(#p56a392aaa9)" d="M 175.572883 146.421343 
L 170.441477 148.240501 
L 172.200777 136.680106 
z
" style="stroke:#000000;"/>
    <path clip-path="url(#p56a392aaa9)" d="M 203.446329 157.714212 
L 198.193922 156.455689 
L 202.069795 167.378103 
z
" style="stroke:#000000;"/>
    <path clip-path="url(#p56a392aaa9)" d="M 198.193922 197.853625 
L 203.446329 196.591872 
L 202.069795 186.928828 
z
" style="stroke:#000000;"/>
    <path clip-path="url(#p56a392aaa9)" d="M 187.133853 108.669993 
L 198.02798 114.681111 
L 189.055179 108.351693 
z
" style="stroke:#000000;"/>
    <path clip-path="url(#p56a392aaa9)" d="M 198.02798 114.681111 
L 187.133853 133.48132 
L 189.055179 133.281321 
z
" style="stroke:#000000;"/>
    <path clip-path="url(#p56a392aaa9)" d="M 198.193922 156.455689 
L 203.446329 157.714212 
L 200.619695 146.402539 
z
" style="stroke:#000000;"/>
    <path clip-path="url(#p56a392aaa9)" d="M 203.446329 196.591872 
L 198.193922 197.853625 
L 200.619695 207.905283 
z
" style="stroke:#000000;"/>
    <path clip-path="url(#p56a392aaa9)" d="M 196.726726 187.564315 
L 202.069795 186.928828 
L 201.609094 177.153607 
z
" style="stroke:#000000;"/>
    <path clip-path="url(#p56a392aaa9)" d="M 202.069795 167.378103 
L 196.726726 166.745901 
L 201.609094 177.153607 
z
" style="stroke:#000000;"/>
    <path clip-path="url(#p56a392aaa9)" d="M 179.475272 166.763532 
L 181.856277 177.159681 
L 179.96671 177.151448 
z
" style="stroke:#000000;"/>
    <path clip-path="url(#p56a392aaa9)" d="M 179.96671 177.151448 
L 181.362658 187.597497 
L 179.475272 187.539665 
z
" style="stroke:#000000;"/>
    <path clip-path="url(#p56a392aaa9)" d="M 196.726726 166.745901 
L 202.069795 167.378103 
L 198.193922 156.455689 
z
" style="stroke:#000000;"/>
    <path clip-path="url(#p56a392aaa9)" d="M 202.069795 186.928828 
L 196.726726 187.564315 
L 198.193922 197.853625 
z
" style="stroke:#000000;"/>
    <path clip-path="url(#p56a392aaa9)" d="M 178.005795 156.484339 
L 181.362658 166.722168 
L 179.475272 166.763532 
z
" style="stroke:#000000;"/>
    <path clip-path="url(#p56a392aaa9)" d="M 172.200777 217.627542 
L 167.266016 215.233945 
L 170.441477 206.068223 
z
" style="stroke:#000000;"/>
    <path clip-path="url(#p56a392aaa9)" d="M 167.266016 139.076722 
L 172.200777 136.680106 
L 170.441477 148.240501 
z
" style="stroke:#000000;"/>
    <path clip-path="url(#p56a392aaa9)" d="M 179.475272 187.539665 
L 179.886657 197.926701 
L 178.005795 197.819757 
z
" style="stroke:#000000;"/>
    <path clip-path="url(#p56a392aaa9)" d="M 196.23571 177.155259 
L 201.609094 177.153607 
L 196.726726 166.745901 
z
" style="stroke:#000000;"/>
    <path clip-path="url(#p56a392aaa9)" d="M 201.609094 177.153607 
L 196.23571 177.155259 
L 196.726726 187.564315 
z
" style="stroke:#000000;"/>
    <path clip-path="url(#p56a392aaa9)" d="M 175.542112 113.188528 
L 187.133853 103.707727 
L 173.680473 113.48458 
z
" style="stroke:#000000;"/>
    <path clip-path="url(#p56a392aaa9)" d="M 187.133853 143.405851 
L 175.542112 113.188528 
L 173.680473 113.48458 
z
" style="stroke:#000000;"/>
    <path clip-path="url(#p56a392aaa9)" d="M 167.266016 215.233945 
L 172.200777 217.627542 
L 167.923044 226.947126 
z
" style="stroke:#000000;"/>
    <path clip-path="url(#p56a392aaa9)" d="M 172.200777 136.680106 
L 167.266016 139.076722 
L 167.923044 127.363139 
z
" style="stroke:#000000;"/>
    <path clip-path="url(#p56a392aaa9)" d="M 175.572883 146.421343 
L 179.886657 156.393872 
L 178.005795 156.484339 
z
" style="stroke:#000000;"/>
    <path clip-path="url(#p56a392aaa9)" d="M 189.055179 103.365768 
L 198.02798 114.681111 
L 202.50366 113.485997 
z
" style="stroke:#000000;"/>
    <path clip-path="url(#p56a392aaa9)" d="M 189.055179 133.281321 
L 202.50366 113.485997 
L 198.02798 114.681111 
z
" style="stroke:#000000;"/>
    <path clip-path="url(#p56a392aaa9)" d="M 178.005795 197.819757 
L 177.442937 208.039319 
L 175.572883 207.884242 
z
" style="stroke:#000000;"/>
    <path clip-path="url(#p56a392aaa9)" d="M 167.923044 226.947126 
L 163.238129 223.999859 
L 167.266016 215.233945 
z
" style="stroke:#000000;"/>
    <path clip-path="url(#p56a392aaa9)" d="M 163.238129 130.313273 
L 167.923044 127.363139 
L 167.266016 139.076722 
z
" style="stroke:#000000;"/>
    <path clip-path="url(#p56a392aaa9)" d="M 172.200777 136.680106 
L 177.442937 146.282757 
L 175.572883 146.421343 
z
" style="stroke:#000000;"/>
    <path clip-path="url(#p56a392aaa9)" d="M 174.116507 186.927313 
L 176.445002 177.161345 
L 174.579365 177.153096 
z
" style="stroke:#000000;"/>
    <path clip-path="url(#p56a392aaa9)" d="M 174.579365 177.153096 
L 175.980086 167.340701 
L 174.116507 167.379163 
z
" style="stroke:#000000;"/>
    <path clip-path="url(#p56a392aaa9)" d="M 189.055179 133.281321 
L 189.055179 143.253173 
L 202.50366 113.485997 
z
" style="stroke:#000000;"/>
    <path clip-path="url(#p56a392aaa9)" d="M 187.133853 103.707727 
L 175.542112 113.188528 
L 189.055179 103.365768 
z
" style="stroke:#000000;"/>
    <path clip-path="url(#p56a392aaa9)" d="M 175.542112 113.188528 
L 187.133853 143.405851 
L 189.055179 143.253173 
z
" style="stroke:#000000;"/>
    <path clip-path="url(#p56a392aaa9)" d="M 172.732623 196.599466 
L 175.980086 186.982274 
L 174.116507 186.927313 
z
" style="stroke:#000000;"/>
    <path clip-path="url(#p56a392aaa9)" d="M 162.782649 235.743847 
L 163.238129 223.999859 
L 167.923044 226.947126 
z
" style="stroke:#000000;"/>
    <path clip-path="url(#p56a392aaa9)" d="M 163.238129 130.313273 
L 162.782649 118.569564 
L 167.923044 127.363139 
z
" style="stroke:#000000;"/>
    <path clip-path="url(#p56a392aaa9)" d="M 175.572883 207.884242 
L 174.055833 217.829292 
L 172.200777 217.627542 
z
" style="stroke:#000000;"/>
    <path clip-path="url(#p56a392aaa9)" d="M 174.116507 167.379163 
L 174.590046 157.623154 
L 172.732623 157.707857 
z
" style="stroke:#000000;"/>
    <path clip-path="url(#p56a392aaa9)" d="M 189.055179 103.365768 
L 189.055179 108.351693 
L 198.02798 114.681111 
z
" style="stroke:#000000;"/>
    <path clip-path="url(#p56a392aaa9)" d="M 178.172072 114.776426 
L 189.055179 108.351693 
L 180.053673 114.486779 
z
" style="stroke:#000000;"/>
    <path clip-path="url(#p56a392aaa9)" d="M 189.055179 133.281321 
L 178.172072 114.776426 
L 180.053673 114.486779 
z
" style="stroke:#000000;"/>
    <path clip-path="url(#p56a392aaa9)" d="M 170.441477 206.068223 
L 174.590046 196.700676 
L 172.732623 196.599466 
z
" style="stroke:#000000;"/>
    <path clip-path="url(#p56a392aaa9)" d="M 172.732623 157.707857 
L 172.2887 148.110489 
L 170.441477 148.240501 
z
" style="stroke:#000000;"/>
    <path clip-path="url(#p56a392aaa9)" d="M 181.362658 187.597497 
L 179.96671 177.151448 
L 181.856277 177.159681 
z
" style="stroke:#000000;"/>
    <path clip-path="url(#p56a392aaa9)" d="M 167.923044 127.363139 
L 174.055833 136.494867 
L 172.200777 136.680106 
z
" style="stroke:#000000;"/>
    <path clip-path="url(#p56a392aaa9)" d="M 181.856277 177.159681 
L 179.475272 166.763532 
L 181.362658 166.722168 
z
" style="stroke:#000000;"/>
    <path clip-path="url(#p56a392aaa9)" d="M 162.782649 235.743847 
L 158.39839 232.272967 
L 163.238129 223.999859 
z
" style="stroke:#000000;"/>
    <path clip-path="url(#p56a392aaa9)" d="M 158.39839 122.043126 
L 162.782649 118.569564 
L 163.238129 130.313273 
z
" style="stroke:#000000;"/>
    <path clip-path="url(#p56a392aaa9)" d="M 179.886657 197.926701 
L 179.475272 187.539665 
L 181.362658 187.597497 
z
" style="stroke:#000000;"/>
    <path clip-path="url(#p56a392aaa9)" d="M 181.362658 166.722168 
L 178.005795 156.484339 
L 179.886657 156.393872 
z
" style="stroke:#000000;"/>
    <path clip-path="url(#p56a392aaa9)" d="M 167.266016 215.233945 
L 172.2887 206.214757 
L 170.441477 206.068223 
z
" style="stroke:#000000;"/>
    <path clip-path="url(#p56a392aaa9)" d="M 172.200777 217.627542 
L 169.759046 227.193618 
L 167.923044 226.947126 
z
" style="stroke:#000000;"/>
    <path clip-path="url(#p56a392aaa9)" d="M 156.831369 243.924202 
L 158.39839 232.272967 
L 162.782649 235.743847 
z
" style="stroke:#000000;"/>
    <path clip-path="url(#p56a392aaa9)" d="M 158.39839 122.043126 
L 156.831369 110.39285 
L 162.782649 118.569564 
z
" style="stroke:#000000;"/>
    <path clip-path="url(#p56a392aaa9)" d="M 170.441477 148.240501 
L 169.099088 138.902788 
L 167.266016 139.076722 
z
" style="stroke:#000000;"/>
    <path clip-path="url(#p56a392aaa9)" d="M 177.442937 208.039319 
L 178.005795 197.819757 
L 179.886657 197.926701 
z
" style="stroke:#000000;"/>
    <path clip-path="url(#p56a392aaa9)" d="M 179.886657 156.393872 
L 175.572883 146.421343 
L 177.442937 146.282757 
z
" style="stroke:#000000;"/>
    <path clip-path="url(#p56a392aaa9)" d="M 189.055179 103.365768 
L 180.053673 114.486779 
L 189.055179 108.351693 
z
" style="stroke:#000000;"/>
    <path clip-path="url(#p56a392aaa9)" d="M 162.782649 118.569564 
L 169.759046 127.133183 
L 167.923044 127.363139 
z
" style="stroke:#000000;"/>
    <path clip-path="url(#p56a392aaa9)" d="M 163.238129 223.999859 
L 169.099088 215.424419 
L 167.266016 215.233945 
z
" style="stroke:#000000;"/>
    <path clip-path="url(#p56a392aaa9)" d="M 174.055833 217.829292 
L 175.572883 207.884242 
L 177.442937 208.039319 
z
" style="stroke:#000000;"/>
    <path clip-path="url(#p56a392aaa9)" d="M 175.980086 167.340701 
L 174.579365 177.153096 
L 176.445002 177.161345 
z
" style="stroke:#000000;"/>
    <path clip-path="url(#p56a392aaa9)" d="M 176.445002 177.161345 
L 174.116507 186.927313 
L 175.980086 186.982274 
z
" style="stroke:#000000;"/>
    <path clip-path="url(#p56a392aaa9)" d="M 156.831369 243.924202 
L 152.795827 239.964236 
L 158.39839 232.272967 
z
" style="stroke:#000000;"/>
    <path clip-path="url(#p56a392aaa9)" d="M 152.795827 114.355285 
L 156.831369 110.39285 
L 158.39839 122.043126 
z
" style="stroke:#000000;"/>
    <path clip-path="url(#p56a392aaa9)" d="M 189.055179 133.281321 
L 175.542112 113.188528 
L 189.055179 143.253173 
z
" style="stroke:#000000;"/>
    <path clip-path="url(#p56a392aaa9)" d="M 174.590046 157.623154 
L 174.116507 167.379163 
L 175.980086 167.340701 
z
" style="stroke:#000000;"/>
    <path clip-path="url(#p56a392aaa9)" d="M 167.266016 139.076722 
L 165.053227 130.097252 
L 163.238129 130.313273 
z
" style="stroke:#000000;"/>
    <path clip-path="url(#p56a392aaa9)" d="M 167.923044 226.947126 
L 164.595714 236.032689 
L 162.782649 235.743847 
z
" style="stroke:#000000;"/>
    <path clip-path="url(#p56a392aaa9)" d="M 177.442937 146.282757 
L 172.200777 136.680106 
L 174.055833 136.494867 
z
" style="stroke:#000000;"/>
    <path clip-path="url(#p56a392aaa9)" d="M 175.980086 186.982274 
L 172.732623 196.599466 
L 174.590046 196.700676 
z
" style="stroke:#000000;"/>
    <path clip-path="url(#p56a392aaa9)" d="M 172.2887 148.110489 
L 172.732623 157.707857 
L 174.590046 157.623154 
z
" style="stroke:#000000;"/>
    <path clip-path="url(#p56a392aaa9)" d="M 151.114708 246.35935 
L 156.831369 243.924202 
L 153.482414 247.659556 
z
" style="stroke:#000000;"/>
    <path clip-path="url(#p56a392aaa9)" d="M 156.831369 110.39285 
L 151.114708 107.9612 
L 153.482414 106.659545 
z
" style="stroke:#000000;"/>
    <path clip-path="url(#p56a392aaa9)" d="M 156.831369 243.924202 
L 151.114708 246.35935 
L 152.795827 239.964236 
z
" style="stroke:#000000;"/>
    <path clip-path="url(#p56a392aaa9)" d="M 151.114708 107.9612 
L 156.831369 110.39285 
L 152.795827 114.355285 
z
" style="stroke:#000000;"/>
    <path clip-path="url(#p56a392aaa9)" d="M 174.590046 196.700676 
L 170.441477 206.068223 
L 172.2887 206.214757 
z
" style="stroke:#000000;"/>
    <path clip-path="url(#p56a392aaa9)" d="M 169.759046 227.193618 
L 172.200777 217.627542 
L 174.055833 217.829292 
z
" style="stroke:#000000;"/>
    <path clip-path="url(#p56a392aaa9)" d="M 180.053673 114.486779 
L 189.055179 103.365768 
L 175.542112 113.188528 
z
" style="stroke:#000000;"/>
    <path clip-path="url(#p56a392aaa9)" d="M 175.542112 113.188528 
L 189.055179 133.281321 
L 180.053673 114.486779 
z
" style="stroke:#000000;"/>
    <path clip-path="url(#p56a392aaa9)" d="M 158.39839 232.272967 
L 165.053227 224.232443 
L 163.238129 223.999859 
z
" style="stroke:#000000;"/>
    <path clip-path="url(#p56a392aaa9)" d="M 156.831369 110.39285 
L 164.595714 118.297287 
L 162.782649 118.569564 
z
" style="stroke:#000000;"/>
    <path clip-path="url(#p56a392aaa9)" d="M 169.099088 138.902788 
L 170.441477 148.240501 
L 172.2887 148.110489 
z
" style="stroke:#000000;"/>
    <path clip-path="url(#p56a392aaa9)" d="M 174.055833 136.494867 
L 167.923044 127.363139 
L 169.759046 127.133183 
z
" style="stroke:#000000;"/>
    <path clip-path="url(#p56a392aaa9)" d="M 176.445002 177.161345 
L 181.856277 177.159681 
L 181.362658 166.722168 
z
" style="stroke:#000000;"/>
    <path clip-path="url(#p56a392aaa9)" d="M 181.856277 177.159681 
L 176.445002 177.161345 
L 181.362658 187.597497 
z
" style="stroke:#000000;"/>
    <path clip-path="url(#p56a392aaa9)" d="M 163.238129 130.313273 
L 160.191856 121.787285 
L 158.39839 122.043126 
z
" style="stroke:#000000;"/>
    <path clip-path="url(#p56a392aaa9)" d="M 152.795827 239.964236 
L 151.114708 246.35935 
L 148.625803 244.609064 
z
" style="stroke:#000000;"/>
    <path clip-path="url(#p56a392aaa9)" d="M 151.114708 107.9612 
L 152.795827 114.355285 
L 148.625803 109.713009 
z
" style="stroke:#000000;"/>
    <path clip-path="url(#p56a392aaa9)" d="M 172.2887 206.214757 
L 167.266016 215.233945 
L 169.099088 215.424419 
z
" style="stroke:#000000;"/>
    <path clip-path="url(#p56a392aaa9)" d="M 175.980086 167.340701 
L 181.362658 166.722168 
L 179.886657 156.393872 
z
" style="stroke:#000000;"/>
    <path clip-path="url(#p56a392aaa9)" d="M 181.362658 187.597497 
L 175.980086 186.982274 
L 179.886657 197.926701 
z
" style="stroke:#000000;"/>
    <path clip-path="url(#p56a392aaa9)" d="M 162.782649 235.743847 
L 158.617822 244.252565 
L 156.831369 243.924202 
z
" style="stroke:#000000;"/>
    <path clip-path="url(#p56a392aaa9)" d="M 175.980086 186.982274 
L 181.362658 187.597497 
L 176.445002 177.161345 
z
" style="stroke:#000000;"/>
    <path clip-path="url(#p56a392aaa9)" d="M 181.362658 166.722168 
L 175.980086 167.340701 
L 176.445002 177.161345 
z
" style="stroke:#000000;"/>
    <path clip-path="url(#p56a392aaa9)" d="M 174.590046 157.623154 
L 179.886657 156.393872 
L 177.442937 146.282757 
z
" style="stroke:#000000;"/>
    <path clip-path="url(#p56a392aaa9)" d="M 179.886657 197.926701 
L 174.590046 196.700676 
L 177.442937 208.039319 
z
" style="stroke:#000000;"/>
    <path clip-path="url(#p56a392aaa9)" d="M 164.595714 236.032689 
L 167.923044 226.947126 
L 169.759046 227.193618 
z
" style="stroke:#000000;"/>
    <path clip-path="url(#p56a392aaa9)" d="M 179.886657 156.393872 
L 174.590046 157.623154 
L 175.980086 167.340701 
z
" style="stroke:#000000;"/>
    <path clip-path="url(#p56a392aaa9)" d="M 174.590046 196.700676 
L 179.886657 197.926701 
L 175.980086 186.982274 
z
" style="stroke:#000000;"/>
    <path clip-path="url(#p56a392aaa9)" d="M 165.053227 130.097252 
L 167.266016 139.076722 
L 169.099088 138.902788 
z
" style="stroke:#000000;"/>
    <path clip-path="url(#p56a392aaa9)" d="M 152.795827 239.964236 
L 160.191856 232.5454 
L 158.39839 232.272967 
z
" style="stroke:#000000;"/>
    <path clip-path="url(#p56a392aaa9)" d="M 153.482414 106.659545 
L 158.617822 110.081088 
L 156.831369 110.39285 
z
" style="stroke:#000000;"/>
    <path clip-path="url(#p56a392aaa9)" d="M 169.099088 215.424419 
L 163.238129 223.999859 
L 165.053227 224.232443 
z
" style="stroke:#000000;"/>
    <path clip-path="url(#p56a392aaa9)" d="M 169.759046 127.133183 
L 162.782649 118.569564 
L 164.595714 118.297287 
z
" style="stroke:#000000;"/>
    <path clip-path="url(#p56a392aaa9)" d="M 177.442937 146.282757 
L 172.2887 148.110489 
L 174.590046 157.623154 
z
" style="stroke:#000000;"/>
    <path clip-path="url(#p56a392aaa9)" d="M 172.2887 206.214757 
L 177.442937 208.039319 
L 174.590046 196.700676 
z
" style="stroke:#000000;"/>
    <path clip-path="url(#p56a392aaa9)" d="M 172.2887 148.110489 
L 177.442937 146.282757 
L 174.055833 136.494867 
z
" style="stroke:#000000;"/>
    <path clip-path="url(#p56a392aaa9)" d="M 177.442937 208.039319 
L 172.2887 206.214757 
L 174.055833 217.829292 
z
" style="stroke:#000000;"/>
    <path clip-path="url(#p56a392aaa9)" d="M 158.39839 122.043126 
L 154.5642 114.062308 
L 152.795827 114.355285 
z
" style="stroke:#000000;"/>
    <path clip-path="url(#p56a392aaa9)" d="M 156.831369 243.924202 
L 155.253865 248.006032 
L 153.482414 247.659556 
z
" style="stroke:#000000;"/>
    <path clip-path="url(#p56a392aaa9)" d="M 155.253865 248.006032 
L 151.114708 246.35935 
L 153.482414 247.659556 
z
" style="stroke:#000000;"/>
    <path clip-path="url(#p56a392aaa9)" d="M 160.191856 121.787285 
L 163.238129 130.313273 
L 165.053227 130.097252 
z
" style="stroke:#000000;"/>
    <path clip-path="url(#p56a392aaa9)" d="M 174.055833 136.494867 
L 169.099088 138.902788 
L 172.2887 148.110489 
z
" style="stroke:#000000;"/>
    <path clip-path="url(#p56a392aaa9)" d="M 169.099088 215.424419 
L 174.055833 217.829292 
L 172.2887 206.214757 
z
" style="stroke:#000000;"/>
    <path clip-path="url(#p56a392aaa9)" d="M 152.875541 107.637453 
L 153.482414 106.659545 
L 151.114708 107.9612 
z
" style="stroke:#000000;"/>
    <path clip-path="url(#p56a392aaa9)" d="M 158.617822 244.252565 
L 162.782649 235.743847 
L 164.595714 236.032689 
z
" style="stroke:#000000;"/>
    <path clip-path="url(#p56a392aaa9)" d="M 154.5642 114.062308 
L 148.625803 109.713009 
L 152.795827 114.355285 
z
" style="stroke:#000000;"/>
    <path clip-path="url(#p56a392aaa9)" d="M 169.099088 138.902788 
L 174.055833 136.494867 
L 169.759046 127.133183 
z
" style="stroke:#000000;"/>
    <path clip-path="url(#p56a392aaa9)" d="M 174.055833 217.829292 
L 169.099088 215.424419 
L 169.759046 227.193618 
z
" style="stroke:#000000;"/>
    <path clip-path="url(#p56a392aaa9)" d="M 165.053227 224.232443 
L 158.39839 232.272967 
L 160.191856 232.5454 
z
" style="stroke:#000000;"/>
    <path clip-path="url(#p56a392aaa9)" d="M 152.875541 246.699732 
L 148.625803 244.609064 
L 151.114708 246.35935 
z
" style="stroke:#000000;"/>
    <path clip-path="url(#p56a392aaa9)" d="M 150.375465 244.941193 
L 152.795827 239.964236 
L 148.625803 244.609064 
z
" style="stroke:#000000;"/>
    <path clip-path="url(#p56a392aaa9)" d="M 164.595714 118.297287 
L 156.831369 110.39285 
L 158.617822 110.081088 
z
" style="stroke:#000000;"/>
    <path clip-path="url(#p56a392aaa9)" d="M 150.375465 109.397529 
L 151.114708 107.9612 
L 148.625803 109.713009 
z
" style="stroke:#000000;"/>
    <path clip-path="url(#p56a392aaa9)" d="M 169.759046 127.133183 
L 165.053227 130.097252 
L 169.099088 138.902788 
z
" style="stroke:#000000;"/>
    <path clip-path="url(#p56a392aaa9)" d="M 165.053227 224.232443 
L 169.759046 227.193618 
L 169.099088 215.424419 
z
" style="stroke:#000000;"/>
    <path clip-path="url(#p56a392aaa9)" d="M 154.5642 114.062308 
L 158.39839 122.043126 
L 160.191856 121.787285 
z
" style="stroke:#000000;"/>
    <path clip-path="url(#p56a392aaa9)" d="M 155.253865 248.006032 
L 156.831369 243.924202 
L 158.617822 244.252565 
z
" style="stroke:#000000;"/>
    <path clip-path="url(#p56a392aaa9)" d="M 164.595714 118.297287 
L 165.053227 130.097252 
L 169.759046 127.133183 
z
" style="stroke:#000000;"/>
    <path clip-path="url(#p56a392aaa9)" d="M 165.053227 224.232443 
L 164.595714 236.032689 
L 169.759046 227.193618 
z
" style="stroke:#000000;"/>
    <path clip-path="url(#p56a392aaa9)" d="M 160.191856 232.5454 
L 152.795827 239.964236 
L 154.5642 240.273838 
z
" style="stroke:#000000;"/>
    <path clip-path="url(#p56a392aaa9)" d="M 158.617822 110.081088 
L 153.482414 106.659545 
L 155.253865 106.32969 
z
" style="stroke:#000000;"/>
    <path clip-path="url(#p56a392aaa9)" d="M 153.482414 106.659545 
L 152.875541 107.637453 
L 155.253865 106.32969 
z
" style="stroke:#000000;"/>
    <path clip-path="url(#p56a392aaa9)" d="M 164.595714 118.297287 
L 160.191856 121.787285 
L 165.053227 130.097252 
z
" style="stroke:#000000;"/>
    <path clip-path="url(#p56a392aaa9)" d="M 160.191856 232.5454 
L 164.595714 236.032689 
L 165.053227 224.232443 
z
" style="stroke:#000000;"/>
    <path clip-path="url(#p56a392aaa9)" d="M 151.114708 246.35935 
L 155.253865 248.006032 
L 152.875541 246.699732 
z
" style="stroke:#000000;"/>
    <path clip-path="url(#p56a392aaa9)" d="M 152.795827 239.964236 
L 150.375465 244.941193 
L 154.5642 240.273838 
z
" style="stroke:#000000;"/>
    <path clip-path="url(#p56a392aaa9)" d="M 158.617822 110.081088 
L 160.191856 121.787285 
L 164.595714 118.297287 
z
" style="stroke:#000000;"/>
    <path clip-path="url(#p56a392aaa9)" d="M 160.191856 232.5454 
L 158.617822 244.252565 
L 164.595714 236.032689 
z
" style="stroke:#000000;"/>
    <path clip-path="url(#p56a392aaa9)" d="M 151.114708 107.9612 
L 150.375465 109.397529 
L 152.875541 107.637453 
z
" style="stroke:#000000;"/>
    <path clip-path="url(#p56a392aaa9)" d="M 148.625803 109.713009 
L 154.5642 114.062308 
L 150.375465 109.397529 
z
" style="stroke:#000000;"/>
    <path clip-path="url(#p56a392aaa9)" d="M 148.625803 244.609064 
L 152.875541 246.699732 
L 150.375465 244.941193 
z
" style="stroke:#000000;"/>
    <path clip-path="url(#p56a392aaa9)" d="M 158.617822 110.081088 
L 154.5642 114.062308 
L 160.191856 121.787285 
z
" style="stroke:#000000;"/>
    <path clip-path="url(#p56a392aaa9)" d="M 154.5642 240.273838 
L 158.617822 244.252565 
L 160.191856 232.5454 
z
" style="stroke:#000000;"/>
    <path clip-path="url(#p56a392aaa9)" d="M 152.875541 107.637453 
L 158.617822 110.081088 
L 155.253865 106.32969 
z
" style="stroke:#000000;"/>
    <path clip-path="url(#p56a392aaa9)" d="M 158.617822 244.252565 
L 152.875541 246.699732 
L 155.253865 248.006032 
z
" style="stroke:#000000;"/>
    <path clip-path="url(#p56a392aaa9)" d="M 158.617822 110.081088 
L 152.875541 107.637453 
L 154.5642 114.062308 
z
" style="stroke:#000000;"/>
    <path clip-path="url(#p56a392aaa9)" d="M 152.875541 246.699732 
L 158.617822 244.252565 
L 154.5642 240.273838 
z
" style="stroke:#000000;"/>
    <path clip-path="url(#p56a392aaa9)" d="M 154.5642 114.062308 
L 152.875541 107.637453 
L 150.375465 109.397529 
z
" style="stroke:#000000;"/>
    <path clip-path="url(#p56a392aaa9)" d="M 152.875541 246.699732 
L 154.5642 240.273838 
L 150.375465 244.941193 
z
" style="stroke:#000000;"/>
   </g>
  </g>
 </g>
 <defs>
  <clipPath id="p56a392aaa9">
   <rect height="271.8" width="279" x="45" y="43.2"/>
  </clipPath>
 </defs>
</svg>
