<?xml version="1.0" encoding="utf-8" standalone="no"?>
<!DOCTYPE svg PUBLIC "-//W3C//DTD SVG 1.1//EN"
  "http://www.w3.org/Graphics/SVG/1.1/DTD/svg11.dtd">
<!-- Created with matplotlib (https://matplotlib.org/) -->
<svg height="360pt" version="1.1" viewBox="0 0 360 360" width="360pt" xmlns="http://www.w3.org/2000/svg" xmlns:xlink="http://www.w3.org/1999/xlink">
 <defs>
  <style type="text/css">
*{stroke-linecap:butt;stroke-linejoin:round;}
  </style>
 </defs>
 <g id="figure_1">
  <g id="patch_1">
   <path d="M 0 360 
L 360 360 
L 360 0 
L 0 0 
z
" style="fill:#ffffff;"/>
  </g>
  <g id="patch_2">
   <path d="M 45 315 
L 324 315 
L 324 43.2 
L 45 43.2 
z
" style="fill:#ffffff;"/>
  </g>
  <g id="axes_1">
   <g id="Poly3DCollection_1">
    <path clip-path="url(#p9e98f1ff9b)" d="M 170.262012 222.953511 
L 169.506386 227.570248 
L 168.390339 226.222246 
z
" style="stroke:#000000;"/>
    <path clip-path="url(#p9e98f1ff9b)" d="M 169.506386 126.673926 
L 170.262012 131.292913 
L 168.390339 128.018604 
z
" style="stroke:#000000;"/>
    <path clip-path="url(#p9e98f1ff9b)" d="M 164.028782 127.91445 
L 169.506386 126.673926 
L 168.390339 128.018604 
z
" style="stroke:#000000;"/>
    <path clip-path="url(#p9e98f1ff9b)" d="M 164.028782 226.33384 
L 170.262012 222.953511 
L 168.390339 226.222246 
z
" style="stroke:#000000;"/>
    <path clip-path="url(#p9e98f1ff9b)" d="M 165.142994 227.684916 
L 168.390339 226.222246 
L 169.506386 227.570248 
z
" style="stroke:#000000;"/>
    <path clip-path="url(#p9e98f1ff9b)" d="M 168.390339 226.222246 
L 165.142994 227.684916 
L 164.028782 226.33384 
z
" style="stroke:#000000;"/>
    <path clip-path="url(#p9e98f1ff9b)" d="M 165.89738 131.195793 
L 168.390339 128.018604 
L 170.262012 131.292913 
z
" style="stroke:#000000;"/>
    <path clip-path="url(#p9e98f1ff9b)" d="M 172.081838 225.95945 
L 169.506386 227.570248 
L 170.262012 222.953511 
z
" style="stroke:#000000;"/>
    <path clip-path="url(#p9e98f1ff9b)" d="M 169.506386 126.673926 
L 172.081838 128.292392 
L 170.262012 131.292913 
z
" style="stroke:#000000;"/>
    <path clip-path="url(#p9e98f1ff9b)" d="M 168.390339 128.018604 
L 165.89738 131.195793 
L 164.028782 127.91445 
z
" style="stroke:#000000;"/>
    <path clip-path="url(#p9e98f1ff9b)" d="M 165.142994 126.566713 
L 170.571035 125.657521 
L 169.506386 126.673926 
z
" style="stroke:#000000;"/>
    <path clip-path="url(#p9e98f1ff9b)" d="M 169.506386 227.570248 
L 172.081838 225.95945 
L 170.571035 228.589823 
z
" style="stroke:#000000;"/>
    <path clip-path="url(#p9e98f1ff9b)" d="M 172.081838 128.292392 
L 169.506386 126.673926 
L 170.571035 125.657521 
z
" style="stroke:#000000;"/>
    <path clip-path="url(#p9e98f1ff9b)" d="M 169.506386 126.673926 
L 164.028782 127.91445 
L 165.142994 126.566713 
z
" style="stroke:#000000;"/>
    <path clip-path="url(#p9e98f1ff9b)" d="M 166.205897 228.706843 
L 169.506386 227.570248 
L 170.571035 228.589823 
z
" style="stroke:#000000;"/>
    <path clip-path="url(#p9e98f1ff9b)" d="M 170.262012 222.953511 
L 164.028782 226.33384 
L 165.89738 223.058096 
z
" style="stroke:#000000;"/>
    <path clip-path="url(#p9e98f1ff9b)" d="M 169.506386 227.570248 
L 166.205897 228.706843 
L 165.142994 227.684916 
z
" style="stroke:#000000;"/>
    <path clip-path="url(#p9e98f1ff9b)" d="M 172.081838 225.95945 
L 170.262012 222.953511 
L 172.790755 217.475166 
z
" style="stroke:#000000;"/>
    <path clip-path="url(#p9e98f1ff9b)" d="M 170.262012 131.292913 
L 172.081838 128.292392 
L 172.790755 136.778788 
z
" style="stroke:#000000;"/>
    <path clip-path="url(#p9e98f1ff9b)" d="M 170.571035 125.657521 
L 165.142994 126.566713 
L 166.205897 125.54797 
z
" style="stroke:#000000;"/>
    <path clip-path="url(#p9e98f1ff9b)" d="M 165.89738 131.195793 
L 165.142994 126.566713 
L 164.028782 127.91445 
z
" style="stroke:#000000;"/>
    <path clip-path="url(#p9e98f1ff9b)" d="M 165.142994 227.684916 
L 165.89738 223.058096 
L 164.028782 226.33384 
z
" style="stroke:#000000;"/>
    <path clip-path="url(#p9e98f1ff9b)" d="M 172.081838 225.95945 
L 166.205897 228.706843 
L 170.571035 228.589823 
z
" style="stroke:#000000;"/>
    <path clip-path="url(#p9e98f1ff9b)" d="M 172.790755 136.778788 
L 165.89738 131.195793 
L 170.262012 131.292913 
z
" style="stroke:#000000;"/>
    <path clip-path="url(#p9e98f1ff9b)" d="M 170.571035 125.657521 
L 167.71423 128.188503 
L 172.081838 128.292392 
z
" style="stroke:#000000;"/>
    <path clip-path="url(#p9e98f1ff9b)" d="M 167.71423 128.188503 
L 170.571035 125.657521 
L 166.205897 125.54797 
z
" style="stroke:#000000;"/>
    <path clip-path="url(#p9e98f1ff9b)" d="M 168.421991 217.567901 
L 170.262012 222.953511 
L 165.89738 223.058096 
z
" style="stroke:#000000;"/>
    <path clip-path="url(#p9e98f1ff9b)" d="M 170.262012 222.953511 
L 168.421991 217.567901 
L 172.790755 217.475166 
z
" style="stroke:#000000;"/>
    <path clip-path="url(#p9e98f1ff9b)" d="M 167.71423 128.188503 
L 165.142994 126.566713 
L 165.89738 131.195793 
z
" style="stroke:#000000;"/>
    <path clip-path="url(#p9e98f1ff9b)" d="M 165.142994 227.684916 
L 167.71423 226.070828 
L 165.89738 223.058096 
z
" style="stroke:#000000;"/>
    <path clip-path="url(#p9e98f1ff9b)" d="M 172.081838 225.95945 
L 172.790755 217.475166 
L 174.78097 220.128132 
z
" style="stroke:#000000;"/>
    <path clip-path="url(#p9e98f1ff9b)" d="M 172.790755 136.778788 
L 172.081838 128.292392 
L 174.78097 134.131748 
z
" style="stroke:#000000;"/>
    <path clip-path="url(#p9e98f1ff9b)" d="M 165.142994 126.566713 
L 167.71423 128.188503 
L 166.205897 125.54797 
z
" style="stroke:#000000;"/>
    <path clip-path="url(#p9e98f1ff9b)" d="M 167.71423 226.070828 
L 165.142994 227.684916 
L 166.205897 228.706843 
z
" style="stroke:#000000;"/>
    <path clip-path="url(#p9e98f1ff9b)" d="M 166.205897 228.706843 
L 172.081838 225.95945 
L 167.71423 226.070828 
z
" style="stroke:#000000;"/>
    <path clip-path="url(#p9e98f1ff9b)" d="M 165.89738 131.195793 
L 172.790755 136.778788 
L 168.421991 136.693551 
z
" style="stroke:#000000;"/>
    <path clip-path="url(#p9e98f1ff9b)" d="M 174.78097 220.128132 
L 167.71423 226.070828 
L 172.081838 225.95945 
z
" style="stroke:#000000;"/>
    <path clip-path="url(#p9e98f1ff9b)" d="M 174.78097 220.128132 
L 172.790755 217.475166 
L 174.988308 211.518415 
z
" style="stroke:#000000;"/>
    <path clip-path="url(#p9e98f1ff9b)" d="M 172.790755 136.778788 
L 174.78097 134.131748 
L 174.988308 142.742083 
z
" style="stroke:#000000;"/>
    <path clip-path="url(#p9e98f1ff9b)" d="M 167.71423 128.188503 
L 165.89738 131.195793 
L 168.421991 136.693551 
z
" style="stroke:#000000;"/>
    <path clip-path="url(#p9e98f1ff9b)" d="M 165.89738 223.058096 
L 167.71423 226.070828 
L 168.421991 217.567901 
z
" style="stroke:#000000;"/>
    <path clip-path="url(#p9e98f1ff9b)" d="M 174.988308 142.742083 
L 168.421991 136.693551 
L 172.790755 136.778788 
z
" style="stroke:#000000;"/>
    <path clip-path="url(#p9e98f1ff9b)" d="M 170.408971 134.040513 
L 172.081838 128.292392 
L 167.71423 128.188503 
z
" style="stroke:#000000;"/>
    <path clip-path="url(#p9e98f1ff9b)" d="M 172.081838 128.292392 
L 170.408971 134.040513 
L 174.78097 134.131748 
z
" style="stroke:#000000;"/>
    <path clip-path="url(#p9e98f1ff9b)" d="M 172.790755 217.475166 
L 170.615973 211.598167 
L 174.988308 211.518415 
z
" style="stroke:#000000;"/>
    <path clip-path="url(#p9e98f1ff9b)" d="M 170.615973 211.598167 
L 172.790755 217.475166 
L 168.421991 217.567901 
z
" style="stroke:#000000;"/>
    <path clip-path="url(#p9e98f1ff9b)" d="M 167.71423 226.070828 
L 174.78097 220.128132 
L 170.408971 220.226891 
z
" style="stroke:#000000;"/>
    <path clip-path="url(#p9e98f1ff9b)" d="M 174.78097 220.128132 
L 174.988308 211.518415 
L 177.127242 213.784993 
z
" style="stroke:#000000;"/>
    <path clip-path="url(#p9e98f1ff9b)" d="M 174.988308 142.742083 
L 174.78097 134.131748 
L 177.127242 140.481874 
z
" style="stroke:#000000;"/>
    <path clip-path="url(#p9e98f1ff9b)" d="M 167.71423 128.188503 
L 168.421991 136.693551 
L 170.408971 134.040513 
z
" style="stroke:#000000;"/>
    <path clip-path="url(#p9e98f1ff9b)" d="M 168.421991 217.567901 
L 167.71423 226.070828 
L 170.408971 220.226891 
z
" style="stroke:#000000;"/>
    <path clip-path="url(#p9e98f1ff9b)" d="M 168.421991 136.693551 
L 174.988308 142.742083 
L 170.615973 142.669858 
z
" style="stroke:#000000;"/>
    <path clip-path="url(#p9e98f1ff9b)" d="M 177.127242 213.784993 
L 174.988308 211.518415 
L 176.826575 205.151789 
z
" style="stroke:#000000;"/>
    <path clip-path="url(#p9e98f1ff9b)" d="M 174.988308 142.742083 
L 177.127242 140.481874 
L 176.826575 149.114183 
z
" style="stroke:#000000;"/>
    <path clip-path="url(#p9e98f1ff9b)" d="M 177.127242 213.784993 
L 170.408971 220.226891 
L 174.78097 220.128132 
z
" style="stroke:#000000;"/>
    <path clip-path="url(#p9e98f1ff9b)" d="M 176.826575 149.114183 
L 170.615973 142.669858 
L 174.988308 142.742083 
z
" style="stroke:#000000;"/>
    <path clip-path="url(#p9e98f1ff9b)" d="M 170.408971 134.040513 
L 168.421991 136.693551 
L 170.615973 142.669858 
z
" style="stroke:#000000;"/>
    <path clip-path="url(#p9e98f1ff9b)" d="M 168.421991 217.567901 
L 170.408971 220.226891 
L 170.615973 211.598167 
z
" style="stroke:#000000;"/>
    <path clip-path="url(#p9e98f1ff9b)" d="M 174.988308 211.518415 
L 172.451266 205.217578 
L 176.826575 205.151789 
z
" style="stroke:#000000;"/>
    <path clip-path="url(#p9e98f1ff9b)" d="M 174.78097 134.131748 
L 172.751448 140.404511 
L 177.127242 140.481874 
z
" style="stroke:#000000;"/>
    <path clip-path="url(#p9e98f1ff9b)" d="M 172.751448 140.404511 
L 174.78097 134.131748 
L 170.408971 134.040513 
z
" style="stroke:#000000;"/>
    <path clip-path="url(#p9e98f1ff9b)" d="M 172.451266 205.217578 
L 174.988308 211.518415 
L 170.615973 211.598167 
z
" style="stroke:#000000;"/>
    <path clip-path="url(#p9e98f1ff9b)" d="M 176.826575 205.151789 
L 179.090389 207.002444 
L 177.127242 213.784993 
z
" style="stroke:#000000;"/>
    <path clip-path="url(#p9e98f1ff9b)" d="M 179.090389 147.270269 
L 176.826575 149.114183 
L 177.127242 140.481874 
z
" style="stroke:#000000;"/>
    <path clip-path="url(#p9e98f1ff9b)" d="M 170.615973 142.669858 
L 176.826575 149.114183 
L 172.451266 149.055945 
z
" style="stroke:#000000;"/>
    <path clip-path="url(#p9e98f1ff9b)" d="M 170.408971 220.226891 
L 177.127242 213.784993 
L 172.751448 213.869912 
z
" style="stroke:#000000;"/>
    <path clip-path="url(#p9e98f1ff9b)" d="M 179.090389 207.002444 
L 176.826575 205.151789 
L 178.281833 198.4494 
z
" style="stroke:#000000;"/>
    <path clip-path="url(#p9e98f1ff9b)" d="M 176.826575 149.114183 
L 179.090389 147.270269 
L 178.281833 155.820905 
z
" style="stroke:#000000;"/>
    <path clip-path="url(#p9e98f1ff9b)" d="M 178.281833 155.820905 
L 172.451266 149.055945 
L 176.826575 149.114183 
z
" style="stroke:#000000;"/>
    <path clip-path="url(#p9e98f1ff9b)" d="M 170.408971 134.040513 
L 170.615973 142.669858 
L 172.751448 140.404511 
z
" style="stroke:#000000;"/>
    <path clip-path="url(#p9e98f1ff9b)" d="M 170.615973 211.598167 
L 170.408971 220.226891 
L 172.751448 213.869912 
z
" style="stroke:#000000;"/>
    <path clip-path="url(#p9e98f1ff9b)" d="M 179.090389 207.002444 
L 172.751448 213.869912 
L 177.127242 213.784993 
z
" style="stroke:#000000;"/>
    <path clip-path="url(#p9e98f1ff9b)" d="M 176.826575 205.151789 
L 173.90418 198.50042 
L 178.281833 198.4494 
z
" style="stroke:#000000;"/>
    <path clip-path="url(#p9e98f1ff9b)" d="M 172.751448 140.404511 
L 170.615973 142.669858 
L 172.451266 149.055945 
z
" style="stroke:#000000;"/>
    <path clip-path="url(#p9e98f1ff9b)" d="M 170.615973 211.598167 
L 172.751448 213.869912 
L 172.451266 205.217578 
z
" style="stroke:#000000;"/>
    <path clip-path="url(#p9e98f1ff9b)" d="M 173.90418 198.50042 
L 176.826575 205.151789 
L 172.451266 205.217578 
z
" style="stroke:#000000;"/>
    <path clip-path="url(#p9e98f1ff9b)" d="M 177.127242 140.481874 
L 174.711437 147.207827 
L 179.090389 147.270269 
z
" style="stroke:#000000;"/>
    <path clip-path="url(#p9e98f1ff9b)" d="M 178.281833 198.4494 
L 180.644779 199.860089 
L 179.090389 207.002444 
z
" style="stroke:#000000;"/>
    <path clip-path="url(#p9e98f1ff9b)" d="M 180.644779 154.417252 
L 178.281833 155.820905 
L 179.090389 147.270269 
z
" style="stroke:#000000;"/>
    <path clip-path="url(#p9e98f1ff9b)" d="M 180.644779 199.860089 
L 178.281833 198.4494 
L 179.335144 191.490447 
z
" style="stroke:#000000;"/>
    <path clip-path="url(#p9e98f1ff9b)" d="M 178.281833 155.820905 
L 180.644779 154.417252 
L 179.335144 162.782995 
z
" style="stroke:#000000;"/>
    <path clip-path="url(#p9e98f1ff9b)" d="M 174.711437 147.207827 
L 177.127242 140.481874 
L 172.751448 140.404511 
z
" style="stroke:#000000;"/>
    <path clip-path="url(#p9e98f1ff9b)" d="M 179.335144 162.782995 
L 173.90418 155.777456 
L 178.281833 155.820905 
z
" style="stroke:#000000;"/>
    <path clip-path="url(#p9e98f1ff9b)" d="M 172.451266 149.055945 
L 178.281833 155.820905 
L 173.90418 155.777456 
z
" style="stroke:#000000;"/>
    <path clip-path="url(#p9e98f1ff9b)" d="M 178.281833 198.4494 
L 174.955799 191.526078 
L 179.335144 191.490447 
z
" style="stroke:#000000;"/>
    <path clip-path="url(#p9e98f1ff9b)" d="M 172.751448 213.869912 
L 179.090389 207.002444 
L 174.711437 207.072468 
z
" style="stroke:#000000;"/>
    <path clip-path="url(#p9e98f1ff9b)" d="M 172.451266 149.055945 
L 174.711437 147.207827 
L 172.751448 140.404511 
z
" style="stroke:#000000;"/>
    <path clip-path="url(#p9e98f1ff9b)" d="M 174.711437 207.072468 
L 172.451266 205.217578 
L 172.751448 213.869912 
z
" style="stroke:#000000;"/>
    <path clip-path="url(#p9e98f1ff9b)" d="M 174.955799 191.526078 
L 178.281833 198.4494 
L 173.90418 198.50042 
z
" style="stroke:#000000;"/>
    <path clip-path="url(#p9e98f1ff9b)" d="M 181.770017 192.442655 
L 179.335144 191.490447 
L 179.972711 184.358082 
z
" style="stroke:#000000;"/>
    <path clip-path="url(#p9e98f1ff9b)" d="M 179.335144 162.782995 
L 181.770017 161.838037 
L 179.972711 169.917258 
z
" style="stroke:#000000;"/>
    <path clip-path="url(#p9e98f1ff9b)" d="M 179.972711 169.917258 
L 174.955799 162.754948 
L 179.335144 162.782995 
z
" style="stroke:#000000;"/>
    <path clip-path="url(#p9e98f1ff9b)" d="M 180.644779 199.860089 
L 174.711437 207.072468 
L 179.090389 207.002444 
z
" style="stroke:#000000;"/>
    <path clip-path="url(#p9e98f1ff9b)" d="M 179.335144 191.490447 
L 181.770017 192.442655 
L 180.644779 199.860089 
z
" style="stroke:#000000;"/>
    <path clip-path="url(#p9e98f1ff9b)" d="M 181.770017 161.838037 
L 179.335144 162.782995 
L 180.644779 154.417252 
z
" style="stroke:#000000;"/>
    <path clip-path="url(#p9e98f1ff9b)" d="M 174.711437 147.207827 
L 172.451266 149.055945 
L 173.90418 155.777456 
z
" style="stroke:#000000;"/>
    <path clip-path="url(#p9e98f1ff9b)" d="M 172.451266 205.217578 
L 174.711437 207.072468 
L 173.90418 198.50042 
z
" style="stroke:#000000;"/>
    <path clip-path="url(#p9e98f1ff9b)" d="M 179.335144 191.490447 
L 175.592344 184.377904 
L 179.972711 184.358082 
z
" style="stroke:#000000;"/>
    <path clip-path="url(#p9e98f1ff9b)" d="M 173.90418 155.777456 
L 179.335144 162.782995 
L 174.955799 162.754948 
z
" style="stroke:#000000;"/>
    <path clip-path="url(#p9e98f1ff9b)" d="M 179.972711 169.917258 
L 182.451199 169.443509 
L 180.186181 177.137988 
z
" style="stroke:#000000;"/>
    <path clip-path="url(#p9e98f1ff9b)" d="M 182.451199 184.839212 
L 179.972711 184.358082 
L 180.186181 177.137988 
z
" style="stroke:#000000;"/>
    <path clip-path="url(#p9e98f1ff9b)" d="M 180.186181 177.137988 
L 175.592344 169.90503 
L 179.972711 169.917258 
z
" style="stroke:#000000;"/>
    <path clip-path="url(#p9e98f1ff9b)" d="M 179.972711 184.358082 
L 175.805472 177.141786 
L 180.186181 177.137988 
z
" style="stroke:#000000;"/>
    <path clip-path="url(#p9e98f1ff9b)" d="M 179.090389 147.270269 
L 176.263336 154.370597 
L 180.644779 154.417252 
z
" style="stroke:#000000;"/>
    <path clip-path="url(#p9e98f1ff9b)" d="M 175.592344 184.377904 
L 179.335144 191.490447 
L 174.955799 191.526078 
z
" style="stroke:#000000;"/>
    <path clip-path="url(#p9e98f1ff9b)" d="M 176.263336 154.370597 
L 179.090389 147.270269 
L 174.711437 147.207827 
z
" style="stroke:#000000;"/>
    <path clip-path="url(#p9e98f1ff9b)" d="M 179.972711 184.358082 
L 182.451199 184.839212 
L 181.770017 192.442655 
z
" style="stroke:#000000;"/>
    <path clip-path="url(#p9e98f1ff9b)" d="M 182.451199 169.443509 
L 179.972711 169.917258 
L 181.770017 161.838037 
z
" style="stroke:#000000;"/>
    <path clip-path="url(#p9e98f1ff9b)" d="M 174.955799 162.754948 
L 179.972711 169.917258 
L 175.592344 169.90503 
z
" style="stroke:#000000;"/>
    <path clip-path="url(#p9e98f1ff9b)" d="M 175.805472 177.141786 
L 179.972711 184.358082 
L 175.592344 184.377904 
z
" style="stroke:#000000;"/>
    <path clip-path="url(#p9e98f1ff9b)" d="M 180.186181 177.137988 
L 182.679267 177.1417 
L 182.451199 184.839212 
z
" style="stroke:#000000;"/>
    <path clip-path="url(#p9e98f1ff9b)" d="M 182.679267 177.1417 
L 180.186181 177.137988 
L 182.451199 169.443509 
z
" style="stroke:#000000;"/>
    <path clip-path="url(#p9e98f1ff9b)" d="M 175.592344 169.90503 
L 180.186181 177.137988 
L 175.805472 177.141786 
z
" style="stroke:#000000;"/>
    <path clip-path="url(#p9e98f1ff9b)" d="M 174.711437 207.072468 
L 180.644779 199.860089 
L 176.263336 199.914347 
z
" style="stroke:#000000;"/>
    <path clip-path="url(#p9e98f1ff9b)" d="M 181.770017 192.442655 
L 176.263336 199.914347 
L 180.644779 199.860089 
z
" style="stroke:#000000;"/>
    <path clip-path="url(#p9e98f1ff9b)" d="M 173.90418 155.777456 
L 176.263336 154.370597 
L 174.711437 147.207827 
z
" style="stroke:#000000;"/>
    <path clip-path="url(#p9e98f1ff9b)" d="M 176.263336 199.914347 
L 173.90418 198.50042 
L 174.711437 207.072468 
z
" style="stroke:#000000;"/>
    <path clip-path="url(#p9e98f1ff9b)" d="M 176.263336 154.370597 
L 173.90418 155.777456 
L 174.955799 162.754948 
z
" style="stroke:#000000;"/>
    <path clip-path="url(#p9e98f1ff9b)" d="M 173.90418 198.50042 
L 176.263336 199.914347 
L 174.955799 191.526078 
z
" style="stroke:#000000;"/>
    <path clip-path="url(#p9e98f1ff9b)" d="M 180.644779 154.417252 
L 177.386777 161.807831 
L 181.770017 161.838037 
z
" style="stroke:#000000;"/>
    <path clip-path="url(#p9e98f1ff9b)" d="M 186.020257 144.64303 
L 179.771716 130.115125 
L 181.847037 130.953324 
z
" style="stroke:#000000;"/>
    <path clip-path="url(#p9e98f1ff9b)" d="M 186.020257 122.481454 
L 181.847037 130.953324 
L 179.771716 130.115125 
z
" style="stroke:#000000;"/>
    <path clip-path="url(#p9e98f1ff9b)" d="M 175.391671 130.014579 
L 186.020257 122.481454 
L 179.771716 130.115125 
z
" style="stroke:#000000;"/>
    <path clip-path="url(#p9e98f1ff9b)" d="M 186.020257 152.030222 
L 175.391671 130.014579 
L 179.771716 130.115125 
z
" style="stroke:#000000;"/>
    <path clip-path="url(#p9e98f1ff9b)" d="M 177.386777 161.807831 
L 180.644779 154.417252 
L 176.263336 154.370597 
z
" style="stroke:#000000;"/>
    <path clip-path="url(#p9e98f1ff9b)" d="M 182.451199 184.839212 
L 177.386777 192.480479 
L 181.770017 192.442655 
z
" style="stroke:#000000;"/>
    <path clip-path="url(#p9e98f1ff9b)" d="M 177.386777 161.807831 
L 174.955799 162.754948 
L 175.592344 169.90503 
z
" style="stroke:#000000;"/>
    <path clip-path="url(#p9e98f1ff9b)" d="M 174.955799 191.526078 
L 177.386777 192.480479 
L 175.592344 184.377904 
z
" style="stroke:#000000;"/>
    <path clip-path="url(#p9e98f1ff9b)" d="M 181.770017 161.838037 
L 178.066874 169.4302 
L 182.451199 169.443509 
z
" style="stroke:#000000;"/>
    <path clip-path="url(#p9e98f1ff9b)" d="M 176.263336 199.914347 
L 181.770017 192.442655 
L 177.386777 192.480479 
z
" style="stroke:#000000;"/>
    <path clip-path="url(#p9e98f1ff9b)" d="M 174.955799 162.754948 
L 177.386777 161.807831 
L 176.263336 154.370597 
z
" style="stroke:#000000;"/>
    <path clip-path="url(#p9e98f1ff9b)" d="M 177.386777 192.480479 
L 174.955799 191.526078 
L 176.263336 199.914347 
z
" style="stroke:#000000;"/>
    <path clip-path="url(#p9e98f1ff9b)" d="M 182.679267 177.1417 
L 178.066874 184.860147 
L 182.451199 184.839212 
z
" style="stroke:#000000;"/>
    <path clip-path="url(#p9e98f1ff9b)" d="M 175.592344 184.377904 
L 178.066874 184.860147 
L 175.805472 177.141786 
z
" style="stroke:#000000;"/>
    <path clip-path="url(#p9e98f1ff9b)" d="M 178.066874 169.4302 
L 175.592344 169.90503 
L 175.805472 177.141786 
z
" style="stroke:#000000;"/>
    <path clip-path="url(#p9e98f1ff9b)" d="M 182.451199 169.443509 
L 178.294579 177.145514 
L 182.679267 177.1417 
z
" style="stroke:#000000;"/>
    <path clip-path="url(#p9e98f1ff9b)" d="M 178.066874 169.4302 
L 181.770017 161.838037 
L 177.386777 161.807831 
z
" style="stroke:#000000;"/>
    <path clip-path="url(#p9e98f1ff9b)" d="M 177.386777 192.480479 
L 182.451199 184.839212 
L 178.066874 184.860147 
z
" style="stroke:#000000;"/>
    <path clip-path="url(#p9e98f1ff9b)" d="M 179.771716 130.115125 
L 186.020257 144.64303 
L 186.020257 152.030222 
z
" style="stroke:#000000;"/>
    <path clip-path="url(#p9e98f1ff9b)" d="M 175.592344 169.90503 
L 178.066874 169.4302 
L 177.386777 161.807831 
z
" style="stroke:#000000;"/>
    <path clip-path="url(#p9e98f1ff9b)" d="M 178.066874 184.860147 
L 175.592344 184.377904 
L 177.386777 192.480479 
z
" style="stroke:#000000;"/>
    <path clip-path="url(#p9e98f1ff9b)" d="M 178.294579 177.145514 
L 182.451199 169.443509 
L 178.066874 169.4302 
z
" style="stroke:#000000;"/>
    <path clip-path="url(#p9e98f1ff9b)" d="M 178.066874 184.860147 
L 182.679267 177.1417 
L 178.294579 177.145514 
z
" style="stroke:#000000;"/>
    <path clip-path="url(#p9e98f1ff9b)" d="M 175.805472 177.141786 
L 178.294579 177.145514 
L 178.066874 169.4302 
z
" style="stroke:#000000;"/>
    <path clip-path="url(#p9e98f1ff9b)" d="M 178.294579 177.145514 
L 175.805472 177.141786 
L 178.066874 184.860147 
z
" style="stroke:#000000;"/>
    <path clip-path="url(#p9e98f1ff9b)" d="M 181.847037 130.953324 
L 186.020257 122.481454 
L 186.020257 126.17505 
z
" style="stroke:#000000;"/>
    <path clip-path="url(#p9e98f1ff9b)" d="M 181.847037 130.953324 
L 181.630274 126.065165 
L 177.463675 130.85446 
z
" style="stroke:#000000;"/>
    <path clip-path="url(#p9e98f1ff9b)" d="M 181.630274 144.574349 
L 181.847037 130.953324 
L 177.463675 130.85446 
z
" style="stroke:#000000;"/>
    <path clip-path="url(#p9e98f1ff9b)" d="M 177.463675 130.85446 
L 181.630274 122.363329 
L 175.391671 130.014579 
z
" style="stroke:#000000;"/>
    <path clip-path="url(#p9e98f1ff9b)" d="M 175.391671 130.014579 
L 181.630274 144.574349 
L 177.463675 130.85446 
z
" style="stroke:#000000;"/>
    <path clip-path="url(#p9e98f1ff9b)" d="M 181.630274 126.065165 
L 181.847037 130.953324 
L 186.020257 126.17505 
z
" style="stroke:#000000;"/>
    <path clip-path="url(#p9e98f1ff9b)" d="M 181.847037 130.953324 
L 181.630274 144.574349 
L 186.020257 144.64303 
z
" style="stroke:#000000;"/>
    <path clip-path="url(#p9e98f1ff9b)" d="M 186.020257 122.481454 
L 175.391671 130.014579 
L 181.630274 122.363329 
z
" style="stroke:#000000;"/>
    <path clip-path="url(#p9e98f1ff9b)" d="M 175.391671 130.014579 
L 186.020257 152.030222 
L 181.630274 151.978022 
z
" style="stroke:#000000;"/>
    <path clip-path="url(#p9e98f1ff9b)" d="M 181.630274 144.574349 
L 175.391671 130.014579 
L 181.630274 151.978022 
z
" style="stroke:#000000;"/>
    <path clip-path="url(#p9e98f1ff9b)" d="M 181.630274 122.363329 
L 177.463675 130.85446 
L 181.630274 126.065165 
z
" style="stroke:#000000;"/>
    <path clip-path="url(#p9e98f1ff9b)" d="M 186.020257 122.481454 
L 190.223855 130.629592 
L 186.020257 126.17505 
z
" style="stroke:#000000;"/>
    <path clip-path="url(#p9e98f1ff9b)" d="M 186.020257 144.64303 
L 192.337149 129.619471 
L 186.020257 152.030222 
z
" style="stroke:#000000;"/>
    <path clip-path="url(#p9e98f1ff9b)" d="M 181.630274 122.363329 
L 192.337149 129.619471 
L 186.020257 122.481454 
z
" style="stroke:#000000;"/>
    <path clip-path="url(#p9e98f1ff9b)" d="M 192.337149 129.619471 
L 181.630274 151.978022 
L 186.020257 152.030222 
z
" style="stroke:#000000;"/>
    <path clip-path="url(#p9e98f1ff9b)" d="M 186.020257 126.17505 
L 185.827271 130.529281 
L 181.630274 126.065165 
z
" style="stroke:#000000;"/>
    <path clip-path="url(#p9e98f1ff9b)" d="M 185.827271 130.529281 
L 186.020257 144.64303 
L 181.630274 144.574349 
z
" style="stroke:#000000;"/>
    <path clip-path="url(#p9e98f1ff9b)" d="M 192.337149 129.619471 
L 186.020257 144.64303 
L 190.223855 130.629592 
z
" style="stroke:#000000;"/>
    <path clip-path="url(#p9e98f1ff9b)" d="M 190.223855 130.629592 
L 186.020257 122.481454 
L 192.337149 129.619471 
z
" style="stroke:#000000;"/>
    <path clip-path="url(#p9e98f1ff9b)" d="M 185.827271 130.529281 
L 186.020257 126.17505 
L 190.223855 130.629592 
z
" style="stroke:#000000;"/>
    <path clip-path="url(#p9e98f1ff9b)" d="M 186.020257 144.64303 
L 185.827271 130.529281 
L 190.223855 130.629592 
z
" style="stroke:#000000;"/>
    <path clip-path="url(#p9e98f1ff9b)" d="M 181.630274 122.363329 
L 181.630274 126.065165 
L 185.827271 130.529281 
z
" style="stroke:#000000;"/>
    <path clip-path="url(#p9e98f1ff9b)" d="M 189.380689 177.151678 
L 191.913874 177.15545 
L 189.61151 184.897745 
z
" style="stroke:#000000;"/>
    <path clip-path="url(#p9e98f1ff9b)" d="M 191.913874 177.15545 
L 189.380689 177.151678 
L 189.61151 169.406298 
z
" style="stroke:#000000;"/>
    <path clip-path="url(#p9e98f1ff9b)" d="M 189.61151 184.897745 
L 184.985424 177.155537 
L 189.380689 177.151678 
z
" style="stroke:#000000;"/>
    <path clip-path="url(#p9e98f1ff9b)" d="M 189.380689 177.151678 
L 185.215883 169.392824 
L 189.61151 169.406298 
z
" style="stroke:#000000;"/>
    <path clip-path="url(#p9e98f1ff9b)" d="M 189.61151 184.897745 
L 192.131805 184.452601 
L 190.302011 192.568818 
z
" style="stroke:#000000;"/>
    <path clip-path="url(#p9e98f1ff9b)" d="M 192.131805 169.858947 
L 189.61151 169.406298 
L 190.302011 161.737281 
z
" style="stroke:#000000;"/>
    <path clip-path="url(#p9e98f1ff9b)" d="M 190.302011 192.568818 
L 185.215883 184.918941 
L 189.61151 184.897745 
z
" style="stroke:#000000;"/>
    <path clip-path="url(#p9e98f1ff9b)" d="M 181.630274 144.574349 
L 181.630274 151.978022 
L 187.937272 129.516711 
z
" style="stroke:#000000;"/>
    <path clip-path="url(#p9e98f1ff9b)" d="M 189.61151 169.406298 
L 185.905305 161.706625 
L 190.302011 161.737281 
z
" style="stroke:#000000;"/>
    <path clip-path="url(#p9e98f1ff9b)" d="M 185.215883 169.392824 
L 189.380689 177.151678 
L 184.985424 177.155537 
z
" style="stroke:#000000;"/>
    <path clip-path="url(#p9e98f1ff9b)" d="M 189.61151 169.406298 
L 192.131805 169.858947 
L 191.913874 177.15545 
z
" style="stroke:#000000;"/>
    <path clip-path="url(#p9e98f1ff9b)" d="M 192.131805 184.452601 
L 189.61151 184.897745 
L 191.913874 177.15545 
z
" style="stroke:#000000;"/>
    <path clip-path="url(#p9e98f1ff9b)" d="M 184.985424 177.155537 
L 189.61151 184.897745 
L 185.215883 184.918941 
z
" style="stroke:#000000;"/>
    <path clip-path="url(#p9e98f1ff9b)" d="M 190.302011 192.568818 
L 192.783666 191.678581 
L 191.446243 200.089661 
z
" style="stroke:#000000;"/>
    <path clip-path="url(#p9e98f1ff9b)" d="M 192.783666 162.634909 
L 190.302011 161.737281 
L 191.446243 154.219845 
z
" style="stroke:#000000;"/>
    <path clip-path="url(#p9e98f1ff9b)" d="M 191.446243 200.089661 
L 185.905305 192.607205 
L 190.302011 192.568818 
z
" style="stroke:#000000;"/>
    <path clip-path="url(#p9e98f1ff9b)" d="M 185.905305 161.706625 
L 189.61151 169.406298 
L 185.215883 169.392824 
z
" style="stroke:#000000;"/>
    <path clip-path="url(#p9e98f1ff9b)" d="M 192.783666 191.678581 
L 190.302011 192.568818 
L 192.131805 184.452601 
z
" style="stroke:#000000;"/>
    <path clip-path="url(#p9e98f1ff9b)" d="M 190.302011 161.737281 
L 192.783666 162.634909 
L 192.131805 169.858947 
z
" style="stroke:#000000;"/>
    <path clip-path="url(#p9e98f1ff9b)" d="M 185.215883 184.918941 
L 190.302011 192.568818 
L 185.905305 192.607205 
z
" style="stroke:#000000;"/>
    <path clip-path="url(#p9e98f1ff9b)" d="M 190.302011 161.737281 
L 187.047752 154.172308 
L 191.446243 154.219845 
z
" style="stroke:#000000;"/>
    <path clip-path="url(#p9e98f1ff9b)" d="M 192.337149 129.619471 
L 181.630274 122.363329 
L 187.937272 129.516711 
z
" style="stroke:#000000;"/>
    <path clip-path="url(#p9e98f1ff9b)" d="M 181.630274 151.978022 
L 192.337149 129.619471 
L 187.937272 129.516711 
z
" style="stroke:#000000;"/>
    <path clip-path="url(#p9e98f1ff9b)" d="M 181.630274 122.363329 
L 185.827271 130.529281 
L 187.937272 129.516711 
z
" style="stroke:#000000;"/>
    <path clip-path="url(#p9e98f1ff9b)" d="M 181.630274 144.574349 
L 187.937272 129.516711 
L 185.827271 130.529281 
z
" style="stroke:#000000;"/>
    <path clip-path="url(#p9e98f1ff9b)" d="M 187.047752 154.172308 
L 190.302011 161.737281 
L 185.905305 161.706625 
z
" style="stroke:#000000;"/>
    <path clip-path="url(#p9e98f1ff9b)" d="M 193.863787 198.762097 
L 191.446243 200.089661 
L 192.783666 191.678581 
z
" style="stroke:#000000;"/>
    <path clip-path="url(#p9e98f1ff9b)" d="M 191.446243 154.219845 
L 193.863787 155.554609 
L 192.783666 162.634909 
z
" style="stroke:#000000;"/>
    <path clip-path="url(#p9e98f1ff9b)" d="M 191.446243 200.089661 
L 193.863787 198.762097 
L 193.034294 207.385957 
z
" style="stroke:#000000;"/>
    <path clip-path="url(#p9e98f1ff9b)" d="M 193.863787 155.554609 
L 191.446243 154.219845 
L 193.034294 146.928279 
z
" style="stroke:#000000;"/>
    <path clip-path="url(#p9e98f1ff9b)" d="M 185.905305 192.607205 
L 191.446243 200.089661 
L 187.047752 200.144945 
z
" style="stroke:#000000;"/>
    <path clip-path="url(#p9e98f1ff9b)" d="M 193.034294 207.385957 
L 187.047752 200.144945 
L 191.446243 200.089661 
z
" style="stroke:#000000;"/>
    <path clip-path="url(#p9e98f1ff9b)" d="M 192.131805 169.858947 
L 187.514655 177.159326 
L 191.913874 177.15545 
z
" style="stroke:#000000;"/>
    <path clip-path="url(#p9e98f1ff9b)" d="M 184.985424 177.155537 
L 187.514655 177.159326 
L 185.215883 169.392824 
z
" style="stroke:#000000;"/>
    <path clip-path="url(#p9e98f1ff9b)" d="M 187.514655 177.159326 
L 184.985424 177.155537 
L 185.215883 184.918941 
z
" style="stroke:#000000;"/>
    <path clip-path="url(#p9e98f1ff9b)" d="M 191.913874 177.15545 
L 187.732248 184.472844 
L 192.131805 184.452601 
z
" style="stroke:#000000;"/>
    <path clip-path="url(#p9e98f1ff9b)" d="M 192.783666 162.634909 
L 187.732248 169.846459 
L 192.131805 169.858947 
z
" style="stroke:#000000;"/>
    <path clip-path="url(#p9e98f1ff9b)" d="M 185.215883 169.392824 
L 187.732248 169.846459 
L 185.905305 161.706625 
z
" style="stroke:#000000;"/>
    <path clip-path="url(#p9e98f1ff9b)" d="M 187.732248 184.472844 
L 185.215883 184.918941 
L 185.905305 192.607205 
z
" style="stroke:#000000;"/>
    <path clip-path="url(#p9e98f1ff9b)" d="M 191.446243 154.219845 
L 188.633335 146.864309 
L 193.034294 146.928279 
z
" style="stroke:#000000;"/>
    <path clip-path="url(#p9e98f1ff9b)" d="M 192.131805 184.452601 
L 188.383095 191.715052 
L 192.783666 191.678581 
z
" style="stroke:#000000;"/>
    <path clip-path="url(#p9e98f1ff9b)" d="M 188.633335 146.864309 
L 191.446243 154.219845 
L 187.047752 154.172308 
z
" style="stroke:#000000;"/>
    <path clip-path="url(#p9e98f1ff9b)" d="M 187.732248 184.472844 
L 191.913874 177.15545 
L 187.514655 177.159326 
z
" style="stroke:#000000;"/>
    <path clip-path="url(#p9e98f1ff9b)" d="M 187.514655 177.159326 
L 192.131805 169.858947 
L 187.732248 169.846459 
z
" style="stroke:#000000;"/>
    <path clip-path="url(#p9e98f1ff9b)" d="M 185.215883 184.918941 
L 187.732248 184.472844 
L 187.514655 177.159326 
z
" style="stroke:#000000;"/>
    <path clip-path="url(#p9e98f1ff9b)" d="M 187.732248 169.846459 
L 185.215883 169.392824 
L 187.514655 177.159326 
z
" style="stroke:#000000;"/>
    <path clip-path="url(#p9e98f1ff9b)" d="M 193.863787 155.554609 
L 188.383095 162.606201 
L 192.783666 162.634909 
z
" style="stroke:#000000;"/>
    <path clip-path="url(#p9e98f1ff9b)" d="M 188.383095 191.715052 
L 192.131805 184.452601 
L 187.732248 184.472844 
z
" style="stroke:#000000;"/>
    <path clip-path="url(#p9e98f1ff9b)" d="M 195.362674 205.632673 
L 193.034294 207.385957 
L 193.863787 198.762097 
z
" style="stroke:#000000;"/>
    <path clip-path="url(#p9e98f1ff9b)" d="M 193.034294 146.928279 
L 195.362674 148.688497 
L 193.863787 155.554609 
z
" style="stroke:#000000;"/>
    <path clip-path="url(#p9e98f1ff9b)" d="M 185.905305 161.706625 
L 188.383095 162.606201 
L 187.047752 154.172308 
z
" style="stroke:#000000;"/>
    <path clip-path="url(#p9e98f1ff9b)" d="M 188.383095 191.715052 
L 185.905305 192.607205 
L 187.047752 200.144945 
z
" style="stroke:#000000;"/>
    <path clip-path="url(#p9e98f1ff9b)" d="M 187.047752 200.144945 
L 193.034294 207.385957 
L 188.633335 207.457693 
z
" style="stroke:#000000;"/>
    <path clip-path="url(#p9e98f1ff9b)" d="M 187.732248 169.846459 
L 192.783666 162.634909 
L 188.383095 162.606201 
z
" style="stroke:#000000;"/>
    <path clip-path="url(#p9e98f1ff9b)" d="M 188.383095 162.606201 
L 185.905305 161.706625 
L 187.732248 169.846459 
z
" style="stroke:#000000;"/>
    <path clip-path="url(#p9e98f1ff9b)" d="M 185.905305 192.607205 
L 188.383095 191.715052 
L 187.732248 184.472844 
z
" style="stroke:#000000;"/>
    <path clip-path="url(#p9e98f1ff9b)" d="M 192.783666 191.678581 
L 189.461542 198.814514 
L 193.863787 198.762097 
z
" style="stroke:#000000;"/>
    <path clip-path="url(#p9e98f1ff9b)" d="M 193.034294 207.385957 
L 195.362674 205.632673 
L 195.052364 214.384931 
z
" style="stroke:#000000;"/>
    <path clip-path="url(#p9e98f1ff9b)" d="M 195.362674 148.688497 
L 193.034294 146.928279 
L 195.052364 139.935314 
z
" style="stroke:#000000;"/>
    <path clip-path="url(#p9e98f1ff9b)" d="M 195.052364 214.384931 
L 188.633335 207.457693 
L 193.034294 207.385957 
z
" style="stroke:#000000;"/>
    <path clip-path="url(#p9e98f1ff9b)" d="M 189.461542 198.814514 
L 192.783666 191.678581 
L 188.383095 191.715052 
z
" style="stroke:#000000;"/>
    <path clip-path="url(#p9e98f1ff9b)" d="M 195.362674 148.688497 
L 189.461542 155.50997 
L 193.863787 155.554609 
z
" style="stroke:#000000;"/>
    <path clip-path="url(#p9e98f1ff9b)" d="M 188.383095 162.606201 
L 193.863787 155.554609 
L 189.461542 155.50997 
z
" style="stroke:#000000;"/>
    <path clip-path="url(#p9e98f1ff9b)" d="M 193.034294 146.928279 
L 190.648282 139.855509 
L 195.052364 139.935314 
z
" style="stroke:#000000;"/>
    <path clip-path="url(#p9e98f1ff9b)" d="M 189.461542 155.50997 
L 187.047752 154.172308 
L 188.383095 162.606201 
z
" style="stroke:#000000;"/>
    <path clip-path="url(#p9e98f1ff9b)" d="M 187.047752 200.144945 
L 189.461542 198.814514 
L 188.383095 191.715052 
z
" style="stroke:#000000;"/>
    <path clip-path="url(#p9e98f1ff9b)" d="M 187.047752 154.172308 
L 189.461542 155.50997 
L 188.633335 146.864309 
z
" style="stroke:#000000;"/>
    <path clip-path="url(#p9e98f1ff9b)" d="M 189.461542 198.814514 
L 187.047752 200.144945 
L 188.633335 207.457693 
z
" style="stroke:#000000;"/>
    <path clip-path="url(#p9e98f1ff9b)" d="M 190.648282 139.855509 
L 193.034294 146.928279 
L 188.633335 146.864309 
z
" style="stroke:#000000;"/>
    <path clip-path="url(#p9e98f1ff9b)" d="M 193.863787 198.762097 
L 190.958113 205.70061 
L 195.362674 205.632673 
z
" style="stroke:#000000;"/>
    <path clip-path="url(#p9e98f1ff9b)" d="M 197.26706 212.221317 
L 195.052364 214.384931 
L 195.362674 205.632673 
z
" style="stroke:#000000;"/>
    <path clip-path="url(#p9e98f1ff9b)" d="M 195.052364 139.935314 
L 197.26706 142.105523 
L 195.362674 148.688497 
z
" style="stroke:#000000;"/>
    <path clip-path="url(#p9e98f1ff9b)" d="M 190.958113 205.70061 
L 193.863787 198.762097 
L 189.461542 198.814514 
z
" style="stroke:#000000;"/>
    <path clip-path="url(#p9e98f1ff9b)" d="M 188.633335 207.457693 
L 195.052364 214.384931 
L 190.648282 214.47253 
z
" style="stroke:#000000;"/>
    <path clip-path="url(#p9e98f1ff9b)" d="M 195.052364 214.384931 
L 197.26706 212.221317 
L 197.482632 221.015401 
z
" style="stroke:#000000;"/>
    <path clip-path="url(#p9e98f1ff9b)" d="M 197.26706 142.105523 
L 195.052364 139.935314 
L 197.482632 133.312081 
z
" style="stroke:#000000;"/>
    <path clip-path="url(#p9e98f1ff9b)" d="M 189.461542 155.50997 
L 195.362674 148.688497 
L 190.958113 148.628357 
z
" style="stroke:#000000;"/>
    <path clip-path="url(#p9e98f1ff9b)" d="M 190.958113 148.628357 
L 188.633335 146.864309 
L 189.461542 155.50997 
z
" style="stroke:#000000;"/>
    <path clip-path="url(#p9e98f1ff9b)" d="M 188.633335 207.457693 
L 190.958113 205.70061 
L 189.461542 198.814514 
z
" style="stroke:#000000;"/>
    <path clip-path="url(#p9e98f1ff9b)" d="M 197.482632 221.015401 
L 190.648282 214.47253 
L 195.052364 214.384931 
z
" style="stroke:#000000;"/>
    <path clip-path="url(#p9e98f1ff9b)" d="M 197.26706 142.105523 
L 190.958113 148.628357 
L 195.362674 148.688497 
z
" style="stroke:#000000;"/>
    <path clip-path="url(#p9e98f1ff9b)" d="M 188.633335 146.864309 
L 190.958113 148.628357 
L 190.648282 139.855509 
z
" style="stroke:#000000;"/>
    <path clip-path="url(#p9e98f1ff9b)" d="M 190.958113 205.70061 
L 188.633335 207.457693 
L 190.648282 214.47253 
z
" style="stroke:#000000;"/>
    <path clip-path="url(#p9e98f1ff9b)" d="M 195.362674 205.632673 
L 192.859569 212.304209 
L 197.26706 212.221317 
z
" style="stroke:#000000;"/>
    <path clip-path="url(#p9e98f1ff9b)" d="M 195.052364 139.935314 
L 193.07481 133.217185 
L 197.482632 133.312081 
z
" style="stroke:#000000;"/>
    <path clip-path="url(#p9e98f1ff9b)" d="M 193.07481 133.217185 
L 195.052364 139.935314 
L 190.648282 139.855509 
z
" style="stroke:#000000;"/>
    <path clip-path="url(#p9e98f1ff9b)" d="M 192.859569 212.304209 
L 195.362674 205.632673 
L 190.958113 205.70061 
z
" style="stroke:#000000;"/>
    <path clip-path="url(#p9e98f1ff9b)" d="M 197.482632 221.015401 
L 197.26706 212.221317 
L 199.559939 218.461031 
z
" style="stroke:#000000;"/>
    <path clip-path="url(#p9e98f1ff9b)" d="M 197.26706 142.105523 
L 197.482632 133.312081 
L 199.559939 135.872637 
z
" style="stroke:#000000;"/>
    <path clip-path="url(#p9e98f1ff9b)" d="M 190.958113 148.628357 
L 197.26706 142.105523 
L 192.859569 142.030455 
z
" style="stroke:#000000;"/>
    <path clip-path="url(#p9e98f1ff9b)" d="M 190.648282 214.47253 
L 197.482632 221.015401 
L 193.07481 221.118124 
z
" style="stroke:#000000;"/>
    <path clip-path="url(#p9e98f1ff9b)" d="M 192.859569 142.030455 
L 190.648282 139.855509 
L 190.958113 148.628357 
z
" style="stroke:#000000;"/>
    <path clip-path="url(#p9e98f1ff9b)" d="M 190.648282 214.47253 
L 192.859569 212.304209 
L 190.958113 205.70061 
z
" style="stroke:#000000;"/>
    <path clip-path="url(#p9e98f1ff9b)" d="M 199.559939 135.872637 
L 192.859569 142.030455 
L 197.26706 142.105523 
z
" style="stroke:#000000;"/>
    <path clip-path="url(#p9e98f1ff9b)" d="M 197.482632 221.015401 
L 199.559939 218.461031 
L 200.303423 227.209297 
z
" style="stroke:#000000;"/>
    <path clip-path="url(#p9e98f1ff9b)" d="M 199.559939 135.872637 
L 197.482632 133.312081 
L 200.303423 127.126584 
z
" style="stroke:#000000;"/>
    <path clip-path="url(#p9e98f1ff9b)" d="M 190.648282 139.855509 
L 192.859569 142.030455 
L 193.07481 133.217185 
z
" style="stroke:#000000;"/>
    <path clip-path="url(#p9e98f1ff9b)" d="M 192.859569 212.304209 
L 190.648282 214.47253 
L 193.07481 221.118124 
z
" style="stroke:#000000;"/>
    <path clip-path="url(#p9e98f1ff9b)" d="M 200.303423 227.209297 
L 193.07481 221.118124 
L 197.482632 221.015401 
z
" style="stroke:#000000;"/>
    <path clip-path="url(#p9e98f1ff9b)" d="M 197.26706 212.221317 
L 195.148939 218.558171 
L 199.559939 218.461031 
z
" style="stroke:#000000;"/>
    <path clip-path="url(#p9e98f1ff9b)" d="M 195.148939 218.558171 
L 197.26706 212.221317 
L 192.859569 212.304209 
z
" style="stroke:#000000;"/>
    <path clip-path="url(#p9e98f1ff9b)" d="M 195.891289 127.017487 
L 197.482632 133.312081 
L 193.07481 133.217185 
z
" style="stroke:#000000;"/>
    <path clip-path="url(#p9e98f1ff9b)" d="M 197.482632 133.312081 
L 195.891289 127.017487 
L 200.303423 127.126584 
z
" style="stroke:#000000;"/>
    <path clip-path="url(#p9e98f1ff9b)" d="M 192.859569 142.030455 
L 199.559939 135.872637 
L 195.148939 135.783351 
z
" style="stroke:#000000;"/>
    <path clip-path="url(#p9e98f1ff9b)" d="M 200.303423 227.209297 
L 199.559939 218.461031 
L 202.220575 224.286791 
z
" style="stroke:#000000;"/>
    <path clip-path="url(#p9e98f1ff9b)" d="M 199.559939 135.872637 
L 200.303423 127.126584 
L 202.220575 130.0548 
z
" style="stroke:#000000;"/>
    <path clip-path="url(#p9e98f1ff9b)" d="M 193.07481 133.217185 
L 192.859569 142.030455 
L 195.148939 135.783351 
z
" style="stroke:#000000;"/>
    <path clip-path="url(#p9e98f1ff9b)" d="M 192.859569 212.304209 
L 193.07481 221.118124 
L 195.148939 218.558171 
z
" style="stroke:#000000;"/>
    <path clip-path="url(#p9e98f1ff9b)" d="M 193.07481 221.118124 
L 200.303423 227.209297 
L 195.891289 227.32626 
z
" style="stroke:#000000;"/>
    <path clip-path="url(#p9e98f1ff9b)" d="M 202.220575 130.0548 
L 195.148939 135.783351 
L 199.559939 135.872637 
z
" style="stroke:#000000;"/>
    <path clip-path="url(#p9e98f1ff9b)" d="M 201.89415 230.051171 
L 195.891289 227.32626 
L 200.303423 227.209297 
z
" style="stroke:#000000;"/>
    <path clip-path="url(#p9e98f1ff9b)" d="M 200.303423 227.209297 
L 203.020267 229.105251 
L 201.89415 230.051171 
z
" style="stroke:#000000;"/>
    <path clip-path="url(#p9e98f1ff9b)" d="M 203.020267 125.238722 
L 200.303423 127.126584 
L 201.89415 124.289448 
z
" style="stroke:#000000;"/>
    <path clip-path="url(#p9e98f1ff9b)" d="M 193.07481 133.217185 
L 195.148939 135.783351 
L 195.891289 127.017487 
z
" style="stroke:#000000;"/>
    <path clip-path="url(#p9e98f1ff9b)" d="M 195.148939 218.558171 
L 193.07481 221.118124 
L 195.891289 227.32626 
z
" style="stroke:#000000;"/>
    <path clip-path="url(#p9e98f1ff9b)" d="M 203.020267 229.105251 
L 200.303423 227.209297 
L 202.220575 224.286791 
z
" style="stroke:#000000;"/>
    <path clip-path="url(#p9e98f1ff9b)" d="M 200.303423 127.126584 
L 203.020267 125.238722 
L 202.220575 130.0548 
z
" style="stroke:#000000;"/>
    <path clip-path="url(#p9e98f1ff9b)" d="M 197.805528 224.397333 
L 199.559939 218.461031 
L 195.148939 218.558171 
z
" style="stroke:#000000;"/>
    <path clip-path="url(#p9e98f1ff9b)" d="M 199.559939 218.461031 
L 197.805528 224.397333 
L 202.220575 224.286791 
z
" style="stroke:#000000;"/>
    <path clip-path="url(#p9e98f1ff9b)" d="M 200.303423 127.126584 
L 197.479598 124.173785 
L 201.89415 124.289448 
z
" style="stroke:#000000;"/>
    <path clip-path="url(#p9e98f1ff9b)" d="M 197.479598 124.173785 
L 200.303423 127.126584 
L 195.891289 127.017487 
z
" style="stroke:#000000;"/>
    <path clip-path="url(#p9e98f1ff9b)" d="M 195.148939 135.783351 
L 202.220575 130.0548 
L 197.805528 129.952148 
z
" style="stroke:#000000;"/>
    <path clip-path="url(#p9e98f1ff9b)" d="M 195.891289 227.32626 
L 201.89415 230.051171 
L 197.479598 230.17472 
z
" style="stroke:#000000;"/>
    <path clip-path="url(#p9e98f1ff9b)" d="M 203.020267 229.105251 
L 202.220575 224.286791 
L 204.205348 227.821806 
z
" style="stroke:#000000;"/>
    <path clip-path="url(#p9e98f1ff9b)" d="M 202.220575 130.0548 
L 203.020267 125.238722 
L 204.205348 126.525695 
z
" style="stroke:#000000;"/>
    <path clip-path="url(#p9e98f1ff9b)" d="M 197.479598 124.173785 
L 203.020267 125.238722 
L 201.89415 124.289448 
z
" style="stroke:#000000;"/>
    <path clip-path="url(#p9e98f1ff9b)" d="M 195.891289 127.017487 
L 195.148939 135.783351 
L 197.805528 129.952148 
z
" style="stroke:#000000;"/>
    <path clip-path="url(#p9e98f1ff9b)" d="M 195.148939 218.558171 
L 195.891289 227.32626 
L 197.805528 224.397333 
z
" style="stroke:#000000;"/>
    <path clip-path="url(#p9e98f1ff9b)" d="M 198.604009 229.226778 
L 201.89415 230.051171 
L 203.020267 229.105251 
z
" style="stroke:#000000;"/>
    <path clip-path="url(#p9e98f1ff9b)" d="M 197.805528 224.397333 
L 204.205348 227.821806 
L 202.220575 224.286791 
z
" style="stroke:#000000;"/>
    <path clip-path="url(#p9e98f1ff9b)" d="M 201.89415 230.051171 
L 198.604009 229.226778 
L 197.479598 230.17472 
z
" style="stroke:#000000;"/>
    <path clip-path="url(#p9e98f1ff9b)" d="M 198.604009 125.125096 
L 204.205348 126.525695 
L 203.020267 125.238722 
z
" style="stroke:#000000;"/>
    <path clip-path="url(#p9e98f1ff9b)" d="M 195.891289 127.017487 
L 198.604009 125.125096 
L 197.479598 124.173785 
z
" style="stroke:#000000;"/>
    <path clip-path="url(#p9e98f1ff9b)" d="M 198.604009 229.226778 
L 195.891289 227.32626 
L 197.479598 230.17472 
z
" style="stroke:#000000;"/>
    <path clip-path="url(#p9e98f1ff9b)" d="M 203.020267 125.238722 
L 197.479598 124.173785 
L 198.604009 125.125096 
z
" style="stroke:#000000;"/>
    <path clip-path="url(#p9e98f1ff9b)" d="M 199.7873 126.414871 
L 202.220575 130.0548 
L 204.205348 126.525695 
z
" style="stroke:#000000;"/>
    <path clip-path="url(#p9e98f1ff9b)" d="M 198.604009 125.125096 
L 195.891289 127.017487 
L 197.805528 129.952148 
z
" style="stroke:#000000;"/>
    <path clip-path="url(#p9e98f1ff9b)" d="M 195.891289 227.32626 
L 198.604009 229.226778 
L 197.805528 224.397333 
z
" style="stroke:#000000;"/>
    <path clip-path="url(#p9e98f1ff9b)" d="M 202.220575 130.0548 
L 199.7873 126.414871 
L 197.805528 129.952148 
z
" style="stroke:#000000;"/>
    <path clip-path="url(#p9e98f1ff9b)" d="M 199.7873 227.940547 
L 203.020267 229.105251 
L 204.205348 227.821806 
z
" style="stroke:#000000;"/>
    <path clip-path="url(#p9e98f1ff9b)" d="M 203.020267 229.105251 
L 199.7873 227.940547 
L 198.604009 229.226778 
z
" style="stroke:#000000;"/>
    <path clip-path="url(#p9e98f1ff9b)" d="M 204.205348 227.821806 
L 197.805528 224.397333 
L 199.7873 227.940547 
z
" style="stroke:#000000;"/>
    <path clip-path="url(#p9e98f1ff9b)" d="M 204.205348 126.525695 
L 198.604009 125.125096 
L 199.7873 126.414871 
z
" style="stroke:#000000;"/>
    <path clip-path="url(#p9e98f1ff9b)" d="M 198.604009 125.125096 
L 197.805528 129.952148 
L 199.7873 126.414871 
z
" style="stroke:#000000;"/>
    <path clip-path="url(#p9e98f1ff9b)" d="M 197.805528 224.397333 
L 198.604009 229.226778 
L 199.7873 227.940547 
z
" style="stroke:#000000;"/>
   </g>
  </g>
 </g>
 <defs>
  <clipPath id="p9e98f1ff9b">
   <rect height="271.8" width="279" x="45" y="43.2"/>
  </clipPath>
 </defs>
</svg>
