<?xml version="1.0" encoding="utf-8" standalone="no"?>
<!DOCTYPE svg PUBLIC "-//W3C//DTD SVG 1.1//EN"
  "http://www.w3.org/Graphics/SVG/1.1/DTD/svg11.dtd">
<!-- Created with matplotlib (https://matplotlib.org/) -->
<svg height="360pt" version="1.1" viewBox="0 0 360 360" width="360pt" xmlns="http://www.w3.org/2000/svg" xmlns:xlink="http://www.w3.org/1999/xlink">
 <defs>
  <style type="text/css">
*{stroke-linecap:butt;stroke-linejoin:round;}
  </style>
 </defs>
 <g id="figure_1">
  <g id="patch_1">
   <path d="M 45 315 
L 324 315 
L 324 43.2 
L 45 43.2 
z
" style="fill:#ffffff;"/>
  </g>
  <g id="axes_1">
   <g id="Poly3DCollection_1">
    <path clip-path="url(#p75fa1fc357)" d="M 156.787647 109.260984 
L 158.417361 115.496658 
L 154.378362 111.035074 
z
" style="stroke:#000000;"/>
    <path clip-path="url(#p75fa1fc357)" d="M 158.417361 238.758097 
L 156.787647 244.992781 
L 154.378362 243.217227 
z
" style="stroke:#000000;"/>
    <path clip-path="url(#p75fa1fc357)" d="M 156.787647 109.260984 
L 162.33734 111.518056 
L 158.417361 115.496658 
z
" style="stroke:#000000;"/>
    <path clip-path="url(#p75fa1fc357)" d="M 162.33734 242.73908 
L 156.787647 244.992781 
L 158.417361 238.758097 
z
" style="stroke:#000000;"/>
    <path clip-path="url(#p75fa1fc357)" d="M 162.33734 111.518056 
L 156.787647 109.260984 
L 159.083505 107.928532 
z
" style="stroke:#000000;"/>
    <path clip-path="url(#p75fa1fc357)" d="M 156.787647 244.992781 
L 162.33734 242.73908 
L 159.083505 246.326627 
z
" style="stroke:#000000;"/>
    <path clip-path="url(#p75fa1fc357)" d="M 162.33734 111.518056 
L 163.862476 122.937949 
L 158.417361 115.496658 
z
" style="stroke:#000000;"/>
    <path clip-path="url(#p75fa1fc357)" d="M 163.862476 231.320114 
L 162.33734 242.73908 
L 158.417361 238.758097 
z
" style="stroke:#000000;"/>
    <path clip-path="url(#p75fa1fc357)" d="M 152.318168 110.732189 
L 156.787647 109.260984 
L 154.378362 111.035074 
z
" style="stroke:#000000;"/>
    <path clip-path="url(#p75fa1fc357)" d="M 152.318168 243.536097 
L 158.417361 238.758097 
L 154.378362 243.217227 
z
" style="stroke:#000000;"/>
    <path clip-path="url(#p75fa1fc357)" d="M 154.737899 245.320143 
L 154.378362 243.217227 
L 156.787647 244.992781 
z
" style="stroke:#000000;"/>
    <path clip-path="url(#p75fa1fc357)" d="M 168.138463 119.436569 
L 163.862476 122.937949 
L 162.33734 111.518056 
z
" style="stroke:#000000;"/>
    <path clip-path="url(#p75fa1fc357)" d="M 163.862476 231.320114 
L 168.138463 234.824091 
L 162.33734 242.73908 
z
" style="stroke:#000000;"/>
    <path clip-path="url(#p75fa1fc357)" d="M 156.374685 115.214556 
L 154.378362 111.035074 
L 158.417361 115.496658 
z
" style="stroke:#000000;"/>
    <path clip-path="url(#p75fa1fc357)" d="M 154.737899 108.94962 
L 159.083505 107.928532 
L 156.787647 109.260984 
z
" style="stroke:#000000;"/>
    <path clip-path="url(#p75fa1fc357)" d="M 168.138463 119.436569 
L 168.583449 130.994097 
L 163.862476 122.937949 
z
" style="stroke:#000000;"/>
    <path clip-path="url(#p75fa1fc357)" d="M 168.583449 223.266833 
L 168.138463 234.824091 
L 163.862476 231.320114 
z
" style="stroke:#000000;"/>
    <path clip-path="url(#p75fa1fc357)" d="M 157.043721 246.660404 
L 156.787647 244.992781 
L 159.083505 246.326627 
z
" style="stroke:#000000;"/>
    <path clip-path="url(#p75fa1fc357)" d="M 162.33734 242.73908 
L 157.043721 246.660404 
L 159.083505 246.326627 
z
" style="stroke:#000000;"/>
    <path clip-path="url(#p75fa1fc357)" d="M 163.862476 122.937949 
L 156.374685 115.214556 
L 158.417361 115.496658 
z
" style="stroke:#000000;"/>
    <path clip-path="url(#p75fa1fc357)" d="M 173.168706 128.010489 
L 168.583449 130.994097 
L 168.138463 119.436569 
z
" style="stroke:#000000;"/>
    <path clip-path="url(#p75fa1fc357)" d="M 168.583449 223.266833 
L 173.168706 226.253226 
L 168.138463 234.824091 
z
" style="stroke:#000000;"/>
    <path clip-path="url(#p75fa1fc357)" d="M 159.083505 107.928532 
L 160.311692 111.217014 
L 162.33734 111.518056 
z
" style="stroke:#000000;"/>
    <path clip-path="url(#p75fa1fc357)" d="M 158.417361 238.758097 
L 161.84346 231.58347 
L 163.862476 231.320114 
z
" style="stroke:#000000;"/>
    <path clip-path="url(#p75fa1fc357)" d="M 168.583449 130.994097 
L 173.168706 128.010489 
L 172.524744 139.574592 
z
" style="stroke:#000000;"/>
    <path clip-path="url(#p75fa1fc357)" d="M 173.168706 226.253226 
L 168.583449 223.266833 
L 172.524744 214.688732 
z
" style="stroke:#000000;"/>
    <path clip-path="url(#p75fa1fc357)" d="M 154.378362 243.217227 
L 154.737899 245.320143 
L 152.318168 243.536097 
z
" style="stroke:#000000;"/>
    <path clip-path="url(#p75fa1fc357)" d="M 168.138463 234.824091 
L 160.311692 243.056152 
L 162.33734 242.73908 
z
" style="stroke:#000000;"/>
    <path clip-path="url(#p75fa1fc357)" d="M 154.378362 111.035074 
L 156.374685 115.214556 
L 152.318168 110.732189 
z
" style="stroke:#000000;"/>
    <path clip-path="url(#p75fa1fc357)" d="M 156.787647 109.260984 
L 152.318168 110.732189 
L 154.737899 108.94962 
z
" style="stroke:#000000;"/>
    <path clip-path="url(#p75fa1fc357)" d="M 168.583449 130.994097 
L 161.84346 122.690632 
L 163.862476 122.937949 
z
" style="stroke:#000000;"/>
    <path clip-path="url(#p75fa1fc357)" d="M 177.36866 137.144378 
L 172.524744 139.574592 
L 173.168706 128.010489 
z
" style="stroke:#000000;"/>
    <path clip-path="url(#p75fa1fc357)" d="M 172.524744 214.688732 
L 177.36866 217.121888 
L 173.168706 226.253226 
z
" style="stroke:#000000;"/>
    <path clip-path="url(#p75fa1fc357)" d="M 158.417361 238.758097 
L 152.318168 243.536097 
L 156.374685 239.056207 
z
" style="stroke:#000000;"/>
    <path clip-path="url(#p75fa1fc357)" d="M 162.33734 111.518056 
L 166.138063 119.172552 
L 168.138463 119.436569 
z
" style="stroke:#000000;"/>
    <path clip-path="url(#p75fa1fc357)" d="M 156.787647 244.992781 
L 157.043721 246.660404 
L 154.737899 245.320143 
z
" style="stroke:#000000;"/>
    <path clip-path="url(#p75fa1fc357)" d="M 172.524744 139.574592 
L 177.36866 137.144378 
L 175.639816 148.582888 
z
" style="stroke:#000000;"/>
    <path clip-path="url(#p75fa1fc357)" d="M 177.36866 217.121888 
L 172.524744 214.688732 
L 175.639816 205.682328 
z
" style="stroke:#000000;"/>
    <path clip-path="url(#p75fa1fc357)" d="M 163.862476 231.320114 
L 166.584988 223.492434 
L 168.583449 223.266833 
z
" style="stroke:#000000;"/>
    <path clip-path="url(#p75fa1fc357)" d="M 159.083505 107.928532 
L 154.737899 108.94962 
L 157.043721 107.610767 
z
" style="stroke:#000000;"/>
    <path clip-path="url(#p75fa1fc357)" d="M 160.311692 111.217014 
L 159.083505 107.928532 
L 157.043721 107.610767 
z
" style="stroke:#000000;"/>
    <path clip-path="url(#p75fa1fc357)" d="M 161.84346 231.58347 
L 158.417361 238.758097 
L 156.374685 239.056207 
z
" style="stroke:#000000;"/>
    <path clip-path="url(#p75fa1fc357)" d="M 180.688383 146.734816 
L 175.639816 148.582888 
L 177.36866 137.144378 
z
" style="stroke:#000000;"/>
    <path clip-path="url(#p75fa1fc357)" d="M 175.639816 205.682328 
L 180.688383 207.533467 
L 177.36866 217.121888 
z
" style="stroke:#000000;"/>
    <path clip-path="url(#p75fa1fc357)" d="M 175.639816 148.582888 
L 180.688383 146.734816 
L 177.89172 157.916891 
z
" style="stroke:#000000;"/>
    <path clip-path="url(#p75fa1fc357)" d="M 180.688383 207.533467 
L 175.639816 205.682328 
L 177.89172 196.349694 
z
" style="stroke:#000000;"/>
    <path clip-path="url(#p75fa1fc357)" d="M 173.168706 226.253226 
L 166.138063 235.104171 
L 168.138463 234.824091 
z
" style="stroke:#000000;"/>
    <path clip-path="url(#p75fa1fc357)" d="M 172.524744 139.574592 
L 166.584988 130.784562 
L 168.583449 130.994097 
z
" style="stroke:#000000;"/>
    <path clip-path="url(#p75fa1fc357)" d="M 157.043721 246.660404 
L 162.33734 242.73908 
L 160.311692 243.056152 
z
" style="stroke:#000000;"/>
    <path clip-path="url(#p75fa1fc357)" d="M 156.374685 115.214556 
L 163.862476 122.937949 
L 161.84346 122.690632 
z
" style="stroke:#000000;"/>
    <path clip-path="url(#p75fa1fc357)" d="M 168.583449 223.266833 
L 170.543471 214.874012 
L 172.524744 214.688732 
z
" style="stroke:#000000;"/>
    <path clip-path="url(#p75fa1fc357)" d="M 177.89172 157.916891 
L 183.088409 156.672969 
L 179.253663 167.470225 
z
" style="stroke:#000000;"/>
    <path clip-path="url(#p75fa1fc357)" d="M 183.088409 197.596772 
L 177.89172 196.349694 
L 179.253663 186.797187 
z
" style="stroke:#000000;"/>
    <path clip-path="url(#p75fa1fc357)" d="M 168.138463 119.436569 
L 171.190244 127.7867 
L 173.168706 128.010489 
z
" style="stroke:#000000;"/>
    <path clip-path="url(#p75fa1fc357)" d="M 183.088409 156.672969 
L 177.89172 157.916891 
L 180.688383 146.734816 
z
" style="stroke:#000000;"/>
    <path clip-path="url(#p75fa1fc357)" d="M 177.89172 196.349694 
L 183.088409 197.596772 
L 180.688383 207.533467 
z
" style="stroke:#000000;"/>
    <path clip-path="url(#p75fa1fc357)" d="M 184.540021 187.425271 
L 179.253663 186.797187 
L 179.709478 177.133844 
z
" style="stroke:#000000;"/>
    <path clip-path="url(#p75fa1fc357)" d="M 179.253663 167.470225 
L 184.540021 166.845352 
L 179.709478 177.133844 
z
" style="stroke:#000000;"/>
    <path clip-path="url(#p75fa1fc357)" d="M 166.138063 119.172552 
L 162.33734 111.518056 
L 160.311692 111.217014 
z
" style="stroke:#000000;"/>
    <path clip-path="url(#p75fa1fc357)" d="M 184.540021 166.845352 
L 179.253663 167.470225 
L 183.088409 156.672969 
z
" style="stroke:#000000;"/>
    <path clip-path="url(#p75fa1fc357)" d="M 179.253663 186.797187 
L 184.540021 187.425271 
L 183.088409 197.596772 
z
" style="stroke:#000000;"/>
    <path clip-path="url(#p75fa1fc357)" d="M 175.639816 148.582888 
L 170.543471 139.405401 
L 172.524744 139.574592 
z
" style="stroke:#000000;"/>
    <path clip-path="url(#p75fa1fc357)" d="M 154.737899 245.320143 
L 156.374685 239.056207 
L 152.318168 243.536097 
z
" style="stroke:#000000;"/>
    <path clip-path="url(#p75fa1fc357)" d="M 156.374685 115.214556 
L 154.737899 108.94962 
L 152.318168 110.732189 
z
" style="stroke:#000000;"/>
    <path clip-path="url(#p75fa1fc357)" d="M 166.584988 223.492434 
L 163.862476 231.320114 
L 161.84346 231.58347 
z
" style="stroke:#000000;"/>
    <path clip-path="url(#p75fa1fc357)" d="M 185.02582 177.135459 
L 179.709478 177.133844 
L 184.540021 166.845352 
z
" style="stroke:#000000;"/>
    <path clip-path="url(#p75fa1fc357)" d="M 179.709478 177.133844 
L 185.02582 177.135459 
L 184.540021 187.425271 
z
" style="stroke:#000000;"/>
    <path clip-path="url(#p75fa1fc357)" d="M 177.36866 217.121888 
L 171.190244 226.493107 
L 173.168706 226.253226 
z
" style="stroke:#000000;"/>
    <path clip-path="url(#p75fa1fc357)" d="M 172.524744 214.688732 
L 173.672147 205.825185 
L 175.639816 205.682328 
z
" style="stroke:#000000;"/>
    <path clip-path="url(#p75fa1fc357)" d="M 160.311692 243.056152 
L 168.138463 234.824091 
L 166.138063 235.104171 
z
" style="stroke:#000000;"/>
    <path clip-path="url(#p75fa1fc357)" d="M 161.84346 122.690632 
L 168.583449 130.994097 
L 166.584988 130.784562 
z
" style="stroke:#000000;"/>
    <path clip-path="url(#p75fa1fc357)" d="M 192.129942 104.192416 
L 183.252589 115.376857 
L 178.824398 114.194873 
z
" style="stroke:#000000;"/>
    <path clip-path="url(#p75fa1fc357)" d="M 192.129942 133.764794 
L 178.824398 114.194873 
L 183.252589 115.376857 
z
" style="stroke:#000000;"/>
    <path clip-path="url(#p75fa1fc357)" d="M 173.168706 128.010489 
L 175.408547 136.963562 
L 177.36866 137.144378 
z
" style="stroke:#000000;"/>
    <path clip-path="url(#p75fa1fc357)" d="M 177.89172 157.916891 
L 173.672147 148.456138 
L 175.639816 148.582888 
z
" style="stroke:#000000;"/>
    <path clip-path="url(#p75fa1fc357)" d="M 154.737899 245.320143 
L 160.311692 243.056152 
L 156.374685 239.056207 
z
" style="stroke:#000000;"/>
    <path clip-path="url(#p75fa1fc357)" d="M 160.311692 111.217014 
L 154.737899 108.94962 
L 156.374685 115.214556 
z
" style="stroke:#000000;"/>
    <path clip-path="url(#p75fa1fc357)" d="M 160.311692 243.056152 
L 154.737899 245.320143 
L 157.043721 246.660404 
z
" style="stroke:#000000;"/>
    <path clip-path="url(#p75fa1fc357)" d="M 154.737899 108.94962 
L 160.311692 111.217014 
L 157.043721 107.610767 
z
" style="stroke:#000000;"/>
    <path clip-path="url(#p75fa1fc357)" d="M 175.639816 205.682328 
L 175.933895 196.448524 
L 177.89172 196.349694 
z
" style="stroke:#000000;"/>
    <path clip-path="url(#p75fa1fc357)" d="M 179.253663 167.470225 
L 175.933895 157.834179 
L 177.89172 157.916891 
z
" style="stroke:#000000;"/>
    <path clip-path="url(#p75fa1fc357)" d="M 180.688383 207.533467 
L 175.408547 217.318821 
L 177.36866 217.121888 
z
" style="stroke:#000000;"/>
    <path clip-path="url(#p75fa1fc357)" d="M 171.190244 127.7867 
L 168.138463 119.436569 
L 166.138063 119.172552 
z
" style="stroke:#000000;"/>
    <path clip-path="url(#p75fa1fc357)" d="M 170.543471 214.874012 
L 168.583449 223.266833 
L 166.584988 223.492434 
z
" style="stroke:#000000;"/>
    <path clip-path="url(#p75fa1fc357)" d="M 177.89172 196.349694 
L 177.301795 186.850908 
L 179.253663 186.797187 
z
" style="stroke:#000000;"/>
    <path clip-path="url(#p75fa1fc357)" d="M 192.129942 133.764794 
L 192.129942 143.622254 
L 178.824398 114.194873 
z
" style="stroke:#000000;"/>
    <path clip-path="url(#p75fa1fc357)" d="M 160.311692 243.056152 
L 161.84346 231.58347 
L 156.374685 239.056207 
z
" style="stroke:#000000;"/>
    <path clip-path="url(#p75fa1fc357)" d="M 161.84346 122.690632 
L 160.311692 111.217014 
L 156.374685 115.214556 
z
" style="stroke:#000000;"/>
    <path clip-path="url(#p75fa1fc357)" d="M 179.709478 177.133844 
L 177.301795 167.432631 
L 179.253663 167.470225 
z
" style="stroke:#000000;"/>
    <path clip-path="url(#p75fa1fc357)" d="M 179.253663 186.797187 
L 177.759606 177.141909 
L 179.709478 177.133844 
z
" style="stroke:#000000;"/>
    <path clip-path="url(#p75fa1fc357)" d="M 177.36866 137.144378 
L 178.742796 146.599217 
L 180.688383 146.734816 
z
" style="stroke:#000000;"/>
    <path clip-path="url(#p75fa1fc357)" d="M 166.584988 130.784562 
L 172.524744 139.574592 
L 170.543471 139.405401 
z
" style="stroke:#000000;"/>
    <path clip-path="url(#p75fa1fc357)" d="M 166.138063 235.104171 
L 173.168706 226.253226 
L 171.190244 226.493107 
z
" style="stroke:#000000;"/>
    <path clip-path="url(#p75fa1fc357)" d="M 192.129942 104.192416 
L 192.129942 109.121145 
L 183.252589 115.376857 
z
" style="stroke:#000000;"/>
    <path clip-path="url(#p75fa1fc357)" d="M 183.088409 197.596772 
L 178.742796 207.685202 
L 180.688383 207.533467 
z
" style="stroke:#000000;"/>
    <path clip-path="url(#p75fa1fc357)" d="M 180.688383 146.734816 
L 181.153334 156.584299 
L 183.088409 156.672969 
z
" style="stroke:#000000;"/>
    <path clip-path="url(#p75fa1fc357)" d="M 166.138063 235.104171 
L 161.84346 231.58347 
L 160.311692 243.056152 
z
" style="stroke:#000000;"/>
    <path clip-path="url(#p75fa1fc357)" d="M 161.84346 122.690632 
L 166.138063 119.172552 
L 160.311692 111.217014 
z
" style="stroke:#000000;"/>
    <path clip-path="url(#p75fa1fc357)" d="M 173.672147 205.825185 
L 172.524744 214.688732 
L 170.543471 214.874012 
z
" style="stroke:#000000;"/>
    <path clip-path="url(#p75fa1fc357)" d="M 176.870653 113.905587 
L 192.129942 104.192416 
L 178.824398 114.194873 
z
" style="stroke:#000000;"/>
    <path clip-path="url(#p75fa1fc357)" d="M 192.129942 143.622254 
L 176.870653 113.905587 
L 178.824398 114.194873 
z
" style="stroke:#000000;"/>
    <path clip-path="url(#p75fa1fc357)" d="M 175.408547 136.963562 
L 173.168706 128.010489 
L 171.190244 127.7867 
z
" style="stroke:#000000;"/>
    <path clip-path="url(#p75fa1fc357)" d="M 170.543471 139.405401 
L 175.639816 148.582888 
L 173.672147 148.456138 
z
" style="stroke:#000000;"/>
    <path clip-path="url(#p75fa1fc357)" d="M 184.540021 187.425271 
L 181.153334 197.701591 
L 183.088409 197.596772 
z
" style="stroke:#000000;"/>
    <path clip-path="url(#p75fa1fc357)" d="M 183.088409 156.672969 
L 182.611309 166.804767 
L 184.540021 166.845352 
z
" style="stroke:#000000;"/>
    <path clip-path="url(#p75fa1fc357)" d="M 166.138063 235.104171 
L 166.584988 223.492434 
L 161.84346 231.58347 
z
" style="stroke:#000000;"/>
    <path clip-path="url(#p75fa1fc357)" d="M 166.584988 130.784562 
L 166.138063 119.172552 
L 161.84346 122.690632 
z
" style="stroke:#000000;"/>
    <path clip-path="url(#p75fa1fc357)" d="M 185.02582 177.135459 
L 182.611309 187.482013 
L 184.540021 187.425271 
z
" style="stroke:#000000;"/>
    <path clip-path="url(#p75fa1fc357)" d="M 171.190244 226.493107 
L 177.36866 217.121888 
L 175.408547 217.318821 
z
" style="stroke:#000000;"/>
    <path clip-path="url(#p75fa1fc357)" d="M 184.540021 166.845352 
L 183.099239 177.143539 
L 185.02582 177.135459 
z
" style="stroke:#000000;"/>
    <path clip-path="url(#p75fa1fc357)" d="M 175.933895 196.448524 
L 175.639816 205.682328 
L 173.672147 205.825185 
z
" style="stroke:#000000;"/>
    <path clip-path="url(#p75fa1fc357)" d="M 173.672147 148.456138 
L 177.89172 157.916891 
L 175.933895 157.834179 
z
" style="stroke:#000000;"/>
    <path clip-path="url(#p75fa1fc357)" d="M 192.129942 104.192416 
L 201.035369 115.186959 
L 192.129942 109.121145 
z
" style="stroke:#000000;"/>
    <path clip-path="url(#p75fa1fc357)" d="M 177.301795 186.850908 
L 177.89172 196.349694 
L 175.933895 196.448524 
z
" style="stroke:#000000;"/>
    <path clip-path="url(#p75fa1fc357)" d="M 178.742796 146.599217 
L 177.36866 137.144378 
L 175.408547 136.963562 
z
" style="stroke:#000000;"/>
    <path clip-path="url(#p75fa1fc357)" d="M 171.190244 226.493107 
L 166.584988 223.492434 
L 166.138063 235.104171 
z
" style="stroke:#000000;"/>
    <path clip-path="url(#p75fa1fc357)" d="M 166.584988 130.784562 
L 171.190244 127.7867 
L 166.138063 119.172552 
z
" style="stroke:#000000;"/>
    <path clip-path="url(#p75fa1fc357)" d="M 175.933895 157.834179 
L 179.253663 167.470225 
L 177.301795 167.432631 
z
" style="stroke:#000000;"/>
    <path clip-path="url(#p75fa1fc357)" d="M 192.129942 133.764794 
L 205.498651 113.904189 
L 192.129942 143.622254 
z
" style="stroke:#000000;"/>
    <path clip-path="url(#p75fa1fc357)" d="M 177.759606 177.141909 
L 179.253663 186.797187 
L 177.301795 186.850908 
z
" style="stroke:#000000;"/>
    <path clip-path="url(#p75fa1fc357)" d="M 177.301795 167.432631 
L 179.709478 177.133844 
L 177.759606 177.141909 
z
" style="stroke:#000000;"/>
    <path clip-path="url(#p75fa1fc357)" d="M 175.408547 217.318821 
L 180.688383 207.533467 
L 178.742796 207.685202 
z
" style="stroke:#000000;"/>
    <path clip-path="url(#p75fa1fc357)" d="M 166.584988 223.492434 
L 171.190244 226.493107 
L 170.543471 214.874012 
z
" style="stroke:#000000;"/>
    <path clip-path="url(#p75fa1fc357)" d="M 171.190244 127.7867 
L 166.584988 130.784562 
L 170.543471 139.405401 
z
" style="stroke:#000000;"/>
    <path clip-path="url(#p75fa1fc357)" d="M 190.234559 108.807144 
L 183.252589 115.376857 
L 192.129942 109.121145 
z
" style="stroke:#000000;"/>
    <path clip-path="url(#p75fa1fc357)" d="M 183.252589 115.376857 
L 190.234559 133.567496 
L 192.129942 133.764794 
z
" style="stroke:#000000;"/>
    <path clip-path="url(#p75fa1fc357)" d="M 181.153334 156.584299 
L 180.688383 146.734816 
L 178.742796 146.599217 
z
" style="stroke:#000000;"/>
    <path clip-path="url(#p75fa1fc357)" d="M 201.035369 115.186959 
L 192.129942 104.192416 
L 205.498651 113.904189 
z
" style="stroke:#000000;"/>
    <path clip-path="url(#p75fa1fc357)" d="M 205.498651 113.904189 
L 192.129942 133.764794 
L 201.035369 115.186959 
z
" style="stroke:#000000;"/>
    <path clip-path="url(#p75fa1fc357)" d="M 178.742796 207.685202 
L 183.088409 197.596772 
L 181.153334 197.701591 
z
" style="stroke:#000000;"/>
    <path clip-path="url(#p75fa1fc357)" d="M 175.408547 217.318821 
L 170.543471 214.874012 
L 171.190244 226.493107 
z
" style="stroke:#000000;"/>
    <path clip-path="url(#p75fa1fc357)" d="M 170.543471 139.405401 
L 175.408547 136.963562 
L 171.190244 127.7867 
z
" style="stroke:#000000;"/>
    <path clip-path="url(#p75fa1fc357)" d="M 204.605429 177.141406 
L 199.252031 177.13978 
L 199.740375 166.82216 
z
" style="stroke:#000000;"/>
    <path clip-path="url(#p75fa1fc357)" d="M 199.252031 177.13978 
L 204.605429 177.141406 
L 199.740375 187.457695 
z
" style="stroke:#000000;"/>
    <path clip-path="url(#p75fa1fc357)" d="M 182.611309 166.804767 
L 183.088409 156.672969 
L 181.153334 156.584299 
z
" style="stroke:#000000;"/>
    <path clip-path="url(#p75fa1fc357)" d="M 170.543471 214.874012 
L 175.408547 217.318821 
L 173.672147 205.825185 
z
" style="stroke:#000000;"/>
    <path clip-path="url(#p75fa1fc357)" d="M 175.408547 136.963562 
L 170.543471 139.405401 
L 173.672147 148.456138 
z
" style="stroke:#000000;"/>
    <path clip-path="url(#p75fa1fc357)" d="M 181.153334 197.701591 
L 184.540021 187.425271 
L 182.611309 187.482013 
z
" style="stroke:#000000;"/>
    <path clip-path="url(#p75fa1fc357)" d="M 205.065368 167.433676 
L 199.740375 166.82216 
L 201.200598 156.612562 
z
" style="stroke:#000000;"/>
    <path clip-path="url(#p75fa1fc357)" d="M 199.740375 187.457695 
L 205.065368 186.849414 
L 201.200598 197.668181 
z
" style="stroke:#000000;"/>
    <path clip-path="url(#p75fa1fc357)" d="M 183.099239 177.143539 
L 184.540021 166.845352 
L 182.611309 166.804767 
z
" style="stroke:#000000;"/>
    <path clip-path="url(#p75fa1fc357)" d="M 182.611309 187.482013 
L 185.02582 177.135459 
L 183.099239 177.143539 
z
" style="stroke:#000000;"/>
    <path clip-path="url(#p75fa1fc357)" d="M 205.065368 186.849414 
L 199.740375 187.457695 
L 204.605429 177.141406 
z
" style="stroke:#000000;"/>
    <path clip-path="url(#p75fa1fc357)" d="M 199.740375 166.82216 
L 205.065368 167.433676 
L 204.605429 177.141406 
z
" style="stroke:#000000;"/>
    <path clip-path="url(#p75fa1fc357)" d="M 206.440519 157.827909 
L 201.200598 156.612562 
L 203.618177 146.617766 
z
" style="stroke:#000000;"/>
    <path clip-path="url(#p75fa1fc357)" d="M 201.200598 197.668181 
L 206.440519 196.456016 
L 203.618177 207.664445 
z
" style="stroke:#000000;"/>
    <path clip-path="url(#p75fa1fc357)" d="M 183.252589 115.376857 
L 190.234559 108.807144 
L 181.318234 115.09293 
z
" style="stroke:#000000;"/>
    <path clip-path="url(#p75fa1fc357)" d="M 190.234559 133.567496 
L 183.252589 115.376857 
L 181.318234 115.09293 
z
" style="stroke:#000000;"/>
    <path clip-path="url(#p75fa1fc357)" d="M 201.200598 156.612562 
L 206.440519 157.827909 
L 205.065368 167.433676 
z
" style="stroke:#000000;"/>
    <path clip-path="url(#p75fa1fc357)" d="M 206.440519 196.456016 
L 201.200598 197.668181 
L 205.065368 186.849414 
z
" style="stroke:#000000;"/>
    <path clip-path="url(#p75fa1fc357)" d="M 178.742796 207.685202 
L 173.672147 205.825185 
L 175.408547 217.318821 
z
" style="stroke:#000000;"/>
    <path clip-path="url(#p75fa1fc357)" d="M 173.672147 148.456138 
L 178.742796 146.599217 
L 175.408547 136.963562 
z
" style="stroke:#000000;"/>
    <path clip-path="url(#p75fa1fc357)" d="M 173.672147 205.825185 
L 178.742796 207.685202 
L 175.933895 196.448524 
z
" style="stroke:#000000;"/>
    <path clip-path="url(#p75fa1fc357)" d="M 178.742796 146.599217 
L 173.672147 148.456138 
L 175.933895 157.834179 
z
" style="stroke:#000000;"/>
    <path clip-path="url(#p75fa1fc357)" d="M 192.129942 104.192416 
L 176.870653 113.905587 
L 190.234559 103.855073 
z
" style="stroke:#000000;"/>
    <path clip-path="url(#p75fa1fc357)" d="M 176.870653 113.905587 
L 192.129942 143.622254 
L 190.234559 143.471637 
z
" style="stroke:#000000;"/>
    <path clip-path="url(#p75fa1fc357)" d="M 190.234559 103.855073 
L 205.498651 113.904189 
L 192.129942 104.192416 
z
" style="stroke:#000000;"/>
    <path clip-path="url(#p75fa1fc357)" d="M 205.498651 113.904189 
L 190.234559 143.471637 
L 192.129942 143.622254 
z
" style="stroke:#000000;"/>
    <path clip-path="url(#p75fa1fc357)" d="M 203.618177 146.617766 
L 208.717197 148.424772 
L 206.440519 157.827909 
z
" style="stroke:#000000;"/>
    <path clip-path="url(#p75fa1fc357)" d="M 208.717197 205.860536 
L 203.618177 207.664445 
L 206.440519 196.456016 
z
" style="stroke:#000000;"/>
    <path clip-path="url(#p75fa1fc357)" d="M 208.717197 148.424772 
L 203.618177 146.617766 
L 206.969008 136.942653 
z
" style="stroke:#000000;"/>
    <path clip-path="url(#p75fa1fc357)" d="M 203.618177 207.664445 
L 208.717197 205.860536 
L 206.969008 217.341594 
z
" style="stroke:#000000;"/>
    <path clip-path="url(#p75fa1fc357)" d="M 175.933895 196.448524 
L 181.153334 197.701591 
L 177.301795 186.850908 
z
" style="stroke:#000000;"/>
    <path clip-path="url(#p75fa1fc357)" d="M 181.153334 156.584299 
L 175.933895 157.834179 
L 177.301795 167.432631 
z
" style="stroke:#000000;"/>
    <path clip-path="url(#p75fa1fc357)" d="M 199.179214 114.901229 
L 192.129942 109.121145 
L 201.035369 115.186959 
z
" style="stroke:#000000;"/>
    <path clip-path="url(#p75fa1fc357)" d="M 192.129942 133.764794 
L 199.179214 114.901229 
L 201.035369 115.186959 
z
" style="stroke:#000000;"/>
    <path clip-path="url(#p75fa1fc357)" d="M 181.153334 197.701591 
L 175.933895 196.448524 
L 178.742796 207.685202 
z
" style="stroke:#000000;"/>
    <path clip-path="url(#p75fa1fc357)" d="M 175.933895 157.834179 
L 181.153334 156.584299 
L 178.742796 146.599217 
z
" style="stroke:#000000;"/>
    <path clip-path="url(#p75fa1fc357)" d="M 182.611309 166.804767 
L 177.301795 167.432631 
L 177.759606 177.141909 
z
" style="stroke:#000000;"/>
    <path clip-path="url(#p75fa1fc357)" d="M 177.301795 186.850908 
L 182.611309 187.482013 
L 177.759606 177.141909 
z
" style="stroke:#000000;"/>
    <path clip-path="url(#p75fa1fc357)" d="M 199.740375 187.457695 
L 197.38801 177.147901 
L 199.252031 177.13978 
z
" style="stroke:#000000;"/>
    <path clip-path="url(#p75fa1fc357)" d="M 199.252031 177.13978 
L 197.878508 166.781355 
L 199.740375 166.82216 
z
" style="stroke:#000000;"/>
    <path clip-path="url(#p75fa1fc357)" d="M 182.611309 187.482013 
L 177.301795 186.850908 
L 181.153334 197.701591 
z
" style="stroke:#000000;"/>
    <path clip-path="url(#p75fa1fc357)" d="M 177.301795 167.432631 
L 182.611309 166.804767 
L 181.153334 156.584299 
z
" style="stroke:#000000;"/>
    <path clip-path="url(#p75fa1fc357)" d="M 201.200598 197.668181 
L 197.878508 187.514746 
L 199.740375 187.457695 
z
" style="stroke:#000000;"/>
    <path clip-path="url(#p75fa1fc357)" d="M 206.969008 136.942653 
L 211.872585 139.323243 
L 208.717197 148.424772 
z
" style="stroke:#000000;"/>
    <path clip-path="url(#p75fa1fc357)" d="M 211.872585 214.963982 
L 206.969008 217.341594 
L 208.717197 205.860536 
z
" style="stroke:#000000;"/>
    <path clip-path="url(#p75fa1fc357)" d="M 199.740375 166.82216 
L 199.345173 156.523319 
L 201.200598 156.612562 
z
" style="stroke:#000000;"/>
    <path clip-path="url(#p75fa1fc357)" d="M 183.099239 177.143539 
L 177.759606 177.141909 
L 182.611309 187.482013 
z
" style="stroke:#000000;"/>
    <path clip-path="url(#p75fa1fc357)" d="M 177.759606 177.141909 
L 183.099239 177.143539 
L 182.611309 166.804767 
z
" style="stroke:#000000;"/>
    <path clip-path="url(#p75fa1fc357)" d="M 211.872585 139.323243 
L 206.969008 136.942653 
L 211.219713 127.689062 
z
" style="stroke:#000000;"/>
    <path clip-path="url(#p75fa1fc357)" d="M 206.969008 217.341594 
L 211.872585 214.963982 
L 211.219713 226.597767 
z
" style="stroke:#000000;"/>
    <path clip-path="url(#p75fa1fc357)" d="M 203.618177 207.664445 
L 199.345173 197.773678 
L 201.200598 197.668181 
z
" style="stroke:#000000;"/>
    <path clip-path="url(#p75fa1fc357)" d="M 176.870653 113.905587 
L 190.234559 133.567496 
L 181.318234 115.09293 
z
" style="stroke:#000000;"/>
    <path clip-path="url(#p75fa1fc357)" d="M 181.318234 115.09293 
L 190.234559 103.855073 
L 176.870653 113.905587 
z
" style="stroke:#000000;"/>
    <path clip-path="url(#p75fa1fc357)" d="M 201.200598 156.612562 
L 201.773425 146.481056 
L 203.618177 146.617766 
z
" style="stroke:#000000;"/>
    <path clip-path="url(#p75fa1fc357)" d="M 192.129942 109.121145 
L 199.179214 114.901229 
L 190.234559 108.807144 
z
" style="stroke:#000000;"/>
    <path clip-path="url(#p75fa1fc357)" d="M 199.179214 114.901229 
L 192.129942 133.764794 
L 190.234559 133.567496 
z
" style="stroke:#000000;"/>
    <path clip-path="url(#p75fa1fc357)" d="M 211.219713 127.689062 
L 215.874977 130.619443 
L 211.872585 139.323243 
z
" style="stroke:#000000;"/>
    <path clip-path="url(#p75fa1fc357)" d="M 215.874977 223.670213 
L 211.219713 226.597767 
L 211.872585 214.963982 
z
" style="stroke:#000000;"/>
    <path clip-path="url(#p75fa1fc357)" d="M 206.969008 217.341594 
L 201.773425 207.817423 
L 203.618177 207.664445 
z
" style="stroke:#000000;"/>
    <path clip-path="url(#p75fa1fc357)" d="M 205.065368 167.433676 
L 202.765039 177.149542 
L 204.605429 177.141406 
z
" style="stroke:#000000;"/>
    <path clip-path="url(#p75fa1fc357)" d="M 204.605429 177.141406 
L 203.22701 186.903632 
L 205.065368 186.849414 
z
" style="stroke:#000000;"/>
    <path clip-path="url(#p75fa1fc357)" d="M 190.234559 133.567496 
L 176.870653 113.905587 
L 190.234559 143.471637 
z
" style="stroke:#000000;"/>
    <path clip-path="url(#p75fa1fc357)" d="M 206.440519 157.827909 
L 203.22701 167.395735 
L 205.065368 167.433676 
z
" style="stroke:#000000;"/>
    <path clip-path="url(#p75fa1fc357)" d="M 216.32757 118.955465 
L 215.874977 130.619443 
L 211.219713 127.689062 
z
" style="stroke:#000000;"/>
    <path clip-path="url(#p75fa1fc357)" d="M 215.874977 223.670213 
L 216.32757 235.334467 
L 211.219713 226.597767 
z
" style="stroke:#000000;"/>
    <path clip-path="url(#p75fa1fc357)" d="M 203.618177 146.617766 
L 205.139066 136.759921 
L 206.969008 136.942653 
z
" style="stroke:#000000;"/>
    <path clip-path="url(#p75fa1fc357)" d="M 205.065368 186.849414 
L 204.60824 196.555857 
L 206.440519 196.456016 
z
" style="stroke:#000000;"/>
    <path clip-path="url(#p75fa1fc357)" d="M 190.234559 103.855073 
L 181.318234 115.09293 
L 190.234559 108.807144 
z
" style="stroke:#000000;"/>
    <path clip-path="url(#p75fa1fc357)" d="M 208.717197 148.424772 
L 204.60824 157.744353 
L 206.440519 157.827909 
z
" style="stroke:#000000;"/>
    <path clip-path="url(#p75fa1fc357)" d="M 206.440519 196.456016 
L 206.894989 206.005086 
L 208.717197 205.860536 
z
" style="stroke:#000000;"/>
    <path clip-path="url(#p75fa1fc357)" d="M 197.878508 166.781355 
L 199.252031 177.13978 
L 197.38801 177.147901 
z
" style="stroke:#000000;"/>
    <path clip-path="url(#p75fa1fc357)" d="M 211.219713 226.597767 
L 205.139066 217.540613 
L 206.969008 217.341594 
z
" style="stroke:#000000;"/>
    <path clip-path="url(#p75fa1fc357)" d="M 197.38801 177.147901 
L 199.740375 187.457695 
L 197.878508 187.514746 
z
" style="stroke:#000000;"/>
    <path clip-path="url(#p75fa1fc357)" d="M 216.32757 118.955465 
L 220.684029 122.405731 
L 215.874977 130.619443 
z
" style="stroke:#000000;"/>
    <path clip-path="url(#p75fa1fc357)" d="M 220.684029 231.886847 
L 216.32757 235.334467 
L 215.874977 223.670213 
z
" style="stroke:#000000;"/>
    <path clip-path="url(#p75fa1fc357)" d="M 199.345173 156.523319 
L 199.740375 166.82216 
L 197.878508 166.781355 
z
" style="stroke:#000000;"/>
    <path clip-path="url(#p75fa1fc357)" d="M 197.878508 187.514746 
L 201.200598 197.668181 
L 199.345173 197.773678 
z
" style="stroke:#000000;"/>
    <path clip-path="url(#p75fa1fc357)" d="M 211.872585 139.323243 
L 206.894989 148.29652 
L 208.717197 148.424772 
z
" style="stroke:#000000;"/>
    <path clip-path="url(#p75fa1fc357)" d="M 206.969008 136.942653 
L 209.408585 127.462222 
L 211.219713 127.689062 
z
" style="stroke:#000000;"/>
    <path clip-path="url(#p75fa1fc357)" d="M 205.498651 113.904189 
L 190.234559 103.855073 
L 203.662208 113.612143 
z
" style="stroke:#000000;"/>
    <path clip-path="url(#p75fa1fc357)" d="M 190.234559 143.471637 
L 205.498651 113.904189 
L 203.662208 113.612143 
z
" style="stroke:#000000;"/>
    <path clip-path="url(#p75fa1fc357)" d="M 222.241103 110.834709 
L 220.684029 122.405731 
L 216.32757 118.955465 
z
" style="stroke:#000000;"/>
    <path clip-path="url(#p75fa1fc357)" d="M 220.684029 231.886847 
L 222.241103 243.458814 
L 216.32757 235.334467 
z
" style="stroke:#000000;"/>
    <path clip-path="url(#p75fa1fc357)" d="M 208.717197 205.860536 
L 210.06435 215.151875 
L 211.872585 214.963982 
z
" style="stroke:#000000;"/>
    <path clip-path="url(#p75fa1fc357)" d="M 201.773425 146.481056 
L 201.200598 156.612562 
L 199.345173 156.523319 
z
" style="stroke:#000000;"/>
    <path clip-path="url(#p75fa1fc357)" d="M 199.345173 197.773678 
L 203.618177 207.664445 
L 201.773425 207.817423 
z
" style="stroke:#000000;"/>
    <path clip-path="url(#p75fa1fc357)" d="M 199.179214 114.901229 
L 190.234559 103.855073 
L 190.234559 108.807144 
z
" style="stroke:#000000;"/>
    <path clip-path="url(#p75fa1fc357)" d="M 216.32757 235.334467 
L 209.408585 226.840919 
L 211.219713 226.597767 
z
" style="stroke:#000000;"/>
    <path clip-path="url(#p75fa1fc357)" d="M 215.874977 130.619443 
L 210.06435 139.151666 
L 211.872585 139.323243 
z
" style="stroke:#000000;"/>
    <path clip-path="url(#p75fa1fc357)" d="M 205.139066 136.759921 
L 203.618177 146.617766 
L 201.773425 146.481056 
z
" style="stroke:#000000;"/>
    <path clip-path="url(#p75fa1fc357)" d="M 203.22701 186.903632 
L 204.605429 177.141406 
L 202.765039 177.149542 
z
" style="stroke:#000000;"/>
    <path clip-path="url(#p75fa1fc357)" d="M 202.765039 177.149542 
L 205.065368 167.433676 
L 203.22701 167.395735 
z
" style="stroke:#000000;"/>
    <path clip-path="url(#p75fa1fc357)" d="M 222.241103 110.834709 
L 226.251 114.770516 
L 220.684029 122.405731 
z
" style="stroke:#000000;"/>
    <path clip-path="url(#p75fa1fc357)" d="M 226.251 239.525443 
L 222.241103 243.458814 
L 220.684029 231.886847 
z
" style="stroke:#000000;"/>
    <path clip-path="url(#p75fa1fc357)" d="M 203.662208 113.612143 
L 190.234559 133.567496 
L 190.234559 143.471637 
z
" style="stroke:#000000;"/>
    <path clip-path="url(#p75fa1fc357)" d="M 204.60824 196.555857 
L 205.065368 186.849414 
L 203.22701 186.903632 
z
" style="stroke:#000000;"/>
    <path clip-path="url(#p75fa1fc357)" d="M 211.872585 214.963982 
L 214.084489 223.899644 
L 215.874977 223.670213 
z
" style="stroke:#000000;"/>
    <path clip-path="url(#p75fa1fc357)" d="M 211.219713 127.689062 
L 214.539092 118.68688 
L 216.32757 118.955465 
z
" style="stroke:#000000;"/>
    <path clip-path="url(#p75fa1fc357)" d="M 201.773425 207.817423 
L 206.969008 217.341594 
L 205.139066 217.540613 
z
" style="stroke:#000000;"/>
    <path clip-path="url(#p75fa1fc357)" d="M 203.22701 167.395735 
L 206.440519 157.827909 
L 204.60824 157.744353 
z
" style="stroke:#000000;"/>
    <path clip-path="url(#p75fa1fc357)" d="M 206.894989 206.005086 
L 206.440519 196.456016 
L 204.60824 196.555857 
z
" style="stroke:#000000;"/>
    <path clip-path="url(#p75fa1fc357)" d="M 227.921424 108.42004 
L 222.241103 110.834709 
L 225.568779 107.127043 
z
" style="stroke:#000000;"/>
    <path clip-path="url(#p75fa1fc357)" d="M 222.241103 243.458814 
L 227.921424 245.876934 
L 225.568779 247.168501 
z
" style="stroke:#000000;"/>
    <path clip-path="url(#p75fa1fc357)" d="M 222.241103 110.834709 
L 227.921424 108.42004 
L 226.251 114.770516 
z
" style="stroke:#000000;"/>
    <path clip-path="url(#p75fa1fc357)" d="M 227.921424 245.876934 
L 222.241103 243.458814 
L 226.251 239.525443 
z
" style="stroke:#000000;"/>
    <path clip-path="url(#p75fa1fc357)" d="M 204.60824 157.744353 
L 208.717197 148.424772 
L 206.894989 148.29652 
z
" style="stroke:#000000;"/>
    <path clip-path="url(#p75fa1fc357)" d="M 209.408585 127.462222 
L 206.969008 136.942653 
L 205.139066 136.759921 
z
" style="stroke:#000000;"/>
    <path clip-path="url(#p75fa1fc357)" d="M 190.234559 133.567496 
L 203.662208 113.612143 
L 199.179214 114.901229 
z
" style="stroke:#000000;"/>
    <path clip-path="url(#p75fa1fc357)" d="M 190.234559 103.855073 
L 199.179214 114.901229 
L 203.662208 113.612143 
z
" style="stroke:#000000;"/>
    <path clip-path="url(#p75fa1fc357)" d="M 220.684029 122.405731 
L 214.084489 130.406351 
L 215.874977 130.619443 
z
" style="stroke:#000000;"/>
    <path clip-path="url(#p75fa1fc357)" d="M 222.241103 243.458814 
L 214.539092 235.619392 
L 216.32757 235.334467 
z
" style="stroke:#000000;"/>
    <path clip-path="url(#p75fa1fc357)" d="M 210.06435 215.151875 
L 208.717197 205.860536 
L 206.894989 206.005086 
z
" style="stroke:#000000;"/>
    <path clip-path="url(#p75fa1fc357)" d="M 205.139066 217.540613 
L 211.219713 226.597767 
L 209.408585 226.840919 
z
" style="stroke:#000000;"/>
    <path clip-path="url(#p75fa1fc357)" d="M 202.765039 177.149542 
L 197.38801 177.147901 
L 197.878508 187.514746 
z
" style="stroke:#000000;"/>
    <path clip-path="url(#p75fa1fc357)" d="M 197.38801 177.147901 
L 202.765039 177.149542 
L 197.878508 166.781355 
z
" style="stroke:#000000;"/>
    <path clip-path="url(#p75fa1fc357)" d="M 215.874977 223.670213 
L 218.914902 232.155583 
L 220.684029 231.886847 
z
" style="stroke:#000000;"/>
    <path clip-path="url(#p75fa1fc357)" d="M 226.251 114.770516 
L 227.921424 108.42004 
L 230.394483 110.16013 
z
" style="stroke:#000000;"/>
    <path clip-path="url(#p75fa1fc357)" d="M 227.921424 245.876934 
L 226.251 239.525443 
L 230.394483 244.138346 
z
" style="stroke:#000000;"/>
    <path clip-path="url(#p75fa1fc357)" d="M 206.894989 148.29652 
L 211.872585 139.323243 
L 210.06435 139.151666 
z
" style="stroke:#000000;"/>
    <path clip-path="url(#p75fa1fc357)" d="M 203.22701 186.903632 
L 197.878508 187.514746 
L 199.345173 197.773678 
z
" style="stroke:#000000;"/>
    <path clip-path="url(#p75fa1fc357)" d="M 197.878508 166.781355 
L 203.22701 167.395735 
L 199.345173 156.523319 
z
" style="stroke:#000000;"/>
    <path clip-path="url(#p75fa1fc357)" d="M 216.32757 118.955465 
L 220.4789 110.527179 
L 222.241103 110.834709 
z
" style="stroke:#000000;"/>
    <path clip-path="url(#p75fa1fc357)" d="M 203.22701 167.395735 
L 197.878508 166.781355 
L 202.765039 177.149542 
z
" style="stroke:#000000;"/>
    <path clip-path="url(#p75fa1fc357)" d="M 197.878508 187.514746 
L 203.22701 186.903632 
L 202.765039 177.149542 
z
" style="stroke:#000000;"/>
    <path clip-path="url(#p75fa1fc357)" d="M 204.60824 196.555857 
L 199.345173 197.773678 
L 201.773425 207.817423 
z
" style="stroke:#000000;"/>
    <path clip-path="url(#p75fa1fc357)" d="M 199.345173 156.523319 
L 204.60824 157.744353 
L 201.773425 146.481056 
z
" style="stroke:#000000;"/>
    <path clip-path="url(#p75fa1fc357)" d="M 214.539092 118.68688 
L 211.219713 127.689062 
L 209.408585 127.462222 
z
" style="stroke:#000000;"/>
    <path clip-path="url(#p75fa1fc357)" d="M 199.345173 197.773678 
L 204.60824 196.555857 
L 203.22701 186.903632 
z
" style="stroke:#000000;"/>
    <path clip-path="url(#p75fa1fc357)" d="M 204.60824 157.744353 
L 199.345173 156.523319 
L 203.22701 167.395735 
z
" style="stroke:#000000;"/>
    <path clip-path="url(#p75fa1fc357)" d="M 214.084489 223.899644 
L 211.872585 214.963982 
L 210.06435 215.151875 
z
" style="stroke:#000000;"/>
    <path clip-path="url(#p75fa1fc357)" d="M 226.251 114.770516 
L 218.914902 122.153361 
L 220.684029 122.405731 
z
" style="stroke:#000000;"/>
    <path clip-path="url(#p75fa1fc357)" d="M 225.568779 247.168501 
L 220.4789 243.78272 
L 222.241103 243.458814 
z
" style="stroke:#000000;"/>
    <path clip-path="url(#p75fa1fc357)" d="M 210.06435 139.151666 
L 215.874977 130.619443 
L 214.084489 130.406351 
z
" style="stroke:#000000;"/>
    <path clip-path="url(#p75fa1fc357)" d="M 209.408585 226.840919 
L 216.32757 235.334467 
L 214.539092 235.619392 
z
" style="stroke:#000000;"/>
    <path clip-path="url(#p75fa1fc357)" d="M 201.773425 207.817423 
L 206.894989 206.005086 
L 204.60824 196.555857 
z
" style="stroke:#000000;"/>
    <path clip-path="url(#p75fa1fc357)" d="M 206.894989 148.29652 
L 201.773425 146.481056 
L 204.60824 157.744353 
z
" style="stroke:#000000;"/>
    <path clip-path="url(#p75fa1fc357)" d="M 206.894989 206.005086 
L 201.773425 207.817423 
L 205.139066 217.540613 
z
" style="stroke:#000000;"/>
    <path clip-path="url(#p75fa1fc357)" d="M 201.773425 146.481056 
L 206.894989 148.29652 
L 205.139066 136.759921 
z
" style="stroke:#000000;"/>
    <path clip-path="url(#p75fa1fc357)" d="M 220.684029 231.886847 
L 224.506648 239.830839 
L 226.251 239.525443 
z
" style="stroke:#000000;"/>
    <path clip-path="url(#p75fa1fc357)" d="M 222.241103 110.834709 
L 223.821388 106.801669 
L 225.568779 107.127043 
z
" style="stroke:#000000;"/>
    <path clip-path="url(#p75fa1fc357)" d="M 223.821388 106.801669 
L 227.921424 108.42004 
L 225.568779 107.127043 
z
" style="stroke:#000000;"/>
    <path clip-path="url(#p75fa1fc357)" d="M 218.914902 232.155583 
L 215.874977 223.670213 
L 214.084489 223.899644 
z
" style="stroke:#000000;"/>
    <path clip-path="url(#p75fa1fc357)" d="M 205.139066 217.540613 
L 210.06435 215.151875 
L 206.894989 206.005086 
z
" style="stroke:#000000;"/>
    <path clip-path="url(#p75fa1fc357)" d="M 210.06435 139.151666 
L 205.139066 136.759921 
L 206.894989 148.29652 
z
" style="stroke:#000000;"/>
    <path clip-path="url(#p75fa1fc357)" d="M 226.184517 246.212691 
L 225.568779 247.168501 
L 227.921424 245.876934 
z
" style="stroke:#000000;"/>
    <path clip-path="url(#p75fa1fc357)" d="M 220.4789 110.527179 
L 216.32757 118.955465 
L 214.539092 118.68688 
z
" style="stroke:#000000;"/>
    <path clip-path="url(#p75fa1fc357)" d="M 224.506648 239.830839 
L 230.394483 244.138346 
L 226.251 239.525443 
z
" style="stroke:#000000;"/>
    <path clip-path="url(#p75fa1fc357)" d="M 210.06435 215.151875 
L 205.139066 217.540613 
L 209.408585 226.840919 
z
" style="stroke:#000000;"/>
    <path clip-path="url(#p75fa1fc357)" d="M 205.139066 136.759921 
L 210.06435 139.151666 
L 209.408585 127.462222 
z
" style="stroke:#000000;"/>
    <path clip-path="url(#p75fa1fc357)" d="M 214.084489 130.406351 
L 220.684029 122.405731 
L 218.914902 122.153361 
z
" style="stroke:#000000;"/>
    <path clip-path="url(#p75fa1fc357)" d="M 226.184517 108.100692 
L 230.394483 110.16013 
L 227.921424 108.42004 
z
" style="stroke:#000000;"/>
    <path clip-path="url(#p75fa1fc357)" d="M 228.668606 109.848938 
L 226.251 114.770516 
L 230.394483 110.16013 
z
" style="stroke:#000000;"/>
    <path clip-path="url(#p75fa1fc357)" d="M 214.539092 235.619392 
L 222.241103 243.458814 
L 220.4789 243.78272 
z
" style="stroke:#000000;"/>
    <path clip-path="url(#p75fa1fc357)" d="M 228.668606 244.465961 
L 227.921424 245.876934 
L 230.394483 244.138346 
z
" style="stroke:#000000;"/>
    <path clip-path="url(#p75fa1fc357)" d="M 209.408585 226.840919 
L 214.084489 223.899644 
L 210.06435 215.151875 
z
" style="stroke:#000000;"/>
    <path clip-path="url(#p75fa1fc357)" d="M 214.084489 130.406351 
L 209.408585 127.462222 
L 210.06435 139.151666 
z
" style="stroke:#000000;"/>
    <path clip-path="url(#p75fa1fc357)" d="M 224.506648 239.830839 
L 220.684029 231.886847 
L 218.914902 232.155583 
z
" style="stroke:#000000;"/>
    <path clip-path="url(#p75fa1fc357)" d="M 223.821388 106.801669 
L 222.241103 110.834709 
L 220.4789 110.527179 
z
" style="stroke:#000000;"/>
    <path clip-path="url(#p75fa1fc357)" d="M 214.539092 235.619392 
L 214.084489 223.899644 
L 209.408585 226.840919 
z
" style="stroke:#000000;"/>
    <path clip-path="url(#p75fa1fc357)" d="M 214.084489 130.406351 
L 214.539092 118.68688 
L 209.408585 127.462222 
z
" style="stroke:#000000;"/>
    <path clip-path="url(#p75fa1fc357)" d="M 218.914902 122.153361 
L 226.251 114.770516 
L 224.506648 114.481519 
z
" style="stroke:#000000;"/>
    <path clip-path="url(#p75fa1fc357)" d="M 220.4789 243.78272 
L 225.568779 247.168501 
L 223.821388 247.510271 
z
" style="stroke:#000000;"/>
    <path clip-path="url(#p75fa1fc357)" d="M 225.568779 247.168501 
L 226.184517 246.212691 
L 223.821388 247.510271 
z
" style="stroke:#000000;"/>
    <path clip-path="url(#p75fa1fc357)" d="M 214.539092 235.619392 
L 218.914902 232.155583 
L 214.084489 223.899644 
z
" style="stroke:#000000;"/>
    <path clip-path="url(#p75fa1fc357)" d="M 218.914902 122.153361 
L 214.539092 118.68688 
L 214.084489 130.406351 
z
" style="stroke:#000000;"/>
    <path clip-path="url(#p75fa1fc357)" d="M 227.921424 108.42004 
L 223.821388 106.801669 
L 226.184517 108.100692 
z
" style="stroke:#000000;"/>
    <path clip-path="url(#p75fa1fc357)" d="M 226.251 114.770516 
L 228.668606 109.848938 
L 224.506648 114.481519 
z
" style="stroke:#000000;"/>
    <path clip-path="url(#p75fa1fc357)" d="M 220.4789 243.78272 
L 218.914902 232.155583 
L 214.539092 235.619392 
z
" style="stroke:#000000;"/>
    <path clip-path="url(#p75fa1fc357)" d="M 218.914902 122.153361 
L 220.4789 110.527179 
L 214.539092 118.68688 
z
" style="stroke:#000000;"/>
    <path clip-path="url(#p75fa1fc357)" d="M 227.921424 245.876934 
L 228.668606 244.465961 
L 226.184517 246.212691 
z
" style="stroke:#000000;"/>
    <path clip-path="url(#p75fa1fc357)" d="M 230.394483 244.138346 
L 224.506648 239.830839 
L 228.668606 244.465961 
z
" style="stroke:#000000;"/>
    <path clip-path="url(#p75fa1fc357)" d="M 230.394483 110.16013 
L 226.184517 108.100692 
L 228.668606 109.848938 
z
" style="stroke:#000000;"/>
    <path clip-path="url(#p75fa1fc357)" d="M 220.4789 243.78272 
L 224.506648 239.830839 
L 218.914902 232.155583 
z
" style="stroke:#000000;"/>
    <path clip-path="url(#p75fa1fc357)" d="M 224.506648 114.481519 
L 220.4789 110.527179 
L 218.914902 122.153361 
z
" style="stroke:#000000;"/>
    <path clip-path="url(#p75fa1fc357)" d="M 226.184517 246.212691 
L 220.4789 243.78272 
L 223.821388 247.510271 
z
" style="stroke:#000000;"/>
    <path clip-path="url(#p75fa1fc357)" d="M 220.4789 110.527179 
L 226.184517 108.100692 
L 223.821388 106.801669 
z
" style="stroke:#000000;"/>
    <path clip-path="url(#p75fa1fc357)" d="M 220.4789 243.78272 
L 226.184517 246.212691 
L 224.506648 239.830839 
z
" style="stroke:#000000;"/>
    <path clip-path="url(#p75fa1fc357)" d="M 226.184517 108.100692 
L 220.4789 110.527179 
L 224.506648 114.481519 
z
" style="stroke:#000000;"/>
    <path clip-path="url(#p75fa1fc357)" d="M 224.506648 239.830839 
L 226.184517 246.212691 
L 228.668606 244.465961 
z
" style="stroke:#000000;"/>
    <path clip-path="url(#p75fa1fc357)" d="M 226.184517 108.100692 
L 224.506648 114.481519 
L 228.668606 109.848938 
z
" style="stroke:#000000;"/>
   </g>
  </g>
 </g>
 <defs>
  <clipPath id="p75fa1fc357">
   <rect height="271.8" width="279" x="45" y="43.2"/>
  </clipPath>
 </defs>
</svg>
