<?xml version="1.0" encoding="utf-8" standalone="no"?>
<!DOCTYPE svg PUBLIC "-//W3C//DTD SVG 1.1//EN"
  "http://www.w3.org/Graphics/SVG/1.1/DTD/svg11.dtd">
<!-- Created with matplotlib (https://matplotlib.org/) -->
<svg height="360pt" version="1.1" viewBox="0 0 360 360" width="360pt" xmlns="http://www.w3.org/2000/svg" xmlns:xlink="http://www.w3.org/1999/xlink">
 <defs>
  <style type="text/css">
*{stroke-linecap:butt;stroke-linejoin:round;}
  </style>
 </defs>
 <g id="figure_1">
  <g id="patch_1">
   <path d="M 45 315 
L 324 315 
L 324 43.2 
L 45 43.2 
z
" style="fill:#ffffff;"/>
  </g>
  <g id="axes_1">
   <g id="Poly3DCollection_1">
    <path clip-path="url(#p03ed501776)" d="M 169.992005 109.842713 
L 171.167373 115.994005 
L 168.256543 111.648099 
z
" style="stroke:#000000;"/>
    <path clip-path="url(#p03ed501776)" d="M 171.167373 238.232529 
L 169.992005 244.381162 
L 168.256543 242.57185 
z
" style="stroke:#000000;"/>
    <path clip-path="url(#p03ed501776)" d="M 163.051442 111.430855 
L 169.992005 109.842713 
L 168.256543 111.648099 
z
" style="stroke:#000000;"/>
    <path clip-path="url(#p03ed501776)" d="M 163.051442 242.800559 
L 171.167373 238.232529 
L 168.256543 242.57185 
z
" style="stroke:#000000;"/>
    <path clip-path="url(#p03ed501776)" d="M 164.786732 244.616309 
L 168.256543 242.57185 
L 169.992005 244.381162 
z
" style="stroke:#000000;"/>
    <path clip-path="url(#p03ed501776)" d="M 169.992005 109.842713 
L 173.999302 111.972472 
L 171.167373 115.994005 
z
" style="stroke:#000000;"/>
    <path clip-path="url(#p03ed501776)" d="M 173.999302 242.260466 
L 169.992005 244.381162 
L 171.167373 238.232529 
z
" style="stroke:#000000;"/>
    <path clip-path="url(#p03ed501776)" d="M 173.999302 111.972472 
L 169.992005 109.842713 
L 171.648141 108.475067 
z
" style="stroke:#000000;"/>
    <path clip-path="url(#p03ed501776)" d="M 169.992005 244.381162 
L 173.999302 242.260466 
L 171.648141 245.752554 
z
" style="stroke:#000000;"/>
    <path clip-path="url(#p03ed501776)" d="M 165.96199 115.791166 
L 168.256543 111.648099 
L 171.167373 115.994005 
z
" style="stroke:#000000;"/>
    <path clip-path="url(#p03ed501776)" d="M 168.256543 242.57185 
L 164.786732 244.616309 
L 163.051442 242.800559 
z
" style="stroke:#000000;"/>
    <path clip-path="url(#p03ed501776)" d="M 164.786732 109.619058 
L 171.648141 108.475067 
L 169.992005 109.842713 
z
" style="stroke:#000000;"/>
    <path clip-path="url(#p03ed501776)" d="M 168.256543 111.648099 
L 165.96199 115.791166 
L 163.051442 111.430855 
z
" style="stroke:#000000;"/>
    <path clip-path="url(#p03ed501776)" d="M 166.442715 245.992645 
L 169.992005 244.381162 
L 171.648141 245.752554 
z
" style="stroke:#000000;"/>
    <path clip-path="url(#p03ed501776)" d="M 169.992005 109.842713 
L 163.051442 111.430855 
L 164.786732 109.619058 
z
" style="stroke:#000000;"/>
    <path clip-path="url(#p03ed501776)" d="M 173.999302 111.972472 
L 175.102948 123.286856 
L 171.167373 115.994005 
z
" style="stroke:#000000;"/>
    <path clip-path="url(#p03ed501776)" d="M 175.102948 230.948579 
L 173.999302 242.260466 
L 171.167373 238.232529 
z
" style="stroke:#000000;"/>
    <path clip-path="url(#p03ed501776)" d="M 171.167373 238.232529 
L 163.051442 242.800559 
L 165.96199 238.446877 
z
" style="stroke:#000000;"/>
    <path clip-path="url(#p03ed501776)" d="M 169.992005 244.381162 
L 166.442715 245.992645 
L 164.786732 244.616309 
z
" style="stroke:#000000;"/>
    <path clip-path="url(#p03ed501776)" d="M 173.999302 242.260466 
L 166.442715 245.992645 
L 171.648141 245.752554 
z
" style="stroke:#000000;"/>
    <path clip-path="url(#p03ed501776)" d="M 175.102948 123.286856 
L 165.96199 115.791166 
L 171.167373 115.994005 
z
" style="stroke:#000000;"/>
    <path clip-path="url(#p03ed501776)" d="M 171.648141 108.475067 
L 164.786732 109.619058 
L 166.442715 108.246493 
z
" style="stroke:#000000;"/>
    <path clip-path="url(#p03ed501776)" d="M 164.786732 244.616309 
L 165.96199 238.446877 
L 163.051442 242.800559 
z
" style="stroke:#000000;"/>
    <path clip-path="url(#p03ed501776)" d="M 165.96199 115.791166 
L 164.786732 109.619058 
L 163.051442 111.430855 
z
" style="stroke:#000000;"/>
    <path clip-path="url(#p03ed501776)" d="M 171.648141 108.475067 
L 168.793681 111.755496 
L 173.999302 111.972472 
z
" style="stroke:#000000;"/>
    <path clip-path="url(#p03ed501776)" d="M 171.167373 238.232529 
L 169.897245 231.13857 
L 175.102948 230.948579 
z
" style="stroke:#000000;"/>
    <path clip-path="url(#p03ed501776)" d="M 178.20271 119.73592 
L 175.102948 123.286856 
L 173.999302 111.972472 
z
" style="stroke:#000000;"/>
    <path clip-path="url(#p03ed501776)" d="M 175.102948 230.948579 
L 178.20271 234.506526 
L 173.999302 242.260466 
z
" style="stroke:#000000;"/>
    <path clip-path="url(#p03ed501776)" d="M 168.793681 111.755496 
L 171.648141 108.475067 
L 166.442715 108.246493 
z
" style="stroke:#000000;"/>
    <path clip-path="url(#p03ed501776)" d="M 169.897245 231.13857 
L 171.167373 238.232529 
L 165.96199 238.446877 
z
" style="stroke:#000000;"/>
    <path clip-path="url(#p03ed501776)" d="M 166.442715 245.992645 
L 173.999302 242.260466 
L 168.793681 242.488997 
z
" style="stroke:#000000;"/>
    <path clip-path="url(#p03ed501776)" d="M 164.786732 244.616309 
L 168.793681 242.488997 
L 165.96199 238.446877 
z
" style="stroke:#000000;"/>
    <path clip-path="url(#p03ed501776)" d="M 168.793681 111.755496 
L 164.786732 109.619058 
L 165.96199 115.791166 
z
" style="stroke:#000000;"/>
    <path clip-path="url(#p03ed501776)" d="M 168.793681 242.488997 
L 164.786732 244.616309 
L 166.442715 245.992645 
z
" style="stroke:#000000;"/>
    <path clip-path="url(#p03ed501776)" d="M 164.786732 109.619058 
L 168.793681 111.755496 
L 166.442715 108.246493 
z
" style="stroke:#000000;"/>
    <path clip-path="url(#p03ed501776)" d="M 178.20271 234.506526 
L 168.793681 242.488997 
L 173.999302 242.260466 
z
" style="stroke:#000000;"/>
    <path clip-path="url(#p03ed501776)" d="M 165.96199 115.791166 
L 175.102948 123.286856 
L 169.897245 123.108436 
z
" style="stroke:#000000;"/>
    <path clip-path="url(#p03ed501776)" d="M 178.20271 119.73592 
L 178.525757 131.225633 
L 175.102948 123.286856 
z
" style="stroke:#000000;"/>
    <path clip-path="url(#p03ed501776)" d="M 178.525757 223.017544 
L 178.20271 234.506526 
L 175.102948 230.948579 
z
" style="stroke:#000000;"/>
    <path clip-path="url(#p03ed501776)" d="M 178.525757 131.225633 
L 169.897245 123.108436 
L 175.102948 123.286856 
z
" style="stroke:#000000;"/>
    <path clip-path="url(#p03ed501776)" d="M 173.999302 111.972472 
L 172.996806 119.544952 
L 178.20271 119.73592 
z
" style="stroke:#000000;"/>
    <path clip-path="url(#p03ed501776)" d="M 168.793681 242.488997 
L 169.897245 231.13857 
L 165.96199 238.446877 
z
" style="stroke:#000000;"/>
    <path clip-path="url(#p03ed501776)" d="M 169.897245 123.108436 
L 168.793681 111.755496 
L 165.96199 115.791166 
z
" style="stroke:#000000;"/>
    <path clip-path="url(#p03ed501776)" d="M 172.996806 119.544952 
L 173.999302 111.972472 
L 168.793681 111.755496 
z
" style="stroke:#000000;"/>
    <path clip-path="url(#p03ed501776)" d="M 175.102948 230.948579 
L 173.319834 223.18077 
L 178.525757 223.017544 
z
" style="stroke:#000000;"/>
    <path clip-path="url(#p03ed501776)" d="M 181.859659 128.191236 
L 178.525757 131.225633 
L 178.20271 119.73592 
z
" style="stroke:#000000;"/>
    <path clip-path="url(#p03ed501776)" d="M 178.525757 223.017544 
L 181.859659 226.059482 
L 178.20271 234.506526 
z
" style="stroke:#000000;"/>
    <path clip-path="url(#p03ed501776)" d="M 173.319834 223.18077 
L 175.102948 230.948579 
L 169.897245 231.13857 
z
" style="stroke:#000000;"/>
    <path clip-path="url(#p03ed501776)" d="M 168.793681 242.488997 
L 178.20271 234.506526 
L 172.996806 234.709113 
z
" style="stroke:#000000;"/>
    <path clip-path="url(#p03ed501776)" d="M 178.525757 131.225633 
L 181.859659 128.191236 
L 181.390873 139.71831 
z
" style="stroke:#000000;"/>
    <path clip-path="url(#p03ed501776)" d="M 181.859659 226.059482 
L 178.525757 223.017544 
L 181.390873 214.531348 
z
" style="stroke:#000000;"/>
    <path clip-path="url(#p03ed501776)" d="M 169.897245 123.108436 
L 178.525757 131.225633 
L 173.319834 131.074031 
z
" style="stroke:#000000;"/>
    <path clip-path="url(#p03ed501776)" d="M 172.996806 234.709113 
L 169.897245 231.13857 
L 168.793681 242.488997 
z
" style="stroke:#000000;"/>
    <path clip-path="url(#p03ed501776)" d="M 169.897245 123.108436 
L 172.996806 119.544952 
L 168.793681 111.755496 
z
" style="stroke:#000000;"/>
    <path clip-path="url(#p03ed501776)" d="M 181.859659 226.059482 
L 172.996806 234.709113 
L 178.20271 234.506526 
z
" style="stroke:#000000;"/>
    <path clip-path="url(#p03ed501776)" d="M 181.390873 139.71831 
L 173.319834 131.074031 
L 178.525757 131.225633 
z
" style="stroke:#000000;"/>
    <path clip-path="url(#p03ed501776)" d="M 178.525757 223.017544 
L 176.184807 214.665725 
L 181.390873 214.531348 
z
" style="stroke:#000000;"/>
    <path clip-path="url(#p03ed501776)" d="M 178.20271 119.73592 
L 176.653573 128.028865 
L 181.859659 128.191236 
z
" style="stroke:#000000;"/>
    <path clip-path="url(#p03ed501776)" d="M 172.996806 234.709113 
L 173.319834 223.18077 
L 169.897245 231.13857 
z
" style="stroke:#000000;"/>
    <path clip-path="url(#p03ed501776)" d="M 173.319834 131.074031 
L 172.996806 119.544952 
L 169.897245 123.108436 
z
" style="stroke:#000000;"/>
    <path clip-path="url(#p03ed501776)" d="M 184.921648 137.241118 
L 181.390873 139.71831 
L 181.859659 128.191236 
z
" style="stroke:#000000;"/>
    <path clip-path="url(#p03ed501776)" d="M 181.390873 214.531348 
L 184.921648 217.016526 
L 181.859659 226.059482 
z
" style="stroke:#000000;"/>
    <path clip-path="url(#p03ed501776)" d="M 176.653573 128.028865 
L 178.20271 119.73592 
L 172.996806 119.544952 
z
" style="stroke:#000000;"/>
    <path clip-path="url(#p03ed501776)" d="M 176.184807 214.665725 
L 178.525757 223.017544 
L 173.319834 223.18077 
z
" style="stroke:#000000;"/>
    <path clip-path="url(#p03ed501776)" d="M 181.390873 139.71831 
L 184.921648 137.241118 
L 183.660273 148.664932 
z
" style="stroke:#000000;"/>
    <path clip-path="url(#p03ed501776)" d="M 184.921648 217.016526 
L 181.390873 214.531348 
L 183.660273 205.589859 
z
" style="stroke:#000000;"/>
    <path clip-path="url(#p03ed501776)" d="M 183.660273 148.664932 
L 176.184807 139.595602 
L 181.390873 139.71831 
z
" style="stroke:#000000;"/>
    <path clip-path="url(#p03ed501776)" d="M 173.319834 131.074031 
L 181.390873 139.71831 
L 176.184807 139.595602 
z
" style="stroke:#000000;"/>
    <path clip-path="url(#p03ed501776)" d="M 172.996806 234.709113 
L 181.859659 226.059482 
L 176.653573 226.233529 
z
" style="stroke:#000000;"/>
    <path clip-path="url(#p03ed501776)" d="M 184.921648 217.016526 
L 176.653573 226.233529 
L 181.859659 226.059482 
z
" style="stroke:#000000;"/>
    <path clip-path="url(#p03ed501776)" d="M 181.390873 214.531348 
L 178.45412 205.693667 
L 183.660273 205.589859 
z
" style="stroke:#000000;"/>
    <path clip-path="url(#p03ed501776)" d="M 176.653573 226.233529 
L 173.319834 223.18077 
L 172.996806 234.709113 
z
" style="stroke:#000000;"/>
    <path clip-path="url(#p03ed501776)" d="M 173.319834 131.074031 
L 176.653573 128.028865 
L 172.996806 119.544952 
z
" style="stroke:#000000;"/>
    <path clip-path="url(#p03ed501776)" d="M 187.347498 146.778113 
L 183.660273 148.664932 
L 184.921648 137.241118 
z
" style="stroke:#000000;"/>
    <path clip-path="url(#p03ed501776)" d="M 183.660273 205.589859 
L 187.347498 207.485018 
L 184.921648 217.016526 
z
" style="stroke:#000000;"/>
    <path clip-path="url(#p03ed501776)" d="M 183.660273 148.664932 
L 187.347498 146.778113 
L 185.30354 157.958332 
z
" style="stroke:#000000;"/>
    <path clip-path="url(#p03ed501776)" d="M 187.347498 207.485018 
L 183.660273 205.589859 
L 185.30354 196.300175 
z
" style="stroke:#000000;"/>
    <path clip-path="url(#p03ed501776)" d="M 178.45412 205.693667 
L 181.390873 214.531348 
L 176.184807 214.665725 
z
" style="stroke:#000000;"/>
    <path clip-path="url(#p03ed501776)" d="M 181.859659 128.191236 
L 179.715457 137.109587 
L 184.921648 137.241118 
z
" style="stroke:#000000;"/>
    <path clip-path="url(#p03ed501776)" d="M 173.319834 223.18077 
L 176.653573 226.233529 
L 176.184807 214.665725 
z
" style="stroke:#000000;"/>
    <path clip-path="url(#p03ed501776)" d="M 176.653573 128.028865 
L 173.319834 131.074031 
L 176.184807 139.595602 
z
" style="stroke:#000000;"/>
    <path clip-path="url(#p03ed501776)" d="M 185.30354 157.958332 
L 178.45412 148.572828 
L 183.660273 148.664932 
z
" style="stroke:#000000;"/>
    <path clip-path="url(#p03ed501776)" d="M 179.715457 137.109587 
L 181.859659 128.191236 
L 176.653573 128.028865 
z
" style="stroke:#000000;"/>
    <path clip-path="url(#p03ed501776)" d="M 176.184807 139.595602 
L 183.660273 148.664932 
L 178.45412 148.572828 
z
" style="stroke:#000000;"/>
    <path clip-path="url(#p03ed501776)" d="M 183.660273 205.589859 
L 180.097339 196.372091 
L 185.30354 196.300175 
z
" style="stroke:#000000;"/>
    <path clip-path="url(#p03ed501776)" d="M 185.30354 157.958332 
L 189.104375 156.687443 
L 186.298485 167.485734 
z
" style="stroke:#000000;"/>
    <path clip-path="url(#p03ed501776)" d="M 189.104375 197.579662 
L 185.30354 196.300175 
L 186.298485 186.775024 
z
" style="stroke:#000000;"/>
    <path clip-path="url(#p03ed501776)" d="M 189.104375 156.687443 
L 185.30354 157.958332 
L 187.347498 146.778113 
z
" style="stroke:#000000;"/>
    <path clip-path="url(#p03ed501776)" d="M 185.30354 196.300175 
L 189.104375 197.579662 
L 187.347498 207.485018 
z
" style="stroke:#000000;"/>
    <path clip-path="url(#p03ed501776)" d="M 176.653573 226.233529 
L 184.921648 217.016526 
L 179.715457 217.159781 
z
" style="stroke:#000000;"/>
    <path clip-path="url(#p03ed501776)" d="M 186.298485 167.485734 
L 180.097339 157.898146 
L 185.30354 157.958332 
z
" style="stroke:#000000;"/>
    <path clip-path="url(#p03ed501776)" d="M 187.347498 207.485018 
L 179.715457 217.159781 
L 184.921648 217.016526 
z
" style="stroke:#000000;"/>
    <path clip-path="url(#p03ed501776)" d="M 180.097339 196.372091 
L 183.660273 205.589859 
L 178.45412 205.693667 
z
" style="stroke:#000000;"/>
    <path clip-path="url(#p03ed501776)" d="M 185.30354 196.300175 
L 181.092261 186.814148 
L 186.298485 186.775024 
z
" style="stroke:#000000;"/>
    <path clip-path="url(#p03ed501776)" d="M 190.16825 187.421367 
L 186.298485 186.775024 
L 186.63166 177.130756 
z
" style="stroke:#000000;"/>
    <path clip-path="url(#p03ed501776)" d="M 186.298485 167.485734 
L 190.16825 166.848144 
L 186.63166 177.130756 
z
" style="stroke:#000000;"/>
    <path clip-path="url(#p03ed501776)" d="M 179.715457 217.159781 
L 176.184807 214.665725 
L 176.653573 226.233529 
z
" style="stroke:#000000;"/>
    <path clip-path="url(#p03ed501776)" d="M 176.184807 139.595602 
L 179.715457 137.109587 
L 176.653573 128.028865 
z
" style="stroke:#000000;"/>
    <path clip-path="url(#p03ed501776)" d="M 186.63166 177.130756 
L 181.092261 167.458356 
L 186.298485 167.485734 
z
" style="stroke:#000000;"/>
    <path clip-path="url(#p03ed501776)" d="M 178.45412 148.572828 
L 185.30354 157.958332 
L 180.097339 157.898146 
z
" style="stroke:#000000;"/>
    <path clip-path="url(#p03ed501776)" d="M 186.298485 186.775024 
L 181.425429 177.136631 
L 186.63166 177.130756 
z
" style="stroke:#000000;"/>
    <path clip-path="url(#p03ed501776)" d="M 184.921648 137.241118 
L 182.141254 146.679272 
L 187.347498 146.778113 
z
" style="stroke:#000000;"/>
    <path clip-path="url(#p03ed501776)" d="M 176.184807 214.665725 
L 179.715457 217.159781 
L 178.45412 205.693667 
z
" style="stroke:#000000;"/>
    <path clip-path="url(#p03ed501776)" d="M 179.715457 137.109587 
L 176.184807 139.595602 
L 178.45412 148.572828 
z
" style="stroke:#000000;"/>
    <path clip-path="url(#p03ed501776)" d="M 190.16825 166.848144 
L 186.298485 167.485734 
L 189.104375 156.687443 
z
" style="stroke:#000000;"/>
    <path clip-path="url(#p03ed501776)" d="M 186.298485 186.775024 
L 190.16825 187.421367 
L 189.104375 197.579662 
z
" style="stroke:#000000;"/>
    <path clip-path="url(#p03ed501776)" d="M 181.092261 186.814148 
L 185.30354 196.300175 
L 180.097339 196.372091 
z
" style="stroke:#000000;"/>
    <path clip-path="url(#p03ed501776)" d="M 190.524501 177.135158 
L 186.63166 177.130756 
L 190.16825 166.848144 
z
" style="stroke:#000000;"/>
    <path clip-path="url(#p03ed501776)" d="M 186.63166 177.130756 
L 190.524501 177.135158 
L 190.16825 187.421367 
z
" style="stroke:#000000;"/>
    <path clip-path="url(#p03ed501776)" d="M 182.141254 146.679272 
L 184.921648 137.241118 
L 179.715457 137.109587 
z
" style="stroke:#000000;"/>
    <path clip-path="url(#p03ed501776)" d="M 180.097339 157.898146 
L 186.298485 167.485734 
L 181.092261 167.458356 
z
" style="stroke:#000000;"/>
    <path clip-path="url(#p03ed501776)" d="M 189.104375 197.579662 
L 182.141254 207.59562 
L 187.347498 207.485018 
z
" style="stroke:#000000;"/>
    <path clip-path="url(#p03ed501776)" d="M 181.425429 177.136631 
L 186.298485 186.775024 
L 181.092261 186.814148 
z
" style="stroke:#000000;"/>
    <path clip-path="url(#p03ed501776)" d="M 181.092261 167.458356 
L 186.63166 177.130756 
L 181.425429 177.136631 
z
" style="stroke:#000000;"/>
    <path clip-path="url(#p03ed501776)" d="M 179.715457 217.159781 
L 187.347498 207.485018 
L 182.141254 207.59562 
z
" style="stroke:#000000;"/>
    <path clip-path="url(#p03ed501776)" d="M 187.347498 146.778113 
L 183.89811 156.622714 
L 189.104375 156.687443 
z
" style="stroke:#000000;"/>
    <path clip-path="url(#p03ed501776)" d="M 195.74636 104.048847 
L 189.224654 115.420171 
L 185.984803 114.322288 
z
" style="stroke:#000000;"/>
    <path clip-path="url(#p03ed501776)" d="M 195.74636 133.680827 
L 185.984803 114.322288 
L 189.224654 115.420171 
z
" style="stroke:#000000;"/>
    <path clip-path="url(#p03ed501776)" d="M 182.141254 207.59562 
L 178.45412 205.693667 
L 179.715457 217.159781 
z
" style="stroke:#000000;"/>
    <path clip-path="url(#p03ed501776)" d="M 178.45412 148.572828 
L 182.141254 146.679272 
L 179.715457 137.109587 
z
" style="stroke:#000000;"/>
    <path clip-path="url(#p03ed501776)" d="M 178.45412 205.693667 
L 182.141254 207.59562 
L 180.097339 196.372091 
z
" style="stroke:#000000;"/>
    <path clip-path="url(#p03ed501776)" d="M 182.141254 146.679272 
L 178.45412 148.572828 
L 180.097339 157.898146 
z
" style="stroke:#000000;"/>
    <path clip-path="url(#p03ed501776)" d="M 180.778586 114.111664 
L 195.74636 104.048847 
L 185.984803 114.322288 
z
" style="stroke:#000000;"/>
    <path clip-path="url(#p03ed501776)" d="M 195.74636 143.558153 
L 180.778586 114.111664 
L 185.984803 114.322288 
z
" style="stroke:#000000;"/>
    <path clip-path="url(#p03ed501776)" d="M 190.16825 187.421367 
L 183.89811 197.656179 
L 189.104375 197.579662 
z
" style="stroke:#000000;"/>
    <path clip-path="url(#p03ed501776)" d="M 183.89811 156.622714 
L 187.347498 146.778113 
L 182.141254 146.679272 
z
" style="stroke:#000000;"/>
    <path clip-path="url(#p03ed501776)" d="M 189.104375 156.687443 
L 184.961979 166.818491 
L 190.16825 166.848144 
z
" style="stroke:#000000;"/>
    <path clip-path="url(#p03ed501776)" d="M 182.141254 207.59562 
L 189.104375 197.579662 
L 183.89811 197.656179 
z
" style="stroke:#000000;"/>
    <path clip-path="url(#p03ed501776)" d="M 190.524501 177.135158 
L 184.961979 187.462826 
L 190.16825 187.421367 
z
" style="stroke:#000000;"/>
    <path clip-path="url(#p03ed501776)" d="M 180.097339 196.372091 
L 183.89811 197.656179 
L 181.092261 186.814148 
z
" style="stroke:#000000;"/>
    <path clip-path="url(#p03ed501776)" d="M 183.89811 156.622714 
L 180.097339 157.898146 
L 181.092261 167.458356 
z
" style="stroke:#000000;"/>
    <path clip-path="url(#p03ed501776)" d="M 190.16825 166.848144 
L 185.318229 177.141064 
L 190.524501 177.135158 
z
" style="stroke:#000000;"/>
    <path clip-path="url(#p03ed501776)" d="M 183.89811 197.656179 
L 180.097339 196.372091 
L 182.141254 207.59562 
z
" style="stroke:#000000;"/>
    <path clip-path="url(#p03ed501776)" d="M 180.097339 157.898146 
L 183.89811 156.622714 
L 182.141254 146.679272 
z
" style="stroke:#000000;"/>
    <path clip-path="url(#p03ed501776)" d="M 195.74636 133.680827 
L 195.74636 143.558153 
L 185.984803 114.322288 
z
" style="stroke:#000000;"/>
    <path clip-path="url(#p03ed501776)" d="M 184.961979 166.818491 
L 181.092261 167.458356 
L 181.425429 177.136631 
z
" style="stroke:#000000;"/>
    <path clip-path="url(#p03ed501776)" d="M 181.092261 186.814148 
L 184.961979 187.462826 
L 181.425429 177.136631 
z
" style="stroke:#000000;"/>
    <path clip-path="url(#p03ed501776)" d="M 184.961979 166.818491 
L 189.104375 156.687443 
L 183.89811 156.622714 
z
" style="stroke:#000000;"/>
    <path clip-path="url(#p03ed501776)" d="M 183.89811 197.656179 
L 190.16825 187.421367 
L 184.961979 187.462826 
z
" style="stroke:#000000;"/>
    <path clip-path="url(#p03ed501776)" d="M 195.74636 104.048847 
L 195.74636 108.98751 
L 189.224654 115.420171 
z
" style="stroke:#000000;"/>
    <path clip-path="url(#p03ed501776)" d="M 184.961979 187.462826 
L 181.092261 186.814148 
L 183.89811 197.656179 
z
" style="stroke:#000000;"/>
    <path clip-path="url(#p03ed501776)" d="M 181.092261 167.458356 
L 184.961979 166.818491 
L 183.89811 156.622714 
z
" style="stroke:#000000;"/>
    <path clip-path="url(#p03ed501776)" d="M 185.318229 177.141064 
L 190.16825 166.848144 
L 184.961979 166.818491 
z
" style="stroke:#000000;"/>
    <path clip-path="url(#p03ed501776)" d="M 184.961979 187.462826 
L 190.524501 177.135158 
L 185.318229 177.141064 
z
" style="stroke:#000000;"/>
    <path clip-path="url(#p03ed501776)" d="M 185.318229 177.141064 
L 181.425429 177.136631 
L 184.961979 187.462826 
z
" style="stroke:#000000;"/>
    <path clip-path="url(#p03ed501776)" d="M 181.425429 177.136631 
L 185.318229 177.141064 
L 184.961979 166.818491 
z
" style="stroke:#000000;"/>
    <path clip-path="url(#p03ed501776)" d="M 189.224654 115.420171 
L 190.540142 108.757008 
L 184.018388 115.212885 
z
" style="stroke:#000000;"/>
    <path clip-path="url(#p03ed501776)" d="M 190.540142 133.535995 
L 189.224654 115.420171 
L 184.018388 115.212885 
z
" style="stroke:#000000;"/>
    <path clip-path="url(#p03ed501776)" d="M 190.540142 108.757008 
L 189.224654 115.420171 
L 195.74636 108.98751 
z
" style="stroke:#000000;"/>
    <path clip-path="url(#p03ed501776)" d="M 189.224654 115.420171 
L 190.540142 133.535995 
L 195.74636 133.680827 
z
" style="stroke:#000000;"/>
    <path clip-path="url(#p03ed501776)" d="M 180.778586 114.111664 
L 190.540142 133.535995 
L 184.018388 115.212885 
z
" style="stroke:#000000;"/>
    <path clip-path="url(#p03ed501776)" d="M 184.018388 115.212885 
L 190.540142 103.801211 
L 180.778586 114.111664 
z
" style="stroke:#000000;"/>
    <path clip-path="url(#p03ed501776)" d="M 195.74636 104.048847 
L 180.778586 114.111664 
L 190.540142 103.801211 
z
" style="stroke:#000000;"/>
    <path clip-path="url(#p03ed501776)" d="M 180.778586 114.111664 
L 195.74636 143.558153 
L 190.540142 143.447589 
z
" style="stroke:#000000;"/>
    <path clip-path="url(#p03ed501776)" d="M 190.540142 133.535995 
L 180.778586 114.111664 
L 190.540142 143.447589 
z
" style="stroke:#000000;"/>
    <path clip-path="url(#p03ed501776)" d="M 195.74636 104.048847 
L 202.324681 114.899257 
L 195.74636 108.98751 
z
" style="stroke:#000000;"/>
    <path clip-path="url(#p03ed501776)" d="M 190.540142 103.801211 
L 184.018388 115.212885 
L 190.540142 108.757008 
z
" style="stroke:#000000;"/>
    <path clip-path="url(#p03ed501776)" d="M 195.74636 133.680827 
L 205.635302 113.52489 
L 195.74636 143.558153 
z
" style="stroke:#000000;"/>
    <path clip-path="url(#p03ed501776)" d="M 190.540142 103.801211 
L 205.635302 113.52489 
L 195.74636 104.048847 
z
" style="stroke:#000000;"/>
    <path clip-path="url(#p03ed501776)" d="M 205.635302 113.52489 
L 190.540142 143.447589 
L 195.74636 143.558153 
z
" style="stroke:#000000;"/>
    <path clip-path="url(#p03ed501776)" d="M 202.324681 114.899257 
L 195.74636 104.048847 
L 205.635302 113.52489 
z
" style="stroke:#000000;"/>
    <path clip-path="url(#p03ed501776)" d="M 205.635302 113.52489 
L 195.74636 133.680827 
L 202.324681 114.899257 
z
" style="stroke:#000000;"/>
    <path clip-path="url(#p03ed501776)" d="M 195.74636 108.98751 
L 197.118709 114.68835 
L 190.540142 108.757008 
z
" style="stroke:#000000;"/>
    <path clip-path="url(#p03ed501776)" d="M 197.118709 114.68835 
L 195.74636 133.680827 
L 190.540142 133.535995 
z
" style="stroke:#000000;"/>
    <path clip-path="url(#p03ed501776)" d="M 197.118709 114.68835 
L 195.74636 108.98751 
L 202.324681 114.899257 
z
" style="stroke:#000000;"/>
    <path clip-path="url(#p03ed501776)" d="M 195.74636 133.680827 
L 197.118709 114.68835 
L 202.324681 114.899257 
z
" style="stroke:#000000;"/>
    <path clip-path="url(#p03ed501776)" d="M 204.972026 177.151498 
L 201.004452 177.147011 
L 201.365835 166.784526 
z
" style="stroke:#000000;"/>
    <path clip-path="url(#p03ed501776)" d="M 201.004452 177.147011 
L 204.972026 177.151498 
L 201.365835 187.510312 
z
" style="stroke:#000000;"/>
    <path clip-path="url(#p03ed501776)" d="M 201.365835 187.510312 
L 195.798415 177.152999 
L 201.004452 177.147011 
z
" style="stroke:#000000;"/>
    <path clip-path="url(#p03ed501776)" d="M 201.004452 177.147011 
L 196.159815 166.754431 
L 201.365835 166.784526 
z
" style="stroke:#000000;"/>
    <path clip-path="url(#p03ed501776)" d="M 205.313515 167.385475 
L 201.365835 166.784526 
L 202.447076 156.521739 
z
" style="stroke:#000000;"/>
    <path clip-path="url(#p03ed501776)" d="M 201.365835 187.510312 
L 205.313515 186.918293 
L 202.447076 197.775545 
z
" style="stroke:#000000;"/>
    <path clip-path="url(#p03ed501776)" d="M 197.118709 114.68835 
L 190.540142 103.801211 
L 190.540142 108.757008 
z
" style="stroke:#000000;"/>
    <path clip-path="url(#p03ed501776)" d="M 202.447076 197.775545 
L 196.159815 187.552389 
L 201.365835 187.510312 
z
" style="stroke:#000000;"/>
    <path clip-path="url(#p03ed501776)" d="M 201.365835 166.784526 
L 197.241111 156.455859 
L 202.447076 156.521739 
z
" style="stroke:#000000;"/>
    <path clip-path="url(#p03ed501776)" d="M 205.313515 186.918293 
L 201.365835 187.510312 
L 204.972026 177.151498 
z
" style="stroke:#000000;"/>
    <path clip-path="url(#p03ed501776)" d="M 201.365835 166.784526 
L 205.313515 167.385475 
L 204.972026 177.151498 
z
" style="stroke:#000000;"/>
    <path clip-path="url(#p03ed501776)" d="M 200.429529 113.308724 
L 190.540142 133.535995 
L 190.540142 143.447589 
z
" style="stroke:#000000;"/>
    <path clip-path="url(#p03ed501776)" d="M 206.335099 157.71424 
L 202.447076 156.521739 
L 204.239353 146.457029 
z
" style="stroke:#000000;"/>
    <path clip-path="url(#p03ed501776)" d="M 202.447076 197.775545 
L 206.335099 196.591839 
L 204.239353 207.84431 
z
" style="stroke:#000000;"/>
    <path clip-path="url(#p03ed501776)" d="M 196.159815 166.754431 
L 201.004452 177.147011 
L 195.798415 177.152999 
z
" style="stroke:#000000;"/>
    <path clip-path="url(#p03ed501776)" d="M 202.447076 156.521739 
L 206.335099 157.71424 
L 205.313515 167.385475 
z
" style="stroke:#000000;"/>
    <path clip-path="url(#p03ed501776)" d="M 206.335099 196.591839 
L 202.447076 197.775545 
L 205.313515 186.918293 
z
" style="stroke:#000000;"/>
    <path clip-path="url(#p03ed501776)" d="M 195.798415 177.152999 
L 201.365835 187.510312 
L 196.159815 187.552389 
z
" style="stroke:#000000;"/>
    <path clip-path="url(#p03ed501776)" d="M 204.239353 207.84431 
L 197.241111 197.853424 
L 202.447076 197.775545 
z
" style="stroke:#000000;"/>
    <path clip-path="url(#p03ed501776)" d="M 197.241111 156.455859 
L 201.365835 166.784526 
L 196.159815 166.754431 
z
" style="stroke:#000000;"/>
    <path clip-path="url(#p03ed501776)" d="M 202.447076 156.521739 
L 199.03349 146.355956 
L 204.239353 146.457029 
z
" style="stroke:#000000;"/>
    <path clip-path="url(#p03ed501776)" d="M 196.159815 187.552389 
L 202.447076 197.775545 
L 197.241111 197.853424 
z
" style="stroke:#000000;"/>
    <path clip-path="url(#p03ed501776)" d="M 205.635302 113.52489 
L 190.540142 103.801211 
L 200.429529 113.308724 
z
" style="stroke:#000000;"/>
    <path clip-path="url(#p03ed501776)" d="M 190.540142 143.447589 
L 205.635302 113.52489 
L 200.429529 113.308724 
z
" style="stroke:#000000;"/>
    <path clip-path="url(#p03ed501776)" d="M 204.239353 146.457029 
L 208.028333 148.231183 
L 206.335099 157.71424 
z
" style="stroke:#000000;"/>
    <path clip-path="url(#p03ed501776)" d="M 208.028333 206.078725 
L 204.239353 207.84431 
L 206.335099 196.591839 
z
" style="stroke:#000000;"/>
    <path clip-path="url(#p03ed501776)" d="M 208.028333 148.231183 
L 204.239353 146.457029 
L 206.727939 136.687745 
z
" style="stroke:#000000;"/>
    <path clip-path="url(#p03ed501776)" d="M 204.239353 207.84431 
L 208.028333 206.078725 
L 206.727939 217.619222 
z
" style="stroke:#000000;"/>
    <path clip-path="url(#p03ed501776)" d="M 190.540142 133.535995 
L 200.429529 113.308724 
L 197.118709 114.68835 
z
" style="stroke:#000000;"/>
    <path clip-path="url(#p03ed501776)" d="M 190.540142 103.801211 
L 197.118709 114.68835 
L 200.429529 113.308724 
z
" style="stroke:#000000;"/>
    <path clip-path="url(#p03ed501776)" d="M 199.03349 146.355956 
L 202.447076 156.521739 
L 197.241111 156.455859 
z
" style="stroke:#000000;"/>
    <path clip-path="url(#p03ed501776)" d="M 206.727939 217.619222 
L 199.03349 207.957409 
L 204.239353 207.84431 
z
" style="stroke:#000000;"/>
    <path clip-path="url(#p03ed501776)" d="M 205.313515 167.385475 
L 199.766209 177.157517 
L 204.972026 177.151498 
z
" style="stroke:#000000;"/>
    <path clip-path="url(#p03ed501776)" d="M 204.972026 177.151498 
L 200.10772 186.958413 
L 205.313515 186.918293 
z
" style="stroke:#000000;"/>
    <path clip-path="url(#p03ed501776)" d="M 197.241111 197.853424 
L 204.239353 207.84431 
L 199.03349 207.957409 
z
" style="stroke:#000000;"/>
    <path clip-path="url(#p03ed501776)" d="M 206.335099 157.71424 
L 200.10772 167.357399 
L 205.313515 167.385475 
z
" style="stroke:#000000;"/>
    <path clip-path="url(#p03ed501776)" d="M 204.239353 146.457029 
L 201.522242 136.552367 
L 206.727939 136.687745 
z
" style="stroke:#000000;"/>
    <path clip-path="url(#p03ed501776)" d="M 199.766209 177.157517 
L 195.798415 177.152999 
L 196.159815 187.552389 
z
" style="stroke:#000000;"/>
    <path clip-path="url(#p03ed501776)" d="M 195.798415 177.152999 
L 199.766209 177.157517 
L 196.159815 166.754431 
z
" style="stroke:#000000;"/>
    <path clip-path="url(#p03ed501776)" d="M 205.313515 186.918293 
L 201.129374 196.665782 
L 206.335099 196.591839 
z
" style="stroke:#000000;"/>
    <path clip-path="url(#p03ed501776)" d="M 200.10772 186.958413 
L 196.159815 187.552389 
L 197.241111 197.853424 
z
" style="stroke:#000000;"/>
    <path clip-path="url(#p03ed501776)" d="M 196.159815 166.754431 
L 200.10772 167.357399 
L 197.241111 156.455859 
z
" style="stroke:#000000;"/>
    <path clip-path="url(#p03ed501776)" d="M 206.727939 136.687745 
L 210.379046 139.028788 
L 208.028333 148.231183 
z
" style="stroke:#000000;"/>
    <path clip-path="url(#p03ed501776)" d="M 210.379046 215.286438 
L 206.727939 217.619222 
L 208.028333 206.078725 
z
" style="stroke:#000000;"/>
    <path clip-path="url(#p03ed501776)" d="M 201.522242 136.552367 
L 204.239353 146.457029 
L 199.03349 146.355956 
z
" style="stroke:#000000;"/>
    <path clip-path="url(#p03ed501776)" d="M 200.10772 186.958413 
L 204.972026 177.151498 
L 199.766209 177.157517 
z
" style="stroke:#000000;"/>
    <path clip-path="url(#p03ed501776)" d="M 208.028333 148.231183 
L 201.129374 157.652357 
L 206.335099 157.71424 
z
" style="stroke:#000000;"/>
    <path clip-path="url(#p03ed501776)" d="M 199.766209 177.157517 
L 205.313515 167.385475 
L 200.10772 167.357399 
z
" style="stroke:#000000;"/>
    <path clip-path="url(#p03ed501776)" d="M 210.379046 139.028788 
L 206.727939 136.687745 
L 209.892288 127.309472 
z
" style="stroke:#000000;"/>
    <path clip-path="url(#p03ed501776)" d="M 206.727939 217.619222 
L 210.379046 215.286438 
L 209.892288 227.004653 
z
" style="stroke:#000000;"/>
    <path clip-path="url(#p03ed501776)" d="M 200.10772 167.357399 
L 196.159815 166.754431 
L 199.766209 177.157517 
z
" style="stroke:#000000;"/>
    <path clip-path="url(#p03ed501776)" d="M 196.159815 187.552389 
L 200.10772 186.958413 
L 199.766209 177.157517 
z
" style="stroke:#000000;"/>
    <path clip-path="url(#p03ed501776)" d="M 201.129374 196.665782 
L 205.313515 186.918293 
L 200.10772 186.958413 
z
" style="stroke:#000000;"/>
    <path clip-path="url(#p03ed501776)" d="M 206.335099 196.591839 
L 202.822734 206.185932 
L 208.028333 206.078725 
z
" style="stroke:#000000;"/>
    <path clip-path="url(#p03ed501776)" d="M 199.03349 207.957409 
L 206.727939 217.619222 
L 201.522242 217.766666 
z
" style="stroke:#000000;"/>
    <path clip-path="url(#p03ed501776)" d="M 200.10772 167.357399 
L 206.335099 157.71424 
L 201.129374 157.652357 
z
" style="stroke:#000000;"/>
    <path clip-path="url(#p03ed501776)" d="M 209.892288 227.004653 
L 201.522242 217.766666 
L 206.727939 217.619222 
z
" style="stroke:#000000;"/>
    <path clip-path="url(#p03ed501776)" d="M 197.241111 156.455859 
L 201.129374 157.652357 
L 199.03349 146.355956 
z
" style="stroke:#000000;"/>
    <path clip-path="url(#p03ed501776)" d="M 201.129374 196.665782 
L 197.241111 197.853424 
L 199.03349 207.957409 
z
" style="stroke:#000000;"/>
    <path clip-path="url(#p03ed501776)" d="M 197.241111 197.853424 
L 201.129374 196.665782 
L 200.10772 186.958413 
z
" style="stroke:#000000;"/>
    <path clip-path="url(#p03ed501776)" d="M 201.129374 157.652357 
L 197.241111 156.455859 
L 200.10772 167.357399 
z
" style="stroke:#000000;"/>
    <path clip-path="url(#p03ed501776)" d="M 202.822734 206.185932 
L 206.335099 196.591839 
L 201.129374 196.665782 
z
" style="stroke:#000000;"/>
    <path clip-path="url(#p03ed501776)" d="M 210.379046 139.028788 
L 202.822734 148.136064 
L 208.028333 148.231183 
z
" style="stroke:#000000;"/>
    <path clip-path="url(#p03ed501776)" d="M 206.727939 136.687745 
L 204.686845 127.140971 
L 209.892288 127.309472 
z
" style="stroke:#000000;"/>
    <path clip-path="url(#p03ed501776)" d="M 201.129374 157.652357 
L 208.028333 148.231183 
L 202.822734 148.136064 
z
" style="stroke:#000000;"/>
    <path clip-path="url(#p03ed501776)" d="M 209.892288 127.309472 
L 213.367395 130.197812 
L 210.379046 139.028788 
z
" style="stroke:#000000;"/>
    <path clip-path="url(#p03ed501776)" d="M 213.367395 224.124173 
L 209.892288 227.004653 
L 210.379046 215.286438 
z
" style="stroke:#000000;"/>
    <path clip-path="url(#p03ed501776)" d="M 204.686845 127.140971 
L 206.727939 136.687745 
L 201.522242 136.552367 
z
" style="stroke:#000000;"/>
    <path clip-path="url(#p03ed501776)" d="M 208.028333 206.078725 
L 205.173645 215.426064 
L 210.379046 215.286438 
z
" style="stroke:#000000;"/>
    <path clip-path="url(#p03ed501776)" d="M 199.03349 207.957409 
L 202.822734 206.185932 
L 201.129374 196.665782 
z
" style="stroke:#000000;"/>
    <path clip-path="url(#p03ed501776)" d="M 202.822734 148.136064 
L 199.03349 146.355956 
L 201.129374 157.652357 
z
" style="stroke:#000000;"/>
    <path clip-path="url(#p03ed501776)" d="M 202.822734 206.185932 
L 199.03349 207.957409 
L 201.522242 217.766666 
z
" style="stroke:#000000;"/>
    <path clip-path="url(#p03ed501776)" d="M 199.03349 146.355956 
L 202.822734 148.136064 
L 201.522242 136.552367 
z
" style="stroke:#000000;"/>
    <path clip-path="url(#p03ed501776)" d="M 213.705788 118.416059 
L 213.367395 130.197812 
L 209.892288 127.309472 
z
" style="stroke:#000000;"/>
    <path clip-path="url(#p03ed501776)" d="M 213.367395 224.124173 
L 213.705788 235.906691 
L 209.892288 227.004653 
z
" style="stroke:#000000;"/>
    <path clip-path="url(#p03ed501776)" d="M 205.173645 215.426064 
L 208.028333 206.078725 
L 202.822734 206.185932 
z
" style="stroke:#000000;"/>
    <path clip-path="url(#p03ed501776)" d="M 201.522242 217.766666 
L 209.892288 227.004653 
L 204.686845 227.18527 
z
" style="stroke:#000000;"/>
    <path clip-path="url(#p03ed501776)" d="M 213.705788 235.906691 
L 204.686845 227.18527 
L 209.892288 227.004653 
z
" style="stroke:#000000;"/>
    <path clip-path="url(#p03ed501776)" d="M 213.367395 130.197812 
L 205.173645 138.901286 
L 210.379046 139.028788 
z
" style="stroke:#000000;"/>
    <path clip-path="url(#p03ed501776)" d="M 202.822734 148.136064 
L 210.379046 139.028788 
L 205.173645 138.901286 
z
" style="stroke:#000000;"/>
    <path clip-path="url(#p03ed501776)" d="M 201.522242 217.766666 
L 205.173645 215.426064 
L 202.822734 206.185932 
z
" style="stroke:#000000;"/>
    <path clip-path="url(#p03ed501776)" d="M 205.173645 138.901286 
L 201.522242 136.552367 
L 202.822734 148.136064 
z
" style="stroke:#000000;"/>
    <path clip-path="url(#p03ed501776)" d="M 210.379046 215.286438 
L 208.162282 224.295091 
L 213.367395 224.124173 
z
" style="stroke:#000000;"/>
    <path clip-path="url(#p03ed501776)" d="M 209.892288 127.309472 
L 208.50071 118.215916 
L 213.705788 118.416059 
z
" style="stroke:#000000;"/>
    <path clip-path="url(#p03ed501776)" d="M 205.173645 215.426064 
L 201.522242 217.766666 
L 204.686845 227.18527 
z
" style="stroke:#000000;"/>
    <path clip-path="url(#p03ed501776)" d="M 201.522242 136.552367 
L 205.173645 138.901286 
L 204.686845 127.140971 
z
" style="stroke:#000000;"/>
    <path clip-path="url(#p03ed501776)" d="M 213.705788 118.416059 
L 216.967879 121.826701 
L 213.367395 130.197812 
z
" style="stroke:#000000;"/>
    <path clip-path="url(#p03ed501776)" d="M 216.967879 232.503428 
L 213.705788 235.906691 
L 213.367395 224.124173 
z
" style="stroke:#000000;"/>
    <path clip-path="url(#p03ed501776)" d="M 208.50071 118.215916 
L 209.892288 127.309472 
L 204.686845 127.140971 
z
" style="stroke:#000000;"/>
    <path clip-path="url(#p03ed501776)" d="M 208.162282 224.295091 
L 210.379046 215.286438 
L 205.173645 215.426064 
z
" style="stroke:#000000;"/>
    <path clip-path="url(#p03ed501776)" d="M 205.173645 138.901286 
L 213.367395 130.197812 
L 208.162282 130.039065 
z
" style="stroke:#000000;"/>
    <path clip-path="url(#p03ed501776)" d="M 204.686845 227.18527 
L 213.705788 235.906691 
L 208.50071 236.119012 
z
" style="stroke:#000000;"/>
    <path clip-path="url(#p03ed501776)" d="M 218.135953 110.097655 
L 216.967879 121.826701 
L 213.705788 118.416059 
z
" style="stroke:#000000;"/>
    <path clip-path="url(#p03ed501776)" d="M 216.967879 232.503428 
L 218.135953 244.235116 
L 213.705788 235.906691 
z
" style="stroke:#000000;"/>
    <path clip-path="url(#p03ed501776)" d="M 216.967879 121.826701 
L 208.162282 130.039065 
L 213.367395 130.197812 
z
" style="stroke:#000000;"/>
    <path clip-path="url(#p03ed501776)" d="M 204.686845 227.18527 
L 208.162282 224.295091 
L 205.173645 215.426064 
z
" style="stroke:#000000;"/>
    <path clip-path="url(#p03ed501776)" d="M 208.162282 130.039065 
L 204.686845 127.140971 
L 205.173645 138.901286 
z
" style="stroke:#000000;"/>
    <path clip-path="url(#p03ed501776)" d="M 218.135953 244.235116 
L 208.50071 236.119012 
L 213.705788 235.906691 
z
" style="stroke:#000000;"/>
    <path clip-path="url(#p03ed501776)" d="M 213.367395 224.124173 
L 211.763166 232.704228 
L 216.967879 232.503428 
z
" style="stroke:#000000;"/>
    <path clip-path="url(#p03ed501776)" d="M 208.50071 236.119012 
L 208.162282 224.295091 
L 204.686845 227.18527 
z
" style="stroke:#000000;"/>
    <path clip-path="url(#p03ed501776)" d="M 208.162282 130.039065 
L 208.50071 118.215916 
L 204.686845 127.140971 
z
" style="stroke:#000000;"/>
    <path clip-path="url(#p03ed501776)" d="M 211.763166 232.704228 
L 213.367395 224.124173 
L 208.162282 224.295091 
z
" style="stroke:#000000;"/>
    <path clip-path="url(#p03ed501776)" d="M 213.705788 118.416059 
L 212.931383 109.867645 
L 218.135953 110.097655 
z
" style="stroke:#000000;"/>
    <path clip-path="url(#p03ed501776)" d="M 218.135953 110.097655 
L 221.149291 114.001673 
L 216.967879 121.826701 
z
" style="stroke:#000000;"/>
    <path clip-path="url(#p03ed501776)" d="M 221.149291 240.337913 
L 218.135953 244.235116 
L 216.967879 232.503428 
z
" style="stroke:#000000;"/>
    <path clip-path="url(#p03ed501776)" d="M 212.931383 109.867645 
L 213.705788 118.416059 
L 208.50071 118.215916 
z
" style="stroke:#000000;"/>
    <path clip-path="url(#p03ed501776)" d="M 208.162282 130.039065 
L 216.967879 121.826701 
L 211.763166 121.63813 
z
" style="stroke:#000000;"/>
    <path clip-path="url(#p03ed501776)" d="M 208.50071 236.119012 
L 211.763166 232.704228 
L 208.162282 224.295091 
z
" style="stroke:#000000;"/>
    <path clip-path="url(#p03ed501776)" d="M 211.763166 121.63813 
L 208.50071 118.215916 
L 208.162282 130.039065 
z
" style="stroke:#000000;"/>
    <path clip-path="url(#p03ed501776)" d="M 221.149291 114.001673 
L 211.763166 121.63813 
L 216.967879 121.826701 
z
" style="stroke:#000000;"/>
    <path clip-path="url(#p03ed501776)" d="M 208.50071 236.119012 
L 218.135953 244.235116 
L 212.931383 244.477374 
z
" style="stroke:#000000;"/>
    <path clip-path="url(#p03ed501776)" d="M 222.406797 107.535344 
L 218.135953 110.097655 
L 220.636087 106.276026 
z
" style="stroke:#000000;"/>
    <path clip-path="url(#p03ed501776)" d="M 218.135953 244.235116 
L 222.406797 246.807087 
L 220.636087 248.0624 
z
" style="stroke:#000000;"/>
    <path clip-path="url(#p03ed501776)" d="M 218.135953 110.097655 
L 222.406797 107.535344 
L 221.149291 114.001673 
z
" style="stroke:#000000;"/>
    <path clip-path="url(#p03ed501776)" d="M 222.406797 246.807087 
L 218.135953 244.235116 
L 221.149291 240.337913 
z
" style="stroke:#000000;"/>
    <path clip-path="url(#p03ed501776)" d="M 220.636087 248.0624 
L 212.931383 244.477374 
L 218.135953 244.235116 
z
" style="stroke:#000000;"/>
    <path clip-path="url(#p03ed501776)" d="M 216.967879 232.503428 
L 215.945117 240.5669 
L 221.149291 240.337913 
z
" style="stroke:#000000;"/>
    <path clip-path="url(#p03ed501776)" d="M 218.135953 110.097655 
L 215.431843 106.032163 
L 220.636087 106.276026 
z
" style="stroke:#000000;"/>
    <path clip-path="url(#p03ed501776)" d="M 212.931383 244.477374 
L 211.763166 232.704228 
L 208.50071 236.119012 
z
" style="stroke:#000000;"/>
    <path clip-path="url(#p03ed501776)" d="M 211.763166 121.63813 
L 212.931383 109.867645 
L 208.50071 118.215916 
z
" style="stroke:#000000;"/>
    <path clip-path="url(#p03ed501776)" d="M 215.945117 240.5669 
L 216.967879 232.503428 
L 211.763166 232.704228 
z
" style="stroke:#000000;"/>
    <path clip-path="url(#p03ed501776)" d="M 215.431843 106.032163 
L 218.135953 110.097655 
L 212.931383 109.867645 
z
" style="stroke:#000000;"/>
    <path clip-path="url(#p03ed501776)" d="M 221.149291 114.001673 
L 222.406797 107.535344 
L 224.27094 109.247352 
z
" style="stroke:#000000;"/>
    <path clip-path="url(#p03ed501776)" d="M 222.406797 246.807087 
L 221.149291 240.337913 
L 224.27094 245.099295 
z
" style="stroke:#000000;"/>
    <path clip-path="url(#p03ed501776)" d="M 215.431843 106.032163 
L 222.406797 107.535344 
L 220.636087 106.276026 
z
" style="stroke:#000000;"/>
    <path clip-path="url(#p03ed501776)" d="M 211.763166 121.63813 
L 221.149291 114.001673 
L 215.945117 113.784983 
z
" style="stroke:#000000;"/>
    <path clip-path="url(#p03ed501776)" d="M 212.931383 244.477374 
L 220.636087 248.0624 
L 215.431843 248.318551 
z
" style="stroke:#000000;"/>
    <path clip-path="url(#p03ed501776)" d="M 217.202802 247.059101 
L 220.636087 248.0624 
L 222.406797 246.807087 
z
" style="stroke:#000000;"/>
    <path clip-path="url(#p03ed501776)" d="M 215.945117 240.5669 
L 224.27094 245.099295 
L 221.149291 240.337913 
z
" style="stroke:#000000;"/>
    <path clip-path="url(#p03ed501776)" d="M 212.931383 244.477374 
L 215.945117 240.5669 
L 211.763166 232.704228 
z
" style="stroke:#000000;"/>
    <path clip-path="url(#p03ed501776)" d="M 215.945117 113.784983 
L 212.931383 109.867645 
L 211.763166 121.63813 
z
" style="stroke:#000000;"/>
    <path clip-path="url(#p03ed501776)" d="M 217.202802 107.295646 
L 224.27094 109.247352 
L 222.406797 107.535344 
z
" style="stroke:#000000;"/>
    <path clip-path="url(#p03ed501776)" d="M 220.636087 248.0624 
L 217.202802 247.059101 
L 215.431843 248.318551 
z
" style="stroke:#000000;"/>
    <path clip-path="url(#p03ed501776)" d="M 219.067222 109.013415 
L 221.149291 114.001673 
L 224.27094 109.247352 
z
" style="stroke:#000000;"/>
    <path clip-path="url(#p03ed501776)" d="M 222.406797 107.535344 
L 215.431843 106.032163 
L 217.202802 107.295646 
z
" style="stroke:#000000;"/>
    <path clip-path="url(#p03ed501776)" d="M 219.067222 245.345578 
L 222.406797 246.807087 
L 224.27094 245.099295 
z
" style="stroke:#000000;"/>
    <path clip-path="url(#p03ed501776)" d="M 221.149291 114.001673 
L 219.067222 109.013415 
L 215.945117 113.784983 
z
" style="stroke:#000000;"/>
    <path clip-path="url(#p03ed501776)" d="M 217.202802 247.059101 
L 212.931383 244.477374 
L 215.431843 248.318551 
z
" style="stroke:#000000;"/>
    <path clip-path="url(#p03ed501776)" d="M 212.931383 109.867645 
L 217.202802 107.295646 
L 215.431843 106.032163 
z
" style="stroke:#000000;"/>
    <path clip-path="url(#p03ed501776)" d="M 212.931383 244.477374 
L 217.202802 247.059101 
L 215.945117 240.5669 
z
" style="stroke:#000000;"/>
    <path clip-path="url(#p03ed501776)" d="M 217.202802 107.295646 
L 212.931383 109.867645 
L 215.945117 113.784983 
z
" style="stroke:#000000;"/>
    <path clip-path="url(#p03ed501776)" d="M 222.406797 246.807087 
L 219.067222 245.345578 
L 217.202802 247.059101 
z
" style="stroke:#000000;"/>
    <path clip-path="url(#p03ed501776)" d="M 224.27094 245.099295 
L 215.945117 240.5669 
L 219.067222 245.345578 
z
" style="stroke:#000000;"/>
    <path clip-path="url(#p03ed501776)" d="M 224.27094 109.247352 
L 217.202802 107.295646 
L 219.067222 109.013415 
z
" style="stroke:#000000;"/>
    <path clip-path="url(#p03ed501776)" d="M 215.945117 240.5669 
L 217.202802 247.059101 
L 219.067222 245.345578 
z
" style="stroke:#000000;"/>
    <path clip-path="url(#p03ed501776)" d="M 217.202802 107.295646 
L 215.945117 113.784983 
L 219.067222 109.013415 
z
" style="stroke:#000000;"/>
   </g>
  </g>
 </g>
 <defs>
  <clipPath id="p03ed501776">
   <rect height="271.8" width="279" x="45" y="43.2"/>
  </clipPath>
 </defs>
</svg>
