<?xml version="1.0" encoding="utf-8" standalone="no"?>
<!DOCTYPE svg PUBLIC "-//W3C//DTD SVG 1.1//EN"
  "http://www.w3.org/Graphics/SVG/1.1/DTD/svg11.dtd">
<!-- Created with matplotlib (https://matplotlib.org/) -->
<svg height="360pt" version="1.1" viewBox="0 0 360 360" width="360pt" xmlns="http://www.w3.org/2000/svg" xmlns:xlink="http://www.w3.org/1999/xlink">
 <defs>
  <style type="text/css">
*{stroke-linecap:butt;stroke-linejoin:round;}
  </style>
 </defs>
 <g id="figure_1">
  <g id="patch_1">
   <path d="M 45 315 
L 324 315 
L 324 43.2 
L 45 43.2 
z
" style="fill:#ffffff;"/>
  </g>
  <g id="axes_1">
   <g id="Poly3DCollection_1">
    <path clip-path="url(#pa2e652c80a)" d="M 168.838674 238.193273 
L 168.017449 244.325898 
L 166.805419 242.500553 
z
" style="stroke:#000000;"/>
    <path clip-path="url(#pa2e652c80a)" d="M 168.017449 109.895276 
L 168.838674 116.031152 
L 166.805419 111.715822 
z
" style="stroke:#000000;"/>
    <path clip-path="url(#pa2e652c80a)" d="M 160.475357 111.562686 
L 168.017449 109.895276 
L 166.805419 111.715822 
z
" style="stroke:#000000;"/>
    <path clip-path="url(#pa2e652c80a)" d="M 160.475357 242.661771 
L 168.838674 238.193273 
L 166.805419 242.500553 
z
" style="stroke:#000000;"/>
    <path clip-path="url(#pa2e652c80a)" d="M 161.681249 244.49174 
L 166.805419 242.500553 
L 168.017449 244.325898 
z
" style="stroke:#000000;"/>
    <path clip-path="url(#pa2e652c80a)" d="M 166.805419 242.500553 
L 161.681249 244.49174 
L 160.475357 242.661771 
z
" style="stroke:#000000;"/>
    <path clip-path="url(#pa2e652c80a)" d="M 162.498319 115.888046 
L 166.805419 111.715822 
L 168.838674 116.031152 
z
" style="stroke:#000000;"/>
    <path clip-path="url(#pa2e652c80a)" d="M 166.805419 111.715822 
L 162.498319 115.888046 
L 160.475357 111.562686 
z
" style="stroke:#000000;"/>
    <path clip-path="url(#pa2e652c80a)" d="M 168.017449 109.895276 
L 160.475357 111.562686 
L 161.681249 109.737539 
z
" style="stroke:#000000;"/>
    <path clip-path="url(#pa2e652c80a)" d="M 161.681249 109.737539 
L 169.174668 108.512081 
L 168.017449 109.895276 
z
" style="stroke:#000000;"/>
    <path clip-path="url(#pa2e652c80a)" d="M 170.818522 242.24712 
L 168.017449 244.325898 
L 168.838674 238.193273 
z
" style="stroke:#000000;"/>
    <path clip-path="url(#pa2e652c80a)" d="M 168.017449 109.895276 
L 170.818522 111.985144 
L 168.838674 116.031152 
z
" style="stroke:#000000;"/>
    <path clip-path="url(#pa2e652c80a)" d="M 168.017449 244.325898 
L 170.818522 242.24712 
L 169.174668 245.713675 
z
" style="stroke:#000000;"/>
    <path clip-path="url(#pa2e652c80a)" d="M 170.818522 111.985144 
L 168.017449 109.895276 
L 169.174668 108.512081 
z
" style="stroke:#000000;"/>
    <path clip-path="url(#pa2e652c80a)" d="M 162.832614 245.883087 
L 168.017449 244.325898 
L 169.174668 245.713675 
z
" style="stroke:#000000;"/>
    <path clip-path="url(#pa2e652c80a)" d="M 168.838674 238.193273 
L 160.475357 242.661771 
L 162.498319 238.3445 
z
" style="stroke:#000000;"/>
    <path clip-path="url(#pa2e652c80a)" d="M 168.017449 244.325898 
L 162.832614 245.883087 
L 161.681249 244.49174 
z
" style="stroke:#000000;"/>
    <path clip-path="url(#pa2e652c80a)" d="M 162.498319 115.888046 
L 161.681249 109.737539 
L 160.475357 111.562686 
z
" style="stroke:#000000;"/>
    <path clip-path="url(#pa2e652c80a)" d="M 161.681249 244.49174 
L 162.498319 238.3445 
L 160.475357 242.661771 
z
" style="stroke:#000000;"/>
    <path clip-path="url(#pa2e652c80a)" d="M 169.174668 108.512081 
L 161.681249 109.737539 
L 162.832614 108.350795 
z
" style="stroke:#000000;"/>
    <path clip-path="url(#pa2e652c80a)" d="M 170.818522 242.24712 
L 162.832614 245.883087 
L 169.174668 245.713675 
z
" style="stroke:#000000;"/>
    <path clip-path="url(#pa2e652c80a)" d="M 170.818522 242.24712 
L 168.838674 238.193273 
L 171.590556 230.9467 
z
" style="stroke:#000000;"/>
    <path clip-path="url(#pa2e652c80a)" d="M 168.838674 116.031152 
L 170.818522 111.985144 
L 171.590556 123.288621 
z
" style="stroke:#000000;"/>
    <path clip-path="url(#pa2e652c80a)" d="M 171.590556 123.288621 
L 162.498319 115.888046 
L 168.838674 116.031152 
z
" style="stroke:#000000;"/>
    <path clip-path="url(#pa2e652c80a)" d="M 169.174668 108.512081 
L 164.468167 111.831934 
L 170.818522 111.985144 
z
" style="stroke:#000000;"/>
    <path clip-path="url(#pa2e652c80a)" d="M 164.468167 111.831934 
L 169.174668 108.512081 
L 162.832614 108.350795 
z
" style="stroke:#000000;"/>
    <path clip-path="url(#pa2e652c80a)" d="M 165.236307 231.0809 
L 168.838674 238.193273 
L 162.498319 238.3445 
z
" style="stroke:#000000;"/>
    <path clip-path="url(#pa2e652c80a)" d="M 164.468167 111.831934 
L 161.681249 109.737539 
L 162.498319 115.888046 
z
" style="stroke:#000000;"/>
    <path clip-path="url(#pa2e652c80a)" d="M 161.681249 244.49174 
L 164.468167 242.408489 
L 162.498319 238.3445 
z
" style="stroke:#000000;"/>
    <path clip-path="url(#pa2e652c80a)" d="M 168.838674 238.193273 
L 165.236307 231.0809 
L 171.590556 230.9467 
z
" style="stroke:#000000;"/>
    <path clip-path="url(#pa2e652c80a)" d="M 161.681249 109.737539 
L 164.468167 111.831934 
L 162.832614 108.350795 
z
" style="stroke:#000000;"/>
    <path clip-path="url(#pa2e652c80a)" d="M 164.468167 242.408489 
L 161.681249 244.49174 
L 162.832614 245.883087 
z
" style="stroke:#000000;"/>
    <path clip-path="url(#pa2e652c80a)" d="M 162.832614 245.883087 
L 170.818522 242.24712 
L 164.468167 242.408489 
z
" style="stroke:#000000;"/>
    <path clip-path="url(#pa2e652c80a)" d="M 162.498319 115.888046 
L 171.590556 123.288621 
L 165.236307 123.162593 
z
" style="stroke:#000000;"/>
    <path clip-path="url(#pa2e652c80a)" d="M 170.818522 242.24712 
L 171.590556 230.9467 
L 173.760304 234.532065 
z
" style="stroke:#000000;"/>
    <path clip-path="url(#pa2e652c80a)" d="M 171.590556 123.288621 
L 170.818522 111.985144 
L 173.760304 119.711846 
z
" style="stroke:#000000;"/>
    <path clip-path="url(#pa2e652c80a)" d="M 164.468167 111.831934 
L 162.498319 115.888046 
L 165.236307 123.162593 
z
" style="stroke:#000000;"/>
    <path clip-path="url(#pa2e652c80a)" d="M 162.498319 238.3445 
L 164.468167 242.408489 
L 165.236307 231.0809 
z
" style="stroke:#000000;"/>
    <path clip-path="url(#pa2e652c80a)" d="M 173.760304 234.532065 
L 164.468167 242.408489 
L 170.818522 242.24712 
z
" style="stroke:#000000;"/>
    <path clip-path="url(#pa2e652c80a)" d="M 173.986544 131.204377 
L 165.236307 123.162593 
L 171.590556 123.288621 
z
" style="stroke:#000000;"/>
    <path clip-path="url(#pa2e652c80a)" d="M 173.760304 234.532065 
L 171.590556 230.9467 
L 173.986544 223.04043 
z
" style="stroke:#000000;"/>
    <path clip-path="url(#pa2e652c80a)" d="M 171.590556 123.288621 
L 173.760304 119.711846 
L 173.986544 131.204377 
z
" style="stroke:#000000;"/>
    <path clip-path="url(#pa2e652c80a)" d="M 167.395131 119.57683 
L 170.818522 111.985144 
L 164.468167 111.831934 
z
" style="stroke:#000000;"/>
    <path clip-path="url(#pa2e652c80a)" d="M 170.818522 111.985144 
L 167.395131 119.57683 
L 173.760304 119.711846 
z
" style="stroke:#000000;"/>
    <path clip-path="url(#pa2e652c80a)" d="M 167.620233 223.155843 
L 171.590556 230.9467 
L 165.236307 231.0809 
z
" style="stroke:#000000;"/>
    <path clip-path="url(#pa2e652c80a)" d="M 171.590556 230.9467 
L 167.620233 223.155843 
L 173.986544 223.04043 
z
" style="stroke:#000000;"/>
    <path clip-path="url(#pa2e652c80a)" d="M 164.468167 111.831934 
L 165.236307 123.162593 
L 167.395131 119.57683 
z
" style="stroke:#000000;"/>
    <path clip-path="url(#pa2e652c80a)" d="M 165.236307 231.0809 
L 164.468167 242.408489 
L 167.395131 234.675295 
z
" style="stroke:#000000;"/>
    <path clip-path="url(#pa2e652c80a)" d="M 164.468167 242.408489 
L 173.760304 234.532065 
L 167.395131 234.675295 
z
" style="stroke:#000000;"/>
    <path clip-path="url(#pa2e652c80a)" d="M 165.236307 123.162593 
L 173.986544 131.204377 
L 167.620233 131.097183 
z
" style="stroke:#000000;"/>
    <path clip-path="url(#pa2e652c80a)" d="M 173.760304 234.532065 
L 173.986544 223.04043 
L 176.322669 226.109241 
z
" style="stroke:#000000;"/>
    <path clip-path="url(#pa2e652c80a)" d="M 173.986544 131.204377 
L 173.760304 119.711846 
L 176.322669 128.144815 
z
" style="stroke:#000000;"/>
    <path clip-path="url(#pa2e652c80a)" d="M 167.395131 119.57683 
L 165.236307 123.162593 
L 167.620233 131.097183 
z
" style="stroke:#000000;"/>
    <path clip-path="url(#pa2e652c80a)" d="M 165.236307 231.0809 
L 167.395131 234.675295 
L 167.620233 223.155843 
z
" style="stroke:#000000;"/>
    <path clip-path="url(#pa2e652c80a)" d="M 176.322669 226.109241 
L 167.395131 234.675295 
L 173.760304 234.532065 
z
" style="stroke:#000000;"/>
    <path clip-path="url(#pa2e652c80a)" d="M 175.994041 139.685739 
L 167.620233 131.097183 
L 173.986544 131.204377 
z
" style="stroke:#000000;"/>
    <path clip-path="url(#pa2e652c80a)" d="M 176.322669 226.109241 
L 173.986544 223.04043 
L 175.994041 214.567016 
z
" style="stroke:#000000;"/>
    <path clip-path="url(#pa2e652c80a)" d="M 173.986544 131.204377 
L 176.322669 128.144815 
L 175.994041 139.685739 
z
" style="stroke:#000000;"/>
    <path clip-path="url(#pa2e652c80a)" d="M 169.944628 128.029892 
L 173.760304 119.711846 
L 167.395131 119.57683 
z
" style="stroke:#000000;"/>
    <path clip-path="url(#pa2e652c80a)" d="M 173.986544 223.04043 
L 169.617649 214.662113 
L 175.994041 214.567016 
z
" style="stroke:#000000;"/>
    <path clip-path="url(#pa2e652c80a)" d="M 169.617649 214.662113 
L 173.986544 223.04043 
L 167.620233 223.155843 
z
" style="stroke:#000000;"/>
    <path clip-path="url(#pa2e652c80a)" d="M 173.760304 119.711846 
L 169.944628 128.029892 
L 176.322669 128.144815 
z
" style="stroke:#000000;"/>
    <path clip-path="url(#pa2e652c80a)" d="M 167.620233 131.097183 
L 175.994041 139.685739 
L 169.617649 139.598899 
z
" style="stroke:#000000;"/>
    <path clip-path="url(#pa2e652c80a)" d="M 167.395131 119.57683 
L 167.620233 131.097183 
L 169.944628 128.029892 
z
" style="stroke:#000000;"/>
    <path clip-path="url(#pa2e652c80a)" d="M 167.620233 223.155843 
L 167.395131 234.675295 
L 169.944628 226.232429 
z
" style="stroke:#000000;"/>
    <path clip-path="url(#pa2e652c80a)" d="M 167.395131 234.675295 
L 176.322669 226.109241 
L 169.944628 226.232429 
z
" style="stroke:#000000;"/>
    <path clip-path="url(#pa2e652c80a)" d="M 175.994041 214.567016 
L 178.470326 217.076587 
L 176.322669 226.109241 
z
" style="stroke:#000000;"/>
    <path clip-path="url(#pa2e652c80a)" d="M 178.470326 137.185972 
L 175.994041 139.685739 
L 176.322669 128.144815 
z
" style="stroke:#000000;"/>
    <path clip-path="url(#pa2e652c80a)" d="M 177.585367 148.631372 
L 169.617649 139.598899 
L 175.994041 139.685739 
z
" style="stroke:#000000;"/>
    <path clip-path="url(#pa2e652c80a)" d="M 178.470326 217.076587 
L 175.994041 214.567016 
L 177.585367 205.627683 
z
" style="stroke:#000000;"/>
    <path clip-path="url(#pa2e652c80a)" d="M 175.994041 139.685739 
L 178.470326 137.185972 
L 177.585367 148.631372 
z
" style="stroke:#000000;"/>
    <path clip-path="url(#pa2e652c80a)" d="M 169.944628 128.029892 
L 167.620233 131.097183 
L 169.617649 139.598899 
z
" style="stroke:#000000;"/>
    <path clip-path="url(#pa2e652c80a)" d="M 167.620233 223.155843 
L 169.944628 226.232429 
L 169.617649 214.662113 
z
" style="stroke:#000000;"/>
    <path clip-path="url(#pa2e652c80a)" d="M 178.470326 217.076587 
L 169.944628 226.232429 
L 176.322669 226.109241 
z
" style="stroke:#000000;"/>
    <path clip-path="url(#pa2e652c80a)" d="M 175.994041 214.567016 
L 171.200999 205.701197 
L 177.585367 205.627683 
z
" style="stroke:#000000;"/>
    <path clip-path="url(#pa2e652c80a)" d="M 171.200999 205.701197 
L 175.994041 214.567016 
L 169.617649 214.662113 
z
" style="stroke:#000000;"/>
    <path clip-path="url(#pa2e652c80a)" d="M 172.081528 137.092791 
L 176.322669 128.144815 
L 169.944628 128.029892 
z
" style="stroke:#000000;"/>
    <path clip-path="url(#pa2e652c80a)" d="M 169.617649 139.598899 
L 177.585367 148.631372 
L 171.200999 148.566147 
z
" style="stroke:#000000;"/>
    <path clip-path="url(#pa2e652c80a)" d="M 176.322669 128.144815 
L 172.081528 137.092791 
L 178.470326 137.185972 
z
" style="stroke:#000000;"/>
    <path clip-path="url(#pa2e652c80a)" d="M 178.738321 157.9321 
L 171.200999 148.566147 
L 177.585367 148.631372 
z
" style="stroke:#000000;"/>
    <path clip-path="url(#pa2e652c80a)" d="M 177.585367 205.627683 
L 180.173205 207.543041 
L 178.470326 217.076587 
z
" style="stroke:#000000;"/>
    <path clip-path="url(#pa2e652c80a)" d="M 180.173205 146.72626 
L 177.585367 148.631372 
L 178.470326 137.185972 
z
" style="stroke:#000000;"/>
    <path clip-path="url(#pa2e652c80a)" d="M 180.173205 207.543041 
L 177.585367 205.627683 
L 178.738321 196.331521 
z
" style="stroke:#000000;"/>
    <path clip-path="url(#pa2e652c80a)" d="M 177.585367 148.631372 
L 180.173205 146.72626 
L 178.738321 157.9321 
z
" style="stroke:#000000;"/>
    <path clip-path="url(#pa2e652c80a)" d="M 169.617649 139.598899 
L 172.081528 137.092791 
L 169.944628 128.029892 
z
" style="stroke:#000000;"/>
    <path clip-path="url(#pa2e652c80a)" d="M 172.081528 217.178074 
L 169.617649 214.662113 
L 169.944628 226.232429 
z
" style="stroke:#000000;"/>
    <path clip-path="url(#pa2e652c80a)" d="M 177.585367 205.627683 
L 172.348183 196.382474 
L 178.738321 196.331521 
z
" style="stroke:#000000;"/>
    <path clip-path="url(#pa2e652c80a)" d="M 169.944628 226.232429 
L 178.470326 217.076587 
L 172.081528 217.178074 
z
" style="stroke:#000000;"/>
    <path clip-path="url(#pa2e652c80a)" d="M 172.348183 196.382474 
L 177.585367 205.627683 
L 171.200999 205.701197 
z
" style="stroke:#000000;"/>
    <path clip-path="url(#pa2e652c80a)" d="M 172.081528 137.092791 
L 169.617649 139.598899 
L 171.200999 148.566147 
z
" style="stroke:#000000;"/>
    <path clip-path="url(#pa2e652c80a)" d="M 169.617649 214.662113 
L 172.081528 217.178074 
L 171.200999 205.701197 
z
" style="stroke:#000000;"/>
    <path clip-path="url(#pa2e652c80a)" d="M 179.436674 167.472618 
L 172.348183 157.889457 
L 178.738321 157.9321 
z
" style="stroke:#000000;"/>
    <path clip-path="url(#pa2e652c80a)" d="M 180.173205 207.543041 
L 172.081528 217.178074 
L 178.470326 217.076587 
z
" style="stroke:#000000;"/>
    <path clip-path="url(#pa2e652c80a)" d="M 171.200999 148.566147 
L 178.738321 157.9321 
L 172.348183 157.889457 
z
" style="stroke:#000000;"/>
    <path clip-path="url(#pa2e652c80a)" d="M 181.407261 197.62563 
L 178.738321 196.331521 
L 179.436674 186.793768 
z
" style="stroke:#000000;"/>
    <path clip-path="url(#pa2e652c80a)" d="M 178.738321 157.9321 
L 181.407261 156.648557 
L 179.436674 167.472618 
z
" style="stroke:#000000;"/>
    <path clip-path="url(#pa2e652c80a)" d="M 178.738321 196.331521 
L 173.043046 186.821496 
L 179.436674 186.793768 
z
" style="stroke:#000000;"/>
    <path clip-path="url(#pa2e652c80a)" d="M 178.738321 196.331521 
L 181.407261 197.62563 
L 180.173205 207.543041 
z
" style="stroke:#000000;"/>
    <path clip-path="url(#pa2e652c80a)" d="M 181.407261 156.648557 
L 178.738321 157.9321 
L 180.173205 146.72626 
z
" style="stroke:#000000;"/>
    <path clip-path="url(#pa2e652c80a)" d="M 179.670577 177.133656 
L 173.043046 167.453213 
L 179.436674 167.472618 
z
" style="stroke:#000000;"/>
    <path clip-path="url(#pa2e652c80a)" d="M 179.436674 186.793768 
L 173.27578 177.13782 
L 179.670577 177.133656 
z
" style="stroke:#000000;"/>
    <path clip-path="url(#pa2e652c80a)" d="M 178.470326 137.185972 
L 173.775898 146.656186 
L 180.173205 146.72626 
z
" style="stroke:#000000;"/>
    <path clip-path="url(#pa2e652c80a)" d="M 173.043046 186.821496 
L 178.738321 196.331521 
L 172.348183 196.382474 
z
" style="stroke:#000000;"/>
    <path clip-path="url(#pa2e652c80a)" d="M 179.436674 167.472618 
L 182.15486 166.828964 
L 179.670577 177.133656 
z
" style="stroke:#000000;"/>
    <path clip-path="url(#pa2e652c80a)" d="M 182.15486 187.448183 
L 179.436674 186.793768 
L 179.670577 177.133656 
z
" style="stroke:#000000;"/>
    <path clip-path="url(#pa2e652c80a)" d="M 173.775898 146.656186 
L 178.470326 137.185972 
L 172.081528 137.092791 
z
" style="stroke:#000000;"/>
    <path clip-path="url(#pa2e652c80a)" d="M 172.348183 157.889457 
L 179.436674 167.472618 
L 173.043046 167.453213 
z
" style="stroke:#000000;"/>
    <path clip-path="url(#pa2e652c80a)" d="M 171.200999 148.566147 
L 173.775898 146.656186 
L 172.081528 137.092791 
z
" style="stroke:#000000;"/>
    <path clip-path="url(#pa2e652c80a)" d="M 173.775898 207.621453 
L 171.200999 205.701197 
L 172.081528 217.178074 
z
" style="stroke:#000000;"/>
    <path clip-path="url(#pa2e652c80a)" d="M 173.27578 177.13782 
L 179.436674 186.793768 
L 173.043046 186.821496 
z
" style="stroke:#000000;"/>
    <path clip-path="url(#pa2e652c80a)" d="M 173.775898 146.656186 
L 171.200999 148.566147 
L 172.348183 157.889457 
z
" style="stroke:#000000;"/>
    <path clip-path="url(#pa2e652c80a)" d="M 171.200999 205.701197 
L 173.775898 207.621453 
L 172.348183 196.382474 
z
" style="stroke:#000000;"/>
    <path clip-path="url(#pa2e652c80a)" d="M 173.043046 167.453213 
L 179.670577 177.133656 
L 173.27578 177.13782 
z
" style="stroke:#000000;"/>
    <path clip-path="url(#pa2e652c80a)" d="M 179.436674 186.793768 
L 182.15486 187.448183 
L 181.407261 197.62563 
z
" style="stroke:#000000;"/>
    <path clip-path="url(#pa2e652c80a)" d="M 182.15486 166.828964 
L 179.436674 167.472618 
L 181.407261 156.648557 
z
" style="stroke:#000000;"/>
    <path clip-path="url(#pa2e652c80a)" d="M 172.081528 217.178074 
L 180.173205 207.543041 
L 173.775898 207.621453 
z
" style="stroke:#000000;"/>
    <path clip-path="url(#pa2e652c80a)" d="M 181.407261 197.62563 
L 173.775898 207.621453 
L 180.173205 207.543041 
z
" style="stroke:#000000;"/>
    <path clip-path="url(#pa2e652c80a)" d="M 179.670577 177.133656 
L 182.405256 177.139069 
L 182.15486 187.448183 
z
" style="stroke:#000000;"/>
    <path clip-path="url(#pa2e652c80a)" d="M 182.405256 177.139069 
L 179.670577 177.133656 
L 182.15486 166.828964 
z
" style="stroke:#000000;"/>
    <path clip-path="url(#pa2e652c80a)" d="M 180.173205 146.72626 
L 175.003797 156.602643 
L 181.407261 156.648557 
z
" style="stroke:#000000;"/>
    <path clip-path="url(#pa2e652c80a)" d="M 175.003797 156.602643 
L 172.348183 157.889457 
L 173.043046 167.453213 
z
" style="stroke:#000000;"/>
    <path clip-path="url(#pa2e652c80a)" d="M 172.348183 196.382474 
L 175.003797 197.679906 
L 173.043046 186.821496 
z
" style="stroke:#000000;"/>
    <path clip-path="url(#pa2e652c80a)" d="M 175.003797 156.602643 
L 180.173205 146.72626 
L 173.775898 146.656186 
z
" style="stroke:#000000;"/>
    <path clip-path="url(#pa2e652c80a)" d="M 172.82395 114.074988 
L 186.078596 103.829102 
L 179.216478 114.22425 
z
" style="stroke:#000000;"/>
    <path clip-path="url(#pa2e652c80a)" d="M 186.078596 143.460042 
L 172.82395 114.074988 
L 179.216478 114.22425 
z
" style="stroke:#000000;"/>
    <path clip-path="url(#pa2e652c80a)" d="M 172.348183 157.889457 
L 175.003797 156.602643 
L 173.775898 146.656186 
z
" style="stroke:#000000;"/>
    <path clip-path="url(#pa2e652c80a)" d="M 175.003797 197.679906 
L 172.348183 196.382474 
L 173.775898 207.621453 
z
" style="stroke:#000000;"/>
    <path clip-path="url(#pa2e652c80a)" d="M 186.078596 133.552307 
L 179.216478 114.22425 
L 181.491771 115.294563 
z
" style="stroke:#000000;"/>
    <path clip-path="url(#pa2e652c80a)" d="M 186.078596 103.829102 
L 181.491771 115.294563 
L 179.216478 114.22425 
z
" style="stroke:#000000;"/>
    <path clip-path="url(#pa2e652c80a)" d="M 182.15486 187.448183 
L 175.003797 197.679906 
L 181.407261 197.62563 
z
" style="stroke:#000000;"/>
    <path clip-path="url(#pa2e652c80a)" d="M 173.775898 207.621453 
L 181.407261 197.62563 
L 175.003797 197.679906 
z
" style="stroke:#000000;"/>
    <path clip-path="url(#pa2e652c80a)" d="M 173.043046 186.821496 
L 175.74767 187.4776 
L 173.27578 177.13782 
z
" style="stroke:#000000;"/>
    <path clip-path="url(#pa2e652c80a)" d="M 175.74767 166.807924 
L 173.043046 167.453213 
L 173.27578 177.13782 
z
" style="stroke:#000000;"/>
    <path clip-path="url(#pa2e652c80a)" d="M 181.407261 156.648557 
L 175.74767 166.807924 
L 182.15486 166.828964 
z
" style="stroke:#000000;"/>
    <path clip-path="url(#pa2e652c80a)" d="M 182.405256 177.139069 
L 175.74767 187.4776 
L 182.15486 187.448183 
z
" style="stroke:#000000;"/>
    <path clip-path="url(#pa2e652c80a)" d="M 182.15486 166.828964 
L 175.996818 177.14326 
L 182.405256 177.139069 
z
" style="stroke:#000000;"/>
    <path clip-path="url(#pa2e652c80a)" d="M 175.74767 166.807924 
L 181.407261 156.648557 
L 175.003797 156.602643 
z
" style="stroke:#000000;"/>
    <path clip-path="url(#pa2e652c80a)" d="M 173.043046 167.453213 
L 175.74767 166.807924 
L 175.003797 156.602643 
z
" style="stroke:#000000;"/>
    <path clip-path="url(#pa2e652c80a)" d="M 175.74767 187.4776 
L 173.043046 186.821496 
L 175.003797 197.679906 
z
" style="stroke:#000000;"/>
    <path clip-path="url(#pa2e652c80a)" d="M 175.003797 197.679906 
L 182.15486 187.448183 
L 175.74767 187.4776 
z
" style="stroke:#000000;"/>
    <path clip-path="url(#pa2e652c80a)" d="M 173.27578 177.13782 
L 175.996818 177.14326 
L 175.74767 166.807924 
z
" style="stroke:#000000;"/>
    <path clip-path="url(#pa2e652c80a)" d="M 175.996818 177.14326 
L 173.27578 177.13782 
L 175.74767 187.4776 
z
" style="stroke:#000000;"/>
    <path clip-path="url(#pa2e652c80a)" d="M 175.996818 177.14326 
L 182.15486 166.828964 
L 175.74767 166.807924 
z
" style="stroke:#000000;"/>
    <path clip-path="url(#pa2e652c80a)" d="M 175.74767 187.4776 
L 182.405256 177.139069 
L 175.996818 177.14326 
z
" style="stroke:#000000;"/>
    <path clip-path="url(#pa2e652c80a)" d="M 179.216478 114.22425 
L 186.078596 133.552307 
L 186.078596 143.460042 
z
" style="stroke:#000000;"/>
    <path clip-path="url(#pa2e652c80a)" d="M 175.087885 115.147524 
L 179.651902 103.653095 
L 172.82395 114.074988 
z
" style="stroke:#000000;"/>
    <path clip-path="url(#pa2e652c80a)" d="M 172.82395 114.074988 
L 179.651902 133.449368 
L 175.087885 115.147524 
z
" style="stroke:#000000;"/>
    <path clip-path="url(#pa2e652c80a)" d="M 181.491771 115.294563 
L 179.651902 108.61914 
L 175.087885 115.147524 
z
" style="stroke:#000000;"/>
    <path clip-path="url(#pa2e652c80a)" d="M 179.651902 133.449368 
L 181.491771 115.294563 
L 175.087885 115.147524 
z
" style="stroke:#000000;"/>
    <path clip-path="url(#pa2e652c80a)" d="M 181.491771 115.294563 
L 186.078596 103.829102 
L 186.078596 108.78297 
z
" style="stroke:#000000;"/>
    <path clip-path="url(#pa2e652c80a)" d="M 186.078596 103.829102 
L 172.82395 114.074988 
L 179.651902 103.653095 
z
" style="stroke:#000000;"/>
    <path clip-path="url(#pa2e652c80a)" d="M 172.82395 114.074988 
L 186.078596 143.460042 
L 179.651902 143.381458 
z
" style="stroke:#000000;"/>
    <path clip-path="url(#pa2e652c80a)" d="M 179.651902 108.61914 
L 181.491771 115.294563 
L 186.078596 108.78297 
z
" style="stroke:#000000;"/>
    <path clip-path="url(#pa2e652c80a)" d="M 181.491771 115.294563 
L 179.651902 133.449368 
L 186.078596 133.552307 
z
" style="stroke:#000000;"/>
    <path clip-path="url(#pa2e652c80a)" d="M 179.651902 133.449368 
L 172.82395 114.074988 
L 179.651902 143.381458 
z
" style="stroke:#000000;"/>
    <path clip-path="url(#pa2e652c80a)" d="M 179.651902 103.653095 
L 175.087885 115.147524 
L 179.651902 108.61914 
z
" style="stroke:#000000;"/>
    <path clip-path="url(#pa2e652c80a)" d="M 186.078596 103.829102 
L 190.714387 114.652636 
L 186.078596 108.78297 
z
" style="stroke:#000000;"/>
    <path clip-path="url(#pa2e652c80a)" d="M 186.078596 133.552307 
L 193.05089 113.241599 
L 186.078596 143.460042 
z
" style="stroke:#000000;"/>
    <path clip-path="url(#pa2e652c80a)" d="M 186.078596 108.78297 
L 184.264762 114.502437 
L 179.651902 108.61914 
z
" style="stroke:#000000;"/>
    <path clip-path="url(#pa2e652c80a)" d="M 184.264762 114.502437 
L 186.078596 133.552307 
L 179.651902 133.449368 
z
" style="stroke:#000000;"/>
    <path clip-path="url(#pa2e652c80a)" d="M 179.651902 103.653095 
L 193.05089 113.241599 
L 186.078596 103.829102 
z
" style="stroke:#000000;"/>
    <path clip-path="url(#pa2e652c80a)" d="M 193.05089 113.241599 
L 179.651902 143.381458 
L 186.078596 143.460042 
z
" style="stroke:#000000;"/>
    <path clip-path="url(#pa2e652c80a)" d="M 179.651902 103.653095 
L 179.651902 108.61914 
L 184.264762 114.502437 
z
" style="stroke:#000000;"/>
    <path clip-path="url(#pa2e652c80a)" d="M 184.264762 114.502437 
L 186.078596 108.78297 
L 190.714387 114.652636 
z
" style="stroke:#000000;"/>
    <path clip-path="url(#pa2e652c80a)" d="M 186.078596 133.552307 
L 184.264762 114.502437 
L 190.714387 114.652636 
z
" style="stroke:#000000;"/>
    <path clip-path="url(#pa2e652c80a)" d="M 193.05089 113.241599 
L 186.078596 133.552307 
L 190.714387 114.652636 
z
" style="stroke:#000000;"/>
    <path clip-path="url(#pa2e652c80a)" d="M 190.714387 114.652636 
L 186.078596 103.829102 
L 193.05089 113.241599 
z
" style="stroke:#000000;"/>
    <path clip-path="url(#pa2e652c80a)" d="M 179.651902 133.449368 
L 179.651902 143.381458 
L 186.589754 113.087499 
z
" style="stroke:#000000;"/>
    <path clip-path="url(#pa2e652c80a)" d="M 190.038108 187.55779 
L 183.338245 177.157937 
L 189.783274 177.153675 
z
" style="stroke:#000000;"/>
    <path clip-path="url(#pa2e652c80a)" d="M 189.783274 177.153675 
L 183.591821 166.729142 
L 190.038108 166.750568 
z
" style="stroke:#000000;"/>
    <path clip-path="url(#pa2e652c80a)" d="M 189.783274 177.153675 
L 192.582589 177.159216 
L 190.038108 187.55779 
z
" style="stroke:#000000;"/>
    <path clip-path="url(#pa2e652c80a)" d="M 192.582589 177.159216 
L 189.783274 177.153675 
L 190.038108 166.750568 
z
" style="stroke:#000000;"/>
    <path clip-path="url(#pa2e652c80a)" d="M 190.800727 197.867019 
L 183.591821 187.587747 
L 190.038108 187.55779 
z
" style="stroke:#000000;"/>
    <path clip-path="url(#pa2e652c80a)" d="M 190.038108 187.55779 
L 192.823683 186.970321 
L 190.800727 197.867019 
z
" style="stroke:#000000;"/>
    <path clip-path="url(#pa2e652c80a)" d="M 192.823683 167.349066 
L 190.038108 166.750568 
L 190.800727 156.444359 
z
" style="stroke:#000000;"/>
    <path clip-path="url(#pa2e652c80a)" d="M 190.038108 166.750568 
L 184.350676 156.39744 
L 190.800727 156.444359 
z
" style="stroke:#000000;"/>
    <path clip-path="url(#pa2e652c80a)" d="M 183.591821 166.729142 
L 189.783274 177.153675 
L 183.338245 177.157937 
z
" style="stroke:#000000;"/>
    <path clip-path="url(#pa2e652c80a)" d="M 183.338245 177.157937 
L 190.038108 187.55779 
L 183.591821 187.587747 
z
" style="stroke:#000000;"/>
    <path clip-path="url(#pa2e652c80a)" d="M 184.350676 156.39744 
L 190.038108 166.750568 
L 183.591821 166.729142 
z
" style="stroke:#000000;"/>
    <path clip-path="url(#pa2e652c80a)" d="M 190.038108 166.750568 
L 192.823683 167.349066 
L 192.582589 177.159216 
z
" style="stroke:#000000;"/>
    <path clip-path="url(#pa2e652c80a)" d="M 192.823683 186.970321 
L 190.038108 187.55779 
L 192.582589 177.159216 
z
" style="stroke:#000000;"/>
    <path clip-path="url(#pa2e652c80a)" d="M 192.0654 207.985803 
L 184.350676 197.922483 
L 190.800727 197.867019 
z
" style="stroke:#000000;"/>
    <path clip-path="url(#pa2e652c80a)" d="M 183.591821 187.587747 
L 190.800727 197.867019 
L 184.350676 197.922483 
z
" style="stroke:#000000;"/>
    <path clip-path="url(#pa2e652c80a)" d="M 179.651902 103.653095 
L 184.264762 114.502437 
L 186.589754 113.087499 
z
" style="stroke:#000000;"/>
    <path clip-path="url(#pa2e652c80a)" d="M 179.651902 133.449368 
L 186.589754 113.087499 
L 184.264762 114.502437 
z
" style="stroke:#000000;"/>
    <path clip-path="url(#pa2e652c80a)" d="M 190.800727 197.867019 
L 193.545077 196.690946 
L 192.0654 207.985803 
z
" style="stroke:#000000;"/>
    <path clip-path="url(#pa2e652c80a)" d="M 193.545077 157.631298 
L 190.800727 156.444359 
L 192.0654 146.330582 
z
" style="stroke:#000000;"/>
    <path clip-path="url(#pa2e652c80a)" d="M 193.05089 113.241599 
L 179.651902 103.653095 
L 186.589754 113.087499 
z
" style="stroke:#000000;"/>
    <path clip-path="url(#pa2e652c80a)" d="M 179.651902 143.381458 
L 193.05089 113.241599 
L 186.589754 113.087499 
z
" style="stroke:#000000;"/>
    <path clip-path="url(#pa2e652c80a)" d="M 190.800727 156.444359 
L 185.609116 146.258561 
L 192.0654 146.330582 
z
" style="stroke:#000000;"/>
    <path clip-path="url(#pa2e652c80a)" d="M 193.545077 196.690946 
L 190.800727 197.867019 
L 192.823683 186.970321 
z
" style="stroke:#000000;"/>
    <path clip-path="url(#pa2e652c80a)" d="M 190.800727 156.444359 
L 193.545077 157.631298 
L 192.823683 167.349066 
z
" style="stroke:#000000;"/>
    <path clip-path="url(#pa2e652c80a)" d="M 185.609116 146.258561 
L 190.800727 156.444359 
L 184.350676 156.39744 
z
" style="stroke:#000000;"/>
    <path clip-path="url(#pa2e652c80a)" d="M 183.338245 177.157937 
L 186.123758 177.163506 
L 183.591821 166.729142 
z
" style="stroke:#000000;"/>
    <path clip-path="url(#pa2e652c80a)" d="M 186.123758 177.163506 
L 183.338245 177.157937 
L 183.591821 187.587747 
z
" style="stroke:#000000;"/>
    <path clip-path="url(#pa2e652c80a)" d="M 184.350676 197.922483 
L 192.0654 207.985803 
L 185.609116 208.066394 
z
" style="stroke:#000000;"/>
    <path clip-path="url(#pa2e652c80a)" d="M 193.822542 217.819307 
L 185.609116 208.066394 
L 192.0654 207.985803 
z
" style="stroke:#000000;"/>
    <path clip-path="url(#pa2e652c80a)" d="M 183.591821 166.729142 
L 186.363665 167.329054 
L 184.350676 156.39744 
z
" style="stroke:#000000;"/>
    <path clip-path="url(#pa2e652c80a)" d="M 186.363665 186.998919 
L 183.591821 187.587747 
L 184.350676 197.922483 
z
" style="stroke:#000000;"/>
    <path clip-path="url(#pa2e652c80a)" d="M 192.823683 167.349066 
L 186.123758 177.163506 
L 192.582589 177.159216 
z
" style="stroke:#000000;"/>
    <path clip-path="url(#pa2e652c80a)" d="M 194.74125 206.230132 
L 192.0654 207.985803 
L 193.545077 196.690946 
z
" style="stroke:#000000;"/>
    <path clip-path="url(#pa2e652c80a)" d="M 192.0654 146.330582 
L 194.74125 148.096847 
L 193.545077 157.631298 
z
" style="stroke:#000000;"/>
    <path clip-path="url(#pa2e652c80a)" d="M 192.582589 177.159216 
L 186.363665 186.998919 
L 192.823683 186.970321 
z
" style="stroke:#000000;"/>
    <path clip-path="url(#pa2e652c80a)" d="M 192.0654 207.985803 
L 194.74125 206.230132 
L 193.822542 217.819307 
z
" style="stroke:#000000;"/>
    <path clip-path="url(#pa2e652c80a)" d="M 194.74125 148.096847 
L 192.0654 146.330582 
L 193.822542 136.504034 
z
" style="stroke:#000000;"/>
    <path clip-path="url(#pa2e652c80a)" d="M 193.545077 157.631298 
L 186.363665 167.329054 
L 192.823683 167.349066 
z
" style="stroke:#000000;"/>
    <path clip-path="url(#pa2e652c80a)" d="M 192.0654 146.330582 
L 187.35761 136.407496 
L 193.822542 136.504034 
z
" style="stroke:#000000;"/>
    <path clip-path="url(#pa2e652c80a)" d="M 183.591821 187.587747 
L 186.363665 186.998919 
L 186.123758 177.163506 
z
" style="stroke:#000000;"/>
    <path clip-path="url(#pa2e652c80a)" d="M 186.363665 167.329054 
L 183.591821 166.729142 
L 186.123758 177.163506 
z
" style="stroke:#000000;"/>
    <path clip-path="url(#pa2e652c80a)" d="M 192.823683 186.970321 
L 187.08151 196.743669 
L 193.545077 196.690946 
z
" style="stroke:#000000;"/>
    <path clip-path="url(#pa2e652c80a)" d="M 187.35761 136.407496 
L 192.0654 146.330582 
L 185.609116 146.258561 
z
" style="stroke:#000000;"/>
    <path clip-path="url(#pa2e652c80a)" d="M 186.363665 186.998919 
L 192.582589 177.159216 
L 186.123758 177.163506 
z
" style="stroke:#000000;"/>
    <path clip-path="url(#pa2e652c80a)" d="M 186.123758 177.163506 
L 192.823683 167.349066 
L 186.363665 167.329054 
z
" style="stroke:#000000;"/>
    <path clip-path="url(#pa2e652c80a)" d="M 184.350676 156.39744 
L 187.08151 157.587174 
L 185.609116 146.258561 
z
" style="stroke:#000000;"/>
    <path clip-path="url(#pa2e652c80a)" d="M 187.08151 196.743669 
L 184.350676 197.922483 
L 185.609116 208.066394 
z
" style="stroke:#000000;"/>
    <path clip-path="url(#pa2e652c80a)" d="M 187.08151 196.743669 
L 192.823683 186.970321 
L 186.363665 186.998919 
z
" style="stroke:#000000;"/>
    <path clip-path="url(#pa2e652c80a)" d="M 187.08151 157.587174 
L 184.350676 156.39744 
L 186.363665 167.329054 
z
" style="stroke:#000000;"/>
    <path clip-path="url(#pa2e652c80a)" d="M 184.350676 197.922483 
L 187.08151 196.743669 
L 186.363665 186.998919 
z
" style="stroke:#000000;"/>
    <path clip-path="url(#pa2e652c80a)" d="M 194.74125 148.096847 
L 187.08151 157.587174 
L 193.545077 157.631298 
z
" style="stroke:#000000;"/>
    <path clip-path="url(#pa2e652c80a)" d="M 185.609116 208.066394 
L 193.822542 217.819307 
L 187.35761 217.924451 
z
" style="stroke:#000000;"/>
    <path clip-path="url(#pa2e652c80a)" d="M 186.363665 167.329054 
L 193.545077 157.631298 
L 187.08151 157.587174 
z
" style="stroke:#000000;"/>
    <path clip-path="url(#pa2e652c80a)" d="M 196.402908 215.497555 
L 193.822542 217.819307 
L 194.74125 206.230132 
z
" style="stroke:#000000;"/>
    <path clip-path="url(#pa2e652c80a)" d="M 193.822542 136.504034 
L 196.402908 138.836003 
L 194.74125 148.096847 
z
" style="stroke:#000000;"/>
    <path clip-path="url(#pa2e652c80a)" d="M 193.545077 196.690946 
L 188.271804 206.306612 
L 194.74125 206.230132 
z
" style="stroke:#000000;"/>
    <path clip-path="url(#pa2e652c80a)" d="M 196.058735 227.274023 
L 187.35761 217.924451 
L 193.822542 217.819307 
z
" style="stroke:#000000;"/>
    <path clip-path="url(#pa2e652c80a)" d="M 188.271804 206.306612 
L 193.545077 196.690946 
L 187.08151 196.743669 
z
" style="stroke:#000000;"/>
    <path clip-path="url(#pa2e652c80a)" d="M 193.822542 217.819307 
L 196.402908 215.497555 
L 196.058735 227.274023 
z
" style="stroke:#000000;"/>
    <path clip-path="url(#pa2e652c80a)" d="M 196.402908 138.836003 
L 193.822542 136.504034 
L 196.058735 127.058172 
z
" style="stroke:#000000;"/>
    <path clip-path="url(#pa2e652c80a)" d="M 188.271804 148.02899 
L 185.609116 146.258561 
L 187.08151 157.587174 
z
" style="stroke:#000000;"/>
    <path clip-path="url(#pa2e652c80a)" d="M 185.609116 208.066394 
L 188.271804 206.306612 
L 187.08151 196.743669 
z
" style="stroke:#000000;"/>
    <path clip-path="url(#pa2e652c80a)" d="M 185.609116 146.258561 
L 188.271804 148.02899 
L 187.35761 136.407496 
z
" style="stroke:#000000;"/>
    <path clip-path="url(#pa2e652c80a)" d="M 188.271804 206.306612 
L 185.609116 208.066394 
L 187.35761 217.924451 
z
" style="stroke:#000000;"/>
    <path clip-path="url(#pa2e652c80a)" d="M 187.08151 157.587174 
L 194.74125 148.096847 
L 188.271804 148.02899 
z
" style="stroke:#000000;"/>
    <path clip-path="url(#pa2e652c80a)" d="M 189.582824 126.937898 
L 193.822542 136.504034 
L 187.35761 136.407496 
z
" style="stroke:#000000;"/>
    <path clip-path="url(#pa2e652c80a)" d="M 196.402908 138.836003 
L 188.271804 148.02899 
L 194.74125 148.096847 
z
" style="stroke:#000000;"/>
    <path clip-path="url(#pa2e652c80a)" d="M 193.822542 136.504034 
L 189.582824 126.937898 
L 196.058735 127.058172 
z
" style="stroke:#000000;"/>
    <path clip-path="url(#pa2e652c80a)" d="M 194.74125 206.230132 
L 189.92531 215.597233 
L 196.402908 215.497555 
z
" style="stroke:#000000;"/>
    <path clip-path="url(#pa2e652c80a)" d="M 189.92531 215.597233 
L 194.74125 206.230132 
L 188.271804 206.306612 
z
" style="stroke:#000000;"/>
    <path clip-path="url(#pa2e652c80a)" d="M 187.35761 217.924451 
L 196.058735 227.274023 
L 189.582824 227.402946 
z
" style="stroke:#000000;"/>
    <path clip-path="url(#pa2e652c80a)" d="M 198.516999 224.404217 
L 196.058735 227.274023 
L 196.402908 215.497555 
z
" style="stroke:#000000;"/>
    <path clip-path="url(#pa2e652c80a)" d="M 196.058735 127.058172 
L 198.516999 129.937711 
L 196.402908 138.836003 
z
" style="stroke:#000000;"/>
    <path clip-path="url(#pa2e652c80a)" d="M 189.92531 138.74498 
L 187.35761 136.407496 
L 188.271804 148.02899 
z
" style="stroke:#000000;"/>
    <path clip-path="url(#pa2e652c80a)" d="M 187.35761 217.924451 
L 189.92531 215.597233 
L 188.271804 206.306612 
z
" style="stroke:#000000;"/>
    <path clip-path="url(#pa2e652c80a)" d="M 188.271804 148.02899 
L 196.402908 138.836003 
L 189.92531 138.74498 
z
" style="stroke:#000000;"/>
    <path clip-path="url(#pa2e652c80a)" d="M 187.35761 136.407496 
L 189.92531 138.74498 
L 189.582824 126.937898 
z
" style="stroke:#000000;"/>
    <path clip-path="url(#pa2e652c80a)" d="M 189.92531 215.597233 
L 187.35761 217.924451 
L 189.582824 227.402946 
z
" style="stroke:#000000;"/>
    <path clip-path="url(#pa2e652c80a)" d="M 198.756514 236.257605 
L 189.582824 227.402946 
L 196.058735 227.274023 
z
" style="stroke:#000000;"/>
    <path clip-path="url(#pa2e652c80a)" d="M 196.058735 227.274023 
L 198.516999 224.404217 
L 198.756514 236.257605 
z
" style="stroke:#000000;"/>
    <path clip-path="url(#pa2e652c80a)" d="M 198.516999 129.937711 
L 196.058735 127.058172 
L 198.756514 118.085271 
z
" style="stroke:#000000;"/>
    <path clip-path="url(#pa2e652c80a)" d="M 198.516999 129.937711 
L 189.92531 138.74498 
L 196.402908 138.836003 
z
" style="stroke:#000000;"/>
    <path clip-path="url(#pa2e652c80a)" d="M 192.267396 117.942246 
L 196.058735 127.058172 
L 189.582824 126.937898 
z
" style="stroke:#000000;"/>
    <path clip-path="url(#pa2e652c80a)" d="M 196.402908 215.497555 
L 192.029052 224.526345 
L 198.516999 224.404217 
z
" style="stroke:#000000;"/>
    <path clip-path="url(#pa2e652c80a)" d="M 192.029052 224.526345 
L 196.402908 215.497555 
L 189.92531 215.597233 
z
" style="stroke:#000000;"/>
    <path clip-path="url(#pa2e652c80a)" d="M 196.058735 127.058172 
L 192.267396 117.942246 
L 198.756514 118.085271 
z
" style="stroke:#000000;"/>
    <path clip-path="url(#pa2e652c80a)" d="M 192.029052 129.824281 
L 189.582824 126.937898 
L 189.92531 138.74498 
z
" style="stroke:#000000;"/>
    <path clip-path="url(#pa2e652c80a)" d="M 189.582824 227.402946 
L 192.029052 224.526345 
L 189.92531 215.597233 
z
" style="stroke:#000000;"/>
    <path clip-path="url(#pa2e652c80a)" d="M 189.92531 138.74498 
L 198.516999 129.937711 
L 192.029052 129.824281 
z
" style="stroke:#000000;"/>
    <path clip-path="url(#pa2e652c80a)" d="M 189.582824 227.402946 
L 198.756514 236.257605 
L 192.267396 236.409332 
z
" style="stroke:#000000;"/>
    <path clip-path="url(#pa2e652c80a)" d="M 198.756514 236.257605 
L 198.516999 224.404217 
L 201.066681 232.862922 
z
" style="stroke:#000000;"/>
    <path clip-path="url(#pa2e652c80a)" d="M 198.516999 129.937711 
L 198.756514 118.085271 
L 201.066681 121.489101 
z
" style="stroke:#000000;"/>
    <path clip-path="url(#pa2e652c80a)" d="M 189.582824 126.937898 
L 192.029052 129.824281 
L 192.267396 117.942246 
z
" style="stroke:#000000;"/>
    <path clip-path="url(#pa2e652c80a)" d="M 192.029052 224.526345 
L 189.582824 227.402946 
L 192.267396 236.409332 
z
" style="stroke:#000000;"/>
    <path clip-path="url(#pa2e652c80a)" d="M 201.066681 121.489101 
L 192.029052 129.824281 
L 198.516999 129.937711 
z
" style="stroke:#000000;"/>
    <path clip-path="url(#pa2e652c80a)" d="M 201.894449 244.680737 
L 192.267396 236.409332 
L 198.756514 236.257605 
z
" style="stroke:#000000;"/>
    <path clip-path="url(#pa2e652c80a)" d="M 198.756514 236.257605 
L 201.066681 232.862922 
L 201.894449 244.680737 
z
" style="stroke:#000000;"/>
    <path clip-path="url(#pa2e652c80a)" d="M 201.066681 121.489101 
L 198.756514 118.085271 
L 201.894449 109.674563 
z
" style="stroke:#000000;"/>
    <path clip-path="url(#pa2e652c80a)" d="M 194.566285 233.006557 
L 198.516999 224.404217 
L 192.029052 224.526345 
z
" style="stroke:#000000;"/>
    <path clip-path="url(#pa2e652c80a)" d="M 198.516999 224.404217 
L 194.566285 233.006557 
L 201.066681 232.862922 
z
" style="stroke:#000000;"/>
    <path clip-path="url(#pa2e652c80a)" d="M 195.39002 109.509974 
L 198.756514 118.085271 
L 192.267396 117.942246 
z
" style="stroke:#000000;"/>
    <path clip-path="url(#pa2e652c80a)" d="M 198.756514 118.085271 
L 195.39002 109.509974 
L 201.894449 109.674563 
z
" style="stroke:#000000;"/>
    <path clip-path="url(#pa2e652c80a)" d="M 192.267396 117.942246 
L 192.029052 129.824281 
L 194.566285 121.354213 
z
" style="stroke:#000000;"/>
    <path clip-path="url(#pa2e652c80a)" d="M 192.029052 224.526345 
L 192.267396 236.409332 
L 194.566285 233.006557 
z
" style="stroke:#000000;"/>
    <path clip-path="url(#pa2e652c80a)" d="M 192.029052 129.824281 
L 201.066681 121.489101 
L 194.566285 121.354213 
z
" style="stroke:#000000;"/>
    <path clip-path="url(#pa2e652c80a)" d="M 192.267396 236.409332 
L 201.894449 244.680737 
L 195.39002 244.85409 
z
" style="stroke:#000000;"/>
    <path clip-path="url(#pa2e652c80a)" d="M 201.894449 244.680737 
L 201.066681 232.862922 
L 204.031234 240.788093 
z
" style="stroke:#000000;"/>
    <path clip-path="url(#pa2e652c80a)" d="M 201.066681 121.489101 
L 201.894449 109.674563 
L 204.031234 113.575667 
z
" style="stroke:#000000;"/>
    <path clip-path="url(#pa2e652c80a)" d="M 192.267396 117.942246 
L 194.566285 121.354213 
L 195.39002 109.509974 
z
" style="stroke:#000000;"/>
    <path clip-path="url(#pa2e652c80a)" d="M 194.566285 233.006557 
L 192.267396 236.409332 
L 195.39002 244.85409 
z
" style="stroke:#000000;"/>
    <path clip-path="url(#pa2e652c80a)" d="M 204.031234 113.575667 
L 194.566285 121.354213 
L 201.066681 121.489101 
z
" style="stroke:#000000;"/>
    <path clip-path="url(#pa2e652c80a)" d="M 203.667178 248.560471 
L 195.39002 244.85409 
L 201.894449 244.680737 
z
" style="stroke:#000000;"/>
    <path clip-path="url(#pa2e652c80a)" d="M 201.894449 244.680737 
L 204.92352 247.315815 
L 203.667178 248.560471 
z
" style="stroke:#000000;"/>
    <path clip-path="url(#pa2e652c80a)" d="M 204.92352 107.051477 
L 201.894449 109.674563 
L 203.667178 105.801848 
z
" style="stroke:#000000;"/>
    <path clip-path="url(#pa2e652c80a)" d="M 197.516411 240.952098 
L 201.066681 232.862922 
L 194.566285 233.006557 
z
" style="stroke:#000000;"/>
    <path clip-path="url(#pa2e652c80a)" d="M 204.92352 247.315815 
L 201.894449 244.680737 
L 204.031234 240.788093 
z
" style="stroke:#000000;"/>
    <path clip-path="url(#pa2e652c80a)" d="M 201.894449 109.674563 
L 204.92352 107.051477 
L 204.031234 113.575667 
z
" style="stroke:#000000;"/>
    <path clip-path="url(#pa2e652c80a)" d="M 201.066681 232.862922 
L 197.516411 240.952098 
L 204.031234 240.788093 
z
" style="stroke:#000000;"/>
    <path clip-path="url(#pa2e652c80a)" d="M 201.894449 109.674563 
L 197.154124 105.627215 
L 203.667178 105.801848 
z
" style="stroke:#000000;"/>
    <path clip-path="url(#pa2e652c80a)" d="M 197.154124 105.627215 
L 201.894449 109.674563 
L 195.39002 109.509974 
z
" style="stroke:#000000;"/>
    <path clip-path="url(#pa2e652c80a)" d="M 194.566285 121.354213 
L 204.031234 113.575667 
L 197.516411 113.420469 
z
" style="stroke:#000000;"/>
    <path clip-path="url(#pa2e652c80a)" d="M 195.39002 109.509974 
L 194.566285 121.354213 
L 197.516411 113.420469 
z
" style="stroke:#000000;"/>
    <path clip-path="url(#pa2e652c80a)" d="M 194.566285 233.006557 
L 195.39002 244.85409 
L 197.516411 240.952098 
z
" style="stroke:#000000;"/>
    <path clip-path="url(#pa2e652c80a)" d="M 195.39002 244.85409 
L 203.667178 248.560471 
L 197.154124 248.743903 
z
" style="stroke:#000000;"/>
    <path clip-path="url(#pa2e652c80a)" d="M 197.154124 105.627215 
L 204.92352 107.051477 
L 203.667178 105.801848 
z
" style="stroke:#000000;"/>
    <path clip-path="url(#pa2e652c80a)" d="M 204.92352 247.315815 
L 204.031234 240.788093 
L 206.24688 245.615659 
z
" style="stroke:#000000;"/>
    <path clip-path="url(#pa2e652c80a)" d="M 204.031234 113.575667 
L 204.92352 107.051477 
L 206.24688 108.756873 
z
" style="stroke:#000000;"/>
    <path clip-path="url(#pa2e652c80a)" d="M 198.404364 247.496382 
L 203.667178 248.560471 
L 204.92352 247.315815 
z
" style="stroke:#000000;"/>
    <path clip-path="url(#pa2e652c80a)" d="M 197.516411 240.952098 
L 206.24688 245.615659 
L 204.031234 240.788093 
z
" style="stroke:#000000;"/>
    <path clip-path="url(#pa2e652c80a)" d="M 203.667178 248.560471 
L 198.404364 247.496382 
L 197.154124 248.743903 
z
" style="stroke:#000000;"/>
    <path clip-path="url(#pa2e652c80a)" d="M 195.39002 109.509974 
L 198.404364 106.879735 
L 197.154124 105.627215 
z
" style="stroke:#000000;"/>
    <path clip-path="url(#pa2e652c80a)" d="M 198.404364 247.496382 
L 195.39002 244.85409 
L 197.154124 248.743903 
z
" style="stroke:#000000;"/>
    <path clip-path="url(#pa2e652c80a)" d="M 198.404364 106.879735 
L 195.39002 109.509974 
L 197.516411 113.420469 
z
" style="stroke:#000000;"/>
    <path clip-path="url(#pa2e652c80a)" d="M 195.39002 244.85409 
L 198.404364 247.496382 
L 197.516411 240.952098 
z
" style="stroke:#000000;"/>
    <path clip-path="url(#pa2e652c80a)" d="M 204.92352 107.051477 
L 197.154124 105.627215 
L 198.404364 106.879735 
z
" style="stroke:#000000;"/>
    <path clip-path="url(#pa2e652c80a)" d="M 198.404364 106.879735 
L 206.24688 108.756873 
L 204.92352 107.051477 
z
" style="stroke:#000000;"/>
    <path clip-path="url(#pa2e652c80a)" d="M 199.721306 108.589164 
L 204.031234 113.575667 
L 206.24688 108.756873 
z
" style="stroke:#000000;"/>
    <path clip-path="url(#pa2e652c80a)" d="M 204.031234 113.575667 
L 199.721306 108.589164 
L 197.516411 113.420469 
z
" style="stroke:#000000;"/>
    <path clip-path="url(#pa2e652c80a)" d="M 199.721306 245.792219 
L 204.92352 247.315815 
L 206.24688 245.615659 
z
" style="stroke:#000000;"/>
    <path clip-path="url(#pa2e652c80a)" d="M 204.92352 247.315815 
L 199.721306 245.792219 
L 198.404364 247.496382 
z
" style="stroke:#000000;"/>
    <path clip-path="url(#pa2e652c80a)" d="M 206.24688 245.615659 
L 197.516411 240.952098 
L 199.721306 245.792219 
z
" style="stroke:#000000;"/>
    <path clip-path="url(#pa2e652c80a)" d="M 206.24688 108.756873 
L 198.404364 106.879735 
L 199.721306 108.589164 
z
" style="stroke:#000000;"/>
    <path clip-path="url(#pa2e652c80a)" d="M 198.404364 106.879735 
L 197.516411 113.420469 
L 199.721306 108.589164 
z
" style="stroke:#000000;"/>
    <path clip-path="url(#pa2e652c80a)" d="M 197.516411 240.952098 
L 198.404364 247.496382 
L 199.721306 245.792219 
z
" style="stroke:#000000;"/>
   </g>
  </g>
 </g>
 <defs>
  <clipPath id="pa2e652c80a">
   <rect height="271.8" width="279" x="45" y="43.2"/>
  </clipPath>
 </defs>
</svg>
