<?xml version="1.0" encoding="utf-8" standalone="no"?>
<!DOCTYPE svg PUBLIC "-//W3C//DTD SVG 1.1//EN"
  "http://www.w3.org/Graphics/SVG/1.1/DTD/svg11.dtd">
<!-- Created with matplotlib (https://matplotlib.org/) -->
<svg height="360pt" version="1.1" viewBox="0 0 360 360" width="360pt" xmlns="http://www.w3.org/2000/svg" xmlns:xlink="http://www.w3.org/1999/xlink">
 <defs>
  <style type="text/css">
*{stroke-linecap:butt;stroke-linejoin:round;}
  </style>
 </defs>
 <g id="figure_1">
  <g id="patch_1">
   <path d="M 45 315 
L 324 315 
L 324 43.2 
L 45 43.2 
z
" style="fill:#ffffff;"/>
  </g>
  <g id="axes_1">
   <g id="Poly3DCollection_1">
    <path clip-path="url(#paef8aea210)" d="M 202.737853 177.136802 
L 197.221253 177.136802 
L 197.724919 166.837863 
z
" style="stroke:#000000;"/>
    <path clip-path="url(#paef8aea210)" d="M 203.211325 167.455789 
L 197.724919 166.837863 
L 199.230435 156.651756 
z
" style="stroke:#000000;"/>
    <path clip-path="url(#paef8aea210)" d="M 197.221253 177.136802 
L 202.737853 177.136802 
L 197.724919 187.435742 
z
" style="stroke:#000000;"/>
    <path clip-path="url(#paef8aea210)" d="M 204.626479 157.88087 
L 199.230435 156.651756 
L 201.721291 146.690097 
z
" style="stroke:#000000;"/>
    <path clip-path="url(#paef8aea210)" d="M 203.211325 186.817815 
L 197.724919 187.435742 
L 202.737853 177.136802 
z
" style="stroke:#000000;"/>
    <path clip-path="url(#paef8aea210)" d="M 197.724919 187.435742 
L 203.211325 186.817815 
L 199.230435 197.621848 
z
" style="stroke:#000000;"/>
    <path clip-path="url(#paef8aea210)" d="M 197.724919 166.837863 
L 203.211325 167.455789 
L 202.737853 177.136802 
z
" style="stroke:#000000;"/>
    <path clip-path="url(#paef8aea210)" d="M 199.230435 156.651756 
L 204.626479 157.88087 
L 203.211325 167.455789 
z
" style="stroke:#000000;"/>
    <path clip-path="url(#paef8aea210)" d="M 206.967872 148.516879 
L 201.721291 146.690097 
L 205.170158 137.062053 
z
" style="stroke:#000000;"/>
    <path clip-path="url(#paef8aea210)" d="M 201.721291 146.690097 
L 206.967872 148.516879 
L 204.626479 157.88087 
z
" style="stroke:#000000;"/>
    <path clip-path="url(#paef8aea210)" d="M 210.209831 139.466484 
L 205.170158 137.062053 
L 209.539344 127.872968 
z
" style="stroke:#000000;"/>
    <path clip-path="url(#paef8aea210)" d="M 205.170158 137.062053 
L 210.209831 139.466484 
L 206.967872 148.516879 
z
" style="stroke:#000000;"/>
    <path clip-path="url(#paef8aea210)" d="M 209.539344 127.872968 
L 214.316829 130.828798 
L 210.209831 139.466484 
z
" style="stroke:#000000;"/>
    <path clip-path="url(#paef8aea210)" d="M 214.780886 119.223815 
L 214.316829 130.828798 
L 209.539344 127.872968 
z
" style="stroke:#000000;"/>
    <path clip-path="url(#paef8aea210)" d="M 214.780886 119.223815 
L 219.24389 122.698296 
L 214.316829 130.828798 
z
" style="stroke:#000000;"/>
    <path clip-path="url(#paef8aea210)" d="M 220.837378 111.208786 
L 219.24389 122.698296 
L 214.780886 119.223815 
z
" style="stroke:#000000;"/>
    <path clip-path="url(#paef8aea210)" d="M 226.643122 108.874865 
L 220.837378 111.208786 
L 224.239942 107.562476 
z
" style="stroke:#000000;"/>
    <path clip-path="url(#paef8aea210)" d="M 220.837378 111.208786 
L 224.937022 115.164476 
L 219.24389 122.698296 
z
" style="stroke:#000000;"/>
    <path clip-path="url(#paef8aea210)" d="M 220.837378 111.208786 
L 226.643122 108.874865 
L 224.937022 115.164476 
z
" style="stroke:#000000;"/>
    <path clip-path="url(#paef8aea210)" d="M 224.937022 115.164476 
L 226.643122 108.874865 
L 229.167151 110.631415 
z
" style="stroke:#000000;"/>
    <path clip-path="url(#paef8aea210)" d="M 204.626479 196.392735 
L 199.230435 197.621848 
L 203.211325 186.817815 
z
" style="stroke:#000000;"/>
    <path clip-path="url(#paef8aea210)" d="M 199.230435 197.621848 
L 204.626479 196.392735 
L 201.721291 207.583507 
z
" style="stroke:#000000;"/>
    <path clip-path="url(#paef8aea210)" d="M 206.967872 205.756725 
L 201.721291 207.583507 
L 204.626479 196.392735 
z
" style="stroke:#000000;"/>
    <path clip-path="url(#paef8aea210)" d="M 201.721291 207.583507 
L 206.967872 205.756725 
L 205.170158 217.211551 
z
" style="stroke:#000000;"/>
    <path clip-path="url(#paef8aea210)" d="M 210.209831 214.80712 
L 205.170158 217.211551 
L 206.967872 205.756725 
z
" style="stroke:#000000;"/>
    <path clip-path="url(#paef8aea210)" d="M 205.170158 217.211551 
L 210.209831 214.80712 
L 209.539344 226.400636 
z
" style="stroke:#000000;"/>
    <path clip-path="url(#paef8aea210)" d="M 214.316829 223.444806 
L 209.539344 226.400636 
L 210.209831 214.80712 
z
" style="stroke:#000000;"/>
    <path clip-path="url(#paef8aea210)" d="M 214.316829 223.444806 
L 214.780886 235.04979 
L 209.539344 226.400636 
z
" style="stroke:#000000;"/>
    <path clip-path="url(#paef8aea210)" d="M 219.24389 231.575309 
L 214.780886 235.04979 
L 214.316829 223.444806 
z
" style="stroke:#000000;"/>
    <path clip-path="url(#paef8aea210)" d="M 219.24389 231.575309 
L 220.837378 243.064818 
L 214.780886 235.04979 
z
" style="stroke:#000000;"/>
    <path clip-path="url(#paef8aea210)" d="M 224.937022 239.109129 
L 220.837378 243.064818 
L 219.24389 231.575309 
z
" style="stroke:#000000;"/>
    <path clip-path="url(#paef8aea210)" d="M 226.643122 245.398739 
L 220.837378 243.064818 
L 224.937022 239.109129 
z
" style="stroke:#000000;"/>
    <path clip-path="url(#paef8aea210)" d="M 220.837378 243.064818 
L 226.643122 245.398739 
L 224.239942 246.711128 
z
" style="stroke:#000000;"/>
    <path clip-path="url(#paef8aea210)" d="M 226.643122 245.398739 
L 224.937022 239.109129 
L 229.167151 243.642189 
z
" style="stroke:#000000;"/>
    <path clip-path="url(#paef8aea210)" d="M 153.08845 108.874865 
L 154.794549 115.164476 
L 150.564421 110.631415 
z
" style="stroke:#000000;"/>
    <path clip-path="url(#paef8aea210)" d="M 158.894194 111.208786 
L 153.08845 108.874865 
L 155.49163 107.562476 
z
" style="stroke:#000000;"/>
    <path clip-path="url(#paef8aea210)" d="M 153.08845 108.874865 
L 158.894194 111.208786 
L 154.794549 115.164476 
z
" style="stroke:#000000;"/>
    <path clip-path="url(#paef8aea210)" d="M 158.894194 111.208786 
L 160.487682 122.698296 
L 154.794549 115.164476 
z
" style="stroke:#000000;"/>
    <path clip-path="url(#paef8aea210)" d="M 164.950686 119.223815 
L 160.487682 122.698296 
L 158.894194 111.208786 
z
" style="stroke:#000000;"/>
    <path clip-path="url(#paef8aea210)" d="M 164.950686 119.223815 
L 165.414743 130.828798 
L 160.487682 122.698296 
z
" style="stroke:#000000;"/>
    <path clip-path="url(#paef8aea210)" d="M 170.192228 127.872968 
L 165.414743 130.828798 
L 164.950686 119.223815 
z
" style="stroke:#000000;"/>
    <path clip-path="url(#paef8aea210)" d="M 165.414743 130.828798 
L 170.192228 127.872968 
L 169.52174 139.466484 
z
" style="stroke:#000000;"/>
    <path clip-path="url(#paef8aea210)" d="M 174.561413 137.062053 
L 169.52174 139.466484 
L 170.192228 127.872968 
z
" style="stroke:#000000;"/>
    <path clip-path="url(#paef8aea210)" d="M 169.52174 139.466484 
L 174.561413 137.062053 
L 172.7637 148.516879 
z
" style="stroke:#000000;"/>
    <path clip-path="url(#paef8aea210)" d="M 178.010281 146.690097 
L 172.7637 148.516879 
L 174.561413 137.062053 
z
" style="stroke:#000000;"/>
    <path clip-path="url(#paef8aea210)" d="M 172.7637 148.516879 
L 178.010281 146.690097 
L 175.105093 157.88087 
z
" style="stroke:#000000;"/>
    <path clip-path="url(#paef8aea210)" d="M 175.105093 157.88087 
L 180.501136 156.651756 
L 176.520247 167.455789 
z
" style="stroke:#000000;"/>
    <path clip-path="url(#paef8aea210)" d="M 180.501136 156.651756 
L 175.105093 157.88087 
L 178.010281 146.690097 
z
" style="stroke:#000000;"/>
    <path clip-path="url(#paef8aea210)" d="M 154.794549 239.109129 
L 153.08845 245.398739 
L 150.564421 243.642189 
z
" style="stroke:#000000;"/>
    <path clip-path="url(#paef8aea210)" d="M 158.894194 243.064818 
L 153.08845 245.398739 
L 154.794549 239.109129 
z
" style="stroke:#000000;"/>
    <path clip-path="url(#paef8aea210)" d="M 153.08845 245.398739 
L 158.894194 243.064818 
L 155.49163 246.711128 
z
" style="stroke:#000000;"/>
    <path clip-path="url(#paef8aea210)" d="M 160.487682 231.575309 
L 158.894194 243.064818 
L 154.794549 239.109129 
z
" style="stroke:#000000;"/>
    <path clip-path="url(#paef8aea210)" d="M 160.487682 231.575309 
L 164.950686 235.04979 
L 158.894194 243.064818 
z
" style="stroke:#000000;"/>
    <path clip-path="url(#paef8aea210)" d="M 165.414743 223.444806 
L 164.950686 235.04979 
L 160.487682 231.575309 
z
" style="stroke:#000000;"/>
    <path clip-path="url(#paef8aea210)" d="M 170.192228 226.400636 
L 165.414743 223.444806 
L 169.52174 214.80712 
z
" style="stroke:#000000;"/>
    <path clip-path="url(#paef8aea210)" d="M 165.414743 223.444806 
L 170.192228 226.400636 
L 164.950686 235.04979 
z
" style="stroke:#000000;"/>
    <path clip-path="url(#paef8aea210)" d="M 174.561413 217.211551 
L 169.52174 214.80712 
L 172.7637 205.756725 
z
" style="stroke:#000000;"/>
    <path clip-path="url(#paef8aea210)" d="M 169.52174 214.80712 
L 174.561413 217.211551 
L 170.192228 226.400636 
z
" style="stroke:#000000;"/>
    <path clip-path="url(#paef8aea210)" d="M 178.010281 207.583507 
L 172.7637 205.756725 
L 175.105093 196.392735 
z
" style="stroke:#000000;"/>
    <path clip-path="url(#paef8aea210)" d="M 180.501136 197.621848 
L 175.105093 196.392735 
L 176.520247 186.817815 
z
" style="stroke:#000000;"/>
    <path clip-path="url(#paef8aea210)" d="M 172.7637 205.756725 
L 178.010281 207.583507 
L 174.561413 217.211551 
z
" style="stroke:#000000;"/>
    <path clip-path="url(#paef8aea210)" d="M 182.006653 187.435742 
L 176.520247 186.817815 
L 176.993718 177.136802 
z
" style="stroke:#000000;"/>
    <path clip-path="url(#paef8aea210)" d="M 182.006653 166.837863 
L 176.520247 167.455789 
L 180.501136 156.651756 
z
" style="stroke:#000000;"/>
    <path clip-path="url(#paef8aea210)" d="M 176.520247 167.455789 
L 182.006653 166.837863 
L 176.993718 177.136802 
z
" style="stroke:#000000;"/>
    <path clip-path="url(#paef8aea210)" d="M 175.105093 196.392735 
L 180.501136 197.621848 
L 178.010281 207.583507 
z
" style="stroke:#000000;"/>
    <path clip-path="url(#paef8aea210)" d="M 182.510319 177.136802 
L 176.993718 177.136802 
L 182.006653 166.837863 
z
" style="stroke:#000000;"/>
    <path clip-path="url(#paef8aea210)" d="M 176.520247 186.817815 
L 182.006653 187.435742 
L 180.501136 197.621848 
z
" style="stroke:#000000;"/>
    <path clip-path="url(#paef8aea210)" d="M 176.993718 177.136802 
L 182.510319 177.136802 
L 182.006653 187.435742 
z
" style="stroke:#000000;"/>
    <path clip-path="url(#paef8aea210)" d="M 189.865786 104.226327 
L 180.671452 115.31069 
L 176.074285 114.079094 
z
" style="stroke:#000000;"/>
    <path clip-path="url(#paef8aea210)" d="M 189.865786 104.226327 
L 189.865786 109.152711 
L 180.671452 115.31069 
z
" style="stroke:#000000;"/>
    <path clip-path="url(#paef8aea210)" d="M 189.865786 104.226327 
L 199.06012 115.31069 
L 189.865786 109.152711 
z
" style="stroke:#000000;"/>
    <path clip-path="url(#paef8aea210)" d="M 199.06012 115.31069 
L 189.865786 104.226327 
L 203.657287 114.079094 
z
" style="stroke:#000000;"/>
    <path clip-path="url(#paef8aea210)" d="M 189.865786 133.784628 
L 176.074285 114.079094 
L 180.671452 115.31069 
z
" style="stroke:#000000;"/>
    <path clip-path="url(#paef8aea210)" d="M 189.865786 133.784628 
L 189.865786 143.637395 
L 176.074285 114.079094 
z
" style="stroke:#000000;"/>
    <path clip-path="url(#paef8aea210)" d="M 203.657287 114.079094 
L 189.865786 133.784628 
L 199.06012 115.31069 
z
" style="stroke:#000000;"/>
    <path clip-path="url(#paef8aea210)" d="M 189.865786 133.784628 
L 203.657287 114.079094 
L 189.865786 143.637395 
z
" style="stroke:#000000;"/>
    <path clip-path="url(#paef8aea210)" d="M 178.010281 207.583507 
L 174.494224 217.416345 
L 174.561413 217.211551 
z
" style="stroke:#000000;"/>
    <path clip-path="url(#paef8aea210)" d="M 170.192228 226.400636 
L 164.836392 235.342012 
L 164.950686 235.04979 
z
" style="stroke:#000000;"/>
    <path clip-path="url(#paef8aea210)" d="M 164.950686 235.04979 
L 158.750216 243.396324 
L 158.894194 243.064818 
z
" style="stroke:#000000;"/>
    <path clip-path="url(#paef8aea210)" d="M 155.49163 107.562476 
L 158.750216 110.89404 
L 158.894194 111.208786 
z
" style="stroke:#000000;"/>
    <path clip-path="url(#paef8aea210)" d="M 158.894194 243.064818 
L 155.330976 247.060505 
L 155.49163 246.711128 
z
" style="stroke:#000000;"/>
    <path clip-path="url(#paef8aea210)" d="M 174.561413 217.211551 
L 170.103624 226.650468 
L 170.192228 226.400636 
z
" style="stroke:#000000;"/>
    <path clip-path="url(#paef8aea210)" d="M 158.894194 111.208786 
L 164.836392 118.948352 
L 164.950686 119.223815 
z
" style="stroke:#000000;"/>
    <path clip-path="url(#paef8aea210)" d="M 164.950686 119.223815 
L 170.103624 127.639897 
L 170.192228 127.872968 
z
" style="stroke:#000000;"/>
    <path clip-path="url(#paef8aea210)" d="M 180.501136 156.651756 
L 181.975954 166.795766 
L 182.006653 166.837863 
z
" style="stroke:#000000;"/>
    <path clip-path="url(#paef8aea210)" d="M 174.561413 137.062053 
L 177.959995 146.549252 
L 178.010281 146.690097 
z
" style="stroke:#000000;"/>
    <path clip-path="url(#paef8aea210)" d="M 170.192228 127.872968 
L 174.494224 136.874019 
L 174.561413 137.062053 
z
" style="stroke:#000000;"/>
    <path clip-path="url(#paef8aea210)" d="M 180.501136 197.621848 
L 177.959995 207.741112 
L 178.010281 207.583507 
z
" style="stroke:#000000;"/>
    <path clip-path="url(#paef8aea210)" d="M 182.006653 187.435742 
L 180.463058 197.730629 
L 180.501136 197.621848 
z
" style="stroke:#000000;"/>
    <path clip-path="url(#paef8aea210)" d="M 182.510319 177.136802 
L 181.975954 187.494598 
L 182.006653 187.435742 
z
" style="stroke:#000000;"/>
    <path clip-path="url(#paef8aea210)" d="M 178.010281 146.690097 
L 180.463058 156.559735 
L 180.501136 156.651756 
z
" style="stroke:#000000;"/>
    <path clip-path="url(#paef8aea210)" d="M 182.006653 166.837863 
L 182.482088 177.145182 
L 182.510319 177.136802 
z
" style="stroke:#000000;"/>
    <path clip-path="url(#paef8aea210)" d="M 165.414743 130.828798 
L 160.351515 122.439863 
L 160.487682 122.698296 
z
" style="stroke:#000000;"/>
    <path clip-path="url(#paef8aea210)" d="M 175.105093 196.392735 
L 176.462658 186.873644 
L 176.520247 186.817815 
z
" style="stroke:#000000;"/>
    <path clip-path="url(#paef8aea210)" d="M 169.52174 214.80712 
L 172.6877 205.905376 
L 172.7637 205.756725 
z
" style="stroke:#000000;"/>
    <path clip-path="url(#paef8aea210)" d="M 160.487682 231.575309 
L 165.302724 223.68015 
L 165.414743 223.444806 
z
" style="stroke:#000000;"/>
    <path clip-path="url(#paef8aea210)" d="M 176.520247 167.455789 
L 175.040568 157.794873 
L 175.105093 157.88087 
z
" style="stroke:#000000;"/>
    <path clip-path="url(#paef8aea210)" d="M 150.379617 243.976524 
L 154.794549 239.109129 
L 150.564421 243.642189 
z
" style="stroke:#000000;"/>
    <path clip-path="url(#paef8aea210)" d="M 172.7637 205.756725 
L 175.040568 196.495491 
L 175.105093 196.392735 
z
" style="stroke:#000000;"/>
    <path clip-path="url(#paef8aea210)" d="M 165.414743 223.444806 
L 169.42985 215.00013 
L 169.52174 214.80712 
z
" style="stroke:#000000;"/>
    <path clip-path="url(#paef8aea210)" d="M 154.630479 114.869118 
L 150.564421 110.631415 
L 154.794549 115.164476 
z
" style="stroke:#000000;"/>
    <path clip-path="url(#paef8aea210)" d="M 160.487682 122.698296 
L 154.630479 114.869118 
L 154.794549 115.164476 
z
" style="stroke:#000000;"/>
    <path clip-path="url(#paef8aea210)" d="M 172.7637 148.516879 
L 169.42985 139.290235 
L 169.52174 139.466484 
z
" style="stroke:#000000;"/>
    <path clip-path="url(#paef8aea210)" d="M 176.520247 186.817815 
L 176.93845 177.145182 
L 176.993718 177.136802 
z
" style="stroke:#000000;"/>
    <path clip-path="url(#paef8aea210)" d="M 154.794549 239.109129 
L 160.351515 231.850502 
L 160.487682 231.575309 
z
" style="stroke:#000000;"/>
    <path clip-path="url(#paef8aea210)" d="M 175.105093 157.88087 
L 172.6877 148.384988 
L 172.7637 148.516879 
z
" style="stroke:#000000;"/>
    <path clip-path="url(#paef8aea210)" d="M 176.993718 177.136802 
L 176.462658 167.41672 
L 176.520247 167.455789 
z
" style="stroke:#000000;"/>
    <path clip-path="url(#paef8aea210)" d="M 169.52174 139.466484 
L 165.302724 130.610214 
L 165.414743 130.828798 
z
" style="stroke:#000000;"/>
    <path clip-path="url(#paef8aea210)" d="M 201.721291 146.690097 
L 205.252988 136.874019 
L 205.170158 137.062053 
z
" style="stroke:#000000;"/>
    <path clip-path="url(#paef8aea210)" d="M 209.539344 127.872968 
L 214.91082 118.948352 
L 214.780886 119.223815 
z
" style="stroke:#000000;"/>
    <path clip-path="url(#paef8aea210)" d="M 214.780886 119.223815 
L 220.996995 110.89404 
L 220.837378 111.208786 
z
" style="stroke:#000000;"/>
    <path clip-path="url(#paef8aea210)" d="M 224.239942 246.711128 
L 220.996995 243.396324 
L 220.837378 243.064818 
z
" style="stroke:#000000;"/>
    <path clip-path="url(#paef8aea210)" d="M 220.837378 111.208786 
L 224.416236 107.229859 
L 224.239942 107.562476 
z
" style="stroke:#000000;"/>
    <path clip-path="url(#paef8aea210)" d="M 205.170158 137.062053 
L 209.643587 127.639897 
L 209.539344 127.872968 
z
" style="stroke:#000000;"/>
    <path clip-path="url(#paef8aea210)" d="M 220.837378 243.064818 
L 214.91082 235.342012 
L 214.780886 235.04979 
z
" style="stroke:#000000;"/>
    <path clip-path="url(#paef8aea210)" d="M 214.780886 235.04979 
L 209.643587 226.650468 
L 209.539344 226.400636 
z
" style="stroke:#000000;"/>
    <path clip-path="url(#paef8aea210)" d="M 199.230435 197.621848 
L 197.771258 187.494598 
L 197.724919 187.435742 
z
" style="stroke:#000000;"/>
    <path clip-path="url(#paef8aea210)" d="M 205.170158 217.211551 
L 201.787217 207.741112 
L 201.721291 207.583507 
z
" style="stroke:#000000;"/>
    <path clip-path="url(#paef8aea210)" d="M 209.539344 226.400636 
L 205.252988 217.416345 
L 205.170158 217.211551 
z
" style="stroke:#000000;"/>
    <path clip-path="url(#paef8aea210)" d="M 199.230435 156.651756 
L 201.787217 146.549252 
L 201.721291 146.690097 
z
" style="stroke:#000000;"/>
    <path clip-path="url(#paef8aea210)" d="M 197.724919 166.837863 
L 199.284153 156.559735 
L 199.230435 156.651756 
z
" style="stroke:#000000;"/>
    <path clip-path="url(#paef8aea210)" d="M 197.221253 177.136802 
L 197.771258 166.795766 
L 197.724919 166.837863 
z
" style="stroke:#000000;"/>
    <path clip-path="url(#paef8aea210)" d="M 201.721291 207.583507 
L 199.284153 197.730629 
L 199.230435 197.621848 
z
" style="stroke:#000000;"/>
    <path clip-path="url(#paef8aea210)" d="M 197.724919 187.435742 
L 197.265123 177.145182 
L 197.221253 177.136802 
z
" style="stroke:#000000;"/>
    <path clip-path="url(#paef8aea210)" d="M 214.316829 223.444806 
L 219.395697 231.850502 
L 219.24389 231.575309 
z
" style="stroke:#000000;"/>
    <path clip-path="url(#paef8aea210)" d="M 204.626479 157.88087 
L 203.284554 167.41672 
L 203.211325 167.455789 
z
" style="stroke:#000000;"/>
    <path clip-path="url(#paef8aea210)" d="M 210.209831 139.466484 
L 207.059512 148.384988 
L 206.967872 148.516879 
z
" style="stroke:#000000;"/>
    <path clip-path="url(#paef8aea210)" d="M 219.24389 122.698296 
L 214.444488 130.610214 
L 214.316829 130.828798 
z
" style="stroke:#000000;"/>
    <path clip-path="url(#paef8aea210)" d="M 203.211325 186.817815 
L 204.706644 196.495491 
L 204.626479 196.392735 
z
" style="stroke:#000000;"/>
    <path clip-path="url(#paef8aea210)" d="M 229.367594 110.31384 
L 224.937022 115.164476 
L 229.167151 110.631415 
z
" style="stroke:#000000;"/>
    <path clip-path="url(#paef8aea210)" d="M 206.967872 148.516879 
L 204.706644 157.794873 
L 204.626479 157.88087 
z
" style="stroke:#000000;"/>
    <path clip-path="url(#paef8aea210)" d="M 214.316829 130.828798 
L 210.317361 139.290235 
L 210.209831 139.466484 
z
" style="stroke:#000000;"/>
    <path clip-path="url(#paef8aea210)" d="M 225.116733 239.421246 
L 229.167151 243.642189 
L 224.937022 239.109129 
z
" style="stroke:#000000;"/>
    <path clip-path="url(#paef8aea210)" d="M 219.24389 231.575309 
L 225.116733 239.421246 
L 224.937022 239.109129 
z
" style="stroke:#000000;"/>
    <path clip-path="url(#paef8aea210)" d="M 206.967872 205.756725 
L 210.317361 215.00013 
L 210.209831 214.80712 
z
" style="stroke:#000000;"/>
    <path clip-path="url(#paef8aea210)" d="M 203.211325 167.455789 
L 202.808762 177.145182 
L 202.737853 177.136802 
z
" style="stroke:#000000;"/>
    <path clip-path="url(#paef8aea210)" d="M 224.937022 115.164476 
L 219.395697 122.439863 
L 219.24389 122.698296 
z
" style="stroke:#000000;"/>
    <path clip-path="url(#paef8aea210)" d="M 204.626479 196.392735 
L 207.059512 205.905376 
L 206.967872 205.756725 
z
" style="stroke:#000000;"/>
    <path clip-path="url(#paef8aea210)" d="M 202.737853 177.136802 
L 203.284554 186.873644 
L 203.211325 186.817815 
z
" style="stroke:#000000;"/>
    <path clip-path="url(#paef8aea210)" d="M 210.209831 214.80712 
L 214.444488 223.68015 
L 214.316829 223.444806 
z
" style="stroke:#000000;"/>
    <path clip-path="url(#paef8aea210)" d="M 226.831194 108.548681 
L 229.167151 110.631415 
L 226.643122 108.874865 
z
" style="stroke:#000000;"/>
    <path clip-path="url(#paef8aea210)" d="M 150.379617 110.31384 
L 153.08845 108.874865 
L 150.564421 110.631415 
z
" style="stroke:#000000;"/>
    <path clip-path="url(#paef8aea210)" d="M 226.831194 245.741684 
L 224.239942 246.711128 
L 226.643122 245.398739 
z
" style="stroke:#000000;"/>
    <path clip-path="url(#paef8aea210)" d="M 152.916018 108.548681 
L 155.49163 107.562476 
L 153.08845 108.874865 
z
" style="stroke:#000000;"/>
    <path clip-path="url(#paef8aea210)" d="M 155.330976 247.060505 
L 153.08845 245.398739 
L 155.49163 246.711128 
z
" style="stroke:#000000;"/>
    <path clip-path="url(#paef8aea210)" d="M 224.416236 107.229859 
L 226.643122 108.874865 
L 224.239942 107.562476 
z
" style="stroke:#000000;"/>
    <path clip-path="url(#paef8aea210)" d="M 152.916018 245.741684 
L 150.564421 243.642189 
L 153.08845 245.398739 
z
" style="stroke:#000000;"/>
    <path clip-path="url(#paef8aea210)" d="M 229.367594 243.976524 
L 226.643122 245.398739 
L 229.167151 243.642189 
z
" style="stroke:#000000;"/>
    <path clip-path="url(#paef8aea210)" d="M 176.01451 113.778417 
L 189.865786 104.226327 
L 176.074285 114.079094 
z
" style="stroke:#000000;"/>
    <path clip-path="url(#paef8aea210)" d="M 189.873606 103.87736 
L 203.657287 114.079094 
L 189.865786 104.226327 
z
" style="stroke:#000000;"/>
    <path clip-path="url(#paef8aea210)" d="M 203.657287 114.079094 
L 189.873606 143.481588 
L 189.865786 143.637395 
z
" style="stroke:#000000;"/>
    <path clip-path="url(#paef8aea210)" d="M 189.865786 143.637395 
L 176.01451 113.778417 
L 176.074285 114.079094 
z
" style="stroke:#000000;"/>
    <path clip-path="url(#paef8aea210)" d="M 199.113003 115.016049 
L 189.865786 109.152711 
L 199.06012 115.31069 
z
" style="stroke:#000000;"/>
    <path clip-path="url(#paef8aea210)" d="M 189.873606 108.827888 
L 180.671452 115.31069 
L 189.865786 109.152711 
z
" style="stroke:#000000;"/>
    <path clip-path="url(#paef8aea210)" d="M 180.671452 115.31069 
L 189.873606 133.580531 
L 189.865786 133.784628 
z
" style="stroke:#000000;"/>
    <path clip-path="url(#paef8aea210)" d="M 189.865786 133.784628 
L 199.113003 115.016049 
L 199.06012 115.31069 
z
" style="stroke:#000000;"/>
    <path clip-path="url(#paef8aea210)" d="M 174.494224 217.416345 
L 178.010281 207.583507 
L 177.959995 207.741112 
z
" style="stroke:#000000;"/>
    <path clip-path="url(#paef8aea210)" d="M 164.836392 235.342012 
L 170.192228 226.400636 
L 170.103624 226.650468 
z
" style="stroke:#000000;"/>
    <path clip-path="url(#paef8aea210)" d="M 158.750216 243.396324 
L 164.950686 235.04979 
L 164.836392 235.342012 
z
" style="stroke:#000000;"/>
    <path clip-path="url(#paef8aea210)" d="M 158.750216 110.89404 
L 155.49163 107.562476 
L 155.330976 107.229859 
z
" style="stroke:#000000;"/>
    <path clip-path="url(#paef8aea210)" d="M 155.330976 247.060505 
L 158.894194 243.064818 
L 158.750216 243.396324 
z
" style="stroke:#000000;"/>
    <path clip-path="url(#paef8aea210)" d="M 170.103624 226.650468 
L 174.561413 217.211551 
L 174.494224 217.416345 
z
" style="stroke:#000000;"/>
    <path clip-path="url(#paef8aea210)" d="M 164.836392 118.948352 
L 158.894194 111.208786 
L 158.750216 110.89404 
z
" style="stroke:#000000;"/>
    <path clip-path="url(#paef8aea210)" d="M 170.103624 127.639897 
L 164.950686 119.223815 
L 164.836392 118.948352 
z
" style="stroke:#000000;"/>
    <path clip-path="url(#paef8aea210)" d="M 181.975954 166.795766 
L 180.501136 156.651756 
L 180.463058 156.559735 
z
" style="stroke:#000000;"/>
    <path clip-path="url(#paef8aea210)" d="M 177.959995 146.549252 
L 174.561413 137.062053 
L 174.494224 136.874019 
z
" style="stroke:#000000;"/>
    <path clip-path="url(#paef8aea210)" d="M 174.494224 136.874019 
L 170.192228 127.872968 
L 170.103624 127.639897 
z
" style="stroke:#000000;"/>
    <path clip-path="url(#paef8aea210)" d="M 177.959995 207.741112 
L 180.501136 197.621848 
L 180.463058 197.730629 
z
" style="stroke:#000000;"/>
    <path clip-path="url(#paef8aea210)" d="M 180.463058 197.730629 
L 182.006653 187.435742 
L 181.975954 187.494598 
z
" style="stroke:#000000;"/>
    <path clip-path="url(#paef8aea210)" d="M 181.975954 187.494598 
L 182.510319 177.136802 
L 182.482088 177.145182 
z
" style="stroke:#000000;"/>
    <path clip-path="url(#paef8aea210)" d="M 180.463058 156.559735 
L 178.010281 146.690097 
L 177.959995 146.549252 
z
" style="stroke:#000000;"/>
    <path clip-path="url(#paef8aea210)" d="M 182.482088 177.145182 
L 182.006653 166.837863 
L 181.975954 166.795766 
z
" style="stroke:#000000;"/>
    <path clip-path="url(#paef8aea210)" d="M 160.351515 122.439863 
L 165.414743 130.828798 
L 165.302724 130.610214 
z
" style="stroke:#000000;"/>
    <path clip-path="url(#paef8aea210)" d="M 176.462658 186.873644 
L 175.105093 196.392735 
L 175.040568 196.495491 
z
" style="stroke:#000000;"/>
    <path clip-path="url(#paef8aea210)" d="M 172.6877 205.905376 
L 169.52174 214.80712 
L 169.42985 215.00013 
z
" style="stroke:#000000;"/>
    <path clip-path="url(#paef8aea210)" d="M 165.302724 223.68015 
L 160.487682 231.575309 
L 160.351515 231.850502 
z
" style="stroke:#000000;"/>
    <path clip-path="url(#paef8aea210)" d="M 175.040568 157.794873 
L 176.520247 167.455789 
L 176.462658 167.41672 
z
" style="stroke:#000000;"/>
    <path clip-path="url(#paef8aea210)" d="M 154.794549 239.109129 
L 150.379617 243.976524 
L 154.630479 239.421246 
z
" style="stroke:#000000;"/>
    <path clip-path="url(#paef8aea210)" d="M 175.040568 196.495491 
L 172.7637 205.756725 
L 172.6877 205.905376 
z
" style="stroke:#000000;"/>
    <path clip-path="url(#paef8aea210)" d="M 169.42985 215.00013 
L 165.414743 223.444806 
L 165.302724 223.68015 
z
" style="stroke:#000000;"/>
    <path clip-path="url(#paef8aea210)" d="M 150.564421 110.631415 
L 154.630479 114.869118 
L 150.379617 110.31384 
z
" style="stroke:#000000;"/>
    <path clip-path="url(#paef8aea210)" d="M 154.630479 114.869118 
L 160.487682 122.698296 
L 160.351515 122.439863 
z
" style="stroke:#000000;"/>
    <path clip-path="url(#paef8aea210)" d="M 169.42985 139.290235 
L 172.7637 148.516879 
L 172.6877 148.384988 
z
" style="stroke:#000000;"/>
    <path clip-path="url(#paef8aea210)" d="M 176.93845 177.145182 
L 176.520247 186.817815 
L 176.462658 186.873644 
z
" style="stroke:#000000;"/>
    <path clip-path="url(#paef8aea210)" d="M 160.351515 231.850502 
L 154.794549 239.109129 
L 154.630479 239.421246 
z
" style="stroke:#000000;"/>
    <path clip-path="url(#paef8aea210)" d="M 172.6877 148.384988 
L 175.105093 157.88087 
L 175.040568 157.794873 
z
" style="stroke:#000000;"/>
    <path clip-path="url(#paef8aea210)" d="M 176.462658 167.41672 
L 176.993718 177.136802 
L 176.93845 177.145182 
z
" style="stroke:#000000;"/>
    <path clip-path="url(#paef8aea210)" d="M 165.302724 130.610214 
L 169.52174 139.466484 
L 169.42985 139.290235 
z
" style="stroke:#000000;"/>
    <path clip-path="url(#paef8aea210)" d="M 205.252988 136.874019 
L 201.721291 146.690097 
L 201.787217 146.549252 
z
" style="stroke:#000000;"/>
    <path clip-path="url(#paef8aea210)" d="M 214.91082 118.948352 
L 209.539344 127.872968 
L 209.643587 127.639897 
z
" style="stroke:#000000;"/>
    <path clip-path="url(#paef8aea210)" d="M 220.996995 110.89404 
L 214.780886 119.223815 
L 214.91082 118.948352 
z
" style="stroke:#000000;"/>
    <path clip-path="url(#paef8aea210)" d="M 220.996995 243.396324 
L 224.239942 246.711128 
L 224.416236 247.060505 
z
" style="stroke:#000000;"/>
    <path clip-path="url(#paef8aea210)" d="M 224.416236 107.229859 
L 220.837378 111.208786 
L 220.996995 110.89404 
z
" style="stroke:#000000;"/>
    <path clip-path="url(#paef8aea210)" d="M 209.643587 127.639897 
L 205.170158 137.062053 
L 205.252988 136.874019 
z
" style="stroke:#000000;"/>
    <path clip-path="url(#paef8aea210)" d="M 214.91082 235.342012 
L 220.837378 243.064818 
L 220.996995 243.396324 
z
" style="stroke:#000000;"/>
    <path clip-path="url(#paef8aea210)" d="M 209.643587 226.650468 
L 214.780886 235.04979 
L 214.91082 235.342012 
z
" style="stroke:#000000;"/>
    <path clip-path="url(#paef8aea210)" d="M 197.771258 187.494598 
L 199.230435 197.621848 
L 199.284153 197.730629 
z
" style="stroke:#000000;"/>
    <path clip-path="url(#paef8aea210)" d="M 201.787217 207.741112 
L 205.170158 217.211551 
L 205.252988 217.416345 
z
" style="stroke:#000000;"/>
    <path clip-path="url(#paef8aea210)" d="M 205.252988 217.416345 
L 209.539344 226.400636 
L 209.643587 226.650468 
z
" style="stroke:#000000;"/>
    <path clip-path="url(#paef8aea210)" d="M 201.787217 146.549252 
L 199.230435 156.651756 
L 199.284153 156.559735 
z
" style="stroke:#000000;"/>
    <path clip-path="url(#paef8aea210)" d="M 199.284153 156.559735 
L 197.724919 166.837863 
L 197.771258 166.795766 
z
" style="stroke:#000000;"/>
    <path clip-path="url(#paef8aea210)" d="M 197.771258 166.795766 
L 197.221253 177.136802 
L 197.265123 177.145182 
z
" style="stroke:#000000;"/>
    <path clip-path="url(#paef8aea210)" d="M 199.284153 197.730629 
L 201.721291 207.583507 
L 201.787217 207.741112 
z
" style="stroke:#000000;"/>
    <path clip-path="url(#paef8aea210)" d="M 197.265123 177.145182 
L 197.724919 187.435742 
L 197.771258 187.494598 
z
" style="stroke:#000000;"/>
    <path clip-path="url(#paef8aea210)" d="M 219.395697 231.850502 
L 214.316829 223.444806 
L 214.444488 223.68015 
z
" style="stroke:#000000;"/>
    <path clip-path="url(#paef8aea210)" d="M 203.284554 167.41672 
L 204.626479 157.88087 
L 204.706644 157.794873 
z
" style="stroke:#000000;"/>
    <path clip-path="url(#paef8aea210)" d="M 207.059512 148.384988 
L 210.209831 139.466484 
L 210.317361 139.290235 
z
" style="stroke:#000000;"/>
    <path clip-path="url(#paef8aea210)" d="M 214.444488 130.610214 
L 219.24389 122.698296 
L 219.395697 122.439863 
z
" style="stroke:#000000;"/>
    <path clip-path="url(#paef8aea210)" d="M 204.706644 196.495491 
L 203.211325 186.817815 
L 203.284554 186.873644 
z
" style="stroke:#000000;"/>
    <path clip-path="url(#paef8aea210)" d="M 224.937022 115.164476 
L 229.367594 110.31384 
L 225.116733 114.869118 
z
" style="stroke:#000000;"/>
    <path clip-path="url(#paef8aea210)" d="M 204.706644 157.794873 
L 206.967872 148.516879 
L 207.059512 148.384988 
z
" style="stroke:#000000;"/>
    <path clip-path="url(#paef8aea210)" d="M 210.317361 139.290235 
L 214.316829 130.828798 
L 214.444488 130.610214 
z
" style="stroke:#000000;"/>
    <path clip-path="url(#paef8aea210)" d="M 229.167151 243.642189 
L 225.116733 239.421246 
L 229.367594 243.976524 
z
" style="stroke:#000000;"/>
    <path clip-path="url(#paef8aea210)" d="M 225.116733 239.421246 
L 219.24389 231.575309 
L 219.395697 231.850502 
z
" style="stroke:#000000;"/>
    <path clip-path="url(#paef8aea210)" d="M 210.317361 215.00013 
L 206.967872 205.756725 
L 207.059512 205.905376 
z
" style="stroke:#000000;"/>
    <path clip-path="url(#paef8aea210)" d="M 202.808762 177.145182 
L 203.211325 167.455789 
L 203.284554 167.41672 
z
" style="stroke:#000000;"/>
    <path clip-path="url(#paef8aea210)" d="M 219.395697 122.439863 
L 224.937022 115.164476 
L 225.116733 114.869118 
z
" style="stroke:#000000;"/>
    <path clip-path="url(#paef8aea210)" d="M 207.059512 205.905376 
L 204.626479 196.392735 
L 204.706644 196.495491 
z
" style="stroke:#000000;"/>
    <path clip-path="url(#paef8aea210)" d="M 203.284554 186.873644 
L 202.737853 177.136802 
L 202.808762 177.145182 
z
" style="stroke:#000000;"/>
    <path clip-path="url(#paef8aea210)" d="M 214.444488 223.68015 
L 210.209831 214.80712 
L 210.317361 215.00013 
z
" style="stroke:#000000;"/>
    <path clip-path="url(#paef8aea210)" d="M 229.167151 110.631415 
L 226.831194 108.548681 
L 229.367594 110.31384 
z
" style="stroke:#000000;"/>
    <path clip-path="url(#paef8aea210)" d="M 153.08845 108.874865 
L 150.379617 110.31384 
L 152.916018 108.548681 
z
" style="stroke:#000000;"/>
    <path clip-path="url(#paef8aea210)" d="M 224.239942 246.711128 
L 226.831194 245.741684 
L 224.416236 247.060505 
z
" style="stroke:#000000;"/>
    <path clip-path="url(#paef8aea210)" d="M 155.49163 107.562476 
L 152.916018 108.548681 
L 155.330976 107.229859 
z
" style="stroke:#000000;"/>
    <path clip-path="url(#paef8aea210)" d="M 153.08845 245.398739 
L 155.330976 247.060505 
L 152.916018 245.741684 
z
" style="stroke:#000000;"/>
    <path clip-path="url(#paef8aea210)" d="M 226.643122 108.874865 
L 224.416236 107.229859 
L 226.831194 108.548681 
z
" style="stroke:#000000;"/>
    <path clip-path="url(#paef8aea210)" d="M 150.564421 243.642189 
L 152.916018 245.741684 
L 150.379617 243.976524 
z
" style="stroke:#000000;"/>
    <path clip-path="url(#paef8aea210)" d="M 226.643122 245.398739 
L 229.367594 243.976524 
L 226.831194 245.741684 
z
" style="stroke:#000000;"/>
    <path clip-path="url(#paef8aea210)" d="M 189.865786 104.226327 
L 176.01451 113.778417 
L 189.873606 103.87736 
z
" style="stroke:#000000;"/>
    <path clip-path="url(#paef8aea210)" d="M 203.657287 114.079094 
L 189.873606 103.87736 
L 203.732701 113.778417 
z
" style="stroke:#000000;"/>
    <path clip-path="url(#paef8aea210)" d="M 189.873606 143.481588 
L 203.657287 114.079094 
L 203.732701 113.778417 
z
" style="stroke:#000000;"/>
    <path clip-path="url(#paef8aea210)" d="M 176.01451 113.778417 
L 189.865786 143.637395 
L 189.873606 143.481588 
z
" style="stroke:#000000;"/>
    <path clip-path="url(#paef8aea210)" d="M 189.865786 109.152711 
L 199.113003 115.016049 
L 189.873606 108.827888 
z
" style="stroke:#000000;"/>
    <path clip-path="url(#paef8aea210)" d="M 180.671452 115.31069 
L 189.873606 108.827888 
L 180.634209 115.016049 
z
" style="stroke:#000000;"/>
    <path clip-path="url(#paef8aea210)" d="M 189.873606 133.580531 
L 180.671452 115.31069 
L 180.634209 115.016049 
z
" style="stroke:#000000;"/>
    <path clip-path="url(#paef8aea210)" d="M 199.113003 115.016049 
L 189.865786 133.784628 
L 189.873606 133.580531 
z
" style="stroke:#000000;"/>
    <path clip-path="url(#paef8aea210)" d="M 202.808762 177.145182 
L 197.265123 177.145182 
L 197.771258 187.494598 
z
" style="stroke:#000000;"/>
    <path clip-path="url(#paef8aea210)" d="M 203.284554 186.873644 
L 197.771258 187.494598 
L 199.284153 197.730629 
z
" style="stroke:#000000;"/>
    <path clip-path="url(#paef8aea210)" d="M 197.265123 177.145182 
L 202.808762 177.145182 
L 197.771258 166.795766 
z
" style="stroke:#000000;"/>
    <path clip-path="url(#paef8aea210)" d="M 204.706644 196.495491 
L 199.284153 197.730629 
L 201.787217 207.741112 
z
" style="stroke:#000000;"/>
    <path clip-path="url(#paef8aea210)" d="M 203.284554 167.41672 
L 197.771258 166.795766 
L 202.808762 177.145182 
z
" style="stroke:#000000;"/>
    <path clip-path="url(#paef8aea210)" d="M 197.771258 166.795766 
L 203.284554 167.41672 
L 199.284153 156.559735 
z
" style="stroke:#000000;"/>
    <path clip-path="url(#paef8aea210)" d="M 197.771258 187.494598 
L 203.284554 186.873644 
L 202.808762 177.145182 
z
" style="stroke:#000000;"/>
    <path clip-path="url(#paef8aea210)" d="M 199.284153 197.730629 
L 204.706644 196.495491 
L 203.284554 186.873644 
z
" style="stroke:#000000;"/>
    <path clip-path="url(#paef8aea210)" d="M 207.059512 205.905376 
L 201.787217 207.741112 
L 205.252988 217.416345 
z
" style="stroke:#000000;"/>
    <path clip-path="url(#paef8aea210)" d="M 201.787217 207.741112 
L 207.059512 205.905376 
L 204.706644 196.495491 
z
" style="stroke:#000000;"/>
    <path clip-path="url(#paef8aea210)" d="M 210.317361 215.00013 
L 205.252988 217.416345 
L 209.643587 226.650468 
z
" style="stroke:#000000;"/>
    <path clip-path="url(#paef8aea210)" d="M 205.252988 217.416345 
L 210.317361 215.00013 
L 207.059512 205.905376 
z
" style="stroke:#000000;"/>
    <path clip-path="url(#paef8aea210)" d="M 209.643587 226.650468 
L 214.444488 223.68015 
L 210.317361 215.00013 
z
" style="stroke:#000000;"/>
    <path clip-path="url(#paef8aea210)" d="M 214.91082 235.342012 
L 214.444488 223.68015 
L 209.643587 226.650468 
z
" style="stroke:#000000;"/>
    <path clip-path="url(#paef8aea210)" d="M 214.91082 235.342012 
L 219.395697 231.850502 
L 214.444488 223.68015 
z
" style="stroke:#000000;"/>
    <path clip-path="url(#paef8aea210)" d="M 220.996995 243.396324 
L 219.395697 231.850502 
L 214.91082 235.342012 
z
" style="stroke:#000000;"/>
    <path clip-path="url(#paef8aea210)" d="M 226.831194 245.741684 
L 220.996995 243.396324 
L 224.416236 247.060505 
z
" style="stroke:#000000;"/>
    <path clip-path="url(#paef8aea210)" d="M 220.996995 243.396324 
L 225.116733 239.421246 
L 219.395697 231.850502 
z
" style="stroke:#000000;"/>
    <path clip-path="url(#paef8aea210)" d="M 220.996995 243.396324 
L 226.831194 245.741684 
L 225.116733 239.421246 
z
" style="stroke:#000000;"/>
    <path clip-path="url(#paef8aea210)" d="M 225.116733 239.421246 
L 226.831194 245.741684 
L 229.367594 243.976524 
z
" style="stroke:#000000;"/>
    <path clip-path="url(#paef8aea210)" d="M 204.706644 157.794873 
L 199.284153 156.559735 
L 203.284554 167.41672 
z
" style="stroke:#000000;"/>
    <path clip-path="url(#paef8aea210)" d="M 199.284153 156.559735 
L 204.706644 157.794873 
L 201.787217 146.549252 
z
" style="stroke:#000000;"/>
    <path clip-path="url(#paef8aea210)" d="M 207.059512 148.384988 
L 201.787217 146.549252 
L 204.706644 157.794873 
z
" style="stroke:#000000;"/>
    <path clip-path="url(#paef8aea210)" d="M 201.787217 146.549252 
L 207.059512 148.384988 
L 205.252988 136.874019 
z
" style="stroke:#000000;"/>
    <path clip-path="url(#paef8aea210)" d="M 210.317361 139.290235 
L 205.252988 136.874019 
L 207.059512 148.384988 
z
" style="stroke:#000000;"/>
    <path clip-path="url(#paef8aea210)" d="M 205.252988 136.874019 
L 210.317361 139.290235 
L 209.643587 127.639897 
z
" style="stroke:#000000;"/>
    <path clip-path="url(#paef8aea210)" d="M 214.444488 130.610214 
L 209.643587 127.639897 
L 210.317361 139.290235 
z
" style="stroke:#000000;"/>
    <path clip-path="url(#paef8aea210)" d="M 214.444488 130.610214 
L 214.91082 118.948352 
L 209.643587 127.639897 
z
" style="stroke:#000000;"/>
    <path clip-path="url(#paef8aea210)" d="M 219.395697 122.439863 
L 214.91082 118.948352 
L 214.444488 130.610214 
z
" style="stroke:#000000;"/>
    <path clip-path="url(#paef8aea210)" d="M 219.395697 122.439863 
L 220.996995 110.89404 
L 214.91082 118.948352 
z
" style="stroke:#000000;"/>
    <path clip-path="url(#paef8aea210)" d="M 225.116733 114.869118 
L 220.996995 110.89404 
L 219.395697 122.439863 
z
" style="stroke:#000000;"/>
    <path clip-path="url(#paef8aea210)" d="M 226.831194 108.548681 
L 220.996995 110.89404 
L 225.116733 114.869118 
z
" style="stroke:#000000;"/>
    <path clip-path="url(#paef8aea210)" d="M 220.996995 110.89404 
L 226.831194 108.548681 
L 224.416236 107.229859 
z
" style="stroke:#000000;"/>
    <path clip-path="url(#paef8aea210)" d="M 226.831194 108.548681 
L 225.116733 114.869118 
L 229.367594 110.31384 
z
" style="stroke:#000000;"/>
    <path clip-path="url(#paef8aea210)" d="M 152.916018 245.741684 
L 154.630479 239.421246 
L 150.379617 243.976524 
z
" style="stroke:#000000;"/>
    <path clip-path="url(#paef8aea210)" d="M 158.750216 243.396324 
L 152.916018 245.741684 
L 155.330976 247.060505 
z
" style="stroke:#000000;"/>
    <path clip-path="url(#paef8aea210)" d="M 152.916018 245.741684 
L 158.750216 243.396324 
L 154.630479 239.421246 
z
" style="stroke:#000000;"/>
    <path clip-path="url(#paef8aea210)" d="M 158.750216 243.396324 
L 160.351515 231.850502 
L 154.630479 239.421246 
z
" style="stroke:#000000;"/>
    <path clip-path="url(#paef8aea210)" d="M 164.836392 235.342012 
L 160.351515 231.850502 
L 158.750216 243.396324 
z
" style="stroke:#000000;"/>
    <path clip-path="url(#paef8aea210)" d="M 164.836392 235.342012 
L 165.302724 223.68015 
L 160.351515 231.850502 
z
" style="stroke:#000000;"/>
    <path clip-path="url(#paef8aea210)" d="M 170.103624 226.650468 
L 165.302724 223.68015 
L 164.836392 235.342012 
z
" style="stroke:#000000;"/>
    <path clip-path="url(#paef8aea210)" d="M 165.302724 223.68015 
L 170.103624 226.650468 
L 169.42985 215.00013 
z
" style="stroke:#000000;"/>
    <path clip-path="url(#paef8aea210)" d="M 174.494224 217.416345 
L 169.42985 215.00013 
L 170.103624 226.650468 
z
" style="stroke:#000000;"/>
    <path clip-path="url(#paef8aea210)" d="M 169.42985 215.00013 
L 174.494224 217.416345 
L 172.6877 205.905376 
z
" style="stroke:#000000;"/>
    <path clip-path="url(#paef8aea210)" d="M 177.959995 207.741112 
L 172.6877 205.905376 
L 174.494224 217.416345 
z
" style="stroke:#000000;"/>
    <path clip-path="url(#paef8aea210)" d="M 172.6877 205.905376 
L 177.959995 207.741112 
L 175.040568 196.495491 
z
" style="stroke:#000000;"/>
    <path clip-path="url(#paef8aea210)" d="M 175.040568 196.495491 
L 180.463058 197.730629 
L 176.462658 186.873644 
z
" style="stroke:#000000;"/>
    <path clip-path="url(#paef8aea210)" d="M 180.463058 197.730629 
L 175.040568 196.495491 
L 177.959995 207.741112 
z
" style="stroke:#000000;"/>
    <path clip-path="url(#paef8aea210)" d="M 154.630479 114.869118 
L 152.916018 108.548681 
L 150.379617 110.31384 
z
" style="stroke:#000000;"/>
    <path clip-path="url(#paef8aea210)" d="M 158.750216 110.89404 
L 152.916018 108.548681 
L 154.630479 114.869118 
z
" style="stroke:#000000;"/>
    <path clip-path="url(#paef8aea210)" d="M 152.916018 108.548681 
L 158.750216 110.89404 
L 155.330976 107.229859 
z
" style="stroke:#000000;"/>
    <path clip-path="url(#paef8aea210)" d="M 160.351515 122.439863 
L 158.750216 110.89404 
L 154.630479 114.869118 
z
" style="stroke:#000000;"/>
    <path clip-path="url(#paef8aea210)" d="M 160.351515 122.439863 
L 164.836392 118.948352 
L 158.750216 110.89404 
z
" style="stroke:#000000;"/>
    <path clip-path="url(#paef8aea210)" d="M 165.302724 130.610214 
L 164.836392 118.948352 
L 160.351515 122.439863 
z
" style="stroke:#000000;"/>
    <path clip-path="url(#paef8aea210)" d="M 170.103624 127.639897 
L 165.302724 130.610214 
L 169.42985 139.290235 
z
" style="stroke:#000000;"/>
    <path clip-path="url(#paef8aea210)" d="M 165.302724 130.610214 
L 170.103624 127.639897 
L 164.836392 118.948352 
z
" style="stroke:#000000;"/>
    <path clip-path="url(#paef8aea210)" d="M 174.494224 136.874019 
L 169.42985 139.290235 
L 172.6877 148.384988 
z
" style="stroke:#000000;"/>
    <path clip-path="url(#paef8aea210)" d="M 169.42985 139.290235 
L 174.494224 136.874019 
L 170.103624 127.639897 
z
" style="stroke:#000000;"/>
    <path clip-path="url(#paef8aea210)" d="M 177.959995 146.549252 
L 172.6877 148.384988 
L 175.040568 157.794873 
z
" style="stroke:#000000;"/>
    <path clip-path="url(#paef8aea210)" d="M 180.463058 156.559735 
L 175.040568 157.794873 
L 176.462658 167.41672 
z
" style="stroke:#000000;"/>
    <path clip-path="url(#paef8aea210)" d="M 172.6877 148.384988 
L 177.959995 146.549252 
L 174.494224 136.874019 
z
" style="stroke:#000000;"/>
    <path clip-path="url(#paef8aea210)" d="M 181.975954 166.795766 
L 176.462658 167.41672 
L 176.93845 177.145182 
z
" style="stroke:#000000;"/>
    <path clip-path="url(#paef8aea210)" d="M 181.975954 187.494598 
L 176.462658 186.873644 
L 180.463058 197.730629 
z
" style="stroke:#000000;"/>
    <path clip-path="url(#paef8aea210)" d="M 176.462658 186.873644 
L 181.975954 187.494598 
L 176.93845 177.145182 
z
" style="stroke:#000000;"/>
    <path clip-path="url(#paef8aea210)" d="M 175.040568 157.794873 
L 180.463058 156.559735 
L 177.959995 146.549252 
z
" style="stroke:#000000;"/>
    <path clip-path="url(#paef8aea210)" d="M 182.482088 177.145182 
L 176.93845 177.145182 
L 181.975954 187.494598 
z
" style="stroke:#000000;"/>
    <path clip-path="url(#paef8aea210)" d="M 176.462658 167.41672 
L 181.975954 166.795766 
L 180.463058 156.559735 
z
" style="stroke:#000000;"/>
    <path clip-path="url(#paef8aea210)" d="M 176.93845 177.145182 
L 182.482088 177.145182 
L 181.975954 166.795766 
z
" style="stroke:#000000;"/>
    <path clip-path="url(#paef8aea210)" d="M 189.873606 133.580531 
L 176.01451 113.778417 
L 189.873606 143.481588 
z
" style="stroke:#000000;"/>
    <path clip-path="url(#paef8aea210)" d="M 176.01451 113.778417 
L 189.873606 133.580531 
L 180.634209 115.016049 
z
" style="stroke:#000000;"/>
    <path clip-path="url(#paef8aea210)" d="M 203.732701 113.778417 
L 189.873606 133.580531 
L 189.873606 143.481588 
z
" style="stroke:#000000;"/>
    <path clip-path="url(#paef8aea210)" d="M 189.873606 133.580531 
L 203.732701 113.778417 
L 199.113003 115.016049 
z
" style="stroke:#000000;"/>
    <path clip-path="url(#paef8aea210)" d="M 189.873606 103.87736 
L 180.634209 115.016049 
L 189.873606 108.827888 
z
" style="stroke:#000000;"/>
    <path clip-path="url(#paef8aea210)" d="M 180.634209 115.016049 
L 189.873606 103.87736 
L 176.01451 113.778417 
z
" style="stroke:#000000;"/>
    <path clip-path="url(#paef8aea210)" d="M 199.113003 115.016049 
L 189.873606 103.87736 
L 189.873606 108.827888 
z
" style="stroke:#000000;"/>
    <path clip-path="url(#paef8aea210)" d="M 189.873606 103.87736 
L 199.113003 115.016049 
L 203.732701 113.778417 
z
" style="stroke:#000000;"/>
   </g>
  </g>
 </g>
 <defs>
  <clipPath id="paef8aea210">
   <rect height="271.8" width="279" x="45" y="43.2"/>
  </clipPath>
 </defs>
</svg>
