<?xml version="1.0" encoding="utf-8" standalone="no"?>
<!DOCTYPE svg PUBLIC "-//W3C//DTD SVG 1.1//EN"
  "http://www.w3.org/Graphics/SVG/1.1/DTD/svg11.dtd">
<!-- Created with matplotlib (https://matplotlib.org/) -->
<svg height="360pt" version="1.1" viewBox="0 0 360 360" width="360pt" xmlns="http://www.w3.org/2000/svg" xmlns:xlink="http://www.w3.org/1999/xlink">
 <defs>
  <style type="text/css">
*{stroke-linecap:butt;stroke-linejoin:round;}
  </style>
 </defs>
 <g id="figure_1">
  <g id="patch_1">
   <path d="M 45 315 
L 324 315 
L 324 43.2 
L 45 43.2 
z
" style="fill:#ffffff;"/>
  </g>
  <g id="axes_1">
   <g id="Poly3DCollection_1">
    <path clip-path="url(#p834770f45c)" d="M 221.170571 115.52928 
L 222.798511 109.29699 
L 225.205175 111.070099 
z
" style="stroke:#000000;"/>
    <path clip-path="url(#p834770f45c)" d="M 222.798511 244.954925 
L 221.170571 238.723624 
L 225.205175 243.180354 
z
" style="stroke:#000000;"/>
    <path clip-path="url(#p834770f45c)" d="M 217.254859 111.552868 
L 222.798511 109.29699 
L 221.170571 115.52928 
z
" style="stroke:#000000;"/>
    <path clip-path="url(#p834770f45c)" d="M 222.798511 244.954925 
L 217.254859 242.702414 
L 221.170571 238.723624 
z
" style="stroke:#000000;"/>
    <path clip-path="url(#p834770f45c)" d="M 222.798511 109.29699 
L 217.254859 111.552868 
L 220.505151 107.965278 
z
" style="stroke:#000000;"/>
    <path clip-path="url(#p834770f45c)" d="M 217.254859 242.702414 
L 222.798511 244.954925 
L 220.505151 246.28803 
z
" style="stroke:#000000;"/>
    <path clip-path="url(#p834770f45c)" d="M 217.254859 111.552868 
L 221.170571 115.52928 
L 215.731385 122.966547 
z
" style="stroke:#000000;"/>
    <path clip-path="url(#p834770f45c)" d="M 221.170571 238.723624 
L 217.254859 242.702414 
L 215.731385 231.28966 
z
" style="stroke:#000000;"/>
    <path clip-path="url(#p834770f45c)" d="M 227.278549 243.498876 
L 222.798511 244.954925 
L 225.205175 243.180354 
z
" style="stroke:#000000;"/>
    <path clip-path="url(#p834770f45c)" d="M 227.278549 110.767544 
L 221.170571 115.52928 
L 225.205175 111.070099 
z
" style="stroke:#000000;"/>
    <path clip-path="url(#p834770f45c)" d="M 224.861462 108.985965 
L 225.205175 111.070099 
L 222.798511 109.29699 
z
" style="stroke:#000000;"/>
    <path clip-path="url(#p834770f45c)" d="M 217.254859 111.552868 
L 215.731385 122.966547 
L 211.460057 119.467099 
z
" style="stroke:#000000;"/>
    <path clip-path="url(#p834770f45c)" d="M 215.731385 231.28966 
L 217.254859 242.702414 
L 211.460057 234.791704 
z
" style="stroke:#000000;"/>
    <path clip-path="url(#p834770f45c)" d="M 223.226466 239.021409 
L 225.205175 243.180354 
L 221.170571 238.723624 
z
" style="stroke:#000000;"/>
    <path clip-path="url(#p834770f45c)" d="M 224.861462 245.281931 
L 220.505151 246.28803 
L 222.798511 244.954925 
z
" style="stroke:#000000;"/>
    <path clip-path="url(#p834770f45c)" d="M 211.460057 119.467099 
L 215.731385 122.966547 
L 211.015556 131.018327 
z
" style="stroke:#000000;"/>
    <path clip-path="url(#p834770f45c)" d="M 215.731385 231.28966 
L 211.460057 234.791704 
L 211.015556 223.240746 
z
" style="stroke:#000000;"/>
    <path clip-path="url(#p834770f45c)" d="M 222.558162 107.647859 
L 222.798511 109.29699 
L 220.505151 107.965278 
z
" style="stroke:#000000;"/>
    <path clip-path="url(#p834770f45c)" d="M 217.254859 111.552868 
L 222.558162 107.647859 
L 220.505151 107.965278 
z
" style="stroke:#000000;"/>
    <path clip-path="url(#p834770f45c)" d="M 215.731385 231.28966 
L 223.226466 239.021409 
L 221.170571 238.723624 
z
" style="stroke:#000000;"/>
    <path clip-path="url(#p834770f45c)" d="M 211.460057 119.467099 
L 211.015556 131.018327 
L 206.435301 128.036367 
z
" style="stroke:#000000;"/>
    <path clip-path="url(#p834770f45c)" d="M 211.015556 223.240746 
L 211.460057 234.791704 
L 206.435301 226.225487 
z
" style="stroke:#000000;"/>
    <path clip-path="url(#p834770f45c)" d="M 220.505151 246.28803 
L 219.293766 243.019141 
L 217.254859 242.702414 
z
" style="stroke:#000000;"/>
    <path clip-path="url(#p834770f45c)" d="M 221.170571 115.52928 
L 217.763674 122.719501 
L 215.731385 122.966547 
z
" style="stroke:#000000;"/>
    <path clip-path="url(#p834770f45c)" d="M 206.435301 128.036367 
L 211.015556 131.018327 
L 207.07856 139.594156 
z
" style="stroke:#000000;"/>
    <path clip-path="url(#p834770f45c)" d="M 211.015556 223.240746 
L 206.435301 226.225487 
L 207.07856 214.667308 
z
" style="stroke:#000000;"/>
    <path clip-path="url(#p834770f45c)" d="M 225.205175 111.070099 
L 224.861462 108.985965 
L 227.278549 110.767544 
z
" style="stroke:#000000;"/>
    <path clip-path="url(#p834770f45c)" d="M 211.460057 119.467099 
L 219.293766 111.252154 
L 217.254859 111.552868 
z
" style="stroke:#000000;"/>
    <path clip-path="url(#p834770f45c)" d="M 225.205175 243.180354 
L 223.226466 239.021409 
L 227.278549 243.498876 
z
" style="stroke:#000000;"/>
    <path clip-path="url(#p834770f45c)" d="M 222.798511 244.954925 
L 227.278549 243.498876 
L 224.861462 245.281931 
z
" style="stroke:#000000;"/>
    <path clip-path="url(#p834770f45c)" d="M 211.015556 223.240746 
L 217.763674 231.552728 
L 215.731385 231.28966 
z
" style="stroke:#000000;"/>
    <path clip-path="url(#p834770f45c)" d="M 207.07856 139.594156 
L 202.239932 137.165287 
L 206.435301 128.036367 
z
" style="stroke:#000000;"/>
    <path clip-path="url(#p834770f45c)" d="M 202.239932 217.099116 
L 207.07856 214.667308 
L 206.435301 226.225487 
z
" style="stroke:#000000;"/>
    <path clip-path="url(#p834770f45c)" d="M 221.170571 115.52928 
L 227.278549 110.767544 
L 223.226466 115.247485 
z
" style="stroke:#000000;"/>
    <path clip-path="url(#p834770f45c)" d="M 217.254859 242.702414 
L 213.473774 235.071478 
L 211.460057 234.791704 
z
" style="stroke:#000000;"/>
    <path clip-path="url(#p834770f45c)" d="M 222.798511 109.29699 
L 222.558162 107.647859 
L 224.861462 108.985965 
z
" style="stroke:#000000;"/>
    <path clip-path="url(#p834770f45c)" d="M 202.239932 137.165287 
L 207.07856 139.594156 
L 203.966888 148.597545 
z
" style="stroke:#000000;"/>
    <path clip-path="url(#p834770f45c)" d="M 207.07856 214.667308 
L 202.239932 217.099116 
L 203.966888 205.665809 
z
" style="stroke:#000000;"/>
    <path clip-path="url(#p834770f45c)" d="M 215.731385 122.966547 
L 213.027338 130.80902 
L 211.015556 131.018327 
z
" style="stroke:#000000;"/>
    <path clip-path="url(#p834770f45c)" d="M 220.505151 246.28803 
L 224.861462 245.281931 
L 222.558162 246.621443 
z
" style="stroke:#000000;"/>
    <path clip-path="url(#p834770f45c)" d="M 219.293766 243.019141 
L 220.505151 246.28803 
L 222.558162 246.621443 
z
" style="stroke:#000000;"/>
    <path clip-path="url(#p834770f45c)" d="M 217.763674 122.719501 
L 221.170571 115.52928 
L 223.226466 115.247485 
z
" style="stroke:#000000;"/>
    <path clip-path="url(#p834770f45c)" d="M 203.966888 148.597545 
L 198.923835 146.750496 
L 202.239932 137.165287 
z
" style="stroke:#000000;"/>
    <path clip-path="url(#p834770f45c)" d="M 198.923835 207.515921 
L 203.966888 205.665809 
L 202.239932 217.099116 
z
" style="stroke:#000000;"/>
    <path clip-path="url(#p834770f45c)" d="M 198.923835 146.750496 
L 203.966888 148.597545 
L 201.717443 157.926455 
z
" style="stroke:#000000;"/>
    <path clip-path="url(#p834770f45c)" d="M 203.966888 205.665809 
L 198.923835 207.515921 
L 201.717443 196.338265 
z
" style="stroke:#000000;"/>
    <path clip-path="url(#p834770f45c)" d="M 206.435301 128.036367 
L 213.473774 119.20337 
L 211.460057 119.467099 
z
" style="stroke:#000000;"/>
    <path clip-path="url(#p834770f45c)" d="M 207.07856 214.667308 
L 213.027338 223.4661 
L 211.015556 223.240746 
z
" style="stroke:#000000;"/>
    <path clip-path="url(#p834770f45c)" d="M 222.558162 107.647859 
L 217.254859 111.552868 
L 219.293766 111.252154 
z
" style="stroke:#000000;"/>
    <path clip-path="url(#p834770f45c)" d="M 223.226466 239.021409 
L 215.731385 231.28966 
L 217.763674 231.552728 
z
" style="stroke:#000000;"/>
    <path clip-path="url(#p834770f45c)" d="M 211.015556 131.018327 
L 209.073193 139.42515 
L 207.07856 139.594156 
z
" style="stroke:#000000;"/>
    <path clip-path="url(#p834770f45c)" d="M 196.526432 156.683222 
L 201.717443 157.926455 
L 200.356988 167.474572 
z
" style="stroke:#000000;"/>
    <path clip-path="url(#p834770f45c)" d="M 201.717443 196.338265 
L 196.526432 197.584651 
L 200.356988 186.790975 
z
" style="stroke:#000000;"/>
    <path clip-path="url(#p834770f45c)" d="M 211.460057 234.791704 
L 208.427129 226.465106 
L 206.435301 226.225487 
z
" style="stroke:#000000;"/>
    <path clip-path="url(#p834770f45c)" d="M 201.717443 157.926455 
L 196.526432 156.683222 
L 198.923835 146.750496 
z
" style="stroke:#000000;"/>
    <path clip-path="url(#p834770f45c)" d="M 196.526432 197.584651 
L 201.717443 196.338265 
L 198.923835 207.515921 
z
" style="stroke:#000000;"/>
    <path clip-path="url(#p834770f45c)" d="M 200.356988 186.790975 
L 195.076407 187.418709 
L 199.90167 177.132912 
z
" style="stroke:#000000;"/>
    <path clip-path="url(#p834770f45c)" d="M 195.076407 166.850045 
L 200.356988 167.474572 
L 199.90167 177.132912 
z
" style="stroke:#000000;"/>
    <path clip-path="url(#p834770f45c)" d="M 213.473774 235.071478 
L 217.254859 242.702414 
L 219.293766 243.019141 
z
" style="stroke:#000000;"/>
    <path clip-path="url(#p834770f45c)" d="M 200.356988 167.474572 
L 195.076407 166.850045 
L 196.526432 156.683222 
z
" style="stroke:#000000;"/>
    <path clip-path="url(#p834770f45c)" d="M 195.076407 187.418709 
L 200.356988 186.790975 
L 196.526432 197.584651 
z
" style="stroke:#000000;"/>
    <path clip-path="url(#p834770f45c)" d="M 203.966888 205.665809 
L 209.073193 214.852385 
L 207.07856 214.667308 
z
" style="stroke:#000000;"/>
    <path clip-path="url(#p834770f45c)" d="M 223.226466 239.021409 
L 224.861462 245.281931 
L 227.278549 243.498876 
z
" style="stroke:#000000;"/>
    <path clip-path="url(#p834770f45c)" d="M 224.861462 108.985965 
L 223.226466 115.247485 
L 227.278549 110.767544 
z
" style="stroke:#000000;"/>
    <path clip-path="url(#p834770f45c)" d="M 213.027338 130.80902 
L 215.731385 122.966547 
L 217.763674 122.719501 
z
" style="stroke:#000000;"/>
    <path clip-path="url(#p834770f45c)" d="M 199.90167 177.132912 
L 194.591139 177.134524 
L 195.076407 166.850045 
z
" style="stroke:#000000;"/>
    <path clip-path="url(#p834770f45c)" d="M 194.591139 177.134524 
L 199.90167 177.132912 
L 195.076407 187.418709 
z
" style="stroke:#000000;"/>
    <path clip-path="url(#p834770f45c)" d="M 202.239932 137.165287 
L 208.427129 127.812823 
L 206.435301 128.036367 
z
" style="stroke:#000000;"/>
    <path clip-path="url(#p834770f45c)" d="M 207.07856 139.594156 
L 205.947948 148.470933 
L 203.966888 148.597545 
z
" style="stroke:#000000;"/>
    <path clip-path="url(#p834770f45c)" d="M 219.293766 111.252154 
L 211.460057 119.467099 
L 213.473774 119.20337 
z
" style="stroke:#000000;"/>
    <path clip-path="url(#p834770f45c)" d="M 217.763674 231.552728 
L 211.015556 223.240746 
L 213.027338 223.4661 
z
" style="stroke:#000000;"/>
    <path clip-path="url(#p834770f45c)" d="M 200.785784 114.228325 
L 187.494791 133.787609 
L 196.362432 115.409689 
z
" style="stroke:#000000;"/>
    <path clip-path="url(#p834770f45c)" d="M 196.362432 115.409689 
L 187.494791 104.231424 
L 200.785784 114.228325 
z
" style="stroke:#000000;"/>
    <path clip-path="url(#p834770f45c)" d="M 206.435301 226.225487 
L 204.213453 217.295833 
L 202.239932 217.099116 
z
" style="stroke:#000000;"/>
    <path clip-path="url(#p834770f45c)" d="M 201.717443 196.338265 
L 205.947948 205.80851 
L 203.966888 205.665809 
z
" style="stroke:#000000;"/>
    <path clip-path="url(#p834770f45c)" d="M 219.293766 243.019141 
L 224.861462 245.281931 
L 223.226466 239.021409 
z
" style="stroke:#000000;"/>
    <path clip-path="url(#p834770f45c)" d="M 224.861462 108.985965 
L 219.293766 111.252154 
L 223.226466 115.247485 
z
" style="stroke:#000000;"/>
    <path clip-path="url(#p834770f45c)" d="M 224.861462 245.281931 
L 219.293766 243.019141 
L 222.558162 246.621443 
z
" style="stroke:#000000;"/>
    <path clip-path="url(#p834770f45c)" d="M 219.293766 111.252154 
L 224.861462 108.985965 
L 222.558162 107.647859 
z
" style="stroke:#000000;"/>
    <path clip-path="url(#p834770f45c)" d="M 203.966888 148.597545 
L 203.688681 157.843834 
L 201.717443 157.926455 
z
" style="stroke:#000000;"/>
    <path clip-path="url(#p834770f45c)" d="M 200.356988 186.790975 
L 203.688681 196.436988 
L 201.717443 196.338265 
z
" style="stroke:#000000;"/>
    <path clip-path="url(#p834770f45c)" d="M 198.923835 146.750496 
L 204.213453 136.984669 
L 202.239932 137.165287 
z
" style="stroke:#000000;"/>
    <path clip-path="url(#p834770f45c)" d="M 208.427129 226.465106 
L 211.460057 234.791704 
L 213.473774 235.071478 
z
" style="stroke:#000000;"/>
    <path clip-path="url(#p834770f45c)" d="M 209.073193 139.42515 
L 211.015556 131.018327 
L 213.027338 130.80902 
z
" style="stroke:#000000;"/>
    <path clip-path="url(#p834770f45c)" d="M 201.717443 157.926455 
L 202.322282 167.437019 
L 200.356988 167.474572 
z
" style="stroke:#000000;"/>
    <path clip-path="url(#p834770f45c)" d="M 187.494791 133.787609 
L 200.785784 114.228325 
L 187.494791 143.63967 
z
" style="stroke:#000000;"/>
    <path clip-path="url(#p834770f45c)" d="M 219.293766 243.019141 
L 223.226466 239.021409 
L 217.763674 231.552728 
z
" style="stroke:#000000;"/>
    <path clip-path="url(#p834770f45c)" d="M 223.226466 115.247485 
L 219.293766 111.252154 
L 217.763674 122.719501 
z
" style="stroke:#000000;"/>
    <path clip-path="url(#p834770f45c)" d="M 199.90167 177.132912 
L 202.322282 186.844637 
L 200.356988 186.790975 
z
" style="stroke:#000000;"/>
    <path clip-path="url(#p834770f45c)" d="M 200.356988 167.474572 
L 201.864974 177.140968 
L 199.90167 177.132912 
z
" style="stroke:#000000;"/>
    <path clip-path="url(#p834770f45c)" d="M 202.239932 217.099116 
L 200.882863 207.66749 
L 198.923835 207.515921 
z
" style="stroke:#000000;"/>
    <path clip-path="url(#p834770f45c)" d="M 213.027338 223.4661 
L 207.07856 214.667308 
L 209.073193 214.852385 
z
" style="stroke:#000000;"/>
    <path clip-path="url(#p834770f45c)" d="M 213.473774 119.20337 
L 206.435301 128.036367 
L 208.427129 127.812823 
z
" style="stroke:#000000;"/>
    <path clip-path="url(#p834770f45c)" d="M 187.494791 104.231424 
L 196.362432 115.409689 
L 187.494791 109.157455 
z
" style="stroke:#000000;"/>
    <path clip-path="url(#p834770f45c)" d="M 196.526432 156.683222 
L 200.882863 146.615045 
L 198.923835 146.750496 
z
" style="stroke:#000000;"/>
    <path clip-path="url(#p834770f45c)" d="M 198.923835 207.515921 
L 198.474971 197.689355 
L 196.526432 197.584651 
z
" style="stroke:#000000;"/>
    <path clip-path="url(#p834770f45c)" d="M 219.293766 243.019141 
L 217.763674 231.552728 
L 213.473774 235.071478 
z
" style="stroke:#000000;"/>
    <path clip-path="url(#p834770f45c)" d="M 217.763674 122.719501 
L 219.293766 111.252154 
L 213.473774 119.20337 
z
" style="stroke:#000000;"/>
    <path clip-path="url(#p834770f45c)" d="M 205.947948 148.470933 
L 207.07856 139.594156 
L 209.073193 139.42515 
z
" style="stroke:#000000;"/>
    <path clip-path="url(#p834770f45c)" d="M 204.213453 217.295833 
L 206.435301 226.225487 
L 208.427129 226.465106 
z
" style="stroke:#000000;"/>
    <path clip-path="url(#p834770f45c)" d="M 209.073193 214.852385 
L 203.966888 205.665809 
L 205.947948 205.80851 
z
" style="stroke:#000000;"/>
    <path clip-path="url(#p834770f45c)" d="M 195.076407 166.850045 
L 198.474971 156.59465 
L 196.526432 156.683222 
z
" style="stroke:#000000;"/>
    <path clip-path="url(#p834770f45c)" d="M 196.526432 197.584651 
L 197.018598 187.47539 
L 195.076407 187.418709 
z
" style="stroke:#000000;"/>
    <path clip-path="url(#p834770f45c)" d="M 213.473774 235.071478 
L 217.763674 231.552728 
L 213.027338 223.4661 
z
" style="stroke:#000000;"/>
    <path clip-path="url(#p834770f45c)" d="M 217.763674 122.719501 
L 213.473774 119.20337 
L 213.027338 130.80902 
z
" style="stroke:#000000;"/>
    <path clip-path="url(#p834770f45c)" d="M 194.591139 177.134524 
L 197.018598 166.809505 
L 195.076407 166.850045 
z
" style="stroke:#000000;"/>
    <path clip-path="url(#p834770f45c)" d="M 208.427129 127.812823 
L 202.239932 137.165287 
L 204.213453 136.984669 
z
" style="stroke:#000000;"/>
    <path clip-path="url(#p834770f45c)" d="M 195.076407 187.418709 
L 196.531204 177.142596 
L 194.591139 177.134524 
z
" style="stroke:#000000;"/>
    <path clip-path="url(#p834770f45c)" d="M 203.688681 157.843834 
L 203.966888 148.597545 
L 205.947948 148.470933 
z
" style="stroke:#000000;"/>
    <path clip-path="url(#p834770f45c)" d="M 205.947948 205.80851 
L 201.717443 196.338265 
L 203.688681 196.436988 
z
" style="stroke:#000000;"/>
    <path clip-path="url(#p834770f45c)" d="M 198.310253 115.126073 
L 187.494791 109.157455 
L 196.362432 115.409689 
z
" style="stroke:#000000;"/>
    <path clip-path="url(#p834770f45c)" d="M 187.494791 133.787609 
L 198.310253 115.126073 
L 196.362432 115.409689 
z
" style="stroke:#000000;"/>
    <path clip-path="url(#p834770f45c)" d="M 187.494791 104.231424 
L 187.494791 109.157455 
L 178.599123 115.219998 
z
" style="stroke:#000000;"/>
    <path clip-path="url(#p834770f45c)" d="M 202.322282 167.437019 
L 201.717443 157.926455 
L 203.688681 157.843834 
z
" style="stroke:#000000;"/>
    <path clip-path="url(#p834770f45c)" d="M 200.882863 207.66749 
L 202.239932 217.099116 
L 204.213453 217.295833 
z
" style="stroke:#000000;"/>
    <path clip-path="url(#p834770f45c)" d="M 213.473774 235.071478 
L 213.027338 223.4661 
L 208.427129 226.465106 
z
" style="stroke:#000000;"/>
    <path clip-path="url(#p834770f45c)" d="M 213.027338 130.80902 
L 213.473774 119.20337 
L 208.427129 127.812823 
z
" style="stroke:#000000;"/>
    <path clip-path="url(#p834770f45c)" d="M 203.688681 196.436988 
L 200.356988 186.790975 
L 202.322282 186.844637 
z
" style="stroke:#000000;"/>
    <path clip-path="url(#p834770f45c)" d="M 189.403729 103.894451 
L 200.785784 114.228325 
L 187.494791 104.231424 
z
" style="stroke:#000000;"/>
    <path clip-path="url(#p834770f45c)" d="M 200.785784 114.228325 
L 189.403729 143.489219 
L 187.494791 143.63967 
z
" style="stroke:#000000;"/>
    <path clip-path="url(#p834770f45c)" d="M 187.494791 133.787609 
L 187.494791 143.63967 
L 174.140737 113.937959 
z
" style="stroke:#000000;"/>
    <path clip-path="url(#p834770f45c)" d="M 201.864974 177.140968 
L 200.356988 167.474572 
L 202.322282 167.437019 
z
" style="stroke:#000000;"/>
    <path clip-path="url(#p834770f45c)" d="M 202.322282 186.844637 
L 199.90167 177.132912 
L 201.864974 177.140968 
z
" style="stroke:#000000;"/>
    <path clip-path="url(#p834770f45c)" d="M 204.213453 136.984669 
L 198.923835 146.750496 
L 200.882863 146.615045 
z
" style="stroke:#000000;"/>
    <path clip-path="url(#p834770f45c)" d="M 208.427129 226.465106 
L 213.027338 223.4661 
L 209.073193 214.852385 
z
" style="stroke:#000000;"/>
    <path clip-path="url(#p834770f45c)" d="M 213.027338 130.80902 
L 208.427129 127.812823 
L 209.073193 139.42515 
z
" style="stroke:#000000;"/>
    <path clip-path="url(#p834770f45c)" d="M 198.474971 197.689355 
L 198.923835 207.515921 
L 200.882863 207.66749 
z
" style="stroke:#000000;"/>
    <path clip-path="url(#p834770f45c)" d="M 187.494791 104.231424 
L 178.599123 115.219998 
L 174.140737 113.937959 
z
" style="stroke:#000000;"/>
    <path clip-path="url(#p834770f45c)" d="M 187.494791 133.787609 
L 174.140737 113.937959 
L 178.599123 115.219998 
z
" style="stroke:#000000;"/>
    <path clip-path="url(#p834770f45c)" d="M 200.882863 146.615045 
L 196.526432 156.683222 
L 198.474971 156.59465 
z
" style="stroke:#000000;"/>
    <path clip-path="url(#p834770f45c)" d="M 209.073193 214.852385 
L 204.213453 217.295833 
L 208.427129 226.465106 
z
" style="stroke:#000000;"/>
    <path clip-path="url(#p834770f45c)" d="M 204.213453 136.984669 
L 209.073193 139.42515 
L 208.427129 127.812823 
z
" style="stroke:#000000;"/>
    <path clip-path="url(#p834770f45c)" d="M 200.785784 114.228325 
L 189.403729 103.894451 
L 202.752951 113.939355 
z
" style="stroke:#000000;"/>
    <path clip-path="url(#p834770f45c)" d="M 189.403729 143.489219 
L 200.785784 114.228325 
L 202.752951 113.939355 
z
" style="stroke:#000000;"/>
    <path clip-path="url(#p834770f45c)" d="M 180.380505 177.13884 
L 175.032978 177.140465 
L 179.892696 166.826879 
z
" style="stroke:#000000;"/>
    <path clip-path="url(#p834770f45c)" d="M 175.032978 177.140465 
L 180.380505 177.13884 
L 179.892696 187.451099 
z
" style="stroke:#000000;"/>
    <path clip-path="url(#p834770f45c)" d="M 197.018598 187.47539 
L 196.526432 197.584651 
L 198.474971 197.689355 
z
" style="stroke:#000000;"/>
    <path clip-path="url(#p834770f45c)" d="M 204.213453 217.295833 
L 209.073193 214.852385 
L 205.947948 205.80851 
z
" style="stroke:#000000;"/>
    <path clip-path="url(#p834770f45c)" d="M 209.073193 139.42515 
L 204.213453 136.984669 
L 205.947948 148.470933 
z
" style="stroke:#000000;"/>
    <path clip-path="url(#p834770f45c)" d="M 198.474971 156.59465 
L 195.076407 166.850045 
L 197.018598 166.809505 
z
" style="stroke:#000000;"/>
    <path clip-path="url(#p834770f45c)" d="M 179.892696 166.826879 
L 174.573545 167.438063 
L 178.434074 156.622881 
z
" style="stroke:#000000;"/>
    <path clip-path="url(#p834770f45c)" d="M 174.573545 186.843145 
L 179.892696 187.451099 
L 178.434074 197.655982 
z
" style="stroke:#000000;"/>
    <path clip-path="url(#p834770f45c)" d="M 196.531204 177.142596 
L 195.076407 187.418709 
L 197.018598 187.47539 
z
" style="stroke:#000000;"/>
    <path clip-path="url(#p834770f45c)" d="M 197.018598 166.809505 
L 194.591139 177.134524 
L 196.531204 177.142596 
z
" style="stroke:#000000;"/>
    <path clip-path="url(#p834770f45c)" d="M 179.892696 187.451099 
L 174.573545 186.843145 
L 175.032978 177.140465 
z
" style="stroke:#000000;"/>
    <path clip-path="url(#p834770f45c)" d="M 174.573545 167.438063 
L 179.892696 166.826879 
L 175.032978 177.140465 
z
" style="stroke:#000000;"/>
    <path clip-path="url(#p834770f45c)" d="M 178.434074 156.622881 
L 173.199903 157.837571 
L 176.019148 146.633575 
z
" style="stroke:#000000;"/>
    <path clip-path="url(#p834770f45c)" d="M 173.199903 196.444472 
L 178.434074 197.655982 
L 176.019148 207.646756 
z
" style="stroke:#000000;"/>
    <path clip-path="url(#p834770f45c)" d="M 189.403729 108.843797 
L 178.599123 115.219998 
L 187.494791 109.157455 
z
" style="stroke:#000000;"/>
    <path clip-path="url(#p834770f45c)" d="M 178.599123 115.219998 
L 189.403729 133.590527 
L 187.494791 133.787609 
z
" style="stroke:#000000;"/>
    <path clip-path="url(#p834770f45c)" d="M 173.199903 157.837571 
L 178.434074 156.622881 
L 174.573545 167.438063 
z
" style="stroke:#000000;"/>
    <path clip-path="url(#p834770f45c)" d="M 178.434074 197.655982 
L 173.199903 196.444472 
L 174.573545 186.843145 
z
" style="stroke:#000000;"/>
    <path clip-path="url(#p834770f45c)" d="M 205.947948 205.80851 
L 200.882863 207.66749 
L 204.213453 217.295833 
z
" style="stroke:#000000;"/>
    <path clip-path="url(#p834770f45c)" d="M 200.882863 146.615045 
L 205.947948 148.470933 
L 204.213453 136.984669 
z
" style="stroke:#000000;"/>
    <path clip-path="url(#p834770f45c)" d="M 200.882863 207.66749 
L 205.947948 205.80851 
L 203.688681 196.436988 
z
" style="stroke:#000000;"/>
    <path clip-path="url(#p834770f45c)" d="M 205.947948 148.470933 
L 200.882863 146.615045 
L 203.688681 157.843834 
z
" style="stroke:#000000;"/>
    <path clip-path="url(#p834770f45c)" d="M 170.925724 148.439602 
L 176.019148 146.633575 
L 173.199903 157.837571 
z
" style="stroke:#000000;"/>
    <path clip-path="url(#p834770f45c)" d="M 176.019148 207.646756 
L 170.925724 205.843822 
L 173.199903 196.444472 
z
" style="stroke:#000000;"/>
    <path clip-path="url(#p834770f45c)" d="M 176.019148 146.633575 
L 170.925724 148.439602 
L 172.671994 136.963782 
z
" style="stroke:#000000;"/>
    <path clip-path="url(#p834770f45c)" d="M 170.925724 205.843822 
L 176.019148 207.646756 
L 172.671994 217.318581 
z
" style="stroke:#000000;"/>
    <path clip-path="url(#p834770f45c)" d="M 198.474971 197.689355 
L 203.688681 196.436988 
L 202.322282 186.844637 
z
" style="stroke:#000000;"/>
    <path clip-path="url(#p834770f45c)" d="M 203.688681 157.843834 
L 198.474971 156.59465 
L 202.322282 167.437019 
z
" style="stroke:#000000;"/>
    <path clip-path="url(#p834770f45c)" d="M 187.494791 109.157455 
L 198.310253 115.126073 
L 189.403729 108.843797 
z
" style="stroke:#000000;"/>
    <path clip-path="url(#p834770f45c)" d="M 198.310253 115.126073 
L 187.494791 133.787609 
L 189.403729 133.590527 
z
" style="stroke:#000000;"/>
    <path clip-path="url(#p834770f45c)" d="M 203.688681 196.436988 
L 198.474971 197.689355 
L 200.882863 207.66749 
z
" style="stroke:#000000;"/>
    <path clip-path="url(#p834770f45c)" d="M 198.474971 156.59465 
L 203.688681 157.843834 
L 200.882863 146.615045 
z
" style="stroke:#000000;"/>
    <path clip-path="url(#p834770f45c)" d="M 202.322282 167.437019 
L 197.018598 166.809505 
L 201.864974 177.140968 
z
" style="stroke:#000000;"/>
    <path clip-path="url(#p834770f45c)" d="M 197.018598 187.47539 
L 202.322282 186.844637 
L 201.864974 177.140968 
z
" style="stroke:#000000;"/>
    <path clip-path="url(#p834770f45c)" d="M 179.892696 166.826879 
L 182.258152 177.146953 
L 180.380505 177.13884 
z
" style="stroke:#000000;"/>
    <path clip-path="url(#p834770f45c)" d="M 180.380505 177.13884 
L 181.768195 187.508086 
L 179.892696 187.451099 
z
" style="stroke:#000000;"/>
    <path clip-path="url(#p834770f45c)" d="M 202.322282 186.844637 
L 197.018598 187.47539 
L 198.474971 197.689355 
z
" style="stroke:#000000;"/>
    <path clip-path="url(#p834770f45c)" d="M 197.018598 166.809505 
L 202.322282 167.437019 
L 198.474971 156.59465 
z
" style="stroke:#000000;"/>
    <path clip-path="url(#p834770f45c)" d="M 178.434074 156.622881 
L 181.768195 166.786119 
L 179.892696 166.826879 
z
" style="stroke:#000000;"/>
    <path clip-path="url(#p834770f45c)" d="M 167.773802 139.343083 
L 172.671994 136.963782 
L 170.925724 148.439602 
z
" style="stroke:#000000;"/>
    <path clip-path="url(#p834770f45c)" d="M 172.671994 217.318581 
L 167.773802 214.942256 
L 170.925724 205.843822 
z
" style="stroke:#000000;"/>
    <path clip-path="url(#p834770f45c)" d="M 179.892696 187.451099 
L 180.303145 197.761363 
L 178.434074 197.655982 
z
" style="stroke:#000000;"/>
    <path clip-path="url(#p834770f45c)" d="M 201.864974 177.140968 
L 196.531204 177.142596 
L 197.018598 187.47539 
z
" style="stroke:#000000;"/>
    <path clip-path="url(#p834770f45c)" d="M 196.531204 177.142596 
L 201.864974 177.140968 
L 197.018598 166.809505 
z
" style="stroke:#000000;"/>
    <path clip-path="url(#p834770f45c)" d="M 175.990869 113.646234 
L 187.494791 104.231424 
L 174.140737 113.937959 
z
" style="stroke:#000000;"/>
    <path clip-path="url(#p834770f45c)" d="M 187.494791 143.63967 
L 175.990869 113.646234 
L 174.140737 113.937959 
z
" style="stroke:#000000;"/>
    <path clip-path="url(#p834770f45c)" d="M 172.671994 136.963782 
L 167.773802 139.343083 
L 168.425957 127.715292 
z
" style="stroke:#000000;"/>
    <path clip-path="url(#p834770f45c)" d="M 167.773802 214.942256 
L 172.671994 217.318581 
L 168.425957 226.569651 
z
" style="stroke:#000000;"/>
    <path clip-path="url(#p834770f45c)" d="M 176.019148 146.633575 
L 180.303145 156.533736 
L 178.434074 156.622881 
z
" style="stroke:#000000;"/>
    <path clip-path="url(#p834770f45c)" d="M 189.403729 133.590527 
L 202.752951 113.939355 
L 198.310253 115.126073 
z
" style="stroke:#000000;"/>
    <path clip-path="url(#p834770f45c)" d="M 189.403729 103.894451 
L 198.310253 115.126073 
L 202.752951 113.939355 
z
" style="stroke:#000000;"/>
    <path clip-path="url(#p834770f45c)" d="M 178.434074 197.655982 
L 177.87757 207.799566 
L 176.019148 207.646756 
z
" style="stroke:#000000;"/>
    <path clip-path="url(#p834770f45c)" d="M 163.77581 130.644083 
L 168.425957 127.715292 
L 167.773802 139.343083 
z
" style="stroke:#000000;"/>
    <path clip-path="url(#p834770f45c)" d="M 168.425957 226.569651 
L 163.77581 223.643684 
L 167.773802 214.942256 
z
" style="stroke:#000000;"/>
    <path clip-path="url(#p834770f45c)" d="M 172.671994 136.963782 
L 177.87757 146.497015 
L 176.019148 146.633575 
z
" style="stroke:#000000;"/>
    <path clip-path="url(#p834770f45c)" d="M 174.573545 186.843145 
L 176.887049 177.148592 
L 175.032978 177.140465 
z
" style="stroke:#000000;"/>
    <path clip-path="url(#p834770f45c)" d="M 175.032978 177.140465 
L 176.425587 167.400164 
L 174.573545 167.438063 
z
" style="stroke:#000000;"/>
    <path clip-path="url(#p834770f45c)" d="M 202.752951 113.939355 
L 189.403729 133.590527 
L 189.403729 143.489219 
z
" style="stroke:#000000;"/>
    <path clip-path="url(#p834770f45c)" d="M 187.494791 104.231424 
L 175.990869 113.646234 
L 189.403729 103.894451 
z
" style="stroke:#000000;"/>
    <path clip-path="url(#p834770f45c)" d="M 175.990869 113.646234 
L 187.494791 143.63967 
L 189.403729 143.489219 
z
" style="stroke:#000000;"/>
    <path clip-path="url(#p834770f45c)" d="M 173.199903 196.444472 
L 176.425587 186.897303 
L 174.573545 186.843145 
z
" style="stroke:#000000;"/>
    <path clip-path="url(#p834770f45c)" d="M 168.425957 127.715292 
L 163.77581 130.644083 
L 163.323713 118.986521 
z
" style="stroke:#000000;"/>
    <path clip-path="url(#p834770f45c)" d="M 163.77581 223.643684 
L 168.425957 226.569651 
L 163.323713 235.30152 
z
" style="stroke:#000000;"/>
    <path clip-path="url(#p834770f45c)" d="M 176.019148 207.646756 
L 174.51564 217.517381 
L 172.671994 217.318581 
z
" style="stroke:#000000;"/>
    <path clip-path="url(#p834770f45c)" d="M 174.573545 167.438063 
L 175.045881 157.754107 
L 173.199903 157.837571 
z
" style="stroke:#000000;"/>
    <path clip-path="url(#p834770f45c)" d="M 198.310253 115.126073 
L 189.403729 103.894451 
L 189.403729 108.843797 
z
" style="stroke:#000000;"/>
    <path clip-path="url(#p834770f45c)" d="M 178.599123 115.219998 
L 189.403729 108.843797 
L 180.468921 114.934583 
z
" style="stroke:#000000;"/>
    <path clip-path="url(#p834770f45c)" d="M 189.403729 133.590527 
L 178.599123 115.219998 
L 180.468921 114.934583 
z
" style="stroke:#000000;"/>
    <path clip-path="url(#p834770f45c)" d="M 170.925724 205.843822 
L 175.045881 196.544202 
L 173.199903 196.444472 
z
" style="stroke:#000000;"/>
    <path clip-path="url(#p834770f45c)" d="M 173.199903 157.837571 
L 172.761653 148.311492 
L 170.925724 148.439602 
z
" style="stroke:#000000;"/>
    <path clip-path="url(#p834770f45c)" d="M 181.768195 187.508086 
L 180.380505 177.13884 
L 182.258152 177.146953 
z
" style="stroke:#000000;"/>
    <path clip-path="url(#p834770f45c)" d="M 168.425957 127.715292 
L 174.51564 136.781252 
L 172.671994 136.963782 
z
" style="stroke:#000000;"/>
    <path clip-path="url(#p834770f45c)" d="M 182.258152 177.146953 
L 179.892696 166.826879 
L 181.768195 166.786119 
z
" style="stroke:#000000;"/>
    <path clip-path="url(#p834770f45c)" d="M 163.323713 118.986521 
L 163.77581 130.644083 
L 158.972047 122.434912 
z
" style="stroke:#000000;"/>
    <path clip-path="url(#p834770f45c)" d="M 163.77581 223.643684 
L 163.323713 235.30152 
L 158.972047 231.855773 
z
" style="stroke:#000000;"/>
    <path clip-path="url(#p834770f45c)" d="M 180.303145 197.761363 
L 179.892696 187.451099 
L 181.768195 187.508086 
z
" style="stroke:#000000;"/>
    <path clip-path="url(#p834770f45c)" d="M 181.768195 166.786119 
L 178.434074 156.622881 
L 180.303145 156.533736 
z
" style="stroke:#000000;"/>
    <path clip-path="url(#p834770f45c)" d="M 167.773802 214.942256 
L 172.761653 205.988212 
L 170.925724 205.843822 
z
" style="stroke:#000000;"/>
    <path clip-path="url(#p834770f45c)" d="M 172.671994 217.318581 
L 170.250832 226.812535 
L 168.425957 226.569651 
z
" style="stroke:#000000;"/>
    <path clip-path="url(#p834770f45c)" d="M 163.323713 118.986521 
L 158.972047 122.434912 
L 157.416687 110.870269 
z
" style="stroke:#000000;"/>
    <path clip-path="url(#p834770f45c)" d="M 158.972047 231.855773 
L 163.323713 235.30152 
L 157.416687 243.421361 
z
" style="stroke:#000000;"/>
    <path clip-path="url(#p834770f45c)" d="M 170.925724 148.439602 
L 169.59579 139.171695 
L 167.773802 139.343083 
z
" style="stroke:#000000;"/>
    <path clip-path="url(#p834770f45c)" d="M 177.87757 207.799566 
L 178.434074 197.655982 
L 180.303145 197.761363 
z
" style="stroke:#000000;"/>
    <path clip-path="url(#p834770f45c)" d="M 180.303145 156.533736 
L 176.019148 146.633575 
L 177.87757 146.497015 
z
" style="stroke:#000000;"/>
    <path clip-path="url(#p834770f45c)" d="M 189.403729 103.894451 
L 180.468921 114.934583 
L 189.403729 108.843797 
z
" style="stroke:#000000;"/>
    <path clip-path="url(#p834770f45c)" d="M 163.323713 118.986521 
L 170.250832 127.488701 
L 168.425957 127.715292 
z
" style="stroke:#000000;"/>
    <path clip-path="url(#p834770f45c)" d="M 163.77581 223.643684 
L 169.59579 215.129942 
L 167.773802 214.942256 
z
" style="stroke:#000000;"/>
    <path clip-path="url(#p834770f45c)" d="M 174.51564 217.517381 
L 176.019148 207.646756 
L 177.87757 207.799566 
z
" style="stroke:#000000;"/>
    <path clip-path="url(#p834770f45c)" d="M 176.425587 167.400164 
L 175.032978 177.140465 
L 176.887049 177.148592 
z
" style="stroke:#000000;"/>
    <path clip-path="url(#p834770f45c)" d="M 176.887049 177.148592 
L 174.573545 186.843145 
L 176.425587 186.897303 
z
" style="stroke:#000000;"/>
    <path clip-path="url(#p834770f45c)" d="M 157.416687 110.870269 
L 158.972047 122.434912 
L 153.411205 114.803933 
z
" style="stroke:#000000;"/>
    <path clip-path="url(#p834770f45c)" d="M 158.972047 231.855773 
L 157.416687 243.421361 
L 153.411205 239.49013 
z
" style="stroke:#000000;"/>
    <path clip-path="url(#p834770f45c)" d="M 189.403729 133.590527 
L 175.990869 113.646234 
L 189.403729 143.489219 
z
" style="stroke:#000000;"/>
    <path clip-path="url(#p834770f45c)" d="M 175.045881 157.754107 
L 174.573545 167.438063 
L 176.425587 167.400164 
z
" style="stroke:#000000;"/>
    <path clip-path="url(#p834770f45c)" d="M 167.773802 139.343083 
L 165.580091 130.431226 
L 163.77581 130.644083 
z
" style="stroke:#000000;"/>
    <path clip-path="url(#p834770f45c)" d="M 168.425957 226.569651 
L 165.125991 235.586132 
L 163.323713 235.30152 
z
" style="stroke:#000000;"/>
    <path clip-path="url(#p834770f45c)" d="M 177.87757 146.497015 
L 172.671994 136.963782 
L 174.51564 136.781252 
z
" style="stroke:#000000;"/>
    <path clip-path="url(#p834770f45c)" d="M 176.425587 186.897303 
L 173.199903 196.444472 
L 175.045881 196.544202 
z
" style="stroke:#000000;"/>
    <path clip-path="url(#p834770f45c)" d="M 172.761653 148.311492 
L 173.199903 157.837571 
L 175.045881 157.754107 
z
" style="stroke:#000000;"/>
    <path clip-path="url(#p834770f45c)" d="M 157.416687 110.870269 
L 151.742621 108.456966 
L 154.092675 107.164666 
z
" style="stroke:#000000;"/>
    <path clip-path="url(#p834770f45c)" d="M 151.742621 245.83811 
L 157.416687 243.421361 
L 154.092675 247.128983 
z
" style="stroke:#000000;"/>
    <path clip-path="url(#p834770f45c)" d="M 151.742621 108.456966 
L 157.416687 110.870269 
L 153.411205 114.803933 
z
" style="stroke:#000000;"/>
    <path clip-path="url(#p834770f45c)" d="M 157.416687 243.421361 
L 151.742621 245.83811 
L 153.411205 239.49013 
z
" style="stroke:#000000;"/>
    <path clip-path="url(#p834770f45c)" d="M 175.045881 196.544202 
L 170.925724 205.843822 
L 172.761653 205.988212 
z
" style="stroke:#000000;"/>
    <path clip-path="url(#p834770f45c)" d="M 170.250832 226.812535 
L 172.671994 217.318581 
L 174.51564 217.517381 
z
" style="stroke:#000000;"/>
    <path clip-path="url(#p834770f45c)" d="M 175.990869 113.646234 
L 189.403729 133.590527 
L 180.468921 114.934583 
z
" style="stroke:#000000;"/>
    <path clip-path="url(#p834770f45c)" d="M 180.468921 114.934583 
L 189.403729 103.894451 
L 175.990869 113.646234 
z
" style="stroke:#000000;"/>
    <path clip-path="url(#p834770f45c)" d="M 158.972047 231.855773 
L 165.580091 223.872862 
L 163.77581 223.643684 
z
" style="stroke:#000000;"/>
    <path clip-path="url(#p834770f45c)" d="M 157.416687 110.870269 
L 165.125991 118.718233 
L 163.323713 118.986521 
z
" style="stroke:#000000;"/>
    <path clip-path="url(#p834770f45c)" d="M 169.59579 139.171695 
L 170.925724 148.439602 
L 172.761653 148.311492 
z
" style="stroke:#000000;"/>
    <path clip-path="url(#p834770f45c)" d="M 174.51564 136.781252 
L 168.425957 127.715292 
L 170.250832 127.488701 
z
" style="stroke:#000000;"/>
    <path clip-path="url(#p834770f45c)" d="M 182.258152 177.146953 
L 176.887049 177.148592 
L 181.768195 187.508086 
z
" style="stroke:#000000;"/>
    <path clip-path="url(#p834770f45c)" d="M 176.887049 177.148592 
L 182.258152 177.146953 
L 181.768195 166.786119 
z
" style="stroke:#000000;"/>
    <path clip-path="url(#p834770f45c)" d="M 163.77581 130.644083 
L 160.755017 122.182821 
L 158.972047 122.434912 
z
" style="stroke:#000000;"/>
    <path clip-path="url(#p834770f45c)" d="M 151.742621 108.456966 
L 153.411205 114.803933 
L 149.272288 110.196113 
z
" style="stroke:#000000;"/>
    <path clip-path="url(#p834770f45c)" d="M 153.411205 239.49013 
L 151.742621 245.83811 
L 149.272288 244.100464 
z
" style="stroke:#000000;"/>
    <path clip-path="url(#p834770f45c)" d="M 172.761653 205.988212 
L 167.773802 214.942256 
L 169.59579 215.129942 
z
" style="stroke:#000000;"/>
    <path clip-path="url(#p834770f45c)" d="M 181.768195 187.508086 
L 176.425587 186.897303 
L 180.303145 197.761363 
z
" style="stroke:#000000;"/>
    <path clip-path="url(#p834770f45c)" d="M 176.425587 167.400164 
L 181.768195 166.786119 
L 180.303145 156.533736 
z
" style="stroke:#000000;"/>
    <path clip-path="url(#p834770f45c)" d="M 163.323713 235.30152 
L 159.192749 243.74491 
L 157.416687 243.421361 
z
" style="stroke:#000000;"/>
    <path clip-path="url(#p834770f45c)" d="M 181.768195 166.786119 
L 176.425587 167.400164 
L 176.887049 177.148592 
z
" style="stroke:#000000;"/>
    <path clip-path="url(#p834770f45c)" d="M 176.425587 186.897303 
L 181.768195 187.508086 
L 176.887049 177.148592 
z
" style="stroke:#000000;"/>
    <path clip-path="url(#p834770f45c)" d="M 180.303145 197.761363 
L 175.045881 196.544202 
L 177.87757 207.799566 
z
" style="stroke:#000000;"/>
    <path clip-path="url(#p834770f45c)" d="M 175.045881 157.754107 
L 180.303145 156.533736 
L 177.87757 146.497015 
z
" style="stroke:#000000;"/>
    <path clip-path="url(#p834770f45c)" d="M 165.125991 235.586132 
L 168.425957 226.569651 
L 170.250832 226.812535 
z
" style="stroke:#000000;"/>
    <path clip-path="url(#p834770f45c)" d="M 175.045881 196.544202 
L 180.303145 197.761363 
L 176.425587 186.897303 
z
" style="stroke:#000000;"/>
    <path clip-path="url(#p834770f45c)" d="M 180.303145 156.533736 
L 175.045881 157.754107 
L 176.425587 167.400164 
z
" style="stroke:#000000;"/>
    <path clip-path="url(#p834770f45c)" d="M 165.580091 130.431226 
L 167.773802 139.343083 
L 169.59579 139.171695 
z
" style="stroke:#000000;"/>
    <path clip-path="url(#p834770f45c)" d="M 153.411205 239.49013 
L 160.755017 232.124213 
L 158.972047 231.855773 
z
" style="stroke:#000000;"/>
    <path clip-path="url(#p834770f45c)" d="M 154.092675 107.164666 
L 159.192749 110.563078 
L 157.416687 110.870269 
z
" style="stroke:#000000;"/>
    <path clip-path="url(#p834770f45c)" d="M 169.59579 215.129942 
L 163.77581 223.643684 
L 165.580091 223.872862 
z
" style="stroke:#000000;"/>
    <path clip-path="url(#p834770f45c)" d="M 170.250832 127.488701 
L 163.323713 118.986521 
L 165.125991 118.718233 
z
" style="stroke:#000000;"/>
    <path clip-path="url(#p834770f45c)" d="M 172.761653 205.988212 
L 177.87757 207.799566 
L 175.045881 196.544202 
z
" style="stroke:#000000;"/>
    <path clip-path="url(#p834770f45c)" d="M 177.87757 146.497015 
L 172.761653 148.311492 
L 175.045881 157.754107 
z
" style="stroke:#000000;"/>
    <path clip-path="url(#p834770f45c)" d="M 177.87757 207.799566 
L 172.761653 205.988212 
L 174.51564 217.517381 
z
" style="stroke:#000000;"/>
    <path clip-path="url(#p834770f45c)" d="M 172.761653 148.311492 
L 177.87757 146.497015 
L 174.51564 136.781252 
z
" style="stroke:#000000;"/>
    <path clip-path="url(#p834770f45c)" d="M 158.972047 122.434912 
L 155.169456 114.515255 
L 153.411205 114.803933 
z
" style="stroke:#000000;"/>
    <path clip-path="url(#p834770f45c)" d="M 157.416687 243.421361 
L 155.853958 247.470375 
L 154.092675 247.128983 
z
" style="stroke:#000000;"/>
    <path clip-path="url(#p834770f45c)" d="M 155.853958 247.470375 
L 151.742621 245.83811 
L 154.092675 247.128983 
z
" style="stroke:#000000;"/>
    <path clip-path="url(#p834770f45c)" d="M 160.755017 122.182821 
L 163.77581 130.644083 
L 165.580091 130.431226 
z
" style="stroke:#000000;"/>
    <path clip-path="url(#p834770f45c)" d="M 169.59579 215.129942 
L 174.51564 217.517381 
L 172.761653 205.988212 
z
" style="stroke:#000000;"/>
    <path clip-path="url(#p834770f45c)" d="M 174.51564 136.781252 
L 169.59579 139.171695 
L 172.761653 148.311492 
z
" style="stroke:#000000;"/>
    <path clip-path="url(#p834770f45c)" d="M 153.493445 108.137971 
L 154.092675 107.164666 
L 151.742621 108.456966 
z
" style="stroke:#000000;"/>
    <path clip-path="url(#p834770f45c)" d="M 159.192749 243.74491 
L 163.323713 235.30152 
L 165.125991 235.586132 
z
" style="stroke:#000000;"/>
    <path clip-path="url(#p834770f45c)" d="M 155.169456 114.515255 
L 149.272288 110.196113 
L 153.411205 114.803933 
z
" style="stroke:#000000;"/>
    <path clip-path="url(#p834770f45c)" d="M 174.51564 217.517381 
L 169.59579 215.129942 
L 170.250832 226.812535 
z
" style="stroke:#000000;"/>
    <path clip-path="url(#p834770f45c)" d="M 169.59579 139.171695 
L 174.51564 136.781252 
L 170.250832 127.488701 
z
" style="stroke:#000000;"/>
    <path clip-path="url(#p834770f45c)" d="M 165.580091 223.872862 
L 158.972047 231.855773 
L 160.755017 232.124213 
z
" style="stroke:#000000;"/>
    <path clip-path="url(#p834770f45c)" d="M 153.493445 246.173496 
L 149.272288 244.100464 
L 151.742621 245.83811 
z
" style="stroke:#000000;"/>
    <path clip-path="url(#p834770f45c)" d="M 151.012107 244.427717 
L 153.411205 239.49013 
L 149.272288 244.100464 
z
" style="stroke:#000000;"/>
    <path clip-path="url(#p834770f45c)" d="M 165.125991 118.718233 
L 157.416687 110.870269 
L 159.192749 110.563078 
z
" style="stroke:#000000;"/>
    <path clip-path="url(#p834770f45c)" d="M 151.012107 109.885265 
L 151.742621 108.456966 
L 149.272288 110.196113 
z
" style="stroke:#000000;"/>
    <path clip-path="url(#p834770f45c)" d="M 165.580091 223.872862 
L 170.250832 226.812535 
L 169.59579 215.129942 
z
" style="stroke:#000000;"/>
    <path clip-path="url(#p834770f45c)" d="M 170.250832 127.488701 
L 165.580091 130.431226 
L 169.59579 139.171695 
z
" style="stroke:#000000;"/>
    <path clip-path="url(#p834770f45c)" d="M 155.169456 114.515255 
L 158.972047 122.434912 
L 160.755017 122.182821 
z
" style="stroke:#000000;"/>
    <path clip-path="url(#p834770f45c)" d="M 155.853958 247.470375 
L 157.416687 243.421361 
L 159.192749 243.74491 
z
" style="stroke:#000000;"/>
    <path clip-path="url(#p834770f45c)" d="M 170.250832 226.812535 
L 165.580091 223.872862 
L 165.125991 235.586132 
z
" style="stroke:#000000;"/>
    <path clip-path="url(#p834770f45c)" d="M 165.580091 130.431226 
L 170.250832 127.488701 
L 165.125991 118.718233 
z
" style="stroke:#000000;"/>
    <path clip-path="url(#p834770f45c)" d="M 160.755017 232.124213 
L 153.411205 239.49013 
L 155.169456 239.795189 
z
" style="stroke:#000000;"/>
    <path clip-path="url(#p834770f45c)" d="M 159.192749 110.563078 
L 154.092675 107.164666 
L 155.853958 106.839651 
z
" style="stroke:#000000;"/>
    <path clip-path="url(#p834770f45c)" d="M 154.092675 107.164666 
L 153.493445 108.137971 
L 155.853958 106.839651 
z
" style="stroke:#000000;"/>
    <path clip-path="url(#p834770f45c)" d="M 165.125991 235.586132 
L 165.580091 223.872862 
L 160.755017 232.124213 
z
" style="stroke:#000000;"/>
    <path clip-path="url(#p834770f45c)" d="M 165.580091 130.431226 
L 165.125991 118.718233 
L 160.755017 122.182821 
z
" style="stroke:#000000;"/>
    <path clip-path="url(#p834770f45c)" d="M 151.742621 245.83811 
L 155.853958 247.470375 
L 153.493445 246.173496 
z
" style="stroke:#000000;"/>
    <path clip-path="url(#p834770f45c)" d="M 153.411205 239.49013 
L 151.012107 244.427717 
L 155.169456 239.795189 
z
" style="stroke:#000000;"/>
    <path clip-path="url(#p834770f45c)" d="M 165.125991 235.586132 
L 160.755017 232.124213 
L 159.192749 243.74491 
z
" style="stroke:#000000;"/>
    <path clip-path="url(#p834770f45c)" d="M 160.755017 122.182821 
L 165.125991 118.718233 
L 159.192749 110.563078 
z
" style="stroke:#000000;"/>
    <path clip-path="url(#p834770f45c)" d="M 151.742621 108.456966 
L 151.012107 109.885265 
L 153.493445 108.137971 
z
" style="stroke:#000000;"/>
    <path clip-path="url(#p834770f45c)" d="M 149.272288 110.196113 
L 155.169456 114.515255 
L 151.012107 109.885265 
z
" style="stroke:#000000;"/>
    <path clip-path="url(#p834770f45c)" d="M 149.272288 244.100464 
L 153.493445 246.173496 
L 151.012107 244.427717 
z
" style="stroke:#000000;"/>
    <path clip-path="url(#p834770f45c)" d="M 159.192749 243.74491 
L 160.755017 232.124213 
L 155.169456 239.795189 
z
" style="stroke:#000000;"/>
    <path clip-path="url(#p834770f45c)" d="M 160.755017 122.182821 
L 159.192749 110.563078 
L 155.169456 114.515255 
z
" style="stroke:#000000;"/>
    <path clip-path="url(#p834770f45c)" d="M 159.192749 243.74491 
L 153.493445 246.173496 
L 155.853958 247.470375 
z
" style="stroke:#000000;"/>
    <path clip-path="url(#p834770f45c)" d="M 153.493445 108.137971 
L 159.192749 110.563078 
L 155.853958 106.839651 
z
" style="stroke:#000000;"/>
    <path clip-path="url(#p834770f45c)" d="M 153.493445 246.173496 
L 159.192749 243.74491 
L 155.169456 239.795189 
z
" style="stroke:#000000;"/>
    <path clip-path="url(#p834770f45c)" d="M 159.192749 110.563078 
L 153.493445 108.137971 
L 155.169456 114.515255 
z
" style="stroke:#000000;"/>
    <path clip-path="url(#p834770f45c)" d="M 153.493445 246.173496 
L 155.169456 239.795189 
L 151.012107 244.427717 
z
" style="stroke:#000000;"/>
    <path clip-path="url(#p834770f45c)" d="M 155.169456 114.515255 
L 153.493445 108.137971 
L 151.012107 109.885265 
z
" style="stroke:#000000;"/>
   </g>
  </g>
 </g>
 <defs>
  <clipPath id="p834770f45c">
   <rect height="271.8" width="279" x="45" y="43.2"/>
  </clipPath>
 </defs>
</svg>
