<?xml version="1.0" encoding="utf-8" standalone="no"?>
<!DOCTYPE svg PUBLIC "-//W3C//DTD SVG 1.1//EN"
  "http://www.w3.org/Graphics/SVG/1.1/DTD/svg11.dtd">
<!-- Created with matplotlib (https://matplotlib.org/) -->
<svg height="360pt" version="1.1" viewBox="0 0 360 360" width="360pt" xmlns="http://www.w3.org/2000/svg" xmlns:xlink="http://www.w3.org/1999/xlink">
 <defs>
  <style type="text/css">
*{stroke-linecap:butt;stroke-linejoin:round;}
  </style>
 </defs>
 <g id="figure_1">
  <g id="patch_1">
   <path d="M 0 360 
L 360 360 
L 360 0 
L 0 0 
z
" style="fill:#ffffff;"/>
  </g>
  <g id="patch_2">
   <path d="M 45 315 
L 324 315 
L 324 43.2 
L 45 43.2 
z
" style="fill:#ffffff;"/>
  </g>
  <g id="axes_1">
   <g id="Poly3DCollection_1">
    <path clip-path="url(#pfcb5623720)" d="M 202.130705 226.175981 
L 196.410138 227.485289 
L 196.881868 226.12877 
z
" style="stroke:#000000;"/>
    <path clip-path="url(#pfcb5623720)" d="M 202.130705 128.061784 
L 196.090637 131.358518 
L 196.881868 128.105847 
z
" style="stroke:#000000;"/>
    <path clip-path="url(#pfcb5623720)" d="M 196.881868 128.105847 
L 201.664801 126.707985 
L 202.130705 128.061784 
z
" style="stroke:#000000;"/>
    <path clip-path="url(#pfcb5623720)" d="M 196.410138 227.485289 
L 196.090637 222.882863 
L 196.881868 226.12877 
z
" style="stroke:#000000;"/>
    <path clip-path="url(#pfcb5623720)" d="M 196.090637 131.358518 
L 196.410138 126.753361 
L 196.881868 128.105847 
z
" style="stroke:#000000;"/>
    <path clip-path="url(#pfcb5623720)" d="M 201.664801 126.707985 
L 196.881868 128.105847 
L 196.410138 126.753361 
z
" style="stroke:#000000;"/>
    <path clip-path="url(#pfcb5623720)" d="M 196.881868 226.12877 
L 201.349246 222.92714 
L 202.130705 226.175981 
z
" style="stroke:#000000;"/>
    <path clip-path="url(#pfcb5623720)" d="M 196.410138 227.485289 
L 202.130705 226.175981 
L 201.664801 227.53382 
z
" style="stroke:#000000;"/>
    <path clip-path="url(#pfcb5623720)" d="M 201.349246 222.92714 
L 196.881868 226.12877 
L 196.090637 222.882863 
z
" style="stroke:#000000;"/>
    <path clip-path="url(#pfcb5623720)" d="M 201.664801 227.53382 
L 195.959946 228.513903 
L 196.410138 227.485289 
z
" style="stroke:#000000;"/>
    <path clip-path="url(#pfcb5623720)" d="M 196.090637 131.358518 
L 202.130705 128.061784 
L 201.349246 131.317401 
z
" style="stroke:#000000;"/>
    <path clip-path="url(#pfcb5623720)" d="M 201.664801 126.707985 
L 201.349246 131.317401 
L 202.130705 128.061784 
z
" style="stroke:#000000;"/>
    <path clip-path="url(#pfcb5623720)" d="M 201.349246 222.92714 
L 201.664801 227.53382 
L 202.130705 226.175981 
z
" style="stroke:#000000;"/>
    <path clip-path="url(#pfcb5623720)" d="M 196.410138 126.753361 
L 201.22017 125.68221 
L 201.664801 126.707985 
z
" style="stroke:#000000;"/>
    <path clip-path="url(#pfcb5623720)" d="M 201.22017 125.68221 
L 196.410138 126.753361 
L 195.959946 125.728594 
z
" style="stroke:#000000;"/>
    <path clip-path="url(#pfcb5623720)" d="M 196.410138 227.485289 
L 195.320785 225.901728 
L 196.090637 222.882863 
z
" style="stroke:#000000;"/>
    <path clip-path="url(#pfcb5623720)" d="M 195.320785 128.346234 
L 196.410138 126.753361 
L 196.090637 131.358518 
z
" style="stroke:#000000;"/>
    <path clip-path="url(#pfcb5623720)" d="M 195.320785 225.901728 
L 196.410138 227.485289 
L 195.959946 228.513903 
z
" style="stroke:#000000;"/>
    <path clip-path="url(#pfcb5623720)" d="M 196.410138 126.753361 
L 195.320785 128.346234 
L 195.959946 125.728594 
z
" style="stroke:#000000;"/>
    <path clip-path="url(#pfcb5623720)" d="M 195.959946 228.513903 
L 201.664801 227.53382 
L 201.22017 228.563451 
z
" style="stroke:#000000;"/>
    <path clip-path="url(#pfcb5623720)" d="M 195.320785 128.346234 
L 201.22017 125.68221 
L 195.959946 125.728594 
z
" style="stroke:#000000;"/>
    <path clip-path="url(#pfcb5623720)" d="M 195.020744 217.432775 
L 201.349246 222.92714 
L 196.090637 222.882863 
z
" style="stroke:#000000;"/>
    <path clip-path="url(#pfcb5623720)" d="M 201.664801 126.707985 
L 200.588901 128.302221 
L 201.349246 131.317401 
z
" style="stroke:#000000;"/>
    <path clip-path="url(#pfcb5623720)" d="M 200.588901 225.948913 
L 201.664801 227.53382 
L 201.349246 222.92714 
z
" style="stroke:#000000;"/>
    <path clip-path="url(#pfcb5623720)" d="M 200.588901 128.302221 
L 201.664801 126.707985 
L 201.22017 125.68221 
z
" style="stroke:#000000;"/>
    <path clip-path="url(#pfcb5623720)" d="M 201.664801 227.53382 
L 200.588901 225.948913 
L 201.22017 228.563451 
z
" style="stroke:#000000;"/>
    <path clip-path="url(#pfcb5623720)" d="M 200.588901 225.948913 
L 195.959946 228.513903 
L 201.22017 228.563451 
z
" style="stroke:#000000;"/>
    <path clip-path="url(#pfcb5623720)" d="M 200.292564 136.781631 
L 196.090637 131.358518 
L 201.349246 131.317401 
z
" style="stroke:#000000;"/>
    <path clip-path="url(#pfcb5623720)" d="M 195.320785 225.901728 
L 195.020744 217.432775 
L 196.090637 222.882863 
z
" style="stroke:#000000;"/>
    <path clip-path="url(#pfcb5623720)" d="M 195.020744 136.817751 
L 195.320785 128.346234 
L 196.090637 131.358518 
z
" style="stroke:#000000;"/>
    <path clip-path="url(#pfcb5623720)" d="M 195.959946 228.513903 
L 200.588901 225.948913 
L 195.320785 225.901728 
z
" style="stroke:#000000;"/>
    <path clip-path="url(#pfcb5623720)" d="M 201.22017 125.68221 
L 195.320785 128.346234 
L 200.588901 128.302221 
z
" style="stroke:#000000;"/>
    <path clip-path="url(#pfcb5623720)" d="M 196.090637 131.358518 
L 200.292564 136.781631 
L 195.020744 136.817751 
z
" style="stroke:#000000;"/>
    <path clip-path="url(#pfcb5623720)" d="M 201.349246 222.92714 
L 195.020744 217.432775 
L 200.292564 217.472073 
z
" style="stroke:#000000;"/>
    <path clip-path="url(#pfcb5623720)" d="M 200.588901 128.302221 
L 200.292564 136.781631 
L 201.349246 131.317401 
z
" style="stroke:#000000;"/>
    <path clip-path="url(#pfcb5623720)" d="M 200.292564 217.472073 
L 200.588901 225.948913 
L 201.349246 222.92714 
z
" style="stroke:#000000;"/>
    <path clip-path="url(#pfcb5623720)" d="M 194.177978 220.09991 
L 195.020744 217.432775 
L 195.320785 225.901728 
z
" style="stroke:#000000;"/>
    <path clip-path="url(#pfcb5623720)" d="M 195.020744 136.817751 
L 194.177978 134.157819 
L 195.320785 128.346234 
z
" style="stroke:#000000;"/>
    <path clip-path="url(#pfcb5623720)" d="M 194.177978 134.157819 
L 200.588901 128.302221 
L 195.320785 128.346234 
z
" style="stroke:#000000;"/>
    <path clip-path="url(#pfcb5623720)" d="M 199.460199 220.141792 
L 195.320785 225.901728 
L 200.588901 225.948913 
z
" style="stroke:#000000;"/>
    <path clip-path="url(#pfcb5623720)" d="M 194.090143 211.497046 
L 200.292564 217.472073 
L 195.020744 217.432775 
z
" style="stroke:#000000;"/>
    <path clip-path="url(#pfcb5623720)" d="M 199.460199 134.119129 
L 200.292564 136.781631 
L 200.588901 128.302221 
z
" style="stroke:#000000;"/>
    <path clip-path="url(#pfcb5623720)" d="M 200.292564 217.472073 
L 199.460199 220.141792 
L 200.588901 225.948913 
z
" style="stroke:#000000;"/>
    <path clip-path="url(#pfcb5623720)" d="M 199.373448 142.730803 
L 195.020744 136.817751 
L 200.292564 136.781631 
z
" style="stroke:#000000;"/>
    <path clip-path="url(#pfcb5623720)" d="M 195.320785 225.901728 
L 199.460199 220.141792 
L 194.177978 220.09991 
z
" style="stroke:#000000;"/>
    <path clip-path="url(#pfcb5623720)" d="M 194.177978 220.09991 
L 194.090143 211.497046 
L 195.020744 217.432775 
z
" style="stroke:#000000;"/>
    <path clip-path="url(#pfcb5623720)" d="M 194.090143 142.761435 
L 194.177978 134.157819 
L 195.020744 136.817751 
z
" style="stroke:#000000;"/>
    <path clip-path="url(#pfcb5623720)" d="M 200.588901 128.302221 
L 194.177978 134.157819 
L 199.460199 134.119129 
z
" style="stroke:#000000;"/>
    <path clip-path="url(#pfcb5623720)" d="M 195.020744 136.817751 
L 199.373448 142.730803 
L 194.090143 142.761435 
z
" style="stroke:#000000;"/>
    <path clip-path="url(#pfcb5623720)" d="M 200.292564 217.472073 
L 194.090143 211.497046 
L 199.373448 211.53087 
z
" style="stroke:#000000;"/>
    <path clip-path="url(#pfcb5623720)" d="M 199.460199 134.119129 
L 199.373448 142.730803 
L 200.292564 136.781631 
z
" style="stroke:#000000;"/>
    <path clip-path="url(#pfcb5623720)" d="M 199.373448 211.53087 
L 199.460199 220.141792 
L 200.292564 217.472073 
z
" style="stroke:#000000;"/>
    <path clip-path="url(#pfcb5623720)" d="M 193.183621 213.777828 
L 194.090143 211.497046 
L 194.177978 220.09991 
z
" style="stroke:#000000;"/>
    <path clip-path="url(#pfcb5623720)" d="M 194.090143 142.761435 
L 193.183621 140.488401 
L 194.177978 134.157819 
z
" style="stroke:#000000;"/>
    <path clip-path="url(#pfcb5623720)" d="M 193.183621 140.488401 
L 199.460199 134.119129 
L 194.177978 134.157819 
z
" style="stroke:#000000;"/>
    <path clip-path="url(#pfcb5623720)" d="M 193.311094 205.144543 
L 199.373448 211.53087 
L 194.090143 211.497046 
z
" style="stroke:#000000;"/>
    <path clip-path="url(#pfcb5623720)" d="M 198.478111 213.813873 
L 194.177978 220.09991 
L 199.460199 220.141792 
z
" style="stroke:#000000;"/>
    <path clip-path="url(#pfcb5623720)" d="M 198.604011 149.09588 
L 194.090143 142.761435 
L 199.373448 142.730803 
z
" style="stroke:#000000;"/>
    <path clip-path="url(#pfcb5623720)" d="M 194.090143 211.497046 
L 193.183621 213.777828 
L 193.311094 205.144543 
z
" style="stroke:#000000;"/>
    <path clip-path="url(#pfcb5623720)" d="M 193.183621 140.488401 
L 194.090143 142.761435 
L 193.311094 149.120597 
z
" style="stroke:#000000;"/>
    <path clip-path="url(#pfcb5623720)" d="M 194.090143 142.761435 
L 198.604011 149.09588 
L 193.311094 149.120597 
z
" style="stroke:#000000;"/>
    <path clip-path="url(#pfcb5623720)" d="M 198.478111 140.455564 
L 199.373448 142.730803 
L 199.460199 134.119129 
z
" style="stroke:#000000;"/>
    <path clip-path="url(#pfcb5623720)" d="M 199.373448 211.53087 
L 198.478111 213.813873 
L 199.460199 220.141792 
z
" style="stroke:#000000;"/>
    <path clip-path="url(#pfcb5623720)" d="M 194.177978 220.09991 
L 198.478111 213.813873 
L 193.183621 213.777828 
z
" style="stroke:#000000;"/>
    <path clip-path="url(#pfcb5623720)" d="M 199.373448 211.53087 
L 193.311094 205.144543 
L 198.604011 205.172465 
z
" style="stroke:#000000;"/>
    <path clip-path="url(#pfcb5623720)" d="M 199.460199 134.119129 
L 193.183621 140.488401 
L 198.478111 140.455564 
z
" style="stroke:#000000;"/>
    <path clip-path="url(#pfcb5623720)" d="M 199.373448 142.730803 
L 198.478111 140.455564 
L 198.604011 149.09588 
z
" style="stroke:#000000;"/>
    <path clip-path="url(#pfcb5623720)" d="M 198.478111 213.813873 
L 199.373448 211.53087 
L 198.604011 205.172465 
z
" style="stroke:#000000;"/>
    <path clip-path="url(#pfcb5623720)" d="M 192.693977 198.45014 
L 198.604011 205.172465 
L 193.311094 205.144543 
z
" style="stroke:#000000;"/>
    <path clip-path="url(#pfcb5623720)" d="M 192.350953 207.008302 
L 193.311094 205.144543 
L 193.183621 213.777828 
z
" style="stroke:#000000;"/>
    <path clip-path="url(#pfcb5623720)" d="M 193.311094 149.120597 
L 192.350953 147.265045 
L 193.183621 140.488401 
z
" style="stroke:#000000;"/>
    <path clip-path="url(#pfcb5623720)" d="M 197.994506 155.801825 
L 193.311094 149.120597 
L 198.604011 149.09588 
z
" style="stroke:#000000;"/>
    <path clip-path="url(#pfcb5623720)" d="M 193.311094 205.144543 
L 192.350953 207.008302 
L 192.693977 198.45014 
z
" style="stroke:#000000;"/>
    <path clip-path="url(#pfcb5623720)" d="M 192.350953 147.265045 
L 193.311094 149.120597 
L 192.693977 155.820275 
z
" style="stroke:#000000;"/>
    <path clip-path="url(#pfcb5623720)" d="M 192.350953 147.265045 
L 198.478111 140.455564 
L 193.183621 140.488401 
z
" style="stroke:#000000;"/>
    <path clip-path="url(#pfcb5623720)" d="M 193.311094 149.120597 
L 197.994506 155.801825 
L 192.693977 155.820275 
z
" style="stroke:#000000;"/>
    <path clip-path="url(#pfcb5623720)" d="M 197.655713 207.038046 
L 193.183621 213.777828 
L 198.478111 213.813873 
z
" style="stroke:#000000;"/>
    <path clip-path="url(#pfcb5623720)" d="M 198.604011 205.172465 
L 192.693977 198.45014 
L 197.994506 198.471805 
z
" style="stroke:#000000;"/>
    <path clip-path="url(#pfcb5623720)" d="M 197.655713 147.238522 
L 198.604011 149.09588 
L 198.478111 140.455564 
z
" style="stroke:#000000;"/>
    <path clip-path="url(#pfcb5623720)" d="M 198.604011 205.172465 
L 197.655713 207.038046 
L 198.478111 213.813873 
z
" style="stroke:#000000;"/>
    <path clip-path="url(#pfcb5623720)" d="M 193.183621 213.777828 
L 197.655713 207.038046 
L 192.350953 207.008302 
z
" style="stroke:#000000;"/>
    <path clip-path="url(#pfcb5623720)" d="M 192.247097 191.494173 
L 197.994506 198.471805 
L 192.693977 198.45014 
z
" style="stroke:#000000;"/>
    <path clip-path="url(#pfcb5623720)" d="M 198.604011 149.09588 
L 197.655713 147.238522 
L 197.994506 155.801825 
z
" style="stroke:#000000;"/>
    <path clip-path="url(#pfcb5623720)" d="M 197.655713 207.038046 
L 198.604011 205.172465 
L 197.994506 198.471805 
z
" style="stroke:#000000;"/>
    <path clip-path="url(#pfcb5623720)" d="M 198.478111 140.455564 
L 192.350953 147.265045 
L 197.655713 147.238522 
z
" style="stroke:#000000;"/>
    <path clip-path="url(#pfcb5623720)" d="M 197.553137 162.768148 
L 192.693977 155.820275 
L 197.994506 155.801825 
z
" style="stroke:#000000;"/>
    <path clip-path="url(#pfcb5623720)" d="M 192.693977 155.820275 
L 197.553137 162.768148 
L 192.247097 162.780062 
z
" style="stroke:#000000;"/>
    <path clip-path="url(#pfcb5623720)" d="M 191.691219 199.871829 
L 192.693977 198.45014 
L 192.350953 207.008302 
z
" style="stroke:#000000;"/>
    <path clip-path="url(#pfcb5623720)" d="M 192.693977 155.820275 
L 191.691219 154.407158 
L 192.350953 147.265045 
z
" style="stroke:#000000;"/>
    <path clip-path="url(#pfcb5623720)" d="M 192.693977 198.45014 
L 191.691219 199.871829 
L 192.247097 191.494173 
z
" style="stroke:#000000;"/>
    <path clip-path="url(#pfcb5623720)" d="M 191.691219 154.407158 
L 192.693977 155.820275 
L 192.247097 162.780062 
z
" style="stroke:#000000;"/>
    <path clip-path="url(#pfcb5623720)" d="M 197.994506 198.471805 
L 192.247097 191.494173 
L 197.553137 191.509309 
z
" style="stroke:#000000;"/>
    <path clip-path="url(#pfcb5623720)" d="M 191.976515 184.361234 
L 197.553137 191.509309 
L 192.247097 191.494173 
z
" style="stroke:#000000;"/>
    <path clip-path="url(#pfcb5623720)" d="M 191.691219 154.407158 
L 197.655713 147.238522 
L 192.350953 147.265045 
z
" style="stroke:#000000;"/>
    <path clip-path="url(#pfcb5623720)" d="M 192.247097 162.780062 
L 197.285892 169.910118 
L 191.976515 169.915314 
z
" style="stroke:#000000;"/>
    <path clip-path="url(#pfcb5623720)" d="M 197.285892 169.910118 
L 192.247097 162.780062 
L 197.553137 162.768148 
z
" style="stroke:#000000;"/>
    <path clip-path="url(#pfcb5623720)" d="M 197.004114 199.89489 
L 192.350953 207.008302 
L 197.655713 207.038046 
z
" style="stroke:#000000;"/>
    <path clip-path="url(#pfcb5623720)" d="M 197.004114 154.387328 
L 197.994506 155.801825 
L 197.655713 147.238522 
z
" style="stroke:#000000;"/>
    <path clip-path="url(#pfcb5623720)" d="M 197.994506 198.471805 
L 197.004114 199.89489 
L 197.655713 207.038046 
z
" style="stroke:#000000;"/>
    <path clip-path="url(#pfcb5623720)" d="M 197.994506 155.801825 
L 197.004114 154.387328 
L 197.553137 162.768148 
z
" style="stroke:#000000;"/>
    <path clip-path="url(#pfcb5623720)" d="M 197.004114 199.89489 
L 197.994506 198.471805 
L 197.553137 191.509309 
z
" style="stroke:#000000;"/>
    <path clip-path="url(#pfcb5623720)" d="M 191.885904 177.138661 
L 197.285892 184.369657 
L 191.976515 184.361234 
z
" style="stroke:#000000;"/>
    <path clip-path="url(#pfcb5623720)" d="M 197.553137 191.509309 
L 191.976515 184.361234 
L 197.285892 184.369657 
z
" style="stroke:#000000;"/>
    <path clip-path="url(#pfcb5623720)" d="M 192.247097 191.494173 
L 191.213389 192.454466 
L 191.976515 184.361234 
z
" style="stroke:#000000;"/>
    <path clip-path="url(#pfcb5623720)" d="M 191.213389 161.828605 
L 192.247097 162.780062 
L 191.976515 169.915314 
z
" style="stroke:#000000;"/>
    <path clip-path="url(#pfcb5623720)" d="M 191.976515 169.915314 
L 197.196398 177.140275 
L 191.885904 177.138661 
z
" style="stroke:#000000;"/>
    <path clip-path="url(#pfcb5623720)" d="M 192.350953 207.008302 
L 197.004114 199.89489 
L 191.691219 199.871829 
z
" style="stroke:#000000;"/>
    <path clip-path="url(#pfcb5623720)" d="M 191.213389 192.454466 
L 192.247097 191.494173 
L 191.691219 199.871829 
z
" style="stroke:#000000;"/>
    <path clip-path="url(#pfcb5623720)" d="M 192.247097 162.780062 
L 191.213389 161.828605 
L 191.691219 154.407158 
z
" style="stroke:#000000;"/>
    <path clip-path="url(#pfcb5623720)" d="M 197.196398 177.140275 
L 191.976515 169.915314 
L 197.285892 169.910118 
z
" style="stroke:#000000;"/>
    <path clip-path="url(#pfcb5623720)" d="M 197.285892 184.369657 
L 191.885904 177.138661 
L 197.196398 177.140275 
z
" style="stroke:#000000;"/>
    <path clip-path="url(#pfcb5623720)" d="M 197.655713 147.238522 
L 191.691219 154.407158 
L 197.004114 154.387328 
z
" style="stroke:#000000;"/>
    <path clip-path="url(#pfcb5623720)" d="M 190.924027 169.438581 
L 191.976515 169.915314 
L 191.885904 177.138661 
z
" style="stroke:#000000;"/>
    <path clip-path="url(#pfcb5623720)" d="M 191.976515 184.361234 
L 190.924027 184.846963 
L 191.885904 177.138661 
z
" style="stroke:#000000;"/>
    <path clip-path="url(#pfcb5623720)" d="M 197.553137 162.768148 
L 196.532174 161.815761 
L 197.285892 169.910118 
z
" style="stroke:#000000;"/>
    <path clip-path="url(#pfcb5623720)" d="M 196.532174 192.470549 
L 197.553137 191.509309 
L 197.285892 184.369657 
z
" style="stroke:#000000;"/>
    <path clip-path="url(#pfcb5623720)" d="M 191.213389 161.828605 
L 197.004114 154.387328 
L 191.691219 154.407158 
z
" style="stroke:#000000;"/>
    <path clip-path="url(#pfcb5623720)" d="M 190.924027 184.846963 
L 191.976515 184.361234 
L 191.213389 192.454466 
z
" style="stroke:#000000;"/>
    <path clip-path="url(#pfcb5623720)" d="M 191.976515 169.915314 
L 190.924027 169.438581 
L 191.213389 161.828605 
z
" style="stroke:#000000;"/>
    <path clip-path="url(#pfcb5623720)" d="M 196.532174 161.815761 
L 197.553137 162.768148 
L 197.004114 154.387328 
z
" style="stroke:#000000;"/>
    <path clip-path="url(#pfcb5623720)" d="M 197.553137 191.509309 
L 196.532174 192.470549 
L 197.004114 199.89489 
z
" style="stroke:#000000;"/>
    <path clip-path="url(#pfcb5623720)" d="M 196.532174 192.470549 
L 191.691219 199.871829 
L 197.004114 199.89489 
z
" style="stroke:#000000;"/>
    <path clip-path="url(#pfcb5623720)" d="M 191.691219 199.871829 
L 196.532174 192.470549 
L 191.213389 192.454466 
z
" style="stroke:#000000;"/>
    <path clip-path="url(#pfcb5623720)" d="M 196.246379 184.855867 
L 197.285892 184.369657 
L 197.196398 177.140275 
z
" style="stroke:#000000;"/>
    <path clip-path="url(#pfcb5623720)" d="M 197.285892 169.910118 
L 196.246379 169.432921 
L 197.196398 177.140275 
z
" style="stroke:#000000;"/>
    <path clip-path="url(#pfcb5623720)" d="M 190.827128 177.143186 
L 191.885904 177.138661 
L 190.924027 184.846963 
z
" style="stroke:#000000;"/>
    <path clip-path="url(#pfcb5623720)" d="M 191.885904 177.138661 
L 190.827128 177.143186 
L 190.924027 169.438581 
z
" style="stroke:#000000;"/>
    <path clip-path="url(#pfcb5623720)" d="M 197.004114 154.387328 
L 191.213389 161.828605 
L 196.532174 161.815761 
z
" style="stroke:#000000;"/>
    <path clip-path="url(#pfcb5623720)" d="M 196.246379 169.432921 
L 197.285892 169.910118 
L 196.532174 161.815761 
z
" style="stroke:#000000;"/>
    <path clip-path="url(#pfcb5623720)" d="M 197.285892 184.369657 
L 196.246379 184.855867 
L 196.532174 192.470549 
z
" style="stroke:#000000;"/>
    <path clip-path="url(#pfcb5623720)" d="M 190.924027 169.438581 
L 196.532174 161.815761 
L 191.213389 161.828605 
z
" style="stroke:#000000;"/>
    <path clip-path="url(#pfcb5623720)" d="M 192.061823 130.100861 
L 194.747737 122.351628 
L 197.370149 130.058141 
z
" style="stroke:#000000;"/>
    <path clip-path="url(#pfcb5623720)" d="M 194.747737 151.972851 
L 192.061823 130.100861 
L 197.370149 130.058141 
z
" style="stroke:#000000;"/>
    <path clip-path="url(#pfcb5623720)" d="M 191.213389 192.454466 
L 196.246379 184.855867 
L 190.924027 184.846963 
z
" style="stroke:#000000;"/>
    <path clip-path="url(#pfcb5623720)" d="M 192.061823 130.100861 
L 189.406689 144.596796 
L 191.180675 130.921804 
z
" style="stroke:#000000;"/>
    <path clip-path="url(#pfcb5623720)" d="M 191.180675 130.921804 
L 189.406689 122.401936 
L 192.061823 130.100861 
z
" style="stroke:#000000;"/>
    <path clip-path="url(#pfcb5623720)" d="M 196.246379 184.855867 
L 191.213389 192.454466 
L 196.532174 192.470549 
z
" style="stroke:#000000;"/>
    <path clip-path="url(#pfcb5623720)" d="M 196.150675 177.144809 
L 197.196398 177.140275 
L 196.246379 169.432921 
z
" style="stroke:#000000;"/>
    <path clip-path="url(#pfcb5623720)" d="M 197.196398 177.140275 
L 196.150675 177.144809 
L 196.246379 184.855867 
z
" style="stroke:#000000;"/>
    <path clip-path="url(#pfcb5623720)" d="M 196.532174 161.815761 
L 190.924027 169.438581 
L 196.246379 169.432921 
z
" style="stroke:#000000;"/>
    <path clip-path="url(#pfcb5623720)" d="M 190.827128 177.143186 
L 196.246379 169.432921 
L 190.924027 169.438581 
z
" style="stroke:#000000;"/>
    <path clip-path="url(#pfcb5623720)" d="M 190.924027 184.846963 
L 196.150675 177.144809 
L 190.827128 177.143186 
z
" style="stroke:#000000;"/>
    <path clip-path="url(#pfcb5623720)" d="M 196.150675 177.144809 
L 190.924027 184.846963 
L 196.246379 184.855867 
z
" style="stroke:#000000;"/>
    <path clip-path="url(#pfcb5623720)" d="M 196.246379 169.432921 
L 190.827128 177.143186 
L 196.150675 177.144809 
z
" style="stroke:#000000;"/>
    <path clip-path="url(#pfcb5623720)" d="M 194.747737 122.351628 
L 196.499863 130.879765 
L 197.370149 130.058141 
z
" style="stroke:#000000;"/>
    <path clip-path="url(#pfcb5623720)" d="M 194.747737 144.567545 
L 197.370149 130.058141 
L 196.499863 130.879765 
z
" style="stroke:#000000;"/>
    <path clip-path="url(#pfcb5623720)" d="M 196.499863 130.879765 
L 189.406689 126.101079 
L 191.180675 130.921804 
z
" style="stroke:#000000;"/>
    <path clip-path="url(#pfcb5623720)" d="M 189.406689 144.596796 
L 196.499863 130.879765 
L 191.180675 130.921804 
z
" style="stroke:#000000;"/>
    <path clip-path="url(#pfcb5623720)" d="M 189.406689 144.596796 
L 192.061823 130.100861 
L 189.406689 151.995083 
z
" style="stroke:#000000;"/>
    <path clip-path="url(#pfcb5623720)" d="M 194.747737 122.351628 
L 192.061823 130.100861 
L 189.406689 122.401936 
z
" style="stroke:#000000;"/>
    <path clip-path="url(#pfcb5623720)" d="M 192.061823 130.100861 
L 194.747737 151.972851 
L 189.406689 151.995083 
z
" style="stroke:#000000;"/>
    <path clip-path="url(#pfcb5623720)" d="M 189.406689 122.401936 
L 191.180675 130.921804 
L 189.406689 126.101079 
z
" style="stroke:#000000;"/>
    <path clip-path="url(#pfcb5623720)" d="M 194.747737 144.567545 
L 194.747737 151.972851 
L 197.370149 130.058141 
z
" style="stroke:#000000;"/>
    <path clip-path="url(#pfcb5623720)" d="M 189.406689 126.101079 
L 196.499863 130.879765 
L 194.747737 126.054281 
z
" style="stroke:#000000;"/>
    <path clip-path="url(#pfcb5623720)" d="M 196.499863 130.879765 
L 189.406689 144.596796 
L 194.747737 144.567545 
z
" style="stroke:#000000;"/>
    <path clip-path="url(#pfcb5623720)" d="M 194.747737 122.351628 
L 194.747737 126.054281 
L 196.499863 130.879765 
z
" style="stroke:#000000;"/>
    <path clip-path="url(#pfcb5623720)" d="M 187.616944 130.526465 
L 189.406689 122.401936 
L 189.406689 126.101079 
z
" style="stroke:#000000;"/>
    <path clip-path="url(#pfcb5623720)" d="M 194.747737 126.054281 
L 187.616944 130.526465 
L 189.406689 126.101079 
z
" style="stroke:#000000;"/>
    <path clip-path="url(#pfcb5623720)" d="M 187.616944 130.526465 
L 194.747737 144.567545 
L 189.406689 144.596796 
z
" style="stroke:#000000;"/>
    <path clip-path="url(#pfcb5623720)" d="M 186.716097 129.495569 
L 189.406689 144.596796 
L 189.406689 151.995083 
z
" style="stroke:#000000;"/>
    <path clip-path="url(#pfcb5623720)" d="M 194.747737 122.351628 
L 192.980032 130.483675 
L 194.747737 126.054281 
z
" style="stroke:#000000;"/>
    <path clip-path="url(#pfcb5623720)" d="M 189.406689 122.401936 
L 192.090272 129.4517 
L 194.747737 122.351628 
z
" style="stroke:#000000;"/>
    <path clip-path="url(#pfcb5623720)" d="M 192.090272 129.4517 
L 189.406689 151.995083 
L 194.747737 151.972851 
z
" style="stroke:#000000;"/>
    <path clip-path="url(#pfcb5623720)" d="M 194.747737 144.567545 
L 192.090272 129.4517 
L 194.747737 151.972851 
z
" style="stroke:#000000;"/>
    <path clip-path="url(#pfcb5623720)" d="M 187.616944 130.526465 
L 194.747737 126.054281 
L 192.980032 130.483675 
z
" style="stroke:#000000;"/>
    <path clip-path="url(#pfcb5623720)" d="M 194.747737 144.567545 
L 187.616944 130.526465 
L 192.980032 130.483675 
z
" style="stroke:#000000;"/>
    <path clip-path="url(#pfcb5623720)" d="M 189.406689 144.596796 
L 186.716097 129.495569 
L 187.616944 130.526465 
z
" style="stroke:#000000;"/>
    <path clip-path="url(#pfcb5623720)" d="M 189.406689 122.401936 
L 187.616944 130.526465 
L 186.716097 129.495569 
z
" style="stroke:#000000;"/>
    <path clip-path="url(#pfcb5623720)" d="M 187.877837 169.39314 
L 193.334829 177.157017 
L 187.976164 177.155371 
z
" style="stroke:#000000;"/>
    <path clip-path="url(#pfcb5623720)" d="M 187.976164 177.155371 
L 193.237713 184.927482 
L 187.877837 184.918443 
z
" style="stroke:#000000;"/>
    <path clip-path="url(#pfcb5623720)" d="M 193.237713 184.927482 
L 187.976164 177.155371 
L 193.334829 177.157017 
z
" style="stroke:#000000;"/>
    <path clip-path="url(#pfcb5623720)" d="M 193.334829 177.157017 
L 187.877837 169.39314 
L 193.237713 169.387394 
z
" style="stroke:#000000;"/>
    <path clip-path="url(#pfcb5623720)" d="M 187.583641 161.705562 
L 193.237713 169.387394 
L 187.877837 169.39314 
z
" style="stroke:#000000;"/>
    <path clip-path="url(#pfcb5623720)" d="M 186.896587 177.159985 
L 187.976164 177.155371 
L 187.877837 184.918443 
z
" style="stroke:#000000;"/>
    <path clip-path="url(#pfcb5623720)" d="M 187.976164 177.155371 
L 186.896587 177.159985 
L 187.877837 169.39314 
z
" style="stroke:#000000;"/>
    <path clip-path="url(#pfcb5623720)" d="M 187.877837 184.918443 
L 192.947139 192.62491 
L 187.583641 192.608535 
z
" style="stroke:#000000;"/>
    <path clip-path="url(#pfcb5623720)" d="M 192.980032 130.483675 
L 194.747737 122.351628 
L 192.090272 129.4517 
z
" style="stroke:#000000;"/>
    <path clip-path="url(#pfcb5623720)" d="M 192.090272 129.4517 
L 194.747737 144.567545 
L 192.980032 130.483675 
z
" style="stroke:#000000;"/>
    <path clip-path="url(#pfcb5623720)" d="M 192.947139 192.62491 
L 187.877837 184.918443 
L 193.237713 184.927482 
z
" style="stroke:#000000;"/>
    <path clip-path="url(#pfcb5623720)" d="M 192.090272 129.4517 
L 189.406689 122.401936 
L 186.716097 129.495569 
z
" style="stroke:#000000;"/>
    <path clip-path="url(#pfcb5623720)" d="M 189.406689 151.995083 
L 192.090272 129.4517 
L 186.716097 129.495569 
z
" style="stroke:#000000;"/>
    <path clip-path="url(#pfcb5623720)" d="M 193.237713 169.387394 
L 187.583641 161.705562 
L 192.947139 161.692485 
z
" style="stroke:#000000;"/>
    <path clip-path="url(#pfcb5623720)" d="M 186.803662 184.47666 
L 187.877837 184.918443 
L 187.583641 192.608535 
z
" style="stroke:#000000;"/>
    <path clip-path="url(#pfcb5623720)" d="M 187.877837 169.39314 
L 186.803662 169.844105 
L 187.583641 161.705562 
z
" style="stroke:#000000;"/>
    <path clip-path="url(#pfcb5623720)" d="M 187.095957 154.166085 
L 192.947139 161.692485 
L 187.583641 161.705562 
z
" style="stroke:#000000;"/>
    <path clip-path="url(#pfcb5623720)" d="M 192.268541 177.16164 
L 193.334829 177.157017 
L 193.237713 169.387394 
z
" style="stroke:#000000;"/>
    <path clip-path="url(#pfcb5623720)" d="M 193.334829 177.157017 
L 192.268541 177.16164 
L 193.237713 184.927482 
z
" style="stroke:#000000;"/>
    <path clip-path="url(#pfcb5623720)" d="M 186.803662 169.844105 
L 187.877837 169.39314 
L 186.896587 177.159985 
z
" style="stroke:#000000;"/>
    <path clip-path="url(#pfcb5623720)" d="M 187.877837 184.918443 
L 186.803662 184.47666 
L 186.896587 177.159985 
z
" style="stroke:#000000;"/>
    <path clip-path="url(#pfcb5623720)" d="M 192.465458 200.175774 
L 187.583641 192.608535 
L 192.947139 192.62491 
z
" style="stroke:#000000;"/>
    <path clip-path="url(#pfcb5623720)" d="M 187.583641 192.608535 
L 192.465458 200.175774 
L 187.095957 200.152181 
z
" style="stroke:#000000;"/>
    <path clip-path="url(#pfcb5623720)" d="M 186.525665 191.723922 
L 187.583641 192.608535 
L 187.095957 200.152181 
z
" style="stroke:#000000;"/>
    <path clip-path="url(#pfcb5623720)" d="M 187.583641 161.705562 
L 186.525665 162.599219 
L 187.095957 154.166085 
z
" style="stroke:#000000;"/>
    <path clip-path="url(#pfcb5623720)" d="M 192.176759 169.838774 
L 193.237713 169.387394 
L 192.947139 161.692485 
z
" style="stroke:#000000;"/>
    <path clip-path="url(#pfcb5623720)" d="M 193.237713 184.927482 
L 192.176759 184.485302 
L 192.947139 192.62491 
z
" style="stroke:#000000;"/>
    <path clip-path="url(#pfcb5623720)" d="M 192.947139 161.692485 
L 187.095957 154.166085 
L 192.465458 154.145798 
z
" style="stroke:#000000;"/>
    <path clip-path="url(#pfcb5623720)" d="M 187.583641 192.608535 
L 186.525665 191.723922 
L 186.803662 184.47666 
z
" style="stroke:#000000;"/>
    <path clip-path="url(#pfcb5623720)" d="M 186.525665 162.599219 
L 187.583641 161.705562 
L 186.803662 169.844105 
z
" style="stroke:#000000;"/>
    <path clip-path="url(#pfcb5623720)" d="M 192.176759 184.485302 
L 193.237713 184.927482 
L 192.268541 177.16164 
z
" style="stroke:#000000;"/>
    <path clip-path="url(#pfcb5623720)" d="M 193.237713 169.387394 
L 192.176759 169.838774 
L 192.268541 177.16164 
z
" style="stroke:#000000;"/>
    <path clip-path="url(#pfcb5623720)" d="M 186.418761 146.847406 
L 192.465458 154.145798 
L 187.095957 154.166085 
z
" style="stroke:#000000;"/>
    <path clip-path="url(#pfcb5623720)" d="M 186.803662 184.47666 
L 192.268541 177.16164 
L 186.896587 177.159985 
z
" style="stroke:#000000;"/>
    <path clip-path="url(#pfcb5623720)" d="M 186.896587 177.159985 
L 192.176759 169.838774 
L 186.803662 169.844105 
z
" style="stroke:#000000;"/>
    <path clip-path="url(#pfcb5623720)" d="M 191.902183 162.586961 
L 192.947139 161.692485 
L 192.465458 154.145798 
z
" style="stroke:#000000;"/>
    <path clip-path="url(#pfcb5623720)" d="M 192.947139 192.62491 
L 191.902183 191.739495 
L 192.465458 200.175774 
z
" style="stroke:#000000;"/>
    <path clip-path="url(#pfcb5623720)" d="M 191.796595 207.507282 
L 187.095957 200.152181 
L 192.465458 200.175774 
z
" style="stroke:#000000;"/>
    <path clip-path="url(#pfcb5623720)" d="M 192.176759 169.838774 
L 186.896587 177.159985 
L 192.268541 177.16164 
z
" style="stroke:#000000;"/>
    <path clip-path="url(#pfcb5623720)" d="M 192.947139 161.692485 
L 191.902183 162.586961 
L 192.176759 169.838774 
z
" style="stroke:#000000;"/>
    <path clip-path="url(#pfcb5623720)" d="M 191.902183 191.739495 
L 192.947139 192.62491 
L 192.176759 184.485302 
z
" style="stroke:#000000;"/>
    <path clip-path="url(#pfcb5623720)" d="M 186.525665 191.723922 
L 192.176759 184.485302 
L 186.803662 184.47666 
z
" style="stroke:#000000;"/>
    <path clip-path="url(#pfcb5623720)" d="M 192.268541 177.16164 
L 186.803662 184.47666 
L 192.176759 184.485302 
z
" style="stroke:#000000;"/>
    <path clip-path="url(#pfcb5623720)" d="M 187.095957 200.152181 
L 186.064877 198.832009 
L 186.525665 191.723922 
z
" style="stroke:#000000;"/>
    <path clip-path="url(#pfcb5623720)" d="M 186.064877 155.495071 
L 187.095957 154.166085 
L 186.525665 162.599219 
z
" style="stroke:#000000;"/>
    <path clip-path="url(#pfcb5623720)" d="M 186.064877 198.832009 
L 187.095957 200.152181 
L 186.418761 207.476649 
z
" style="stroke:#000000;"/>
    <path clip-path="url(#pfcb5623720)" d="M 187.095957 154.166085 
L 186.064877 155.495071 
L 186.418761 146.847406 
z
" style="stroke:#000000;"/>
    <path clip-path="url(#pfcb5623720)" d="M 187.095957 200.152181 
L 191.796595 207.507282 
L 186.418761 207.476649 
z
" style="stroke:#000000;"/>
    <path clip-path="url(#pfcb5623720)" d="M 186.803662 169.844105 
L 191.902183 162.586961 
L 186.525665 162.599219 
z
" style="stroke:#000000;"/>
    <path clip-path="url(#pfcb5623720)" d="M 191.902183 162.586961 
L 186.803662 169.844105 
L 192.176759 169.838774 
z
" style="stroke:#000000;"/>
    <path clip-path="url(#pfcb5623720)" d="M 192.465458 154.145798 
L 186.418761 146.847406 
L 191.796595 146.820089 
z
" style="stroke:#000000;"/>
    <path clip-path="url(#pfcb5623720)" d="M 192.176759 184.485302 
L 186.525665 191.723922 
L 191.902183 191.739495 
z
" style="stroke:#000000;"/>
    <path clip-path="url(#pfcb5623720)" d="M 186.064877 198.832009 
L 191.902183 191.739495 
L 186.525665 191.723922 
z
" style="stroke:#000000;"/>
    <path clip-path="url(#pfcb5623720)" d="M 192.465458 154.145798 
L 191.447065 155.476003 
L 191.902183 162.586961 
z
" style="stroke:#000000;"/>
    <path clip-path="url(#pfcb5623720)" d="M 191.447065 198.854399 
L 192.465458 200.175774 
L 191.902183 191.739495 
z
" style="stroke:#000000;"/>
    <path clip-path="url(#pfcb5623720)" d="M 191.447065 155.476003 
L 192.465458 154.145798 
L 191.796595 146.820089 
z
" style="stroke:#000000;"/>
    <path clip-path="url(#pfcb5623720)" d="M 192.465458 200.175774 
L 191.447065 198.854399 
L 191.796595 207.507282 
z
" style="stroke:#000000;"/>
    <path clip-path="url(#pfcb5623720)" d="M 191.447065 155.476003 
L 186.525665 162.599219 
L 191.902183 162.586961 
z
" style="stroke:#000000;"/>
    <path clip-path="url(#pfcb5623720)" d="M 186.525665 162.599219 
L 191.447065 155.476003 
L 186.064877 155.495071 
z
" style="stroke:#000000;"/>
    <path clip-path="url(#pfcb5623720)" d="M 185.557602 139.820931 
L 191.796595 146.820089 
L 186.418761 146.847406 
z
" style="stroke:#000000;"/>
    <path clip-path="url(#pfcb5623720)" d="M 186.418761 207.476649 
L 185.425126 205.731808 
L 186.064877 198.832009 
z
" style="stroke:#000000;"/>
    <path clip-path="url(#pfcb5623720)" d="M 185.425126 148.60074 
L 186.418761 146.847406 
L 186.064877 155.495071 
z
" style="stroke:#000000;"/>
    <path clip-path="url(#pfcb5623720)" d="M 191.902183 191.739495 
L 186.064877 198.832009 
L 191.447065 198.854399 
z
" style="stroke:#000000;"/>
    <path clip-path="url(#pfcb5623720)" d="M 190.94603 214.54792 
L 186.418761 207.476649 
L 191.796595 207.507282 
z
" style="stroke:#000000;"/>
    <path clip-path="url(#pfcb5623720)" d="M 185.425126 205.731808 
L 186.418761 207.476649 
L 185.557602 214.510485 
z
" style="stroke:#000000;"/>
    <path clip-path="url(#pfcb5623720)" d="M 186.418761 146.847406 
L 185.425126 148.60074 
L 185.557602 139.820931 
z
" style="stroke:#000000;"/>
    <path clip-path="url(#pfcb5623720)" d="M 185.425126 205.731808 
L 191.447065 198.854399 
L 186.064877 198.832009 
z
" style="stroke:#000000;"/>
    <path clip-path="url(#pfcb5623720)" d="M 186.418761 207.476649 
L 190.94603 214.54792 
L 185.557602 214.510485 
z
" style="stroke:#000000;"/>
    <path clip-path="url(#pfcb5623720)" d="M 190.815184 148.575037 
L 186.064877 155.495071 
L 191.447065 155.476003 
z
" style="stroke:#000000;"/>
    <path clip-path="url(#pfcb5623720)" d="M 191.796595 146.820089 
L 185.557602 139.820931 
L 190.94603 139.786827 
z
" style="stroke:#000000;"/>
    <path clip-path="url(#pfcb5623720)" d="M 191.796595 146.820089 
L 190.815184 148.575037 
L 191.447065 155.476003 
z
" style="stroke:#000000;"/>
    <path clip-path="url(#pfcb5623720)" d="M 190.815184 205.760845 
L 191.796595 207.507282 
L 191.447065 198.854399 
z
" style="stroke:#000000;"/>
    <path clip-path="url(#pfcb5623720)" d="M 186.064877 155.495071 
L 190.815184 148.575037 
L 185.425126 148.60074 
z
" style="stroke:#000000;"/>
    <path clip-path="url(#pfcb5623720)" d="M 190.815184 148.575037 
L 191.796595 146.820089 
L 190.94603 139.786827 
z
" style="stroke:#000000;"/>
    <path clip-path="url(#pfcb5623720)" d="M 191.796595 207.507282 
L 190.815184 205.760845 
L 190.94603 214.54792 
z
" style="stroke:#000000;"/>
    <path clip-path="url(#pfcb5623720)" d="M 191.447065 198.854399 
L 185.425126 205.731808 
L 190.815184 205.760845 
z
" style="stroke:#000000;"/>
    <path clip-path="url(#pfcb5623720)" d="M 185.557602 214.510485 
L 184.611775 212.355457 
L 185.425126 205.731808 
z
" style="stroke:#000000;"/>
    <path clip-path="url(#pfcb5623720)" d="M 184.611775 141.984044 
L 185.557602 139.820931 
L 185.425126 148.60074 
z
" style="stroke:#000000;"/>
    <path clip-path="url(#pfcb5623720)" d="M 184.519669 133.156809 
L 190.94603 139.786827 
L 185.557602 139.820931 
z
" style="stroke:#000000;"/>
    <path clip-path="url(#pfcb5623720)" d="M 184.611775 212.355457 
L 190.815184 205.760845 
L 185.425126 205.731808 
z
" style="stroke:#000000;"/>
    <path clip-path="url(#pfcb5623720)" d="M 189.920862 221.227418 
L 185.557602 214.510485 
L 190.94603 214.54792 
z
" style="stroke:#000000;"/>
    <path clip-path="url(#pfcb5623720)" d="M 184.519669 221.183479 
L 184.611775 212.355457 
L 185.557602 214.510485 
z
" style="stroke:#000000;"/>
    <path clip-path="url(#pfcb5623720)" d="M 184.611775 141.984044 
L 184.519669 133.156809 
L 185.557602 139.820931 
z
" style="stroke:#000000;"/>
    <path clip-path="url(#pfcb5623720)" d="M 190.011836 141.951936 
L 185.425126 148.60074 
L 190.815184 148.575037 
z
" style="stroke:#000000;"/>
    <path clip-path="url(#pfcb5623720)" d="M 190.94603 139.786827 
L 190.011836 141.951936 
L 190.815184 148.575037 
z
" style="stroke:#000000;"/>
    <path clip-path="url(#pfcb5623720)" d="M 190.011836 212.390911 
L 190.94603 214.54792 
L 190.815184 205.760845 
z
" style="stroke:#000000;"/>
    <path clip-path="url(#pfcb5623720)" d="M 185.425126 148.60074 
L 190.011836 141.951936 
L 184.611775 141.984044 
z
" style="stroke:#000000;"/>
    <path clip-path="url(#pfcb5623720)" d="M 185.557602 214.510485 
L 189.920862 221.227418 
L 184.519669 221.183479 
z
" style="stroke:#000000;"/>
    <path clip-path="url(#pfcb5623720)" d="M 190.815184 205.760845 
L 184.611775 212.355457 
L 190.011836 212.390911 
z
" style="stroke:#000000;"/>
    <path clip-path="url(#pfcb5623720)" d="M 190.94603 139.786827 
L 184.519669 133.156809 
L 189.920862 133.116218 
z
" style="stroke:#000000;"/>
    <path clip-path="url(#pfcb5623720)" d="M 189.920862 133.116218 
L 190.011836 141.951936 
L 190.94603 139.786827 
z
" style="stroke:#000000;"/>
    <path clip-path="url(#pfcb5623720)" d="M 190.011836 212.390911 
L 189.920862 221.227418 
L 190.94603 214.54792 
z
" style="stroke:#000000;"/>
    <path clip-path="url(#pfcb5623720)" d="M 184.519669 221.183479 
L 183.631719 218.636775 
L 184.611775 212.355457 
z
" style="stroke:#000000;"/>
    <path clip-path="url(#pfcb5623720)" d="M 183.631719 135.711103 
L 184.519669 133.156809 
L 184.611775 141.984044 
z
" style="stroke:#000000;"/>
    <path clip-path="url(#pfcb5623720)" d="M 183.631719 218.636775 
L 190.011836 212.390911 
L 184.611775 212.355457 
z
" style="stroke:#000000;"/>
    <path clip-path="url(#pfcb5623720)" d="M 189.043828 135.672881 
L 184.611775 141.984044 
L 190.011836 141.951936 
z
" style="stroke:#000000;"/>
    <path clip-path="url(#pfcb5623720)" d="M 183.313744 126.922466 
L 189.920862 133.116218 
L 184.519669 133.156809 
z
" style="stroke:#000000;"/>
    <path clip-path="url(#pfcb5623720)" d="M 189.920862 133.116218 
L 189.043828 135.672881 
L 190.011836 141.951936 
z
" style="stroke:#000000;"/>
    <path clip-path="url(#pfcb5623720)" d="M 189.043828 218.678359 
L 189.920862 221.227418 
L 190.011836 212.390911 
z
" style="stroke:#000000;"/>
    <path clip-path="url(#pfcb5623720)" d="M 188.729761 227.478214 
L 184.519669 221.183479 
L 189.920862 221.227418 
z
" style="stroke:#000000;"/>
    <path clip-path="url(#pfcb5623720)" d="M 184.611775 141.984044 
L 189.043828 135.672881 
L 183.631719 135.711103 
z
" style="stroke:#000000;"/>
    <path clip-path="url(#pfcb5623720)" d="M 183.313744 227.42813 
L 183.631719 218.636775 
L 184.519669 221.183479 
z
" style="stroke:#000000;"/>
    <path clip-path="url(#pfcb5623720)" d="M 183.631719 135.711103 
L 183.313744 126.922466 
L 184.519669 133.156809 
z
" style="stroke:#000000;"/>
    <path clip-path="url(#pfcb5623720)" d="M 190.011836 212.390911 
L 183.631719 218.636775 
L 189.043828 218.678359 
z
" style="stroke:#000000;"/>
    <path clip-path="url(#pfcb5623720)" d="M 184.519669 221.183479 
L 188.729761 227.478214 
L 183.313744 227.42813 
z
" style="stroke:#000000;"/>
    <path clip-path="url(#pfcb5623720)" d="M 189.920862 133.116218 
L 183.313744 126.922466 
L 188.729761 126.87575 
z
" style="stroke:#000000;"/>
    <path clip-path="url(#pfcb5623720)" d="M 188.729761 126.87575 
L 189.043828 135.672881 
L 189.920862 133.116218 
z
" style="stroke:#000000;"/>
    <path clip-path="url(#pfcb5623720)" d="M 189.043828 218.678359 
L 188.729761 227.478214 
L 189.920862 221.227418 
z
" style="stroke:#000000;"/>
    <path clip-path="url(#pfcb5623720)" d="M 183.313744 227.42813 
L 182.493397 224.511194 
L 183.631719 218.636775 
z
" style="stroke:#000000;"/>
    <path clip-path="url(#pfcb5623720)" d="M 182.493397 129.846415 
L 183.313744 126.922466 
L 183.631719 135.711103 
z
" style="stroke:#000000;"/>
    <path clip-path="url(#pfcb5623720)" d="M 182.493397 224.511194 
L 189.043828 218.678359 
L 183.631719 218.636775 
z
" style="stroke:#000000;"/>
    <path clip-path="url(#pfcb5623720)" d="M 187.919495 129.802427 
L 183.631719 135.711103 
L 189.043828 135.672881 
z
" style="stroke:#000000;"/>
    <path clip-path="url(#pfcb5623720)" d="M 182.633116 124.057778 
L 188.729761 126.87575 
L 183.313744 126.922466 
z
" style="stroke:#000000;"/>
    <path clip-path="url(#pfcb5623720)" d="M 188.057497 230.351572 
L 183.313744 227.42813 
L 188.729761 227.478214 
z
" style="stroke:#000000;"/>
    <path clip-path="url(#pfcb5623720)" d="M 188.729761 126.87575 
L 187.919495 129.802427 
L 189.043828 135.672881 
z
" style="stroke:#000000;"/>
    <path clip-path="url(#pfcb5623720)" d="M 187.919495 224.558563 
L 188.729761 227.478214 
L 189.043828 218.678359 
z
" style="stroke:#000000;"/>
    <path clip-path="url(#pfcb5623720)" d="M 183.631719 135.711103 
L 187.919495 129.802427 
L 182.493397 129.846415 
z
" style="stroke:#000000;"/>
    <path clip-path="url(#pfcb5623720)" d="M 183.313744 227.42813 
L 188.057497 230.351572 
L 182.633116 230.298636 
z
" style="stroke:#000000;"/>
    <path clip-path="url(#pfcb5623720)" d="M 182.151033 229.36 
L 183.313744 227.42813 
L 182.633116 230.298636 
z
" style="stroke:#000000;"/>
    <path clip-path="url(#pfcb5623720)" d="M 183.313744 126.922466 
L 182.151033 125.000535 
L 182.633116 124.057778 
z
" style="stroke:#000000;"/>
    <path clip-path="url(#pfcb5623720)" d="M 183.313744 227.42813 
L 182.151033 229.36 
L 182.493397 224.511194 
z
" style="stroke:#000000;"/>
    <path clip-path="url(#pfcb5623720)" d="M 182.151033 125.000535 
L 183.313744 126.922466 
L 182.493397 129.846415 
z
" style="stroke:#000000;"/>
    <path clip-path="url(#pfcb5623720)" d="M 189.043828 218.678359 
L 182.493397 224.511194 
L 187.919495 224.558563 
z
" style="stroke:#000000;"/>
    <path clip-path="url(#pfcb5623720)" d="M 188.729761 126.87575 
L 182.633116 124.057778 
L 188.057497 124.008221 
z
" style="stroke:#000000;"/>
    <path clip-path="url(#pfcb5623720)" d="M 188.057497 230.351572 
L 182.151033 229.36 
L 182.633116 230.298636 
z
" style="stroke:#000000;"/>
    <path clip-path="url(#pfcb5623720)" d="M 187.581337 124.95183 
L 188.729761 126.87575 
L 188.057497 124.008221 
z
" style="stroke:#000000;"/>
    <path clip-path="url(#pfcb5623720)" d="M 188.729761 227.478214 
L 187.581337 229.412092 
L 188.057497 230.351572 
z
" style="stroke:#000000;"/>
    <path clip-path="url(#pfcb5623720)" d="M 188.729761 126.87575 
L 187.581337 124.95183 
L 187.919495 129.802427 
z
" style="stroke:#000000;"/>
    <path clip-path="url(#pfcb5623720)" d="M 187.581337 229.412092 
L 188.729761 227.478214 
L 187.919495 224.558563 
z
" style="stroke:#000000;"/>
    <path clip-path="url(#pfcb5623720)" d="M 182.633116 124.057778 
L 187.581337 124.95183 
L 188.057497 124.008221 
z
" style="stroke:#000000;"/>
    <path clip-path="url(#pfcb5623720)" d="M 187.581337 124.95183 
L 182.633116 124.057778 
L 182.151033 125.000535 
z
" style="stroke:#000000;"/>
    <path clip-path="url(#pfcb5623720)" d="M 182.493397 224.511194 
L 182.151033 229.36 
L 181.643484 228.082354 
z
" style="stroke:#000000;"/>
    <path clip-path="url(#pfcb5623720)" d="M 182.151033 125.000535 
L 182.493397 129.846415 
L 181.643484 126.28252 
z
" style="stroke:#000000;"/>
    <path clip-path="url(#pfcb5623720)" d="M 187.919495 129.802427 
L 181.643484 126.28252 
L 182.493397 129.846415 
z
" style="stroke:#000000;"/>
    <path clip-path="url(#pfcb5623720)" d="M 182.151033 229.36 
L 188.057497 230.351572 
L 187.581337 229.412092 
z
" style="stroke:#000000;"/>
    <path clip-path="url(#pfcb5623720)" d="M 182.493397 224.511194 
L 187.080022 228.133275 
L 187.919495 224.558563 
z
" style="stroke:#000000;"/>
    <path clip-path="url(#pfcb5623720)" d="M 187.581337 229.412092 
L 181.643484 228.082354 
L 182.151033 229.36 
z
" style="stroke:#000000;"/>
    <path clip-path="url(#pfcb5623720)" d="M 187.080022 228.133275 
L 182.493397 224.511194 
L 181.643484 228.082354 
z
" style="stroke:#000000;"/>
    <path clip-path="url(#pfcb5623720)" d="M 182.151033 125.000535 
L 187.080022 126.234994 
L 187.581337 124.95183 
z
" style="stroke:#000000;"/>
    <path clip-path="url(#pfcb5623720)" d="M 187.919495 129.802427 
L 187.581337 124.95183 
L 187.080022 126.234994 
z
" style="stroke:#000000;"/>
    <path clip-path="url(#pfcb5623720)" d="M 187.581337 229.412092 
L 187.919495 224.558563 
L 187.080022 228.133275 
z
" style="stroke:#000000;"/>
    <path clip-path="url(#pfcb5623720)" d="M 187.080022 126.234994 
L 182.151033 125.000535 
L 181.643484 126.28252 
z
" style="stroke:#000000;"/>
    <path clip-path="url(#pfcb5623720)" d="M 181.643484 126.28252 
L 187.919495 129.802427 
L 187.080022 126.234994 
z
" style="stroke:#000000;"/>
    <path clip-path="url(#pfcb5623720)" d="M 181.643484 228.082354 
L 187.581337 229.412092 
L 187.080022 228.133275 
z
" style="stroke:#000000;"/>
   </g>
  </g>
 </g>
 <defs>
  <clipPath id="pfcb5623720">
   <rect height="271.8" width="279" x="45" y="43.2"/>
  </clipPath>
 </defs>
</svg>
