<?xml version="1.0" encoding="utf-8" standalone="no"?>
<!DOCTYPE svg PUBLIC "-//W3C//DTD SVG 1.1//EN"
  "http://www.w3.org/Graphics/SVG/1.1/DTD/svg11.dtd">
<!-- Created with matplotlib (https://matplotlib.org/) -->
<svg height="360pt" version="1.1" viewBox="0 0 360 360" width="360pt" xmlns="http://www.w3.org/2000/svg" xmlns:xlink="http://www.w3.org/1999/xlink">
 <defs>
  <style type="text/css">
*{stroke-linecap:butt;stroke-linejoin:round;}
  </style>
 </defs>
 <g id="figure_1">
  <g id="patch_1">
   <path d="M 0 360 
L 360 360 
L 360 0 
L 0 0 
z
" style="fill:#ffffff;"/>
  </g>
  <g id="patch_2">
   <path d="M 45 315 
L 324 315 
L 324 43.2 
L 45 43.2 
z
" style="fill:#ffffff;"/>
  </g>
  <g id="axes_1">
   <g id="Poly3DCollection_1">
    <path clip-path="url(#pcb59e21084)" d="M 199.412825 131.445686 
L 200.170375 126.842576 
L 201.289271 128.182442 
z
" style="stroke:#000000;"/>
    <path clip-path="url(#pcb59e21084)" d="M 200.170375 227.38987 
L 199.412825 222.788995 
L 201.289271 226.046703 
z
" style="stroke:#000000;"/>
    <path clip-path="url(#pcb59e21084)" d="M 205.620701 226.157526 
L 200.170375 227.38987 
L 201.289271 226.046703 
z
" style="stroke:#000000;"/>
    <path clip-path="url(#pcb59e21084)" d="M 205.620701 128.079008 
L 199.412825 131.445686 
L 201.289271 128.182442 
z
" style="stroke:#000000;"/>
    <path clip-path="url(#pcb59e21084)" d="M 204.503598 126.736104 
L 201.289271 128.182442 
L 200.170375 126.842576 
z
" style="stroke:#000000;"/>
    <path clip-path="url(#pcb59e21084)" d="M 201.289271 128.182442 
L 204.503598 126.736104 
L 205.620701 128.079008 
z
" style="stroke:#000000;"/>
    <path clip-path="url(#pcb59e21084)" d="M 203.747259 222.892856 
L 201.289271 226.046703 
L 199.412825 222.788995 
z
" style="stroke:#000000;"/>
    <path clip-path="url(#pcb59e21084)" d="M 197.588379 128.455811 
L 200.170375 126.842576 
L 199.412825 131.445686 
z
" style="stroke:#000000;"/>
    <path clip-path="url(#pcb59e21084)" d="M 200.170375 227.38987 
L 197.588379 225.784251 
L 199.412825 222.788995 
z
" style="stroke:#000000;"/>
    <path clip-path="url(#pcb59e21084)" d="M 201.289271 226.046703 
L 203.747259 222.892856 
L 205.620701 226.157526 
z
" style="stroke:#000000;"/>
    <path clip-path="url(#pcb59e21084)" d="M 204.503598 227.503745 
L 199.103016 228.405747 
L 200.170375 227.38987 
z
" style="stroke:#000000;"/>
    <path clip-path="url(#pcb59e21084)" d="M 200.170375 126.842576 
L 197.588379 128.455811 
L 199.103016 125.829847 
z
" style="stroke:#000000;"/>
    <path clip-path="url(#pcb59e21084)" d="M 197.588379 225.784251 
L 200.170375 227.38987 
L 199.103016 228.405747 
z
" style="stroke:#000000;"/>
    <path clip-path="url(#pcb59e21084)" d="M 200.170375 227.38987 
L 205.620701 226.157526 
L 204.503598 227.503745 
z
" style="stroke:#000000;"/>
    <path clip-path="url(#pcb59e21084)" d="M 203.437944 125.721055 
L 200.170375 126.842576 
L 199.103016 125.829847 
z
" style="stroke:#000000;"/>
    <path clip-path="url(#pcb59e21084)" d="M 199.412825 131.445686 
L 205.620701 128.079008 
L 203.747259 131.349238 
z
" style="stroke:#000000;"/>
    <path clip-path="url(#pcb59e21084)" d="M 200.170375 126.842576 
L 203.437944 125.721055 
L 204.503598 126.736104 
z
" style="stroke:#000000;"/>
    <path clip-path="url(#pcb59e21084)" d="M 197.588379 128.455811 
L 199.412825 131.445686 
L 196.877667 136.912867 
z
" style="stroke:#000000;"/>
    <path clip-path="url(#pcb59e21084)" d="M 199.412825 222.788995 
L 197.588379 225.784251 
L 196.877667 217.329292 
z
" style="stroke:#000000;"/>
    <path clip-path="url(#pcb59e21084)" d="M 199.103016 228.405747 
L 204.503598 227.503745 
L 203.437944 228.521957 
z
" style="stroke:#000000;"/>
    <path clip-path="url(#pcb59e21084)" d="M 203.747259 222.892856 
L 204.503598 227.503745 
L 205.620701 226.157526 
z
" style="stroke:#000000;"/>
    <path clip-path="url(#pcb59e21084)" d="M 204.503598 126.736104 
L 203.747259 131.349238 
L 205.620701 128.079008 
z
" style="stroke:#000000;"/>
    <path clip-path="url(#pcb59e21084)" d="M 197.588379 128.455811 
L 203.437944 125.721055 
L 199.103016 125.829847 
z
" style="stroke:#000000;"/>
    <path clip-path="url(#pcb59e21084)" d="M 196.877667 217.329292 
L 203.747259 222.892856 
L 199.412825 222.788995 
z
" style="stroke:#000000;"/>
    <path clip-path="url(#pcb59e21084)" d="M 199.103016 228.405747 
L 201.925721 225.894857 
L 197.588379 225.784251 
z
" style="stroke:#000000;"/>
    <path clip-path="url(#pcb59e21084)" d="M 201.925721 225.894857 
L 199.103016 228.405747 
L 203.437944 228.521957 
z
" style="stroke:#000000;"/>
    <path clip-path="url(#pcb59e21084)" d="M 201.216139 136.828221 
L 199.412825 131.445686 
L 203.747259 131.349238 
z
" style="stroke:#000000;"/>
    <path clip-path="url(#pcb59e21084)" d="M 199.412825 131.445686 
L 201.216139 136.828221 
L 196.877667 136.912867 
z
" style="stroke:#000000;"/>
    <path clip-path="url(#pcb59e21084)" d="M 201.925721 225.894857 
L 204.503598 227.503745 
L 203.747259 222.892856 
z
" style="stroke:#000000;"/>
    <path clip-path="url(#pcb59e21084)" d="M 204.503598 126.736104 
L 201.925721 128.352642 
L 203.747259 131.349238 
z
" style="stroke:#000000;"/>
    <path clip-path="url(#pcb59e21084)" d="M 197.588379 128.455811 
L 196.877667 136.912867 
L 194.882431 134.275259 
z
" style="stroke:#000000;"/>
    <path clip-path="url(#pcb59e21084)" d="M 196.877667 217.329292 
L 197.588379 225.784251 
L 194.882431 219.972785 
z
" style="stroke:#000000;"/>
    <path clip-path="url(#pcb59e21084)" d="M 204.503598 227.503745 
L 201.925721 225.894857 
L 203.437944 228.521957 
z
" style="stroke:#000000;"/>
    <path clip-path="url(#pcb59e21084)" d="M 201.925721 128.352642 
L 204.503598 126.736104 
L 203.437944 125.721055 
z
" style="stroke:#000000;"/>
    <path clip-path="url(#pcb59e21084)" d="M 203.437944 125.721055 
L 197.588379 128.455811 
L 201.925721 128.352642 
z
" style="stroke:#000000;"/>
    <path clip-path="url(#pcb59e21084)" d="M 203.747259 222.892856 
L 196.877667 217.329292 
L 201.216139 217.421384 
z
" style="stroke:#000000;"/>
    <path clip-path="url(#pcb59e21084)" d="M 194.882431 134.275259 
L 201.925721 128.352642 
L 197.588379 128.455811 
z
" style="stroke:#000000;"/>
    <path clip-path="url(#pcb59e21084)" d="M 194.882431 134.275259 
L 196.877667 136.912867 
L 194.674571 142.855691 
z
" style="stroke:#000000;"/>
    <path clip-path="url(#pcb59e21084)" d="M 196.877667 217.329292 
L 194.882431 219.972785 
L 194.674571 211.392966 
z
" style="stroke:#000000;"/>
    <path clip-path="url(#pcb59e21084)" d="M 201.925721 225.894857 
L 203.747259 222.892856 
L 201.216139 217.421384 
z
" style="stroke:#000000;"/>
    <path clip-path="url(#pcb59e21084)" d="M 203.747259 131.349238 
L 201.925721 128.352642 
L 201.216139 136.828221 
z
" style="stroke:#000000;"/>
    <path clip-path="url(#pcb59e21084)" d="M 194.674571 211.392966 
L 201.216139 217.421384 
L 196.877667 217.329292 
z
" style="stroke:#000000;"/>
    <path clip-path="url(#pcb59e21084)" d="M 199.224063 220.070858 
L 197.588379 225.784251 
L 201.925721 225.894857 
z
" style="stroke:#000000;"/>
    <path clip-path="url(#pcb59e21084)" d="M 197.588379 225.784251 
L 199.224063 220.070858 
L 194.882431 219.972785 
z
" style="stroke:#000000;"/>
    <path clip-path="url(#pcb59e21084)" d="M 196.877667 136.912867 
L 199.016531 142.783969 
L 194.674571 142.855691 
z
" style="stroke:#000000;"/>
    <path clip-path="url(#pcb59e21084)" d="M 199.016531 142.783969 
L 196.877667 136.912867 
L 201.216139 136.828221 
z
" style="stroke:#000000;"/>
    <path clip-path="url(#pcb59e21084)" d="M 201.925721 128.352642 
L 194.882431 134.275259 
L 199.224063 134.184658 
z
" style="stroke:#000000;"/>
    <path clip-path="url(#pcb59e21084)" d="M 194.882431 134.275259 
L 194.674571 142.855691 
L 192.530271 140.603566 
z
" style="stroke:#000000;"/>
    <path clip-path="url(#pcb59e21084)" d="M 194.674571 211.392966 
L 194.882431 219.972785 
L 192.530271 213.651417 
z
" style="stroke:#000000;"/>
    <path clip-path="url(#pcb59e21084)" d="M 201.925721 225.894857 
L 201.216139 217.421384 
L 199.224063 220.070858 
z
" style="stroke:#000000;"/>
    <path clip-path="url(#pcb59e21084)" d="M 201.216139 136.828221 
L 201.925721 128.352642 
L 199.224063 134.184658 
z
" style="stroke:#000000;"/>
    <path clip-path="url(#pcb59e21084)" d="M 201.216139 217.421384 
L 194.674571 211.392966 
L 199.016531 211.472164 
z
" style="stroke:#000000;"/>
    <path clip-path="url(#pcb59e21084)" d="M 192.530271 140.603566 
L 194.674571 142.855691 
L 192.831691 149.205789 
z
" style="stroke:#000000;"/>
    <path clip-path="url(#pcb59e21084)" d="M 194.674571 211.392966 
L 192.530271 213.651417 
L 192.831691 205.048304 
z
" style="stroke:#000000;"/>
    <path clip-path="url(#pcb59e21084)" d="M 192.530271 140.603566 
L 199.224063 134.184658 
L 194.882431 134.275259 
z
" style="stroke:#000000;"/>
    <path clip-path="url(#pcb59e21084)" d="M 192.831691 205.048304 
L 199.016531 211.472164 
L 194.674571 211.392966 
z
" style="stroke:#000000;"/>
    <path clip-path="url(#pcb59e21084)" d="M 199.224063 220.070858 
L 201.216139 217.421384 
L 199.016531 211.472164 
z
" style="stroke:#000000;"/>
    <path clip-path="url(#pcb59e21084)" d="M 201.216139 136.828221 
L 199.224063 134.184658 
L 199.016531 142.783969 
z
" style="stroke:#000000;"/>
    <path clip-path="url(#pcb59e21084)" d="M 194.674571 142.855691 
L 197.176555 149.147957 
L 192.831691 149.205789 
z
" style="stroke:#000000;"/>
    <path clip-path="url(#pcb59e21084)" d="M 194.882431 219.972785 
L 196.875609 213.735745 
L 192.530271 213.651417 
z
" style="stroke:#000000;"/>
    <path clip-path="url(#pcb59e21084)" d="M 196.875609 213.735745 
L 194.882431 219.972785 
L 199.224063 220.070858 
z
" style="stroke:#000000;"/>
    <path clip-path="url(#pcb59e21084)" d="M 197.176555 149.147957 
L 194.674571 142.855691 
L 199.016531 142.783969 
z
" style="stroke:#000000;"/>
    <path clip-path="url(#pcb59e21084)" d="M 192.831691 149.205789 
L 190.562223 147.368488 
L 192.530271 140.603566 
z
" style="stroke:#000000;"/>
    <path clip-path="url(#pcb59e21084)" d="M 190.562223 206.8923 
L 192.831691 205.048304 
L 192.530271 213.651417 
z
" style="stroke:#000000;"/>
    <path clip-path="url(#pcb59e21084)" d="M 199.016531 211.472164 
L 192.831691 205.048304 
L 197.176555 205.113635 
z
" style="stroke:#000000;"/>
    <path clip-path="url(#pcb59e21084)" d="M 199.224063 134.184658 
L 192.530271 140.603566 
L 196.875609 140.526741 
z
" style="stroke:#000000;"/>
    <path clip-path="url(#pcb59e21084)" d="M 190.562223 147.368488 
L 192.831691 149.205789 
L 191.372794 155.889249 
z
" style="stroke:#000000;"/>
    <path clip-path="url(#pcb59e21084)" d="M 192.831691 205.048304 
L 190.562223 206.8923 
L 191.372794 198.369148 
z
" style="stroke:#000000;"/>
    <path clip-path="url(#pcb59e21084)" d="M 191.372794 198.369148 
L 197.176555 205.113635 
L 192.831691 205.048304 
z
" style="stroke:#000000;"/>
    <path clip-path="url(#pcb59e21084)" d="M 199.224063 220.070858 
L 199.016531 211.472164 
L 196.875609 213.735745 
z
" style="stroke:#000000;"/>
    <path clip-path="url(#pcb59e21084)" d="M 199.016531 142.783969 
L 199.224063 134.184658 
L 196.875609 140.526741 
z
" style="stroke:#000000;"/>
    <path clip-path="url(#pcb59e21084)" d="M 190.562223 147.368488 
L 196.875609 140.526741 
L 192.530271 140.603566 
z
" style="stroke:#000000;"/>
    <path clip-path="url(#pcb59e21084)" d="M 192.831691 149.205789 
L 195.719948 155.846103 
L 191.372794 155.889249 
z
" style="stroke:#000000;"/>
    <path clip-path="url(#pcb59e21084)" d="M 196.875609 213.735745 
L 199.016531 211.472164 
L 197.176555 205.113635 
z
" style="stroke:#000000;"/>
    <path clip-path="url(#pcb59e21084)" d="M 199.016531 142.783969 
L 196.875609 140.526741 
L 197.176555 149.147957 
z
" style="stroke:#000000;"/>
    <path clip-path="url(#pcb59e21084)" d="M 195.719948 155.846103 
L 192.831691 149.205789 
L 197.176555 149.147957 
z
" style="stroke:#000000;"/>
    <path clip-path="url(#pcb59e21084)" d="M 192.530271 213.651417 
L 194.910645 206.961835 
L 190.562223 206.8923 
z
" style="stroke:#000000;"/>
    <path clip-path="url(#pcb59e21084)" d="M 191.372794 155.889249 
L 189.003969 154.490639 
L 190.562223 147.368488 
z
" style="stroke:#000000;"/>
    <path clip-path="url(#pcb59e21084)" d="M 189.003969 199.774745 
L 191.372794 198.369148 
L 190.562223 206.8923 
z
" style="stroke:#000000;"/>
    <path clip-path="url(#pcb59e21084)" d="M 189.003969 154.490639 
L 191.372794 155.889249 
L 190.316858 162.82711 
z
" style="stroke:#000000;"/>
    <path clip-path="url(#pcb59e21084)" d="M 191.372794 198.369148 
L 189.003969 199.774745 
L 190.316858 191.434401 
z
" style="stroke:#000000;"/>
    <path clip-path="url(#pcb59e21084)" d="M 194.910645 206.961835 
L 192.530271 213.651417 
L 196.875609 213.735745 
z
" style="stroke:#000000;"/>
    <path clip-path="url(#pcb59e21084)" d="M 190.316858 191.434401 
L 195.719948 198.419812 
L 191.372794 198.369148 
z
" style="stroke:#000000;"/>
    <path clip-path="url(#pcb59e21084)" d="M 197.176555 205.113635 
L 191.372794 198.369148 
L 195.719948 198.419812 
z
" style="stroke:#000000;"/>
    <path clip-path="url(#pcb59e21084)" d="M 191.372794 155.889249 
L 194.665664 162.79926 
L 190.316858 162.82711 
z
" style="stroke:#000000;"/>
    <path clip-path="url(#pcb59e21084)" d="M 196.875609 140.526741 
L 190.562223 147.368488 
L 194.910645 147.306481 
z
" style="stroke:#000000;"/>
    <path clip-path="url(#pcb59e21084)" d="M 197.176555 205.113635 
L 194.910645 206.961835 
L 196.875609 213.735745 
z
" style="stroke:#000000;"/>
    <path clip-path="url(#pcb59e21084)" d="M 194.910645 147.306481 
L 197.176555 149.147957 
L 196.875609 140.526741 
z
" style="stroke:#000000;"/>
    <path clip-path="url(#pcb59e21084)" d="M 194.665664 162.79926 
L 191.372794 155.889249 
L 195.719948 155.846103 
z
" style="stroke:#000000;"/>
    <path clip-path="url(#pcb59e21084)" d="M 187.875943 161.88555 
L 190.316858 162.82711 
L 189.677706 169.936492 
z
" style="stroke:#000000;"/>
    <path clip-path="url(#pcb59e21084)" d="M 190.316858 191.434401 
L 187.875943 192.383162 
L 189.677706 184.326904 
z
" style="stroke:#000000;"/>
    <path clip-path="url(#pcb59e21084)" d="M 189.677706 184.326904 
L 194.665664 191.469784 
L 190.316858 191.434401 
z
" style="stroke:#000000;"/>
    <path clip-path="url(#pcb59e21084)" d="M 189.003969 154.490639 
L 194.910645 147.306481 
L 190.562223 147.368488 
z
" style="stroke:#000000;"/>
    <path clip-path="url(#pcb59e21084)" d="M 190.316858 162.82711 
L 187.875943 161.88555 
L 189.003969 154.490639 
z
" style="stroke:#000000;"/>
    <path clip-path="url(#pcb59e21084)" d="M 187.875943 192.383162 
L 190.316858 191.434401 
L 189.003969 199.774745 
z
" style="stroke:#000000;"/>
    <path clip-path="url(#pcb59e21084)" d="M 194.910645 206.961835 
L 197.176555 205.113635 
L 195.719948 198.419812 
z
" style="stroke:#000000;"/>
    <path clip-path="url(#pcb59e21084)" d="M 197.176555 149.147957 
L 194.910645 147.306481 
L 195.719948 155.846103 
z
" style="stroke:#000000;"/>
    <path clip-path="url(#pcb59e21084)" d="M 190.316858 162.82711 
L 194.027509 169.92435 
L 189.677706 169.936492 
z
" style="stroke:#000000;"/>
    <path clip-path="url(#pcb59e21084)" d="M 195.719948 198.419812 
L 190.316858 191.434401 
L 194.665664 191.469784 
z
" style="stroke:#000000;"/>
    <path clip-path="url(#pcb59e21084)" d="M 189.677706 184.326904 
L 187.193077 184.806284 
L 189.463705 177.132014 
z
" style="stroke:#000000;"/>
    <path clip-path="url(#pcb59e21084)" d="M 187.193077 169.464442 
L 189.677706 169.936492 
L 189.463705 177.132014 
z
" style="stroke:#000000;"/>
    <path clip-path="url(#pcb59e21084)" d="M 189.463705 177.132014 
L 194.027509 184.346587 
L 189.677706 184.326904 
z
" style="stroke:#000000;"/>
    <path clip-path="url(#pcb59e21084)" d="M 189.677706 169.936492 
L 193.813842 177.135785 
L 189.463705 177.132014 
z
" style="stroke:#000000;"/>
    <path clip-path="url(#pcb59e21084)" d="M 190.562223 206.8923 
L 193.354823 199.828624 
L 189.003969 199.774745 
z
" style="stroke:#000000;"/>
    <path clip-path="url(#pcb59e21084)" d="M 194.027509 169.92435 
L 190.316858 162.82711 
L 194.665664 162.79926 
z
" style="stroke:#000000;"/>
    <path clip-path="url(#pcb59e21084)" d="M 193.354823 199.828624 
L 190.562223 206.8923 
L 194.910645 206.961835 
z
" style="stroke:#000000;"/>
    <path clip-path="url(#pcb59e21084)" d="M 189.677706 169.936492 
L 187.193077 169.464442 
L 187.875943 161.88555 
z
" style="stroke:#000000;"/>
    <path clip-path="url(#pcb59e21084)" d="M 187.193077 184.806284 
L 189.677706 184.326904 
L 187.875943 192.383162 
z
" style="stroke:#000000;"/>
    <path clip-path="url(#pcb59e21084)" d="M 194.665664 191.469784 
L 189.677706 184.326904 
L 194.027509 184.346587 
z
" style="stroke:#000000;"/>
    <path clip-path="url(#pcb59e21084)" d="M 193.813842 177.135785 
L 189.677706 169.936492 
L 194.027509 169.92435 
z
" style="stroke:#000000;"/>
    <path clip-path="url(#pcb59e21084)" d="M 189.463705 177.132014 
L 186.964446 177.1357 
L 187.193077 169.464442 
z
" style="stroke:#000000;"/>
    <path clip-path="url(#pcb59e21084)" d="M 186.964446 177.1357 
L 189.463705 177.132014 
L 187.193077 184.806284 
z
" style="stroke:#000000;"/>
    <path clip-path="url(#pcb59e21084)" d="M 194.027509 184.346587 
L 189.463705 177.132014 
L 193.813842 177.135785 
z
" style="stroke:#000000;"/>
    <path clip-path="url(#pcb59e21084)" d="M 194.910645 147.306481 
L 189.003969 154.490639 
L 193.354823 154.444309 
z
" style="stroke:#000000;"/>
    <path clip-path="url(#pcb59e21084)" d="M 187.875943 161.88555 
L 193.354823 154.444309 
L 189.003969 154.490639 
z
" style="stroke:#000000;"/>
    <path clip-path="url(#pcb59e21084)" d="M 195.719948 198.419812 
L 193.354823 199.828624 
L 194.910645 206.961835 
z
" style="stroke:#000000;"/>
    <path clip-path="url(#pcb59e21084)" d="M 193.354823 154.444309 
L 195.719948 155.846103 
L 194.910645 147.306481 
z
" style="stroke:#000000;"/>
    <path clip-path="url(#pcb59e21084)" d="M 193.354823 199.828624 
L 195.719948 198.419812 
L 194.665664 191.469784 
z
" style="stroke:#000000;"/>
    <path clip-path="url(#pcb59e21084)" d="M 195.719948 155.846103 
L 193.354823 154.444309 
L 194.665664 162.79926 
z
" style="stroke:#000000;"/>
    <path clip-path="url(#pcb59e21084)" d="M 189.003969 199.774745 
L 192.228551 192.420721 
L 187.875943 192.383162 
z
" style="stroke:#000000;"/>
    <path clip-path="url(#pcb59e21084)" d="M 187.798732 131.108833 
L 183.615242 122.667255 
L 189.8792 130.273279 
z
" style="stroke:#000000;"/>
    <path clip-path="url(#pcb59e21084)" d="M 189.8792 130.273279 
L 183.615242 144.751059 
L 187.798732 131.108833 
z
" style="stroke:#000000;"/>
    <path clip-path="url(#pcb59e21084)" d="M 192.228551 192.420721 
L 189.003969 199.774745 
L 193.354823 199.828624 
z
" style="stroke:#000000;"/>
    <path clip-path="url(#pcb59e21084)" d="M 187.193077 169.464442 
L 192.228551 161.855555 
L 187.875943 161.88555 
z
" style="stroke:#000000;"/>
    <path clip-path="url(#pcb59e21084)" d="M 192.228551 192.420721 
L 194.665664 191.469784 
L 194.027509 184.346587 
z
" style="stroke:#000000;"/>
    <path clip-path="url(#pcb59e21084)" d="M 194.665664 162.79926 
L 192.228551 161.855555 
L 194.027509 169.92435 
z
" style="stroke:#000000;"/>
    <path clip-path="url(#pcb59e21084)" d="M 187.875943 192.383162 
L 191.546745 184.827072 
L 187.193077 184.806284 
z
" style="stroke:#000000;"/>
    <path clip-path="url(#pcb59e21084)" d="M 193.354823 154.444309 
L 187.875943 161.88555 
L 192.228551 161.855555 
z
" style="stroke:#000000;"/>
    <path clip-path="url(#pcb59e21084)" d="M 194.665664 191.469784 
L 192.228551 192.420721 
L 193.354823 199.828624 
z
" style="stroke:#000000;"/>
    <path clip-path="url(#pcb59e21084)" d="M 192.228551 161.855555 
L 194.665664 162.79926 
L 193.354823 154.444309 
z
" style="stroke:#000000;"/>
    <path clip-path="url(#pcb59e21084)" d="M 186.964446 177.1357 
L 191.546745 169.451226 
L 187.193077 169.464442 
z
" style="stroke:#000000;"/>
    <path clip-path="url(#pcb59e21084)" d="M 194.027509 169.92435 
L 191.546745 169.451226 
L 193.813842 177.135785 
z
" style="stroke:#000000;"/>
    <path clip-path="url(#pcb59e21084)" d="M 191.546745 184.827072 
L 194.027509 184.346587 
L 193.813842 177.135785 
z
" style="stroke:#000000;"/>
    <path clip-path="url(#pcb59e21084)" d="M 187.193077 184.806284 
L 191.318469 177.139488 
L 186.964446 177.1357 
z
" style="stroke:#000000;"/>
    <path clip-path="url(#pcb59e21084)" d="M 189.8792 130.273279 
L 187.974434 122.549958 
L 194.228689 130.173435 
z
" style="stroke:#000000;"/>
    <path clip-path="url(#pcb59e21084)" d="M 187.974434 152.060494 
L 189.8792 130.273279 
L 194.228689 130.173435 
z
" style="stroke:#000000;"/>
    <path clip-path="url(#pcb59e21084)" d="M 191.546745 184.827072 
L 187.875943 192.383162 
L 192.228551 192.420721 
z
" style="stroke:#000000;"/>
    <path clip-path="url(#pcb59e21084)" d="M 192.228551 161.855555 
L 187.193077 169.464442 
L 191.546745 169.451226 
z
" style="stroke:#000000;"/>
    <path clip-path="url(#pcb59e21084)" d="M 183.615242 144.751059 
L 189.8792 130.273279 
L 183.615242 152.112328 
z
" style="stroke:#000000;"/>
    <path clip-path="url(#pcb59e21084)" d="M 194.027509 184.346587 
L 191.546745 184.827072 
L 192.228551 192.420721 
z
" style="stroke:#000000;"/>
    <path clip-path="url(#pcb59e21084)" d="M 191.546745 169.451226 
L 194.027509 169.92435 
L 192.228551 161.855555 
z
" style="stroke:#000000;"/>
    <path clip-path="url(#pcb59e21084)" d="M 192.151461 131.010659 
L 183.615242 126.347889 
L 187.798732 131.108833 
z
" style="stroke:#000000;"/>
    <path clip-path="url(#pcb59e21084)" d="M 183.615242 144.751059 
L 192.151461 131.010659 
L 187.798732 131.108833 
z
" style="stroke:#000000;"/>
    <path clip-path="url(#pcb59e21084)" d="M 191.318469 177.139488 
L 187.193077 184.806284 
L 191.546745 184.827072 
z
" style="stroke:#000000;"/>
    <path clip-path="url(#pcb59e21084)" d="M 191.546745 169.451226 
L 186.964446 177.1357 
L 191.318469 177.139488 
z
" style="stroke:#000000;"/>
    <path clip-path="url(#pcb59e21084)" d="M 193.813842 177.135785 
L 191.318469 177.139488 
L 191.546745 184.827072 
z
" style="stroke:#000000;"/>
    <path clip-path="url(#pcb59e21084)" d="M 191.318469 177.139488 
L 193.813842 177.135785 
L 191.546745 169.451226 
z
" style="stroke:#000000;"/>
    <path clip-path="url(#pcb59e21084)" d="M 183.615242 122.667255 
L 187.798732 131.108833 
L 183.615242 126.347889 
z
" style="stroke:#000000;"/>
    <path clip-path="url(#pcb59e21084)" d="M 187.974434 122.549958 
L 189.8792 130.273279 
L 183.615242 122.667255 
z
" style="stroke:#000000;"/>
    <path clip-path="url(#pcb59e21084)" d="M 189.8792 130.273279 
L 187.974434 152.060494 
L 183.615242 152.112328 
z
" style="stroke:#000000;"/>
    <path clip-path="url(#pcb59e21084)" d="M 187.974434 144.68286 
L 194.228689 130.173435 
L 192.151461 131.010659 
z
" style="stroke:#000000;"/>
    <path clip-path="url(#pcb59e21084)" d="M 187.974434 122.549958 
L 192.151461 131.010659 
L 194.228689 130.173435 
z
" style="stroke:#000000;"/>
    <path clip-path="url(#pcb59e21084)" d="M 183.615242 126.347889 
L 192.151461 131.010659 
L 187.974434 126.238775 
z
" style="stroke:#000000;"/>
    <path clip-path="url(#pcb59e21084)" d="M 192.151461 131.010659 
L 183.615242 144.751059 
L 187.974434 144.68286 
z
" style="stroke:#000000;"/>
    <path clip-path="url(#pcb59e21084)" d="M 194.228689 130.173435 
L 187.974434 144.68286 
L 187.974434 152.060494 
z
" style="stroke:#000000;"/>
    <path clip-path="url(#pcb59e21084)" d="M 192.151461 131.010659 
L 187.974434 122.549958 
L 187.974434 126.238775 
z
" style="stroke:#000000;"/>
    <path clip-path="url(#pcb59e21084)" d="M 183.615242 122.667255 
L 183.615242 126.347889 
L 179.401406 130.787368 
z
" style="stroke:#000000;"/>
    <path clip-path="url(#pcb59e21084)" d="M 183.615242 144.751059 
L 183.615242 152.112328 
L 177.283006 129.781099 
z
" style="stroke:#000000;"/>
    <path clip-path="url(#pcb59e21084)" d="M 187.974434 126.238775 
L 179.401406 130.787368 
L 183.615242 126.347889 
z
" style="stroke:#000000;"/>
    <path clip-path="url(#pcb59e21084)" d="M 179.401406 130.787368 
L 187.974434 144.68286 
L 183.615242 144.751059 
z
" style="stroke:#000000;"/>
    <path clip-path="url(#pcb59e21084)" d="M 183.615242 122.667255 
L 179.401406 130.787368 
L 177.283006 129.781099 
z
" style="stroke:#000000;"/>
    <path clip-path="url(#pcb59e21084)" d="M 183.615242 144.751059 
L 177.283006 129.781099 
L 179.401406 130.787368 
z
" style="stroke:#000000;"/>
    <path clip-path="url(#pcb59e21084)" d="M 183.615242 122.667255 
L 181.651854 129.679063 
L 187.974434 122.549958 
z
" style="stroke:#000000;"/>
    <path clip-path="url(#pcb59e21084)" d="M 181.651854 129.679063 
L 183.615242 152.112328 
L 187.974434 152.060494 
z
" style="stroke:#000000;"/>
    <path clip-path="url(#pcb59e21084)" d="M 187.974434 122.549958 
L 183.767041 130.687763 
L 187.974434 126.238775 
z
" style="stroke:#000000;"/>
    <path clip-path="url(#pcb59e21084)" d="M 180.246617 177.145608 
L 177.707301 177.149353 
L 180.015236 169.427492 
z
" style="stroke:#000000;"/>
    <path clip-path="url(#pcb59e21084)" d="M 177.707301 177.149353 
L 180.246617 177.145608 
L 180.015236 184.864407 
z
" style="stroke:#000000;"/>
    <path clip-path="url(#pcb59e21084)" d="M 180.015236 169.427492 
L 184.610965 177.14944 
L 180.246617 177.145608 
z
" style="stroke:#000000;"/>
    <path clip-path="url(#pcb59e21084)" d="M 180.246617 177.145608 
L 184.379936 184.885453 
L 180.015236 184.864407 
z
" style="stroke:#000000;"/>
    <path clip-path="url(#pcb59e21084)" d="M 179.401406 130.787368 
L 187.974434 126.238775 
L 183.767041 130.687763 
z
" style="stroke:#000000;"/>
    <path clip-path="url(#pcb59e21084)" d="M 187.974434 144.68286 
L 179.401406 130.787368 
L 183.767041 130.687763 
z
" style="stroke:#000000;"/>
    <path clip-path="url(#pcb59e21084)" d="M 180.015236 169.427492 
L 177.488845 169.87859 
L 179.323061 161.7855 
z
" style="stroke:#000000;"/>
    <path clip-path="url(#pcb59e21084)" d="M 177.488845 184.42076 
L 180.015236 184.864407 
L 179.323061 192.508441 
z
" style="stroke:#000000;"/>
    <path clip-path="url(#pcb59e21084)" d="M 179.323061 161.7855 
L 184.379936 169.414112 
L 180.015236 169.427492 
z
" style="stroke:#000000;"/>
    <path clip-path="url(#pcb59e21084)" d="M 187.974434 144.68286 
L 181.651854 129.679063 
L 187.974434 152.060494 
z
" style="stroke:#000000;"/>
    <path clip-path="url(#pcb59e21084)" d="M 180.015236 184.864407 
L 183.688815 192.546557 
L 179.323061 192.508441 
z
" style="stroke:#000000;"/>
    <path clip-path="url(#pcb59e21084)" d="M 181.651854 129.679063 
L 183.615242 122.667255 
L 177.283006 129.781099 
z
" style="stroke:#000000;"/>
    <path clip-path="url(#pcb59e21084)" d="M 183.615242 152.112328 
L 181.651854 129.679063 
L 177.283006 129.781099 
z
" style="stroke:#000000;"/>
    <path clip-path="url(#pcb59e21084)" d="M 184.379936 184.885453 
L 180.246617 177.145608 
L 184.610965 177.14944 
z
" style="stroke:#000000;"/>
    <path clip-path="url(#pcb59e21084)" d="M 180.015236 184.864407 
L 177.488845 184.42076 
L 177.707301 177.149353 
z
" style="stroke:#000000;"/>
    <path clip-path="url(#pcb59e21084)" d="M 177.488845 169.87859 
L 180.015236 169.427492 
L 177.707301 177.149353 
z
" style="stroke:#000000;"/>
    <path clip-path="url(#pcb59e21084)" d="M 184.610965 177.14944 
L 180.015236 169.427492 
L 184.379936 169.414112 
z
" style="stroke:#000000;"/>
    <path clip-path="url(#pcb59e21084)" d="M 179.323061 161.7855 
L 176.835414 162.680062 
L 178.176061 154.294616 
z
" style="stroke:#000000;"/>
    <path clip-path="url(#pcb59e21084)" d="M 176.835414 191.621217 
L 179.323061 192.508441 
L 178.176061 200.002708 
z
" style="stroke:#000000;"/>
    <path clip-path="url(#pcb59e21084)" d="M 178.176061 154.294616 
L 183.688815 161.755059 
L 179.323061 161.7855 
z
" style="stroke:#000000;"/>
    <path clip-path="url(#pcb59e21084)" d="M 183.688815 192.546557 
L 180.015236 184.864407 
L 184.379936 184.885453 
z
" style="stroke:#000000;"/>
    <path clip-path="url(#pcb59e21084)" d="M 176.835414 162.680062 
L 179.323061 161.7855 
L 177.488845 169.87859 
z
" style="stroke:#000000;"/>
    <path clip-path="url(#pcb59e21084)" d="M 179.323061 192.508441 
L 176.835414 191.621217 
L 177.488845 184.42076 
z
" style="stroke:#000000;"/>
    <path clip-path="url(#pcb59e21084)" d="M 184.379936 169.414112 
L 179.323061 161.7855 
L 183.688815 161.755059 
z
" style="stroke:#000000;"/>
    <path clip-path="url(#pcb59e21084)" d="M 179.323061 192.508441 
L 182.543557 200.057602 
L 178.176061 200.002708 
z
" style="stroke:#000000;"/>
    <path clip-path="url(#pcb59e21084)" d="M 181.651854 129.679063 
L 187.974434 144.68286 
L 183.767041 130.687763 
z
" style="stroke:#000000;"/>
    <path clip-path="url(#pcb59e21084)" d="M 183.767041 130.687763 
L 187.974434 122.549958 
L 181.651854 129.679063 
z
" style="stroke:#000000;"/>
    <path clip-path="url(#pcb59e21084)" d="M 182.543557 200.057602 
L 179.323061 192.508441 
L 183.688815 192.546557 
z
" style="stroke:#000000;"/>
    <path clip-path="url(#pcb59e21084)" d="M 175.752696 155.624818 
L 178.176061 154.294616 
L 176.835414 162.680062 
z
" style="stroke:#000000;"/>
    <path clip-path="url(#pcb59e21084)" d="M 178.176061 200.002708 
L 175.752696 198.679654 
L 176.835414 191.621217 
z
" style="stroke:#000000;"/>
    <path clip-path="url(#pcb59e21084)" d="M 178.176061 154.294616 
L 175.752696 155.624818 
L 176.584182 147.028894 
z
" style="stroke:#000000;"/>
    <path clip-path="url(#pcb59e21084)" d="M 175.752696 198.679654 
L 178.176061 200.002708 
L 176.584182 207.273125 
z
" style="stroke:#000000;"/>
    <path clip-path="url(#pcb59e21084)" d="M 183.688815 161.755059 
L 178.176061 154.294616 
L 182.543557 154.247413 
z
" style="stroke:#000000;"/>
    <path clip-path="url(#pcb59e21084)" d="M 176.584182 147.028894 
L 182.543557 154.247413 
L 178.176061 154.294616 
z
" style="stroke:#000000;"/>
    <path clip-path="url(#pcb59e21084)" d="M 177.488845 184.42076 
L 182.075507 177.153202 
L 177.707301 177.149353 
z
" style="stroke:#000000;"/>
    <path clip-path="url(#pcb59e21084)" d="M 184.610965 177.14944 
L 182.075507 177.153202 
L 184.379936 184.885453 
z
" style="stroke:#000000;"/>
    <path clip-path="url(#pcb59e21084)" d="M 182.075507 177.153202 
L 184.610965 177.14944 
L 184.379936 169.414112 
z
" style="stroke:#000000;"/>
    <path clip-path="url(#pcb59e21084)" d="M 177.707301 177.149353 
L 181.857381 169.86619 
L 177.488845 169.87859 
z
" style="stroke:#000000;"/>
    <path clip-path="url(#pcb59e21084)" d="M 176.835414 191.621217 
L 181.857381 184.440861 
L 177.488845 184.42076 
z
" style="stroke:#000000;"/>
    <path clip-path="url(#pcb59e21084)" d="M 184.379936 184.885453 
L 181.857381 184.440861 
L 183.688815 192.546557 
z
" style="stroke:#000000;"/>
    <path clip-path="url(#pcb59e21084)" d="M 181.857381 169.86619 
L 184.379936 169.414112 
L 183.688815 161.755059 
z
" style="stroke:#000000;"/>
    <path clip-path="url(#pcb59e21084)" d="M 178.176061 200.002708 
L 180.954086 207.344356 
L 176.584182 207.273125 
z
" style="stroke:#000000;"/>
    <path clip-path="url(#pcb59e21084)" d="M 177.488845 169.87859 
L 181.204938 162.651557 
L 176.835414 162.680062 
z
" style="stroke:#000000;"/>
    <path clip-path="url(#pcb59e21084)" d="M 180.954086 207.344356 
L 178.176061 200.002708 
L 182.543557 200.057602 
z
" style="stroke:#000000;"/>
    <path clip-path="url(#pcb59e21084)" d="M 181.857381 169.86619 
L 177.707301 177.149353 
L 182.075507 177.153202 
z
" style="stroke:#000000;"/>
    <path clip-path="url(#pcb59e21084)" d="M 182.075507 177.153202 
L 177.488845 184.42076 
L 181.857381 184.440861 
z
" style="stroke:#000000;"/>
    <path clip-path="url(#pcb59e21084)" d="M 184.379936 169.414112 
L 181.857381 169.86619 
L 182.075507 177.153202 
z
" style="stroke:#000000;"/>
    <path clip-path="url(#pcb59e21084)" d="M 181.857381 184.440861 
L 184.379936 184.885453 
L 182.075507 177.153202 
z
" style="stroke:#000000;"/>
    <path clip-path="url(#pcb59e21084)" d="M 175.752696 198.679654 
L 181.204938 191.65743 
L 176.835414 191.621217 
z
" style="stroke:#000000;"/>
    <path clip-path="url(#pcb59e21084)" d="M 181.204938 162.651557 
L 177.488845 169.87859 
L 181.857381 169.86619 
z
" style="stroke:#000000;"/>
    <path clip-path="url(#pcb59e21084)" d="M 174.250218 148.783086 
L 176.584182 147.028894 
L 175.752696 155.624818 
z
" style="stroke:#000000;"/>
    <path clip-path="url(#pcb59e21084)" d="M 176.584182 207.273125 
L 174.250218 205.525818 
L 175.752696 198.679654 
z
" style="stroke:#000000;"/>
    <path clip-path="url(#pcb59e21084)" d="M 183.688815 192.546557 
L 181.204938 191.65743 
L 182.543557 200.057602 
z
" style="stroke:#000000;"/>
    <path clip-path="url(#pcb59e21084)" d="M 181.204938 162.651557 
L 183.688815 161.755059 
L 182.543557 154.247413 
z
" style="stroke:#000000;"/>
    <path clip-path="url(#pcb59e21084)" d="M 182.543557 154.247413 
L 176.584182 147.028894 
L 180.954086 146.965376 
z
" style="stroke:#000000;"/>
    <path clip-path="url(#pcb59e21084)" d="M 181.857381 184.440861 
L 176.835414 191.621217 
L 181.204938 191.65743 
z
" style="stroke:#000000;"/>
    <path clip-path="url(#pcb59e21084)" d="M 181.204938 191.65743 
L 183.688815 192.546557 
L 181.857381 184.440861 
z
" style="stroke:#000000;"/>
    <path clip-path="url(#pcb59e21084)" d="M 183.688815 161.755059 
L 181.204938 162.651557 
L 181.857381 169.86619 
z
" style="stroke:#000000;"/>
    <path clip-path="url(#pcb59e21084)" d="M 176.835414 162.680062 
L 180.123855 155.580495 
L 175.752696 155.624818 
z
" style="stroke:#000000;"/>
    <path clip-path="url(#pcb59e21084)" d="M 176.584182 147.028894 
L 174.250218 148.783086 
L 174.56127 140.060835 
z
" style="stroke:#000000;"/>
    <path clip-path="url(#pcb59e21084)" d="M 174.250218 205.525818 
L 176.584182 207.273125 
L 174.56127 214.247152 
z
" style="stroke:#000000;"/>
    <path clip-path="url(#pcb59e21084)" d="M 174.56127 140.060835 
L 180.954086 146.965376 
L 176.584182 147.028894 
z
" style="stroke:#000000;"/>
    <path clip-path="url(#pcb59e21084)" d="M 180.123855 155.580495 
L 176.835414 162.680062 
L 181.204938 162.651557 
z
" style="stroke:#000000;"/>
    <path clip-path="url(#pcb59e21084)" d="M 174.250218 205.525818 
L 180.123855 198.7317 
L 175.752696 198.679654 
z
" style="stroke:#000000;"/>
    <path clip-path="url(#pcb59e21084)" d="M 181.204938 191.65743 
L 175.752696 198.679654 
L 180.123855 198.7317 
z
" style="stroke:#000000;"/>
    <path clip-path="url(#pcb59e21084)" d="M 176.584182 207.273125 
L 178.934221 214.334132 
L 174.56127 214.247152 
z
" style="stroke:#000000;"/>
    <path clip-path="url(#pcb59e21084)" d="M 180.123855 198.7317 
L 182.543557 200.057602 
L 181.204938 191.65743 
z
" style="stroke:#000000;"/>
    <path clip-path="url(#pcb59e21084)" d="M 182.543557 154.247413 
L 180.123855 155.580495 
L 181.204938 162.651557 
z
" style="stroke:#000000;"/>
    <path clip-path="url(#pcb59e21084)" d="M 182.543557 200.057602 
L 180.123855 198.7317 
L 180.954086 207.344356 
z
" style="stroke:#000000;"/>
    <path clip-path="url(#pcb59e21084)" d="M 180.123855 155.580495 
L 182.543557 154.247413 
L 180.954086 146.965376 
z
" style="stroke:#000000;"/>
    <path clip-path="url(#pcb59e21084)" d="M 178.934221 214.334132 
L 176.584182 207.273125 
L 180.954086 207.344356 
z
" style="stroke:#000000;"/>
    <path clip-path="url(#pcb59e21084)" d="M 175.752696 155.624818 
L 178.623636 148.723372 
L 174.250218 148.783086 
z
" style="stroke:#000000;"/>
    <path clip-path="url(#pcb59e21084)" d="M 172.341288 142.223592 
L 174.56127 140.060835 
L 174.250218 148.783086 
z
" style="stroke:#000000;"/>
    <path clip-path="url(#pcb59e21084)" d="M 174.56127 214.247152 
L 172.341288 212.090943 
L 174.250218 205.525818 
z
" style="stroke:#000000;"/>
    <path clip-path="url(#pcb59e21084)" d="M 178.623636 148.723372 
L 175.752696 155.624818 
L 180.123855 155.580495 
z
" style="stroke:#000000;"/>
    <path clip-path="url(#pcb59e21084)" d="M 180.954086 146.965376 
L 174.56127 140.060835 
L 178.934221 139.981593 
z
" style="stroke:#000000;"/>
    <path clip-path="url(#pcb59e21084)" d="M 174.56127 140.060835 
L 172.341288 142.223592 
L 172.125204 133.461336 
z
" style="stroke:#000000;"/>
    <path clip-path="url(#pcb59e21084)" d="M 172.341288 212.090943 
L 174.56127 214.247152 
L 172.125204 220.853837 
z
" style="stroke:#000000;"/>
    <path clip-path="url(#pcb59e21084)" d="M 180.123855 198.7317 
L 174.250218 205.525818 
L 178.623636 205.593275 
z
" style="stroke:#000000;"/>
    <path clip-path="url(#pcb59e21084)" d="M 178.623636 205.593275 
L 180.954086 207.344356 
L 180.123855 198.7317 
z
" style="stroke:#000000;"/>
    <path clip-path="url(#pcb59e21084)" d="M 180.954086 146.965376 
L 178.623636 148.723372 
L 180.123855 155.580495 
z
" style="stroke:#000000;"/>
    <path clip-path="url(#pcb59e21084)" d="M 172.125204 133.461336 
L 178.934221 139.981593 
L 174.56127 140.060835 
z
" style="stroke:#000000;"/>
    <path clip-path="url(#pcb59e21084)" d="M 172.341288 212.090943 
L 178.623636 205.593275 
L 174.250218 205.525818 
z
" style="stroke:#000000;"/>
    <path clip-path="url(#pcb59e21084)" d="M 180.954086 207.344356 
L 178.623636 205.593275 
L 178.934221 214.334132 
z
" style="stroke:#000000;"/>
    <path clip-path="url(#pcb59e21084)" d="M 178.623636 148.723372 
L 180.954086 146.965376 
L 178.934221 139.981593 
z
" style="stroke:#000000;"/>
    <path clip-path="url(#pcb59e21084)" d="M 174.250218 148.783086 
L 176.717565 142.149055 
L 172.341288 142.223592 
z
" style="stroke:#000000;"/>
    <path clip-path="url(#pcb59e21084)" d="M 174.56127 214.247152 
L 176.501803 220.955832 
L 172.125204 220.853837 
z
" style="stroke:#000000;"/>
    <path clip-path="url(#pcb59e21084)" d="M 176.501803 220.955832 
L 174.56127 214.247152 
L 178.934221 214.334132 
z
" style="stroke:#000000;"/>
    <path clip-path="url(#pcb59e21084)" d="M 176.717565 142.149055 
L 174.250218 148.783086 
L 178.623636 148.723372 
z
" style="stroke:#000000;"/>
    <path clip-path="url(#pcb59e21084)" d="M 172.125204 133.461336 
L 172.341288 142.223592 
L 170.042968 136.013066 
z
" style="stroke:#000000;"/>
    <path clip-path="url(#pcb59e21084)" d="M 172.341288 212.090943 
L 172.125204 220.853837 
L 170.042968 218.308249 
z
" style="stroke:#000000;"/>
    <path clip-path="url(#pcb59e21084)" d="M 178.623636 205.593275 
L 172.341288 212.090943 
L 176.717565 212.173248 
z
" style="stroke:#000000;"/>
    <path clip-path="url(#pcb59e21084)" d="M 178.934221 139.981593 
L 172.125204 133.461336 
L 176.501803 133.367112 
z
" style="stroke:#000000;"/>
    <path clip-path="url(#pcb59e21084)" d="M 176.717565 212.173248 
L 178.934221 214.334132 
L 178.623636 205.593275 
z
" style="stroke:#000000;"/>
    <path clip-path="url(#pcb59e21084)" d="M 178.934221 139.981593 
L 176.717565 142.149055 
L 178.623636 148.723372 
z
" style="stroke:#000000;"/>
    <path clip-path="url(#pcb59e21084)" d="M 170.042968 218.308249 
L 176.717565 212.173248 
L 172.341288 212.090943 
z
" style="stroke:#000000;"/>
    <path clip-path="url(#pcb59e21084)" d="M 172.125204 133.461336 
L 170.042968 136.013066 
L 169.297727 127.298173 
z
" style="stroke:#000000;"/>
    <path clip-path="url(#pcb59e21084)" d="M 170.042968 218.308249 
L 172.125204 220.853837 
L 169.297727 227.02534 
z
" style="stroke:#000000;"/>
    <path clip-path="url(#pcb59e21084)" d="M 178.934221 214.334132 
L 176.717565 212.173248 
L 176.501803 220.955832 
z
" style="stroke:#000000;"/>
    <path clip-path="url(#pcb59e21084)" d="M 176.717565 142.149055 
L 178.934221 139.981593 
L 176.501803 133.367112 
z
" style="stroke:#000000;"/>
    <path clip-path="url(#pcb59e21084)" d="M 169.297727 127.298173 
L 176.501803 133.367112 
L 172.125204 133.461336 
z
" style="stroke:#000000;"/>
    <path clip-path="url(#pcb59e21084)" d="M 172.341288 142.223592 
L 174.422669 135.924414 
L 170.042968 136.013066 
z
" style="stroke:#000000;"/>
    <path clip-path="url(#pcb59e21084)" d="M 174.422669 135.924414 
L 172.341288 142.223592 
L 176.717565 142.149055 
z
" style="stroke:#000000;"/>
    <path clip-path="url(#pcb59e21084)" d="M 173.678533 227.141472 
L 172.125204 220.853837 
L 176.501803 220.955832 
z
" style="stroke:#000000;"/>
    <path clip-path="url(#pcb59e21084)" d="M 172.125204 220.853837 
L 173.678533 227.141472 
L 169.297727 227.02534 
z
" style="stroke:#000000;"/>
    <path clip-path="url(#pcb59e21084)" d="M 176.717565 212.173248 
L 170.042968 218.308249 
L 174.422669 218.4047 
z
" style="stroke:#000000;"/>
    <path clip-path="url(#pcb59e21084)" d="M 169.297727 127.298173 
L 170.042968 136.013066 
L 167.376059 130.216249 
z
" style="stroke:#000000;"/>
    <path clip-path="url(#pcb59e21084)" d="M 170.042968 218.308249 
L 169.297727 227.02534 
L 167.376059 224.112932 
z
" style="stroke:#000000;"/>
    <path clip-path="url(#pcb59e21084)" d="M 176.501803 220.955832 
L 176.717565 212.173248 
L 174.422669 218.4047 
z
" style="stroke:#000000;"/>
    <path clip-path="url(#pcb59e21084)" d="M 176.717565 142.149055 
L 176.501803 133.367112 
L 174.422669 135.924414 
z
" style="stroke:#000000;"/>
    <path clip-path="url(#pcb59e21084)" d="M 176.501803 133.367112 
L 169.297727 127.298173 
L 173.678533 127.18985 
z
" style="stroke:#000000;"/>
    <path clip-path="url(#pcb59e21084)" d="M 167.376059 224.112932 
L 174.422669 218.4047 
L 170.042968 218.308249 
z
" style="stroke:#000000;"/>
    <path clip-path="url(#pcb59e21084)" d="M 167.703252 124.471362 
L 173.678533 127.18985 
L 169.297727 127.298173 
z
" style="stroke:#000000;"/>
    <path clip-path="url(#pcb59e21084)" d="M 169.297727 127.298173 
L 166.574491 125.417429 
L 167.703252 124.471362 
z
" style="stroke:#000000;"/>
    <path clip-path="url(#pcb59e21084)" d="M 166.574491 228.914116 
L 169.297727 227.02534 
L 167.703252 229.856854 
z
" style="stroke:#000000;"/>
    <path clip-path="url(#pcb59e21084)" d="M 176.501803 220.955832 
L 174.422669 218.4047 
L 173.678533 227.141472 
z
" style="stroke:#000000;"/>
    <path clip-path="url(#pcb59e21084)" d="M 174.422669 135.924414 
L 176.501803 133.367112 
L 173.678533 127.18985 
z
" style="stroke:#000000;"/>
    <path clip-path="url(#pcb59e21084)" d="M 166.574491 125.417429 
L 169.297727 127.298173 
L 167.376059 130.216249 
z
" style="stroke:#000000;"/>
    <path clip-path="url(#pcb59e21084)" d="M 169.297727 227.02534 
L 166.574491 228.914116 
L 167.376059 224.112932 
z
" style="stroke:#000000;"/>
    <path clip-path="url(#pcb59e21084)" d="M 171.759707 130.114327 
L 170.042968 136.013066 
L 174.422669 135.924414 
z
" style="stroke:#000000;"/>
    <path clip-path="url(#pcb59e21084)" d="M 170.042968 136.013066 
L 171.759707 130.114327 
L 167.376059 130.216249 
z
" style="stroke:#000000;"/>
    <path clip-path="url(#pcb59e21084)" d="M 169.297727 227.02534 
L 172.086417 229.979525 
L 167.703252 229.856854 
z
" style="stroke:#000000;"/>
    <path clip-path="url(#pcb59e21084)" d="M 172.086417 229.979525 
L 169.297727 227.02534 
L 173.678533 227.141472 
z
" style="stroke:#000000;"/>
    <path clip-path="url(#pcb59e21084)" d="M 174.422669 218.4047 
L 167.376059 224.112932 
L 171.759707 224.222688 
z
" style="stroke:#000000;"/>
    <path clip-path="url(#pcb59e21084)" d="M 173.678533 127.18985 
L 167.703252 124.471362 
L 172.086417 124.356521 
z
" style="stroke:#000000;"/>
    <path clip-path="url(#pcb59e21084)" d="M 166.574491 125.417429 
L 167.376059 130.216249 
L 165.386635 126.699996 
z
" style="stroke:#000000;"/>
    <path clip-path="url(#pcb59e21084)" d="M 167.376059 224.112932 
L 166.574491 228.914116 
L 165.386635 227.635054 
z
" style="stroke:#000000;"/>
    <path clip-path="url(#pcb59e21084)" d="M 172.086417 229.979525 
L 166.574491 228.914116 
L 167.703252 229.856854 
z
" style="stroke:#000000;"/>
    <path clip-path="url(#pcb59e21084)" d="M 173.678533 227.141472 
L 174.422669 218.4047 
L 171.759707 224.222688 
z
" style="stroke:#000000;"/>
    <path clip-path="url(#pcb59e21084)" d="M 174.422669 135.924414 
L 173.678533 127.18985 
L 171.759707 130.114327 
z
" style="stroke:#000000;"/>
    <path clip-path="url(#pcb59e21084)" d="M 170.959319 125.304612 
L 167.703252 124.471362 
L 166.574491 125.417429 
z
" style="stroke:#000000;"/>
    <path clip-path="url(#pcb59e21084)" d="M 171.759707 130.114327 
L 165.386635 126.699996 
L 167.376059 130.216249 
z
" style="stroke:#000000;"/>
    <path clip-path="url(#pcb59e21084)" d="M 167.703252 124.471362 
L 170.959319 125.304612 
L 172.086417 124.356521 
z
" style="stroke:#000000;"/>
    <path clip-path="url(#pcb59e21084)" d="M 170.959319 229.034778 
L 165.386635 227.635054 
L 166.574491 228.914116 
z
" style="stroke:#000000;"/>
    <path clip-path="url(#pcb59e21084)" d="M 173.678533 227.141472 
L 170.959319 229.034778 
L 172.086417 229.979525 
z
" style="stroke:#000000;"/>
    <path clip-path="url(#pcb59e21084)" d="M 170.959319 125.304612 
L 173.678533 127.18985 
L 172.086417 124.356521 
z
" style="stroke:#000000;"/>
    <path clip-path="url(#pcb59e21084)" d="M 166.574491 228.914116 
L 172.086417 229.979525 
L 170.959319 229.034778 
z
" style="stroke:#000000;"/>
    <path clip-path="url(#pcb59e21084)" d="M 169.773209 227.752949 
L 167.376059 224.112932 
L 165.386635 227.635054 
z
" style="stroke:#000000;"/>
    <path clip-path="url(#pcb59e21084)" d="M 170.959319 229.034778 
L 173.678533 227.141472 
L 171.759707 224.222688 
z
" style="stroke:#000000;"/>
    <path clip-path="url(#pcb59e21084)" d="M 173.678533 127.18985 
L 170.959319 125.304612 
L 171.759707 130.114327 
z
" style="stroke:#000000;"/>
    <path clip-path="url(#pcb59e21084)" d="M 167.376059 224.112932 
L 169.773209 227.752949 
L 171.759707 224.222688 
z
" style="stroke:#000000;"/>
    <path clip-path="url(#pcb59e21084)" d="M 169.773209 126.589961 
L 166.574491 125.417429 
L 165.386635 126.699996 
z
" style="stroke:#000000;"/>
    <path clip-path="url(#pcb59e21084)" d="M 166.574491 125.417429 
L 169.773209 126.589961 
L 170.959319 125.304612 
z
" style="stroke:#000000;"/>
    <path clip-path="url(#pcb59e21084)" d="M 165.386635 126.699996 
L 171.759707 130.114327 
L 169.773209 126.589961 
z
" style="stroke:#000000;"/>
    <path clip-path="url(#pcb59e21084)" d="M 165.386635 227.635054 
L 170.959319 229.034778 
L 169.773209 227.752949 
z
" style="stroke:#000000;"/>
    <path clip-path="url(#pcb59e21084)" d="M 170.959319 229.034778 
L 171.759707 224.222688 
L 169.773209 227.752949 
z
" style="stroke:#000000;"/>
    <path clip-path="url(#pcb59e21084)" d="M 171.759707 130.114327 
L 170.959319 125.304612 
L 169.773209 126.589961 
z
" style="stroke:#000000;"/>
   </g>
  </g>
 </g>
 <defs>
  <clipPath id="pcb59e21084">
   <rect height="271.8" width="279" x="45" y="43.2"/>
  </clipPath>
 </defs>
</svg>
