<?xml version="1.0" encoding="utf-8" standalone="no"?>
<!DOCTYPE svg PUBLIC "-//W3C//DTD SVG 1.1//EN"
  "http://www.w3.org/Graphics/SVG/1.1/DTD/svg11.dtd">
<!-- Created with matplotlib (https://matplotlib.org/) -->
<svg height="360pt" version="1.1" viewBox="0 0 360 360" width="360pt" xmlns="http://www.w3.org/2000/svg" xmlns:xlink="http://www.w3.org/1999/xlink">
 <defs>
  <style type="text/css">
*{stroke-linecap:butt;stroke-linejoin:round;}
  </style>
 </defs>
 <g id="figure_1">
  <g id="patch_1">
   <path d="M 0 360 
L 360 360 
L 360 0 
L 0 0 
z
" style="fill:#ffffff;"/>
  </g>
  <g id="patch_2">
   <path d="M 45 315 
L 324 315 
L 324 43.2 
L 45 43.2 
z
" style="fill:#ffffff;"/>
  </g>
  <g id="axes_1">
   <g id="Poly3DCollection_1">
    <path clip-path="url(#p6f6a2b601c)" d="M 202.443654 227.586763 
L 201.822834 222.971466 
L 203.360457 226.233755 
z
" style="stroke:#000000;"/>
    <path clip-path="url(#p6f6a2b601c)" d="M 201.822834 131.276239 
L 202.443654 126.658484 
L 203.360457 128.007862 
z
" style="stroke:#000000;"/>
    <path clip-path="url(#p6f6a2b601c)" d="M 208.100307 226.325417 
L 202.443654 227.586763 
L 203.360457 226.233755 
z
" style="stroke:#000000;"/>
    <path clip-path="url(#p6f6a2b601c)" d="M 208.100307 127.922312 
L 201.822834 131.276239 
L 203.360457 128.007862 
z
" style="stroke:#000000;"/>
    <path clip-path="url(#p6f6a2b601c)" d="M 207.186936 126.570404 
L 203.360457 128.007862 
L 202.443654 126.658484 
z
" style="stroke:#000000;"/>
    <path clip-path="url(#p6f6a2b601c)" d="M 203.360457 128.007862 
L 207.186936 126.570404 
L 208.100307 127.922312 
z
" style="stroke:#000000;"/>
    <path clip-path="url(#p6f6a2b601c)" d="M 206.568438 223.057397 
L 203.360457 226.233755 
L 201.822834 222.971466 
z
" style="stroke:#000000;"/>
    <path clip-path="url(#p6f6a2b601c)" d="M 203.360457 226.233755 
L 206.568438 223.057397 
L 208.100307 226.325417 
z
" style="stroke:#000000;"/>
    <path clip-path="url(#p6f6a2b601c)" d="M 202.443654 227.586763 
L 208.100307 226.325417 
L 207.186936 227.680968 
z
" style="stroke:#000000;"/>
    <path clip-path="url(#p6f6a2b601c)" d="M 207.186936 227.680968 
L 201.56892 228.611235 
L 202.443654 227.586763 
z
" style="stroke:#000000;"/>
    <path clip-path="url(#p6f6a2b601c)" d="M 202.443654 227.586763 
L 200.327359 225.985973 
L 201.822834 222.971466 
z
" style="stroke:#000000;"/>
    <path clip-path="url(#p6f6a2b601c)" d="M 200.327359 128.267653 
L 202.443654 126.658484 
L 201.822834 131.276239 
z
" style="stroke:#000000;"/>
    <path clip-path="url(#p6f6a2b601c)" d="M 200.327359 225.985973 
L 202.443654 227.586763 
L 201.56892 228.611235 
z
" style="stroke:#000000;"/>
    <path clip-path="url(#p6f6a2b601c)" d="M 202.443654 126.658484 
L 200.327359 128.267653 
L 201.56892 125.637475 
z
" style="stroke:#000000;"/>
    <path clip-path="url(#p6f6a2b601c)" d="M 206.315473 125.54746 
L 202.443654 126.658484 
L 201.56892 125.637475 
z
" style="stroke:#000000;"/>
    <path clip-path="url(#p6f6a2b601c)" d="M 201.822834 131.276239 
L 208.100307 127.922312 
L 206.568438 131.196442 
z
" style="stroke:#000000;"/>
    <path clip-path="url(#p6f6a2b601c)" d="M 202.443654 126.658484 
L 206.315473 125.54746 
L 207.186936 126.570404 
z
" style="stroke:#000000;"/>
    <path clip-path="url(#p6f6a2b601c)" d="M 207.186936 126.570404 
L 206.568438 131.196442 
L 208.100307 127.922312 
z
" style="stroke:#000000;"/>
    <path clip-path="url(#p6f6a2b601c)" d="M 206.568438 223.057397 
L 207.186936 227.680968 
L 208.100307 226.325417 
z
" style="stroke:#000000;"/>
    <path clip-path="url(#p6f6a2b601c)" d="M 201.56892 228.611235 
L 207.186936 227.680968 
L 206.315473 228.707388 
z
" style="stroke:#000000;"/>
    <path clip-path="url(#p6f6a2b601c)" d="M 200.327359 128.267653 
L 206.315473 125.54746 
L 201.56892 125.637475 
z
" style="stroke:#000000;"/>
    <path clip-path="url(#p6f6a2b601c)" d="M 200.327359 225.985973 
L 199.744674 217.499644 
L 201.822834 222.971466 
z
" style="stroke:#000000;"/>
    <path clip-path="url(#p6f6a2b601c)" d="M 199.744674 136.756289 
L 200.327359 128.267653 
L 201.822834 131.276239 
z
" style="stroke:#000000;"/>
    <path clip-path="url(#p6f6a2b601c)" d="M 199.744674 217.499644 
L 206.568438 223.057397 
L 201.822834 222.971466 
z
" style="stroke:#000000;"/>
    <path clip-path="url(#p6f6a2b601c)" d="M 201.56892 228.611235 
L 205.07855 226.077512 
L 200.327359 225.985973 
z
" style="stroke:#000000;"/>
    <path clip-path="url(#p6f6a2b601c)" d="M 205.07855 226.077512 
L 201.56892 228.611235 
L 206.315473 228.707388 
z
" style="stroke:#000000;"/>
    <path clip-path="url(#p6f6a2b601c)" d="M 204.49804 136.686226 
L 201.822834 131.276239 
L 206.568438 131.196442 
z
" style="stroke:#000000;"/>
    <path clip-path="url(#p6f6a2b601c)" d="M 207.186936 126.570404 
L 205.07855 128.182269 
L 206.568438 131.196442 
z
" style="stroke:#000000;"/>
    <path clip-path="url(#p6f6a2b601c)" d="M 205.07855 226.077512 
L 207.186936 227.680968 
L 206.568438 223.057397 
z
" style="stroke:#000000;"/>
    <path clip-path="url(#p6f6a2b601c)" d="M 201.822834 131.276239 
L 204.49804 136.686226 
L 199.744674 136.756289 
z
" style="stroke:#000000;"/>
    <path clip-path="url(#p6f6a2b601c)" d="M 205.07855 128.182269 
L 207.186936 126.570404 
L 206.315473 125.54746 
z
" style="stroke:#000000;"/>
    <path clip-path="url(#p6f6a2b601c)" d="M 207.186936 227.680968 
L 205.07855 226.077512 
L 206.315473 228.707388 
z
" style="stroke:#000000;"/>
    <path clip-path="url(#p6f6a2b601c)" d="M 206.315473 125.54746 
L 200.327359 128.267653 
L 205.07855 128.182269 
z
" style="stroke:#000000;"/>
    <path clip-path="url(#p6f6a2b601c)" d="M 206.568438 223.057397 
L 199.744674 217.499644 
L 204.49804 217.575871 
z
" style="stroke:#000000;"/>
    <path clip-path="url(#p6f6a2b601c)" d="M 198.108488 220.161348 
L 199.744674 217.499644 
L 200.327359 225.985973 
z
" style="stroke:#000000;"/>
    <path clip-path="url(#p6f6a2b601c)" d="M 199.744674 136.756289 
L 198.108488 134.101063 
L 200.327359 128.267653 
z
" style="stroke:#000000;"/>
    <path clip-path="url(#p6f6a2b601c)" d="M 205.07855 128.182269 
L 204.49804 136.686226 
L 206.568438 131.196442 
z
" style="stroke:#000000;"/>
    <path clip-path="url(#p6f6a2b601c)" d="M 204.49804 217.575871 
L 205.07855 226.077512 
L 206.568438 223.057397 
z
" style="stroke:#000000;"/>
    <path clip-path="url(#p6f6a2b601c)" d="M 198.108488 134.101063 
L 205.07855 128.182269 
L 200.327359 128.267653 
z
" style="stroke:#000000;"/>
    <path clip-path="url(#p6f6a2b601c)" d="M 197.938002 211.545838 
L 204.49804 217.575871 
L 199.744674 217.499644 
z
" style="stroke:#000000;"/>
    <path clip-path="url(#p6f6a2b601c)" d="M 198.108488 220.161348 
L 197.938002 211.545838 
L 199.744674 217.499644 
z
" style="stroke:#000000;"/>
    <path clip-path="url(#p6f6a2b601c)" d="M 197.938002 142.717248 
L 198.108488 134.101063 
L 199.744674 136.756289 
z
" style="stroke:#000000;"/>
    <path clip-path="url(#p6f6a2b601c)" d="M 202.867951 220.242551 
L 200.327359 225.985973 
L 205.07855 226.077512 
z
" style="stroke:#000000;"/>
    <path clip-path="url(#p6f6a2b601c)" d="M 200.327359 225.985973 
L 202.867951 220.242551 
L 198.108488 220.161348 
z
" style="stroke:#000000;"/>
    <path clip-path="url(#p6f6a2b601c)" d="M 202.6981 142.65786 
L 199.744674 136.756289 
L 204.49804 136.686226 
z
" style="stroke:#000000;"/>
    <path clip-path="url(#p6f6a2b601c)" d="M 199.744674 136.756289 
L 202.6981 142.65786 
L 197.938002 142.717248 
z
" style="stroke:#000000;"/>
    <path clip-path="url(#p6f6a2b601c)" d="M 202.867951 134.026047 
L 204.49804 136.686226 
L 205.07855 128.182269 
z
" style="stroke:#000000;"/>
    <path clip-path="url(#p6f6a2b601c)" d="M 204.49804 217.575871 
L 202.867951 220.242551 
L 205.07855 226.077512 
z
" style="stroke:#000000;"/>
    <path clip-path="url(#p6f6a2b601c)" d="M 205.07855 128.182269 
L 198.108488 134.101063 
L 202.867951 134.026047 
z
" style="stroke:#000000;"/>
    <path clip-path="url(#p6f6a2b601c)" d="M 204.49804 217.575871 
L 197.938002 211.545838 
L 202.6981 211.611415 
z
" style="stroke:#000000;"/>
    <path clip-path="url(#p6f6a2b601c)" d="M 196.178906 213.820773 
L 197.938002 211.545838 
L 198.108488 220.161348 
z
" style="stroke:#000000;"/>
    <path clip-path="url(#p6f6a2b601c)" d="M 197.938002 142.717248 
L 196.178906 140.449277 
L 198.108488 134.101063 
z
" style="stroke:#000000;"/>
    <path clip-path="url(#p6f6a2b601c)" d="M 202.867951 134.026047 
L 202.6981 142.65786 
L 204.49804 136.686226 
z
" style="stroke:#000000;"/>
    <path clip-path="url(#p6f6a2b601c)" d="M 202.6981 211.611415 
L 202.867951 220.242551 
L 204.49804 217.575871 
z
" style="stroke:#000000;"/>
    <path clip-path="url(#p6f6a2b601c)" d="M 196.178906 140.449277 
L 202.867951 134.026047 
L 198.108488 134.101063 
z
" style="stroke:#000000;"/>
    <path clip-path="url(#p6f6a2b601c)" d="M 196.426217 205.178794 
L 202.6981 211.611415 
L 197.938002 211.545838 
z
" style="stroke:#000000;"/>
    <path clip-path="url(#p6f6a2b601c)" d="M 197.938002 211.545838 
L 196.178906 213.820773 
L 196.426217 205.178794 
z
" style="stroke:#000000;"/>
    <path clip-path="url(#p6f6a2b601c)" d="M 196.178906 140.449277 
L 197.938002 142.717248 
L 196.426217 149.090278 
z
" style="stroke:#000000;"/>
    <path clip-path="url(#p6f6a2b601c)" d="M 200.945546 213.890623 
L 198.108488 220.161348 
L 202.867951 220.242551 
z
" style="stroke:#000000;"/>
    <path clip-path="url(#p6f6a2b601c)" d="M 197.938002 142.717248 
L 201.191938 149.042377 
L 196.426217 149.090278 
z
" style="stroke:#000000;"/>
    <path clip-path="url(#p6f6a2b601c)" d="M 201.191938 149.042377 
L 197.938002 142.717248 
L 202.6981 142.65786 
z
" style="stroke:#000000;"/>
    <path clip-path="url(#p6f6a2b601c)" d="M 198.108488 220.161348 
L 200.945546 213.890623 
L 196.178906 213.820773 
z
" style="stroke:#000000;"/>
    <path clip-path="url(#p6f6a2b601c)" d="M 202.6981 211.611415 
L 196.426217 205.178794 
L 201.191938 205.232906 
z
" style="stroke:#000000;"/>
    <path clip-path="url(#p6f6a2b601c)" d="M 200.945546 140.385642 
L 202.6981 142.65786 
L 202.867951 134.026047 
z
" style="stroke:#000000;"/>
    <path clip-path="url(#p6f6a2b601c)" d="M 202.6981 211.611415 
L 200.945546 213.890623 
L 202.867951 220.242551 
z
" style="stroke:#000000;"/>
    <path clip-path="url(#p6f6a2b601c)" d="M 202.867951 134.026047 
L 196.178906 140.449277 
L 200.945546 140.385642 
z
" style="stroke:#000000;"/>
    <path clip-path="url(#p6f6a2b601c)" d="M 194.563845 207.036913 
L 196.426217 205.178794 
L 196.178906 213.820773 
z
" style="stroke:#000000;"/>
    <path clip-path="url(#p6f6a2b601c)" d="M 196.426217 149.090278 
L 194.563845 147.239532 
L 196.178906 140.449277 
z
" style="stroke:#000000;"/>
    <path clip-path="url(#p6f6a2b601c)" d="M 195.229098 198.473026 
L 201.191938 205.232906 
L 196.426217 205.178794 
z
" style="stroke:#000000;"/>
    <path clip-path="url(#p6f6a2b601c)" d="M 196.426217 205.178794 
L 194.563845 207.036913 
L 195.229098 198.473026 
z
" style="stroke:#000000;"/>
    <path clip-path="url(#p6f6a2b601c)" d="M 194.563845 147.239532 
L 196.426217 149.090278 
L 195.229098 155.800785 
z
" style="stroke:#000000;"/>
    <path clip-path="url(#p6f6a2b601c)" d="M 202.6981 142.65786 
L 200.945546 140.385642 
L 201.191938 149.042377 
z
" style="stroke:#000000;"/>
    <path clip-path="url(#p6f6a2b601c)" d="M 200.945546 213.890623 
L 202.6981 211.611415 
L 201.191938 205.232906 
z
" style="stroke:#000000;"/>
    <path clip-path="url(#p6f6a2b601c)" d="M 194.563845 147.239532 
L 200.945546 140.385642 
L 196.178906 140.449277 
z
" style="stroke:#000000;"/>
    <path clip-path="url(#p6f6a2b601c)" d="M 196.426217 149.090278 
L 199.999265 155.765039 
L 195.229098 155.800785 
z
" style="stroke:#000000;"/>
    <path clip-path="url(#p6f6a2b601c)" d="M 199.999265 155.765039 
L 196.426217 149.090278 
L 201.191938 149.042377 
z
" style="stroke:#000000;"/>
    <path clip-path="url(#p6f6a2b601c)" d="M 199.33648 207.094529 
L 196.178906 213.820773 
L 200.945546 213.890623 
z
" style="stroke:#000000;"/>
    <path clip-path="url(#p6f6a2b601c)" d="M 201.191938 205.232906 
L 195.229098 198.473026 
L 199.999265 198.515 
z
" style="stroke:#000000;"/>
    <path clip-path="url(#p6f6a2b601c)" d="M 196.178906 213.820773 
L 199.33648 207.094529 
L 194.563845 207.036913 
z
" style="stroke:#000000;"/>
    <path clip-path="url(#p6f6a2b601c)" d="M 194.362451 191.508301 
L 199.999265 198.515 
L 195.229098 198.473026 
z
" style="stroke:#000000;"/>
    <path clip-path="url(#p6f6a2b601c)" d="M 193.2847 199.889835 
L 195.229098 198.473026 
L 194.563845 207.036913 
z
" style="stroke:#000000;"/>
    <path clip-path="url(#p6f6a2b601c)" d="M 195.229098 155.800785 
L 193.2847 154.391674 
L 194.563845 147.239532 
z
" style="stroke:#000000;"/>
    <path clip-path="url(#p6f6a2b601c)" d="M 195.229098 198.473026 
L 193.2847 199.889835 
L 194.362451 191.508301 
z
" style="stroke:#000000;"/>
    <path clip-path="url(#p6f6a2b601c)" d="M 193.2847 154.391674 
L 195.229098 155.800785 
L 194.362451 162.768942 
z
" style="stroke:#000000;"/>
    <path clip-path="url(#p6f6a2b601c)" d="M 199.33648 147.188154 
L 201.191938 149.042377 
L 200.945546 140.385642 
z
" style="stroke:#000000;"/>
    <path clip-path="url(#p6f6a2b601c)" d="M 201.191938 205.232906 
L 199.33648 207.094529 
L 200.945546 213.890623 
z
" style="stroke:#000000;"/>
    <path clip-path="url(#p6f6a2b601c)" d="M 195.229098 155.800785 
L 199.135834 162.745864 
L 194.362451 162.768942 
z
" style="stroke:#000000;"/>
    <path clip-path="url(#p6f6a2b601c)" d="M 200.945546 140.385642 
L 194.563845 147.239532 
L 199.33648 147.188154 
z
" style="stroke:#000000;"/>
    <path clip-path="url(#p6f6a2b601c)" d="M 199.135834 162.745864 
L 195.229098 155.800785 
L 199.999265 155.765039 
z
" style="stroke:#000000;"/>
    <path clip-path="url(#p6f6a2b601c)" d="M 201.191938 149.042377 
L 199.33648 147.188154 
L 199.999265 155.765039 
z
" style="stroke:#000000;"/>
    <path clip-path="url(#p6f6a2b601c)" d="M 199.33648 207.094529 
L 201.191938 205.232906 
L 199.999265 198.515 
z
" style="stroke:#000000;"/>
    <path clip-path="url(#p6f6a2b601c)" d="M 193.837801 184.368469 
L 199.135834 191.537619 
L 194.362451 191.508301 
z
" style="stroke:#000000;"/>
    <path clip-path="url(#p6f6a2b601c)" d="M 193.2847 154.391674 
L 199.33648 147.188154 
L 194.563845 147.239532 
z
" style="stroke:#000000;"/>
    <path clip-path="url(#p6f6a2b601c)" d="M 199.999265 198.515 
L 194.362451 191.508301 
L 199.135834 191.537619 
z
" style="stroke:#000000;"/>
    <path clip-path="url(#p6f6a2b601c)" d="M 194.362451 191.508301 
L 192.358515 192.464921 
L 193.837801 184.368469 
z
" style="stroke:#000000;"/>
    <path clip-path="url(#p6f6a2b601c)" d="M 192.358515 161.820256 
L 194.362451 162.768942 
L 193.837801 169.91085 
z
" style="stroke:#000000;"/>
    <path clip-path="url(#p6f6a2b601c)" d="M 194.362451 162.768942 
L 198.613127 169.900787 
L 193.837801 169.91085 
z
" style="stroke:#000000;"/>
    <path clip-path="url(#p6f6a2b601c)" d="M 192.358515 192.464921 
L 194.362451 191.508301 
L 193.2847 199.889835 
z
" style="stroke:#000000;"/>
    <path clip-path="url(#p6f6a2b601c)" d="M 194.362451 162.768942 
L 192.358515 161.820256 
L 193.2847 154.391674 
z
" style="stroke:#000000;"/>
    <path clip-path="url(#p6f6a2b601c)" d="M 193.662125 177.140007 
L 198.613127 184.384781 
L 193.837801 184.368469 
z
" style="stroke:#000000;"/>
    <path clip-path="url(#p6f6a2b601c)" d="M 193.837801 169.91085 
L 198.438102 177.143133 
L 193.662125 177.140007 
z
" style="stroke:#000000;"/>
    <path clip-path="url(#p6f6a2b601c)" d="M 194.563845 207.036913 
L 198.062076 199.93449 
L 193.2847 199.889835 
z
" style="stroke:#000000;"/>
    <path clip-path="url(#p6f6a2b601c)" d="M 198.613127 169.900787 
L 194.362451 162.768942 
L 199.135834 162.745864 
z
" style="stroke:#000000;"/>
    <path clip-path="url(#p6f6a2b601c)" d="M 191.79775 169.435349 
L 193.837801 169.91085 
L 193.662125 177.140007 
z
" style="stroke:#000000;"/>
    <path clip-path="url(#p6f6a2b601c)" d="M 193.837801 184.368469 
L 191.79775 184.852047 
L 193.662125 177.140007 
z
" style="stroke:#000000;"/>
    <path clip-path="url(#p6f6a2b601c)" d="M 198.062076 199.93449 
L 194.563845 207.036913 
L 199.33648 207.094529 
z
" style="stroke:#000000;"/>
    <path clip-path="url(#p6f6a2b601c)" d="M 199.135834 191.537619 
L 193.837801 184.368469 
L 198.613127 184.384781 
z
" style="stroke:#000000;"/>
    <path clip-path="url(#p6f6a2b601c)" d="M 198.062076 154.353276 
L 199.999265 155.765039 
L 199.33648 147.188154 
z
" style="stroke:#000000;"/>
    <path clip-path="url(#p6f6a2b601c)" d="M 199.999265 198.515 
L 198.062076 199.93449 
L 199.33648 207.094529 
z
" style="stroke:#000000;"/>
    <path clip-path="url(#p6f6a2b601c)" d="M 198.438102 177.143133 
L 193.837801 169.91085 
L 198.613127 169.900787 
z
" style="stroke:#000000;"/>
    <path clip-path="url(#p6f6a2b601c)" d="M 199.999265 155.765039 
L 198.062076 154.353276 
L 199.135834 162.745864 
z
" style="stroke:#000000;"/>
    <path clip-path="url(#p6f6a2b601c)" d="M 198.062076 199.93449 
L 199.999265 198.515 
L 199.135834 191.537619 
z
" style="stroke:#000000;"/>
    <path clip-path="url(#p6f6a2b601c)" d="M 198.613127 184.384781 
L 193.662125 177.140007 
L 198.438102 177.143133 
z
" style="stroke:#000000;"/>
    <path clip-path="url(#p6f6a2b601c)" d="M 191.79775 184.852047 
L 193.837801 184.368469 
L 192.358515 192.464921 
z
" style="stroke:#000000;"/>
    <path clip-path="url(#p6f6a2b601c)" d="M 193.837801 169.91085 
L 191.79775 169.435349 
L 192.358515 161.820256 
z
" style="stroke:#000000;"/>
    <path clip-path="url(#p6f6a2b601c)" d="M 199.33648 147.188154 
L 193.2847 154.391674 
L 198.062076 154.353276 
z
" style="stroke:#000000;"/>
    <path clip-path="url(#p6f6a2b601c)" d="M 192.358515 161.820256 
L 198.062076 154.353276 
L 193.2847 154.391674 
z
" style="stroke:#000000;"/>
    <path clip-path="url(#p6f6a2b601c)" d="M 191.609986 177.14407 
L 193.662125 177.140007 
L 191.79775 184.852047 
z
" style="stroke:#000000;"/>
    <path clip-path="url(#p6f6a2b601c)" d="M 193.662125 177.140007 
L 191.609986 177.14407 
L 191.79775 169.435349 
z
" style="stroke:#000000;"/>
    <path clip-path="url(#p6f6a2b601c)" d="M 193.2847 199.889835 
L 197.139318 192.496055 
L 192.358515 192.464921 
z
" style="stroke:#000000;"/>
    <path clip-path="url(#p6f6a2b601c)" d="M 199.135834 162.745864 
L 197.139318 161.795391 
L 198.613127 169.900787 
z
" style="stroke:#000000;"/>
    <path clip-path="url(#p6f6a2b601c)" d="M 197.139318 192.496055 
L 199.135834 191.537619 
L 198.613127 184.384781 
z
" style="stroke:#000000;"/>
    <path clip-path="url(#p6f6a2b601c)" d="M 197.139318 192.496055 
L 193.2847 199.889835 
L 198.062076 199.93449 
z
" style="stroke:#000000;"/>
    <path clip-path="url(#p6f6a2b601c)" d="M 197.139318 161.795391 
L 199.135834 162.745864 
L 198.062076 154.353276 
z
" style="stroke:#000000;"/>
    <path clip-path="url(#p6f6a2b601c)" d="M 199.135834 191.537619 
L 197.139318 192.496055 
L 198.062076 199.93449 
z
" style="stroke:#000000;"/>
    <path clip-path="url(#p6f6a2b601c)" d="M 194.003204 130.063162 
L 188.858612 144.592154 
L 192.295113 130.894853 
z
" style="stroke:#000000;"/>
    <path clip-path="url(#p6f6a2b601c)" d="M 192.295113 130.894853 
L 188.858612 122.393952 
L 194.003204 130.063162 
z
" style="stroke:#000000;"/>
    <path clip-path="url(#p6f6a2b601c)" d="M 191.79775 169.435349 
L 197.139318 161.795391 
L 192.358515 161.820256 
z
" style="stroke:#000000;"/>
    <path clip-path="url(#p6f6a2b601c)" d="M 198.062076 154.353276 
L 192.358515 161.820256 
L 197.139318 161.795391 
z
" style="stroke:#000000;"/>
    <path clip-path="url(#p6f6a2b601c)" d="M 196.580628 184.869281 
L 198.613127 184.384781 
L 198.438102 177.143133 
z
" style="stroke:#000000;"/>
    <path clip-path="url(#p6f6a2b601c)" d="M 198.613127 169.900787 
L 196.580628 169.424393 
L 198.438102 177.143133 
z
" style="stroke:#000000;"/>
    <path clip-path="url(#p6f6a2b601c)" d="M 192.358515 192.464921 
L 196.580628 184.869281 
L 191.79775 184.852047 
z
" style="stroke:#000000;"/>
    <path clip-path="url(#p6f6a2b601c)" d="M 194.003204 130.063162 
L 193.652338 122.296648 
L 198.777918 129.980423 
z
" style="stroke:#000000;"/>
    <path clip-path="url(#p6f6a2b601c)" d="M 193.652338 151.948555 
L 194.003204 130.063162 
L 198.777918 129.980423 
z
" style="stroke:#000000;"/>
    <path clip-path="url(#p6f6a2b601c)" d="M 191.609986 177.14407 
L 196.580628 169.424393 
L 191.79775 169.435349 
z
" style="stroke:#000000;"/>
    <path clip-path="url(#p6f6a2b601c)" d="M 191.79775 184.852047 
L 196.393558 177.14721 
L 191.609986 177.14407 
z
" style="stroke:#000000;"/>
    <path clip-path="url(#p6f6a2b601c)" d="M 196.580628 184.869281 
L 192.358515 192.464921 
L 197.139318 192.496055 
z
" style="stroke:#000000;"/>
    <path clip-path="url(#p6f6a2b601c)" d="M 196.580628 169.424393 
L 198.613127 169.900787 
L 197.139318 161.795391 
z
" style="stroke:#000000;"/>
    <path clip-path="url(#p6f6a2b601c)" d="M 198.613127 184.384781 
L 196.580628 184.869281 
L 197.139318 192.496055 
z
" style="stroke:#000000;"/>
    <path clip-path="url(#p6f6a2b601c)" d="M 197.139318 161.795391 
L 191.79775 169.435349 
L 196.580628 169.424393 
z
" style="stroke:#000000;"/>
    <path clip-path="url(#p6f6a2b601c)" d="M 196.393558 177.14721 
L 198.438102 177.143133 
L 196.580628 169.424393 
z
" style="stroke:#000000;"/>
    <path clip-path="url(#p6f6a2b601c)" d="M 198.438102 177.143133 
L 196.393558 177.14721 
L 196.580628 184.869281 
z
" style="stroke:#000000;"/>
    <path clip-path="url(#p6f6a2b601c)" d="M 196.393558 177.14721 
L 191.79775 184.852047 
L 196.580628 184.869281 
z
" style="stroke:#000000;"/>
    <path clip-path="url(#p6f6a2b601c)" d="M 197.076151 130.81347 
L 188.858612 126.093652 
L 192.295113 130.894853 
z
" style="stroke:#000000;"/>
    <path clip-path="url(#p6f6a2b601c)" d="M 188.858612 144.592154 
L 197.076151 130.81347 
L 192.295113 130.894853 
z
" style="stroke:#000000;"/>
    <path clip-path="url(#p6f6a2b601c)" d="M 196.580628 169.424393 
L 191.609986 177.14407 
L 196.393558 177.14721 
z
" style="stroke:#000000;"/>
    <path clip-path="url(#p6f6a2b601c)" d="M 188.858612 144.592154 
L 194.003204 130.063162 
L 188.858612 151.991554 
z
" style="stroke:#000000;"/>
    <path clip-path="url(#p6f6a2b601c)" d="M 193.652338 122.296648 
L 197.076151 130.81347 
L 198.777918 129.980423 
z
" style="stroke:#000000;"/>
    <path clip-path="url(#p6f6a2b601c)" d="M 193.652338 144.535579 
L 198.777918 129.980423 
L 197.076151 130.81347 
z
" style="stroke:#000000;"/>
    <path clip-path="url(#p6f6a2b601c)" d="M 193.652338 122.296648 
L 194.003204 130.063162 
L 188.858612 122.393952 
z
" style="stroke:#000000;"/>
    <path clip-path="url(#p6f6a2b601c)" d="M 194.003204 130.063162 
L 193.652338 151.948555 
L 188.858612 151.991554 
z
" style="stroke:#000000;"/>
    <path clip-path="url(#p6f6a2b601c)" d="M 188.858612 122.393952 
L 192.295113 130.894853 
L 188.858612 126.093652 
z
" style="stroke:#000000;"/>
    <path clip-path="url(#p6f6a2b601c)" d="M 193.652338 144.535579 
L 193.652338 151.948555 
L 198.777918 129.980423 
z
" style="stroke:#000000;"/>
    <path clip-path="url(#p6f6a2b601c)" d="M 188.858612 126.093652 
L 197.076151 130.81347 
L 193.652338 126.003136 
z
" style="stroke:#000000;"/>
    <path clip-path="url(#p6f6a2b601c)" d="M 197.076151 130.81347 
L 188.858612 144.592154 
L 193.652338 144.535579 
z
" style="stroke:#000000;"/>
    <path clip-path="url(#p6f6a2b601c)" d="M 193.652338 122.296648 
L 193.652338 126.003136 
L 197.076151 130.81347 
z
" style="stroke:#000000;"/>
    <path clip-path="url(#p6f6a2b601c)" d="M 185.394751 130.540296 
L 188.858612 122.393952 
L 188.858612 126.093652 
z
" style="stroke:#000000;"/>
    <path clip-path="url(#p6f6a2b601c)" d="M 193.652338 126.003136 
L 185.394751 130.540296 
L 188.858612 126.093652 
z
" style="stroke:#000000;"/>
    <path clip-path="url(#p6f6a2b601c)" d="M 185.394751 130.540296 
L 193.652338 144.535579 
L 188.858612 144.592154 
z
" style="stroke:#000000;"/>
    <path clip-path="url(#p6f6a2b601c)" d="M 183.652457 129.520313 
L 188.858612 144.592154 
L 188.858612 151.991554 
z
" style="stroke:#000000;"/>
    <path clip-path="url(#p6f6a2b601c)" d="M 193.652338 122.296648 
L 190.201214 130.45761 
L 193.652338 126.003136 
z
" style="stroke:#000000;"/>
    <path clip-path="url(#p6f6a2b601c)" d="M 188.858612 122.393952 
L 188.465308 129.43558 
L 193.652338 122.296648 
z
" style="stroke:#000000;"/>
    <path clip-path="url(#p6f6a2b601c)" d="M 188.465308 129.43558 
L 188.858612 151.991554 
L 193.652338 151.948555 
z
" style="stroke:#000000;"/>
    <path clip-path="url(#p6f6a2b601c)" d="M 188.858612 144.592154 
L 183.652457 129.520313 
L 185.394751 130.540296 
z
" style="stroke:#000000;"/>
    <path clip-path="url(#p6f6a2b601c)" d="M 188.858612 122.393952 
L 185.394751 130.540296 
L 183.652457 129.520313 
z
" style="stroke:#000000;"/>
    <path clip-path="url(#p6f6a2b601c)" d="M 193.652338 144.535579 
L 188.465308 129.43558 
L 193.652338 151.948555 
z
" style="stroke:#000000;"/>
    <path clip-path="url(#p6f6a2b601c)" d="M 185.899483 169.394596 
L 190.893639 177.158178 
L 186.089728 177.154998 
z
" style="stroke:#000000;"/>
    <path clip-path="url(#p6f6a2b601c)" d="M 185.394751 130.540296 
L 193.652338 126.003136 
L 190.201214 130.45761 
z
" style="stroke:#000000;"/>
    <path clip-path="url(#p6f6a2b601c)" d="M 193.652338 144.535579 
L 185.394751 130.540296 
L 190.201214 130.45761 
z
" style="stroke:#000000;"/>
    <path clip-path="url(#p6f6a2b601c)" d="M 186.089728 177.154998 
L 190.704094 184.933623 
L 185.899483 184.916153 
z
" style="stroke:#000000;"/>
    <path clip-path="url(#p6f6a2b601c)" d="M 184.001472 177.159132 
L 186.089728 177.154998 
L 185.899483 184.916153 
z
" style="stroke:#000000;"/>
    <path clip-path="url(#p6f6a2b601c)" d="M 186.089728 177.154998 
L 184.001472 177.159132 
L 185.899483 169.394596 
z
" style="stroke:#000000;"/>
    <path clip-path="url(#p6f6a2b601c)" d="M 185.330326 161.709906 
L 190.704094 169.38349 
L 185.899483 169.394596 
z
" style="stroke:#000000;"/>
    <path clip-path="url(#p6f6a2b601c)" d="M 183.821778 184.471988 
L 185.899483 184.916153 
L 185.330326 192.603096 
z
" style="stroke:#000000;"/>
    <path clip-path="url(#p6f6a2b601c)" d="M 185.899483 169.394596 
L 183.821778 169.846987 
L 185.330326 161.709906 
z
" style="stroke:#000000;"/>
    <path clip-path="url(#p6f6a2b601c)" d="M 185.899483 184.916153 
L 190.137026 192.634738 
L 185.330326 192.603096 
z
" style="stroke:#000000;"/>
    <path clip-path="url(#p6f6a2b601c)" d="M 190.704094 184.933623 
L 186.089728 177.154998 
L 190.893639 177.158178 
z
" style="stroke:#000000;"/>
    <path clip-path="url(#p6f6a2b601c)" d="M 190.893639 177.158178 
L 185.899483 169.394596 
L 190.704094 169.38349 
z
" style="stroke:#000000;"/>
    <path clip-path="url(#p6f6a2b601c)" d="M 188.465308 129.43558 
L 188.858612 122.393952 
L 183.652457 129.520313 
z
" style="stroke:#000000;"/>
    <path clip-path="url(#p6f6a2b601c)" d="M 188.858612 151.991554 
L 188.465308 129.43558 
L 183.652457 129.520313 
z
" style="stroke:#000000;"/>
    <path clip-path="url(#p6f6a2b601c)" d="M 190.137026 192.634738 
L 185.899483 184.916153 
L 190.704094 184.933623 
z
" style="stroke:#000000;"/>
    <path clip-path="url(#p6f6a2b601c)" d="M 183.821778 169.846987 
L 185.899483 169.394596 
L 184.001472 177.159132 
z
" style="stroke:#000000;"/>
    <path clip-path="url(#p6f6a2b601c)" d="M 185.899483 184.916153 
L 183.821778 184.471988 
L 184.001472 177.159132 
z
" style="stroke:#000000;"/>
    <path clip-path="url(#p6f6a2b601c)" d="M 184.387033 154.175471 
L 190.137026 161.684636 
L 185.330326 161.709906 
z
" style="stroke:#000000;"/>
    <path clip-path="url(#p6f6a2b601c)" d="M 190.704094 169.38349 
L 185.330326 161.709906 
L 190.137026 161.684636 
z
" style="stroke:#000000;"/>
    <path clip-path="url(#p6f6a2b601c)" d="M 190.201214 130.45761 
L 193.652338 122.296648 
L 188.465308 129.43558 
z
" style="stroke:#000000;"/>
    <path clip-path="url(#p6f6a2b601c)" d="M 188.465308 129.43558 
L 193.652338 144.535579 
L 190.201214 130.45761 
z
" style="stroke:#000000;"/>
    <path clip-path="url(#p6f6a2b601c)" d="M 183.284253 191.714348 
L 185.330326 192.603096 
L 184.387033 200.141266 
z
" style="stroke:#000000;"/>
    <path clip-path="url(#p6f6a2b601c)" d="M 185.330326 161.709906 
L 183.284253 162.606755 
L 184.387033 154.175471 
z
" style="stroke:#000000;"/>
    <path clip-path="url(#p6f6a2b601c)" d="M 185.330326 192.603096 
L 189.197192 200.186844 
L 184.387033 200.141266 
z
" style="stroke:#000000;"/>
    <path clip-path="url(#p6f6a2b601c)" d="M 185.330326 192.603096 
L 183.284253 191.714348 
L 183.821778 184.471988 
z
" style="stroke:#000000;"/>
    <path clip-path="url(#p6f6a2b601c)" d="M 183.284253 162.606755 
L 185.330326 161.709906 
L 183.821778 169.846987 
z
" style="stroke:#000000;"/>
    <path clip-path="url(#p6f6a2b601c)" d="M 189.197192 200.186844 
L 185.330326 192.603096 
L 190.137026 192.634738 
z
" style="stroke:#000000;"/>
    <path clip-path="url(#p6f6a2b601c)" d="M 188.813044 177.162328 
L 190.893639 177.158178 
L 190.704094 169.38349 
z
" style="stroke:#000000;"/>
    <path clip-path="url(#p6f6a2b601c)" d="M 190.893639 177.158178 
L 188.813044 177.162328 
L 190.704094 184.933623 
z
" style="stroke:#000000;"/>
    <path clip-path="url(#p6f6a2b601c)" d="M 190.137026 161.684636 
L 184.387033 154.175471 
L 189.197192 154.136278 
z
" style="stroke:#000000;"/>
    <path clip-path="url(#p6f6a2b601c)" d="M 183.077569 146.864978 
L 189.197192 154.136278 
L 184.387033 154.175471 
z
" style="stroke:#000000;"/>
    <path clip-path="url(#p6f6a2b601c)" d="M 188.634009 169.83669 
L 190.704094 169.38349 
L 190.137026 161.684636 
z
" style="stroke:#000000;"/>
    <path clip-path="url(#p6f6a2b601c)" d="M 190.704094 184.933623 
L 188.634009 184.488679 
L 190.137026 192.634738 
z
" style="stroke:#000000;"/>
    <path clip-path="url(#p6f6a2b601c)" d="M 183.821778 184.471988 
L 188.813044 177.162328 
L 184.001472 177.159132 
z
" style="stroke:#000000;"/>
    <path clip-path="url(#p6f6a2b601c)" d="M 184.387033 200.141266 
L 182.393459 198.815499 
L 183.284253 191.714348 
z
" style="stroke:#000000;"/>
    <path clip-path="url(#p6f6a2b601c)" d="M 182.393459 155.509131 
L 184.387033 154.175471 
L 183.284253 162.606755 
z
" style="stroke:#000000;"/>
    <path clip-path="url(#p6f6a2b601c)" d="M 184.001472 177.159132 
L 188.634009 169.83669 
L 183.821778 169.846987 
z
" style="stroke:#000000;"/>
    <path clip-path="url(#p6f6a2b601c)" d="M 182.393459 198.815499 
L 184.387033 200.141266 
L 183.077569 207.456944 
z
" style="stroke:#000000;"/>
    <path clip-path="url(#p6f6a2b601c)" d="M 184.387033 154.175471 
L 182.393459 155.509131 
L 183.077569 146.864978 
z
" style="stroke:#000000;"/>
    <path clip-path="url(#p6f6a2b601c)" d="M 183.284253 191.714348 
L 188.634009 184.488679 
L 183.821778 184.471988 
z
" style="stroke:#000000;"/>
    <path clip-path="url(#p6f6a2b601c)" d="M 184.387033 200.141266 
L 187.892525 207.516102 
L 183.077569 207.456944 
z
" style="stroke:#000000;"/>
    <path clip-path="url(#p6f6a2b601c)" d="M 188.634009 184.488679 
L 190.704094 184.933623 
L 188.813044 177.162328 
z
" style="stroke:#000000;"/>
    <path clip-path="url(#p6f6a2b601c)" d="M 190.704094 169.38349 
L 188.634009 169.83669 
L 188.813044 177.162328 
z
" style="stroke:#000000;"/>
    <path clip-path="url(#p6f6a2b601c)" d="M 183.821778 169.846987 
L 188.098452 162.583082 
L 183.284253 162.606755 
z
" style="stroke:#000000;"/>
    <path clip-path="url(#p6f6a2b601c)" d="M 187.892525 207.516102 
L 184.387033 200.141266 
L 189.197192 200.186844 
z
" style="stroke:#000000;"/>
    <path clip-path="url(#p6f6a2b601c)" d="M 188.634009 169.83669 
L 184.001472 177.159132 
L 188.813044 177.162328 
z
" style="stroke:#000000;"/>
    <path clip-path="url(#p6f6a2b601c)" d="M 188.813044 177.162328 
L 183.821778 184.471988 
L 188.634009 184.488679 
z
" style="stroke:#000000;"/>
    <path clip-path="url(#p6f6a2b601c)" d="M 188.098452 162.583082 
L 190.137026 161.684636 
L 189.197192 154.136278 
z
" style="stroke:#000000;"/>
    <path clip-path="url(#p6f6a2b601c)" d="M 190.137026 192.634738 
L 188.098452 191.744423 
L 189.197192 200.186844 
z
" style="stroke:#000000;"/>
    <path clip-path="url(#p6f6a2b601c)" d="M 188.098452 162.583082 
L 183.821778 169.846987 
L 188.634009 169.83669 
z
" style="stroke:#000000;"/>
    <path clip-path="url(#p6f6a2b601c)" d="M 190.137026 161.684636 
L 188.098452 162.583082 
L 188.634009 169.83669 
z
" style="stroke:#000000;"/>
    <path clip-path="url(#p6f6a2b601c)" d="M 188.098452 191.744423 
L 190.137026 192.634738 
L 188.634009 184.488679 
z
" style="stroke:#000000;"/>
    <path clip-path="url(#p6f6a2b601c)" d="M 182.393459 198.815499 
L 188.098452 191.744423 
L 183.284253 191.714348 
z
" style="stroke:#000000;"/>
    <path clip-path="url(#p6f6a2b601c)" d="M 189.197192 154.136278 
L 183.077569 146.864978 
L 187.892525 146.812224 
z
" style="stroke:#000000;"/>
    <path clip-path="url(#p6f6a2b601c)" d="M 188.634009 184.488679 
L 183.284253 191.714348 
L 188.098452 191.744423 
z
" style="stroke:#000000;"/>
    <path clip-path="url(#p6f6a2b601c)" d="M 183.077569 207.456944 
L 181.157043 205.70547 
L 182.393459 198.815499 
z
" style="stroke:#000000;"/>
    <path clip-path="url(#p6f6a2b601c)" d="M 181.157043 148.624055 
L 183.077569 146.864978 
L 182.393459 155.509131 
z
" style="stroke:#000000;"/>
    <path clip-path="url(#p6f6a2b601c)" d="M 183.284253 162.606755 
L 187.210918 155.472314 
L 182.393459 155.509131 
z
" style="stroke:#000000;"/>
    <path clip-path="url(#p6f6a2b601c)" d="M 181.413039 139.85067 
L 187.892525 146.812224 
L 183.077569 146.864978 
z
" style="stroke:#000000;"/>
    <path clip-path="url(#p6f6a2b601c)" d="M 187.210918 155.472314 
L 183.284253 162.606755 
L 188.098452 162.583082 
z
" style="stroke:#000000;"/>
    <path clip-path="url(#p6f6a2b601c)" d="M 181.157043 205.70547 
L 183.077569 207.456944 
L 181.413039 214.477841 
z
" style="stroke:#000000;"/>
    <path clip-path="url(#p6f6a2b601c)" d="M 183.077569 146.864978 
L 181.157043 148.624055 
L 181.413039 139.85067 
z
" style="stroke:#000000;"/>
    <path clip-path="url(#p6f6a2b601c)" d="M 189.197192 154.136278 
L 187.210918 155.472314 
L 188.098452 162.583082 
z
" style="stroke:#000000;"/>
    <path clip-path="url(#p6f6a2b601c)" d="M 187.210918 198.858731 
L 189.197192 200.186844 
L 188.098452 191.744423 
z
" style="stroke:#000000;"/>
    <path clip-path="url(#p6f6a2b601c)" d="M 187.210918 155.472314 
L 189.197192 154.136278 
L 187.892525 146.812224 
z
" style="stroke:#000000;"/>
    <path clip-path="url(#p6f6a2b601c)" d="M 189.197192 200.186844 
L 187.210918 198.858731 
L 187.892525 207.516102 
z
" style="stroke:#000000;"/>
    <path clip-path="url(#p6f6a2b601c)" d="M 188.098452 191.744423 
L 182.393459 198.815499 
L 187.210918 198.858731 
z
" style="stroke:#000000;"/>
    <path clip-path="url(#p6f6a2b601c)" d="M 186.234082 214.550105 
L 183.077569 207.456944 
L 187.892525 207.516102 
z
" style="stroke:#000000;"/>
    <path clip-path="url(#p6f6a2b601c)" d="M 181.157043 205.70547 
L 187.210918 198.858731 
L 182.393459 198.815499 
z
" style="stroke:#000000;"/>
    <path clip-path="url(#p6f6a2b601c)" d="M 183.077569 207.456944 
L 186.234082 214.550105 
L 181.413039 214.477841 
z
" style="stroke:#000000;"/>
    <path clip-path="url(#p6f6a2b601c)" d="M 182.393459 155.509131 
L 185.979021 148.574442 
L 181.157043 148.624055 
z
" style="stroke:#000000;"/>
    <path clip-path="url(#p6f6a2b601c)" d="M 185.979021 148.574442 
L 182.393459 155.509131 
L 187.210918 155.472314 
z
" style="stroke:#000000;"/>
    <path clip-path="url(#p6f6a2b601c)" d="M 187.892525 146.812224 
L 181.413039 139.85067 
L 186.234082 139.784836 
z
" style="stroke:#000000;"/>
    <path clip-path="url(#p6f6a2b601c)" d="M 181.413039 214.477841 
L 179.585703 212.315679 
L 181.157043 205.70547 
z
" style="stroke:#000000;"/>
    <path clip-path="url(#p6f6a2b601c)" d="M 179.585703 142.020067 
L 181.413039 139.85067 
L 181.157043 148.624055 
z
" style="stroke:#000000;"/>
    <path clip-path="url(#p6f6a2b601c)" d="M 187.892525 146.812224 
L 185.979021 148.574442 
L 187.210918 155.472314 
z
" style="stroke:#000000;"/>
    <path clip-path="url(#p6f6a2b601c)" d="M 185.979021 205.761517 
L 187.892525 207.516102 
L 187.210918 198.858731 
z
" style="stroke:#000000;"/>
    <path clip-path="url(#p6f6a2b601c)" d="M 187.210918 198.858731 
L 181.157043 205.70547 
L 185.979021 205.761517 
z
" style="stroke:#000000;"/>
    <path clip-path="url(#p6f6a2b601c)" d="M 185.979021 148.574442 
L 187.892525 146.812224 
L 186.234082 139.784836 
z
" style="stroke:#000000;"/>
    <path clip-path="url(#p6f6a2b601c)" d="M 187.892525 207.516102 
L 185.979021 205.761517 
L 186.234082 214.550105 
z
" style="stroke:#000000;"/>
    <path clip-path="url(#p6f6a2b601c)" d="M 179.407801 133.203337 
L 186.234082 139.784836 
L 181.413039 139.85067 
z
" style="stroke:#000000;"/>
    <path clip-path="url(#p6f6a2b601c)" d="M 179.407801 221.133114 
L 179.585703 212.315679 
L 181.413039 214.477841 
z
" style="stroke:#000000;"/>
    <path clip-path="url(#p6f6a2b601c)" d="M 179.585703 142.020067 
L 179.407801 133.203337 
L 181.413039 139.85067 
z
" style="stroke:#000000;"/>
    <path clip-path="url(#p6f6a2b601c)" d="M 179.585703 212.315679 
L 185.979021 205.761517 
L 181.157043 205.70547 
z
" style="stroke:#000000;"/>
    <path clip-path="url(#p6f6a2b601c)" d="M 184.236161 221.217887 
L 181.413039 214.477841 
L 186.234082 214.550105 
z
" style="stroke:#000000;"/>
    <path clip-path="url(#p6f6a2b601c)" d="M 181.157043 148.624055 
L 184.413415 141.958119 
L 179.585703 142.020067 
z
" style="stroke:#000000;"/>
    <path clip-path="url(#p6f6a2b601c)" d="M 184.413415 141.958119 
L 181.157043 148.624055 
L 185.979021 148.574442 
z
" style="stroke:#000000;"/>
    <path clip-path="url(#p6f6a2b601c)" d="M 181.413039 214.477841 
L 184.236161 221.217887 
L 179.407801 221.133114 
z
" style="stroke:#000000;"/>
    <path clip-path="url(#p6f6a2b601c)" d="M 186.234082 139.784836 
L 184.413415 141.958119 
L 185.979021 148.574442 
z
" style="stroke:#000000;"/>
    <path clip-path="url(#p6f6a2b601c)" d="M 184.413415 212.384084 
L 186.234082 214.550105 
L 185.979021 205.761517 
z
" style="stroke:#000000;"/>
    <path clip-path="url(#p6f6a2b601c)" d="M 185.979021 205.761517 
L 179.585703 212.315679 
L 184.413415 212.384084 
z
" style="stroke:#000000;"/>
    <path clip-path="url(#p6f6a2b601c)" d="M 186.234082 139.784836 
L 179.407801 133.203337 
L 184.236161 133.125023 
z
" style="stroke:#000000;"/>
    <path clip-path="url(#p6f6a2b601c)" d="M 179.407801 221.133114 
L 177.693168 218.579404 
L 179.585703 212.315679 
z
" style="stroke:#000000;"/>
    <path clip-path="url(#p6f6a2b601c)" d="M 177.693168 135.763835 
L 179.407801 133.203337 
L 179.585703 142.020067 
z
" style="stroke:#000000;"/>
    <path clip-path="url(#p6f6a2b601c)" d="M 184.236161 133.125023 
L 184.413415 141.958119 
L 186.234082 139.784836 
z
" style="stroke:#000000;"/>
    <path clip-path="url(#p6f6a2b601c)" d="M 184.413415 212.384084 
L 184.236161 221.217887 
L 186.234082 214.550105 
z
" style="stroke:#000000;"/>
    <path clip-path="url(#p6f6a2b601c)" d="M 177.693168 218.579404 
L 184.413415 212.384084 
L 179.585703 212.315679 
z
" style="stroke:#000000;"/>
    <path clip-path="url(#p6f6a2b601c)" d="M 177.079348 126.990809 
L 184.236161 133.125023 
L 179.407801 133.203337 
z
" style="stroke:#000000;"/>
    <path clip-path="url(#p6f6a2b601c)" d="M 177.079348 227.35486 
L 177.693168 218.579404 
L 179.407801 221.133114 
z
" style="stroke:#000000;"/>
    <path clip-path="url(#p6f6a2b601c)" d="M 177.693168 135.763835 
L 177.079348 126.990809 
L 179.407801 133.203337 
z
" style="stroke:#000000;"/>
    <path clip-path="url(#p6f6a2b601c)" d="M 182.527772 135.690127 
L 179.585703 142.020067 
L 184.413415 141.958119 
z
" style="stroke:#000000;"/>
    <path clip-path="url(#p6f6a2b601c)" d="M 179.585703 142.020067 
L 182.527772 135.690127 
L 177.693168 135.763835 
z
" style="stroke:#000000;"/>
    <path clip-path="url(#p6f6a2b601c)" d="M 181.916184 227.451428 
L 179.407801 221.133114 
L 184.236161 221.217887 
z
" style="stroke:#000000;"/>
    <path clip-path="url(#p6f6a2b601c)" d="M 179.407801 221.133114 
L 181.916184 227.451428 
L 177.079348 227.35486 
z
" style="stroke:#000000;"/>
    <path clip-path="url(#p6f6a2b601c)" d="M 184.236161 133.125023 
L 182.527772 135.690127 
L 184.413415 141.958119 
z
" style="stroke:#000000;"/>
    <path clip-path="url(#p6f6a2b601c)" d="M 182.527772 218.659597 
L 184.236161 221.217887 
L 184.413415 212.384084 
z
" style="stroke:#000000;"/>
    <path clip-path="url(#p6f6a2b601c)" d="M 184.413415 212.384084 
L 177.693168 218.579404 
L 182.527772 218.659597 
z
" style="stroke:#000000;"/>
    <path clip-path="url(#p6f6a2b601c)" d="M 184.236161 133.125023 
L 177.079348 126.990809 
L 181.916184 126.900734 
z
" style="stroke:#000000;"/>
    <path clip-path="url(#p6f6a2b601c)" d="M 177.079348 227.35486 
L 175.496207 224.431745 
L 177.693168 218.579404 
z
" style="stroke:#000000;"/>
    <path clip-path="url(#p6f6a2b601c)" d="M 175.496207 129.920192 
L 177.079348 126.990809 
L 177.693168 135.763835 
z
" style="stroke:#000000;"/>
    <path clip-path="url(#p6f6a2b601c)" d="M 181.916184 126.900734 
L 182.527772 135.690127 
L 184.236161 133.125023 
z
" style="stroke:#000000;"/>
    <path clip-path="url(#p6f6a2b601c)" d="M 182.527772 218.659597 
L 181.916184 227.451428 
L 184.236161 221.217887 
z
" style="stroke:#000000;"/>
    <path clip-path="url(#p6f6a2b601c)" d="M 175.496207 224.431745 
L 182.527772 218.659597 
L 177.693168 218.579404 
z
" style="stroke:#000000;"/>
    <path clip-path="url(#p6f6a2b601c)" d="M 175.765797 124.139092 
L 181.916184 126.900734 
L 177.079348 126.990809 
z
" style="stroke:#000000;"/>
    <path clip-path="url(#p6f6a2b601c)" d="M 174.835695 229.267987 
L 177.079348 227.35486 
L 175.765797 230.211778 
z
" style="stroke:#000000;"/>
    <path clip-path="url(#p6f6a2b601c)" d="M 177.079348 126.990809 
L 174.835695 125.086566 
L 175.765797 124.139092 
z
" style="stroke:#000000;"/>
    <path clip-path="url(#p6f6a2b601c)" d="M 180.338793 129.835413 
L 177.693168 135.763835 
L 182.527772 135.690127 
z
" style="stroke:#000000;"/>
    <path clip-path="url(#p6f6a2b601c)" d="M 177.079348 227.35486 
L 174.835695 229.267987 
L 175.496207 224.431745 
z
" style="stroke:#000000;"/>
    <path clip-path="url(#p6f6a2b601c)" d="M 174.835695 125.086566 
L 177.079348 126.990809 
L 175.496207 129.920192 
z
" style="stroke:#000000;"/>
    <path clip-path="url(#p6f6a2b601c)" d="M 177.693168 135.763835 
L 180.338793 129.835413 
L 175.496207 129.920192 
z
" style="stroke:#000000;"/>
    <path clip-path="url(#p6f6a2b601c)" d="M 177.079348 227.35486 
L 180.607404 230.313811 
L 175.765797 230.211778 
z
" style="stroke:#000000;"/>
    <path clip-path="url(#p6f6a2b601c)" d="M 180.607404 230.313811 
L 177.079348 227.35486 
L 181.916184 227.451428 
z
" style="stroke:#000000;"/>
    <path clip-path="url(#p6f6a2b601c)" d="M 182.527772 218.659597 
L 175.496207 224.431745 
L 180.338793 224.523041 
z
" style="stroke:#000000;"/>
    <path clip-path="url(#p6f6a2b601c)" d="M 181.916184 126.900734 
L 180.338793 129.835413 
L 182.527772 135.690127 
z
" style="stroke:#000000;"/>
    <path clip-path="url(#p6f6a2b601c)" d="M 180.338793 224.523041 
L 181.916184 227.451428 
L 182.527772 218.659597 
z
" style="stroke:#000000;"/>
    <path clip-path="url(#p6f6a2b601c)" d="M 181.916184 126.900734 
L 175.765797 124.139092 
L 180.607404 124.043572 
z
" style="stroke:#000000;"/>
    <path clip-path="url(#p6f6a2b601c)" d="M 180.607404 230.313811 
L 174.835695 229.267987 
L 175.765797 230.211778 
z
" style="stroke:#000000;"/>
    <path clip-path="url(#p6f6a2b601c)" d="M 175.496207 224.431745 
L 174.835695 229.267987 
L 173.856708 227.985695 
z
" style="stroke:#000000;"/>
    <path clip-path="url(#p6f6a2b601c)" d="M 174.835695 125.086566 
L 175.496207 129.920192 
L 173.856708 126.372733 
z
" style="stroke:#000000;"/>
    <path clip-path="url(#p6f6a2b601c)" d="M 179.680676 124.992711 
L 175.765797 124.139092 
L 174.835695 125.086566 
z
" style="stroke:#000000;"/>
    <path clip-path="url(#p6f6a2b601c)" d="M 180.338793 129.835413 
L 173.856708 126.372733 
L 175.496207 129.920192 
z
" style="stroke:#000000;"/>
    <path clip-path="url(#p6f6a2b601c)" d="M 175.765797 124.139092 
L 179.680676 124.992711 
L 180.607404 124.043572 
z
" style="stroke:#000000;"/>
    <path clip-path="url(#p6f6a2b601c)" d="M 179.680676 124.992711 
L 181.916184 126.900734 
L 180.607404 124.043572 
z
" style="stroke:#000000;"/>
    <path clip-path="url(#p6f6a2b601c)" d="M 181.916184 227.451428 
L 179.680676 229.368368 
L 180.607404 230.313811 
z
" style="stroke:#000000;"/>
    <path clip-path="url(#p6f6a2b601c)" d="M 181.916184 126.900734 
L 179.680676 124.992711 
L 180.338793 129.835413 
z
" style="stroke:#000000;"/>
    <path clip-path="url(#p6f6a2b601c)" d="M 179.680676 229.368368 
L 181.916184 227.451428 
L 180.338793 224.523041 
z
" style="stroke:#000000;"/>
    <path clip-path="url(#p6f6a2b601c)" d="M 174.835695 229.267987 
L 180.607404 230.313811 
L 179.680676 229.368368 
z
" style="stroke:#000000;"/>
    <path clip-path="url(#p6f6a2b601c)" d="M 179.680676 229.368368 
L 173.856708 227.985695 
L 174.835695 229.267987 
z
" style="stroke:#000000;"/>
    <path clip-path="url(#p6f6a2b601c)" d="M 178.705237 228.083794 
L 175.496207 224.431745 
L 173.856708 227.985695 
z
" style="stroke:#000000;"/>
    <path clip-path="url(#p6f6a2b601c)" d="M 175.496207 224.431745 
L 178.705237 228.083794 
L 180.338793 224.523041 
z
" style="stroke:#000000;"/>
    <path clip-path="url(#p6f6a2b601c)" d="M 178.705237 126.281175 
L 174.835695 125.086566 
L 173.856708 126.372733 
z
" style="stroke:#000000;"/>
    <path clip-path="url(#p6f6a2b601c)" d="M 174.835695 125.086566 
L 178.705237 126.281175 
L 179.680676 124.992711 
z
" style="stroke:#000000;"/>
    <path clip-path="url(#p6f6a2b601c)" d="M 173.856708 126.372733 
L 180.338793 129.835413 
L 178.705237 126.281175 
z
" style="stroke:#000000;"/>
    <path clip-path="url(#p6f6a2b601c)" d="M 173.856708 227.985695 
L 179.680676 229.368368 
L 178.705237 228.083794 
z
" style="stroke:#000000;"/>
    <path clip-path="url(#p6f6a2b601c)" d="M 180.338793 129.835413 
L 179.680676 124.992711 
L 178.705237 126.281175 
z
" style="stroke:#000000;"/>
    <path clip-path="url(#p6f6a2b601c)" d="M 179.680676 229.368368 
L 180.338793 224.523041 
L 178.705237 228.083794 
z
" style="stroke:#000000;"/>
   </g>
  </g>
 </g>
 <defs>
  <clipPath id="p6f6a2b601c">
   <rect height="271.8" width="279" x="45" y="43.2"/>
  </clipPath>
 </defs>
</svg>
