<?xml version="1.0" encoding="utf-8" standalone="no"?>
<!DOCTYPE svg PUBLIC "-//W3C//DTD SVG 1.1//EN"
  "http://www.w3.org/Graphics/SVG/1.1/DTD/svg11.dtd">
<!-- Created with matplotlib (https://matplotlib.org/) -->
<svg height="360pt" version="1.1" viewBox="0 0 360 360" width="360pt" xmlns="http://www.w3.org/2000/svg" xmlns:xlink="http://www.w3.org/1999/xlink">
 <defs>
  <style type="text/css">
*{stroke-linecap:butt;stroke-linejoin:round;}
  </style>
 </defs>
 <g id="figure_1">
  <g id="patch_1">
   <path d="M 0 360 
L 360 360 
L 360 0 
L 0 0 
z
" style="fill:#ffffff;"/>
  </g>
  <g id="patch_2">
   <path d="M 45 315 
L 324 315 
L 324 43.2 
L 45 43.2 
z
" style="fill:#ffffff;"/>
  </g>
  <g id="axes_1">
   <g id="Poly3DCollection_1">
    <path clip-path="url(#pa561921076)" d="M 190.685683 225.979916 
L 185.082715 227.309602 
L 185.328565 225.95628 
z
" style="stroke:#000000;"/>
    <path clip-path="url(#pa561921076)" d="M 185.328565 128.266837 
L 190.446257 126.894906 
L 190.685683 128.244776 
z
" style="stroke:#000000;"/>
    <path clip-path="url(#pa561921076)" d="M 190.685683 128.244776 
L 184.916194 131.506427 
L 185.328565 128.266837 
z
" style="stroke:#000000;"/>
    <path clip-path="url(#pa561921076)" d="M 190.446257 126.894906 
L 185.328565 128.266837 
L 185.082715 126.917625 
z
" style="stroke:#000000;"/>
    <path clip-path="url(#pa561921076)" d="M 185.328565 225.95628 
L 190.284088 222.745755 
L 190.685683 225.979916 
z
" style="stroke:#000000;"/>
    <path clip-path="url(#pa561921076)" d="M 184.916194 131.506427 
L 185.082715 126.917625 
L 185.328565 128.266837 
z
" style="stroke:#000000;"/>
    <path clip-path="url(#pa561921076)" d="M 185.082715 227.309602 
L 184.916194 222.723585 
L 185.328565 225.95628 
z
" style="stroke:#000000;"/>
    <path clip-path="url(#pa561921076)" d="M 185.082715 227.309602 
L 190.685683 225.979916 
L 190.446257 227.333901 
z
" style="stroke:#000000;"/>
    <path clip-path="url(#pa561921076)" d="M 190.284088 222.745755 
L 185.328565 225.95628 
L 184.916194 222.723585 
z
" style="stroke:#000000;"/>
    <path clip-path="url(#pa561921076)" d="M 190.284088 222.745755 
L 190.446257 227.333901 
L 190.685683 225.979916 
z
" style="stroke:#000000;"/>
    <path clip-path="url(#pa561921076)" d="M 190.446257 126.894906 
L 190.284088 131.48584 
L 190.685683 128.244776 
z
" style="stroke:#000000;"/>
    <path clip-path="url(#pa561921076)" d="M 184.916194 131.506427 
L 190.685683 128.244776 
L 190.284088 131.48584 
z
" style="stroke:#000000;"/>
    <path clip-path="url(#pa561921076)" d="M 190.446257 227.333901 
L 184.848078 228.336127 
L 185.082715 227.309602 
z
" style="stroke:#000000;"/>
    <path clip-path="url(#pa561921076)" d="M 185.082715 126.917625 
L 190.217752 125.871799 
L 190.446257 126.894906 
z
" style="stroke:#000000;"/>
    <path clip-path="url(#pa561921076)" d="M 190.217752 125.871799 
L 185.082715 126.917625 
L 184.848078 125.895024 
z
" style="stroke:#000000;"/>
    <path clip-path="url(#pa561921076)" d="M 184.848078 228.336127 
L 190.446257 227.333901 
L 190.217752 228.360935 
z
" style="stroke:#000000;"/>
    <path clip-path="url(#pa561921076)" d="M 184.51493 128.502159 
L 185.082715 126.917625 
L 184.916194 131.506427 
z
" style="stroke:#000000;"/>
    <path clip-path="url(#pa561921076)" d="M 185.082715 227.309602 
L 184.51493 225.734563 
L 184.916194 222.723585 
z
" style="stroke:#000000;"/>
    <path clip-path="url(#pa561921076)" d="M 185.082715 126.917625 
L 184.51493 128.502159 
L 184.848078 125.895024 
z
" style="stroke:#000000;"/>
    <path clip-path="url(#pa561921076)" d="M 184.51493 225.734563 
L 185.082715 227.309602 
L 184.848078 228.336127 
z
" style="stroke:#000000;"/>
    <path clip-path="url(#pa561921076)" d="M 189.893309 225.75819 
L 190.446257 227.333901 
L 190.284088 222.745755 
z
" style="stroke:#000000;"/>
    <path clip-path="url(#pa561921076)" d="M 190.446257 126.894906 
L 189.893309 128.48012 
L 190.284088 131.48584 
z
" style="stroke:#000000;"/>
    <path clip-path="url(#pa561921076)" d="M 190.446257 227.333901 
L 189.893309 225.75819 
L 190.217752 228.360935 
z
" style="stroke:#000000;"/>
    <path clip-path="url(#pa561921076)" d="M 189.893309 128.48012 
L 190.446257 126.894906 
L 190.217752 125.871799 
z
" style="stroke:#000000;"/>
    <path clip-path="url(#pa561921076)" d="M 184.51493 128.502159 
L 190.217752 125.871799 
L 184.848078 125.895024 
z
" style="stroke:#000000;"/>
    <path clip-path="url(#pa561921076)" d="M 184.358533 217.294386 
L 190.284088 222.745755 
L 184.916194 222.723585 
z
" style="stroke:#000000;"/>
    <path clip-path="url(#pa561921076)" d="M 189.893309 225.75819 
L 184.848078 228.336127 
L 190.217752 228.360935 
z
" style="stroke:#000000;"/>
    <path clip-path="url(#pa561921076)" d="M 189.740998 136.926862 
L 184.916194 131.506427 
L 190.284088 131.48584 
z
" style="stroke:#000000;"/>
    <path clip-path="url(#pa561921076)" d="M 184.51493 128.502159 
L 184.916194 131.506427 
L 184.358533 136.94495 
z
" style="stroke:#000000;"/>
    <path clip-path="url(#pa561921076)" d="M 184.916194 222.723585 
L 184.51493 225.734563 
L 184.358533 217.294386 
z
" style="stroke:#000000;"/>
    <path clip-path="url(#pa561921076)" d="M 184.848078 228.336127 
L 189.893309 225.75819 
L 184.51493 225.734563 
z
" style="stroke:#000000;"/>
    <path clip-path="url(#pa561921076)" d="M 190.217752 125.871799 
L 184.51493 128.502159 
L 189.893309 128.48012 
z
" style="stroke:#000000;"/>
    <path clip-path="url(#pa561921076)" d="M 184.916194 131.506427 
L 189.740998 136.926862 
L 184.358533 136.94495 
z
" style="stroke:#000000;"/>
    <path clip-path="url(#pa561921076)" d="M 189.893309 225.75819 
L 190.284088 222.745755 
L 189.740998 217.314065 
z
" style="stroke:#000000;"/>
    <path clip-path="url(#pa561921076)" d="M 190.284088 131.48584 
L 189.893309 128.48012 
L 189.740998 136.926862 
z
" style="stroke:#000000;"/>
    <path clip-path="url(#pa561921076)" d="M 190.284088 222.745755 
L 184.358533 217.294386 
L 189.740998 217.314065 
z
" style="stroke:#000000;"/>
    <path clip-path="url(#pa561921076)" d="M 183.919207 134.291772 
L 189.893309 128.48012 
L 184.51493 128.502159 
z
" style="stroke:#000000;"/>
    <path clip-path="url(#pa561921076)" d="M 184.51493 128.502159 
L 184.358533 136.94495 
L 183.919207 134.291772 
z
" style="stroke:#000000;"/>
    <path clip-path="url(#pa561921076)" d="M 184.358533 217.294386 
L 184.51493 225.734563 
L 183.919207 219.954911 
z
" style="stroke:#000000;"/>
    <path clip-path="url(#pa561921076)" d="M 189.313151 219.975885 
L 184.51493 225.734563 
L 189.893309 225.75819 
z
" style="stroke:#000000;"/>
    <path clip-path="url(#pa561921076)" d="M 189.893309 225.75819 
L 189.740998 217.314065 
L 189.313151 219.975885 
z
" style="stroke:#000000;"/>
    <path clip-path="url(#pa561921076)" d="M 189.740998 136.926862 
L 189.893309 128.48012 
L 189.313151 134.272395 
z
" style="stroke:#000000;"/>
    <path clip-path="url(#pa561921076)" d="M 183.873417 211.380153 
L 189.740998 217.314065 
L 184.358533 217.294386 
z
" style="stroke:#000000;"/>
    <path clip-path="url(#pa561921076)" d="M 189.268557 142.851955 
L 184.358533 136.94495 
L 189.740998 136.926862 
z
" style="stroke:#000000;"/>
    <path clip-path="url(#pa561921076)" d="M 184.51493 225.734563 
L 189.313151 219.975885 
L 183.919207 219.954911 
z
" style="stroke:#000000;"/>
    <path clip-path="url(#pa561921076)" d="M 189.893309 128.48012 
L 183.919207 134.291772 
L 189.313151 134.272395 
z
" style="stroke:#000000;"/>
    <path clip-path="url(#pa561921076)" d="M 183.919207 134.291772 
L 184.358533 136.94495 
L 183.873417 142.867295 
z
" style="stroke:#000000;"/>
    <path clip-path="url(#pa561921076)" d="M 184.358533 217.294386 
L 183.919207 219.954911 
L 183.873417 211.380153 
z
" style="stroke:#000000;"/>
    <path clip-path="url(#pa561921076)" d="M 184.358533 136.94495 
L 189.268557 142.851955 
L 183.873417 142.867295 
z
" style="stroke:#000000;"/>
    <path clip-path="url(#pa561921076)" d="M 189.740998 217.314065 
L 183.873417 211.380153 
L 189.268557 211.397092 
z
" style="stroke:#000000;"/>
    <path clip-path="url(#pa561921076)" d="M 189.313151 219.975885 
L 189.740998 217.314065 
L 189.268557 211.397092 
z
" style="stroke:#000000;"/>
    <path clip-path="url(#pa561921076)" d="M 189.740998 136.926862 
L 189.313151 134.272395 
L 189.268557 142.851955 
z
" style="stroke:#000000;"/>
    <path clip-path="url(#pa561921076)" d="M 183.919207 134.291772 
L 183.873417 142.867295 
L 183.400804 140.599798 
z
" style="stroke:#000000;"/>
    <path clip-path="url(#pa561921076)" d="M 183.873417 211.380153 
L 183.919207 219.954911 
L 183.400804 213.655553 
z
" style="stroke:#000000;"/>
    <path clip-path="url(#pa561921076)" d="M 183.400804 140.599798 
L 189.313151 134.272395 
L 183.919207 134.291772 
z
" style="stroke:#000000;"/>
    <path clip-path="url(#pa561921076)" d="M 183.467265 205.049575 
L 189.268557 211.397092 
L 183.873417 211.380153 
z
" style="stroke:#000000;"/>
    <path clip-path="url(#pa561921076)" d="M 188.808291 213.673606 
L 183.919207 219.954911 
L 189.313151 219.975885 
z
" style="stroke:#000000;"/>
    <path clip-path="url(#pa561921076)" d="M 188.873015 149.192285 
L 183.873417 142.867295 
L 189.268557 142.851955 
z
" style="stroke:#000000;"/>
    <path clip-path="url(#pa561921076)" d="M 189.313151 219.975885 
L 189.268557 211.397092 
L 188.808291 213.673606 
z
" style="stroke:#000000;"/>
    <path clip-path="url(#pa561921076)" d="M 189.268557 142.851955 
L 189.313151 134.272395 
L 188.808291 140.58335 
z
" style="stroke:#000000;"/>
    <path clip-path="url(#pa561921076)" d="M 183.400804 140.599798 
L 183.873417 142.867295 
L 183.467265 149.204665 
z
" style="stroke:#000000;"/>
    <path clip-path="url(#pa561921076)" d="M 183.873417 211.380153 
L 183.400804 213.655553 
L 183.467265 205.049575 
z
" style="stroke:#000000;"/>
    <path clip-path="url(#pa561921076)" d="M 183.873417 142.867295 
L 188.873015 149.192285 
L 183.467265 149.204665 
z
" style="stroke:#000000;"/>
    <path clip-path="url(#pa561921076)" d="M 183.919207 219.954911 
L 188.808291 213.673606 
L 183.400804 213.655553 
z
" style="stroke:#000000;"/>
    <path clip-path="url(#pa561921076)" d="M 189.268557 211.397092 
L 183.467265 205.049575 
L 188.873015 205.063559 
z
" style="stroke:#000000;"/>
    <path clip-path="url(#pa561921076)" d="M 189.313151 134.272395 
L 183.400804 140.599798 
L 188.808291 140.58335 
z
" style="stroke:#000000;"/>
    <path clip-path="url(#pa561921076)" d="M 188.808291 213.673606 
L 189.268557 211.397092 
L 188.873015 205.063559 
z
" style="stroke:#000000;"/>
    <path clip-path="url(#pa561921076)" d="M 189.268557 142.851955 
L 188.808291 140.58335 
L 188.873015 149.192285 
z
" style="stroke:#000000;"/>
    <path clip-path="url(#pa561921076)" d="M 183.145509 198.377386 
L 188.873015 205.063559 
L 183.467265 205.049575 
z
" style="stroke:#000000;"/>
    <path clip-path="url(#pa561921076)" d="M 188.559664 155.872991 
L 183.467265 149.204665 
L 188.873015 149.192285 
z
" style="stroke:#000000;"/>
    <path clip-path="url(#pa561921076)" d="M 183.467265 149.204665 
L 182.966651 147.35348 
L 183.400804 140.599798 
z
" style="stroke:#000000;"/>
    <path clip-path="url(#pa561921076)" d="M 182.966651 206.90913 
L 183.467265 205.049575 
L 183.400804 213.655553 
z
" style="stroke:#000000;"/>
    <path clip-path="url(#pa561921076)" d="M 182.966651 147.35348 
L 188.808291 140.58335 
L 183.400804 140.599798 
z
" style="stroke:#000000;"/>
    <path clip-path="url(#pa561921076)" d="M 183.467265 149.204665 
L 188.559664 155.872991 
L 183.145509 155.882233 
z
" style="stroke:#000000;"/>
    <path clip-path="url(#pa561921076)" d="M 182.966651 147.35348 
L 183.467265 149.204665 
L 183.145509 155.882233 
z
" style="stroke:#000000;"/>
    <path clip-path="url(#pa561921076)" d="M 183.467265 205.049575 
L 182.966651 206.90913 
L 183.145509 198.377386 
z
" style="stroke:#000000;"/>
    <path clip-path="url(#pa561921076)" d="M 188.385479 206.924029 
L 183.400804 213.655553 
L 188.808291 213.673606 
z
" style="stroke:#000000;"/>
    <path clip-path="url(#pa561921076)" d="M 188.873015 205.063559 
L 183.145509 198.377386 
L 188.559664 198.388238 
z
" style="stroke:#000000;"/>
    <path clip-path="url(#pa561921076)" d="M 188.873015 205.063559 
L 188.385479 206.924029 
L 188.808291 213.673606 
z
" style="stroke:#000000;"/>
    <path clip-path="url(#pa561921076)" d="M 188.385479 147.340194 
L 188.873015 149.192285 
L 188.808291 140.58335 
z
" style="stroke:#000000;"/>
    <path clip-path="url(#pa561921076)" d="M 188.385479 206.924029 
L 188.873015 205.063559 
L 188.559664 198.388238 
z
" style="stroke:#000000;"/>
    <path clip-path="url(#pa561921076)" d="M 188.873015 149.192285 
L 188.385479 147.340194 
L 188.559664 155.872991 
z
" style="stroke:#000000;"/>
    <path clip-path="url(#pa561921076)" d="M 183.400804 213.655553 
L 188.385479 206.924029 
L 182.966651 206.90913 
z
" style="stroke:#000000;"/>
    <path clip-path="url(#pa561921076)" d="M 188.808291 140.58335 
L 182.966651 147.35348 
L 188.385479 147.340194 
z
" style="stroke:#000000;"/>
    <path clip-path="url(#pa561921076)" d="M 182.912497 191.443815 
L 188.559664 198.388238 
L 183.145509 198.377386 
z
" style="stroke:#000000;"/>
    <path clip-path="url(#pa561921076)" d="M 188.33274 162.813732 
L 183.145509 155.882233 
L 188.559664 155.872991 
z
" style="stroke:#000000;"/>
    <path clip-path="url(#pa561921076)" d="M 183.145509 155.882233 
L 188.33274 162.813732 
L 182.912497 162.8197 
z
" style="stroke:#000000;"/>
    <path clip-path="url(#pa561921076)" d="M 188.559664 198.388238 
L 182.912497 191.443815 
L 188.33274 191.451397 
z
" style="stroke:#000000;"/>
    <path clip-path="url(#pa561921076)" d="M 183.145509 155.882233 
L 182.622636 154.472363 
L 182.966651 147.35348 
z
" style="stroke:#000000;"/>
    <path clip-path="url(#pa561921076)" d="M 182.622636 199.795999 
L 183.145509 198.377386 
L 182.966651 206.90913 
z
" style="stroke:#000000;"/>
    <path clip-path="url(#pa561921076)" d="M 182.622636 154.472363 
L 183.145509 155.882233 
L 182.912497 162.8197 
z
" style="stroke:#000000;"/>
    <path clip-path="url(#pa561921076)" d="M 183.145509 198.377386 
L 182.622636 199.795999 
L 182.912497 191.443815 
z
" style="stroke:#000000;"/>
    <path clip-path="url(#pa561921076)" d="M 182.771405 184.333372 
L 188.33274 191.451397 
L 182.912497 191.443815 
z
" style="stroke:#000000;"/>
    <path clip-path="url(#pa561921076)" d="M 182.622636 154.472363 
L 188.385479 147.340194 
L 182.966651 147.35348 
z
" style="stroke:#000000;"/>
    <path clip-path="url(#pa561921076)" d="M 188.559664 198.388238 
L 188.05045 199.807552 
L 188.385479 206.924029 
z
" style="stroke:#000000;"/>
    <path clip-path="url(#pa561921076)" d="M 188.05045 154.462429 
L 188.559664 155.872991 
L 188.385479 147.340194 
z
" style="stroke:#000000;"/>
    <path clip-path="url(#pa561921076)" d="M 188.195333 169.929899 
L 182.912497 162.8197 
L 188.33274 162.813732 
z
" style="stroke:#000000;"/>
    <path clip-path="url(#pa561921076)" d="M 188.05045 199.807552 
L 188.559664 198.388238 
L 188.33274 191.451397 
z
" style="stroke:#000000;"/>
    <path clip-path="url(#pa561921076)" d="M 188.559664 155.872991 
L 188.05045 154.462429 
L 188.33274 162.813732 
z
" style="stroke:#000000;"/>
    <path clip-path="url(#pa561921076)" d="M 188.05045 199.807552 
L 182.966651 206.90913 
L 188.385479 206.924029 
z
" style="stroke:#000000;"/>
    <path clip-path="url(#pa561921076)" d="M 182.912497 162.8197 
L 188.195333 169.929899 
L 182.771405 169.932502 
z
" style="stroke:#000000;"/>
    <path clip-path="url(#pa561921076)" d="M 188.33274 191.451397 
L 182.771405 184.333372 
L 188.195333 184.337591 
z
" style="stroke:#000000;"/>
    <path clip-path="url(#pa561921076)" d="M 182.724156 177.133332 
L 188.195333 184.337591 
L 182.771405 184.333372 
z
" style="stroke:#000000;"/>
    <path clip-path="url(#pa561921076)" d="M 182.771405 169.932502 
L 188.149318 177.134141 
L 182.724156 177.133332 
z
" style="stroke:#000000;"/>
    <path clip-path="url(#pa561921076)" d="M 182.966651 206.90913 
L 188.05045 199.807552 
L 182.622636 199.795999 
z
" style="stroke:#000000;"/>
    <path clip-path="url(#pa561921076)" d="M 188.149318 177.134141 
L 182.771405 169.932502 
L 188.195333 169.929899 
z
" style="stroke:#000000;"/>
    <path clip-path="url(#pa561921076)" d="M 182.373457 161.870412 
L 182.912497 162.8197 
L 182.771405 169.932502 
z
" style="stroke:#000000;"/>
    <path clip-path="url(#pa561921076)" d="M 182.912497 191.443815 
L 182.373457 192.402116 
L 182.771405 184.333372 
z
" style="stroke:#000000;"/>
    <path clip-path="url(#pa561921076)" d="M 188.195333 184.337591 
L 182.724156 177.133332 
L 188.149318 177.134141 
z
" style="stroke:#000000;"/>
    <path clip-path="url(#pa561921076)" d="M 188.385479 147.340194 
L 182.622636 154.472363 
L 188.05045 154.462429 
z
" style="stroke:#000000;"/>
    <path clip-path="url(#pa561921076)" d="M 182.912497 162.8197 
L 182.373457 161.870412 
L 182.622636 154.472363 
z
" style="stroke:#000000;"/>
    <path clip-path="url(#pa561921076)" d="M 182.373457 192.402116 
L 182.912497 191.443815 
L 182.622636 199.795999 
z
" style="stroke:#000000;"/>
    <path clip-path="url(#pa561921076)" d="M 187.807779 192.410173 
L 188.33274 191.451397 
L 188.195333 184.337591 
z
" style="stroke:#000000;"/>
    <path clip-path="url(#pa561921076)" d="M 188.33274 162.813732 
L 187.807779 161.863978 
L 188.195333 169.929899 
z
" style="stroke:#000000;"/>
    <path clip-path="url(#pa561921076)" d="M 182.771405 184.333372 
L 182.222554 184.81816 
L 182.724156 177.133332 
z
" style="stroke:#000000;"/>
    <path clip-path="url(#pa561921076)" d="M 182.222554 169.456892 
L 182.771405 169.932502 
L 182.724156 177.133332 
z
" style="stroke:#000000;"/>
    <path clip-path="url(#pa561921076)" d="M 188.33274 191.451397 
L 187.807779 192.410173 
L 188.05045 199.807552 
z
" style="stroke:#000000;"/>
    <path clip-path="url(#pa561921076)" d="M 187.807779 161.863978 
L 188.33274 162.813732 
L 188.05045 154.462429 
z
" style="stroke:#000000;"/>
    <path clip-path="url(#pa561921076)" d="M 182.373457 161.870412 
L 188.05045 154.462429 
L 182.622636 154.472363 
z
" style="stroke:#000000;"/>
    <path clip-path="url(#pa561921076)" d="M 188.195333 169.929899 
L 187.660817 169.454056 
L 188.149318 177.134141 
z
" style="stroke:#000000;"/>
    <path clip-path="url(#pa561921076)" d="M 187.660817 184.82262 
L 188.195333 184.337591 
L 188.149318 177.134141 
z
" style="stroke:#000000;"/>
    <path clip-path="url(#pa561921076)" d="M 187.807779 192.410173 
L 182.622636 199.795999 
L 188.05045 199.807552 
z
" style="stroke:#000000;"/>
    <path clip-path="url(#pa561921076)" d="M 182.771405 169.932502 
L 182.222554 169.456892 
L 182.373457 161.870412 
z
" style="stroke:#000000;"/>
    <path clip-path="url(#pa561921076)" d="M 182.222554 184.81816 
L 182.771405 184.333372 
L 182.373457 192.402116 
z
" style="stroke:#000000;"/>
    <path clip-path="url(#pa561921076)" d="M 182.622636 199.795999 
L 187.807779 192.410173 
L 182.373457 192.402116 
z
" style="stroke:#000000;"/>
    <path clip-path="url(#pa561921076)" d="M 188.05045 154.462429 
L 182.373457 161.870412 
L 187.807779 161.863978 
z
" style="stroke:#000000;"/>
    <path clip-path="url(#pa561921076)" d="M 182.724156 177.133332 
L 182.17202 177.137948 
L 182.222554 169.456892 
z
" style="stroke:#000000;"/>
    <path clip-path="url(#pa561921076)" d="M 182.17202 177.137948 
L 182.724156 177.133332 
L 182.222554 184.81816 
z
" style="stroke:#000000;"/>
    <path clip-path="url(#pa561921076)" d="M 188.195333 184.337591 
L 187.660817 184.82262 
L 187.807779 192.410173 
z
" style="stroke:#000000;"/>
    <path clip-path="url(#pa561921076)" d="M 187.660817 169.454056 
L 188.195333 169.929899 
L 187.807779 161.863978 
z
" style="stroke:#000000;"/>
    <path clip-path="url(#pa561921076)" d="M 182.222554 169.456892 
L 187.807779 161.863978 
L 182.373457 161.870412 
z
" style="stroke:#000000;"/>
    <path clip-path="url(#pa561921076)" d="M 182.815889 130.242438 
L 186.890106 122.534211 
L 188.238655 130.221038 
z
" style="stroke:#000000;"/>
    <path clip-path="url(#pa561921076)" d="M 186.890106 152.053535 
L 182.815889 130.242438 
L 188.238655 130.221038 
z
" style="stroke:#000000;"/>
    <path clip-path="url(#pa561921076)" d="M 188.149318 177.134141 
L 187.611603 177.138761 
L 187.660817 184.82262 
z
" style="stroke:#000000;"/>
    <path clip-path="url(#pa561921076)" d="M 187.611603 177.138761 
L 188.149318 177.134141 
L 187.660817 169.454056 
z
" style="stroke:#000000;"/>
    <path clip-path="url(#pa561921076)" d="M 187.660817 184.82262 
L 182.373457 192.402116 
L 187.807779 192.410173 
z
" style="stroke:#000000;"/>
    <path clip-path="url(#pa561921076)" d="M 182.373457 192.402116 
L 187.660817 184.82262 
L 182.222554 184.81816 
z
" style="stroke:#000000;"/>
    <path clip-path="url(#pa561921076)" d="M 187.807779 161.863978 
L 182.222554 169.456892 
L 187.660817 169.454056 
z
" style="stroke:#000000;"/>
    <path clip-path="url(#pa561921076)" d="M 182.356397 131.058549 
L 181.431175 122.55942 
L 182.815889 130.242438 
z
" style="stroke:#000000;"/>
    <path clip-path="url(#pa561921076)" d="M 182.815889 130.242438 
L 181.431175 144.688361 
L 182.356397 131.058549 
z
" style="stroke:#000000;"/>
    <path clip-path="url(#pa561921076)" d="M 182.17202 177.137948 
L 187.660817 169.454056 
L 182.222554 169.456892 
z
" style="stroke:#000000;"/>
    <path clip-path="url(#pa561921076)" d="M 182.222554 184.81816 
L 187.611603 177.138761 
L 182.17202 177.137948 
z
" style="stroke:#000000;"/>
    <path clip-path="url(#pa561921076)" d="M 187.611603 177.138761 
L 182.222554 184.81816 
L 187.660817 184.82262 
z
" style="stroke:#000000;"/>
    <path clip-path="url(#pa561921076)" d="M 187.660817 169.454056 
L 182.17202 177.137948 
L 187.611603 177.138761 
z
" style="stroke:#000000;"/>
    <path clip-path="url(#pa561921076)" d="M 186.890106 144.673704 
L 188.238655 130.221038 
L 187.791165 131.037488 
z
" style="stroke:#000000;"/>
    <path clip-path="url(#pa561921076)" d="M 186.890106 122.534211 
L 187.791165 131.037488 
L 188.238655 130.221038 
z
" style="stroke:#000000;"/>
    <path clip-path="url(#pa561921076)" d="M 187.791165 131.037488 
L 181.431175 126.247577 
L 182.356397 131.058549 
z
" style="stroke:#000000;"/>
    <path clip-path="url(#pa561921076)" d="M 181.431175 144.688361 
L 187.791165 131.037488 
L 182.356397 131.058549 
z
" style="stroke:#000000;"/>
    <path clip-path="url(#pa561921076)" d="M 181.431175 144.688361 
L 182.815889 130.242438 
L 181.431175 152.064675 
z
" style="stroke:#000000;"/>
    <path clip-path="url(#pa561921076)" d="M 186.890106 122.534211 
L 182.815889 130.242438 
L 181.431175 122.55942 
z
" style="stroke:#000000;"/>
    <path clip-path="url(#pa561921076)" d="M 182.815889 130.242438 
L 186.890106 152.053535 
L 181.431175 152.064675 
z
" style="stroke:#000000;"/>
    <path clip-path="url(#pa561921076)" d="M 188.238655 130.221038 
L 186.890106 144.673704 
L 186.890106 152.053535 
z
" style="stroke:#000000;"/>
    <path clip-path="url(#pa561921076)" d="M 181.431175 122.55942 
L 182.356397 131.058549 
L 181.431175 126.247577 
z
" style="stroke:#000000;"/>
    <path clip-path="url(#pa561921076)" d="M 181.431175 126.247577 
L 187.791165 131.037488 
L 186.890106 126.224127 
z
" style="stroke:#000000;"/>
    <path clip-path="url(#pa561921076)" d="M 187.791165 131.037488 
L 181.431175 144.688361 
L 186.890106 144.673704 
z
" style="stroke:#000000;"/>
    <path clip-path="url(#pa561921076)" d="M 187.791165 131.037488 
L 186.890106 122.534211 
L 186.890106 126.224127 
z
" style="stroke:#000000;"/>
    <path clip-path="url(#pa561921076)" d="M 181.431175 122.55942 
L 181.431175 126.247577 
L 180.497541 130.655172 
z
" style="stroke:#000000;"/>
    <path clip-path="url(#pa561921076)" d="M 186.890106 126.224127 
L 180.497541 130.655172 
L 181.431175 126.247577 
z
" style="stroke:#000000;"/>
    <path clip-path="url(#pa561921076)" d="M 180.497541 130.655172 
L 186.890106 144.673704 
L 181.431175 144.688361 
z
" style="stroke:#000000;"/>
    <path clip-path="url(#pa561921076)" d="M 186.890106 122.534211 
L 185.980852 130.633726 
L 186.890106 126.224127 
z
" style="stroke:#000000;"/>
    <path clip-path="url(#pa561921076)" d="M 181.431175 144.688361 
L 181.431175 152.064675 
L 180.027533 129.624838 
z
" style="stroke:#000000;"/>
    <path clip-path="url(#pa561921076)" d="M 181.431175 122.55942 
L 185.523117 129.602849 
L 186.890106 122.534211 
z
" style="stroke:#000000;"/>
    <path clip-path="url(#pa561921076)" d="M 185.523117 129.602849 
L 181.431175 152.064675 
L 186.890106 152.053535 
z
" style="stroke:#000000;"/>
    <path clip-path="url(#pa561921076)" d="M 186.890106 144.673704 
L 185.523117 129.602849 
L 186.890106 152.053535 
z
" style="stroke:#000000;"/>
    <path clip-path="url(#pa561921076)" d="M 180.497541 130.655172 
L 186.890106 126.224127 
L 185.980852 130.633726 
z
" style="stroke:#000000;"/>
    <path clip-path="url(#pa561921076)" d="M 186.890106 144.673704 
L 180.497541 130.655172 
L 185.980852 130.633726 
z
" style="stroke:#000000;"/>
    <path clip-path="url(#pa561921076)" d="M 181.431175 122.55942 
L 180.497541 130.655172 
L 180.027533 129.624838 
z
" style="stroke:#000000;"/>
    <path clip-path="url(#pa561921076)" d="M 181.431175 144.688361 
L 180.027533 129.624838 
L 180.497541 130.655172 
z
" style="stroke:#000000;"/>
    <path clip-path="url(#pa561921076)" d="M 180.633649 169.410527 
L 186.163364 177.151206 
L 180.684946 177.150381 
z
" style="stroke:#000000;"/>
    <path clip-path="url(#pa561921076)" d="M 180.684946 177.150381 
L 186.113407 184.895623 
L 180.633649 184.891092 
z
" style="stroke:#000000;"/>
    <path clip-path="url(#pa561921076)" d="M 186.113407 184.895623 
L 180.684946 177.150381 
L 186.163364 177.151206 
z
" style="stroke:#000000;"/>
    <path clip-path="url(#pa561921076)" d="M 186.163364 177.151206 
L 180.633649 169.410527 
L 186.113407 169.407647 
z
" style="stroke:#000000;"/>
    <path clip-path="url(#pa561921076)" d="M 185.523117 129.602849 
L 186.890106 144.673704 
L 185.980852 130.633726 
z
" style="stroke:#000000;"/>
    <path clip-path="url(#pa561921076)" d="M 185.980852 130.633726 
L 186.890106 122.534211 
L 185.523117 129.602849 
z
" style="stroke:#000000;"/>
    <path clip-path="url(#pa561921076)" d="M 180.480166 161.744868 
L 186.113407 169.407647 
L 180.633649 169.410527 
z
" style="stroke:#000000;"/>
    <path clip-path="url(#pa561921076)" d="M 185.963931 192.567525 
L 180.633649 184.891092 
L 186.113407 184.895623 
z
" style="stroke:#000000;"/>
    <path clip-path="url(#pa561921076)" d="M 180.633649 184.891092 
L 185.963931 192.567525 
L 180.480166 192.559318 
z
" style="stroke:#000000;"/>
    <path clip-path="url(#pa561921076)" d="M 180.684946 177.150381 
L 180.121706 177.15509 
L 180.633649 169.410527 
z
" style="stroke:#000000;"/>
    <path clip-path="url(#pa561921076)" d="M 180.121706 177.15509 
L 180.684946 177.150381 
L 180.633649 184.891092 
z
" style="stroke:#000000;"/>
    <path clip-path="url(#pa561921076)" d="M 186.113407 169.407647 
L 180.480166 161.744868 
L 185.963931 161.738314 
z
" style="stroke:#000000;"/>
    <path clip-path="url(#pa561921076)" d="M 185.523117 129.602849 
L 181.431175 122.55942 
L 180.027533 129.624838 
z
" style="stroke:#000000;"/>
    <path clip-path="url(#pa561921076)" d="M 181.431175 152.064675 
L 185.523117 129.602849 
L 180.027533 129.624838 
z
" style="stroke:#000000;"/>
    <path clip-path="url(#pa561921076)" d="M 180.633649 169.410527 
L 180.073222 169.859845 
L 180.480166 161.744868 
z
" style="stroke:#000000;"/>
    <path clip-path="url(#pa561921076)" d="M 180.073222 184.451145 
L 180.633649 184.891092 
L 180.480166 192.559318 
z
" style="stroke:#000000;"/>
    <path clip-path="url(#pa561921076)" d="M 186.163364 177.151206 
L 185.614831 177.155919 
L 186.113407 184.895623 
z
" style="stroke:#000000;"/>
    <path clip-path="url(#pa561921076)" d="M 185.614831 177.155919 
L 186.163364 177.151206 
L 186.113407 169.407647 
z
" style="stroke:#000000;"/>
    <path clip-path="url(#pa561921076)" d="M 180.225727 154.226389 
L 185.963931 161.738314 
L 180.480166 161.744868 
z
" style="stroke:#000000;"/>
    <path clip-path="url(#pa561921076)" d="M 185.716136 200.093877 
L 180.480166 192.559318 
L 185.963931 192.567525 
z
" style="stroke:#000000;"/>
    <path clip-path="url(#pa561921076)" d="M 186.113407 184.895623 
L 185.567612 184.455477 
L 185.963931 192.567525 
z
" style="stroke:#000000;"/>
    <path clip-path="url(#pa561921076)" d="M 185.567612 169.857173 
L 186.113407 169.407647 
L 185.963931 161.738314 
z
" style="stroke:#000000;"/>
    <path clip-path="url(#pa561921076)" d="M 180.480166 192.559318 
L 185.716136 200.093877 
L 180.225727 200.082052 
z
" style="stroke:#000000;"/>
    <path clip-path="url(#pa561921076)" d="M 180.633649 184.891092 
L 180.073222 184.451145 
L 180.121706 177.15509 
z
" style="stroke:#000000;"/>
    <path clip-path="url(#pa561921076)" d="M 180.073222 169.859845 
L 180.633649 169.410527 
L 180.121706 177.15509 
z
" style="stroke:#000000;"/>
    <path clip-path="url(#pa561921076)" d="M 185.963931 161.738314 
L 180.225727 154.226389 
L 185.716136 154.21622 
z
" style="stroke:#000000;"/>
    <path clip-path="url(#pa561921076)" d="M 180.480166 161.744868 
L 179.928171 162.63518 
L 180.225727 154.226389 
z
" style="stroke:#000000;"/>
    <path clip-path="url(#pa561921076)" d="M 179.928171 191.678236 
L 180.480166 192.559318 
L 180.225727 200.082052 
z
" style="stroke:#000000;"/>
    <path clip-path="url(#pa561921076)" d="M 186.113407 169.407647 
L 185.567612 169.857173 
L 185.614831 177.155919 
z
" style="stroke:#000000;"/>
    <path clip-path="url(#pa561921076)" d="M 185.567612 184.455477 
L 186.113407 184.895623 
L 185.614831 177.155919 
z
" style="stroke:#000000;"/>
    <path clip-path="url(#pa561921076)" d="M 179.928171 162.63518 
L 180.480166 161.744868 
L 180.073222 169.859845 
z
" style="stroke:#000000;"/>
    <path clip-path="url(#pa561921076)" d="M 180.480166 192.559318 
L 179.928171 191.678236 
L 180.073222 184.451145 
z
" style="stroke:#000000;"/>
    <path clip-path="url(#pa561921076)" d="M 185.963931 192.567525 
L 185.426349 191.686042 
L 185.716136 200.093877 
z
" style="stroke:#000000;"/>
    <path clip-path="url(#pa561921076)" d="M 185.426349 162.629036 
L 185.963931 161.738314 
L 185.716136 154.21622 
z
" style="stroke:#000000;"/>
    <path clip-path="url(#pa561921076)" d="M 179.872391 146.927348 
L 185.716136 154.21622 
L 180.225727 154.226389 
z
" style="stroke:#000000;"/>
    <path clip-path="url(#pa561921076)" d="M 180.073222 184.451145 
L 185.614831 177.155919 
L 180.121706 177.15509 
z
" style="stroke:#000000;"/>
    <path clip-path="url(#pa561921076)" d="M 185.426349 191.686042 
L 185.963931 192.567525 
L 185.567612 184.455477 
z
" style="stroke:#000000;"/>
    <path clip-path="url(#pa561921076)" d="M 185.963931 161.738314 
L 185.426349 162.629036 
L 185.567612 169.857173 
z
" style="stroke:#000000;"/>
    <path clip-path="url(#pa561921076)" d="M 180.121706 177.15509 
L 185.567612 169.857173 
L 180.073222 169.859845 
z
" style="stroke:#000000;"/>
    <path clip-path="url(#pa561921076)" d="M 185.372025 207.402356 
L 180.225727 200.082052 
L 185.716136 200.093877 
z
" style="stroke:#000000;"/>
    <path clip-path="url(#pa561921076)" d="M 185.567612 169.857173 
L 180.121706 177.15509 
L 185.614831 177.155919 
z
" style="stroke:#000000;"/>
    <path clip-path="url(#pa561921076)" d="M 185.614831 177.155919 
L 180.073222 184.451145 
L 185.567612 184.455477 
z
" style="stroke:#000000;"/>
    <path clip-path="url(#pa561921076)" d="M 179.928171 191.678236 
L 185.567612 184.455477 
L 180.073222 184.451145 
z
" style="stroke:#000000;"/>
    <path clip-path="url(#pa561921076)" d="M 185.426349 162.629036 
L 180.073222 169.859845 
L 185.567612 169.857173 
z
" style="stroke:#000000;"/>
    <path clip-path="url(#pa561921076)" d="M 180.225727 200.082052 
L 185.372025 207.402356 
L 179.872391 207.387 
z
" style="stroke:#000000;"/>
    <path clip-path="url(#pa561921076)" d="M 179.687736 155.550416 
L 180.225727 154.226389 
L 179.928171 162.63518 
z
" style="stroke:#000000;"/>
    <path clip-path="url(#pa561921076)" d="M 180.225727 200.082052 
L 179.687736 198.76702 
L 179.928171 191.678236 
z
" style="stroke:#000000;"/>
    <path clip-path="url(#pa561921076)" d="M 180.073222 169.859845 
L 185.426349 162.629036 
L 179.928171 162.63518 
z
" style="stroke:#000000;"/>
    <path clip-path="url(#pa561921076)" d="M 180.225727 154.226389 
L 179.687736 155.550416 
L 179.872391 146.927348 
z
" style="stroke:#000000;"/>
    <path clip-path="url(#pa561921076)" d="M 179.687736 198.76702 
L 180.225727 200.082052 
L 179.872391 207.387 
z
" style="stroke:#000000;"/>
    <path clip-path="url(#pa561921076)" d="M 185.716136 154.21622 
L 179.872391 146.927348 
L 185.372025 146.913656 
z
" style="stroke:#000000;"/>
    <path clip-path="url(#pa561921076)" d="M 185.567612 184.455477 
L 179.928171 191.678236 
L 185.426349 191.686042 
z
" style="stroke:#000000;"/>
    <path clip-path="url(#pa561921076)" d="M 185.19219 198.778244 
L 185.716136 200.093877 
L 185.426349 191.686042 
z
" style="stroke:#000000;"/>
    <path clip-path="url(#pa561921076)" d="M 185.716136 154.21622 
L 185.19219 155.540858 
L 185.426349 162.629036 
z
" style="stroke:#000000;"/>
    <path clip-path="url(#pa561921076)" d="M 185.716136 200.093877 
L 185.19219 198.778244 
L 185.372025 207.402356 
z
" style="stroke:#000000;"/>
    <path clip-path="url(#pa561921076)" d="M 185.19219 155.540858 
L 185.716136 154.21622 
L 185.372025 146.913656 
z
" style="stroke:#000000;"/>
    <path clip-path="url(#pa561921076)" d="M 179.687736 198.76702 
L 185.426349 191.686042 
L 179.928171 191.678236 
z
" style="stroke:#000000;"/>
    <path clip-path="url(#pa561921076)" d="M 185.19219 155.540858 
L 179.928171 162.63518 
L 185.426349 162.629036 
z
" style="stroke:#000000;"/>
    <path clip-path="url(#pa561921076)" d="M 179.928171 162.63518 
L 185.19219 155.540858 
L 179.687736 155.550416 
z
" style="stroke:#000000;"/>
    <path clip-path="url(#pa561921076)" d="M 185.426349 191.686042 
L 179.687736 198.76702 
L 185.19219 198.778244 
z
" style="stroke:#000000;"/>
    <path clip-path="url(#pa561921076)" d="M 179.423029 139.918754 
L 185.372025 146.913656 
L 179.872391 146.927348 
z
" style="stroke:#000000;"/>
    <path clip-path="url(#pa561921076)" d="M 184.934394 214.421875 
L 179.872391 207.387 
L 185.372025 207.402356 
z
" style="stroke:#000000;"/>
    <path clip-path="url(#pa561921076)" d="M 179.353898 148.674236 
L 179.872391 146.927348 
L 179.687736 155.550416 
z
" style="stroke:#000000;"/>
    <path clip-path="url(#pa561921076)" d="M 179.872391 207.387 
L 179.353898 205.648782 
L 179.687736 198.76702 
z
" style="stroke:#000000;"/>
    <path clip-path="url(#pa561921076)" d="M 179.872391 146.927348 
L 179.353898 148.674236 
L 179.423029 139.918754 
z
" style="stroke:#000000;"/>
    <path clip-path="url(#pa561921076)" d="M 179.353898 205.648782 
L 179.872391 207.387 
L 179.423029 214.403108 
z
" style="stroke:#000000;"/>
    <path clip-path="url(#pa561921076)" d="M 179.353898 205.648782 
L 185.19219 198.778244 
L 179.687736 198.76702 
z
" style="stroke:#000000;"/>
    <path clip-path="url(#pa561921076)" d="M 179.872391 207.387 
L 184.934394 214.421875 
L 179.423029 214.403108 
z
" style="stroke:#000000;"/>
    <path clip-path="url(#pa561921076)" d="M 184.867068 205.663339 
L 185.372025 207.402356 
L 185.19219 198.778244 
z
" style="stroke:#000000;"/>
    <path clip-path="url(#pa561921076)" d="M 185.372025 146.913656 
L 184.867068 148.661351 
L 185.19219 155.540858 
z
" style="stroke:#000000;"/>
    <path clip-path="url(#pa561921076)" d="M 184.867068 148.661351 
L 179.687736 155.550416 
L 185.19219 155.540858 
z
" style="stroke:#000000;"/>
    <path clip-path="url(#pa561921076)" d="M 185.372025 146.913656 
L 179.423029 139.918754 
L 184.934394 139.901657 
z
" style="stroke:#000000;"/>
    <path clip-path="url(#pa561921076)" d="M 185.372025 207.402356 
L 184.867068 205.663339 
L 184.934394 214.421875 
z
" style="stroke:#000000;"/>
    <path clip-path="url(#pa561921076)" d="M 184.867068 148.661351 
L 185.372025 146.913656 
L 184.934394 139.901657 
z
" style="stroke:#000000;"/>
    <path clip-path="url(#pa561921076)" d="M 179.687736 155.550416 
L 184.867068 148.661351 
L 179.353898 148.674236 
z
" style="stroke:#000000;"/>
    <path clip-path="url(#pa561921076)" d="M 185.19219 198.778244 
L 179.353898 205.648782 
L 184.867068 205.663339 
z
" style="stroke:#000000;"/>
    <path clip-path="url(#pa561921076)" d="M 178.929435 142.074094 
L 179.423029 139.918754 
L 179.353898 148.674236 
z
" style="stroke:#000000;"/>
    <path clip-path="url(#pa561921076)" d="M 179.423029 214.403108 
L 178.929435 212.256022 
L 179.353898 205.648782 
z
" style="stroke:#000000;"/>
    <path clip-path="url(#pa561921076)" d="M 178.881365 133.270403 
L 184.934394 139.901657 
L 179.423029 139.918754 
z
" style="stroke:#000000;"/>
    <path clip-path="url(#pa561921076)" d="M 178.929435 212.256022 
L 184.867068 205.663339 
L 179.353898 205.648782 
z
" style="stroke:#000000;"/>
    <path clip-path="url(#pa561921076)" d="M 184.40687 221.082546 
L 179.423029 214.403108 
L 184.934394 214.421875 
z
" style="stroke:#000000;"/>
    <path clip-path="url(#pa561921076)" d="M 184.453685 142.057996 
L 179.353898 148.674236 
L 184.867068 148.661351 
z
" style="stroke:#000000;"/>
    <path clip-path="url(#pa561921076)" d="M 184.453685 212.273797 
L 184.934394 214.421875 
L 184.867068 205.663339 
z
" style="stroke:#000000;"/>
    <path clip-path="url(#pa561921076)" d="M 184.934394 139.901657 
L 184.453685 142.057996 
L 184.867068 148.661351 
z
" style="stroke:#000000;"/>
    <path clip-path="url(#pa561921076)" d="M 179.423029 139.918754 
L 178.929435 142.074094 
L 178.881365 133.270403 
z
" style="stroke:#000000;"/>
    <path clip-path="url(#pa561921076)" d="M 178.929435 212.256022 
L 179.423029 214.403108 
L 178.881365 221.060517 
z
" style="stroke:#000000;"/>
    <path clip-path="url(#pa561921076)" d="M 179.353898 148.674236 
L 184.453685 142.057996 
L 178.929435 142.074094 
z
" style="stroke:#000000;"/>
    <path clip-path="url(#pa561921076)" d="M 179.423029 214.403108 
L 184.40687 221.082546 
L 178.881365 221.060517 
z
" style="stroke:#000000;"/>
    <path clip-path="url(#pa561921076)" d="M 184.867068 205.663339 
L 178.929435 212.256022 
L 184.453685 212.273797 
z
" style="stroke:#000000;"/>
    <path clip-path="url(#pa561921076)" d="M 184.934394 139.901657 
L 178.881365 133.270403 
L 184.40687 133.250052 
z
" style="stroke:#000000;"/>
    <path clip-path="url(#pa561921076)" d="M 184.934394 214.421875 
L 184.453685 212.273797 
L 184.40687 221.082546 
z
" style="stroke:#000000;"/>
    <path clip-path="url(#pa561921076)" d="M 184.453685 142.057996 
L 184.934394 139.901657 
L 184.40687 133.250052 
z
" style="stroke:#000000;"/>
    <path clip-path="url(#pa561921076)" d="M 178.881365 133.270403 
L 178.929435 142.074094 
L 178.417921 135.815791 
z
" style="stroke:#000000;"/>
    <path clip-path="url(#pa561921076)" d="M 178.929435 212.256022 
L 178.881365 221.060517 
L 178.417921 218.522877 
z
" style="stroke:#000000;"/>
    <path clip-path="url(#pa561921076)" d="M 178.417921 218.522877 
L 184.453685 212.273797 
L 178.929435 212.256022 
z
" style="stroke:#000000;"/>
    <path clip-path="url(#pa561921076)" d="M 183.955523 135.796626 
L 178.929435 142.074094 
L 184.453685 142.057996 
z
" style="stroke:#000000;"/>
    <path clip-path="url(#pa561921076)" d="M 184.40687 221.082546 
L 184.453685 212.273797 
L 183.955523 218.543728 
z
" style="stroke:#000000;"/>
    <path clip-path="url(#pa561921076)" d="M 184.453685 142.057996 
L 184.40687 133.250052 
L 183.955523 135.796626 
z
" style="stroke:#000000;"/>
    <path clip-path="url(#pa561921076)" d="M 178.25195 127.049428 
L 184.40687 133.250052 
L 178.881365 133.270403 
z
" style="stroke:#000000;"/>
    <path clip-path="url(#pa561921076)" d="M 183.793884 227.317129 
L 178.881365 221.060517 
L 184.40687 221.082546 
z
" style="stroke:#000000;"/>
    <path clip-path="url(#pa561921076)" d="M 178.929435 142.074094 
L 183.955523 135.796626 
L 178.417921 135.815791 
z
" style="stroke:#000000;"/>
    <path clip-path="url(#pa561921076)" d="M 184.453685 212.273797 
L 178.417921 218.522877 
L 183.955523 218.543728 
z
" style="stroke:#000000;"/>
    <path clip-path="url(#pa561921076)" d="M 178.881365 133.270403 
L 178.417921 135.815791 
L 178.25195 127.049428 
z
" style="stroke:#000000;"/>
    <path clip-path="url(#pa561921076)" d="M 178.417921 218.522877 
L 178.881365 221.060517 
L 178.25195 227.292015 
z
" style="stroke:#000000;"/>
    <path clip-path="url(#pa561921076)" d="M 178.881365 221.060517 
L 183.793884 227.317129 
L 178.25195 227.292015 
z
" style="stroke:#000000;"/>
    <path clip-path="url(#pa561921076)" d="M 184.40687 221.082546 
L 183.955523 218.543728 
L 183.793884 227.317129 
z
" style="stroke:#000000;"/>
    <path clip-path="url(#pa561921076)" d="M 183.955523 135.796626 
L 184.40687 133.250052 
L 183.793884 127.026003 
z
" style="stroke:#000000;"/>
    <path clip-path="url(#pa561921076)" d="M 184.40687 133.250052 
L 178.25195 127.049428 
L 183.793884 127.026003 
z
" style="stroke:#000000;"/>
    <path clip-path="url(#pa561921076)" d="M 177.823731 224.385044 
L 183.955523 218.543728 
L 178.417921 218.522877 
z
" style="stroke:#000000;"/>
    <path clip-path="url(#pa561921076)" d="M 178.25195 127.049428 
L 178.417921 135.815791 
L 177.823731 129.96356 
z
" style="stroke:#000000;"/>
    <path clip-path="url(#pa561921076)" d="M 178.417921 218.522877 
L 178.25195 227.292015 
L 177.823731 224.385044 
z
" style="stroke:#000000;"/>
    <path clip-path="url(#pa561921076)" d="M 183.376841 129.9415 
L 178.417921 135.815791 
L 183.955523 135.796626 
z
" style="stroke:#000000;"/>
    <path clip-path="url(#pa561921076)" d="M 177.896667 124.190216 
L 183.793884 127.026003 
L 178.25195 127.049428 
z
" style="stroke:#000000;"/>
    <path clip-path="url(#pa561921076)" d="M 183.447874 230.183715 
L 178.25195 227.292015 
L 183.793884 227.317129 
z
" style="stroke:#000000;"/>
    <path clip-path="url(#pa561921076)" d="M 183.793884 227.317129 
L 183.955523 218.543728 
L 183.376841 224.408799 
z
" style="stroke:#000000;"/>
    <path clip-path="url(#pa561921076)" d="M 183.955523 135.796626 
L 183.793884 127.026003 
L 183.376841 129.9415 
z
" style="stroke:#000000;"/>
    <path clip-path="url(#pa561921076)" d="M 178.417921 135.815791 
L 183.376841 129.9415 
L 177.823731 129.96356 
z
" style="stroke:#000000;"/>
    <path clip-path="url(#pa561921076)" d="M 178.25195 227.292015 
L 183.447874 230.183715 
L 177.896667 230.157169 
z
" style="stroke:#000000;"/>
    <path clip-path="url(#pa561921076)" d="M 183.955523 218.543728 
L 177.823731 224.385044 
L 183.376841 224.408799 
z
" style="stroke:#000000;"/>
    <path clip-path="url(#pa561921076)" d="M 183.793884 127.026003 
L 177.896667 124.190216 
L 183.447874 124.165364 
z
" style="stroke:#000000;"/>
    <path clip-path="url(#pa561921076)" d="M 178.25195 127.049428 
L 177.645006 125.129135 
L 177.896667 124.190216 
z
" style="stroke:#000000;"/>
    <path clip-path="url(#pa561921076)" d="M 177.645006 229.222458 
L 178.25195 227.292015 
L 177.896667 230.157169 
z
" style="stroke:#000000;"/>
    <path clip-path="url(#pa561921076)" d="M 177.645006 125.129135 
L 178.25195 127.049428 
L 177.823731 129.96356 
z
" style="stroke:#000000;"/>
    <path clip-path="url(#pa561921076)" d="M 178.25195 227.292015 
L 177.645006 229.222458 
L 177.823731 224.385044 
z
" style="stroke:#000000;"/>
    <path clip-path="url(#pa561921076)" d="M 183.793884 227.317129 
L 183.20278 229.248582 
L 183.447874 230.183715 
z
" style="stroke:#000000;"/>
    <path clip-path="url(#pa561921076)" d="M 183.20278 125.104709 
L 183.793884 127.026003 
L 183.447874 124.165364 
z
" style="stroke:#000000;"/>
    <path clip-path="url(#pa561921076)" d="M 183.20278 229.248582 
L 183.793884 227.317129 
L 183.376841 224.408799 
z
" style="stroke:#000000;"/>
    <path clip-path="url(#pa561921076)" d="M 183.793884 127.026003 
L 183.20278 125.104709 
L 183.376841 129.9415 
z
" style="stroke:#000000;"/>
    <path clip-path="url(#pa561921076)" d="M 183.447874 230.183715 
L 177.645006 229.222458 
L 177.896667 230.157169 
z
" style="stroke:#000000;"/>
    <path clip-path="url(#pa561921076)" d="M 177.896667 124.190216 
L 183.20278 125.104709 
L 183.447874 124.165364 
z
" style="stroke:#000000;"/>
    <path clip-path="url(#pa561921076)" d="M 183.20278 125.104709 
L 177.896667 124.190216 
L 177.645006 125.129135 
z
" style="stroke:#000000;"/>
    <path clip-path="url(#pa561921076)" d="M 177.645006 229.222458 
L 183.447874 230.183715 
L 183.20278 229.248582 
z
" style="stroke:#000000;"/>
    <path clip-path="url(#pa561921076)" d="M 183.376841 129.9415 
L 177.380036 126.406407 
L 177.823731 129.96356 
z
" style="stroke:#000000;"/>
    <path clip-path="url(#pa561921076)" d="M 177.645006 125.129135 
L 177.823731 129.96356 
L 177.380036 126.406407 
z
" style="stroke:#000000;"/>
    <path clip-path="url(#pa561921076)" d="M 177.823731 224.385044 
L 177.645006 229.222458 
L 177.380036 227.949616 
z
" style="stroke:#000000;"/>
    <path clip-path="url(#pa561921076)" d="M 177.823731 224.385044 
L 182.944725 227.975155 
L 183.376841 224.408799 
z
" style="stroke:#000000;"/>
    <path clip-path="url(#pa561921076)" d="M 183.20278 229.248582 
L 177.380036 227.949616 
L 177.645006 229.222458 
z
" style="stroke:#000000;"/>
    <path clip-path="url(#pa561921076)" d="M 183.20278 229.248582 
L 183.376841 224.408799 
L 182.944725 227.975155 
z
" style="stroke:#000000;"/>
    <path clip-path="url(#pa561921076)" d="M 183.376841 129.9415 
L 183.20278 125.104709 
L 182.944725 126.382571 
z
" style="stroke:#000000;"/>
    <path clip-path="url(#pa561921076)" d="M 182.944725 227.975155 
L 177.823731 224.385044 
L 177.380036 227.949616 
z
" style="stroke:#000000;"/>
    <path clip-path="url(#pa561921076)" d="M 177.645006 125.129135 
L 182.944725 126.382571 
L 183.20278 125.104709 
z
" style="stroke:#000000;"/>
    <path clip-path="url(#pa561921076)" d="M 177.380036 126.406407 
L 183.376841 129.9415 
L 182.944725 126.382571 
z
" style="stroke:#000000;"/>
    <path clip-path="url(#pa561921076)" d="M 182.944725 126.382571 
L 177.645006 125.129135 
L 177.380036 126.406407 
z
" style="stroke:#000000;"/>
    <path clip-path="url(#pa561921076)" d="M 177.380036 227.949616 
L 183.20278 229.248582 
L 182.944725 227.975155 
z
" style="stroke:#000000;"/>
   </g>
  </g>
 </g>
 <defs>
  <clipPath id="pa561921076">
   <rect height="271.8" width="279" x="45" y="43.2"/>
  </clipPath>
 </defs>
</svg>
