<?xml version="1.0" encoding="utf-8" standalone="no"?>
<!DOCTYPE svg PUBLIC "-//W3C//DTD SVG 1.1//EN"
  "http://www.w3.org/Graphics/SVG/1.1/DTD/svg11.dtd">
<!-- Created with matplotlib (https://matplotlib.org/) -->
<svg height="360pt" version="1.1" viewBox="0 0 360 360" width="360pt" xmlns="http://www.w3.org/2000/svg" xmlns:xlink="http://www.w3.org/1999/xlink">
 <defs>
  <style type="text/css">
*{stroke-linecap:butt;stroke-linejoin:round;}
  </style>
 </defs>
 <g id="figure_1">
  <g id="patch_1">
   <path d="M 45 315 
L 324 315 
L 324 43.2 
L 45 43.2 
z
" style="fill:#ffffff;"/>
  </g>
  <g id="axes_1">
   <g id="Poly3DCollection_1">
    <path clip-path="url(#p52e75f5960)" d="M 178.892187 194.928896 
L 178.548108 196.729523 
L 178.039361 196.218335 
z
" style="stroke:#000000;"/>
    <path clip-path="url(#p52e75f5960)" d="M 178.548108 157.547479 
L 178.892187 159.348892 
L 178.039361 158.057504 
z
" style="stroke:#000000;"/>
    <path clip-path="url(#p52e75f5960)" d="M 176.535553 158.040301 
L 178.548108 157.547479 
L 178.039361 158.057504 
z
" style="stroke:#000000;"/>
    <path clip-path="url(#p52e75f5960)" d="M 176.535553 196.238928 
L 178.892187 194.928896 
L 178.039361 196.218335 
z
" style="stroke:#000000;"/>
    <path clip-path="url(#p52e75f5960)" d="M 177.044292 196.750629 
L 178.039361 196.218335 
L 178.548108 196.729523 
z
" style="stroke:#000000;"/>
    <path clip-path="url(#p52e75f5960)" d="M 179.719634 196.075825 
L 178.548108 196.729523 
L 178.892187 194.928896 
z
" style="stroke:#000000;"/>
    <path clip-path="url(#p52e75f5960)" d="M 178.548108 157.547479 
L 179.719634 158.203853 
L 178.892187 159.348892 
z
" style="stroke:#000000;"/>
    <path clip-path="url(#p52e75f5960)" d="M 178.548108 196.729523 
L 179.719634 196.075825 
L 179.032817 197.113189 
z
" style="stroke:#000000;"/>
    <path clip-path="url(#p52e75f5960)" d="M 179.719634 158.203853 
L 178.548108 157.547479 
L 179.032817 157.16492 
z
" style="stroke:#000000;"/>
    <path clip-path="url(#p52e75f5960)" d="M 177.388367 159.332958 
L 178.039361 158.057504 
L 178.892187 159.348892 
z
" style="stroke:#000000;"/>
    <path clip-path="url(#p52e75f5960)" d="M 178.039361 196.218335 
L 177.044292 196.750629 
L 176.535553 196.238928 
z
" style="stroke:#000000;"/>
    <path clip-path="url(#p52e75f5960)" d="M 177.044292 157.529764 
L 179.032817 157.16492 
L 178.548108 157.547479 
z
" style="stroke:#000000;"/>
    <path clip-path="url(#p52e75f5960)" d="M 178.039361 158.057504 
L 177.388367 159.332958 
L 176.535553 158.040301 
z
" style="stroke:#000000;"/>
    <path clip-path="url(#p52e75f5960)" d="M 177.528995 197.134681 
L 178.548108 196.729523 
L 179.032817 197.113189 
z
" style="stroke:#000000;"/>
    <path clip-path="url(#p52e75f5960)" d="M 178.548108 157.547479 
L 176.535553 158.040301 
L 177.044292 157.529764 
z
" style="stroke:#000000;"/>
    <path clip-path="url(#p52e75f5960)" d="M 179.719634 196.075825 
L 178.892187 194.928896 
L 180.0415 192.779507 
z
" style="stroke:#000000;"/>
    <path clip-path="url(#p52e75f5960)" d="M 178.892187 159.348892 
L 179.719634 158.203853 
L 180.0415 161.500906 
z
" style="stroke:#000000;"/>
    <path clip-path="url(#p52e75f5960)" d="M 178.892187 194.928896 
L 176.535553 196.238928 
L 177.388367 194.948222 
z
" style="stroke:#000000;"/>
    <path clip-path="url(#p52e75f5960)" d="M 178.548108 196.729523 
L 177.528995 197.134681 
L 177.044292 196.750629 
z
" style="stroke:#000000;"/>
    <path clip-path="url(#p52e75f5960)" d="M 179.719634 196.075825 
L 177.528995 197.134681 
L 179.032817 197.113189 
z
" style="stroke:#000000;"/>
    <path clip-path="url(#p52e75f5960)" d="M 180.0415 161.500906 
L 177.388367 159.332958 
L 178.892187 159.348892 
z
" style="stroke:#000000;"/>
    <path clip-path="url(#p52e75f5960)" d="M 179.032817 157.16492 
L 177.044292 157.529764 
L 177.528995 157.146821 
z
" style="stroke:#000000;"/>
    <path clip-path="url(#p52e75f5960)" d="M 177.388367 159.332958 
L 177.044292 157.529764 
L 176.535553 158.040301 
z
" style="stroke:#000000;"/>
    <path clip-path="url(#p52e75f5960)" d="M 177.044292 196.750629 
L 177.388367 194.948222 
L 176.535553 196.238928 
z
" style="stroke:#000000;"/>
    <path clip-path="url(#p52e75f5960)" d="M 179.032817 157.16492 
L 178.215803 158.186776 
L 179.719634 158.203853 
z
" style="stroke:#000000;"/>
    <path clip-path="url(#p52e75f5960)" d="M 178.892187 194.928896 
L 178.537666 192.796716 
L 180.0415 192.779507 
z
" style="stroke:#000000;"/>
    <path clip-path="url(#p52e75f5960)" d="M 179.719634 196.075825 
L 180.0415 192.779507 
L 180.943712 193.788707 
z
" style="stroke:#000000;"/>
    <path clip-path="url(#p52e75f5960)" d="M 180.0415 161.500906 
L 179.719634 158.203853 
L 180.943712 160.493767 
z
" style="stroke:#000000;"/>
    <path clip-path="url(#p52e75f5960)" d="M 178.215803 158.186776 
L 179.032817 157.16492 
L 177.528995 157.146821 
z
" style="stroke:#000000;"/>
    <path clip-path="url(#p52e75f5960)" d="M 178.537666 192.796716 
L 178.892187 194.928896 
L 177.388367 194.948222 
z
" style="stroke:#000000;"/>
    <path clip-path="url(#p52e75f5960)" d="M 177.528995 197.134681 
L 179.719634 196.075825 
L 178.215803 196.096299 
z
" style="stroke:#000000;"/>
    <path clip-path="url(#p52e75f5960)" d="M 178.215803 158.186776 
L 177.044292 157.529764 
L 177.388367 159.332958 
z
" style="stroke:#000000;"/>
    <path clip-path="url(#p52e75f5960)" d="M 177.044292 196.750629 
L 178.215803 196.096299 
L 177.388367 194.948222 
z
" style="stroke:#000000;"/>
    <path clip-path="url(#p52e75f5960)" d="M 177.044292 157.529764 
L 178.215803 158.186776 
L 177.528995 157.146821 
z
" style="stroke:#000000;"/>
    <path clip-path="url(#p52e75f5960)" d="M 178.215803 196.096299 
L 177.044292 196.750629 
L 177.528995 197.134681 
z
" style="stroke:#000000;"/>
    <path clip-path="url(#p52e75f5960)" d="M 180.943712 193.788707 
L 178.215803 196.096299 
L 179.719634 196.075825 
z
" style="stroke:#000000;"/>
    <path clip-path="url(#p52e75f5960)" d="M 177.388367 159.332958 
L 180.0415 161.500906 
L 178.537666 161.487095 
z
" style="stroke:#000000;"/>
    <path clip-path="url(#p52e75f5960)" d="M 180.943712 193.788707 
L 180.0415 192.779507 
L 181.037585 190.453718 
z
" style="stroke:#000000;"/>
    <path clip-path="url(#p52e75f5960)" d="M 180.0415 161.500906 
L 180.943712 160.493767 
L 181.037585 163.82897 
z
" style="stroke:#000000;"/>
    <path clip-path="url(#p52e75f5960)" d="M 181.037585 163.82897 
L 178.537666 161.487095 
L 180.0415 161.500906 
z
" style="stroke:#000000;"/>
    <path clip-path="url(#p52e75f5960)" d="M 179.719634 158.203853 
L 179.439867 160.478948 
L 180.943712 160.493767 
z
" style="stroke:#000000;"/>
    <path clip-path="url(#p52e75f5960)" d="M 178.215803 158.186776 
L 177.388367 159.332958 
L 178.537666 161.487095 
z
" style="stroke:#000000;"/>
    <path clip-path="url(#p52e75f5960)" d="M 177.388367 194.948222 
L 178.215803 196.096299 
L 178.537666 192.796716 
z
" style="stroke:#000000;"/>
    <path clip-path="url(#p52e75f5960)" d="M 179.439867 160.478948 
L 179.719634 158.203853 
L 178.215803 158.186776 
z
" style="stroke:#000000;"/>
    <path clip-path="url(#p52e75f5960)" d="M 180.0415 192.779507 
L 179.533739 190.468631 
L 181.037585 190.453718 
z
" style="stroke:#000000;"/>
    <path clip-path="url(#p52e75f5960)" d="M 180.943712 193.788707 
L 181.037585 190.453718 
L 182.004695 191.313674 
z
" style="stroke:#000000;"/>
    <path clip-path="url(#p52e75f5960)" d="M 181.037585 163.82897 
L 180.943712 160.493767 
L 182.004695 162.971224 
z
" style="stroke:#000000;"/>
    <path clip-path="url(#p52e75f5960)" d="M 179.533739 190.468631 
L 180.0415 192.779507 
L 178.537666 192.796716 
z
" style="stroke:#000000;"/>
    <path clip-path="url(#p52e75f5960)" d="M 178.215803 196.096299 
L 180.943712 193.788707 
L 179.439867 193.806929 
z
" style="stroke:#000000;"/>
    <path clip-path="url(#p52e75f5960)" d="M 182.004695 191.313674 
L 181.037585 190.453718 
L 181.868892 187.977551 
z
" style="stroke:#000000;"/>
    <path clip-path="url(#p52e75f5960)" d="M 181.037585 163.82897 
L 182.004695 162.971224 
L 181.868892 166.307037 
z
" style="stroke:#000000;"/>
    <path clip-path="url(#p52e75f5960)" d="M 178.537666 161.487095 
L 181.037585 163.82897 
L 179.533739 163.81746 
z
" style="stroke:#000000;"/>
    <path clip-path="url(#p52e75f5960)" d="M 178.215803 158.186776 
L 178.537666 161.487095 
L 179.439867 160.478948 
z
" style="stroke:#000000;"/>
    <path clip-path="url(#p52e75f5960)" d="M 178.537666 192.796716 
L 178.215803 196.096299 
L 179.439867 193.806929 
z
" style="stroke:#000000;"/>
    <path clip-path="url(#p52e75f5960)" d="M 182.004695 191.313674 
L 179.439867 193.806929 
L 180.943712 193.788707 
z
" style="stroke:#000000;"/>
    <path clip-path="url(#p52e75f5960)" d="M 181.868892 166.307037 
L 179.533739 163.81746 
L 181.037585 163.82897 
z
" style="stroke:#000000;"/>
    <path clip-path="url(#p52e75f5960)" d="M 181.037585 190.453718 
L 180.365038 187.990013 
L 181.868892 187.977551 
z
" style="stroke:#000000;"/>
    <path clip-path="url(#p52e75f5960)" d="M 180.943712 160.493767 
L 180.500839 162.958854 
L 182.004695 162.971224 
z
" style="stroke:#000000;"/>
    <path clip-path="url(#p52e75f5960)" d="M 179.439867 160.478948 
L 178.537666 161.487095 
L 179.533739 163.81746 
z
" style="stroke:#000000;"/>
    <path clip-path="url(#p52e75f5960)" d="M 178.537666 192.796716 
L 179.439867 193.806929 
L 179.533739 190.468631 
z
" style="stroke:#000000;"/>
    <path clip-path="url(#p52e75f5960)" d="M 181.868892 187.977551 
L 182.890244 188.678153 
L 182.004695 191.313674 
z
" style="stroke:#000000;"/>
    <path clip-path="url(#p52e75f5960)" d="M 182.890244 165.608768 
L 181.868892 166.307037 
L 182.004695 162.971224 
z
" style="stroke:#000000;"/>
    <path clip-path="url(#p52e75f5960)" d="M 180.500839 162.958854 
L 180.943712 160.493767 
L 179.439867 160.478948 
z
" style="stroke:#000000;"/>
    <path clip-path="url(#p52e75f5960)" d="M 180.365038 187.990013 
L 181.037585 190.453718 
L 179.533739 190.468631 
z
" style="stroke:#000000;"/>
    <path clip-path="url(#p52e75f5960)" d="M 182.890244 188.678153 
L 181.868892 187.977551 
L 182.525756 185.378702 
z
" style="stroke:#000000;"/>
    <path clip-path="url(#p52e75f5960)" d="M 181.868892 166.307037 
L 182.890244 165.608768 
L 182.525756 168.907386 
z
" style="stroke:#000000;"/>
    <path clip-path="url(#p52e75f5960)" d="M 182.525756 168.907386 
L 180.365038 166.297981 
L 181.868892 166.307037 
z
" style="stroke:#000000;"/>
    <path clip-path="url(#p52e75f5960)" d="M 179.533739 163.81746 
L 181.868892 166.307037 
L 180.365038 166.297981 
z
" style="stroke:#000000;"/>
    <path clip-path="url(#p52e75f5960)" d="M 179.439867 193.806929 
L 182.004695 191.313674 
L 180.500839 191.329451 
z
" style="stroke:#000000;"/>
    <path clip-path="url(#p52e75f5960)" d="M 182.890244 188.678153 
L 180.500839 191.329451 
L 182.004695 191.313674 
z
" style="stroke:#000000;"/>
    <path clip-path="url(#p52e75f5960)" d="M 181.868892 187.977551 
L 181.021896 185.388588 
L 182.525756 185.378702 
z
" style="stroke:#000000;"/>
    <path clip-path="url(#p52e75f5960)" d="M 179.439867 160.478948 
L 179.533739 163.81746 
L 180.500839 162.958854 
z
" style="stroke:#000000;"/>
    <path clip-path="url(#p52e75f5960)" d="M 179.533739 190.468631 
L 179.439867 193.806929 
L 180.500839 191.329451 
z
" style="stroke:#000000;"/>
    <path clip-path="url(#p52e75f5960)" d="M 182.525756 185.378702 
L 183.59 185.911798 
L 182.890244 188.678153 
z
" style="stroke:#000000;"/>
    <path clip-path="url(#p52e75f5960)" d="M 183.59 168.376721 
L 182.525756 168.907386 
L 182.890244 165.608768 
z
" style="stroke:#000000;"/>
    <path clip-path="url(#p52e75f5960)" d="M 183.59 185.911798 
L 182.525756 185.378702 
L 183.00051 182.686417 
z
" style="stroke:#000000;"/>
    <path clip-path="url(#p52e75f5960)" d="M 182.525756 168.907386 
L 183.59 168.376721 
L 183.00051 171.600756 
z
" style="stroke:#000000;"/>
    <path clip-path="url(#p52e75f5960)" d="M 181.021896 185.388588 
L 181.868892 187.977551 
L 180.365038 187.990013 
z
" style="stroke:#000000;"/>
    <path clip-path="url(#p52e75f5960)" d="M 182.004695 162.971224 
L 181.38638 165.599012 
L 182.890244 165.608768 
z
" style="stroke:#000000;"/>
    <path clip-path="url(#p52e75f5960)" d="M 180.500839 162.958854 
L 179.533739 163.81746 
L 180.365038 166.297981 
z
" style="stroke:#000000;"/>
    <path clip-path="url(#p52e75f5960)" d="M 179.533739 190.468631 
L 180.500839 191.329451 
L 180.365038 187.990013 
z
" style="stroke:#000000;"/>
    <path clip-path="url(#p52e75f5960)" d="M 183.00051 171.600756 
L 181.021896 168.900909 
L 182.525756 168.907386 
z
" style="stroke:#000000;"/>
    <path clip-path="url(#p52e75f5960)" d="M 181.38638 165.599012 
L 182.004695 162.971224 
L 180.500839 162.958854 
z
" style="stroke:#000000;"/>
    <path clip-path="url(#p52e75f5960)" d="M 180.365038 166.297981 
L 182.525756 168.907386 
L 181.021896 168.900909 
z
" style="stroke:#000000;"/>
    <path clip-path="url(#p52e75f5960)" d="M 182.525756 185.378702 
L 181.496646 182.693631 
L 183.00051 182.686417 
z
" style="stroke:#000000;"/>
    <path clip-path="url(#p52e75f5960)" d="M 184.095786 183.045767 
L 183.00051 182.686417 
L 183.2876 179.931132 
z
" style="stroke:#000000;"/>
    <path clip-path="url(#p52e75f5960)" d="M 183.00051 171.600756 
L 184.095786 171.243908 
L 183.2876 174.356697 
z
" style="stroke:#000000;"/>
    <path clip-path="url(#p52e75f5960)" d="M 183.00051 182.686417 
L 184.095786 183.045767 
L 183.59 185.911798 
z
" style="stroke:#000000;"/>
    <path clip-path="url(#p52e75f5960)" d="M 184.095786 171.243908 
L 183.00051 171.600756 
L 183.59 168.376721 
z
" style="stroke:#000000;"/>
    <path clip-path="url(#p52e75f5960)" d="M 180.500839 191.329451 
L 182.890244 188.678153 
L 181.38638 188.691319 
z
" style="stroke:#000000;"/>
    <path clip-path="url(#p52e75f5960)" d="M 183.2876 174.356697 
L 181.496646 171.596953 
L 183.00051 171.600756 
z
" style="stroke:#000000;"/>
    <path clip-path="url(#p52e75f5960)" d="M 183.59 185.911798 
L 181.38638 188.691319 
L 182.890244 188.678153 
z
" style="stroke:#000000;"/>
    <path clip-path="url(#p52e75f5960)" d="M 181.496646 182.693631 
L 182.525756 185.378702 
L 181.021896 185.388588 
z
" style="stroke:#000000;"/>
    <path clip-path="url(#p52e75f5960)" d="M 183.00051 182.686417 
L 181.783734 179.935608 
L 183.2876 179.931132 
z
" style="stroke:#000000;"/>
    <path clip-path="url(#p52e75f5960)" d="M 183.2876 174.356697 
L 184.401657 174.177867 
L 183.383677 177.144024 
z
" style="stroke:#000000;"/>
    <path clip-path="url(#p52e75f5960)" d="M 184.401657 180.112506 
L 183.2876 179.931132 
L 183.383677 177.144024 
z
" style="stroke:#000000;"/>
    <path clip-path="url(#p52e75f5960)" d="M 180.365038 166.297981 
L 181.38638 165.599012 
L 180.500839 162.958854 
z
" style="stroke:#000000;"/>
    <path clip-path="url(#p52e75f5960)" d="M 181.38638 188.691319 
L 180.365038 187.990013 
L 180.500839 191.329451 
z
" style="stroke:#000000;"/>
    <path clip-path="url(#p52e75f5960)" d="M 183.383677 177.144024 
L 181.783734 174.355633 
L 183.2876 174.356697 
z
" style="stroke:#000000;"/>
    <path clip-path="url(#p52e75f5960)" d="M 181.021896 168.900909 
L 183.00051 171.600756 
L 181.496646 171.596953 
z
" style="stroke:#000000;"/>
    <path clip-path="url(#p52e75f5960)" d="M 183.2876 179.931132 
L 181.87981 177.145731 
L 183.383677 177.144024 
z
" style="stroke:#000000;"/>
    <path clip-path="url(#p52e75f5960)" d="M 182.890244 165.608768 
L 182.086131 168.369712 
L 183.59 168.376721 
z
" style="stroke:#000000;"/>
    <path clip-path="url(#p52e75f5960)" d="M 181.38638 165.599012 
L 180.365038 166.297981 
L 181.021896 168.900909 
z
" style="stroke:#000000;"/>
    <path clip-path="url(#p52e75f5960)" d="M 180.365038 187.990013 
L 181.38638 188.691319 
L 181.021896 185.388588 
z
" style="stroke:#000000;"/>
    <path clip-path="url(#p52e75f5960)" d="M 183.2876 179.931132 
L 184.401657 180.112506 
L 184.095786 183.045767 
z
" style="stroke:#000000;"/>
    <path clip-path="url(#p52e75f5960)" d="M 184.401657 174.177867 
L 183.2876 174.356697 
L 184.095786 171.243908 
z
" style="stroke:#000000;"/>
    <path clip-path="url(#p52e75f5960)" d="M 181.783734 179.935608 
L 183.00051 182.686417 
L 181.496646 182.693631 
z
" style="stroke:#000000;"/>
    <path clip-path="url(#p52e75f5960)" d="M 183.383677 177.144024 
L 184.504013 177.145304 
L 184.401657 180.112506 
z
" style="stroke:#000000;"/>
    <path clip-path="url(#p52e75f5960)" d="M 184.504013 177.145304 
L 183.383677 177.144024 
L 184.401657 174.177867 
z
" style="stroke:#000000;"/>
    <path clip-path="url(#p52e75f5960)" d="M 182.086131 168.369712 
L 182.890244 165.608768 
L 181.38638 165.599012 
z
" style="stroke:#000000;"/>
    <path clip-path="url(#p52e75f5960)" d="M 181.496646 171.596953 
L 183.2876 174.356697 
L 181.783734 174.355633 
z
" style="stroke:#000000;"/>
    <path clip-path="url(#p52e75f5960)" d="M 184.095786 183.045767 
L 182.086131 185.922221 
L 183.59 185.911798 
z
" style="stroke:#000000;"/>
    <path clip-path="url(#p52e75f5960)" d="M 181.87981 177.145731 
L 183.2876 179.931132 
L 181.783734 179.935608 
z
" style="stroke:#000000;"/>
    <path clip-path="url(#p52e75f5960)" d="M 181.783734 174.355633 
L 183.383677 177.144024 
L 181.87981 177.145731 
z
" style="stroke:#000000;"/>
    <path clip-path="url(#p52e75f5960)" d="M 181.38638 188.691319 
L 183.59 185.911798 
L 182.086131 185.922221 
z
" style="stroke:#000000;"/>
    <path clip-path="url(#p52e75f5960)" d="M 183.59 168.376721 
L 182.591914 171.239748 
L 184.095786 171.243908 
z
" style="stroke:#000000;"/>
    <path clip-path="url(#p52e75f5960)" d="M 186.000395 164.643156 
L 183.197117 158.99024 
L 184.130383 159.334817 
z
" style="stroke:#000000;"/>
    <path clip-path="url(#p52e75f5960)" d="M 186.000395 156.117799 
L 184.130383 159.334817 
L 183.197117 158.99024 
z
" style="stroke:#000000;"/>
    <path clip-path="url(#p52e75f5960)" d="M 181.021896 168.900909 
L 182.086131 168.369712 
L 181.38638 165.599012 
z
" style="stroke:#000000;"/>
    <path clip-path="url(#p52e75f5960)" d="M 182.086131 185.922221 
L 181.021896 185.388588 
L 181.38638 188.691319 
z
" style="stroke:#000000;"/>
    <path clip-path="url(#p52e75f5960)" d="M 182.086131 168.369712 
L 181.021896 168.900909 
L 181.496646 171.596953 
z
" style="stroke:#000000;"/>
    <path clip-path="url(#p52e75f5960)" d="M 181.021896 185.388588 
L 182.086131 185.922221 
L 181.496646 182.693631 
z
" style="stroke:#000000;"/>
    <path clip-path="url(#p52e75f5960)" d="M 181.693251 158.973905 
L 186.000395 156.117799 
L 183.197117 158.99024 
z
" style="stroke:#000000;"/>
    <path clip-path="url(#p52e75f5960)" d="M 186.000395 167.484942 
L 181.693251 158.973905 
L 183.197117 158.99024 
z
" style="stroke:#000000;"/>
    <path clip-path="url(#p52e75f5960)" d="M 184.401657 180.112506 
L 182.591914 183.053343 
L 184.095786 183.045767 
z
" style="stroke:#000000;"/>
    <path clip-path="url(#p52e75f5960)" d="M 182.591914 171.239748 
L 183.59 168.376721 
L 182.086131 168.369712 
z
" style="stroke:#000000;"/>
    <path clip-path="url(#p52e75f5960)" d="M 184.095786 171.243908 
L 182.897784 174.176625 
L 184.401657 174.177867 
z
" style="stroke:#000000;"/>
    <path clip-path="url(#p52e75f5960)" d="M 182.086131 185.922221 
L 184.095786 183.045767 
L 182.591914 183.053343 
z
" style="stroke:#000000;"/>
    <path clip-path="url(#p52e75f5960)" d="M 184.504013 177.145304 
L 182.897784 180.117166 
L 184.401657 180.112506 
z
" style="stroke:#000000;"/>
    <path clip-path="url(#p52e75f5960)" d="M 182.591914 171.239748 
L 181.496646 171.596953 
L 181.783734 174.355633 
z
" style="stroke:#000000;"/>
    <path clip-path="url(#p52e75f5960)" d="M 181.496646 182.693631 
L 182.591914 183.053343 
L 181.783734 179.935608 
z
" style="stroke:#000000;"/>
    <path clip-path="url(#p52e75f5960)" d="M 184.401657 174.177867 
L 183.000139 177.147013 
L 184.504013 177.145304 
z
" style="stroke:#000000;"/>
    <path clip-path="url(#p52e75f5960)" d="M 181.496646 171.596953 
L 182.591914 171.239748 
L 182.086131 168.369712 
z
" style="stroke:#000000;"/>
    <path clip-path="url(#p52e75f5960)" d="M 182.591914 183.053343 
L 181.496646 182.693631 
L 182.086131 185.922221 
z
" style="stroke:#000000;"/>
    <path clip-path="url(#p52e75f5960)" d="M 183.197117 158.99024 
L 186.000395 164.643156 
L 186.000395 167.484942 
z
" style="stroke:#000000;"/>
    <path clip-path="url(#p52e75f5960)" d="M 181.783734 179.935608 
L 182.897784 180.117166 
L 181.87981 177.145731 
z
" style="stroke:#000000;"/>
    <path clip-path="url(#p52e75f5960)" d="M 182.897784 174.176625 
L 181.783734 174.355633 
L 181.87981 177.145731 
z
" style="stroke:#000000;"/>
    <path clip-path="url(#p52e75f5960)" d="M 182.897784 174.176625 
L 184.095786 171.243908 
L 182.591914 171.239748 
z
" style="stroke:#000000;"/>
    <path clip-path="url(#p52e75f5960)" d="M 182.591914 183.053343 
L 184.401657 180.112506 
L 182.897784 180.117166 
z
" style="stroke:#000000;"/>
    <path clip-path="url(#p52e75f5960)" d="M 184.130383 159.334817 
L 186.000395 156.117799 
L 186.000395 157.538692 
z
" style="stroke:#000000;"/>
    <path clip-path="url(#p52e75f5960)" d="M 181.783734 174.355633 
L 182.897784 174.176625 
L 182.591914 171.239748 
z
" style="stroke:#000000;"/>
    <path clip-path="url(#p52e75f5960)" d="M 182.897784 180.117166 
L 181.783734 179.935608 
L 182.591914 183.053343 
z
" style="stroke:#000000;"/>
    <path clip-path="url(#p52e75f5960)" d="M 183.000139 177.147013 
L 184.401657 174.177867 
L 182.897784 174.176625 
z
" style="stroke:#000000;"/>
    <path clip-path="url(#p52e75f5960)" d="M 182.897784 180.117166 
L 184.504013 177.145304 
L 183.000139 177.147013 
z
" style="stroke:#000000;"/>
    <path clip-path="url(#p52e75f5960)" d="M 181.87981 177.145731 
L 183.000139 177.147013 
L 182.897784 174.176625 
z
" style="stroke:#000000;"/>
    <path clip-path="url(#p52e75f5960)" d="M 183.000139 177.147013 
L 181.87981 177.145731 
L 182.897784 180.117166 
z
" style="stroke:#000000;"/>
    <path clip-path="url(#p52e75f5960)" d="M 184.130383 159.334817 
L 184.496513 157.52088 
L 182.62651 159.318813 
z
" style="stroke:#000000;"/>
    <path clip-path="url(#p52e75f5960)" d="M 184.496513 164.632418 
L 184.130383 159.334817 
L 182.62651 159.318813 
z
" style="stroke:#000000;"/>
    <path clip-path="url(#p52e75f5960)" d="M 184.496513 157.52088 
L 184.130383 159.334817 
L 186.000395 157.538692 
z
" style="stroke:#000000;"/>
    <path clip-path="url(#p52e75f5960)" d="M 184.130383 159.334817 
L 184.496513 164.632418 
L 186.000395 164.643156 
z
" style="stroke:#000000;"/>
    <path clip-path="url(#p52e75f5960)" d="M 182.62651 159.318813 
L 184.496513 156.098573 
L 181.693251 158.973905 
z
" style="stroke:#000000;"/>
    <path clip-path="url(#p52e75f5960)" d="M 181.693251 158.973905 
L 184.496513 164.632418 
L 182.62651 159.318813 
z
" style="stroke:#000000;"/>
    <path clip-path="url(#p52e75f5960)" d="M 186.000395 156.117799 
L 181.693251 158.973905 
L 184.496513 156.098573 
z
" style="stroke:#000000;"/>
    <path clip-path="url(#p52e75f5960)" d="M 181.693251 158.973905 
L 186.000395 167.484942 
L 184.496513 167.477034 
z
" style="stroke:#000000;"/>
    <path clip-path="url(#p52e75f5960)" d="M 184.496513 164.632418 
L 181.693251 158.973905 
L 184.496513 167.477034 
z
" style="stroke:#000000;"/>
    <path clip-path="url(#p52e75f5960)" d="M 186.000395 156.117799 
L 187.875064 159.294749 
L 186.000395 157.538692 
z
" style="stroke:#000000;"/>
    <path clip-path="url(#p52e75f5960)" d="M 184.496513 156.098573 
L 182.62651 159.318813 
L 184.496513 157.52088 
z
" style="stroke:#000000;"/>
    <path clip-path="url(#p52e75f5960)" d="M 186.000395 164.643156 
L 188.81415 158.928814 
L 186.000395 167.484942 
z
" style="stroke:#000000;"/>
    <path clip-path="url(#p52e75f5960)" d="M 184.496513 156.098573 
L 188.81415 158.928814 
L 186.000395 156.117799 
z
" style="stroke:#000000;"/>
    <path clip-path="url(#p52e75f5960)" d="M 188.81415 158.928814 
L 184.496513 167.477034 
L 186.000395 167.484942 
z
" style="stroke:#000000;"/>
    <path clip-path="url(#p52e75f5960)" d="M 188.81415 158.928814 
L 186.000395 164.643156 
L 187.875064 159.294749 
z
" style="stroke:#000000;"/>
    <path clip-path="url(#p52e75f5960)" d="M 187.875064 159.294749 
L 186.000395 156.117799 
L 188.81415 158.928814 
z
" style="stroke:#000000;"/>
    <path clip-path="url(#p52e75f5960)" d="M 186.000395 157.538692 
L 186.371177 159.278666 
L 184.496513 157.52088 
z
" style="stroke:#000000;"/>
    <path clip-path="url(#p52e75f5960)" d="M 186.371177 159.278666 
L 186.000395 164.643156 
L 184.496513 164.632418 
z
" style="stroke:#000000;"/>
    <path clip-path="url(#p52e75f5960)" d="M 186.371177 159.278666 
L 186.000395 157.538692 
L 187.875064 159.294749 
z
" style="stroke:#000000;"/>
    <path clip-path="url(#p52e75f5960)" d="M 186.000395 164.643156 
L 186.371177 159.278666 
L 187.875064 159.294749 
z
" style="stroke:#000000;"/>
    <path clip-path="url(#p52e75f5960)" d="M 187.499757 177.148725 
L 188.626239 177.150012 
L 187.602535 180.122476 
z
" style="stroke:#000000;"/>
    <path clip-path="url(#p52e75f5960)" d="M 188.626239 177.150012 
L 187.499757 177.148725 
L 187.602535 174.175209 
z
" style="stroke:#000000;"/>
    <path clip-path="url(#p52e75f5960)" d="M 187.602535 180.122476 
L 185.995871 177.150441 
L 187.499757 177.148725 
z
" style="stroke:#000000;"/>
    <path clip-path="url(#p52e75f5960)" d="M 187.499757 177.148725 
L 186.098648 174.173962 
L 187.602535 174.175209 
z
" style="stroke:#000000;"/>
    <path clip-path="url(#p52e75f5960)" d="M 187.602535 180.122476 
L 188.723 179.947419 
L 187.909835 183.065088 
z
" style="stroke:#000000;"/>
    <path clip-path="url(#p52e75f5960)" d="M 188.723 174.352827 
L 187.602535 174.175209 
L 187.909835 171.2333 
z
" style="stroke:#000000;"/>
    <path clip-path="url(#p52e75f5960)" d="M 184.496513 156.098573 
L 184.496513 157.52088 
L 186.371177 159.278666 
z
" style="stroke:#000000;"/>
    <path clip-path="url(#p52e75f5960)" d="M 187.909835 183.065088 
L 186.098648 180.127157 
L 187.602535 180.122476 
z
" style="stroke:#000000;"/>
    <path clip-path="url(#p52e75f5960)" d="M 187.602535 174.175209 
L 186.405947 171.229119 
L 187.909835 171.2333 
z
" style="stroke:#000000;"/>
    <path clip-path="url(#p52e75f5960)" d="M 187.602535 174.175209 
L 188.723 174.352827 
L 188.626239 177.150012 
z
" style="stroke:#000000;"/>
    <path clip-path="url(#p52e75f5960)" d="M 188.723 179.947419 
L 187.602535 180.122476 
L 188.626239 177.150012 
z
" style="stroke:#000000;"/>
    <path clip-path="url(#p52e75f5960)" d="M 184.496513 164.632418 
L 184.496513 167.477034 
L 187.310262 158.912356 
z
" style="stroke:#000000;"/>
    <path clip-path="url(#p52e75f5960)" d="M 187.909835 183.065088 
L 189.012281 182.715457 
L 188.418532 185.945472 
z
" style="stroke:#000000;"/>
    <path clip-path="url(#p52e75f5960)" d="M 189.012281 171.585449 
L 187.909835 171.2333 
L 188.418532 168.354078 
z
" style="stroke:#000000;"/>
    <path clip-path="url(#p52e75f5960)" d="M 186.098648 174.173962 
L 187.499757 177.148725 
L 185.995871 177.150441 
z
" style="stroke:#000000;"/>
    <path clip-path="url(#p52e75f5960)" d="M 189.012281 182.715457 
L 187.909835 183.065088 
L 188.723 179.947419 
z
" style="stroke:#000000;"/>
    <path clip-path="url(#p52e75f5960)" d="M 187.909835 171.2333 
L 189.012281 171.585449 
L 188.723 174.352827 
z
" style="stroke:#000000;"/>
    <path clip-path="url(#p52e75f5960)" d="M 185.995871 177.150441 
L 187.602535 180.122476 
L 186.098648 180.127157 
z
" style="stroke:#000000;"/>
    <path clip-path="url(#p52e75f5960)" d="M 188.418532 185.945472 
L 186.405947 183.072703 
L 187.909835 183.065088 
z
" style="stroke:#000000;"/>
    <path clip-path="url(#p52e75f5960)" d="M 186.405947 171.229119 
L 187.602535 174.175209 
L 186.098648 174.173962 
z
" style="stroke:#000000;"/>
    <path clip-path="url(#p52e75f5960)" d="M 187.909835 171.2333 
L 186.914644 168.347024 
L 188.418532 168.354078 
z
" style="stroke:#000000;"/>
    <path clip-path="url(#p52e75f5960)" d="M 186.098648 180.127157 
L 187.909835 183.065088 
L 186.405947 183.072703 
z
" style="stroke:#000000;"/>
    <path clip-path="url(#p52e75f5960)" d="M 188.81415 158.928814 
L 184.496513 156.098573 
L 187.310262 158.912356 
z
" style="stroke:#000000;"/>
    <path clip-path="url(#p52e75f5960)" d="M 184.496513 167.477034 
L 188.81415 158.928814 
L 187.310262 158.912356 
z
" style="stroke:#000000;"/>
    <path clip-path="url(#p52e75f5960)" d="M 189.491144 185.424841 
L 188.418532 185.945472 
L 189.012281 182.715457 
z
" style="stroke:#000000;"/>
    <path clip-path="url(#p52e75f5960)" d="M 188.418532 168.354078 
L 189.491144 168.877159 
L 189.012281 171.585449 
z
" style="stroke:#000000;"/>
    <path clip-path="url(#p52e75f5960)" d="M 188.418532 185.945472 
L 189.491144 185.424841 
L 189.123448 188.733117 
z
" style="stroke:#000000;"/>
    <path clip-path="url(#p52e75f5960)" d="M 189.491144 168.877159 
L 188.418532 168.354078 
L 189.123448 165.568043 
z
" style="stroke:#000000;"/>
    <path clip-path="url(#p52e75f5960)" d="M 184.496513 156.098573 
L 186.371177 159.278666 
L 187.310262 158.912356 
z
" style="stroke:#000000;"/>
    <path clip-path="url(#p52e75f5960)" d="M 184.496513 164.632418 
L 187.310262 158.912356 
L 186.371177 159.278666 
z
" style="stroke:#000000;"/>
    <path clip-path="url(#p52e75f5960)" d="M 186.914644 168.347024 
L 187.909835 171.2333 
L 186.405947 171.229119 
z
" style="stroke:#000000;"/>
    <path clip-path="url(#p52e75f5960)" d="M 189.123448 188.733117 
L 186.914644 185.955962 
L 188.418532 185.945472 
z
" style="stroke:#000000;"/>
    <path clip-path="url(#p52e75f5960)" d="M 188.723 174.352827 
L 187.122351 177.151731 
L 188.626239 177.150012 
z
" style="stroke:#000000;"/>
    <path clip-path="url(#p52e75f5960)" d="M 188.626239 177.150012 
L 187.219112 179.951928 
L 188.723 179.947419 
z
" style="stroke:#000000;"/>
    <path clip-path="url(#p52e75f5960)" d="M 186.405947 183.072703 
L 188.418532 185.945472 
L 186.914644 185.955962 
z
" style="stroke:#000000;"/>
    <path clip-path="url(#p52e75f5960)" d="M 189.012281 171.585449 
L 187.219112 174.351755 
L 188.723 174.352827 
z
" style="stroke:#000000;"/>
    <path clip-path="url(#p52e75f5960)" d="M 188.418532 168.354078 
L 187.61956 165.558206 
L 189.123448 165.568043 
z
" style="stroke:#000000;"/>
    <path clip-path="url(#p52e75f5960)" d="M 185.995871 177.150441 
L 187.122351 177.151731 
L 186.098648 174.173962 
z
" style="stroke:#000000;"/>
    <path clip-path="url(#p52e75f5960)" d="M 187.122351 177.151731 
L 185.995871 177.150441 
L 186.098648 180.127157 
z
" style="stroke:#000000;"/>
    <path clip-path="url(#p52e75f5960)" d="M 188.723 179.947419 
L 187.508393 182.722728 
L 189.012281 182.715457 
z
" style="stroke:#000000;"/>
    <path clip-path="url(#p52e75f5960)" d="M 186.098648 174.173962 
L 187.219112 174.351755 
L 186.405947 171.229119 
z
" style="stroke:#000000;"/>
    <path clip-path="url(#p52e75f5960)" d="M 187.219112 179.951928 
L 186.098648 180.127157 
L 186.405947 183.072703 
z
" style="stroke:#000000;"/>
    <path clip-path="url(#p52e75f5960)" d="M 190.154694 188.046799 
L 189.123448 188.733117 
L 189.491144 185.424841 
z
" style="stroke:#000000;"/>
    <path clip-path="url(#p52e75f5960)" d="M 189.123448 165.568043 
L 190.154694 166.256717 
L 189.491144 168.877159 
z
" style="stroke:#000000;"/>
    <path clip-path="url(#p52e75f5960)" d="M 187.61956 165.558206 
L 188.418532 168.354078 
L 186.914644 168.347024 
z
" style="stroke:#000000;"/>
    <path clip-path="url(#p52e75f5960)" d="M 187.219112 179.951928 
L 188.626239 177.150012 
L 187.122351 177.151731 
z
" style="stroke:#000000;"/>
    <path clip-path="url(#p52e75f5960)" d="M 189.491144 168.877159 
L 187.508393 171.581617 
L 189.012281 171.585449 
z
" style="stroke:#000000;"/>
    <path clip-path="url(#p52e75f5960)" d="M 187.122351 177.151731 
L 188.723 174.352827 
L 187.219112 174.351755 
z
" style="stroke:#000000;"/>
    <path clip-path="url(#p52e75f5960)" d="M 189.123448 188.733117 
L 190.154694 188.046799 
L 190.017414 191.398434 
z
" style="stroke:#000000;"/>
    <path clip-path="url(#p52e75f5960)" d="M 190.154694 166.256717 
L 189.123448 165.568043 
L 190.017414 162.904769 
z
" style="stroke:#000000;"/>
    <path clip-path="url(#p52e75f5960)" d="M 186.098648 180.127157 
L 187.219112 179.951928 
L 187.122351 177.151731 
z
" style="stroke:#000000;"/>
    <path clip-path="url(#p52e75f5960)" d="M 187.219112 174.351755 
L 186.098648 174.173962 
L 187.122351 177.151731 
z
" style="stroke:#000000;"/>
    <path clip-path="url(#p52e75f5960)" d="M 187.508393 182.722728 
L 188.723 179.947419 
L 187.219112 179.951928 
z
" style="stroke:#000000;"/>
    <path clip-path="url(#p52e75f5960)" d="M 189.012281 182.715457 
L 187.987257 185.434819 
L 189.491144 185.424841 
z
" style="stroke:#000000;"/>
    <path clip-path="url(#p52e75f5960)" d="M 186.914644 185.955962 
L 189.123448 188.733117 
L 187.61956 188.746394 
z
" style="stroke:#000000;"/>
    <path clip-path="url(#p52e75f5960)" d="M 187.219112 174.351755 
L 189.012281 171.585449 
L 187.508393 171.581617 
z
" style="stroke:#000000;"/>
    <path clip-path="url(#p52e75f5960)" d="M 190.017414 191.398434 
L 187.61956 188.746394 
L 189.123448 188.733117 
z
" style="stroke:#000000;"/>
    <path clip-path="url(#p52e75f5960)" d="M 186.405947 171.229119 
L 187.508393 171.581617 
L 186.914644 168.347024 
z
" style="stroke:#000000;"/>
    <path clip-path="url(#p52e75f5960)" d="M 187.508393 182.722728 
L 186.405947 183.072703 
L 186.914644 185.955962 
z
" style="stroke:#000000;"/>
    <path clip-path="url(#p52e75f5960)" d="M 187.508393 171.581617 
L 186.405947 171.229119 
L 187.219112 174.351755 
z
" style="stroke:#000000;"/>
    <path clip-path="url(#p52e75f5960)" d="M 186.405947 183.072703 
L 187.508393 182.722728 
L 187.219112 179.951928 
z
" style="stroke:#000000;"/>
    <path clip-path="url(#p52e75f5960)" d="M 187.987257 185.434819 
L 189.012281 182.715457 
L 187.508393 182.722728 
z
" style="stroke:#000000;"/>
    <path clip-path="url(#p52e75f5960)" d="M 190.154694 166.256717 
L 187.987257 168.870622 
L 189.491144 168.877159 
z
" style="stroke:#000000;"/>
    <path clip-path="url(#p52e75f5960)" d="M 189.123448 165.568043 
L 188.513527 162.892267 
L 190.017414 162.904769 
z
" style="stroke:#000000;"/>
    <path clip-path="url(#p52e75f5960)" d="M 187.508393 171.581617 
L 189.491144 168.877159 
L 187.987257 168.870622 
z
" style="stroke:#000000;"/>
    <path clip-path="url(#p52e75f5960)" d="M 190.996135 190.553423 
L 190.017414 191.398434 
L 190.154694 188.046799 
z
" style="stroke:#000000;"/>
    <path clip-path="url(#p52e75f5960)" d="M 190.017414 162.904769 
L 190.996135 163.752015 
L 190.154694 166.256717 
z
" style="stroke:#000000;"/>
    <path clip-path="url(#p52e75f5960)" d="M 188.513527 162.892267 
L 189.123448 165.568043 
L 187.61956 165.558206 
z
" style="stroke:#000000;"/>
    <path clip-path="url(#p52e75f5960)" d="M 189.491144 185.424841 
L 188.650807 188.0594 
L 190.154694 188.046799 
z
" style="stroke:#000000;"/>
    <path clip-path="url(#p52e75f5960)" d="M 187.987257 168.870622 
L 186.914644 168.347024 
L 187.508393 171.581617 
z
" style="stroke:#000000;"/>
    <path clip-path="url(#p52e75f5960)" d="M 186.914644 185.955962 
L 187.987257 185.434819 
L 187.508393 182.722728 
z
" style="stroke:#000000;"/>
    <path clip-path="url(#p52e75f5960)" d="M 186.914644 168.347024 
L 187.987257 168.870622 
L 187.61956 165.558206 
z
" style="stroke:#000000;"/>
    <path clip-path="url(#p52e75f5960)" d="M 187.987257 185.434819 
L 186.914644 185.955962 
L 187.61956 188.746394 
z
" style="stroke:#000000;"/>
    <path clip-path="url(#p52e75f5960)" d="M 190.017414 191.398434 
L 190.996135 190.553423 
L 191.09127 193.91286 
z
" style="stroke:#000000;"/>
    <path clip-path="url(#p52e75f5960)" d="M 190.996135 163.752015 
L 190.017414 162.904769 
L 191.09127 160.392795 
z
" style="stroke:#000000;"/>
    <path clip-path="url(#p52e75f5960)" d="M 188.650807 188.0594 
L 189.491144 185.424841 
L 187.987257 185.434819 
z
" style="stroke:#000000;"/>
    <path clip-path="url(#p52e75f5960)" d="M 187.61956 188.746394 
L 190.017414 191.398434 
L 188.513527 191.414379 
z
" style="stroke:#000000;"/>
    <path clip-path="url(#p52e75f5960)" d="M 191.09127 193.91286 
L 188.513527 191.414379 
L 190.017414 191.398434 
z
" style="stroke:#000000;"/>
    <path clip-path="url(#p52e75f5960)" d="M 190.996135 163.752015 
L 188.650807 166.24756 
L 190.154694 166.256717 
z
" style="stroke:#000000;"/>
    <path clip-path="url(#p52e75f5960)" d="M 187.987257 168.870622 
L 190.154694 166.256717 
L 188.650807 166.24756 
z
" style="stroke:#000000;"/>
    <path clip-path="url(#p52e75f5960)" d="M 188.650807 166.24756 
L 187.61956 165.558206 
L 187.987257 168.870622 
z
" style="stroke:#000000;"/>
    <path clip-path="url(#p52e75f5960)" d="M 187.61956 188.746394 
L 188.650807 188.0594 
L 187.987257 185.434819 
z
" style="stroke:#000000;"/>
    <path clip-path="url(#p52e75f5960)" d="M 190.154694 188.046799 
L 189.492249 190.568534 
L 190.996135 190.553423 
z
" style="stroke:#000000;"/>
    <path clip-path="url(#p52e75f5960)" d="M 190.017414 162.904769 
L 189.587384 160.377775 
L 191.09127 160.392795 
z
" style="stroke:#000000;"/>
    <path clip-path="url(#p52e75f5960)" d="M 187.61956 165.558206 
L 188.650807 166.24756 
L 188.513527 162.892267 
z
" style="stroke:#000000;"/>
    <path clip-path="url(#p52e75f5960)" d="M 188.650807 188.0594 
L 187.61956 188.746394 
L 188.513527 191.414379 
z
" style="stroke:#000000;"/>
    <path clip-path="url(#p52e75f5960)" d="M 191.09127 193.91286 
L 190.996135 190.553423 
L 192.006827 192.917937 
z
" style="stroke:#000000;"/>
    <path clip-path="url(#p52e75f5960)" d="M 190.996135 163.752015 
L 191.09127 160.392795 
L 192.006827 161.38981 
z
" style="stroke:#000000;"/>
    <path clip-path="url(#p52e75f5960)" d="M 189.587384 160.377775 
L 190.017414 162.904769 
L 188.513527 162.892267 
z
" style="stroke:#000000;"/>
    <path clip-path="url(#p52e75f5960)" d="M 189.492249 190.568534 
L 190.154694 188.046799 
L 188.650807 188.0594 
z
" style="stroke:#000000;"/>
    <path clip-path="url(#p52e75f5960)" d="M 188.650807 166.24756 
L 190.996135 163.752015 
L 189.492249 163.740352 
z
" style="stroke:#000000;"/>
    <path clip-path="url(#p52e75f5960)" d="M 188.513527 191.414379 
L 191.09127 193.91286 
L 189.587384 193.931329 
z
" style="stroke:#000000;"/>
    <path clip-path="url(#p52e75f5960)" d="M 191.09127 193.91286 
L 192.006827 192.917937 
L 192.333991 196.249523 
z
" style="stroke:#000000;"/>
    <path clip-path="url(#p52e75f5960)" d="M 192.006827 161.38981 
L 191.09127 160.392795 
L 192.333991 158.058971 
z
" style="stroke:#000000;"/>
    <path clip-path="url(#p52e75f5960)" d="M 192.006827 161.38981 
L 189.492249 163.740352 
L 190.996135 163.752015 
z
" style="stroke:#000000;"/>
    <path clip-path="url(#p52e75f5960)" d="M 189.492249 163.740352 
L 188.513527 162.892267 
L 188.650807 166.24756 
z
" style="stroke:#000000;"/>
    <path clip-path="url(#p52e75f5960)" d="M 188.513527 191.414379 
L 189.492249 190.568534 
L 188.650807 188.0594 
z
" style="stroke:#000000;"/>
    <path clip-path="url(#p52e75f5960)" d="M 192.333991 196.249523 
L 189.587384 193.931329 
L 191.09127 193.91286 
z
" style="stroke:#000000;"/>
    <path clip-path="url(#p52e75f5960)" d="M 190.996135 190.553423 
L 190.502945 192.935422 
L 192.006827 192.917937 
z
" style="stroke:#000000;"/>
    <path clip-path="url(#p52e75f5960)" d="M 188.513527 162.892267 
L 189.492249 163.740352 
L 189.587384 160.377775 
z
" style="stroke:#000000;"/>
    <path clip-path="url(#p52e75f5960)" d="M 189.492249 190.568534 
L 188.513527 191.414379 
L 189.587384 193.931329 
z
" style="stroke:#000000;"/>
    <path clip-path="url(#p52e75f5960)" d="M 190.502945 192.935422 
L 190.996135 190.553423 
L 189.492249 190.568534 
z
" style="stroke:#000000;"/>
    <path clip-path="url(#p52e75f5960)" d="M 191.09127 160.392795 
L 190.83011 158.041605 
L 192.333991 158.058971 
z
" style="stroke:#000000;"/>
    <path clip-path="url(#p52e75f5960)" d="M 192.333991 196.249523 
L 192.006827 192.917937 
L 193.176351 195.114765 
z
" style="stroke:#000000;"/>
    <path clip-path="url(#p52e75f5960)" d="M 192.006827 161.38981 
L 192.333991 158.058971 
L 193.176351 159.195653 
z
" style="stroke:#000000;"/>
    <path clip-path="url(#p52e75f5960)" d="M 190.83011 158.041605 
L 191.09127 160.392795 
L 189.587384 160.377775 
z
" style="stroke:#000000;"/>
    <path clip-path="url(#p52e75f5960)" d="M 189.492249 163.740352 
L 192.006827 161.38981 
L 190.502945 161.375778 
z
" style="stroke:#000000;"/>
    <path clip-path="url(#p52e75f5960)" d="M 189.587384 160.377775 
L 189.492249 163.740352 
L 190.502945 161.375778 
z
" style="stroke:#000000;"/>
    <path clip-path="url(#p52e75f5960)" d="M 189.492249 190.568534 
L 189.587384 193.931329 
L 190.502945 192.935422 
z
" style="stroke:#000000;"/>
    <path clip-path="url(#p52e75f5960)" d="M 193.176351 159.195653 
L 190.502945 161.375778 
L 192.006827 161.38981 
z
" style="stroke:#000000;"/>
    <path clip-path="url(#p52e75f5960)" d="M 189.587384 193.931329 
L 192.333991 196.249523 
L 190.83011 196.270344 
z
" style="stroke:#000000;"/>
    <path clip-path="url(#p52e75f5960)" d="M 192.333991 196.249523 
L 193.527182 196.94248 
L 193.033054 197.315749 
z
" style="stroke:#000000;"/>
    <path clip-path="url(#p52e75f5960)" d="M 193.527182 157.36874 
L 192.333991 158.058971 
L 193.033054 156.994343 
z
" style="stroke:#000000;"/>
    <path clip-path="url(#p52e75f5960)" d="M 193.527182 196.94248 
L 192.333991 196.249523 
L 193.176351 195.114765 
z
" style="stroke:#000000;"/>
    <path clip-path="url(#p52e75f5960)" d="M 192.333991 158.058971 
L 193.527182 157.36874 
L 193.176351 159.195653 
z
" style="stroke:#000000;"/>
    <path clip-path="url(#p52e75f5960)" d="M 193.033054 197.315749 
L 190.83011 196.270344 
L 192.333991 196.249523 
z
" style="stroke:#000000;"/>
    <path clip-path="url(#p52e75f5960)" d="M 192.006827 192.917937 
L 191.672474 195.134462 
L 193.176351 195.114765 
z
" style="stroke:#000000;"/>
    <path clip-path="url(#p52e75f5960)" d="M 192.333991 158.058971 
L 191.529177 156.975903 
L 193.033054 156.994343 
z
" style="stroke:#000000;"/>
    <path clip-path="url(#p52e75f5960)" d="M 189.587384 160.377775 
L 190.502945 161.375778 
L 190.83011 158.041605 
z
" style="stroke:#000000;"/>
    <path clip-path="url(#p52e75f5960)" d="M 190.502945 192.935422 
L 189.587384 193.931329 
L 190.83011 196.270344 
z
" style="stroke:#000000;"/>
    <path clip-path="url(#p52e75f5960)" d="M 191.672474 195.134462 
L 192.006827 192.917937 
L 190.502945 192.935422 
z
" style="stroke:#000000;"/>
    <path clip-path="url(#p52e75f5960)" d="M 191.529177 156.975903 
L 192.333991 158.058971 
L 190.83011 158.041605 
z
" style="stroke:#000000;"/>
    <path clip-path="url(#p52e75f5960)" d="M 193.527182 196.94248 
L 193.176351 195.114765 
L 194.046506 196.440523 
z
" style="stroke:#000000;"/>
    <path clip-path="url(#p52e75f5960)" d="M 193.176351 159.195653 
L 193.527182 157.36874 
L 194.046506 157.871884 
z
" style="stroke:#000000;"/>
    <path clip-path="url(#p52e75f5960)" d="M 191.529177 156.975903 
L 193.527182 157.36874 
L 193.033054 156.994343 
z
" style="stroke:#000000;"/>
    <path clip-path="url(#p52e75f5960)" d="M 190.502945 161.375778 
L 193.176351 159.195653 
L 191.672474 159.179415 
z
" style="stroke:#000000;"/>
    <path clip-path="url(#p52e75f5960)" d="M 190.83011 196.270344 
L 193.033054 197.315749 
L 191.529177 197.337645 
z
" style="stroke:#000000;"/>
    <path clip-path="url(#p52e75f5960)" d="M 192.023307 196.96401 
L 193.033054 197.315749 
L 193.527182 196.94248 
z
" style="stroke:#000000;"/>
    <path clip-path="url(#p52e75f5960)" d="M 191.672474 195.134462 
L 194.046506 196.440523 
L 193.176351 195.114765 
z
" style="stroke:#000000;"/>
    <path clip-path="url(#p52e75f5960)" d="M 190.83011 158.041605 
L 190.502945 161.375778 
L 191.672474 159.179415 
z
" style="stroke:#000000;"/>
    <path clip-path="url(#p52e75f5960)" d="M 190.502945 192.935422 
L 190.83011 196.270344 
L 191.672474 195.134462 
z
" style="stroke:#000000;"/>
    <path clip-path="url(#p52e75f5960)" d="M 192.023307 157.35067 
L 194.046506 157.871884 
L 193.527182 157.36874 
z
" style="stroke:#000000;"/>
    <path clip-path="url(#p52e75f5960)" d="M 193.033054 197.315749 
L 192.023307 196.96401 
L 191.529177 197.337645 
z
" style="stroke:#000000;"/>
    <path clip-path="url(#p52e75f5960)" d="M 192.542634 157.854311 
L 193.176351 159.195653 
L 194.046506 157.871884 
z
" style="stroke:#000000;"/>
    <path clip-path="url(#p52e75f5960)" d="M 193.527182 157.36874 
L 191.529177 156.975903 
L 192.023307 157.35067 
z
" style="stroke:#000000;"/>
    <path clip-path="url(#p52e75f5960)" d="M 192.542634 196.461558 
L 193.527182 196.94248 
L 194.046506 196.440523 
z
" style="stroke:#000000;"/>
    <path clip-path="url(#p52e75f5960)" d="M 193.176351 159.195653 
L 192.542634 157.854311 
L 191.672474 159.179415 
z
" style="stroke:#000000;"/>
    <path clip-path="url(#p52e75f5960)" d="M 190.83011 158.041605 
L 192.023307 157.35067 
L 191.529177 156.975903 
z
" style="stroke:#000000;"/>
    <path clip-path="url(#p52e75f5960)" d="M 192.023307 196.96401 
L 190.83011 196.270344 
L 191.529177 197.337645 
z
" style="stroke:#000000;"/>
    <path clip-path="url(#p52e75f5960)" d="M 192.023307 157.35067 
L 190.83011 158.041605 
L 191.672474 159.179415 
z
" style="stroke:#000000;"/>
    <path clip-path="url(#p52e75f5960)" d="M 190.83011 196.270344 
L 192.023307 196.96401 
L 191.672474 195.134462 
z
" style="stroke:#000000;"/>
    <path clip-path="url(#p52e75f5960)" d="M 193.527182 196.94248 
L 192.542634 196.461558 
L 192.023307 196.96401 
z
" style="stroke:#000000;"/>
    <path clip-path="url(#p52e75f5960)" d="M 194.046506 196.440523 
L 191.672474 195.134462 
L 192.542634 196.461558 
z
" style="stroke:#000000;"/>
    <path clip-path="url(#p52e75f5960)" d="M 194.046506 157.871884 
L 192.023307 157.35067 
L 192.542634 157.854311 
z
" style="stroke:#000000;"/>
    <path clip-path="url(#p52e75f5960)" d="M 192.023307 157.35067 
L 191.672474 159.179415 
L 192.542634 157.854311 
z
" style="stroke:#000000;"/>
    <path clip-path="url(#p52e75f5960)" d="M 191.672474 195.134462 
L 192.023307 196.96401 
L 192.542634 196.461558 
z
" style="stroke:#000000;"/>
   </g>
  </g>
 </g>
 <defs>
  <clipPath id="p52e75f5960">
   <rect height="271.8" width="279" x="45" y="43.2"/>
  </clipPath>
 </defs>
</svg>
