<?xml version="1.0" encoding="utf-8" standalone="no"?>
<!DOCTYPE svg PUBLIC "-//W3C//DTD SVG 1.1//EN"
  "http://www.w3.org/Graphics/SVG/1.1/DTD/svg11.dtd">
<!-- Created with matplotlib (https://matplotlib.org/) -->
<svg height="360pt" version="1.1" viewBox="0 0 360 360" width="360pt" xmlns="http://www.w3.org/2000/svg" xmlns:xlink="http://www.w3.org/1999/xlink">
 <defs>
  <style type="text/css">
*{stroke-linecap:butt;stroke-linejoin:round;}
  </style>
 </defs>
 <g id="figure_1">
  <g id="patch_1">
   <path d="M 45 315 
L 324 315 
L 324 43.2 
L 45 43.2 
z
" style="fill:#ffffff;"/>
  </g>
  <g id="axes_1">
   <g id="Poly3DCollection_1">
    <path clip-path="url(#pb97dae6c14)" d="M 179.908074 194.913866 
L 179.612386 196.712513 
L 179.17522 196.20088 
z
" style="stroke:#000000;"/>
    <path clip-path="url(#pb97dae6c14)" d="M 179.612386 157.561755 
L 179.908074 159.361283 
L 179.17522 158.072087 
z
" style="stroke:#000000;"/>
    <path clip-path="url(#pb97dae6c14)" d="M 177.493251 158.057303 
L 179.612386 157.561755 
L 179.17522 158.072087 
z
" style="stroke:#000000;"/>
    <path clip-path="url(#pb97dae6c14)" d="M 177.493251 196.218576 
L 179.908074 194.913866 
L 179.17522 196.20088 
z
" style="stroke:#000000;"/>
    <path clip-path="url(#pb97dae6c14)" d="M 177.930148 196.730652 
L 179.17522 196.20088 
L 179.612386 196.712513 
z
" style="stroke:#000000;"/>
    <path clip-path="url(#pb97dae6c14)" d="M 179.17522 196.20088 
L 177.930148 196.730652 
L 177.493251 196.218576 
z
" style="stroke:#000000;"/>
    <path clip-path="url(#pb97dae6c14)" d="M 178.225655 159.347589 
L 179.17522 158.072087 
L 179.908074 159.361283 
z
" style="stroke:#000000;"/>
    <path clip-path="url(#pb97dae6c14)" d="M 180.619215 196.06129 
L 179.612386 196.712513 
L 179.908074 194.913866 
z
" style="stroke:#000000;"/>
    <path clip-path="url(#pb97dae6c14)" d="M 179.612386 157.561755 
L 180.619215 158.215976 
L 179.908074 159.361283 
z
" style="stroke:#000000;"/>
    <path clip-path="url(#pb97dae6c14)" d="M 179.17522 158.072087 
L 178.225655 159.347589 
L 177.493251 158.057303 
z
" style="stroke:#000000;"/>
    <path clip-path="url(#pb97dae6c14)" d="M 177.930148 157.546531 
L 180.02893 157.178787 
L 179.612386 157.561755 
z
" style="stroke:#000000;"/>
    <path clip-path="url(#pb97dae6c14)" d="M 179.612386 196.712513 
L 180.619215 196.06129 
L 180.02893 197.096721 
z
" style="stroke:#000000;"/>
    <path clip-path="url(#pb97dae6c14)" d="M 180.619215 158.215976 
L 179.612386 157.561755 
L 180.02893 157.178787 
z
" style="stroke:#000000;"/>
    <path clip-path="url(#pb97dae6c14)" d="M 179.612386 157.561755 
L 177.493251 158.057303 
L 177.930148 157.546531 
z
" style="stroke:#000000;"/>
    <path clip-path="url(#pb97dae6c14)" d="M 178.346437 197.115194 
L 179.612386 196.712513 
L 180.02893 197.096721 
z
" style="stroke:#000000;"/>
    <path clip-path="url(#pb97dae6c14)" d="M 179.908074 194.913866 
L 177.493251 196.218576 
L 178.225655 194.930477 
z
" style="stroke:#000000;"/>
    <path clip-path="url(#pb97dae6c14)" d="M 179.612386 196.712513 
L 178.346437 197.115194 
L 177.930148 196.730652 
z
" style="stroke:#000000;"/>
    <path clip-path="url(#pb97dae6c14)" d="M 180.619215 196.06129 
L 179.908074 194.913866 
L 180.895865 192.767744 
z
" style="stroke:#000000;"/>
    <path clip-path="url(#pb97dae6c14)" d="M 179.908074 159.361283 
L 180.619215 158.215976 
L 180.895865 161.510347 
z
" style="stroke:#000000;"/>
    <path clip-path="url(#pb97dae6c14)" d="M 180.02893 157.178787 
L 177.930148 157.546531 
L 178.346437 157.163231 
z
" style="stroke:#000000;"/>
    <path clip-path="url(#pb97dae6c14)" d="M 178.225655 159.347589 
L 177.930148 157.546531 
L 177.493251 158.057303 
z
" style="stroke:#000000;"/>
    <path clip-path="url(#pb97dae6c14)" d="M 177.930148 196.730652 
L 178.225655 194.930477 
L 177.493251 196.218576 
z
" style="stroke:#000000;"/>
    <path clip-path="url(#pb97dae6c14)" d="M 180.619215 196.06129 
L 178.346437 197.115194 
L 180.02893 197.096721 
z
" style="stroke:#000000;"/>
    <path clip-path="url(#pb97dae6c14)" d="M 180.895865 161.510347 
L 178.225655 159.347589 
L 179.908074 159.361283 
z
" style="stroke:#000000;"/>
    <path clip-path="url(#pb97dae6c14)" d="M 180.02893 157.178787 
L 178.93636 158.201296 
L 180.619215 158.215976 
z
" style="stroke:#000000;"/>
    <path clip-path="url(#pb97dae6c14)" d="M 178.93636 158.201296 
L 180.02893 157.178787 
L 178.346437 157.163231 
z
" style="stroke:#000000;"/>
    <path clip-path="url(#pb97dae6c14)" d="M 179.212841 192.782538 
L 179.908074 194.913866 
L 178.225655 194.930477 
z
" style="stroke:#000000;"/>
    <path clip-path="url(#pb97dae6c14)" d="M 179.908074 194.913866 
L 179.212841 192.782538 
L 180.895865 192.767744 
z
" style="stroke:#000000;"/>
    <path clip-path="url(#pb97dae6c14)" d="M 178.93636 158.201296 
L 177.930148 157.546531 
L 178.225655 159.347589 
z
" style="stroke:#000000;"/>
    <path clip-path="url(#pb97dae6c14)" d="M 177.930148 196.730652 
L 178.93636 196.07889 
L 178.225655 194.930477 
z
" style="stroke:#000000;"/>
    <path clip-path="url(#pb97dae6c14)" d="M 180.619215 196.06129 
L 180.895865 192.767744 
L 181.671411 193.777598 
z
" style="stroke:#000000;"/>
    <path clip-path="url(#pb97dae6c14)" d="M 180.895865 161.510347 
L 180.619215 158.215976 
L 181.671411 160.502802 
z
" style="stroke:#000000;"/>
    <path clip-path="url(#pb97dae6c14)" d="M 177.930148 157.546531 
L 178.93636 158.201296 
L 178.346437 157.163231 
z
" style="stroke:#000000;"/>
    <path clip-path="url(#pb97dae6c14)" d="M 178.93636 196.07889 
L 177.930148 196.730652 
L 178.346437 197.115194 
z
" style="stroke:#000000;"/>
    <path clip-path="url(#pb97dae6c14)" d="M 178.346437 197.115194 
L 180.619215 196.06129 
L 178.93636 196.07889 
z
" style="stroke:#000000;"/>
    <path clip-path="url(#pb97dae6c14)" d="M 178.225655 159.347589 
L 180.895865 161.510347 
L 179.212841 161.498474 
z
" style="stroke:#000000;"/>
    <path clip-path="url(#pb97dae6c14)" d="M 181.671411 193.777598 
L 178.93636 196.07889 
L 180.619215 196.06129 
z
" style="stroke:#000000;"/>
    <path clip-path="url(#pb97dae6c14)" d="M 181.671411 193.777598 
L 180.895865 192.767744 
L 181.752111 190.444741 
z
" style="stroke:#000000;"/>
    <path clip-path="url(#pb97dae6c14)" d="M 180.895865 161.510347 
L 181.671411 160.502802 
L 181.752111 163.8359 
z
" style="stroke:#000000;"/>
    <path clip-path="url(#pb97dae6c14)" d="M 178.93636 158.201296 
L 178.225655 159.347589 
L 179.212841 161.498474 
z
" style="stroke:#000000;"/>
    <path clip-path="url(#pb97dae6c14)" d="M 178.225655 194.930477 
L 178.93636 196.07889 
L 179.212841 192.782538 
z
" style="stroke:#000000;"/>
    <path clip-path="url(#pb97dae6c14)" d="M 181.752111 163.8359 
L 179.212841 161.498474 
L 180.895865 161.510347 
z
" style="stroke:#000000;"/>
    <path clip-path="url(#pb97dae6c14)" d="M 179.987913 160.490061 
L 180.619215 158.215976 
L 178.93636 158.201296 
z
" style="stroke:#000000;"/>
    <path clip-path="url(#pb97dae6c14)" d="M 180.619215 158.215976 
L 179.987913 160.490061 
L 181.671411 160.502802 
z
" style="stroke:#000000;"/>
    <path clip-path="url(#pb97dae6c14)" d="M 180.895865 192.767744 
L 180.068564 190.457562 
L 181.752111 190.444741 
z
" style="stroke:#000000;"/>
    <path clip-path="url(#pb97dae6c14)" d="M 180.068564 190.457562 
L 180.895865 192.767744 
L 179.212841 192.782538 
z
" style="stroke:#000000;"/>
    <path clip-path="url(#pb97dae6c14)" d="M 178.93636 196.07889 
L 181.671411 193.777598 
L 179.987913 193.793264 
z
" style="stroke:#000000;"/>
    <path clip-path="url(#pb97dae6c14)" d="M 181.671411 193.777598 
L 181.752111 190.444741 
L 182.583582 191.305424 
z
" style="stroke:#000000;"/>
    <path clip-path="url(#pb97dae6c14)" d="M 181.752111 163.8359 
L 181.671411 160.502802 
L 182.583582 162.977692 
z
" style="stroke:#000000;"/>
    <path clip-path="url(#pb97dae6c14)" d="M 178.93636 158.201296 
L 179.212841 161.498474 
L 179.987913 160.490061 
z
" style="stroke:#000000;"/>
    <path clip-path="url(#pb97dae6c14)" d="M 179.212841 192.782538 
L 178.93636 196.07889 
L 179.987913 193.793264 
z
" style="stroke:#000000;"/>
    <path clip-path="url(#pb97dae6c14)" d="M 179.212841 161.498474 
L 181.752111 163.8359 
L 180.068564 163.826003 
z
" style="stroke:#000000;"/>
    <path clip-path="url(#pb97dae6c14)" d="M 182.583582 191.305424 
L 181.752111 190.444741 
L 182.466818 187.970895 
z
" style="stroke:#000000;"/>
    <path clip-path="url(#pb97dae6c14)" d="M 181.752111 163.8359 
L 182.583582 162.977692 
L 182.466818 166.311873 
z
" style="stroke:#000000;"/>
    <path clip-path="url(#pb97dae6c14)" d="M 182.583582 191.305424 
L 179.987913 193.793264 
L 181.671411 193.777598 
z
" style="stroke:#000000;"/>
    <path clip-path="url(#pb97dae6c14)" d="M 182.466818 166.311873 
L 180.068564 163.826003 
L 181.752111 163.8359 
z
" style="stroke:#000000;"/>
    <path clip-path="url(#pb97dae6c14)" d="M 179.987913 160.490061 
L 179.212841 161.498474 
L 180.068564 163.826003 
z
" style="stroke:#000000;"/>
    <path clip-path="url(#pb97dae6c14)" d="M 179.212841 192.782538 
L 179.987913 193.793264 
L 180.068564 190.457562 
z
" style="stroke:#000000;"/>
    <path clip-path="url(#pb97dae6c14)" d="M 181.752111 190.444741 
L 180.782835 187.981611 
L 182.466818 187.970895 
z
" style="stroke:#000000;"/>
    <path clip-path="url(#pb97dae6c14)" d="M 181.671411 160.502802 
L 180.899527 162.967056 
L 182.583582 162.977692 
z
" style="stroke:#000000;"/>
    <path clip-path="url(#pb97dae6c14)" d="M 180.899527 162.967056 
L 181.671411 160.502802 
L 179.987913 160.490061 
z
" style="stroke:#000000;"/>
    <path clip-path="url(#pb97dae6c14)" d="M 180.782835 187.981611 
L 181.752111 190.444741 
L 180.068564 190.457562 
z
" style="stroke:#000000;"/>
    <path clip-path="url(#pb97dae6c14)" d="M 182.466818 187.970895 
L 183.345045 188.672219 
L 182.583582 191.305424 
z
" style="stroke:#000000;"/>
    <path clip-path="url(#pb97dae6c14)" d="M 183.345045 165.613165 
L 182.466818 166.311873 
L 182.583582 162.977692 
z
" style="stroke:#000000;"/>
    <path clip-path="url(#pb97dae6c14)" d="M 180.068564 163.826003 
L 182.466818 166.311873 
L 180.782835 166.304086 
z
" style="stroke:#000000;"/>
    <path clip-path="url(#pb97dae6c14)" d="M 179.987913 193.793264 
L 182.583582 191.305424 
L 180.899527 191.31899 
z
" style="stroke:#000000;"/>
    <path clip-path="url(#pb97dae6c14)" d="M 183.345045 188.672219 
L 182.466818 187.970895 
L 183.031617 185.373953 
z
" style="stroke:#000000;"/>
    <path clip-path="url(#pb97dae6c14)" d="M 182.466818 166.311873 
L 183.345045 165.613165 
L 183.031617 168.910497 
z
" style="stroke:#000000;"/>
    <path clip-path="url(#pb97dae6c14)" d="M 183.031617 168.910497 
L 180.782835 166.304086 
L 182.466818 166.311873 
z
" style="stroke:#000000;"/>
    <path clip-path="url(#pb97dae6c14)" d="M 179.987913 160.490061 
L 180.068564 163.826003 
L 180.899527 162.967056 
z
" style="stroke:#000000;"/>
    <path clip-path="url(#pb97dae6c14)" d="M 180.068564 190.457562 
L 179.987913 193.793264 
L 180.899527 191.31899 
z
" style="stroke:#000000;"/>
    <path clip-path="url(#pb97dae6c14)" d="M 183.345045 188.672219 
L 180.899527 191.31899 
L 182.583582 191.305424 
z
" style="stroke:#000000;"/>
    <path clip-path="url(#pb97dae6c14)" d="M 182.466818 187.970895 
L 181.34729 185.382455 
L 183.031617 185.373953 
z
" style="stroke:#000000;"/>
    <path clip-path="url(#pb97dae6c14)" d="M 180.899527 162.967056 
L 180.068564 163.826003 
L 180.782835 166.304086 
z
" style="stroke:#000000;"/>
    <path clip-path="url(#pb97dae6c14)" d="M 180.068564 190.457562 
L 180.899527 191.31899 
L 180.782835 187.981611 
z
" style="stroke:#000000;"/>
    <path clip-path="url(#pb97dae6c14)" d="M 181.34729 185.382455 
L 182.466818 187.970895 
L 180.782835 187.981611 
z
" style="stroke:#000000;"/>
    <path clip-path="url(#pb97dae6c14)" d="M 182.583582 162.977692 
L 181.660527 165.604774 
L 183.345045 165.613165 
z
" style="stroke:#000000;"/>
    <path clip-path="url(#pb97dae6c14)" d="M 183.031617 185.373953 
L 183.946826 185.907696 
L 183.345045 188.672219 
z
" style="stroke:#000000;"/>
    <path clip-path="url(#pb97dae6c14)" d="M 183.946826 168.37948 
L 183.031617 168.910497 
L 183.345045 165.613165 
z
" style="stroke:#000000;"/>
    <path clip-path="url(#pb97dae6c14)" d="M 183.946826 185.907696 
L 183.031617 185.373953 
L 183.439868 182.683231 
z
" style="stroke:#000000;"/>
    <path clip-path="url(#pb97dae6c14)" d="M 183.031617 168.910497 
L 183.946826 168.37948 
L 183.439868 171.602435 
z
" style="stroke:#000000;"/>
    <path clip-path="url(#pb97dae6c14)" d="M 181.660527 165.604774 
L 182.583582 162.977692 
L 180.899527 162.967056 
z
" style="stroke:#000000;"/>
    <path clip-path="url(#pb97dae6c14)" d="M 183.439868 171.602435 
L 181.34729 168.904928 
L 183.031617 168.910497 
z
" style="stroke:#000000;"/>
    <path clip-path="url(#pb97dae6c14)" d="M 180.782835 166.304086 
L 183.031617 168.910497 
L 181.34729 168.904928 
z
" style="stroke:#000000;"/>
    <path clip-path="url(#pb97dae6c14)" d="M 183.031617 185.373953 
L 181.755292 182.689435 
L 183.439868 182.683231 
z
" style="stroke:#000000;"/>
    <path clip-path="url(#pb97dae6c14)" d="M 180.899527 191.31899 
L 183.345045 188.672219 
L 181.660527 188.683543 
z
" style="stroke:#000000;"/>
    <path clip-path="url(#pb97dae6c14)" d="M 180.782835 166.304086 
L 181.660527 165.604774 
L 180.899527 162.967056 
z
" style="stroke:#000000;"/>
    <path clip-path="url(#pb97dae6c14)" d="M 181.660527 188.683543 
L 180.782835 187.981611 
L 180.899527 191.31899 
z
" style="stroke:#000000;"/>
    <path clip-path="url(#pb97dae6c14)" d="M 181.755292 182.689435 
L 183.031617 185.373953 
L 181.34729 185.382455 
z
" style="stroke:#000000;"/>
    <path clip-path="url(#pb97dae6c14)" d="M 184.381838 183.043097 
L 183.439868 182.683231 
L 183.686758 179.929259 
z
" style="stroke:#000000;"/>
    <path clip-path="url(#pb97dae6c14)" d="M 183.439868 171.602435 
L 184.381838 171.245374 
L 183.686758 174.357142 
z
" style="stroke:#000000;"/>
    <path clip-path="url(#pb97dae6c14)" d="M 183.686758 174.357142 
L 181.755292 171.599165 
L 183.439868 171.602435 
z
" style="stroke:#000000;"/>
    <path clip-path="url(#pb97dae6c14)" d="M 183.946826 185.907696 
L 181.660527 188.683543 
L 183.345045 188.672219 
z
" style="stroke:#000000;"/>
    <path clip-path="url(#pb97dae6c14)" d="M 183.439868 182.683231 
L 184.381838 183.043097 
L 183.946826 185.907696 
z
" style="stroke:#000000;"/>
    <path clip-path="url(#pb97dae6c14)" d="M 184.381838 171.245374 
L 183.439868 171.602435 
L 183.946826 168.37948 
z
" style="stroke:#000000;"/>
    <path clip-path="url(#pb97dae6c14)" d="M 181.660527 165.604774 
L 180.782835 166.304086 
L 181.34729 168.904928 
z
" style="stroke:#000000;"/>
    <path clip-path="url(#pb97dae6c14)" d="M 180.782835 187.981611 
L 181.660527 188.683543 
L 181.34729 185.382455 
z
" style="stroke:#000000;"/>
    <path clip-path="url(#pb97dae6c14)" d="M 183.439868 182.683231 
L 182.002032 179.93311 
L 183.686758 179.929259 
z
" style="stroke:#000000;"/>
    <path clip-path="url(#pb97dae6c14)" d="M 181.34729 168.904928 
L 183.439868 171.602435 
L 181.755292 171.599165 
z
" style="stroke:#000000;"/>
    <path clip-path="url(#pb97dae6c14)" d="M 183.686758 174.357142 
L 184.644927 174.178274 
L 183.769384 177.143324 
z
" style="stroke:#000000;"/>
    <path clip-path="url(#pb97dae6c14)" d="M 184.644927 180.11098 
L 183.686758 179.929259 
L 183.769384 177.143324 
z
" style="stroke:#000000;"/>
    <path clip-path="url(#pb97dae6c14)" d="M 183.769384 177.143324 
L 182.002032 174.356227 
L 183.686758 174.357142 
z
" style="stroke:#000000;"/>
    <path clip-path="url(#pb97dae6c14)" d="M 183.686758 179.929259 
L 182.084608 177.144792 
L 183.769384 177.143324 
z
" style="stroke:#000000;"/>
    <path clip-path="url(#pb97dae6c14)" d="M 183.345045 165.613165 
L 182.261942 168.373451 
L 183.946826 168.37948 
z
" style="stroke:#000000;"/>
    <path clip-path="url(#pb97dae6c14)" d="M 182.002032 179.93311 
L 183.439868 182.683231 
L 181.755292 182.689435 
z
" style="stroke:#000000;"/>
    <path clip-path="url(#pb97dae6c14)" d="M 182.261942 168.373451 
L 183.345045 165.613165 
L 181.660527 165.604774 
z
" style="stroke:#000000;"/>
    <path clip-path="url(#pb97dae6c14)" d="M 183.686758 179.929259 
L 184.644927 180.11098 
L 184.381838 183.043097 
z
" style="stroke:#000000;"/>
    <path clip-path="url(#pb97dae6c14)" d="M 184.644927 174.178274 
L 183.686758 174.357142 
L 184.381838 171.245374 
z
" style="stroke:#000000;"/>
    <path clip-path="url(#pb97dae6c14)" d="M 181.755292 171.599165 
L 183.686758 174.357142 
L 182.002032 174.356227 
z
" style="stroke:#000000;"/>
    <path clip-path="url(#pb97dae6c14)" d="M 182.084608 177.144792 
L 183.686758 179.929259 
L 182.002032 179.93311 
z
" style="stroke:#000000;"/>
    <path clip-path="url(#pb97dae6c14)" d="M 183.769384 177.143324 
L 184.732969 177.144758 
L 184.644927 180.11098 
z
" style="stroke:#000000;"/>
    <path clip-path="url(#pb97dae6c14)" d="M 184.732969 177.144758 
L 183.769384 177.143324 
L 184.644927 174.178274 
z
" style="stroke:#000000;"/>
    <path clip-path="url(#pb97dae6c14)" d="M 182.002032 174.356227 
L 183.769384 177.143324 
L 182.084608 177.144792 
z
" style="stroke:#000000;"/>
    <path clip-path="url(#pb97dae6c14)" d="M 181.660527 188.683543 
L 183.946826 185.907696 
L 182.261942 185.916661 
z
" style="stroke:#000000;"/>
    <path clip-path="url(#pb97dae6c14)" d="M 184.381838 183.043097 
L 182.261942 185.916661 
L 183.946826 185.907696 
z
" style="stroke:#000000;"/>
    <path clip-path="url(#pb97dae6c14)" d="M 181.34729 168.904928 
L 182.261942 168.373451 
L 181.660527 165.604774 
z
" style="stroke:#000000;"/>
    <path clip-path="url(#pb97dae6c14)" d="M 182.261942 185.916661 
L 181.34729 185.382455 
L 181.660527 188.683543 
z
" style="stroke:#000000;"/>
    <path clip-path="url(#pb97dae6c14)" d="M 182.261942 168.373451 
L 181.34729 168.904928 
L 181.755292 171.599165 
z
" style="stroke:#000000;"/>
    <path clip-path="url(#pb97dae6c14)" d="M 181.34729 185.382455 
L 182.261942 185.916661 
L 181.755292 182.689435 
z
" style="stroke:#000000;"/>
    <path clip-path="url(#pb97dae6c14)" d="M 183.946826 168.37948 
L 182.696691 171.241795 
L 184.381838 171.245374 
z
" style="stroke:#000000;"/>
    <path clip-path="url(#pb97dae6c14)" d="M 186.020256 164.645274 
L 183.608944 158.997193 
L 184.411595 159.34041 
z
" style="stroke:#000000;"/>
    <path clip-path="url(#pb97dae6c14)" d="M 186.020256 156.121592 
L 184.411595 159.34041 
L 183.608944 158.997193 
z
" style="stroke:#000000;"/>
    <path clip-path="url(#pb97dae6c14)" d="M 181.924265 158.983143 
L 186.020256 156.121592 
L 183.608944 158.997193 
z
" style="stroke:#000000;"/>
    <path clip-path="url(#pb97dae6c14)" d="M 186.020256 167.486502 
L 181.924265 158.983143 
L 183.608944 158.997193 
z
" style="stroke:#000000;"/>
    <path clip-path="url(#pb97dae6c14)" d="M 182.696691 171.241795 
L 183.946826 168.37948 
L 182.261942 168.373451 
z
" style="stroke:#000000;"/>
    <path clip-path="url(#pb97dae6c14)" d="M 184.644927 180.11098 
L 182.696691 183.049614 
L 184.381838 183.043097 
z
" style="stroke:#000000;"/>
    <path clip-path="url(#pb97dae6c14)" d="M 182.696691 171.241795 
L 181.755292 171.599165 
L 182.002032 174.356227 
z
" style="stroke:#000000;"/>
    <path clip-path="url(#pb97dae6c14)" d="M 181.755292 182.689435 
L 182.696691 183.049614 
L 182.002032 179.93311 
z
" style="stroke:#000000;"/>
    <path clip-path="url(#pb97dae6c14)" d="M 184.381838 171.245374 
L 182.959619 174.177205 
L 184.644927 174.178274 
z
" style="stroke:#000000;"/>
    <path clip-path="url(#pb97dae6c14)" d="M 182.261942 185.916661 
L 184.381838 183.043097 
L 182.696691 183.049614 
z
" style="stroke:#000000;"/>
    <path clip-path="url(#pb97dae6c14)" d="M 181.755292 171.599165 
L 182.696691 171.241795 
L 182.261942 168.373451 
z
" style="stroke:#000000;"/>
    <path clip-path="url(#pb97dae6c14)" d="M 182.696691 183.049614 
L 181.755292 182.689435 
L 182.261942 185.916661 
z
" style="stroke:#000000;"/>
    <path clip-path="url(#pb97dae6c14)" d="M 184.732969 177.144758 
L 182.959619 180.114989 
L 184.644927 180.11098 
z
" style="stroke:#000000;"/>
    <path clip-path="url(#pb97dae6c14)" d="M 182.002032 179.93311 
L 182.959619 180.114989 
L 182.084608 177.144792 
z
" style="stroke:#000000;"/>
    <path clip-path="url(#pb97dae6c14)" d="M 182.959619 174.177205 
L 182.002032 174.356227 
L 182.084608 177.144792 
z
" style="stroke:#000000;"/>
    <path clip-path="url(#pb97dae6c14)" d="M 184.644927 174.178274 
L 183.047608 177.146229 
L 184.732969 177.144758 
z
" style="stroke:#000000;"/>
    <path clip-path="url(#pb97dae6c14)" d="M 182.959619 174.177205 
L 184.381838 171.245374 
L 182.696691 171.241795 
z
" style="stroke:#000000;"/>
    <path clip-path="url(#pb97dae6c14)" d="M 182.696691 183.049614 
L 184.644927 180.11098 
L 182.959619 180.114989 
z
" style="stroke:#000000;"/>
    <path clip-path="url(#pb97dae6c14)" d="M 183.608944 158.997193 
L 186.020256 164.645274 
L 186.020256 167.486502 
z
" style="stroke:#000000;"/>
    <path clip-path="url(#pb97dae6c14)" d="M 182.002032 174.356227 
L 182.959619 174.177205 
L 182.696691 171.241795 
z
" style="stroke:#000000;"/>
    <path clip-path="url(#pb97dae6c14)" d="M 182.959619 180.114989 
L 182.002032 179.93311 
L 182.696691 183.049614 
z
" style="stroke:#000000;"/>
    <path clip-path="url(#pb97dae6c14)" d="M 183.047608 177.146229 
L 184.644927 174.178274 
L 182.959619 174.177205 
z
" style="stroke:#000000;"/>
    <path clip-path="url(#pb97dae6c14)" d="M 182.959619 180.114989 
L 184.732969 177.144758 
L 183.047608 177.146229 
z
" style="stroke:#000000;"/>
    <path clip-path="url(#pb97dae6c14)" d="M 182.084608 177.144792 
L 183.047608 177.146229 
L 182.959619 174.177205 
z
" style="stroke:#000000;"/>
    <path clip-path="url(#pb97dae6c14)" d="M 183.047608 177.146229 
L 182.084608 177.144792 
L 182.959619 180.114989 
z
" style="stroke:#000000;"/>
    <path clip-path="url(#pb97dae6c14)" d="M 184.411595 159.34041 
L 186.020256 156.121592 
L 186.020256 157.542205 
z
" style="stroke:#000000;"/>
    <path clip-path="url(#pb97dae6c14)" d="M 184.411595 159.34041 
L 184.334116 157.526879 
L 182.726429 159.326644 
z
" style="stroke:#000000;"/>
    <path clip-path="url(#pb97dae6c14)" d="M 184.334116 164.636035 
L 184.411595 159.34041 
L 182.726429 159.326644 
z
" style="stroke:#000000;"/>
    <path clip-path="url(#pb97dae6c14)" d="M 182.726429 159.326644 
L 184.334116 156.105048 
L 181.924265 158.983143 
z
" style="stroke:#000000;"/>
    <path clip-path="url(#pb97dae6c14)" d="M 181.924265 158.983143 
L 184.334116 164.636035 
L 182.726429 159.326644 
z
" style="stroke:#000000;"/>
    <path clip-path="url(#pb97dae6c14)" d="M 184.334116 157.526879 
L 184.411595 159.34041 
L 186.020256 157.542205 
z
" style="stroke:#000000;"/>
    <path clip-path="url(#pb97dae6c14)" d="M 184.411595 159.34041 
L 184.334116 164.636035 
L 186.020256 164.645274 
z
" style="stroke:#000000;"/>
    <path clip-path="url(#pb97dae6c14)" d="M 186.020256 156.121592 
L 181.924265 158.983143 
L 184.334116 156.105048 
z
" style="stroke:#000000;"/>
    <path clip-path="url(#pb97dae6c14)" d="M 181.924265 158.983143 
L 186.020256 167.486502 
L 184.334116 167.479697 
z
" style="stroke:#000000;"/>
    <path clip-path="url(#pb97dae6c14)" d="M 184.334116 164.636035 
L 181.924265 158.983143 
L 184.334116 167.479697 
z
" style="stroke:#000000;"/>
    <path clip-path="url(#pb97dae6c14)" d="M 184.334116 156.105048 
L 182.726429 159.326644 
L 184.334116 157.526879 
z
" style="stroke:#000000;"/>
    <path clip-path="url(#pb97dae6c14)" d="M 186.020256 156.121592 
L 187.633412 159.295473 
L 186.020256 157.542205 
z
" style="stroke:#000000;"/>
    <path clip-path="url(#pb97dae6c14)" d="M 186.020256 164.645274 
L 188.44168 158.928301 
L 186.020256 167.486502 
z
" style="stroke:#000000;"/>
    <path clip-path="url(#pb97dae6c14)" d="M 184.334116 156.105048 
L 188.44168 158.928301 
L 186.020256 156.121592 
z
" style="stroke:#000000;"/>
    <path clip-path="url(#pb97dae6c14)" d="M 188.44168 158.928301 
L 184.334116 167.479697 
L 186.020256 167.486502 
z
" style="stroke:#000000;"/>
    <path clip-path="url(#pb97dae6c14)" d="M 186.020256 157.542205 
L 185.946299 159.28163 
L 184.334116 157.526879 
z
" style="stroke:#000000;"/>
    <path clip-path="url(#pb97dae6c14)" d="M 185.946299 159.28163 
L 186.020256 164.645274 
L 184.334116 164.636035 
z
" style="stroke:#000000;"/>
    <path clip-path="url(#pb97dae6c14)" d="M 188.44168 158.928301 
L 186.020256 164.645274 
L 187.633412 159.295473 
z
" style="stroke:#000000;"/>
    <path clip-path="url(#pb97dae6c14)" d="M 187.633412 159.295473 
L 186.020256 156.121592 
L 188.44168 158.928301 
z
" style="stroke:#000000;"/>
    <path clip-path="url(#pb97dae6c14)" d="M 185.946299 159.28163 
L 186.020256 157.542205 
L 187.633412 159.295473 
z
" style="stroke:#000000;"/>
    <path clip-path="url(#pb97dae6c14)" d="M 186.020256 164.645274 
L 185.946299 159.28163 
L 187.633412 159.295473 
z
" style="stroke:#000000;"/>
    <path clip-path="url(#pb97dae6c14)" d="M 184.334116 156.105048 
L 184.334116 157.526879 
L 185.946299 159.28163 
z
" style="stroke:#000000;"/>
    <path clip-path="url(#pb97dae6c14)" d="M 187.31042 177.148596 
L 188.279936 177.15004 
L 187.39887 180.122162 
z
" style="stroke:#000000;"/>
    <path clip-path="url(#pb97dae6c14)" d="M 188.279936 177.15004 
L 187.31042 177.148596 
L 187.39887 174.175293 
z
" style="stroke:#000000;"/>
    <path clip-path="url(#pb97dae6c14)" d="M 187.39887 180.122162 
L 185.623502 177.150073 
L 187.31042 177.148596 
z
" style="stroke:#000000;"/>
    <path clip-path="url(#pb97dae6c14)" d="M 187.31042 177.148596 
L 185.711898 174.174219 
L 187.39887 174.175293 
z
" style="stroke:#000000;"/>
    <path clip-path="url(#pb97dae6c14)" d="M 187.39887 180.122162 
L 188.363222 179.947526 
L 187.663336 183.064767 
z
" style="stroke:#000000;"/>
    <path clip-path="url(#pb97dae6c14)" d="M 188.363222 174.352801 
L 187.39887 174.175293 
L 187.663336 171.233476 
z
" style="stroke:#000000;"/>
    <path clip-path="url(#pb97dae6c14)" d="M 187.663336 183.064767 
L 185.711898 180.12619 
L 187.39887 180.122162 
z
" style="stroke:#000000;"/>
    <path clip-path="url(#pb97dae6c14)" d="M 184.334116 164.636035 
L 184.334116 167.479697 
L 186.754081 158.914133 
z
" style="stroke:#000000;"/>
    <path clip-path="url(#pb97dae6c14)" d="M 187.39887 174.175293 
L 185.976205 171.229877 
L 187.663336 171.233476 
z
" style="stroke:#000000;"/>
    <path clip-path="url(#pb97dae6c14)" d="M 185.711898 174.174219 
L 187.31042 177.148596 
L 185.623502 177.150073 
z
" style="stroke:#000000;"/>
    <path clip-path="url(#pb97dae6c14)" d="M 187.39887 174.175293 
L 188.363222 174.352801 
L 188.279936 177.15004 
z
" style="stroke:#000000;"/>
    <path clip-path="url(#pb97dae6c14)" d="M 188.363222 179.947526 
L 187.39887 180.122162 
L 188.279936 177.15004 
z
" style="stroke:#000000;"/>
    <path clip-path="url(#pb97dae6c14)" d="M 185.623502 177.150073 
L 187.39887 180.122162 
L 185.711898 180.12619 
z
" style="stroke:#000000;"/>
    <path clip-path="url(#pb97dae6c14)" d="M 187.663336 183.064767 
L 188.612227 182.7158 
L 188.101158 185.945462 
z
" style="stroke:#000000;"/>
    <path clip-path="url(#pb97dae6c14)" d="M 188.612227 171.585268 
L 187.663336 171.233476 
L 188.101158 168.354084 
z
" style="stroke:#000000;"/>
    <path clip-path="url(#pb97dae6c14)" d="M 188.101158 185.945462 
L 185.976205 183.071321 
L 187.663336 183.064767 
z
" style="stroke:#000000;"/>
    <path clip-path="url(#pb97dae6c14)" d="M 185.976205 171.229877 
L 187.39887 174.175293 
L 185.711898 174.174219 
z
" style="stroke:#000000;"/>
    <path clip-path="url(#pb97dae6c14)" d="M 188.612227 182.7158 
L 187.663336 183.064767 
L 188.363222 179.947526 
z
" style="stroke:#000000;"/>
    <path clip-path="url(#pb97dae6c14)" d="M 187.663336 171.233476 
L 188.612227 171.585268 
L 188.363222 174.352801 
z
" style="stroke:#000000;"/>
    <path clip-path="url(#pb97dae6c14)" d="M 185.711898 180.12619 
L 187.663336 183.064767 
L 185.976205 183.071321 
z
" style="stroke:#000000;"/>
    <path clip-path="url(#pb97dae6c14)" d="M 187.663336 171.233476 
L 186.413764 168.348012 
L 188.101158 168.354084 
z
" style="stroke:#000000;"/>
    <path clip-path="url(#pb97dae6c14)" d="M 188.44168 158.928301 
L 184.334116 156.105048 
L 186.754081 158.914133 
z
" style="stroke:#000000;"/>
    <path clip-path="url(#pb97dae6c14)" d="M 184.334116 167.479697 
L 188.44168 158.928301 
L 186.754081 158.914133 
z
" style="stroke:#000000;"/>
    <path clip-path="url(#pb97dae6c14)" d="M 184.334116 156.105048 
L 185.946299 159.28163 
L 186.754081 158.914133 
z
" style="stroke:#000000;"/>
    <path clip-path="url(#pb97dae6c14)" d="M 184.334116 164.636035 
L 186.754081 158.914133 
L 185.946299 159.28163 
z
" style="stroke:#000000;"/>
    <path clip-path="url(#pb97dae6c14)" d="M 186.413764 168.348012 
L 187.663336 171.233476 
L 185.976205 171.229877 
z
" style="stroke:#000000;"/>
    <path clip-path="url(#pb97dae6c14)" d="M 189.024443 185.425699 
L 188.101158 185.945462 
L 188.612227 182.7158 
z
" style="stroke:#000000;"/>
    <path clip-path="url(#pb97dae6c14)" d="M 188.101158 168.354084 
L 189.024443 168.876597 
L 188.612227 171.585268 
z
" style="stroke:#000000;"/>
    <path clip-path="url(#pb97dae6c14)" d="M 188.101158 185.945462 
L 189.024443 185.425699 
L 188.707919 188.733864 
z
" style="stroke:#000000;"/>
    <path clip-path="url(#pb97dae6c14)" d="M 189.024443 168.876597 
L 188.101158 168.354084 
L 188.707919 165.56749 
z
" style="stroke:#000000;"/>
    <path clip-path="url(#pb97dae6c14)" d="M 185.976205 183.071321 
L 188.101158 185.945462 
L 186.413764 185.954492 
z
" style="stroke:#000000;"/>
    <path clip-path="url(#pb97dae6c14)" d="M 188.707919 188.733864 
L 186.413764 185.954492 
L 188.101158 185.945462 
z
" style="stroke:#000000;"/>
    <path clip-path="url(#pb97dae6c14)" d="M 188.363222 174.352801 
L 186.592435 177.151519 
L 188.279936 177.15004 
z
" style="stroke:#000000;"/>
    <path clip-path="url(#pb97dae6c14)" d="M 185.623502 177.150073 
L 186.592435 177.151519 
L 185.711898 174.174219 
z
" style="stroke:#000000;"/>
    <path clip-path="url(#pb97dae6c14)" d="M 186.592435 177.151519 
L 185.623502 177.150073 
L 185.711898 180.12619 
z
" style="stroke:#000000;"/>
    <path clip-path="url(#pb97dae6c14)" d="M 188.279936 177.15004 
L 186.675671 179.951408 
L 188.363222 179.947526 
z
" style="stroke:#000000;"/>
    <path clip-path="url(#pb97dae6c14)" d="M 188.612227 171.585268 
L 186.675671 174.351879 
L 188.363222 174.352801 
z
" style="stroke:#000000;"/>
    <path clip-path="url(#pb97dae6c14)" d="M 185.711898 174.174219 
L 186.675671 174.351879 
L 185.976205 171.229877 
z
" style="stroke:#000000;"/>
    <path clip-path="url(#pb97dae6c14)" d="M 186.675671 179.951408 
L 185.711898 180.12619 
L 185.976205 183.071321 
z
" style="stroke:#000000;"/>
    <path clip-path="url(#pb97dae6c14)" d="M 188.101158 168.354084 
L 187.02016 165.559021 
L 188.707919 165.56749 
z
" style="stroke:#000000;"/>
    <path clip-path="url(#pb97dae6c14)" d="M 188.363222 179.947526 
L 186.924525 182.72206 
L 188.612227 182.7158 
z
" style="stroke:#000000;"/>
    <path clip-path="url(#pb97dae6c14)" d="M 187.02016 165.559021 
L 188.101158 168.354084 
L 186.413764 168.348012 
z
" style="stroke:#000000;"/>
    <path clip-path="url(#pb97dae6c14)" d="M 186.675671 179.951408 
L 188.279936 177.15004 
L 186.592435 177.151519 
z
" style="stroke:#000000;"/>
    <path clip-path="url(#pb97dae6c14)" d="M 186.592435 177.151519 
L 188.363222 174.352801 
L 186.675671 174.351879 
z
" style="stroke:#000000;"/>
    <path clip-path="url(#pb97dae6c14)" d="M 185.711898 180.12619 
L 186.675671 179.951408 
L 186.592435 177.151519 
z
" style="stroke:#000000;"/>
    <path clip-path="url(#pb97dae6c14)" d="M 186.675671 174.351879 
L 185.711898 174.174219 
L 186.592435 177.151519 
z
" style="stroke:#000000;"/>
    <path clip-path="url(#pb97dae6c14)" d="M 189.024443 168.876597 
L 186.924525 171.581969 
L 188.612227 171.585268 
z
" style="stroke:#000000;"/>
    <path clip-path="url(#pb97dae6c14)" d="M 186.924525 182.72206 
L 188.363222 179.947526 
L 186.675671 179.951408 
z
" style="stroke:#000000;"/>
    <path clip-path="url(#pb97dae6c14)" d="M 189.595696 188.04856 
L 188.707919 188.733864 
L 189.024443 185.425699 
z
" style="stroke:#000000;"/>
    <path clip-path="url(#pb97dae6c14)" d="M 188.707919 165.56749 
L 189.595696 166.255437 
L 189.024443 168.876597 
z
" style="stroke:#000000;"/>
    <path clip-path="url(#pb97dae6c14)" d="M 185.976205 171.229877 
L 186.924525 171.581969 
L 186.413764 168.348012 
z
" style="stroke:#000000;"/>
    <path clip-path="url(#pb97dae6c14)" d="M 186.924525 182.72206 
L 185.976205 183.071321 
L 186.413764 185.954492 
z
" style="stroke:#000000;"/>
    <path clip-path="url(#pb97dae6c14)" d="M 186.413764 185.954492 
L 188.707919 188.733864 
L 187.02016 188.745293 
z
" style="stroke:#000000;"/>
    <path clip-path="url(#pb97dae6c14)" d="M 186.675671 174.351879 
L 188.612227 171.585268 
L 186.924525 171.581969 
z
" style="stroke:#000000;"/>
    <path clip-path="url(#pb97dae6c14)" d="M 186.924525 171.581969 
L 185.976205 171.229877 
L 186.675671 174.351879 
z
" style="stroke:#000000;"/>
    <path clip-path="url(#pb97dae6c14)" d="M 185.976205 183.071321 
L 186.924525 182.72206 
L 186.675671 179.951408 
z
" style="stroke:#000000;"/>
    <path clip-path="url(#pb97dae6c14)" d="M 188.612227 182.7158 
L 187.336495 185.43429 
L 189.024443 185.425699 
z
" style="stroke:#000000;"/>
    <path clip-path="url(#pb97dae6c14)" d="M 188.707919 188.733864 
L 189.595696 188.04856 
L 189.477505 191.400485 
z
" style="stroke:#000000;"/>
    <path clip-path="url(#pb97dae6c14)" d="M 189.595696 166.255437 
L 188.707919 165.56749 
L 189.477505 162.903161 
z
" style="stroke:#000000;"/>
    <path clip-path="url(#pb97dae6c14)" d="M 189.477505 191.400485 
L 187.02016 188.745293 
L 188.707919 188.733864 
z
" style="stroke:#000000;"/>
    <path clip-path="url(#pb97dae6c14)" d="M 187.336495 185.43429 
L 188.612227 182.7158 
L 186.924525 182.72206 
z
" style="stroke:#000000;"/>
    <path clip-path="url(#pb97dae6c14)" d="M 189.595696 166.255437 
L 187.336495 168.870969 
L 189.024443 168.876597 
z
" style="stroke:#000000;"/>
    <path clip-path="url(#pb97dae6c14)" d="M 186.924525 171.581969 
L 189.024443 168.876597 
L 187.336495 168.870969 
z
" style="stroke:#000000;"/>
    <path clip-path="url(#pb97dae6c14)" d="M 188.707919 165.56749 
L 187.789285 162.892396 
L 189.477505 162.903161 
z
" style="stroke:#000000;"/>
    <path clip-path="url(#pb97dae6c14)" d="M 187.336495 168.870969 
L 186.413764 168.348012 
L 186.924525 171.581969 
z
" style="stroke:#000000;"/>
    <path clip-path="url(#pb97dae6c14)" d="M 186.413764 185.954492 
L 187.336495 185.43429 
L 186.924525 182.72206 
z
" style="stroke:#000000;"/>
    <path clip-path="url(#pb97dae6c14)" d="M 186.413764 168.348012 
L 187.336495 168.870969 
L 187.02016 165.559021 
z
" style="stroke:#000000;"/>
    <path clip-path="url(#pb97dae6c14)" d="M 187.336495 185.43429 
L 186.413764 185.954492 
L 187.02016 188.745293 
z
" style="stroke:#000000;"/>
    <path clip-path="url(#pb97dae6c14)" d="M 187.789285 162.892396 
L 188.707919 165.56749 
L 187.02016 165.559021 
z
" style="stroke:#000000;"/>
    <path clip-path="url(#pb97dae6c14)" d="M 189.024443 185.425699 
L 187.907405 188.059409 
L 189.595696 188.04856 
z
" style="stroke:#000000;"/>
    <path clip-path="url(#pb97dae6c14)" d="M 190.320182 190.556563 
L 189.477505 191.400485 
L 189.595696 188.04856 
z
" style="stroke:#000000;"/>
    <path clip-path="url(#pb97dae6c14)" d="M 189.477505 162.903161 
L 190.320182 163.749592 
L 189.595696 166.255437 
z
" style="stroke:#000000;"/>
    <path clip-path="url(#pb97dae6c14)" d="M 187.907405 188.059409 
L 189.024443 185.425699 
L 187.336495 185.43429 
z
" style="stroke:#000000;"/>
    <path clip-path="url(#pb97dae6c14)" d="M 187.02016 188.745293 
L 189.477505 191.400485 
L 187.789285 191.414214 
z
" style="stroke:#000000;"/>
    <path clip-path="url(#pb97dae6c14)" d="M 189.477505 191.400485 
L 190.320182 190.556563 
L 190.4021 193.91684 
z
" style="stroke:#000000;"/>
    <path clip-path="url(#pb97dae6c14)" d="M 190.320182 163.749592 
L 189.477505 162.903161 
L 190.4021 160.389559 
z
" style="stroke:#000000;"/>
    <path clip-path="url(#pb97dae6c14)" d="M 187.336495 168.870969 
L 189.595696 166.255437 
L 187.907405 166.247553 
z
" style="stroke:#000000;"/>
    <path clip-path="url(#pb97dae6c14)" d="M 187.907405 166.247553 
L 187.02016 165.559021 
L 187.336495 168.870969 
z
" style="stroke:#000000;"/>
    <path clip-path="url(#pb97dae6c14)" d="M 187.02016 188.745293 
L 187.907405 188.059409 
L 187.336495 185.43429 
z
" style="stroke:#000000;"/>
    <path clip-path="url(#pb97dae6c14)" d="M 190.4021 193.91684 
L 187.789285 191.414214 
L 189.477505 191.400485 
z
" style="stroke:#000000;"/>
    <path clip-path="url(#pb97dae6c14)" d="M 190.320182 163.749592 
L 187.907405 166.247553 
L 189.595696 166.255437 
z
" style="stroke:#000000;"/>
    <path clip-path="url(#pb97dae6c14)" d="M 187.02016 165.559021 
L 187.907405 166.247553 
L 187.789285 162.892396 
z
" style="stroke:#000000;"/>
    <path clip-path="url(#pb97dae6c14)" d="M 187.907405 188.059409 
L 187.02016 188.745293 
L 187.789285 191.414214 
z
" style="stroke:#000000;"/>
    <path clip-path="url(#pb97dae6c14)" d="M 189.595696 188.04856 
L 188.631458 190.569576 
L 190.320182 190.556563 
z
" style="stroke:#000000;"/>
    <path clip-path="url(#pb97dae6c14)" d="M 189.477505 162.903161 
L 188.713327 160.376624 
L 190.4021 160.389559 
z
" style="stroke:#000000;"/>
    <path clip-path="url(#pb97dae6c14)" d="M 188.713327 160.376624 
L 189.477505 162.903161 
L 187.789285 162.892396 
z
" style="stroke:#000000;"/>
    <path clip-path="url(#pb97dae6c14)" d="M 188.631458 190.569576 
L 189.595696 188.04856 
L 187.907405 188.059409 
z
" style="stroke:#000000;"/>
    <path clip-path="url(#pb97dae6c14)" d="M 190.4021 193.91684 
L 190.320182 190.556563 
L 191.190527 192.922998 
z
" style="stroke:#000000;"/>
    <path clip-path="url(#pb97dae6c14)" d="M 190.320182 163.749592 
L 190.4021 160.389559 
L 191.190527 161.385749 
z
" style="stroke:#000000;"/>
    <path clip-path="url(#pb97dae6c14)" d="M 187.907405 166.247553 
L 190.320182 163.749592 
L 188.631458 163.739548 
z
" style="stroke:#000000;"/>
    <path clip-path="url(#pb97dae6c14)" d="M 187.789285 191.414214 
L 190.4021 193.91684 
L 188.713327 193.932744 
z
" style="stroke:#000000;"/>
    <path clip-path="url(#pb97dae6c14)" d="M 188.631458 163.739548 
L 187.789285 162.892396 
L 187.907405 166.247553 
z
" style="stroke:#000000;"/>
    <path clip-path="url(#pb97dae6c14)" d="M 187.789285 191.414214 
L 188.631458 190.569576 
L 187.907405 188.059409 
z
" style="stroke:#000000;"/>
    <path clip-path="url(#pb97dae6c14)" d="M 191.190527 161.385749 
L 188.631458 163.739548 
L 190.320182 163.749592 
z
" style="stroke:#000000;"/>
    <path clip-path="url(#pb97dae6c14)" d="M 190.4021 193.91684 
L 191.190527 192.922998 
L 191.47229 196.2561 
z
" style="stroke:#000000;"/>
    <path clip-path="url(#pb97dae6c14)" d="M 191.190527 161.385749 
L 190.4021 160.389559 
L 191.47229 158.053486 
z
" style="stroke:#000000;"/>
    <path clip-path="url(#pb97dae6c14)" d="M 187.789285 162.892396 
L 188.631458 163.739548 
L 188.713327 160.376624 
z
" style="stroke:#000000;"/>
    <path clip-path="url(#pb97dae6c14)" d="M 188.631458 190.569576 
L 187.789285 191.414214 
L 188.713327 193.932744 
z
" style="stroke:#000000;"/>
    <path clip-path="url(#pb97dae6c14)" d="M 191.47229 196.2561 
L 188.713327 193.932744 
L 190.4021 193.91684 
z
" style="stroke:#000000;"/>
    <path clip-path="url(#pb97dae6c14)" d="M 190.320182 190.556563 
L 189.501283 192.938058 
L 191.190527 192.922998 
z
" style="stroke:#000000;"/>
    <path clip-path="url(#pb97dae6c14)" d="M 189.501283 192.938058 
L 190.320182 190.556563 
L 188.631458 190.569576 
z
" style="stroke:#000000;"/>
    <path clip-path="url(#pb97dae6c14)" d="M 189.782878 158.038527 
L 190.4021 160.389559 
L 188.713327 160.376624 
z
" style="stroke:#000000;"/>
    <path clip-path="url(#pb97dae6c14)" d="M 190.4021 160.389559 
L 189.782878 158.038527 
L 191.47229 158.053486 
z
" style="stroke:#000000;"/>
    <path clip-path="url(#pb97dae6c14)" d="M 188.631458 163.739548 
L 191.190527 161.385749 
L 189.501283 161.373662 
z
" style="stroke:#000000;"/>
    <path clip-path="url(#pb97dae6c14)" d="M 191.47229 196.2561 
L 191.190527 192.922998 
L 192.197824 195.122325 
z
" style="stroke:#000000;"/>
    <path clip-path="url(#pb97dae6c14)" d="M 191.190527 161.385749 
L 191.47229 158.053486 
L 192.197824 159.189421 
z
" style="stroke:#000000;"/>
    <path clip-path="url(#pb97dae6c14)" d="M 188.713327 160.376624 
L 188.631458 163.739548 
L 189.501283 161.373662 
z
" style="stroke:#000000;"/>
    <path clip-path="url(#pb97dae6c14)" d="M 188.631458 190.569576 
L 188.713327 193.932744 
L 189.501283 192.938058 
z
" style="stroke:#000000;"/>
    <path clip-path="url(#pb97dae6c14)" d="M 188.713327 193.932744 
L 191.47229 196.2561 
L 189.782878 196.274033 
z
" style="stroke:#000000;"/>
    <path clip-path="url(#pb97dae6c14)" d="M 192.197824 159.189421 
L 189.501283 161.373662 
L 191.190527 161.385749 
z
" style="stroke:#000000;"/>
    <path clip-path="url(#pb97dae6c14)" d="M 192.074394 197.3239 
L 189.782878 196.274033 
L 191.47229 196.2561 
z
" style="stroke:#000000;"/>
    <path clip-path="url(#pb97dae6c14)" d="M 191.47229 196.2561 
L 192.500028 196.951353 
L 192.074394 197.3239 
z
" style="stroke:#000000;"/>
    <path clip-path="url(#pb97dae6c14)" d="M 192.500028 157.361293 
L 191.47229 158.053486 
L 192.074394 156.987478 
z
" style="stroke:#000000;"/>
    <path clip-path="url(#pb97dae6c14)" d="M 188.713327 160.376624 
L 189.501283 161.373662 
L 189.782878 158.038527 
z
" style="stroke:#000000;"/>
    <path clip-path="url(#pb97dae6c14)" d="M 189.501283 192.938058 
L 188.713327 193.932744 
L 189.782878 196.274033 
z
" style="stroke:#000000;"/>
    <path clip-path="url(#pb97dae6c14)" d="M 192.500028 196.951353 
L 191.47229 196.2561 
L 192.197824 195.122325 
z
" style="stroke:#000000;"/>
    <path clip-path="url(#pb97dae6c14)" d="M 191.47229 158.053486 
L 192.500028 157.361293 
L 192.197824 159.189421 
z
" style="stroke:#000000;"/>
    <path clip-path="url(#pb97dae6c14)" d="M 190.50798 195.139293 
L 191.190527 192.922998 
L 189.501283 192.938058 
z
" style="stroke:#000000;"/>
    <path clip-path="url(#pb97dae6c14)" d="M 191.190527 192.922998 
L 190.50798 195.139293 
L 192.197824 195.122325 
z
" style="stroke:#000000;"/>
    <path clip-path="url(#pb97dae6c14)" d="M 191.47229 158.053486 
L 190.384623 156.971594 
L 192.074394 156.987478 
z
" style="stroke:#000000;"/>
    <path clip-path="url(#pb97dae6c14)" d="M 190.384623 156.971594 
L 191.47229 158.053486 
L 189.782878 158.038527 
z
" style="stroke:#000000;"/>
    <path clip-path="url(#pb97dae6c14)" d="M 189.501283 161.373662 
L 192.197824 159.189421 
L 190.50798 159.175432 
z
" style="stroke:#000000;"/>
    <path clip-path="url(#pb97dae6c14)" d="M 189.782878 196.274033 
L 192.074394 197.3239 
L 190.384623 197.342763 
z
" style="stroke:#000000;"/>
    <path clip-path="url(#pb97dae6c14)" d="M 192.500028 196.951353 
L 192.197824 195.122325 
L 192.947402 196.450072 
z
" style="stroke:#000000;"/>
    <path clip-path="url(#pb97dae6c14)" d="M 192.197824 159.189421 
L 192.500028 157.361293 
L 192.947402 157.863906 
z
" style="stroke:#000000;"/>
    <path clip-path="url(#pb97dae6c14)" d="M 190.384623 156.971594 
L 192.500028 157.361293 
L 192.074394 156.987478 
z
" style="stroke:#000000;"/>
    <path clip-path="url(#pb97dae6c14)" d="M 189.782878 158.038527 
L 189.501283 161.373662 
L 190.50798 159.175432 
z
" style="stroke:#000000;"/>
    <path clip-path="url(#pb97dae6c14)" d="M 189.501283 192.938058 
L 189.782878 196.274033 
L 190.50798 195.139293 
z
" style="stroke:#000000;"/>
    <path clip-path="url(#pb97dae6c14)" d="M 190.810004 196.969901 
L 192.074394 197.3239 
L 192.500028 196.951353 
z
" style="stroke:#000000;"/>
    <path clip-path="url(#pb97dae6c14)" d="M 190.50798 195.139293 
L 192.947402 196.450072 
L 192.197824 195.122325 
z
" style="stroke:#000000;"/>
    <path clip-path="url(#pb97dae6c14)" d="M 192.074394 197.3239 
L 190.810004 196.969901 
L 190.384623 197.342763 
z
" style="stroke:#000000;"/>
    <path clip-path="url(#pb97dae6c14)" d="M 190.810004 157.345725 
L 192.947402 157.863906 
L 192.500028 157.361293 
z
" style="stroke:#000000;"/>
    <path clip-path="url(#pb97dae6c14)" d="M 189.782878 158.038527 
L 190.810004 157.345725 
L 190.384623 156.971594 
z
" style="stroke:#000000;"/>
    <path clip-path="url(#pb97dae6c14)" d="M 190.810004 196.969901 
L 189.782878 196.274033 
L 190.384623 197.342763 
z
" style="stroke:#000000;"/>
    <path clip-path="url(#pb97dae6c14)" d="M 192.500028 157.361293 
L 190.384623 156.971594 
L 190.810004 157.345725 
z
" style="stroke:#000000;"/>
    <path clip-path="url(#pb97dae6c14)" d="M 191.257112 157.848766 
L 192.197824 159.189421 
L 192.947402 157.863906 
z
" style="stroke:#000000;"/>
    <path clip-path="url(#pb97dae6c14)" d="M 190.810004 157.345725 
L 189.782878 158.038527 
L 190.50798 159.175432 
z
" style="stroke:#000000;"/>
    <path clip-path="url(#pb97dae6c14)" d="M 189.782878 196.274033 
L 190.810004 196.969901 
L 190.50798 195.139293 
z
" style="stroke:#000000;"/>
    <path clip-path="url(#pb97dae6c14)" d="M 192.197824 159.189421 
L 191.257112 157.848766 
L 190.50798 159.175432 
z
" style="stroke:#000000;"/>
    <path clip-path="url(#pb97dae6c14)" d="M 191.257112 196.468195 
L 192.500028 196.951353 
L 192.947402 196.450072 
z
" style="stroke:#000000;"/>
    <path clip-path="url(#pb97dae6c14)" d="M 192.500028 196.951353 
L 191.257112 196.468195 
L 190.810004 196.969901 
z
" style="stroke:#000000;"/>
    <path clip-path="url(#pb97dae6c14)" d="M 192.947402 196.450072 
L 190.50798 195.139293 
L 191.257112 196.468195 
z
" style="stroke:#000000;"/>
    <path clip-path="url(#pb97dae6c14)" d="M 192.947402 157.863906 
L 190.810004 157.345725 
L 191.257112 157.848766 
z
" style="stroke:#000000;"/>
    <path clip-path="url(#pb97dae6c14)" d="M 190.810004 157.345725 
L 190.50798 159.175432 
L 191.257112 157.848766 
z
" style="stroke:#000000;"/>
    <path clip-path="url(#pb97dae6c14)" d="M 190.50798 195.139293 
L 190.810004 196.969901 
L 191.257112 196.468195 
z
" style="stroke:#000000;"/>
   </g>
  </g>
 </g>
 <defs>
  <clipPath id="pb97dae6c14">
   <rect height="271.8" width="279" x="45" y="43.2"/>
  </clipPath>
 </defs>
</svg>
