<?xml version="1.0" encoding="utf-8" standalone="no"?>
<!DOCTYPE svg PUBLIC "-//W3C//DTD SVG 1.1//EN"
  "http://www.w3.org/Graphics/SVG/1.1/DTD/svg11.dtd">
<!-- Created with matplotlib (https://matplotlib.org/) -->
<svg height="360pt" version="1.1" viewBox="0 0 360 360" width="360pt" xmlns="http://www.w3.org/2000/svg" xmlns:xlink="http://www.w3.org/1999/xlink">
 <defs>
  <style type="text/css">
*{stroke-linecap:butt;stroke-linejoin:round;}
  </style>
 </defs>
 <g id="figure_1">
  <g id="patch_1">
   <path d="M 0 360 
L 360 360 
L 360 0 
L 0 0 
z
" style="fill:#ffffff;"/>
  </g>
  <g id="patch_2">
   <path d="M 45 315 
L 324 315 
L 324 43.2 
L 45 43.2 
z
" style="fill:#ffffff;"/>
  </g>
  <g id="axes_1">
   <g id="Poly3DCollection_1">
    <path clip-path="url(#pdbb1b0e8f8)" d="M 195.642391 196.492289 
L 195.301993 194.713665 
L 196.145697 195.987439 
z
" style="stroke:#000000;"/>
    <path clip-path="url(#pdbb1b0e8f8)" d="M 195.301993 159.569482 
L 195.642391 157.79008 
L 196.145697 158.29378 
z
" style="stroke:#000000;"/>
    <path clip-path="url(#pdbb1b0e8f8)" d="M 197.628773 196.007553 
L 195.642391 196.492289 
L 196.145697 195.987439 
z
" style="stroke:#000000;"/>
    <path clip-path="url(#pdbb1b0e8f8)" d="M 197.628773 158.277019 
L 195.301993 159.569482 
L 196.145697 158.29378 
z
" style="stroke:#000000;"/>
    <path clip-path="url(#pdbb1b0e8f8)" d="M 197.125472 157.77282 
L 196.145697 158.29378 
L 195.642391 157.79008 
z
" style="stroke:#000000;"/>
    <path clip-path="url(#pdbb1b0e8f8)" d="M 195.642391 196.492289 
L 194.483408 195.846419 
L 195.301993 194.713665 
z
" style="stroke:#000000;"/>
    <path clip-path="url(#pdbb1b0e8f8)" d="M 194.483408 158.438597 
L 195.642391 157.79008 
L 195.301993 159.569482 
z
" style="stroke:#000000;"/>
    <path clip-path="url(#pdbb1b0e8f8)" d="M 194.483408 195.846419 
L 195.642391 196.492289 
L 195.162868 196.871179 
z
" style="stroke:#000000;"/>
    <path clip-path="url(#pdbb1b0e8f8)" d="M 195.642391 157.79008 
L 194.483408 158.438597 
L 195.162868 157.412285 
z
" style="stroke:#000000;"/>
    <path clip-path="url(#pdbb1b0e8f8)" d="M 196.785078 194.732543 
L 196.145697 195.987439 
L 195.301993 194.713665 
z
" style="stroke:#000000;"/>
    <path clip-path="url(#pdbb1b0e8f8)" d="M 196.145697 158.29378 
L 197.125472 157.77282 
L 197.628773 158.277019 
z
" style="stroke:#000000;"/>
    <path clip-path="url(#pdbb1b0e8f8)" d="M 197.125472 196.512904 
L 195.162868 196.871179 
L 195.642391 196.492289 
z
" style="stroke:#000000;"/>
    <path clip-path="url(#pdbb1b0e8f8)" d="M 196.145697 195.987439 
L 196.785078 194.732543 
L 197.628773 196.007553 
z
" style="stroke:#000000;"/>
    <path clip-path="url(#pdbb1b0e8f8)" d="M 196.645955 157.39465 
L 195.642391 157.79008 
L 195.162868 157.412285 
z
" style="stroke:#000000;"/>
    <path clip-path="url(#pdbb1b0e8f8)" d="M 195.642391 196.492289 
L 197.628773 196.007553 
L 197.125472 196.512904 
z
" style="stroke:#000000;"/>
    <path clip-path="url(#pdbb1b0e8f8)" d="M 194.483408 195.846419 
L 194.164991 192.59046 
L 195.301993 194.713665 
z
" style="stroke:#000000;"/>
    <path clip-path="url(#pdbb1b0e8f8)" d="M 194.164991 161.695284 
L 194.483408 158.438597 
L 195.301993 159.569482 
z
" style="stroke:#000000;"/>
    <path clip-path="url(#pdbb1b0e8f8)" d="M 195.301993 159.569482 
L 197.628773 158.277019 
L 196.785078 159.55396 
z
" style="stroke:#000000;"/>
    <path clip-path="url(#pdbb1b0e8f8)" d="M 195.642391 157.79008 
L 196.645955 157.39465 
L 197.125472 157.77282 
z
" style="stroke:#000000;"/>
    <path clip-path="url(#pdbb1b0e8f8)" d="M 194.483408 158.438597 
L 196.645955 157.39465 
L 195.162868 157.412285 
z
" style="stroke:#000000;"/>
    <path clip-path="url(#pdbb1b0e8f8)" d="M 194.164991 192.59046 
L 196.785078 194.732543 
L 195.301993 194.713665 
z
" style="stroke:#000000;"/>
    <path clip-path="url(#pdbb1b0e8f8)" d="M 195.162868 196.871179 
L 197.125472 196.512904 
L 196.645955 196.892172 
z
" style="stroke:#000000;"/>
    <path clip-path="url(#pdbb1b0e8f8)" d="M 197.125472 157.77282 
L 196.785078 159.55396 
L 197.628773 158.277019 
z
" style="stroke:#000000;"/>
    <path clip-path="url(#pdbb1b0e8f8)" d="M 196.785078 194.732543 
L 197.125472 196.512904 
L 197.628773 196.007553 
z
" style="stroke:#000000;"/>
    <path clip-path="url(#pdbb1b0e8f8)" d="M 195.162868 196.871179 
L 195.9665 195.866418 
L 194.483408 195.846419 
z
" style="stroke:#000000;"/>
    <path clip-path="url(#pdbb1b0e8f8)" d="M 195.301993 159.569482 
L 195.648087 161.681832 
L 194.164991 161.695284 
z
" style="stroke:#000000;"/>
    <path clip-path="url(#pdbb1b0e8f8)" d="M 193.272459 193.58717 
L 194.164991 192.59046 
L 194.483408 195.846419 
z
" style="stroke:#000000;"/>
    <path clip-path="url(#pdbb1b0e8f8)" d="M 194.164991 161.695284 
L 193.272459 160.700613 
L 194.483408 158.438597 
z
" style="stroke:#000000;"/>
    <path clip-path="url(#pdbb1b0e8f8)" d="M 195.9665 195.866418 
L 195.162868 196.871179 
L 196.645955 196.892172 
z
" style="stroke:#000000;"/>
    <path clip-path="url(#pdbb1b0e8f8)" d="M 195.648087 161.681832 
L 195.301993 159.569482 
L 196.785078 159.55396 
z
" style="stroke:#000000;"/>
    <path clip-path="url(#pdbb1b0e8f8)" d="M 196.645955 157.39465 
L 194.483408 158.438597 
L 195.9665 158.421959 
z
" style="stroke:#000000;"/>
    <path clip-path="url(#pdbb1b0e8f8)" d="M 197.125472 157.77282 
L 195.9665 158.421959 
L 196.785078 159.55396 
z
" style="stroke:#000000;"/>
    <path clip-path="url(#pdbb1b0e8f8)" d="M 195.9665 195.866418 
L 197.125472 196.512904 
L 196.785078 194.732543 
z
" style="stroke:#000000;"/>
    <path clip-path="url(#pdbb1b0e8f8)" d="M 195.9665 158.421959 
L 197.125472 157.77282 
L 196.645955 157.39465 
z
" style="stroke:#000000;"/>
    <path clip-path="url(#pdbb1b0e8f8)" d="M 197.125472 196.512904 
L 195.9665 195.866418 
L 196.645955 196.892172 
z
" style="stroke:#000000;"/>
    <path clip-path="url(#pdbb1b0e8f8)" d="M 193.272459 160.700613 
L 195.9665 158.421959 
L 194.483408 158.438597 
z
" style="stroke:#000000;"/>
    <path clip-path="url(#pdbb1b0e8f8)" d="M 196.785078 194.732543 
L 194.164991 192.59046 
L 195.648087 192.607273 
z
" style="stroke:#000000;"/>
    <path clip-path="url(#pdbb1b0e8f8)" d="M 193.272459 193.58717 
L 193.179594 190.293077 
L 194.164991 192.59046 
z
" style="stroke:#000000;"/>
    <path clip-path="url(#pdbb1b0e8f8)" d="M 193.179594 163.994919 
L 193.272459 160.700613 
L 194.164991 161.695284 
z
" style="stroke:#000000;"/>
    <path clip-path="url(#pdbb1b0e8f8)" d="M 193.179594 190.293077 
L 195.648087 192.607273 
L 194.164991 192.59046 
z
" style="stroke:#000000;"/>
    <path clip-path="url(#pdbb1b0e8f8)" d="M 194.483408 195.846419 
L 194.755562 193.60497 
L 193.272459 193.58717 
z
" style="stroke:#000000;"/>
    <path clip-path="url(#pdbb1b0e8f8)" d="M 195.9665 158.421959 
L 195.648087 161.681832 
L 196.785078 159.55396 
z
" style="stroke:#000000;"/>
    <path clip-path="url(#pdbb1b0e8f8)" d="M 195.648087 192.607273 
L 195.9665 195.866418 
L 196.785078 194.732543 
z
" style="stroke:#000000;"/>
    <path clip-path="url(#pdbb1b0e8f8)" d="M 194.755562 193.60497 
L 194.483408 195.846419 
L 195.9665 195.866418 
z
" style="stroke:#000000;"/>
    <path clip-path="url(#pdbb1b0e8f8)" d="M 194.164991 161.695284 
L 194.662698 163.983712 
L 193.179594 163.994919 
z
" style="stroke:#000000;"/>
    <path clip-path="url(#pdbb1b0e8f8)" d="M 192.222876 191.142375 
L 193.179594 190.293077 
L 193.272459 193.58717 
z
" style="stroke:#000000;"/>
    <path clip-path="url(#pdbb1b0e8f8)" d="M 193.179594 163.994919 
L 192.222876 163.147805 
L 193.272459 160.700613 
z
" style="stroke:#000000;"/>
    <path clip-path="url(#pdbb1b0e8f8)" d="M 194.662698 163.983712 
L 194.164991 161.695284 
L 195.648087 161.681832 
z
" style="stroke:#000000;"/>
    <path clip-path="url(#pdbb1b0e8f8)" d="M 195.9665 158.421959 
L 193.272459 160.700613 
L 194.755562 160.686179 
z
" style="stroke:#000000;"/>
    <path clip-path="url(#pdbb1b0e8f8)" d="M 193.179594 190.293077 
L 192.222876 191.142375 
L 192.357218 187.847212 
z
" style="stroke:#000000;"/>
    <path clip-path="url(#pdbb1b0e8f8)" d="M 192.222876 163.147805 
L 193.179594 163.994919 
L 192.357218 166.442662 
z
" style="stroke:#000000;"/>
    <path clip-path="url(#pdbb1b0e8f8)" d="M 195.648087 192.607273 
L 193.179594 190.293077 
L 194.662698 190.307649 
z
" style="stroke:#000000;"/>
    <path clip-path="url(#pdbb1b0e8f8)" d="M 194.755562 160.686179 
L 195.648087 161.681832 
L 195.9665 158.421959 
z
" style="stroke:#000000;"/>
    <path clip-path="url(#pdbb1b0e8f8)" d="M 195.648087 192.607273 
L 194.755562 193.60497 
L 195.9665 195.866418 
z
" style="stroke:#000000;"/>
    <path clip-path="url(#pdbb1b0e8f8)" d="M 192.222876 163.147805 
L 194.755562 160.686179 
L 193.272459 160.700613 
z
" style="stroke:#000000;"/>
    <path clip-path="url(#pdbb1b0e8f8)" d="M 192.357218 187.847212 
L 194.662698 190.307649 
L 193.179594 190.293077 
z
" style="stroke:#000000;"/>
    <path clip-path="url(#pdbb1b0e8f8)" d="M 193.179594 163.994919 
L 193.840328 166.433851 
L 192.357218 166.442662 
z
" style="stroke:#000000;"/>
    <path clip-path="url(#pdbb1b0e8f8)" d="M 193.272459 193.58717 
L 193.705986 191.15779 
L 192.222876 191.142375 
z
" style="stroke:#000000;"/>
    <path clip-path="url(#pdbb1b0e8f8)" d="M 194.755562 160.686179 
L 194.662698 163.983712 
L 195.648087 161.681832 
z
" style="stroke:#000000;"/>
    <path clip-path="url(#pdbb1b0e8f8)" d="M 194.662698 190.307649 
L 194.755562 193.60497 
L 195.648087 192.607273 
z
" style="stroke:#000000;"/>
    <path clip-path="url(#pdbb1b0e8f8)" d="M 191.346856 188.539122 
L 192.357218 187.847212 
L 192.222876 191.142375 
z
" style="stroke:#000000;"/>
    <path clip-path="url(#pdbb1b0e8f8)" d="M 192.357218 166.442662 
L 191.346856 165.75306 
L 192.222876 163.147805 
z
" style="stroke:#000000;"/>
    <path clip-path="url(#pdbb1b0e8f8)" d="M 193.705986 191.15779 
L 193.272459 193.58717 
L 194.755562 193.60497 
z
" style="stroke:#000000;"/>
    <path clip-path="url(#pdbb1b0e8f8)" d="M 193.840328 166.433851 
L 193.179594 163.994919 
L 194.662698 163.983712 
z
" style="stroke:#000000;"/>
    <path clip-path="url(#pdbb1b0e8f8)" d="M 192.357218 187.847212 
L 191.346856 188.539122 
L 191.70742 185.280216 
z
" style="stroke:#000000;"/>
    <path clip-path="url(#pdbb1b0e8f8)" d="M 191.346856 165.75306 
L 192.357218 166.442662 
L 191.70742 169.011142 
z
" style="stroke:#000000;"/>
    <path clip-path="url(#pdbb1b0e8f8)" d="M 191.70742 185.280216 
L 193.840328 187.859393 
L 192.357218 187.847212 
z
" style="stroke:#000000;"/>
    <path clip-path="url(#pdbb1b0e8f8)" d="M 194.662698 190.307649 
L 192.357218 187.847212 
L 193.840328 187.859393 
z
" style="stroke:#000000;"/>
    <path clip-path="url(#pdbb1b0e8f8)" d="M 194.755562 160.686179 
L 192.222876 163.147805 
L 193.705986 163.135761 
z
" style="stroke:#000000;"/>
    <path clip-path="url(#pdbb1b0e8f8)" d="M 191.346856 165.75306 
L 193.705986 163.135761 
L 192.222876 163.147805 
z
" style="stroke:#000000;"/>
    <path clip-path="url(#pdbb1b0e8f8)" d="M 192.357218 166.442662 
L 193.190533 169.004847 
L 191.70742 169.011142 
z
" style="stroke:#000000;"/>
    <path clip-path="url(#pdbb1b0e8f8)" d="M 193.705986 163.135761 
L 194.662698 163.983712 
L 194.755562 160.686179 
z
" style="stroke:#000000;"/>
    <path clip-path="url(#pdbb1b0e8f8)" d="M 194.662698 190.307649 
L 193.705986 191.15779 
L 194.755562 193.60497 
z
" style="stroke:#000000;"/>
    <path clip-path="url(#pdbb1b0e8f8)" d="M 190.654638 185.806693 
L 191.70742 185.280216 
L 191.346856 188.539122 
z
" style="stroke:#000000;"/>
    <path clip-path="url(#pdbb1b0e8f8)" d="M 191.70742 169.011142 
L 190.654638 168.48707 
L 191.346856 165.75306 
z
" style="stroke:#000000;"/>
    <path clip-path="url(#pdbb1b0e8f8)" d="M 191.70742 185.280216 
L 190.654638 185.806693 
L 191.237777 182.620968 
z
" style="stroke:#000000;"/>
    <path clip-path="url(#pdbb1b0e8f8)" d="M 190.654638 168.48707 
L 191.70742 169.011142 
L 191.237777 171.671463 
z
" style="stroke:#000000;"/>
    <path clip-path="url(#pdbb1b0e8f8)" d="M 193.190533 169.004847 
L 192.357218 166.442662 
L 193.840328 166.433851 
z
" style="stroke:#000000;"/>
    <path clip-path="url(#pdbb1b0e8f8)" d="M 192.222876 191.142375 
L 192.829971 188.55199 
L 191.346856 188.539122 
z
" style="stroke:#000000;"/>
    <path clip-path="url(#pdbb1b0e8f8)" d="M 194.662698 163.983712 
L 193.705986 163.135761 
L 193.840328 166.433851 
z
" style="stroke:#000000;"/>
    <path clip-path="url(#pdbb1b0e8f8)" d="M 193.705986 191.15779 
L 194.662698 190.307649 
L 193.840328 187.859393 
z
" style="stroke:#000000;"/>
    <path clip-path="url(#pdbb1b0e8f8)" d="M 191.237777 182.620968 
L 193.190533 185.289884 
L 191.70742 185.280216 
z
" style="stroke:#000000;"/>
    <path clip-path="url(#pdbb1b0e8f8)" d="M 192.829971 188.55199 
L 192.222876 191.142375 
L 193.705986 191.15779 
z
" style="stroke:#000000;"/>
    <path clip-path="url(#pdbb1b0e8f8)" d="M 193.840328 187.859393 
L 191.70742 185.280216 
L 193.190533 185.289884 
z
" style="stroke:#000000;"/>
    <path clip-path="url(#pdbb1b0e8f8)" d="M 191.70742 169.011142 
L 192.720892 171.667777 
L 191.237777 171.671463 
z
" style="stroke:#000000;"/>
    <path clip-path="url(#pdbb1b0e8f8)" d="M 191.237777 182.620968 
L 190.154305 182.975854 
L 190.953779 179.899518 
z
" style="stroke:#000000;"/>
    <path clip-path="url(#pdbb1b0e8f8)" d="M 190.154305 171.319053 
L 191.237777 171.671463 
L 190.953779 174.393562 
z
" style="stroke:#000000;"/>
    <path clip-path="url(#pdbb1b0e8f8)" d="M 190.154305 182.975854 
L 191.237777 182.620968 
L 190.654638 185.806693 
z
" style="stroke:#000000;"/>
    <path clip-path="url(#pdbb1b0e8f8)" d="M 191.237777 171.671463 
L 190.154305 171.319053 
L 190.654638 168.48707 
z
" style="stroke:#000000;"/>
    <path clip-path="url(#pdbb1b0e8f8)" d="M 193.705986 163.135761 
L 191.346856 165.75306 
L 192.829971 165.743566 
z
" style="stroke:#000000;"/>
    <path clip-path="url(#pdbb1b0e8f8)" d="M 190.953779 179.899518 
L 192.720892 182.628029 
L 191.237777 182.620968 
z
" style="stroke:#000000;"/>
    <path clip-path="url(#pdbb1b0e8f8)" d="M 190.654638 168.48707 
L 192.829971 165.743566 
L 191.346856 165.75306 
z
" style="stroke:#000000;"/>
    <path clip-path="url(#pdbb1b0e8f8)" d="M 192.720892 171.667777 
L 191.70742 169.011142 
L 193.190533 169.004847 
z
" style="stroke:#000000;"/>
    <path clip-path="url(#pdbb1b0e8f8)" d="M 191.237777 171.671463 
L 192.436896 174.392548 
L 190.953779 174.393562 
z
" style="stroke:#000000;"/>
    <path clip-path="url(#pdbb1b0e8f8)" d="M 189.851734 174.216958 
L 190.953779 174.393562 
L 190.858737 177.146649 
z
" style="stroke:#000000;"/>
    <path clip-path="url(#pdbb1b0e8f8)" d="M 190.953779 179.899518 
L 189.851734 180.078639 
L 190.858737 177.146649 
z
" style="stroke:#000000;"/>
    <path clip-path="url(#pdbb1b0e8f8)" d="M 192.829971 165.743566 
L 193.840328 166.433851 
L 193.705986 163.135761 
z
" style="stroke:#000000;"/>
    <path clip-path="url(#pdbb1b0e8f8)" d="M 193.840328 187.859393 
L 192.829971 188.55199 
L 193.705986 191.15779 
z
" style="stroke:#000000;"/>
    <path clip-path="url(#pdbb1b0e8f8)" d="M 190.858737 177.146649 
L 192.436896 179.903908 
L 190.953779 179.899518 
z
" style="stroke:#000000;"/>
    <path clip-path="url(#pdbb1b0e8f8)" d="M 193.190533 185.289884 
L 191.237777 182.620968 
L 192.720892 182.628029 
z
" style="stroke:#000000;"/>
    <path clip-path="url(#pdbb1b0e8f8)" d="M 190.953779 174.393562 
L 192.341854 177.148337 
L 190.858737 177.146649 
z
" style="stroke:#000000;"/>
    <path clip-path="url(#pdbb1b0e8f8)" d="M 191.346856 188.539122 
L 192.137756 185.816885 
L 190.654638 185.806693 
z
" style="stroke:#000000;"/>
    <path clip-path="url(#pdbb1b0e8f8)" d="M 193.840328 166.433851 
L 192.829971 165.743566 
L 193.190533 169.004847 
z
" style="stroke:#000000;"/>
    <path clip-path="url(#pdbb1b0e8f8)" d="M 192.829971 188.55199 
L 193.840328 187.859393 
L 193.190533 185.289884 
z
" style="stroke:#000000;"/>
    <path clip-path="url(#pdbb1b0e8f8)" d="M 189.851734 180.078639 
L 190.953779 179.899518 
L 190.154305 182.975854 
z
" style="stroke:#000000;"/>
    <path clip-path="url(#pdbb1b0e8f8)" d="M 190.953779 174.393562 
L 189.851734 174.216958 
L 190.154305 171.319053 
z
" style="stroke:#000000;"/>
    <path clip-path="url(#pdbb1b0e8f8)" d="M 192.436896 174.392548 
L 191.237777 171.671463 
L 192.720892 171.667777 
z
" style="stroke:#000000;"/>
    <path clip-path="url(#pdbb1b0e8f8)" d="M 189.750483 177.147914 
L 190.858737 177.146649 
L 189.851734 180.078639 
z
" style="stroke:#000000;"/>
    <path clip-path="url(#pdbb1b0e8f8)" d="M 190.858737 177.146649 
L 189.750483 177.147914 
L 189.851734 174.216958 
z
" style="stroke:#000000;"/>
    <path clip-path="url(#pdbb1b0e8f8)" d="M 192.137756 185.816885 
L 191.346856 188.539122 
L 192.829971 188.55199 
z
" style="stroke:#000000;"/>
    <path clip-path="url(#pdbb1b0e8f8)" d="M 192.720892 182.628029 
L 190.953779 179.899518 
L 192.436896 179.903908 
z
" style="stroke:#000000;"/>
    <path clip-path="url(#pdbb1b0e8f8)" d="M 190.154305 171.319053 
L 192.137756 168.480256 
L 190.654638 168.48707 
z
" style="stroke:#000000;"/>
    <path clip-path="url(#pdbb1b0e8f8)" d="M 192.341854 177.148337 
L 190.953779 174.393562 
L 192.436896 174.392548 
z
" style="stroke:#000000;"/>
    <path clip-path="url(#pdbb1b0e8f8)" d="M 192.436896 179.903908 
L 190.858737 177.146649 
L 192.341854 177.148337 
z
" style="stroke:#000000;"/>
    <path clip-path="url(#pdbb1b0e8f8)" d="M 192.829971 165.743566 
L 190.654638 168.48707 
L 192.137756 168.480256 
z
" style="stroke:#000000;"/>
    <path clip-path="url(#pdbb1b0e8f8)" d="M 190.654638 185.806693 
L 191.637425 182.983268 
L 190.154305 182.975854 
z
" style="stroke:#000000;"/>
    <path clip-path="url(#pdbb1b0e8f8)" d="M 191.043288 159.215862 
L 188.27027 164.799626 
L 190.120082 159.556342 
z
" style="stroke:#000000;"/>
    <path clip-path="url(#pdbb1b0e8f8)" d="M 190.120082 159.556342 
L 188.27027 156.379186 
L 191.043288 159.215862 
z
" style="stroke:#000000;"/>
    <path clip-path="url(#pdbb1b0e8f8)" d="M 192.137756 168.480256 
L 193.190533 169.004847 
L 192.829971 165.743566 
z
" style="stroke:#000000;"/>
    <path clip-path="url(#pdbb1b0e8f8)" d="M 193.190533 185.289884 
L 192.137756 185.816885 
L 192.829971 188.55199 
z
" style="stroke:#000000;"/>
    <path clip-path="url(#pdbb1b0e8f8)" d="M 193.190533 169.004847 
L 192.137756 168.480256 
L 192.720892 171.667777 
z
" style="stroke:#000000;"/>
    <path clip-path="url(#pdbb1b0e8f8)" d="M 192.137756 185.816885 
L 193.190533 185.289884 
L 192.720892 182.628029 
z
" style="stroke:#000000;"/>
    <path clip-path="url(#pdbb1b0e8f8)" d="M 189.851734 174.216958 
L 191.637425 171.315018 
L 190.154305 171.319053 
z
" style="stroke:#000000;"/>
    <path clip-path="url(#pdbb1b0e8f8)" d="M 191.637425 182.983268 
L 190.654638 185.806693 
L 192.137756 185.816885 
z
" style="stroke:#000000;"/>
    <path clip-path="url(#pdbb1b0e8f8)" d="M 190.154305 182.975854 
L 191.334855 180.083209 
L 189.851734 180.078639 
z
" style="stroke:#000000;"/>
    <path clip-path="url(#pdbb1b0e8f8)" d="M 192.137756 168.480256 
L 190.154305 171.319053 
L 191.637425 171.315018 
z
" style="stroke:#000000;"/>
    <path clip-path="url(#pdbb1b0e8f8)" d="M 189.750483 177.147914 
L 191.334855 174.21577 
L 189.851734 174.216958 
z
" style="stroke:#000000;"/>
    <path clip-path="url(#pdbb1b0e8f8)" d="M 192.720892 171.667777 
L 191.637425 171.315018 
L 192.436896 174.392548 
z
" style="stroke:#000000;"/>
    <path clip-path="url(#pdbb1b0e8f8)" d="M 191.637425 182.983268 
L 192.720892 182.628029 
L 192.436896 179.903908 
z
" style="stroke:#000000;"/>
    <path clip-path="url(#pdbb1b0e8f8)" d="M 189.851734 180.078639 
L 191.233604 177.149605 
L 189.750483 177.147914 
z
" style="stroke:#000000;"/>
    <path clip-path="url(#pdbb1b0e8f8)" d="M 191.637425 171.315018 
L 192.720892 171.667777 
L 192.137756 168.480256 
z
" style="stroke:#000000;"/>
    <path clip-path="url(#pdbb1b0e8f8)" d="M 192.720892 182.628029 
L 191.637425 182.983268 
L 192.137756 185.816885 
z
" style="stroke:#000000;"/>
    <path clip-path="url(#pdbb1b0e8f8)" d="M 188.27027 164.799626 
L 191.043288 159.215862 
L 188.27027 167.60644 
z
" style="stroke:#000000;"/>
    <path clip-path="url(#pdbb1b0e8f8)" d="M 191.043288 159.215862 
L 189.753394 156.360454 
L 192.526404 159.199949 
z
" style="stroke:#000000;"/>
    <path clip-path="url(#pdbb1b0e8f8)" d="M 189.753394 167.598749 
L 191.043288 159.215862 
L 192.526404 159.199949 
z
" style="stroke:#000000;"/>
    <path clip-path="url(#pdbb1b0e8f8)" d="M 191.334855 180.083209 
L 192.436896 179.903908 
L 192.341854 177.148337 
z
" style="stroke:#000000;"/>
    <path clip-path="url(#pdbb1b0e8f8)" d="M 192.436896 174.392548 
L 191.334855 174.21577 
L 192.341854 177.148337 
z
" style="stroke:#000000;"/>
    <path clip-path="url(#pdbb1b0e8f8)" d="M 191.334855 180.083209 
L 190.154305 182.975854 
L 191.637425 182.983268 
z
" style="stroke:#000000;"/>
    <path clip-path="url(#pdbb1b0e8f8)" d="M 191.603202 159.540753 
L 188.27027 157.782593 
L 190.120082 159.556342 
z
" style="stroke:#000000;"/>
    <path clip-path="url(#pdbb1b0e8f8)" d="M 188.27027 164.799626 
L 191.603202 159.540753 
L 190.120082 159.556342 
z
" style="stroke:#000000;"/>
    <path clip-path="url(#pdbb1b0e8f8)" d="M 191.637425 171.315018 
L 189.851734 174.216958 
L 191.334855 174.21577 
z
" style="stroke:#000000;"/>
    <path clip-path="url(#pdbb1b0e8f8)" d="M 188.27027 156.379186 
L 190.120082 159.556342 
L 188.27027 157.782593 
z
" style="stroke:#000000;"/>
    <path clip-path="url(#pdbb1b0e8f8)" d="M 191.334855 174.21577 
L 192.436896 174.392548 
L 191.637425 171.315018 
z
" style="stroke:#000000;"/>
    <path clip-path="url(#pdbb1b0e8f8)" d="M 192.436896 179.903908 
L 191.334855 180.083209 
L 191.637425 182.983268 
z
" style="stroke:#000000;"/>
    <path clip-path="url(#pdbb1b0e8f8)" d="M 191.233604 177.149605 
L 189.851734 180.078639 
L 191.334855 180.083209 
z
" style="stroke:#000000;"/>
    <path clip-path="url(#pdbb1b0e8f8)" d="M 191.334855 174.21577 
L 189.750483 177.147914 
L 191.233604 177.149605 
z
" style="stroke:#000000;"/>
    <path clip-path="url(#pdbb1b0e8f8)" d="M 189.753394 156.360454 
L 191.043288 159.215862 
L 188.27027 156.379186 
z
" style="stroke:#000000;"/>
    <path clip-path="url(#pdbb1b0e8f8)" d="M 191.043288 159.215862 
L 189.753394 167.598749 
L 188.27027 167.60644 
z
" style="stroke:#000000;"/>
    <path clip-path="url(#pdbb1b0e8f8)" d="M 191.233604 177.149605 
L 192.341854 177.148337 
L 191.334855 174.21577 
z
" style="stroke:#000000;"/>
    <path clip-path="url(#pdbb1b0e8f8)" d="M 192.341854 177.148337 
L 191.233604 177.149605 
L 191.334855 180.083209 
z
" style="stroke:#000000;"/>
    <path clip-path="url(#pdbb1b0e8f8)" d="M 189.753394 156.360454 
L 191.603202 159.540753 
L 192.526404 159.199949 
z
" style="stroke:#000000;"/>
    <path clip-path="url(#pdbb1b0e8f8)" d="M 189.753394 164.789175 
L 192.526404 159.199949 
L 191.603202 159.540753 
z
" style="stroke:#000000;"/>
    <path clip-path="url(#pdbb1b0e8f8)" d="M 188.27027 157.782593 
L 191.603202 159.540753 
L 189.753394 157.765241 
z
" style="stroke:#000000;"/>
    <path clip-path="url(#pdbb1b0e8f8)" d="M 191.603202 159.540753 
L 188.27027 164.799626 
L 189.753394 164.789175 
z
" style="stroke:#000000;"/>
    <path clip-path="url(#pdbb1b0e8f8)" d="M 189.753394 164.789175 
L 189.753394 167.598749 
L 192.526404 159.199949 
z
" style="stroke:#000000;"/>
    <path clip-path="url(#pdbb1b0e8f8)" d="M 186.415909 159.517313 
L 188.27027 156.379186 
L 188.27027 157.782593 
z
" style="stroke:#000000;"/>
    <path clip-path="url(#pdbb1b0e8f8)" d="M 189.753394 156.360454 
L 189.753394 157.765241 
L 191.603202 159.540753 
z
" style="stroke:#000000;"/>
    <path clip-path="url(#pdbb1b0e8f8)" d="M 185.487018 159.156026 
L 188.27027 164.799626 
L 188.27027 167.60644 
z
" style="stroke:#000000;"/>
    <path clip-path="url(#pdbb1b0e8f8)" d="M 189.753394 157.765241 
L 186.415909 159.517313 
L 188.27027 157.782593 
z
" style="stroke:#000000;"/>
    <path clip-path="url(#pdbb1b0e8f8)" d="M 186.415909 159.517313 
L 189.753394 164.789175 
L 188.27027 164.799626 
z
" style="stroke:#000000;"/>
    <path clip-path="url(#pdbb1b0e8f8)" d="M 188.27027 164.799626 
L 185.487018 159.156026 
L 186.415909 159.517313 
z
" style="stroke:#000000;"/>
    <path clip-path="url(#pdbb1b0e8f8)" d="M 188.27027 156.379186 
L 186.415909 159.517313 
L 185.487018 159.156026 
z
" style="stroke:#000000;"/>
    <path clip-path="url(#pdbb1b0e8f8)" d="M 185.672887 177.152572 
L 186.787146 177.151299 
L 186.685483 180.088415 
z
" style="stroke:#000000;"/>
    <path clip-path="url(#pdbb1b0e8f8)" d="M 186.787146 177.151299 
L 185.672887 177.152572 
L 186.685483 174.214415 
z
" style="stroke:#000000;"/>
    <path clip-path="url(#pdbb1b0e8f8)" d="M 188.27027 156.379186 
L 186.970139 159.139995 
L 189.753394 156.360454 
z
" style="stroke:#000000;"/>
    <path clip-path="url(#pdbb1b0e8f8)" d="M 186.970139 159.139995 
L 188.27027 167.60644 
L 189.753394 167.598749 
z
" style="stroke:#000000;"/>
    <path clip-path="url(#pdbb1b0e8f8)" d="M 186.685483 174.214415 
L 188.27027 177.152997 
L 186.787146 177.151299 
z
" style="stroke:#000000;"/>
    <path clip-path="url(#pdbb1b0e8f8)" d="M 186.787146 177.151299 
L 188.168607 180.093004 
L 186.685483 180.088415 
z
" style="stroke:#000000;"/>
    <path clip-path="url(#pdbb1b0e8f8)" d="M 185.577178 179.915491 
L 186.685483 180.088415 
L 186.381516 182.994762 
z
" style="stroke:#000000;"/>
    <path clip-path="url(#pdbb1b0e8f8)" d="M 186.685483 174.214415 
L 185.577178 174.389871 
L 186.381516 171.308763 
z
" style="stroke:#000000;"/>
    <path clip-path="url(#pdbb1b0e8f8)" d="M 189.753394 156.360454 
L 187.899033 159.501647 
L 189.753394 157.765241 
z
" style="stroke:#000000;"/>
    <path clip-path="url(#pdbb1b0e8f8)" d="M 186.381516 171.308763 
L 188.168607 174.213221 
L 186.685483 174.214415 
z
" style="stroke:#000000;"/>
    <path clip-path="url(#pdbb1b0e8f8)" d="M 186.415909 159.517313 
L 189.753394 157.765241 
L 187.899033 159.501647 
z
" style="stroke:#000000;"/>
    <path clip-path="url(#pdbb1b0e8f8)" d="M 189.753394 164.789175 
L 186.415909 159.517313 
L 187.899033 159.501647 
z
" style="stroke:#000000;"/>
    <path clip-path="url(#pdbb1b0e8f8)" d="M 186.685483 180.088415 
L 187.86464 183.002214 
L 186.381516 182.994762 
z
" style="stroke:#000000;"/>
    <path clip-path="url(#pdbb1b0e8f8)" d="M 185.577178 174.389871 
L 186.685483 174.214415 
L 185.672887 177.152572 
z
" style="stroke:#000000;"/>
    <path clip-path="url(#pdbb1b0e8f8)" d="M 186.685483 180.088415 
L 185.577178 179.915491 
L 185.672887 177.152572 
z
" style="stroke:#000000;"/>
    <path clip-path="url(#pdbb1b0e8f8)" d="M 186.970139 159.139995 
L 188.27027 156.379186 
L 185.487018 159.156026 
z
" style="stroke:#000000;"/>
    <path clip-path="url(#pdbb1b0e8f8)" d="M 188.27027 167.60644 
L 186.970139 159.139995 
L 185.487018 159.156026 
z
" style="stroke:#000000;"/>
    <path clip-path="url(#pdbb1b0e8f8)" d="M 189.753394 164.789175 
L 186.970139 159.139995 
L 189.753394 167.598749 
z
" style="stroke:#000000;"/>
    <path clip-path="url(#pdbb1b0e8f8)" d="M 185.291039 182.649391 
L 186.381516 182.994762 
L 185.878339 185.839619 
z
" style="stroke:#000000;"/>
    <path clip-path="url(#pdbb1b0e8f8)" d="M 186.381516 171.308763 
L 185.291039 171.656625 
L 185.878339 168.465056 
z
" style="stroke:#000000;"/>
    <path clip-path="url(#pdbb1b0e8f8)" d="M 188.168607 180.093004 
L 186.787146 177.151299 
L 188.27027 177.152997 
z
" style="stroke:#000000;"/>
    <path clip-path="url(#pdbb1b0e8f8)" d="M 186.381516 182.994762 
L 185.291039 182.649391 
L 185.577178 179.915491 
z
" style="stroke:#000000;"/>
    <path clip-path="url(#pdbb1b0e8f8)" d="M 185.291039 171.656625 
L 186.381516 171.308763 
L 185.577178 174.389871 
z
" style="stroke:#000000;"/>
    <path clip-path="url(#pdbb1b0e8f8)" d="M 188.27027 177.152997 
L 186.685483 174.214415 
L 188.168607 174.213221 
z
" style="stroke:#000000;"/>
    <path clip-path="url(#pdbb1b0e8f8)" d="M 185.878339 168.465056 
L 187.86464 171.304708 
L 186.381516 171.308763 
z
" style="stroke:#000000;"/>
    <path clip-path="url(#pdbb1b0e8f8)" d="M 187.86464 183.002214 
L 186.685483 180.088415 
L 188.168607 180.093004 
z
" style="stroke:#000000;"/>
    <path clip-path="url(#pdbb1b0e8f8)" d="M 186.381516 182.994762 
L 187.361462 185.849875 
L 185.878339 185.839619 
z
" style="stroke:#000000;"/>
    <path clip-path="url(#pdbb1b0e8f8)" d="M 188.168607 174.213221 
L 186.381516 171.308763 
L 187.86464 171.304708 
z
" style="stroke:#000000;"/>
    <path clip-path="url(#pdbb1b0e8f8)" d="M 185.878339 185.839619 
L 184.817381 185.325335 
L 185.291039 182.649391 
z
" style="stroke:#000000;"/>
    <path clip-path="url(#pdbb1b0e8f8)" d="M 184.817381 168.981763 
L 185.878339 168.465056 
L 185.291039 171.656625 
z
" style="stroke:#000000;"/>
    <path clip-path="url(#pdbb1b0e8f8)" d="M 184.817381 185.325335 
L 185.878339 185.839619 
L 185.181081 188.592839 
z
" style="stroke:#000000;"/>
    <path clip-path="url(#pdbb1b0e8f8)" d="M 185.878339 168.465056 
L 184.817381 168.981763 
L 185.181081 165.713428 
z
" style="stroke:#000000;"/>
    <path clip-path="url(#pdbb1b0e8f8)" d="M 187.899033 159.501647 
L 189.753394 156.360454 
L 186.970139 159.139995 
z
" style="stroke:#000000;"/>
    <path clip-path="url(#pdbb1b0e8f8)" d="M 186.970139 159.139995 
L 189.753394 164.789175 
L 187.899033 159.501647 
z
" style="stroke:#000000;"/>
    <path clip-path="url(#pdbb1b0e8f8)" d="M 187.361462 185.849875 
L 186.381516 182.994762 
L 187.86464 183.002214 
z
" style="stroke:#000000;"/>
    <path clip-path="url(#pdbb1b0e8f8)" d="M 185.181081 165.713428 
L 187.361462 168.458198 
L 185.878339 168.465056 
z
" style="stroke:#000000;"/>
    <path clip-path="url(#pdbb1b0e8f8)" d="M 185.577178 179.915491 
L 187.15601 177.154272 
L 185.672887 177.152572 
z
" style="stroke:#000000;"/>
    <path clip-path="url(#pdbb1b0e8f8)" d="M 185.672887 177.152572 
L 187.0603 174.38885 
L 185.577178 174.389871 
z
" style="stroke:#000000;"/>
    <path clip-path="url(#pdbb1b0e8f8)" d="M 187.86464 171.304708 
L 185.878339 168.465056 
L 187.361462 168.458198 
z
" style="stroke:#000000;"/>
    <path clip-path="url(#pdbb1b0e8f8)" d="M 185.291039 182.649391 
L 187.0603 179.919913 
L 185.577178 179.915491 
z
" style="stroke:#000000;"/>
    <path clip-path="url(#pdbb1b0e8f8)" d="M 185.878339 185.839619 
L 186.664202 188.605813 
L 185.181081 188.592839 
z
" style="stroke:#000000;"/>
    <path clip-path="url(#pdbb1b0e8f8)" d="M 187.15601 177.154272 
L 188.27027 177.152997 
L 188.168607 174.213221 
z
" style="stroke:#000000;"/>
    <path clip-path="url(#pdbb1b0e8f8)" d="M 188.27027 177.152997 
L 187.15601 177.154272 
L 188.168607 180.093004 
z
" style="stroke:#000000;"/>
    <path clip-path="url(#pdbb1b0e8f8)" d="M 185.577178 174.389871 
L 186.77416 171.65291 
L 185.291039 171.656625 
z
" style="stroke:#000000;"/>
    <path clip-path="url(#pdbb1b0e8f8)" d="M 187.0603 174.38885 
L 188.168607 174.213221 
L 187.86464 171.304708 
z
" style="stroke:#000000;"/>
    <path clip-path="url(#pdbb1b0e8f8)" d="M 188.168607 180.093004 
L 187.0603 179.919913 
L 187.86464 183.002214 
z
" style="stroke:#000000;"/>
    <path clip-path="url(#pdbb1b0e8f8)" d="M 185.181081 188.592839 
L 184.16105 187.914895 
L 184.817381 185.325335 
z
" style="stroke:#000000;"/>
    <path clip-path="url(#pdbb1b0e8f8)" d="M 184.16105 166.393702 
L 185.181081 165.713428 
L 184.817381 168.981763 
z
" style="stroke:#000000;"/>
    <path clip-path="url(#pdbb1b0e8f8)" d="M 186.664202 188.605813 
L 185.878339 185.839619 
L 187.361462 185.849875 
z
" style="stroke:#000000;"/>
    <path clip-path="url(#pdbb1b0e8f8)" d="M 187.0603 174.38885 
L 185.672887 177.152572 
L 187.15601 177.154272 
z
" style="stroke:#000000;"/>
    <path clip-path="url(#pdbb1b0e8f8)" d="M 184.817381 185.325335 
L 186.77416 182.656508 
L 185.291039 182.649391 
z
" style="stroke:#000000;"/>
    <path clip-path="url(#pdbb1b0e8f8)" d="M 187.15601 177.154272 
L 185.577178 179.915491 
L 187.0603 179.919913 
z
" style="stroke:#000000;"/>
    <path clip-path="url(#pdbb1b0e8f8)" d="M 184.16105 187.914895 
L 185.181081 188.592839 
L 184.296837 191.225186 
z
" style="stroke:#000000;"/>
    <path clip-path="url(#pdbb1b0e8f8)" d="M 185.181081 165.713428 
L 184.16105 166.393702 
L 184.296837 163.083101 
z
" style="stroke:#000000;"/>
    <path clip-path="url(#pdbb1b0e8f8)" d="M 187.0603 179.919913 
L 188.168607 180.093004 
L 187.15601 177.154272 
z
" style="stroke:#000000;"/>
    <path clip-path="url(#pdbb1b0e8f8)" d="M 188.168607 174.213221 
L 187.0603 174.38885 
L 187.15601 177.154272 
z
" style="stroke:#000000;"/>
    <path clip-path="url(#pdbb1b0e8f8)" d="M 186.77416 171.65291 
L 185.577178 174.389871 
L 187.0603 174.38885 
z
" style="stroke:#000000;"/>
    <path clip-path="url(#pdbb1b0e8f8)" d="M 185.291039 171.656625 
L 186.300501 168.97541 
L 184.817381 168.981763 
z
" style="stroke:#000000;"/>
    <path clip-path="url(#pdbb1b0e8f8)" d="M 187.361462 168.458198 
L 185.181081 165.713428 
L 186.664202 165.703856 
z
" style="stroke:#000000;"/>
    <path clip-path="url(#pdbb1b0e8f8)" d="M 187.0603 179.919913 
L 185.291039 182.649391 
L 186.77416 182.656508 
z
" style="stroke:#000000;"/>
    <path clip-path="url(#pdbb1b0e8f8)" d="M 184.296837 163.083101 
L 186.664202 165.703856 
L 185.181081 165.713428 
z
" style="stroke:#000000;"/>
    <path clip-path="url(#pdbb1b0e8f8)" d="M 186.77416 171.65291 
L 187.86464 171.304708 
L 187.361462 168.458198 
z
" style="stroke:#000000;"/>
    <path clip-path="url(#pdbb1b0e8f8)" d="M 187.86464 183.002214 
L 186.77416 182.656508 
L 187.361462 185.849875 
z
" style="stroke:#000000;"/>
    <path clip-path="url(#pdbb1b0e8f8)" d="M 187.86464 171.304708 
L 186.77416 171.65291 
L 187.0603 174.38885 
z
" style="stroke:#000000;"/>
    <path clip-path="url(#pdbb1b0e8f8)" d="M 186.77416 182.656508 
L 187.86464 183.002214 
L 187.0603 179.919913 
z
" style="stroke:#000000;"/>
    <path clip-path="url(#pdbb1b0e8f8)" d="M 186.300501 168.97541 
L 185.291039 171.656625 
L 186.77416 171.65291 
z
" style="stroke:#000000;"/>
    <path clip-path="url(#pdbb1b0e8f8)" d="M 184.16105 187.914895 
L 186.300501 185.335092 
L 184.817381 185.325335 
z
" style="stroke:#000000;"/>
    <path clip-path="url(#pdbb1b0e8f8)" d="M 185.181081 188.592839 
L 185.779954 191.240764 
L 184.296837 191.225186 
z
" style="stroke:#000000;"/>
    <path clip-path="url(#pdbb1b0e8f8)" d="M 186.77416 182.656508 
L 184.817381 185.325335 
L 186.300501 185.335092 
z
" style="stroke:#000000;"/>
    <path clip-path="url(#pdbb1b0e8f8)" d="M 184.296837 191.225186 
L 183.328775 190.390497 
L 184.16105 187.914895 
z
" style="stroke:#000000;"/>
    <path clip-path="url(#pdbb1b0e8f8)" d="M 183.328775 163.920001 
L 184.296837 163.083101 
L 184.16105 166.393702 
z
" style="stroke:#000000;"/>
    <path clip-path="url(#pdbb1b0e8f8)" d="M 185.779954 191.240764 
L 185.181081 188.592839 
L 186.664202 188.605813 
z
" style="stroke:#000000;"/>
    <path clip-path="url(#pdbb1b0e8f8)" d="M 184.817381 168.981763 
L 185.644167 166.384794 
L 184.16105 166.393702 
z
" style="stroke:#000000;"/>
    <path clip-path="url(#pdbb1b0e8f8)" d="M 187.361462 168.458198 
L 186.300501 168.97541 
L 186.77416 171.65291 
z
" style="stroke:#000000;"/>
    <path clip-path="url(#pdbb1b0e8f8)" d="M 186.300501 185.335092 
L 187.361462 185.849875 
L 186.77416 182.656508 
z
" style="stroke:#000000;"/>
    <path clip-path="url(#pdbb1b0e8f8)" d="M 186.300501 168.97541 
L 187.361462 168.458198 
L 186.664202 165.703856 
z
" style="stroke:#000000;"/>
    <path clip-path="url(#pdbb1b0e8f8)" d="M 187.361462 185.849875 
L 186.300501 185.335092 
L 186.664202 188.605813 
z
" style="stroke:#000000;"/>
    <path clip-path="url(#pdbb1b0e8f8)" d="M 183.234677 193.708444 
L 183.328775 190.390497 
L 184.296837 191.225186 
z
" style="stroke:#000000;"/>
    <path clip-path="url(#pdbb1b0e8f8)" d="M 183.328775 163.920001 
L 183.234677 160.60227 
L 184.296837 163.083101 
z
" style="stroke:#000000;"/>
    <path clip-path="url(#pdbb1b0e8f8)" d="M 185.644167 166.384794 
L 184.817381 168.981763 
L 186.300501 168.97541 
z
" style="stroke:#000000;"/>
    <path clip-path="url(#pdbb1b0e8f8)" d="M 186.664202 165.703856 
L 184.296837 163.083101 
L 185.779954 163.070929 
z
" style="stroke:#000000;"/>
    <path clip-path="url(#pdbb1b0e8f8)" d="M 183.234677 160.60227 
L 185.779954 163.070929 
L 184.296837 163.083101 
z
" style="stroke:#000000;"/>
    <path clip-path="url(#pdbb1b0e8f8)" d="M 183.328775 190.390497 
L 185.644167 187.92721 
L 184.16105 187.914895 
z
" style="stroke:#000000;"/>
    <path clip-path="url(#pdbb1b0e8f8)" d="M 186.300501 185.335092 
L 184.16105 187.914895 
L 185.644167 187.92721 
z
" style="stroke:#000000;"/>
    <path clip-path="url(#pdbb1b0e8f8)" d="M 186.664202 165.703856 
L 185.644167 166.384794 
L 186.300501 168.97541 
z
" style="stroke:#000000;"/>
    <path clip-path="url(#pdbb1b0e8f8)" d="M 185.644167 187.92721 
L 186.664202 188.605813 
L 186.300501 185.335092 
z
" style="stroke:#000000;"/>
    <path clip-path="url(#pdbb1b0e8f8)" d="M 184.16105 166.393702 
L 184.811888 163.908648 
L 183.328775 163.920001 
z
" style="stroke:#000000;"/>
    <path clip-path="url(#pdbb1b0e8f8)" d="M 184.296837 191.225186 
L 184.717789 193.726483 
L 183.234677 193.708444 
z
" style="stroke:#000000;"/>
    <path clip-path="url(#pdbb1b0e8f8)" d="M 185.644167 166.384794 
L 186.664202 165.703856 
L 185.779954 163.070929 
z
" style="stroke:#000000;"/>
    <path clip-path="url(#pdbb1b0e8f8)" d="M 186.664202 188.605813 
L 185.644167 187.92721 
L 185.779954 191.240764 
z
" style="stroke:#000000;"/>
    <path clip-path="url(#pdbb1b0e8f8)" d="M 183.234677 193.708444 
L 182.329105 192.72569 
L 183.328775 190.390497 
z
" style="stroke:#000000;"/>
    <path clip-path="url(#pdbb1b0e8f8)" d="M 182.329105 161.587092 
L 183.234677 160.60227 
L 183.328775 163.920001 
z
" style="stroke:#000000;"/>
    <path clip-path="url(#pdbb1b0e8f8)" d="M 184.717789 193.726483 
L 184.296837 191.225186 
L 185.779954 191.240764 
z
" style="stroke:#000000;"/>
    <path clip-path="url(#pdbb1b0e8f8)" d="M 184.811888 163.908648 
L 184.16105 166.393702 
L 185.644167 166.384794 
z
" style="stroke:#000000;"/>
    <path clip-path="url(#pdbb1b0e8f8)" d="M 185.644167 187.92721 
L 183.328775 190.390497 
L 184.811888 190.405261 
z
" style="stroke:#000000;"/>
    <path clip-path="url(#pdbb1b0e8f8)" d="M 185.779954 163.070929 
L 183.234677 160.60227 
L 184.717789 160.587642 
z
" style="stroke:#000000;"/>
    <path clip-path="url(#pdbb1b0e8f8)" d="M 182.005514 196.016066 
L 182.329105 192.72569 
L 183.234677 193.708444 
z
" style="stroke:#000000;"/>
    <path clip-path="url(#pdbb1b0e8f8)" d="M 182.329105 161.587092 
L 182.005514 158.297456 
L 183.234677 160.60227 
z
" style="stroke:#000000;"/>
    <path clip-path="url(#pdbb1b0e8f8)" d="M 182.329105 192.72569 
L 184.811888 190.405261 
L 183.328775 190.390497 
z
" style="stroke:#000000;"/>
    <path clip-path="url(#pdbb1b0e8f8)" d="M 185.779954 163.070929 
L 184.811888 163.908648 
L 185.644167 166.384794 
z
" style="stroke:#000000;"/>
    <path clip-path="url(#pdbb1b0e8f8)" d="M 184.811888 190.405261 
L 185.779954 191.240764 
L 185.644167 187.92721 
z
" style="stroke:#000000;"/>
    <path clip-path="url(#pdbb1b0e8f8)" d="M 182.005514 158.297456 
L 184.717789 160.587642 
L 183.234677 160.60227 
z
" style="stroke:#000000;"/>
    <path clip-path="url(#pdbb1b0e8f8)" d="M 183.328775 163.920001 
L 183.812212 161.573428 
L 182.329105 161.587092 
z
" style="stroke:#000000;"/>
    <path clip-path="url(#pdbb1b0e8f8)" d="M 184.717789 160.587642 
L 184.811888 163.908648 
L 185.779954 163.070929 
z
" style="stroke:#000000;"/>
    <path clip-path="url(#pdbb1b0e8f8)" d="M 184.811888 190.405261 
L 184.717789 193.726483 
L 185.779954 191.240764 
z
" style="stroke:#000000;"/>
    <path clip-path="url(#pdbb1b0e8f8)" d="M 183.812212 161.573428 
L 183.328775 163.920001 
L 184.811888 163.908648 
z
" style="stroke:#000000;"/>
    <path clip-path="url(#pdbb1b0e8f8)" d="M 183.234677 193.708444 
L 183.488618 196.036398 
L 182.005514 196.016066 
z
" style="stroke:#000000;"/>
    <path clip-path="url(#pdbb1b0e8f8)" d="M 182.005514 196.016066 
L 181.172358 194.89521 
L 182.329105 192.72569 
z
" style="stroke:#000000;"/>
    <path clip-path="url(#pdbb1b0e8f8)" d="M 181.172358 159.420215 
L 182.005514 158.297456 
L 182.329105 161.587092 
z
" style="stroke:#000000;"/>
    <path clip-path="url(#pdbb1b0e8f8)" d="M 183.488618 196.036398 
L 183.234677 193.708444 
L 184.717789 193.726483 
z
" style="stroke:#000000;"/>
    <path clip-path="url(#pdbb1b0e8f8)" d="M 184.811888 190.405261 
L 182.329105 192.72569 
L 183.812212 192.74277 
z
" style="stroke:#000000;"/>
    <path clip-path="url(#pdbb1b0e8f8)" d="M 184.717789 160.587642 
L 183.812212 161.573428 
L 184.811888 163.908648 
z
" style="stroke:#000000;"/>
    <path clip-path="url(#pdbb1b0e8f8)" d="M 183.812212 192.74277 
L 184.717789 193.726483 
L 184.811888 190.405261 
z
" style="stroke:#000000;"/>
    <path clip-path="url(#pdbb1b0e8f8)" d="M 181.172358 194.89521 
L 183.812212 192.74277 
L 182.329105 192.72569 
z
" style="stroke:#000000;"/>
    <path clip-path="url(#pdbb1b0e8f8)" d="M 184.717789 160.587642 
L 182.005514 158.297456 
L 183.488618 158.28054 
z
" style="stroke:#000000;"/>
    <path clip-path="url(#pdbb1b0e8f8)" d="M 180.825364 196.70027 
L 182.005514 196.016066 
L 181.314088 197.069002 
z
" style="stroke:#000000;"/>
    <path clip-path="url(#pdbb1b0e8f8)" d="M 182.005514 158.297456 
L 180.825364 157.615947 
L 181.314088 157.246099 
z
" style="stroke:#000000;"/>
    <path clip-path="url(#pdbb1b0e8f8)" d="M 182.005514 196.016066 
L 180.825364 196.70027 
L 181.172358 194.89521 
z
" style="stroke:#000000;"/>
    <path clip-path="url(#pdbb1b0e8f8)" d="M 180.825364 157.615947 
L 182.005514 158.297456 
L 181.172358 159.420215 
z
" style="stroke:#000000;"/>
    <path clip-path="url(#pdbb1b0e8f8)" d="M 181.314088 157.246099 
L 183.488618 158.28054 
L 182.005514 158.297456 
z
" style="stroke:#000000;"/>
    <path clip-path="url(#pdbb1b0e8f8)" d="M 182.329105 161.587092 
L 182.655456 159.404399 
L 181.172358 159.420215 
z
" style="stroke:#000000;"/>
    <path clip-path="url(#pdbb1b0e8f8)" d="M 182.005514 196.016066 
L 182.797187 197.090384 
L 181.314088 197.069002 
z
" style="stroke:#000000;"/>
    <path clip-path="url(#pdbb1b0e8f8)" d="M 183.488618 158.28054 
L 183.812212 161.573428 
L 184.717789 160.587642 
z
" style="stroke:#000000;"/>
    <path clip-path="url(#pdbb1b0e8f8)" d="M 183.812212 192.74277 
L 183.488618 196.036398 
L 184.717789 193.726483 
z
" style="stroke:#000000;"/>
    <path clip-path="url(#pdbb1b0e8f8)" d="M 182.655456 159.404399 
L 182.329105 161.587092 
L 183.812212 161.573428 
z
" style="stroke:#000000;"/>
    <path clip-path="url(#pdbb1b0e8f8)" d="M 182.797187 197.090384 
L 182.005514 196.016066 
L 183.488618 196.036398 
z
" style="stroke:#000000;"/>
    <path clip-path="url(#pdbb1b0e8f8)" d="M 181.172358 194.89521 
L 180.825364 196.70027 
L 180.311723 196.204441 
z
" style="stroke:#000000;"/>
    <path clip-path="url(#pdbb1b0e8f8)" d="M 180.825364 157.615947 
L 181.172358 159.420215 
L 180.311723 158.11295 
z
" style="stroke:#000000;"/>
    <path clip-path="url(#pdbb1b0e8f8)" d="M 182.797187 197.090384 
L 180.825364 196.70027 
L 181.314088 197.069002 
z
" style="stroke:#000000;"/>
    <path clip-path="url(#pdbb1b0e8f8)" d="M 183.812212 192.74277 
L 181.172358 194.89521 
L 182.655456 194.914446 
z
" style="stroke:#000000;"/>
    <path clip-path="url(#pdbb1b0e8f8)" d="M 183.488618 158.28054 
L 181.314088 157.246099 
L 182.797187 157.228136 
z
" style="stroke:#000000;"/>
    <path clip-path="url(#pdbb1b0e8f8)" d="M 182.308459 157.598345 
L 181.314088 157.246099 
L 180.825364 157.615947 
z
" style="stroke:#000000;"/>
    <path clip-path="url(#pdbb1b0e8f8)" d="M 182.655456 159.404399 
L 180.311723 158.11295 
L 181.172358 159.420215 
z
" style="stroke:#000000;"/>
    <path clip-path="url(#pdbb1b0e8f8)" d="M 183.488618 158.28054 
L 182.655456 159.404399 
L 183.812212 161.573428 
z
" style="stroke:#000000;"/>
    <path clip-path="url(#pdbb1b0e8f8)" d="M 182.655456 194.914446 
L 183.488618 196.036398 
L 183.812212 192.74277 
z
" style="stroke:#000000;"/>
    <path clip-path="url(#pdbb1b0e8f8)" d="M 182.308459 196.721294 
L 180.311723 196.204441 
L 180.825364 196.70027 
z
" style="stroke:#000000;"/>
    <path clip-path="url(#pdbb1b0e8f8)" d="M 181.314088 157.246099 
L 182.308459 157.598345 
L 182.797187 157.228136 
z
" style="stroke:#000000;"/>
    <path clip-path="url(#pdbb1b0e8f8)" d="M 181.794814 196.224982 
L 181.172358 194.89521 
L 180.311723 196.204441 
z
" style="stroke:#000000;"/>
    <path clip-path="url(#pdbb1b0e8f8)" d="M 180.825364 196.70027 
L 182.797187 197.090384 
L 182.308459 196.721294 
z
" style="stroke:#000000;"/>
    <path clip-path="url(#pdbb1b0e8f8)" d="M 181.794814 158.095833 
L 180.825364 157.615947 
L 180.311723 158.11295 
z
" style="stroke:#000000;"/>
    <path clip-path="url(#pdbb1b0e8f8)" d="M 181.172358 194.89521 
L 181.794814 196.224982 
L 182.655456 194.914446 
z
" style="stroke:#000000;"/>
    <path clip-path="url(#pdbb1b0e8f8)" d="M 182.308459 157.598345 
L 183.488618 158.28054 
L 182.797187 157.228136 
z
" style="stroke:#000000;"/>
    <path clip-path="url(#pdbb1b0e8f8)" d="M 183.488618 196.036398 
L 182.308459 196.721294 
L 182.797187 197.090384 
z
" style="stroke:#000000;"/>
    <path clip-path="url(#pdbb1b0e8f8)" d="M 183.488618 158.28054 
L 182.308459 157.598345 
L 182.655456 159.404399 
z
" style="stroke:#000000;"/>
    <path clip-path="url(#pdbb1b0e8f8)" d="M 182.308459 196.721294 
L 183.488618 196.036398 
L 182.655456 194.914446 
z
" style="stroke:#000000;"/>
    <path clip-path="url(#pdbb1b0e8f8)" d="M 180.825364 157.615947 
L 181.794814 158.095833 
L 182.308459 157.598345 
z
" style="stroke:#000000;"/>
    <path clip-path="url(#pdbb1b0e8f8)" d="M 180.311723 158.11295 
L 182.655456 159.404399 
L 181.794814 158.095833 
z
" style="stroke:#000000;"/>
    <path clip-path="url(#pdbb1b0e8f8)" d="M 180.311723 196.204441 
L 182.308459 196.721294 
L 181.794814 196.224982 
z
" style="stroke:#000000;"/>
    <path clip-path="url(#pdbb1b0e8f8)" d="M 182.655456 159.404399 
L 182.308459 157.598345 
L 181.794814 158.095833 
z
" style="stroke:#000000;"/>
    <path clip-path="url(#pdbb1b0e8f8)" d="M 182.308459 196.721294 
L 182.655456 194.914446 
L 181.794814 196.224982 
z
" style="stroke:#000000;"/>
   </g>
  </g>
 </g>
 <defs>
  <clipPath id="pdbb1b0e8f8">
   <rect height="271.8" width="279" x="45" y="43.2"/>
  </clipPath>
 </defs>
</svg>
