<?xml version="1.0" encoding="utf-8" standalone="no"?>
<!DOCTYPE svg PUBLIC "-//W3C//DTD SVG 1.1//EN"
  "http://www.w3.org/Graphics/SVG/1.1/DTD/svg11.dtd">
<!-- Created with matplotlib (https://matplotlib.org/) -->
<svg height="360pt" version="1.1" viewBox="0 0 360 360" width="360pt" xmlns="http://www.w3.org/2000/svg" xmlns:xlink="http://www.w3.org/1999/xlink">
 <defs>
  <style type="text/css">
*{stroke-linecap:butt;stroke-linejoin:round;}
  </style>
 </defs>
 <g id="figure_1">
  <g id="patch_1">
   <path d="M 0 360 
L 360 360 
L 360 0 
L 0 0 
z
" style="fill:#ffffff;"/>
  </g>
  <g id="patch_2">
   <path d="M 45 315 
L 324 315 
L 324 43.2 
L 45 43.2 
z
" style="fill:#ffffff;"/>
  </g>
  <g id="axes_1">
   <g id="Poly3DCollection_1">
    <path clip-path="url(#p1514ca5aab)" d="M 196.725414 196.521413 
L 196.307272 194.739051 
L 197.343774 196.017881 
z
" style="stroke:#000000;"/>
    <path clip-path="url(#p1514ca5aab)" d="M 196.307272 159.54861 
L 196.725414 157.765696 
L 197.343774 158.268413 
z
" style="stroke:#000000;"/>
    <path clip-path="url(#p1514ca5aab)" d="M 196.725414 196.521413 
L 195.301955 195.870042 
L 196.307272 194.739051 
z
" style="stroke:#000000;"/>
    <path clip-path="url(#p1514ca5aab)" d="M 195.301955 158.418944 
L 196.725414 157.765696 
L 196.307272 159.54861 
z
" style="stroke:#000000;"/>
    <path clip-path="url(#p1514ca5aab)" d="M 198.399685 196.042594 
L 196.725414 196.521413 
L 197.343774 196.017881 
z
" style="stroke:#000000;"/>
    <path clip-path="url(#p1514ca5aab)" d="M 195.301955 195.870042 
L 196.725414 196.521413 
L 196.136389 196.898824 
z
" style="stroke:#000000;"/>
    <path clip-path="url(#p1514ca5aab)" d="M 196.725414 157.765696 
L 195.301955 158.418944 
L 196.136389 157.389062 
z
" style="stroke:#000000;"/>
    <path clip-path="url(#p1514ca5aab)" d="M 198.399685 158.247819 
L 196.307272 159.54861 
L 197.343774 158.268413 
z
" style="stroke:#000000;"/>
    <path clip-path="url(#p1514ca5aab)" d="M 197.780835 157.744494 
L 197.343774 158.268413 
L 196.725414 157.765696 
z
" style="stroke:#000000;"/>
    <path clip-path="url(#p1514ca5aab)" d="M 197.36236 194.762238 
L 197.343774 196.017881 
L 196.307272 194.739051 
z
" style="stroke:#000000;"/>
    <path clip-path="url(#p1514ca5aab)" d="M 195.301955 195.870042 
L 194.91099 192.609252 
L 196.307272 194.739051 
z
" style="stroke:#000000;"/>
    <path clip-path="url(#p1514ca5aab)" d="M 194.91099 161.680249 
L 195.301955 158.418944 
L 196.307272 159.54861 
z
" style="stroke:#000000;"/>
    <path clip-path="url(#p1514ca5aab)" d="M 197.780835 196.546737 
L 196.136389 196.898824 
L 196.725414 196.521413 
z
" style="stroke:#000000;"/>
    <path clip-path="url(#p1514ca5aab)" d="M 197.191341 157.367402 
L 196.725414 157.765696 
L 196.136389 157.389062 
z
" style="stroke:#000000;"/>
    <path clip-path="url(#p1514ca5aab)" d="M 197.343774 158.268413 
L 197.780835 157.744494 
L 198.399685 158.247819 
z
" style="stroke:#000000;"/>
    <path clip-path="url(#p1514ca5aab)" d="M 197.343774 196.017881 
L 197.36236 194.762238 
L 198.399685 196.042594 
z
" style="stroke:#000000;"/>
    <path clip-path="url(#p1514ca5aab)" d="M 196.725414 196.521413 
L 198.399685 196.042594 
L 197.780835 196.546737 
z
" style="stroke:#000000;"/>
    <path clip-path="url(#p1514ca5aab)" d="M 195.301955 158.418944 
L 197.191341 157.367402 
L 196.136389 157.389062 
z
" style="stroke:#000000;"/>
    <path clip-path="url(#p1514ca5aab)" d="M 194.91099 192.609252 
L 197.36236 194.762238 
L 196.307272 194.739051 
z
" style="stroke:#000000;"/>
    <path clip-path="url(#p1514ca5aab)" d="M 193.815358 193.603898 
L 194.91099 192.609252 
L 195.301955 195.870042 
z
" style="stroke:#000000;"/>
    <path clip-path="url(#p1514ca5aab)" d="M 194.91099 161.680249 
L 193.815358 160.687048 
L 195.301955 158.418944 
z
" style="stroke:#000000;"/>
    <path clip-path="url(#p1514ca5aab)" d="M 196.307272 159.54861 
L 198.399685 158.247819 
L 197.36236 159.529545 
z
" style="stroke:#000000;"/>
    <path clip-path="url(#p1514ca5aab)" d="M 196.136389 196.898824 
L 196.356243 195.894597 
L 195.301955 195.870042 
z
" style="stroke:#000000;"/>
    <path clip-path="url(#p1514ca5aab)" d="M 196.725414 157.765696 
L 197.191341 157.367402 
L 197.780835 157.744494 
z
" style="stroke:#000000;"/>
    <path clip-path="url(#p1514ca5aab)" d="M 196.307272 159.54861 
L 195.964967 161.663735 
L 194.91099 161.680249 
z
" style="stroke:#000000;"/>
    <path clip-path="url(#p1514ca5aab)" d="M 196.136389 196.898824 
L 197.780835 196.546737 
L 197.191341 196.924607 
z
" style="stroke:#000000;"/>
    <path clip-path="url(#p1514ca5aab)" d="M 193.815358 193.603898 
L 193.701383 190.306502 
L 194.91099 192.609252 
z
" style="stroke:#000000;"/>
    <path clip-path="url(#p1514ca5aab)" d="M 193.701383 163.984595 
L 193.815358 160.687048 
L 194.91099 161.680249 
z
" style="stroke:#000000;"/>
    <path clip-path="url(#p1514ca5aab)" d="M 196.356243 195.894597 
L 196.136389 196.898824 
L 197.191341 196.924607 
z
" style="stroke:#000000;"/>
    <path clip-path="url(#p1514ca5aab)" d="M 193.815358 160.687048 
L 196.356243 158.398515 
L 195.301955 158.418944 
z
" style="stroke:#000000;"/>
    <path clip-path="url(#p1514ca5aab)" d="M 195.964967 161.663735 
L 196.307272 159.54861 
L 197.36236 159.529545 
z
" style="stroke:#000000;"/>
    <path clip-path="url(#p1514ca5aab)" d="M 197.780835 157.744494 
L 197.36236 159.529545 
L 198.399685 158.247819 
z
" style="stroke:#000000;"/>
    <path clip-path="url(#p1514ca5aab)" d="M 197.36236 194.762238 
L 197.780835 196.546737 
L 198.399685 196.042594 
z
" style="stroke:#000000;"/>
    <path clip-path="url(#p1514ca5aab)" d="M 197.191341 157.367402 
L 195.301955 158.418944 
L 196.356243 158.398515 
z
" style="stroke:#000000;"/>
    <path clip-path="url(#p1514ca5aab)" d="M 193.701383 190.306502 
L 195.964967 192.629893 
L 194.91099 192.609252 
z
" style="stroke:#000000;"/>
    <path clip-path="url(#p1514ca5aab)" d="M 192.527424 191.153642 
L 193.701383 190.306502 
L 193.815358 193.603898 
z
" style="stroke:#000000;"/>
    <path clip-path="url(#p1514ca5aab)" d="M 193.701383 163.984595 
L 192.527424 163.139002 
L 193.815358 160.687048 
z
" style="stroke:#000000;"/>
    <path clip-path="url(#p1514ca5aab)" d="M 197.36236 194.762238 
L 194.91099 192.609252 
L 195.964967 192.629893 
z
" style="stroke:#000000;"/>
    <path clip-path="url(#p1514ca5aab)" d="M 195.301955 195.870042 
L 194.868462 193.625744 
L 193.815358 193.603898 
z
" style="stroke:#000000;"/>
    <path clip-path="url(#p1514ca5aab)" d="M 194.91099 161.680249 
L 194.754396 163.970842 
L 193.701383 163.984595 
z
" style="stroke:#000000;"/>
    <path clip-path="url(#p1514ca5aab)" d="M 197.780835 157.744494 
L 196.356243 158.398515 
L 197.36236 159.529545 
z
" style="stroke:#000000;"/>
    <path clip-path="url(#p1514ca5aab)" d="M 196.356243 195.894597 
L 197.780835 196.546737 
L 197.36236 194.762238 
z
" style="stroke:#000000;"/>
    <path clip-path="url(#p1514ca5aab)" d="M 193.701383 190.306502 
L 192.527424 191.153642 
L 192.692245 187.856441 
z
" style="stroke:#000000;"/>
    <path clip-path="url(#p1514ca5aab)" d="M 192.527424 163.139002 
L 193.701383 163.984595 
L 192.692245 166.435986 
z
" style="stroke:#000000;"/>
    <path clip-path="url(#p1514ca5aab)" d="M 196.356243 158.398515 
L 197.780835 157.744494 
L 197.191341 157.367402 
z
" style="stroke:#000000;"/>
    <path clip-path="url(#p1514ca5aab)" d="M 197.780835 196.546737 
L 196.356243 195.894597 
L 197.191341 196.924607 
z
" style="stroke:#000000;"/>
    <path clip-path="url(#p1514ca5aab)" d="M 194.868462 193.625744 
L 195.301955 195.870042 
L 196.356243 195.894597 
z
" style="stroke:#000000;"/>
    <path clip-path="url(#p1514ca5aab)" d="M 194.754396 163.970842 
L 194.91099 161.680249 
L 195.964967 161.663735 
z
" style="stroke:#000000;"/>
    <path clip-path="url(#p1514ca5aab)" d="M 196.356243 158.398515 
L 195.964967 161.663735 
L 197.36236 159.529545 
z
" style="stroke:#000000;"/>
    <path clip-path="url(#p1514ca5aab)" d="M 195.964967 192.629893 
L 196.356243 195.894597 
L 197.36236 194.762238 
z
" style="stroke:#000000;"/>
    <path clip-path="url(#p1514ca5aab)" d="M 192.527424 163.139002 
L 194.868462 160.669333 
L 193.815358 160.687048 
z
" style="stroke:#000000;"/>
    <path clip-path="url(#p1514ca5aab)" d="M 192.692245 187.856441 
L 194.754396 190.324385 
L 193.701383 190.306502 
z
" style="stroke:#000000;"/>
    <path clip-path="url(#p1514ca5aab)" d="M 191.452869 188.546288 
L 192.692245 187.856441 
L 192.527424 191.153642 
z
" style="stroke:#000000;"/>
    <path clip-path="url(#p1514ca5aab)" d="M 192.692245 166.435986 
L 191.452869 165.747773 
L 192.527424 163.139002 
z
" style="stroke:#000000;"/>
    <path clip-path="url(#p1514ca5aab)" d="M 196.356243 158.398515 
L 193.815358 160.687048 
L 194.868462 160.669333 
z
" style="stroke:#000000;"/>
    <path clip-path="url(#p1514ca5aab)" d="M 195.964967 192.629893 
L 193.701383 190.306502 
L 194.754396 190.324385 
z
" style="stroke:#000000;"/>
    <path clip-path="url(#p1514ca5aab)" d="M 192.692245 187.856441 
L 191.452869 188.546288 
L 191.895105 185.286293 
z
" style="stroke:#000000;"/>
    <path clip-path="url(#p1514ca5aab)" d="M 191.452869 165.747773 
L 192.692245 166.435986 
L 191.895105 169.007185 
z
" style="stroke:#000000;"/>
    <path clip-path="url(#p1514ca5aab)" d="M 193.701383 163.984595 
L 193.744452 166.425176 
L 192.692245 166.435986 
z
" style="stroke:#000000;"/>
    <path clip-path="url(#p1514ca5aab)" d="M 193.815358 193.603898 
L 193.5795 191.172552 
L 192.527424 191.153642 
z
" style="stroke:#000000;"/>
    <path clip-path="url(#p1514ca5aab)" d="M 194.868462 160.669333 
L 195.964967 161.663735 
L 196.356243 158.398515 
z
" style="stroke:#000000;"/>
    <path clip-path="url(#p1514ca5aab)" d="M 195.964967 192.629893 
L 194.868462 193.625744 
L 196.356243 195.894597 
z
" style="stroke:#000000;"/>
    <path clip-path="url(#p1514ca5aab)" d="M 191.895105 185.286293 
L 193.744452 187.871385 
L 192.692245 187.856441 
z
" style="stroke:#000000;"/>
    <path clip-path="url(#p1514ca5aab)" d="M 190.604031 185.810969 
L 191.895105 185.286293 
L 191.452869 188.546288 
z
" style="stroke:#000000;"/>
    <path clip-path="url(#p1514ca5aab)" d="M 191.895105 169.007185 
L 190.604031 168.484211 
L 191.452869 165.747773 
z
" style="stroke:#000000;"/>
    <path clip-path="url(#p1514ca5aab)" d="M 193.5795 191.172552 
L 193.815358 193.603898 
L 194.868462 193.625744 
z
" style="stroke:#000000;"/>
    <path clip-path="url(#p1514ca5aab)" d="M 193.744452 166.425176 
L 193.701383 163.984595 
L 194.754396 163.970842 
z
" style="stroke:#000000;"/>
    <path clip-path="url(#p1514ca5aab)" d="M 191.895105 185.286293 
L 190.604031 185.810969 
L 191.319095 182.624747 
z
" style="stroke:#000000;"/>
    <path clip-path="url(#p1514ca5aab)" d="M 190.604031 168.484211 
L 191.895105 169.007185 
L 191.319095 171.66949 
z
" style="stroke:#000000;"/>
    <path clip-path="url(#p1514ca5aab)" d="M 191.452869 165.747773 
L 193.5795 163.124227 
L 192.527424 163.139002 
z
" style="stroke:#000000;"/>
    <path clip-path="url(#p1514ca5aab)" d="M 192.692245 166.435986 
L 192.946676 168.999464 
L 191.895105 169.007185 
z
" style="stroke:#000000;"/>
    <path clip-path="url(#p1514ca5aab)" d="M 194.868462 160.669333 
L 194.754396 163.970842 
L 195.964967 161.663735 
z
" style="stroke:#000000;"/>
    <path clip-path="url(#p1514ca5aab)" d="M 194.754396 190.324385 
L 194.868462 193.625744 
L 195.964967 192.629893 
z
" style="stroke:#000000;"/>
    <path clip-path="url(#p1514ca5aab)" d="M 194.754396 190.324385 
L 192.692245 187.856441 
L 193.744452 187.871385 
z
" style="stroke:#000000;"/>
    <path clip-path="url(#p1514ca5aab)" d="M 194.868462 160.669333 
L 192.527424 163.139002 
L 193.5795 163.124227 
z
" style="stroke:#000000;"/>
    <path clip-path="url(#p1514ca5aab)" d="M 192.527424 191.153642 
L 192.504087 188.562069 
L 191.452869 188.546288 
z
" style="stroke:#000000;"/>
    <path clip-path="url(#p1514ca5aab)" d="M 191.319095 182.624747 
L 189.990637 182.978229 
L 190.970827 179.90162 
z
" style="stroke:#000000;"/>
    <path clip-path="url(#p1514ca5aab)" d="M 189.990637 171.31776 
L 191.319095 171.66949 
L 190.970827 174.393077 
z
" style="stroke:#000000;"/>
    <path clip-path="url(#p1514ca5aab)" d="M 191.319095 182.624747 
L 192.946676 185.298151 
L 191.895105 185.286293 
z
" style="stroke:#000000;"/>
    <path clip-path="url(#p1514ca5aab)" d="M 189.990637 182.978229 
L 191.319095 182.624747 
L 190.604031 185.810969 
z
" style="stroke:#000000;"/>
    <path clip-path="url(#p1514ca5aab)" d="M 191.319095 171.66949 
L 189.990637 171.31776 
L 190.604031 168.484211 
z
" style="stroke:#000000;"/>
    <path clip-path="url(#p1514ca5aab)" d="M 189.61975 174.216649 
L 190.970827 174.393077 
L 190.854286 177.147425 
z
" style="stroke:#000000;"/>
    <path clip-path="url(#p1514ca5aab)" d="M 190.970827 179.90162 
L 189.61975 180.07983 
L 190.854286 177.147425 
z
" style="stroke:#000000;"/>
    <path clip-path="url(#p1514ca5aab)" d="M 191.895105 169.007185 
L 192.370206 171.66497 
L 191.319095 171.66949 
z
" style="stroke:#000000;"/>
    <path clip-path="url(#p1514ca5aab)" d="M 192.946676 168.999464 
L 192.692245 166.435986 
L 193.744452 166.425176 
z
" style="stroke:#000000;"/>
    <path clip-path="url(#p1514ca5aab)" d="M 193.5795 163.124227 
L 194.754396 163.970842 
L 194.868462 160.669333 
z
" style="stroke:#000000;"/>
    <path clip-path="url(#p1514ca5aab)" d="M 194.754396 190.324385 
L 193.5795 191.172552 
L 194.868462 193.625744 
z
" style="stroke:#000000;"/>
    <path clip-path="url(#p1514ca5aab)" d="M 189.61975 180.07983 
L 190.970827 179.90162 
L 189.990637 182.978229 
z
" style="stroke:#000000;"/>
    <path clip-path="url(#p1514ca5aab)" d="M 190.970827 174.393077 
L 189.61975 174.216649 
L 189.990637 171.31776 
z
" style="stroke:#000000;"/>
    <path clip-path="url(#p1514ca5aab)" d="M 190.970827 179.90162 
L 192.370206 182.633406 
L 191.319095 182.624747 
z
" style="stroke:#000000;"/>
    <path clip-path="url(#p1514ca5aab)" d="M 190.604031 168.484211 
L 192.504087 165.73613 
L 191.452869 165.747773 
z
" style="stroke:#000000;"/>
    <path clip-path="url(#p1514ca5aab)" d="M 192.504087 188.562069 
L 192.527424 191.153642 
L 193.5795 191.172552 
z
" style="stroke:#000000;"/>
    <path clip-path="url(#p1514ca5aab)" d="M 193.744452 187.871385 
L 191.895105 185.286293 
L 192.946676 185.298151 
z
" style="stroke:#000000;"/>
    <path clip-path="url(#p1514ca5aab)" d="M 191.319095 171.66949 
L 192.02166 174.391833 
L 190.970827 174.393077 
z
" style="stroke:#000000;"/>
    <path clip-path="url(#p1514ca5aab)" d="M 189.495648 177.148321 
L 190.854286 177.147425 
L 189.61975 180.07983 
z
" style="stroke:#000000;"/>
    <path clip-path="url(#p1514ca5aab)" d="M 190.854286 177.147425 
L 189.495648 177.148321 
L 189.61975 174.216649 
z
" style="stroke:#000000;"/>
    <path clip-path="url(#p1514ca5aab)" d="M 190.854286 177.147425 
L 192.02166 179.907004 
L 190.970827 179.90162 
z
" style="stroke:#000000;"/>
    <path clip-path="url(#p1514ca5aab)" d="M 190.970827 174.393077 
L 191.905025 177.149495 
L 190.854286 177.147425 
z
" style="stroke:#000000;"/>
    <path clip-path="url(#p1514ca5aab)" d="M 191.452869 188.546288 
L 191.65457 185.823465 
L 190.604031 185.810969 
z
" style="stroke:#000000;"/>
    <path clip-path="url(#p1514ca5aab)" d="M 194.754396 163.970842 
L 193.5795 163.124227 
L 193.744452 166.425176 
z
" style="stroke:#000000;"/>
    <path clip-path="url(#p1514ca5aab)" d="M 193.5795 191.172552 
L 194.754396 190.324385 
L 193.744452 187.871385 
z
" style="stroke:#000000;"/>
    <path clip-path="url(#p1514ca5aab)" d="M 193.5795 163.124227 
L 191.452869 165.747773 
L 192.504087 165.73613 
z
" style="stroke:#000000;"/>
    <path clip-path="url(#p1514ca5aab)" d="M 192.370206 171.66497 
L 191.895105 169.007185 
L 192.946676 168.999464 
z
" style="stroke:#000000;"/>
    <path clip-path="url(#p1514ca5aab)" d="M 191.080588 159.207959 
L 187.681928 164.800172 
L 189.948684 159.551453 
z
" style="stroke:#000000;"/>
    <path clip-path="url(#p1514ca5aab)" d="M 189.948684 159.551453 
L 187.681928 156.380164 
L 191.080588 159.207959 
z
" style="stroke:#000000;"/>
    <path clip-path="url(#p1514ca5aab)" d="M 192.946676 185.298151 
L 191.319095 182.624747 
L 192.370206 182.633406 
z
" style="stroke:#000000;"/>
    <path clip-path="url(#p1514ca5aab)" d="M 189.990637 171.31776 
L 191.65457 168.475857 
L 190.604031 168.484211 
z
" style="stroke:#000000;"/>
    <path clip-path="url(#p1514ca5aab)" d="M 190.604031 185.810969 
L 191.040684 182.987318 
L 189.990637 182.978229 
z
" style="stroke:#000000;"/>
    <path clip-path="url(#p1514ca5aab)" d="M 192.02166 174.391833 
L 191.319095 171.66949 
L 192.370206 171.66497 
z
" style="stroke:#000000;"/>
    <path clip-path="url(#p1514ca5aab)" d="M 192.504087 165.73613 
L 193.744452 166.425176 
L 193.5795 163.124227 
z
" style="stroke:#000000;"/>
    <path clip-path="url(#p1514ca5aab)" d="M 193.744452 187.871385 
L 192.504087 188.562069 
L 193.5795 191.172552 
z
" style="stroke:#000000;"/>
    <path clip-path="url(#p1514ca5aab)" d="M 191.65457 185.823465 
L 191.452869 188.546288 
L 192.504087 188.562069 
z
" style="stroke:#000000;"/>
    <path clip-path="url(#p1514ca5aab)" d="M 192.370206 182.633406 
L 190.970827 179.90162 
L 192.02166 179.907004 
z
" style="stroke:#000000;"/>
    <path clip-path="url(#p1514ca5aab)" d="M 193.744452 166.425176 
L 192.504087 165.73613 
L 192.946676 168.999464 
z
" style="stroke:#000000;"/>
    <path clip-path="url(#p1514ca5aab)" d="M 192.504087 188.562069 
L 193.744452 187.871385 
L 192.946676 185.298151 
z
" style="stroke:#000000;"/>
    <path clip-path="url(#p1514ca5aab)" d="M 191.905025 177.149495 
L 190.970827 174.393077 
L 192.02166 174.391833 
z
" style="stroke:#000000;"/>
    <path clip-path="url(#p1514ca5aab)" d="M 189.61975 174.216649 
L 191.040684 171.312814 
L 189.990637 171.31776 
z
" style="stroke:#000000;"/>
    <path clip-path="url(#p1514ca5aab)" d="M 187.681928 164.800172 
L 191.080588 159.207959 
L 187.681928 167.606841 
z
" style="stroke:#000000;"/>
    <path clip-path="url(#p1514ca5aab)" d="M 192.02166 179.907004 
L 190.854286 177.147425 
L 191.905025 177.149495 
z
" style="stroke:#000000;"/>
    <path clip-path="url(#p1514ca5aab)" d="M 192.504087 165.73613 
L 190.604031 168.484211 
L 191.65457 168.475857 
z
" style="stroke:#000000;"/>
    <path clip-path="url(#p1514ca5aab)" d="M 189.990637 182.978229 
L 190.669501 180.08543 
L 189.61975 180.07983 
z
" style="stroke:#000000;"/>
    <path clip-path="url(#p1514ca5aab)" d="M 189.495648 177.148321 
L 190.669501 174.215192 
L 189.61975 174.216649 
z
" style="stroke:#000000;"/>
    <path clip-path="url(#p1514ca5aab)" d="M 189.61975 180.07983 
L 190.545299 177.150393 
L 189.495648 177.148321 
z
" style="stroke:#000000;"/>
    <path clip-path="url(#p1514ca5aab)" d="M 187.681928 156.380164 
L 189.948684 159.551453 
L 187.681928 157.783499 
z
" style="stroke:#000000;"/>
    <path clip-path="url(#p1514ca5aab)" d="M 191.040684 182.987318 
L 190.604031 185.810969 
L 191.65457 185.823465 
z
" style="stroke:#000000;"/>
    <path clip-path="url(#p1514ca5aab)" d="M 191.65457 168.475857 
L 192.946676 168.999464 
L 192.504087 165.73613 
z
" style="stroke:#000000;"/>
    <path clip-path="url(#p1514ca5aab)" d="M 192.946676 185.298151 
L 191.65457 185.823465 
L 192.504087 188.562069 
z
" style="stroke:#000000;"/>
    <path clip-path="url(#p1514ca5aab)" d="M 190.998698 159.532345 
L 187.681928 157.783499 
L 189.948684 159.551453 
z
" style="stroke:#000000;"/>
    <path clip-path="url(#p1514ca5aab)" d="M 187.681928 164.800172 
L 190.998698 159.532345 
L 189.948684 159.551453 
z
" style="stroke:#000000;"/>
    <path clip-path="url(#p1514ca5aab)" d="M 192.946676 168.999464 
L 191.65457 168.475857 
L 192.370206 171.66497 
z
" style="stroke:#000000;"/>
    <path clip-path="url(#p1514ca5aab)" d="M 191.65457 185.823465 
L 192.946676 185.298151 
L 192.370206 182.633406 
z
" style="stroke:#000000;"/>
    <path clip-path="url(#p1514ca5aab)" d="M 191.65457 168.475857 
L 189.990637 171.31776 
L 191.040684 171.312814 
z
" style="stroke:#000000;"/>
    <path clip-path="url(#p1514ca5aab)" d="M 191.080588 159.207959 
L 188.730124 156.357219 
L 192.131508 159.188446 
z
" style="stroke:#000000;"/>
    <path clip-path="url(#p1514ca5aab)" d="M 188.730124 167.597421 
L 191.080588 159.207959 
L 192.131508 159.188446 
z
" style="stroke:#000000;"/>
    <path clip-path="url(#p1514ca5aab)" d="M 190.669501 180.08543 
L 189.990637 182.978229 
L 191.040684 182.987318 
z
" style="stroke:#000000;"/>
    <path clip-path="url(#p1514ca5aab)" d="M 188.730124 156.357219 
L 191.080588 159.207959 
L 187.681928 156.380164 
z
" style="stroke:#000000;"/>
    <path clip-path="url(#p1514ca5aab)" d="M 191.080588 159.207959 
L 188.730124 167.597421 
L 187.681928 167.606841 
z
" style="stroke:#000000;"/>
    <path clip-path="url(#p1514ca5aab)" d="M 191.040684 171.312814 
L 189.61975 174.216649 
L 190.669501 174.215192 
z
" style="stroke:#000000;"/>
    <path clip-path="url(#p1514ca5aab)" d="M 192.370206 171.66497 
L 191.040684 171.312814 
L 192.02166 174.391833 
z
" style="stroke:#000000;"/>
    <path clip-path="url(#p1514ca5aab)" d="M 191.040684 182.987318 
L 192.370206 182.633406 
L 192.02166 179.907004 
z
" style="stroke:#000000;"/>
    <path clip-path="url(#p1514ca5aab)" d="M 191.040684 171.312814 
L 192.370206 171.66497 
L 191.65457 168.475857 
z
" style="stroke:#000000;"/>
    <path clip-path="url(#p1514ca5aab)" d="M 192.370206 182.633406 
L 191.040684 182.987318 
L 191.65457 185.823465 
z
" style="stroke:#000000;"/>
    <path clip-path="url(#p1514ca5aab)" d="M 190.545299 177.150393 
L 189.61975 180.07983 
L 190.669501 180.08543 
z
" style="stroke:#000000;"/>
    <path clip-path="url(#p1514ca5aab)" d="M 190.669501 174.215192 
L 189.495648 177.148321 
L 190.545299 177.150393 
z
" style="stroke:#000000;"/>
    <path clip-path="url(#p1514ca5aab)" d="M 190.669501 180.08543 
L 192.02166 179.907004 
L 191.905025 177.149495 
z
" style="stroke:#000000;"/>
    <path clip-path="url(#p1514ca5aab)" d="M 192.02166 174.391833 
L 190.669501 174.215192 
L 191.905025 177.149495 
z
" style="stroke:#000000;"/>
    <path clip-path="url(#p1514ca5aab)" d="M 190.669501 174.215192 
L 192.02166 174.391833 
L 191.040684 171.312814 
z
" style="stroke:#000000;"/>
    <path clip-path="url(#p1514ca5aab)" d="M 192.02166 179.907004 
L 190.669501 180.08543 
L 191.040684 182.987318 
z
" style="stroke:#000000;"/>
    <path clip-path="url(#p1514ca5aab)" d="M 185.411232 159.523858 
L 187.681928 156.380164 
L 187.681928 157.783499 
z
" style="stroke:#000000;"/>
    <path clip-path="url(#p1514ca5aab)" d="M 190.545299 177.150393 
L 191.905025 177.149495 
L 190.669501 174.215192 
z
" style="stroke:#000000;"/>
    <path clip-path="url(#p1514ca5aab)" d="M 191.905025 177.149495 
L 190.545299 177.150393 
L 190.669501 180.08543 
z
" style="stroke:#000000;"/>
    <path clip-path="url(#p1514ca5aab)" d="M 184.274403 159.165653 
L 187.681928 164.800172 
L 187.681928 167.606841 
z
" style="stroke:#000000;"/>
    <path clip-path="url(#p1514ca5aab)" d="M 188.730124 156.357219 
L 190.998698 159.532345 
L 192.131508 159.188446 
z
" style="stroke:#000000;"/>
    <path clip-path="url(#p1514ca5aab)" d="M 188.730124 164.78737 
L 192.131508 159.188446 
L 190.998698 159.532345 
z
" style="stroke:#000000;"/>
    <path clip-path="url(#p1514ca5aab)" d="M 187.681928 157.783499 
L 190.998698 159.532345 
L 188.730124 157.762245 
z
" style="stroke:#000000;"/>
    <path clip-path="url(#p1514ca5aab)" d="M 190.998698 159.532345 
L 187.681928 164.800172 
L 188.730124 164.78737 
z
" style="stroke:#000000;"/>
    <path clip-path="url(#p1514ca5aab)" d="M 188.730124 157.762245 
L 185.411232 159.523858 
L 187.681928 157.783499 
z
" style="stroke:#000000;"/>
    <path clip-path="url(#p1514ca5aab)" d="M 185.411232 159.523858 
L 188.730124 164.78737 
L 187.681928 164.800172 
z
" style="stroke:#000000;"/>
    <path clip-path="url(#p1514ca5aab)" d="M 187.681928 164.800172 
L 184.274403 159.165653 
L 185.411232 159.523858 
z
" style="stroke:#000000;"/>
    <path clip-path="url(#p1514ca5aab)" d="M 187.681928 156.380164 
L 185.411232 159.523858 
L 184.274403 159.165653 
z
" style="stroke:#000000;"/>
    <path clip-path="url(#p1514ca5aab)" d="M 188.730124 164.78737 
L 188.730124 167.597421 
L 192.131508 159.188446 
z
" style="stroke:#000000;"/>
    <path clip-path="url(#p1514ca5aab)" d="M 184.501848 177.151613 
L 185.865687 177.150714 
L 185.741227 180.086742 
z
" style="stroke:#000000;"/>
    <path clip-path="url(#p1514ca5aab)" d="M 185.865687 177.150714 
L 184.501848 177.151613 
L 185.741227 174.214851 
z
" style="stroke:#000000;"/>
    <path clip-path="url(#p1514ca5aab)" d="M 188.730124 156.357219 
L 188.730124 157.762245 
L 190.998698 159.532345 
z
" style="stroke:#000000;"/>
    <path clip-path="url(#p1514ca5aab)" d="M 184.384728 179.912914 
L 185.741227 180.086742 
L 185.369133 182.991598 
z
" style="stroke:#000000;"/>
    <path clip-path="url(#p1514ca5aab)" d="M 185.741227 174.214851 
L 184.384728 174.390467 
L 185.369133 171.310485 
z
" style="stroke:#000000;"/>
    <path clip-path="url(#p1514ca5aab)" d="M 184.384728 174.390467 
L 185.741227 174.214851 
L 184.501848 177.151613 
z
" style="stroke:#000000;"/>
    <path clip-path="url(#p1514ca5aab)" d="M 185.741227 180.086742 
L 184.384728 179.912914 
L 184.501848 177.151613 
z
" style="stroke:#000000;"/>
    <path clip-path="url(#p1514ca5aab)" d="M 185.741227 174.214851 
L 186.912423 177.152792 
L 185.865687 177.150714 
z
" style="stroke:#000000;"/>
    <path clip-path="url(#p1514ca5aab)" d="M 185.865687 177.150714 
L 186.787864 180.092359 
L 185.741227 180.086742 
z
" style="stroke:#000000;"/>
    <path clip-path="url(#p1514ca5aab)" d="M 184.034607 182.644843 
L 185.369133 182.991598 
L 184.753274 185.834249 
z
" style="stroke:#000000;"/>
    <path clip-path="url(#p1514ca5aab)" d="M 185.369133 171.310485 
L 184.034607 171.658999 
L 184.753274 168.468646 
z
" style="stroke:#000000;"/>
    <path clip-path="url(#p1514ca5aab)" d="M 185.369133 182.991598 
L 184.034607 182.644843 
L 184.384728 179.912914 
z
" style="stroke:#000000;"/>
    <path clip-path="url(#p1514ca5aab)" d="M 184.034607 171.658999 
L 185.369133 171.310485 
L 184.384728 174.390467 
z
" style="stroke:#000000;"/>
    <path clip-path="url(#p1514ca5aab)" d="M 185.369133 171.310485 
L 186.787864 174.213389 
L 185.741227 174.214851 
z
" style="stroke:#000000;"/>
    <path clip-path="url(#p1514ca5aab)" d="M 187.681928 156.380164 
L 185.319858 159.146038 
L 188.730124 156.357219 
z
" style="stroke:#000000;"/>
    <path clip-path="url(#p1514ca5aab)" d="M 185.319858 159.146038 
L 187.681928 167.606841 
L 188.730124 167.597421 
z
" style="stroke:#000000;"/>
    <path clip-path="url(#p1514ca5aab)" d="M 185.741227 180.086742 
L 186.415469 183.000719 
L 185.369133 182.991598 
z
" style="stroke:#000000;"/>
    <path clip-path="url(#p1514ca5aab)" d="M 185.319858 159.146038 
L 187.681928 156.380164 
L 184.274403 159.165653 
z
" style="stroke:#000000;"/>
    <path clip-path="url(#p1514ca5aab)" d="M 187.681928 167.606841 
L 185.319858 159.146038 
L 184.274403 159.165653 
z
" style="stroke:#000000;"/>
    <path clip-path="url(#p1514ca5aab)" d="M 184.753274 168.468646 
L 186.415469 171.305521 
L 185.369133 171.310485 
z
" style="stroke:#000000;"/>
    <path clip-path="url(#p1514ca5aab)" d="M 184.753274 185.834249 
L 183.45512 185.318193 
L 184.034607 182.644843 
z
" style="stroke:#000000;"/>
    <path clip-path="url(#p1514ca5aab)" d="M 183.45512 168.986413 
L 184.753274 168.468646 
L 184.034607 171.658999 
z
" style="stroke:#000000;"/>
    <path clip-path="url(#p1514ca5aab)" d="M 185.411232 159.523858 
L 188.730124 157.762245 
L 186.457603 159.504683 
z
" style="stroke:#000000;"/>
    <path clip-path="url(#p1514ca5aab)" d="M 188.730124 164.78737 
L 185.411232 159.523858 
L 186.457603 159.504683 
z
" style="stroke:#000000;"/>
    <path clip-path="url(#p1514ca5aab)" d="M 183.45512 185.318193 
L 184.753274 185.834249 
L 183.900071 188.584268 
z
" style="stroke:#000000;"/>
    <path clip-path="url(#p1514ca5aab)" d="M 184.753274 168.468646 
L 183.45512 168.986413 
L 183.900071 165.719752 
z
" style="stroke:#000000;"/>
    <path clip-path="url(#p1514ca5aab)" d="M 185.369133 182.991598 
L 185.799115 185.8468 
L 184.753274 185.834249 
z
" style="stroke:#000000;"/>
    <path clip-path="url(#p1514ca5aab)" d="M 188.730124 156.357219 
L 186.457603 159.504683 
L 188.730124 157.762245 
z
" style="stroke:#000000;"/>
    <path clip-path="url(#p1514ca5aab)" d="M 186.787864 180.092359 
L 185.865687 177.150714 
L 186.912423 177.152792 
z
" style="stroke:#000000;"/>
    <path clip-path="url(#p1514ca5aab)" d="M 186.912423 177.152792 
L 185.741227 174.214851 
L 186.787864 174.213389 
z
" style="stroke:#000000;"/>
    <path clip-path="url(#p1514ca5aab)" d="M 186.415469 183.000719 
L 185.741227 180.086742 
L 186.787864 180.092359 
z
" style="stroke:#000000;"/>
    <path clip-path="url(#p1514ca5aab)" d="M 183.900071 165.719752 
L 185.799115 168.460254 
L 184.753274 168.468646 
z
" style="stroke:#000000;"/>
    <path clip-path="url(#p1514ca5aab)" d="M 184.384728 179.912914 
L 185.547486 177.153693 
L 184.501848 177.151613 
z
" style="stroke:#000000;"/>
    <path clip-path="url(#p1514ca5aab)" d="M 188.730124 164.78737 
L 185.319858 159.146038 
L 188.730124 167.597421 
z
" style="stroke:#000000;"/>
    <path clip-path="url(#p1514ca5aab)" d="M 186.787864 174.213389 
L 185.369133 171.310485 
L 186.415469 171.305521 
z
" style="stroke:#000000;"/>
    <path clip-path="url(#p1514ca5aab)" d="M 184.501848 177.151613 
L 185.430272 174.389217 
L 184.384728 174.390467 
z
" style="stroke:#000000;"/>
    <path clip-path="url(#p1514ca5aab)" d="M 183.900071 188.584268 
L 182.652322 187.904295 
L 183.45512 185.318193 
z
" style="stroke:#000000;"/>
    <path clip-path="url(#p1514ca5aab)" d="M 182.652322 166.40137 
L 183.900071 165.719752 
L 183.45512 168.986413 
z
" style="stroke:#000000;"/>
    <path clip-path="url(#p1514ca5aab)" d="M 184.034607 182.644843 
L 185.430272 179.918325 
L 184.384728 179.912914 
z
" style="stroke:#000000;"/>
    <path clip-path="url(#p1514ca5aab)" d="M 184.753274 185.834249 
L 184.945223 188.600141 
L 183.900071 188.584268 
z
" style="stroke:#000000;"/>
    <path clip-path="url(#p1514ca5aab)" d="M 182.652322 187.904295 
L 183.900071 188.584268 
L 182.818393 191.212192 
z
" style="stroke:#000000;"/>
    <path clip-path="url(#p1514ca5aab)" d="M 183.900071 165.719752 
L 182.652322 166.40137 
L 182.818393 163.093254 
z
" style="stroke:#000000;"/>
    <path clip-path="url(#p1514ca5aab)" d="M 184.384728 174.390467 
L 185.079868 171.654454 
L 184.034607 171.658999 
z
" style="stroke:#000000;"/>
    <path clip-path="url(#p1514ca5aab)" d="M 185.799115 185.8468 
L 185.369133 182.991598 
L 186.415469 183.000719 
z
" style="stroke:#000000;"/>
    <path clip-path="url(#p1514ca5aab)" d="M 186.415469 171.305521 
L 184.753274 168.468646 
L 185.799115 168.460254 
z
" style="stroke:#000000;"/>
    <path clip-path="url(#p1514ca5aab)" d="M 183.45512 185.318193 
L 185.079868 182.65355 
L 184.034607 182.644843 
z
" style="stroke:#000000;"/>
    <path clip-path="url(#p1514ca5aab)" d="M 186.457603 159.504683 
L 188.730124 156.357219 
L 185.319858 159.146038 
z
" style="stroke:#000000;"/>
    <path clip-path="url(#p1514ca5aab)" d="M 185.319858 159.146038 
L 188.730124 164.78737 
L 186.457603 159.504683 
z
" style="stroke:#000000;"/>
    <path clip-path="url(#p1514ca5aab)" d="M 184.034607 171.658999 
L 184.499914 168.978642 
L 183.45512 168.986413 
z
" style="stroke:#000000;"/>
    <path clip-path="url(#p1514ca5aab)" d="M 182.818393 163.093254 
L 184.945223 165.708041 
L 183.900071 165.719752 
z
" style="stroke:#000000;"/>
    <path clip-path="url(#p1514ca5aab)" d="M 182.818393 191.212192 
L 181.634609 190.375381 
L 182.652322 187.904295 
z
" style="stroke:#000000;"/>
    <path clip-path="url(#p1514ca5aab)" d="M 181.634609 163.931626 
L 182.818393 163.093254 
L 182.652322 166.40137 
z
" style="stroke:#000000;"/>
    <path clip-path="url(#p1514ca5aab)" d="M 184.945223 188.600141 
L 184.753274 185.834249 
L 185.799115 185.8468 
z
" style="stroke:#000000;"/>
    <path clip-path="url(#p1514ca5aab)" d="M 185.430272 174.389217 
L 184.501848 177.151613 
L 185.547486 177.153693 
z
" style="stroke:#000000;"/>
    <path clip-path="url(#p1514ca5aab)" d="M 185.547486 177.153693 
L 184.384728 179.912914 
L 185.430272 179.918325 
z
" style="stroke:#000000;"/>
    <path clip-path="url(#p1514ca5aab)" d="M 185.547486 177.153693 
L 186.912423 177.152792 
L 186.787864 174.213389 
z
" style="stroke:#000000;"/>
    <path clip-path="url(#p1514ca5aab)" d="M 186.912423 177.152792 
L 185.547486 177.153693 
L 186.787864 180.092359 
z
" style="stroke:#000000;"/>
    <path clip-path="url(#p1514ca5aab)" d="M 185.079868 171.654454 
L 184.384728 174.390467 
L 185.430272 174.389217 
z
" style="stroke:#000000;"/>
    <path clip-path="url(#p1514ca5aab)" d="M 182.652322 187.904295 
L 184.499914 185.330128 
L 183.45512 185.318193 
z
" style="stroke:#000000;"/>
    <path clip-path="url(#p1514ca5aab)" d="M 183.900071 188.584268 
L 183.862673 191.231243 
L 182.818393 191.212192 
z
" style="stroke:#000000;"/>
    <path clip-path="url(#p1514ca5aab)" d="M 185.799115 168.460254 
L 183.900071 165.719752 
L 184.945223 165.708041 
z
" style="stroke:#000000;"/>
    <path clip-path="url(#p1514ca5aab)" d="M 185.430272 179.918325 
L 184.034607 182.644843 
L 185.079868 182.65355 
z
" style="stroke:#000000;"/>
    <path clip-path="url(#p1514ca5aab)" d="M 185.430272 174.389217 
L 186.787864 174.213389 
L 186.415469 171.305521 
z
" style="stroke:#000000;"/>
    <path clip-path="url(#p1514ca5aab)" d="M 186.787864 180.092359 
L 185.430272 179.918325 
L 186.415469 183.000719 
z
" style="stroke:#000000;"/>
    <path clip-path="url(#p1514ca5aab)" d="M 181.519566 193.689642 
L 181.634609 190.375381 
L 182.818393 191.212192 
z
" style="stroke:#000000;"/>
    <path clip-path="url(#p1514ca5aab)" d="M 181.634609 163.931626 
L 181.519566 160.617516 
L 182.818393 163.093254 
z
" style="stroke:#000000;"/>
    <path clip-path="url(#p1514ca5aab)" d="M 183.45512 168.986413 
L 183.696467 166.390476 
L 182.652322 166.40137 
z
" style="stroke:#000000;"/>
    <path clip-path="url(#p1514ca5aab)" d="M 184.499914 168.978642 
L 184.034607 171.658999 
L 185.079868 171.654454 
z
" style="stroke:#000000;"/>
    <path clip-path="url(#p1514ca5aab)" d="M 185.430272 179.918325 
L 186.787864 180.092359 
L 185.547486 177.153693 
z
" style="stroke:#000000;"/>
    <path clip-path="url(#p1514ca5aab)" d="M 186.787864 174.213389 
L 185.430272 174.389217 
L 185.547486 177.153693 
z
" style="stroke:#000000;"/>
    <path clip-path="url(#p1514ca5aab)" d="M 185.079868 171.654454 
L 186.415469 171.305521 
L 185.799115 168.460254 
z
" style="stroke:#000000;"/>
    <path clip-path="url(#p1514ca5aab)" d="M 186.415469 183.000719 
L 185.079868 182.65355 
L 185.799115 185.8468 
z
" style="stroke:#000000;"/>
    <path clip-path="url(#p1514ca5aab)" d="M 185.079868 182.65355 
L 183.45512 185.318193 
L 184.499914 185.330128 
z
" style="stroke:#000000;"/>
    <path clip-path="url(#p1514ca5aab)" d="M 186.415469 171.305521 
L 185.079868 171.654454 
L 185.430272 174.389217 
z
" style="stroke:#000000;"/>
    <path clip-path="url(#p1514ca5aab)" d="M 185.079868 182.65355 
L 186.415469 183.000719 
L 185.430272 179.918325 
z
" style="stroke:#000000;"/>
    <path clip-path="url(#p1514ca5aab)" d="M 183.862673 191.231243 
L 183.900071 188.584268 
L 184.945223 188.600141 
z
" style="stroke:#000000;"/>
    <path clip-path="url(#p1514ca5aab)" d="M 181.519566 160.617516 
L 183.862673 163.078368 
L 182.818393 163.093254 
z
" style="stroke:#000000;"/>
    <path clip-path="url(#p1514ca5aab)" d="M 181.634609 190.375381 
L 183.696467 187.919355 
L 182.652322 187.904295 
z
" style="stroke:#000000;"/>
    <path clip-path="url(#p1514ca5aab)" d="M 181.519566 193.689642 
L 180.41264 192.704864 
L 181.634609 190.375381 
z
" style="stroke:#000000;"/>
    <path clip-path="url(#p1514ca5aab)" d="M 180.41264 161.603755 
L 181.519566 160.617516 
L 181.634609 163.931626 
z
" style="stroke:#000000;"/>
    <path clip-path="url(#p1514ca5aab)" d="M 183.696467 166.390476 
L 183.45512 168.986413 
L 184.499914 168.978642 
z
" style="stroke:#000000;"/>
    <path clip-path="url(#p1514ca5aab)" d="M 184.945223 165.708041 
L 182.818393 163.093254 
L 183.862673 163.078368 
z
" style="stroke:#000000;"/>
    <path clip-path="url(#p1514ca5aab)" d="M 185.799115 168.460254 
L 184.499914 168.978642 
L 185.079868 171.654454 
z
" style="stroke:#000000;"/>
    <path clip-path="url(#p1514ca5aab)" d="M 184.499914 185.330128 
L 185.799115 185.8468 
L 185.079868 182.65355 
z
" style="stroke:#000000;"/>
    <path clip-path="url(#p1514ca5aab)" d="M 182.652322 166.40137 
L 182.677932 163.917746 
L 181.634609 163.931626 
z
" style="stroke:#000000;"/>
    <path clip-path="url(#p1514ca5aab)" d="M 182.818393 191.212192 
L 182.562796 193.711695 
L 181.519566 193.689642 
z
" style="stroke:#000000;"/>
    <path clip-path="url(#p1514ca5aab)" d="M 184.499914 168.978642 
L 185.799115 168.460254 
L 184.945223 165.708041 
z
" style="stroke:#000000;"/>
    <path clip-path="url(#p1514ca5aab)" d="M 185.799115 185.8468 
L 184.499914 185.330128 
L 184.945223 188.600141 
z
" style="stroke:#000000;"/>
    <path clip-path="url(#p1514ca5aab)" d="M 184.499914 185.330128 
L 182.652322 187.904295 
L 183.696467 187.919355 
z
" style="stroke:#000000;"/>
    <path clip-path="url(#p1514ca5aab)" d="M 180.017192 195.989986 
L 180.41264 192.704864 
L 181.519566 193.689642 
z
" style="stroke:#000000;"/>
    <path clip-path="url(#p1514ca5aab)" d="M 180.41264 161.603755 
L 180.017192 158.319153 
L 181.519566 160.617516 
z
" style="stroke:#000000;"/>
    <path clip-path="url(#p1514ca5aab)" d="M 182.562796 193.711695 
L 182.818393 191.212192 
L 183.862673 191.231243 
z
" style="stroke:#000000;"/>
    <path clip-path="url(#p1514ca5aab)" d="M 182.677932 163.917746 
L 182.652322 166.40137 
L 183.696467 166.390476 
z
" style="stroke:#000000;"/>
    <path clip-path="url(#p1514ca5aab)" d="M 184.945223 165.708041 
L 183.696467 166.390476 
L 184.499914 168.978642 
z
" style="stroke:#000000;"/>
    <path clip-path="url(#p1514ca5aab)" d="M 183.696467 187.919355 
L 184.945223 188.600141 
L 184.499914 185.330128 
z
" style="stroke:#000000;"/>
    <path clip-path="url(#p1514ca5aab)" d="M 180.41264 192.704864 
L 182.677932 190.393431 
L 181.634609 190.375381 
z
" style="stroke:#000000;"/>
    <path clip-path="url(#p1514ca5aab)" d="M 183.696467 166.390476 
L 184.945223 165.708041 
L 183.862673 163.078368 
z
" style="stroke:#000000;"/>
    <path clip-path="url(#p1514ca5aab)" d="M 184.945223 188.600141 
L 183.696467 187.919355 
L 183.862673 191.231243 
z
" style="stroke:#000000;"/>
    <path clip-path="url(#p1514ca5aab)" d="M 180.017192 158.319153 
L 182.562796 160.599634 
L 181.519566 160.617516 
z
" style="stroke:#000000;"/>
    <path clip-path="url(#p1514ca5aab)" d="M 183.696467 187.919355 
L 181.634609 190.375381 
L 182.677932 190.393431 
z
" style="stroke:#000000;"/>
    <path clip-path="url(#p1514ca5aab)" d="M 183.862673 163.078368 
L 181.519566 160.617516 
L 182.562796 160.599634 
z
" style="stroke:#000000;"/>
    <path clip-path="url(#p1514ca5aab)" d="M 180.017192 195.989986 
L 178.999256 194.867408 
L 180.41264 192.704864 
z
" style="stroke:#000000;"/>
    <path clip-path="url(#p1514ca5aab)" d="M 178.999256 159.443074 
L 180.017192 158.319153 
L 180.41264 161.603755 
z
" style="stroke:#000000;"/>
    <path clip-path="url(#p1514ca5aab)" d="M 181.634609 163.931626 
L 181.454975 161.587056 
L 180.41264 161.603755 
z
" style="stroke:#000000;"/>
    <path clip-path="url(#p1514ca5aab)" d="M 181.519566 193.689642 
L 181.059207 196.014831 
L 180.017192 195.989986 
z
" style="stroke:#000000;"/>
    <path clip-path="url(#p1514ca5aab)" d="M 178.5754 196.668461 
L 180.017192 195.989986 
L 179.172396 197.03869 
z
" style="stroke:#000000;"/>
    <path clip-path="url(#p1514ca5aab)" d="M 180.017192 158.319153 
L 178.5754 157.64258 
L 179.172396 157.271563 
z
" style="stroke:#000000;"/>
    <path clip-path="url(#p1514ca5aab)" d="M 183.862673 163.078368 
L 182.677932 163.917746 
L 183.696467 166.390476 
z
" style="stroke:#000000;"/>
    <path clip-path="url(#p1514ca5aab)" d="M 182.677932 190.393431 
L 183.862673 191.231243 
L 183.696467 187.919355 
z
" style="stroke:#000000;"/>
    <path clip-path="url(#p1514ca5aab)" d="M 180.017192 195.989986 
L 178.5754 196.668461 
L 178.999256 194.867408 
z
" style="stroke:#000000;"/>
    <path clip-path="url(#p1514ca5aab)" d="M 178.5754 157.64258 
L 180.017192 158.319153 
L 178.999256 159.443074 
z
" style="stroke:#000000;"/>
    <path clip-path="url(#p1514ca5aab)" d="M 181.454975 161.587056 
L 181.634609 163.931626 
L 182.677932 163.917746 
z
" style="stroke:#000000;"/>
    <path clip-path="url(#p1514ca5aab)" d="M 181.059207 196.014831 
L 181.519566 193.689642 
L 182.562796 193.711695 
z
" style="stroke:#000000;"/>
    <path clip-path="url(#p1514ca5aab)" d="M 178.999256 194.867408 
L 181.454975 192.725735 
L 180.41264 192.704864 
z
" style="stroke:#000000;"/>
    <path clip-path="url(#p1514ca5aab)" d="M 182.562796 160.599634 
L 182.677932 163.917746 
L 183.862673 163.078368 
z
" style="stroke:#000000;"/>
    <path clip-path="url(#p1514ca5aab)" d="M 182.677932 190.393431 
L 182.562796 193.711695 
L 183.862673 191.231243 
z
" style="stroke:#000000;"/>
    <path clip-path="url(#p1514ca5aab)" d="M 182.677932 190.393431 
L 180.41264 192.704864 
L 181.454975 192.725735 
z
" style="stroke:#000000;"/>
    <path clip-path="url(#p1514ca5aab)" d="M 179.172396 157.271563 
L 181.059207 158.298483 
L 180.017192 158.319153 
z
" style="stroke:#000000;"/>
    <path clip-path="url(#p1514ca5aab)" d="M 178.999256 194.867408 
L 178.5754 196.668461 
L 177.948091 196.171307 
z
" style="stroke:#000000;"/>
    <path clip-path="url(#p1514ca5aab)" d="M 178.5754 157.64258 
L 178.999256 159.443074 
L 177.948091 158.140561 
z
" style="stroke:#000000;"/>
    <path clip-path="url(#p1514ca5aab)" d="M 180.41264 161.603755 
L 180.040445 159.423754 
L 178.999256 159.443074 
z
" style="stroke:#000000;"/>
    <path clip-path="url(#p1514ca5aab)" d="M 182.562796 160.599634 
L 180.017192 158.319153 
L 181.059207 158.298483 
z
" style="stroke:#000000;"/>
    <path clip-path="url(#p1514ca5aab)" d="M 180.017192 195.989986 
L 180.213726 197.06481 
L 179.172396 197.03869 
z
" style="stroke:#000000;"/>
    <path clip-path="url(#p1514ca5aab)" d="M 182.562796 160.599634 
L 181.454975 161.587056 
L 182.677932 163.917746 
z
" style="stroke:#000000;"/>
    <path clip-path="url(#p1514ca5aab)" d="M 181.454975 192.725735 
L 182.562796 193.711695 
L 182.677932 190.393431 
z
" style="stroke:#000000;"/>
    <path clip-path="url(#p1514ca5aab)" d="M 180.213726 197.06481 
L 178.5754 196.668461 
L 179.172396 197.03869 
z
" style="stroke:#000000;"/>
    <path clip-path="url(#p1514ca5aab)" d="M 180.040445 159.423754 
L 180.41264 161.603755 
L 181.454975 161.587056 
z
" style="stroke:#000000;"/>
    <path clip-path="url(#p1514ca5aab)" d="M 179.616246 157.621081 
L 179.172396 157.271563 
L 178.5754 157.64258 
z
" style="stroke:#000000;"/>
    <path clip-path="url(#p1514ca5aab)" d="M 180.213726 197.06481 
L 180.017192 195.989986 
L 181.059207 196.014831 
z
" style="stroke:#000000;"/>
    <path clip-path="url(#p1514ca5aab)" d="M 180.040445 159.423754 
L 177.948091 158.140561 
L 178.999256 159.443074 
z
" style="stroke:#000000;"/>
    <path clip-path="url(#p1514ca5aab)" d="M 181.059207 158.298483 
L 181.454975 161.587056 
L 182.562796 160.599634 
z
" style="stroke:#000000;"/>
    <path clip-path="url(#p1514ca5aab)" d="M 181.454975 192.725735 
L 181.059207 196.014831 
L 182.562796 193.711695 
z
" style="stroke:#000000;"/>
    <path clip-path="url(#p1514ca5aab)" d="M 181.454975 192.725735 
L 178.999256 194.867408 
L 180.040445 194.890905 
z
" style="stroke:#000000;"/>
    <path clip-path="url(#p1514ca5aab)" d="M 181.059207 158.298483 
L 179.172396 157.271563 
L 180.213726 157.249621 
z
" style="stroke:#000000;"/>
    <path clip-path="url(#p1514ca5aab)" d="M 179.616246 196.694139 
L 177.948091 196.171307 
L 178.5754 196.668461 
z
" style="stroke:#000000;"/>
    <path clip-path="url(#p1514ca5aab)" d="M 178.988427 196.19639 
L 178.999256 194.867408 
L 177.948091 196.171307 
z
" style="stroke:#000000;"/>
    <path clip-path="url(#p1514ca5aab)" d="M 178.988427 158.119659 
L 178.5754 157.64258 
L 177.948091 158.140561 
z
" style="stroke:#000000;"/>
    <path clip-path="url(#p1514ca5aab)" d="M 179.172396 157.271563 
L 179.616246 157.621081 
L 180.213726 157.249621 
z
" style="stroke:#000000;"/>
    <path clip-path="url(#p1514ca5aab)" d="M 178.5754 196.668461 
L 180.213726 197.06481 
L 179.616246 196.694139 
z
" style="stroke:#000000;"/>
    <path clip-path="url(#p1514ca5aab)" d="M 181.059207 158.298483 
L 180.040445 159.423754 
L 181.454975 161.587056 
z
" style="stroke:#000000;"/>
    <path clip-path="url(#p1514ca5aab)" d="M 180.040445 194.890905 
L 181.059207 196.014831 
L 181.454975 192.725735 
z
" style="stroke:#000000;"/>
    <path clip-path="url(#p1514ca5aab)" d="M 178.999256 194.867408 
L 178.988427 196.19639 
L 180.040445 194.890905 
z
" style="stroke:#000000;"/>
    <path clip-path="url(#p1514ca5aab)" d="M 178.5754 157.64258 
L 178.988427 158.119659 
L 179.616246 157.621081 
z
" style="stroke:#000000;"/>
    <path clip-path="url(#p1514ca5aab)" d="M 177.948091 158.140561 
L 180.040445 159.423754 
L 178.988427 158.119659 
z
" style="stroke:#000000;"/>
    <path clip-path="url(#p1514ca5aab)" d="M 179.616246 157.621081 
L 181.059207 158.298483 
L 180.213726 157.249621 
z
" style="stroke:#000000;"/>
    <path clip-path="url(#p1514ca5aab)" d="M 181.059207 196.014831 
L 179.616246 196.694139 
L 180.213726 197.06481 
z
" style="stroke:#000000;"/>
    <path clip-path="url(#p1514ca5aab)" d="M 177.948091 196.171307 
L 179.616246 196.694139 
L 178.988427 196.19639 
z
" style="stroke:#000000;"/>
    <path clip-path="url(#p1514ca5aab)" d="M 181.059207 158.298483 
L 179.616246 157.621081 
L 180.040445 159.423754 
z
" style="stroke:#000000;"/>
    <path clip-path="url(#p1514ca5aab)" d="M 179.616246 196.694139 
L 181.059207 196.014831 
L 180.040445 194.890905 
z
" style="stroke:#000000;"/>
    <path clip-path="url(#p1514ca5aab)" d="M 180.040445 159.423754 
L 179.616246 157.621081 
L 178.988427 158.119659 
z
" style="stroke:#000000;"/>
    <path clip-path="url(#p1514ca5aab)" d="M 179.616246 196.694139 
L 180.040445 194.890905 
L 178.988427 196.19639 
z
" style="stroke:#000000;"/>
   </g>
  </g>
 </g>
 <defs>
  <clipPath id="p1514ca5aab">
   <rect height="271.8" width="279" x="45" y="43.2"/>
  </clipPath>
 </defs>
</svg>
