<?xml version="1.0" encoding="utf-8" standalone="no"?>
<!DOCTYPE svg PUBLIC "-//W3C//DTD SVG 1.1//EN"
  "http://www.w3.org/Graphics/SVG/1.1/DTD/svg11.dtd">
<!-- Created with matplotlib (https://matplotlib.org/) -->
<svg height="360pt" version="1.1" viewBox="0 0 360 360" width="360pt" xmlns="http://www.w3.org/2000/svg" xmlns:xlink="http://www.w3.org/1999/xlink">
 <defs>
  <style type="text/css">
*{stroke-linecap:butt;stroke-linejoin:round;}
  </style>
 </defs>
 <g id="figure_1">
  <g id="patch_1">
   <path d="M 45 315 
L 324 315 
L 324 43.2 
L 45 43.2 
z
" style="fill:#ffffff;"/>
  </g>
  <g id="axes_1">
   <g id="Poly3DCollection_1">
    <path clip-path="url(#p3db2835758)" d="M 179.933465 158.086258 
L 182.157108 157.584774 
L 181.883302 158.095524 
z
" style="stroke:#000000;"/>
    <path clip-path="url(#p3db2835758)" d="M 182.342322 194.889574 
L 182.157108 196.685087 
L 181.883302 196.172826 
z
" style="stroke:#000000;"/>
    <path clip-path="url(#p3db2835758)" d="M 182.157108 157.584774 
L 182.342322 159.38131 
L 181.883302 158.095524 
z
" style="stroke:#000000;"/>
    <path clip-path="url(#p3db2835758)" d="M 179.933465 196.183917 
L 182.342322 194.889574 
L 181.883302 196.172826 
z
" style="stroke:#000000;"/>
    <path clip-path="url(#p3db2835758)" d="M 180.206553 196.696457 
L 181.883302 196.172826 
L 182.157108 196.685087 
z
" style="stroke:#000000;"/>
    <path clip-path="url(#p3db2835758)" d="M 181.883302 196.172826 
L 180.206553 196.696457 
L 179.933465 196.183917 
z
" style="stroke:#000000;"/>
    <path clip-path="url(#p3db2835758)" d="M 181.883302 158.095524 
L 180.391282 159.372725 
L 179.933465 158.086258 
z
" style="stroke:#000000;"/>
    <path clip-path="url(#p3db2835758)" d="M 182.157108 157.584774 
L 179.933465 158.086258 
L 180.206553 157.575231 
z
" style="stroke:#000000;"/>
    <path clip-path="url(#p3db2835758)" d="M 180.391282 159.372725 
L 181.883302 158.095524 
L 182.342322 159.38131 
z
" style="stroke:#000000;"/>
    <path clip-path="url(#p3db2835758)" d="M 180.206553 157.575231 
L 182.418029 157.201222 
L 182.157108 157.584774 
z
" style="stroke:#000000;"/>
    <path clip-path="url(#p3db2835758)" d="M 182.342322 194.889574 
L 179.933465 196.183917 
L 180.391282 194.899987 
z
" style="stroke:#000000;"/>
    <path clip-path="url(#p3db2835758)" d="M 182.787834 196.037649 
L 182.157108 196.685087 
L 182.342322 194.889574 
z
" style="stroke:#000000;"/>
    <path clip-path="url(#p3db2835758)" d="M 182.157108 157.584774 
L 182.787834 158.235696 
L 182.342322 159.38131 
z
" style="stroke:#000000;"/>
    <path clip-path="url(#p3db2835758)" d="M 180.466791 197.08166 
L 182.157108 196.685087 
L 182.418029 197.07008 
z
" style="stroke:#000000;"/>
    <path clip-path="url(#p3db2835758)" d="M 182.157108 196.685087 
L 182.787834 196.037649 
L 182.418029 197.07008 
z
" style="stroke:#000000;"/>
    <path clip-path="url(#p3db2835758)" d="M 182.787834 158.235696 
L 182.157108 157.584774 
L 182.418029 157.201222 
z
" style="stroke:#000000;"/>
    <path clip-path="url(#p3db2835758)" d="M 180.391282 159.372725 
L 180.206553 157.575231 
L 179.933465 158.086258 
z
" style="stroke:#000000;"/>
    <path clip-path="url(#p3db2835758)" d="M 180.206553 196.696457 
L 180.391282 194.899987 
L 179.933465 196.183917 
z
" style="stroke:#000000;"/>
    <path clip-path="url(#p3db2835758)" d="M 182.157108 196.685087 
L 180.466791 197.08166 
L 180.206553 196.696457 
z
" style="stroke:#000000;"/>
    <path clip-path="url(#p3db2835758)" d="M 182.418029 157.201222 
L 180.206553 157.575231 
L 180.466791 157.19147 
z
" style="stroke:#000000;"/>
    <path clip-path="url(#p3db2835758)" d="M 182.787834 196.037649 
L 180.466791 197.08166 
L 182.418029 197.07008 
z
" style="stroke:#000000;"/>
    <path clip-path="url(#p3db2835758)" d="M 182.961172 161.525746 
L 180.391282 159.372725 
L 182.342322 159.38131 
z
" style="stroke:#000000;"/>
    <path clip-path="url(#p3db2835758)" d="M 182.787834 196.037649 
L 182.342322 194.889574 
L 182.961172 192.748556 
z
" style="stroke:#000000;"/>
    <path clip-path="url(#p3db2835758)" d="M 182.342322 159.38131 
L 182.787834 158.235696 
L 182.961172 161.525746 
z
" style="stroke:#000000;"/>
    <path clip-path="url(#p3db2835758)" d="M 180.835627 158.226492 
L 180.206553 157.575231 
L 180.391282 159.372725 
z
" style="stroke:#000000;"/>
    <path clip-path="url(#p3db2835758)" d="M 180.206553 196.696457 
L 180.835627 196.048684 
L 180.391282 194.899987 
z
" style="stroke:#000000;"/>
    <path clip-path="url(#p3db2835758)" d="M 180.835627 158.226492 
L 182.418029 157.201222 
L 180.466791 157.19147 
z
" style="stroke:#000000;"/>
    <path clip-path="url(#p3db2835758)" d="M 181.008512 192.757832 
L 182.342322 194.889574 
L 180.391282 194.899987 
z
" style="stroke:#000000;"/>
    <path clip-path="url(#p3db2835758)" d="M 182.418029 157.201222 
L 180.835627 158.226492 
L 182.787834 158.235696 
z
" style="stroke:#000000;"/>
    <path clip-path="url(#p3db2835758)" d="M 180.206553 157.575231 
L 180.835627 158.226492 
L 180.466791 157.19147 
z
" style="stroke:#000000;"/>
    <path clip-path="url(#p3db2835758)" d="M 180.835627 196.048684 
L 180.206553 196.696457 
L 180.466791 197.08166 
z
" style="stroke:#000000;"/>
    <path clip-path="url(#p3db2835758)" d="M 182.342322 194.889574 
L 181.008512 192.757832 
L 182.961172 192.748556 
z
" style="stroke:#000000;"/>
    <path clip-path="url(#p3db2835758)" d="M 180.466791 197.08166 
L 182.787834 196.037649 
L 180.835627 196.048684 
z
" style="stroke:#000000;"/>
    <path clip-path="url(#p3db2835758)" d="M 180.391282 159.372725 
L 182.961172 161.525746 
L 181.008512 161.518301 
z
" style="stroke:#000000;"/>
    <path clip-path="url(#p3db2835758)" d="M 180.835627 158.226492 
L 180.391282 159.372725 
L 181.008512 161.518301 
z
" style="stroke:#000000;"/>
    <path clip-path="url(#p3db2835758)" d="M 180.391282 194.899987 
L 180.835627 196.048684 
L 181.008512 192.757832 
z
" style="stroke:#000000;"/>
    <path clip-path="url(#p3db2835758)" d="M 182.787834 196.037649 
L 182.961172 192.748556 
L 183.447173 193.759311 
z
" style="stroke:#000000;"/>
    <path clip-path="url(#p3db2835758)" d="M 182.961172 161.525746 
L 182.787834 158.235696 
L 183.447173 160.517674 
z
" style="stroke:#000000;"/>
    <path clip-path="url(#p3db2835758)" d="M 183.447173 193.759311 
L 180.835627 196.048684 
L 182.787834 196.037649 
z
" style="stroke:#000000;"/>
    <path clip-path="url(#p3db2835758)" d="M 181.49324 160.509683 
L 182.787834 158.235696 
L 180.835627 158.226492 
z
" style="stroke:#000000;"/>
    <path clip-path="url(#p3db2835758)" d="M 183.49775 163.847318 
L 181.008512 161.518301 
L 182.961172 161.525746 
z
" style="stroke:#000000;"/>
    <path clip-path="url(#p3db2835758)" d="M 183.447173 193.759311 
L 182.961172 192.748556 
L 183.49775 190.429947 
z
" style="stroke:#000000;"/>
    <path clip-path="url(#p3db2835758)" d="M 182.961172 161.525746 
L 183.447173 160.517674 
L 183.49775 163.847318 
z
" style="stroke:#000000;"/>
    <path clip-path="url(#p3db2835758)" d="M 182.787834 158.235696 
L 181.49324 160.509683 
L 183.447173 160.517674 
z
" style="stroke:#000000;"/>
    <path clip-path="url(#p3db2835758)" d="M 181.543685 190.437989 
L 182.961172 192.748556 
L 181.008512 192.757832 
z
" style="stroke:#000000;"/>
    <path clip-path="url(#p3db2835758)" d="M 180.835627 158.226492 
L 181.008512 161.518301 
L 181.49324 160.509683 
z
" style="stroke:#000000;"/>
    <path clip-path="url(#p3db2835758)" d="M 181.008512 192.757832 
L 180.835627 196.048684 
L 181.49324 193.769137 
z
" style="stroke:#000000;"/>
    <path clip-path="url(#p3db2835758)" d="M 182.961172 192.748556 
L 181.543685 190.437989 
L 183.49775 190.429947 
z
" style="stroke:#000000;"/>
    <path clip-path="url(#p3db2835758)" d="M 180.835627 196.048684 
L 183.447173 193.759311 
L 181.49324 193.769137 
z
" style="stroke:#000000;"/>
    <path clip-path="url(#p3db2835758)" d="M 181.008512 161.518301 
L 183.49775 163.847318 
L 181.543685 163.841111 
z
" style="stroke:#000000;"/>
    <path clip-path="url(#p3db2835758)" d="M 181.49324 160.509683 
L 181.008512 161.518301 
L 181.543685 163.841111 
z
" style="stroke:#000000;"/>
    <path clip-path="url(#p3db2835758)" d="M 181.008512 192.757832 
L 181.49324 193.769137 
L 181.543685 190.437989 
z
" style="stroke:#000000;"/>
    <path clip-path="url(#p3db2835758)" d="M 183.447173 193.759311 
L 183.49775 190.429947 
L 184.018927 191.291656 
z
" style="stroke:#000000;"/>
    <path clip-path="url(#p3db2835758)" d="M 183.49775 163.847318 
L 183.447173 160.517674 
L 184.018927 162.988487 
z
" style="stroke:#000000;"/>
    <path clip-path="url(#p3db2835758)" d="M 184.018927 191.291656 
L 181.49324 193.769137 
L 183.447173 193.759311 
z
" style="stroke:#000000;"/>
    <path clip-path="url(#p3db2835758)" d="M 183.945731 166.319928 
L 181.543685 163.841111 
L 183.49775 163.847318 
z
" style="stroke:#000000;"/>
    <path clip-path="url(#p3db2835758)" d="M 184.018927 191.291656 
L 183.49775 190.429947 
L 183.945731 187.95981 
z
" style="stroke:#000000;"/>
    <path clip-path="url(#p3db2835758)" d="M 183.49775 163.847318 
L 184.018927 162.988487 
L 183.945731 166.319928 
z
" style="stroke:#000000;"/>
    <path clip-path="url(#p3db2835758)" d="M 182.063497 162.981815 
L 183.447173 160.517674 
L 181.49324 160.509683 
z
" style="stroke:#000000;"/>
    <path clip-path="url(#p3db2835758)" d="M 181.990492 187.966533 
L 183.49775 190.429947 
L 181.543685 190.437989 
z
" style="stroke:#000000;"/>
    <path clip-path="url(#p3db2835758)" d="M 183.49775 190.429947 
L 181.990492 187.966533 
L 183.945731 187.95981 
z
" style="stroke:#000000;"/>
    <path clip-path="url(#p3db2835758)" d="M 183.447173 160.517674 
L 182.063497 162.981815 
L 184.018927 162.988487 
z
" style="stroke:#000000;"/>
    <path clip-path="url(#p3db2835758)" d="M 181.49324 160.509683 
L 181.543685 163.841111 
L 182.063497 162.981815 
z
" style="stroke:#000000;"/>
    <path clip-path="url(#p3db2835758)" d="M 181.543685 190.437989 
L 181.49324 193.769137 
L 182.063497 191.300166 
z
" style="stroke:#000000;"/>
    <path clip-path="url(#p3db2835758)" d="M 181.543685 163.841111 
L 183.945731 166.319928 
L 181.990492 166.315043 
z
" style="stroke:#000000;"/>
    <path clip-path="url(#p3db2835758)" d="M 181.49324 193.769137 
L 184.018927 191.291656 
L 182.063497 191.300166 
z
" style="stroke:#000000;"/>
    <path clip-path="url(#p3db2835758)" d="M 182.063497 162.981815 
L 181.543685 163.841111 
L 181.990492 166.315043 
z
" style="stroke:#000000;"/>
    <path clip-path="url(#p3db2835758)" d="M 181.543685 190.437989 
L 182.063497 191.300166 
L 181.990492 187.966533 
z
" style="stroke:#000000;"/>
    <path clip-path="url(#p3db2835758)" d="M 183.945731 187.95981 
L 184.49633 188.662165 
L 184.018927 191.291656 
z
" style="stroke:#000000;"/>
    <path clip-path="url(#p3db2835758)" d="M 184.49633 165.620614 
L 183.945731 166.319928 
L 184.018927 162.988487 
z
" style="stroke:#000000;"/>
    <path clip-path="url(#p3db2835758)" d="M 184.299812 168.915734 
L 181.990492 166.315043 
L 183.945731 166.319928 
z
" style="stroke:#000000;"/>
    <path clip-path="url(#p3db2835758)" d="M 184.49633 188.662165 
L 183.945731 187.95981 
L 184.299812 185.36596 
z
" style="stroke:#000000;"/>
    <path clip-path="url(#p3db2835758)" d="M 183.945731 166.319928 
L 184.49633 165.620614 
L 184.299812 168.915734 
z
" style="stroke:#000000;"/>
    <path clip-path="url(#p3db2835758)" d="M 182.343648 185.371294 
L 183.945731 187.95981 
L 181.990492 187.966533 
z
" style="stroke:#000000;"/>
    <path clip-path="url(#p3db2835758)" d="M 184.49633 188.662165 
L 182.063497 191.300166 
L 184.018927 191.291656 
z
" style="stroke:#000000;"/>
    <path clip-path="url(#p3db2835758)" d="M 183.945731 187.95981 
L 182.343648 185.371294 
L 184.299812 185.36596 
z
" style="stroke:#000000;"/>
    <path clip-path="url(#p3db2835758)" d="M 182.539651 165.615349 
L 184.018927 162.988487 
L 182.063497 162.981815 
z
" style="stroke:#000000;"/>
    <path clip-path="url(#p3db2835758)" d="M 181.990492 166.315043 
L 184.299812 168.915734 
L 182.343648 168.912239 
z
" style="stroke:#000000;"/>
    <path clip-path="url(#p3db2835758)" d="M 184.018927 162.988487 
L 182.539651 165.615349 
L 184.49633 165.620614 
z
" style="stroke:#000000;"/>
    <path clip-path="url(#p3db2835758)" d="M 181.990492 166.315043 
L 182.539651 165.615349 
L 182.063497 162.981815 
z
" style="stroke:#000000;"/>
    <path clip-path="url(#p3db2835758)" d="M 182.539651 188.66927 
L 181.990492 187.966533 
L 182.063497 191.300166 
z
" style="stroke:#000000;"/>
    <path clip-path="url(#p3db2835758)" d="M 184.555787 171.605287 
L 182.343648 168.912239 
L 184.299812 168.915734 
z
" style="stroke:#000000;"/>
    <path clip-path="url(#p3db2835758)" d="M 184.299812 185.36596 
L 184.873693 185.900636 
L 184.49633 188.662165 
z
" style="stroke:#000000;"/>
    <path clip-path="url(#p3db2835758)" d="M 184.873693 168.384227 
L 184.299812 168.915734 
L 184.49633 165.620614 
z
" style="stroke:#000000;"/>
    <path clip-path="url(#p3db2835758)" d="M 182.063497 191.300166 
L 184.49633 188.662165 
L 182.539651 188.66927 
z
" style="stroke:#000000;"/>
    <path clip-path="url(#p3db2835758)" d="M 184.873693 185.900636 
L 184.299812 185.36596 
L 184.555787 182.677821 
z
" style="stroke:#000000;"/>
    <path clip-path="url(#p3db2835758)" d="M 184.299812 168.915734 
L 184.873693 168.384227 
L 184.555787 171.605287 
z
" style="stroke:#000000;"/>
    <path clip-path="url(#p3db2835758)" d="M 182.539651 165.615349 
L 181.990492 166.315043 
L 182.343648 168.912239 
z
" style="stroke:#000000;"/>
    <path clip-path="url(#p3db2835758)" d="M 181.990492 187.966533 
L 182.539651 188.66927 
L 182.343648 185.371294 
z
" style="stroke:#000000;"/>
    <path clip-path="url(#p3db2835758)" d="M 184.299812 185.36596 
L 182.598953 182.681714 
L 184.555787 182.677821 
z
" style="stroke:#000000;"/>
    <path clip-path="url(#p3db2835758)" d="M 182.598953 182.681714 
L 184.299812 185.36596 
L 182.343648 185.371294 
z
" style="stroke:#000000;"/>
    <path clip-path="url(#p3db2835758)" d="M 182.343648 168.912239 
L 184.555787 171.605287 
L 182.598953 171.603235 
z
" style="stroke:#000000;"/>
    <path clip-path="url(#p3db2835758)" d="M 184.710603 174.357902 
L 182.598953 171.603235 
L 184.555787 171.605287 
z
" style="stroke:#000000;"/>
    <path clip-path="url(#p3db2835758)" d="M 184.873693 185.900636 
L 182.539651 188.66927 
L 184.49633 188.662165 
z
" style="stroke:#000000;"/>
    <path clip-path="url(#p3db2835758)" d="M 184.555787 182.677821 
L 182.753363 179.928476 
L 184.710603 179.92606 
z
" style="stroke:#000000;"/>
    <path clip-path="url(#p3db2835758)" d="M 185.146519 183.038437 
L 184.555787 182.677821 
L 184.710603 179.92606 
z
" style="stroke:#000000;"/>
    <path clip-path="url(#p3db2835758)" d="M 184.555787 171.605287 
L 185.146519 171.247933 
L 184.710603 174.357902 
z
" style="stroke:#000000;"/>
    <path clip-path="url(#p3db2835758)" d="M 182.753363 179.928476 
L 184.555787 182.677821 
L 182.598953 182.681714 
z
" style="stroke:#000000;"/>
    <path clip-path="url(#p3db2835758)" d="M 184.762417 177.142124 
L 182.753363 174.357328 
L 184.710603 174.357902 
z
" style="stroke:#000000;"/>
    <path clip-path="url(#p3db2835758)" d="M 182.916027 168.380444 
L 184.49633 165.620614 
L 182.539651 165.615349 
z
" style="stroke:#000000;"/>
    <path clip-path="url(#p3db2835758)" d="M 184.710603 179.92606 
L 182.805042 177.143045 
L 184.762417 177.142124 
z
" style="stroke:#000000;"/>
    <path clip-path="url(#p3db2835758)" d="M 184.555787 182.677821 
L 185.146519 183.038437 
L 184.873693 185.900636 
z
" style="stroke:#000000;"/>
    <path clip-path="url(#p3db2835758)" d="M 185.146519 171.247933 
L 184.555787 171.605287 
L 184.873693 168.384227 
z
" style="stroke:#000000;"/>
    <path clip-path="url(#p3db2835758)" d="M 184.49633 165.620614 
L 182.916027 168.380444 
L 184.873693 168.384227 
z
" style="stroke:#000000;"/>
    <path clip-path="url(#p3db2835758)" d="M 182.598953 171.603235 
L 184.710603 174.357902 
L 182.753363 174.357328 
z
" style="stroke:#000000;"/>
    <path clip-path="url(#p3db2835758)" d="M 182.343648 168.912239 
L 182.916027 168.380444 
L 182.539651 165.615349 
z
" style="stroke:#000000;"/>
    <path clip-path="url(#p3db2835758)" d="M 182.916027 185.906262 
L 182.343648 185.371294 
L 182.539651 188.66927 
z
" style="stroke:#000000;"/>
    <path clip-path="url(#p3db2835758)" d="M 182.916027 168.380444 
L 182.343648 168.912239 
L 182.598953 171.603235 
z
" style="stroke:#000000;"/>
    <path clip-path="url(#p3db2835758)" d="M 182.343648 185.371294 
L 182.916027 185.906262 
L 182.598953 182.681714 
z
" style="stroke:#000000;"/>
    <path clip-path="url(#p3db2835758)" d="M 184.710603 174.357902 
L 185.311536 174.178992 
L 184.762417 177.142124 
z
" style="stroke:#000000;"/>
    <path clip-path="url(#p3db2835758)" d="M 185.311536 180.108289 
L 184.710603 179.92606 
L 184.762417 177.142124 
z
" style="stroke:#000000;"/>
    <path clip-path="url(#p3db2835758)" d="M 182.805042 177.143045 
L 184.710603 179.92606 
L 182.753363 179.928476 
z
" style="stroke:#000000;"/>
    <path clip-path="url(#p3db2835758)" d="M 182.753363 174.357328 
L 184.762417 177.142124 
L 182.805042 177.143045 
z
" style="stroke:#000000;"/>
    <path clip-path="url(#p3db2835758)" d="M 182.539651 188.66927 
L 184.873693 185.900636 
L 182.916027 185.906262 
z
" style="stroke:#000000;"/>
    <path clip-path="url(#p3db2835758)" d="M 184.710603 179.92606 
L 185.311536 180.108289 
L 185.146519 183.038437 
z
" style="stroke:#000000;"/>
    <path clip-path="url(#p3db2835758)" d="M 185.311536 174.178992 
L 184.710603 174.357902 
L 185.146519 171.247933 
z
" style="stroke:#000000;"/>
    <path clip-path="url(#p3db2835758)" d="M 185.146519 183.038437 
L 182.916027 185.906262 
L 184.873693 185.900636 
z
" style="stroke:#000000;"/>
    <path clip-path="url(#p3db2835758)" d="M 183.18814 171.245687 
L 182.598953 171.603235 
L 182.753363 174.357328 
z
" style="stroke:#000000;"/>
    <path clip-path="url(#p3db2835758)" d="M 182.598953 182.681714 
L 183.18814 183.042527 
L 182.753363 179.928476 
z
" style="stroke:#000000;"/>
    <path clip-path="url(#p3db2835758)" d="M 184.762417 177.142124 
L 185.366762 177.143793 
L 185.311536 180.108289 
z
" style="stroke:#000000;"/>
    <path clip-path="url(#p3db2835758)" d="M 185.366762 177.143793 
L 184.762417 177.142124 
L 185.311536 174.178992 
z
" style="stroke:#000000;"/>
    <path clip-path="url(#p3db2835758)" d="M 184.873693 168.384227 
L 183.18814 171.245687 
L 185.146519 171.247933 
z
" style="stroke:#000000;"/>
    <path clip-path="url(#p3db2835758)" d="M 183.18814 171.245687 
L 184.873693 168.384227 
L 182.916027 168.380444 
z
" style="stroke:#000000;"/>
    <path clip-path="url(#p3db2835758)" d="M 182.598953 171.603235 
L 183.18814 171.245687 
L 182.916027 168.380444 
z
" style="stroke:#000000;"/>
    <path clip-path="url(#p3db2835758)" d="M 183.18814 183.042527 
L 182.598953 182.681714 
L 182.916027 185.906262 
z
" style="stroke:#000000;"/>
    <path clip-path="url(#p3db2835758)" d="M 182.753363 179.928476 
L 183.352725 180.110805 
L 182.805042 177.143045 
z
" style="stroke:#000000;"/>
    <path clip-path="url(#p3db2835758)" d="M 183.352725 174.178321 
L 182.753363 174.357328 
L 182.805042 177.143045 
z
" style="stroke:#000000;"/>
    <path clip-path="url(#p3db2835758)" d="M 182.704695 159.000233 
L 186.174386 156.128914 
L 184.661807 159.009049 
z
" style="stroke:#000000;"/>
    <path clip-path="url(#p3db2835758)" d="M 186.174386 167.489513 
L 182.704695 159.000233 
L 184.661807 159.009049 
z
" style="stroke:#000000;"/>
    <path clip-path="url(#p3db2835758)" d="M 182.916027 185.906262 
L 185.146519 183.038437 
L 183.18814 183.042527 
z
" style="stroke:#000000;"/>
    <path clip-path="url(#p3db2835758)" d="M 185.311536 180.108289 
L 183.18814 183.042527 
L 185.146519 183.038437 
z
" style="stroke:#000000;"/>
    <path clip-path="url(#p3db2835758)" d="M 186.174386 164.649364 
L 184.661807 159.009049 
L 185.165183 159.350186 
z
" style="stroke:#000000;"/>
    <path clip-path="url(#p3db2835758)" d="M 186.174386 156.128914 
L 185.165183 159.350186 
L 184.661807 159.009049 
z
" style="stroke:#000000;"/>
    <path clip-path="url(#p3db2835758)" d="M 185.146519 171.247933 
L 183.352725 174.178321 
L 185.311536 174.178992 
z
" style="stroke:#000000;"/>
    <path clip-path="url(#p3db2835758)" d="M 182.753363 174.357328 
L 183.352725 174.178321 
L 183.18814 171.245687 
z
" style="stroke:#000000;"/>
    <path clip-path="url(#p3db2835758)" d="M 183.352725 180.110805 
L 182.753363 179.928476 
L 183.18814 183.042527 
z
" style="stroke:#000000;"/>
    <path clip-path="url(#p3db2835758)" d="M 183.352725 174.178321 
L 185.146519 171.247933 
L 183.18814 171.245687 
z
" style="stroke:#000000;"/>
    <path clip-path="url(#p3db2835758)" d="M 185.366762 177.143793 
L 183.352725 180.110805 
L 185.311536 180.108289 
z
" style="stroke:#000000;"/>
    <path clip-path="url(#p3db2835758)" d="M 185.311536 174.178992 
L 183.407806 177.144716 
L 185.366762 177.143793 
z
" style="stroke:#000000;"/>
    <path clip-path="url(#p3db2835758)" d="M 183.18814 183.042527 
L 185.311536 180.108289 
L 183.352725 180.110805 
z
" style="stroke:#000000;"/>
    <path clip-path="url(#p3db2835758)" d="M 182.805042 177.143045 
L 183.407806 177.144716 
L 183.352725 174.178321 
z
" style="stroke:#000000;"/>
    <path clip-path="url(#p3db2835758)" d="M 183.407806 177.144716 
L 182.805042 177.143045 
L 183.352725 180.110805 
z
" style="stroke:#000000;"/>
    <path clip-path="url(#p3db2835758)" d="M 183.407806 177.144716 
L 185.311536 174.178992 
L 183.352725 174.178321 
z
" style="stroke:#000000;"/>
    <path clip-path="url(#p3db2835758)" d="M 183.352725 180.110805 
L 185.366762 177.143793 
L 183.407806 177.144716 
z
" style="stroke:#000000;"/>
    <path clip-path="url(#p3db2835758)" d="M 183.206755 159.341545 
L 184.21332 156.118526 
L 182.704695 159.000233 
z
" style="stroke:#000000;"/>
    <path clip-path="url(#p3db2835758)" d="M 182.704695 159.000233 
L 184.21332 164.643562 
L 183.206755 159.341545 
z
" style="stroke:#000000;"/>
    <path clip-path="url(#p3db2835758)" d="M 184.661807 159.009049 
L 186.174386 164.649364 
L 186.174386 167.489513 
z
" style="stroke:#000000;"/>
    <path clip-path="url(#p3db2835758)" d="M 185.165183 159.350186 
L 184.21332 157.539365 
L 183.206755 159.341545 
z
" style="stroke:#000000;"/>
    <path clip-path="url(#p3db2835758)" d="M 184.21332 164.643562 
L 185.165183 159.350186 
L 183.206755 159.341545 
z
" style="stroke:#000000;"/>
    <path clip-path="url(#p3db2835758)" d="M 185.165183 159.350186 
L 186.174386 156.128914 
L 186.174386 157.548989 
z
" style="stroke:#000000;"/>
    <path clip-path="url(#p3db2835758)" d="M 186.174386 156.128914 
L 182.704695 159.000233 
L 184.21332 156.118526 
z
" style="stroke:#000000;"/>
    <path clip-path="url(#p3db2835758)" d="M 182.704695 159.000233 
L 186.174386 167.489513 
L 184.21332 167.485241 
z
" style="stroke:#000000;"/>
    <path clip-path="url(#p3db2835758)" d="M 184.21332 157.539365 
L 185.165183 159.350186 
L 186.174386 157.548989 
z
" style="stroke:#000000;"/>
    <path clip-path="url(#p3db2835758)" d="M 185.165183 159.350186 
L 184.21332 164.643562 
L 186.174386 164.649364 
z
" style="stroke:#000000;"/>
    <path clip-path="url(#p3db2835758)" d="M 184.21332 164.643562 
L 182.704695 159.000233 
L 184.21332 167.485241 
z
" style="stroke:#000000;"/>
    <path clip-path="url(#p3db2835758)" d="M 184.21332 156.118526 
L 183.206755 159.341545 
L 184.21332 157.539365 
z
" style="stroke:#000000;"/>
    <path clip-path="url(#p3db2835758)" d="M 186.174386 156.128914 
L 187.186873 159.297895 
L 186.174386 157.548989 
z
" style="stroke:#000000;"/>
    <path clip-path="url(#p3db2835758)" d="M 186.174386 164.649364 
L 187.694352 158.928884 
L 186.174386 167.489513 
z
" style="stroke:#000000;"/>
    <path clip-path="url(#p3db2835758)" d="M 186.174386 157.548989 
L 185.223161 159.289198 
L 184.21332 157.539365 
z
" style="stroke:#000000;"/>
    <path clip-path="url(#p3db2835758)" d="M 185.223161 159.289198 
L 186.174386 164.649364 
L 184.21332 164.643562 
z
" style="stroke:#000000;"/>
    <path clip-path="url(#p3db2835758)" d="M 184.21332 156.118526 
L 187.694352 158.928884 
L 186.174386 156.128914 
z
" style="stroke:#000000;"/>
    <path clip-path="url(#p3db2835758)" d="M 187.694352 158.928884 
L 184.21332 167.485241 
L 186.174386 167.489513 
z
" style="stroke:#000000;"/>
    <path clip-path="url(#p3db2835758)" d="M 184.21332 156.118526 
L 184.21332 157.539365 
L 185.223161 159.289198 
z
" style="stroke:#000000;"/>
    <path clip-path="url(#p3db2835758)" d="M 185.223161 159.289198 
L 186.174386 157.548989 
L 187.186873 159.297895 
z
" style="stroke:#000000;"/>
    <path clip-path="url(#p3db2835758)" d="M 186.174386 164.649364 
L 185.223161 159.289198 
L 187.186873 159.297895 
z
" style="stroke:#000000;"/>
    <path clip-path="url(#p3db2835758)" d="M 184.21332 164.643562 
L 184.21332 167.485241 
L 185.729315 158.919981 
z
" style="stroke:#000000;"/>
    <path clip-path="url(#p3db2835758)" d="M 187.694352 158.928884 
L 186.174386 164.649364 
L 187.186873 159.297895 
z
" style="stroke:#000000;"/>
    <path clip-path="url(#p3db2835758)" d="M 187.186873 159.297895 
L 186.174386 156.128914 
L 187.694352 158.928884 
z
" style="stroke:#000000;"/>
    <path clip-path="url(#p3db2835758)" d="M 187.039635 180.121301 
L 185.02093 177.149186 
L 186.984112 177.148258 
z
" style="stroke:#000000;"/>
    <path clip-path="url(#p3db2835758)" d="M 186.984112 177.148258 
L 185.076308 174.174848 
L 187.039635 174.175523 
z
" style="stroke:#000000;"/>
    <path clip-path="url(#p3db2835758)" d="M 186.984112 177.148258 
L 187.59279 177.149939 
L 187.039635 180.121301 
z
" style="stroke:#000000;"/>
    <path clip-path="url(#p3db2835758)" d="M 187.59279 177.149939 
L 186.984112 177.148258 
L 187.039635 174.175523 
z
" style="stroke:#000000;"/>
    <path clip-path="url(#p3db2835758)" d="M 187.205659 183.063653 
L 185.076308 180.123831 
L 187.039635 180.121301 
z
" style="stroke:#000000;"/>
    <path clip-path="url(#p3db2835758)" d="M 185.076308 174.174848 
L 186.984112 177.148258 
L 185.02093 177.149186 
z
" style="stroke:#000000;"/>
    <path clip-path="url(#p3db2835758)" d="M 185.02093 177.149186 
L 187.039635 180.121301 
L 185.076308 180.123831 
z
" style="stroke:#000000;"/>
    <path clip-path="url(#p3db2835758)" d="M 187.039635 174.175523 
L 185.241899 171.231827 
L 187.205659 171.234088 
z
" style="stroke:#000000;"/>
    <path clip-path="url(#p3db2835758)" d="M 187.039635 180.121301 
L 187.645086 179.947316 
L 187.205659 183.063653 
z
" style="stroke:#000000;"/>
    <path clip-path="url(#p3db2835758)" d="M 187.645086 174.352851 
L 187.039635 174.175523 
L 187.205659 171.234088 
z
" style="stroke:#000000;"/>
    <path clip-path="url(#p3db2835758)" d="M 185.241899 171.231827 
L 187.039635 174.175523 
L 185.076308 174.174848 
z
" style="stroke:#000000;"/>
    <path clip-path="url(#p3db2835758)" d="M 184.21332 156.118526 
L 185.223161 159.289198 
L 185.729315 158.919981 
z
" style="stroke:#000000;"/>
    <path clip-path="url(#p3db2835758)" d="M 184.21332 164.643562 
L 185.729315 158.919981 
L 185.223161 159.289198 
z
" style="stroke:#000000;"/>
    <path clip-path="url(#p3db2835758)" d="M 185.076308 180.123831 
L 187.205659 183.063653 
L 185.241899 183.06777 
z
" style="stroke:#000000;"/>
    <path clip-path="url(#p3db2835758)" d="M 187.480537 185.944582 
L 185.241899 183.06777 
L 187.205659 183.063653 
z
" style="stroke:#000000;"/>
    <path clip-path="url(#p3db2835758)" d="M 187.694352 158.928884 
L 184.21332 156.118526 
L 185.729315 158.919981 
z
" style="stroke:#000000;"/>
    <path clip-path="url(#p3db2835758)" d="M 184.21332 167.485241 
L 187.694352 158.928884 
L 185.729315 158.919981 
z
" style="stroke:#000000;"/>
    <path clip-path="url(#p3db2835758)" d="M 187.039635 174.175523 
L 187.645086 174.352851 
L 187.59279 177.149939 
z
" style="stroke:#000000;"/>
    <path clip-path="url(#p3db2835758)" d="M 187.645086 179.947316 
L 187.039635 180.121301 
L 187.59279 177.149939 
z
" style="stroke:#000000;"/>
    <path clip-path="url(#p3db2835758)" d="M 187.205659 183.063653 
L 187.801446 182.715719 
L 187.480537 185.944582 
z
" style="stroke:#000000;"/>
    <path clip-path="url(#p3db2835758)" d="M 187.801446 171.585311 
L 187.205659 171.234088 
L 187.480537 168.354676 
z
" style="stroke:#000000;"/>
    <path clip-path="url(#p3db2835758)" d="M 187.205659 171.234088 
L 185.516059 168.350861 
L 187.480537 168.354676 
z
" style="stroke:#000000;"/>
    <path clip-path="url(#p3db2835758)" d="M 185.516059 168.350861 
L 187.205659 171.234088 
L 185.241899 171.231827 
z
" style="stroke:#000000;"/>
    <path clip-path="url(#p3db2835758)" d="M 185.02093 177.149186 
L 185.628018 177.150869 
L 185.076308 174.174848 
z
" style="stroke:#000000;"/>
    <path clip-path="url(#p3db2835758)" d="M 185.628018 177.150869 
L 185.02093 177.149186 
L 185.076308 180.123831 
z
" style="stroke:#000000;"/>
    <path clip-path="url(#p3db2835758)" d="M 187.801446 182.715719 
L 187.205659 183.063653 
L 187.645086 179.947316 
z
" style="stroke:#000000;"/>
    <path clip-path="url(#p3db2835758)" d="M 187.205659 171.234088 
L 187.801446 171.585311 
L 187.645086 174.352851 
z
" style="stroke:#000000;"/>
    <path clip-path="url(#p3db2835758)" d="M 185.241899 183.06777 
L 187.480537 185.944582 
L 185.516059 185.950256 
z
" style="stroke:#000000;"/>
    <path clip-path="url(#p3db2835758)" d="M 185.076308 174.174848 
L 185.680178 174.352271 
L 185.241899 171.231827 
z
" style="stroke:#000000;"/>
    <path clip-path="url(#p3db2835758)" d="M 185.680178 179.949755 
L 185.076308 180.123831 
L 185.241899 183.06777 
z
" style="stroke:#000000;"/>
    <path clip-path="url(#p3db2835758)" d="M 187.861538 188.733897 
L 185.516059 185.950256 
L 187.480537 185.944582 
z
" style="stroke:#000000;"/>
    <path clip-path="url(#p3db2835758)" d="M 187.645086 174.352851 
L 185.628018 177.150869 
L 187.59279 177.149939 
z
" style="stroke:#000000;"/>
    <path clip-path="url(#p3db2835758)" d="M 187.59279 177.149939 
L 185.680178 179.949755 
L 187.645086 179.947316 
z
" style="stroke:#000000;"/>
    <path clip-path="url(#p3db2835758)" d="M 185.076308 180.123831 
L 185.680178 179.949755 
L 185.628018 177.150869 
z
" style="stroke:#000000;"/>
    <path clip-path="url(#p3db2835758)" d="M 185.680178 174.352271 
L 185.076308 174.174848 
L 185.628018 177.150869 
z
" style="stroke:#000000;"/>
    <path clip-path="url(#p3db2835758)" d="M 188.060317 185.426174 
L 187.480537 185.944582 
L 187.801446 182.715719 
z
" style="stroke:#000000;"/>
    <path clip-path="url(#p3db2835758)" d="M 187.480537 168.354676 
L 188.060317 168.876286 
L 187.801446 171.585311 
z
" style="stroke:#000000;"/>
    <path clip-path="url(#p3db2835758)" d="M 187.480537 185.944582 
L 188.060317 185.426174 
L 187.861538 188.733897 
z
" style="stroke:#000000;"/>
    <path clip-path="url(#p3db2835758)" d="M 188.060317 168.876286 
L 187.480537 168.354676 
L 187.861538 165.567465 
z
" style="stroke:#000000;"/>
    <path clip-path="url(#p3db2835758)" d="M 187.801446 171.585311 
L 185.680178 174.352271 
L 187.645086 174.352851 
z
" style="stroke:#000000;"/>
    <path clip-path="url(#p3db2835758)" d="M 185.896065 165.562143 
L 187.480537 168.354676 
L 185.516059 168.350861 
z
" style="stroke:#000000;"/>
    <path clip-path="url(#p3db2835758)" d="M 185.241899 171.231827 
L 185.83613 171.583238 
L 185.516059 168.350861 
z
" style="stroke:#000000;"/>
    <path clip-path="url(#p3db2835758)" d="M 185.83613 182.719653 
L 185.241899 183.06777 
L 185.516059 185.950256 
z
" style="stroke:#000000;"/>
    <path clip-path="url(#p3db2835758)" d="M 185.680178 179.949755 
L 187.59279 177.149939 
L 185.628018 177.150869 
z
" style="stroke:#000000;"/>
    <path clip-path="url(#p3db2835758)" d="M 187.480537 168.354676 
L 185.896065 165.562143 
L 187.861538 165.567465 
z
" style="stroke:#000000;"/>
    <path clip-path="url(#p3db2835758)" d="M 185.628018 177.150869 
L 187.645086 174.352851 
L 185.680178 174.352271 
z
" style="stroke:#000000;"/>
    <path clip-path="url(#p3db2835758)" d="M 187.645086 179.947316 
L 185.83613 182.719653 
L 187.801446 182.715719 
z
" style="stroke:#000000;"/>
    <path clip-path="url(#p3db2835758)" d="M 185.83613 171.583238 
L 185.241899 171.231827 
L 185.680178 174.352271 
z
" style="stroke:#000000;"/>
    <path clip-path="url(#p3db2835758)" d="M 185.241899 183.06777 
L 185.83613 182.719653 
L 185.680178 179.949755 
z
" style="stroke:#000000;"/>
    <path clip-path="url(#p3db2835758)" d="M 185.83613 182.719653 
L 187.645086 179.947316 
L 185.680178 179.949755 
z
" style="stroke:#000000;"/>
    <path clip-path="url(#p3db2835758)" d="M 185.516059 185.950256 
L 187.861538 188.733897 
L 185.896065 188.74108 
z
" style="stroke:#000000;"/>
    <path clip-path="url(#p3db2835758)" d="M 185.680178 174.352271 
L 187.801446 171.585311 
L 185.83613 171.583238 
z
" style="stroke:#000000;"/>
    <path clip-path="url(#p3db2835758)" d="M 188.060317 168.876286 
L 185.83613 171.583238 
L 187.801446 171.585311 
z
" style="stroke:#000000;"/>
    <path clip-path="url(#p3db2835758)" d="M 187.801446 182.715719 
L 186.094326 185.431573 
L 188.060317 185.426174 
z
" style="stroke:#000000;"/>
    <path clip-path="url(#p3db2835758)" d="M 186.094326 185.431573 
L 187.801446 182.715719 
L 185.83613 182.719653 
z
" style="stroke:#000000;"/>
    <path clip-path="url(#p3db2835758)" d="M 188.419113 188.050185 
L 187.861538 188.733897 
L 188.060317 185.426174 
z
" style="stroke:#000000;"/>
    <path clip-path="url(#p3db2835758)" d="M 187.861538 165.567465 
L 188.419113 166.254257 
L 188.060317 168.876286 
z
" style="stroke:#000000;"/>
    <path clip-path="url(#p3db2835758)" d="M 186.094326 168.872749 
L 185.516059 168.350861 
L 185.83613 171.583238 
z
" style="stroke:#000000;"/>
    <path clip-path="url(#p3db2835758)" d="M 185.516059 185.950256 
L 186.094326 185.431573 
L 185.83613 182.719653 
z
" style="stroke:#000000;"/>
    <path clip-path="url(#p3db2835758)" d="M 188.344875 191.402272 
L 185.896065 188.74108 
L 187.861538 188.733897 
z
" style="stroke:#000000;"/>
    <path clip-path="url(#p3db2835758)" d="M 185.516059 168.350861 
L 186.094326 168.872749 
L 185.896065 165.562143 
z
" style="stroke:#000000;"/>
    <path clip-path="url(#p3db2835758)" d="M 186.094326 185.431573 
L 185.516059 185.950256 
L 185.896065 188.74108 
z
" style="stroke:#000000;"/>
    <path clip-path="url(#p3db2835758)" d="M 185.83613 171.583238 
L 188.060317 168.876286 
L 186.094326 168.872749 
z
" style="stroke:#000000;"/>
    <path clip-path="url(#p3db2835758)" d="M 187.861538 188.733897 
L 188.419113 188.050185 
L 188.344875 191.402272 
z
" style="stroke:#000000;"/>
    <path clip-path="url(#p3db2835758)" d="M 188.419113 166.254257 
L 187.861538 165.567465 
L 188.344875 162.901759 
z
" style="stroke:#000000;"/>
    <path clip-path="url(#p3db2835758)" d="M 186.37814 162.894993 
L 187.861538 165.567465 
L 185.896065 165.562143 
z
" style="stroke:#000000;"/>
    <path clip-path="url(#p3db2835758)" d="M 188.419113 166.254257 
L 186.094326 168.872749 
L 188.060317 168.876286 
z
" style="stroke:#000000;"/>
    <path clip-path="url(#p3db2835758)" d="M 187.861538 165.567465 
L 186.37814 162.894993 
L 188.344875 162.901759 
z
" style="stroke:#000000;"/>
    <path clip-path="url(#p3db2835758)" d="M 186.452185 188.057004 
L 188.060317 185.426174 
L 186.094326 185.431573 
z
" style="stroke:#000000;"/>
    <path clip-path="url(#p3db2835758)" d="M 185.896065 188.74108 
L 188.344875 191.402272 
L 186.37814 191.410902 
z
" style="stroke:#000000;"/>
    <path clip-path="url(#p3db2835758)" d="M 188.060317 185.426174 
L 186.452185 188.057004 
L 188.419113 188.050185 
z
" style="stroke:#000000;"/>
    <path clip-path="url(#p3db2835758)" d="M 186.452185 166.249301 
L 185.896065 165.562143 
L 186.094326 168.872749 
z
" style="stroke:#000000;"/>
    <path clip-path="url(#p3db2835758)" d="M 185.896065 188.74108 
L 186.452185 188.057004 
L 186.094326 185.431573 
z
" style="stroke:#000000;"/>
    <path clip-path="url(#p3db2835758)" d="M 186.094326 168.872749 
L 188.419113 166.254257 
L 186.452185 166.249301 
z
" style="stroke:#000000;"/>
    <path clip-path="url(#p3db2835758)" d="M 185.896065 165.562143 
L 186.452185 166.249301 
L 186.37814 162.894993 
z
" style="stroke:#000000;"/>
    <path clip-path="url(#p3db2835758)" d="M 186.452185 188.057004 
L 185.896065 188.74108 
L 186.37814 191.410902 
z
" style="stroke:#000000;"/>
    <path clip-path="url(#p3db2835758)" d="M 188.874237 190.560068 
L 188.344875 191.402272 
L 188.419113 188.050185 
z
" style="stroke:#000000;"/>
    <path clip-path="url(#p3db2835758)" d="M 188.344875 162.901759 
L 188.874237 163.746886 
L 188.419113 166.254257 
z
" style="stroke:#000000;"/>
    <path clip-path="url(#p3db2835758)" d="M 188.925704 193.921339 
L 186.37814 191.410902 
L 188.344875 191.402272 
z
" style="stroke:#000000;"/>
    <path clip-path="url(#p3db2835758)" d="M 188.874237 163.746886 
L 186.452185 166.249301 
L 188.419113 166.254257 
z
" style="stroke:#000000;"/>
    <path clip-path="url(#p3db2835758)" d="M 188.344875 191.402272 
L 188.874237 190.560068 
L 188.925704 193.921339 
z
" style="stroke:#000000;"/>
    <path clip-path="url(#p3db2835758)" d="M 188.874237 163.746886 
L 188.344875 162.901759 
L 188.925704 160.385899 
z
" style="stroke:#000000;"/>
    <path clip-path="url(#p3db2835758)" d="M 186.957455 160.377767 
L 188.344875 162.901759 
L 186.37814 162.894993 
z
" style="stroke:#000000;"/>
    <path clip-path="url(#p3db2835758)" d="M 186.906122 190.56825 
L 188.419113 188.050185 
L 186.452185 188.057004 
z
" style="stroke:#000000;"/>
    <path clip-path="url(#p3db2835758)" d="M 188.419113 188.050185 
L 186.906122 190.56825 
L 188.874237 190.560068 
z
" style="stroke:#000000;"/>
    <path clip-path="url(#p3db2835758)" d="M 188.344875 162.901759 
L 186.957455 160.377767 
L 188.925704 160.385899 
z
" style="stroke:#000000;"/>
    <path clip-path="url(#p3db2835758)" d="M 186.906122 163.740571 
L 186.37814 162.894993 
L 186.452185 166.249301 
z
" style="stroke:#000000;"/>
    <path clip-path="url(#p3db2835758)" d="M 186.37814 191.410902 
L 186.906122 190.56825 
L 186.452185 188.057004 
z
" style="stroke:#000000;"/>
    <path clip-path="url(#p3db2835758)" d="M 186.452185 166.249301 
L 188.874237 163.746886 
L 186.906122 163.740571 
z
" style="stroke:#000000;"/>
    <path clip-path="url(#p3db2835758)" d="M 186.37814 191.410902 
L 188.925704 193.921339 
L 186.957455 193.931339 
z
" style="stroke:#000000;"/>
    <path clip-path="url(#p3db2835758)" d="M 186.37814 162.894993 
L 186.906122 163.740571 
L 186.957455 160.377767 
z
" style="stroke:#000000;"/>
    <path clip-path="url(#p3db2835758)" d="M 186.906122 190.56825 
L 186.37814 191.410902 
L 186.957455 193.931339 
z
" style="stroke:#000000;"/>
    <path clip-path="url(#p3db2835758)" d="M 188.925704 193.921339 
L 188.874237 190.560068 
L 189.421114 192.929217 
z
" style="stroke:#000000;"/>
    <path clip-path="url(#p3db2835758)" d="M 188.874237 163.746886 
L 188.925704 160.385899 
L 189.421114 161.380757 
z
" style="stroke:#000000;"/>
    <path clip-path="url(#p3db2835758)" d="M 189.421114 161.380757 
L 186.906122 163.740571 
L 188.874237 163.746886 
z
" style="stroke:#000000;"/>
    <path clip-path="url(#p3db2835758)" d="M 189.598187 196.264339 
L 186.957455 193.931339 
L 188.925704 193.921339 
z
" style="stroke:#000000;"/>
    <path clip-path="url(#p3db2835758)" d="M 187.451572 192.938688 
L 188.874237 190.560068 
L 186.906122 190.56825 
z
" style="stroke:#000000;"/>
    <path clip-path="url(#p3db2835758)" d="M 188.925704 193.921339 
L 189.421114 192.929217 
L 189.598187 196.264339 
z
" style="stroke:#000000;"/>
    <path clip-path="url(#p3db2835758)" d="M 189.421114 161.380757 
L 188.925704 160.385899 
L 189.598187 158.046613 
z
" style="stroke:#000000;"/>
    <path clip-path="url(#p3db2835758)" d="M 188.874237 190.560068 
L 187.451572 192.938688 
L 189.421114 192.929217 
z
" style="stroke:#000000;"/>
    <path clip-path="url(#p3db2835758)" d="M 187.628183 158.037206 
L 188.925704 160.385899 
L 186.957455 160.377767 
z
" style="stroke:#000000;"/>
    <path clip-path="url(#p3db2835758)" d="M 186.957455 160.377767 
L 186.906122 163.740571 
L 187.451572 161.373156 
z
" style="stroke:#000000;"/>
    <path clip-path="url(#p3db2835758)" d="M 186.906122 190.56825 
L 186.957455 193.931339 
L 187.451572 192.938688 
z
" style="stroke:#000000;"/>
    <path clip-path="url(#p3db2835758)" d="M 186.906122 163.740571 
L 189.421114 161.380757 
L 187.451572 161.373156 
z
" style="stroke:#000000;"/>
    <path clip-path="url(#p3db2835758)" d="M 188.925704 160.385899 
L 187.628183 158.037206 
L 189.598187 158.046613 
z
" style="stroke:#000000;"/>
    <path clip-path="url(#p3db2835758)" d="M 186.957455 193.931339 
L 189.598187 196.264339 
L 187.628183 196.275618 
z
" style="stroke:#000000;"/>
    <path clip-path="url(#p3db2835758)" d="M 186.957455 160.377767 
L 187.451572 161.373156 
L 187.628183 158.037206 
z
" style="stroke:#000000;"/>
    <path clip-path="url(#p3db2835758)" d="M 187.451572 192.938688 
L 186.957455 193.931339 
L 187.628183 196.275618 
z
" style="stroke:#000000;"/>
    <path clip-path="url(#p3db2835758)" d="M 189.598187 196.264339 
L 189.421114 192.929217 
L 190.054213 195.132149 
z
" style="stroke:#000000;"/>
    <path clip-path="url(#p3db2835758)" d="M 189.421114 161.380757 
L 189.598187 158.046613 
L 190.054213 159.181322 
z
" style="stroke:#000000;"/>
    <path clip-path="url(#p3db2835758)" d="M 190.054213 159.181322 
L 187.451572 161.373156 
L 189.421114 161.380757 
z
" style="stroke:#000000;"/>
    <path clip-path="url(#p3db2835758)" d="M 189.976626 197.334437 
L 187.628183 196.275618 
L 189.598187 196.264339 
z
" style="stroke:#000000;"/>
    <path clip-path="url(#p3db2835758)" d="M 188.08302 195.142822 
L 189.421114 192.929217 
L 187.451572 192.938688 
z
" style="stroke:#000000;"/>
    <path clip-path="url(#p3db2835758)" d="M 189.598187 196.264339 
L 190.244187 196.963014 
L 189.976626 197.334437 
z
" style="stroke:#000000;"/>
    <path clip-path="url(#p3db2835758)" d="M 190.244187 157.351506 
L 189.598187 158.046613 
L 189.976626 156.978605 
z
" style="stroke:#000000;"/>
    <path clip-path="url(#p3db2835758)" d="M 188.005635 156.968613 
L 189.598187 158.046613 
L 187.628183 158.037206 
z
" style="stroke:#000000;"/>
    <path clip-path="url(#p3db2835758)" d="M 189.421114 192.929217 
L 188.08302 195.142822 
L 190.054213 195.132149 
z
" style="stroke:#000000;"/>
    <path clip-path="url(#p3db2835758)" d="M 189.598187 158.046613 
L 188.005635 156.968613 
L 189.976626 156.978605 
z
" style="stroke:#000000;"/>
    <path clip-path="url(#p3db2835758)" d="M 190.244187 196.963014 
L 189.598187 196.264339 
L 190.054213 195.132149 
z
" style="stroke:#000000;"/>
    <path clip-path="url(#p3db2835758)" d="M 189.598187 158.046613 
L 190.244187 157.351506 
L 190.054213 159.181322 
z
" style="stroke:#000000;"/>
    <path clip-path="url(#p3db2835758)" d="M 187.628183 158.037206 
L 187.451572 161.373156 
L 188.08302 159.172522 
z
" style="stroke:#000000;"/>
    <path clip-path="url(#p3db2835758)" d="M 187.451572 192.938688 
L 187.628183 196.275618 
L 188.08302 195.142822 
z
" style="stroke:#000000;"/>
    <path clip-path="url(#p3db2835758)" d="M 187.451572 161.373156 
L 190.054213 159.181322 
L 188.08302 159.172522 
z
" style="stroke:#000000;"/>
    <path clip-path="url(#p3db2835758)" d="M 187.628183 196.275618 
L 189.976626 197.334437 
L 188.005635 197.346302 
z
" style="stroke:#000000;"/>
    <path clip-path="url(#p3db2835758)" d="M 188.005635 156.968613 
L 190.244187 157.351506 
L 189.976626 156.978605 
z
" style="stroke:#000000;"/>
    <path clip-path="url(#p3db2835758)" d="M 188.272499 196.974682 
L 189.976626 197.334437 
L 190.244187 196.963014 
z
" style="stroke:#000000;"/>
    <path clip-path="url(#p3db2835758)" d="M 190.244187 196.963014 
L 190.054213 195.132149 
L 190.52545 196.462799 
z
" style="stroke:#000000;"/>
    <path clip-path="url(#p3db2835758)" d="M 190.054213 159.181322 
L 190.244187 157.351506 
L 190.52545 157.853273 
z
" style="stroke:#000000;"/>
    <path clip-path="url(#p3db2835758)" d="M 187.628183 158.037206 
L 188.272499 157.341712 
L 188.005635 156.968613 
z
" style="stroke:#000000;"/>
    <path clip-path="url(#p3db2835758)" d="M 188.272499 196.974682 
L 187.628183 196.275618 
L 188.005635 197.346302 
z
" style="stroke:#000000;"/>
    <path clip-path="url(#p3db2835758)" d="M 189.976626 197.334437 
L 188.272499 196.974682 
L 188.005635 197.346302 
z
" style="stroke:#000000;"/>
    <path clip-path="url(#p3db2835758)" d="M 188.272499 157.341712 
L 187.628183 158.037206 
L 188.08302 159.172522 
z
" style="stroke:#000000;"/>
    <path clip-path="url(#p3db2835758)" d="M 187.628183 196.275618 
L 188.272499 196.974682 
L 188.08302 195.142822 
z
" style="stroke:#000000;"/>
    <path clip-path="url(#p3db2835758)" d="M 188.08302 195.142822 
L 190.52545 196.462799 
L 190.054213 195.132149 
z
" style="stroke:#000000;"/>
    <path clip-path="url(#p3db2835758)" d="M 190.244187 157.351506 
L 188.005635 156.968613 
L 188.272499 157.341712 
z
" style="stroke:#000000;"/>
    <path clip-path="url(#p3db2835758)" d="M 190.054213 159.181322 
L 188.553029 157.843747 
L 188.08302 159.172522 
z
" style="stroke:#000000;"/>
    <path clip-path="url(#p3db2835758)" d="M 188.272499 157.341712 
L 190.52545 157.853273 
L 190.244187 157.351506 
z
" style="stroke:#000000;"/>
    <path clip-path="url(#p3db2835758)" d="M 188.553029 157.843747 
L 190.054213 159.181322 
L 190.52545 157.853273 
z
" style="stroke:#000000;"/>
    <path clip-path="url(#p3db2835758)" d="M 188.553029 196.474202 
L 190.244187 196.963014 
L 190.52545 196.462799 
z
" style="stroke:#000000;"/>
    <path clip-path="url(#p3db2835758)" d="M 190.244187 196.963014 
L 188.553029 196.474202 
L 188.272499 196.974682 
z
" style="stroke:#000000;"/>
    <path clip-path="url(#p3db2835758)" d="M 190.52545 196.462799 
L 188.08302 195.142822 
L 188.553029 196.474202 
z
" style="stroke:#000000;"/>
    <path clip-path="url(#p3db2835758)" d="M 188.272499 157.341712 
L 188.08302 159.172522 
L 188.553029 157.843747 
z
" style="stroke:#000000;"/>
    <path clip-path="url(#p3db2835758)" d="M 188.08302 195.142822 
L 188.272499 196.974682 
L 188.553029 196.474202 
z
" style="stroke:#000000;"/>
    <path clip-path="url(#p3db2835758)" d="M 190.52545 157.853273 
L 188.272499 157.341712 
L 188.553029 157.843747 
z
" style="stroke:#000000;"/>
   </g>
  </g>
 </g>
 <defs>
  <clipPath id="p3db2835758">
   <rect height="271.8" width="279" x="45" y="43.2"/>
  </clipPath>
 </defs>
</svg>
