<?xml version="1.0" encoding="utf-8" standalone="no"?>
<!DOCTYPE svg PUBLIC "-//W3C//DTD SVG 1.1//EN"
  "http://www.w3.org/Graphics/SVG/1.1/DTD/svg11.dtd">
<!-- Created with matplotlib (https://matplotlib.org/) -->
<svg height="360pt" version="1.1" viewBox="0 0 360 360" width="360pt" xmlns="http://www.w3.org/2000/svg" xmlns:xlink="http://www.w3.org/1999/xlink">
 <defs>
  <style type="text/css">
*{stroke-linecap:butt;stroke-linejoin:round;}
  </style>
 </defs>
 <g id="figure_1">
  <g id="patch_1">
   <path d="M 0 360 
L 360 360 
L 360 0 
L 0 0 
z
" style="fill:#ffffff;"/>
  </g>
  <g id="patch_2">
   <path d="M 45 315 
L 324 315 
L 324 43.2 
L 45 43.2 
z
" style="fill:#ffffff;"/>
  </g>
  <g id="axes_1">
   <g id="Poly3DCollection_1">
    <path clip-path="url(#pc8b0bcb856)" d="M 191.651842 195.895622 
L 189.462049 196.38929 
L 189.73389 195.884849 
z
" style="stroke:#000000;"/>
    <path clip-path="url(#pc8b0bcb856)" d="M 189.278166 159.645943 
L 189.462049 157.876316 
L 189.73389 158.379269 
z
" style="stroke:#000000;"/>
    <path clip-path="url(#pc8b0bcb856)" d="M 189.462049 196.38929 
L 189.278166 194.620669 
L 189.73389 195.884849 
z
" style="stroke:#000000;"/>
    <path clip-path="url(#pc8b0bcb856)" d="M 191.651842 158.370293 
L 189.278166 159.645943 
L 189.73389 158.379269 
z
" style="stroke:#000000;"/>
    <path clip-path="url(#pc8b0bcb856)" d="M 191.380696 157.86707 
L 189.73389 158.379269 
L 189.462049 157.876316 
z
" style="stroke:#000000;"/>
    <path clip-path="url(#pc8b0bcb856)" d="M 189.73389 158.379269 
L 191.380696 157.86707 
L 191.651842 158.370293 
z
" style="stroke:#000000;"/>
    <path clip-path="url(#pc8b0bcb856)" d="M 189.73389 195.884849 
L 191.197282 194.630783 
L 191.651842 195.895622 
z
" style="stroke:#000000;"/>
    <path clip-path="url(#pc8b0bcb856)" d="M 189.462049 196.38929 
L 191.651842 195.895622 
L 191.380696 196.400333 
z
" style="stroke:#000000;"/>
    <path clip-path="url(#pc8b0bcb856)" d="M 191.197282 194.630783 
L 189.73389 195.884849 
L 189.278166 194.620669 
z
" style="stroke:#000000;"/>
    <path clip-path="url(#pc8b0bcb856)" d="M 191.380696 196.400333 
L 189.203004 196.768375 
L 189.462049 196.38929 
z
" style="stroke:#000000;"/>
    <path clip-path="url(#pc8b0bcb856)" d="M 189.278166 159.645943 
L 191.651842 158.370293 
L 191.197282 159.637627 
z
" style="stroke:#000000;"/>
    <path clip-path="url(#pc8b0bcb856)" d="M 188.835864 158.517743 
L 189.462049 157.876316 
L 189.278166 159.645943 
z
" style="stroke:#000000;"/>
    <path clip-path="url(#pc8b0bcb856)" d="M 189.462049 196.38929 
L 188.835864 195.75129 
L 189.278166 194.620669 
z
" style="stroke:#000000;"/>
    <path clip-path="url(#pc8b0bcb856)" d="M 191.122311 157.4892 
L 189.462049 157.876316 
L 189.203004 157.498649 
z
" style="stroke:#000000;"/>
    <path clip-path="url(#pc8b0bcb856)" d="M 189.462049 157.876316 
L 188.835864 158.517743 
L 189.203004 157.498649 
z
" style="stroke:#000000;"/>
    <path clip-path="url(#pc8b0bcb856)" d="M 188.835864 195.75129 
L 189.462049 196.38929 
L 189.203004 196.768375 
z
" style="stroke:#000000;"/>
    <path clip-path="url(#pc8b0bcb856)" d="M 191.197282 194.630783 
L 191.380696 196.400333 
L 191.651842 195.895622 
z
" style="stroke:#000000;"/>
    <path clip-path="url(#pc8b0bcb856)" d="M 191.380696 157.86707 
L 191.197282 159.637627 
L 191.651842 158.370293 
z
" style="stroke:#000000;"/>
    <path clip-path="url(#pc8b0bcb856)" d="M 189.462049 157.876316 
L 191.122311 157.4892 
L 191.380696 157.86707 
z
" style="stroke:#000000;"/>
    <path clip-path="url(#pc8b0bcb856)" d="M 189.203004 196.768375 
L 191.380696 196.400333 
L 191.122311 196.779622 
z
" style="stroke:#000000;"/>
    <path clip-path="url(#pc8b0bcb856)" d="M 188.835864 158.517743 
L 191.122311 157.4892 
L 189.203004 157.498649 
z
" style="stroke:#000000;"/>
    <path clip-path="url(#pc8b0bcb856)" d="M 188.663777 192.511588 
L 191.197282 194.630783 
L 189.278166 194.620669 
z
" style="stroke:#000000;"/>
    <path clip-path="url(#pc8b0bcb856)" d="M 188.835864 158.517743 
L 189.278166 159.645943 
L 188.663777 161.758386 
z
" style="stroke:#000000;"/>
    <path clip-path="url(#pc8b0bcb856)" d="M 189.278166 194.620669 
L 188.835864 195.75129 
L 188.663777 192.511588 
z
" style="stroke:#000000;"/>
    <path clip-path="url(#pc8b0bcb856)" d="M 190.756108 195.762008 
L 191.380696 196.400333 
L 191.197282 194.630783 
z
" style="stroke:#000000;"/>
    <path clip-path="url(#pc8b0bcb856)" d="M 191.380696 157.86707 
L 190.756108 158.508826 
L 191.197282 159.637627 
z
" style="stroke:#000000;"/>
    <path clip-path="url(#pc8b0bcb856)" d="M 190.756108 195.762008 
L 189.203004 196.768375 
L 191.122311 196.779622 
z
" style="stroke:#000000;"/>
    <path clip-path="url(#pc8b0bcb856)" d="M 190.58446 161.751176 
L 189.278166 159.645943 
L 191.197282 159.637627 
z
" style="stroke:#000000;"/>
    <path clip-path="url(#pc8b0bcb856)" d="M 189.203004 196.768375 
L 190.756108 195.762008 
L 188.835864 195.75129 
z
" style="stroke:#000000;"/>
    <path clip-path="url(#pc8b0bcb856)" d="M 191.380696 196.400333 
L 190.756108 195.762008 
L 191.122311 196.779622 
z
" style="stroke:#000000;"/>
    <path clip-path="url(#pc8b0bcb856)" d="M 190.756108 158.508826 
L 191.380696 157.86707 
L 191.122311 157.4892 
z
" style="stroke:#000000;"/>
    <path clip-path="url(#pc8b0bcb856)" d="M 189.278166 159.645943 
L 190.58446 161.751176 
L 188.663777 161.758386 
z
" style="stroke:#000000;"/>
    <path clip-path="url(#pc8b0bcb856)" d="M 191.122311 157.4892 
L 188.835864 158.517743 
L 190.756108 158.508826 
z
" style="stroke:#000000;"/>
    <path clip-path="url(#pc8b0bcb856)" d="M 191.197282 194.630783 
L 188.663777 192.511588 
L 190.58446 192.5206 
z
" style="stroke:#000000;"/>
    <path clip-path="url(#pc8b0bcb856)" d="M 190.756108 195.762008 
L 191.197282 194.630783 
L 190.58446 192.5206 
z
" style="stroke:#000000;"/>
    <path clip-path="url(#pc8b0bcb856)" d="M 191.197282 159.637627 
L 190.756108 158.508826 
L 190.58446 161.751176 
z
" style="stroke:#000000;"/>
    <path clip-path="url(#pc8b0bcb856)" d="M 188.835864 158.517743 
L 188.663777 161.758386 
L 188.181293 160.765668 
z
" style="stroke:#000000;"/>
    <path clip-path="url(#pc8b0bcb856)" d="M 188.663777 192.511588 
L 188.835864 195.75129 
L 188.181293 193.506946 
z
" style="stroke:#000000;"/>
    <path clip-path="url(#pc8b0bcb856)" d="M 188.181293 160.765668 
L 190.756108 158.508826 
L 188.835864 158.517743 
z
" style="stroke:#000000;"/>
    <path clip-path="url(#pc8b0bcb856)" d="M 190.103206 193.51649 
L 188.835864 195.75129 
L 190.756108 195.762008 
z
" style="stroke:#000000;"/>
    <path clip-path="url(#pc8b0bcb856)" d="M 188.131082 190.22768 
L 190.58446 192.5206 
L 188.663777 192.511588 
z
" style="stroke:#000000;"/>
    <path clip-path="url(#pc8b0bcb856)" d="M 188.181293 160.765668 
L 188.663777 161.758386 
L 188.131082 164.045209 
z
" style="stroke:#000000;"/>
    <path clip-path="url(#pc8b0bcb856)" d="M 188.663777 192.511588 
L 188.181293 193.506946 
L 188.131082 190.22768 
z
" style="stroke:#000000;"/>
    <path clip-path="url(#pc8b0bcb856)" d="M 188.835864 195.75129 
L 190.103206 193.51649 
L 188.181293 193.506946 
z
" style="stroke:#000000;"/>
    <path clip-path="url(#pc8b0bcb856)" d="M 190.053124 164.0392 
L 188.663777 161.758386 
L 190.58446 161.751176 
z
" style="stroke:#000000;"/>
    <path clip-path="url(#pc8b0bcb856)" d="M 190.756108 195.762008 
L 190.58446 192.5206 
L 190.103206 193.51649 
z
" style="stroke:#000000;"/>
    <path clip-path="url(#pc8b0bcb856)" d="M 190.58446 161.751176 
L 190.756108 158.508826 
L 190.103206 160.757929 
z
" style="stroke:#000000;"/>
    <path clip-path="url(#pc8b0bcb856)" d="M 188.663777 161.758386 
L 190.053124 164.0392 
L 188.131082 164.045209 
z
" style="stroke:#000000;"/>
    <path clip-path="url(#pc8b0bcb856)" d="M 190.756108 158.508826 
L 188.181293 160.765668 
L 190.103206 160.757929 
z
" style="stroke:#000000;"/>
    <path clip-path="url(#pc8b0bcb856)" d="M 190.58446 192.5206 
L 188.131082 190.22768 
L 190.053124 190.235494 
z
" style="stroke:#000000;"/>
    <path clip-path="url(#pc8b0bcb856)" d="M 190.103206 193.51649 
L 190.58446 192.5206 
L 190.053124 190.235494 
z
" style="stroke:#000000;"/>
    <path clip-path="url(#pc8b0bcb856)" d="M 190.58446 161.751176 
L 190.103206 160.757929 
L 190.053124 164.0392 
z
" style="stroke:#000000;"/>
    <path clip-path="url(#pc8b0bcb856)" d="M 188.181293 160.765668 
L 188.131082 164.045209 
L 187.61369 163.199482 
z
" style="stroke:#000000;"/>
    <path clip-path="url(#pc8b0bcb856)" d="M 188.131082 190.22768 
L 188.181293 193.506946 
L 187.61369 191.076239 
z
" style="stroke:#000000;"/>
    <path clip-path="url(#pc8b0bcb856)" d="M 187.61369 163.199482 
L 190.103206 160.757929 
L 188.181293 160.765668 
z
" style="stroke:#000000;"/>
    <path clip-path="url(#pc8b0bcb856)" d="M 187.686354 187.79461 
L 190.053124 190.235494 
L 188.131082 190.22768 
z
" style="stroke:#000000;"/>
    <path clip-path="url(#pc8b0bcb856)" d="M 187.61369 163.199482 
L 188.131082 164.045209 
L 187.686354 166.480713 
z
" style="stroke:#000000;"/>
    <path clip-path="url(#pc8b0bcb856)" d="M 188.131082 190.22768 
L 187.61369 191.076239 
L 187.686354 187.79461 
z
" style="stroke:#000000;"/>
    <path clip-path="url(#pc8b0bcb856)" d="M 189.537051 191.084507 
L 188.181293 193.506946 
L 190.103206 193.51649 
z
" style="stroke:#000000;"/>
    <path clip-path="url(#pc8b0bcb856)" d="M 189.60953 166.475986 
L 188.131082 164.045209 
L 190.053124 164.0392 
z
" style="stroke:#000000;"/>
    <path clip-path="url(#pc8b0bcb856)" d="M 188.131082 164.045209 
L 189.60953 166.475986 
L 187.686354 166.480713 
z
" style="stroke:#000000;"/>
    <path clip-path="url(#pc8b0bcb856)" d="M 188.181293 193.506946 
L 189.537051 191.084507 
L 187.61369 191.076239 
z
" style="stroke:#000000;"/>
    <path clip-path="url(#pc8b0bcb856)" d="M 190.103206 193.51649 
L 190.053124 190.235494 
L 189.537051 191.084507 
z
" style="stroke:#000000;"/>
    <path clip-path="url(#pc8b0bcb856)" d="M 190.053124 164.0392 
L 190.103206 160.757929 
L 189.537051 163.193021 
z
" style="stroke:#000000;"/>
    <path clip-path="url(#pc8b0bcb856)" d="M 190.053124 190.235494 
L 187.686354 187.79461 
L 189.60953 187.801143 
z
" style="stroke:#000000;"/>
    <path clip-path="url(#pc8b0bcb856)" d="M 190.103206 160.757929 
L 187.61369 163.199482 
L 189.537051 163.193021 
z
" style="stroke:#000000;"/>
    <path clip-path="url(#pc8b0bcb856)" d="M 189.537051 191.084507 
L 190.053124 190.235494 
L 189.60953 187.801143 
z
" style="stroke:#000000;"/>
    <path clip-path="url(#pc8b0bcb856)" d="M 190.053124 164.0392 
L 189.537051 163.193021 
L 189.60953 166.475986 
z
" style="stroke:#000000;"/>
    <path clip-path="url(#pc8b0bcb856)" d="M 187.686354 166.480713 
L 187.139765 165.792083 
L 187.61369 163.199482 
z
" style="stroke:#000000;"/>
    <path clip-path="url(#pc8b0bcb856)" d="M 187.139765 188.48623 
L 187.686354 187.79461 
L 187.61369 191.076239 
z
" style="stroke:#000000;"/>
    <path clip-path="url(#pc8b0bcb856)" d="M 187.33485 185.239762 
L 189.60953 187.801143 
L 187.686354 187.79461 
z
" style="stroke:#000000;"/>
    <path clip-path="url(#pc8b0bcb856)" d="M 187.139765 165.792083 
L 187.686354 166.480713 
L 187.33485 169.037483 
z
" style="stroke:#000000;"/>
    <path clip-path="url(#pc8b0bcb856)" d="M 187.686354 187.79461 
L 187.139765 188.48623 
L 187.33485 185.239762 
z
" style="stroke:#000000;"/>
    <path clip-path="url(#pc8b0bcb856)" d="M 189.258921 169.034106 
L 187.686354 166.480713 
L 189.60953 166.475986 
z
" style="stroke:#000000;"/>
    <path clip-path="url(#pc8b0bcb856)" d="M 187.139765 165.792083 
L 189.537051 163.193021 
L 187.61369 163.199482 
z
" style="stroke:#000000;"/>
    <path clip-path="url(#pc8b0bcb856)" d="M 187.686354 166.480713 
L 189.258921 169.034106 
L 187.33485 169.037483 
z
" style="stroke:#000000;"/>
    <path clip-path="url(#pc8b0bcb856)" d="M 189.064334 188.493135 
L 187.61369 191.076239 
L 189.537051 191.084507 
z
" style="stroke:#000000;"/>
    <path clip-path="url(#pc8b0bcb856)" d="M 189.60953 187.801143 
L 187.33485 185.239762 
L 189.258921 185.244949 
z
" style="stroke:#000000;"/>
    <path clip-path="url(#pc8b0bcb856)" d="M 187.61369 191.076239 
L 189.064334 188.493135 
L 187.139765 188.48623 
z
" style="stroke:#000000;"/>
    <path clip-path="url(#pc8b0bcb856)" d="M 189.60953 187.801143 
L 189.064334 188.493135 
L 189.537051 191.084507 
z
" style="stroke:#000000;"/>
    <path clip-path="url(#pc8b0bcb856)" d="M 189.064334 165.786988 
L 189.60953 166.475986 
L 189.537051 163.193021 
z
" style="stroke:#000000;"/>
    <path clip-path="url(#pc8b0bcb856)" d="M 187.080742 182.592106 
L 189.258921 185.244949 
L 187.33485 185.239762 
z
" style="stroke:#000000;"/>
    <path clip-path="url(#pc8b0bcb856)" d="M 187.33485 169.037483 
L 186.765159 168.514106 
L 187.139765 165.792083 
z
" style="stroke:#000000;"/>
    <path clip-path="url(#pc8b0bcb856)" d="M 186.765159 185.766257 
L 187.33485 185.239762 
L 187.139765 188.48623 
z
" style="stroke:#000000;"/>
    <path clip-path="url(#pc8b0bcb856)" d="M 189.537051 163.193021 
L 187.139765 165.792083 
L 189.064334 165.786988 
z
" style="stroke:#000000;"/>
    <path clip-path="url(#pc8b0bcb856)" d="M 186.765159 168.514106 
L 187.33485 169.037483 
L 187.080742 171.686531 
z
" style="stroke:#000000;"/>
    <path clip-path="url(#pc8b0bcb856)" d="M 187.33485 185.239762 
L 186.765159 185.766257 
L 187.080742 182.592106 
z
" style="stroke:#000000;"/>
    <path clip-path="url(#pc8b0bcb856)" d="M 189.064334 188.493135 
L 189.60953 187.801143 
L 189.258921 185.244949 
z
" style="stroke:#000000;"/>
    <path clip-path="url(#pc8b0bcb856)" d="M 189.60953 166.475986 
L 189.064334 165.786988 
L 189.258921 169.034106 
z
" style="stroke:#000000;"/>
    <path clip-path="url(#pc8b0bcb856)" d="M 187.33485 169.037483 
L 189.005461 171.684553 
L 187.080742 171.686531 
z
" style="stroke:#000000;"/>
    <path clip-path="url(#pc8b0bcb856)" d="M 189.005461 171.684553 
L 187.33485 169.037483 
L 189.258921 169.034106 
z
" style="stroke:#000000;"/>
    <path clip-path="url(#pc8b0bcb856)" d="M 189.258921 185.244949 
L 187.080742 182.592106 
L 189.005461 182.595895 
z
" style="stroke:#000000;"/>
    <path clip-path="url(#pc8b0bcb856)" d="M 186.927058 179.881827 
L 189.005461 182.595895 
L 187.080742 182.592106 
z
" style="stroke:#000000;"/>
    <path clip-path="url(#pc8b0bcb856)" d="M 186.765159 168.514106 
L 189.064334 165.786988 
L 187.139765 165.792083 
z
" style="stroke:#000000;"/>
    <path clip-path="url(#pc8b0bcb856)" d="M 187.080742 171.686531 
L 188.852168 174.397106 
L 186.927058 174.39765 
z
" style="stroke:#000000;"/>
    <path clip-path="url(#pc8b0bcb856)" d="M 186.494331 171.334646 
L 187.080742 171.686531 
L 186.927058 174.39765 
z
" style="stroke:#000000;"/>
    <path clip-path="url(#pc8b0bcb856)" d="M 187.080742 182.592106 
L 186.494331 182.947199 
L 186.927058 179.881827 
z
" style="stroke:#000000;"/>
    <path clip-path="url(#pc8b0bcb856)" d="M 188.852168 174.397106 
L 187.080742 171.686531 
L 189.005461 171.684553 
z
" style="stroke:#000000;"/>
    <path clip-path="url(#pc8b0bcb856)" d="M 186.875622 177.139879 
L 188.852168 179.884183 
L 186.927058 179.881827 
z
" style="stroke:#000000;"/>
    <path clip-path="url(#pc8b0bcb856)" d="M 188.690682 185.771727 
L 187.139765 188.48623 
L 189.064334 188.493135 
z
" style="stroke:#000000;"/>
    <path clip-path="url(#pc8b0bcb856)" d="M 186.927058 174.39765 
L 188.800864 177.140785 
L 186.875622 177.139879 
z
" style="stroke:#000000;"/>
    <path clip-path="url(#pc8b0bcb856)" d="M 187.080742 171.686531 
L 186.494331 171.334646 
L 186.765159 168.514106 
z
" style="stroke:#000000;"/>
    <path clip-path="url(#pc8b0bcb856)" d="M 186.494331 182.947199 
L 187.080742 182.592106 
L 186.765159 185.766257 
z
" style="stroke:#000000;"/>
    <path clip-path="url(#pc8b0bcb856)" d="M 187.139765 188.48623 
L 188.690682 185.771727 
L 186.765159 185.766257 
z
" style="stroke:#000000;"/>
    <path clip-path="url(#pc8b0bcb856)" d="M 189.005461 182.595895 
L 186.927058 179.881827 
L 188.852168 179.884183 
z
" style="stroke:#000000;"/>
    <path clip-path="url(#pc8b0bcb856)" d="M 189.258921 185.244949 
L 188.690682 185.771727 
L 189.064334 188.493135 
z
" style="stroke:#000000;"/>
    <path clip-path="url(#pc8b0bcb856)" d="M 188.690682 168.510449 
L 189.258921 169.034106 
L 189.064334 165.786988 
z
" style="stroke:#000000;"/>
    <path clip-path="url(#pc8b0bcb856)" d="M 188.690682 185.771727 
L 189.258921 185.244949 
L 189.005461 182.595895 
z
" style="stroke:#000000;"/>
    <path clip-path="url(#pc8b0bcb856)" d="M 189.258921 169.034106 
L 188.690682 168.510449 
L 189.005461 171.684553 
z
" style="stroke:#000000;"/>
    <path clip-path="url(#pc8b0bcb856)" d="M 186.927058 179.881827 
L 186.330524 180.061263 
L 186.875622 177.139879 
z
" style="stroke:#000000;"/>
    <path clip-path="url(#pc8b0bcb856)" d="M 186.330524 174.221479 
L 186.927058 174.39765 
L 186.875622 177.139879 
z
" style="stroke:#000000;"/>
    <path clip-path="url(#pc8b0bcb856)" d="M 188.800864 177.140785 
L 186.927058 174.39765 
L 188.852168 174.397106 
z
" style="stroke:#000000;"/>
    <path clip-path="url(#pc8b0bcb856)" d="M 188.852168 179.884183 
L 186.875622 177.139879 
L 188.800864 177.140785 
z
" style="stroke:#000000;"/>
    <path clip-path="url(#pc8b0bcb856)" d="M 189.064334 165.786988 
L 186.765159 168.514106 
L 188.690682 168.510449 
z
" style="stroke:#000000;"/>
    <path clip-path="url(#pc8b0bcb856)" d="M 186.927058 174.39765 
L 186.330524 174.221479 
L 186.494331 171.334646 
z
" style="stroke:#000000;"/>
    <path clip-path="url(#pc8b0bcb856)" d="M 186.330524 180.061263 
L 186.927058 179.881827 
L 186.494331 182.947199 
z
" style="stroke:#000000;"/>
    <path clip-path="url(#pc8b0bcb856)" d="M 186.494331 171.334646 
L 188.690682 168.510449 
L 186.765159 168.514106 
z
" style="stroke:#000000;"/>
    <path clip-path="url(#pc8b0bcb856)" d="M 188.420544 182.951179 
L 189.005461 182.595895 
L 188.852168 179.884183 
z
" style="stroke:#000000;"/>
    <path clip-path="url(#pc8b0bcb856)" d="M 189.005461 171.684553 
L 188.420544 171.33248 
L 188.852168 174.397106 
z
" style="stroke:#000000;"/>
    <path clip-path="url(#pc8b0bcb856)" d="M 186.875622 177.139879 
L 186.275704 177.141521 
L 186.330524 174.221479 
z
" style="stroke:#000000;"/>
    <path clip-path="url(#pc8b0bcb856)" d="M 186.275704 177.141521 
L 186.875622 177.139879 
L 186.330524 180.061263 
z
" style="stroke:#000000;"/>
    <path clip-path="url(#pc8b0bcb856)" d="M 186.765159 185.766257 
L 188.420544 182.951179 
L 186.494331 182.947199 
z
" style="stroke:#000000;"/>
    <path clip-path="url(#pc8b0bcb856)" d="M 188.420544 182.951179 
L 186.765159 185.766257 
L 188.690682 185.771727 
z
" style="stroke:#000000;"/>
    <path clip-path="url(#pc8b0bcb856)" d="M 189.005461 182.595895 
L 188.420544 182.951179 
L 188.690682 185.771727 
z
" style="stroke:#000000;"/>
    <path clip-path="url(#pc8b0bcb856)" d="M 188.420544 171.33248 
L 189.005461 171.684553 
L 188.690682 168.510449 
z
" style="stroke:#000000;"/>
    <path clip-path="url(#pc8b0bcb856)" d="M 188.852168 174.397106 
L 188.257154 174.22084 
L 188.800864 177.140785 
z
" style="stroke:#000000;"/>
    <path clip-path="url(#pc8b0bcb856)" d="M 188.257154 180.063716 
L 188.852168 179.884183 
L 188.800864 177.140785 
z
" style="stroke:#000000;"/>
    <path clip-path="url(#pc8b0bcb856)" d="M 188.690682 168.510449 
L 186.494331 171.334646 
L 188.420544 171.33248 
z
" style="stroke:#000000;"/>
    <path clip-path="url(#pc8b0bcb856)" d="M 186.330524 174.221479 
L 188.420544 171.33248 
L 186.494331 171.334646 
z
" style="stroke:#000000;"/>
    <path clip-path="url(#pc8b0bcb856)" d="M 186.475804 159.616478 
L 185.474022 156.44433 
L 186.975497 159.280274 
z
" style="stroke:#000000;"/>
    <path clip-path="url(#pc8b0bcb856)" d="M 186.975497 159.280274 
L 185.474022 164.835972 
L 186.475804 159.616478 
z
" style="stroke:#000000;"/>
    <path clip-path="url(#pc8b0bcb856)" d="M 186.494331 182.947199 
L 188.257154 180.063716 
L 186.330524 180.061263 
z
" style="stroke:#000000;"/>
    <path clip-path="url(#pc8b0bcb856)" d="M 186.975497 159.280274 
L 187.402833 156.434265 
L 188.900484 159.271734 
z
" style="stroke:#000000;"/>
    <path clip-path="url(#pc8b0bcb856)" d="M 187.402833 167.629054 
L 186.975497 159.280274 
L 188.900484 159.271734 
z
" style="stroke:#000000;"/>
    <path clip-path="url(#pc8b0bcb856)" d="M 188.852168 179.884183 
L 188.257154 180.063716 
L 188.420544 182.951179 
z
" style="stroke:#000000;"/>
    <path clip-path="url(#pc8b0bcb856)" d="M 188.257154 174.22084 
L 188.852168 174.397106 
L 188.420544 171.33248 
z
" style="stroke:#000000;"/>
    <path clip-path="url(#pc8b0bcb856)" d="M 188.257154 180.063716 
L 186.494331 182.947199 
L 188.420544 182.951179 
z
" style="stroke:#000000;"/>
    <path clip-path="url(#pc8b0bcb856)" d="M 186.275704 177.141521 
L 188.257154 174.22084 
L 186.330524 174.221479 
z
" style="stroke:#000000;"/>
    <path clip-path="url(#pc8b0bcb856)" d="M 186.330524 180.061263 
L 188.202474 177.142428 
L 186.275704 177.141521 
z
" style="stroke:#000000;"/>
    <path clip-path="url(#pc8b0bcb856)" d="M 188.420544 171.33248 
L 186.330524 174.221479 
L 188.257154 174.22084 
z
" style="stroke:#000000;"/>
    <path clip-path="url(#pc8b0bcb856)" d="M 188.800864 177.140785 
L 188.202474 177.142428 
L 188.257154 180.063716 
z
" style="stroke:#000000;"/>
    <path clip-path="url(#pc8b0bcb856)" d="M 188.202474 177.142428 
L 188.800864 177.140785 
L 188.257154 174.22084 
z
" style="stroke:#000000;"/>
    <path clip-path="url(#pc8b0bcb856)" d="M 188.202474 177.142428 
L 186.330524 180.061263 
L 188.257154 180.063716 
z
" style="stroke:#000000;"/>
    <path clip-path="url(#pc8b0bcb856)" d="M 188.257154 174.22084 
L 186.275704 177.141521 
L 188.202474 177.142428 
z
" style="stroke:#000000;"/>
    <path clip-path="url(#pc8b0bcb856)" d="M 188.402064 159.608109 
L 185.474022 157.842937 
L 186.475804 159.616478 
z
" style="stroke:#000000;"/>
    <path clip-path="url(#pc8b0bcb856)" d="M 185.474022 164.835972 
L 188.402064 159.608109 
L 186.475804 159.616478 
z
" style="stroke:#000000;"/>
    <path clip-path="url(#pc8b0bcb856)" d="M 187.402833 164.830357 
L 188.900484 159.271734 
L 188.402064 159.608109 
z
" style="stroke:#000000;"/>
    <path clip-path="url(#pc8b0bcb856)" d="M 187.402833 156.434265 
L 188.402064 159.608109 
L 188.900484 159.271734 
z
" style="stroke:#000000;"/>
    <path clip-path="url(#pc8b0bcb856)" d="M 185.474022 164.835972 
L 186.975497 159.280274 
L 185.474022 167.633186 
z
" style="stroke:#000000;"/>
    <path clip-path="url(#pc8b0bcb856)" d="M 187.402833 156.434265 
L 186.975497 159.280274 
L 185.474022 156.44433 
z
" style="stroke:#000000;"/>
    <path clip-path="url(#pc8b0bcb856)" d="M 186.975497 159.280274 
L 187.402833 167.629054 
L 185.474022 167.633186 
z
" style="stroke:#000000;"/>
    <path clip-path="url(#pc8b0bcb856)" d="M 185.474022 156.44433 
L 186.475804 159.616478 
L 185.474022 157.842937 
z
" style="stroke:#000000;"/>
    <path clip-path="url(#pc8b0bcb856)" d="M 188.900484 159.271734 
L 187.402833 164.830357 
L 187.402833 167.629054 
z
" style="stroke:#000000;"/>
    <path clip-path="url(#pc8b0bcb856)" d="M 185.474022 157.842937 
L 188.402064 159.608109 
L 187.402833 157.833614 
z
" style="stroke:#000000;"/>
    <path clip-path="url(#pc8b0bcb856)" d="M 188.402064 159.608109 
L 185.474022 164.835972 
L 187.402833 164.830357 
z
" style="stroke:#000000;"/>
    <path clip-path="url(#pc8b0bcb856)" d="M 188.402064 159.608109 
L 187.402833 156.434265 
L 187.402833 157.833614 
z
" style="stroke:#000000;"/>
    <path clip-path="url(#pc8b0bcb856)" d="M 185.474022 156.44433 
L 185.474022 157.842937 
L 184.469031 159.565832 
z
" style="stroke:#000000;"/>
    <path clip-path="url(#pc8b0bcb856)" d="M 187.402833 157.833614 
L 184.469031 159.565832 
L 185.474022 157.842937 
z
" style="stroke:#000000;"/>
    <path clip-path="url(#pc8b0bcb856)" d="M 184.469031 159.565832 
L 187.402833 164.830357 
L 185.474022 164.835972 
z
" style="stroke:#000000;"/>
    <path clip-path="url(#pc8b0bcb856)" d="M 185.474022 164.835972 
L 185.474022 167.633186 
L 183.965328 159.202627 
z
" style="stroke:#000000;"/>
    <path clip-path="url(#pc8b0bcb856)" d="M 187.402833 156.434265 
L 186.400399 159.557409 
L 187.402833 157.833614 
z
" style="stroke:#000000;"/>
    <path clip-path="url(#pc8b0bcb856)" d="M 185.474022 156.44433 
L 185.897977 159.194005 
L 187.402833 156.434265 
z
" style="stroke:#000000;"/>
    <path clip-path="url(#pc8b0bcb856)" d="M 185.897977 159.194005 
L 185.474022 167.633186 
L 187.402833 167.629054 
z
" style="stroke:#000000;"/>
    <path clip-path="url(#pc8b0bcb856)" d="M 187.402833 164.830357 
L 185.897977 159.194005 
L 187.402833 167.629054 
z
" style="stroke:#000000;"/>
    <path clip-path="url(#pc8b0bcb856)" d="M 185.474022 156.44433 
L 184.469031 159.565832 
L 183.965328 159.202627 
z
" style="stroke:#000000;"/>
    <path clip-path="url(#pc8b0bcb856)" d="M 185.474022 164.835972 
L 183.965328 159.202627 
L 184.469031 159.565832 
z
" style="stroke:#000000;"/>
    <path clip-path="url(#pc8b0bcb856)" d="M 184.469031 159.565832 
L 187.402833 157.833614 
L 186.400399 159.557409 
z
" style="stroke:#000000;"/>
    <path clip-path="url(#pc8b0bcb856)" d="M 187.402833 164.830357 
L 184.469031 159.565832 
L 186.400399 159.557409 
z
" style="stroke:#000000;"/>
    <path clip-path="url(#pc8b0bcb856)" d="M 184.615176 174.218178 
L 186.601143 177.146825 
L 184.670287 177.145913 
z
" style="stroke:#000000;"/>
    <path clip-path="url(#pc8b0bcb856)" d="M 184.670287 177.145913 
L 186.546172 180.076416 
L 184.615176 180.073949 
z
" style="stroke:#000000;"/>
    <path clip-path="url(#pc8b0bcb856)" d="M 184.670287 177.145913 
L 184.066133 177.147566 
L 184.615176 174.218178 
z
" style="stroke:#000000;"/>
    <path clip-path="url(#pc8b0bcb856)" d="M 184.066133 177.147566 
L 184.670287 177.145913 
L 184.615176 180.073949 
z
" style="stroke:#000000;"/>
    <path clip-path="url(#pc8b0bcb856)" d="M 184.450385 171.321294 
L 186.546172 174.217537 
L 184.615176 174.218178 
z
" style="stroke:#000000;"/>
    <path clip-path="url(#pc8b0bcb856)" d="M 186.546172 180.076416 
L 184.670287 177.145913 
L 186.601143 177.146825 
z
" style="stroke:#000000;"/>
    <path clip-path="url(#pc8b0bcb856)" d="M 186.601143 177.146825 
L 184.615176 174.218178 
L 186.546172 174.217537 
z
" style="stroke:#000000;"/>
    <path clip-path="url(#pc8b0bcb856)" d="M 184.615176 180.073949 
L 186.3818 182.975741 
L 184.450385 182.971735 
z
" style="stroke:#000000;"/>
    <path clip-path="url(#pc8b0bcb856)" d="M 184.615176 174.218178 
L 184.014226 174.392861 
L 184.450385 171.321294 
z
" style="stroke:#000000;"/>
    <path clip-path="url(#pc8b0bcb856)" d="M 184.014226 179.902555 
L 184.615176 180.073949 
L 184.450385 182.971735 
z
" style="stroke:#000000;"/>
    <path clip-path="url(#pc8b0bcb856)" d="M 185.897977 159.194005 
L 185.474022 156.44433 
L 183.965328 159.202627 
z
" style="stroke:#000000;"/>
    <path clip-path="url(#pc8b0bcb856)" d="M 185.474022 167.633186 
L 185.897977 159.194005 
L 183.965328 159.202627 
z
" style="stroke:#000000;"/>
    <path clip-path="url(#pc8b0bcb856)" d="M 186.3818 182.975741 
L 184.615176 180.073949 
L 186.546172 180.076416 
z
" style="stroke:#000000;"/>
    <path clip-path="url(#pc8b0bcb856)" d="M 185.897977 159.194005 
L 187.402833 164.830357 
L 186.400399 159.557409 
z
" style="stroke:#000000;"/>
    <path clip-path="url(#pc8b0bcb856)" d="M 186.400399 159.557409 
L 187.402833 156.434265 
L 185.897977 159.194005 
z
" style="stroke:#000000;"/>
    <path clip-path="url(#pc8b0bcb856)" d="M 186.546172 174.217537 
L 184.450385 171.321294 
L 186.3818 171.319114 
z
" style="stroke:#000000;"/>
    <path clip-path="url(#pc8b0bcb856)" d="M 184.17755 168.48554 
L 186.3818 171.319114 
L 184.450385 171.321294 
z
" style="stroke:#000000;"/>
    <path clip-path="url(#pc8b0bcb856)" d="M 184.615176 180.073949 
L 184.014226 179.902555 
L 184.066133 177.147566 
z
" style="stroke:#000000;"/>
    <path clip-path="url(#pc8b0bcb856)" d="M 184.014226 174.392861 
L 184.615176 174.218178 
L 184.066133 177.147566 
z
" style="stroke:#000000;"/>
    <path clip-path="url(#pc8b0bcb856)" d="M 184.450385 171.321294 
L 183.859032 171.667276 
L 184.17755 168.48554 
z
" style="stroke:#000000;"/>
    <path clip-path="url(#pc8b0bcb856)" d="M 183.859032 182.628988 
L 184.450385 182.971735 
L 184.17755 185.808982 
z
" style="stroke:#000000;"/>
    <path clip-path="url(#pc8b0bcb856)" d="M 184.450385 182.971735 
L 186.109659 185.814498 
L 184.17755 185.808982 
z
" style="stroke:#000000;"/>
    <path clip-path="url(#pc8b0bcb856)" d="M 186.109659 185.814498 
L 184.450385 182.971735 
L 186.3818 182.975741 
z
" style="stroke:#000000;"/>
    <path clip-path="url(#pc8b0bcb856)" d="M 186.601143 177.146825 
L 185.998526 177.14848 
L 186.546172 180.076416 
z
" style="stroke:#000000;"/>
    <path clip-path="url(#pc8b0bcb856)" d="M 185.998526 177.14848 
L 186.601143 177.146825 
L 186.546172 174.217537 
z
" style="stroke:#000000;"/>
    <path clip-path="url(#pc8b0bcb856)" d="M 183.859032 171.667276 
L 184.450385 171.321294 
L 184.014226 174.392861 
z
" style="stroke:#000000;"/>
    <path clip-path="url(#pc8b0bcb856)" d="M 184.450385 182.971735 
L 183.859032 182.628988 
L 184.014226 179.902555 
z
" style="stroke:#000000;"/>
    <path clip-path="url(#pc8b0bcb856)" d="M 186.3818 171.319114 
L 184.17755 168.48554 
L 186.109659 168.481852 
z
" style="stroke:#000000;"/>
    <path clip-path="url(#pc8b0bcb856)" d="M 186.546172 180.076416 
L 185.946751 179.904933 
L 186.3818 182.975741 
z
" style="stroke:#000000;"/>
    <path clip-path="url(#pc8b0bcb856)" d="M 185.946751 174.392311 
L 186.546172 174.217537 
L 186.3818 171.319114 
z
" style="stroke:#000000;"/>
    <path clip-path="url(#pc8b0bcb856)" d="M 183.799388 165.740655 
L 186.109659 168.481852 
L 184.17755 168.48554 
z
" style="stroke:#000000;"/>
    <path clip-path="url(#pc8b0bcb856)" d="M 184.014226 179.902555 
L 185.998526 177.14848 
L 184.066133 177.147566 
z
" style="stroke:#000000;"/>
    <path clip-path="url(#pc8b0bcb856)" d="M 184.066133 177.147566 
L 185.946751 174.392311 
L 184.014226 174.392861 
z
" style="stroke:#000000;"/>
    <path clip-path="url(#pc8b0bcb856)" d="M 186.546172 174.217537 
L 185.946751 174.392311 
L 185.998526 177.14848 
z
" style="stroke:#000000;"/>
    <path clip-path="url(#pc8b0bcb856)" d="M 185.946751 179.904933 
L 186.546172 180.076416 
L 185.998526 177.14848 
z
" style="stroke:#000000;"/>
    <path clip-path="url(#pc8b0bcb856)" d="M 183.602092 168.99936 
L 184.17755 168.48554 
L 183.859032 171.667276 
z
" style="stroke:#000000;"/>
    <path clip-path="url(#pc8b0bcb856)" d="M 184.17755 185.808982 
L 183.602092 185.298311 
L 183.859032 182.628988 
z
" style="stroke:#000000;"/>
    <path clip-path="url(#pc8b0bcb856)" d="M 184.17755 168.48554 
L 183.602092 168.99936 
L 183.799388 165.740655 
z
" style="stroke:#000000;"/>
    <path clip-path="url(#pc8b0bcb856)" d="M 183.602092 185.298311 
L 184.17755 185.808982 
L 183.799388 188.555936 
z
" style="stroke:#000000;"/>
    <path clip-path="url(#pc8b0bcb856)" d="M 183.859032 182.628988 
L 185.946751 179.904933 
L 184.014226 179.902555 
z
" style="stroke:#000000;"/>
    <path clip-path="url(#pc8b0bcb856)" d="M 185.732459 188.562915 
L 184.17755 185.808982 
L 186.109659 185.814498 
z
" style="stroke:#000000;"/>
    <path clip-path="url(#pc8b0bcb856)" d="M 186.3818 182.975741 
L 185.791951 182.632817 
L 186.109659 185.814498 
z
" style="stroke:#000000;"/>
    <path clip-path="url(#pc8b0bcb856)" d="M 185.791951 171.665278 
L 186.3818 171.319114 
L 186.109659 168.481852 
z
" style="stroke:#000000;"/>
    <path clip-path="url(#pc8b0bcb856)" d="M 185.946751 174.392311 
L 184.066133 177.147566 
L 185.998526 177.14848 
z
" style="stroke:#000000;"/>
    <path clip-path="url(#pc8b0bcb856)" d="M 184.17755 185.808982 
L 185.732459 188.562915 
L 183.799388 188.555936 
z
" style="stroke:#000000;"/>
    <path clip-path="url(#pc8b0bcb856)" d="M 185.998526 177.14848 
L 184.014226 179.902555 
L 185.946751 179.904933 
z
" style="stroke:#000000;"/>
    <path clip-path="url(#pc8b0bcb856)" d="M 184.014226 174.392861 
L 185.791951 171.665278 
L 183.859032 171.667276 
z
" style="stroke:#000000;"/>
    <path clip-path="url(#pc8b0bcb856)" d="M 185.791951 182.632817 
L 186.3818 182.975741 
L 185.946751 179.904933 
z
" style="stroke:#000000;"/>
    <path clip-path="url(#pc8b0bcb856)" d="M 186.3818 171.319114 
L 185.791951 171.665278 
L 185.946751 174.392311 
z
" style="stroke:#000000;"/>
    <path clip-path="url(#pc8b0bcb856)" d="M 185.791951 171.665278 
L 184.014226 174.392861 
L 185.946751 174.392311 
z
" style="stroke:#000000;"/>
    <path clip-path="url(#pc8b0bcb856)" d="M 186.109659 168.481852 
L 183.799388 165.740655 
L 185.732459 165.735506 
z
" style="stroke:#000000;"/>
    <path clip-path="url(#pc8b0bcb856)" d="M 185.946751 179.904933 
L 183.859032 182.628988 
L 185.791951 182.632817 
z
" style="stroke:#000000;"/>
    <path clip-path="url(#pc8b0bcb856)" d="M 183.602092 185.298311 
L 185.791951 182.632817 
L 183.859032 182.628988 
z
" style="stroke:#000000;"/>
    <path clip-path="url(#pc8b0bcb856)" d="M 183.859032 171.667276 
L 185.535665 168.995942 
L 183.602092 168.99936 
z
" style="stroke:#000000;"/>
    <path clip-path="url(#pc8b0bcb856)" d="M 185.535665 168.995942 
L 183.859032 171.667276 
L 185.791951 171.665278 
z
" style="stroke:#000000;"/>
    <path clip-path="url(#pc8b0bcb856)" d="M 183.24598 166.41718 
L 183.799388 165.740655 
L 183.602092 168.99936 
z
" style="stroke:#000000;"/>
    <path clip-path="url(#pc8b0bcb856)" d="M 183.799388 188.555936 
L 183.24598 187.882439 
L 183.602092 185.298311 
z
" style="stroke:#000000;"/>
    <path clip-path="url(#pc8b0bcb856)" d="M 185.535665 185.30356 
L 186.109659 185.814498 
L 185.791951 182.632817 
z
" style="stroke:#000000;"/>
    <path clip-path="url(#pc8b0bcb856)" d="M 186.109659 168.481852 
L 185.535665 168.995942 
L 185.791951 171.665278 
z
" style="stroke:#000000;"/>
    <path clip-path="url(#pc8b0bcb856)" d="M 183.319662 163.115518 
L 185.732459 165.735506 
L 183.799388 165.740655 
z
" style="stroke:#000000;"/>
    <path clip-path="url(#pc8b0bcb856)" d="M 186.109659 185.814498 
L 185.535665 185.30356 
L 185.732459 188.562915 
z
" style="stroke:#000000;"/>
    <path clip-path="url(#pc8b0bcb856)" d="M 185.535665 168.995942 
L 186.109659 168.481852 
L 185.732459 165.735506 
z
" style="stroke:#000000;"/>
    <path clip-path="url(#pc8b0bcb856)" d="M 185.791951 182.632817 
L 183.602092 185.298311 
L 185.535665 185.30356 
z
" style="stroke:#000000;"/>
    <path clip-path="url(#pc8b0bcb856)" d="M 183.799388 165.740655 
L 183.24598 166.41718 
L 183.319662 163.115518 
z
" style="stroke:#000000;"/>
    <path clip-path="url(#pc8b0bcb856)" d="M 183.24598 187.882439 
L 183.799388 188.555936 
L 183.319662 191.183698 
z
" style="stroke:#000000;"/>
    <path clip-path="url(#pc8b0bcb856)" d="M 185.253953 191.19208 
L 183.799388 188.555936 
L 185.732459 188.562915 
z
" style="stroke:#000000;"/>
    <path clip-path="url(#pc8b0bcb856)" d="M 183.24598 187.882439 
L 185.535665 185.30356 
L 183.602092 185.298311 
z
" style="stroke:#000000;"/>
    <path clip-path="url(#pc8b0bcb856)" d="M 183.799388 188.555936 
L 185.253953 191.19208 
L 183.319662 191.183698 
z
" style="stroke:#000000;"/>
    <path clip-path="url(#pc8b0bcb856)" d="M 185.180457 166.412386 
L 183.602092 168.99936 
L 185.535665 168.995942 
z
" style="stroke:#000000;"/>
    <path clip-path="url(#pc8b0bcb856)" d="M 185.732459 165.735506 
L 183.319662 163.115518 
L 185.253953 163.108968 
z
" style="stroke:#000000;"/>
    <path clip-path="url(#pc8b0bcb856)" d="M 183.602092 168.99936 
L 185.180457 166.412386 
L 183.24598 166.41718 
z
" style="stroke:#000000;"/>
    <path clip-path="url(#pc8b0bcb856)" d="M 185.180457 187.889066 
L 185.732459 188.562915 
L 185.535665 185.30356 
z
" style="stroke:#000000;"/>
    <path clip-path="url(#pc8b0bcb856)" d="M 185.732459 165.735506 
L 185.180457 166.412386 
L 185.535665 168.995942 
z
" style="stroke:#000000;"/>
    <path clip-path="url(#pc8b0bcb856)" d="M 185.535665 185.30356 
L 183.24598 187.882439 
L 185.180457 187.889066 
z
" style="stroke:#000000;"/>
    <path clip-path="url(#pc8b0bcb856)" d="M 185.732459 188.562915 
L 185.180457 187.889066 
L 185.253953 191.19208 
z
" style="stroke:#000000;"/>
    <path clip-path="url(#pc8b0bcb856)" d="M 185.180457 166.412386 
L 185.732459 165.735506 
L 185.253953 163.108968 
z
" style="stroke:#000000;"/>
    <path clip-path="url(#pc8b0bcb856)" d="M 182.794268 163.947993 
L 183.319662 163.115518 
L 183.24598 166.41718 
z
" style="stroke:#000000;"/>
    <path clip-path="url(#pc8b0bcb856)" d="M 183.319662 191.183698 
L 182.794268 190.354098 
L 183.24598 187.882439 
z
" style="stroke:#000000;"/>
    <path clip-path="url(#pc8b0bcb856)" d="M 182.743187 160.638053 
L 185.253953 163.108968 
L 183.319662 163.115518 
z
" style="stroke:#000000;"/>
    <path clip-path="url(#pc8b0bcb856)" d="M 182.794268 190.354098 
L 185.180457 187.889066 
L 183.24598 187.882439 
z
" style="stroke:#000000;"/>
    <path clip-path="url(#pc8b0bcb856)" d="M 183.319662 163.115518 
L 182.794268 163.947993 
L 182.743187 160.638053 
z
" style="stroke:#000000;"/>
    <path clip-path="url(#pc8b0bcb856)" d="M 182.794268 190.354098 
L 183.319662 191.183698 
L 182.743187 193.664318 
z
" style="stroke:#000000;"/>
    <path clip-path="url(#pc8b0bcb856)" d="M 184.678943 193.674029 
L 183.319662 191.183698 
L 185.253953 191.19208 
z
" style="stroke:#000000;"/>
    <path clip-path="url(#pc8b0bcb856)" d="M 184.729893 163.941881 
L 183.24598 166.41718 
L 185.180457 166.412386 
z
" style="stroke:#000000;"/>
    <path clip-path="url(#pc8b0bcb856)" d="M 183.24598 166.41718 
L 184.729893 163.941881 
L 182.794268 163.947993 
z
" style="stroke:#000000;"/>
    <path clip-path="url(#pc8b0bcb856)" d="M 183.319662 191.183698 
L 184.678943 193.674029 
L 182.743187 193.664318 
z
" style="stroke:#000000;"/>
    <path clip-path="url(#pc8b0bcb856)" d="M 184.729893 190.362046 
L 185.253953 191.19208 
L 185.180457 187.889066 
z
" style="stroke:#000000;"/>
    <path clip-path="url(#pc8b0bcb856)" d="M 185.253953 163.108968 
L 184.729893 163.941881 
L 185.180457 166.412386 
z
" style="stroke:#000000;"/>
    <path clip-path="url(#pc8b0bcb856)" d="M 185.180457 187.889066 
L 182.794268 190.354098 
L 184.729893 190.362046 
z
" style="stroke:#000000;"/>
    <path clip-path="url(#pc8b0bcb856)" d="M 185.253953 163.108968 
L 182.743187 160.638053 
L 184.678943 160.630178 
z
" style="stroke:#000000;"/>
    <path clip-path="url(#pc8b0bcb856)" d="M 185.253953 191.19208 
L 184.729893 190.362046 
L 184.678943 193.674029 
z
" style="stroke:#000000;"/>
    <path clip-path="url(#pc8b0bcb856)" d="M 184.729893 163.941881 
L 185.253953 163.108968 
L 184.678943 160.630178 
z
" style="stroke:#000000;"/>
    <path clip-path="url(#pc8b0bcb856)" d="M 182.743187 160.638053 
L 182.794268 163.947993 
L 182.251505 161.61799 
z
" style="stroke:#000000;"/>
    <path clip-path="url(#pc8b0bcb856)" d="M 182.794268 190.354098 
L 182.743187 193.664318 
L 182.251505 192.68707 
z
" style="stroke:#000000;"/>
    <path clip-path="url(#pc8b0bcb856)" d="M 182.251505 192.68707 
L 184.729893 190.362046 
L 182.794268 190.354098 
z
" style="stroke:#000000;"/>
    <path clip-path="url(#pc8b0bcb856)" d="M 182.075767 158.334589 
L 184.678943 160.630178 
L 182.743187 160.638053 
z
" style="stroke:#000000;"/>
    <path clip-path="url(#pc8b0bcb856)" d="M 184.188509 161.610632 
L 182.794268 163.947993 
L 184.729893 163.941881 
z
" style="stroke:#000000;"/>
    <path clip-path="url(#pc8b0bcb856)" d="M 182.743187 160.638053 
L 182.251505 161.61799 
L 182.075767 158.334589 
z
" style="stroke:#000000;"/>
    <path clip-path="url(#pc8b0bcb856)" d="M 182.251505 192.68707 
L 182.743187 193.664318 
L 182.075767 195.971433 
z
" style="stroke:#000000;"/>
    <path clip-path="url(#pc8b0bcb856)" d="M 182.794268 163.947993 
L 184.188509 161.610632 
L 182.251505 161.61799 
z
" style="stroke:#000000;"/>
    <path clip-path="url(#pc8b0bcb856)" d="M 184.013217 195.982384 
L 182.743187 193.664318 
L 184.678943 193.674029 
z
" style="stroke:#000000;"/>
    <path clip-path="url(#pc8b0bcb856)" d="M 184.678943 193.674029 
L 184.729893 190.362046 
L 184.188509 192.696268 
z
" style="stroke:#000000;"/>
    <path clip-path="url(#pc8b0bcb856)" d="M 184.729893 163.941881 
L 184.678943 160.630178 
L 184.188509 161.610632 
z
" style="stroke:#000000;"/>
    <path clip-path="url(#pc8b0bcb856)" d="M 184.729893 190.362046 
L 182.251505 192.68707 
L 184.188509 192.696268 
z
" style="stroke:#000000;"/>
    <path clip-path="url(#pc8b0bcb856)" d="M 182.743187 193.664318 
L 184.013217 195.982384 
L 182.075767 195.971433 
z
" style="stroke:#000000;"/>
    <path clip-path="url(#pc8b0bcb856)" d="M 184.678943 160.630178 
L 182.075767 158.334589 
L 184.013217 158.325478 
z
" style="stroke:#000000;"/>
    <path clip-path="url(#pc8b0bcb856)" d="M 184.678943 193.674029 
L 184.188509 192.696268 
L 184.013217 195.982384 
z
" style="stroke:#000000;"/>
    <path clip-path="url(#pc8b0bcb856)" d="M 184.188509 161.610632 
L 184.678943 160.630178 
L 184.013217 158.325478 
z
" style="stroke:#000000;"/>
    <path clip-path="url(#pc8b0bcb856)" d="M 182.075767 158.334589 
L 182.251505 161.61799 
L 181.623186 159.452245 
z
" style="stroke:#000000;"/>
    <path clip-path="url(#pc8b0bcb856)" d="M 182.251505 192.68707 
L 182.075767 195.971433 
L 181.623186 194.856253 
z
" style="stroke:#000000;"/>
    <path clip-path="url(#pc8b0bcb856)" d="M 181.623186 194.856253 
L 184.188509 192.696268 
L 182.251505 192.68707 
z
" style="stroke:#000000;"/>
    <path clip-path="url(#pc8b0bcb856)" d="M 181.700186 157.282995 
L 184.013217 158.325478 
L 182.075767 158.334589 
z
" style="stroke:#000000;"/>
    <path clip-path="url(#pc8b0bcb856)" d="M 183.561786 159.443724 
L 182.251505 161.61799 
L 184.188509 161.610632 
z
" style="stroke:#000000;"/>
    <path clip-path="url(#pc8b0bcb856)" d="M 182.075767 158.334589 
L 181.43465 157.65035 
L 181.700186 157.282995 
z
" style="stroke:#000000;"/>
    <path clip-path="url(#pc8b0bcb856)" d="M 181.43465 196.65918 
L 182.075767 195.971433 
L 181.700186 197.025082 
z
" style="stroke:#000000;"/>
    <path clip-path="url(#pc8b0bcb856)" d="M 183.638591 197.036602 
L 182.075767 195.971433 
L 184.013217 195.982384 
z
" style="stroke:#000000;"/>
    <path clip-path="url(#pc8b0bcb856)" d="M 182.251505 161.61799 
L 183.561786 159.443724 
L 181.623186 159.452245 
z
" style="stroke:#000000;"/>
    <path clip-path="url(#pc8b0bcb856)" d="M 182.075767 195.971433 
L 183.638591 197.036602 
L 181.700186 197.025082 
z
" style="stroke:#000000;"/>
    <path clip-path="url(#pc8b0bcb856)" d="M 181.43465 157.65035 
L 182.075767 158.334589 
L 181.623186 159.452245 
z
" style="stroke:#000000;"/>
    <path clip-path="url(#pc8b0bcb856)" d="M 182.075767 195.971433 
L 181.43465 196.65918 
L 181.623186 194.856253 
z
" style="stroke:#000000;"/>
    <path clip-path="url(#pc8b0bcb856)" d="M 184.013217 195.982384 
L 184.188509 192.696268 
L 183.561786 194.866617 
z
" style="stroke:#000000;"/>
    <path clip-path="url(#pc8b0bcb856)" d="M 184.188509 161.610632 
L 184.013217 158.325478 
L 183.561786 159.443724 
z
" style="stroke:#000000;"/>
    <path clip-path="url(#pc8b0bcb856)" d="M 184.188509 192.696268 
L 181.623186 194.856253 
L 183.561786 194.866617 
z
" style="stroke:#000000;"/>
    <path clip-path="url(#pc8b0bcb856)" d="M 184.013217 158.325478 
L 181.700186 157.282995 
L 183.638591 157.273318 
z
" style="stroke:#000000;"/>
    <path clip-path="url(#pc8b0bcb856)" d="M 183.638591 197.036602 
L 181.43465 196.65918 
L 181.700186 197.025082 
z
" style="stroke:#000000;"/>
    <path clip-path="url(#pc8b0bcb856)" d="M 183.373728 157.640865 
L 181.700186 157.282995 
L 181.43465 157.65035 
z
" style="stroke:#000000;"/>
    <path clip-path="url(#pc8b0bcb856)" d="M 181.43465 157.65035 
L 181.623186 159.452245 
L 181.155519 158.144612 
z
" style="stroke:#000000;"/>
    <path clip-path="url(#pc8b0bcb856)" d="M 181.623186 194.856253 
L 181.43465 196.65918 
L 181.155519 196.166445 
z
" style="stroke:#000000;"/>
    <path clip-path="url(#pc8b0bcb856)" d="M 184.013217 195.982384 
L 183.373728 196.670509 
L 183.638591 197.036602 
z
" style="stroke:#000000;"/>
    <path clip-path="url(#pc8b0bcb856)" d="M 183.373728 157.640865 
L 184.013217 158.325478 
L 183.638591 157.273318 
z
" style="stroke:#000000;"/>
    <path clip-path="url(#pc8b0bcb856)" d="M 181.700186 157.282995 
L 183.373728 157.640865 
L 183.638591 157.273318 
z
" style="stroke:#000000;"/>
    <path clip-path="url(#pc8b0bcb856)" d="M 183.373728 196.670509 
L 184.013217 195.982384 
L 183.561786 194.866617 
z
" style="stroke:#000000;"/>
    <path clip-path="url(#pc8b0bcb856)" d="M 184.013217 158.325478 
L 183.373728 157.640865 
L 183.561786 159.443724 
z
" style="stroke:#000000;"/>
    <path clip-path="url(#pc8b0bcb856)" d="M 183.561786 159.443724 
L 181.155519 158.144612 
L 181.623186 159.452245 
z
" style="stroke:#000000;"/>
    <path clip-path="url(#pc8b0bcb856)" d="M 181.43465 196.65918 
L 183.638591 197.036602 
L 183.373728 196.670509 
z
" style="stroke:#000000;"/>
    <path clip-path="url(#pc8b0bcb856)" d="M 181.623186 194.856253 
L 183.095307 196.177516 
L 183.561786 194.866617 
z
" style="stroke:#000000;"/>
    <path clip-path="url(#pc8b0bcb856)" d="M 183.373728 196.670509 
L 181.155519 196.166445 
L 181.43465 196.65918 
z
" style="stroke:#000000;"/>
    <path clip-path="url(#pc8b0bcb856)" d="M 183.095307 196.177516 
L 181.623186 194.856253 
L 181.155519 196.166445 
z
" style="stroke:#000000;"/>
    <path clip-path="url(#pc8b0bcb856)" d="M 183.095307 158.135386 
L 181.43465 157.65035 
L 181.155519 158.144612 
z
" style="stroke:#000000;"/>
    <path clip-path="url(#pc8b0bcb856)" d="M 181.43465 157.65035 
L 183.095307 158.135386 
L 183.373728 157.640865 
z
" style="stroke:#000000;"/>
    <path clip-path="url(#pc8b0bcb856)" d="M 181.155519 158.144612 
L 183.561786 159.443724 
L 183.095307 158.135386 
z
" style="stroke:#000000;"/>
    <path clip-path="url(#pc8b0bcb856)" d="M 183.373728 196.670509 
L 183.561786 194.866617 
L 183.095307 196.177516 
z
" style="stroke:#000000;"/>
    <path clip-path="url(#pc8b0bcb856)" d="M 183.561786 159.443724 
L 183.373728 157.640865 
L 183.095307 158.135386 
z
" style="stroke:#000000;"/>
    <path clip-path="url(#pc8b0bcb856)" d="M 181.155519 196.166445 
L 183.373728 196.670509 
L 183.095307 196.177516 
z
" style="stroke:#000000;"/>
   </g>
  </g>
 </g>
 <defs>
  <clipPath id="pc8b0bcb856">
   <rect height="271.8" width="279" x="45" y="43.2"/>
  </clipPath>
 </defs>
</svg>
