<?xml version="1.0" encoding="utf-8" standalone="no"?>
<!DOCTYPE svg PUBLIC "-//W3C//DTD SVG 1.1//EN"
  "http://www.w3.org/Graphics/SVG/1.1/DTD/svg11.dtd">
<!-- Created with matplotlib (https://matplotlib.org/) -->
<svg height="360pt" version="1.1" viewBox="0 0 360 360" width="360pt" xmlns="http://www.w3.org/2000/svg" xmlns:xlink="http://www.w3.org/1999/xlink">
 <defs>
  <style type="text/css">
*{stroke-linecap:butt;stroke-linejoin:round;}
  </style>
 </defs>
 <g id="figure_1">
  <g id="patch_1">
   <path d="M 45 315 
L 324 315 
L 324 43.2 
L 45 43.2 
z
" style="fill:#ffffff;"/>
  </g>
  <g id="axes_1">
   <g id="Poly3DCollection_1">
    <path clip-path="url(#p3e889535ab)" d="M 190.882414 159.400304 
L 191.12571 157.605555 
L 191.485396 158.115221 
z
" style="stroke:#000000;"/>
    <path clip-path="url(#p3e889535ab)" d="M 191.12571 196.660329 
L 190.882414 194.866536 
L 191.485396 196.149248 
z
" style="stroke:#000000;"/>
    <path clip-path="url(#p3e889535ab)" d="M 193.310399 196.163708 
L 191.12571 196.660329 
L 191.485396 196.149248 
z
" style="stroke:#000000;"/>
    <path clip-path="url(#p3e889535ab)" d="M 193.310399 158.103141 
L 190.882414 159.400304 
L 191.485396 158.115221 
z
" style="stroke:#000000;"/>
    <path clip-path="url(#p3e889535ab)" d="M 192.951219 157.593114 
L 191.485396 158.115221 
L 191.12571 157.605555 
z
" style="stroke:#000000;"/>
    <path clip-path="url(#p3e889535ab)" d="M 191.485396 158.115221 
L 192.951219 157.593114 
L 193.310399 158.103141 
z
" style="stroke:#000000;"/>
    <path clip-path="url(#p3e889535ab)" d="M 192.708265 194.88011 
L 191.485396 196.149248 
L 190.882414 194.866536 
z
" style="stroke:#000000;"/>
    <path clip-path="url(#p3e889535ab)" d="M 191.485396 196.149248 
L 192.708265 194.88011 
L 193.310399 196.163708 
z
" style="stroke:#000000;"/>
    <path clip-path="url(#p3e889535ab)" d="M 191.12571 196.660329 
L 193.310399 196.163708 
L 192.951219 196.675151 
z
" style="stroke:#000000;"/>
    <path clip-path="url(#p3e889535ab)" d="M 192.951219 196.675151 
L 190.782969 197.044292 
L 191.12571 196.660329 
z
" style="stroke:#000000;"/>
    <path clip-path="url(#p3e889535ab)" d="M 190.297232 158.256833 
L 191.12571 157.605555 
L 190.882414 159.400304 
z
" style="stroke:#000000;"/>
    <path clip-path="url(#p3e889535ab)" d="M 191.12571 196.660329 
L 190.297232 196.012307 
L 190.882414 194.866536 
z
" style="stroke:#000000;"/>
    <path clip-path="url(#p3e889535ab)" d="M 191.12571 157.605555 
L 190.297232 158.256833 
L 190.782969 157.222939 
z
" style="stroke:#000000;"/>
    <path clip-path="url(#p3e889535ab)" d="M 190.297232 196.012307 
L 191.12571 196.660329 
L 190.782969 197.044292 
z
" style="stroke:#000000;"/>
    <path clip-path="url(#p3e889535ab)" d="M 192.60896 157.210226 
L 191.12571 157.605555 
L 190.782969 157.222939 
z
" style="stroke:#000000;"/>
    <path clip-path="url(#p3e889535ab)" d="M 190.882414 159.400304 
L 193.310399 158.103141 
L 192.708265 159.389112 
z
" style="stroke:#000000;"/>
    <path clip-path="url(#p3e889535ab)" d="M 191.12571 157.605555 
L 192.60896 157.210226 
L 192.951219 157.593114 
z
" style="stroke:#000000;"/>
    <path clip-path="url(#p3e889535ab)" d="M 192.708265 194.88011 
L 192.951219 196.675151 
L 193.310399 196.163708 
z
" style="stroke:#000000;"/>
    <path clip-path="url(#p3e889535ab)" d="M 192.951219 157.593114 
L 192.708265 159.389112 
L 193.310399 158.103141 
z
" style="stroke:#000000;"/>
    <path clip-path="url(#p3e889535ab)" d="M 190.782969 197.044292 
L 192.951219 196.675151 
L 192.60896 197.059389 
z
" style="stroke:#000000;"/>
    <path clip-path="url(#p3e889535ab)" d="M 190.297232 158.256833 
L 192.60896 157.210226 
L 190.782969 157.222939 
z
" style="stroke:#000000;"/>
    <path clip-path="url(#p3e889535ab)" d="M 190.297232 158.256833 
L 190.882414 159.400304 
L 190.069564 161.543086 
z
" style="stroke:#000000;"/>
    <path clip-path="url(#p3e889535ab)" d="M 190.882414 194.866536 
L 190.297232 196.012307 
L 190.069564 192.726949 
z
" style="stroke:#000000;"/>
    <path clip-path="url(#p3e889535ab)" d="M 190.069564 192.726949 
L 192.708265 194.88011 
L 190.882414 194.866536 
z
" style="stroke:#000000;"/>
    <path clip-path="url(#p3e889535ab)" d="M 190.782969 197.044292 
L 192.123906 196.026691 
L 190.297232 196.012307 
z
" style="stroke:#000000;"/>
    <path clip-path="url(#p3e889535ab)" d="M 192.123906 196.026691 
L 190.782969 197.044292 
L 192.60896 197.059389 
z
" style="stroke:#000000;"/>
    <path clip-path="url(#p3e889535ab)" d="M 191.896558 161.533382 
L 190.882414 159.400304 
L 192.708265 159.389112 
z
" style="stroke:#000000;"/>
    <path clip-path="url(#p3e889535ab)" d="M 192.123906 196.026691 
L 192.951219 196.675151 
L 192.708265 194.88011 
z
" style="stroke:#000000;"/>
    <path clip-path="url(#p3e889535ab)" d="M 192.951219 157.593114 
L 192.123906 158.244835 
L 192.708265 159.389112 
z
" style="stroke:#000000;"/>
    <path clip-path="url(#p3e889535ab)" d="M 190.882414 159.400304 
L 191.896558 161.533382 
L 190.069564 161.543086 
z
" style="stroke:#000000;"/>
    <path clip-path="url(#p3e889535ab)" d="M 192.951219 196.675151 
L 192.123906 196.026691 
L 192.60896 197.059389 
z
" style="stroke:#000000;"/>
    <path clip-path="url(#p3e889535ab)" d="M 192.123906 158.244835 
L 192.951219 157.593114 
L 192.60896 157.210226 
z
" style="stroke:#000000;"/>
    <path clip-path="url(#p3e889535ab)" d="M 192.60896 157.210226 
L 190.297232 158.256833 
L 192.123906 158.244835 
z
" style="stroke:#000000;"/>
    <path clip-path="url(#p3e889535ab)" d="M 192.708265 194.88011 
L 190.069564 192.726949 
L 191.896558 192.739041 
z
" style="stroke:#000000;"/>
    <path clip-path="url(#p3e889535ab)" d="M 190.297232 158.256833 
L 190.069564 161.543086 
L 189.431284 160.537017 
z
" style="stroke:#000000;"/>
    <path clip-path="url(#p3e889535ab)" d="M 190.069564 192.726949 
L 190.297232 196.012307 
L 189.431284 193.735527 
z
" style="stroke:#000000;"/>
    <path clip-path="url(#p3e889535ab)" d="M 192.123906 196.026691 
L 192.708265 194.88011 
L 191.896558 192.739041 
z
" style="stroke:#000000;"/>
    <path clip-path="url(#p3e889535ab)" d="M 192.708265 159.389112 
L 192.123906 158.244835 
L 191.896558 161.533382 
z
" style="stroke:#000000;"/>
    <path clip-path="url(#p3e889535ab)" d="M 189.431284 160.537017 
L 192.123906 158.244835 
L 190.297232 158.256833 
z
" style="stroke:#000000;"/>
    <path clip-path="url(#p3e889535ab)" d="M 189.364863 190.410405 
L 191.896558 192.739041 
L 190.069564 192.726949 
z
" style="stroke:#000000;"/>
    <path clip-path="url(#p3e889535ab)" d="M 189.431284 160.537017 
L 190.069564 161.543086 
L 189.364863 163.862401 
z
" style="stroke:#000000;"/>
    <path clip-path="url(#p3e889535ab)" d="M 190.069564 192.726949 
L 189.431284 193.735527 
L 189.364863 190.410405 
z
" style="stroke:#000000;"/>
    <path clip-path="url(#p3e889535ab)" d="M 191.259175 193.748333 
L 190.297232 196.012307 
L 192.123906 196.026691 
z
" style="stroke:#000000;"/>
    <path clip-path="url(#p3e889535ab)" d="M 190.297232 196.012307 
L 191.259175 193.748333 
L 189.431284 193.735527 
z
" style="stroke:#000000;"/>
    <path clip-path="url(#p3e889535ab)" d="M 191.192847 163.854312 
L 190.069564 161.543086 
L 191.896558 161.533382 
z
" style="stroke:#000000;"/>
    <path clip-path="url(#p3e889535ab)" d="M 190.069564 161.543086 
L 191.192847 163.854312 
L 189.364863 163.862401 
z
" style="stroke:#000000;"/>
    <path clip-path="url(#p3e889535ab)" d="M 192.123906 196.026691 
L 191.896558 192.739041 
L 191.259175 193.748333 
z
" style="stroke:#000000;"/>
    <path clip-path="url(#p3e889535ab)" d="M 191.896558 161.533382 
L 192.123906 158.244835 
L 191.259175 160.526602 
z
" style="stroke:#000000;"/>
    <path clip-path="url(#p3e889535ab)" d="M 192.123906 158.244835 
L 189.431284 160.537017 
L 191.259175 160.526602 
z
" style="stroke:#000000;"/>
    <path clip-path="url(#p3e889535ab)" d="M 191.896558 192.739041 
L 189.364863 190.410405 
L 191.192847 190.420886 
z
" style="stroke:#000000;"/>
    <path clip-path="url(#p3e889535ab)" d="M 189.431284 160.537017 
L 189.364863 163.862401 
L 188.680462 163.005356 
z
" style="stroke:#000000;"/>
    <path clip-path="url(#p3e889535ab)" d="M 189.364863 190.410405 
L 189.431284 193.735527 
L 188.680462 191.27014 
z
" style="stroke:#000000;"/>
    <path clip-path="url(#p3e889535ab)" d="M 191.259175 193.748333 
L 191.896558 192.739041 
L 191.192847 190.420886 
z
" style="stroke:#000000;"/>
    <path clip-path="url(#p3e889535ab)" d="M 191.896558 161.533382 
L 191.259175 160.526602 
L 191.192847 163.854312 
z
" style="stroke:#000000;"/>
    <path clip-path="url(#p3e889535ab)" d="M 188.680462 163.005356 
L 191.259175 160.526602 
L 189.431284 160.537017 
z
" style="stroke:#000000;"/>
    <path clip-path="url(#p3e889535ab)" d="M 188.776578 187.942908 
L 191.192847 190.420886 
L 189.364863 190.410405 
z
" style="stroke:#000000;"/>
    <path clip-path="url(#p3e889535ab)" d="M 188.680462 163.005356 
L 189.364863 163.862401 
L 188.776578 166.33221 
z
" style="stroke:#000000;"/>
    <path clip-path="url(#p3e889535ab)" d="M 189.364863 190.410405 
L 188.680462 191.27014 
L 188.776578 187.942908 
z
" style="stroke:#000000;"/>
    <path clip-path="url(#p3e889535ab)" d="M 190.509406 191.281231 
L 189.431284 193.735527 
L 191.259175 193.748333 
z
" style="stroke:#000000;"/>
    <path clip-path="url(#p3e889535ab)" d="M 189.364863 163.862401 
L 190.605387 166.325844 
L 188.776578 166.33221 
z
" style="stroke:#000000;"/>
    <path clip-path="url(#p3e889535ab)" d="M 190.605387 166.325844 
L 189.364863 163.862401 
L 191.192847 163.854312 
z
" style="stroke:#000000;"/>
    <path clip-path="url(#p3e889535ab)" d="M 189.431284 193.735527 
L 190.509406 191.281231 
L 188.680462 191.27014 
z
" style="stroke:#000000;"/>
    <path clip-path="url(#p3e889535ab)" d="M 191.192847 190.420886 
L 188.776578 187.942908 
L 190.605387 187.951669 
z
" style="stroke:#000000;"/>
    <path clip-path="url(#p3e889535ab)" d="M 191.259175 193.748333 
L 191.192847 190.420886 
L 190.509406 191.281231 
z
" style="stroke:#000000;"/>
    <path clip-path="url(#p3e889535ab)" d="M 191.192847 163.854312 
L 191.259175 160.526602 
L 190.509406 162.99666 
z
" style="stroke:#000000;"/>
    <path clip-path="url(#p3e889535ab)" d="M 191.259175 160.526602 
L 188.680462 163.005356 
L 190.509406 162.99666 
z
" style="stroke:#000000;"/>
    <path clip-path="url(#p3e889535ab)" d="M 188.776578 166.33221 
L 188.053609 165.634395 
L 188.680462 163.005356 
z
" style="stroke:#000000;"/>
    <path clip-path="url(#p3e889535ab)" d="M 188.053609 188.643566 
L 188.776578 187.942908 
L 188.680462 191.27014 
z
" style="stroke:#000000;"/>
    <path clip-path="url(#p3e889535ab)" d="M 188.311638 185.352194 
L 190.605387 187.951669 
L 188.776578 187.942908 
z
" style="stroke:#000000;"/>
    <path clip-path="url(#p3e889535ab)" d="M 188.053609 165.634395 
L 188.776578 166.33221 
L 188.311638 168.924752 
z
" style="stroke:#000000;"/>
    <path clip-path="url(#p3e889535ab)" d="M 188.776578 187.942908 
L 188.053609 188.643566 
L 188.311638 185.352194 
z
" style="stroke:#000000;"/>
    <path clip-path="url(#p3e889535ab)" d="M 190.509406 191.281231 
L 191.192847 190.420886 
L 190.605387 187.951669 
z
" style="stroke:#000000;"/>
    <path clip-path="url(#p3e889535ab)" d="M 191.192847 163.854312 
L 190.509406 162.99666 
L 190.605387 166.325844 
z
" style="stroke:#000000;"/>
    <path clip-path="url(#p3e889535ab)" d="M 188.053609 165.634395 
L 190.509406 162.99666 
L 188.680462 163.005356 
z
" style="stroke:#000000;"/>
    <path clip-path="url(#p3e889535ab)" d="M 188.776578 166.33221 
L 190.1411 168.920198 
L 188.311638 168.924752 
z
" style="stroke:#000000;"/>
    <path clip-path="url(#p3e889535ab)" d="M 190.1411 168.920198 
L 188.776578 166.33221 
L 190.605387 166.325844 
z
" style="stroke:#000000;"/>
    <path clip-path="url(#p3e889535ab)" d="M 189.883432 188.652825 
L 188.680462 191.27014 
L 190.509406 191.281231 
z
" style="stroke:#000000;"/>
    <path clip-path="url(#p3e889535ab)" d="M 190.605387 187.951669 
L 188.311638 185.352194 
L 190.1411 185.359145 
z
" style="stroke:#000000;"/>
    <path clip-path="url(#p3e889535ab)" d="M 188.680462 191.27014 
L 189.883432 188.652825 
L 188.053609 188.643566 
z
" style="stroke:#000000;"/>
    <path clip-path="url(#p3e889535ab)" d="M 187.975543 182.667587 
L 190.1411 185.359145 
L 188.311638 185.352194 
z
" style="stroke:#000000;"/>
    <path clip-path="url(#p3e889535ab)" d="M 188.311638 168.924752 
L 187.558156 168.394398 
L 188.053609 165.634395 
z
" style="stroke:#000000;"/>
    <path clip-path="url(#p3e889535ab)" d="M 187.558156 185.885511 
L 188.311638 185.352194 
L 188.053609 188.643566 
z
" style="stroke:#000000;"/>
    <path clip-path="url(#p3e889535ab)" d="M 187.558156 168.394398 
L 188.311638 168.924752 
L 187.975543 171.610681 
z
" style="stroke:#000000;"/>
    <path clip-path="url(#p3e889535ab)" d="M 188.311638 185.352194 
L 187.558156 185.885511 
L 187.975543 182.667587 
z
" style="stroke:#000000;"/>
    <path clip-path="url(#p3e889535ab)" d="M 190.605387 187.951669 
L 189.883432 188.652825 
L 190.509406 191.281231 
z
" style="stroke:#000000;"/>
    <path clip-path="url(#p3e889535ab)" d="M 189.883432 165.627534 
L 190.605387 166.325844 
L 190.509406 162.99666 
z
" style="stroke:#000000;"/>
    <path clip-path="url(#p3e889535ab)" d="M 188.311638 168.924752 
L 189.805476 171.608007 
L 187.975543 171.610681 
z
" style="stroke:#000000;"/>
    <path clip-path="url(#p3e889535ab)" d="M 190.509406 162.99666 
L 188.053609 165.634395 
L 189.883432 165.627534 
z
" style="stroke:#000000;"/>
    <path clip-path="url(#p3e889535ab)" d="M 189.805476 171.608007 
L 188.311638 168.924752 
L 190.1411 168.920198 
z
" style="stroke:#000000;"/>
    <path clip-path="url(#p3e889535ab)" d="M 189.883432 188.652825 
L 190.605387 187.951669 
L 190.1411 185.359145 
z
" style="stroke:#000000;"/>
    <path clip-path="url(#p3e889535ab)" d="M 190.605387 166.325844 
L 189.883432 165.627534 
L 190.1411 168.920198 
z
" style="stroke:#000000;"/>
    <path clip-path="url(#p3e889535ab)" d="M 187.772279 179.919639 
L 189.805476 182.67266 
L 187.975543 182.667587 
z
" style="stroke:#000000;"/>
    <path clip-path="url(#p3e889535ab)" d="M 187.558156 168.394398 
L 189.883432 165.627534 
L 188.053609 165.634395 
z
" style="stroke:#000000;"/>
    <path clip-path="url(#p3e889535ab)" d="M 190.1411 185.359145 
L 187.975543 182.667587 
L 189.805476 182.67266 
z
" style="stroke:#000000;"/>
    <path clip-path="url(#p3e889535ab)" d="M 187.199978 171.254085 
L 187.975543 171.610681 
L 187.772279 174.359428 
z
" style="stroke:#000000;"/>
    <path clip-path="url(#p3e889535ab)" d="M 187.975543 182.667587 
L 187.199978 183.027232 
L 187.772279 179.919639 
z
" style="stroke:#000000;"/>
    <path clip-path="url(#p3e889535ab)" d="M 187.975543 171.610681 
L 189.602496 174.35868 
L 187.772279 174.359428 
z
" style="stroke:#000000;"/>
    <path clip-path="url(#p3e889535ab)" d="M 187.975543 171.610681 
L 187.199978 171.254085 
L 187.558156 168.394398 
z
" style="stroke:#000000;"/>
    <path clip-path="url(#p3e889535ab)" d="M 187.199978 183.027232 
L 187.975543 182.667587 
L 187.558156 185.885511 
z
" style="stroke:#000000;"/>
    <path clip-path="url(#p3e889535ab)" d="M 187.704251 177.139667 
L 189.602496 179.922787 
L 187.772279 179.919639 
z
" style="stroke:#000000;"/>
    <path clip-path="url(#p3e889535ab)" d="M 187.772279 174.359428 
L 189.534564 177.140867 
L 187.704251 177.139667 
z
" style="stroke:#000000;"/>
    <path clip-path="url(#p3e889535ab)" d="M 188.053609 188.643566 
L 189.388674 185.892842 
L 187.558156 185.885511 
z
" style="stroke:#000000;"/>
    <path clip-path="url(#p3e889535ab)" d="M 189.602496 174.35868 
L 187.975543 171.610681 
L 189.805476 171.608007 
z
" style="stroke:#000000;"/>
    <path clip-path="url(#p3e889535ab)" d="M 187.772279 179.919639 
L 186.983346 180.101318 
L 187.704251 177.139667 
z
" style="stroke:#000000;"/>
    <path clip-path="url(#p3e889535ab)" d="M 186.983346 174.18085 
L 187.772279 174.359428 
L 187.704251 177.139667 
z
" style="stroke:#000000;"/>
    <path clip-path="url(#p3e889535ab)" d="M 189.388674 185.892842 
L 188.053609 188.643566 
L 189.883432 188.652825 
z
" style="stroke:#000000;"/>
    <path clip-path="url(#p3e889535ab)" d="M 189.805476 182.67266 
L 187.772279 179.919639 
L 189.602496 179.922787 
z
" style="stroke:#000000;"/>
    <path clip-path="url(#p3e889535ab)" d="M 190.1411 185.359145 
L 189.388674 185.892842 
L 189.883432 188.652825 
z
" style="stroke:#000000;"/>
    <path clip-path="url(#p3e889535ab)" d="M 189.388674 168.389468 
L 190.1411 168.920198 
L 189.883432 165.627534 
z
" style="stroke:#000000;"/>
    <path clip-path="url(#p3e889535ab)" d="M 189.534564 177.140867 
L 187.772279 174.359428 
L 189.602496 174.35868 
z
" style="stroke:#000000;"/>
    <path clip-path="url(#p3e889535ab)" d="M 189.388674 185.892842 
L 190.1411 185.359145 
L 189.805476 182.67266 
z
" style="stroke:#000000;"/>
    <path clip-path="url(#p3e889535ab)" d="M 190.1411 168.920198 
L 189.388674 168.389468 
L 189.805476 171.608007 
z
" style="stroke:#000000;"/>
    <path clip-path="url(#p3e889535ab)" d="M 189.602496 179.922787 
L 187.704251 177.139667 
L 189.534564 177.140867 
z
" style="stroke:#000000;"/>
    <path clip-path="url(#p3e889535ab)" d="M 187.772279 174.359428 
L 186.983346 174.18085 
L 187.199978 171.254085 
z
" style="stroke:#000000;"/>
    <path clip-path="url(#p3e889535ab)" d="M 186.983346 180.101318 
L 187.772279 179.919639 
L 187.199978 183.027232 
z
" style="stroke:#000000;"/>
    <path clip-path="url(#p3e889535ab)" d="M 189.883432 165.627534 
L 187.558156 168.394398 
L 189.388674 168.389468 
z
" style="stroke:#000000;"/>
    <path clip-path="url(#p3e889535ab)" d="M 187.199978 171.254085 
L 189.388674 168.389468 
L 187.558156 168.394398 
z
" style="stroke:#000000;"/>
    <path clip-path="url(#p3e889535ab)" d="M 187.704251 177.139667 
L 186.910849 177.141227 
L 186.983346 174.18085 
z
" style="stroke:#000000;"/>
    <path clip-path="url(#p3e889535ab)" d="M 186.910849 177.141227 
L 187.704251 177.139667 
L 186.983346 180.101318 
z
" style="stroke:#000000;"/>
    <path clip-path="url(#p3e889535ab)" d="M 187.558156 185.885511 
L 189.030998 183.032561 
L 187.199978 183.027232 
z
" style="stroke:#000000;"/>
    <path clip-path="url(#p3e889535ab)" d="M 189.030998 183.032561 
L 189.805476 182.67266 
L 189.602496 179.922787 
z
" style="stroke:#000000;"/>
    <path clip-path="url(#p3e889535ab)" d="M 189.805476 171.608007 
L 189.030998 171.251159 
L 189.602496 174.35868 
z
" style="stroke:#000000;"/>
    <path clip-path="url(#p3e889535ab)" d="M 189.030998 183.032561 
L 187.558156 185.885511 
L 189.388674 185.892842 
z
" style="stroke:#000000;"/>
    <path clip-path="url(#p3e889535ab)" d="M 189.805476 182.67266 
L 189.030998 183.032561 
L 189.388674 185.892842 
z
" style="stroke:#000000;"/>
    <path clip-path="url(#p3e889535ab)" d="M 189.030998 171.251159 
L 189.805476 171.608007 
L 189.388674 168.389468 
z
" style="stroke:#000000;"/>
    <path clip-path="url(#p3e889535ab)" d="M 187.175476 159.373884 
L 185.850728 156.159363 
L 187.836344 159.0324 
z
" style="stroke:#000000;"/>
    <path clip-path="url(#p3e889535ab)" d="M 187.836344 159.0324 
L 185.850728 164.666369 
L 187.175476 159.373884 
z
" style="stroke:#000000;"/>
    <path clip-path="url(#p3e889535ab)" d="M 186.983346 174.18085 
L 189.030998 171.251159 
L 187.199978 171.254085 
z
" style="stroke:#000000;"/>
    <path clip-path="url(#p3e889535ab)" d="M 189.388674 168.389468 
L 187.199978 171.254085 
L 189.030998 171.251159 
z
" style="stroke:#000000;"/>
    <path clip-path="url(#p3e889535ab)" d="M 189.602496 174.35868 
L 188.814669 174.179976 
L 189.534564 177.140867 
z
" style="stroke:#000000;"/>
    <path clip-path="url(#p3e889535ab)" d="M 188.814669 180.104597 
L 189.602496 179.922787 
L 189.534564 177.140867 
z
" style="stroke:#000000;"/>
    <path clip-path="url(#p3e889535ab)" d="M 187.199978 183.027232 
L 188.814669 180.104597 
L 186.983346 180.101318 
z
" style="stroke:#000000;"/>
    <path clip-path="url(#p3e889535ab)" d="M 187.836344 159.0324 
L 187.683636 156.14583 
L 189.666472 159.020912 
z
" style="stroke:#000000;"/>
    <path clip-path="url(#p3e889535ab)" d="M 187.683636 167.496471 
L 187.836344 159.0324 
L 189.666472 159.020912 
z
" style="stroke:#000000;"/>
    <path clip-path="url(#p3e889535ab)" d="M 186.910849 177.141227 
L 188.814669 174.179976 
L 186.983346 174.18085 
z
" style="stroke:#000000;"/>
    <path clip-path="url(#p3e889535ab)" d="M 186.983346 180.101318 
L 188.742273 177.142429 
L 186.910849 177.141227 
z
" style="stroke:#000000;"/>
    <path clip-path="url(#p3e889535ab)" d="M 188.814669 180.104597 
L 187.199978 183.027232 
L 189.030998 183.032561 
z
" style="stroke:#000000;"/>
    <path clip-path="url(#p3e889535ab)" d="M 189.602496 179.922787 
L 188.814669 180.104597 
L 189.030998 183.032561 
z
" style="stroke:#000000;"/>
    <path clip-path="url(#p3e889535ab)" d="M 188.814669 174.179976 
L 189.602496 174.35868 
L 189.030998 171.251159 
z
" style="stroke:#000000;"/>
    <path clip-path="url(#p3e889535ab)" d="M 189.030998 171.251159 
L 186.983346 174.18085 
L 188.814669 174.179976 
z
" style="stroke:#000000;"/>
    <path clip-path="url(#p3e889535ab)" d="M 189.534564 177.140867 
L 188.742273 177.142429 
L 188.814669 180.104597 
z
" style="stroke:#000000;"/>
    <path clip-path="url(#p3e889535ab)" d="M 188.742273 177.142429 
L 189.534564 177.140867 
L 188.814669 174.179976 
z
" style="stroke:#000000;"/>
    <path clip-path="url(#p3e889535ab)" d="M 188.742273 177.142429 
L 186.983346 180.101318 
L 188.814669 180.104597 
z
" style="stroke:#000000;"/>
    <path clip-path="url(#p3e889535ab)" d="M 189.00653 159.362626 
L 185.850728 157.577197 
L 187.175476 159.373884 
z
" style="stroke:#000000;"/>
    <path clip-path="url(#p3e889535ab)" d="M 185.850728 164.666369 
L 189.00653 159.362626 
L 187.175476 159.373884 
z
" style="stroke:#000000;"/>
    <path clip-path="url(#p3e889535ab)" d="M 188.814669 174.179976 
L 186.910849 177.141227 
L 188.742273 177.142429 
z
" style="stroke:#000000;"/>
    <path clip-path="url(#p3e889535ab)" d="M 185.850728 164.666369 
L 187.836344 159.0324 
L 185.850728 167.502037 
z
" style="stroke:#000000;"/>
    <path clip-path="url(#p3e889535ab)" d="M 187.683636 164.658811 
L 189.666472 159.020912 
L 189.00653 159.362626 
z
" style="stroke:#000000;"/>
    <path clip-path="url(#p3e889535ab)" d="M 187.683636 156.14583 
L 189.00653 159.362626 
L 189.666472 159.020912 
z
" style="stroke:#000000;"/>
    <path clip-path="url(#p3e889535ab)" d="M 187.683636 156.14583 
L 187.836344 159.0324 
L 185.850728 156.159363 
z
" style="stroke:#000000;"/>
    <path clip-path="url(#p3e889535ab)" d="M 187.836344 159.0324 
L 187.683636 167.496471 
L 185.850728 167.502037 
z
" style="stroke:#000000;"/>
    <path clip-path="url(#p3e889535ab)" d="M 185.850728 156.159363 
L 187.175476 159.373884 
L 185.850728 157.577197 
z
" style="stroke:#000000;"/>
    <path clip-path="url(#p3e889535ab)" d="M 189.666472 159.020912 
L 187.683636 164.658811 
L 187.683636 167.496471 
z
" style="stroke:#000000;"/>
    <path clip-path="url(#p3e889535ab)" d="M 185.850728 157.577197 
L 189.00653 159.362626 
L 187.683636 157.564661 
z
" style="stroke:#000000;"/>
    <path clip-path="url(#p3e889535ab)" d="M 189.00653 159.362626 
L 185.850728 164.666369 
L 187.683636 164.658811 
z
" style="stroke:#000000;"/>
    <path clip-path="url(#p3e889535ab)" d="M 189.00653 159.362626 
L 187.683636 156.14583 
L 187.683636 157.564661 
z
" style="stroke:#000000;"/>
    <path clip-path="url(#p3e889535ab)" d="M 185.850728 156.159363 
L 185.850728 157.577197 
L 184.521948 159.325022 
z
" style="stroke:#000000;"/>
    <path clip-path="url(#p3e889535ab)" d="M 187.683636 157.564661 
L 184.521948 159.325022 
L 185.850728 157.577197 
z
" style="stroke:#000000;"/>
    <path clip-path="url(#p3e889535ab)" d="M 184.521948 159.325022 
L 187.683636 164.658811 
L 185.850728 164.666369 
z
" style="stroke:#000000;"/>
    <path clip-path="url(#p3e889535ab)" d="M 185.850728 164.666369 
L 185.850728 167.502037 
L 183.85604 158.957492 
z
" style="stroke:#000000;"/>
    <path clip-path="url(#p3e889535ab)" d="M 187.683636 156.14583 
L 186.356713 159.313696 
L 187.683636 157.564661 
z
" style="stroke:#000000;"/>
    <path clip-path="url(#p3e889535ab)" d="M 185.850728 156.159363 
L 185.691734 158.945898 
L 187.683636 156.14583 
z
" style="stroke:#000000;"/>
    <path clip-path="url(#p3e889535ab)" d="M 185.691734 158.945898 
L 185.850728 167.502037 
L 187.683636 167.496471 
z
" style="stroke:#000000;"/>
    <path clip-path="url(#p3e889535ab)" d="M 185.850728 156.159363 
L 184.521948 159.325022 
L 183.85604 158.957492 
z
" style="stroke:#000000;"/>
    <path clip-path="url(#p3e889535ab)" d="M 185.850728 164.666369 
L 183.85604 158.957492 
L 184.521948 159.325022 
z
" style="stroke:#000000;"/>
    <path clip-path="url(#p3e889535ab)" d="M 187.683636 164.658811 
L 185.691734 158.945898 
L 187.683636 167.496471 
z
" style="stroke:#000000;"/>
    <path clip-path="url(#p3e889535ab)" d="M 184.715165 174.177609 
L 186.622421 177.146608 
L 184.788028 177.145399 
z
" style="stroke:#000000;"/>
    <path clip-path="url(#p3e889535ab)" d="M 184.521948 159.325022 
L 187.683636 157.564661 
L 186.356713 159.313696 
z
" style="stroke:#000000;"/>
    <path clip-path="url(#p3e889535ab)" d="M 187.683636 164.658811 
L 184.521948 159.325022 
L 186.356713 159.313696 
z
" style="stroke:#000000;"/>
    <path clip-path="url(#p3e889535ab)" d="M 184.788028 177.145399 
L 186.549659 180.116772 
L 184.715165 180.113477 
z
" style="stroke:#000000;"/>
    <path clip-path="url(#p3e889535ab)" d="M 184.788028 177.145399 
L 183.989303 177.146969 
L 184.715165 174.177609 
z
" style="stroke:#000000;"/>
    <path clip-path="url(#p3e889535ab)" d="M 183.989303 177.146969 
L 184.788028 177.145399 
L 184.715165 180.113477 
z
" style="stroke:#000000;"/>
    <path clip-path="url(#p3e889535ab)" d="M 184.497296 171.241148 
L 186.549659 174.17673 
L 184.715165 174.177609 
z
" style="stroke:#000000;"/>
    <path clip-path="url(#p3e889535ab)" d="M 184.715165 174.177609 
L 183.920683 174.354708 
L 184.497296 171.241148 
z
" style="stroke:#000000;"/>
    <path clip-path="url(#p3e889535ab)" d="M 183.920683 179.9395 
L 184.715165 180.113477 
L 184.497296 183.050794 
z
" style="stroke:#000000;"/>
    <path clip-path="url(#p3e889535ab)" d="M 184.715165 180.113477 
L 186.332095 183.056157 
L 184.497296 183.050794 
z
" style="stroke:#000000;"/>
    <path clip-path="url(#p3e889535ab)" d="M 186.549659 180.116772 
L 184.788028 177.145399 
L 186.622421 177.146608 
z
" style="stroke:#000000;"/>
    <path clip-path="url(#p3e889535ab)" d="M 186.622421 177.146608 
L 184.715165 174.177609 
L 186.549659 174.17673 
z
" style="stroke:#000000;"/>
    <path clip-path="url(#p3e889535ab)" d="M 185.691734 158.945898 
L 185.850728 156.159363 
L 183.85604 158.957492 
z
" style="stroke:#000000;"/>
    <path clip-path="url(#p3e889535ab)" d="M 185.850728 167.502037 
L 185.691734 158.945898 
L 183.85604 158.957492 
z
" style="stroke:#000000;"/>
    <path clip-path="url(#p3e889535ab)" d="M 186.332095 183.056157 
L 184.715165 180.113477 
L 186.549659 180.116772 
z
" style="stroke:#000000;"/>
    <path clip-path="url(#p3e889535ab)" d="M 184.715165 180.113477 
L 183.920683 179.9395 
L 183.989303 177.146969 
z
" style="stroke:#000000;"/>
    <path clip-path="url(#p3e889535ab)" d="M 183.920683 174.354708 
L 184.715165 174.177609 
L 183.989303 177.146969 
z
" style="stroke:#000000;"/>
    <path clip-path="url(#p3e889535ab)" d="M 184.136597 168.366785 
L 186.332095 171.238203 
L 184.497296 171.241148 
z
" style="stroke:#000000;"/>
    <path clip-path="url(#p3e889535ab)" d="M 186.549659 174.17673 
L 184.497296 171.241148 
L 186.332095 171.238203 
z
" style="stroke:#000000;"/>
    <path clip-path="url(#p3e889535ab)" d="M 185.691734 158.945898 
L 187.683636 164.658811 
L 186.356713 159.313696 
z
" style="stroke:#000000;"/>
    <path clip-path="url(#p3e889535ab)" d="M 186.356713 159.313696 
L 187.683636 156.14583 
L 185.691734 158.945898 
z
" style="stroke:#000000;"/>
    <path clip-path="url(#p3e889535ab)" d="M 184.497296 171.241148 
L 183.715522 171.592015 
L 184.136597 168.366785 
z
" style="stroke:#000000;"/>
    <path clip-path="url(#p3e889535ab)" d="M 183.715522 182.703 
L 184.497296 183.050794 
L 184.136597 185.926575 
z
" style="stroke:#000000;"/>
    <path clip-path="url(#p3e889535ab)" d="M 184.497296 183.050794 
L 185.971899 185.933964 
L 184.136597 185.926575 
z
" style="stroke:#000000;"/>
    <path clip-path="url(#p3e889535ab)" d="M 183.715522 171.592015 
L 184.497296 171.241148 
L 183.920683 174.354708 
z
" style="stroke:#000000;"/>
    <path clip-path="url(#p3e889535ab)" d="M 184.497296 183.050794 
L 183.715522 182.703 
L 183.920683 179.9395 
z
" style="stroke:#000000;"/>
    <path clip-path="url(#p3e889535ab)" d="M 185.971899 185.933964 
L 184.497296 183.050794 
L 186.332095 183.056157 
z
" style="stroke:#000000;"/>
    <path clip-path="url(#p3e889535ab)" d="M 186.622421 177.146608 
L 185.824811 177.14818 
L 186.549659 180.116772 
z
" style="stroke:#000000;"/>
    <path clip-path="url(#p3e889535ab)" d="M 185.824811 177.14818 
L 186.622421 177.146608 
L 186.549659 174.17673 
z
" style="stroke:#000000;"/>
    <path clip-path="url(#p3e889535ab)" d="M 186.332095 171.238203 
L 184.136597 168.366785 
L 185.971899 168.361816 
z
" style="stroke:#000000;"/>
    <path clip-path="url(#p3e889535ab)" d="M 183.636676 165.584731 
L 185.971899 168.361816 
L 184.136597 168.366785 
z
" style="stroke:#000000;"/>
    <path clip-path="url(#p3e889535ab)" d="M 186.549659 180.116772 
L 185.756287 179.942677 
L 186.332095 183.056157 
z
" style="stroke:#000000;"/>
    <path clip-path="url(#p3e889535ab)" d="M 185.756287 174.353953 
L 186.549659 174.17673 
L 186.332095 171.238203 
z
" style="stroke:#000000;"/>
    <path clip-path="url(#p3e889535ab)" d="M 183.920683 179.9395 
L 185.824811 177.14818 
L 183.989303 177.146969 
z
" style="stroke:#000000;"/>
    <path clip-path="url(#p3e889535ab)" d="M 183.375868 168.887891 
L 184.136597 168.366785 
L 183.715522 171.592015 
z
" style="stroke:#000000;"/>
    <path clip-path="url(#p3e889535ab)" d="M 184.136597 185.926575 
L 183.375868 185.408459 
L 183.715522 182.703 
z
" style="stroke:#000000;"/>
    <path clip-path="url(#p3e889535ab)" d="M 183.989303 177.146969 
L 185.756287 174.353953 
L 183.920683 174.354708 
z
" style="stroke:#000000;"/>
    <path clip-path="url(#p3e889535ab)" d="M 184.136597 168.366785 
L 183.375868 168.887891 
L 183.636676 165.584731 
z
" style="stroke:#000000;"/>
    <path clip-path="url(#p3e889535ab)" d="M 183.375868 185.408459 
L 184.136597 185.926575 
L 183.636676 188.710594 
z
" style="stroke:#000000;"/>
    <path clip-path="url(#p3e889535ab)" d="M 183.715522 182.703 
L 185.756287 179.942677 
L 183.920683 179.9395 
z
" style="stroke:#000000;"/>
    <path clip-path="url(#p3e889535ab)" d="M 184.136597 185.926575 
L 185.472676 188.719948 
L 183.636676 188.710594 
z
" style="stroke:#000000;"/>
    <path clip-path="url(#p3e889535ab)" d="M 186.549659 174.17673 
L 185.756287 174.353953 
L 185.824811 177.14818 
z
" style="stroke:#000000;"/>
    <path clip-path="url(#p3e889535ab)" d="M 185.756287 179.942677 
L 186.549659 180.116772 
L 185.824811 177.14818 
z
" style="stroke:#000000;"/>
    <path clip-path="url(#p3e889535ab)" d="M 183.920683 174.354708 
L 185.551412 171.589315 
L 183.715522 171.592015 
z
" style="stroke:#000000;"/>
    <path clip-path="url(#p3e889535ab)" d="M 185.472676 188.719948 
L 184.136597 185.926575 
L 185.971899 185.933964 
z
" style="stroke:#000000;"/>
    <path clip-path="url(#p3e889535ab)" d="M 185.756287 174.353953 
L 183.989303 177.146969 
L 185.824811 177.14818 
z
" style="stroke:#000000;"/>
    <path clip-path="url(#p3e889535ab)" d="M 185.824811 177.14818 
L 183.920683 179.9395 
L 185.756287 179.942677 
z
" style="stroke:#000000;"/>
    <path clip-path="url(#p3e889535ab)" d="M 186.332095 183.056157 
L 185.551412 182.708123 
L 185.971899 185.933964 
z
" style="stroke:#000000;"/>
    <path clip-path="url(#p3e889535ab)" d="M 185.551412 171.589315 
L 186.332095 171.238203 
L 185.971899 168.361816 
z
" style="stroke:#000000;"/>
    <path clip-path="url(#p3e889535ab)" d="M 185.551412 171.589315 
L 183.920683 174.354708 
L 185.756287 174.353953 
z
" style="stroke:#000000;"/>
    <path clip-path="url(#p3e889535ab)" d="M 185.551412 182.708123 
L 186.332095 183.056157 
L 185.756287 179.942677 
z
" style="stroke:#000000;"/>
    <path clip-path="url(#p3e889535ab)" d="M 186.332095 171.238203 
L 185.551412 171.589315 
L 185.756287 174.353953 
z
" style="stroke:#000000;"/>
    <path clip-path="url(#p3e889535ab)" d="M 183.375868 185.408459 
L 185.551412 182.708123 
L 183.715522 182.703 
z
" style="stroke:#000000;"/>
    <path clip-path="url(#p3e889535ab)" d="M 185.971899 168.361816 
L 183.636676 165.584731 
L 185.472676 165.577801 
z
" style="stroke:#000000;"/>
    <path clip-path="url(#p3e889535ab)" d="M 185.756287 179.942677 
L 183.715522 182.703 
L 185.551412 182.708123 
z
" style="stroke:#000000;"/>
    <path clip-path="url(#p3e889535ab)" d="M 182.905138 166.270846 
L 183.636676 165.584731 
L 183.375868 168.887891 
z
" style="stroke:#000000;"/>
    <path clip-path="url(#p3e889535ab)" d="M 183.636676 188.710594 
L 182.905138 188.027356 
L 183.375868 185.408459 
z
" style="stroke:#000000;"/>
    <path clip-path="url(#p3e889535ab)" d="M 183.715522 171.592015 
L 185.212231 168.883285 
L 183.375868 168.887891 
z
" style="stroke:#000000;"/>
    <path clip-path="url(#p3e889535ab)" d="M 183.002534 162.924315 
L 185.472676 165.577801 
L 183.636676 165.584731 
z
" style="stroke:#000000;"/>
    <path clip-path="url(#p3e889535ab)" d="M 185.212231 168.883285 
L 183.715522 171.592015 
L 185.551412 171.589315 
z
" style="stroke:#000000;"/>
    <path clip-path="url(#p3e889535ab)" d="M 183.636676 165.584731 
L 182.905138 166.270846 
L 183.002534 162.924315 
z
" style="stroke:#000000;"/>
    <path clip-path="url(#p3e889535ab)" d="M 182.905138 188.027356 
L 183.636676 188.710594 
L 183.002534 191.373503 
z
" style="stroke:#000000;"/>
    <path clip-path="url(#p3e889535ab)" d="M 185.212231 185.41549 
L 185.971899 185.933964 
L 185.551412 182.708123 
z
" style="stroke:#000000;"/>
    <path clip-path="url(#p3e889535ab)" d="M 185.971899 168.361816 
L 185.212231 168.883285 
L 185.551412 171.589315 
z
" style="stroke:#000000;"/>
    <path clip-path="url(#p3e889535ab)" d="M 185.971899 185.933964 
L 185.212231 185.41549 
L 185.472676 188.719948 
z
" style="stroke:#000000;"/>
    <path clip-path="url(#p3e889535ab)" d="M 185.212231 168.883285 
L 185.971899 168.361816 
L 185.472676 165.577801 
z
" style="stroke:#000000;"/>
    <path clip-path="url(#p3e889535ab)" d="M 185.551412 182.708123 
L 183.375868 185.408459 
L 185.212231 185.41549 
z
" style="stroke:#000000;"/>
    <path clip-path="url(#p3e889535ab)" d="M 184.839418 191.384739 
L 183.636676 188.710594 
L 185.472676 188.719948 
z
" style="stroke:#000000;"/>
    <path clip-path="url(#p3e889535ab)" d="M 182.905138 188.027356 
L 185.212231 185.41549 
L 183.375868 185.408459 
z
" style="stroke:#000000;"/>
    <path clip-path="url(#p3e889535ab)" d="M 183.636676 188.710594 
L 184.839418 191.384739 
L 183.002534 191.373503 
z
" style="stroke:#000000;"/>
    <path clip-path="url(#p3e889535ab)" d="M 183.375868 168.887891 
L 184.742157 166.264393 
L 182.905138 166.270846 
z
" style="stroke:#000000;"/>
    <path clip-path="url(#p3e889535ab)" d="M 184.742157 166.264393 
L 183.375868 168.887891 
L 185.212231 168.883285 
z
" style="stroke:#000000;"/>
    <path clip-path="url(#p3e889535ab)" d="M 185.472676 165.577801 
L 183.002534 162.924315 
L 184.839418 162.915506 
z
" style="stroke:#000000;"/>
    <path clip-path="url(#p3e889535ab)" d="M 182.308077 163.768556 
L 183.002534 162.924315 
L 182.905138 166.270846 
z
" style="stroke:#000000;"/>
    <path clip-path="url(#p3e889535ab)" d="M 183.002534 191.373503 
L 182.308077 190.531993 
L 182.905138 188.027356 
z
" style="stroke:#000000;"/>
    <path clip-path="url(#p3e889535ab)" d="M 184.742157 188.036235 
L 185.472676 188.719948 
L 185.212231 185.41549 
z
" style="stroke:#000000;"/>
    <path clip-path="url(#p3e889535ab)" d="M 185.472676 165.577801 
L 184.742157 166.264393 
L 185.212231 168.883285 
z
" style="stroke:#000000;"/>
    <path clip-path="url(#p3e889535ab)" d="M 185.212231 185.41549 
L 182.905138 188.027356 
L 184.742157 188.036235 
z
" style="stroke:#000000;"/>
    <path clip-path="url(#p3e889535ab)" d="M 185.472676 188.719948 
L 184.742157 188.036235 
L 184.839418 191.384739 
z
" style="stroke:#000000;"/>
    <path clip-path="url(#p3e889535ab)" d="M 184.742157 166.264393 
L 185.472676 165.577801 
L 184.839418 162.915506 
z
" style="stroke:#000000;"/>
    <path clip-path="url(#p3e889535ab)" d="M 182.240563 160.413884 
L 184.839418 162.915506 
L 183.002534 162.924315 
z
" style="stroke:#000000;"/>
    <path clip-path="url(#p3e889535ab)" d="M 183.002534 162.924315 
L 182.308077 163.768556 
L 182.240563 160.413884 
z
" style="stroke:#000000;"/>
    <path clip-path="url(#p3e889535ab)" d="M 182.308077 190.531993 
L 183.002534 191.373503 
L 182.240563 193.88693 
z
" style="stroke:#000000;"/>
    <path clip-path="url(#p3e889535ab)" d="M 182.308077 190.531993 
L 184.742157 188.036235 
L 182.905138 188.027356 
z
" style="stroke:#000000;"/>
    <path clip-path="url(#p3e889535ab)" d="M 184.078509 193.899949 
L 183.002534 191.373503 
L 184.839418 191.384739 
z
" style="stroke:#000000;"/>
    <path clip-path="url(#p3e889535ab)" d="M 182.905138 166.270846 
L 184.145929 163.760334 
L 182.308077 163.768556 
z
" style="stroke:#000000;"/>
    <path clip-path="url(#p3e889535ab)" d="M 184.145929 163.760334 
L 182.905138 166.270846 
L 184.742157 166.264393 
z
" style="stroke:#000000;"/>
    <path clip-path="url(#p3e889535ab)" d="M 183.002534 191.373503 
L 184.078509 193.899949 
L 182.240563 193.88693 
z
" style="stroke:#000000;"/>
    <path clip-path="url(#p3e889535ab)" d="M 184.145929 190.542645 
L 184.839418 191.384739 
L 184.742157 188.036235 
z
" style="stroke:#000000;"/>
    <path clip-path="url(#p3e889535ab)" d="M 184.839418 162.915506 
L 184.145929 163.760334 
L 184.742157 166.264393 
z
" style="stroke:#000000;"/>
    <path clip-path="url(#p3e889535ab)" d="M 184.742157 188.036235 
L 182.308077 190.531993 
L 184.145929 190.542645 
z
" style="stroke:#000000;"/>
    <path clip-path="url(#p3e889535ab)" d="M 184.839418 162.915506 
L 182.240563 160.413884 
L 184.078509 160.403296 
z
" style="stroke:#000000;"/>
    <path clip-path="url(#p3e889535ab)" d="M 182.240563 160.413884 
L 182.308077 163.768556 
L 181.590725 161.407606 
z
" style="stroke:#000000;"/>
    <path clip-path="url(#p3e889535ab)" d="M 182.308077 190.531993 
L 182.240563 193.88693 
L 181.590725 192.895763 
z
" style="stroke:#000000;"/>
    <path clip-path="url(#p3e889535ab)" d="M 184.839418 191.384739 
L 184.145929 190.542645 
L 184.078509 193.899949 
z
" style="stroke:#000000;"/>
    <path clip-path="url(#p3e889535ab)" d="M 184.145929 163.760334 
L 184.839418 162.915506 
L 184.078509 160.403296 
z
" style="stroke:#000000;"/>
    <path clip-path="url(#p3e889535ab)" d="M 181.590725 192.895763 
L 184.145929 190.542645 
L 182.308077 190.531993 
z
" style="stroke:#000000;"/>
    <path clip-path="url(#p3e889535ab)" d="M 181.358471 158.080151 
L 184.078509 160.403296 
L 182.240563 160.413884 
z
" style="stroke:#000000;"/>
    <path clip-path="url(#p3e889535ab)" d="M 182.240563 160.413884 
L 181.590725 161.407606 
L 181.358471 158.080151 
z
" style="stroke:#000000;"/>
    <path clip-path="url(#p3e889535ab)" d="M 181.590725 192.895763 
L 182.240563 193.88693 
L 181.358471 196.224131 
z
" style="stroke:#000000;"/>
    <path clip-path="url(#p3e889535ab)" d="M 183.429575 161.397711 
L 182.308077 163.768556 
L 184.145929 163.760334 
z
" style="stroke:#000000;"/>
    <path clip-path="url(#p3e889535ab)" d="M 182.308077 163.768556 
L 183.429575 161.397711 
L 181.590725 161.407606 
z
" style="stroke:#000000;"/>
    <path clip-path="url(#p3e889535ab)" d="M 183.197644 196.238812 
L 182.240563 193.88693 
L 184.078509 193.899949 
z
" style="stroke:#000000;"/>
    <path clip-path="url(#p3e889535ab)" d="M 182.240563 193.88693 
L 183.197644 196.238812 
L 181.358471 196.224131 
z
" style="stroke:#000000;"/>
    <path clip-path="url(#p3e889535ab)" d="M 184.078509 193.899949 
L 184.145929 190.542645 
L 183.429575 192.908092 
z
" style="stroke:#000000;"/>
    <path clip-path="url(#p3e889535ab)" d="M 184.145929 163.760334 
L 184.078509 160.403296 
L 183.429575 161.397711 
z
" style="stroke:#000000;"/>
    <path clip-path="url(#p3e889535ab)" d="M 184.145929 190.542645 
L 181.590725 192.895763 
L 183.429575 192.908092 
z
" style="stroke:#000000;"/>
    <path clip-path="url(#p3e889535ab)" d="M 184.078509 160.403296 
L 181.358471 158.080151 
L 183.197644 158.067905 
z
" style="stroke:#000000;"/>
    <path clip-path="url(#p3e889535ab)" d="M 181.358471 158.080151 
L 181.590725 161.407606 
L 180.760373 159.213431 
z
" style="stroke:#000000;"/>
    <path clip-path="url(#p3e889535ab)" d="M 181.590725 192.895763 
L 181.358471 196.224131 
L 180.760373 195.093202 
z
" style="stroke:#000000;"/>
    <path clip-path="url(#p3e889535ab)" d="M 184.078509 193.899949 
L 183.429575 192.908092 
L 183.197644 196.238812 
z
" style="stroke:#000000;"/>
    <path clip-path="url(#p3e889535ab)" d="M 183.429575 161.397711 
L 184.078509 160.403296 
L 183.197644 158.067905 
z
" style="stroke:#000000;"/>
    <path clip-path="url(#p3e889535ab)" d="M 180.760373 195.093202 
L 183.429575 192.908092 
L 181.590725 192.895763 
z
" style="stroke:#000000;"/>
    <path clip-path="url(#p3e889535ab)" d="M 180.862128 157.014921 
L 183.197644 158.067905 
L 181.358471 158.080151 
z
" style="stroke:#000000;"/>
    <path clip-path="url(#p3e889535ab)" d="M 181.358471 158.080151 
L 180.51123 157.387585 
L 180.862128 157.014921 
z
" style="stroke:#000000;"/>
    <path clip-path="url(#p3e889535ab)" d="M 180.51123 196.920028 
L 181.358471 196.224131 
L 180.862128 197.291312 
z
" style="stroke:#000000;"/>
    <path clip-path="url(#p3e889535ab)" d="M 182.600378 159.201977 
L 181.590725 161.407606 
L 183.429575 161.397711 
z
" style="stroke:#000000;"/>
    <path clip-path="url(#p3e889535ab)" d="M 180.51123 157.387585 
L 181.358471 158.080151 
L 180.760373 159.213431 
z
" style="stroke:#000000;"/>
    <path clip-path="url(#p3e889535ab)" d="M 181.358471 196.224131 
L 180.51123 196.920028 
L 180.760373 195.093202 
z
" style="stroke:#000000;"/>
    <path clip-path="url(#p3e889535ab)" d="M 181.590725 161.407606 
L 182.600378 159.201977 
L 180.760373 159.213431 
z
" style="stroke:#000000;"/>
    <path clip-path="url(#p3e889535ab)" d="M 181.358471 196.224131 
L 182.701992 197.306756 
L 180.862128 197.291312 
z
" style="stroke:#000000;"/>
    <path clip-path="url(#p3e889535ab)" d="M 182.701992 197.306756 
L 181.358471 196.224131 
L 183.197644 196.238812 
z
" style="stroke:#000000;"/>
    <path clip-path="url(#p3e889535ab)" d="M 183.429575 192.908092 
L 180.760373 195.093202 
L 182.600378 195.107095 
z
" style="stroke:#000000;"/>
    <path clip-path="url(#p3e889535ab)" d="M 183.197644 196.238812 
L 183.429575 192.908092 
L 182.600378 195.107095 
z
" style="stroke:#000000;"/>
    <path clip-path="url(#p3e889535ab)" d="M 183.429575 161.397711 
L 183.197644 158.067905 
L 182.600378 159.201977 
z
" style="stroke:#000000;"/>
    <path clip-path="url(#p3e889535ab)" d="M 183.197644 158.067905 
L 180.862128 157.014921 
L 182.701992 157.001915 
z
" style="stroke:#000000;"/>
    <path clip-path="url(#p3e889535ab)" d="M 182.701992 197.306756 
L 180.51123 196.920028 
L 180.862128 197.291312 
z
" style="stroke:#000000;"/>
    <path clip-path="url(#p3e889535ab)" d="M 180.51123 157.387585 
L 180.760373 159.213431 
L 180.142384 157.888858 
z
" style="stroke:#000000;"/>
    <path clip-path="url(#p3e889535ab)" d="M 180.760373 195.093202 
L 180.51123 196.920028 
L 180.142384 196.420205 
z
" style="stroke:#000000;"/>
    <path clip-path="url(#p3e889535ab)" d="M 182.351581 157.374837 
L 180.862128 157.014921 
L 180.51123 157.387585 
z
" style="stroke:#000000;"/>
    <path clip-path="url(#p3e889535ab)" d="M 182.600378 159.201977 
L 180.142384 157.888858 
L 180.760373 159.213431 
z
" style="stroke:#000000;"/>
    <path clip-path="url(#p3e889535ab)" d="M 180.862128 157.014921 
L 182.351581 157.374837 
L 182.701992 157.001915 
z
" style="stroke:#000000;"/>
    <path clip-path="url(#p3e889535ab)" d="M 183.197644 196.238812 
L 182.351581 196.935216 
L 182.701992 197.306756 
z
" style="stroke:#000000;"/>
    <path clip-path="url(#p3e889535ab)" d="M 182.351581 157.374837 
L 183.197644 158.067905 
L 182.701992 157.001915 
z
" style="stroke:#000000;"/>
    <path clip-path="url(#p3e889535ab)" d="M 182.351581 196.935216 
L 183.197644 196.238812 
L 182.600378 195.107095 
z
" style="stroke:#000000;"/>
    <path clip-path="url(#p3e889535ab)" d="M 183.197644 158.067905 
L 182.351581 157.374837 
L 182.600378 159.201977 
z
" style="stroke:#000000;"/>
    <path clip-path="url(#p3e889535ab)" d="M 180.51123 196.920028 
L 182.701992 197.306756 
L 182.351581 196.935216 
z
" style="stroke:#000000;"/>
    <path clip-path="url(#p3e889535ab)" d="M 182.351581 196.935216 
L 180.142384 196.420205 
L 180.51123 196.920028 
z
" style="stroke:#000000;"/>
    <path clip-path="url(#p3e889535ab)" d="M 181.983248 196.435045 
L 180.760373 195.093202 
L 180.142384 196.420205 
z
" style="stroke:#000000;"/>
    <path clip-path="url(#p3e889535ab)" d="M 180.760373 195.093202 
L 181.983248 196.435045 
L 182.600378 195.107095 
z
" style="stroke:#000000;"/>
    <path clip-path="url(#p3e889535ab)" d="M 181.983248 157.87646 
L 180.51123 157.387585 
L 180.142384 157.888858 
z
" style="stroke:#000000;"/>
    <path clip-path="url(#p3e889535ab)" d="M 180.51123 157.387585 
L 181.983248 157.87646 
L 182.351581 157.374837 
z
" style="stroke:#000000;"/>
    <path clip-path="url(#p3e889535ab)" d="M 180.142384 157.888858 
L 182.600378 159.201977 
L 181.983248 157.87646 
z
" style="stroke:#000000;"/>
    <path clip-path="url(#p3e889535ab)" d="M 180.142384 196.420205 
L 182.351581 196.935216 
L 181.983248 196.435045 
z
" style="stroke:#000000;"/>
    <path clip-path="url(#p3e889535ab)" d="M 182.351581 196.935216 
L 182.600378 195.107095 
L 181.983248 196.435045 
z
" style="stroke:#000000;"/>
    <path clip-path="url(#p3e889535ab)" d="M 182.600378 159.201977 
L 182.351581 157.374837 
L 181.983248 157.87646 
z
" style="stroke:#000000;"/>
   </g>
  </g>
 </g>
 <defs>
  <clipPath id="p3e889535ab">
   <rect height="271.8" width="279" x="45" y="43.2"/>
  </clipPath>
 </defs>
</svg>
