<?xml version="1.0" encoding="utf-8" standalone="no"?>
<!DOCTYPE svg PUBLIC "-//W3C//DTD SVG 1.1//EN"
  "http://www.w3.org/Graphics/SVG/1.1/DTD/svg11.dtd">
<!-- Created with matplotlib (https://matplotlib.org/) -->
<svg height="360pt" version="1.1" viewBox="0 0 360 360" width="360pt" xmlns="http://www.w3.org/2000/svg" xmlns:xlink="http://www.w3.org/1999/xlink">
 <defs>
  <style type="text/css">
*{stroke-linecap:butt;stroke-linejoin:round;}
  </style>
 </defs>
 <g id="figure_1">
  <g id="patch_1">
   <path d="M 45 315 
L 324 315 
L 324 43.2 
L 45 43.2 
z
" style="fill:#ffffff;"/>
  </g>
  <g id="axes_1">
   <g id="Poly3DCollection_1">
    <path clip-path="url(#p35ba3d96b8)" d="M 198.581523 159.343376 
L 199.053849 157.538742 
L 199.752471 158.045276 
z
" style="stroke:#000000;"/>
    <path clip-path="url(#p35ba3d96b8)" d="M 199.053849 196.739932 
L 198.581523 194.935586 
L 199.752471 196.232972 
z
" style="stroke:#000000;"/>
    <path clip-path="url(#p35ba3d96b8)" d="M 197.446228 158.203972 
L 199.053849 157.538742 
L 198.581523 159.343376 
z
" style="stroke:#000000;"/>
    <path clip-path="url(#p35ba3d96b8)" d="M 199.053849 196.739932 
L 197.446228 196.075682 
L 198.581523 194.935586 
z
" style="stroke:#000000;"/>
    <path clip-path="url(#p35ba3d96b8)" d="M 199.053849 157.538742 
L 197.446228 158.203972 
L 198.388516 157.159742 
z
" style="stroke:#000000;"/>
    <path clip-path="url(#p35ba3d96b8)" d="M 197.446228 196.075682 
L 199.053849 196.739932 
L 198.388516 197.119338 
z
" style="stroke:#000000;"/>
    <path clip-path="url(#p35ba3d96b8)" d="M 197.446228 158.203972 
L 198.581523 159.343376 
L 197.004827 161.502897 
z
" style="stroke:#000000;"/>
    <path clip-path="url(#p35ba3d96b8)" d="M 198.581523 194.935586 
L 197.446228 196.075682 
L 197.004827 192.777026 
z
" style="stroke:#000000;"/>
    <path clip-path="url(#p35ba3d96b8)" d="M 200.315329 196.261152 
L 199.053849 196.739932 
L 199.752471 196.232972 
z
" style="stroke:#000000;"/>
    <path clip-path="url(#p35ba3d96b8)" d="M 200.315329 158.021734 
L 198.581523 159.343376 
L 199.752471 158.045276 
z
" style="stroke:#000000;"/>
    <path clip-path="url(#p35ba3d96b8)" d="M 199.615831 157.514511 
L 199.752471 158.045276 
L 199.053849 157.538742 
z
" style="stroke:#000000;"/>
    <path clip-path="url(#p35ba3d96b8)" d="M 197.446228 158.203972 
L 197.004827 161.502897 
L 195.768194 160.501594 
z
" style="stroke:#000000;"/>
    <path clip-path="url(#p35ba3d96b8)" d="M 197.004827 192.777026 
L 197.446228 196.075682 
L 195.768194 193.779083 
z
" style="stroke:#000000;"/>
    <path clip-path="url(#p35ba3d96b8)" d="M 199.142912 194.962014 
L 199.752471 196.232972 
L 198.581523 194.935586 
z
" style="stroke:#000000;"/>
    <path clip-path="url(#p35ba3d96b8)" d="M 199.615831 196.768802 
L 198.388516 197.119338 
L 199.053849 196.739932 
z
" style="stroke:#000000;"/>
    <path clip-path="url(#p35ba3d96b8)" d="M 195.768194 160.501594 
L 197.004827 161.502897 
L 195.639579 163.835509 
z
" style="stroke:#000000;"/>
    <path clip-path="url(#p35ba3d96b8)" d="M 197.004827 192.777026 
L 195.768194 193.779083 
L 195.639579 190.445246 
z
" style="stroke:#000000;"/>
    <path clip-path="url(#p35ba3d96b8)" d="M 198.949663 157.134995 
L 199.053849 157.538742 
L 198.388516 157.159742 
z
" style="stroke:#000000;"/>
    <path clip-path="url(#p35ba3d96b8)" d="M 197.446228 158.203972 
L 198.949663 157.134995 
L 198.388516 157.159742 
z
" style="stroke:#000000;"/>
    <path clip-path="url(#p35ba3d96b8)" d="M 197.004827 192.777026 
L 199.142912 194.962014 
L 198.581523 194.935586 
z
" style="stroke:#000000;"/>
    <path clip-path="url(#p35ba3d96b8)" d="M 195.768194 160.501594 
L 195.639579 163.835509 
L 194.315143 162.983331 
z
" style="stroke:#000000;"/>
    <path clip-path="url(#p35ba3d96b8)" d="M 195.639579 190.445246 
L 195.768194 193.779083 
L 194.315143 191.298232 
z
" style="stroke:#000000;"/>
    <path clip-path="url(#p35ba3d96b8)" d="M 198.388516 197.119338 
L 198.006193 196.10366 
L 197.446228 196.075682 
z
" style="stroke:#000000;"/>
    <path clip-path="url(#p35ba3d96b8)" d="M 198.581523 159.343376 
L 197.564238 161.484029 
L 197.004827 161.502897 
z
" style="stroke:#000000;"/>
    <path clip-path="url(#p35ba3d96b8)" d="M 194.315143 162.983331 
L 195.639579 163.835509 
L 194.501056 166.315379 
z
" style="stroke:#000000;"/>
    <path clip-path="url(#p35ba3d96b8)" d="M 195.639579 190.445246 
L 194.315143 191.298232 
L 194.501056 187.966071 
z
" style="stroke:#000000;"/>
    <path clip-path="url(#p35ba3d96b8)" d="M 199.752471 158.045276 
L 199.615831 157.514511 
L 200.315329 158.021734 
z
" style="stroke:#000000;"/>
    <path clip-path="url(#p35ba3d96b8)" d="M 195.768194 160.501594 
L 198.006193 158.180635 
L 197.446228 158.203972 
z
" style="stroke:#000000;"/>
    <path clip-path="url(#p35ba3d96b8)" d="M 199.752471 196.232972 
L 199.142912 194.962014 
L 200.315329 196.261152 
z
" style="stroke:#000000;"/>
    <path clip-path="url(#p35ba3d96b8)" d="M 199.053849 196.739932 
L 200.315329 196.261152 
L 199.615831 196.768802 
z
" style="stroke:#000000;"/>
    <path clip-path="url(#p35ba3d96b8)" d="M 195.639579 190.445246 
L 197.564238 192.800537 
L 197.004827 192.777026 
z
" style="stroke:#000000;"/>
    <path clip-path="url(#p35ba3d96b8)" d="M 194.501056 166.315379 
L 193.103351 165.621979 
L 194.315143 162.983331 
z
" style="stroke:#000000;"/>
    <path clip-path="url(#p35ba3d96b8)" d="M 193.103351 188.660323 
L 194.501056 187.966071 
L 194.315143 191.298232 
z
" style="stroke:#000000;"/>
    <path clip-path="url(#p35ba3d96b8)" d="M 198.581523 159.343376 
L 200.315329 158.021734 
L 199.142912 159.321588 
z
" style="stroke:#000000;"/>
    <path clip-path="url(#p35ba3d96b8)" d="M 197.446228 196.075682 
L 196.326052 193.803957 
L 195.768194 193.779083 
z
" style="stroke:#000000;"/>
    <path clip-path="url(#p35ba3d96b8)" d="M 199.053849 157.538742 
L 198.949663 157.134995 
L 199.615831 157.514511 
z
" style="stroke:#000000;"/>
    <path clip-path="url(#p35ba3d96b8)" d="M 193.103351 165.621979 
L 194.501056 166.315379 
L 193.60201 168.915156 
z
" style="stroke:#000000;"/>
    <path clip-path="url(#p35ba3d96b8)" d="M 194.501056 187.966071 
L 193.103351 188.660323 
L 193.60201 185.366841 
z
" style="stroke:#000000;"/>
    <path clip-path="url(#p35ba3d96b8)" d="M 197.004827 161.502897 
L 196.197276 163.819798 
L 195.639579 163.835509 
z
" style="stroke:#000000;"/>
    <path clip-path="url(#p35ba3d96b8)" d="M 198.388516 197.119338 
L 199.615831 196.768802 
L 198.949663 197.148725 
z
" style="stroke:#000000;"/>
    <path clip-path="url(#p35ba3d96b8)" d="M 198.006193 196.10366 
L 198.388516 197.119338 
L 198.949663 197.148725 
z
" style="stroke:#000000;"/>
    <path clip-path="url(#p35ba3d96b8)" d="M 197.564238 161.484029 
L 198.581523 159.343376 
L 199.142912 159.321588 
z
" style="stroke:#000000;"/>
    <path clip-path="url(#p35ba3d96b8)" d="M 193.60201 168.915156 
L 192.14644 168.388287 
L 193.103351 165.621979 
z
" style="stroke:#000000;"/>
    <path clip-path="url(#p35ba3d96b8)" d="M 192.14644 185.894598 
L 193.60201 185.366841 
L 193.103351 188.660323 
z
" style="stroke:#000000;"/>
    <path clip-path="url(#p35ba3d96b8)" d="M 192.14644 168.388287 
L 193.60201 168.915156 
L 192.952525 171.606082 
z
" style="stroke:#000000;"/>
    <path clip-path="url(#p35ba3d96b8)" d="M 193.60201 185.366841 
L 192.14644 185.894598 
L 192.952525 182.676312 
z
" style="stroke:#000000;"/>
    <path clip-path="url(#p35ba3d96b8)" d="M 194.315143 162.983331 
L 196.326052 160.481364 
L 195.768194 160.501594 
z
" style="stroke:#000000;"/>
    <path clip-path="url(#p35ba3d96b8)" d="M 194.501056 187.966071 
L 196.197276 190.465602 
L 195.639579 190.445246 
z
" style="stroke:#000000;"/>
    <path clip-path="url(#p35ba3d96b8)" d="M 198.949663 157.134995 
L 197.446228 158.203972 
L 198.006193 158.180635 
z
" style="stroke:#000000;"/>
    <path clip-path="url(#p35ba3d96b8)" d="M 199.142912 194.962014 
L 197.004827 192.777026 
L 197.564238 192.800537 
z
" style="stroke:#000000;"/>
    <path clip-path="url(#p35ba3d96b8)" d="M 195.639579 163.835509 
L 195.057322 166.303027 
L 194.501056 166.315379 
z
" style="stroke:#000000;"/>
    <path clip-path="url(#p35ba3d96b8)" d="M 191.455133 171.251662 
L 192.952525 171.606082 
L 192.5599 174.358316 
z
" style="stroke:#000000;"/>
    <path clip-path="url(#p35ba3d96b8)" d="M 192.952525 182.676312 
L 191.455133 183.031645 
L 192.5599 179.924317 
z
" style="stroke:#000000;"/>
    <path clip-path="url(#p35ba3d96b8)" d="M 195.768194 193.779083 
L 194.871175 191.319749 
L 194.315143 191.298232 
z
" style="stroke:#000000;"/>
    <path clip-path="url(#p35ba3d96b8)" d="M 192.952525 171.606082 
L 191.455133 171.251662 
L 192.14644 168.388287 
z
" style="stroke:#000000;"/>
    <path clip-path="url(#p35ba3d96b8)" d="M 191.455133 183.031645 
L 192.952525 182.676312 
L 192.14644 185.894598 
z
" style="stroke:#000000;"/>
    <path clip-path="url(#p35ba3d96b8)" d="M 192.5599 179.924317 
L 191.037213 180.103218 
L 192.428526 177.141357 
z
" style="stroke:#000000;"/>
    <path clip-path="url(#p35ba3d96b8)" d="M 191.037213 174.180344 
L 192.5599 174.358316 
L 192.428526 177.141357 
z
" style="stroke:#000000;"/>
    <path clip-path="url(#p35ba3d96b8)" d="M 196.326052 193.803957 
L 197.446228 196.075682 
L 198.006193 196.10366 
z
" style="stroke:#000000;"/>
    <path clip-path="url(#p35ba3d96b8)" d="M 192.5599 174.358316 
L 191.037213 174.180344 
L 191.455133 171.251662 
z
" style="stroke:#000000;"/>
    <path clip-path="url(#p35ba3d96b8)" d="M 191.037213 180.103218 
L 192.5599 179.924317 
L 191.455133 183.031645 
z
" style="stroke:#000000;"/>
    <path clip-path="url(#p35ba3d96b8)" d="M 193.60201 185.366841 
L 195.057322 187.983069 
L 194.501056 187.966071 
z
" style="stroke:#000000;"/>
    <path clip-path="url(#p35ba3d96b8)" d="M 199.142912 194.962014 
L 199.615831 196.768802 
L 200.315329 196.261152 
z
" style="stroke:#000000;"/>
    <path clip-path="url(#p35ba3d96b8)" d="M 199.615831 157.514511 
L 199.142912 159.321588 
L 200.315329 158.021734 
z
" style="stroke:#000000;"/>
    <path clip-path="url(#p35ba3d96b8)" d="M 196.197276 163.819798 
L 197.004827 161.502897 
L 197.564238 161.484029 
z
" style="stroke:#000000;"/>
    <path clip-path="url(#p35ba3d96b8)" d="M 192.428526 177.141357 
L 190.897385 177.141823 
L 191.037213 174.180344 
z
" style="stroke:#000000;"/>
    <path clip-path="url(#p35ba3d96b8)" d="M 190.897385 177.141823 
L 192.428526 177.141357 
L 191.037213 180.103218 
z
" style="stroke:#000000;"/>
    <path clip-path="url(#p35ba3d96b8)" d="M 193.103351 165.621979 
L 194.871175 162.966461 
L 194.315143 162.983331 
z
" style="stroke:#000000;"/>
    <path clip-path="url(#p35ba3d96b8)" d="M 194.501056 166.315379 
L 194.157146 168.906327 
L 193.60201 168.915156 
z
" style="stroke:#000000;"/>
    <path clip-path="url(#p35ba3d96b8)" d="M 198.006193 158.180635 
L 195.768194 160.501594 
L 196.326052 160.481364 
z
" style="stroke:#000000;"/>
    <path clip-path="url(#p35ba3d96b8)" d="M 197.564238 192.800537 
L 195.639579 190.445246 
L 196.197276 190.465602 
z
" style="stroke:#000000;"/>
    <path clip-path="url(#p35ba3d96b8)" d="M 191.407858 159.364879 
L 188.854567 156.169069 
L 192.683635 159.014483 
z
" style="stroke:#000000;"/>
    <path clip-path="url(#p35ba3d96b8)" d="M 192.683635 159.014483 
L 188.854567 164.671789 
L 191.407858 159.364879 
z
" style="stroke:#000000;"/>
    <path clip-path="url(#p35ba3d96b8)" d="M 194.315143 191.298232 
L 193.657861 188.678267 
L 193.103351 188.660323 
z
" style="stroke:#000000;"/>
    <path clip-path="url(#p35ba3d96b8)" d="M 192.952525 182.676312 
L 194.157146 185.380319 
L 193.60201 185.366841 
z
" style="stroke:#000000;"/>
    <path clip-path="url(#p35ba3d96b8)" d="M 198.006193 196.10366 
L 199.615831 196.768802 
L 199.142912 194.962014 
z
" style="stroke:#000000;"/>
    <path clip-path="url(#p35ba3d96b8)" d="M 199.615831 157.514511 
L 198.006193 158.180635 
L 199.142912 159.321588 
z
" style="stroke:#000000;"/>
    <path clip-path="url(#p35ba3d96b8)" d="M 199.615831 196.768802 
L 198.006193 196.10366 
L 198.949663 197.148725 
z
" style="stroke:#000000;"/>
    <path clip-path="url(#p35ba3d96b8)" d="M 198.006193 158.180635 
L 199.615831 157.514511 
L 198.949663 157.134995 
z
" style="stroke:#000000;"/>
    <path clip-path="url(#p35ba3d96b8)" d="M 193.60201 168.915156 
L 193.506845 171.600901 
L 192.952525 171.606082 
z
" style="stroke:#000000;"/>
    <path clip-path="url(#p35ba3d96b8)" d="M 192.5599 179.924317 
L 193.506845 182.686142 
L 192.952525 182.676312 
z
" style="stroke:#000000;"/>
    <path clip-path="url(#p35ba3d96b8)" d="M 192.14644 168.388287 
L 193.657861 165.608683 
L 193.103351 165.621979 
z
" style="stroke:#000000;"/>
    <path clip-path="url(#p35ba3d96b8)" d="M 194.871175 191.319749 
L 195.768194 193.779083 
L 196.326052 193.803957 
z
" style="stroke:#000000;"/>
    <path clip-path="url(#p35ba3d96b8)" d="M 195.057322 166.303027 
L 195.639579 163.835509 
L 196.197276 163.819798 
z
" style="stroke:#000000;"/>
    <path clip-path="url(#p35ba3d96b8)" d="M 192.952525 171.606082 
L 193.113726 174.356867 
L 192.5599 174.358316 
z
" style="stroke:#000000;"/>
    <path clip-path="url(#p35ba3d96b8)" d="M 188.854567 164.671789 
L 192.683635 159.014483 
L 188.854567 167.506029 
z
" style="stroke:#000000;"/>
    <path clip-path="url(#p35ba3d96b8)" d="M 198.006193 196.10366 
L 199.142912 194.962014 
L 197.564238 192.800537 
z
" style="stroke:#000000;"/>
    <path clip-path="url(#p35ba3d96b8)" d="M 199.142912 159.321588 
L 198.006193 158.180635 
L 197.564238 161.484029 
z
" style="stroke:#000000;"/>
    <path clip-path="url(#p35ba3d96b8)" d="M 192.428526 177.141357 
L 193.113726 179.930416 
L 192.5599 179.924317 
z
" style="stroke:#000000;"/>
    <path clip-path="url(#p35ba3d96b8)" d="M 192.5599 174.358316 
L 192.982187 177.143681 
L 192.428526 177.141357 
z
" style="stroke:#000000;"/>
    <path clip-path="url(#p35ba3d96b8)" d="M 193.103351 188.660323 
L 192.699746 185.908794 
L 192.14644 185.894598 
z
" style="stroke:#000000;"/>
    <path clip-path="url(#p35ba3d96b8)" d="M 196.197276 190.465602 
L 194.501056 187.966071 
L 195.057322 187.983069 
z
" style="stroke:#000000;"/>
    <path clip-path="url(#p35ba3d96b8)" d="M 196.326052 160.481364 
L 194.315143 162.983331 
L 194.871175 162.966461 
z
" style="stroke:#000000;"/>
    <path clip-path="url(#p35ba3d96b8)" d="M 188.854567 156.169069 
L 191.407858 159.364879 
L 188.854567 157.586189 
z
" style="stroke:#000000;"/>
    <path clip-path="url(#p35ba3d96b8)" d="M 191.455133 171.251662 
L 192.699746 168.378741 
L 192.14644 168.388287 
z
" style="stroke:#000000;"/>
    <path clip-path="url(#p35ba3d96b8)" d="M 192.14644 185.894598 
L 192.00757 183.041959 
L 191.455133 183.031645 
z
" style="stroke:#000000;"/>
    <path clip-path="url(#p35ba3d96b8)" d="M 198.006193 196.10366 
L 197.564238 192.800537 
L 196.326052 193.803957 
z
" style="stroke:#000000;"/>
    <path clip-path="url(#p35ba3d96b8)" d="M 197.564238 161.484029 
L 198.006193 158.180635 
L 196.326052 160.481364 
z
" style="stroke:#000000;"/>
    <path clip-path="url(#p35ba3d96b8)" d="M 194.157146 168.906327 
L 194.501056 166.315379 
L 195.057322 166.303027 
z
" style="stroke:#000000;"/>
    <path clip-path="url(#p35ba3d96b8)" d="M 193.657861 188.678267 
L 194.315143 191.298232 
L 194.871175 191.319749 
z
" style="stroke:#000000;"/>
    <path clip-path="url(#p35ba3d96b8)" d="M 195.057322 187.983069 
L 193.60201 185.366841 
L 194.157146 185.380319 
z
" style="stroke:#000000;"/>
    <path clip-path="url(#p35ba3d96b8)" d="M 191.037213 174.180344 
L 192.00757 171.245999 
L 191.455133 171.251662 
z
" style="stroke:#000000;"/>
    <path clip-path="url(#p35ba3d96b8)" d="M 191.455133 183.031645 
L 191.589124 180.109561 
L 191.037213 180.103218 
z
" style="stroke:#000000;"/>
    <path clip-path="url(#p35ba3d96b8)" d="M 196.326052 193.803957 
L 197.564238 192.800537 
L 196.197276 190.465602 
z
" style="stroke:#000000;"/>
    <path clip-path="url(#p35ba3d96b8)" d="M 197.564238 161.484029 
L 196.326052 160.481364 
L 196.197276 163.819798 
z
" style="stroke:#000000;"/>
    <path clip-path="url(#p35ba3d96b8)" d="M 190.897385 177.141823 
L 191.589124 174.178653 
L 191.037213 174.180344 
z
" style="stroke:#000000;"/>
    <path clip-path="url(#p35ba3d96b8)" d="M 194.871175 162.966461 
L 193.103351 165.621979 
L 193.657861 165.608683 
z
" style="stroke:#000000;"/>
    <path clip-path="url(#p35ba3d96b8)" d="M 191.037213 180.103218 
L 191.44912 177.144149 
L 190.897385 177.141823 
z
" style="stroke:#000000;"/>
    <path clip-path="url(#p35ba3d96b8)" d="M 193.506845 171.600901 
L 193.60201 168.915156 
L 194.157146 168.906327 
z
" style="stroke:#000000;"/>
    <path clip-path="url(#p35ba3d96b8)" d="M 194.157146 185.380319 
L 192.952525 182.676312 
L 193.506845 182.686142 
z
" style="stroke:#000000;"/>
    <path clip-path="url(#p35ba3d96b8)" d="M 191.960235 159.343093 
L 188.854567 157.586189 
L 191.407858 159.364879 
z
" style="stroke:#000000;"/>
    <path clip-path="url(#p35ba3d96b8)" d="M 188.854567 164.671789 
L 191.960235 159.343093 
L 191.407858 159.364879 
z
" style="stroke:#000000;"/>
    <path clip-path="url(#p35ba3d96b8)" d="M 188.854567 156.169069 
L 188.854567 157.586189 
L 186.298957 159.350292 
z
" style="stroke:#000000;"/>
    <path clip-path="url(#p35ba3d96b8)" d="M 193.113726 174.356867 
L 192.952525 171.606082 
L 193.506845 171.600901 
z
" style="stroke:#000000;"/>
    <path clip-path="url(#p35ba3d96b8)" d="M 192.699746 185.908794 
L 193.103351 188.660323 
L 193.657861 188.678267 
z
" style="stroke:#000000;"/>
    <path clip-path="url(#p35ba3d96b8)" d="M 196.326052 193.803957 
L 196.197276 190.465602 
L 194.871175 191.319749 
z
" style="stroke:#000000;"/>
    <path clip-path="url(#p35ba3d96b8)" d="M 196.197276 163.819798 
L 196.326052 160.481364 
L 194.871175 162.966461 
z
" style="stroke:#000000;"/>
    <path clip-path="url(#p35ba3d96b8)" d="M 193.506845 182.686142 
L 192.5599 179.924317 
L 193.113726 179.930416 
z
" style="stroke:#000000;"/>
    <path clip-path="url(#p35ba3d96b8)" d="M 189.40373 156.142935 
L 192.683635 159.014483 
L 188.854567 156.169069 
z
" style="stroke:#000000;"/>
    <path clip-path="url(#p35ba3d96b8)" d="M 192.683635 159.014483 
L 189.40373 167.49528 
L 188.854567 167.506029 
z
" style="stroke:#000000;"/>
    <path clip-path="url(#p35ba3d96b8)" d="M 188.854567 164.671789 
L 188.854567 167.506029 
L 185.020282 158.992119 
z
" style="stroke:#000000;"/>
    <path clip-path="url(#p35ba3d96b8)" d="M 192.982187 177.143681 
L 192.5599 174.358316 
L 193.113726 174.356867 
z
" style="stroke:#000000;"/>
    <path clip-path="url(#p35ba3d96b8)" d="M 193.113726 179.930416 
L 192.428526 177.141357 
L 192.982187 177.143681 
z
" style="stroke:#000000;"/>
    <path clip-path="url(#p35ba3d96b8)" d="M 193.657861 165.608683 
L 192.14644 168.388287 
L 192.699746 168.378741 
z
" style="stroke:#000000;"/>
    <path clip-path="url(#p35ba3d96b8)" d="M 194.871175 191.319749 
L 196.197276 190.465602 
L 195.057322 187.983069 
z
" style="stroke:#000000;"/>
    <path clip-path="url(#p35ba3d96b8)" d="M 196.197276 163.819798 
L 194.871175 162.966461 
L 195.057322 166.303027 
z
" style="stroke:#000000;"/>
    <path clip-path="url(#p35ba3d96b8)" d="M 192.00757 183.041959 
L 192.14644 185.894598 
L 192.699746 185.908794 
z
" style="stroke:#000000;"/>
    <path clip-path="url(#p35ba3d96b8)" d="M 188.854567 156.169069 
L 186.298957 159.350292 
L 185.020282 158.992119 
z
" style="stroke:#000000;"/>
    <path clip-path="url(#p35ba3d96b8)" d="M 188.854567 164.671789 
L 185.020282 158.992119 
L 186.298957 159.350292 
z
" style="stroke:#000000;"/>
    <path clip-path="url(#p35ba3d96b8)" d="M 192.699746 168.378741 
L 191.455133 171.251662 
L 192.00757 171.245999 
z
" style="stroke:#000000;"/>
    <path clip-path="url(#p35ba3d96b8)" d="M 195.057322 187.983069 
L 193.657861 188.678267 
L 194.871175 191.319749 
z
" style="stroke:#000000;"/>
    <path clip-path="url(#p35ba3d96b8)" d="M 193.657861 165.608683 
L 195.057322 166.303027 
L 194.871175 162.966461 
z
" style="stroke:#000000;"/>
    <path clip-path="url(#p35ba3d96b8)" d="M 192.683635 159.014483 
L 189.40373 156.142935 
L 193.237617 158.992226 
z
" style="stroke:#000000;"/>
    <path clip-path="url(#p35ba3d96b8)" d="M 189.40373 167.49528 
L 192.683635 159.014483 
L 193.237617 158.992226 
z
" style="stroke:#000000;"/>
    <path clip-path="url(#p35ba3d96b8)" d="M 186.810265 177.143069 
L 185.276063 177.143537 
L 186.670227 174.179376 
z
" style="stroke:#000000;"/>
    <path clip-path="url(#p35ba3d96b8)" d="M 185.276063 177.143537 
L 186.810265 177.143069 
L 186.670227 180.106848 
z
" style="stroke:#000000;"/>
    <path clip-path="url(#p35ba3d96b8)" d="M 191.589124 180.109561 
L 191.455133 183.031645 
L 192.00757 183.041959 
z
" style="stroke:#000000;"/>
    <path clip-path="url(#p35ba3d96b8)" d="M 193.657861 188.678267 
L 195.057322 187.983069 
L 194.157146 185.380319 
z
" style="stroke:#000000;"/>
    <path clip-path="url(#p35ba3d96b8)" d="M 195.057322 166.303027 
L 193.657861 165.608683 
L 194.157146 168.906327 
z
" style="stroke:#000000;"/>
    <path clip-path="url(#p35ba3d96b8)" d="M 192.00757 171.245999 
L 191.037213 174.180344 
L 191.589124 174.178653 
z
" style="stroke:#000000;"/>
    <path clip-path="url(#p35ba3d96b8)" d="M 186.670227 174.179376 
L 185.144349 174.356907 
L 186.251595 171.2478 
z
" style="stroke:#000000;"/>
    <path clip-path="url(#p35ba3d96b8)" d="M 185.144349 179.930246 
L 186.670227 180.106848 
L 186.251595 183.038679 
z
" style="stroke:#000000;"/>
    <path clip-path="url(#p35ba3d96b8)" d="M 191.44912 177.144149 
L 191.037213 180.103218 
L 191.589124 180.109561 
z
" style="stroke:#000000;"/>
    <path clip-path="url(#p35ba3d96b8)" d="M 191.589124 174.178653 
L 190.897385 177.141823 
L 191.44912 177.144149 
z
" style="stroke:#000000;"/>
    <path clip-path="url(#p35ba3d96b8)" d="M 186.670227 180.106848 
L 185.144349 179.930246 
L 185.276063 177.143537 
z
" style="stroke:#000000;"/>
    <path clip-path="url(#p35ba3d96b8)" d="M 185.144349 174.356907 
L 186.670227 174.179376 
L 185.276063 177.143537 
z
" style="stroke:#000000;"/>
    <path clip-path="url(#p35ba3d96b8)" d="M 186.251595 171.2478 
L 184.750632 171.600509 
L 185.558839 168.380043 
z
" style="stroke:#000000;"/>
    <path clip-path="url(#p35ba3d96b8)" d="M 184.750632 182.686885 
L 186.251595 183.038679 
L 185.558839 185.906858 
z
" style="stroke:#000000;"/>
    <path clip-path="url(#p35ba3d96b8)" d="M 189.40373 157.561978 
L 186.298957 159.350292 
L 188.854567 157.586189 
z
" style="stroke:#000000;"/>
    <path clip-path="url(#p35ba3d96b8)" d="M 186.298957 159.350292 
L 189.40373 164.657194 
L 188.854567 164.671789 
z
" style="stroke:#000000;"/>
    <path clip-path="url(#p35ba3d96b8)" d="M 184.750632 171.600509 
L 186.251595 171.2478 
L 185.144349 174.356907 
z
" style="stroke:#000000;"/>
    <path clip-path="url(#p35ba3d96b8)" d="M 186.251595 183.038679 
L 184.750632 182.686885 
L 185.144349 179.930246 
z
" style="stroke:#000000;"/>
    <path clip-path="url(#p35ba3d96b8)" d="M 194.157146 185.380319 
L 192.699746 185.908794 
L 193.657861 188.678267 
z
" style="stroke:#000000;"/>
    <path clip-path="url(#p35ba3d96b8)" d="M 192.699746 168.378741 
L 194.157146 168.906327 
L 193.657861 165.608683 
z
" style="stroke:#000000;"/>
    <path clip-path="url(#p35ba3d96b8)" d="M 192.699746 185.908794 
L 194.157146 185.380319 
L 193.506845 182.686142 
z
" style="stroke:#000000;"/>
    <path clip-path="url(#p35ba3d96b8)" d="M 194.157146 168.906327 
L 192.699746 168.378741 
L 193.506845 171.600901 
z
" style="stroke:#000000;"/>
    <path clip-path="url(#p35ba3d96b8)" d="M 184.099102 168.904151 
L 185.558839 168.380043 
L 184.750632 171.600509 
z
" style="stroke:#000000;"/>
    <path clip-path="url(#p35ba3d96b8)" d="M 185.558839 185.906858 
L 184.099102 185.38364 
L 184.750632 182.686885 
z
" style="stroke:#000000;"/>
    <path clip-path="url(#p35ba3d96b8)" d="M 185.558839 168.380043 
L 184.099102 168.904151 
L 184.599358 165.607152 
z
" style="stroke:#000000;"/>
    <path clip-path="url(#p35ba3d96b8)" d="M 184.099102 185.38364 
L 185.558839 185.906858 
L 184.599358 188.680334 
z
" style="stroke:#000000;"/>
    <path clip-path="url(#p35ba3d96b8)" d="M 192.00757 183.041959 
L 193.506845 182.686142 
L 193.113726 179.930416 
z
" style="stroke:#000000;"/>
    <path clip-path="url(#p35ba3d96b8)" d="M 193.506845 171.600901 
L 192.00757 171.245999 
L 193.113726 174.356867 
z
" style="stroke:#000000;"/>
    <path clip-path="url(#p35ba3d96b8)" d="M 188.854567 157.586189 
L 191.960235 159.343093 
L 189.40373 157.561978 
z
" style="stroke:#000000;"/>
    <path clip-path="url(#p35ba3d96b8)" d="M 191.960235 159.343093 
L 188.854567 164.671789 
L 189.40373 164.657194 
z
" style="stroke:#000000;"/>
    <path clip-path="url(#p35ba3d96b8)" d="M 193.506845 182.686142 
L 192.00757 183.041959 
L 192.699746 185.908794 
z
" style="stroke:#000000;"/>
    <path clip-path="url(#p35ba3d96b8)" d="M 192.00757 171.245999 
L 193.506845 171.600901 
L 192.699746 168.378741 
z
" style="stroke:#000000;"/>
    <path clip-path="url(#p35ba3d96b8)" d="M 193.113726 174.356867 
L 191.589124 174.178653 
L 192.982187 177.143681 
z
" style="stroke:#000000;"/>
    <path clip-path="url(#p35ba3d96b8)" d="M 191.589124 180.109561 
L 193.113726 179.930416 
L 192.982187 177.143681 
z
" style="stroke:#000000;"/>
    <path clip-path="url(#p35ba3d96b8)" d="M 186.670227 174.179376 
L 187.356853 177.145399 
L 186.810265 177.143069 
z
" style="stroke:#000000;"/>
    <path clip-path="url(#p35ba3d96b8)" d="M 186.810265 177.143069 
L 187.216638 180.113201 
L 186.670227 180.106848 
z
" style="stroke:#000000;"/>
    <path clip-path="url(#p35ba3d96b8)" d="M 193.113726 179.930416 
L 191.589124 180.109561 
L 192.00757 183.041959 
z
" style="stroke:#000000;"/>
    <path clip-path="url(#p35ba3d96b8)" d="M 191.589124 174.178653 
L 193.113726 174.356867 
L 192.00757 171.245999 
z
" style="stroke:#000000;"/>
    <path clip-path="url(#p35ba3d96b8)" d="M 186.251595 171.2478 
L 187.216638 174.177682 
L 186.670227 174.179376 
z
" style="stroke:#000000;"/>
    <path clip-path="url(#p35ba3d96b8)" d="M 183.196725 166.297058 
L 184.599358 165.607152 
L 184.099102 168.904151 
z
" style="stroke:#000000;"/>
    <path clip-path="url(#p35ba3d96b8)" d="M 184.599358 188.680334 
L 183.196725 187.991283 
L 184.099102 185.38364 
z
" style="stroke:#000000;"/>
    <path clip-path="url(#p35ba3d96b8)" d="M 186.670227 180.106848 
L 186.797479 183.049013 
L 186.251595 183.038679 
z
" style="stroke:#000000;"/>
    <path clip-path="url(#p35ba3d96b8)" d="M 192.982187 177.143681 
L 191.44912 177.144149 
L 191.589124 180.109561 
z
" style="stroke:#000000;"/>
    <path clip-path="url(#p35ba3d96b8)" d="M 191.44912 177.144149 
L 192.982187 177.143681 
L 191.589124 174.178653 
z
" style="stroke:#000000;"/>
    <path clip-path="url(#p35ba3d96b8)" d="M 185.564613 158.969801 
L 188.854567 156.169069 
L 185.020282 158.992119 
z
" style="stroke:#000000;"/>
    <path clip-path="url(#p35ba3d96b8)" d="M 188.854567 167.506029 
L 185.564613 158.969801 
L 185.020282 158.992119 
z
" style="stroke:#000000;"/>
    <path clip-path="url(#p35ba3d96b8)" d="M 184.599358 165.607152 
L 183.196725 166.297058 
L 183.383374 162.959136 
z
" style="stroke:#000000;"/>
    <path clip-path="url(#p35ba3d96b8)" d="M 183.196725 187.991283 
L 184.599358 188.680334 
L 183.383374 191.329092 
z
" style="stroke:#000000;"/>
    <path clip-path="url(#p35ba3d96b8)" d="M 185.558839 168.380043 
L 186.797479 171.242126 
L 186.251595 171.2478 
z
" style="stroke:#000000;"/>
    <path clip-path="url(#p35ba3d96b8)" d="M 189.40373 164.657194 
L 193.237617 158.992226 
L 191.960235 159.343093 
z
" style="stroke:#000000;"/>
    <path clip-path="url(#p35ba3d96b8)" d="M 189.40373 156.142935 
L 191.960235 159.343093 
L 193.237617 158.992226 
z
" style="stroke:#000000;"/>
    <path clip-path="url(#p35ba3d96b8)" d="M 186.251595 183.038679 
L 186.103849 185.921088 
L 185.558839 185.906858 
z
" style="stroke:#000000;"/>
    <path clip-path="url(#p35ba3d96b8)" d="M 182.053155 163.807491 
L 183.383374 162.959136 
L 183.196725 166.297058 
z
" style="stroke:#000000;"/>
    <path clip-path="url(#p35ba3d96b8)" d="M 183.383374 191.329092 
L 182.053155 190.481547 
L 183.196725 187.991283 
z
" style="stroke:#000000;"/>
    <path clip-path="url(#p35ba3d96b8)" d="M 184.599358 165.607152 
L 186.103849 168.370475 
L 185.558839 168.380043 
z
" style="stroke:#000000;"/>
    <path clip-path="url(#p35ba3d96b8)" d="M 185.144349 179.930246 
L 185.820717 177.145868 
L 185.276063 177.143537 
z
" style="stroke:#000000;"/>
    <path clip-path="url(#p35ba3d96b8)" d="M 185.276063 177.143537 
L 185.688836 174.355454 
L 185.144349 174.356907 
z
" style="stroke:#000000;"/>
    <path clip-path="url(#p35ba3d96b8)" d="M 193.237617 158.992226 
L 189.40373 164.657194 
L 189.40373 167.49528 
z
" style="stroke:#000000;"/>
    <path clip-path="url(#p35ba3d96b8)" d="M 188.854567 156.169069 
L 185.564613 158.969801 
L 189.40373 156.142935 
z
" style="stroke:#000000;"/>
    <path clip-path="url(#p35ba3d96b8)" d="M 185.564613 158.969801 
L 188.854567 167.506029 
L 189.40373 167.49528 
z
" style="stroke:#000000;"/>
    <path clip-path="url(#p35ba3d96b8)" d="M 184.750632 182.686885 
L 185.688836 179.936362 
L 185.144349 179.930246 
z
" style="stroke:#000000;"/>
    <path clip-path="url(#p35ba3d96b8)" d="M 183.383374 162.959136 
L 182.053155 163.807491 
L 181.923912 160.464832 
z
" style="stroke:#000000;"/>
    <path clip-path="url(#p35ba3d96b8)" d="M 182.053155 190.481547 
L 183.383374 191.329092 
L 181.923912 193.824285 
z
" style="stroke:#000000;"/>
    <path clip-path="url(#p35ba3d96b8)" d="M 185.558839 185.906858 
L 185.143158 188.698333 
L 184.599358 188.680334 
z
" style="stroke:#000000;"/>
    <path clip-path="url(#p35ba3d96b8)" d="M 185.144349 174.356907 
L 185.294623 171.595313 
L 184.750632 171.600509 
z
" style="stroke:#000000;"/>
    <path clip-path="url(#p35ba3d96b8)" d="M 191.960235 159.343093 
L 189.40373 156.142935 
L 189.40373 157.561978 
z
" style="stroke:#000000;"/>
    <path clip-path="url(#p35ba3d96b8)" d="M 186.298957 159.350292 
L 189.40373 157.561978 
L 186.8449 159.328465 
z
" style="stroke:#000000;"/>
    <path clip-path="url(#p35ba3d96b8)" d="M 189.40373 164.657194 
L 186.298957 159.350292 
L 186.8449 159.328465 
z
" style="stroke:#000000;"/>
    <path clip-path="url(#p35ba3d96b8)" d="M 184.099102 185.38364 
L 185.294623 182.696744 
L 184.750632 182.686885 
z
" style="stroke:#000000;"/>
    <path clip-path="url(#p35ba3d96b8)" d="M 184.750632 171.600509 
L 184.642271 168.895292 
L 184.099102 168.904151 
z
" style="stroke:#000000;"/>
    <path clip-path="url(#p35ba3d96b8)" d="M 187.216638 180.113201 
L 186.810265 177.143069 
L 187.356853 177.145399 
z
" style="stroke:#000000;"/>
    <path clip-path="url(#p35ba3d96b8)" d="M 183.383374 162.959136 
L 185.143158 165.593816 
L 184.599358 165.607152 
z
" style="stroke:#000000;"/>
    <path clip-path="url(#p35ba3d96b8)" d="M 187.356853 177.145399 
L 186.670227 174.179376 
L 187.216638 174.177682 
z
" style="stroke:#000000;"/>
    <path clip-path="url(#p35ba3d96b8)" d="M 181.923912 160.464832 
L 182.053155 163.807491 
L 180.680631 161.462449 
z
" style="stroke:#000000;"/>
    <path clip-path="url(#p35ba3d96b8)" d="M 182.053155 190.481547 
L 181.923912 193.824285 
L 180.680631 192.827426 
z
" style="stroke:#000000;"/>
    <path clip-path="url(#p35ba3d96b8)" d="M 186.797479 183.049013 
L 186.670227 180.106848 
L 187.216638 180.113201 
z
" style="stroke:#000000;"/>
    <path clip-path="url(#p35ba3d96b8)" d="M 187.216638 174.177682 
L 186.251595 171.2478 
L 186.797479 171.242126 
z
" style="stroke:#000000;"/>
    <path clip-path="url(#p35ba3d96b8)" d="M 183.196725 187.991283 
L 184.642271 185.397163 
L 184.099102 185.38364 
z
" style="stroke:#000000;"/>
    <path clip-path="url(#p35ba3d96b8)" d="M 184.599358 188.680334 
L 183.92564 191.350692 
L 183.383374 191.329092 
z
" style="stroke:#000000;"/>
    <path clip-path="url(#p35ba3d96b8)" d="M 181.923912 160.464832 
L 180.680631 161.462449 
L 180.236593 158.151223 
z
" style="stroke:#000000;"/>
    <path clip-path="url(#p35ba3d96b8)" d="M 180.680631 192.827426 
L 181.923912 193.824285 
L 180.236593 196.138922 
z
" style="stroke:#000000;"/>
    <path clip-path="url(#p35ba3d96b8)" d="M 184.099102 168.904151 
L 183.738755 166.284656 
L 183.196725 166.297058 
z
" style="stroke:#000000;"/>
    <path clip-path="url(#p35ba3d96b8)" d="M 186.103849 185.921088 
L 186.251595 183.038679 
L 186.797479 183.049013 
z
" style="stroke:#000000;"/>
    <path clip-path="url(#p35ba3d96b8)" d="M 186.797479 171.242126 
L 185.558839 168.380043 
L 186.103849 168.370475 
z
" style="stroke:#000000;"/>
    <path clip-path="url(#p35ba3d96b8)" d="M 189.40373 156.142935 
L 186.8449 159.328465 
L 189.40373 157.561978 
z
" style="stroke:#000000;"/>
    <path clip-path="url(#p35ba3d96b8)" d="M 181.923912 160.464832 
L 183.92564 162.9422 
L 183.383374 162.959136 
z
" style="stroke:#000000;"/>
    <path clip-path="url(#p35ba3d96b8)" d="M 182.053155 190.481547 
L 183.738755 188.00835 
L 183.196725 187.991283 
z
" style="stroke:#000000;"/>
    <path clip-path="url(#p35ba3d96b8)" d="M 185.143158 188.698333 
L 185.558839 185.906858 
L 186.103849 185.921088 
z
" style="stroke:#000000;"/>
    <path clip-path="url(#p35ba3d96b8)" d="M 185.688836 174.355454 
L 185.276063 177.143537 
L 185.820717 177.145868 
z
" style="stroke:#000000;"/>
    <path clip-path="url(#p35ba3d96b8)" d="M 185.820717 177.145868 
L 185.144349 179.930246 
L 185.688836 179.936362 
z
" style="stroke:#000000;"/>
    <path clip-path="url(#p35ba3d96b8)" d="M 180.236593 158.151223 
L 180.680631 161.462449 
L 179.093871 159.287585 
z
" style="stroke:#000000;"/>
    <path clip-path="url(#p35ba3d96b8)" d="M 180.680631 192.827426 
L 180.236593 196.138922 
L 179.093871 195.003257 
z
" style="stroke:#000000;"/>
    <path clip-path="url(#p35ba3d96b8)" d="M 189.40373 164.657194 
L 185.564613 158.969801 
L 189.40373 167.49528 
z
" style="stroke:#000000;"/>
    <path clip-path="url(#p35ba3d96b8)" d="M 185.294623 171.595313 
L 185.144349 174.356907 
L 185.688836 174.355454 
z
" style="stroke:#000000;"/>
    <path clip-path="url(#p35ba3d96b8)" d="M 183.196725 166.297058 
L 182.593742 163.791704 
L 182.053155 163.807491 
z
" style="stroke:#000000;"/>
    <path clip-path="url(#p35ba3d96b8)" d="M 183.383374 191.329092 
L 182.464336 193.849281 
L 181.923912 193.824285 
z
" style="stroke:#000000;"/>
    <path clip-path="url(#p35ba3d96b8)" d="M 186.103849 168.370475 
L 184.599358 165.607152 
L 185.143158 165.593816 
z
" style="stroke:#000000;"/>
    <path clip-path="url(#p35ba3d96b8)" d="M 185.688836 179.936362 
L 184.750632 182.686885 
L 185.294623 182.696744 
z
" style="stroke:#000000;"/>
    <path clip-path="url(#p35ba3d96b8)" d="M 184.642271 168.895292 
L 184.750632 171.600509 
L 185.294623 171.595313 
z
" style="stroke:#000000;"/>
    <path clip-path="url(#p35ba3d96b8)" d="M 180.236593 158.151223 
L 178.618182 157.473668 
L 179.288206 157.097638 
z
" style="stroke:#000000;"/>
    <path clip-path="url(#p35ba3d96b8)" d="M 178.618182 196.817465 
L 180.236593 196.138922 
L 179.288206 197.193085 
z
" style="stroke:#000000;"/>
    <path clip-path="url(#p35ba3d96b8)" d="M 178.618182 157.473668 
L 180.236593 158.151223 
L 179.093871 159.287585 
z
" style="stroke:#000000;"/>
    <path clip-path="url(#p35ba3d96b8)" d="M 180.236593 196.138922 
L 178.618182 196.817465 
L 179.093871 195.003257 
z
" style="stroke:#000000;"/>
    <path clip-path="url(#p35ba3d96b8)" d="M 185.294623 182.696744 
L 184.099102 185.38364 
L 184.642271 185.397163 
z
" style="stroke:#000000;"/>
    <path clip-path="url(#p35ba3d96b8)" d="M 183.92564 191.350692 
L 184.599358 188.680334 
L 185.143158 188.698333 
z
" style="stroke:#000000;"/>
    <path clip-path="url(#p35ba3d96b8)" d="M 185.564613 158.969801 
L 189.40373 164.657194 
L 186.8449 159.328465 
z
" style="stroke:#000000;"/>
    <path clip-path="url(#p35ba3d96b8)" d="M 186.8449 159.328465 
L 189.40373 156.142935 
L 185.564613 158.969801 
z
" style="stroke:#000000;"/>
    <path clip-path="url(#p35ba3d96b8)" d="M 180.680631 192.827426 
L 182.593742 190.502001 
L 182.053155 190.481547 
z
" style="stroke:#000000;"/>
    <path clip-path="url(#p35ba3d96b8)" d="M 180.236593 158.151223 
L 182.464336 160.444503 
L 181.923912 160.464832 
z
" style="stroke:#000000;"/>
    <path clip-path="url(#p35ba3d96b8)" d="M 183.738755 166.284656 
L 184.099102 168.904151 
L 184.642271 168.895292 
z
" style="stroke:#000000;"/>
    <path clip-path="url(#p35ba3d96b8)" d="M 185.143158 165.593816 
L 183.383374 162.959136 
L 183.92564 162.9422 
z
" style="stroke:#000000;"/>
    <path clip-path="url(#p35ba3d96b8)" d="M 187.356853 177.145399 
L 185.820717 177.145868 
L 187.216638 180.113201 
z
" style="stroke:#000000;"/>
    <path clip-path="url(#p35ba3d96b8)" d="M 185.820717 177.145868 
L 187.356853 177.145399 
L 187.216638 174.177682 
z
" style="stroke:#000000;"/>
    <path clip-path="url(#p35ba3d96b8)" d="M 182.053155 163.807491 
L 181.219485 161.443471 
L 180.680631 161.462449 
z
" style="stroke:#000000;"/>
    <path clip-path="url(#p35ba3d96b8)" d="M 178.618182 157.473668 
L 179.093871 159.287585 
L 177.914293 157.977696 
z
" style="stroke:#000000;"/>
    <path clip-path="url(#p35ba3d96b8)" d="M 179.093871 195.003257 
L 178.618182 196.817465 
L 177.914293 196.313865 
z
" style="stroke:#000000;"/>
    <path clip-path="url(#p35ba3d96b8)" d="M 184.642271 185.397163 
L 183.196725 187.991283 
L 183.738755 188.00835 
z
" style="stroke:#000000;"/>
    <path clip-path="url(#p35ba3d96b8)" d="M 187.216638 180.113201 
L 185.688836 179.936362 
L 186.797479 183.049013 
z
" style="stroke:#000000;"/>
    <path clip-path="url(#p35ba3d96b8)" d="M 185.688836 174.355454 
L 187.216638 174.177682 
L 186.797479 171.242126 
z
" style="stroke:#000000;"/>
    <path clip-path="url(#p35ba3d96b8)" d="M 181.923912 193.824285 
L 180.774885 196.167072 
L 180.236593 196.138922 
z
" style="stroke:#000000;"/>
    <path clip-path="url(#p35ba3d96b8)" d="M 187.216638 174.177682 
L 185.688836 174.355454 
L 185.820717 177.145868 
z
" style="stroke:#000000;"/>
    <path clip-path="url(#p35ba3d96b8)" d="M 185.688836 179.936362 
L 187.216638 180.113201 
L 185.820717 177.145868 
z
" style="stroke:#000000;"/>
    <path clip-path="url(#p35ba3d96b8)" d="M 186.797479 183.049013 
L 185.294623 182.696744 
L 186.103849 185.921088 
z
" style="stroke:#000000;"/>
    <path clip-path="url(#p35ba3d96b8)" d="M 185.294623 171.595313 
L 186.797479 171.242126 
L 186.103849 168.370475 
z
" style="stroke:#000000;"/>
    <path clip-path="url(#p35ba3d96b8)" d="M 182.464336 193.849281 
L 183.383374 191.329092 
L 183.92564 191.350692 
z
" style="stroke:#000000;"/>
    <path clip-path="url(#p35ba3d96b8)" d="M 185.294623 182.696744 
L 186.797479 183.049013 
L 185.688836 179.936362 
z
" style="stroke:#000000;"/>
    <path clip-path="url(#p35ba3d96b8)" d="M 186.797479 171.242126 
L 185.294623 171.595313 
L 185.688836 174.355454 
z
" style="stroke:#000000;"/>
    <path clip-path="url(#p35ba3d96b8)" d="M 182.593742 163.791704 
L 183.196725 166.297058 
L 183.738755 166.284656 
z
" style="stroke:#000000;"/>
    <path clip-path="url(#p35ba3d96b8)" d="M 179.093871 195.003257 
L 181.219485 192.851073 
L 180.680631 192.827426 
z
" style="stroke:#000000;"/>
    <path clip-path="url(#p35ba3d96b8)" d="M 179.288206 157.097638 
L 180.774885 158.127744 
L 180.236593 158.151223 
z
" style="stroke:#000000;"/>
    <path clip-path="url(#p35ba3d96b8)" d="M 183.738755 188.00835 
L 182.053155 190.481547 
L 182.593742 190.502001 
z
" style="stroke:#000000;"/>
    <path clip-path="url(#p35ba3d96b8)" d="M 183.92564 162.9422 
L 181.923912 160.464832 
L 182.464336 160.444503 
z
" style="stroke:#000000;"/>
    <path clip-path="url(#p35ba3d96b8)" d="M 184.642271 185.397163 
L 186.103849 185.921088 
L 185.294623 182.696744 
z
" style="stroke:#000000;"/>
    <path clip-path="url(#p35ba3d96b8)" d="M 186.103849 168.370475 
L 184.642271 168.895292 
L 185.294623 171.595313 
z
" style="stroke:#000000;"/>
    <path clip-path="url(#p35ba3d96b8)" d="M 186.103849 185.921088 
L 184.642271 185.397163 
L 185.143158 188.698333 
z
" style="stroke:#000000;"/>
    <path clip-path="url(#p35ba3d96b8)" d="M 184.642271 168.895292 
L 186.103849 168.370475 
L 185.143158 165.593816 
z
" style="stroke:#000000;"/>
    <path clip-path="url(#p35ba3d96b8)" d="M 180.680631 161.462449 
L 179.630719 159.265646 
L 179.093871 159.287585 
z
" style="stroke:#000000;"/>
    <path clip-path="url(#p35ba3d96b8)" d="M 180.236593 196.138922 
L 179.8253 197.222673 
L 179.288206 197.193085 
z
" style="stroke:#000000;"/>
    <path clip-path="url(#p35ba3d96b8)" d="M 179.8253 197.222673 
L 178.618182 196.817465 
L 179.288206 197.193085 
z
" style="stroke:#000000;"/>
    <path clip-path="url(#p35ba3d96b8)" d="M 181.219485 161.443471 
L 182.053155 163.807491 
L 182.593742 163.791704 
z
" style="stroke:#000000;"/>
    <path clip-path="url(#p35ba3d96b8)" d="M 183.738755 188.00835 
L 185.143158 188.698333 
L 184.642271 185.397163 
z
" style="stroke:#000000;"/>
    <path clip-path="url(#p35ba3d96b8)" d="M 185.143158 165.593816 
L 183.738755 166.284656 
L 184.642271 168.895292 
z
" style="stroke:#000000;"/>
    <path clip-path="url(#p35ba3d96b8)" d="M 179.154429 157.44926 
L 179.288206 157.097638 
L 178.618182 157.473668 
z
" style="stroke:#000000;"/>
    <path clip-path="url(#p35ba3d96b8)" d="M 180.774885 196.167072 
L 181.923912 193.824285 
L 182.464336 193.849281 
z
" style="stroke:#000000;"/>
    <path clip-path="url(#p35ba3d96b8)" d="M 179.630719 159.265646 
L 177.914293 157.977696 
L 179.093871 159.287585 
z
" style="stroke:#000000;"/>
    <path clip-path="url(#p35ba3d96b8)" d="M 185.143158 188.698333 
L 183.738755 188.00835 
L 183.92564 191.350692 
z
" style="stroke:#000000;"/>
    <path clip-path="url(#p35ba3d96b8)" d="M 183.738755 166.284656 
L 185.143158 165.593816 
L 183.92564 162.9422 
z
" style="stroke:#000000;"/>
    <path clip-path="url(#p35ba3d96b8)" d="M 182.593742 190.502001 
L 180.680631 192.827426 
L 181.219485 192.851073 
z
" style="stroke:#000000;"/>
    <path clip-path="url(#p35ba3d96b8)" d="M 179.154429 196.846545 
L 177.914293 196.313865 
L 178.618182 196.817465 
z
" style="stroke:#000000;"/>
    <path clip-path="url(#p35ba3d96b8)" d="M 178.44965 196.342264 
L 179.093871 195.003257 
L 177.914293 196.313865 
z
" style="stroke:#000000;"/>
    <path clip-path="url(#p35ba3d96b8)" d="M 182.464336 160.444503 
L 180.236593 158.151223 
L 180.774885 158.127744 
z
" style="stroke:#000000;"/>
    <path clip-path="url(#p35ba3d96b8)" d="M 178.44965 157.953971 
L 178.618182 157.473668 
L 177.914293 157.977696 
z
" style="stroke:#000000;"/>
    <path clip-path="url(#p35ba3d96b8)" d="M 182.593742 190.502001 
L 183.92564 191.350692 
L 183.738755 188.00835 
z
" style="stroke:#000000;"/>
    <path clip-path="url(#p35ba3d96b8)" d="M 183.92564 162.9422 
L 182.593742 163.791704 
L 183.738755 166.284656 
z
" style="stroke:#000000;"/>
    <path clip-path="url(#p35ba3d96b8)" d="M 179.630719 159.265646 
L 180.680631 161.462449 
L 181.219485 161.443471 
z
" style="stroke:#000000;"/>
    <path clip-path="url(#p35ba3d96b8)" d="M 179.8253 197.222673 
L 180.236593 196.138922 
L 180.774885 196.167072 
z
" style="stroke:#000000;"/>
    <path clip-path="url(#p35ba3d96b8)" d="M 183.92564 191.350692 
L 182.593742 190.502001 
L 182.464336 193.849281 
z
" style="stroke:#000000;"/>
    <path clip-path="url(#p35ba3d96b8)" d="M 182.593742 163.791704 
L 183.92564 162.9422 
L 182.464336 160.444503 
z
" style="stroke:#000000;"/>
    <path clip-path="url(#p35ba3d96b8)" d="M 181.219485 192.851073 
L 179.093871 195.003257 
L 179.630719 195.029869 
z
" style="stroke:#000000;"/>
    <path clip-path="url(#p35ba3d96b8)" d="M 180.774885 158.127744 
L 179.288206 157.097638 
L 179.8253 157.072723 
z
" style="stroke:#000000;"/>
    <path clip-path="url(#p35ba3d96b8)" d="M 179.288206 157.097638 
L 179.154429 157.44926 
L 179.8253 157.072723 
z
" style="stroke:#000000;"/>
    <path clip-path="url(#p35ba3d96b8)" d="M 182.464336 193.849281 
L 182.593742 190.502001 
L 181.219485 192.851073 
z
" style="stroke:#000000;"/>
    <path clip-path="url(#p35ba3d96b8)" d="M 182.593742 163.791704 
L 182.464336 160.444503 
L 181.219485 161.443471 
z
" style="stroke:#000000;"/>
    <path clip-path="url(#p35ba3d96b8)" d="M 178.618182 196.817465 
L 179.8253 197.222673 
L 179.154429 196.846545 
z
" style="stroke:#000000;"/>
    <path clip-path="url(#p35ba3d96b8)" d="M 179.093871 195.003257 
L 178.44965 196.342264 
L 179.630719 195.029869 
z
" style="stroke:#000000;"/>
    <path clip-path="url(#p35ba3d96b8)" d="M 182.464336 193.849281 
L 181.219485 192.851073 
L 180.774885 196.167072 
z
" style="stroke:#000000;"/>
    <path clip-path="url(#p35ba3d96b8)" d="M 181.219485 161.443471 
L 182.464336 160.444503 
L 180.774885 158.127744 
z
" style="stroke:#000000;"/>
    <path clip-path="url(#p35ba3d96b8)" d="M 178.618182 157.473668 
L 178.44965 157.953971 
L 179.154429 157.44926 
z
" style="stroke:#000000;"/>
    <path clip-path="url(#p35ba3d96b8)" d="M 177.914293 157.977696 
L 179.630719 159.265646 
L 178.44965 157.953971 
z
" style="stroke:#000000;"/>
    <path clip-path="url(#p35ba3d96b8)" d="M 177.914293 196.313865 
L 179.154429 196.846545 
L 178.44965 196.342264 
z
" style="stroke:#000000;"/>
    <path clip-path="url(#p35ba3d96b8)" d="M 180.774885 196.167072 
L 181.219485 192.851073 
L 179.630719 195.029869 
z
" style="stroke:#000000;"/>
    <path clip-path="url(#p35ba3d96b8)" d="M 181.219485 161.443471 
L 180.774885 158.127744 
L 179.630719 159.265646 
z
" style="stroke:#000000;"/>
    <path clip-path="url(#p35ba3d96b8)" d="M 180.774885 196.167072 
L 179.154429 196.846545 
L 179.8253 197.222673 
z
" style="stroke:#000000;"/>
    <path clip-path="url(#p35ba3d96b8)" d="M 179.154429 157.44926 
L 180.774885 158.127744 
L 179.8253 157.072723 
z
" style="stroke:#000000;"/>
    <path clip-path="url(#p35ba3d96b8)" d="M 179.154429 196.846545 
L 180.774885 196.167072 
L 179.630719 195.029869 
z
" style="stroke:#000000;"/>
    <path clip-path="url(#p35ba3d96b8)" d="M 180.774885 158.127744 
L 179.154429 157.44926 
L 179.630719 159.265646 
z
" style="stroke:#000000;"/>
    <path clip-path="url(#p35ba3d96b8)" d="M 179.154429 196.846545 
L 179.630719 195.029869 
L 178.44965 196.342264 
z
" style="stroke:#000000;"/>
    <path clip-path="url(#p35ba3d96b8)" d="M 179.630719 159.265646 
L 179.154429 157.44926 
L 178.44965 157.953971 
z
" style="stroke:#000000;"/>
   </g>
  </g>
 </g>
 <defs>
  <clipPath id="p35ba3d96b8">
   <rect height="271.8" width="279" x="45" y="43.2"/>
  </clipPath>
 </defs>
</svg>
