<?xml version="1.0" encoding="utf-8" standalone="no"?>
<!DOCTYPE svg PUBLIC "-//W3C//DTD SVG 1.1//EN"
  "http://www.w3.org/Graphics/SVG/1.1/DTD/svg11.dtd">
<!-- Created with matplotlib (https://matplotlib.org/) -->
<svg height="360pt" version="1.1" viewBox="0 0 360 360" width="360pt" xmlns="http://www.w3.org/2000/svg" xmlns:xlink="http://www.w3.org/1999/xlink">
 <defs>
  <style type="text/css">
*{stroke-linecap:butt;stroke-linejoin:round;}
  </style>
 </defs>
 <g id="figure_1">
  <g id="patch_1">
   <path d="M 0 360 
L 360 360 
L 360 0 
L 0 0 
z
" style="fill:#ffffff;"/>
  </g>
  <g id="patch_2">
   <path d="M 45 315 
L 324 315 
L 324 43.2 
L 45 43.2 
z
" style="fill:#ffffff;"/>
  </g>
  <g id="axes_1">
   <g id="Poly3DCollection_1">
    <path clip-path="url(#pf328a27c94)" d="M 180.702233 157.798655 
L 181.168587 159.579472 
L 180.012444 158.298468 
z
" style="stroke:#000000;"/>
    <path clip-path="url(#pf328a27c94)" d="M 181.168587 194.701515 
L 180.702233 196.482047 
L 180.012444 195.981814 
z
" style="stroke:#000000;"/>
    <path clip-path="url(#pf328a27c94)" d="M 180.702233 157.798655 
L 182.289521 158.455169 
L 181.168587 159.579472 
z
" style="stroke:#000000;"/>
    <path clip-path="url(#pf328a27c94)" d="M 182.289521 195.826501 
L 180.702233 196.482047 
L 181.168587 194.701515 
z
" style="stroke:#000000;"/>
    <path clip-path="url(#pf328a27c94)" d="M 182.289521 158.455169 
L 180.702233 157.798655 
L 181.359153 157.424692 
z
" style="stroke:#000000;"/>
    <path clip-path="url(#pf328a27c94)" d="M 180.702233 196.482047 
L 182.289521 195.826501 
L 181.359153 196.85641 
z
" style="stroke:#000000;"/>
    <path clip-path="url(#pf328a27c94)" d="M 182.289521 158.455169 
L 182.725337 161.710524 
L 181.168587 159.579472 
z
" style="stroke:#000000;"/>
    <path clip-path="url(#pf328a27c94)" d="M 182.725337 192.571412 
L 182.289521 195.826501 
L 181.168587 194.701515 
z
" style="stroke:#000000;"/>
    <path clip-path="url(#pf328a27c94)" d="M 179.461338 158.275576 
L 180.702233 157.798655 
L 180.012444 158.298468 
z
" style="stroke:#000000;"/>
    <path clip-path="url(#pf328a27c94)" d="M 179.461338 196.009285 
L 181.168587 194.701515 
L 180.012444 195.981814 
z
" style="stroke:#000000;"/>
    <path clip-path="url(#pf328a27c94)" d="M 180.151982 196.51019 
L 180.012444 195.981814 
L 180.702233 196.482047 
z
" style="stroke:#000000;"/>
    <path clip-path="url(#pf328a27c94)" d="M 183.94632 160.722499 
L 182.725337 161.710524 
L 182.289521 158.455169 
z
" style="stroke:#000000;"/>
    <path clip-path="url(#pf328a27c94)" d="M 182.725337 192.571412 
L 183.94632 193.560181 
L 182.289521 195.826501 
z
" style="stroke:#000000;"/>
    <path clip-path="url(#pf328a27c94)" d="M 180.618914 159.558288 
L 180.012444 158.298468 
L 181.168587 159.579472 
z
" style="stroke:#000000;"/>
    <path clip-path="url(#pf328a27c94)" d="M 180.151982 157.775092 
L 181.359153 157.424692 
L 180.702233 157.798655 
z
" style="stroke:#000000;"/>
    <path clip-path="url(#pf328a27c94)" d="M 183.94632 160.722499 
L 184.073306 164.012356 
L 182.725337 161.710524 
z
" style="stroke:#000000;"/>
    <path clip-path="url(#pf328a27c94)" d="M 184.073306 190.270401 
L 183.94632 193.560181 
L 182.725337 192.571412 
z
" style="stroke:#000000;"/>
    <path clip-path="url(#pf328a27c94)" d="M 180.809716 196.885057 
L 180.702233 196.482047 
L 181.359153 196.85641 
z
" style="stroke:#000000;"/>
    <path clip-path="url(#pf328a27c94)" d="M 182.289521 195.826501 
L 180.809716 196.885057 
L 181.359153 196.85641 
z
" style="stroke:#000000;"/>
    <path clip-path="url(#pf328a27c94)" d="M 182.725337 161.710524 
L 180.618914 159.558288 
L 181.168587 159.579472 
z
" style="stroke:#000000;"/>
    <path clip-path="url(#pf328a27c94)" d="M 185.380971 163.171485 
L 184.073306 164.012356 
L 183.94632 160.722499 
z
" style="stroke:#000000;"/>
    <path clip-path="url(#pf328a27c94)" d="M 184.073306 190.270401 
L 185.380971 191.11207 
L 183.94632 193.560181 
z
" style="stroke:#000000;"/>
    <path clip-path="url(#pf328a27c94)" d="M 181.359153 157.424692 
L 181.741237 158.432477 
L 182.289521 158.455169 
z
" style="stroke:#000000;"/>
    <path clip-path="url(#pf328a27c94)" d="M 181.168587 194.701515 
L 182.177593 192.594336 
L 182.725337 192.571412 
z
" style="stroke:#000000;"/>
    <path clip-path="url(#pf328a27c94)" d="M 184.073306 164.012356 
L 185.380971 163.171485 
L 185.197413 166.459479 
z
" style="stroke:#000000;"/>
    <path clip-path="url(#pf328a27c94)" d="M 185.380971 191.11207 
L 184.073306 190.270401 
L 185.197413 187.823963 
z
" style="stroke:#000000;"/>
    <path clip-path="url(#pf328a27c94)" d="M 180.012444 195.981814 
L 180.151982 196.51019 
L 179.461338 196.009285 
z
" style="stroke:#000000;"/>
    <path clip-path="url(#pf328a27c94)" d="M 183.94632 193.560181 
L 181.741237 195.853775 
L 182.289521 195.826501 
z
" style="stroke:#000000;"/>
    <path clip-path="url(#pf328a27c94)" d="M 180.012444 158.298468 
L 180.618914 159.558288 
L 179.461338 158.275576 
z
" style="stroke:#000000;"/>
    <path clip-path="url(#pf328a27c94)" d="M 180.702233 157.798655 
L 179.461338 158.275576 
L 180.151982 157.775092 
z
" style="stroke:#000000;"/>
    <path clip-path="url(#pf328a27c94)" d="M 184.073306 164.012356 
L 182.177593 161.692183 
L 182.725337 161.710524 
z
" style="stroke:#000000;"/>
    <path clip-path="url(#pf328a27c94)" d="M 186.577411 165.775283 
L 185.197413 166.459479 
L 185.380971 163.171485 
z
" style="stroke:#000000;"/>
    <path clip-path="url(#pf328a27c94)" d="M 185.197413 187.823963 
L 186.577411 188.509001 
L 185.380971 191.11207 
z
" style="stroke:#000000;"/>
    <path clip-path="url(#pf328a27c94)" d="M 181.168587 194.701515 
L 179.461338 196.009285 
L 180.618914 194.72728 
z
" style="stroke:#000000;"/>
    <path clip-path="url(#pf328a27c94)" d="M 182.289521 158.455169 
L 183.40009 160.702833 
L 183.94632 160.722499 
z
" style="stroke:#000000;"/>
    <path clip-path="url(#pf328a27c94)" d="M 180.702233 196.482047 
L 180.809716 196.885057 
L 180.151982 196.51019 
z
" style="stroke:#000000;"/>
    <path clip-path="url(#pf328a27c94)" d="M 185.197413 166.459479 
L 186.577411 165.775283 
L 186.085071 169.024907 
z
" style="stroke:#000000;"/>
    <path clip-path="url(#pf328a27c94)" d="M 186.577411 188.509001 
L 185.197413 187.823963 
L 186.085071 185.259077 
z
" style="stroke:#000000;"/>
    <path clip-path="url(#pf328a27c94)" d="M 182.725337 192.571412 
L 183.527234 190.290254 
L 184.073306 190.270401 
z
" style="stroke:#000000;"/>
    <path clip-path="url(#pf328a27c94)" d="M 181.359153 157.424692 
L 180.151982 157.775092 
L 180.809716 157.400627 
z
" style="stroke:#000000;"/>
    <path clip-path="url(#pf328a27c94)" d="M 181.741237 158.432477 
L 181.359153 157.424692 
L 180.809716 157.400627 
z
" style="stroke:#000000;"/>
    <path clip-path="url(#pf328a27c94)" d="M 182.177593 192.594336 
L 181.168587 194.701515 
L 180.618914 194.72728 
z
" style="stroke:#000000;"/>
    <path clip-path="url(#pf328a27c94)" d="M 187.522195 168.505033 
L 186.085071 169.024907 
L 186.577411 165.775283 
z
" style="stroke:#000000;"/>
    <path clip-path="url(#pf328a27c94)" d="M 186.085071 185.259077 
L 187.522195 185.779827 
L 186.577411 188.509001 
z
" style="stroke:#000000;"/>
    <path clip-path="url(#pf328a27c94)" d="M 186.085071 169.024907 
L 187.522195 168.505033 
L 186.726326 171.680263 
z
" style="stroke:#000000;"/>
    <path clip-path="url(#pf328a27c94)" d="M 187.522195 185.779827 
L 186.085071 185.259077 
L 186.726326 182.604112 
z
" style="stroke:#000000;"/>
    <path clip-path="url(#pf328a27c94)" d="M 185.380971 191.11207 
L 183.40009 193.584432 
L 183.94632 193.560181 
z
" style="stroke:#000000;"/>
    <path clip-path="url(#pf328a27c94)" d="M 185.197413 166.459479 
L 183.527234 163.99709 
L 184.073306 164.012356 
z
" style="stroke:#000000;"/>
    <path clip-path="url(#pf328a27c94)" d="M 180.809716 196.885057 
L 182.289521 195.826501 
L 181.741237 195.853775 
z
" style="stroke:#000000;"/>
    <path clip-path="url(#pf328a27c94)" d="M 180.618914 159.558288 
L 182.725337 161.710524 
L 182.177593 161.692183 
z
" style="stroke:#000000;"/>
    <path clip-path="url(#pf328a27c94)" d="M 184.073306 190.270401 
L 184.652734 187.840547 
L 185.197413 187.823963 
z
" style="stroke:#000000;"/>
    <path clip-path="url(#pf328a27c94)" d="M 186.726326 171.680263 
L 188.204737 171.33055 
L 187.113975 174.396107 
z
" style="stroke:#000000;"/>
    <path clip-path="url(#pf328a27c94)" d="M 188.204737 182.954726 
L 186.726326 182.604112 
L 187.113975 179.888504 
z
" style="stroke:#000000;"/>
    <path clip-path="url(#pf328a27c94)" d="M 183.94632 160.722499 
L 184.836521 163.15509 
L 185.380971 163.171485 
z
" style="stroke:#000000;"/>
    <path clip-path="url(#pf328a27c94)" d="M 188.204737 171.33055 
L 186.726326 171.680263 
L 187.522195 168.505033 
z
" style="stroke:#000000;"/>
    <path clip-path="url(#pf328a27c94)" d="M 186.726326 182.604112 
L 188.204737 182.954726 
L 187.522195 185.779827 
z
" style="stroke:#000000;"/>
    <path clip-path="url(#pf328a27c94)" d="M 188.617358 180.065029 
L 187.113975 179.888504 
L 187.243684 177.142345 
z
" style="stroke:#000000;"/>
    <path clip-path="url(#pf328a27c94)" d="M 187.113975 174.396107 
L 188.617358 174.220499 
L 187.243684 177.142345 
z
" style="stroke:#000000;"/>
    <path clip-path="url(#pf328a27c94)" d="M 183.40009 160.702833 
L 182.289521 158.455169 
L 181.741237 158.432477 
z
" style="stroke:#000000;"/>
    <path clip-path="url(#pf328a27c94)" d="M 188.617358 174.220499 
L 187.113975 174.396107 
L 188.204737 171.33055 
z
" style="stroke:#000000;"/>
    <path clip-path="url(#pf328a27c94)" d="M 187.113975 179.888504 
L 188.617358 180.065029 
L 188.204737 182.954726 
z
" style="stroke:#000000;"/>
    <path clip-path="url(#pf328a27c94)" d="M 186.085071 169.024907 
L 184.652734 166.447483 
L 185.197413 166.459479 
z
" style="stroke:#000000;"/>
    <path clip-path="url(#pf328a27c94)" d="M 180.151982 196.51019 
L 180.618914 194.72728 
L 179.461338 196.009285 
z
" style="stroke:#000000;"/>
    <path clip-path="url(#pf328a27c94)" d="M 180.618914 159.558288 
L 180.151982 157.775092 
L 179.461338 158.275576 
z
" style="stroke:#000000;"/>
    <path clip-path="url(#pf328a27c94)" d="M 183.527234 190.290254 
L 182.725337 192.571412 
L 182.177593 192.594336 
z
" style="stroke:#000000;"/>
    <path clip-path="url(#pf328a27c94)" d="M 188.755413 177.142806 
L 187.243684 177.142345 
L 188.617358 174.220499 
z
" style="stroke:#000000;"/>
    <path clip-path="url(#pf328a27c94)" d="M 187.243684 177.142345 
L 188.755413 177.142806 
L 188.617358 180.065029 
z
" style="stroke:#000000;"/>
    <path clip-path="url(#pf328a27c94)" d="M 186.577411 188.509001 
L 184.836521 191.133053 
L 185.380971 191.11207 
z
" style="stroke:#000000;"/>
    <path clip-path="url(#pf328a27c94)" d="M 185.197413 187.823963 
L 185.541494 185.272232 
L 186.085071 185.259077 
z
" style="stroke:#000000;"/>
    <path clip-path="url(#pf328a27c94)" d="M 181.741237 195.853775 
L 183.94632 193.560181 
L 183.40009 193.584432 
z
" style="stroke:#000000;"/>
    <path clip-path="url(#pf328a27c94)" d="M 182.177593 161.692183 
L 184.073306 164.012356 
L 183.527234 163.99709 
z
" style="stroke:#000000;"/>
    <path clip-path="url(#pf328a27c94)" d="M 190.772315 156.447572 
L 188.251413 159.600989 
L 186.991809 159.255173 
z
" style="stroke:#000000;"/>
    <path clip-path="url(#pf328a27c94)" d="M 190.772315 164.837781 
L 186.991809 159.255173 
L 188.251413 159.600989 
z
" style="stroke:#000000;"/>
    <path clip-path="url(#pf328a27c94)" d="M 185.380971 163.171485 
L 186.034446 165.762369 
L 186.577411 165.775283 
z
" style="stroke:#000000;"/>
    <path clip-path="url(#pf328a27c94)" d="M 186.726326 171.680263 
L 185.541494 169.016341 
L 186.085071 169.024907 
z
" style="stroke:#000000;"/>
    <path clip-path="url(#pf328a27c94)" d="M 180.151982 196.51019 
L 181.741237 195.853775 
L 180.618914 194.72728 
z
" style="stroke:#000000;"/>
    <path clip-path="url(#pf328a27c94)" d="M 181.741237 158.432477 
L 180.151982 157.775092 
L 180.618914 159.558288 
z
" style="stroke:#000000;"/>
    <path clip-path="url(#pf328a27c94)" d="M 181.741237 195.853775 
L 180.151982 196.51019 
L 180.809716 196.885057 
z
" style="stroke:#000000;"/>
    <path clip-path="url(#pf328a27c94)" d="M 180.151982 157.775092 
L 181.741237 158.432477 
L 180.809716 157.400627 
z
" style="stroke:#000000;"/>
    <path clip-path="url(#pf328a27c94)" d="M 186.085071 185.259077 
L 186.183545 182.613716 
L 186.726326 182.604112 
z
" style="stroke:#000000;"/>
    <path clip-path="url(#pf328a27c94)" d="M 187.113975 174.396107 
L 186.183545 171.675249 
L 186.726326 171.680263 
z
" style="stroke:#000000;"/>
    <path clip-path="url(#pf328a27c94)" d="M 187.522195 185.779827 
L 186.034446 188.526505 
L 186.577411 188.509001 
z
" style="stroke:#000000;"/>
    <path clip-path="url(#pf328a27c94)" d="M 184.836521 163.15509 
L 183.94632 160.722499 
L 183.40009 160.702833 
z
" style="stroke:#000000;"/>
    <path clip-path="url(#pf328a27c94)" d="M 184.652734 187.840547 
L 184.073306 190.270401 
L 183.527234 190.290254 
z
" style="stroke:#000000;"/>
    <path clip-path="url(#pf328a27c94)" d="M 186.726326 182.604112 
L 186.571676 179.894474 
L 187.113975 179.888504 
z
" style="stroke:#000000;"/>
    <path clip-path="url(#pf328a27c94)" d="M 190.772315 164.837781 
L 190.772315 167.634517 
L 186.991809 159.255173 
z
" style="stroke:#000000;"/>
    <path clip-path="url(#pf328a27c94)" d="M 181.741237 195.853775 
L 182.177593 192.594336 
L 180.618914 194.72728 
z
" style="stroke:#000000;"/>
    <path clip-path="url(#pf328a27c94)" d="M 182.177593 161.692183 
L 181.741237 158.432477 
L 180.618914 159.558288 
z
" style="stroke:#000000;"/>
    <path clip-path="url(#pf328a27c94)" d="M 187.243684 177.142345 
L 186.571676 174.394728 
L 187.113975 174.396107 
z
" style="stroke:#000000;"/>
    <path clip-path="url(#pf328a27c94)" d="M 187.113975 179.888504 
L 186.701546 177.144641 
L 187.243684 177.142345 
z
" style="stroke:#000000;"/>
    <path clip-path="url(#pf328a27c94)" d="M 186.577411 165.775283 
L 186.980402 168.49577 
L 187.522195 168.505033 
z
" style="stroke:#000000;"/>
    <path clip-path="url(#pf328a27c94)" d="M 183.527234 163.99709 
L 185.197413 166.459479 
L 184.652734 166.447483 
z
" style="stroke:#000000;"/>
    <path clip-path="url(#pf328a27c94)" d="M 183.40009 193.584432 
L 185.380971 191.11207 
L 184.836521 191.133053 
z
" style="stroke:#000000;"/>
    <path clip-path="url(#pf328a27c94)" d="M 190.772315 156.447572 
L 190.772315 157.84594 
L 188.251413 159.600989 
z
" style="stroke:#000000;"/>
    <path clip-path="url(#pf328a27c94)" d="M 188.204737 182.954726 
L 186.980402 185.793682 
L 187.522195 185.779827 
z
" style="stroke:#000000;"/>
    <path clip-path="url(#pf328a27c94)" d="M 187.522195 168.505033 
L 187.663792 171.325067 
L 188.204737 171.33055 
z
" style="stroke:#000000;"/>
    <path clip-path="url(#pf328a27c94)" d="M 183.40009 193.584432 
L 182.177593 192.594336 
L 181.741237 195.853775 
z
" style="stroke:#000000;"/>
    <path clip-path="url(#pf328a27c94)" d="M 182.177593 161.692183 
L 183.40009 160.702833 
L 181.741237 158.432477 
z
" style="stroke:#000000;"/>
    <path clip-path="url(#pf328a27c94)" d="M 185.541494 185.272232 
L 185.197413 187.823963 
L 184.652734 187.840547 
z
" style="stroke:#000000;"/>
    <path clip-path="url(#pf328a27c94)" d="M 186.449357 159.233533 
L 190.772315 156.447572 
L 186.991809 159.255173 
z
" style="stroke:#000000;"/>
    <path clip-path="url(#pf328a27c94)" d="M 190.772315 167.634517 
L 186.449357 159.233533 
L 186.991809 159.255173 
z
" style="stroke:#000000;"/>
    <path clip-path="url(#pf328a27c94)" d="M 186.034446 165.762369 
L 185.380971 163.171485 
L 184.836521 163.15509 
z
" style="stroke:#000000;"/>
    <path clip-path="url(#pf328a27c94)" d="M 184.652734 166.447483 
L 186.085071 169.024907 
L 185.541494 169.016341 
z
" style="stroke:#000000;"/>
    <path clip-path="url(#pf328a27c94)" d="M 188.617358 180.065029 
L 187.663792 182.964801 
L 188.204737 182.954726 
z
" style="stroke:#000000;"/>
    <path clip-path="url(#pf328a27c94)" d="M 188.204737 171.33055 
L 188.076926 174.218884 
L 188.617358 174.220499 
z
" style="stroke:#000000;"/>
    <path clip-path="url(#pf328a27c94)" d="M 183.40009 193.584432 
L 183.527234 190.290254 
L 182.177593 192.594336 
z
" style="stroke:#000000;"/>
    <path clip-path="url(#pf328a27c94)" d="M 183.527234 163.99709 
L 183.40009 160.702833 
L 182.177593 161.692183 
z
" style="stroke:#000000;"/>
    <path clip-path="url(#pf328a27c94)" d="M 188.755413 177.142806 
L 188.076926 180.071237 
L 188.617358 180.065029 
z
" style="stroke:#000000;"/>
    <path clip-path="url(#pf328a27c94)" d="M 184.836521 191.133053 
L 186.577411 188.509001 
L 186.034446 188.526505 
z
" style="stroke:#000000;"/>
    <path clip-path="url(#pf328a27c94)" d="M 188.617358 174.220499 
L 188.215152 177.145103 
L 188.755413 177.142806 
z
" style="stroke:#000000;"/>
    <path clip-path="url(#pf328a27c94)" d="M 186.183545 182.613716 
L 186.085071 185.259077 
L 185.541494 185.272232 
z
" style="stroke:#000000;"/>
    <path clip-path="url(#pf328a27c94)" d="M 185.541494 169.016341 
L 186.726326 171.680263 
L 186.183545 171.675249 
z
" style="stroke:#000000;"/>
    <path clip-path="url(#pf328a27c94)" d="M 190.772315 156.447572 
L 193.295476 159.586805 
L 190.772315 157.84594 
z
" style="stroke:#000000;"/>
    <path clip-path="url(#pf328a27c94)" d="M 186.571676 179.894474 
L 186.726326 182.604112 
L 186.183545 182.613716 
z
" style="stroke:#000000;"/>
    <path clip-path="url(#pf328a27c94)" d="M 186.980402 168.49577 
L 186.577411 165.775283 
L 186.034446 165.762369 
z
" style="stroke:#000000;"/>
    <path clip-path="url(#pf328a27c94)" d="M 184.836521 191.133053 
L 183.527234 190.290254 
L 183.40009 193.584432 
z
" style="stroke:#000000;"/>
    <path clip-path="url(#pf328a27c94)" d="M 183.527234 163.99709 
L 184.836521 163.15509 
L 183.40009 160.702833 
z
" style="stroke:#000000;"/>
    <path clip-path="url(#pf328a27c94)" d="M 186.183545 171.675249 
L 187.113975 174.396107 
L 186.571676 174.394728 
z
" style="stroke:#000000;"/>
    <path clip-path="url(#pf328a27c94)" d="M 190.772315 164.837781 
L 194.557904 159.233429 
L 190.772315 167.634517 
z
" style="stroke:#000000;"/>
    <path clip-path="url(#pf328a27c94)" d="M 186.701546 177.144641 
L 187.113975 179.888504 
L 186.571676 179.894474 
z
" style="stroke:#000000;"/>
    <path clip-path="url(#pf328a27c94)" d="M 186.571676 174.394728 
L 187.243684 177.142345 
L 186.701546 177.144641 
z
" style="stroke:#000000;"/>
    <path clip-path="url(#pf328a27c94)" d="M 186.034446 188.526505 
L 187.522195 185.779827 
L 186.980402 185.793682 
z
" style="stroke:#000000;"/>
    <path clip-path="url(#pf328a27c94)" d="M 183.527234 190.290254 
L 184.836521 191.133053 
L 184.652734 187.840547 
z
" style="stroke:#000000;"/>
    <path clip-path="url(#pf328a27c94)" d="M 184.836521 163.15509 
L 183.527234 163.99709 
L 184.652734 166.447483 
z
" style="stroke:#000000;"/>
    <path clip-path="url(#pf328a27c94)" d="M 190.234561 157.822398 
L 188.251413 159.600989 
L 190.772315 157.84594 
z
" style="stroke:#000000;"/>
    <path clip-path="url(#pf328a27c94)" d="M 188.251413 159.600989 
L 190.234561 164.823601 
L 190.772315 164.837781 
z
" style="stroke:#000000;"/>
    <path clip-path="url(#pf328a27c94)" d="M 187.663792 171.325067 
L 187.522195 168.505033 
L 186.980402 168.49577 
z
" style="stroke:#000000;"/>
    <path clip-path="url(#pf328a27c94)" d="M 193.295476 159.586805 
L 190.772315 156.447572 
L 194.557904 159.233429 
z
" style="stroke:#000000;"/>
    <path clip-path="url(#pf328a27c94)" d="M 194.557904 159.233429 
L 190.772315 164.837781 
L 193.295476 159.586805 
z
" style="stroke:#000000;"/>
    <path clip-path="url(#pf328a27c94)" d="M 186.980402 185.793682 
L 188.204737 182.954726 
L 187.663792 182.964801 
z
" style="stroke:#000000;"/>
    <path clip-path="url(#pf328a27c94)" d="M 186.034446 188.526505 
L 184.652734 187.840547 
L 184.836521 191.133053 
z
" style="stroke:#000000;"/>
    <path clip-path="url(#pf328a27c94)" d="M 184.652734 166.447483 
L 186.034446 165.762369 
L 184.836521 163.15509 
z
" style="stroke:#000000;"/>
    <path clip-path="url(#pf328a27c94)" d="M 194.305373 177.144498 
L 192.790663 177.144036 
L 192.928922 174.219575 
z
" style="stroke:#000000;"/>
    <path clip-path="url(#pf328a27c94)" d="M 192.790663 177.144036 
L 194.305373 177.144498 
L 192.928922 180.068581 
z
" style="stroke:#000000;"/>
    <path clip-path="url(#pf328a27c94)" d="M 188.076926 174.218884 
L 188.204737 171.33055 
L 187.663792 171.325067 
z
" style="stroke:#000000;"/>
    <path clip-path="url(#pf328a27c94)" d="M 184.652734 187.840547 
L 186.034446 188.526505 
L 185.541494 185.272232 
z
" style="stroke:#000000;"/>
    <path clip-path="url(#pf328a27c94)" d="M 186.034446 165.762369 
L 184.652734 166.447483 
L 185.541494 169.016341 
z
" style="stroke:#000000;"/>
    <path clip-path="url(#pf328a27c94)" d="M 187.663792 182.964801 
L 188.617358 180.065029 
L 188.076926 180.071237 
z
" style="stroke:#000000;"/>
    <path clip-path="url(#pf328a27c94)" d="M 194.435414 174.394766 
L 192.928922 174.219575 
L 193.342236 171.326811 
z
" style="stroke:#000000;"/>
    <path clip-path="url(#pf328a27c94)" d="M 192.928922 180.068581 
L 194.435414 179.894308 
L 193.342236 182.961597 
z
" style="stroke:#000000;"/>
    <path clip-path="url(#pf328a27c94)" d="M 188.215152 177.145103 
L 188.617358 174.220499 
L 188.076926 174.218884 
z
" style="stroke:#000000;"/>
    <path clip-path="url(#pf328a27c94)" d="M 188.076926 180.071237 
L 188.755413 177.142806 
L 188.215152 177.145103 
z
" style="stroke:#000000;"/>
    <path clip-path="url(#pf328a27c94)" d="M 194.435414 179.894308 
L 192.928922 180.068581 
L 194.305373 177.144498 
z
" style="stroke:#000000;"/>
    <path clip-path="url(#pf328a27c94)" d="M 192.928922 174.219575 
L 194.435414 174.394766 
L 194.305373 177.144498 
z
" style="stroke:#000000;"/>
    <path clip-path="url(#pf328a27c94)" d="M 194.824127 171.674871 
L 193.342236 171.326811 
L 194.026191 168.497033 
z
" style="stroke:#000000;"/>
    <path clip-path="url(#pf328a27c94)" d="M 193.342236 182.961597 
L 194.824127 182.614441 
L 194.026191 185.791792 
z
" style="stroke:#000000;"/>
    <path clip-path="url(#pf328a27c94)" d="M 188.251413 159.600989 
L 190.234561 157.822398 
L 187.710526 159.579806 
z
" style="stroke:#000000;"/>
    <path clip-path="url(#pf328a27c94)" d="M 190.234561 164.823601 
L 188.251413 159.600989 
L 187.710526 159.579806 
z
" style="stroke:#000000;"/>
    <path clip-path="url(#pf328a27c94)" d="M 193.342236 171.326811 
L 194.824127 171.674871 
L 194.435414 174.394766 
z
" style="stroke:#000000;"/>
    <path clip-path="url(#pf328a27c94)" d="M 194.824127 182.614441 
L 193.342236 182.961597 
L 194.435414 179.894308 
z
" style="stroke:#000000;"/>
    <path clip-path="url(#pf328a27c94)" d="M 186.980402 185.793682 
L 185.541494 185.272232 
L 186.034446 188.526505 
z
" style="stroke:#000000;"/>
    <path clip-path="url(#pf328a27c94)" d="M 185.541494 169.016341 
L 186.980402 168.49577 
L 186.034446 165.762369 
z
" style="stroke:#000000;"/>
    <path clip-path="url(#pf328a27c94)" d="M 185.541494 185.272232 
L 186.980402 185.793682 
L 186.183545 182.613716 
z
" style="stroke:#000000;"/>
    <path clip-path="url(#pf328a27c94)" d="M 186.980402 168.49577 
L 185.541494 169.016341 
L 186.183545 171.675249 
z
" style="stroke:#000000;"/>
    <path clip-path="url(#pf328a27c94)" d="M 190.772315 156.447572 
L 186.449357 159.233533 
L 190.234561 156.422157 
z
" style="stroke:#000000;"/>
    <path clip-path="url(#pf328a27c94)" d="M 186.449357 159.233533 
L 190.772315 167.634517 
L 190.234561 167.624083 
z
" style="stroke:#000000;"/>
    <path clip-path="url(#pf328a27c94)" d="M 190.234561 156.422157 
L 194.557904 159.233429 
L 190.772315 156.447572 
z
" style="stroke:#000000;"/>
    <path clip-path="url(#pf328a27c94)" d="M 194.557904 159.233429 
L 190.234561 167.624083 
L 190.772315 167.634517 
z
" style="stroke:#000000;"/>
    <path clip-path="url(#pf328a27c94)" d="M 194.026191 168.497033 
L 195.467375 169.01423 
L 194.824127 171.674871 
z
" style="stroke:#000000;"/>
    <path clip-path="url(#pf328a27c94)" d="M 195.467375 185.275473 
L 194.026191 185.791792 
L 194.824127 182.614441 
z
" style="stroke:#000000;"/>
    <path clip-path="url(#pf328a27c94)" d="M 195.467375 169.01423 
L 194.026191 168.497033 
L 194.973478 165.760881 
z
" style="stroke:#000000;"/>
    <path clip-path="url(#pf328a27c94)" d="M 194.026191 185.791792 
L 195.467375 185.275473 
L 194.973478 188.528522 
z
" style="stroke:#000000;"/>
    <path clip-path="url(#pf328a27c94)" d="M 186.183545 182.613716 
L 187.663792 182.964801 
L 186.571676 179.894474 
z
" style="stroke:#000000;"/>
    <path clip-path="url(#pf328a27c94)" d="M 187.663792 171.325067 
L 186.183545 171.675249 
L 186.571676 174.394728 
z
" style="stroke:#000000;"/>
    <path clip-path="url(#pf328a27c94)" d="M 192.760861 159.565585 
L 190.772315 157.84594 
L 193.295476 159.586805 
z
" style="stroke:#000000;"/>
    <path clip-path="url(#pf328a27c94)" d="M 190.772315 164.837781 
L 192.760861 159.565585 
L 193.295476 159.586805 
z
" style="stroke:#000000;"/>
    <path clip-path="url(#pf328a27c94)" d="M 187.663792 182.964801 
L 186.183545 182.613716 
L 186.980402 185.793682 
z
" style="stroke:#000000;"/>
    <path clip-path="url(#pf328a27c94)" d="M 186.183545 171.675249 
L 187.663792 171.325067 
L 186.980402 168.49577 
z
" style="stroke:#000000;"/>
    <path clip-path="url(#pf328a27c94)" d="M 188.076926 174.218884 
L 186.571676 174.394728 
L 186.701546 177.144641 
z
" style="stroke:#000000;"/>
    <path clip-path="url(#pf328a27c94)" d="M 186.571676 179.894474 
L 188.076926 180.071237 
L 186.701546 177.144641 
z
" style="stroke:#000000;"/>
    <path clip-path="url(#pf328a27c94)" d="M 192.928922 180.068581 
L 192.255419 177.146336 
L 192.790663 177.144036 
z
" style="stroke:#000000;"/>
    <path clip-path="url(#pf328a27c94)" d="M 192.790663 177.144036 
L 192.393851 174.217957 
L 192.928922 174.219575 
z
" style="stroke:#000000;"/>
    <path clip-path="url(#pf328a27c94)" d="M 188.076926 180.071237 
L 186.571676 179.894474 
L 187.663792 182.964801 
z
" style="stroke:#000000;"/>
    <path clip-path="url(#pf328a27c94)" d="M 186.571676 174.394728 
L 188.076926 174.218884 
L 187.663792 171.325067 
z
" style="stroke:#000000;"/>
    <path clip-path="url(#pf328a27c94)" d="M 193.342236 182.961597 
L 192.393851 180.074799 
L 192.928922 180.068581 
z
" style="stroke:#000000;"/>
    <path clip-path="url(#pf328a27c94)" d="M 194.973478 165.760881 
L 196.358278 166.441687 
L 195.467375 169.01423 
z
" style="stroke:#000000;"/>
    <path clip-path="url(#pf328a27c94)" d="M 196.358278 187.84856 
L 194.973478 188.528522 
L 195.467375 185.275473 
z
" style="stroke:#000000;"/>
    <path clip-path="url(#pf328a27c94)" d="M 192.928922 174.219575 
L 192.807679 171.321318 
L 193.342236 171.326811 
z
" style="stroke:#000000;"/>
    <path clip-path="url(#pf328a27c94)" d="M 188.215152 177.145103 
L 186.701546 177.144641 
L 188.076926 180.071237 
z
" style="stroke:#000000;"/>
    <path clip-path="url(#pf328a27c94)" d="M 186.701546 177.144641 
L 188.215152 177.145103 
L 188.076926 174.218884 
z
" style="stroke:#000000;"/>
    <path clip-path="url(#pf328a27c94)" d="M 196.358278 166.441687 
L 194.973478 165.760881 
L 196.174002 163.147971 
z
" style="stroke:#000000;"/>
    <path clip-path="url(#pf328a27c94)" d="M 194.973478 188.528522 
L 196.358278 187.84856 
L 196.174002 191.142163 
z
" style="stroke:#000000;"/>
    <path clip-path="url(#pf328a27c94)" d="M 194.026191 185.791792 
L 192.807679 182.971691 
L 193.342236 182.961597 
z
" style="stroke:#000000;"/>
    <path clip-path="url(#pf328a27c94)" d="M 186.449357 159.233533 
L 190.234561 164.823601 
L 187.710526 159.579806 
z
" style="stroke:#000000;"/>
    <path clip-path="url(#pf328a27c94)" d="M 187.710526 159.579806 
L 190.234561 156.422157 
L 186.449357 159.233533 
z
" style="stroke:#000000;"/>
    <path clip-path="url(#pf328a27c94)" d="M 193.342236 171.326811 
L 193.492486 168.487748 
L 194.026191 168.497033 
z
" style="stroke:#000000;"/>
    <path clip-path="url(#pf328a27c94)" d="M 190.772315 157.84594 
L 192.760861 159.565585 
L 190.234561 157.822398 
z
" style="stroke:#000000;"/>
    <path clip-path="url(#pf328a27c94)" d="M 192.760861 159.565585 
L 190.772315 164.837781 
L 190.234561 164.823601 
z
" style="stroke:#000000;"/>
    <path clip-path="url(#pf328a27c94)" d="M 196.174002 163.147971 
L 197.487301 163.985131 
L 196.358278 166.441687 
z
" style="stroke:#000000;"/>
    <path clip-path="url(#pf328a27c94)" d="M 197.487301 190.305804 
L 196.174002 191.142163 
L 196.358278 187.84856 
z
" style="stroke:#000000;"/>
    <path clip-path="url(#pf328a27c94)" d="M 194.973478 188.528522 
L 193.492486 185.805679 
L 194.026191 185.791792 
z
" style="stroke:#000000;"/>
    <path clip-path="url(#pf328a27c94)" d="M 194.435414 174.394766 
L 193.772015 177.146799 
L 194.305373 177.144498 
z
" style="stroke:#000000;"/>
    <path clip-path="url(#pf328a27c94)" d="M 194.305373 177.144498 
L 193.902218 179.900294 
L 194.435414 179.894308 
z
" style="stroke:#000000;"/>
    <path clip-path="url(#pf328a27c94)" d="M 190.234561 164.823601 
L 186.449357 159.233533 
L 190.234561 167.624083 
z
" style="stroke:#000000;"/>
    <path clip-path="url(#pf328a27c94)" d="M 194.824127 171.674871 
L 193.902218 174.393383 
L 194.435414 174.394766 
z
" style="stroke:#000000;"/>
    <path clip-path="url(#pf328a27c94)" d="M 197.6149 160.686761 
L 197.487301 163.985131 
L 196.174002 163.147971 
z
" style="stroke:#000000;"/>
    <path clip-path="url(#pf328a27c94)" d="M 197.487301 190.305804 
L 197.6149 193.604252 
L 196.174002 191.142163 
z
" style="stroke:#000000;"/>
    <path clip-path="url(#pf328a27c94)" d="M 194.026191 168.497033 
L 194.440952 165.747928 
L 194.973478 165.760881 
z
" style="stroke:#000000;"/>
    <path clip-path="url(#pf328a27c94)" d="M 194.435414 179.894308 
L 194.291415 182.624072 
L 194.824127 182.614441 
z
" style="stroke:#000000;"/>
    <path clip-path="url(#pf328a27c94)" d="M 190.234561 156.422157 
L 187.710526 159.579806 
L 190.234561 157.822398 
z
" style="stroke:#000000;"/>
    <path clip-path="url(#pf328a27c94)" d="M 195.467375 169.01423 
L 194.291415 171.669843 
L 194.824127 171.674871 
z
" style="stroke:#000000;"/>
    <path clip-path="url(#pf328a27c94)" d="M 194.824127 182.614441 
L 194.935464 185.288672 
L 195.467375 185.275473 
z
" style="stroke:#000000;"/>
    <path clip-path="url(#pf328a27c94)" d="M 192.393851 174.217957 
L 192.790663 177.144036 
L 192.255419 177.146336 
z
" style="stroke:#000000;"/>
    <path clip-path="url(#pf328a27c94)" d="M 196.174002 191.142163 
L 194.440952 188.546078 
L 194.973478 188.528522 
z
" style="stroke:#000000;"/>
    <path clip-path="url(#pf328a27c94)" d="M 192.255419 177.146336 
L 192.928922 180.068581 
L 192.393851 180.074799 
z
" style="stroke:#000000;"/>
    <path clip-path="url(#pf328a27c94)" d="M 197.6149 160.686761 
L 198.842358 161.671207 
L 197.487301 163.985131 
z
" style="stroke:#000000;"/>
    <path clip-path="url(#pf328a27c94)" d="M 198.842358 192.620554 
L 197.6149 193.604252 
L 197.487301 190.305804 
z
" style="stroke:#000000;"/>
    <path clip-path="url(#pf328a27c94)" d="M 192.807679 171.321318 
L 192.928922 174.219575 
L 192.393851 174.217957 
z
" style="stroke:#000000;"/>
    <path clip-path="url(#pf328a27c94)" d="M 192.393851 180.074799 
L 193.342236 182.961597 
L 192.807679 182.971691 
z
" style="stroke:#000000;"/>
    <path clip-path="url(#pf328a27c94)" d="M 196.358278 166.441687 
L 194.935464 169.005636 
L 195.467375 169.01423 
z
" style="stroke:#000000;"/>
    <path clip-path="url(#pf328a27c94)" d="M 194.973478 165.760881 
L 195.642972 163.131513 
L 196.174002 163.147971 
z
" style="stroke:#000000;"/>
    <path clip-path="url(#pf328a27c94)" d="M 194.557904 159.233429 
L 190.234561 156.422157 
L 194.024861 159.21173 
z
" style="stroke:#000000;"/>
    <path clip-path="url(#pf328a27c94)" d="M 190.234561 167.624083 
L 194.557904 159.233429 
L 194.024861 159.21173 
z
" style="stroke:#000000;"/>
    <path clip-path="url(#pf328a27c94)" d="M 199.280744 158.403879 
L 198.842358 161.671207 
L 197.6149 160.686761 
z
" style="stroke:#000000;"/>
    <path clip-path="url(#pf328a27c94)" d="M 198.842358 192.620554 
L 199.280744 195.888149 
L 197.6149 193.604252 
z
" style="stroke:#000000;"/>
    <path clip-path="url(#pf328a27c94)" d="M 195.467375 185.275473 
L 195.827477 187.865209 
L 196.358278 187.84856 
z
" style="stroke:#000000;"/>
    <path clip-path="url(#pf328a27c94)" d="M 193.492486 168.487748 
L 193.342236 171.326811 
L 192.807679 171.321318 
z
" style="stroke:#000000;"/>
    <path clip-path="url(#pf328a27c94)" d="M 192.807679 182.971691 
L 194.026191 185.791792 
L 193.492486 185.805679 
z
" style="stroke:#000000;"/>
    <path clip-path="url(#pf328a27c94)" d="M 192.760861 159.565585 
L 190.234561 156.422157 
L 190.234561 157.822398 
z
" style="stroke:#000000;"/>
    <path clip-path="url(#pf328a27c94)" d="M 197.6149 193.604252 
L 195.642972 191.163227 
L 196.174002 191.142163 
z
" style="stroke:#000000;"/>
    <path clip-path="url(#pf328a27c94)" d="M 197.487301 163.985131 
L 195.827477 166.429643 
L 196.358278 166.441687 
z
" style="stroke:#000000;"/>
    <path clip-path="url(#pf328a27c94)" d="M 194.440952 165.747928 
L 194.026191 168.497033 
L 193.492486 168.487748 
z
" style="stroke:#000000;"/>
    <path clip-path="url(#pf328a27c94)" d="M 193.902218 179.900294 
L 194.305373 177.144498 
L 193.772015 177.146799 
z
" style="stroke:#000000;"/>
    <path clip-path="url(#pf328a27c94)" d="M 193.772015 177.146799 
L 194.435414 174.394766 
L 193.902218 174.393383 
z
" style="stroke:#000000;"/>
    <path clip-path="url(#pf328a27c94)" d="M 199.280744 158.403879 
L 200.408914 159.525229 
L 198.842358 161.671207 
z
" style="stroke:#000000;"/>
    <path clip-path="url(#pf328a27c94)" d="M 200.408914 194.767487 
L 199.280744 195.888149 
L 198.842358 192.620554 
z
" style="stroke:#000000;"/>
    <path clip-path="url(#pf328a27c94)" d="M 194.024861 159.21173 
L 190.234561 164.823601 
L 190.234561 167.624083 
z
" style="stroke:#000000;"/>
    <path clip-path="url(#pf328a27c94)" d="M 194.291415 182.624072 
L 194.435414 179.894308 
L 193.902218 179.900294 
z
" style="stroke:#000000;"/>
    <path clip-path="url(#pf328a27c94)" d="M 196.358278 187.84856 
L 196.957907 190.325751 
L 197.487301 190.305804 
z
" style="stroke:#000000;"/>
    <path clip-path="url(#pf328a27c94)" d="M 196.174002 163.147971 
L 197.085665 160.666999 
L 197.6149 160.686761 
z
" style="stroke:#000000;"/>
    <path clip-path="url(#pf328a27c94)" d="M 193.492486 185.805679 
L 194.973478 188.528522 
L 194.440952 188.546078 
z
" style="stroke:#000000;"/>
    <path clip-path="url(#pf328a27c94)" d="M 193.902218 174.393383 
L 194.824127 171.674871 
L 194.291415 171.669843 
z
" style="stroke:#000000;"/>
    <path clip-path="url(#pf328a27c94)" d="M 194.935464 185.288672 
L 194.824127 182.614441 
L 194.291415 182.624072 
z
" style="stroke:#000000;"/>
    <path clip-path="url(#pf328a27c94)" d="M 200.878544 157.735377 
L 199.280744 158.403879 
L 200.217055 157.364301 
z
" style="stroke:#000000;"/>
    <path clip-path="url(#pf328a27c94)" d="M 199.280744 195.888149 
L 200.878544 196.557626 
L 200.217055 196.928298 
z
" style="stroke:#000000;"/>
    <path clip-path="url(#pf328a27c94)" d="M 199.280744 158.403879 
L 200.878544 157.735377 
L 200.408914 159.525229 
z
" style="stroke:#000000;"/>
    <path clip-path="url(#pf328a27c94)" d="M 200.878544 196.557626 
L 199.280744 195.888149 
L 200.408914 194.767487 
z
" style="stroke:#000000;"/>
    <path clip-path="url(#pf328a27c94)" d="M 194.291415 171.669843 
L 195.467375 169.01423 
L 194.935464 169.005636 
z
" style="stroke:#000000;"/>
    <path clip-path="url(#pf328a27c94)" d="M 195.642972 163.131513 
L 194.973478 165.760881 
L 194.440952 165.747928 
z
" style="stroke:#000000;"/>
    <path clip-path="url(#pf328a27c94)" d="M 190.234561 164.823601 
L 194.024861 159.21173 
L 192.760861 159.565585 
z
" style="stroke:#000000;"/>
    <path clip-path="url(#pf328a27c94)" d="M 190.234561 156.422157 
L 192.760861 159.565585 
L 194.024861 159.21173 
z
" style="stroke:#000000;"/>
    <path clip-path="url(#pf328a27c94)" d="M 198.842358 161.671207 
L 196.957907 163.969792 
L 197.487301 163.985131 
z
" style="stroke:#000000;"/>
    <path clip-path="url(#pf328a27c94)" d="M 199.280744 195.888149 
L 197.085665 193.628621 
L 197.6149 193.604252 
z
" style="stroke:#000000;"/>
    <path clip-path="url(#pf328a27c94)" d="M 195.827477 187.865209 
L 195.467375 185.275473 
L 194.935464 185.288672 
z
" style="stroke:#000000;"/>
    <path clip-path="url(#pf328a27c94)" d="M 194.440952 188.546078 
L 196.174002 191.142163 
L 195.642972 191.163227 
z
" style="stroke:#000000;"/>
    <path clip-path="url(#pf328a27c94)" d="M 193.772015 177.146799 
L 192.255419 177.146336 
L 192.393851 180.074799 
z
" style="stroke:#000000;"/>
    <path clip-path="url(#pf328a27c94)" d="M 192.255419 177.146336 
L 193.772015 177.146799 
L 192.393851 174.217957 
z
" style="stroke:#000000;"/>
    <path clip-path="url(#pf328a27c94)" d="M 197.487301 190.305804 
L 198.314654 192.64361 
L 198.842358 192.620554 
z
" style="stroke:#000000;"/>
    <path clip-path="url(#pf328a27c94)" d="M 200.408914 159.525229 
L 200.878544 157.735377 
L 201.573465 158.232755 
z
" style="stroke:#000000;"/>
    <path clip-path="url(#pf328a27c94)" d="M 200.878544 196.557626 
L 200.408914 194.767487 
L 201.573465 196.060671 
z
" style="stroke:#000000;"/>
    <path clip-path="url(#pf328a27c94)" d="M 194.935464 169.005636 
L 196.358278 166.441687 
L 195.827477 166.429643 
z
" style="stroke:#000000;"/>
    <path clip-path="url(#pf328a27c94)" d="M 193.902218 179.900294 
L 192.393851 180.074799 
L 192.807679 182.971691 
z
" style="stroke:#000000;"/>
    <path clip-path="url(#pf328a27c94)" d="M 192.393851 174.217957 
L 193.902218 174.393383 
L 192.807679 171.321318 
z
" style="stroke:#000000;"/>
    <path clip-path="url(#pf328a27c94)" d="M 197.6149 160.686761 
L 198.753587 158.38105 
L 199.280744 158.403879 
z
" style="stroke:#000000;"/>
    <path clip-path="url(#pf328a27c94)" d="M 193.902218 174.393383 
L 192.393851 174.217957 
L 193.772015 177.146799 
z
" style="stroke:#000000;"/>
    <path clip-path="url(#pf328a27c94)" d="M 192.393851 180.074799 
L 193.902218 179.900294 
L 193.772015 177.146799 
z
" style="stroke:#000000;"/>
    <path clip-path="url(#pf328a27c94)" d="M 194.291415 182.624072 
L 192.807679 182.971691 
L 193.492486 185.805679 
z
" style="stroke:#000000;"/>
    <path clip-path="url(#pf328a27c94)" d="M 192.807679 171.321318 
L 194.291415 171.669843 
L 193.492486 168.487748 
z
" style="stroke:#000000;"/>
    <path clip-path="url(#pf328a27c94)" d="M 197.085665 160.666999 
L 196.174002 163.147971 
L 195.642972 163.131513 
z
" style="stroke:#000000;"/>
    <path clip-path="url(#pf328a27c94)" d="M 192.807679 182.971691 
L 194.291415 182.624072 
L 193.902218 179.900294 
z
" style="stroke:#000000;"/>
    <path clip-path="url(#pf328a27c94)" d="M 194.291415 171.669843 
L 192.807679 171.321318 
L 193.902218 174.393383 
z
" style="stroke:#000000;"/>
    <path clip-path="url(#pf328a27c94)" d="M 196.957907 190.325751 
L 196.358278 187.84856 
L 195.827477 187.865209 
z
" style="stroke:#000000;"/>
    <path clip-path="url(#pf328a27c94)" d="M 200.408914 159.525229 
L 198.314654 161.652761 
L 198.842358 161.671207 
z
" style="stroke:#000000;"/>
    <path clip-path="url(#pf328a27c94)" d="M 200.217055 196.928298 
L 198.753587 195.915589 
L 199.280744 195.888149 
z
" style="stroke:#000000;"/>
    <path clip-path="url(#pf328a27c94)" d="M 195.827477 166.429643 
L 197.487301 163.985131 
L 196.957907 163.969792 
z
" style="stroke:#000000;"/>
    <path clip-path="url(#pf328a27c94)" d="M 195.642972 191.163227 
L 197.6149 193.604252 
L 197.085665 193.628621 
z
" style="stroke:#000000;"/>
    <path clip-path="url(#pf328a27c94)" d="M 193.492486 185.805679 
L 194.935464 185.288672 
L 194.291415 182.624072 
z
" style="stroke:#000000;"/>
    <path clip-path="url(#pf328a27c94)" d="M 194.935464 169.005636 
L 193.492486 168.487748 
L 194.291415 171.669843 
z
" style="stroke:#000000;"/>
    <path clip-path="url(#pf328a27c94)" d="M 194.935464 185.288672 
L 193.492486 185.805679 
L 194.440952 188.546078 
z
" style="stroke:#000000;"/>
    <path clip-path="url(#pf328a27c94)" d="M 193.492486 168.487748 
L 194.935464 169.005636 
L 194.440952 165.747928 
z
" style="stroke:#000000;"/>
    <path clip-path="url(#pf328a27c94)" d="M 198.842358 192.620554 
L 199.883165 194.793429 
L 200.408914 194.767487 
z
" style="stroke:#000000;"/>
    <path clip-path="url(#pf328a27c94)" d="M 199.280744 158.403879 
L 199.691066 157.340073 
L 200.217055 157.364301 
z
" style="stroke:#000000;"/>
    <path clip-path="url(#pf328a27c94)" d="M 199.691066 157.340073 
L 200.878544 157.735377 
L 200.217055 157.364301 
z
" style="stroke:#000000;"/>
    <path clip-path="url(#pf328a27c94)" d="M 198.314654 192.64361 
L 197.487301 190.305804 
L 196.957907 190.325751 
z
" style="stroke:#000000;"/>
    <path clip-path="url(#pf328a27c94)" d="M 194.440952 188.546078 
L 195.827477 187.865209 
L 194.935464 185.288672 
z
" style="stroke:#000000;"/>
    <path clip-path="url(#pf328a27c94)" d="M 195.827477 166.429643 
L 194.440952 165.747928 
L 194.935464 169.005636 
z
" style="stroke:#000000;"/>
    <path clip-path="url(#pf328a27c94)" d="M 200.353381 196.585972 
L 200.217055 196.928298 
L 200.878544 196.557626 
z
" style="stroke:#000000;"/>
    <path clip-path="url(#pf328a27c94)" d="M 198.753587 158.38105 
L 197.6149 160.686761 
L 197.085665 160.666999 
z
" style="stroke:#000000;"/>
    <path clip-path="url(#pf328a27c94)" d="M 199.883165 194.793429 
L 201.573465 196.060671 
L 200.408914 194.767487 
z
" style="stroke:#000000;"/>
    <path clip-path="url(#pf328a27c94)" d="M 195.827477 187.865209 
L 194.440952 188.546078 
L 195.642972 191.163227 
z
" style="stroke:#000000;"/>
    <path clip-path="url(#pf328a27c94)" d="M 194.440952 165.747928 
L 195.827477 166.429643 
L 195.642972 163.131513 
z
" style="stroke:#000000;"/>
    <path clip-path="url(#pf328a27c94)" d="M 196.957907 163.969792 
L 198.842358 161.671207 
L 198.314654 161.652761 
z
" style="stroke:#000000;"/>
    <path clip-path="url(#pf328a27c94)" d="M 200.353381 157.711644 
L 201.573465 158.232755 
L 200.878544 157.735377 
z
" style="stroke:#000000;"/>
    <path clip-path="url(#pf328a27c94)" d="M 201.04917 158.209687 
L 200.408914 159.525229 
L 201.573465 158.232755 
z
" style="stroke:#000000;"/>
    <path clip-path="url(#pf328a27c94)" d="M 197.085665 193.628621 
L 199.280744 195.888149 
L 198.753587 195.915589 
z
" style="stroke:#000000;"/>
    <path clip-path="url(#pf328a27c94)" d="M 201.04917 196.088353 
L 200.878544 196.557626 
L 201.573465 196.060671 
z
" style="stroke:#000000;"/>
    <path clip-path="url(#pf328a27c94)" d="M 195.642972 191.163227 
L 196.957907 190.325751 
L 195.827477 187.865209 
z
" style="stroke:#000000;"/>
    <path clip-path="url(#pf328a27c94)" d="M 196.957907 163.969792 
L 195.642972 163.131513 
L 195.827477 166.429643 
z
" style="stroke:#000000;"/>
    <path clip-path="url(#pf328a27c94)" d="M 199.883165 194.793429 
L 198.842358 192.620554 
L 198.314654 192.64361 
z
" style="stroke:#000000;"/>
    <path clip-path="url(#pf328a27c94)" d="M 199.691066 157.340073 
L 199.280744 158.403879 
L 198.753587 158.38105 
z
" style="stroke:#000000;"/>
    <path clip-path="url(#pf328a27c94)" d="M 197.085665 193.628621 
L 196.957907 190.325751 
L 195.642972 191.163227 
z
" style="stroke:#000000;"/>
    <path clip-path="url(#pf328a27c94)" d="M 196.957907 163.969792 
L 197.085665 160.666999 
L 195.642972 163.131513 
z
" style="stroke:#000000;"/>
    <path clip-path="url(#pf328a27c94)" d="M 198.314654 161.652761 
L 200.408914 159.525229 
L 199.883165 159.503899 
z
" style="stroke:#000000;"/>
    <path clip-path="url(#pf328a27c94)" d="M 198.753587 195.915589 
L 200.217055 196.928298 
L 199.691066 196.957138 
z
" style="stroke:#000000;"/>
    <path clip-path="url(#pf328a27c94)" d="M 200.217055 196.928298 
L 200.353381 196.585972 
L 199.691066 196.957138 
z
" style="stroke:#000000;"/>
    <path clip-path="url(#pf328a27c94)" d="M 197.085665 193.628621 
L 198.314654 192.64361 
L 196.957907 190.325751 
z
" style="stroke:#000000;"/>
    <path clip-path="url(#pf328a27c94)" d="M 198.314654 161.652761 
L 197.085665 160.666999 
L 196.957907 163.969792 
z
" style="stroke:#000000;"/>
    <path clip-path="url(#pf328a27c94)" d="M 200.878544 157.735377 
L 199.691066 157.340073 
L 200.353381 157.711644 
z
" style="stroke:#000000;"/>
    <path clip-path="url(#pf328a27c94)" d="M 200.408914 159.525229 
L 201.04917 158.209687 
L 199.883165 159.503899 
z
" style="stroke:#000000;"/>
    <path clip-path="url(#pf328a27c94)" d="M 198.753587 195.915589 
L 198.314654 192.64361 
L 197.085665 193.628621 
z
" style="stroke:#000000;"/>
    <path clip-path="url(#pf328a27c94)" d="M 198.314654 161.652761 
L 198.753587 158.38105 
L 197.085665 160.666999 
z
" style="stroke:#000000;"/>
    <path clip-path="url(#pf328a27c94)" d="M 200.878544 196.557626 
L 201.04917 196.088353 
L 200.353381 196.585972 
z
" style="stroke:#000000;"/>
    <path clip-path="url(#pf328a27c94)" d="M 201.573465 196.060671 
L 199.883165 194.793429 
L 201.04917 196.088353 
z
" style="stroke:#000000;"/>
    <path clip-path="url(#pf328a27c94)" d="M 201.573465 158.232755 
L 200.353381 157.711644 
L 201.04917 158.209687 
z
" style="stroke:#000000;"/>
    <path clip-path="url(#pf328a27c94)" d="M 198.753587 195.915589 
L 199.883165 194.793429 
L 198.314654 192.64361 
z
" style="stroke:#000000;"/>
    <path clip-path="url(#pf328a27c94)" d="M 199.883165 159.503899 
L 198.753587 158.38105 
L 198.314654 161.652761 
z
" style="stroke:#000000;"/>
    <path clip-path="url(#pf328a27c94)" d="M 200.353381 196.585972 
L 198.753587 195.915589 
L 199.691066 196.957138 
z
" style="stroke:#000000;"/>
    <path clip-path="url(#pf328a27c94)" d="M 198.753587 158.38105 
L 200.353381 157.711644 
L 199.691066 157.340073 
z
" style="stroke:#000000;"/>
    <path clip-path="url(#pf328a27c94)" d="M 198.753587 195.915589 
L 200.353381 196.585972 
L 199.883165 194.793429 
z
" style="stroke:#000000;"/>
    <path clip-path="url(#pf328a27c94)" d="M 200.353381 157.711644 
L 198.753587 158.38105 
L 199.883165 159.503899 
z
" style="stroke:#000000;"/>
    <path clip-path="url(#pf328a27c94)" d="M 199.883165 194.793429 
L 200.353381 196.585972 
L 201.04917 196.088353 
z
" style="stroke:#000000;"/>
    <path clip-path="url(#pf328a27c94)" d="M 200.353381 157.711644 
L 199.883165 159.503899 
L 201.04917 158.209687 
z
" style="stroke:#000000;"/>
   </g>
  </g>
 </g>
 <defs>
  <clipPath id="pf328a27c94">
   <rect height="271.8" width="279" x="45" y="43.2"/>
  </clipPath>
 </defs>
</svg>
