<?xml version="1.0" encoding="utf-8" standalone="no"?>
<!DOCTYPE svg PUBLIC "-//W3C//DTD SVG 1.1//EN"
  "http://www.w3.org/Graphics/SVG/1.1/DTD/svg11.dtd">
<!-- Created with matplotlib (https://matplotlib.org/) -->
<svg height="360pt" version="1.1" viewBox="0 0 360 360" width="360pt" xmlns="http://www.w3.org/2000/svg" xmlns:xlink="http://www.w3.org/1999/xlink">
 <defs>
  <style type="text/css">
*{stroke-linecap:butt;stroke-linejoin:round;}
  </style>
 </defs>
 <g id="figure_1">
  <g id="patch_1">
   <path d="M 45 315 
L 324 315 
L 324 43.2 
L 45 43.2 
z
" style="fill:#ffffff;"/>
  </g>
  <g id="axes_1">
   <g id="Poly3DCollection_1">
    <path clip-path="url(#pdd64115d42)" d="M 181.410496 157.540248 
L 181.862257 159.344083 
L 180.742359 158.047774 
z
" style="stroke:#000000;"/>
    <path clip-path="url(#pdd64115d42)" d="M 181.862257 194.934728 
L 181.410496 196.738138 
L 180.742359 196.229982 
z
" style="stroke:#000000;"/>
    <path clip-path="url(#pdd64115d42)" d="M 181.410496 157.540248 
L 182.948268 158.203064 
L 181.862257 159.344083 
z
" style="stroke:#000000;"/>
    <path clip-path="url(#pdd64115d42)" d="M 182.948268 196.076771 
L 181.410496 196.738138 
L 181.862257 194.934728 
z
" style="stroke:#000000;"/>
    <path clip-path="url(#pdd64115d42)" d="M 182.948268 158.203064 
L 181.410496 157.540248 
L 182.04687 157.160245 
z
" style="stroke:#000000;"/>
    <path clip-path="url(#pdd64115d42)" d="M 181.410496 196.738138 
L 182.948268 196.076771 
L 182.04687 197.118741 
z
" style="stroke:#000000;"/>
    <path clip-path="url(#pdd64115d42)" d="M 179.923539 158.025265 
L 181.410496 157.540248 
L 180.742359 158.047774 
z
" style="stroke:#000000;"/>
    <path clip-path="url(#pdd64115d42)" d="M 179.923539 196.256926 
L 181.862257 194.934728 
L 180.742359 196.229982 
z
" style="stroke:#000000;"/>
    <path clip-path="url(#pdd64115d42)" d="M 182.948268 158.203064 
L 183.370564 161.501639 
L 181.862257 159.344083 
z
" style="stroke:#000000;"/>
    <path clip-path="url(#pdd64115d42)" d="M 183.370564 192.778594 
L 182.948268 196.076771 
L 181.862257 194.934728 
z
" style="stroke:#000000;"/>
    <path clip-path="url(#pdd64115d42)" d="M 180.59239 196.765744 
L 180.742359 196.229982 
L 181.410496 196.738138 
z
" style="stroke:#000000;"/>
    <path clip-path="url(#pdd64115d42)" d="M 181.044634 159.323246 
L 180.742359 158.047774 
L 181.862257 159.344083 
z
" style="stroke:#000000;"/>
    <path clip-path="url(#pdd64115d42)" d="M 180.59239 157.517077 
L 182.04687 157.160245 
L 181.410496 157.540248 
z
" style="stroke:#000000;"/>
    <path clip-path="url(#pdd64115d42)" d="M 181.229446 197.146845 
L 181.410496 196.738138 
L 182.04687 197.118741 
z
" style="stroke:#000000;"/>
    <path clip-path="url(#pdd64115d42)" d="M 184.553843 160.498673 
L 183.370564 161.501639 
L 182.948268 158.203064 
z
" style="stroke:#000000;"/>
    <path clip-path="url(#pdd64115d42)" d="M 183.370564 192.778594 
L 184.553843 193.782675 
L 182.948268 196.076771 
z
" style="stroke:#000000;"/>
    <path clip-path="url(#pdd64115d42)" d="M 182.948268 196.076771 
L 181.229446 197.146845 
L 182.04687 197.118741 
z
" style="stroke:#000000;"/>
    <path clip-path="url(#pdd64115d42)" d="M 183.370564 161.501639 
L 181.044634 159.323246 
L 181.862257 159.344083 
z
" style="stroke:#000000;"/>
    <path clip-path="url(#pdd64115d42)" d="M 180.742359 196.229982 
L 180.59239 196.765744 
L 179.923539 196.256926 
z
" style="stroke:#000000;"/>
    <path clip-path="url(#pdd64115d42)" d="M 184.553843 160.498673 
L 184.676923 163.833114 
L 183.370564 161.501639 
z
" style="stroke:#000000;"/>
    <path clip-path="url(#pdd64115d42)" d="M 184.676923 190.44835 
L 184.553843 193.782675 
L 183.370564 192.778594 
z
" style="stroke:#000000;"/>
    <path clip-path="url(#pdd64115d42)" d="M 182.04687 157.160245 
L 182.131809 158.180742 
L 182.948268 158.203064 
z
" style="stroke:#000000;"/>
    <path clip-path="url(#pdd64115d42)" d="M 180.742359 158.047774 
L 181.044634 159.323246 
L 179.923539 158.025265 
z
" style="stroke:#000000;"/>
    <path clip-path="url(#pdd64115d42)" d="M 181.410496 157.540248 
L 179.923539 158.025265 
L 180.59239 157.517077 
z
" style="stroke:#000000;"/>
    <path clip-path="url(#pdd64115d42)" d="M 181.862257 194.934728 
L 182.554557 192.801083 
L 183.370564 192.778594 
z
" style="stroke:#000000;"/>
    <path clip-path="url(#pdd64115d42)" d="M 181.862257 194.934728 
L 179.923539 196.256926 
L 181.044634 194.960002 
z
" style="stroke:#000000;"/>
    <path clip-path="url(#pdd64115d42)" d="M 181.410496 196.738138 
L 181.229446 197.146845 
L 180.59239 196.765744 
z
" style="stroke:#000000;"/>
    <path clip-path="url(#pdd64115d42)" d="M 182.04687 157.160245 
L 180.59239 157.517077 
L 181.229446 157.136578 
z
" style="stroke:#000000;"/>
    <path clip-path="url(#pdd64115d42)" d="M 184.553843 193.782675 
L 182.131809 196.103533 
L 182.948268 196.076771 
z
" style="stroke:#000000;"/>
    <path clip-path="url(#pdd64115d42)" d="M 185.944521 162.979355 
L 184.676923 163.833114 
L 184.553843 160.498673 
z
" style="stroke:#000000;"/>
    <path clip-path="url(#pdd64115d42)" d="M 184.676923 190.44835 
L 185.944521 191.303303 
L 184.553843 193.782675 
z
" style="stroke:#000000;"/>
    <path clip-path="url(#pdd64115d42)" d="M 184.676923 163.833114 
L 182.554557 161.48359 
L 183.370564 161.501639 
z
" style="stroke:#000000;"/>
    <path clip-path="url(#pdd64115d42)" d="M 184.676923 163.833114 
L 185.944521 162.979355 
L 185.766569 166.312612 
z
" style="stroke:#000000;"/>
    <path clip-path="url(#pdd64115d42)" d="M 185.944521 191.303303 
L 184.676923 190.44835 
L 185.766569 187.969878 
z
" style="stroke:#000000;"/>
    <path clip-path="url(#pdd64115d42)" d="M 182.131809 158.180742 
L 182.04687 157.160245 
L 181.229446 157.136578 
z
" style="stroke:#000000;"/>
    <path clip-path="url(#pdd64115d42)" d="M 182.554557 192.801083 
L 181.862257 194.934728 
L 181.044634 194.960002 
z
" style="stroke:#000000;"/>
    <path clip-path="url(#pdd64115d42)" d="M 182.948268 158.203064 
L 183.739105 160.479318 
L 184.553843 160.498673 
z
" style="stroke:#000000;"/>
    <path clip-path="url(#pdd64115d42)" d="M 181.229446 197.146845 
L 182.948268 196.076771 
L 182.131809 196.103533 
z
" style="stroke:#000000;"/>
    <path clip-path="url(#pdd64115d42)" d="M 183.370564 192.778594 
L 183.862317 190.467826 
L 184.676923 190.44835 
z
" style="stroke:#000000;"/>
    <path clip-path="url(#pdd64115d42)" d="M 181.044634 159.323246 
L 183.370564 161.501639 
L 182.554557 161.48359 
z
" style="stroke:#000000;"/>
    <path clip-path="url(#pdd64115d42)" d="M 180.59239 196.765744 
L 181.044634 194.960002 
L 179.923539 196.256926 
z
" style="stroke:#000000;"/>
    <path clip-path="url(#pdd64115d42)" d="M 181.044634 159.323246 
L 180.59239 157.517077 
L 179.923539 158.025265 
z
" style="stroke:#000000;"/>
    <path clip-path="url(#pdd64115d42)" d="M 187.10456 165.617833 
L 185.766569 166.312612 
L 185.944521 162.979355 
z
" style="stroke:#000000;"/>
    <path clip-path="url(#pdd64115d42)" d="M 185.766569 187.969878 
L 187.10456 188.665918 
L 185.944521 191.303303 
z
" style="stroke:#000000;"/>
    <path clip-path="url(#pdd64115d42)" d="M 185.766569 166.312612 
L 187.10456 165.617833 
L 186.627169 168.91268 
z
" style="stroke:#000000;"/>
    <path clip-path="url(#pdd64115d42)" d="M 187.10456 188.665918 
L 185.766569 187.969878 
L 186.627169 185.370622 
z
" style="stroke:#000000;"/>
    <path clip-path="url(#pdd64115d42)" d="M 185.944521 191.303303 
L 183.739105 193.806474 
L 184.553843 193.782675 
z
" style="stroke:#000000;"/>
    <path clip-path="url(#pdd64115d42)" d="M 185.766569 166.312612 
L 183.862317 163.818081 
L 184.676923 163.833114 
z
" style="stroke:#000000;"/>
    <path clip-path="url(#pdd64115d42)" d="M 183.739105 160.479318 
L 182.948268 158.203064 
L 182.131809 158.180742 
z
" style="stroke:#000000;"/>
    <path clip-path="url(#pdd64115d42)" d="M 180.59239 196.765744 
L 182.131809 196.103533 
L 181.044634 194.960002 
z
" style="stroke:#000000;"/>
    <path clip-path="url(#pdd64115d42)" d="M 182.131809 158.180742 
L 180.59239 157.517077 
L 181.044634 159.323246 
z
" style="stroke:#000000;"/>
    <path clip-path="url(#pdd64115d42)" d="M 182.131809 196.103533 
L 180.59239 196.765744 
L 181.229446 197.146845 
z
" style="stroke:#000000;"/>
    <path clip-path="url(#pdd64115d42)" d="M 180.59239 157.517077 
L 182.131809 158.180742 
L 181.229446 157.136578 
z
" style="stroke:#000000;"/>
    <path clip-path="url(#pdd64115d42)" d="M 183.862317 190.467826 
L 183.370564 192.778594 
L 182.554557 192.801083 
z
" style="stroke:#000000;"/>
    <path clip-path="url(#pdd64115d42)" d="M 184.676923 190.44835 
L 184.953131 187.986146 
L 185.766569 187.969878 
z
" style="stroke:#000000;"/>
    <path clip-path="url(#pdd64115d42)" d="M 184.553843 160.498673 
L 185.131274 162.96321 
L 185.944521 162.979355 
z
" style="stroke:#000000;"/>
    <path clip-path="url(#pdd64115d42)" d="M 182.131809 196.103533 
L 184.553843 193.782675 
L 183.739105 193.806474 
z
" style="stroke:#000000;"/>
    <path clip-path="url(#pdd64115d42)" d="M 188.020772 168.384737 
L 186.627169 168.91268 
L 187.10456 165.617833 
z
" style="stroke:#000000;"/>
    <path clip-path="url(#pdd64115d42)" d="M 186.627169 185.370622 
L 188.020772 185.899878 
L 187.10456 188.665918 
z
" style="stroke:#000000;"/>
    <path clip-path="url(#pdd64115d42)" d="M 186.627169 168.91268 
L 188.020772 168.384737 
L 187.248961 171.604417 
z
" style="stroke:#000000;"/>
    <path clip-path="url(#pdd64115d42)" d="M 188.020772 185.899878 
L 186.627169 185.370622 
L 187.248961 182.67947 
z
" style="stroke:#000000;"/>
    <path clip-path="url(#pdd64115d42)" d="M 182.554557 161.48359 
L 184.676923 163.833114 
L 183.862317 163.818081 
z
" style="stroke:#000000;"/>
    <path clip-path="url(#pdd64115d42)" d="M 182.131809 196.103533 
L 182.554557 192.801083 
L 181.044634 194.960002 
z
" style="stroke:#000000;"/>
    <path clip-path="url(#pdd64115d42)" d="M 182.554557 161.48359 
L 182.131809 158.180742 
L 181.044634 159.323246 
z
" style="stroke:#000000;"/>
    <path clip-path="url(#pdd64115d42)" d="M 186.627169 168.91268 
L 184.953131 166.300791 
L 185.766569 166.312612 
z
" style="stroke:#000000;"/>
    <path clip-path="url(#pdd64115d42)" d="M 187.248961 171.604417 
L 188.682769 171.24931 
L 187.624879 174.357815 
z
" style="stroke:#000000;"/>
    <path clip-path="url(#pdd64115d42)" d="M 188.682769 183.035929 
L 187.248961 182.67947 
L 187.624879 179.926427 
z
" style="stroke:#000000;"/>
    <path clip-path="url(#pdd64115d42)" d="M 187.10456 188.665918 
L 185.131274 191.323896 
L 185.944521 191.303303 
z
" style="stroke:#000000;"/>
    <path clip-path="url(#pdd64115d42)" d="M 185.766569 187.969878 
L 185.814655 185.383521 
L 186.627169 185.370622 
z
" style="stroke:#000000;"/>
    <path clip-path="url(#pdd64115d42)" d="M 188.682769 171.24931 
L 187.248961 171.604417 
L 188.020772 168.384737 
z
" style="stroke:#000000;"/>
    <path clip-path="url(#pdd64115d42)" d="M 187.248961 182.67947 
L 188.682769 183.035929 
L 188.020772 185.899878 
z
" style="stroke:#000000;"/>
    <path clip-path="url(#pdd64115d42)" d="M 189.083009 180.106019 
L 187.624879 179.926427 
L 187.750668 177.14218 
z
" style="stroke:#000000;"/>
    <path clip-path="url(#pdd64115d42)" d="M 187.624879 174.357815 
L 189.083009 174.179597 
L 187.750668 177.14218 
z
" style="stroke:#000000;"/>
    <path clip-path="url(#pdd64115d42)" d="M 185.131274 162.96321 
L 184.553843 160.498673 
L 183.739105 160.479318 
z
" style="stroke:#000000;"/>
    <path clip-path="url(#pdd64115d42)" d="M 184.953131 187.986146 
L 184.676923 190.44835 
L 183.862317 190.467826 
z
" style="stroke:#000000;"/>
    <path clip-path="url(#pdd64115d42)" d="M 185.944521 162.979355 
L 186.292558 165.605106 
L 187.10456 165.617833 
z
" style="stroke:#000000;"/>
    <path clip-path="url(#pdd64115d42)" d="M 183.739105 193.806474 
L 182.554557 192.801083 
L 182.131809 196.103533 
z
" style="stroke:#000000;"/>
    <path clip-path="url(#pdd64115d42)" d="M 182.554557 161.48359 
L 183.739105 160.479318 
L 182.131809 158.180742 
z
" style="stroke:#000000;"/>
    <path clip-path="url(#pdd64115d42)" d="M 187.248961 171.604417 
L 185.814655 168.904229 
L 186.627169 168.91268 
z
" style="stroke:#000000;"/>
    <path clip-path="url(#pdd64115d42)" d="M 189.083009 174.179597 
L 187.624879 174.357815 
L 188.682769 171.24931 
z
" style="stroke:#000000;"/>
    <path clip-path="url(#pdd64115d42)" d="M 187.624879 179.926427 
L 189.083009 180.106019 
L 188.682769 183.035929 
z
" style="stroke:#000000;"/>
    <path clip-path="url(#pdd64115d42)" d="M 183.862317 163.818081 
L 185.766569 166.312612 
L 184.953131 166.300791 
z
" style="stroke:#000000;"/>
    <path clip-path="url(#pdd64115d42)" d="M 186.627169 185.370622 
L 186.437114 182.68888 
L 187.248961 182.67947 
z
" style="stroke:#000000;"/>
    <path clip-path="url(#pdd64115d42)" d="M 183.739105 193.806474 
L 185.944521 191.303303 
L 185.131274 191.323896 
z
" style="stroke:#000000;"/>
    <path clip-path="url(#pdd64115d42)" d="M 189.216928 177.142871 
L 187.750668 177.14218 
L 189.083009 174.179597 
z
" style="stroke:#000000;"/>
    <path clip-path="url(#pdd64115d42)" d="M 187.750668 177.14218 
L 189.216928 177.142871 
L 189.083009 180.106019 
z
" style="stroke:#000000;"/>
    <path clip-path="url(#pdd64115d42)" d="M 183.739105 193.806474 
L 183.862317 190.467826 
L 182.554557 192.801083 
z
" style="stroke:#000000;"/>
    <path clip-path="url(#pdd64115d42)" d="M 183.862317 163.818081 
L 183.739105 160.479318 
L 182.554557 161.48359 
z
" style="stroke:#000000;"/>
    <path clip-path="url(#pdd64115d42)" d="M 187.624879 174.357815 
L 186.437114 171.599457 
L 187.248961 171.604417 
z
" style="stroke:#000000;"/>
    <path clip-path="url(#pdd64115d42)" d="M 188.020772 185.899878 
L 186.292558 188.683095 
L 187.10456 188.665918 
z
" style="stroke:#000000;"/>
    <path clip-path="url(#pdd64115d42)" d="M 187.248961 182.67947 
L 186.813436 179.932265 
L 187.624879 179.926427 
z
" style="stroke:#000000;"/>
    <path clip-path="url(#pdd64115d42)" d="M 191.173779 156.153948 
L 188.728043 159.355766 
L 187.506406 159.006957 
z
" style="stroke:#000000;"/>
    <path clip-path="url(#pdd64115d42)" d="M 191.173779 164.663345 
L 187.506406 159.006957 
L 188.728043 159.355766 
z
" style="stroke:#000000;"/>
    <path clip-path="url(#pdd64115d42)" d="M 185.814655 185.383521 
L 185.766569 187.969878 
L 184.953131 187.986146 
z
" style="stroke:#000000;"/>
    <path clip-path="url(#pdd64115d42)" d="M 187.750668 177.14218 
L 186.813436 174.356428 
L 187.624879 174.357815 
z
" style="stroke:#000000;"/>
    <path clip-path="url(#pdd64115d42)" d="M 187.624879 179.926427 
L 186.939361 177.144406 
L 187.750668 177.14218 
z
" style="stroke:#000000;"/>
    <path clip-path="url(#pdd64115d42)" d="M 187.10456 165.617833 
L 187.209755 168.375598 
L 188.020772 168.384737 
z
" style="stroke:#000000;"/>
    <path clip-path="url(#pdd64115d42)" d="M 186.292558 165.605106 
L 185.944521 162.979355 
L 185.131274 162.96321 
z
" style="stroke:#000000;"/>
    <path clip-path="url(#pdd64115d42)" d="M 184.953131 166.300791 
L 186.627169 168.91268 
L 185.814655 168.904229 
z
" style="stroke:#000000;"/>
    <path clip-path="url(#pdd64115d42)" d="M 185.131274 191.323896 
L 183.862317 190.467826 
L 183.739105 193.806474 
z
" style="stroke:#000000;"/>
    <path clip-path="url(#pdd64115d42)" d="M 183.862317 163.818081 
L 185.131274 162.96321 
L 183.739105 160.479318 
z
" style="stroke:#000000;"/>
    <path clip-path="url(#pdd64115d42)" d="M 188.682769 183.035929 
L 187.209755 185.913469 
L 188.020772 185.899878 
z
" style="stroke:#000000;"/>
    <path clip-path="url(#pdd64115d42)" d="M 185.131274 191.323896 
L 187.10456 188.665918 
L 186.292558 188.683095 
z
" style="stroke:#000000;"/>
    <path clip-path="url(#pdd64115d42)" d="M 191.173779 164.663345 
L 191.173779 167.49981 
L 187.506406 159.006957 
z
" style="stroke:#000000;"/>
    <path clip-path="url(#pdd64115d42)" d="M 186.437114 182.68888 
L 186.627169 185.370622 
L 185.814655 185.383521 
z
" style="stroke:#000000;"/>
    <path clip-path="url(#pdd64115d42)" d="M 188.020772 168.384737 
L 187.872464 171.243887 
L 188.682769 171.24931 
z
" style="stroke:#000000;"/>
    <path clip-path="url(#pdd64115d42)" d="M 183.862317 190.467826 
L 185.131274 191.323896 
L 184.953131 187.986146 
z
" style="stroke:#000000;"/>
    <path clip-path="url(#pdd64115d42)" d="M 185.131274 162.96321 
L 183.862317 163.818081 
L 184.953131 166.300791 
z
" style="stroke:#000000;"/>
    <path clip-path="url(#pdd64115d42)" d="M 185.814655 168.904229 
L 187.248961 171.604417 
L 186.437114 171.599457 
z
" style="stroke:#000000;"/>
    <path clip-path="url(#pdd64115d42)" d="M 186.694837 158.98565 
L 191.173779 156.153948 
L 187.506406 159.006957 
z
" style="stroke:#000000;"/>
    <path clip-path="url(#pdd64115d42)" d="M 191.173779 167.49981 
L 186.694837 158.98565 
L 187.506406 159.006957 
z
" style="stroke:#000000;"/>
    <path clip-path="url(#pdd64115d42)" d="M 191.173779 156.153948 
L 191.173779 157.572181 
L 188.728043 159.355766 
z
" style="stroke:#000000;"/>
    <path clip-path="url(#pdd64115d42)" d="M 189.083009 180.106019 
L 187.872464 183.045805 
L 188.682769 183.035929 
z
" style="stroke:#000000;"/>
    <path clip-path="url(#pdd64115d42)" d="M 186.813436 179.932265 
L 187.248961 182.67947 
L 186.437114 182.68888 
z
" style="stroke:#000000;"/>
    <path clip-path="url(#pdd64115d42)" d="M 188.682769 171.24931 
L 188.273134 174.177978 
L 189.083009 174.179597 
z
" style="stroke:#000000;"/>
    <path clip-path="url(#pdd64115d42)" d="M 187.209755 168.375598 
L 187.10456 165.617833 
L 186.292558 165.605106 
z
" style="stroke:#000000;"/>
    <path clip-path="url(#pdd64115d42)" d="M 186.437114 171.599457 
L 187.624879 174.357815 
L 186.813436 174.356428 
z
" style="stroke:#000000;"/>
    <path clip-path="url(#pdd64115d42)" d="M 189.216928 177.142871 
L 188.273134 180.112093 
L 189.083009 180.106019 
z
" style="stroke:#000000;"/>
    <path clip-path="url(#pdd64115d42)" d="M 189.083009 174.179597 
L 188.407197 177.145098 
L 189.216928 177.142871 
z
" style="stroke:#000000;"/>
    <path clip-path="url(#pdd64115d42)" d="M 186.939361 177.144406 
L 187.624879 179.926427 
L 186.813436 179.932265 
z
" style="stroke:#000000;"/>
    <path clip-path="url(#pdd64115d42)" d="M 186.813436 174.356428 
L 187.750668 177.14218 
L 186.939361 177.144406 
z
" style="stroke:#000000;"/>
    <path clip-path="url(#pdd64115d42)" d="M 186.292558 188.683095 
L 188.020772 185.899878 
L 187.209755 185.913469 
z
" style="stroke:#000000;"/>
    <path clip-path="url(#pdd64115d42)" d="M 186.292558 188.683095 
L 184.953131 187.986146 
L 185.131274 191.323896 
z
" style="stroke:#000000;"/>
    <path clip-path="url(#pdd64115d42)" d="M 184.953131 166.300791 
L 186.292558 165.605106 
L 185.131274 162.96321 
z
" style="stroke:#000000;"/>
    <path clip-path="url(#pdd64115d42)" d="M 184.953131 187.986146 
L 186.292558 188.683095 
L 185.814655 185.383521 
z
" style="stroke:#000000;"/>
    <path clip-path="url(#pdd64115d42)" d="M 186.292558 165.605106 
L 184.953131 166.300791 
L 185.814655 168.904229 
z
" style="stroke:#000000;"/>
    <path clip-path="url(#pdd64115d42)" d="M 187.872464 171.243887 
L 188.020772 168.384737 
L 187.209755 168.375598 
z
" style="stroke:#000000;"/>
    <path clip-path="url(#pdd64115d42)" d="M 187.209755 185.913469 
L 188.682769 183.035929 
L 187.872464 183.045805 
z
" style="stroke:#000000;"/>
    <path clip-path="url(#pdd64115d42)" d="M 190.366154 157.548989 
L 188.728043 159.355766 
L 191.173779 157.572181 
z
" style="stroke:#000000;"/>
    <path clip-path="url(#pdd64115d42)" d="M 188.728043 159.355766 
L 190.366154 164.649364 
L 191.173779 164.663345 
z
" style="stroke:#000000;"/>
    <path clip-path="url(#pdd64115d42)" d="M 188.273134 174.177978 
L 188.682769 171.24931 
L 187.872464 171.243887 
z
" style="stroke:#000000;"/>
    <path clip-path="url(#pdd64115d42)" d="M 187.209755 185.913469 
L 185.814655 185.383521 
L 186.292558 188.683095 
z
" style="stroke:#000000;"/>
    <path clip-path="url(#pdd64115d42)" d="M 185.814655 168.904229 
L 187.209755 168.375598 
L 186.292558 165.605106 
z
" style="stroke:#000000;"/>
    <path clip-path="url(#pdd64115d42)" d="M 191.173779 156.153948 
L 193.622802 159.334163 
L 191.173779 157.572181 
z
" style="stroke:#000000;"/>
    <path clip-path="url(#pdd64115d42)" d="M 185.814655 185.383521 
L 187.209755 185.913469 
L 186.437114 182.68888 
z
" style="stroke:#000000;"/>
    <path clip-path="url(#pdd64115d42)" d="M 187.209755 168.375598 
L 185.814655 168.904229 
L 186.437114 171.599457 
z
" style="stroke:#000000;"/>
    <path clip-path="url(#pdd64115d42)" d="M 187.872464 183.045805 
L 189.083009 180.106019 
L 188.273134 180.112093 
z
" style="stroke:#000000;"/>
    <path clip-path="url(#pdd64115d42)" d="M 188.407197 177.145098 
L 189.083009 174.179597 
L 188.273134 174.177978 
z
" style="stroke:#000000;"/>
    <path clip-path="url(#pdd64115d42)" d="M 188.273134 180.112093 
L 189.216928 177.142871 
L 188.407197 177.145098 
z
" style="stroke:#000000;"/>
    <path clip-path="url(#pdd64115d42)" d="M 191.173779 164.663345 
L 194.848549 158.973837 
L 191.173779 167.49981 
z
" style="stroke:#000000;"/>
    <path clip-path="url(#pdd64115d42)" d="M 186.437114 182.68888 
L 187.872464 183.045805 
L 186.813436 179.932265 
z
" style="stroke:#000000;"/>
    <path clip-path="url(#pdd64115d42)" d="M 187.872464 171.243887 
L 186.437114 171.599457 
L 186.813436 174.356428 
z
" style="stroke:#000000;"/>
    <path clip-path="url(#pdd64115d42)" d="M 188.728043 159.355766 
L 190.366154 157.548989 
L 187.917787 159.334905 
z
" style="stroke:#000000;"/>
    <path clip-path="url(#pdd64115d42)" d="M 190.366154 164.649364 
L 188.728043 159.355766 
L 187.917787 159.334905 
z
" style="stroke:#000000;"/>
    <path clip-path="url(#pdd64115d42)" d="M 187.872464 183.045805 
L 186.437114 182.68888 
L 187.209755 185.913469 
z
" style="stroke:#000000;"/>
    <path clip-path="url(#pdd64115d42)" d="M 186.437114 171.599457 
L 187.872464 171.243887 
L 187.209755 168.375598 
z
" style="stroke:#000000;"/>
    <path clip-path="url(#pdd64115d42)" d="M 188.273134 174.177978 
L 186.813436 174.356428 
L 186.939361 177.144406 
z
" style="stroke:#000000;"/>
    <path clip-path="url(#pdd64115d42)" d="M 186.813436 179.932265 
L 188.273134 180.112093 
L 186.939361 177.144406 
z
" style="stroke:#000000;"/>
    <path clip-path="url(#pdd64115d42)" d="M 191.173779 156.153948 
L 186.694837 158.98565 
L 190.366154 156.128914 
z
" style="stroke:#000000;"/>
    <path clip-path="url(#pdd64115d42)" d="M 186.694837 158.98565 
L 191.173779 167.49981 
L 190.366154 167.489513 
z
" style="stroke:#000000;"/>
    <path clip-path="url(#pdd64115d42)" d="M 188.273134 180.112093 
L 186.813436 179.932265 
L 187.872464 183.045805 
z
" style="stroke:#000000;"/>
    <path clip-path="url(#pdd64115d42)" d="M 186.813436 174.356428 
L 188.273134 174.177978 
L 187.872464 171.243887 
z
" style="stroke:#000000;"/>
    <path clip-path="url(#pdd64115d42)" d="M 194.848549 158.973837 
L 191.173779 164.663345 
L 193.622802 159.334163 
z
" style="stroke:#000000;"/>
    <path clip-path="url(#pdd64115d42)" d="M 193.622802 159.334163 
L 191.173779 156.153948 
L 194.848549 158.973837 
z
" style="stroke:#000000;"/>
    <path clip-path="url(#pdd64115d42)" d="M 188.407197 177.145098 
L 186.939361 177.144406 
L 188.273134 180.112093 
z
" style="stroke:#000000;"/>
    <path clip-path="url(#pdd64115d42)" d="M 186.939361 177.144406 
L 188.407197 177.145098 
L 188.273134 174.177978 
z
" style="stroke:#000000;"/>
    <path clip-path="url(#pdd64115d42)" d="M 194.603334 177.145409 
L 193.132734 177.144716 
L 193.266951 174.178164 
z
" style="stroke:#000000;"/>
    <path clip-path="url(#pdd64115d42)" d="M 193.132734 177.144716 
L 194.603334 177.145409 
L 193.266951 180.111394 
z
" style="stroke:#000000;"/>
    <path clip-path="url(#pdd64115d42)" d="M 186.694837 158.98565 
L 190.366154 164.649364 
L 187.917787 159.334905 
z
" style="stroke:#000000;"/>
    <path clip-path="url(#pdd64115d42)" d="M 187.917787 159.334905 
L 190.366154 156.128914 
L 186.694837 158.98565 
z
" style="stroke:#000000;"/>
    <path clip-path="url(#pdd64115d42)" d="M 194.729605 174.355728 
L 193.266951 174.178164 
L 193.668199 171.24359 
z
" style="stroke:#000000;"/>
    <path clip-path="url(#pdd64115d42)" d="M 193.266951 180.111394 
L 194.729605 179.935208 
L 193.668199 183.046346 
z
" style="stroke:#000000;"/>
    <path clip-path="url(#pdd64115d42)" d="M 190.366154 156.128914 
L 194.848549 158.973837 
L 191.173779 156.153948 
z
" style="stroke:#000000;"/>
    <path clip-path="url(#pdd64115d42)" d="M 194.848549 158.973837 
L 190.366154 167.489513 
L 191.173779 167.49981 
z
" style="stroke:#000000;"/>
    <path clip-path="url(#pdd64115d42)" d="M 194.729605 179.935208 
L 193.266951 180.111394 
L 194.603334 177.145409 
z
" style="stroke:#000000;"/>
    <path clip-path="url(#pdd64115d42)" d="M 193.266951 174.178164 
L 194.729605 174.355728 
L 194.603334 177.145409 
z
" style="stroke:#000000;"/>
    <path clip-path="url(#pdd64115d42)" d="M 195.107071 171.596165 
L 193.668199 171.24359 
L 194.332252 168.372528 
z
" style="stroke:#000000;"/>
    <path clip-path="url(#pdd64115d42)" d="M 193.668199 183.046346 
L 195.107071 182.695127 
L 194.332252 185.918034 
z
" style="stroke:#000000;"/>
    <path clip-path="url(#pdd64115d42)" d="M 192.817817 159.313246 
L 191.173779 157.572181 
L 193.622802 159.334163 
z
" style="stroke:#000000;"/>
    <path clip-path="url(#pdd64115d42)" d="M 191.173779 164.663345 
L 192.817817 159.313246 
L 193.622802 159.334163 
z
" style="stroke:#000000;"/>
    <path clip-path="url(#pdd64115d42)" d="M 193.668199 171.24359 
L 195.107071 171.596165 
L 194.729605 174.355728 
z
" style="stroke:#000000;"/>
    <path clip-path="url(#pdd64115d42)" d="M 195.107071 182.695127 
L 193.668199 183.046346 
L 194.729605 179.935208 
z
" style="stroke:#000000;"/>
    <path clip-path="url(#pdd64115d42)" d="M 190.366154 164.649364 
L 186.694837 158.98565 
L 190.366154 167.489513 
z
" style="stroke:#000000;"/>
    <path clip-path="url(#pdd64115d42)" d="M 193.266951 180.111394 
L 192.32722 177.146948 
L 193.132734 177.144716 
z
" style="stroke:#000000;"/>
    <path clip-path="url(#pdd64115d42)" d="M 193.132734 177.144716 
L 192.461582 174.176541 
L 193.266951 174.178164 
z
" style="stroke:#000000;"/>
    <path clip-path="url(#pdd64115d42)" d="M 193.668199 183.046346 
L 192.461582 180.117482 
L 193.266951 180.111394 
z
" style="stroke:#000000;"/>
    <path clip-path="url(#pdd64115d42)" d="M 194.332252 168.372528 
L 195.731763 168.896382 
L 195.107071 171.596165 
z
" style="stroke:#000000;"/>
    <path clip-path="url(#pdd64115d42)" d="M 195.731763 185.395498 
L 194.332252 185.918034 
L 195.107071 182.695127 
z
" style="stroke:#000000;"/>
    <path clip-path="url(#pdd64115d42)" d="M 190.366154 156.128914 
L 187.917787 159.334905 
L 190.366154 157.548989 
z
" style="stroke:#000000;"/>
    <path clip-path="url(#pdd64115d42)" d="M 195.731763 168.896382 
L 194.332252 168.372528 
L 195.252107 165.595875 
z
" style="stroke:#000000;"/>
    <path clip-path="url(#pdd64115d42)" d="M 194.332252 185.918034 
L 195.731763 185.395498 
L 195.252107 188.695553 
z
" style="stroke:#000000;"/>
    <path clip-path="url(#pdd64115d42)" d="M 193.266951 174.178164 
L 192.863263 171.238152 
L 193.668199 171.24359 
z
" style="stroke:#000000;"/>
    <path clip-path="url(#pdd64115d42)" d="M 191.173779 157.572181 
L 192.817817 159.313246 
L 190.366154 157.548989 
z
" style="stroke:#000000;"/>
    <path clip-path="url(#pdd64115d42)" d="M 192.817817 159.313246 
L 191.173779 164.663345 
L 190.366154 164.649364 
z
" style="stroke:#000000;"/>
    <path clip-path="url(#pdd64115d42)" d="M 194.332252 185.918034 
L 192.863263 183.05625 
L 193.668199 183.046346 
z
" style="stroke:#000000;"/>
    <path clip-path="url(#pdd64115d42)" d="M 193.668199 171.24359 
L 193.528032 168.363357 
L 194.332252 168.372528 
z
" style="stroke:#000000;"/>
    <path clip-path="url(#pdd64115d42)" d="M 195.252107 165.595875 
L 196.597084 166.285481 
L 195.731763 168.896382 
z
" style="stroke:#000000;"/>
    <path clip-path="url(#pdd64115d42)" d="M 196.597084 188.007215 
L 195.252107 188.695553 
L 195.731763 185.395498 
z
" style="stroke:#000000;"/>
    <path clip-path="url(#pdd64115d42)" d="M 196.597084 166.285481 
L 195.252107 165.595875 
L 196.418089 162.943524 
z
" style="stroke:#000000;"/>
    <path clip-path="url(#pdd64115d42)" d="M 195.252107 188.695553 
L 196.597084 188.007215 
L 196.418089 191.349003 
z
" style="stroke:#000000;"/>
    <path clip-path="url(#pdd64115d42)" d="M 195.252107 188.695553 
L 193.528032 185.931672 
L 194.332252 185.918034 
z
" style="stroke:#000000;"/>
    <path clip-path="url(#pdd64115d42)" d="M 194.729605 174.355728 
L 193.799406 177.147643 
L 194.603334 177.145409 
z
" style="stroke:#000000;"/>
    <path clip-path="url(#pdd64115d42)" d="M 194.603334 177.145409 
L 193.925815 179.941069 
L 194.729605 179.935208 
z
" style="stroke:#000000;"/>
    <path clip-path="url(#pdd64115d42)" d="M 192.461582 174.176541 
L 193.132734 177.144716 
L 192.32722 177.146948 
z
" style="stroke:#000000;"/>
    <path clip-path="url(#pdd64115d42)" d="M 192.32722 177.146948 
L 193.266951 180.111394 
L 192.461582 180.117482 
z
" style="stroke:#000000;"/>
    <path clip-path="url(#pdd64115d42)" d="M 195.107071 171.596165 
L 193.925815 174.354335 
L 194.729605 174.355728 
z
" style="stroke:#000000;"/>
    <path clip-path="url(#pdd64115d42)" d="M 194.332252 168.372528 
L 194.448881 165.583091 
L 195.252107 165.595875 
z
" style="stroke:#000000;"/>
    <path clip-path="url(#pdd64115d42)" d="M 192.863263 171.238152 
L 193.266951 174.178164 
L 192.461582 174.176541 
z
" style="stroke:#000000;"/>
    <path clip-path="url(#pdd64115d42)" d="M 194.729605 179.935208 
L 194.303687 182.704578 
L 195.107071 182.695127 
z
" style="stroke:#000000;"/>
    <path clip-path="url(#pdd64115d42)" d="M 192.461582 180.117482 
L 193.668199 183.046346 
L 192.863263 183.05625 
z
" style="stroke:#000000;"/>
    <path clip-path="url(#pdd64115d42)" d="M 192.817817 159.313246 
L 190.366154 156.128914 
L 190.366154 157.548989 
z
" style="stroke:#000000;"/>
    <path clip-path="url(#pdd64115d42)" d="M 194.848549 158.973837 
L 190.366154 156.128914 
L 194.044886 158.952445 
z
" style="stroke:#000000;"/>
    <path clip-path="url(#pdd64115d42)" d="M 190.366154 167.489513 
L 194.848549 158.973837 
L 194.044886 158.952445 
z
" style="stroke:#000000;"/>
    <path clip-path="url(#pdd64115d42)" d="M 195.731763 168.896382 
L 194.303687 171.591183 
L 195.107071 171.596165 
z
" style="stroke:#000000;"/>
    <path clip-path="url(#pdd64115d42)" d="M 196.418089 162.943524 
L 197.693885 163.791622 
L 196.597084 166.285481 
z
" style="stroke:#000000;"/>
    <path clip-path="url(#pdd64115d42)" d="M 197.693885 190.502107 
L 196.418089 191.349003 
L 196.597084 188.007215 
z
" style="stroke:#000000;"/>
    <path clip-path="url(#pdd64115d42)" d="M 193.528032 168.363357 
L 193.668199 171.24359 
L 192.863263 171.238152 
z
" style="stroke:#000000;"/>
    <path clip-path="url(#pdd64115d42)" d="M 195.107071 182.695127 
L 194.929055 185.408462 
L 195.731763 185.395498 
z
" style="stroke:#000000;"/>
    <path clip-path="url(#pdd64115d42)" d="M 194.044886 158.952445 
L 190.366154 164.649364 
L 190.366154 167.489513 
z
" style="stroke:#000000;"/>
    <path clip-path="url(#pdd64115d42)" d="M 196.418089 191.349003 
L 194.448881 188.712807 
L 195.252107 188.695553 
z
" style="stroke:#000000;"/>
    <path clip-path="url(#pdd64115d42)" d="M 192.863263 183.05625 
L 194.332252 185.918034 
L 193.528032 185.931672 
z
" style="stroke:#000000;"/>
    <path clip-path="url(#pdd64115d42)" d="M 197.817856 160.444232 
L 197.693885 163.791622 
L 196.418089 162.943524 
z
" style="stroke:#000000;"/>
    <path clip-path="url(#pdd64115d42)" d="M 197.693885 190.502107 
L 197.817856 193.849614 
L 196.418089 191.349003 
z
" style="stroke:#000000;"/>
    <path clip-path="url(#pdd64115d42)" d="M 196.597084 166.285481 
L 194.929055 168.887889 
L 195.731763 168.896382 
z
" style="stroke:#000000;"/>
    <path clip-path="url(#pdd64115d42)" d="M 195.252107 165.595875 
L 195.616122 162.927286 
L 196.418089 162.943524 
z
" style="stroke:#000000;"/>
    <path clip-path="url(#pdd64115d42)" d="M 194.448881 165.583091 
L 194.332252 168.372528 
L 193.528032 168.363357 
z
" style="stroke:#000000;"/>
    <path clip-path="url(#pdd64115d42)" d="M 193.925815 179.941069 
L 194.603334 177.145409 
L 193.799406 177.147643 
z
" style="stroke:#000000;"/>
    <path clip-path="url(#pdd64115d42)" d="M 193.799406 177.147643 
L 194.729605 174.355728 
L 193.925815 174.354335 
z
" style="stroke:#000000;"/>
    <path clip-path="url(#pdd64115d42)" d="M 195.731763 185.395498 
L 195.795311 188.02358 
L 196.597084 188.007215 
z
" style="stroke:#000000;"/>
    <path clip-path="url(#pdd64115d42)" d="M 190.366154 164.649364 
L 194.044886 158.952445 
L 192.817817 159.313246 
z
" style="stroke:#000000;"/>
    <path clip-path="url(#pdd64115d42)" d="M 190.366154 156.128914 
L 192.817817 159.313246 
L 194.044886 158.952445 
z
" style="stroke:#000000;"/>
    <path clip-path="url(#pdd64115d42)" d="M 194.303687 182.704578 
L 194.729605 179.935208 
L 193.925815 179.941069 
z
" style="stroke:#000000;"/>
    <path clip-path="url(#pdd64115d42)" d="M 193.528032 185.931672 
L 195.252107 188.695553 
L 194.448881 188.712807 
z
" style="stroke:#000000;"/>
    <path clip-path="url(#pdd64115d42)" d="M 193.925815 174.354335 
L 195.107071 171.596165 
L 194.303687 171.591183 
z
" style="stroke:#000000;"/>
    <path clip-path="url(#pdd64115d42)" d="M 197.817856 160.444232 
L 199.010559 161.44174 
L 197.693885 163.791622 
z
" style="stroke:#000000;"/>
    <path clip-path="url(#pdd64115d42)" d="M 199.010559 192.85323 
L 197.817856 193.849614 
L 197.693885 190.502107 
z
" style="stroke:#000000;"/>
    <path clip-path="url(#pdd64115d42)" d="M 193.799406 177.147643 
L 192.32722 177.146948 
L 192.461582 180.117482 
z
" style="stroke:#000000;"/>
    <path clip-path="url(#pdd64115d42)" d="M 192.32722 177.146948 
L 193.799406 177.147643 
L 192.461582 174.176541 
z
" style="stroke:#000000;"/>
    <path clip-path="url(#pdd64115d42)" d="M 197.817856 193.849614 
L 195.616122 191.369714 
L 196.418089 191.349003 
z
" style="stroke:#000000;"/>
    <path clip-path="url(#pdd64115d42)" d="M 194.929055 185.408462 
L 195.107071 182.695127 
L 194.303687 182.704578 
z
" style="stroke:#000000;"/>
    <path clip-path="url(#pdd64115d42)" d="M 197.693885 163.791622 
L 195.795311 166.273589 
L 196.597084 166.285481 
z
" style="stroke:#000000;"/>
    <path clip-path="url(#pdd64115d42)" d="M 193.925815 179.941069 
L 192.461582 180.117482 
L 192.863263 183.05625 
z
" style="stroke:#000000;"/>
    <path clip-path="url(#pdd64115d42)" d="M 192.461582 174.176541 
L 193.925815 174.354335 
L 192.863263 171.238152 
z
" style="stroke:#000000;"/>
    <path clip-path="url(#pdd64115d42)" d="M 194.303687 171.591183 
L 195.731763 168.896382 
L 194.929055 168.887889 
z
" style="stroke:#000000;"/>
    <path clip-path="url(#pdd64115d42)" d="M 199.436595 158.124948 
L 199.010559 161.44174 
L 197.817856 160.444232 
z
" style="stroke:#000000;"/>
    <path clip-path="url(#pdd64115d42)" d="M 199.010559 192.85323 
L 199.436595 196.170423 
L 197.817856 193.849614 
z
" style="stroke:#000000;"/>
    <path clip-path="url(#pdd64115d42)" d="M 195.616122 162.927286 
L 195.252107 165.595875 
L 194.448881 165.583091 
z
" style="stroke:#000000;"/>
    <path clip-path="url(#pdd64115d42)" d="M 196.597084 188.007215 
L 196.893297 190.521724 
L 197.693885 190.502107 
z
" style="stroke:#000000;"/>
    <path clip-path="url(#pdd64115d42)" d="M 196.418089 162.943524 
L 197.017402 160.424736 
L 197.817856 160.444232 
z
" style="stroke:#000000;"/>
    <path clip-path="url(#pdd64115d42)" d="M 193.925815 174.354335 
L 192.461582 174.176541 
L 193.799406 177.147643 
z
" style="stroke:#000000;"/>
    <path clip-path="url(#pdd64115d42)" d="M 192.461582 180.117482 
L 193.925815 179.941069 
L 193.799406 177.147643 
z
" style="stroke:#000000;"/>
    <path clip-path="url(#pdd64115d42)" d="M 194.303687 182.704578 
L 192.863263 183.05625 
L 193.528032 185.931672 
z
" style="stroke:#000000;"/>
    <path clip-path="url(#pdd64115d42)" d="M 192.863263 171.238152 
L 194.303687 171.591183 
L 193.528032 168.363357 
z
" style="stroke:#000000;"/>
    <path clip-path="url(#pdd64115d42)" d="M 195.795311 188.02358 
L 195.731763 185.395498 
L 194.929055 185.408462 
z
" style="stroke:#000000;"/>
    <path clip-path="url(#pdd64115d42)" d="M 194.448881 188.712807 
L 196.418089 191.349003 
L 195.616122 191.369714 
z
" style="stroke:#000000;"/>
    <path clip-path="url(#pdd64115d42)" d="M 192.863263 183.05625 
L 194.303687 182.704578 
L 193.925815 179.941069 
z
" style="stroke:#000000;"/>
    <path clip-path="url(#pdd64115d42)" d="M 194.303687 171.591183 
L 192.863263 171.238152 
L 193.925815 174.354335 
z
" style="stroke:#000000;"/>
    <path clip-path="url(#pdd64115d42)" d="M 194.929055 168.887889 
L 196.597084 166.285481 
L 195.795311 166.273589 
z
" style="stroke:#000000;"/>
    <path clip-path="url(#pdd64115d42)" d="M 199.436595 158.124948 
L 200.533136 159.261463 
L 199.010559 161.44174 
z
" style="stroke:#000000;"/>
    <path clip-path="url(#pdd64115d42)" d="M 200.533136 195.034942 
L 199.436595 196.170423 
L 199.010559 192.85323 
z
" style="stroke:#000000;"/>
    <path clip-path="url(#pdd64115d42)" d="M 199.010559 161.44174 
L 196.893297 163.776482 
L 197.693885 163.791622 
z
" style="stroke:#000000;"/>
    <path clip-path="url(#pdd64115d42)" d="M 193.528032 185.931672 
L 194.929055 185.408462 
L 194.303687 182.704578 
z
" style="stroke:#000000;"/>
    <path clip-path="url(#pdd64115d42)" d="M 194.929055 168.887889 
L 193.528032 168.363357 
L 194.303687 171.591183 
z
" style="stroke:#000000;"/>
    <path clip-path="url(#pdd64115d42)" d="M 194.929055 185.408462 
L 193.528032 185.931672 
L 194.448881 188.712807 
z
" style="stroke:#000000;"/>
    <path clip-path="url(#pdd64115d42)" d="M 193.528032 168.363357 
L 194.929055 168.887889 
L 194.448881 165.583091 
z
" style="stroke:#000000;"/>
    <path clip-path="url(#pdd64115d42)" d="M 199.436595 196.170423 
L 197.017402 193.873587 
L 197.817856 193.849614 
z
" style="stroke:#000000;"/>
    <path clip-path="url(#pdd64115d42)" d="M 197.017402 160.424736 
L 196.418089 162.943524 
L 195.616122 162.927286 
z
" style="stroke:#000000;"/>
    <path clip-path="url(#pdd64115d42)" d="M 196.893297 190.521724 
L 196.597084 188.007215 
L 195.795311 188.02358 
z
" style="stroke:#000000;"/>
    <path clip-path="url(#pdd64115d42)" d="M 197.693885 190.502107 
L 198.211396 192.875914 
L 199.010559 192.85323 
z
" style="stroke:#000000;"/>
    <path clip-path="url(#pdd64115d42)" d="M 200.989664 157.443879 
L 199.436595 158.124948 
L 200.34664 157.068276 
z
" style="stroke:#000000;"/>
    <path clip-path="url(#pdd64115d42)" d="M 199.436595 196.170423 
L 200.989664 196.852956 
L 200.34664 197.227954 
z
" style="stroke:#000000;"/>
    <path clip-path="url(#pdd64115d42)" d="M 199.436595 158.124948 
L 200.989664 157.443879 
L 200.533136 159.261463 
z
" style="stroke:#000000;"/>
    <path clip-path="url(#pdd64115d42)" d="M 200.989664 196.852956 
L 199.436595 196.170423 
L 200.533136 195.034942 
z
" style="stroke:#000000;"/>
    <path clip-path="url(#pdd64115d42)" d="M 197.817856 160.444232 
L 198.637893 158.102424 
L 199.436595 158.124948 
z
" style="stroke:#000000;"/>
    <path clip-path="url(#pdd64115d42)" d="M 195.795311 166.273589 
L 197.693885 163.791622 
L 196.893297 163.776482 
z
" style="stroke:#000000;"/>
    <path clip-path="url(#pdd64115d42)" d="M 195.616122 191.369714 
L 197.817856 193.849614 
L 197.017402 193.873587 
z
" style="stroke:#000000;"/>
    <path clip-path="url(#pdd64115d42)" d="M 194.448881 188.712807 
L 195.795311 188.02358 
L 194.929055 185.408462 
z
" style="stroke:#000000;"/>
    <path clip-path="url(#pdd64115d42)" d="M 195.795311 166.273589 
L 194.448881 165.583091 
L 194.929055 168.887889 
z
" style="stroke:#000000;"/>
    <path clip-path="url(#pdd64115d42)" d="M 195.795311 188.02358 
L 194.448881 188.712807 
L 195.616122 191.369714 
z
" style="stroke:#000000;"/>
    <path clip-path="url(#pdd64115d42)" d="M 194.448881 165.583091 
L 195.795311 166.273589 
L 195.616122 162.927286 
z
" style="stroke:#000000;"/>
    <path clip-path="url(#pdd64115d42)" d="M 200.533136 159.261463 
L 200.989664 157.443879 
L 201.665268 157.947695 
z
" style="stroke:#000000;"/>
    <path clip-path="url(#pdd64115d42)" d="M 200.989664 196.852956 
L 200.533136 195.034942 
L 201.665268 196.349777 
z
" style="stroke:#000000;"/>
    <path clip-path="url(#pdd64115d42)" d="M 200.533136 159.261463 
L 198.211396 161.423535 
L 199.010559 161.44174 
z
" style="stroke:#000000;"/>
    <path clip-path="url(#pdd64115d42)" d="M 198.211396 192.875914 
L 197.693885 190.502107 
L 196.893297 190.521724 
z
" style="stroke:#000000;"/>
    <path clip-path="url(#pdd64115d42)" d="M 200.34664 197.227954 
L 198.637893 196.197428 
L 199.436595 196.170423 
z
" style="stroke:#000000;"/>
    <path clip-path="url(#pdd64115d42)" d="M 198.637893 158.102424 
L 197.817856 160.444232 
L 197.017402 160.424736 
z
" style="stroke:#000000;"/>
    <path clip-path="url(#pdd64115d42)" d="M 199.010559 192.85323 
L 199.735622 195.060476 
L 200.533136 195.034942 
z
" style="stroke:#000000;"/>
    <path clip-path="url(#pdd64115d42)" d="M 199.436595 158.124948 
L 199.548924 157.044369 
L 200.34664 157.068276 
z
" style="stroke:#000000;"/>
    <path clip-path="url(#pdd64115d42)" d="M 195.616122 191.369714 
L 196.893297 190.521724 
L 195.795311 188.02358 
z
" style="stroke:#000000;"/>
    <path clip-path="url(#pdd64115d42)" d="M 196.893297 163.776482 
L 195.616122 162.927286 
L 195.795311 166.273589 
z
" style="stroke:#000000;"/>
    <path clip-path="url(#pdd64115d42)" d="M 196.893297 163.776482 
L 199.010559 161.44174 
L 198.211396 161.423535 
z
" style="stroke:#000000;"/>
    <path clip-path="url(#pdd64115d42)" d="M 197.017402 193.873587 
L 196.893297 190.521724 
L 195.616122 191.369714 
z
" style="stroke:#000000;"/>
    <path clip-path="url(#pdd64115d42)" d="M 196.893297 163.776482 
L 197.017402 160.424736 
L 195.616122 162.927286 
z
" style="stroke:#000000;"/>
    <path clip-path="url(#pdd64115d42)" d="M 197.017402 193.873587 
L 199.436595 196.170423 
L 198.637893 196.197428 
z
" style="stroke:#000000;"/>
    <path clip-path="url(#pdd64115d42)" d="M 199.548924 157.044369 
L 200.989664 157.443879 
L 200.34664 157.068276 
z
" style="stroke:#000000;"/>
    <path clip-path="url(#pdd64115d42)" d="M 200.192645 196.880861 
L 200.34664 197.227954 
L 200.989664 196.852956 
z
" style="stroke:#000000;"/>
    <path clip-path="url(#pdd64115d42)" d="M 199.735622 195.060476 
L 201.665268 196.349777 
L 200.533136 195.034942 
z
" style="stroke:#000000;"/>
    <path clip-path="url(#pdd64115d42)" d="M 199.735622 195.060476 
L 199.010559 192.85323 
L 198.211396 192.875914 
z
" style="stroke:#000000;"/>
    <path clip-path="url(#pdd64115d42)" d="M 200.192645 157.420458 
L 201.665268 157.947695 
L 200.989664 157.443879 
z
" style="stroke:#000000;"/>
    <path clip-path="url(#pdd64115d42)" d="M 200.868982 157.924925 
L 200.533136 159.261463 
L 201.665268 157.947695 
z
" style="stroke:#000000;"/>
    <path clip-path="url(#pdd64115d42)" d="M 199.548924 157.044369 
L 199.436595 158.124948 
L 198.637893 158.102424 
z
" style="stroke:#000000;"/>
    <path clip-path="url(#pdd64115d42)" d="M 197.017402 193.873587 
L 198.211396 192.875914 
L 196.893297 190.521724 
z
" style="stroke:#000000;"/>
    <path clip-path="url(#pdd64115d42)" d="M 198.211396 161.423535 
L 197.017402 160.424736 
L 196.893297 163.776482 
z
" style="stroke:#000000;"/>
    <path clip-path="url(#pdd64115d42)" d="M 200.868982 196.377032 
L 200.989664 196.852956 
L 201.665268 196.349777 
z
" style="stroke:#000000;"/>
    <path clip-path="url(#pdd64115d42)" d="M 198.211396 161.423535 
L 200.533136 159.261463 
L 199.735622 159.240411 
z
" style="stroke:#000000;"/>
    <path clip-path="url(#pdd64115d42)" d="M 198.637893 196.197428 
L 200.34664 197.227954 
L 199.548924 197.256342 
z
" style="stroke:#000000;"/>
    <path clip-path="url(#pdd64115d42)" d="M 198.637893 196.197428 
L 198.211396 192.875914 
L 197.017402 193.873587 
z
" style="stroke:#000000;"/>
    <path clip-path="url(#pdd64115d42)" d="M 198.211396 161.423535 
L 198.637893 158.102424 
L 197.017402 160.424736 
z
" style="stroke:#000000;"/>
    <path clip-path="url(#pdd64115d42)" d="M 200.34664 197.227954 
L 200.192645 196.880861 
L 199.548924 197.256342 
z
" style="stroke:#000000;"/>
    <path clip-path="url(#pdd64115d42)" d="M 200.989664 157.443879 
L 199.548924 157.044369 
L 200.192645 157.420458 
z
" style="stroke:#000000;"/>
    <path clip-path="url(#pdd64115d42)" d="M 200.533136 159.261463 
L 200.868982 157.924925 
L 199.735622 159.240411 
z
" style="stroke:#000000;"/>
    <path clip-path="url(#pdd64115d42)" d="M 200.989664 196.852956 
L 200.868982 196.377032 
L 200.192645 196.880861 
z
" style="stroke:#000000;"/>
    <path clip-path="url(#pdd64115d42)" d="M 198.637893 196.197428 
L 199.735622 195.060476 
L 198.211396 192.875914 
z
" style="stroke:#000000;"/>
    <path clip-path="url(#pdd64115d42)" d="M 199.735622 159.240411 
L 198.637893 158.102424 
L 198.211396 161.423535 
z
" style="stroke:#000000;"/>
    <path clip-path="url(#pdd64115d42)" d="M 201.665268 196.349777 
L 199.735622 195.060476 
L 200.868982 196.377032 
z
" style="stroke:#000000;"/>
    <path clip-path="url(#pdd64115d42)" d="M 201.665268 157.947695 
L 200.192645 157.420458 
L 200.868982 157.924925 
z
" style="stroke:#000000;"/>
    <path clip-path="url(#pdd64115d42)" d="M 200.192645 196.880861 
L 198.637893 196.197428 
L 199.548924 197.256342 
z
" style="stroke:#000000;"/>
    <path clip-path="url(#pdd64115d42)" d="M 198.637893 158.102424 
L 200.192645 157.420458 
L 199.548924 157.044369 
z
" style="stroke:#000000;"/>
    <path clip-path="url(#pdd64115d42)" d="M 198.637893 196.197428 
L 200.192645 196.880861 
L 199.735622 195.060476 
z
" style="stroke:#000000;"/>
    <path clip-path="url(#pdd64115d42)" d="M 200.192645 157.420458 
L 198.637893 158.102424 
L 199.735622 159.240411 
z
" style="stroke:#000000;"/>
    <path clip-path="url(#pdd64115d42)" d="M 199.735622 195.060476 
L 200.192645 196.880861 
L 200.868982 196.377032 
z
" style="stroke:#000000;"/>
    <path clip-path="url(#pdd64115d42)" d="M 200.192645 157.420458 
L 199.735622 159.240411 
L 200.868982 157.924925 
z
" style="stroke:#000000;"/>
   </g>
  </g>
 </g>
 <defs>
  <clipPath id="pdd64115d42">
   <rect height="271.8" width="279" x="45" y="43.2"/>
  </clipPath>
 </defs>
</svg>
