<?xml version="1.0" encoding="utf-8" standalone="no"?>
<!DOCTYPE svg PUBLIC "-//W3C//DTD SVG 1.1//EN"
  "http://www.w3.org/Graphics/SVG/1.1/DTD/svg11.dtd">
<!-- Created with matplotlib (https://matplotlib.org/) -->
<svg height="360pt" version="1.1" viewBox="0 0 360 360" width="360pt" xmlns="http://www.w3.org/2000/svg" xmlns:xlink="http://www.w3.org/1999/xlink">
 <defs>
  <style type="text/css">
*{stroke-linecap:butt;stroke-linejoin:round;}
  </style>
 </defs>
 <g id="figure_1">
  <g id="patch_1">
   <path d="M 45 315 
L 324 315 
L 324 43.2 
L 45 43.2 
z
" style="fill:#ffffff;"/>
  </g>
  <g id="axes_1">
   <g id="Poly3DCollection_1">
    <path clip-path="url(#p7ab45123a1)" d="M 180.569337 157.528926 
L 181.042182 159.334549 
L 179.869949 158.035739 
z
" style="stroke:#000000;"/>
    <path clip-path="url(#p7ab45123a1)" d="M 181.042182 194.946293 
L 180.569337 196.751628 
L 179.869949 196.244388 
z
" style="stroke:#000000;"/>
    <path clip-path="url(#p7ab45123a1)" d="M 180.569337 157.528926 
L 182.178723 158.194518 
L 181.042182 159.334549 
z
" style="stroke:#000000;"/>
    <path clip-path="url(#p7ab45123a1)" d="M 182.178723 196.087017 
L 180.569337 196.751628 
L 181.042182 194.946293 
z
" style="stroke:#000000;"/>
    <path clip-path="url(#p7ab45123a1)" d="M 182.178723 158.194518 
L 180.569337 157.528926 
L 181.235401 157.149716 
z
" style="stroke:#000000;"/>
    <path clip-path="url(#p7ab45123a1)" d="M 180.569337 196.751628 
L 182.178723 196.087017 
L 181.235401 197.131243 
z
" style="stroke:#000000;"/>
    <path clip-path="url(#p7ab45123a1)" d="M 182.178723 158.194518 
L 182.620609 161.495253 
L 181.042182 159.334549 
z
" style="stroke:#000000;"/>
    <path clip-path="url(#p7ab45123a1)" d="M 182.620609 192.786551 
L 182.178723 196.087017 
L 181.042182 194.946293 
z
" style="stroke:#000000;"/>
    <path clip-path="url(#p7ab45123a1)" d="M 179.310957 158.012171 
L 180.569337 157.528926 
L 179.869949 158.035739 
z
" style="stroke:#000000;"/>
    <path clip-path="url(#p7ab45123a1)" d="M 179.310957 196.272598 
L 181.042182 194.946293 
L 179.869949 196.244388 
z
" style="stroke:#000000;"/>
    <path clip-path="url(#p7ab45123a1)" d="M 180.011224 196.780529 
L 179.869949 196.244388 
L 180.569337 196.751628 
z
" style="stroke:#000000;"/>
    <path clip-path="url(#p7ab45123a1)" d="M 183.858601 160.493399 
L 182.620609 161.495253 
L 182.178723 158.194518 
z
" style="stroke:#000000;"/>
    <path clip-path="url(#p7ab45123a1)" d="M 182.620609 192.786551 
L 183.858601 193.78916 
L 182.178723 196.087017 
z
" style="stroke:#000000;"/>
    <path clip-path="url(#p7ab45123a1)" d="M 180.484663 159.312737 
L 179.869949 158.035739 
L 181.042182 159.334549 
z
" style="stroke:#000000;"/>
    <path clip-path="url(#p7ab45123a1)" d="M 180.011224 157.504668 
L 181.235401 157.149716 
L 180.569337 157.528926 
z
" style="stroke:#000000;"/>
    <path clip-path="url(#p7ab45123a1)" d="M 183.858601 160.493399 
L 183.987357 163.829144 
L 182.620609 161.495253 
z
" style="stroke:#000000;"/>
    <path clip-path="url(#p7ab45123a1)" d="M 183.987357 190.453493 
L 183.858601 193.78916 
L 182.620609 192.786551 
z
" style="stroke:#000000;"/>
    <path clip-path="url(#p7ab45123a1)" d="M 180.678124 197.160662 
L 180.569337 196.751628 
L 181.235401 197.131243 
z
" style="stroke:#000000;"/>
    <path clip-path="url(#p7ab45123a1)" d="M 182.178723 196.087017 
L 180.678124 197.160662 
L 181.235401 197.131243 
z
" style="stroke:#000000;"/>
    <path clip-path="url(#p7ab45123a1)" d="M 182.620609 161.495253 
L 180.484663 159.312737 
L 181.042182 159.334549 
z
" style="stroke:#000000;"/>
    <path clip-path="url(#p7ab45123a1)" d="M 185.313248 162.976497 
L 183.987357 163.829144 
L 183.858601 160.493399 
z
" style="stroke:#000000;"/>
    <path clip-path="url(#p7ab45123a1)" d="M 183.987357 190.453493 
L 185.313248 191.306949 
L 183.858601 193.78916 
z
" style="stroke:#000000;"/>
    <path clip-path="url(#p7ab45123a1)" d="M 181.235401 157.149716 
L 181.622632 158.171156 
L 182.178723 158.194518 
z
" style="stroke:#000000;"/>
    <path clip-path="url(#p7ab45123a1)" d="M 181.042182 194.946293 
L 182.065073 192.810087 
L 182.620609 192.786551 
z
" style="stroke:#000000;"/>
    <path clip-path="url(#p7ab45123a1)" d="M 183.987357 163.829144 
L 185.313248 162.976497 
L 185.12713 166.310375 
z
" style="stroke:#000000;"/>
    <path clip-path="url(#p7ab45123a1)" d="M 185.313248 191.306949 
L 183.987357 190.453493 
L 185.12713 187.972957 
z
" style="stroke:#000000;"/>
    <path clip-path="url(#p7ab45123a1)" d="M 179.869949 196.244388 
L 180.011224 196.780529 
L 179.310957 196.272598 
z
" style="stroke:#000000;"/>
    <path clip-path="url(#p7ab45123a1)" d="M 183.858601 193.78916 
L 181.622632 196.115025 
L 182.178723 196.087017 
z
" style="stroke:#000000;"/>
    <path clip-path="url(#p7ab45123a1)" d="M 179.869949 158.035739 
L 180.484663 159.312737 
L 179.310957 158.012171 
z
" style="stroke:#000000;"/>
    <path clip-path="url(#p7ab45123a1)" d="M 180.569337 157.528926 
L 179.310957 158.012171 
L 180.011224 157.504668 
z
" style="stroke:#000000;"/>
    <path clip-path="url(#p7ab45123a1)" d="M 183.987357 163.829144 
L 182.065073 161.476365 
L 182.620609 161.495253 
z
" style="stroke:#000000;"/>
    <path clip-path="url(#p7ab45123a1)" d="M 186.526371 165.616593 
L 185.12713 166.310375 
L 185.313248 162.976497 
z
" style="stroke:#000000;"/>
    <path clip-path="url(#p7ab45123a1)" d="M 185.12713 187.972957 
L 186.526371 188.667592 
L 185.313248 191.306949 
z
" style="stroke:#000000;"/>
    <path clip-path="url(#p7ab45123a1)" d="M 181.042182 194.946293 
L 179.310957 196.272598 
L 180.484663 194.972749 
z
" style="stroke:#000000;"/>
    <path clip-path="url(#p7ab45123a1)" d="M 182.178723 158.194518 
L 183.304621 160.473147 
L 183.858601 160.493399 
z
" style="stroke:#000000;"/>
    <path clip-path="url(#p7ab45123a1)" d="M 180.569337 196.751628 
L 180.678124 197.160662 
L 180.011224 196.780529 
z
" style="stroke:#000000;"/>
    <path clip-path="url(#p7ab45123a1)" d="M 185.12713 166.310375 
L 186.526371 165.616593 
L 186.027165 168.91158 
z
" style="stroke:#000000;"/>
    <path clip-path="url(#p7ab45123a1)" d="M 186.526371 188.667592 
L 185.12713 187.972957 
L 186.027165 185.372301 
z
" style="stroke:#000000;"/>
    <path clip-path="url(#p7ab45123a1)" d="M 182.620609 192.786551 
L 183.433539 190.473871 
L 183.987357 190.453493 
z
" style="stroke:#000000;"/>
    <path clip-path="url(#p7ab45123a1)" d="M 181.235401 157.149716 
L 180.011224 157.504668 
L 180.678124 157.124942 
z
" style="stroke:#000000;"/>
    <path clip-path="url(#p7ab45123a1)" d="M 181.622632 158.171156 
L 181.235401 157.149716 
L 180.678124 157.124942 
z
" style="stroke:#000000;"/>
    <path clip-path="url(#p7ab45123a1)" d="M 182.065073 192.810087 
L 181.042182 194.946293 
L 180.484663 194.972749 
z
" style="stroke:#000000;"/>
    <path clip-path="url(#p7ab45123a1)" d="M 187.484334 168.38442 
L 186.027165 168.91158 
L 186.526371 165.616593 
z
" style="stroke:#000000;"/>
    <path clip-path="url(#p7ab45123a1)" d="M 186.027165 185.372301 
L 187.484334 185.900349 
L 186.526371 188.667592 
z
" style="stroke:#000000;"/>
    <path clip-path="url(#p7ab45123a1)" d="M 186.027165 168.91158 
L 187.484334 168.38442 
L 186.677363 171.603983 
z
" style="stroke:#000000;"/>
    <path clip-path="url(#p7ab45123a1)" d="M 187.484334 185.900349 
L 186.027165 185.372301 
L 186.677363 182.680294 
z
" style="stroke:#000000;"/>
    <path clip-path="url(#p7ab45123a1)" d="M 185.313248 191.306949 
L 183.304621 193.814061 
L 183.858601 193.78916 
z
" style="stroke:#000000;"/>
    <path clip-path="url(#p7ab45123a1)" d="M 185.12713 166.310375 
L 183.433539 163.813416 
L 183.987357 163.829144 
z
" style="stroke:#000000;"/>
    <path clip-path="url(#p7ab45123a1)" d="M 180.678124 197.160662 
L 182.178723 196.087017 
L 181.622632 196.115025 
z
" style="stroke:#000000;"/>
    <path clip-path="url(#p7ab45123a1)" d="M 180.484663 159.312737 
L 182.620609 161.495253 
L 182.065073 161.476365 
z
" style="stroke:#000000;"/>
    <path clip-path="url(#p7ab45123a1)" d="M 183.987357 190.453493 
L 184.574746 187.989974 
L 185.12713 187.972957 
z
" style="stroke:#000000;"/>
    <path clip-path="url(#p7ab45123a1)" d="M 186.677363 171.603983 
L 188.1764 171.249368 
L 187.07042 174.357729 
z
" style="stroke:#000000;"/>
    <path clip-path="url(#p7ab45123a1)" d="M 188.1764 183.035823 
L 186.677363 182.680294 
L 187.07042 179.926787 
z
" style="stroke:#000000;"/>
    <path clip-path="url(#p7ab45123a1)" d="M 183.858601 160.493399 
L 184.761098 162.959608 
L 185.313248 162.976497 
z
" style="stroke:#000000;"/>
    <path clip-path="url(#p7ab45123a1)" d="M 188.1764 171.249368 
L 186.677363 171.603983 
L 187.484334 168.38442 
z
" style="stroke:#000000;"/>
    <path clip-path="url(#p7ab45123a1)" d="M 186.677363 182.680294 
L 188.1764 183.035823 
L 187.484334 185.900349 
z
" style="stroke:#000000;"/>
    <path clip-path="url(#p7ab45123a1)" d="M 188.59478 180.105787 
L 187.07042 179.926787 
L 187.201938 177.142298 
z
" style="stroke:#000000;"/>
    <path clip-path="url(#p7ab45123a1)" d="M 187.07042 174.357729 
L 188.59478 174.179659 
L 187.201938 177.142298 
z
" style="stroke:#000000;"/>
    <path clip-path="url(#p7ab45123a1)" d="M 183.304621 160.473147 
L 182.178723 158.194518 
L 181.622632 158.171156 
z
" style="stroke:#000000;"/>
    <path clip-path="url(#p7ab45123a1)" d="M 188.59478 174.179659 
L 187.07042 174.357729 
L 188.1764 171.249368 
z
" style="stroke:#000000;"/>
    <path clip-path="url(#p7ab45123a1)" d="M 187.07042 179.926787 
L 188.59478 180.105787 
L 188.1764 183.035823 
z
" style="stroke:#000000;"/>
    <path clip-path="url(#p7ab45123a1)" d="M 186.027165 168.91158 
L 184.574746 166.298009 
L 185.12713 166.310375 
z
" style="stroke:#000000;"/>
    <path clip-path="url(#p7ab45123a1)" d="M 180.011224 196.780529 
L 180.484663 194.972749 
L 179.310957 196.272598 
z
" style="stroke:#000000;"/>
    <path clip-path="url(#p7ab45123a1)" d="M 180.484663 159.312737 
L 180.011224 157.504668 
L 179.310957 158.012171 
z
" style="stroke:#000000;"/>
    <path clip-path="url(#p7ab45123a1)" d="M 183.433539 190.473871 
L 182.620609 192.786551 
L 182.065073 192.810087 
z
" style="stroke:#000000;"/>
    <path clip-path="url(#p7ab45123a1)" d="M 188.734762 177.142766 
L 187.201938 177.142298 
L 188.59478 174.179659 
z
" style="stroke:#000000;"/>
    <path clip-path="url(#p7ab45123a1)" d="M 187.201938 177.142298 
L 188.734762 177.142766 
L 188.59478 180.105787 
z
" style="stroke:#000000;"/>
    <path clip-path="url(#p7ab45123a1)" d="M 186.526371 188.667592 
L 184.761098 191.328489 
L 185.313248 191.306949 
z
" style="stroke:#000000;"/>
    <path clip-path="url(#p7ab45123a1)" d="M 185.12713 187.972957 
L 185.475913 185.385793 
L 186.027165 185.372301 
z
" style="stroke:#000000;"/>
    <path clip-path="url(#p7ab45123a1)" d="M 181.622632 196.115025 
L 183.858601 193.78916 
L 183.304621 193.814061 
z
" style="stroke:#000000;"/>
    <path clip-path="url(#p7ab45123a1)" d="M 182.065073 161.476365 
L 183.987357 163.829144 
L 183.433539 163.813416 
z
" style="stroke:#000000;"/>
    <path clip-path="url(#p7ab45123a1)" d="M 190.779826 156.158482 
L 188.223728 159.356053 
L 186.946548 159.005467 
z
" style="stroke:#000000;"/>
    <path clip-path="url(#p7ab45123a1)" d="M 190.779826 164.665876 
L 186.946548 159.005467 
L 188.223728 159.356053 
z
" style="stroke:#000000;"/>
    <path clip-path="url(#p7ab45123a1)" d="M 185.313248 162.976497 
L 185.975748 165.603283 
L 186.526371 165.616593 
z
" style="stroke:#000000;"/>
    <path clip-path="url(#p7ab45123a1)" d="M 186.677363 171.603983 
L 185.475913 168.902741 
L 186.027165 168.91158 
z
" style="stroke:#000000;"/>
    <path clip-path="url(#p7ab45123a1)" d="M 180.011224 196.780529 
L 181.622632 196.115025 
L 180.484663 194.972749 
z
" style="stroke:#000000;"/>
    <path clip-path="url(#p7ab45123a1)" d="M 181.622632 158.171156 
L 180.011224 157.504668 
L 180.484663 159.312737 
z
" style="stroke:#000000;"/>
    <path clip-path="url(#p7ab45123a1)" d="M 181.622632 196.115025 
L 180.011224 196.780529 
L 180.678124 197.160662 
z
" style="stroke:#000000;"/>
    <path clip-path="url(#p7ab45123a1)" d="M 180.011224 157.504668 
L 181.622632 158.171156 
L 180.678124 157.124942 
z
" style="stroke:#000000;"/>
    <path clip-path="url(#p7ab45123a1)" d="M 186.027165 185.372301 
L 186.126929 182.690135 
L 186.677363 182.680294 
z
" style="stroke:#000000;"/>
    <path clip-path="url(#p7ab45123a1)" d="M 187.07042 174.357729 
L 186.126929 171.598796 
L 186.677363 171.603983 
z
" style="stroke:#000000;"/>
    <path clip-path="url(#p7ab45123a1)" d="M 187.484334 185.900349 
L 185.975748 188.685556 
L 186.526371 188.667592 
z
" style="stroke:#000000;"/>
    <path clip-path="url(#p7ab45123a1)" d="M 184.761098 162.959608 
L 183.858601 160.493399 
L 183.304621 160.473147 
z
" style="stroke:#000000;"/>
    <path clip-path="url(#p7ab45123a1)" d="M 184.574746 187.989974 
L 183.987357 190.453493 
L 183.433539 190.473871 
z
" style="stroke:#000000;"/>
    <path clip-path="url(#p7ab45123a1)" d="M 186.677363 182.680294 
L 186.520481 179.932893 
L 187.07042 179.926787 
z
" style="stroke:#000000;"/>
    <path clip-path="url(#p7ab45123a1)" d="M 190.779826 164.665876 
L 190.779826 167.501675 
L 186.946548 159.005467 
z
" style="stroke:#000000;"/>
    <path clip-path="url(#p7ab45123a1)" d="M 181.622632 196.115025 
L 182.065073 192.810087 
L 180.484663 194.972749 
z
" style="stroke:#000000;"/>
    <path clip-path="url(#p7ab45123a1)" d="M 182.065073 161.476365 
L 181.622632 158.171156 
L 180.484663 159.312737 
z
" style="stroke:#000000;"/>
    <path clip-path="url(#p7ab45123a1)" d="M 187.201938 177.142298 
L 186.520481 174.356278 
L 187.07042 174.357729 
z
" style="stroke:#000000;"/>
    <path clip-path="url(#p7ab45123a1)" d="M 187.07042 179.926787 
L 186.652165 177.144626 
L 187.201938 177.142298 
z
" style="stroke:#000000;"/>
    <path clip-path="url(#p7ab45123a1)" d="M 186.526371 165.616593 
L 186.934917 168.374863 
L 187.484334 168.38442 
z
" style="stroke:#000000;"/>
    <path clip-path="url(#p7ab45123a1)" d="M 183.433539 163.813416 
L 185.12713 166.310375 
L 184.574746 166.298009 
z
" style="stroke:#000000;"/>
    <path clip-path="url(#p7ab45123a1)" d="M 183.304621 193.814061 
L 185.313248 191.306949 
L 184.761098 191.328489 
z
" style="stroke:#000000;"/>
    <path clip-path="url(#p7ab45123a1)" d="M 190.779826 156.158482 
L 190.779826 157.576381 
L 188.223728 159.356053 
z
" style="stroke:#000000;"/>
    <path clip-path="url(#p7ab45123a1)" d="M 188.1764 183.035823 
L 186.934917 185.914561 
L 187.484334 185.900349 
z
" style="stroke:#000000;"/>
    <path clip-path="url(#p7ab45123a1)" d="M 187.484334 168.38442 
L 187.627855 171.243698 
L 188.1764 171.249368 
z
" style="stroke:#000000;"/>
    <path clip-path="url(#p7ab45123a1)" d="M 183.304621 193.814061 
L 182.065073 192.810087 
L 181.622632 196.115025 
z
" style="stroke:#000000;"/>
    <path clip-path="url(#p7ab45123a1)" d="M 182.065073 161.476365 
L 183.304621 160.473147 
L 181.622632 158.171156 
z
" style="stroke:#000000;"/>
    <path clip-path="url(#p7ab45123a1)" d="M 185.475913 185.385793 
L 185.12713 187.972957 
L 184.574746 187.989974 
z
" style="stroke:#000000;"/>
    <path clip-path="url(#p7ab45123a1)" d="M 186.396454 158.983185 
L 190.779826 156.158482 
L 186.946548 159.005467 
z
" style="stroke:#000000;"/>
    <path clip-path="url(#p7ab45123a1)" d="M 190.779826 167.501675 
L 186.396454 158.983185 
L 186.946548 159.005467 
z
" style="stroke:#000000;"/>
    <path clip-path="url(#p7ab45123a1)" d="M 185.975748 165.603283 
L 185.313248 162.976497 
L 184.761098 162.959608 
z
" style="stroke:#000000;"/>
    <path clip-path="url(#p7ab45123a1)" d="M 184.574746 166.298009 
L 186.027165 168.91158 
L 185.475913 168.902741 
z
" style="stroke:#000000;"/>
    <path clip-path="url(#p7ab45123a1)" d="M 188.59478 180.105787 
L 187.627855 183.046149 
L 188.1764 183.035823 
z
" style="stroke:#000000;"/>
    <path clip-path="url(#p7ab45123a1)" d="M 188.1764 171.249368 
L 188.046762 174.177966 
L 188.59478 174.179659 
z
" style="stroke:#000000;"/>
    <path clip-path="url(#p7ab45123a1)" d="M 183.304621 193.814061 
L 183.433539 190.473871 
L 182.065073 192.810087 
z
" style="stroke:#000000;"/>
    <path clip-path="url(#p7ab45123a1)" d="M 183.433539 163.813416 
L 183.304621 160.473147 
L 182.065073 161.476365 
z
" style="stroke:#000000;"/>
    <path clip-path="url(#p7ab45123a1)" d="M 188.734762 177.142766 
L 188.046762 180.112138 
L 188.59478 180.105787 
z
" style="stroke:#000000;"/>
    <path clip-path="url(#p7ab45123a1)" d="M 184.761098 191.328489 
L 186.526371 188.667592 
L 185.975748 188.685556 
z
" style="stroke:#000000;"/>
    <path clip-path="url(#p7ab45123a1)" d="M 188.59478 174.179659 
L 188.186919 177.145094 
L 188.734762 177.142766 
z
" style="stroke:#000000;"/>
    <path clip-path="url(#p7ab45123a1)" d="M 186.126929 182.690135 
L 186.027165 185.372301 
L 185.475913 185.385793 
z
" style="stroke:#000000;"/>
    <path clip-path="url(#p7ab45123a1)" d="M 185.475913 168.902741 
L 186.677363 171.603983 
L 186.126929 171.598796 
z
" style="stroke:#000000;"/>
    <path clip-path="url(#p7ab45123a1)" d="M 190.779826 156.158482 
L 193.338247 159.341449 
L 190.779826 157.576381 
z
" style="stroke:#000000;"/>
    <path clip-path="url(#p7ab45123a1)" d="M 186.520481 179.932893 
L 186.677363 182.680294 
L 186.126929 182.690135 
z
" style="stroke:#000000;"/>
    <path clip-path="url(#p7ab45123a1)" d="M 186.934917 168.374863 
L 186.526371 165.616593 
L 185.975748 165.603283 
z
" style="stroke:#000000;"/>
    <path clip-path="url(#p7ab45123a1)" d="M 184.761098 191.328489 
L 183.433539 190.473871 
L 183.304621 193.814061 
z
" style="stroke:#000000;"/>
    <path clip-path="url(#p7ab45123a1)" d="M 183.433539 163.813416 
L 184.761098 162.959608 
L 183.304621 160.473147 
z
" style="stroke:#000000;"/>
    <path clip-path="url(#p7ab45123a1)" d="M 186.126929 171.598796 
L 187.07042 174.357729 
L 186.520481 174.356278 
z
" style="stroke:#000000;"/>
    <path clip-path="url(#p7ab45123a1)" d="M 190.779826 164.665876 
L 194.61833 158.983078 
L 190.779826 167.501675 
z
" style="stroke:#000000;"/>
    <path clip-path="url(#p7ab45123a1)" d="M 186.652165 177.144626 
L 187.07042 179.926787 
L 186.520481 179.932893 
z
" style="stroke:#000000;"/>
    <path clip-path="url(#p7ab45123a1)" d="M 186.520481 174.356278 
L 187.201938 177.142298 
L 186.652165 177.144626 
z
" style="stroke:#000000;"/>
    <path clip-path="url(#p7ab45123a1)" d="M 185.975748 188.685556 
L 187.484334 185.900349 
L 186.934917 185.914561 
z
" style="stroke:#000000;"/>
    <path clip-path="url(#p7ab45123a1)" d="M 183.433539 190.473871 
L 184.761098 191.328489 
L 184.574746 187.989974 
z
" style="stroke:#000000;"/>
    <path clip-path="url(#p7ab45123a1)" d="M 184.761098 162.959608 
L 183.433539 163.813416 
L 184.574746 166.298009 
z
" style="stroke:#000000;"/>
    <path clip-path="url(#p7ab45123a1)" d="M 190.234561 157.552144 
L 188.223728 159.356053 
L 190.779826 157.576381 
z
" style="stroke:#000000;"/>
    <path clip-path="url(#p7ab45123a1)" d="M 188.223728 159.356053 
L 190.234561 164.651265 
L 190.779826 164.665876 
z
" style="stroke:#000000;"/>
    <path clip-path="url(#p7ab45123a1)" d="M 187.627855 171.243698 
L 187.484334 168.38442 
L 186.934917 168.374863 
z
" style="stroke:#000000;"/>
    <path clip-path="url(#p7ab45123a1)" d="M 193.338247 159.341449 
L 190.779826 156.158482 
L 194.61833 158.983078 
z
" style="stroke:#000000;"/>
    <path clip-path="url(#p7ab45123a1)" d="M 194.61833 158.983078 
L 190.779826 164.665876 
L 193.338247 159.341449 
z
" style="stroke:#000000;"/>
    <path clip-path="url(#p7ab45123a1)" d="M 186.934917 185.914561 
L 188.1764 183.035823 
L 187.627855 183.046149 
z
" style="stroke:#000000;"/>
    <path clip-path="url(#p7ab45123a1)" d="M 185.975748 188.685556 
L 184.574746 187.989974 
L 184.761098 191.328489 
z
" style="stroke:#000000;"/>
    <path clip-path="url(#p7ab45123a1)" d="M 184.574746 166.298009 
L 185.975748 165.603283 
L 184.761098 162.959608 
z
" style="stroke:#000000;"/>
    <path clip-path="url(#p7ab45123a1)" d="M 194.362267 177.144481 
L 192.826377 177.144013 
L 192.966569 174.17869 
z
" style="stroke:#000000;"/>
    <path clip-path="url(#p7ab45123a1)" d="M 192.826377 177.144013 
L 194.362267 177.144481 
L 192.966569 180.109421 
z
" style="stroke:#000000;"/>
    <path clip-path="url(#p7ab45123a1)" d="M 188.046762 174.177966 
L 188.1764 171.249368 
L 187.627855 171.243698 
z
" style="stroke:#000000;"/>
    <path clip-path="url(#p7ab45123a1)" d="M 184.574746 187.989974 
L 185.975748 188.685556 
L 185.475913 185.385793 
z
" style="stroke:#000000;"/>
    <path clip-path="url(#p7ab45123a1)" d="M 185.975748 165.603283 
L 184.574746 166.298009 
L 185.475913 168.902741 
z
" style="stroke:#000000;"/>
    <path clip-path="url(#p7ab45123a1)" d="M 187.627855 183.046149 
L 188.59478 180.105787 
L 188.046762 180.112138 
z
" style="stroke:#000000;"/>
    <path clip-path="url(#p7ab45123a1)" d="M 194.494126 174.356319 
L 192.966569 174.17869 
L 193.385661 171.245501 
z
" style="stroke:#000000;"/>
    <path clip-path="url(#p7ab45123a1)" d="M 192.966569 180.109421 
L 194.494126 179.932724 
L 193.385661 183.042866 
z
" style="stroke:#000000;"/>
    <path clip-path="url(#p7ab45123a1)" d="M 188.186919 177.145094 
L 188.59478 174.179659 
L 188.046762 174.177966 
z
" style="stroke:#000000;"/>
    <path clip-path="url(#p7ab45123a1)" d="M 188.046762 180.112138 
L 188.734762 177.142766 
L 188.186919 177.145094 
z
" style="stroke:#000000;"/>
    <path clip-path="url(#p7ab45123a1)" d="M 194.494126 179.932724 
L 192.966569 180.109421 
L 194.362267 177.144481 
z
" style="stroke:#000000;"/>
    <path clip-path="url(#p7ab45123a1)" d="M 192.966569 174.17869 
L 194.494126 174.356319 
L 194.362267 177.144481 
z
" style="stroke:#000000;"/>
    <path clip-path="url(#p7ab45123a1)" d="M 194.888276 171.598404 
L 193.385661 171.245501 
L 194.07918 168.376167 
z
" style="stroke:#000000;"/>
    <path clip-path="url(#p7ab45123a1)" d="M 193.385661 183.042866 
L 194.888276 182.690879 
L 194.07918 185.912623 
z
" style="stroke:#000000;"/>
    <path clip-path="url(#p7ab45123a1)" d="M 188.223728 159.356053 
L 190.234561 157.552144 
L 187.675242 159.334242 
z
" style="stroke:#000000;"/>
    <path clip-path="url(#p7ab45123a1)" d="M 190.234561 164.651265 
L 188.223728 159.356053 
L 187.675242 159.334242 
z
" style="stroke:#000000;"/>
    <path clip-path="url(#p7ab45123a1)" d="M 193.385661 171.245501 
L 194.888276 171.598404 
L 194.494126 174.356319 
z
" style="stroke:#000000;"/>
    <path clip-path="url(#p7ab45123a1)" d="M 194.888276 182.690879 
L 193.385661 183.042866 
L 194.494126 179.932724 
z
" style="stroke:#000000;"/>
    <path clip-path="url(#p7ab45123a1)" d="M 186.934917 185.914561 
L 185.475913 185.385793 
L 185.975748 188.685556 
z
" style="stroke:#000000;"/>
    <path clip-path="url(#p7ab45123a1)" d="M 185.475913 168.902741 
L 186.934917 168.374863 
L 185.975748 165.603283 
z
" style="stroke:#000000;"/>
    <path clip-path="url(#p7ab45123a1)" d="M 185.475913 185.385793 
L 186.934917 185.914561 
L 186.126929 182.690135 
z
" style="stroke:#000000;"/>
    <path clip-path="url(#p7ab45123a1)" d="M 186.934917 168.374863 
L 185.475913 168.902741 
L 186.126929 171.598796 
z
" style="stroke:#000000;"/>
    <path clip-path="url(#p7ab45123a1)" d="M 190.779826 156.158482 
L 186.396454 158.983185 
L 190.234561 156.132319 
z
" style="stroke:#000000;"/>
    <path clip-path="url(#p7ab45123a1)" d="M 186.396454 158.983185 
L 190.779826 167.501675 
L 190.234561 167.490914 
z
" style="stroke:#000000;"/>
    <path clip-path="url(#p7ab45123a1)" d="M 190.234561 156.132319 
L 194.61833 158.983078 
L 190.779826 156.158482 
z
" style="stroke:#000000;"/>
    <path clip-path="url(#p7ab45123a1)" d="M 194.61833 158.983078 
L 190.234561 167.490914 
L 190.779826 167.501675 
z
" style="stroke:#000000;"/>
    <path clip-path="url(#p7ab45123a1)" d="M 194.07918 168.376167 
L 195.540524 168.900562 
L 194.888276 171.598404 
z
" style="stroke:#000000;"/>
    <path clip-path="url(#p7ab45123a1)" d="M 195.540524 185.389118 
L 194.07918 185.912623 
L 194.888276 182.690879 
z
" style="stroke:#000000;"/>
    <path clip-path="url(#p7ab45123a1)" d="M 195.540524 168.900562 
L 194.07918 168.376167 
L 195.039717 165.601749 
z
" style="stroke:#000000;"/>
    <path clip-path="url(#p7ab45123a1)" d="M 194.07918 185.912623 
L 195.540524 185.389118 
L 195.039717 188.687626 
z
" style="stroke:#000000;"/>
    <path clip-path="url(#p7ab45123a1)" d="M 186.126929 182.690135 
L 187.627855 183.046149 
L 186.520481 179.932893 
z
" style="stroke:#000000;"/>
    <path clip-path="url(#p7ab45123a1)" d="M 187.627855 171.243698 
L 186.126929 171.598796 
L 186.520481 174.356278 
z
" style="stroke:#000000;"/>
    <path clip-path="url(#p7ab45123a1)" d="M 192.79621 159.319599 
L 190.779826 157.576381 
L 193.338247 159.341449 
z
" style="stroke:#000000;"/>
    <path clip-path="url(#p7ab45123a1)" d="M 190.779826 164.665876 
L 192.79621 159.319599 
L 193.338247 159.341449 
z
" style="stroke:#000000;"/>
    <path clip-path="url(#p7ab45123a1)" d="M 187.627855 183.046149 
L 186.126929 182.690135 
L 186.934917 185.914561 
z
" style="stroke:#000000;"/>
    <path clip-path="url(#p7ab45123a1)" d="M 186.126929 171.598796 
L 187.627855 171.243698 
L 186.934917 168.374863 
z
" style="stroke:#000000;"/>
    <path clip-path="url(#p7ab45123a1)" d="M 188.046762 174.177966 
L 186.520481 174.356278 
L 186.652165 177.144626 
z
" style="stroke:#000000;"/>
    <path clip-path="url(#p7ab45123a1)" d="M 186.520481 179.932893 
L 188.046762 180.112138 
L 186.652165 177.144626 
z
" style="stroke:#000000;"/>
    <path clip-path="url(#p7ab45123a1)" d="M 192.966569 180.109421 
L 192.283694 177.146345 
L 192.826377 177.144013 
z
" style="stroke:#000000;"/>
    <path clip-path="url(#p7ab45123a1)" d="M 192.826377 177.144013 
L 192.424063 174.176994 
L 192.966569 174.17869 
z
" style="stroke:#000000;"/>
    <path clip-path="url(#p7ab45123a1)" d="M 188.046762 180.112138 
L 186.520481 179.932893 
L 187.627855 183.046149 
z
" style="stroke:#000000;"/>
    <path clip-path="url(#p7ab45123a1)" d="M 186.520481 174.356278 
L 188.046762 174.177966 
L 187.627855 171.243698 
z
" style="stroke:#000000;"/>
    <path clip-path="url(#p7ab45123a1)" d="M 193.385661 183.042866 
L 192.424063 180.115781 
L 192.966569 180.109421 
z
" style="stroke:#000000;"/>
    <path clip-path="url(#p7ab45123a1)" d="M 195.039717 165.601749 
L 196.443894 166.292034 
L 195.540524 168.900562 
z
" style="stroke:#000000;"/>
    <path clip-path="url(#p7ab45123a1)" d="M 196.443894 187.998197 
L 195.039717 188.687626 
L 195.540524 185.389118 
z
" style="stroke:#000000;"/>
    <path clip-path="url(#p7ab45123a1)" d="M 192.966569 174.17869 
L 192.843684 171.239821 
L 193.385661 171.245501 
z
" style="stroke:#000000;"/>
    <path clip-path="url(#p7ab45123a1)" d="M 188.186919 177.145094 
L 186.652165 177.144626 
L 188.046762 180.112138 
z
" style="stroke:#000000;"/>
    <path clip-path="url(#p7ab45123a1)" d="M 186.652165 177.144626 
L 188.186919 177.145094 
L 188.046762 174.177966 
z
" style="stroke:#000000;"/>
    <path clip-path="url(#p7ab45123a1)" d="M 196.443894 166.292034 
L 195.039717 165.601749 
L 196.257039 162.952275 
z
" style="stroke:#000000;"/>
    <path clip-path="url(#p7ab45123a1)" d="M 195.039717 188.687626 
L 196.443894 187.998197 
L 196.257039 191.337842 
z
" style="stroke:#000000;"/>
    <path clip-path="url(#p7ab45123a1)" d="M 194.07918 185.912623 
L 192.843684 183.053211 
L 193.385661 183.042866 
z
" style="stroke:#000000;"/>
    <path clip-path="url(#p7ab45123a1)" d="M 187.675242 159.334242 
L 190.234561 156.132319 
L 186.396454 158.983185 
z
" style="stroke:#000000;"/>
    <path clip-path="url(#p7ab45123a1)" d="M 186.396454 158.983185 
L 190.234561 164.651265 
L 187.675242 159.334242 
z
" style="stroke:#000000;"/>
    <path clip-path="url(#p7ab45123a1)" d="M 193.385661 171.245501 
L 193.538078 168.366588 
L 194.07918 168.376167 
z
" style="stroke:#000000;"/>
    <path clip-path="url(#p7ab45123a1)" d="M 190.779826 157.576381 
L 192.79621 159.319599 
L 190.234561 157.552144 
z
" style="stroke:#000000;"/>
    <path clip-path="url(#p7ab45123a1)" d="M 192.79621 159.319599 
L 190.779826 164.665876 
L 190.234561 164.651265 
z
" style="stroke:#000000;"/>
    <path clip-path="url(#p7ab45123a1)" d="M 196.257039 162.952275 
L 197.588723 163.801096 
L 196.443894 166.292034 
z
" style="stroke:#000000;"/>
    <path clip-path="url(#p7ab45123a1)" d="M 197.588723 190.489833 
L 196.257039 191.337842 
L 196.443894 187.998197 
z
" style="stroke:#000000;"/>
    <path clip-path="url(#p7ab45123a1)" d="M 195.039717 188.687626 
L 193.538078 185.926868 
L 194.07918 185.912623 
z
" style="stroke:#000000;"/>
    <path clip-path="url(#p7ab45123a1)" d="M 194.494126 174.356319 
L 193.821522 177.146814 
L 194.362267 177.144481 
z
" style="stroke:#000000;"/>
    <path clip-path="url(#p7ab45123a1)" d="M 194.362267 177.144481 
L 193.953548 179.938846 
L 194.494126 179.932724 
z
" style="stroke:#000000;"/>
    <path clip-path="url(#p7ab45123a1)" d="M 190.234561 164.651265 
L 186.396454 158.983185 
L 190.234561 167.490914 
z
" style="stroke:#000000;"/>
    <path clip-path="url(#p7ab45123a1)" d="M 194.888276 171.598404 
L 193.953548 174.354864 
L 194.494126 174.356319 
z
" style="stroke:#000000;"/>
    <path clip-path="url(#p7ab45123a1)" d="M 197.718108 160.456596 
L 197.588723 163.801096 
L 196.257039 162.952275 
z
" style="stroke:#000000;"/>
    <path clip-path="url(#p7ab45123a1)" d="M 197.588723 190.489833 
L 197.718108 193.834411 
L 196.257039 191.337842 
z
" style="stroke:#000000;"/>
    <path clip-path="url(#p7ab45123a1)" d="M 194.07918 168.376167 
L 194.499828 165.588399 
L 195.039717 165.601749 
z
" style="stroke:#000000;"/>
    <path clip-path="url(#p7ab45123a1)" d="M 194.494126 179.932724 
L 194.348196 182.700748 
L 194.888276 182.690879 
z
" style="stroke:#000000;"/>
    <path clip-path="url(#p7ab45123a1)" d="M 190.234561 156.132319 
L 187.675242 159.334242 
L 190.234561 157.552144 
z
" style="stroke:#000000;"/>
    <path clip-path="url(#p7ab45123a1)" d="M 195.540524 168.900562 
L 194.348196 171.593202 
L 194.888276 171.598404 
z
" style="stroke:#000000;"/>
    <path clip-path="url(#p7ab45123a1)" d="M 194.888276 182.690879 
L 195.001267 185.402656 
L 195.540524 185.389118 
z
" style="stroke:#000000;"/>
    <path clip-path="url(#p7ab45123a1)" d="M 192.424063 174.176994 
L 192.826377 177.144013 
L 192.283694 177.146345 
z
" style="stroke:#000000;"/>
    <path clip-path="url(#p7ab45123a1)" d="M 196.257039 191.337842 
L 194.499828 188.705644 
L 195.039717 188.687626 
z
" style="stroke:#000000;"/>
    <path clip-path="url(#p7ab45123a1)" d="M 192.283694 177.146345 
L 192.966569 180.109421 
L 192.424063 180.115781 
z
" style="stroke:#000000;"/>
    <path clip-path="url(#p7ab45123a1)" d="M 197.718108 160.456596 
L 198.962758 161.454761 
L 197.588723 163.801096 
z
" style="stroke:#000000;"/>
    <path clip-path="url(#p7ab45123a1)" d="M 198.962758 192.837006 
L 197.718108 193.834411 
L 197.588723 190.489833 
z
" style="stroke:#000000;"/>
    <path clip-path="url(#p7ab45123a1)" d="M 192.843684 171.239821 
L 192.966569 174.17869 
L 192.424063 174.176994 
z
" style="stroke:#000000;"/>
    <path clip-path="url(#p7ab45123a1)" d="M 192.424063 180.115781 
L 193.385661 183.042866 
L 192.843684 183.053211 
z
" style="stroke:#000000;"/>
    <path clip-path="url(#p7ab45123a1)" d="M 196.443894 166.292034 
L 195.001267 168.891693 
L 195.540524 168.900562 
z
" style="stroke:#000000;"/>
    <path clip-path="url(#p7ab45123a1)" d="M 195.039717 165.601749 
L 195.718688 162.93532 
L 196.257039 162.952275 
z
" style="stroke:#000000;"/>
    <path clip-path="url(#p7ab45123a1)" d="M 194.61833 158.983078 
L 190.234561 156.132319 
L 194.077909 158.960735 
z
" style="stroke:#000000;"/>
    <path clip-path="url(#p7ab45123a1)" d="M 190.234561 167.490914 
L 194.61833 158.983078 
L 194.077909 158.960735 
z
" style="stroke:#000000;"/>
    <path clip-path="url(#p7ab45123a1)" d="M 199.407286 158.141711 
L 198.962758 161.454761 
L 197.718108 160.456596 
z
" style="stroke:#000000;"/>
    <path clip-path="url(#p7ab45123a1)" d="M 198.962758 192.837006 
L 199.407286 196.150326 
L 197.718108 193.834411 
z
" style="stroke:#000000;"/>
    <path clip-path="url(#p7ab45123a1)" d="M 195.540524 185.389118 
L 195.905779 188.015283 
L 196.443894 187.998197 
z
" style="stroke:#000000;"/>
    <path clip-path="url(#p7ab45123a1)" d="M 193.538078 168.366588 
L 193.385661 171.245501 
L 192.843684 171.239821 
z
" style="stroke:#000000;"/>
    <path clip-path="url(#p7ab45123a1)" d="M 192.843684 183.053211 
L 194.07918 185.912623 
L 193.538078 185.926868 
z
" style="stroke:#000000;"/>
    <path clip-path="url(#p7ab45123a1)" d="M 192.79621 159.319599 
L 190.234561 156.132319 
L 190.234561 157.552144 
z
" style="stroke:#000000;"/>
    <path clip-path="url(#p7ab45123a1)" d="M 197.718108 193.834411 
L 195.718688 191.359467 
L 196.257039 191.337842 
z
" style="stroke:#000000;"/>
    <path clip-path="url(#p7ab45123a1)" d="M 197.588723 163.801096 
L 195.905779 166.279618 
L 196.443894 166.292034 
z
" style="stroke:#000000;"/>
    <path clip-path="url(#p7ab45123a1)" d="M 194.499828 165.588399 
L 194.07918 168.376167 
L 193.538078 168.366588 
z
" style="stroke:#000000;"/>
    <path clip-path="url(#p7ab45123a1)" d="M 193.953548 179.938846 
L 194.362267 177.144481 
L 193.821522 177.146814 
z
" style="stroke:#000000;"/>
    <path clip-path="url(#p7ab45123a1)" d="M 193.821522 177.146814 
L 194.494126 174.356319 
L 193.953548 174.354864 
z
" style="stroke:#000000;"/>
    <path clip-path="url(#p7ab45123a1)" d="M 199.407286 158.141711 
L 200.551266 159.278697 
L 198.962758 161.454761 
z
" style="stroke:#000000;"/>
    <path clip-path="url(#p7ab45123a1)" d="M 200.551266 195.014038 
L 199.407286 196.150326 
L 198.962758 192.837006 
z
" style="stroke:#000000;"/>
    <path clip-path="url(#p7ab45123a1)" d="M 194.077909 158.960735 
L 190.234561 164.651265 
L 190.234561 167.490914 
z
" style="stroke:#000000;"/>
    <path clip-path="url(#p7ab45123a1)" d="M 194.348196 182.700748 
L 194.494126 179.932724 
L 193.953548 179.938846 
z
" style="stroke:#000000;"/>
    <path clip-path="url(#p7ab45123a1)" d="M 196.443894 187.998197 
L 197.052054 190.51031 
L 197.588723 190.489833 
z
" style="stroke:#000000;"/>
    <path clip-path="url(#p7ab45123a1)" d="M 196.257039 162.952275 
L 197.181603 160.436245 
L 197.718108 160.456596 
z
" style="stroke:#000000;"/>
    <path clip-path="url(#p7ab45123a1)" d="M 193.538078 185.926868 
L 195.039717 188.687626 
L 194.499828 188.705644 
z
" style="stroke:#000000;"/>
    <path clip-path="url(#p7ab45123a1)" d="M 193.953548 174.354864 
L 194.888276 171.598404 
L 194.348196 171.593202 
z
" style="stroke:#000000;"/>
    <path clip-path="url(#p7ab45123a1)" d="M 195.001267 185.402656 
L 194.888276 182.690879 
L 194.348196 182.700748 
z
" style="stroke:#000000;"/>
    <path clip-path="url(#p7ab45123a1)" d="M 201.02748 157.46378 
L 199.407286 158.141711 
L 200.356718 157.087545 
z
" style="stroke:#000000;"/>
    <path clip-path="url(#p7ab45123a1)" d="M 199.407286 196.150326 
L 201.02748 196.829246 
L 200.356718 197.205072 
z
" style="stroke:#000000;"/>
    <path clip-path="url(#p7ab45123a1)" d="M 199.407286 158.141711 
L 201.02748 157.46378 
L 200.551266 159.278697 
z
" style="stroke:#000000;"/>
    <path clip-path="url(#p7ab45123a1)" d="M 201.02748 196.829246 
L 199.407286 196.150326 
L 200.551266 195.014038 
z
" style="stroke:#000000;"/>
    <path clip-path="url(#p7ab45123a1)" d="M 194.348196 171.593202 
L 195.540524 168.900562 
L 195.001267 168.891693 
z
" style="stroke:#000000;"/>
    <path clip-path="url(#p7ab45123a1)" d="M 195.718688 162.93532 
L 195.039717 165.601749 
L 194.499828 165.588399 
z
" style="stroke:#000000;"/>
    <path clip-path="url(#p7ab45123a1)" d="M 190.234561 164.651265 
L 194.077909 158.960735 
L 192.79621 159.319599 
z
" style="stroke:#000000;"/>
    <path clip-path="url(#p7ab45123a1)" d="M 190.234561 156.132319 
L 192.79621 159.319599 
L 194.077909 158.960735 
z
" style="stroke:#000000;"/>
    <path clip-path="url(#p7ab45123a1)" d="M 198.962758 161.454761 
L 197.052054 163.785291 
L 197.588723 163.801096 
z
" style="stroke:#000000;"/>
    <path clip-path="url(#p7ab45123a1)" d="M 199.407286 196.150326 
L 197.181603 193.859435 
L 197.718108 193.834411 
z
" style="stroke:#000000;"/>
    <path clip-path="url(#p7ab45123a1)" d="M 195.905779 188.015283 
L 195.540524 185.389118 
L 195.001267 185.402656 
z
" style="stroke:#000000;"/>
    <path clip-path="url(#p7ab45123a1)" d="M 194.499828 188.705644 
L 196.257039 191.337842 
L 195.718688 191.359467 
z
" style="stroke:#000000;"/>
    <path clip-path="url(#p7ab45123a1)" d="M 193.821522 177.146814 
L 192.283694 177.146345 
L 192.424063 180.115781 
z
" style="stroke:#000000;"/>
    <path clip-path="url(#p7ab45123a1)" d="M 192.283694 177.146345 
L 193.821522 177.146814 
L 192.424063 174.176994 
z
" style="stroke:#000000;"/>
    <path clip-path="url(#p7ab45123a1)" d="M 197.588723 190.489833 
L 198.427827 192.860679 
L 198.962758 192.837006 
z
" style="stroke:#000000;"/>
    <path clip-path="url(#p7ab45123a1)" d="M 200.551266 159.278697 
L 201.02748 157.46378 
L 201.732144 157.968085 
z
" style="stroke:#000000;"/>
    <path clip-path="url(#p7ab45123a1)" d="M 201.02748 196.829246 
L 200.551266 195.014038 
L 201.732144 196.32537 
z
" style="stroke:#000000;"/>
    <path clip-path="url(#p7ab45123a1)" d="M 195.001267 168.891693 
L 196.443894 166.292034 
L 195.905779 166.279618 
z
" style="stroke:#000000;"/>
    <path clip-path="url(#p7ab45123a1)" d="M 193.953548 179.938846 
L 192.424063 180.115781 
L 192.843684 183.053211 
z
" style="stroke:#000000;"/>
    <path clip-path="url(#p7ab45123a1)" d="M 192.424063 174.176994 
L 193.953548 174.354864 
L 192.843684 171.239821 
z
" style="stroke:#000000;"/>
    <path clip-path="url(#p7ab45123a1)" d="M 197.718108 160.456596 
L 198.872917 158.118206 
L 199.407286 158.141711 
z
" style="stroke:#000000;"/>
    <path clip-path="url(#p7ab45123a1)" d="M 193.953548 174.354864 
L 192.424063 174.176994 
L 193.821522 177.146814 
z
" style="stroke:#000000;"/>
    <path clip-path="url(#p7ab45123a1)" d="M 192.424063 180.115781 
L 193.953548 179.938846 
L 193.821522 177.146814 
z
" style="stroke:#000000;"/>
    <path clip-path="url(#p7ab45123a1)" d="M 194.348196 182.700748 
L 192.843684 183.053211 
L 193.538078 185.926868 
z
" style="stroke:#000000;"/>
    <path clip-path="url(#p7ab45123a1)" d="M 192.843684 171.239821 
L 194.348196 171.593202 
L 193.538078 168.366588 
z
" style="stroke:#000000;"/>
    <path clip-path="url(#p7ab45123a1)" d="M 197.181603 160.436245 
L 196.257039 162.952275 
L 195.718688 162.93532 
z
" style="stroke:#000000;"/>
    <path clip-path="url(#p7ab45123a1)" d="M 192.843684 183.053211 
L 194.348196 182.700748 
L 193.953548 179.938846 
z
" style="stroke:#000000;"/>
    <path clip-path="url(#p7ab45123a1)" d="M 194.348196 171.593202 
L 192.843684 171.239821 
L 193.953548 174.354864 
z
" style="stroke:#000000;"/>
    <path clip-path="url(#p7ab45123a1)" d="M 197.052054 190.51031 
L 196.443894 187.998197 
L 195.905779 188.015283 
z
" style="stroke:#000000;"/>
    <path clip-path="url(#p7ab45123a1)" d="M 200.551266 159.278697 
L 198.427827 161.435762 
L 198.962758 161.454761 
z
" style="stroke:#000000;"/>
    <path clip-path="url(#p7ab45123a1)" d="M 200.356718 197.205072 
L 198.872917 196.178507 
L 199.407286 196.150326 
z
" style="stroke:#000000;"/>
    <path clip-path="url(#p7ab45123a1)" d="M 195.905779 166.279618 
L 197.588723 163.801096 
L 197.052054 163.785291 
z
" style="stroke:#000000;"/>
    <path clip-path="url(#p7ab45123a1)" d="M 195.718688 191.359467 
L 197.718108 193.834411 
L 197.181603 193.859435 
z
" style="stroke:#000000;"/>
    <path clip-path="url(#p7ab45123a1)" d="M 193.538078 185.926868 
L 195.001267 185.402656 
L 194.348196 182.700748 
z
" style="stroke:#000000;"/>
    <path clip-path="url(#p7ab45123a1)" d="M 195.001267 168.891693 
L 193.538078 168.366588 
L 194.348196 171.593202 
z
" style="stroke:#000000;"/>
    <path clip-path="url(#p7ab45123a1)" d="M 195.001267 185.402656 
L 193.538078 185.926868 
L 194.499828 188.705644 
z
" style="stroke:#000000;"/>
    <path clip-path="url(#p7ab45123a1)" d="M 193.538078 168.366588 
L 195.001267 168.891693 
L 194.499828 165.588399 
z
" style="stroke:#000000;"/>
    <path clip-path="url(#p7ab45123a1)" d="M 198.962758 192.837006 
L 200.018345 195.040679 
L 200.551266 195.014038 
z
" style="stroke:#000000;"/>
    <path clip-path="url(#p7ab45123a1)" d="M 199.407286 158.141711 
L 199.82355 157.062601 
L 200.356718 157.087545 
z
" style="stroke:#000000;"/>
    <path clip-path="url(#p7ab45123a1)" d="M 199.82355 157.062601 
L 201.02748 157.46378 
L 200.356718 157.087545 
z
" style="stroke:#000000;"/>
    <path clip-path="url(#p7ab45123a1)" d="M 198.427827 192.860679 
L 197.588723 190.489833 
L 197.052054 190.51031 
z
" style="stroke:#000000;"/>
    <path clip-path="url(#p7ab45123a1)" d="M 194.499828 188.705644 
L 195.905779 188.015283 
L 195.001267 185.402656 
z
" style="stroke:#000000;"/>
    <path clip-path="url(#p7ab45123a1)" d="M 195.905779 166.279618 
L 194.499828 165.588399 
L 195.001267 168.891693 
z
" style="stroke:#000000;"/>
    <path clip-path="url(#p7ab45123a1)" d="M 200.495161 196.858358 
L 200.356718 197.205072 
L 201.02748 196.829246 
z
" style="stroke:#000000;"/>
    <path clip-path="url(#p7ab45123a1)" d="M 198.872917 158.118206 
L 197.718108 160.456596 
L 197.181603 160.436245 
z
" style="stroke:#000000;"/>
    <path clip-path="url(#p7ab45123a1)" d="M 200.018345 195.040679 
L 201.732144 196.32537 
L 200.551266 195.014038 
z
" style="stroke:#000000;"/>
    <path clip-path="url(#p7ab45123a1)" d="M 195.905779 188.015283 
L 194.499828 188.705644 
L 195.718688 191.359467 
z
" style="stroke:#000000;"/>
    <path clip-path="url(#p7ab45123a1)" d="M 194.499828 165.588399 
L 195.905779 166.279618 
L 195.718688 162.93532 
z
" style="stroke:#000000;"/>
    <path clip-path="url(#p7ab45123a1)" d="M 197.052054 163.785291 
L 198.962758 161.454761 
L 198.427827 161.435762 
z
" style="stroke:#000000;"/>
    <path clip-path="url(#p7ab45123a1)" d="M 200.495161 157.439345 
L 201.732144 157.968085 
L 201.02748 157.46378 
z
" style="stroke:#000000;"/>
    <path clip-path="url(#p7ab45123a1)" d="M 201.200717 157.944333 
L 200.551266 159.278697 
L 201.732144 157.968085 
z
" style="stroke:#000000;"/>
    <path clip-path="url(#p7ab45123a1)" d="M 197.181603 193.859435 
L 199.407286 196.150326 
L 198.872917 196.178507 
z
" style="stroke:#000000;"/>
    <path clip-path="url(#p7ab45123a1)" d="M 201.200717 196.3538 
L 201.02748 196.829246 
L 201.732144 196.32537 
z
" style="stroke:#000000;"/>
    <path clip-path="url(#p7ab45123a1)" d="M 195.718688 191.359467 
L 197.052054 190.51031 
L 195.905779 188.015283 
z
" style="stroke:#000000;"/>
    <path clip-path="url(#p7ab45123a1)" d="M 197.052054 163.785291 
L 195.718688 162.93532 
L 195.905779 166.279618 
z
" style="stroke:#000000;"/>
    <path clip-path="url(#p7ab45123a1)" d="M 200.018345 195.040679 
L 198.962758 192.837006 
L 198.427827 192.860679 
z
" style="stroke:#000000;"/>
    <path clip-path="url(#p7ab45123a1)" d="M 199.82355 157.062601 
L 199.407286 158.141711 
L 198.872917 158.118206 
z
" style="stroke:#000000;"/>
    <path clip-path="url(#p7ab45123a1)" d="M 197.181603 193.859435 
L 197.052054 190.51031 
L 195.718688 191.359467 
z
" style="stroke:#000000;"/>
    <path clip-path="url(#p7ab45123a1)" d="M 197.052054 163.785291 
L 197.181603 160.436245 
L 195.718688 162.93532 
z
" style="stroke:#000000;"/>
    <path clip-path="url(#p7ab45123a1)" d="M 198.427827 161.435762 
L 200.551266 159.278697 
L 200.018345 159.256733 
z
" style="stroke:#000000;"/>
    <path clip-path="url(#p7ab45123a1)" d="M 198.872917 196.178507 
L 200.356718 197.205072 
L 199.82355 197.234692 
z
" style="stroke:#000000;"/>
    <path clip-path="url(#p7ab45123a1)" d="M 200.356718 197.205072 
L 200.495161 196.858358 
L 199.82355 197.234692 
z
" style="stroke:#000000;"/>
    <path clip-path="url(#p7ab45123a1)" d="M 197.181603 193.859435 
L 198.427827 192.860679 
L 197.052054 190.51031 
z
" style="stroke:#000000;"/>
    <path clip-path="url(#p7ab45123a1)" d="M 198.427827 161.435762 
L 197.181603 160.436245 
L 197.052054 163.785291 
z
" style="stroke:#000000;"/>
    <path clip-path="url(#p7ab45123a1)" d="M 201.02748 157.46378 
L 199.82355 157.062601 
L 200.495161 157.439345 
z
" style="stroke:#000000;"/>
    <path clip-path="url(#p7ab45123a1)" d="M 200.551266 159.278697 
L 201.200717 157.944333 
L 200.018345 159.256733 
z
" style="stroke:#000000;"/>
    <path clip-path="url(#p7ab45123a1)" d="M 198.872917 196.178507 
L 198.427827 192.860679 
L 197.181603 193.859435 
z
" style="stroke:#000000;"/>
    <path clip-path="url(#p7ab45123a1)" d="M 198.427827 161.435762 
L 198.872917 158.118206 
L 197.181603 160.436245 
z
" style="stroke:#000000;"/>
    <path clip-path="url(#p7ab45123a1)" d="M 201.02748 196.829246 
L 201.200717 196.3538 
L 200.495161 196.858358 
z
" style="stroke:#000000;"/>
    <path clip-path="url(#p7ab45123a1)" d="M 201.732144 196.32537 
L 200.018345 195.040679 
L 201.200717 196.3538 
z
" style="stroke:#000000;"/>
    <path clip-path="url(#p7ab45123a1)" d="M 201.732144 157.968085 
L 200.495161 157.439345 
L 201.200717 157.944333 
z
" style="stroke:#000000;"/>
    <path clip-path="url(#p7ab45123a1)" d="M 198.872917 196.178507 
L 200.018345 195.040679 
L 198.427827 192.860679 
z
" style="stroke:#000000;"/>
    <path clip-path="url(#p7ab45123a1)" d="M 200.018345 159.256733 
L 198.872917 158.118206 
L 198.427827 161.435762 
z
" style="stroke:#000000;"/>
    <path clip-path="url(#p7ab45123a1)" d="M 200.495161 196.858358 
L 198.872917 196.178507 
L 199.82355 197.234692 
z
" style="stroke:#000000;"/>
    <path clip-path="url(#p7ab45123a1)" d="M 198.872917 158.118206 
L 200.495161 157.439345 
L 199.82355 157.062601 
z
" style="stroke:#000000;"/>
    <path clip-path="url(#p7ab45123a1)" d="M 198.872917 196.178507 
L 200.495161 196.858358 
L 200.018345 195.040679 
z
" style="stroke:#000000;"/>
    <path clip-path="url(#p7ab45123a1)" d="M 200.495161 157.439345 
L 198.872917 158.118206 
L 200.018345 159.256733 
z
" style="stroke:#000000;"/>
    <path clip-path="url(#p7ab45123a1)" d="M 200.018345 195.040679 
L 200.495161 196.858358 
L 201.200717 196.3538 
z
" style="stroke:#000000;"/>
    <path clip-path="url(#p7ab45123a1)" d="M 200.495161 157.439345 
L 200.018345 159.256733 
L 201.200717 157.944333 
z
" style="stroke:#000000;"/>
   </g>
  </g>
 </g>
 <defs>
  <clipPath id="p7ab45123a1">
   <rect height="271.8" width="279" x="45" y="43.2"/>
  </clipPath>
 </defs>
</svg>
