<?xml version="1.0" encoding="utf-8" standalone="no"?>
<!DOCTYPE svg PUBLIC "-//W3C//DTD SVG 1.1//EN"
  "http://www.w3.org/Graphics/SVG/1.1/DTD/svg11.dtd">
<!-- Created with matplotlib (https://matplotlib.org/) -->
<svg height="360pt" version="1.1" viewBox="0 0 360 360" width="360pt" xmlns="http://www.w3.org/2000/svg" xmlns:xlink="http://www.w3.org/1999/xlink">
 <defs>
  <style type="text/css">
*{stroke-linecap:butt;stroke-linejoin:round;}
  </style>
 </defs>
 <g id="figure_1">
  <g id="patch_1">
   <path d="M 45 315 
L 324 315 
L 324 43.2 
L 45 43.2 
z
" style="fill:#ffffff;"/>
  </g>
  <g id="axes_1">
   <g id="Poly3DCollection_1">
    <path clip-path="url(#pefab007d99)" d="M 185.762036 157.569983 
L 186.05917 159.368684 
L 185.322732 158.080077 
z
" style="stroke:#000000;"/>
    <path clip-path="url(#pefab007d99)" d="M 186.05917 194.904889 
L 185.762036 196.70271 
L 185.322732 196.191316 
z
" style="stroke:#000000;"/>
    <path clip-path="url(#pefab007d99)" d="M 183.646772 158.065307 
L 185.762036 157.569983 
L 185.322732 158.080077 
z
" style="stroke:#000000;"/>
    <path clip-path="url(#pefab007d99)" d="M 183.646772 196.208996 
L 186.05917 194.904889 
L 185.322732 196.191316 
z
" style="stroke:#000000;"/>
    <path clip-path="url(#pefab007d99)" d="M 184.085812 196.720832 
L 185.322732 196.191316 
L 185.762036 196.70271 
z
" style="stroke:#000000;"/>
    <path clip-path="url(#pefab007d99)" d="M 185.322732 196.191316 
L 184.085812 196.720832 
L 183.646772 196.208996 
z
" style="stroke:#000000;"/>
    <path clip-path="url(#pefab007d99)" d="M 184.382768 159.355003 
L 185.322732 158.080077 
L 186.05917 159.368684 
z
" style="stroke:#000000;"/>
    <path clip-path="url(#pefab007d99)" d="M 185.762036 157.569983 
L 186.773789 158.22391 
L 186.05917 159.368684 
z
" style="stroke:#000000;"/>
    <path clip-path="url(#pefab007d99)" d="M 186.773789 196.051779 
L 185.762036 196.70271 
L 186.05917 194.904889 
z
" style="stroke:#000000;"/>
    <path clip-path="url(#pefab007d99)" d="M 185.322732 158.080077 
L 184.382768 159.355003 
L 183.646772 158.065307 
z
" style="stroke:#000000;"/>
    <path clip-path="url(#pefab007d99)" d="M 184.085812 157.554773 
L 186.180618 157.187195 
L 185.762036 157.569983 
z
" style="stroke:#000000;"/>
    <path clip-path="url(#pefab007d99)" d="M 186.773789 158.22391 
L 185.762036 157.569983 
L 186.180618 157.187195 
z
" style="stroke:#000000;"/>
    <path clip-path="url(#pefab007d99)" d="M 185.762036 196.70271 
L 186.773789 196.051779 
L 186.180618 197.086737 
z
" style="stroke:#000000;"/>
    <path clip-path="url(#pefab007d99)" d="M 185.762036 157.569983 
L 183.646772 158.065307 
L 184.085812 157.554773 
z
" style="stroke:#000000;"/>
    <path clip-path="url(#pefab007d99)" d="M 184.504142 197.105193 
L 185.762036 196.70271 
L 186.180618 197.086737 
z
" style="stroke:#000000;"/>
    <path clip-path="url(#pefab007d99)" d="M 186.05917 194.904889 
L 183.646772 196.208996 
L 184.382768 194.921484 
z
" style="stroke:#000000;"/>
    <path clip-path="url(#pefab007d99)" d="M 185.762036 196.70271 
L 184.504142 197.105193 
L 184.085812 196.720832 
z
" style="stroke:#000000;"/>
    <path clip-path="url(#pefab007d99)" d="M 186.773789 158.22391 
L 187.051793 161.516763 
L 186.05917 159.368684 
z
" style="stroke:#000000;"/>
    <path clip-path="url(#pefab007d99)" d="M 187.051793 192.759748 
L 186.773789 196.051779 
L 186.05917 194.904889 
z
" style="stroke:#000000;"/>
    <path clip-path="url(#pefab007d99)" d="M 186.180618 157.187195 
L 184.085812 157.554773 
L 184.504142 157.171653 
z
" style="stroke:#000000;"/>
    <path clip-path="url(#pefab007d99)" d="M 184.085812 196.720832 
L 184.382768 194.921484 
L 183.646772 196.208996 
z
" style="stroke:#000000;"/>
    <path clip-path="url(#pefab007d99)" d="M 184.382768 159.355003 
L 184.085812 157.554773 
L 183.646772 158.065307 
z
" style="stroke:#000000;"/>
    <path clip-path="url(#pefab007d99)" d="M 186.773789 196.051779 
L 184.504142 197.105193 
L 186.180618 197.086737 
z
" style="stroke:#000000;"/>
    <path clip-path="url(#pefab007d99)" d="M 187.051793 161.516763 
L 184.382768 159.355003 
L 186.05917 159.368684 
z
" style="stroke:#000000;"/>
    <path clip-path="url(#pefab007d99)" d="M 186.180618 157.187195 
L 185.096958 158.209244 
L 186.773789 158.22391 
z
" style="stroke:#000000;"/>
    <path clip-path="url(#pefab007d99)" d="M 185.096958 158.209244 
L 186.180618 157.187195 
L 184.504142 157.171653 
z
" style="stroke:#000000;"/>
    <path clip-path="url(#pefab007d99)" d="M 185.374795 192.774528 
L 186.05917 194.904889 
L 184.382768 194.921484 
z
" style="stroke:#000000;"/>
    <path clip-path="url(#pefab007d99)" d="M 186.05917 194.904889 
L 185.374795 192.774528 
L 187.051793 192.759748 
z
" style="stroke:#000000;"/>
    <path clip-path="url(#pefab007d99)" d="M 184.085812 196.720832 
L 185.096958 196.069362 
L 184.382768 194.921484 
z
" style="stroke:#000000;"/>
    <path clip-path="url(#pefab007d99)" d="M 185.096958 158.209244 
L 184.085812 157.554773 
L 184.382768 159.355003 
z
" style="stroke:#000000;"/>
    <path clip-path="url(#pefab007d99)" d="M 187.831131 160.509688 
L 187.051793 161.516763 
L 186.773789 158.22391 
z
" style="stroke:#000000;"/>
    <path clip-path="url(#pefab007d99)" d="M 187.051793 192.759748 
L 187.831131 193.769131 
L 186.773789 196.051779 
z
" style="stroke:#000000;"/>
    <path clip-path="url(#pefab007d99)" d="M 185.096958 196.069362 
L 184.085812 196.720832 
L 184.504142 197.105193 
z
" style="stroke:#000000;"/>
    <path clip-path="url(#pefab007d99)" d="M 184.085812 157.554773 
L 185.096958 158.209244 
L 184.504142 157.171653 
z
" style="stroke:#000000;"/>
    <path clip-path="url(#pefab007d99)" d="M 184.504142 197.105193 
L 186.773789 196.051779 
L 185.096958 196.069362 
z
" style="stroke:#000000;"/>
    <path clip-path="url(#pefab007d99)" d="M 184.382768 159.355003 
L 187.051793 161.516763 
L 185.374795 161.504902 
z
" style="stroke:#000000;"/>
    <path clip-path="url(#pefab007d99)" d="M 187.831131 193.769131 
L 185.096958 196.069362 
L 186.773789 196.051779 
z
" style="stroke:#000000;"/>
    <path clip-path="url(#pefab007d99)" d="M 187.831131 160.509688 
L 187.912226 163.841248 
L 187.051793 161.516763 
z
" style="stroke:#000000;"/>
    <path clip-path="url(#pefab007d99)" d="M 187.912226 190.437811 
L 187.831131 193.769131 
L 187.051793 192.759748 
z
" style="stroke:#000000;"/>
    <path clip-path="url(#pefab007d99)" d="M 185.096958 196.069362 
L 185.374795 192.774528 
L 184.382768 194.921484 
z
" style="stroke:#000000;"/>
    <path clip-path="url(#pefab007d99)" d="M 185.374795 161.504902 
L 185.096958 158.209244 
L 184.382768 159.355003 
z
" style="stroke:#000000;"/>
    <path clip-path="url(#pefab007d99)" d="M 187.912226 163.841248 
L 185.374795 161.504902 
L 187.051793 161.516763 
z
" style="stroke:#000000;"/>
    <path clip-path="url(#pefab007d99)" d="M 186.153666 160.496959 
L 186.773789 158.22391 
L 185.096958 158.209244 
z
" style="stroke:#000000;"/>
    <path clip-path="url(#pefab007d99)" d="M 186.773789 158.22391 
L 186.153666 160.496959 
L 187.831131 160.509688 
z
" style="stroke:#000000;"/>
    <path clip-path="url(#pefab007d99)" d="M 187.051793 192.759748 
L 186.234712 190.450621 
L 187.912226 190.437811 
z
" style="stroke:#000000;"/>
    <path clip-path="url(#pefab007d99)" d="M 186.234712 190.450621 
L 187.051793 192.759748 
L 185.374795 192.774528 
z
" style="stroke:#000000;"/>
    <path clip-path="url(#pefab007d99)" d="M 185.096958 196.069362 
L 187.831131 193.769131 
L 186.153666 193.784783 
z
" style="stroke:#000000;"/>
    <path clip-path="url(#pefab007d99)" d="M 188.747762 162.983441 
L 187.912226 163.841248 
L 187.831131 160.509688 
z
" style="stroke:#000000;"/>
    <path clip-path="url(#pefab007d99)" d="M 187.912226 190.437811 
L 188.747762 191.298092 
L 187.831131 193.769131 
z
" style="stroke:#000000;"/>
    <path clip-path="url(#pefab007d99)" d="M 186.153666 193.784783 
L 185.374795 192.774528 
L 185.096958 196.069362 
z
" style="stroke:#000000;"/>
    <path clip-path="url(#pefab007d99)" d="M 185.374795 161.504902 
L 186.153666 160.496959 
L 185.096958 158.209244 
z
" style="stroke:#000000;"/>
    <path clip-path="url(#pefab007d99)" d="M 185.374795 161.504902 
L 187.912226 163.841248 
L 186.234712 163.831361 
z
" style="stroke:#000000;"/>
    <path clip-path="url(#pefab007d99)" d="M 187.912226 163.841248 
L 188.747762 162.983441 
L 188.630427 166.316082 
z
" style="stroke:#000000;"/>
    <path clip-path="url(#pefab007d99)" d="M 188.747762 191.298092 
L 187.912226 190.437811 
L 188.630427 187.965104 
z
" style="stroke:#000000;"/>
    <path clip-path="url(#pefab007d99)" d="M 188.747762 191.298092 
L 186.153666 193.784783 
L 187.831131 193.769131 
z
" style="stroke:#000000;"/>
    <path clip-path="url(#pefab007d99)" d="M 188.630427 166.316082 
L 186.234712 163.831361 
L 187.912226 163.841248 
z
" style="stroke:#000000;"/>
    <path clip-path="url(#pefab007d99)" d="M 186.153666 193.784783 
L 186.234712 190.450621 
L 185.374795 192.774528 
z
" style="stroke:#000000;"/>
    <path clip-path="url(#pefab007d99)" d="M 186.234712 163.831361 
L 186.153666 160.496959 
L 185.374795 161.504902 
z
" style="stroke:#000000;"/>
    <path clip-path="url(#pefab007d99)" d="M 187.912226 190.437811 
L 186.952485 187.97581 
L 188.630427 187.965104 
z
" style="stroke:#000000;"/>
    <path clip-path="url(#pefab007d99)" d="M 187.831131 160.509688 
L 187.069749 162.972814 
L 188.747762 162.983441 
z
" style="stroke:#000000;"/>
    <path clip-path="url(#pefab007d99)" d="M 187.069749 162.972814 
L 187.831131 160.509688 
L 186.153666 160.496959 
z
" style="stroke:#000000;"/>
    <path clip-path="url(#pefab007d99)" d="M 186.952485 187.97581 
L 187.912226 190.437811 
L 186.234712 190.450621 
z
" style="stroke:#000000;"/>
    <path clip-path="url(#pefab007d99)" d="M 189.512947 165.617699 
L 188.630427 166.316082 
L 188.747762 162.983441 
z
" style="stroke:#000000;"/>
    <path clip-path="url(#pefab007d99)" d="M 188.630427 187.965104 
L 189.512947 188.666099 
L 188.747762 191.298092 
z
" style="stroke:#000000;"/>
    <path clip-path="url(#pefab007d99)" d="M 186.234712 163.831361 
L 188.630427 166.316082 
L 186.952485 166.308302 
z
" style="stroke:#000000;"/>
    <path clip-path="url(#pefab007d99)" d="M 186.153666 193.784783 
L 188.747762 191.298092 
L 187.069749 191.311646 
z
" style="stroke:#000000;"/>
    <path clip-path="url(#pefab007d99)" d="M 188.630427 166.316082 
L 189.512947 165.617699 
L 189.197987 168.913508 
z
" style="stroke:#000000;"/>
    <path clip-path="url(#pefab007d99)" d="M 189.512947 188.666099 
L 188.630427 187.965104 
L 189.197987 185.369358 
z
" style="stroke:#000000;"/>
    <path clip-path="url(#pefab007d99)" d="M 189.197987 168.913508 
L 186.952485 166.308302 
L 188.630427 166.316082 
z
" style="stroke:#000000;"/>
    <path clip-path="url(#pefab007d99)" d="M 187.069749 191.311646 
L 186.234712 190.450621 
L 186.153666 193.784783 
z
" style="stroke:#000000;"/>
    <path clip-path="url(#pefab007d99)" d="M 186.234712 163.831361 
L 187.069749 162.972814 
L 186.153666 160.496959 
z
" style="stroke:#000000;"/>
    <path clip-path="url(#pefab007d99)" d="M 189.512947 188.666099 
L 187.069749 191.311646 
L 188.747762 191.298092 
z
" style="stroke:#000000;"/>
    <path clip-path="url(#pefab007d99)" d="M 188.630427 187.965104 
L 187.519706 185.377852 
L 189.197987 185.369358 
z
" style="stroke:#000000;"/>
    <path clip-path="url(#pefab007d99)" d="M 186.234712 190.450621 
L 187.069749 191.311646 
L 186.952485 187.97581 
z
" style="stroke:#000000;"/>
    <path clip-path="url(#pefab007d99)" d="M 187.069749 162.972814 
L 186.234712 163.831361 
L 186.952485 166.308302 
z
" style="stroke:#000000;"/>
    <path clip-path="url(#pefab007d99)" d="M 187.519706 185.377852 
L 188.630427 187.965104 
L 186.952485 187.97581 
z
" style="stroke:#000000;"/>
    <path clip-path="url(#pefab007d99)" d="M 188.747762 162.983441 
L 187.834479 165.609317 
L 189.512947 165.617699 
z
" style="stroke:#000000;"/>
    <path clip-path="url(#pefab007d99)" d="M 190.11767 168.382738 
L 189.197987 168.913508 
L 189.512947 165.617699 
z
" style="stroke:#000000;"/>
    <path clip-path="url(#pefab007d99)" d="M 189.197987 185.369358 
L 190.11767 185.902851 
L 189.512947 188.666099 
z
" style="stroke:#000000;"/>
    <path clip-path="url(#pefab007d99)" d="M 189.197987 168.913508 
L 190.11767 168.382738 
L 189.608234 171.604202 
z
" style="stroke:#000000;"/>
    <path clip-path="url(#pefab007d99)" d="M 190.11767 185.902851 
L 189.197987 185.369358 
L 189.608234 182.679878 
z
" style="stroke:#000000;"/>
    <path clip-path="url(#pefab007d99)" d="M 187.834479 165.609317 
L 188.747762 162.983441 
L 187.069749 162.972814 
z
" style="stroke:#000000;"/>
    <path clip-path="url(#pefab007d99)" d="M 189.608234 171.604202 
L 187.519706 168.907943 
L 189.197987 168.913508 
z
" style="stroke:#000000;"/>
    <path clip-path="url(#pefab007d99)" d="M 186.952485 166.308302 
L 189.197987 168.913508 
L 187.519706 168.907943 
z
" style="stroke:#000000;"/>
    <path clip-path="url(#pefab007d99)" d="M 189.197987 185.369358 
L 187.929708 182.686076 
L 189.608234 182.679878 
z
" style="stroke:#000000;"/>
    <path clip-path="url(#pefab007d99)" d="M 187.069749 191.311646 
L 189.512947 188.666099 
L 187.834479 188.677412 
z
" style="stroke:#000000;"/>
    <path clip-path="url(#pefab007d99)" d="M 187.834479 188.677412 
L 186.952485 187.97581 
L 187.069749 191.311646 
z
" style="stroke:#000000;"/>
    <path clip-path="url(#pefab007d99)" d="M 186.952485 166.308302 
L 187.834479 165.609317 
L 187.069749 162.972814 
z
" style="stroke:#000000;"/>
    <path clip-path="url(#pefab007d99)" d="M 187.929708 182.686076 
L 189.197987 185.369358 
L 187.519706 185.377852 
z
" style="stroke:#000000;"/>
    <path clip-path="url(#pefab007d99)" d="M 189.608234 171.604202 
L 190.554808 171.247308 
L 189.85633 174.357636 
z
" style="stroke:#000000;"/>
    <path clip-path="url(#pefab007d99)" d="M 190.554808 183.039575 
L 189.608234 182.679878 
L 189.85633 179.927178 
z
" style="stroke:#000000;"/>
    <path clip-path="url(#pefab007d99)" d="M 189.85633 174.357636 
L 187.929708 171.600935 
L 189.608234 171.604202 
z
" style="stroke:#000000;"/>
    <path clip-path="url(#pefab007d99)" d="M 190.11767 185.902851 
L 187.834479 188.677412 
L 189.512947 188.666099 
z
" style="stroke:#000000;"/>
    <path clip-path="url(#pefab007d99)" d="M 190.554808 171.247308 
L 189.608234 171.604202 
L 190.11767 168.382738 
z
" style="stroke:#000000;"/>
    <path clip-path="url(#pefab007d99)" d="M 189.608234 182.679878 
L 190.554808 183.039575 
L 190.11767 185.902851 
z
" style="stroke:#000000;"/>
    <path clip-path="url(#pefab007d99)" d="M 186.952485 187.97581 
L 187.834479 188.677412 
L 187.519706 185.377852 
z
" style="stroke:#000000;"/>
    <path clip-path="url(#pefab007d99)" d="M 187.834479 165.609317 
L 186.952485 166.308302 
L 187.519706 168.907943 
z
" style="stroke:#000000;"/>
    <path clip-path="url(#pefab007d99)" d="M 189.608234 182.679878 
L 188.177658 179.931025 
L 189.85633 179.927178 
z
" style="stroke:#000000;"/>
    <path clip-path="url(#pefab007d99)" d="M 187.519706 168.907943 
L 189.608234 171.604202 
L 187.929708 171.600935 
z
" style="stroke:#000000;"/>
    <path clip-path="url(#pefab007d99)" d="M 190.819182 180.108814 
L 189.85633 179.927178 
L 189.939361 177.14253 
z
" style="stroke:#000000;"/>
    <path clip-path="url(#pefab007d99)" d="M 189.85633 174.357636 
L 190.819182 174.178852 
L 189.939361 177.14253 
z
" style="stroke:#000000;"/>
    <path clip-path="url(#pefab007d99)" d="M 189.939361 177.14253 
L 188.177658 174.356722 
L 189.85633 174.357636 
z
" style="stroke:#000000;"/>
    <path clip-path="url(#pefab007d99)" d="M 189.85633 179.927178 
L 188.260638 177.143997 
L 189.939361 177.14253 
z
" style="stroke:#000000;"/>
    <path clip-path="url(#pefab007d99)" d="M 189.512947 165.617699 
L 188.438842 168.376715 
L 190.11767 168.382738 
z
" style="stroke:#000000;"/>
    <path clip-path="url(#pefab007d99)" d="M 188.177658 179.931025 
L 189.608234 182.679878 
L 187.929708 182.686076 
z
" style="stroke:#000000;"/>
    <path clip-path="url(#pefab007d99)" d="M 188.438842 168.376715 
L 189.512947 165.617699 
L 187.834479 165.609317 
z
" style="stroke:#000000;"/>
    <path clip-path="url(#pefab007d99)" d="M 190.819182 174.178852 
L 189.85633 174.357636 
L 190.554808 171.247308 
z
" style="stroke:#000000;"/>
    <path clip-path="url(#pefab007d99)" d="M 189.85633 179.927178 
L 190.819182 180.108814 
L 190.554808 183.039575 
z
" style="stroke:#000000;"/>
    <path clip-path="url(#pefab007d99)" d="M 187.929708 171.600935 
L 189.85633 174.357636 
L 188.177658 174.356722 
z
" style="stroke:#000000;"/>
    <path clip-path="url(#pefab007d99)" d="M 188.260638 177.143997 
L 189.85633 179.927178 
L 188.177658 179.931025 
z
" style="stroke:#000000;"/>
    <path clip-path="url(#pefab007d99)" d="M 190.907654 177.143964 
L 189.939361 177.14253 
L 190.819182 174.178852 
z
" style="stroke:#000000;"/>
    <path clip-path="url(#pefab007d99)" d="M 189.939361 177.14253 
L 190.907654 177.143964 
L 190.819182 180.108814 
z
" style="stroke:#000000;"/>
    <path clip-path="url(#pefab007d99)" d="M 188.177658 174.356722 
L 189.939361 177.14253 
L 188.260638 177.143997 
z
" style="stroke:#000000;"/>
    <path clip-path="url(#pefab007d99)" d="M 187.834479 188.677412 
L 190.11767 185.902851 
L 188.438842 185.911808 
z
" style="stroke:#000000;"/>
    <path clip-path="url(#pefab007d99)" d="M 190.554808 183.039575 
L 188.438842 185.911808 
L 190.11767 185.902851 
z
" style="stroke:#000000;"/>
    <path clip-path="url(#pefab007d99)" d="M 188.438842 185.911808 
L 187.519706 185.377852 
L 187.834479 188.677412 
z
" style="stroke:#000000;"/>
    <path clip-path="url(#pefab007d99)" d="M 187.519706 168.907943 
L 188.438842 168.376715 
L 187.834479 165.609317 
z
" style="stroke:#000000;"/>
    <path clip-path="url(#pefab007d99)" d="M 187.519706 185.377852 
L 188.438842 185.911808 
L 187.929708 182.686076 
z
" style="stroke:#000000;"/>
    <path clip-path="url(#pefab007d99)" d="M 188.438842 168.376715 
L 187.519706 168.907943 
L 187.929708 171.600935 
z
" style="stroke:#000000;"/>
    <path clip-path="url(#pefab007d99)" d="M 190.11767 168.382738 
L 188.87572 171.243733 
L 190.554808 171.247308 
z
" style="stroke:#000000;"/>
    <path clip-path="url(#pefab007d99)" d="M 192.201232 156.130533 
L 190.58471 159.34785 
L 189.778135 159.004786 
z
" style="stroke:#000000;"/>
    <path clip-path="url(#pefab007d99)" d="M 192.201232 164.650268 
L 189.778135 159.004786 
L 190.58471 159.34785 
z
" style="stroke:#000000;"/>
    <path clip-path="url(#pefab007d99)" d="M 188.099509 158.990749 
L 192.201232 156.130533 
L 189.778135 159.004786 
z
" style="stroke:#000000;"/>
    <path clip-path="url(#pefab007d99)" d="M 192.201232 167.490179 
L 188.099509 158.990749 
L 189.778135 159.004786 
z
" style="stroke:#000000;"/>
    <path clip-path="url(#pefab007d99)" d="M 188.87572 171.243733 
L 190.11767 168.382738 
L 188.438842 168.376715 
z
" style="stroke:#000000;"/>
    <path clip-path="url(#pefab007d99)" d="M 190.819182 180.108814 
L 188.87572 183.046086 
L 190.554808 183.039575 
z
" style="stroke:#000000;"/>
    <path clip-path="url(#pefab007d99)" d="M 187.929708 182.686076 
L 188.87572 183.046086 
L 188.177658 179.931025 
z
" style="stroke:#000000;"/>
    <path clip-path="url(#pefab007d99)" d="M 188.87572 171.243733 
L 187.929708 171.600935 
L 188.177658 174.356722 
z
" style="stroke:#000000;"/>
    <path clip-path="url(#pefab007d99)" d="M 190.554808 171.247308 
L 189.139937 174.177784 
L 190.819182 174.178852 
z
" style="stroke:#000000;"/>
    <path clip-path="url(#pefab007d99)" d="M 188.438842 185.911808 
L 190.554808 183.039575 
L 188.87572 183.046086 
z
" style="stroke:#000000;"/>
    <path clip-path="url(#pefab007d99)" d="M 188.87572 183.046086 
L 187.929708 182.686076 
L 188.438842 185.911808 
z
" style="stroke:#000000;"/>
    <path clip-path="url(#pefab007d99)" d="M 187.929708 171.600935 
L 188.87572 171.243733 
L 188.438842 168.376715 
z
" style="stroke:#000000;"/>
    <path clip-path="url(#pefab007d99)" d="M 190.907654 177.143964 
L 189.139937 180.112819 
L 190.819182 180.108814 
z
" style="stroke:#000000;"/>
    <path clip-path="url(#pefab007d99)" d="M 189.139937 174.177784 
L 188.177658 174.356722 
L 188.260638 177.143997 
z
" style="stroke:#000000;"/>
    <path clip-path="url(#pefab007d99)" d="M 188.177658 179.931025 
L 189.139937 180.112819 
L 188.260638 177.143997 
z
" style="stroke:#000000;"/>
    <path clip-path="url(#pefab007d99)" d="M 190.819182 174.178852 
L 189.228357 177.145433 
L 190.907654 177.143964 
z
" style="stroke:#000000;"/>
    <path clip-path="url(#pefab007d99)" d="M 189.139937 174.177784 
L 190.554808 171.247308 
L 188.87572 171.243733 
z
" style="stroke:#000000;"/>
    <path clip-path="url(#pefab007d99)" d="M 188.87572 183.046086 
L 190.819182 180.108814 
L 189.139937 180.112819 
z
" style="stroke:#000000;"/>
    <path clip-path="url(#pefab007d99)" d="M 192.201232 164.650268 
L 192.201232 167.490179 
L 189.778135 159.004786 
z
" style="stroke:#000000;"/>
    <path clip-path="url(#pefab007d99)" d="M 189.139937 180.112819 
L 188.177658 179.931025 
L 188.87572 183.046086 
z
" style="stroke:#000000;"/>
    <path clip-path="url(#pefab007d99)" d="M 188.177658 174.356722 
L 189.139937 174.177784 
L 188.87572 171.243733 
z
" style="stroke:#000000;"/>
    <path clip-path="url(#pefab007d99)" d="M 189.228357 177.145433 
L 190.819182 174.178852 
L 189.139937 174.177784 
z
" style="stroke:#000000;"/>
    <path clip-path="url(#pefab007d99)" d="M 189.139937 180.112819 
L 190.907654 177.143964 
L 189.228357 177.145433 
z
" style="stroke:#000000;"/>
    <path clip-path="url(#pefab007d99)" d="M 189.228357 177.145433 
L 188.260638 177.143997 
L 189.139937 180.112819 
z
" style="stroke:#000000;"/>
    <path clip-path="url(#pefab007d99)" d="M 188.260638 177.143997 
L 189.228357 177.145433 
L 189.139937 174.177784 
z
" style="stroke:#000000;"/>
    <path clip-path="url(#pefab007d99)" d="M 192.201232 156.130533 
L 192.201232 157.550489 
L 190.58471 159.34785 
z
" style="stroke:#000000;"/>
    <path clip-path="url(#pefab007d99)" d="M 190.58471 159.34785 
L 190.521168 157.535177 
L 188.905604 159.334097 
z
" style="stroke:#000000;"/>
    <path clip-path="url(#pefab007d99)" d="M 190.521168 164.641037 
L 190.58471 159.34785 
L 188.905604 159.334097 
z
" style="stroke:#000000;"/>
    <path clip-path="url(#pefab007d99)" d="M 188.099509 158.990749 
L 190.521168 164.641037 
L 188.905604 159.334097 
z
" style="stroke:#000000;"/>
    <path clip-path="url(#pefab007d99)" d="M 188.905604 159.334097 
L 190.521168 156.114005 
L 188.099509 158.990749 
z
" style="stroke:#000000;"/>
    <path clip-path="url(#pefab007d99)" d="M 190.521168 157.535177 
L 190.58471 159.34785 
L 192.201232 157.550489 
z
" style="stroke:#000000;"/>
    <path clip-path="url(#pefab007d99)" d="M 190.58471 159.34785 
L 190.521168 164.641037 
L 192.201232 164.650268 
z
" style="stroke:#000000;"/>
    <path clip-path="url(#pefab007d99)" d="M 192.201232 156.130533 
L 188.099509 158.990749 
L 190.521168 156.114005 
z
" style="stroke:#000000;"/>
    <path clip-path="url(#pefab007d99)" d="M 188.099509 158.990749 
L 192.201232 167.490179 
L 190.521168 167.483381 
z
" style="stroke:#000000;"/>
    <path clip-path="url(#pefab007d99)" d="M 190.521168 164.641037 
L 188.099509 158.990749 
L 190.521168 167.483381 
z
" style="stroke:#000000;"/>
    <path clip-path="url(#pefab007d99)" d="M 190.521168 156.114005 
L 188.905604 159.334097 
L 190.521168 157.535177 
z
" style="stroke:#000000;"/>
    <path clip-path="url(#pefab007d99)" d="M 192.201232 156.130533 
L 193.822269 159.302954 
L 192.201232 157.550489 
z
" style="stroke:#000000;"/>
    <path clip-path="url(#pefab007d99)" d="M 192.201232 164.650268 
L 194.634485 158.935958 
L 192.201232 167.490179 
z
" style="stroke:#000000;"/>
    <path clip-path="url(#pefab007d99)" d="M 190.521168 156.114005 
L 194.634485 158.935958 
L 192.201232 156.130533 
z
" style="stroke:#000000;"/>
    <path clip-path="url(#pefab007d99)" d="M 194.634485 158.935958 
L 190.521168 167.483381 
L 192.201232 167.490179 
z
" style="stroke:#000000;"/>
    <path clip-path="url(#pefab007d99)" d="M 192.201232 157.550489 
L 192.141247 159.289124 
L 190.521168 157.535177 
z
" style="stroke:#000000;"/>
    <path clip-path="url(#pefab007d99)" d="M 192.141247 159.289124 
L 192.201232 164.650268 
L 190.521168 164.641037 
z
" style="stroke:#000000;"/>
    <path clip-path="url(#pefab007d99)" d="M 193.822269 159.302954 
L 192.201232 156.130533 
L 194.634485 158.935958 
z
" style="stroke:#000000;"/>
    <path clip-path="url(#pefab007d99)" d="M 194.634485 158.935958 
L 192.201232 164.650268 
L 193.822269 159.302954 
z
" style="stroke:#000000;"/>
    <path clip-path="url(#pefab007d99)" d="M 192.141247 159.289124 
L 192.201232 157.550489 
L 193.822269 159.302954 
z
" style="stroke:#000000;"/>
    <path clip-path="url(#pefab007d99)" d="M 192.201232 164.650268 
L 192.141247 159.289124 
L 193.822269 159.302954 
z
" style="stroke:#000000;"/>
    <path clip-path="url(#pefab007d99)" d="M 192.141247 159.289124 
L 190.521168 156.114005 
L 190.521168 157.535177 
z
" style="stroke:#000000;"/>
    <path clip-path="url(#pefab007d99)" d="M 194.471951 177.14924 
L 193.497699 177.147798 
L 193.586581 174.175874 
z
" style="stroke:#000000;"/>
    <path clip-path="url(#pefab007d99)" d="M 193.497699 177.147798 
L 194.471951 177.14924 
L 193.586581 180.119985 
z
" style="stroke:#000000;"/>
    <path clip-path="url(#pefab007d99)" d="M 193.586581 180.119985 
L 191.816869 177.149273 
L 193.497699 177.147798 
z
" style="stroke:#000000;"/>
    <path clip-path="url(#pefab007d99)" d="M 193.497699 177.147798 
L 191.905698 174.174801 
L 193.586581 174.175874 
z
" style="stroke:#000000;"/>
    <path clip-path="url(#pefab007d99)" d="M 194.555644 174.3533 
L 193.586581 174.175874 
L 193.852339 171.235421 
z
" style="stroke:#000000;"/>
    <path clip-path="url(#pefab007d99)" d="M 193.586581 180.119985 
L 194.555644 179.945428 
L 193.852339 183.061225 
z
" style="stroke:#000000;"/>
    <path clip-path="url(#pefab007d99)" d="M 193.852339 183.061225 
L 191.905698 180.12401 
L 193.586581 180.119985 
z
" style="stroke:#000000;"/>
    <path clip-path="url(#pefab007d99)" d="M 192.952986 158.921804 
L 190.521168 164.641037 
L 190.521168 167.483381 
z
" style="stroke:#000000;"/>
    <path clip-path="url(#pefab007d99)" d="M 193.586581 174.175874 
L 192.1713 171.231826 
L 193.852339 171.235421 
z
" style="stroke:#000000;"/>
    <path clip-path="url(#pefab007d99)" d="M 191.905698 174.174801 
L 193.497699 177.147798 
L 191.816869 177.149273 
z
" style="stroke:#000000;"/>
    <path clip-path="url(#pefab007d99)" d="M 194.555644 179.945428 
L 193.586581 180.119985 
L 194.471951 177.14924 
z
" style="stroke:#000000;"/>
    <path clip-path="url(#pefab007d99)" d="M 193.586581 174.175874 
L 194.555644 174.3533 
L 194.471951 177.14924 
z
" style="stroke:#000000;"/>
    <path clip-path="url(#pefab007d99)" d="M 191.816869 177.149273 
L 193.586581 180.119985 
L 191.905698 180.12401 
z
" style="stroke:#000000;"/>
    <path clip-path="url(#pefab007d99)" d="M 194.805864 171.587052 
L 193.852339 171.235421 
L 194.2923 168.357366 
z
" style="stroke:#000000;"/>
    <path clip-path="url(#pefab007d99)" d="M 193.852339 183.061225 
L 194.805864 182.712417 
L 194.2923 185.940582 
z
" style="stroke:#000000;"/>
    <path clip-path="url(#pefab007d99)" d="M 194.2923 185.940582 
L 192.1713 183.067773 
L 193.852339 183.061225 
z
" style="stroke:#000000;"/>
    <path clip-path="url(#pefab007d99)" d="M 192.1713 171.231826 
L 193.586581 174.175874 
L 191.905698 174.174801 
z
" style="stroke:#000000;"/>
    <path clip-path="url(#pefab007d99)" d="M 193.852339 171.235421 
L 194.805864 171.587052 
L 194.555644 174.3533 
z
" style="stroke:#000000;"/>
    <path clip-path="url(#pefab007d99)" d="M 194.805864 182.712417 
L 193.852339 183.061225 
L 194.555644 179.945428 
z
" style="stroke:#000000;"/>
    <path clip-path="url(#pefab007d99)" d="M 191.905698 180.12401 
L 193.852339 183.061225 
L 192.1713 183.067773 
z
" style="stroke:#000000;"/>
    <path clip-path="url(#pefab007d99)" d="M 193.852339 171.235421 
L 192.611002 168.3513 
L 194.2923 168.357366 
z
" style="stroke:#000000;"/>
    <path clip-path="url(#pefab007d99)" d="M 194.634485 158.935958 
L 190.521168 156.114005 
L 192.952986 158.921804 
z
" style="stroke:#000000;"/>
    <path clip-path="url(#pefab007d99)" d="M 190.521168 167.483381 
L 194.634485 158.935958 
L 192.952986 158.921804 
z
" style="stroke:#000000;"/>
    <path clip-path="url(#pefab007d99)" d="M 190.521168 164.641037 
L 192.952986 158.921804 
L 192.141247 159.289124 
z
" style="stroke:#000000;"/>
    <path clip-path="url(#pefab007d99)" d="M 190.521168 156.114005 
L 192.141247 159.289124 
L 192.952986 158.921804 
z
" style="stroke:#000000;"/>
    <path clip-path="url(#pefab007d99)" d="M 192.611002 168.3513 
L 193.852339 171.235421 
L 192.1713 171.231826 
z
" style="stroke:#000000;"/>
    <path clip-path="url(#pefab007d99)" d="M 194.2923 168.357366 
L 195.220094 168.879639 
L 194.805864 171.587052 
z
" style="stroke:#000000;"/>
    <path clip-path="url(#pefab007d99)" d="M 195.220094 185.421056 
L 194.2923 185.940582 
L 194.805864 182.712417 
z
" style="stroke:#000000;"/>
    <path clip-path="url(#pefab007d99)" d="M 195.220094 168.879639 
L 194.2923 168.357366 
L 194.902024 165.572067 
z
" style="stroke:#000000;"/>
    <path clip-path="url(#pefab007d99)" d="M 194.2923 185.940582 
L 195.220094 185.421056 
L 194.902024 188.727686 
z
" style="stroke:#000000;"/>
    <path clip-path="url(#pefab007d99)" d="M 192.1713 183.067773 
L 194.2923 185.940582 
L 192.611002 185.949603 
z
" style="stroke:#000000;"/>
    <path clip-path="url(#pefab007d99)" d="M 194.902024 188.727686 
L 192.611002 185.949603 
L 194.2923 185.940582 
z
" style="stroke:#000000;"/>
    <path clip-path="url(#pefab007d99)" d="M 194.555644 174.3533 
L 192.790547 177.150718 
L 194.471951 177.14924 
z
" style="stroke:#000000;"/>
    <path clip-path="url(#pefab007d99)" d="M 192.790547 177.150718 
L 191.816869 177.149273 
L 191.905698 180.12401 
z
" style="stroke:#000000;"/>
    <path clip-path="url(#pefab007d99)" d="M 191.816869 177.149273 
L 192.790547 177.150718 
L 191.905698 174.174801 
z
" style="stroke:#000000;"/>
    <path clip-path="url(#pefab007d99)" d="M 194.471951 177.14924 
L 192.874191 179.949306 
L 194.555644 179.945428 
z
" style="stroke:#000000;"/>
    <path clip-path="url(#pefab007d99)" d="M 194.805864 171.587052 
L 192.874191 174.352378 
L 194.555644 174.3533 
z
" style="stroke:#000000;"/>
    <path clip-path="url(#pefab007d99)" d="M 192.874191 179.949306 
L 191.905698 180.12401 
L 192.1713 183.067773 
z
" style="stroke:#000000;"/>
    <path clip-path="url(#pefab007d99)" d="M 191.905698 174.174801 
L 192.874191 174.352378 
L 192.1713 171.231826 
z
" style="stroke:#000000;"/>
    <path clip-path="url(#pefab007d99)" d="M 194.2923 168.357366 
L 193.220367 165.563606 
L 194.902024 165.572067 
z
" style="stroke:#000000;"/>
    <path clip-path="url(#pefab007d99)" d="M 194.555644 179.945428 
L 193.124264 182.718671 
L 194.805864 182.712417 
z
" style="stroke:#000000;"/>
    <path clip-path="url(#pefab007d99)" d="M 193.220367 165.563606 
L 194.2923 168.357366 
L 192.611002 168.3513 
z
" style="stroke:#000000;"/>
    <path clip-path="url(#pefab007d99)" d="M 192.874191 179.949306 
L 194.471951 177.14924 
L 192.790547 177.150718 
z
" style="stroke:#000000;"/>
    <path clip-path="url(#pefab007d99)" d="M 192.790547 177.150718 
L 194.555644 174.3533 
L 192.874191 174.352378 
z
" style="stroke:#000000;"/>
    <path clip-path="url(#pefab007d99)" d="M 192.874191 174.352378 
L 191.905698 174.174801 
L 192.790547 177.150718 
z
" style="stroke:#000000;"/>
    <path clip-path="url(#pefab007d99)" d="M 191.905698 180.12401 
L 192.874191 179.949306 
L 192.790547 177.150718 
z
" style="stroke:#000000;"/>
    <path clip-path="url(#pefab007d99)" d="M 195.220094 168.879639 
L 193.124264 171.583755 
L 194.805864 171.587052 
z
" style="stroke:#000000;"/>
    <path clip-path="url(#pefab007d99)" d="M 193.124264 182.718671 
L 194.555644 179.945428 
L 192.874191 179.949306 
z
" style="stroke:#000000;"/>
    <path clip-path="url(#pefab007d99)" d="M 194.902024 165.572067 
L 195.794136 166.259698 
L 195.220094 168.879639 
z
" style="stroke:#000000;"/>
    <path clip-path="url(#pefab007d99)" d="M 195.794136 188.042696 
L 194.902024 188.727686 
L 195.220094 185.421056 
z
" style="stroke:#000000;"/>
    <path clip-path="url(#pefab007d99)" d="M 193.124264 182.718671 
L 192.1713 183.067773 
L 192.611002 185.949603 
z
" style="stroke:#000000;"/>
    <path clip-path="url(#pefab007d99)" d="M 192.1713 171.231826 
L 193.124264 171.583755 
L 192.611002 168.3513 
z
" style="stroke:#000000;"/>
    <path clip-path="url(#pefab007d99)" d="M 192.611002 185.949603 
L 194.902024 188.727686 
L 193.220367 188.739105 
z
" style="stroke:#000000;"/>
    <path clip-path="url(#pefab007d99)" d="M 192.874191 174.352378 
L 194.805864 171.587052 
L 193.124264 171.583755 
z
" style="stroke:#000000;"/>
    <path clip-path="url(#pefab007d99)" d="M 192.1713 183.067773 
L 193.124264 182.718671 
L 192.874191 179.949306 
z
" style="stroke:#000000;"/>
    <path clip-path="url(#pefab007d99)" d="M 193.124264 171.583755 
L 192.1713 171.231826 
L 192.874191 174.352378 
z
" style="stroke:#000000;"/>
    <path clip-path="url(#pefab007d99)" d="M 194.805864 182.712417 
L 193.538251 185.429639 
L 195.220094 185.421056 
z
" style="stroke:#000000;"/>
    <path clip-path="url(#pefab007d99)" d="M 195.794136 166.259698 
L 194.902024 165.572067 
L 195.675369 162.908978 
z
" style="stroke:#000000;"/>
    <path clip-path="url(#pefab007d99)" d="M 194.902024 188.727686 
L 195.794136 188.042696 
L 195.675369 191.393064 
z
" style="stroke:#000000;"/>
    <path clip-path="url(#pefab007d99)" d="M 195.675369 191.393064 
L 193.220367 188.739105 
L 194.902024 188.727686 
z
" style="stroke:#000000;"/>
    <path clip-path="url(#pefab007d99)" d="M 193.538251 185.429639 
L 194.805864 182.712417 
L 193.124264 182.718671 
z
" style="stroke:#000000;"/>
    <path clip-path="url(#pefab007d99)" d="M 195.794136 166.259698 
L 193.538251 168.874016 
L 195.220094 168.879639 
z
" style="stroke:#000000;"/>
    <path clip-path="url(#pefab007d99)" d="M 193.124264 171.583755 
L 195.220094 168.879639 
L 193.538251 168.874016 
z
" style="stroke:#000000;"/>
    <path clip-path="url(#pefab007d99)" d="M 194.902024 165.572067 
L 193.993258 162.898224 
L 195.675369 162.908978 
z
" style="stroke:#000000;"/>
    <path clip-path="url(#pefab007d99)" d="M 192.611002 185.949603 
L 193.538251 185.429639 
L 193.124264 182.718671 
z
" style="stroke:#000000;"/>
    <path clip-path="url(#pefab007d99)" d="M 193.538251 168.874016 
L 192.611002 168.3513 
L 193.124264 171.583755 
z
" style="stroke:#000000;"/>
    <path clip-path="url(#pefab007d99)" d="M 193.538251 185.429639 
L 192.611002 185.949603 
L 193.220367 188.739105 
z
" style="stroke:#000000;"/>
    <path clip-path="url(#pefab007d99)" d="M 192.611002 168.3513 
L 193.538251 168.874016 
L 193.220367 165.563606 
z
" style="stroke:#000000;"/>
    <path clip-path="url(#pefab007d99)" d="M 193.993258 162.898224 
L 194.902024 165.572067 
L 193.220367 165.563606 
z
" style="stroke:#000000;"/>
    <path clip-path="url(#pefab007d99)" d="M 195.220094 185.421056 
L 194.111956 188.053535 
L 195.794136 188.042696 
z
" style="stroke:#000000;"/>
    <path clip-path="url(#pefab007d99)" d="M 195.675369 162.908978 
L 196.52216 163.75502 
L 195.794136 166.259698 
z
" style="stroke:#000000;"/>
    <path clip-path="url(#pefab007d99)" d="M 196.52216 190.549529 
L 195.675369 191.393064 
L 195.794136 188.042696 
z
" style="stroke:#000000;"/>
    <path clip-path="url(#pefab007d99)" d="M 194.111956 188.053535 
L 195.220094 185.421056 
L 193.538251 185.429639 
z
" style="stroke:#000000;"/>
    <path clip-path="url(#pefab007d99)" d="M 193.220367 188.739105 
L 195.675369 191.393064 
L 193.993258 191.406781 
z
" style="stroke:#000000;"/>
    <path clip-path="url(#pefab007d99)" d="M 196.604478 160.39655 
L 196.52216 163.75502 
L 195.675369 162.908978 
z
" style="stroke:#000000;"/>
    <path clip-path="url(#pefab007d99)" d="M 196.52216 190.549529 
L 196.604478 193.908244 
L 195.675369 191.393064 
z
" style="stroke:#000000;"/>
    <path clip-path="url(#pefab007d99)" d="M 193.538251 168.874016 
L 195.794136 166.259698 
L 194.111956 166.251822 
z
" style="stroke:#000000;"/>
    <path clip-path="url(#pefab007d99)" d="M 193.220367 188.739105 
L 194.111956 188.053535 
L 193.538251 185.429639 
z
" style="stroke:#000000;"/>
    <path clip-path="url(#pefab007d99)" d="M 194.111956 166.251822 
L 193.220367 165.563606 
L 193.538251 168.874016 
z
" style="stroke:#000000;"/>
    <path clip-path="url(#pefab007d99)" d="M 196.604478 193.908244 
L 193.993258 191.406781 
L 195.675369 191.393064 
z
" style="stroke:#000000;"/>
    <path clip-path="url(#pefab007d99)" d="M 196.52216 163.75502 
L 194.111956 166.251822 
L 195.794136 166.259698 
z
" style="stroke:#000000;"/>
    <path clip-path="url(#pefab007d99)" d="M 194.111956 188.053535 
L 193.220367 188.739105 
L 193.993258 191.406781 
z
" style="stroke:#000000;"/>
    <path clip-path="url(#pefab007d99)" d="M 193.220367 165.563606 
L 194.111956 166.251822 
L 193.993258 162.898224 
z
" style="stroke:#000000;"/>
    <path clip-path="url(#pefab007d99)" d="M 195.794136 188.042696 
L 194.839554 190.562531 
L 196.52216 190.549529 
z
" style="stroke:#000000;"/>
    <path clip-path="url(#pefab007d99)" d="M 195.675369 162.908978 
L 194.921824 160.383627 
L 196.604478 160.39655 
z
" style="stroke:#000000;"/>
    <path clip-path="url(#pefab007d99)" d="M 194.921824 160.383627 
L 195.675369 162.908978 
L 193.993258 162.898224 
z
" style="stroke:#000000;"/>
    <path clip-path="url(#pefab007d99)" d="M 194.839554 190.562531 
L 195.794136 188.042696 
L 194.111956 188.053535 
z
" style="stroke:#000000;"/>
    <path clip-path="url(#pefab007d99)" d="M 196.604478 160.39655 
L 197.396754 161.392281 
L 196.52216 163.75502 
z
" style="stroke:#000000;"/>
    <path clip-path="url(#pefab007d99)" d="M 197.396754 192.914858 
L 196.604478 193.908244 
L 196.52216 190.549529 
z
" style="stroke:#000000;"/>
    <path clip-path="url(#pefab007d99)" d="M 194.111956 166.251822 
L 196.52216 163.75502 
L 194.839554 163.744986 
z
" style="stroke:#000000;"/>
    <path clip-path="url(#pefab007d99)" d="M 193.993258 191.406781 
L 196.604478 193.908244 
L 194.921824 193.924134 
z
" style="stroke:#000000;"/>
    <path clip-path="url(#pefab007d99)" d="M 193.993258 191.406781 
L 194.839554 190.562531 
L 194.111956 188.053535 
z
" style="stroke:#000000;"/>
    <path clip-path="url(#pefab007d99)" d="M 194.839554 163.744986 
L 193.993258 162.898224 
L 194.111956 166.251822 
z
" style="stroke:#000000;"/>
    <path clip-path="url(#pefab007d99)" d="M 197.396754 161.392281 
L 194.839554 163.744986 
L 196.52216 163.75502 
z
" style="stroke:#000000;"/>
    <path clip-path="url(#pefab007d99)" d="M 197.679893 158.06157 
L 197.396754 161.392281 
L 196.604478 160.39655 
z
" style="stroke:#000000;"/>
    <path clip-path="url(#pefab007d99)" d="M 197.396754 192.914858 
L 197.679893 196.246407 
L 196.604478 193.908244 
z
" style="stroke:#000000;"/>
    <path clip-path="url(#pefab007d99)" d="M 194.921824 193.924134 
L 194.839554 190.562531 
L 193.993258 191.406781 
z
" style="stroke:#000000;"/>
    <path clip-path="url(#pefab007d99)" d="M 194.839554 163.744986 
L 194.921824 160.383627 
L 193.993258 162.898224 
z
" style="stroke:#000000;"/>
    <path clip-path="url(#pefab007d99)" d="M 197.679893 196.246407 
L 194.921824 193.924134 
L 196.604478 193.908244 
z
" style="stroke:#000000;"/>
    <path clip-path="url(#pefab007d99)" d="M 196.52216 190.549529 
L 195.713636 192.929904 
L 197.396754 192.914858 
z
" style="stroke:#000000;"/>
    <path clip-path="url(#pefab007d99)" d="M 195.713636 192.929904 
L 196.52216 190.549529 
L 194.839554 190.562531 
z
" style="stroke:#000000;"/>
    <path clip-path="url(#pefab007d99)" d="M 195.996609 158.046626 
L 196.604478 160.39655 
L 194.921824 160.383627 
z
" style="stroke:#000000;"/>
    <path clip-path="url(#pefab007d99)" d="M 196.604478 160.39655 
L 195.996609 158.046626 
L 197.679893 158.06157 
z
" style="stroke:#000000;"/>
    <path clip-path="url(#pefab007d99)" d="M 194.839554 163.744986 
L 197.396754 161.392281 
L 195.713636 161.380206 
z
" style="stroke:#000000;"/>
    <path clip-path="url(#pefab007d99)" d="M 197.679893 158.06157 
L 198.408968 159.196981 
L 197.396754 161.392281 
z
" style="stroke:#000000;"/>
    <path clip-path="url(#pefab007d99)" d="M 198.408968 195.113155 
L 197.679893 196.246407 
L 197.396754 192.914858 
z
" style="stroke:#000000;"/>
    <path clip-path="url(#pefab007d99)" d="M 194.921824 193.924134 
L 195.713636 192.929904 
L 194.839554 190.562531 
z
" style="stroke:#000000;"/>
    <path clip-path="url(#pefab007d99)" d="M 195.713636 161.380206 
L 194.921824 160.383627 
L 194.839554 163.744986 
z
" style="stroke:#000000;"/>
    <path clip-path="url(#pefab007d99)" d="M 194.921824 193.924134 
L 197.679893 196.246407 
L 195.996609 196.264324 
z
" style="stroke:#000000;"/>
    <path clip-path="url(#pefab007d99)" d="M 198.408968 159.196981 
L 195.713636 161.380206 
L 197.396754 161.392281 
z
" style="stroke:#000000;"/>
    <path clip-path="url(#pefab007d99)" d="M 198.284936 197.313705 
L 195.996609 196.264324 
L 197.679893 196.246407 
z
" style="stroke:#000000;"/>
    <path clip-path="url(#pefab007d99)" d="M 198.712648 157.369707 
L 197.679893 158.06157 
L 198.284936 156.996063 
z
" style="stroke:#000000;"/>
    <path clip-path="url(#pefab007d99)" d="M 197.679893 196.246407 
L 198.712648 196.941328 
L 198.284936 197.313705 
z
" style="stroke:#000000;"/>
    <path clip-path="url(#pefab007d99)" d="M 195.996609 196.264324 
L 195.713636 192.929904 
L 194.921824 193.924134 
z
" style="stroke:#000000;"/>
    <path clip-path="url(#pefab007d99)" d="M 195.713636 161.380206 
L 195.996609 158.046626 
L 194.921824 160.383627 
z
" style="stroke:#000000;"/>
    <path clip-path="url(#pefab007d99)" d="M 197.679893 158.06157 
L 198.712648 157.369707 
L 198.408968 159.196981 
z
" style="stroke:#000000;"/>
    <path clip-path="url(#pefab007d99)" d="M 198.712648 196.941328 
L 197.679893 196.246407 
L 198.408968 195.113155 
z
" style="stroke:#000000;"/>
    <path clip-path="url(#pefab007d99)" d="M 196.72526 195.130107 
L 197.396754 192.914858 
L 195.713636 192.929904 
z
" style="stroke:#000000;"/>
    <path clip-path="url(#pefab007d99)" d="M 197.396754 192.914858 
L 196.72526 195.130107 
L 198.408968 195.113155 
z
" style="stroke:#000000;"/>
    <path clip-path="url(#pefab007d99)" d="M 197.679893 158.06157 
L 196.6013 156.980194 
L 198.284936 156.996063 
z
" style="stroke:#000000;"/>
    <path clip-path="url(#pefab007d99)" d="M 196.6013 156.980194 
L 197.679893 158.06157 
L 195.996609 158.046626 
z
" style="stroke:#000000;"/>
    <path clip-path="url(#pefab007d99)" d="M 195.713636 161.380206 
L 198.408968 159.196981 
L 196.72526 159.183005 
z
" style="stroke:#000000;"/>
    <path clip-path="url(#pefab007d99)" d="M 195.996609 196.264324 
L 198.284936 197.313705 
L 196.6013 197.33255 
z
" style="stroke:#000000;"/>
    <path clip-path="url(#pefab007d99)" d="M 198.408968 159.196981 
L 198.712648 157.369707 
L 199.162205 157.872089 
z
" style="stroke:#000000;"/>
    <path clip-path="url(#pefab007d99)" d="M 198.712648 196.941328 
L 198.408968 195.113155 
L 199.162205 196.440277 
z
" style="stroke:#000000;"/>
    <path clip-path="url(#pefab007d99)" d="M 196.6013 156.980194 
L 198.712648 157.369707 
L 198.284936 156.996063 
z
" style="stroke:#000000;"/>
    <path clip-path="url(#pefab007d99)" d="M 195.996609 196.264324 
L 196.72526 195.130107 
L 195.713636 192.929904 
z
" style="stroke:#000000;"/>
    <path clip-path="url(#pefab007d99)" d="M 196.72526 159.183005 
L 195.996609 158.046626 
L 195.713636 161.380206 
z
" style="stroke:#000000;"/>
    <path clip-path="url(#pefab007d99)" d="M 197.028763 196.959859 
L 198.284936 197.313705 
L 198.712648 196.941328 
z
" style="stroke:#000000;"/>
    <path clip-path="url(#pefab007d99)" d="M 196.72526 195.130107 
L 199.162205 196.440277 
L 198.408968 195.113155 
z
" style="stroke:#000000;"/>
    <path clip-path="url(#pefab007d99)" d="M 198.284936 197.313705 
L 197.028763 196.959859 
L 196.6013 197.33255 
z
" style="stroke:#000000;"/>
    <path clip-path="url(#pefab007d99)" d="M 197.028763 157.354154 
L 199.162205 157.872089 
L 198.712648 157.369707 
z
" style="stroke:#000000;"/>
    <path clip-path="url(#pefab007d99)" d="M 197.028763 196.959859 
L 195.996609 196.264324 
L 196.6013 197.33255 
z
" style="stroke:#000000;"/>
    <path clip-path="url(#pefab007d99)" d="M 195.996609 158.046626 
L 197.028763 157.354154 
L 196.6013 156.980194 
z
" style="stroke:#000000;"/>
    <path clip-path="url(#pefab007d99)" d="M 198.712648 157.369707 
L 196.6013 156.980194 
L 197.028763 157.354154 
z
" style="stroke:#000000;"/>
    <path clip-path="url(#pefab007d99)" d="M 197.478059 157.856963 
L 198.408968 159.196981 
L 199.162205 157.872089 
z
" style="stroke:#000000;"/>
    <path clip-path="url(#pefab007d99)" d="M 195.996609 196.264324 
L 197.028763 196.959859 
L 196.72526 195.130107 
z
" style="stroke:#000000;"/>
    <path clip-path="url(#pefab007d99)" d="M 197.028763 157.354154 
L 195.996609 158.046626 
L 196.72526 159.183005 
z
" style="stroke:#000000;"/>
    <path clip-path="url(#pefab007d99)" d="M 198.408968 159.196981 
L 197.478059 157.856963 
L 196.72526 159.183005 
z
" style="stroke:#000000;"/>
    <path clip-path="url(#pefab007d99)" d="M 197.478059 196.458383 
L 198.712648 196.941328 
L 199.162205 196.440277 
z
" style="stroke:#000000;"/>
    <path clip-path="url(#pefab007d99)" d="M 198.712648 196.941328 
L 197.478059 196.458383 
L 197.028763 196.959859 
z
" style="stroke:#000000;"/>
    <path clip-path="url(#pefab007d99)" d="M 199.162205 196.440277 
L 196.72526 195.130107 
L 197.478059 196.458383 
z
" style="stroke:#000000;"/>
    <path clip-path="url(#pefab007d99)" d="M 199.162205 157.872089 
L 197.028763 157.354154 
L 197.478059 157.856963 
z
" style="stroke:#000000;"/>
    <path clip-path="url(#pefab007d99)" d="M 196.72526 195.130107 
L 197.028763 196.959859 
L 197.478059 196.458383 
z
" style="stroke:#000000;"/>
    <path clip-path="url(#pefab007d99)" d="M 197.028763 157.354154 
L 196.72526 159.183005 
L 197.478059 157.856963 
z
" style="stroke:#000000;"/>
   </g>
  </g>
 </g>
 <defs>
  <clipPath id="pefab007d99">
   <rect height="271.8" width="279" x="45" y="43.2"/>
  </clipPath>
 </defs>
</svg>
