<?xml version="1.0" encoding="utf-8" standalone="no"?>
<!DOCTYPE svg PUBLIC "-//W3C//DTD SVG 1.1//EN"
  "http://www.w3.org/Graphics/SVG/1.1/DTD/svg11.dtd">
<!-- Created with matplotlib (https://matplotlib.org/) -->
<svg height="360pt" version="1.1" viewBox="0 0 360 360" width="360pt" xmlns="http://www.w3.org/2000/svg" xmlns:xlink="http://www.w3.org/1999/xlink">
 <defs>
  <style type="text/css">
*{stroke-linecap:butt;stroke-linejoin:round;}
  </style>
 </defs>
 <g id="figure_1">
  <g id="patch_1">
   <path d="M 0 360 
L 360 360 
L 360 0 
L 0 0 
z
" style="fill:#ffffff;"/>
  </g>
  <g id="patch_2">
   <path d="M 45 315 
L 324 315 
L 324 43.2 
L 45 43.2 
z
" style="fill:#ffffff;"/>
  </g>
  <g id="axes_1">
   <g id="Poly3DCollection_1">
    <path clip-path="url(#pa1bb3c503d)" d="M 187.348568 158.339253 
L 189.541413 157.841028 
L 189.356262 158.345348 
z
" style="stroke:#000000;"/>
    <path clip-path="url(#pa1bb3c503d)" d="M 187.348568 195.93287 
L 189.666661 194.65953 
L 189.356262 195.925556 
z
" style="stroke:#000000;"/>
    <path clip-path="url(#pa1bb3c503d)" d="M 189.356262 195.925556 
L 187.532868 196.438935 
L 187.348568 195.93287 
z
" style="stroke:#000000;"/>
    <path clip-path="url(#pa1bb3c503d)" d="M 189.541413 157.841028 
L 189.666661 159.613992 
L 189.356262 158.345348 
z
" style="stroke:#000000;"/>
    <path clip-path="url(#pa1bb3c503d)" d="M 189.666661 194.65953 
L 189.541413 196.431437 
L 189.356262 195.925556 
z
" style="stroke:#000000;"/>
    <path clip-path="url(#pa1bb3c503d)" d="M 187.532868 196.438935 
L 189.356262 195.925556 
L 189.541413 196.431437 
z
" style="stroke:#000000;"/>
    <path clip-path="url(#pa1bb3c503d)" d="M 189.356262 158.345348 
L 187.657539 159.608346 
L 187.348568 158.339253 
z
" style="stroke:#000000;"/>
    <path clip-path="url(#pa1bb3c503d)" d="M 189.541413 157.841028 
L 187.348568 158.339253 
L 187.532868 157.834751 
z
" style="stroke:#000000;"/>
    <path clip-path="url(#pa1bb3c503d)" d="M 187.657539 159.608346 
L 189.356262 158.345348 
L 189.666661 159.613992 
z
" style="stroke:#000000;"/>
    <path clip-path="url(#pa1bb3c503d)" d="M 187.532868 157.834751 
L 189.717857 157.462247 
L 189.541413 157.841028 
z
" style="stroke:#000000;"/>
    <path clip-path="url(#pa1bb3c503d)" d="M 189.666661 194.65953 
L 187.348568 195.93287 
L 187.657539 194.666397 
z
" style="stroke:#000000;"/>
    <path clip-path="url(#pa1bb3c503d)" d="M 187.532868 196.438935 
L 187.657539 194.666397 
L 187.348568 195.93287 
z
" style="stroke:#000000;"/>
    <path clip-path="url(#pa1bb3c503d)" d="M 187.657539 159.608346 
L 187.532868 157.834751 
L 187.348568 158.339253 
z
" style="stroke:#000000;"/>
    <path clip-path="url(#pa1bb3c503d)" d="M 189.541413 196.431437 
L 187.7085 196.819343 
L 187.532868 196.438935 
z
" style="stroke:#000000;"/>
    <path clip-path="url(#pa1bb3c503d)" d="M 187.7085 196.819343 
L 189.541413 196.431437 
L 189.717857 196.811707 
z
" style="stroke:#000000;"/>
    <path clip-path="url(#pa1bb3c503d)" d="M 189.541413 157.841028 
L 189.967939 158.482934 
L 189.666661 159.613992 
z
" style="stroke:#000000;"/>
    <path clip-path="url(#pa1bb3c503d)" d="M 189.967939 195.793128 
L 189.541413 196.431437 
L 189.666661 194.65953 
z
" style="stroke:#000000;"/>
    <path clip-path="url(#pa1bb3c503d)" d="M 189.967939 158.482934 
L 189.541413 157.841028 
L 189.717857 157.462247 
z
" style="stroke:#000000;"/>
    <path clip-path="url(#pa1bb3c503d)" d="M 189.541413 196.431437 
L 189.967939 195.793128 
L 189.717857 196.811707 
z
" style="stroke:#000000;"/>
    <path clip-path="url(#pa1bb3c503d)" d="M 189.717857 157.462247 
L 187.532868 157.834751 
L 187.7085 157.455832 
z
" style="stroke:#000000;"/>
    <path clip-path="url(#pa1bb3c503d)" d="M 189.967939 195.793128 
L 187.7085 196.819343 
L 189.717857 196.811707 
z
" style="stroke:#000000;"/>
    <path clip-path="url(#pa1bb3c503d)" d="M 190.085164 161.730069 
L 187.657539 159.608346 
L 189.666661 159.613992 
z
" style="stroke:#000000;"/>
    <path clip-path="url(#pa1bb3c503d)" d="M 187.532868 196.438935 
L 187.957432 195.800405 
L 187.657539 194.666397 
z
" style="stroke:#000000;"/>
    <path clip-path="url(#pa1bb3c503d)" d="M 187.957432 158.47688 
L 187.532868 157.834751 
L 187.657539 159.608346 
z
" style="stroke:#000000;"/>
    <path clip-path="url(#pa1bb3c503d)" d="M 187.957432 195.800405 
L 187.532868 196.438935 
L 187.7085 196.819343 
z
" style="stroke:#000000;"/>
    <path clip-path="url(#pa1bb3c503d)" d="M 187.532868 157.834751 
L 187.957432 158.47688 
L 187.7085 157.455832 
z
" style="stroke:#000000;"/>
    <path clip-path="url(#pa1bb3c503d)" d="M 187.957432 158.47688 
L 189.717857 157.462247 
L 187.7085 157.455832 
z
" style="stroke:#000000;"/>
    <path clip-path="url(#pa1bb3c503d)" d="M 188.074117 192.553101 
L 189.666661 194.65953 
L 187.657539 194.666397 
z
" style="stroke:#000000;"/>
    <path clip-path="url(#pa1bb3c503d)" d="M 189.967939 158.482934 
L 190.085164 161.730069 
L 189.666661 159.613992 
z
" style="stroke:#000000;"/>
    <path clip-path="url(#pa1bb3c503d)" d="M 190.085164 192.546982 
L 189.967939 195.793128 
L 189.666661 194.65953 
z
" style="stroke:#000000;"/>
    <path clip-path="url(#pa1bb3c503d)" d="M 189.717857 157.462247 
L 187.957432 158.47688 
L 189.967939 158.482934 
z
" style="stroke:#000000;"/>
    <path clip-path="url(#pa1bb3c503d)" d="M 187.7085 196.819343 
L 189.967939 195.793128 
L 187.957432 195.800405 
z
" style="stroke:#000000;"/>
    <path clip-path="url(#pa1bb3c503d)" d="M 189.666661 194.65953 
L 188.074117 192.553101 
L 190.085164 192.546982 
z
" style="stroke:#000000;"/>
    <path clip-path="url(#pa1bb3c503d)" d="M 187.657539 159.608346 
L 190.085164 161.730069 
L 188.074117 161.725173 
z
" style="stroke:#000000;"/>
    <path clip-path="url(#pa1bb3c503d)" d="M 187.957432 195.800405 
L 188.074117 192.553101 
L 187.657539 194.666397 
z
" style="stroke:#000000;"/>
    <path clip-path="url(#pa1bb3c503d)" d="M 188.074117 161.725173 
L 187.957432 158.47688 
L 187.657539 159.608346 
z
" style="stroke:#000000;"/>
    <path clip-path="url(#pa1bb3c503d)" d="M 190.413845 160.734753 
L 190.085164 161.730069 
L 189.967939 158.482934 
z
" style="stroke:#000000;"/>
    <path clip-path="url(#pa1bb3c503d)" d="M 190.085164 192.546982 
L 190.413845 193.54507 
L 189.967939 195.793128 
z
" style="stroke:#000000;"/>
    <path clip-path="url(#pa1bb3c503d)" d="M 190.413845 193.54507 
L 187.957432 195.800405 
L 189.967939 195.793128 
z
" style="stroke:#000000;"/>
    <path clip-path="url(#pa1bb3c503d)" d="M 188.401287 160.729497 
L 189.967939 158.482934 
L 187.957432 158.47688 
z
" style="stroke:#000000;"/>
    <path clip-path="url(#pa1bb3c503d)" d="M 190.448051 164.021166 
L 188.074117 161.725173 
L 190.085164 161.730069 
z
" style="stroke:#000000;"/>
    <path clip-path="url(#pa1bb3c503d)" d="M 188.401287 193.551551 
L 188.074117 192.553101 
L 187.957432 195.800405 
z
" style="stroke:#000000;"/>
    <path clip-path="url(#pa1bb3c503d)" d="M 188.074117 161.725173 
L 188.401287 160.729497 
L 187.957432 158.47688 
z
" style="stroke:#000000;"/>
    <path clip-path="url(#pa1bb3c503d)" d="M 188.435336 190.264252 
L 190.085164 192.546982 
L 188.074117 192.553101 
z
" style="stroke:#000000;"/>
    <path clip-path="url(#pa1bb3c503d)" d="M 189.967939 158.482934 
L 188.401287 160.729497 
L 190.413845 160.734753 
z
" style="stroke:#000000;"/>
    <path clip-path="url(#pa1bb3c503d)" d="M 190.413845 160.734753 
L 190.448051 164.021166 
L 190.085164 161.730069 
z
" style="stroke:#000000;"/>
    <path clip-path="url(#pa1bb3c503d)" d="M 190.448051 190.258946 
L 190.413845 193.54507 
L 190.085164 192.546982 
z
" style="stroke:#000000;"/>
    <path clip-path="url(#pa1bb3c503d)" d="M 187.957432 195.800405 
L 190.413845 193.54507 
L 188.401287 193.551551 
z
" style="stroke:#000000;"/>
    <path clip-path="url(#pa1bb3c503d)" d="M 190.085164 192.546982 
L 188.435336 190.264252 
L 190.448051 190.258946 
z
" style="stroke:#000000;"/>
    <path clip-path="url(#pa1bb3c503d)" d="M 188.074117 161.725173 
L 190.448051 164.021166 
L 188.435336 164.017085 
z
" style="stroke:#000000;"/>
    <path clip-path="url(#pa1bb3c503d)" d="M 188.401287 193.551551 
L 188.435336 190.264252 
L 188.074117 192.553101 
z
" style="stroke:#000000;"/>
    <path clip-path="url(#pa1bb3c503d)" d="M 188.435336 164.017085 
L 188.401287 160.729497 
L 188.074117 161.725173 
z
" style="stroke:#000000;"/>
    <path clip-path="url(#pa1bb3c503d)" d="M 190.800541 163.173167 
L 190.448051 164.021166 
L 190.413845 160.734753 
z
" style="stroke:#000000;"/>
    <path clip-path="url(#pa1bb3c503d)" d="M 190.448051 190.258946 
L 190.800541 191.109917 
L 190.413845 193.54507 
z
" style="stroke:#000000;"/>
    <path clip-path="url(#pa1bb3c503d)" d="M 190.800541 191.109917 
L 188.401287 193.551551 
L 190.413845 193.54507 
z
" style="stroke:#000000;"/>
    <path clip-path="url(#pa1bb3c503d)" d="M 190.751035 166.46151 
L 188.435336 164.017085 
L 190.448051 164.021166 
z
" style="stroke:#000000;"/>
    <path clip-path="url(#pa1bb3c503d)" d="M 188.786206 163.16878 
L 190.413845 160.734753 
L 188.401287 160.729497 
z
" style="stroke:#000000;"/>
    <path clip-path="url(#pa1bb3c503d)" d="M 188.736927 187.825594 
L 190.448051 190.258946 
L 188.435336 190.264252 
z
" style="stroke:#000000;"/>
    <path clip-path="url(#pa1bb3c503d)" d="M 190.448051 164.021166 
L 190.800541 163.173167 
L 190.751035 166.46151 
z
" style="stroke:#000000;"/>
    <path clip-path="url(#pa1bb3c503d)" d="M 190.800541 191.109917 
L 190.448051 190.258946 
L 190.751035 187.821157 
z
" style="stroke:#000000;"/>
    <path clip-path="url(#pa1bb3c503d)" d="M 190.448051 190.258946 
L 188.736927 187.825594 
L 190.751035 187.821157 
z
" style="stroke:#000000;"/>
    <path clip-path="url(#pa1bb3c503d)" d="M 188.786206 191.115532 
L 188.435336 190.264252 
L 188.401287 193.551551 
z
" style="stroke:#000000;"/>
    <path clip-path="url(#pa1bb3c503d)" d="M 188.435336 164.017085 
L 188.786206 163.16878 
L 188.401287 160.729497 
z
" style="stroke:#000000;"/>
    <path clip-path="url(#pa1bb3c503d)" d="M 190.413845 160.734753 
L 188.786206 163.16878 
L 190.800541 163.173167 
z
" style="stroke:#000000;"/>
    <path clip-path="url(#pa1bb3c503d)" d="M 188.435336 164.017085 
L 190.751035 166.46151 
L 188.736927 166.4583 
z
" style="stroke:#000000;"/>
    <path clip-path="url(#pa1bb3c503d)" d="M 188.401287 193.551551 
L 190.800541 191.109917 
L 188.786206 191.115532 
z
" style="stroke:#000000;"/>
    <path clip-path="url(#pa1bb3c503d)" d="M 188.435336 190.264252 
L 188.786206 191.115532 
L 188.736927 187.825594 
z
" style="stroke:#000000;"/>
    <path clip-path="url(#pa1bb3c503d)" d="M 188.786206 163.16878 
L 188.435336 164.017085 
L 188.736927 166.4583 
z
" style="stroke:#000000;"/>
    <path clip-path="url(#pa1bb3c503d)" d="M 190.990522 169.023596 
L 188.736927 166.4583 
L 190.751035 166.46151 
z
" style="stroke:#000000;"/>
    <path clip-path="url(#pa1bb3c503d)" d="M 191.123443 165.770999 
L 190.751035 166.46151 
L 190.800541 163.173167 
z
" style="stroke:#000000;"/>
    <path clip-path="url(#pa1bb3c503d)" d="M 190.751035 187.821157 
L 191.123443 188.514808 
L 190.800541 191.109917 
z
" style="stroke:#000000;"/>
    <path clip-path="url(#pa1bb3c503d)" d="M 188.975313 185.264612 
L 190.751035 187.821157 
L 188.736927 187.825594 
z
" style="stroke:#000000;"/>
    <path clip-path="url(#pa1bb3c503d)" d="M 190.751035 166.46151 
L 191.123443 165.770999 
L 190.990522 169.023596 
z
" style="stroke:#000000;"/>
    <path clip-path="url(#pa1bb3c503d)" d="M 191.123443 188.514808 
L 190.751035 187.821157 
L 190.990522 185.261089 
z
" style="stroke:#000000;"/>
    <path clip-path="url(#pa1bb3c503d)" d="M 191.123443 188.514808 
L 188.786206 191.115532 
L 190.800541 191.109917 
z
" style="stroke:#000000;"/>
    <path clip-path="url(#pa1bb3c503d)" d="M 190.751035 187.821157 
L 188.975313 185.264612 
L 190.990522 185.261089 
z
" style="stroke:#000000;"/>
    <path clip-path="url(#pa1bb3c503d)" d="M 189.107623 165.767539 
L 190.800541 163.173167 
L 188.786206 163.16878 
z
" style="stroke:#000000;"/>
    <path clip-path="url(#pa1bb3c503d)" d="M 188.736927 166.4583 
L 190.990522 169.023596 
L 188.975313 169.021303 
z
" style="stroke:#000000;"/>
    <path clip-path="url(#pa1bb3c503d)" d="M 189.107623 188.519498 
L 188.736927 187.825594 
L 188.786206 191.115532 
z
" style="stroke:#000000;"/>
    <path clip-path="url(#pa1bb3c503d)" d="M 188.736927 166.4583 
L 189.107623 165.767539 
L 188.786206 163.16878 
z
" style="stroke:#000000;"/>
    <path clip-path="url(#pa1bb3c503d)" d="M 190.800541 163.173167 
L 189.107623 165.767539 
L 191.123443 165.770999 
z
" style="stroke:#000000;"/>
    <path clip-path="url(#pa1bb3c503d)" d="M 191.163659 171.678328 
L 188.975313 169.021303 
L 190.990522 169.023596 
z
" style="stroke:#000000;"/>
    <path clip-path="url(#pa1bb3c503d)" d="M 188.736927 187.825594 
L 189.107623 188.519498 
L 188.975313 185.264612 
z
" style="stroke:#000000;"/>
    <path clip-path="url(#pa1bb3c503d)" d="M 189.107623 165.767539 
L 188.736927 166.4583 
L 188.975313 169.021303 
z
" style="stroke:#000000;"/>
    <path clip-path="url(#pa1bb3c503d)" d="M 188.786206 191.115532 
L 191.123443 188.514808 
L 189.107623 188.519498 
z
" style="stroke:#000000;"/>
    <path clip-path="url(#pa1bb3c503d)" d="M 189.147654 182.610391 
L 190.990522 185.261089 
L 188.975313 185.264612 
z
" style="stroke:#000000;"/>
    <path clip-path="url(#pa1bb3c503d)" d="M 190.990522 185.261089 
L 189.147654 182.610391 
L 191.163659 182.607818 
z
" style="stroke:#000000;"/>
    <path clip-path="url(#pa1bb3c503d)" d="M 191.378691 168.49878 
L 190.990522 169.023596 
L 191.123443 165.770999 
z
" style="stroke:#000000;"/>
    <path clip-path="url(#pa1bb3c503d)" d="M 190.990522 185.261089 
L 191.378691 185.789179 
L 191.123443 188.514808 
z
" style="stroke:#000000;"/>
    <path clip-path="url(#pa1bb3c503d)" d="M 190.990522 169.023596 
L 191.378691 168.49878 
L 191.163659 171.678328 
z
" style="stroke:#000000;"/>
    <path clip-path="url(#pa1bb3c503d)" d="M 191.378691 185.789179 
L 190.990522 185.261089 
L 191.163659 182.607818 
z
" style="stroke:#000000;"/>
    <path clip-path="url(#pa1bb3c503d)" d="M 188.975313 169.021303 
L 191.163659 171.678328 
L 189.147654 171.676985 
z
" style="stroke:#000000;"/>
    <path clip-path="url(#pa1bb3c503d)" d="M 191.268376 174.395381 
L 189.147654 171.676985 
L 191.163659 171.678328 
z
" style="stroke:#000000;"/>
    <path clip-path="url(#pa1bb3c503d)" d="M 191.378691 185.789179 
L 189.107623 188.519498 
L 191.123443 188.514808 
z
" style="stroke:#000000;"/>
    <path clip-path="url(#pa1bb3c503d)" d="M 191.163659 182.607818 
L 189.251889 179.893249 
L 191.268376 179.891648 
z
" style="stroke:#000000;"/>
    <path clip-path="url(#pa1bb3c503d)" d="M 189.251889 179.893249 
L 191.163659 182.607818 
L 189.147654 182.610391 
z
" style="stroke:#000000;"/>
    <path clip-path="url(#pa1bb3c503d)" d="M 189.361698 168.496296 
L 191.123443 165.770999 
L 189.107623 165.767539 
z
" style="stroke:#000000;"/>
    <path clip-path="url(#pa1bb3c503d)" d="M 189.361698 185.792894 
L 188.975313 185.264612 
L 189.107623 188.519498 
z
" style="stroke:#000000;"/>
    <path clip-path="url(#pa1bb3c503d)" d="M 188.975313 169.021303 
L 189.361698 168.496296 
L 189.107623 165.767539 
z
" style="stroke:#000000;"/>
    <path clip-path="url(#pa1bb3c503d)" d="M 188.975313 185.264612 
L 189.361698 185.792894 
L 189.147654 182.610391 
z
" style="stroke:#000000;"/>
    <path clip-path="url(#pa1bb3c503d)" d="M 189.361698 168.496296 
L 188.975313 169.021303 
L 189.147654 171.676985 
z
" style="stroke:#000000;"/>
    <path clip-path="url(#pa1bb3c503d)" d="M 191.303423 177.143662 
L 189.251889 174.395011 
L 191.268376 174.395381 
z
" style="stroke:#000000;"/>
    <path clip-path="url(#pa1bb3c503d)" d="M 189.147654 171.676985 
L 191.268376 174.395381 
L 189.251889 174.395011 
z
" style="stroke:#000000;"/>
    <path clip-path="url(#pa1bb3c503d)" d="M 191.163659 171.678328 
L 191.563237 171.325489 
L 191.268376 174.395381 
z
" style="stroke:#000000;"/>
    <path clip-path="url(#pa1bb3c503d)" d="M 191.563237 182.964027 
L 191.163659 182.607818 
L 191.268376 179.891648 
z
" style="stroke:#000000;"/>
    <path clip-path="url(#pa1bb3c503d)" d="M 191.268376 179.891648 
L 189.286775 177.144278 
L 191.303423 177.143662 
z
" style="stroke:#000000;"/>
    <path clip-path="url(#pa1bb3c503d)" d="M 191.123443 165.770999 
L 189.361698 168.496296 
L 191.378691 168.49878 
z
" style="stroke:#000000;"/>
    <path clip-path="url(#pa1bb3c503d)" d="M 191.563237 171.325489 
L 191.163659 171.678328 
L 191.378691 168.49878 
z
" style="stroke:#000000;"/>
    <path clip-path="url(#pa1bb3c503d)" d="M 191.163659 182.607818 
L 191.563237 182.964027 
L 191.378691 185.789179 
z
" style="stroke:#000000;"/>
    <path clip-path="url(#pa1bb3c503d)" d="M 189.286775 177.144278 
L 191.268376 179.891648 
L 189.251889 179.893249 
z
" style="stroke:#000000;"/>
    <path clip-path="url(#pa1bb3c503d)" d="M 189.251889 174.395011 
L 191.303423 177.143662 
L 189.286775 177.144278 
z
" style="stroke:#000000;"/>
    <path clip-path="url(#pa1bb3c503d)" d="M 189.107623 188.519498 
L 191.378691 185.789179 
L 189.361698 185.792894 
z
" style="stroke:#000000;"/>
    <path clip-path="url(#pa1bb3c503d)" d="M 191.674861 180.071691 
L 191.268376 179.891648 
L 191.303423 177.143662 
z
" style="stroke:#000000;"/>
    <path clip-path="url(#pa1bb3c503d)" d="M 191.268376 174.395381 
L 191.674861 174.218766 
L 191.303423 177.143662 
z
" style="stroke:#000000;"/>
    <path clip-path="url(#pa1bb3c503d)" d="M 189.147654 182.610391 
L 189.545395 182.96673 
L 189.251889 179.893249 
z
" style="stroke:#000000;"/>
    <path clip-path="url(#pa1bb3c503d)" d="M 189.545395 171.324017 
L 189.147654 171.676985 
L 189.251889 174.395011 
z
" style="stroke:#000000;"/>
    <path clip-path="url(#pa1bb3c503d)" d="M 191.563237 182.964027 
L 189.361698 185.792894 
L 191.378691 185.789179 
z
" style="stroke:#000000;"/>
    <path clip-path="url(#pa1bb3c503d)" d="M 191.674861 174.218766 
L 191.268376 174.395381 
L 191.563237 171.325489 
z
" style="stroke:#000000;"/>
    <path clip-path="url(#pa1bb3c503d)" d="M 191.268376 179.891648 
L 191.674861 180.071691 
L 191.563237 182.964027 
z
" style="stroke:#000000;"/>
    <path clip-path="url(#pa1bb3c503d)" d="M 189.545395 182.96673 
L 189.147654 182.610391 
L 189.361698 185.792894 
z
" style="stroke:#000000;"/>
    <path clip-path="url(#pa1bb3c503d)" d="M 189.147654 171.676985 
L 189.545395 171.324017 
L 189.361698 168.496296 
z
" style="stroke:#000000;"/>
    <path clip-path="url(#pa1bb3c503d)" d="M 189.545395 171.324017 
L 191.378691 168.49878 
L 189.361698 168.496296 
z
" style="stroke:#000000;"/>
    <path clip-path="url(#pa1bb3c503d)" d="M 191.378691 168.49878 
L 189.545395 171.324017 
L 191.563237 171.325489 
z
" style="stroke:#000000;"/>
    <path clip-path="url(#pa1bb3c503d)" d="M 189.656506 174.218332 
L 189.251889 174.395011 
L 189.286775 177.144278 
z
" style="stroke:#000000;"/>
    <path clip-path="url(#pa1bb3c503d)" d="M 189.251889 179.893249 
L 189.656506 180.073358 
L 189.286775 177.144278 
z
" style="stroke:#000000;"/>
    <path clip-path="url(#pa1bb3c503d)" d="M 191.712218 177.145386 
L 191.303423 177.143662 
L 191.674861 174.218766 
z
" style="stroke:#000000;"/>
    <path clip-path="url(#pa1bb3c503d)" d="M 191.303423 177.143662 
L 191.712218 177.145386 
L 191.674861 180.071691 
z
" style="stroke:#000000;"/>
    <path clip-path="url(#pa1bb3c503d)" d="M 189.361698 185.792894 
L 191.563237 182.964027 
L 189.545395 182.96673 
z
" style="stroke:#000000;"/>
    <path clip-path="url(#pa1bb3c503d)" d="M 189.219035 159.238936 
L 192.258557 156.400368 
L 191.23537 159.244736 
z
" style="stroke:#000000;"/>
    <path clip-path="url(#pa1bb3c503d)" d="M 192.258557 167.615137 
L 189.219035 159.238936 
L 191.23537 159.244736 
z
" style="stroke:#000000;"/>
    <path clip-path="url(#pa1bb3c503d)" d="M 189.656506 180.073358 
L 189.251889 179.893249 
L 189.545395 182.96673 
z
" style="stroke:#000000;"/>
    <path clip-path="url(#pa1bb3c503d)" d="M 189.251889 174.395011 
L 189.656506 174.218332 
L 189.545395 171.324017 
z
" style="stroke:#000000;"/>
    <path clip-path="url(#pa1bb3c503d)" d="M 191.674861 180.071691 
L 189.545395 182.96673 
L 191.563237 182.964027 
z
" style="stroke:#000000;"/>
    <path clip-path="url(#pa1bb3c503d)" d="M 191.563237 171.325489 
L 189.656506 174.218332 
L 191.674861 174.218766 
z
" style="stroke:#000000;"/>
    <path clip-path="url(#pa1bb3c503d)" d="M 192.258557 164.811445 
L 191.23537 159.244736 
L 191.575862 159.581075 
z
" style="stroke:#000000;"/>
    <path clip-path="url(#pa1bb3c503d)" d="M 192.258557 156.400368 
L 191.575862 159.581075 
L 191.23537 159.244736 
z
" style="stroke:#000000;"/>
    <path clip-path="url(#pa1bb3c503d)" d="M 189.656506 174.218332 
L 191.563237 171.325489 
L 189.545395 171.324017 
z
" style="stroke:#000000;"/>
    <path clip-path="url(#pa1bb3c503d)" d="M 189.693691 177.146003 
L 189.286775 177.144278 
L 189.656506 180.073358 
z
" style="stroke:#000000;"/>
    <path clip-path="url(#pa1bb3c503d)" d="M 189.286775 177.144278 
L 189.693691 177.146003 
L 189.656506 174.218332 
z
" style="stroke:#000000;"/>
    <path clip-path="url(#pa1bb3c503d)" d="M 189.545395 182.96673 
L 191.674861 180.071691 
L 189.656506 180.073358 
z
" style="stroke:#000000;"/>
    <path clip-path="url(#pa1bb3c503d)" d="M 191.712218 177.145386 
L 189.656506 180.073358 
L 191.674861 180.071691 
z
" style="stroke:#000000;"/>
    <path clip-path="url(#pa1bb3c503d)" d="M 191.674861 174.218766 
L 189.693691 177.146003 
L 191.712218 177.145386 
z
" style="stroke:#000000;"/>
    <path clip-path="url(#pa1bb3c503d)" d="M 189.693691 177.146003 
L 191.674861 174.218766 
L 189.656506 174.218332 
z
" style="stroke:#000000;"/>
    <path clip-path="url(#pa1bb3c503d)" d="M 189.656506 180.073358 
L 191.712218 177.145386 
L 189.693691 177.146003 
z
" style="stroke:#000000;"/>
    <path clip-path="url(#pa1bb3c503d)" d="M 189.219035 159.238936 
L 190.23752 164.80763 
L 189.557962 159.575391 
z
" style="stroke:#000000;"/>
    <path clip-path="url(#pa1bb3c503d)" d="M 189.557962 159.575391 
L 190.23752 156.393531 
L 189.219035 159.238936 
z
" style="stroke:#000000;"/>
    <path clip-path="url(#pa1bb3c503d)" d="M 191.575862 159.581075 
L 190.23752 157.795881 
L 189.557962 159.575391 
z
" style="stroke:#000000;"/>
    <path clip-path="url(#pa1bb3c503d)" d="M 190.23752 164.80763 
L 191.575862 159.581075 
L 189.557962 159.575391 
z
" style="stroke:#000000;"/>
    <path clip-path="url(#pa1bb3c503d)" d="M 192.258557 164.811445 
L 192.258557 167.615137 
L 191.23537 159.244736 
z
" style="stroke:#000000;"/>
    <path clip-path="url(#pa1bb3c503d)" d="M 192.258557 156.400368 
L 189.219035 159.238936 
L 190.23752 156.393531 
z
" style="stroke:#000000;"/>
    <path clip-path="url(#pa1bb3c503d)" d="M 189.219035 159.238936 
L 192.258557 167.615137 
L 190.23752 167.612329 
z
" style="stroke:#000000;"/>
    <path clip-path="url(#pa1bb3c503d)" d="M 192.258557 156.400368 
L 192.258557 157.802214 
L 191.575862 159.581075 
z
" style="stroke:#000000;"/>
    <path clip-path="url(#pa1bb3c503d)" d="M 190.23752 164.80763 
L 189.219035 159.238936 
L 190.23752 167.612329 
z
" style="stroke:#000000;"/>
    <path clip-path="url(#pa1bb3c503d)" d="M 190.23752 157.795881 
L 191.575862 159.581075 
L 192.258557 157.802214 
z
" style="stroke:#000000;"/>
    <path clip-path="url(#pa1bb3c503d)" d="M 191.575862 159.581075 
L 190.23752 164.80763 
L 192.258557 164.811445 
z
" style="stroke:#000000;"/>
    <path clip-path="url(#pa1bb3c503d)" d="M 190.23752 156.393531 
L 189.557962 159.575391 
L 190.23752 157.795881 
z
" style="stroke:#000000;"/>
    <path clip-path="url(#pa1bb3c503d)" d="M 192.258557 156.400368 
L 192.943544 159.527879 
L 192.258557 157.802214 
z
" style="stroke:#000000;"/>
    <path clip-path="url(#pa1bb3c503d)" d="M 192.258557 157.802214 
L 190.919359 159.522157 
L 190.23752 157.795881 
z
" style="stroke:#000000;"/>
    <path clip-path="url(#pa1bb3c503d)" d="M 190.919359 159.522157 
L 192.258557 164.811445 
L 190.23752 164.80763 
z
" style="stroke:#000000;"/>
    <path clip-path="url(#pa1bb3c503d)" d="M 192.258557 164.811445 
L 193.2869 159.16318 
L 192.258557 167.615137 
z
" style="stroke:#000000;"/>
    <path clip-path="url(#pa1bb3c503d)" d="M 190.919359 159.522157 
L 190.23752 156.393531 
L 190.23752 157.795881 
z
" style="stroke:#000000;"/>
    <path clip-path="url(#pa1bb3c503d)" d="M 190.23752 156.393531 
L 193.2869 159.16318 
L 192.258557 156.400368 
z
" style="stroke:#000000;"/>
    <path clip-path="url(#pa1bb3c503d)" d="M 193.2869 159.16318 
L 190.23752 167.612329 
L 192.258557 167.615137 
z
" style="stroke:#000000;"/>
    <path clip-path="url(#pa1bb3c503d)" d="M 191.261139 159.157321 
L 190.23752 164.80763 
L 190.23752 167.612329 
z
" style="stroke:#000000;"/>
    <path clip-path="url(#pa1bb3c503d)" d="M 190.919359 159.522157 
L 192.258557 157.802214 
L 192.943544 159.527879 
z
" style="stroke:#000000;"/>
    <path clip-path="url(#pa1bb3c503d)" d="M 192.258557 164.811445 
L 190.919359 159.522157 
L 192.943544 159.527879 
z
" style="stroke:#000000;"/>
    <path clip-path="url(#pa1bb3c503d)" d="M 192.943544 159.527879 
L 192.258557 156.400368 
L 193.2869 159.16318 
z
" style="stroke:#000000;"/>
    <path clip-path="url(#pa1bb3c503d)" d="M 193.2869 159.16318 
L 192.258557 164.811445 
L 192.943544 159.527879 
z
" style="stroke:#000000;"/>
    <path clip-path="url(#pa1bb3c503d)" d="M 192.843927 180.085016 
L 190.782808 177.150619 
L 192.806362 177.149999 
z
" style="stroke:#000000;"/>
    <path clip-path="url(#pa1bb3c503d)" d="M 192.806362 177.149999 
L 190.820201 174.214863 
L 192.843927 174.215299 
z
" style="stroke:#000000;"/>
    <path clip-path="url(#pa1bb3c503d)" d="M 190.820201 174.214863 
L 192.806362 177.149999 
L 190.782808 177.150619 
z
" style="stroke:#000000;"/>
    <path clip-path="url(#pa1bb3c503d)" d="M 190.782808 177.150619 
L 192.843927 180.085016 
L 190.820201 180.086692 
z
" style="stroke:#000000;"/>
    <path clip-path="url(#pa1bb3c503d)" d="M 192.956254 182.989799 
L 190.820201 180.086692 
L 192.843927 180.085016 
z
" style="stroke:#000000;"/>
    <path clip-path="url(#pa1bb3c503d)" d="M 193.218183 177.151736 
L 192.806362 177.149999 
L 192.843927 174.215299 
z
" style="stroke:#000000;"/>
    <path clip-path="url(#pa1bb3c503d)" d="M 192.806362 177.149999 
L 193.218183 177.151736 
L 192.843927 180.085016 
z
" style="stroke:#000000;"/>
    <path clip-path="url(#pa1bb3c503d)" d="M 192.843927 174.215299 
L 190.932011 171.309983 
L 192.956254 171.311464 
z
" style="stroke:#000000;"/>
    <path clip-path="url(#pa1bb3c503d)" d="M 190.23752 164.80763 
L 191.261139 159.157321 
L 190.919359 159.522157 
z
" style="stroke:#000000;"/>
    <path clip-path="url(#pa1bb3c503d)" d="M 190.23752 156.393531 
L 190.919359 159.522157 
L 191.261139 159.157321 
z
" style="stroke:#000000;"/>
    <path clip-path="url(#pa1bb3c503d)" d="M 190.932011 171.309983 
L 192.843927 174.215299 
L 190.820201 174.214863 
z
" style="stroke:#000000;"/>
    <path clip-path="url(#pa1bb3c503d)" d="M 190.820201 180.086692 
L 192.956254 182.989799 
L 190.932011 182.992521 
z
" style="stroke:#000000;"/>
    <path clip-path="url(#pa1bb3c503d)" d="M 193.253567 174.39035 
L 192.843927 174.215299 
L 192.956254 171.311464 
z
" style="stroke:#000000;"/>
    <path clip-path="url(#pa1bb3c503d)" d="M 192.843927 180.085016 
L 193.253567 179.91342 
L 192.956254 182.989799 
z
" style="stroke:#000000;"/>
    <path clip-path="url(#pa1bb3c503d)" d="M 193.2869 159.16318 
L 190.23752 156.393531 
L 191.261139 159.157321 
z
" style="stroke:#000000;"/>
    <path clip-path="url(#pa1bb3c503d)" d="M 190.23752 167.612329 
L 193.2869 159.16318 
L 191.261139 159.157321 
z
" style="stroke:#000000;"/>
    <path clip-path="url(#pa1bb3c503d)" d="M 193.142233 185.834056 
L 190.932011 182.992521 
L 192.956254 182.989799 
z
" style="stroke:#000000;"/>
    <path clip-path="url(#pa1bb3c503d)" d="M 191.192737 177.152357 
L 190.782808 177.150619 
L 190.820201 180.086692 
z
" style="stroke:#000000;"/>
    <path clip-path="url(#pa1bb3c503d)" d="M 190.782808 177.150619 
L 191.192737 177.152357 
L 190.820201 174.214863 
z
" style="stroke:#000000;"/>
    <path clip-path="url(#pa1bb3c503d)" d="M 193.253567 179.91342 
L 192.843927 180.085016 
L 193.218183 177.151736 
z
" style="stroke:#000000;"/>
    <path clip-path="url(#pa1bb3c503d)" d="M 192.843927 174.215299 
L 193.253567 174.39035 
L 193.218183 177.151736 
z
" style="stroke:#000000;"/>
    <path clip-path="url(#pa1bb3c503d)" d="M 191.117136 168.466269 
L 192.956254 171.311464 
L 190.932011 171.309983 
z
" style="stroke:#000000;"/>
    <path clip-path="url(#pa1bb3c503d)" d="M 192.956254 171.311464 
L 191.117136 168.466269 
L 193.142233 168.468775 
z
" style="stroke:#000000;"/>
    <path clip-path="url(#pa1bb3c503d)" d="M 193.359362 171.658104 
L 192.956254 171.311464 
L 193.142233 168.468775 
z
" style="stroke:#000000;"/>
    <path clip-path="url(#pa1bb3c503d)" d="M 192.956254 182.989799 
L 193.359362 182.646558 
L 193.142233 185.834056 
z
" style="stroke:#000000;"/>
    <path clip-path="url(#pa1bb3c503d)" d="M 191.227958 179.915036 
L 190.820201 180.086692 
L 190.932011 182.992521 
z
" style="stroke:#000000;"/>
    <path clip-path="url(#pa1bb3c503d)" d="M 190.820201 174.214863 
L 191.227958 174.389977 
L 190.932011 171.309983 
z
" style="stroke:#000000;"/>
    <path clip-path="url(#pa1bb3c503d)" d="M 190.932011 182.992521 
L 193.142233 185.834056 
L 191.117136 185.837804 
z
" style="stroke:#000000;"/>
    <path clip-path="url(#pa1bb3c503d)" d="M 192.956254 171.311464 
L 193.359362 171.658104 
L 193.253567 174.39035 
z
" style="stroke:#000000;"/>
    <path clip-path="url(#pa1bb3c503d)" d="M 193.359362 182.646558 
L 192.956254 182.989799 
L 193.253567 179.91342 
z
" style="stroke:#000000;"/>
    <path clip-path="url(#pa1bb3c503d)" d="M 191.227958 174.389977 
L 190.820201 174.214863 
L 191.192737 177.152357 
z
" style="stroke:#000000;"/>
    <path clip-path="url(#pa1bb3c503d)" d="M 190.820201 180.086692 
L 191.227958 179.915036 
L 191.192737 177.152357 
z
" style="stroke:#000000;"/>
    <path clip-path="url(#pa1bb3c503d)" d="M 193.400021 188.588024 
L 191.117136 185.837804 
L 193.142233 185.834056 
z
" style="stroke:#000000;"/>
    <path clip-path="url(#pa1bb3c503d)" d="M 193.253567 174.39035 
L 191.192737 177.152357 
L 193.218183 177.151736 
z
" style="stroke:#000000;"/>
    <path clip-path="url(#pa1bb3c503d)" d="M 193.218183 177.151736 
L 191.227958 179.915036 
L 193.253567 179.91342 
z
" style="stroke:#000000;"/>
    <path clip-path="url(#pa1bb3c503d)" d="M 191.333267 182.649159 
L 190.932011 182.992521 
L 191.117136 185.837804 
z
" style="stroke:#000000;"/>
    <path clip-path="url(#pa1bb3c503d)" d="M 190.932011 171.309983 
L 191.333267 171.656746 
L 191.117136 168.466269 
z
" style="stroke:#000000;"/>
    <path clip-path="url(#pa1bb3c503d)" d="M 191.37374 165.713481 
L 193.142233 168.468775 
L 191.117136 168.466269 
z
" style="stroke:#000000;"/>
    <path clip-path="url(#pa1bb3c503d)" d="M 191.227958 179.915036 
L 193.218183 177.151736 
L 191.192737 177.152357 
z
" style="stroke:#000000;"/>
    <path clip-path="url(#pa1bb3c503d)" d="M 190.932011 182.992521 
L 191.333267 182.649159 
L 191.227958 179.915036 
z
" style="stroke:#000000;"/>
    <path clip-path="url(#pa1bb3c503d)" d="M 191.333267 171.656746 
L 190.932011 171.309983 
L 191.227958 174.389977 
z
" style="stroke:#000000;"/>
    <path clip-path="url(#pa1bb3c503d)" d="M 193.359362 171.658104 
L 191.227958 174.389977 
L 193.253567 174.39035 
z
" style="stroke:#000000;"/>
    <path clip-path="url(#pa1bb3c503d)" d="M 191.192737 177.152357 
L 193.253567 174.39035 
L 191.227958 174.389977 
z
" style="stroke:#000000;"/>
    <path clip-path="url(#pa1bb3c503d)" d="M 193.142233 168.468775 
L 193.534521 168.983553 
L 193.359362 171.658104 
z
" style="stroke:#000000;"/>
    <path clip-path="url(#pa1bb3c503d)" d="M 193.534521 185.322586 
L 193.142233 185.834056 
L 193.359362 182.646558 
z
" style="stroke:#000000;"/>
    <path clip-path="url(#pa1bb3c503d)" d="M 193.534521 168.983553 
L 193.142233 168.468775 
L 193.400021 165.71698 
z
" style="stroke:#000000;"/>
    <path clip-path="url(#pa1bb3c503d)" d="M 193.142233 185.834056 
L 193.534521 185.322586 
L 193.400021 188.588024 
z
" style="stroke:#000000;"/>
    <path clip-path="url(#pa1bb3c503d)" d="M 193.142233 168.468775 
L 191.37374 165.713481 
L 193.400021 165.71698 
z
" style="stroke:#000000;"/>
    <path clip-path="url(#pa1bb3c503d)" d="M 193.253567 179.91342 
L 191.333267 182.649159 
L 193.359362 182.646558 
z
" style="stroke:#000000;"/>
    <path clip-path="url(#pa1bb3c503d)" d="M 191.333267 182.649159 
L 193.253567 179.91342 
L 191.227958 179.915036 
z
" style="stroke:#000000;"/>
    <path clip-path="url(#pa1bb3c503d)" d="M 191.117136 185.837804 
L 193.400021 188.588024 
L 191.37374 188.592767 
z
" style="stroke:#000000;"/>
    <path clip-path="url(#pa1bb3c503d)" d="M 191.227958 174.389977 
L 193.359362 171.658104 
L 191.333267 171.656746 
z
" style="stroke:#000000;"/>
    <path clip-path="url(#pa1bb3c503d)" d="M 193.534521 168.983553 
L 191.333267 171.656746 
L 193.359362 171.658104 
z
" style="stroke:#000000;"/>
    <path clip-path="url(#pa1bb3c503d)" d="M 191.117136 185.837804 
L 191.507622 185.326153 
L 191.333267 182.649159 
z
" style="stroke:#000000;"/>
    <path clip-path="url(#pa1bb3c503d)" d="M 191.507622 168.98123 
L 191.117136 168.466269 
L 191.333267 171.656746 
z
" style="stroke:#000000;"/>
    <path clip-path="url(#pa1bb3c503d)" d="M 191.507622 185.326153 
L 191.117136 185.837804 
L 191.37374 188.592767 
z
" style="stroke:#000000;"/>
    <path clip-path="url(#pa1bb3c503d)" d="M 191.117136 168.466269 
L 191.507622 168.98123 
L 191.37374 165.713481 
z
" style="stroke:#000000;"/>
    <path clip-path="url(#pa1bb3c503d)" d="M 191.507622 185.326153 
L 193.359362 182.646558 
L 191.333267 182.649159 
z
" style="stroke:#000000;"/>
    <path clip-path="url(#pa1bb3c503d)" d="M 193.359362 182.646558 
L 191.507622 185.326153 
L 193.534521 185.322586 
z
" style="stroke:#000000;"/>
    <path clip-path="url(#pa1bb3c503d)" d="M 193.727066 191.222788 
L 191.37374 188.592767 
L 193.400021 188.588024 
z
" style="stroke:#000000;"/>
    <path clip-path="url(#pa1bb3c503d)" d="M 193.400021 165.71698 
L 193.7773 166.394777 
L 193.534521 168.983553 
z
" style="stroke:#000000;"/>
    <path clip-path="url(#pa1bb3c503d)" d="M 193.7773 187.91341 
L 193.400021 188.588024 
L 193.534521 185.322586 
z
" style="stroke:#000000;"/>
    <path clip-path="url(#pa1bb3c503d)" d="M 191.333267 171.656746 
L 193.534521 168.983553 
L 191.507622 168.98123 
z
" style="stroke:#000000;"/>
    <path clip-path="url(#pa1bb3c503d)" d="M 191.699283 163.080524 
L 193.400021 165.71698 
L 191.37374 165.713481 
z
" style="stroke:#000000;"/>
    <path clip-path="url(#pa1bb3c503d)" d="M 193.7773 166.394777 
L 193.400021 165.71698 
L 193.727066 163.084975 
z
" style="stroke:#000000;"/>
    <path clip-path="url(#pa1bb3c503d)" d="M 193.400021 188.588024 
L 193.7773 187.91341 
L 193.727066 191.222788 
z
" style="stroke:#000000;"/>
    <path clip-path="url(#pa1bb3c503d)" d="M 193.7773 166.394777 
L 191.507622 168.98123 
L 193.534521 168.983553 
z
" style="stroke:#000000;"/>
    <path clip-path="url(#pa1bb3c503d)" d="M 193.400021 165.71698 
L 191.699283 163.080524 
L 193.727066 163.084975 
z
" style="stroke:#000000;"/>
    <path clip-path="url(#pa1bb3c503d)" d="M 191.749286 187.917913 
L 193.534521 185.322586 
L 191.507622 185.326153 
z
" style="stroke:#000000;"/>
    <path clip-path="url(#pa1bb3c503d)" d="M 191.37374 188.592767 
L 193.727066 191.222788 
L 191.699283 191.228484 
z
" style="stroke:#000000;"/>
    <path clip-path="url(#pa1bb3c503d)" d="M 191.37374 188.592767 
L 191.749286 187.917913 
L 191.507622 185.326153 
z
" style="stroke:#000000;"/>
    <path clip-path="url(#pa1bb3c503d)" d="M 191.749286 166.391519 
L 191.37374 165.713481 
L 191.507622 168.98123 
z
" style="stroke:#000000;"/>
    <path clip-path="url(#pa1bb3c503d)" d="M 193.534521 185.322586 
L 191.749286 187.917913 
L 193.7773 187.91341 
z
" style="stroke:#000000;"/>
    <path clip-path="url(#pa1bb3c503d)" d="M 191.749286 187.917913 
L 191.37374 188.592767 
L 191.699283 191.228484 
z
" style="stroke:#000000;"/>
    <path clip-path="url(#pa1bb3c503d)" d="M 191.37374 165.713481 
L 191.749286 166.391519 
L 191.699283 163.080524 
z
" style="stroke:#000000;"/>
    <path clip-path="url(#pa1bb3c503d)" d="M 191.507622 168.98123 
L 193.7773 166.394777 
L 191.749286 166.391519 
z
" style="stroke:#000000;"/>
    <path clip-path="url(#pa1bb3c503d)" d="M 193.727066 163.084975 
L 194.085272 163.919053 
L 193.7773 166.394777 
z
" style="stroke:#000000;"/>
    <path clip-path="url(#pa1bb3c503d)" d="M 194.085272 190.39173 
L 193.727066 191.222788 
L 193.7773 187.91341 
z
" style="stroke:#000000;"/>
    <path clip-path="url(#pa1bb3c503d)" d="M 194.120099 193.710366 
L 191.699283 191.228484 
L 193.727066 191.222788 
z
" style="stroke:#000000;"/>
    <path clip-path="url(#pa1bb3c503d)" d="M 194.085272 163.919053 
L 191.749286 166.391519 
L 193.7773 166.394777 
z
" style="stroke:#000000;"/>
    <path clip-path="url(#pa1bb3c503d)" d="M 192.090511 160.595359 
L 193.727066 163.084975 
L 191.699283 163.080524 
z
" style="stroke:#000000;"/>
    <path clip-path="url(#pa1bb3c503d)" d="M 194.120099 160.600711 
L 194.085272 163.919053 
L 193.727066 163.084975 
z
" style="stroke:#000000;"/>
    <path clip-path="url(#pa1bb3c503d)" d="M 194.085272 190.39173 
L 194.120099 193.710366 
L 193.727066 191.222788 
z
" style="stroke:#000000;"/>
    <path clip-path="url(#pa1bb3c503d)" d="M 192.055844 190.397132 
L 193.7773 187.91341 
L 191.749286 187.917913 
z
" style="stroke:#000000;"/>
    <path clip-path="url(#pa1bb3c503d)" d="M 191.699283 191.228484 
L 192.055844 190.397132 
L 191.749286 187.917913 
z
" style="stroke:#000000;"/>
    <path clip-path="url(#pa1bb3c503d)" d="M 192.055844 163.914899 
L 191.699283 163.080524 
L 191.749286 166.391519 
z
" style="stroke:#000000;"/>
    <path clip-path="url(#pa1bb3c503d)" d="M 193.7773 187.91341 
L 192.055844 190.397132 
L 194.085272 190.39173 
z
" style="stroke:#000000;"/>
    <path clip-path="url(#pa1bb3c503d)" d="M 193.727066 163.084975 
L 192.090511 160.595359 
L 194.120099 160.600711 
z
" style="stroke:#000000;"/>
    <path clip-path="url(#pa1bb3c503d)" d="M 191.749286 166.391519 
L 194.085272 163.919053 
L 192.055844 163.914899 
z
" style="stroke:#000000;"/>
    <path clip-path="url(#pa1bb3c503d)" d="M 191.699283 191.228484 
L 194.120099 193.710366 
L 192.090511 193.716966 
z
" style="stroke:#000000;"/>
    <path clip-path="url(#pa1bb3c503d)" d="M 192.090511 193.716966 
L 192.055844 190.397132 
L 191.699283 191.228484 
z
" style="stroke:#000000;"/>
    <path clip-path="url(#pa1bb3c503d)" d="M 192.055844 163.914899 
L 192.090511 160.595359 
L 191.699283 163.080524 
z
" style="stroke:#000000;"/>
    <path clip-path="url(#pa1bb3c503d)" d="M 194.120099 160.600711 
L 194.455349 161.582603 
L 194.085272 163.919053 
z
" style="stroke:#000000;"/>
    <path clip-path="url(#pa1bb3c503d)" d="M 194.455349 192.731302 
L 194.120099 193.710366 
L 194.085272 190.39173 
z
" style="stroke:#000000;"/>
    <path clip-path="url(#pa1bb3c503d)" d="M 194.455349 161.582603 
L 192.055844 163.914899 
L 194.085272 163.919053 
z
" style="stroke:#000000;"/>
    <path clip-path="url(#pa1bb3c503d)" d="M 192.424222 192.737553 
L 194.085272 190.39173 
L 192.055844 190.397132 
z
" style="stroke:#000000;"/>
    <path clip-path="url(#pa1bb3c503d)" d="M 194.575181 196.024358 
L 192.090511 193.716966 
L 194.120099 193.710366 
z
" style="stroke:#000000;"/>
    <path clip-path="url(#pa1bb3c503d)" d="M 192.090511 193.716966 
L 192.424222 192.737553 
L 192.055844 190.397132 
z
" style="stroke:#000000;"/>
    <path clip-path="url(#pa1bb3c503d)" d="M 192.424222 161.577601 
L 192.090511 160.595359 
L 192.055844 163.914899 
z
" style="stroke:#000000;"/>
    <path clip-path="url(#pa1bb3c503d)" d="M 192.543504 158.284364 
L 194.120099 160.600711 
L 192.090511 160.595359 
z
" style="stroke:#000000;"/>
    <path clip-path="url(#pa1bb3c503d)" d="M 194.085272 190.39173 
L 192.424222 192.737553 
L 194.455349 192.731302 
z
" style="stroke:#000000;"/>
    <path clip-path="url(#pa1bb3c503d)" d="M 194.575181 158.290557 
L 194.455349 161.582603 
L 194.120099 160.600711 
z
" style="stroke:#000000;"/>
    <path clip-path="url(#pa1bb3c503d)" d="M 194.455349 192.731302 
L 194.575181 196.024358 
L 194.120099 193.710366 
z
" style="stroke:#000000;"/>
    <path clip-path="url(#pa1bb3c503d)" d="M 192.055844 163.914899 
L 194.455349 161.582603 
L 192.424222 161.577601 
z
" style="stroke:#000000;"/>
    <path clip-path="url(#pa1bb3c503d)" d="M 194.120099 160.600711 
L 192.543504 158.284364 
L 194.575181 158.290557 
z
" style="stroke:#000000;"/>
    <path clip-path="url(#pa1bb3c503d)" d="M 192.090511 193.716966 
L 194.575181 196.024358 
L 192.543504 196.031801 
z
" style="stroke:#000000;"/>
    <path clip-path="url(#pa1bb3c503d)" d="M 192.543504 196.031801 
L 192.424222 192.737553 
L 192.090511 193.716966 
z
" style="stroke:#000000;"/>
    <path clip-path="url(#pa1bb3c503d)" d="M 192.424222 161.577601 
L 192.543504 158.284364 
L 192.090511 160.595359 
z
" style="stroke:#000000;"/>
    <path clip-path="url(#pa1bb3c503d)" d="M 194.575181 158.290557 
L 194.883801 159.410538 
L 194.455349 161.582603 
z
" style="stroke:#000000;"/>
    <path clip-path="url(#pa1bb3c503d)" d="M 194.883801 194.906979 
L 194.575181 196.024358 
L 194.455349 192.731302 
z
" style="stroke:#000000;"/>
    <path clip-path="url(#pa1bb3c503d)" d="M 194.883801 159.410538 
L 192.424222 161.577601 
L 194.455349 161.582603 
z
" style="stroke:#000000;"/>
    <path clip-path="url(#pa1bb3c503d)" d="M 192.850707 194.914024 
L 194.455349 192.731302 
L 192.424222 192.737553 
z
" style="stroke:#000000;"/>
    <path clip-path="url(#pa1bb3c503d)" d="M 194.831292 197.081343 
L 192.543504 196.031801 
L 194.575181 196.024358 
z
" style="stroke:#000000;"/>
    <path clip-path="url(#pa1bb3c503d)" d="M 192.798439 157.229154 
L 194.575181 158.290557 
L 192.543504 158.284364 
z
" style="stroke:#000000;"/>
    <path clip-path="url(#pa1bb3c503d)" d="M 192.543504 196.031801 
L 192.850707 194.914024 
L 192.424222 192.737553 
z
" style="stroke:#000000;"/>
    <path clip-path="url(#pa1bb3c503d)" d="M 192.850707 159.404746 
L 192.543504 158.284364 
L 192.424222 161.577601 
z
" style="stroke:#000000;"/>
    <path clip-path="url(#pa1bb3c503d)" d="M 194.455349 192.731302 
L 192.850707 194.914024 
L 194.883801 194.906979 
z
" style="stroke:#000000;"/>
    <path clip-path="url(#pa1bb3c503d)" d="M 194.575181 158.290557 
L 192.798439 157.229154 
L 194.831292 157.235732 
z
" style="stroke:#000000;"/>
    <path clip-path="url(#pa1bb3c503d)" d="M 195.012372 157.603683 
L 194.575181 158.290557 
L 194.831292 157.235732 
z
" style="stroke:#000000;"/>
    <path clip-path="url(#pa1bb3c503d)" d="M 194.575181 196.024358 
L 195.012372 196.714919 
L 194.831292 197.081343 
z
" style="stroke:#000000;"/>
    <path clip-path="url(#pa1bb3c503d)" d="M 194.575181 158.290557 
L 195.012372 157.603683 
L 194.883801 159.410538 
z
" style="stroke:#000000;"/>
    <path clip-path="url(#pa1bb3c503d)" d="M 195.012372 196.714919 
L 194.575181 196.024358 
L 194.883801 194.906979 
z
" style="stroke:#000000;"/>
    <path clip-path="url(#pa1bb3c503d)" d="M 192.424222 161.577601 
L 194.883801 159.410538 
L 192.850707 159.404746 
z
" style="stroke:#000000;"/>
    <path clip-path="url(#pa1bb3c503d)" d="M 192.543504 196.031801 
L 194.831292 197.081343 
L 192.798439 197.089173 
z
" style="stroke:#000000;"/>
    <path clip-path="url(#pa1bb3c503d)" d="M 192.798439 157.229154 
L 195.012372 157.603683 
L 194.831292 157.235732 
z
" style="stroke:#000000;"/>
    <path clip-path="url(#pa1bb3c503d)" d="M 192.978688 196.72262 
L 192.543504 196.031801 
L 192.798439 197.089173 
z
" style="stroke:#000000;"/>
    <path clip-path="url(#pa1bb3c503d)" d="M 192.543504 158.284364 
L 192.978688 157.597235 
L 192.798439 157.229154 
z
" style="stroke:#000000;"/>
    <path clip-path="url(#pa1bb3c503d)" d="M 192.543504 196.031801 
L 192.978688 196.72262 
L 192.850707 194.914024 
z
" style="stroke:#000000;"/>
    <path clip-path="url(#pa1bb3c503d)" d="M 192.978688 157.597235 
L 192.543504 158.284364 
L 192.850707 159.404746 
z
" style="stroke:#000000;"/>
    <path clip-path="url(#pa1bb3c503d)" d="M 194.831292 197.081343 
L 192.978688 196.72262 
L 192.798439 197.089173 
z
" style="stroke:#000000;"/>
    <path clip-path="url(#pa1bb3c503d)" d="M 192.978688 196.72262 
L 194.831292 197.081343 
L 195.012372 196.714919 
z
" style="stroke:#000000;"/>
    <path clip-path="url(#pa1bb3c503d)" d="M 194.883801 159.410538 
L 195.012372 157.603683 
L 195.20273 158.098872 
z
" style="stroke:#000000;"/>
    <path clip-path="url(#pa1bb3c503d)" d="M 195.012372 196.714919 
L 194.883801 194.906979 
L 195.20273 196.221334 
z
" style="stroke:#000000;"/>
    <path clip-path="url(#pa1bb3c503d)" d="M 192.850707 194.914024 
L 195.20273 196.221334 
L 194.883801 194.906979 
z
" style="stroke:#000000;"/>
    <path clip-path="url(#pa1bb3c503d)" d="M 195.012372 157.603683 
L 192.798439 157.229154 
L 192.978688 157.597235 
z
" style="stroke:#000000;"/>
    <path clip-path="url(#pa1bb3c503d)" d="M 194.883801 159.410538 
L 193.168172 158.092601 
L 192.850707 159.404746 
z
" style="stroke:#000000;"/>
    <path clip-path="url(#pa1bb3c503d)" d="M 192.978688 157.597235 
L 195.20273 158.098872 
L 195.012372 157.603683 
z
" style="stroke:#000000;"/>
    <path clip-path="url(#pa1bb3c503d)" d="M 193.168172 158.092601 
L 194.883801 159.410538 
L 195.20273 158.098872 
z
" style="stroke:#000000;"/>
    <path clip-path="url(#pa1bb3c503d)" d="M 195.012372 196.714919 
L 193.168172 196.228861 
L 192.978688 196.72262 
z
" style="stroke:#000000;"/>
    <path clip-path="url(#pa1bb3c503d)" d="M 192.850707 194.914024 
L 192.978688 196.72262 
L 193.168172 196.228861 
z
" style="stroke:#000000;"/>
    <path clip-path="url(#pa1bb3c503d)" d="M 192.978688 157.597235 
L 192.850707 159.404746 
L 193.168172 158.092601 
z
" style="stroke:#000000;"/>
    <path clip-path="url(#pa1bb3c503d)" d="M 193.168172 196.228861 
L 195.012372 196.714919 
L 195.20273 196.221334 
z
" style="stroke:#000000;"/>
    <path clip-path="url(#pa1bb3c503d)" d="M 195.20273 196.221334 
L 192.850707 194.914024 
L 193.168172 196.228861 
z
" style="stroke:#000000;"/>
    <path clip-path="url(#pa1bb3c503d)" d="M 195.20273 158.098872 
L 192.978688 157.597235 
L 193.168172 158.092601 
z
" style="stroke:#000000;"/>
   </g>
  </g>
 </g>
 <defs>
  <clipPath id="pa1bb3c503d">
   <rect height="271.8" width="279" x="45" y="43.2"/>
  </clipPath>
 </defs>
</svg>
