<?xml version="1.0" encoding="utf-8" standalone="no"?>
<!DOCTYPE svg PUBLIC "-//W3C//DTD SVG 1.1//EN"
  "http://www.w3.org/Graphics/SVG/1.1/DTD/svg11.dtd">
<!-- Created with matplotlib (https://matplotlib.org/) -->
<svg height="360pt" version="1.1" viewBox="0 0 360 360" width="360pt" xmlns="http://www.w3.org/2000/svg" xmlns:xlink="http://www.w3.org/1999/xlink">
 <defs>
  <style type="text/css">
*{stroke-linecap:butt;stroke-linejoin:round;}
  </style>
 </defs>
 <g id="figure_1">
  <g id="patch_1">
   <path d="M 45 315 
L 324 315 
L 324 43.2 
L 45 43.2 
z
" style="fill:#ffffff;"/>
  </g>
  <g id="axes_1">
   <g id="Poly3DCollection_1">
    <path clip-path="url(#pe6bd19d42b)" d="M 196.290161 194.737325 
L 195.866059 193.117848 
L 196.917466 194.282563 
z
" style="stroke:#000000;"/>
    <path clip-path="url(#pe6bd19d42b)" d="M 195.866059 161.175322 
L 196.290161 159.555586 
L 196.917466 160.009964 
z
" style="stroke:#000000;"/>
    <path clip-path="url(#pe6bd19d42b)" d="M 196.290161 194.737325 
L 194.846708 194.140686 
L 195.866059 193.117848 
z
" style="stroke:#000000;"/>
    <path clip-path="url(#pe6bd19d42b)" d="M 194.846708 160.153108 
L 196.290161 159.555586 
L 195.866059 161.175322 
z
" style="stroke:#000000;"/>
    <path clip-path="url(#pe6bd19d42b)" d="M 194.846708 194.140686 
L 196.290161 194.737325 
L 195.69276 195.077611 
z
" style="stroke:#000000;"/>
    <path clip-path="url(#pe6bd19d42b)" d="M 196.290161 159.555586 
L 194.846708 160.153108 
L 195.69276 159.215665 
z
" style="stroke:#000000;"/>
    <path clip-path="url(#pe6bd19d42b)" d="M 194.846708 194.140686 
L 194.450397 191.180229 
L 195.866059 193.117848 
z
" style="stroke:#000000;"/>
    <path clip-path="url(#pe6bd19d42b)" d="M 194.450397 163.113808 
L 194.846708 160.153108 
L 195.866059 161.175322 
z
" style="stroke:#000000;"/>
    <path clip-path="url(#pe6bd19d42b)" d="M 197.419103 194.305479 
L 196.290161 194.737325 
L 196.917466 194.282563 
z
" style="stroke:#000000;"/>
    <path clip-path="url(#pe6bd19d42b)" d="M 197.419103 159.991226 
L 195.866059 161.175322 
L 196.917466 160.009964 
z
" style="stroke:#000000;"/>
    <path clip-path="url(#pe6bd19d42b)" d="M 196.791091 159.536294 
L 196.917466 160.009964 
L 196.290161 159.555586 
z
" style="stroke:#000000;"/>
    <path clip-path="url(#pe6bd19d42b)" d="M 193.340123 192.079171 
L 194.450397 191.180229 
L 194.846708 194.140686 
z
" style="stroke:#000000;"/>
    <path clip-path="url(#pe6bd19d42b)" d="M 194.450397 163.113808 
L 193.340123 162.215544 
L 194.846708 160.153108 
z
" style="stroke:#000000;"/>
    <path clip-path="url(#pe6bd19d42b)" d="M 196.366512 193.139353 
L 196.917466 194.282563 
L 195.866059 193.117848 
z
" style="stroke:#000000;"/>
    <path clip-path="url(#pe6bd19d42b)" d="M 196.791091 194.760797 
L 195.69276 195.077611 
L 196.290161 194.737325 
z
" style="stroke:#000000;"/>
    <path clip-path="url(#pe6bd19d42b)" d="M 193.340123 192.079171 
L 193.224653 189.087317 
L 194.450397 191.180229 
z
" style="stroke:#000000;"/>
    <path clip-path="url(#pe6bd19d42b)" d="M 193.224653 165.207469 
L 193.340123 162.215544 
L 194.450397 163.113808 
z
" style="stroke:#000000;"/>
    <path clip-path="url(#pe6bd19d42b)" d="M 196.193018 159.195957 
L 196.290161 159.555586 
L 195.69276 159.215665 
z
" style="stroke:#000000;"/>
    <path clip-path="url(#pe6bd19d42b)" d="M 194.846708 160.153108 
L 196.193018 159.195957 
L 195.69276 159.215665 
z
" style="stroke:#000000;"/>
    <path clip-path="url(#pe6bd19d42b)" d="M 194.450397 191.180229 
L 196.366512 193.139353 
L 195.866059 193.117848 
z
" style="stroke:#000000;"/>
    <path clip-path="url(#pe6bd19d42b)" d="M 192.035608 189.85249 
L 193.224653 189.087317 
L 193.340123 192.079171 
z
" style="stroke:#000000;"/>
    <path clip-path="url(#pe6bd19d42b)" d="M 193.224653 165.207469 
L 192.035608 164.443024 
L 193.340123 162.215544 
z
" style="stroke:#000000;"/>
    <path clip-path="url(#pe6bd19d42b)" d="M 195.69276 195.077611 
L 195.346013 194.163439 
L 194.846708 194.140686 
z
" style="stroke:#000000;"/>
    <path clip-path="url(#pe6bd19d42b)" d="M 195.866059 161.175322 
L 194.949255 163.098836 
L 194.450397 163.113808 
z
" style="stroke:#000000;"/>
    <path clip-path="url(#pe6bd19d42b)" d="M 193.224653 189.087317 
L 192.035608 189.85249 
L 192.202513 186.862279 
z
" style="stroke:#000000;"/>
    <path clip-path="url(#pe6bd19d42b)" d="M 192.035608 164.443024 
L 193.224653 165.207469 
L 192.202513 167.433132 
z
" style="stroke:#000000;"/>
    <path clip-path="url(#pe6bd19d42b)" d="M 196.917466 160.009964 
L 196.791091 159.536294 
L 197.419103 159.991226 
z
" style="stroke:#000000;"/>
    <path clip-path="url(#pe6bd19d42b)" d="M 193.340123 162.215544 
L 195.346013 160.134537 
L 194.846708 160.153108 
z
" style="stroke:#000000;"/>
    <path clip-path="url(#pe6bd19d42b)" d="M 196.917466 194.282563 
L 196.366512 193.139353 
L 197.419103 194.305479 
z
" style="stroke:#000000;"/>
    <path clip-path="url(#pe6bd19d42b)" d="M 196.290161 194.737325 
L 197.419103 194.305479 
L 196.791091 194.760797 
z
" style="stroke:#000000;"/>
    <path clip-path="url(#pe6bd19d42b)" d="M 193.224653 189.087317 
L 194.949255 191.199383 
L 194.450397 191.180229 
z
" style="stroke:#000000;"/>
    <path clip-path="url(#pe6bd19d42b)" d="M 190.947744 187.485033 
L 192.202513 186.862279 
L 192.035608 189.85249 
z
" style="stroke:#000000;"/>
    <path clip-path="url(#pe6bd19d42b)" d="M 192.202513 167.433132 
L 190.947744 166.811146 
L 192.035608 164.443024 
z
" style="stroke:#000000;"/>
    <path clip-path="url(#pe6bd19d42b)" d="M 195.866059 161.175322 
L 197.419103 159.991226 
L 196.366512 161.157997 
z
" style="stroke:#000000;"/>
    <path clip-path="url(#pe6bd19d42b)" d="M 194.846708 194.140686 
L 193.837729 192.099423 
L 193.340123 192.079171 
z
" style="stroke:#000000;"/>
    <path clip-path="url(#pe6bd19d42b)" d="M 196.290161 159.555586 
L 196.193018 159.195957 
L 196.791091 159.536294 
z
" style="stroke:#000000;"/>
    <path clip-path="url(#pe6bd19d42b)" d="M 192.202513 186.862279 
L 190.947744 187.485033 
L 191.395399 184.529633 
z
" style="stroke:#000000;"/>
    <path clip-path="url(#pe6bd19d42b)" d="M 190.947744 166.811146 
L 192.202513 167.433132 
L 191.395399 169.766273 
z
" style="stroke:#000000;"/>
    <path clip-path="url(#pe6bd19d42b)" d="M 194.450397 163.113808 
L 193.722129 165.19504 
L 193.224653 165.207469 
z
" style="stroke:#000000;"/>
    <path clip-path="url(#pe6bd19d42b)" d="M 195.69276 195.077611 
L 196.791091 194.760797 
L 196.193018 195.101499 
z
" style="stroke:#000000;"/>
    <path clip-path="url(#pe6bd19d42b)" d="M 195.346013 194.163439 
L 195.69276 195.077611 
L 196.193018 195.101499 
z
" style="stroke:#000000;"/>
    <path clip-path="url(#pe6bd19d42b)" d="M 194.949255 163.098836 
L 195.866059 161.175322 
L 196.366512 161.157997 
z
" style="stroke:#000000;"/>
    <path clip-path="url(#pe6bd19d42b)" d="M 190.088728 185.003022 
L 191.395399 184.529633 
L 190.947744 187.485033 
z
" style="stroke:#000000;"/>
    <path clip-path="url(#pe6bd19d42b)" d="M 191.395399 169.766273 
L 190.088728 169.293683 
L 190.947744 166.811146 
z
" style="stroke:#000000;"/>
    <path clip-path="url(#pe6bd19d42b)" d="M 191.395399 184.529633 
L 190.088728 185.003022 
L 190.812346 182.115156 
z
" style="stroke:#000000;"/>
    <path clip-path="url(#pe6bd19d42b)" d="M 190.088728 169.293683 
L 191.395399 169.766273 
L 190.812346 172.181106 
z
" style="stroke:#000000;"/>
    <path clip-path="url(#pe6bd19d42b)" d="M 192.035608 164.443024 
L 193.837729 162.199477 
L 193.340123 162.215544 
z
" style="stroke:#000000;"/>
    <path clip-path="url(#pe6bd19d42b)" d="M 192.202513 186.862279 
L 193.722129 189.103931 
L 193.224653 189.087317 
z
" style="stroke:#000000;"/>
    <path clip-path="url(#pe6bd19d42b)" d="M 196.193018 159.195957 
L 194.846708 160.153108 
L 195.346013 160.134537 
z
" style="stroke:#000000;"/>
    <path clip-path="url(#pe6bd19d42b)" d="M 196.366512 193.139353 
L 194.450397 191.180229 
L 194.949255 191.199383 
z
" style="stroke:#000000;"/>
    <path clip-path="url(#pe6bd19d42b)" d="M 193.224653 165.207469 
L 192.698836 167.423409 
L 192.202513 167.433132 
z
" style="stroke:#000000;"/>
    <path clip-path="url(#pe6bd19d42b)" d="M 190.812346 182.115156 
L 189.468162 182.433877 
L 190.459885 179.645591 
z
" style="stroke:#000000;"/>
    <path clip-path="url(#pe6bd19d42b)" d="M 189.468162 171.863208 
L 190.812346 172.181106 
L 190.459885 174.650887 
z
" style="stroke:#000000;"/>
    <path clip-path="url(#pe6bd19d42b)" d="M 193.340123 192.079171 
L 192.531743 189.870037 
L 192.035608 189.85249 
z
" style="stroke:#000000;"/>
    <path clip-path="url(#pe6bd19d42b)" d="M 189.468162 182.433877 
L 190.812346 182.115156 
L 190.088728 185.003022 
z
" style="stroke:#000000;"/>
    <path clip-path="url(#pe6bd19d42b)" d="M 190.812346 172.181106 
L 189.468162 171.863208 
L 190.088728 169.293683 
z
" style="stroke:#000000;"/>
    <path clip-path="url(#pe6bd19d42b)" d="M 189.093015 174.491257 
L 190.459885 174.650887 
L 190.341952 177.148275 
z
" style="stroke:#000000;"/>
    <path clip-path="url(#pe6bd19d42b)" d="M 190.459885 179.645591 
L 189.093015 179.806057 
L 190.341952 177.148275 
z
" style="stroke:#000000;"/>
    <path clip-path="url(#pe6bd19d42b)" d="M 193.837729 192.099423 
L 194.846708 194.140686 
L 195.346013 194.163439 
z
" style="stroke:#000000;"/>
    <path clip-path="url(#pe6bd19d42b)" d="M 189.093015 179.806057 
L 190.459885 179.645591 
L 189.468162 182.433877 
z
" style="stroke:#000000;"/>
    <path clip-path="url(#pe6bd19d42b)" d="M 190.459885 174.650887 
L 189.093015 174.491257 
L 189.468162 171.863208 
z
" style="stroke:#000000;"/>
    <path clip-path="url(#pe6bd19d42b)" d="M 191.395399 184.529633 
L 192.698836 186.876189 
L 192.202513 186.862279 
z
" style="stroke:#000000;"/>
    <path clip-path="url(#pe6bd19d42b)" d="M 196.791091 159.536294 
L 196.366512 161.157997 
L 197.419103 159.991226 
z
" style="stroke:#000000;"/>
    <path clip-path="url(#pe6bd19d42b)" d="M 196.366512 193.139353 
L 196.791091 194.760797 
L 197.419103 194.305479 
z
" style="stroke:#000000;"/>
    <path clip-path="url(#pe6bd19d42b)" d="M 193.722129 165.19504 
L 194.450397 163.113808 
L 194.949255 163.098836 
z
" style="stroke:#000000;"/>
    <path clip-path="url(#pe6bd19d42b)" d="M 188.9675 177.148695 
L 190.341952 177.148275 
L 189.093015 179.806057 
z
" style="stroke:#000000;"/>
    <path clip-path="url(#pe6bd19d42b)" d="M 190.341952 177.148275 
L 188.9675 177.148695 
L 189.093015 174.491257 
z
" style="stroke:#000000;"/>
    <path clip-path="url(#pe6bd19d42b)" d="M 190.947744 166.811146 
L 192.531743 164.429663 
L 192.035608 164.443024 
z
" style="stroke:#000000;"/>
    <path clip-path="url(#pe6bd19d42b)" d="M 192.202513 167.433132 
L 191.890812 169.759386 
L 191.395399 169.766273 
z
" style="stroke:#000000;"/>
    <path clip-path="url(#pe6bd19d42b)" d="M 195.346013 160.134537 
L 193.340123 162.215544 
L 193.837729 162.199477 
z
" style="stroke:#000000;"/>
    <path clip-path="url(#pe6bd19d42b)" d="M 194.949255 191.199383 
L 193.224653 189.087317 
L 193.722129 189.103931 
z
" style="stroke:#000000;"/>
    <path clip-path="url(#pe6bd19d42b)" d="M 190.570962 160.881912 
L 187.133852 165.959348 
L 189.425725 161.196717 
z
" style="stroke:#000000;"/>
    <path clip-path="url(#pe6bd19d42b)" d="M 189.425725 161.196717 
L 187.133852 158.329865 
L 190.570962 160.881912 
z
" style="stroke:#000000;"/>
    <path clip-path="url(#pe6bd19d42b)" d="M 192.035608 189.85249 
L 191.442651 187.499704 
L 190.947744 187.485033 
z
" style="stroke:#000000;"/>
    <path clip-path="url(#pe6bd19d42b)" d="M 190.812346 182.115156 
L 191.890812 184.540707 
L 191.395399 184.529633 
z
" style="stroke:#000000;"/>
    <path clip-path="url(#pe6bd19d42b)" d="M 196.791091 159.536294 
L 195.346013 160.134537 
L 196.366512 161.157997 
z
" style="stroke:#000000;"/>
    <path clip-path="url(#pe6bd19d42b)" d="M 195.346013 194.163439 
L 196.791091 194.760797 
L 196.366512 193.139353 
z
" style="stroke:#000000;"/>
    <path clip-path="url(#pe6bd19d42b)" d="M 195.346013 160.134537 
L 196.791091 159.536294 
L 196.193018 159.195957 
z
" style="stroke:#000000;"/>
    <path clip-path="url(#pe6bd19d42b)" d="M 196.791091 194.760797 
L 195.346013 194.163439 
L 196.193018 195.101499 
z
" style="stroke:#000000;"/>
    <path clip-path="url(#pe6bd19d42b)" d="M 191.395399 169.766273 
L 191.3071 172.177157 
L 190.812346 172.181106 
z
" style="stroke:#000000;"/>
    <path clip-path="url(#pe6bd19d42b)" d="M 190.459885 179.645591 
L 191.3071 182.123293 
L 190.812346 182.115156 
z
" style="stroke:#000000;"/>
    <path clip-path="url(#pe6bd19d42b)" d="M 190.088728 169.293683 
L 191.442651 166.800664 
L 190.947744 166.811146 
z
" style="stroke:#000000;"/>
    <path clip-path="url(#pe6bd19d42b)" d="M 192.531743 189.870037 
L 193.340123 192.079171 
L 193.837729 192.099423 
z
" style="stroke:#000000;"/>
    <path clip-path="url(#pe6bd19d42b)" d="M 192.698836 167.423409 
L 193.224653 165.207469 
L 193.722129 165.19504 
z
" style="stroke:#000000;"/>
    <path clip-path="url(#pe6bd19d42b)" d="M 190.812346 172.181106 
L 190.954242 174.649942 
L 190.459885 174.650887 
z
" style="stroke:#000000;"/>
    <path clip-path="url(#pe6bd19d42b)" d="M 187.133852 165.959348 
L 190.570962 160.881912 
L 187.133852 168.502509 
z
" style="stroke:#000000;"/>
    <path clip-path="url(#pe6bd19d42b)" d="M 195.346013 160.134537 
L 194.949255 163.098836 
L 196.366512 161.157997 
z
" style="stroke:#000000;"/>
    <path clip-path="url(#pe6bd19d42b)" d="M 194.949255 191.199383 
L 195.346013 194.163439 
L 196.366512 193.139353 
z
" style="stroke:#000000;"/>
    <path clip-path="url(#pe6bd19d42b)" d="M 190.341952 177.148275 
L 190.954242 179.650724 
L 190.459885 179.645591 
z
" style="stroke:#000000;"/>
    <path clip-path="url(#pe6bd19d42b)" d="M 190.459885 174.650887 
L 190.836176 177.150369 
L 190.341952 177.148275 
z
" style="stroke:#000000;"/>
    <path clip-path="url(#pe6bd19d42b)" d="M 190.947744 187.485033 
L 190.582665 185.014675 
L 190.088728 185.003022 
z
" style="stroke:#000000;"/>
    <path clip-path="url(#pe6bd19d42b)" d="M 193.722129 189.103931 
L 192.202513 186.862279 
L 192.698836 186.876189 
z
" style="stroke:#000000;"/>
    <path clip-path="url(#pe6bd19d42b)" d="M 193.837729 162.199477 
L 192.035608 164.443024 
L 192.531743 164.429663 
z
" style="stroke:#000000;"/>
    <path clip-path="url(#pe6bd19d42b)" d="M 187.133852 158.329865 
L 189.425725 161.196717 
L 187.133852 159.601446 
z
" style="stroke:#000000;"/>
    <path clip-path="url(#pe6bd19d42b)" d="M 189.468162 171.863208 
L 190.582665 169.286219 
L 190.088728 169.293683 
z
" style="stroke:#000000;"/>
    <path clip-path="url(#pe6bd19d42b)" d="M 190.088728 185.003022 
L 189.961399 182.442404 
L 189.468162 182.433877 
z
" style="stroke:#000000;"/>
    <path clip-path="url(#pe6bd19d42b)" d="M 193.837729 162.199477 
L 194.949255 163.098836 
L 195.346013 160.134537 
z
" style="stroke:#000000;"/>
    <path clip-path="url(#pe6bd19d42b)" d="M 194.949255 191.199383 
L 193.837729 192.099423 
L 195.346013 194.163439 
z
" style="stroke:#000000;"/>
    <path clip-path="url(#pe6bd19d42b)" d="M 191.890812 169.759386 
L 192.202513 167.433132 
L 192.698836 167.423409 
z
" style="stroke:#000000;"/>
    <path clip-path="url(#pe6bd19d42b)" d="M 191.442651 187.499704 
L 192.035608 189.85249 
L 192.531743 189.870037 
z
" style="stroke:#000000;"/>
    <path clip-path="url(#pe6bd19d42b)" d="M 192.698836 186.876189 
L 191.395399 184.529633 
L 191.890812 184.540707 
z
" style="stroke:#000000;"/>
    <path clip-path="url(#pe6bd19d42b)" d="M 189.093015 174.491257 
L 189.961399 171.858871 
L 189.468162 171.863208 
z
" style="stroke:#000000;"/>
    <path clip-path="url(#pe6bd19d42b)" d="M 189.468162 182.433877 
L 189.585829 179.811387 
L 189.093015 179.806057 
z
" style="stroke:#000000;"/>
    <path clip-path="url(#pe6bd19d42b)" d="M 193.837729 162.199477 
L 193.722129 165.19504 
L 194.949255 163.098836 
z
" style="stroke:#000000;"/>
    <path clip-path="url(#pe6bd19d42b)" d="M 193.722129 189.103931 
L 193.837729 192.099423 
L 194.949255 191.199383 
z
" style="stroke:#000000;"/>
    <path clip-path="url(#pe6bd19d42b)" d="M 188.9675 177.148695 
L 189.585829 174.490118 
L 189.093015 174.491257 
z
" style="stroke:#000000;"/>
    <path clip-path="url(#pe6bd19d42b)" d="M 192.531743 164.429663 
L 190.947744 166.811146 
L 191.442651 166.800664 
z
" style="stroke:#000000;"/>
    <path clip-path="url(#pe6bd19d42b)" d="M 189.093015 179.806057 
L 189.460172 177.150791 
L 188.9675 177.148695 
z
" style="stroke:#000000;"/>
    <path clip-path="url(#pe6bd19d42b)" d="M 191.3071 172.177157 
L 191.395399 169.766273 
L 191.890812 169.759386 
z
" style="stroke:#000000;"/>
    <path clip-path="url(#pe6bd19d42b)" d="M 191.890812 184.540707 
L 190.812346 182.115156 
L 191.3071 182.123293 
z
" style="stroke:#000000;"/>
    <path clip-path="url(#pe6bd19d42b)" d="M 189.918914 161.179399 
L 187.133852 159.601446 
L 189.425725 161.196717 
z
" style="stroke:#000000;"/>
    <path clip-path="url(#pe6bd19d42b)" d="M 187.133852 165.959348 
L 189.918914 161.179399 
L 189.425725 161.196717 
z
" style="stroke:#000000;"/>
    <path clip-path="url(#pe6bd19d42b)" d="M 184.840112 161.185121 
L 187.133852 158.329865 
L 187.133852 159.601446 
z
" style="stroke:#000000;"/>
    <path clip-path="url(#pe6bd19d42b)" d="M 190.954242 174.649942 
L 190.812346 172.181106 
L 191.3071 172.177157 
z
" style="stroke:#000000;"/>
    <path clip-path="url(#pe6bd19d42b)" d="M 190.582665 185.014675 
L 190.947744 187.485033 
L 191.442651 187.499704 
z
" style="stroke:#000000;"/>
    <path clip-path="url(#pe6bd19d42b)" d="M 192.531743 164.429663 
L 193.722129 165.19504 
L 193.837729 162.199477 
z
" style="stroke:#000000;"/>
    <path clip-path="url(#pe6bd19d42b)" d="M 193.722129 189.103931 
L 192.531743 189.870037 
L 193.837729 192.099423 
z
" style="stroke:#000000;"/>
    <path clip-path="url(#pe6bd19d42b)" d="M 191.3071 182.123293 
L 190.459885 179.645591 
L 190.954242 179.650724 
z
" style="stroke:#000000;"/>
    <path clip-path="url(#pe6bd19d42b)" d="M 187.624452 158.309049 
L 190.570962 160.881912 
L 187.133852 158.329865 
z
" style="stroke:#000000;"/>
    <path clip-path="url(#pe6bd19d42b)" d="M 190.570962 160.881912 
L 187.624452 168.494079 
L 187.133852 168.502509 
z
" style="stroke:#000000;"/>
    <path clip-path="url(#pe6bd19d42b)" d="M 183.69254 160.864129 
L 187.133852 165.959348 
L 187.133852 168.502509 
z
" style="stroke:#000000;"/>
    <path clip-path="url(#pe6bd19d42b)" d="M 190.836176 177.150369 
L 190.459885 174.650887 
L 190.954242 174.649942 
z
" style="stroke:#000000;"/>
    <path clip-path="url(#pe6bd19d42b)" d="M 190.954242 179.650724 
L 190.341952 177.148275 
L 190.836176 177.150369 
z
" style="stroke:#000000;"/>
    <path clip-path="url(#pe6bd19d42b)" d="M 191.442651 166.800664 
L 190.088728 169.293683 
L 190.582665 169.286219 
z
" style="stroke:#000000;"/>
    <path clip-path="url(#pe6bd19d42b)" d="M 193.722129 165.19504 
L 192.531743 164.429663 
L 192.698836 167.423409 
z
" style="stroke:#000000;"/>
    <path clip-path="url(#pe6bd19d42b)" d="M 192.531743 189.870037 
L 193.722129 189.103931 
L 192.698836 186.876189 
z
" style="stroke:#000000;"/>
    <path clip-path="url(#pe6bd19d42b)" d="M 189.961399 182.442404 
L 190.088728 185.003022 
L 190.582665 185.014675 
z
" style="stroke:#000000;"/>
    <path clip-path="url(#pe6bd19d42b)" d="M 187.133852 165.959348 
L 183.69254 160.864129 
L 184.840112 161.185121 
z
" style="stroke:#000000;"/>
    <path clip-path="url(#pe6bd19d42b)" d="M 187.133852 158.329865 
L 184.840112 161.185121 
L 183.69254 160.864129 
z
" style="stroke:#000000;"/>
    <path clip-path="url(#pe6bd19d42b)" d="M 190.582665 169.286219 
L 189.468162 171.863208 
L 189.961399 171.858871 
z
" style="stroke:#000000;"/>
    <path clip-path="url(#pe6bd19d42b)" d="M 191.442651 166.800664 
L 192.698836 167.423409 
L 192.531743 164.429663 
z
" style="stroke:#000000;"/>
    <path clip-path="url(#pe6bd19d42b)" d="M 192.698836 186.876189 
L 191.442651 187.499704 
L 192.531743 189.870037 
z
" style="stroke:#000000;"/>
    <path clip-path="url(#pe6bd19d42b)" d="M 190.570962 160.881912 
L 187.624452 158.309049 
L 191.065444 160.864214 
z
" style="stroke:#000000;"/>
    <path clip-path="url(#pe6bd19d42b)" d="M 187.624452 168.494079 
L 190.570962 160.881912 
L 191.065444 160.864214 
z
" style="stroke:#000000;"/>
    <path clip-path="url(#pe6bd19d42b)" d="M 183.922092 177.150239 
L 185.299009 177.149818 
L 185.173325 179.809108 
z
" style="stroke:#000000;"/>
    <path clip-path="url(#pe6bd19d42b)" d="M 185.299009 177.149818 
L 183.922092 177.150239 
L 185.173325 174.490605 
z
" style="stroke:#000000;"/>
    <path clip-path="url(#pe6bd19d42b)" d="M 189.585829 179.811387 
L 189.468162 182.433877 
L 189.961399 182.442404 
z
" style="stroke:#000000;"/>
    <path clip-path="url(#pe6bd19d42b)" d="M 192.698836 167.423409 
L 191.442651 166.800664 
L 191.890812 169.759386 
z
" style="stroke:#000000;"/>
    <path clip-path="url(#pe6bd19d42b)" d="M 191.442651 187.499704 
L 192.698836 186.876189 
L 191.890812 184.540707 
z
" style="stroke:#000000;"/>
    <path clip-path="url(#pe6bd19d42b)" d="M 189.961399 171.858871 
L 189.093015 174.491257 
L 189.585829 174.490118 
z
" style="stroke:#000000;"/>
    <path clip-path="url(#pe6bd19d42b)" d="M 183.803884 179.650582 
L 185.173325 179.809108 
L 184.797605 182.439692 
z
" style="stroke:#000000;"/>
    <path clip-path="url(#pe6bd19d42b)" d="M 185.173325 174.490605 
L 183.803884 174.649969 
L 184.797605 171.86025 
z
" style="stroke:#000000;"/>
    <path clip-path="url(#pe6bd19d42b)" d="M 189.460172 177.150791 
L 189.093015 179.806057 
L 189.585829 179.811387 
z
" style="stroke:#000000;"/>
    <path clip-path="url(#pe6bd19d42b)" d="M 189.585829 174.490118 
L 188.9675 177.148695 
L 189.460172 177.150791 
z
" style="stroke:#000000;"/>
    <path clip-path="url(#pe6bd19d42b)" d="M 183.803884 174.649969 
L 185.173325 174.490605 
L 183.922092 177.150239 
z
" style="stroke:#000000;"/>
    <path clip-path="url(#pe6bd19d42b)" d="M 185.173325 179.809108 
L 183.803884 179.650582 
L 183.922092 177.150239 
z
" style="stroke:#000000;"/>
    <path clip-path="url(#pe6bd19d42b)" d="M 183.450545 182.123908 
L 184.797605 182.439692 
L 184.175872 185.013086 
z
" style="stroke:#000000;"/>
    <path clip-path="url(#pe6bd19d42b)" d="M 184.797605 171.86025 
L 183.450545 172.176859 
L 184.175872 169.287237 
z
" style="stroke:#000000;"/>
    <path clip-path="url(#pe6bd19d42b)" d="M 187.624452 159.582178 
L 184.840112 161.185121 
L 187.133852 159.601446 
z
" style="stroke:#000000;"/>
    <path clip-path="url(#pe6bd19d42b)" d="M 184.840112 161.185121 
L 187.624452 165.947821 
L 187.133852 165.959348 
z
" style="stroke:#000000;"/>
    <path clip-path="url(#pe6bd19d42b)" d="M 184.797605 182.439692 
L 183.450545 182.123908 
L 183.803884 179.650582 
z
" style="stroke:#000000;"/>
    <path clip-path="url(#pe6bd19d42b)" d="M 183.450545 172.176859 
L 184.797605 171.86025 
L 183.803884 174.649969 
z
" style="stroke:#000000;"/>
    <path clip-path="url(#pe6bd19d42b)" d="M 190.582665 169.286219 
L 191.890812 169.759386 
L 191.442651 166.800664 
z
" style="stroke:#000000;"/>
    <path clip-path="url(#pe6bd19d42b)" d="M 191.890812 184.540707 
L 190.582665 185.014675 
L 191.442651 187.499704 
z
" style="stroke:#000000;"/>
    <path clip-path="url(#pe6bd19d42b)" d="M 191.890812 169.759386 
L 190.582665 169.286219 
L 191.3071 172.177157 
z
" style="stroke:#000000;"/>
    <path clip-path="url(#pe6bd19d42b)" d="M 190.582665 185.014675 
L 191.890812 184.540707 
L 191.3071 182.123293 
z
" style="stroke:#000000;"/>
    <path clip-path="url(#pe6bd19d42b)" d="M 184.175872 185.013086 
L 182.865843 184.543435 
L 183.450545 182.123908 
z
" style="stroke:#000000;"/>
    <path clip-path="url(#pe6bd19d42b)" d="M 182.865843 169.757689 
L 184.175872 169.287237 
L 183.450545 172.176859 
z
" style="stroke:#000000;"/>
    <path clip-path="url(#pe6bd19d42b)" d="M 182.865843 184.543435 
L 184.175872 185.013086 
L 183.314786 187.501393 
z
" style="stroke:#000000;"/>
    <path clip-path="url(#pe6bd19d42b)" d="M 184.175872 169.287237 
L 182.865843 169.757689 
L 183.314786 166.799456 
z
" style="stroke:#000000;"/>
    <path clip-path="url(#pe6bd19d42b)" d="M 191.3071 172.177157 
L 189.961399 171.858871 
L 190.954242 174.649942 
z
" style="stroke:#000000;"/>
    <path clip-path="url(#pe6bd19d42b)" d="M 189.961399 182.442404 
L 191.3071 182.123293 
L 190.954242 179.650724 
z
" style="stroke:#000000;"/>
    <path clip-path="url(#pe6bd19d42b)" d="M 187.133852 159.601446 
L 189.918914 161.179399 
L 187.624452 159.582178 
z
" style="stroke:#000000;"/>
    <path clip-path="url(#pe6bd19d42b)" d="M 189.918914 161.179399 
L 187.133852 165.959348 
L 187.624452 165.947821 
z
" style="stroke:#000000;"/>
    <path clip-path="url(#pe6bd19d42b)" d="M 189.961399 171.858871 
L 191.3071 172.177157 
L 190.582665 169.286219 
z
" style="stroke:#000000;"/>
    <path clip-path="url(#pe6bd19d42b)" d="M 191.3071 182.123293 
L 189.961399 182.442404 
L 190.582665 185.014675 
z
" style="stroke:#000000;"/>
    <path clip-path="url(#pe6bd19d42b)" d="M 189.585829 179.811387 
L 190.954242 179.650724 
L 190.836176 177.150369 
z
" style="stroke:#000000;"/>
    <path clip-path="url(#pe6bd19d42b)" d="M 190.954242 174.649942 
L 189.585829 174.490118 
L 190.836176 177.150369 
z
" style="stroke:#000000;"/>
    <path clip-path="url(#pe6bd19d42b)" d="M 185.173325 174.490605 
L 185.787535 177.151916 
L 185.299009 177.149818 
z
" style="stroke:#000000;"/>
    <path clip-path="url(#pe6bd19d42b)" d="M 185.299009 177.149818 
L 185.661708 179.814445 
L 185.173325 179.809108 
z
" style="stroke:#000000;"/>
    <path clip-path="url(#pe6bd19d42b)" d="M 189.585829 174.490118 
L 190.954242 174.649942 
L 189.961399 171.858871 
z
" style="stroke:#000000;"/>
    <path clip-path="url(#pe6bd19d42b)" d="M 190.954242 179.650724 
L 189.585829 179.811387 
L 189.961399 182.442404 
z
" style="stroke:#000000;"/>
    <path clip-path="url(#pe6bd19d42b)" d="M 184.797605 171.86025 
L 185.661708 174.489465 
L 185.173325 174.490605 
z
" style="stroke:#000000;"/>
    <path clip-path="url(#pe6bd19d42b)" d="M 183.314786 187.501393 
L 182.056048 186.882908 
L 182.865843 184.543435 
z
" style="stroke:#000000;"/>
    <path clip-path="url(#pe6bd19d42b)" d="M 182.056048 167.418711 
L 183.314786 166.799456 
L 182.865843 169.757689 
z
" style="stroke:#000000;"/>
    <path clip-path="url(#pe6bd19d42b)" d="M 185.173325 179.809108 
L 185.285563 182.448234 
L 184.797605 182.439692 
z
" style="stroke:#000000;"/>
    <path clip-path="url(#pe6bd19d42b)" d="M 189.460172 177.150791 
L 190.836176 177.150369 
L 189.585829 174.490118 
z
" style="stroke:#000000;"/>
    <path clip-path="url(#pe6bd19d42b)" d="M 190.836176 177.150369 
L 189.460172 177.150791 
L 189.585829 179.811387 
z
" style="stroke:#000000;"/>
    <path clip-path="url(#pe6bd19d42b)" d="M 184.179248 160.846388 
L 187.133852 158.329865 
L 183.69254 160.864129 
z
" style="stroke:#000000;"/>
    <path clip-path="url(#pe6bd19d42b)" d="M 187.133852 168.502509 
L 184.179248 160.846388 
L 183.69254 160.864129 
z
" style="stroke:#000000;"/>
    <path clip-path="url(#pe6bd19d42b)" d="M 182.056048 186.882908 
L 183.314786 187.501393 
L 182.223545 189.877655 
z
" style="stroke:#000000;"/>
    <path clip-path="url(#pe6bd19d42b)" d="M 183.314786 166.799456 
L 182.056048 167.418711 
L 182.223545 164.423862 
z
" style="stroke:#000000;"/>
    <path clip-path="url(#pe6bd19d42b)" d="M 184.175872 169.287237 
L 185.285563 171.855906 
L 184.797605 171.86025 
z
" style="stroke:#000000;"/>
    <path clip-path="url(#pe6bd19d42b)" d="M 187.624452 158.309049 
L 189.918914 161.179399 
L 191.065444 160.864214 
z
" style="stroke:#000000;"/>
    <path clip-path="url(#pe6bd19d42b)" d="M 187.624452 165.947821 
L 191.065444 160.864214 
L 189.918914 161.179399 
z
" style="stroke:#000000;"/>
    <path clip-path="url(#pe6bd19d42b)" d="M 184.797605 182.439692 
L 184.663127 185.024763 
L 184.175872 185.013086 
z
" style="stroke:#000000;"/>
    <path clip-path="url(#pe6bd19d42b)" d="M 182.223545 189.877655 
L 181.029844 189.116941 
L 182.056048 186.882908 
z
" style="stroke:#000000;"/>
    <path clip-path="url(#pe6bd19d42b)" d="M 181.029844 165.185307 
L 182.223545 164.423862 
L 182.056048 167.418711 
z
" style="stroke:#000000;"/>
    <path clip-path="url(#pe6bd19d42b)" d="M 183.314786 166.799456 
L 184.663127 169.279758 
L 184.175872 169.287237 
z
" style="stroke:#000000;"/>
    <path clip-path="url(#pe6bd19d42b)" d="M 183.803884 179.650582 
L 184.40906 177.152338 
L 183.922092 177.150239 
z
" style="stroke:#000000;"/>
    <path clip-path="url(#pe6bd19d42b)" d="M 183.922092 177.150239 
L 184.290718 174.649022 
L 183.803884 174.649969 
z
" style="stroke:#000000;"/>
    <path clip-path="url(#pe6bd19d42b)" d="M 187.624452 165.947821 
L 187.624452 168.494079 
L 191.065444 160.864214 
z
" style="stroke:#000000;"/>
    <path clip-path="url(#pe6bd19d42b)" d="M 187.133852 158.329865 
L 184.179248 160.846388 
L 187.624452 158.309049 
z
" style="stroke:#000000;"/>
    <path clip-path="url(#pe6bd19d42b)" d="M 184.179248 160.846388 
L 187.133852 168.502509 
L 187.624452 168.494079 
z
" style="stroke:#000000;"/>
    <path clip-path="url(#pe6bd19d42b)" d="M 183.450545 182.123908 
L 184.290718 179.655727 
L 183.803884 179.650582 
z
" style="stroke:#000000;"/>
    <path clip-path="url(#pe6bd19d42b)" d="M 180.913867 192.115969 
L 181.029844 189.116941 
L 182.223545 189.877655 
z
" style="stroke:#000000;"/>
    <path clip-path="url(#pe6bd19d42b)" d="M 181.029844 165.185307 
L 180.913867 162.186349 
L 182.223545 164.423862 
z
" style="stroke:#000000;"/>
    <path clip-path="url(#pe6bd19d42b)" d="M 184.175872 185.013086 
L 183.801067 187.516104 
L 183.314786 187.501393 
z
" style="stroke:#000000;"/>
    <path clip-path="url(#pe6bd19d42b)" d="M 183.803884 174.649969 
L 183.936979 172.172899 
L 183.450545 172.176859 
z
" style="stroke:#000000;"/>
    <path clip-path="url(#pe6bd19d42b)" d="M 187.624452 158.309049 
L 187.624452 159.582178 
L 189.918914 161.179399 
z
" style="stroke:#000000;"/>
    <path clip-path="url(#pe6bd19d42b)" d="M 184.840112 161.185121 
L 187.624452 159.582178 
L 185.328118 161.167774 
z
" style="stroke:#000000;"/>
    <path clip-path="url(#pe6bd19d42b)" d="M 187.624452 165.947821 
L 184.840112 161.185121 
L 185.328118 161.167774 
z
" style="stroke:#000000;"/>
    <path clip-path="url(#pe6bd19d42b)" d="M 182.865843 184.543435 
L 183.936979 182.132067 
L 183.450545 182.123908 
z
" style="stroke:#000000;"/>
    <path clip-path="url(#pe6bd19d42b)" d="M 183.450545 172.176859 
L 183.351616 169.750782 
L 182.865843 169.757689 
z
" style="stroke:#000000;"/>
    <path clip-path="url(#pe6bd19d42b)" d="M 185.661708 179.814445 
L 185.299009 177.149818 
L 185.787535 177.151916 
z
" style="stroke:#000000;"/>
    <path clip-path="url(#pe6bd19d42b)" d="M 182.223545 164.423862 
L 183.801067 166.788945 
L 183.314786 166.799456 
z
" style="stroke:#000000;"/>
    <path clip-path="url(#pe6bd19d42b)" d="M 185.787535 177.151916 
L 185.173325 174.490605 
L 185.661708 174.489465 
z
" style="stroke:#000000;"/>
    <path clip-path="url(#pe6bd19d42b)" d="M 180.913867 192.115969 
L 179.798239 191.221284 
L 181.029844 189.116941 
z
" style="stroke:#000000;"/>
    <path clip-path="url(#pe6bd19d42b)" d="M 179.798239 163.081718 
L 180.913867 162.186349 
L 181.029844 165.185307 
z
" style="stroke:#000000;"/>
    <path clip-path="url(#pe6bd19d42b)" d="M 185.285563 182.448234 
L 185.173325 179.809108 
L 185.661708 179.814445 
z
" style="stroke:#000000;"/>
    <path clip-path="url(#pe6bd19d42b)" d="M 185.661708 174.489465 
L 184.797605 171.86025 
L 185.285563 171.855906 
z
" style="stroke:#000000;"/>
    <path clip-path="url(#pe6bd19d42b)" d="M 182.056048 186.882908 
L 183.351616 184.554543 
L 182.865843 184.543435 
z
" style="stroke:#000000;"/>
    <path clip-path="url(#pe6bd19d42b)" d="M 183.314786 187.501393 
L 182.70859 189.895264 
L 182.223545 189.877655 
z
" style="stroke:#000000;"/>
    <path clip-path="url(#pe6bd19d42b)" d="M 179.399804 194.192106 
L 179.798239 191.221284 
L 180.913867 192.115969 
z
" style="stroke:#000000;"/>
    <path clip-path="url(#pe6bd19d42b)" d="M 179.798239 163.081718 
L 179.399804 160.111139 
L 180.913867 162.186349 
z
" style="stroke:#000000;"/>
    <path clip-path="url(#pe6bd19d42b)" d="M 182.865843 169.757689 
L 182.540903 167.408953 
L 182.056048 167.418711 
z
" style="stroke:#000000;"/>
    <path clip-path="url(#pe6bd19d42b)" d="M 184.663127 185.024763 
L 184.797605 182.439692 
L 185.285563 182.448234 
z
" style="stroke:#000000;"/>
    <path clip-path="url(#pe6bd19d42b)" d="M 185.285563 171.855906 
L 184.175872 169.287237 
L 184.663127 169.279758 
z
" style="stroke:#000000;"/>
    <path clip-path="url(#pe6bd19d42b)" d="M 187.624452 158.309049 
L 185.328118 161.167774 
L 187.624452 159.582178 
z
" style="stroke:#000000;"/>
    <path clip-path="url(#pe6bd19d42b)" d="M 180.913867 162.186349 
L 182.70859 164.410454 
L 182.223545 164.423862 
z
" style="stroke:#000000;"/>
    <path clip-path="url(#pe6bd19d42b)" d="M 181.029844 189.116941 
L 182.540903 186.896868 
L 182.056048 186.882908 
z
" style="stroke:#000000;"/>
    <path clip-path="url(#pe6bd19d42b)" d="M 183.801067 187.516104 
L 184.175872 185.013086 
L 184.663127 185.024763 
z
" style="stroke:#000000;"/>
    <path clip-path="url(#pe6bd19d42b)" d="M 184.290718 174.649022 
L 183.922092 177.150239 
L 184.40906 177.152338 
z
" style="stroke:#000000;"/>
    <path clip-path="url(#pe6bd19d42b)" d="M 184.40906 177.152338 
L 183.803884 179.650582 
L 184.290718 179.655727 
z
" style="stroke:#000000;"/>
    <path clip-path="url(#pe6bd19d42b)" d="M 179.399804 194.192106 
L 178.374471 193.172902 
L 179.798239 191.221284 
z
" style="stroke:#000000;"/>
    <path clip-path="url(#pe6bd19d42b)" d="M 178.374471 161.130971 
L 179.399804 160.111139 
L 179.798239 163.081718 
z
" style="stroke:#000000;"/>
    <path clip-path="url(#pe6bd19d42b)" d="M 187.624452 165.947821 
L 184.179248 160.846388 
L 187.624452 168.494079 
z
" style="stroke:#000000;"/>
    <path clip-path="url(#pe6bd19d42b)" d="M 183.936979 172.172899 
L 183.803884 174.649969 
L 184.290718 174.649022 
z
" style="stroke:#000000;"/>
    <path clip-path="url(#pe6bd19d42b)" d="M 182.056048 167.418711 
L 181.513536 165.172824 
L 181.029844 165.185307 
z
" style="stroke:#000000;"/>
    <path clip-path="url(#pe6bd19d42b)" d="M 182.223545 189.877655 
L 181.397429 192.13631 
L 180.913867 192.115969 
z
" style="stroke:#000000;"/>
    <path clip-path="url(#pe6bd19d42b)" d="M 184.663127 169.279758 
L 183.314786 166.799456 
L 183.801067 166.788945 
z
" style="stroke:#000000;"/>
    <path clip-path="url(#pe6bd19d42b)" d="M 184.290718 179.655727 
L 183.450545 182.123908 
L 183.936979 182.132067 
z
" style="stroke:#000000;"/>
    <path clip-path="url(#pe6bd19d42b)" d="M 183.351616 169.750782 
L 183.450545 172.176859 
L 183.936979 172.172899 
z
" style="stroke:#000000;"/>
    <path clip-path="url(#pe6bd19d42b)" d="M 177.947661 194.800346 
L 179.399804 194.192106 
L 178.54884 195.137546 
z
" style="stroke:#000000;"/>
    <path clip-path="url(#pe6bd19d42b)" d="M 179.399804 160.111139 
L 177.947661 159.503788 
L 178.54884 159.16622 
z
" style="stroke:#000000;"/>
    <path clip-path="url(#pe6bd19d42b)" d="M 179.399804 194.192106 
L 177.947661 194.800346 
L 178.374471 193.172902 
z
" style="stroke:#000000;"/>
    <path clip-path="url(#pe6bd19d42b)" d="M 177.947661 159.503788 
L 179.399804 160.111139 
L 178.374471 161.130971 
z
" style="stroke:#000000;"/>
    <path clip-path="url(#pe6bd19d42b)" d="M 183.936979 182.132067 
L 182.865843 184.543435 
L 183.351616 184.554543 
z
" style="stroke:#000000;"/>
    <path clip-path="url(#pe6bd19d42b)" d="M 182.70859 189.895264 
L 183.314786 187.501393 
L 183.801067 187.516104 
z
" style="stroke:#000000;"/>
    <path clip-path="url(#pe6bd19d42b)" d="M 185.328118 161.167774 
L 187.624452 158.309049 
L 184.179248 160.846388 
z
" style="stroke:#000000;"/>
    <path clip-path="url(#pe6bd19d42b)" d="M 184.179248 160.846388 
L 187.624452 165.947821 
L 185.328118 161.167774 
z
" style="stroke:#000000;"/>
    <path clip-path="url(#pe6bd19d42b)" d="M 179.798239 191.221284 
L 181.513536 189.133626 
L 181.029844 189.116941 
z
" style="stroke:#000000;"/>
    <path clip-path="url(#pe6bd19d42b)" d="M 179.399804 160.111139 
L 181.397429 162.170211 
L 180.913867 162.186349 
z
" style="stroke:#000000;"/>
    <path clip-path="url(#pe6bd19d42b)" d="M 182.540903 167.408953 
L 182.865843 169.757689 
L 183.351616 169.750782 
z
" style="stroke:#000000;"/>
    <path clip-path="url(#pe6bd19d42b)" d="M 183.801067 166.788945 
L 182.223545 164.423862 
L 182.70859 164.410454 
z
" style="stroke:#000000;"/>
    <path clip-path="url(#pe6bd19d42b)" d="M 184.40906 177.152338 
L 185.787535 177.151916 
L 185.661708 174.489465 
z
" style="stroke:#000000;"/>
    <path clip-path="url(#pe6bd19d42b)" d="M 185.787535 177.151916 
L 184.40906 177.152338 
L 185.661708 179.814445 
z
" style="stroke:#000000;"/>
    <path clip-path="url(#pe6bd19d42b)" d="M 181.029844 165.185307 
L 180.280537 163.066668 
L 179.798239 163.081718 
z
" style="stroke:#000000;"/>
    <path clip-path="url(#pe6bd19d42b)" d="M 178.374471 193.172902 
L 177.947661 194.800346 
L 177.316113 194.348331 
z
" style="stroke:#000000;"/>
    <path clip-path="url(#pe6bd19d42b)" d="M 177.947661 159.503788 
L 178.374471 161.130971 
L 177.316113 159.956189 
z
" style="stroke:#000000;"/>
    <path clip-path="url(#pe6bd19d42b)" d="M 183.351616 184.554543 
L 182.056048 186.882908 
L 182.540903 186.896868 
z
" style="stroke:#000000;"/>
    <path clip-path="url(#pe6bd19d42b)" d="M 184.290718 174.649022 
L 185.661708 174.489465 
L 185.285563 171.855906 
z
" style="stroke:#000000;"/>
    <path clip-path="url(#pe6bd19d42b)" d="M 185.661708 179.814445 
L 184.290718 179.655727 
L 185.285563 182.448234 
z
" style="stroke:#000000;"/>
    <path clip-path="url(#pe6bd19d42b)" d="M 180.913867 192.115969 
L 179.88165 194.214983 
L 179.399804 194.192106 
z
" style="stroke:#000000;"/>
    <path clip-path="url(#pe6bd19d42b)" d="M 184.290718 179.655727 
L 185.661708 179.814445 
L 184.40906 177.152338 
z
" style="stroke:#000000;"/>
    <path clip-path="url(#pe6bd19d42b)" d="M 185.661708 174.489465 
L 184.290718 174.649022 
L 184.40906 177.152338 
z
" style="stroke:#000000;"/>
    <path clip-path="url(#pe6bd19d42b)" d="M 183.936979 172.172899 
L 185.285563 171.855906 
L 184.663127 169.279758 
z
" style="stroke:#000000;"/>
    <path clip-path="url(#pe6bd19d42b)" d="M 185.285563 182.448234 
L 183.936979 182.132067 
L 184.663127 185.024763 
z
" style="stroke:#000000;"/>
    <path clip-path="url(#pe6bd19d42b)" d="M 181.397429 192.13631 
L 182.223545 189.877655 
L 182.70859 189.895264 
z
" style="stroke:#000000;"/>
    <path clip-path="url(#pe6bd19d42b)" d="M 185.285563 171.855906 
L 183.936979 172.172899 
L 184.290718 174.649022 
z
" style="stroke:#000000;"/>
    <path clip-path="url(#pe6bd19d42b)" d="M 183.936979 182.132067 
L 185.285563 182.448234 
L 184.290718 179.655727 
z
" style="stroke:#000000;"/>
    <path clip-path="url(#pe6bd19d42b)" d="M 181.513536 165.172824 
L 182.056048 167.418711 
L 182.540903 167.408953 
z
" style="stroke:#000000;"/>
    <path clip-path="url(#pe6bd19d42b)" d="M 178.374471 193.172902 
L 180.280537 191.240538 
L 179.798239 191.221284 
z
" style="stroke:#000000;"/>
    <path clip-path="url(#pe6bd19d42b)" d="M 178.54884 159.16622 
L 179.88165 160.092467 
L 179.399804 160.111139 
z
" style="stroke:#000000;"/>
    <path clip-path="url(#pe6bd19d42b)" d="M 182.540903 186.896868 
L 181.029844 189.116941 
L 181.513536 189.133626 
z
" style="stroke:#000000;"/>
    <path clip-path="url(#pe6bd19d42b)" d="M 182.70859 164.410454 
L 180.913867 162.186349 
L 181.397429 162.170211 
z
" style="stroke:#000000;"/>
    <path clip-path="url(#pe6bd19d42b)" d="M 184.663127 169.279758 
L 183.351616 169.750782 
L 183.936979 172.172899 
z
" style="stroke:#000000;"/>
    <path clip-path="url(#pe6bd19d42b)" d="M 183.351616 184.554543 
L 184.663127 185.024763 
L 183.936979 182.132067 
z
" style="stroke:#000000;"/>
    <path clip-path="url(#pe6bd19d42b)" d="M 183.351616 169.750782 
L 184.663127 169.279758 
L 183.801067 166.788945 
z
" style="stroke:#000000;"/>
    <path clip-path="url(#pe6bd19d42b)" d="M 184.663127 185.024763 
L 183.351616 184.554543 
L 183.801067 187.516104 
z
" style="stroke:#000000;"/>
    <path clip-path="url(#pe6bd19d42b)" d="M 179.798239 163.081718 
L 178.855155 161.113538 
L 178.374471 161.130971 
z
" style="stroke:#000000;"/>
    <path clip-path="url(#pe6bd19d42b)" d="M 179.399804 194.192106 
L 179.02972 195.16158 
L 178.54884 195.137546 
z
" style="stroke:#000000;"/>
    <path clip-path="url(#pe6bd19d42b)" d="M 179.02972 195.16158 
L 177.947661 194.800346 
L 178.54884 195.137546 
z
" style="stroke:#000000;"/>
    <path clip-path="url(#pe6bd19d42b)" d="M 180.280537 163.066668 
L 181.029844 165.185307 
L 181.513536 165.172824 
z
" style="stroke:#000000;"/>
    <path clip-path="url(#pe6bd19d42b)" d="M 183.801067 166.788945 
L 182.540903 167.408953 
L 183.351616 169.750782 
z
" style="stroke:#000000;"/>
    <path clip-path="url(#pe6bd19d42b)" d="M 182.540903 186.896868 
L 183.801067 187.516104 
L 183.351616 184.554543 
z
" style="stroke:#000000;"/>
    <path clip-path="url(#pe6bd19d42b)" d="M 178.42786 159.48437 
L 178.54884 159.16622 
L 177.947661 159.503788 
z
" style="stroke:#000000;"/>
    <path clip-path="url(#pe6bd19d42b)" d="M 179.88165 194.214983 
L 180.913867 192.115969 
L 181.397429 192.13631 
z
" style="stroke:#000000;"/>
    <path clip-path="url(#pe6bd19d42b)" d="M 178.855155 161.113538 
L 177.316113 159.956189 
L 178.374471 161.130971 
z
" style="stroke:#000000;"/>
    <path clip-path="url(#pe6bd19d42b)" d="M 182.540903 167.408953 
L 183.801067 166.788945 
L 182.70859 164.410454 
z
" style="stroke:#000000;"/>
    <path clip-path="url(#pe6bd19d42b)" d="M 183.801067 187.516104 
L 182.540903 186.896868 
L 182.70859 189.895264 
z
" style="stroke:#000000;"/>
    <path clip-path="url(#pe6bd19d42b)" d="M 181.513536 189.133626 
L 179.798239 191.221284 
L 180.280537 191.240538 
z
" style="stroke:#000000;"/>
    <path clip-path="url(#pe6bd19d42b)" d="M 178.42786 194.823971 
L 177.316113 194.348331 
L 177.947661 194.800346 
z
" style="stroke:#000000;"/>
    <path clip-path="url(#pe6bd19d42b)" d="M 177.795596 194.371407 
L 178.374471 193.172902 
L 177.316113 194.348331 
z
" style="stroke:#000000;"/>
    <path clip-path="url(#pe6bd19d42b)" d="M 181.397429 162.170211 
L 179.399804 160.111139 
L 179.88165 160.092467 
z
" style="stroke:#000000;"/>
    <path clip-path="url(#pe6bd19d42b)" d="M 177.795596 159.937321 
L 177.947661 159.503788 
L 177.316113 159.956189 
z
" style="stroke:#000000;"/>
    <path clip-path="url(#pe6bd19d42b)" d="M 182.70859 164.410454 
L 181.513536 165.172824 
L 182.540903 167.408953 
z
" style="stroke:#000000;"/>
    <path clip-path="url(#pe6bd19d42b)" d="M 181.513536 189.133626 
L 182.70859 189.895264 
L 182.540903 186.896868 
z
" style="stroke:#000000;"/>
    <path clip-path="url(#pe6bd19d42b)" d="M 178.855155 161.113538 
L 179.798239 163.081718 
L 180.280537 163.066668 
z
" style="stroke:#000000;"/>
    <path clip-path="url(#pe6bd19d42b)" d="M 179.02972 195.16158 
L 179.399804 194.192106 
L 179.88165 194.214983 
z
" style="stroke:#000000;"/>
    <path clip-path="url(#pe6bd19d42b)" d="M 181.397429 162.170211 
L 181.513536 165.172824 
L 182.70859 164.410454 
z
" style="stroke:#000000;"/>
    <path clip-path="url(#pe6bd19d42b)" d="M 181.513536 189.133626 
L 181.397429 192.13631 
L 182.70859 189.895264 
z
" style="stroke:#000000;"/>
    <path clip-path="url(#pe6bd19d42b)" d="M 180.280537 191.240538 
L 178.374471 193.172902 
L 178.855155 193.194541 
z
" style="stroke:#000000;"/>
    <path clip-path="url(#pe6bd19d42b)" d="M 179.88165 160.092467 
L 178.54884 159.16622 
L 179.02972 159.146392 
z
" style="stroke:#000000;"/>
    <path clip-path="url(#pe6bd19d42b)" d="M 178.54884 159.16622 
L 178.42786 159.48437 
L 179.02972 159.146392 
z
" style="stroke:#000000;"/>
    <path clip-path="url(#pe6bd19d42b)" d="M 181.397429 162.170211 
L 180.280537 163.066668 
L 181.513536 165.172824 
z
" style="stroke:#000000;"/>
    <path clip-path="url(#pe6bd19d42b)" d="M 180.280537 191.240538 
L 181.397429 192.13631 
L 181.513536 189.133626 
z
" style="stroke:#000000;"/>
    <path clip-path="url(#pe6bd19d42b)" d="M 177.947661 194.800346 
L 179.02972 195.16158 
L 178.42786 194.823971 
z
" style="stroke:#000000;"/>
    <path clip-path="url(#pe6bd19d42b)" d="M 178.374471 193.172902 
L 177.795596 194.371407 
L 178.855155 193.194541 
z
" style="stroke:#000000;"/>
    <path clip-path="url(#pe6bd19d42b)" d="M 179.88165 160.092467 
L 180.280537 163.066668 
L 181.397429 162.170211 
z
" style="stroke:#000000;"/>
    <path clip-path="url(#pe6bd19d42b)" d="M 180.280537 191.240538 
L 179.88165 194.214983 
L 181.397429 192.13631 
z
" style="stroke:#000000;"/>
    <path clip-path="url(#pe6bd19d42b)" d="M 177.947661 159.503788 
L 177.795596 159.937321 
L 178.42786 159.48437 
z
" style="stroke:#000000;"/>
    <path clip-path="url(#pe6bd19d42b)" d="M 177.316113 159.956189 
L 178.855155 161.113538 
L 177.795596 159.937321 
z
" style="stroke:#000000;"/>
    <path clip-path="url(#pe6bd19d42b)" d="M 177.316113 194.348331 
L 178.42786 194.823971 
L 177.795596 194.371407 
z
" style="stroke:#000000;"/>
    <path clip-path="url(#pe6bd19d42b)" d="M 179.88165 160.092467 
L 178.855155 161.113538 
L 180.280537 163.066668 
z
" style="stroke:#000000;"/>
    <path clip-path="url(#pe6bd19d42b)" d="M 178.855155 193.194541 
L 179.88165 194.214983 
L 180.280537 191.240538 
z
" style="stroke:#000000;"/>
    <path clip-path="url(#pe6bd19d42b)" d="M 178.42786 159.48437 
L 179.88165 160.092467 
L 179.02972 159.146392 
z
" style="stroke:#000000;"/>
    <path clip-path="url(#pe6bd19d42b)" d="M 179.88165 194.214983 
L 178.42786 194.823971 
L 179.02972 195.16158 
z
" style="stroke:#000000;"/>
    <path clip-path="url(#pe6bd19d42b)" d="M 179.88165 160.092467 
L 178.42786 159.48437 
L 178.855155 161.113538 
z
" style="stroke:#000000;"/>
    <path clip-path="url(#pe6bd19d42b)" d="M 178.42786 194.823971 
L 179.88165 194.214983 
L 178.855155 193.194541 
z
" style="stroke:#000000;"/>
    <path clip-path="url(#pe6bd19d42b)" d="M 178.855155 161.113538 
L 178.42786 159.48437 
L 177.795596 159.937321 
z
" style="stroke:#000000;"/>
    <path clip-path="url(#pe6bd19d42b)" d="M 178.42786 194.823971 
L 178.855155 193.194541 
L 177.795596 194.371407 
z
" style="stroke:#000000;"/>
   </g>
  </g>
 </g>
 <defs>
  <clipPath id="pe6bd19d42b">
   <rect height="271.8" width="279" x="45" y="43.2"/>
  </clipPath>
 </defs>
</svg>
