<?xml version="1.0" encoding="utf-8" standalone="no"?>
<!DOCTYPE svg PUBLIC "-//W3C//DTD SVG 1.1//EN"
  "http://www.w3.org/Graphics/SVG/1.1/DTD/svg11.dtd">
<!-- Created with matplotlib (https://matplotlib.org/) -->
<svg height="360pt" version="1.1" viewBox="0 0 360 360" width="360pt" xmlns="http://www.w3.org/2000/svg" xmlns:xlink="http://www.w3.org/1999/xlink">
 <defs>
  <style type="text/css">
*{stroke-linecap:butt;stroke-linejoin:round;}
  </style>
 </defs>
 <g id="figure_1">
  <g id="patch_1">
   <path d="M 45 315 
L 324 315 
L 324 43.2 
L 45 43.2 
z
" style="fill:#ffffff;"/>
  </g>
  <g id="axes_1">
   <g id="Poly3DCollection_1">
    <path clip-path="url(#p868d86707a)" d="M 181.594667 193.024026 
L 181.377719 194.63154 
L 181.056964 194.174399 
z
" style="stroke:#000000;"/>
    <path clip-path="url(#p868d86707a)" d="M 181.377719 159.642532 
L 181.594667 161.250905 
L 181.056964 160.098403 
z
" style="stroke:#000000;"/>
    <path clip-path="url(#p868d86707a)" d="M 179.4195 160.088821 
L 181.377719 159.642532 
L 181.056964 160.098403 
z
" style="stroke:#000000;"/>
    <path clip-path="url(#p868d86707a)" d="M 179.4195 194.186118 
L 181.594667 193.024026 
L 181.056964 194.174399 
z
" style="stroke:#000000;"/>
    <path clip-path="url(#p868d86707a)" d="M 179.739848 194.64355 
L 181.056964 194.174399 
L 181.377719 194.63154 
z
" style="stroke:#000000;"/>
    <path clip-path="url(#p868d86707a)" d="M 181.056964 194.174399 
L 179.739848 194.64355 
L 179.4195 194.186118 
z
" style="stroke:#000000;"/>
    <path clip-path="url(#p868d86707a)" d="M 179.956519 161.242037 
L 181.056964 160.098403 
L 181.594667 161.250905 
z
" style="stroke:#000000;"/>
    <path clip-path="url(#p868d86707a)" d="M 181.056964 160.098403 
L 179.956519 161.242037 
L 179.4195 160.088821 
z
" style="stroke:#000000;"/>
    <path clip-path="url(#p868d86707a)" d="M 181.377719 159.642532 
L 179.4195 160.088821 
L 179.739848 159.632661 
z
" style="stroke:#000000;"/>
    <path clip-path="url(#p868d86707a)" d="M 179.739848 159.632661 
L 181.683339 159.300483 
L 181.377719 159.642532 
z
" style="stroke:#000000;"/>
    <path clip-path="url(#p868d86707a)" d="M 182.116424 194.049303 
L 181.377719 194.63154 
L 181.594667 193.024026 
z
" style="stroke:#000000;"/>
    <path clip-path="url(#p868d86707a)" d="M 181.377719 159.642532 
L 182.116424 160.227694 
L 181.594667 161.250905 
z
" style="stroke:#000000;"/>
    <path clip-path="url(#p868d86707a)" d="M 181.377719 194.63154 
L 182.116424 194.049303 
L 181.683339 194.974799 
z
" style="stroke:#000000;"/>
    <path clip-path="url(#p868d86707a)" d="M 182.116424 160.227694 
L 181.377719 159.642532 
L 181.683339 159.300483 
z
" style="stroke:#000000;"/>
    <path clip-path="url(#p868d86707a)" d="M 180.045079 194.987028 
L 181.377719 194.63154 
L 181.683339 194.974799 
z
" style="stroke:#000000;"/>
    <path clip-path="url(#p868d86707a)" d="M 181.594667 193.024026 
L 179.4195 194.186118 
L 179.956519 193.035034 
z
" style="stroke:#000000;"/>
    <path clip-path="url(#p868d86707a)" d="M 181.377719 194.63154 
L 180.045079 194.987028 
L 179.739848 194.64355 
z
" style="stroke:#000000;"/>
    <path clip-path="url(#p868d86707a)" d="M 179.956519 161.242037 
L 179.739848 159.632661 
L 179.4195 160.088821 
z
" style="stroke:#000000;"/>
    <path clip-path="url(#p868d86707a)" d="M 179.739848 194.64355 
L 179.956519 193.035034 
L 179.4195 194.186118 
z
" style="stroke:#000000;"/>
    <path clip-path="url(#p868d86707a)" d="M 181.683339 159.300483 
L 179.739848 159.632661 
L 180.045079 159.290394 
z
" style="stroke:#000000;"/>
    <path clip-path="url(#p868d86707a)" d="M 182.116424 194.049303 
L 180.045079 194.987028 
L 181.683339 194.974799 
z
" style="stroke:#000000;"/>
    <path clip-path="url(#p868d86707a)" d="M 182.116424 194.049303 
L 181.594667 193.024026 
L 182.319395 191.105877 
z
" style="stroke:#000000;"/>
    <path clip-path="url(#p868d86707a)" d="M 181.594667 161.250905 
L 182.116424 160.227694 
L 182.319395 163.171924 
z
" style="stroke:#000000;"/>
    <path clip-path="url(#p868d86707a)" d="M 182.319395 163.171924 
L 179.956519 161.242037 
L 181.594667 161.250905 
z
" style="stroke:#000000;"/>
    <path clip-path="url(#p868d86707a)" d="M 181.683339 159.300483 
L 180.477613 160.21818 
L 182.116424 160.227694 
z
" style="stroke:#000000;"/>
    <path clip-path="url(#p868d86707a)" d="M 180.477613 160.21818 
L 181.683339 159.300483 
L 180.045079 159.290394 
z
" style="stroke:#000000;"/>
    <path clip-path="url(#p868d86707a)" d="M 180.680326 191.115693 
L 181.594667 193.024026 
L 179.956519 193.035034 
z
" style="stroke:#000000;"/>
    <path clip-path="url(#p868d86707a)" d="M 180.477613 160.21818 
L 179.739848 159.632661 
L 179.956519 161.242037 
z
" style="stroke:#000000;"/>
    <path clip-path="url(#p868d86707a)" d="M 179.739848 194.64355 
L 180.477613 194.060959 
L 179.956519 193.035034 
z
" style="stroke:#000000;"/>
    <path clip-path="url(#p868d86707a)" d="M 181.594667 193.024026 
L 180.680326 191.115693 
L 182.319395 191.105877 
z
" style="stroke:#000000;"/>
    <path clip-path="url(#p868d86707a)" d="M 179.739848 159.632661 
L 180.477613 160.21818 
L 180.045079 159.290394 
z
" style="stroke:#000000;"/>
    <path clip-path="url(#p868d86707a)" d="M 180.477613 194.060959 
L 179.739848 194.64355 
L 180.045079 194.987028 
z
" style="stroke:#000000;"/>
    <path clip-path="url(#p868d86707a)" d="M 180.045079 194.987028 
L 182.116424 194.049303 
L 180.477613 194.060959 
z
" style="stroke:#000000;"/>
    <path clip-path="url(#p868d86707a)" d="M 179.956519 161.242037 
L 182.319395 163.171924 
L 180.680326 163.164251 
z
" style="stroke:#000000;"/>
    <path clip-path="url(#p868d86707a)" d="M 182.116424 194.049303 
L 182.319395 191.105877 
L 182.88838 192.008207 
z
" style="stroke:#000000;"/>
    <path clip-path="url(#p868d86707a)" d="M 182.319395 163.171924 
L 182.116424 160.227694 
L 182.88838 162.271846 
z
" style="stroke:#000000;"/>
    <path clip-path="url(#p868d86707a)" d="M 180.477613 160.21818 
L 179.956519 161.242037 
L 180.680326 163.164251 
z
" style="stroke:#000000;"/>
    <path clip-path="url(#p868d86707a)" d="M 179.956519 193.035034 
L 180.477613 194.060959 
L 180.680326 191.115693 
z
" style="stroke:#000000;"/>
    <path clip-path="url(#p868d86707a)" d="M 182.88838 192.008207 
L 180.477613 194.060959 
L 182.116424 194.049303 
z
" style="stroke:#000000;"/>
    <path clip-path="url(#p868d86707a)" d="M 182.947585 165.250533 
L 180.680326 163.164251 
L 182.319395 163.171924 
z
" style="stroke:#000000;"/>
    <path clip-path="url(#p868d86707a)" d="M 182.88838 192.008207 
L 182.319395 191.105877 
L 182.947585 189.029755 
z
" style="stroke:#000000;"/>
    <path clip-path="url(#p868d86707a)" d="M 182.319395 163.171924 
L 182.88838 162.271846 
L 182.947585 165.250533 
z
" style="stroke:#000000;"/>
    <path clip-path="url(#p868d86707a)" d="M 181.248588 162.263604 
L 182.116424 160.227694 
L 180.477613 160.21818 
z
" style="stroke:#000000;"/>
    <path clip-path="url(#p868d86707a)" d="M 182.116424 160.227694 
L 181.248588 162.263604 
L 182.88838 162.271846 
z
" style="stroke:#000000;"/>
    <path clip-path="url(#p868d86707a)" d="M 181.307718 189.038277 
L 182.319395 191.105877 
L 180.680326 191.115693 
z
" style="stroke:#000000;"/>
    <path clip-path="url(#p868d86707a)" d="M 182.319395 191.105877 
L 181.307718 189.038277 
L 182.947585 189.029755 
z
" style="stroke:#000000;"/>
    <path clip-path="url(#p868d86707a)" d="M 180.477613 160.21818 
L 180.680326 163.164251 
L 181.248588 162.263604 
z
" style="stroke:#000000;"/>
    <path clip-path="url(#p868d86707a)" d="M 180.680326 191.115693 
L 180.477613 194.060959 
L 181.248588 192.018595 
z
" style="stroke:#000000;"/>
    <path clip-path="url(#p868d86707a)" d="M 180.477613 194.060959 
L 182.88838 192.008207 
L 181.248588 192.018595 
z
" style="stroke:#000000;"/>
    <path clip-path="url(#p868d86707a)" d="M 180.680326 163.164251 
L 182.947585 165.250533 
L 181.307718 165.244157 
z
" style="stroke:#000000;"/>
    <path clip-path="url(#p868d86707a)" d="M 182.88838 192.008207 
L 182.947585 189.029755 
L 183.557577 189.798789 
z
" style="stroke:#000000;"/>
    <path clip-path="url(#p868d86707a)" d="M 182.947585 165.250533 
L 182.88838 162.271846 
L 183.557577 164.483913 
z
" style="stroke:#000000;"/>
    <path clip-path="url(#p868d86707a)" d="M 181.248588 162.263604 
L 180.680326 163.164251 
L 181.307718 165.244157 
z
" style="stroke:#000000;"/>
    <path clip-path="url(#p868d86707a)" d="M 180.680326 191.115693 
L 181.248588 192.018595 
L 181.307718 189.038277 
z
" style="stroke:#000000;"/>
    <path clip-path="url(#p868d86707a)" d="M 183.557577 189.798789 
L 181.248588 192.018595 
L 182.88838 192.008207 
z
" style="stroke:#000000;"/>
    <path clip-path="url(#p868d86707a)" d="M 183.471917 167.463442 
L 181.307718 165.244157 
L 182.947585 165.250533 
z
" style="stroke:#000000;"/>
    <path clip-path="url(#p868d86707a)" d="M 183.557577 189.798789 
L 182.947585 189.029755 
L 183.471917 186.818921 
z
" style="stroke:#000000;"/>
    <path clip-path="url(#p868d86707a)" d="M 182.947585 165.250533 
L 183.557577 164.483913 
L 183.471917 167.463442 
z
" style="stroke:#000000;"/>
    <path clip-path="url(#p868d86707a)" d="M 181.916936 164.477052 
L 182.88838 162.271846 
L 181.248588 162.263604 
z
" style="stroke:#000000;"/>
    <path clip-path="url(#p868d86707a)" d="M 182.947585 189.029755 
L 181.831385 186.826063 
L 183.471917 186.818921 
z
" style="stroke:#000000;"/>
    <path clip-path="url(#p868d86707a)" d="M 181.831385 186.826063 
L 182.947585 189.029755 
L 181.307718 189.038277 
z
" style="stroke:#000000;"/>
    <path clip-path="url(#p868d86707a)" d="M 182.88838 162.271846 
L 181.916936 164.477052 
L 183.557577 164.483913 
z
" style="stroke:#000000;"/>
    <path clip-path="url(#p868d86707a)" d="M 181.307718 165.244157 
L 183.471917 167.463442 
L 181.831385 167.45845 
z
" style="stroke:#000000;"/>
    <path clip-path="url(#p868d86707a)" d="M 181.248588 162.263604 
L 181.307718 165.244157 
L 181.916936 164.477052 
z
" style="stroke:#000000;"/>
    <path clip-path="url(#p868d86707a)" d="M 181.307718 189.038277 
L 181.248588 192.018595 
L 181.916936 189.8078 
z
" style="stroke:#000000;"/>
    <path clip-path="url(#p868d86707a)" d="M 181.248588 192.018595 
L 183.557577 189.798789 
L 181.916936 189.8078 
z
" style="stroke:#000000;"/>
    <path clip-path="url(#p868d86707a)" d="M 183.471917 186.818921 
L 184.11619 187.44557 
L 183.557577 189.798789 
z
" style="stroke:#000000;"/>
    <path clip-path="url(#p868d86707a)" d="M 184.11619 166.839344 
L 183.471917 167.463442 
L 183.557577 164.483913 
z
" style="stroke:#000000;"/>
    <path clip-path="url(#p868d86707a)" d="M 183.88626 169.785847 
L 181.831385 167.45845 
L 183.471917 167.463442 
z
" style="stroke:#000000;"/>
    <path clip-path="url(#p868d86707a)" d="M 184.11619 187.44557 
L 183.471917 186.818921 
L 183.88626 184.498157 
z
" style="stroke:#000000;"/>
    <path clip-path="url(#p868d86707a)" d="M 183.471917 167.463442 
L 184.11619 166.839344 
L 183.88626 169.785847 
z
" style="stroke:#000000;"/>
    <path clip-path="url(#p868d86707a)" d="M 181.916936 164.477052 
L 181.307718 165.244157 
L 181.831385 167.45845 
z
" style="stroke:#000000;"/>
    <path clip-path="url(#p868d86707a)" d="M 181.307718 189.038277 
L 181.916936 189.8078 
L 181.831385 186.826063 
z
" style="stroke:#000000;"/>
    <path clip-path="url(#p868d86707a)" d="M 184.11619 187.44557 
L 181.916936 189.8078 
L 183.557577 189.798789 
z
" style="stroke:#000000;"/>
    <path clip-path="url(#p868d86707a)" d="M 183.471917 186.818921 
L 182.245202 184.503846 
L 183.88626 184.498157 
z
" style="stroke:#000000;"/>
    <path clip-path="url(#p868d86707a)" d="M 182.245202 184.503846 
L 183.471917 186.818921 
L 181.831385 186.826063 
z
" style="stroke:#000000;"/>
    <path clip-path="url(#p868d86707a)" d="M 182.47484 166.833957 
L 183.557577 164.483913 
L 181.916936 164.477052 
z
" style="stroke:#000000;"/>
    <path clip-path="url(#p868d86707a)" d="M 181.831385 167.45845 
L 183.88626 169.785847 
L 182.245202 169.782309 
z
" style="stroke:#000000;"/>
    <path clip-path="url(#p868d86707a)" d="M 183.557577 164.483913 
L 182.47484 166.833957 
L 184.11619 166.839344 
z
" style="stroke:#000000;"/>
    <path clip-path="url(#p868d86707a)" d="M 184.185751 172.191548 
L 182.245202 169.782309 
L 183.88626 169.785847 
z
" style="stroke:#000000;"/>
    <path clip-path="url(#p868d86707a)" d="M 183.88626 184.498157 
L 184.557647 184.975087 
L 184.11619 187.44557 
z
" style="stroke:#000000;"/>
    <path clip-path="url(#p868d86707a)" d="M 184.557647 169.311575 
L 183.88626 169.785847 
L 184.11619 166.839344 
z
" style="stroke:#000000;"/>
    <path clip-path="url(#p868d86707a)" d="M 184.557647 184.975087 
L 183.88626 184.498157 
L 184.185751 182.093642 
z
" style="stroke:#000000;"/>
    <path clip-path="url(#p868d86707a)" d="M 183.88626 169.785847 
L 184.557647 169.311575 
L 184.185751 172.191548 
z
" style="stroke:#000000;"/>
    <path clip-path="url(#p868d86707a)" d="M 181.831385 167.45845 
L 182.47484 166.833957 
L 181.916936 164.477052 
z
" style="stroke:#000000;"/>
    <path clip-path="url(#p868d86707a)" d="M 182.47484 187.45311 
L 181.831385 186.826063 
L 181.916936 189.8078 
z
" style="stroke:#000000;"/>
    <path clip-path="url(#p868d86707a)" d="M 183.88626 184.498157 
L 182.544314 182.097825 
L 184.185751 182.093642 
z
" style="stroke:#000000;"/>
    <path clip-path="url(#p868d86707a)" d="M 181.916936 189.8078 
L 184.11619 187.44557 
L 182.47484 187.45311 
z
" style="stroke:#000000;"/>
    <path clip-path="url(#p868d86707a)" d="M 182.544314 182.097825 
L 183.88626 184.498157 
L 182.245202 184.503846 
z
" style="stroke:#000000;"/>
    <path clip-path="url(#p868d86707a)" d="M 182.47484 166.833957 
L 181.831385 167.45845 
L 182.245202 169.782309 
z
" style="stroke:#000000;"/>
    <path clip-path="url(#p868d86707a)" d="M 181.831385 186.826063 
L 182.47484 187.45311 
L 182.245202 184.503846 
z
" style="stroke:#000000;"/>
    <path clip-path="url(#p868d86707a)" d="M 184.366866 174.65327 
L 182.544314 172.189518 
L 184.185751 172.191548 
z
" style="stroke:#000000;"/>
    <path clip-path="url(#p868d86707a)" d="M 184.557647 184.975087 
L 182.47484 187.45311 
L 184.11619 187.44557 
z
" style="stroke:#000000;"/>
    <path clip-path="url(#p868d86707a)" d="M 182.245202 169.782309 
L 184.185751 172.191548 
L 182.544314 172.189518 
z
" style="stroke:#000000;"/>
    <path clip-path="url(#p868d86707a)" d="M 184.876758 182.415237 
L 184.185751 182.093642 
L 184.366866 179.632636 
z
" style="stroke:#000000;"/>
    <path clip-path="url(#p868d86707a)" d="M 184.185751 172.191548 
L 184.876758 171.872689 
L 184.366866 174.65327 
z
" style="stroke:#000000;"/>
    <path clip-path="url(#p868d86707a)" d="M 184.185751 182.093642 
L 182.725199 179.635276 
L 184.366866 179.632636 
z
" style="stroke:#000000;"/>
    <path clip-path="url(#p868d86707a)" d="M 184.185751 182.093642 
L 184.876758 182.415237 
L 184.557647 184.975087 
z
" style="stroke:#000000;"/>
    <path clip-path="url(#p868d86707a)" d="M 184.876758 171.872689 
L 184.185751 172.191548 
L 184.557647 169.311575 
z
" style="stroke:#000000;"/>
    <path clip-path="url(#p868d86707a)" d="M 184.42748 177.143073 
L 182.725199 174.652785 
L 184.366866 174.65327 
z
" style="stroke:#000000;"/>
    <path clip-path="url(#p868d86707a)" d="M 184.366866 179.632636 
L 182.785736 177.14415 
L 184.42748 177.143073 
z
" style="stroke:#000000;"/>
    <path clip-path="url(#p868d86707a)" d="M 184.11619 166.839344 
L 182.915738 169.307737 
L 184.557647 169.311575 
z
" style="stroke:#000000;"/>
    <path clip-path="url(#p868d86707a)" d="M 182.725199 179.635276 
L 184.185751 182.093642 
L 182.544314 182.097825 
z
" style="stroke:#000000;"/>
    <path clip-path="url(#p868d86707a)" d="M 184.366866 174.65327 
L 185.069748 174.493601 
L 184.42748 177.143073 
z
" style="stroke:#000000;"/>
    <path clip-path="url(#p868d86707a)" d="M 185.069748 179.795089 
L 184.366866 179.632636 
L 184.42748 177.143073 
z
" style="stroke:#000000;"/>
    <path clip-path="url(#p868d86707a)" d="M 182.915738 169.307737 
L 184.11619 166.839344 
L 182.47484 166.833957 
z
" style="stroke:#000000;"/>
    <path clip-path="url(#p868d86707a)" d="M 182.544314 172.189518 
L 184.366866 174.65327 
L 182.725199 174.652785 
z
" style="stroke:#000000;"/>
    <path clip-path="url(#p868d86707a)" d="M 182.245202 169.782309 
L 182.915738 169.307737 
L 182.47484 166.833957 
z
" style="stroke:#000000;"/>
    <path clip-path="url(#p868d86707a)" d="M 182.915738 184.98108 
L 182.245202 184.503846 
L 182.47484 187.45311 
z
" style="stroke:#000000;"/>
    <path clip-path="url(#p868d86707a)" d="M 182.785736 177.14415 
L 184.366866 179.632636 
L 182.725199 179.635276 
z
" style="stroke:#000000;"/>
    <path clip-path="url(#p868d86707a)" d="M 182.915738 169.307737 
L 182.245202 169.782309 
L 182.544314 172.189518 
z
" style="stroke:#000000;"/>
    <path clip-path="url(#p868d86707a)" d="M 182.245202 184.503846 
L 182.915738 184.98108 
L 182.544314 182.097825 
z
" style="stroke:#000000;"/>
    <path clip-path="url(#p868d86707a)" d="M 182.725199 174.652785 
L 184.42748 177.143073 
L 182.785736 177.14415 
z
" style="stroke:#000000;"/>
    <path clip-path="url(#p868d86707a)" d="M 184.366866 179.632636 
L 185.069748 179.795089 
L 184.876758 182.415237 
z
" style="stroke:#000000;"/>
    <path clip-path="url(#p868d86707a)" d="M 185.069748 174.493601 
L 184.366866 174.65327 
L 184.876758 171.872689 
z
" style="stroke:#000000;"/>
    <path clip-path="url(#p868d86707a)" d="M 182.47484 187.45311 
L 184.557647 184.975087 
L 182.915738 184.98108 
z
" style="stroke:#000000;"/>
    <path clip-path="url(#p868d86707a)" d="M 184.876758 182.415237 
L 182.915738 184.98108 
L 184.557647 184.975087 
z
" style="stroke:#000000;"/>
    <path clip-path="url(#p868d86707a)" d="M 184.42748 177.143073 
L 185.134331 177.144473 
L 185.069748 179.795089 
z
" style="stroke:#000000;"/>
    <path clip-path="url(#p868d86707a)" d="M 185.134331 177.144473 
L 184.42748 177.143073 
L 185.069748 174.493601 
z
" style="stroke:#000000;"/>
    <path clip-path="url(#p868d86707a)" d="M 184.557647 169.311575 
L 183.234444 171.870457 
L 184.876758 171.872689 
z
" style="stroke:#000000;"/>
    <path clip-path="url(#p868d86707a)" d="M 183.234444 171.870457 
L 182.544314 172.189518 
L 182.725199 174.652785 
z
" style="stroke:#000000;"/>
    <path clip-path="url(#p868d86707a)" d="M 182.544314 182.097825 
L 183.234444 182.419625 
L 182.725199 179.635276 
z
" style="stroke:#000000;"/>
    <path clip-path="url(#p868d86707a)" d="M 183.234444 171.870457 
L 184.557647 169.311575 
L 182.915738 169.307737 
z
" style="stroke:#000000;"/>
    <path clip-path="url(#p868d86707a)" d="M 182.668188 160.918148 
L 186.078595 158.3588 
L 184.309783 160.927247 
z
" style="stroke:#000000;"/>
    <path clip-path="url(#p868d86707a)" d="M 186.078595 168.514228 
L 182.668188 160.918148 
L 184.309783 160.927247 
z
" style="stroke:#000000;"/>
    <path clip-path="url(#p868d86707a)" d="M 182.544314 172.189518 
L 183.234444 171.870457 
L 182.915738 169.307737 
z
" style="stroke:#000000;"/>
    <path clip-path="url(#p868d86707a)" d="M 183.234444 182.419625 
L 182.544314 182.097825 
L 182.915738 184.98108 
z
" style="stroke:#000000;"/>
    <path clip-path="url(#p868d86707a)" d="M 186.078595 158.3588 
L 184.898586 161.234323 
L 184.309783 160.927247 
z
" style="stroke:#000000;"/>
    <path clip-path="url(#p868d86707a)" d="M 186.078595 165.975371 
L 184.309783 160.927247 
L 184.898586 161.234323 
z
" style="stroke:#000000;"/>
    <path clip-path="url(#p868d86707a)" d="M 185.069748 179.795089 
L 183.234444 182.419625 
L 184.876758 182.415237 
z
" style="stroke:#000000;"/>
    <path clip-path="url(#p868d86707a)" d="M 182.915738 184.98108 
L 184.876758 182.415237 
L 183.234444 182.419625 
z
" style="stroke:#000000;"/>
    <path clip-path="url(#p868d86707a)" d="M 182.725199 179.635276 
L 183.42719 179.797832 
L 182.785736 177.14415 
z
" style="stroke:#000000;"/>
    <path clip-path="url(#p868d86707a)" d="M 183.42719 174.493014 
L 182.725199 174.652785 
L 182.785736 177.14415 
z
" style="stroke:#000000;"/>
    <path clip-path="url(#p868d86707a)" d="M 184.876758 171.872689 
L 183.42719 174.493014 
L 185.069748 174.493601 
z
" style="stroke:#000000;"/>
    <path clip-path="url(#p868d86707a)" d="M 185.134331 177.144473 
L 183.42719 179.797832 
L 185.069748 179.795089 
z
" style="stroke:#000000;"/>
    <path clip-path="url(#p868d86707a)" d="M 185.069748 174.493601 
L 183.491691 177.145551 
L 185.134331 177.144473 
z
" style="stroke:#000000;"/>
    <path clip-path="url(#p868d86707a)" d="M 183.42719 174.493014 
L 184.876758 171.872689 
L 183.234444 171.870457 
z
" style="stroke:#000000;"/>
    <path clip-path="url(#p868d86707a)" d="M 182.725199 174.652785 
L 183.42719 174.493014 
L 183.234444 171.870457 
z
" style="stroke:#000000;"/>
    <path clip-path="url(#p868d86707a)" d="M 183.42719 179.797832 
L 182.725199 179.635276 
L 183.234444 182.419625 
z
" style="stroke:#000000;"/>
    <path clip-path="url(#p868d86707a)" d="M 183.234444 182.419625 
L 185.069748 179.795089 
L 183.42719 179.797832 
z
" style="stroke:#000000;"/>
    <path clip-path="url(#p868d86707a)" d="M 182.785736 177.14415 
L 183.491691 177.145551 
L 183.42719 174.493014 
z
" style="stroke:#000000;"/>
    <path clip-path="url(#p868d86707a)" d="M 183.491691 177.145551 
L 182.785736 177.14415 
L 183.42719 179.797832 
z
" style="stroke:#000000;"/>
    <path clip-path="url(#p868d86707a)" d="M 183.491691 177.145551 
L 185.069748 174.493601 
L 183.42719 174.493014 
z
" style="stroke:#000000;"/>
    <path clip-path="url(#p868d86707a)" d="M 183.42719 179.797832 
L 185.134331 177.144473 
L 183.491691 177.145551 
z
" style="stroke:#000000;"/>
    <path clip-path="url(#p868d86707a)" d="M 184.309783 160.927247 
L 186.078595 165.975371 
L 186.078595 168.514228 
z
" style="stroke:#000000;"/>
    <path clip-path="url(#p868d86707a)" d="M 183.256245 161.225411 
L 184.43476 158.348067 
L 182.668188 160.918148 
z
" style="stroke:#000000;"/>
    <path clip-path="url(#p868d86707a)" d="M 182.668188 160.918148 
L 184.43476 165.969428 
L 183.256245 161.225411 
z
" style="stroke:#000000;"/>
    <path clip-path="url(#p868d86707a)" d="M 184.898586 161.234323 
L 184.43476 159.618294 
L 183.256245 161.225411 
z
" style="stroke:#000000;"/>
    <path clip-path="url(#p868d86707a)" d="M 184.43476 165.969428 
L 184.898586 161.234323 
L 183.256245 161.225411 
z
" style="stroke:#000000;"/>
    <path clip-path="url(#p868d86707a)" d="M 184.898586 161.234323 
L 186.078595 158.3588 
L 186.078595 159.628228 
z
" style="stroke:#000000;"/>
    <path clip-path="url(#p868d86707a)" d="M 186.078595 158.3588 
L 182.668188 160.918148 
L 184.43476 158.348067 
z
" style="stroke:#000000;"/>
    <path clip-path="url(#p868d86707a)" d="M 182.668188 160.918148 
L 186.078595 168.514228 
L 184.43476 168.509881 
z
" style="stroke:#000000;"/>
    <path clip-path="url(#p868d86707a)" d="M 184.43476 159.618294 
L 184.898586 161.234323 
L 186.078595 159.628228 
z
" style="stroke:#000000;"/>
    <path clip-path="url(#p868d86707a)" d="M 184.898586 161.234323 
L 184.43476 165.969428 
L 186.078595 165.975371 
z
" style="stroke:#000000;"/>
    <path clip-path="url(#p868d86707a)" d="M 184.43476 165.969428 
L 182.668188 160.918148 
L 184.43476 168.509881 
z
" style="stroke:#000000;"/>
    <path clip-path="url(#p868d86707a)" d="M 184.43476 158.348067 
L 183.256245 161.225411 
L 184.43476 159.618294 
z
" style="stroke:#000000;"/>
    <path clip-path="url(#p868d86707a)" d="M 186.078595 158.3588 
L 187.261819 161.195652 
L 186.078595 159.628228 
z
" style="stroke:#000000;"/>
    <path clip-path="url(#p868d86707a)" d="M 186.078595 165.975371 
L 187.854641 160.867945 
L 186.078595 168.514228 
z
" style="stroke:#000000;"/>
    <path clip-path="url(#p868d86707a)" d="M 186.078595 159.628228 
L 185.616488 161.186691 
L 184.43476 159.618294 
z
" style="stroke:#000000;"/>
    <path clip-path="url(#p868d86707a)" d="M 185.616488 161.186691 
L 186.078595 165.975371 
L 184.43476 165.969428 
z
" style="stroke:#000000;"/>
    <path clip-path="url(#p868d86707a)" d="M 184.43476 158.348067 
L 187.854641 160.867945 
L 186.078595 158.3588 
z
" style="stroke:#000000;"/>
    <path clip-path="url(#p868d86707a)" d="M 187.854641 160.867945 
L 184.43476 168.509881 
L 186.078595 168.514228 
z
" style="stroke:#000000;"/>
    <path clip-path="url(#p868d86707a)" d="M 184.43476 158.348067 
L 184.43476 159.618294 
L 185.616488 161.186691 
z
" style="stroke:#000000;"/>
    <path clip-path="url(#p868d86707a)" d="M 185.616488 161.186691 
L 186.078595 159.628228 
L 187.261819 161.195652 
z
" style="stroke:#000000;"/>
    <path clip-path="url(#p868d86707a)" d="M 186.078595 165.975371 
L 185.616488 161.186691 
L 187.261819 161.195652 
z
" style="stroke:#000000;"/>
    <path clip-path="url(#p868d86707a)" d="M 187.854641 160.867945 
L 186.078595 165.975371 
L 187.261819 161.195652 
z
" style="stroke:#000000;"/>
    <path clip-path="url(#p868d86707a)" d="M 187.261819 161.195652 
L 186.078595 158.3588 
L 187.854641 160.867945 
z
" style="stroke:#000000;"/>
    <path clip-path="url(#p868d86707a)" d="M 184.43476 165.969428 
L 184.43476 168.509881 
L 186.208561 160.858772 
z
" style="stroke:#000000;"/>
    <path clip-path="url(#p868d86707a)" d="M 187.089791 179.80526 
L 185.379885 177.149299 
L 187.024916 177.148215 
z
" style="stroke:#000000;"/>
    <path clip-path="url(#p868d86707a)" d="M 187.024916 177.148215 
L 185.444678 174.490838 
L 187.089791 174.491427 
z
" style="stroke:#000000;"/>
    <path clip-path="url(#p868d86707a)" d="M 187.024916 177.148215 
L 187.736012 177.149623 
L 187.089791 179.80526 
z
" style="stroke:#000000;"/>
    <path clip-path="url(#p868d86707a)" d="M 187.736012 177.149623 
L 187.024916 177.148215 
L 187.089791 174.491427 
z
" style="stroke:#000000;"/>
    <path clip-path="url(#p868d86707a)" d="M 187.283767 182.434631 
L 185.444678 179.808016 
L 187.089791 179.80526 
z
" style="stroke:#000000;"/>
    <path clip-path="url(#p868d86707a)" d="M 187.089791 179.80526 
L 187.797097 179.649279 
L 187.283767 182.434631 
z
" style="stroke:#000000;"/>
    <path clip-path="url(#p868d86707a)" d="M 187.797097 174.650208 
L 187.089791 174.491427 
L 187.283767 171.862824 
z
" style="stroke:#000000;"/>
    <path clip-path="url(#p868d86707a)" d="M 187.089791 174.491427 
L 185.638409 171.86058 
L 187.283767 171.862824 
z
" style="stroke:#000000;"/>
    <path clip-path="url(#p868d86707a)" d="M 185.444678 174.490838 
L 187.024916 177.148215 
L 185.379885 177.149299 
z
" style="stroke:#000000;"/>
    <path clip-path="url(#p868d86707a)" d="M 185.379885 177.149299 
L 187.089791 179.80526 
L 185.444678 179.808016 
z
" style="stroke:#000000;"/>
    <path clip-path="url(#p868d86707a)" d="M 185.638409 171.86058 
L 187.089791 174.491427 
L 185.444678 174.490838 
z
" style="stroke:#000000;"/>
    <path clip-path="url(#p868d86707a)" d="M 187.089791 174.491427 
L 187.797097 174.650208 
L 187.736012 177.149623 
z
" style="stroke:#000000;"/>
    <path clip-path="url(#p868d86707a)" d="M 187.797097 179.649279 
L 187.089791 179.80526 
L 187.736012 177.149623 
z
" style="stroke:#000000;"/>
    <path clip-path="url(#p868d86707a)" d="M 187.604888 185.008646 
L 185.638409 182.439043 
L 187.283767 182.434631 
z
" style="stroke:#000000;"/>
    <path clip-path="url(#p868d86707a)" d="M 185.444678 179.808016 
L 187.283767 182.434631 
L 185.638409 182.439043 
z
" style="stroke:#000000;"/>
    <path clip-path="url(#p868d86707a)" d="M 184.43476 158.348067 
L 185.616488 161.186691 
L 186.208561 160.858772 
z
" style="stroke:#000000;"/>
    <path clip-path="url(#p868d86707a)" d="M 184.43476 165.969428 
L 186.208561 160.858772 
L 185.616488 161.186691 
z
" style="stroke:#000000;"/>
    <path clip-path="url(#p868d86707a)" d="M 187.283767 182.434631 
L 187.979725 182.122828 
L 187.604888 185.008646 
z
" style="stroke:#000000;"/>
    <path clip-path="url(#p868d86707a)" d="M 187.979725 172.177383 
L 187.283767 171.862824 
L 187.604888 169.290081 
z
" style="stroke:#000000;"/>
    <path clip-path="url(#p868d86707a)" d="M 187.854641 160.867945 
L 184.43476 158.348067 
L 186.208561 160.858772 
z
" style="stroke:#000000;"/>
    <path clip-path="url(#p868d86707a)" d="M 184.43476 168.509881 
L 187.854641 160.867945 
L 186.208561 160.858772 
z
" style="stroke:#000000;"/>
    <path clip-path="url(#p868d86707a)" d="M 187.283767 171.862824 
L 185.959124 169.286215 
L 187.604888 169.290081 
z
" style="stroke:#000000;"/>
    <path clip-path="url(#p868d86707a)" d="M 187.979725 182.122828 
L 187.283767 182.434631 
L 187.797097 179.649279 
z
" style="stroke:#000000;"/>
    <path clip-path="url(#p868d86707a)" d="M 187.283767 171.862824 
L 187.979725 172.177383 
L 187.797097 174.650208 
z
" style="stroke:#000000;"/>
    <path clip-path="url(#p868d86707a)" d="M 185.959124 169.286215 
L 187.283767 171.862824 
L 185.638409 171.86058 
z
" style="stroke:#000000;"/>
    <path clip-path="url(#p868d86707a)" d="M 185.379885 177.149299 
L 186.090082 177.150708 
L 185.444678 174.490838 
z
" style="stroke:#000000;"/>
    <path clip-path="url(#p868d86707a)" d="M 186.090082 177.150708 
L 185.379885 177.149299 
L 185.444678 179.808016 
z
" style="stroke:#000000;"/>
    <path clip-path="url(#p868d86707a)" d="M 185.638409 182.439043 
L 187.604888 185.008646 
L 185.959124 185.014681 
z
" style="stroke:#000000;"/>
    <path clip-path="url(#p868d86707a)" d="M 188.049908 187.500128 
L 185.959124 185.014681 
L 187.604888 185.008646 
z
" style="stroke:#000000;"/>
    <path clip-path="url(#p868d86707a)" d="M 185.444678 174.490838 
L 186.15109 174.649719 
L 185.638409 171.86058 
z
" style="stroke:#000000;"/>
    <path clip-path="url(#p868d86707a)" d="M 186.15109 179.65194 
L 185.444678 179.808016 
L 185.638409 182.439043 
z
" style="stroke:#000000;"/>
    <path clip-path="url(#p868d86707a)" d="M 187.797097 174.650208 
L 186.090082 177.150708 
L 187.736012 177.149623 
z
" style="stroke:#000000;"/>
    <path clip-path="url(#p868d86707a)" d="M 188.282054 184.544184 
L 187.604888 185.008646 
L 187.979725 182.122828 
z
" style="stroke:#000000;"/>
    <path clip-path="url(#p868d86707a)" d="M 187.604888 169.290081 
L 188.282054 169.757223 
L 187.979725 172.177383 
z
" style="stroke:#000000;"/>
    <path clip-path="url(#p868d86707a)" d="M 187.736012 177.149623 
L 186.15109 179.65194 
L 187.797097 179.649279 
z
" style="stroke:#000000;"/>
    <path clip-path="url(#p868d86707a)" d="M 187.604888 185.008646 
L 188.282054 184.544184 
L 188.049908 187.500128 
z
" style="stroke:#000000;"/>
    <path clip-path="url(#p868d86707a)" d="M 188.282054 169.757223 
L 187.604888 169.290081 
L 188.049908 166.80036 
z
" style="stroke:#000000;"/>
    <path clip-path="url(#p868d86707a)" d="M 187.979725 172.177383 
L 186.15109 174.649719 
L 187.797097 174.650208 
z
" style="stroke:#000000;"/>
    <path clip-path="url(#p868d86707a)" d="M 187.604888 169.290081 
L 186.403582 166.794924 
L 188.049908 166.80036 
z
" style="stroke:#000000;"/>
    <path clip-path="url(#p868d86707a)" d="M 185.444678 179.808016 
L 186.15109 179.65194 
L 186.090082 177.150708 
z
" style="stroke:#000000;"/>
    <path clip-path="url(#p868d86707a)" d="M 186.15109 174.649719 
L 185.444678 174.490838 
L 186.090082 177.150708 
z
" style="stroke:#000000;"/>
    <path clip-path="url(#p868d86707a)" d="M 187.797097 179.649279 
L 186.333488 182.127047 
L 187.979725 182.122828 
z
" style="stroke:#000000;"/>
    <path clip-path="url(#p868d86707a)" d="M 186.403582 166.794924 
L 187.604888 169.290081 
L 185.959124 169.286215 
z
" style="stroke:#000000;"/>
    <path clip-path="url(#p868d86707a)" d="M 186.15109 179.65194 
L 187.736012 177.149623 
L 186.090082 177.150708 
z
" style="stroke:#000000;"/>
    <path clip-path="url(#p868d86707a)" d="M 186.090082 177.150708 
L 187.797097 174.650208 
L 186.15109 174.649719 
z
" style="stroke:#000000;"/>
    <path clip-path="url(#p868d86707a)" d="M 185.638409 171.86058 
L 186.333488 172.175335 
L 185.959124 169.286215 
z
" style="stroke:#000000;"/>
    <path clip-path="url(#p868d86707a)" d="M 186.333488 182.127047 
L 185.638409 182.439043 
L 185.959124 185.014681 
z
" style="stroke:#000000;"/>
    <path clip-path="url(#p868d86707a)" d="M 186.333488 182.127047 
L 187.797097 179.649279 
L 186.15109 179.65194 
z
" style="stroke:#000000;"/>
    <path clip-path="url(#p868d86707a)" d="M 186.333488 172.175335 
L 185.638409 171.86058 
L 186.15109 174.649719 
z
" style="stroke:#000000;"/>
    <path clip-path="url(#p868d86707a)" d="M 185.638409 182.439043 
L 186.333488 182.127047 
L 186.15109 179.65194 
z
" style="stroke:#000000;"/>
    <path clip-path="url(#p868d86707a)" d="M 188.282054 169.757223 
L 186.333488 172.175335 
L 187.979725 172.177383 
z
" style="stroke:#000000;"/>
    <path clip-path="url(#p868d86707a)" d="M 185.959124 185.014681 
L 188.049908 187.500128 
L 186.403582 187.507737 
z
" style="stroke:#000000;"/>
    <path clip-path="url(#p868d86707a)" d="M 186.15109 174.649719 
L 187.979725 172.177383 
L 186.333488 172.175335 
z
" style="stroke:#000000;"/>
    <path clip-path="url(#p868d86707a)" d="M 188.701014 186.887715 
L 188.049908 187.500128 
L 188.282054 184.544184 
z
" style="stroke:#000000;"/>
    <path clip-path="url(#p868d86707a)" d="M 188.049908 166.80036 
L 188.701014 167.415351 
L 188.282054 169.757223 
z
" style="stroke:#000000;"/>
    <path clip-path="url(#p868d86707a)" d="M 187.979725 182.122828 
L 186.635435 184.549932 
L 188.282054 184.544184 
z
" style="stroke:#000000;"/>
    <path clip-path="url(#p868d86707a)" d="M 188.614334 189.882709 
L 186.403582 187.507737 
L 188.049908 187.500128 
z
" style="stroke:#000000;"/>
    <path clip-path="url(#p868d86707a)" d="M 186.635435 184.549932 
L 187.979725 182.122828 
L 186.333488 182.127047 
z
" style="stroke:#000000;"/>
    <path clip-path="url(#p868d86707a)" d="M 188.049908 187.500128 
L 188.701014 186.887715 
L 188.614334 189.882709 
z
" style="stroke:#000000;"/>
    <path clip-path="url(#p868d86707a)" d="M 188.701014 167.415351 
L 188.049908 166.80036 
L 188.614334 164.420014 
z
" style="stroke:#000000;"/>
    <path clip-path="url(#p868d86707a)" d="M 186.635435 169.753649 
L 185.959124 169.286215 
L 186.333488 172.175335 
z
" style="stroke:#000000;"/>
    <path clip-path="url(#p868d86707a)" d="M 185.959124 185.014681 
L 186.635435 184.549932 
L 186.333488 182.127047 
z
" style="stroke:#000000;"/>
    <path clip-path="url(#p868d86707a)" d="M 185.959124 169.286215 
L 186.635435 169.753649 
L 186.403582 166.794924 
z
" style="stroke:#000000;"/>
    <path clip-path="url(#p868d86707a)" d="M 186.635435 184.549932 
L 185.959124 185.014681 
L 186.403582 187.507737 
z
" style="stroke:#000000;"/>
    <path clip-path="url(#p868d86707a)" d="M 186.333488 172.175335 
L 188.282054 169.757223 
L 186.635435 169.753649 
z
" style="stroke:#000000;"/>
    <path clip-path="url(#p868d86707a)" d="M 186.967296 164.413072 
L 188.049908 166.80036 
L 186.403582 166.794924 
z
" style="stroke:#000000;"/>
    <path clip-path="url(#p868d86707a)" d="M 188.701014 167.415351 
L 186.635435 169.753649 
L 188.282054 169.757223 
z
" style="stroke:#000000;"/>
    <path clip-path="url(#p868d86707a)" d="M 188.049908 166.80036 
L 186.967296 164.413072 
L 188.614334 164.420014 
z
" style="stroke:#000000;"/>
    <path clip-path="url(#p868d86707a)" d="M 188.282054 184.544184 
L 187.053867 186.894943 
L 188.701014 186.887715 
z
" style="stroke:#000000;"/>
    <path clip-path="url(#p868d86707a)" d="M 187.053867 186.894943 
L 188.282054 184.544184 
L 186.635435 184.549932 
z
" style="stroke:#000000;"/>
    <path clip-path="url(#p868d86707a)" d="M 186.403582 187.507737 
L 188.614334 189.882709 
L 186.967296 189.891826 
z
" style="stroke:#000000;"/>
    <path clip-path="url(#p868d86707a)" d="M 189.232343 189.128543 
L 188.614334 189.882709 
L 188.701014 186.887715 
z
" style="stroke:#000000;"/>
    <path clip-path="url(#p868d86707a)" d="M 188.614334 164.420014 
L 189.232343 165.176627 
L 188.701014 167.415351 
z
" style="stroke:#000000;"/>
    <path clip-path="url(#p868d86707a)" d="M 187.053867 167.410298 
L 186.403582 166.794924 
L 186.635435 169.753649 
z
" style="stroke:#000000;"/>
    <path clip-path="url(#p868d86707a)" d="M 186.403582 187.507737 
L 187.053867 186.894943 
L 186.635435 184.549932 
z
" style="stroke:#000000;"/>
    <path clip-path="url(#p868d86707a)" d="M 186.635435 169.753649 
L 188.701014 167.415351 
L 187.053867 167.410298 
z
" style="stroke:#000000;"/>
    <path clip-path="url(#p868d86707a)" d="M 186.403582 166.794924 
L 187.053867 167.410298 
L 186.967296 164.413072 
z
" style="stroke:#000000;"/>
    <path clip-path="url(#p868d86707a)" d="M 187.053867 186.894943 
L 186.403582 187.507737 
L 186.967296 189.891826 
z
" style="stroke:#000000;"/>
    <path clip-path="url(#p868d86707a)" d="M 189.29242 192.13092 
L 186.967296 189.891826 
L 188.614334 189.882709 
z
" style="stroke:#000000;"/>
    <path clip-path="url(#p868d86707a)" d="M 188.614334 189.882709 
L 189.232343 189.128543 
L 189.29242 192.13092 
z
" style="stroke:#000000;"/>
    <path clip-path="url(#p868d86707a)" d="M 189.232343 165.176627 
L 188.614334 164.420014 
L 189.29242 162.174488 
z
" style="stroke:#000000;"/>
    <path clip-path="url(#p868d86707a)" d="M 189.232343 165.176627 
L 187.053867 167.410298 
L 188.701014 167.415351 
z
" style="stroke:#000000;"/>
    <path clip-path="url(#p868d86707a)" d="M 187.644527 162.166124 
L 188.614334 164.420014 
L 186.967296 164.413072 
z
" style="stroke:#000000;"/>
    <path clip-path="url(#p868d86707a)" d="M 188.701014 186.887715 
L 187.584526 189.13719 
L 189.232343 189.128543 
z
" style="stroke:#000000;"/>
    <path clip-path="url(#p868d86707a)" d="M 187.584526 189.13719 
L 188.701014 186.887715 
L 187.053867 186.894943 
z
" style="stroke:#000000;"/>
    <path clip-path="url(#p868d86707a)" d="M 188.614334 164.420014 
L 187.644527 162.166124 
L 189.29242 162.174488 
z
" style="stroke:#000000;"/>
    <path clip-path="url(#p868d86707a)" d="M 187.584526 165.170158 
L 186.967296 164.413072 
L 187.053867 167.410298 
z
" style="stroke:#000000;"/>
    <path clip-path="url(#p868d86707a)" d="M 186.967296 189.891826 
L 187.584526 189.13719 
L 187.053867 186.894943 
z
" style="stroke:#000000;"/>
    <path clip-path="url(#p868d86707a)" d="M 187.053867 167.410298 
L 189.232343 165.176627 
L 187.584526 165.170158 
z
" style="stroke:#000000;"/>
    <path clip-path="url(#p868d86707a)" d="M 186.967296 189.891826 
L 189.29242 192.13092 
L 187.644527 192.141462 
z
" style="stroke:#000000;"/>
    <path clip-path="url(#p868d86707a)" d="M 189.29242 192.13092 
L 189.232343 189.128543 
L 189.870621 191.242788 
z
" style="stroke:#000000;"/>
    <path clip-path="url(#p868d86707a)" d="M 189.232343 165.176627 
L 189.29242 162.174488 
L 189.870621 163.064909 
z
" style="stroke:#000000;"/>
    <path clip-path="url(#p868d86707a)" d="M 186.967296 164.413072 
L 187.584526 165.170158 
L 187.644527 162.166124 
z
" style="stroke:#000000;"/>
    <path clip-path="url(#p868d86707a)" d="M 187.584526 189.13719 
L 186.967296 189.891826 
L 187.644527 192.141462 
z
" style="stroke:#000000;"/>
    <path clip-path="url(#p868d86707a)" d="M 189.870621 163.064909 
L 187.584526 165.170158 
L 189.232343 165.176627 
z
" style="stroke:#000000;"/>
    <path clip-path="url(#p868d86707a)" d="M 190.07725 194.220777 
L 187.644527 192.141462 
L 189.29242 192.13092 
z
" style="stroke:#000000;"/>
    <path clip-path="url(#p868d86707a)" d="M 189.29242 192.13092 
L 189.870621 191.242788 
L 190.07725 194.220777 
z
" style="stroke:#000000;"/>
    <path clip-path="url(#p868d86707a)" d="M 189.870621 163.064909 
L 189.29242 162.174488 
L 190.07725 160.087738 
z
" style="stroke:#000000;"/>
    <path clip-path="url(#p868d86707a)" d="M 188.221999 191.252776 
L 189.232343 189.128543 
L 187.584526 189.13719 
z
" style="stroke:#000000;"/>
    <path clip-path="url(#p868d86707a)" d="M 189.232343 189.128543 
L 188.221999 191.252776 
L 189.870621 191.242788 
z
" style="stroke:#000000;"/>
    <path clip-path="url(#p868d86707a)" d="M 188.428368 160.078049 
L 189.29242 162.174488 
L 187.644527 162.166124 
z
" style="stroke:#000000;"/>
    <path clip-path="url(#p868d86707a)" d="M 189.29242 162.174488 
L 188.428368 160.078049 
L 190.07725 160.087738 
z
" style="stroke:#000000;"/>
    <path clip-path="url(#p868d86707a)" d="M 187.644527 162.166124 
L 187.584526 165.170158 
L 188.221999 163.057102 
z
" style="stroke:#000000;"/>
    <path clip-path="url(#p868d86707a)" d="M 187.584526 189.13719 
L 187.644527 192.141462 
L 188.221999 191.252776 
z
" style="stroke:#000000;"/>
    <path clip-path="url(#p868d86707a)" d="M 187.584526 165.170158 
L 189.870621 163.064909 
L 188.221999 163.057102 
z
" style="stroke:#000000;"/>
    <path clip-path="url(#p868d86707a)" d="M 187.644527 192.141462 
L 190.07725 194.220777 
L 188.428368 194.232649 
z
" style="stroke:#000000;"/>
    <path clip-path="url(#p868d86707a)" d="M 190.07725 194.220777 
L 189.870621 191.242788 
L 190.609304 193.20762 
z
" style="stroke:#000000;"/>
    <path clip-path="url(#p868d86707a)" d="M 189.870621 163.064909 
L 190.07725 160.087738 
L 190.609304 161.103002 
z
" style="stroke:#000000;"/>
    <path clip-path="url(#p868d86707a)" d="M 187.644527 162.166124 
L 188.221999 163.057102 
L 188.428368 160.078049 
z
" style="stroke:#000000;"/>
    <path clip-path="url(#p868d86707a)" d="M 188.221999 191.252776 
L 187.644527 192.141462 
L 188.428368 194.232649 
z
" style="stroke:#000000;"/>
    <path clip-path="url(#p868d86707a)" d="M 190.609304 161.103002 
L 188.221999 163.057102 
L 189.870621 163.064909 
z
" style="stroke:#000000;"/>
    <path clip-path="url(#p868d86707a)" d="M 190.518791 195.174671 
L 188.428368 194.232649 
L 190.07725 194.220777 
z
" style="stroke:#000000;"/>
    <path clip-path="url(#p868d86707a)" d="M 190.07725 194.220777 
L 190.830914 194.841705 
L 190.518791 195.174671 
z
" style="stroke:#000000;"/>
    <path clip-path="url(#p868d86707a)" d="M 190.830914 159.469794 
L 190.07725 160.087738 
L 190.518791 159.135592 
z
" style="stroke:#000000;"/>
    <path clip-path="url(#p868d86707a)" d="M 188.959753 193.218858 
L 189.870621 191.242788 
L 188.221999 191.252776 
z
" style="stroke:#000000;"/>
    <path clip-path="url(#p868d86707a)" d="M 190.830914 194.841705 
L 190.07725 194.220777 
L 190.609304 193.20762 
z
" style="stroke:#000000;"/>
    <path clip-path="url(#p868d86707a)" d="M 190.07725 160.087738 
L 190.830914 159.469794 
L 190.609304 161.103002 
z
" style="stroke:#000000;"/>
    <path clip-path="url(#p868d86707a)" d="M 189.870621 191.242788 
L 188.959753 193.218858 
L 190.609304 193.20762 
z
" style="stroke:#000000;"/>
    <path clip-path="url(#p868d86707a)" d="M 190.07725 160.087738 
L 188.869353 159.125296 
L 190.518791 159.135592 
z
" style="stroke:#000000;"/>
    <path clip-path="url(#p868d86707a)" d="M 188.869353 159.125296 
L 190.07725 160.087738 
L 188.428368 160.078049 
z
" style="stroke:#000000;"/>
    <path clip-path="url(#p868d86707a)" d="M 188.221999 163.057102 
L 190.609304 161.103002 
L 188.959753 161.093948 
z
" style="stroke:#000000;"/>
    <path clip-path="url(#p868d86707a)" d="M 188.428368 160.078049 
L 188.221999 163.057102 
L 188.959753 161.093948 
z
" style="stroke:#000000;"/>
    <path clip-path="url(#p868d86707a)" d="M 188.221999 191.252776 
L 188.428368 194.232649 
L 188.959753 193.218858 
z
" style="stroke:#000000;"/>
    <path clip-path="url(#p868d86707a)" d="M 188.428368 194.232649 
L 190.518791 195.174671 
L 188.869353 195.187152 
z
" style="stroke:#000000;"/>
    <path clip-path="url(#p868d86707a)" d="M 188.869353 159.125296 
L 190.830914 159.469794 
L 190.518791 159.135592 
z
" style="stroke:#000000;"/>
    <path clip-path="url(#p868d86707a)" d="M 190.830914 194.841705 
L 190.609304 193.20762 
L 191.158974 194.393724 
z
" style="stroke:#000000;"/>
    <path clip-path="url(#p868d86707a)" d="M 190.609304 161.103002 
L 190.830914 159.469794 
L 191.158974 159.919074 
z
" style="stroke:#000000;"/>
    <path clip-path="url(#p868d86707a)" d="M 189.181084 194.85398 
L 190.518791 195.174671 
L 190.830914 194.841705 
z
" style="stroke:#000000;"/>
    <path clip-path="url(#p868d86707a)" d="M 188.959753 193.218858 
L 191.158974 194.393724 
L 190.609304 193.20762 
z
" style="stroke:#000000;"/>
    <path clip-path="url(#p868d86707a)" d="M 190.518791 195.174671 
L 189.181084 194.85398 
L 188.869353 195.187152 
z
" style="stroke:#000000;"/>
    <path clip-path="url(#p868d86707a)" d="M 188.428368 160.078049 
L 189.181084 159.459705 
L 188.869353 159.125296 
z
" style="stroke:#000000;"/>
    <path clip-path="url(#p868d86707a)" d="M 189.181084 194.85398 
L 188.428368 194.232649 
L 188.869353 195.187152 
z
" style="stroke:#000000;"/>
    <path clip-path="url(#p868d86707a)" d="M 189.181084 159.459705 
L 188.428368 160.078049 
L 188.959753 161.093948 
z
" style="stroke:#000000;"/>
    <path clip-path="url(#p868d86707a)" d="M 188.428368 194.232649 
L 189.181084 194.85398 
L 188.959753 193.218858 
z
" style="stroke:#000000;"/>
    <path clip-path="url(#p868d86707a)" d="M 190.830914 159.469794 
L 188.869353 159.125296 
L 189.181084 159.459705 
z
" style="stroke:#000000;"/>
    <path clip-path="url(#p868d86707a)" d="M 189.181084 159.459705 
L 191.158974 159.919074 
L 190.830914 159.469794 
z
" style="stroke:#000000;"/>
    <path clip-path="url(#p868d86707a)" d="M 189.508731 159.909266 
L 190.609304 161.103002 
L 191.158974 159.919074 
z
" style="stroke:#000000;"/>
    <path clip-path="url(#p868d86707a)" d="M 190.609304 161.103002 
L 189.508731 159.909266 
L 188.959753 161.093948 
z
" style="stroke:#000000;"/>
    <path clip-path="url(#p868d86707a)" d="M 189.508731 194.40572 
L 190.830914 194.841705 
L 191.158974 194.393724 
z
" style="stroke:#000000;"/>
    <path clip-path="url(#p868d86707a)" d="M 190.830914 194.841705 
L 189.508731 194.40572 
L 189.181084 194.85398 
z
" style="stroke:#000000;"/>
    <path clip-path="url(#p868d86707a)" d="M 191.158974 194.393724 
L 188.959753 193.218858 
L 189.508731 194.40572 
z
" style="stroke:#000000;"/>
    <path clip-path="url(#p868d86707a)" d="M 191.158974 159.919074 
L 189.181084 159.459705 
L 189.508731 159.909266 
z
" style="stroke:#000000;"/>
    <path clip-path="url(#p868d86707a)" d="M 189.181084 159.459705 
L 188.959753 161.093948 
L 189.508731 159.909266 
z
" style="stroke:#000000;"/>
    <path clip-path="url(#p868d86707a)" d="M 188.959753 193.218858 
L 189.181084 194.85398 
L 189.508731 194.40572 
z
" style="stroke:#000000;"/>
   </g>
  </g>
 </g>
 <defs>
  <clipPath id="p868d86707a">
   <rect height="271.8" width="279" x="45" y="43.2"/>
  </clipPath>
 </defs>
</svg>
