<?xml version="1.0" encoding="utf-8" standalone="no"?>
<!DOCTYPE svg PUBLIC "-//W3C//DTD SVG 1.1//EN"
  "http://www.w3.org/Graphics/SVG/1.1/DTD/svg11.dtd">
<!-- Created with matplotlib (https://matplotlib.org/) -->
<svg height="360pt" version="1.1" viewBox="0 0 360 360" width="360pt" xmlns="http://www.w3.org/2000/svg" xmlns:xlink="http://www.w3.org/1999/xlink">
 <defs>
  <style type="text/css">
*{stroke-linecap:butt;stroke-linejoin:round;}
  </style>
 </defs>
 <g id="figure_1">
  <g id="patch_1">
   <path d="M 45 315 
L 324 315 
L 324 43.2 
L 45 43.2 
z
" style="fill:#ffffff;"/>
  </g>
  <g id="axes_1">
   <g id="Poly3DCollection_1">
    <path clip-path="url(#pbf67af571d)" d="M 191.947537 161.27107 
L 192.212499 159.664647 
L 192.604265 160.119396 
z
" style="stroke:#000000;"/>
    <path clip-path="url(#pbf67af571d)" d="M 192.212499 194.604633 
L 191.947537 192.998995 
L 192.604265 194.148725 
z
" style="stroke:#000000;"/>
    <path clip-path="url(#pbf67af571d)" d="M 194.101638 194.162957 
L 192.212499 194.604633 
L 192.604265 194.148725 
z
" style="stroke:#000000;"/>
    <path clip-path="url(#pbf67af571d)" d="M 194.101638 160.107759 
L 191.947537 161.27107 
L 192.604265 160.119396 
z
" style="stroke:#000000;"/>
    <path clip-path="url(#pbf67af571d)" d="M 193.710084 159.652661 
L 192.604265 160.119396 
L 192.212499 159.664647 
z
" style="stroke:#000000;"/>
    <path clip-path="url(#pbf67af571d)" d="M 192.604265 160.119396 
L 193.710084 159.652661 
L 194.101638 160.107759 
z
" style="stroke:#000000;"/>
    <path clip-path="url(#pbf67af571d)" d="M 193.445265 193.012361 
L 192.604265 194.148725 
L 191.947537 192.998995 
z
" style="stroke:#000000;"/>
    <path clip-path="url(#pbf67af571d)" d="M 191.310354 160.250095 
L 192.212499 159.664647 
L 191.947537 161.27107 
z
" style="stroke:#000000;"/>
    <path clip-path="url(#pbf67af571d)" d="M 192.212499 194.604633 
L 191.310354 194.021857 
L 191.947537 192.998995 
z
" style="stroke:#000000;"/>
    <path clip-path="url(#pbf67af571d)" d="M 192.604265 194.148725 
L 193.445265 193.012361 
L 194.101638 194.162957 
z
" style="stroke:#000000;"/>
    <path clip-path="url(#pbf67af571d)" d="M 193.710084 194.619217 
L 191.839244 194.946823 
L 192.212499 194.604633 
z
" style="stroke:#000000;"/>
    <path clip-path="url(#pbf67af571d)" d="M 192.212499 159.664647 
L 191.310354 160.250095 
L 191.839244 159.323563 
z
" style="stroke:#000000;"/>
    <path clip-path="url(#pbf67af571d)" d="M 191.310354 194.021857 
L 192.212499 194.604633 
L 191.839244 194.946823 
z
" style="stroke:#000000;"/>
    <path clip-path="url(#pbf67af571d)" d="M 192.212499 194.604633 
L 194.101638 194.162957 
L 193.710084 194.619217 
z
" style="stroke:#000000;"/>
    <path clip-path="url(#pbf67af571d)" d="M 193.33703 159.311313 
L 192.212499 159.664647 
L 191.839244 159.323563 
z
" style="stroke:#000000;"/>
    <path clip-path="url(#pbf67af571d)" d="M 191.947537 161.27107 
L 194.101638 160.107759 
L 193.445265 161.260302 
z
" style="stroke:#000000;"/>
    <path clip-path="url(#pbf67af571d)" d="M 192.212499 159.664647 
L 193.33703 159.311313 
L 193.710084 159.652661 
z
" style="stroke:#000000;"/>
    <path clip-path="url(#pbf67af571d)" d="M 191.310354 160.250095 
L 191.947537 161.27107 
L 191.062497 163.19023 
z
" style="stroke:#000000;"/>
    <path clip-path="url(#pbf67af571d)" d="M 191.947537 192.998995 
L 191.310354 194.021857 
L 191.062497 191.082456 
z
" style="stroke:#000000;"/>
    <path clip-path="url(#pbf67af571d)" d="M 191.839244 194.946823 
L 193.710084 194.619217 
L 193.33703 194.961671 
z
" style="stroke:#000000;"/>
    <path clip-path="url(#pbf67af571d)" d="M 193.445265 193.012361 
L 193.710084 194.619217 
L 194.101638 194.162957 
z
" style="stroke:#000000;"/>
    <path clip-path="url(#pbf67af571d)" d="M 193.710084 159.652661 
L 193.445265 161.260302 
L 194.101638 160.107759 
z
" style="stroke:#000000;"/>
    <path clip-path="url(#pbf67af571d)" d="M 191.310354 160.250095 
L 193.33703 159.311313 
L 191.839244 159.323563 
z
" style="stroke:#000000;"/>
    <path clip-path="url(#pbf67af571d)" d="M 191.062497 191.082456 
L 193.445265 193.012361 
L 191.947537 192.998995 
z
" style="stroke:#000000;"/>
    <path clip-path="url(#pbf67af571d)" d="M 191.839244 194.946823 
L 192.808424 194.036008 
L 191.310354 194.021857 
z
" style="stroke:#000000;"/>
    <path clip-path="url(#pbf67af571d)" d="M 192.808424 194.036008 
L 191.839244 194.946823 
L 193.33703 194.961671 
z
" style="stroke:#000000;"/>
    <path clip-path="url(#pbf67af571d)" d="M 192.560701 163.180916 
L 191.947537 161.27107 
L 193.445265 161.260302 
z
" style="stroke:#000000;"/>
    <path clip-path="url(#pbf67af571d)" d="M 191.947537 161.27107 
L 192.560701 163.180916 
L 191.062497 163.19023 
z
" style="stroke:#000000;"/>
    <path clip-path="url(#pbf67af571d)" d="M 192.808424 194.036008 
L 193.710084 194.619217 
L 193.445265 193.012361 
z
" style="stroke:#000000;"/>
    <path clip-path="url(#pbf67af571d)" d="M 193.710084 159.652661 
L 192.808424 160.238545 
L 193.445265 161.260302 
z
" style="stroke:#000000;"/>
    <path clip-path="url(#pbf67af571d)" d="M 191.310354 160.250095 
L 191.062497 163.19023 
L 190.367739 162.292234 
z
" style="stroke:#000000;"/>
    <path clip-path="url(#pbf67af571d)" d="M 191.062497 191.082456 
L 191.310354 194.021857 
L 190.367739 191.982509 
z
" style="stroke:#000000;"/>
    <path clip-path="url(#pbf67af571d)" d="M 193.710084 194.619217 
L 192.808424 194.036008 
L 193.33703 194.961671 
z
" style="stroke:#000000;"/>
    <path clip-path="url(#pbf67af571d)" d="M 192.808424 160.238545 
L 193.710084 159.652661 
L 193.33703 159.311313 
z
" style="stroke:#000000;"/>
    <path clip-path="url(#pbf67af571d)" d="M 193.33703 159.311313 
L 191.310354 160.250095 
L 192.808424 160.238545 
z
" style="stroke:#000000;"/>
    <path clip-path="url(#pbf67af571d)" d="M 193.445265 193.012361 
L 191.062497 191.082456 
L 192.560701 191.094373 
z
" style="stroke:#000000;"/>
    <path clip-path="url(#pbf67af571d)" d="M 190.367739 162.292234 
L 192.808424 160.238545 
L 191.310354 160.250095 
z
" style="stroke:#000000;"/>
    <path clip-path="url(#pbf67af571d)" d="M 190.367739 162.292234 
L 191.062497 163.19023 
L 190.295451 165.266364 
z
" style="stroke:#000000;"/>
    <path clip-path="url(#pbf67af571d)" d="M 191.062497 191.082456 
L 190.367739 191.982509 
L 190.295451 189.008593 
z
" style="stroke:#000000;"/>
    <path clip-path="url(#pbf67af571d)" d="M 192.808424 194.036008 
L 193.445265 193.012361 
L 192.560701 191.094373 
z
" style="stroke:#000000;"/>
    <path clip-path="url(#pbf67af571d)" d="M 193.445265 161.260302 
L 192.808424 160.238545 
L 192.560701 163.180916 
z
" style="stroke:#000000;"/>
    <path clip-path="url(#pbf67af571d)" d="M 190.295451 189.008593 
L 192.560701 191.094373 
L 191.062497 191.082456 
z
" style="stroke:#000000;"/>
    <path clip-path="url(#pbf67af571d)" d="M 191.866316 191.995119 
L 191.310354 194.021857 
L 192.808424 194.036008 
z
" style="stroke:#000000;"/>
    <path clip-path="url(#pbf67af571d)" d="M 191.310354 194.021857 
L 191.866316 191.995119 
L 190.367739 191.982509 
z
" style="stroke:#000000;"/>
    <path clip-path="url(#pbf67af571d)" d="M 191.062497 163.19023 
L 191.794067 165.258624 
L 190.295451 165.266364 
z
" style="stroke:#000000;"/>
    <path clip-path="url(#pbf67af571d)" d="M 191.794067 165.258624 
L 191.062497 163.19023 
L 192.560701 163.180916 
z
" style="stroke:#000000;"/>
    <path clip-path="url(#pbf67af571d)" d="M 192.808424 160.238545 
L 190.367739 162.292234 
L 191.866316 162.28223 
z
" style="stroke:#000000;"/>
    <path clip-path="url(#pbf67af571d)" d="M 190.367739 162.292234 
L 190.295451 165.266364 
L 189.550717 164.501594 
z
" style="stroke:#000000;"/>
    <path clip-path="url(#pbf67af571d)" d="M 190.295451 189.008593 
L 190.367739 191.982509 
L 189.550717 189.775568 
z
" style="stroke:#000000;"/>
    <path clip-path="url(#pbf67af571d)" d="M 192.808424 194.036008 
L 192.560701 191.094373 
L 191.866316 191.995119 
z
" style="stroke:#000000;"/>
    <path clip-path="url(#pbf67af571d)" d="M 192.560701 163.180916 
L 192.808424 160.238545 
L 191.866316 162.28223 
z
" style="stroke:#000000;"/>
    <path clip-path="url(#pbf67af571d)" d="M 192.560701 191.094373 
L 190.295451 189.008593 
L 191.794067 189.018939 
z
" style="stroke:#000000;"/>
    <path clip-path="url(#pbf67af571d)" d="M 189.550717 164.501594 
L 190.295451 165.266364 
L 189.655294 167.476242 
z
" style="stroke:#000000;"/>
    <path clip-path="url(#pbf67af571d)" d="M 190.295451 189.008593 
L 189.550717 189.775568 
L 189.655294 186.800611 
z
" style="stroke:#000000;"/>
    <path clip-path="url(#pbf67af571d)" d="M 189.550717 164.501594 
L 191.866316 162.28223 
L 190.367739 162.292234 
z
" style="stroke:#000000;"/>
    <path clip-path="url(#pbf67af571d)" d="M 189.655294 186.800611 
L 191.794067 189.018939 
L 190.295451 189.008593 
z
" style="stroke:#000000;"/>
    <path clip-path="url(#pbf67af571d)" d="M 191.866316 191.995119 
L 192.560701 191.094373 
L 191.794067 189.018939 
z
" style="stroke:#000000;"/>
    <path clip-path="url(#pbf67af571d)" d="M 192.560701 163.180916 
L 191.866316 162.28223 
L 191.794067 165.258624 
z
" style="stroke:#000000;"/>
    <path clip-path="url(#pbf67af571d)" d="M 190.295451 165.266364 
L 191.154253 167.470182 
L 189.655294 167.476242 
z
" style="stroke:#000000;"/>
    <path clip-path="url(#pbf67af571d)" d="M 190.367739 191.982509 
L 191.049732 189.786505 
L 189.550717 189.775568 
z
" style="stroke:#000000;"/>
    <path clip-path="url(#pbf67af571d)" d="M 191.049732 189.786505 
L 190.367739 191.982509 
L 191.866316 191.995119 
z
" style="stroke:#000000;"/>
    <path clip-path="url(#pbf67af571d)" d="M 191.154253 167.470182 
L 190.295451 165.266364 
L 191.794067 165.258624 
z
" style="stroke:#000000;"/>
    <path clip-path="url(#pbf67af571d)" d="M 189.655294 167.476242 
L 188.86879 166.853692 
L 189.550717 164.501594 
z
" style="stroke:#000000;"/>
    <path clip-path="url(#pbf67af571d)" d="M 188.86879 187.42549 
L 189.655294 186.800611 
L 189.550717 189.775568 
z
" style="stroke:#000000;"/>
    <path clip-path="url(#pbf67af571d)" d="M 191.794067 189.018939 
L 189.655294 186.800611 
L 191.154253 186.809279 
z
" style="stroke:#000000;"/>
    <path clip-path="url(#pbf67af571d)" d="M 191.866316 162.28223 
L 189.550717 164.501594 
L 191.049732 164.493267 
z
" style="stroke:#000000;"/>
    <path clip-path="url(#pbf67af571d)" d="M 188.86879 166.853692 
L 189.655294 167.476242 
L 189.149468 169.795144 
z
" style="stroke:#000000;"/>
    <path clip-path="url(#pbf67af571d)" d="M 189.655294 186.800611 
L 188.86879 187.42549 
L 189.149468 184.483207 
z
" style="stroke:#000000;"/>
    <path clip-path="url(#pbf67af571d)" d="M 189.149468 184.483207 
L 191.154253 186.809279 
L 189.655294 186.800611 
z
" style="stroke:#000000;"/>
    <path clip-path="url(#pbf67af571d)" d="M 191.866316 191.995119 
L 191.794067 189.018939 
L 191.049732 189.786505 
z
" style="stroke:#000000;"/>
    <path clip-path="url(#pbf67af571d)" d="M 191.794067 165.258624 
L 191.866316 162.28223 
L 191.049732 164.493267 
z
" style="stroke:#000000;"/>
    <path clip-path="url(#pbf67af571d)" d="M 188.86879 166.853692 
L 191.049732 164.493267 
L 189.550717 164.501594 
z
" style="stroke:#000000;"/>
    <path clip-path="url(#pbf67af571d)" d="M 189.655294 167.476242 
L 190.648698 169.79085 
L 189.149468 169.795144 
z
" style="stroke:#000000;"/>
    <path clip-path="url(#pbf67af571d)" d="M 191.049732 189.786505 
L 191.794067 189.018939 
L 191.154253 186.809279 
z
" style="stroke:#000000;"/>
    <path clip-path="url(#pbf67af571d)" d="M 191.794067 165.258624 
L 191.049732 164.493267 
L 191.154253 167.470182 
z
" style="stroke:#000000;"/>
    <path clip-path="url(#pbf67af571d)" d="M 190.648698 169.79085 
L 189.655294 167.476242 
L 191.154253 167.470182 
z
" style="stroke:#000000;"/>
    <path clip-path="url(#pbf67af571d)" d="M 189.550717 189.775568 
L 190.36817 187.434641 
L 188.86879 187.42549 
z
" style="stroke:#000000;"/>
    <path clip-path="url(#pbf67af571d)" d="M 189.149468 169.795144 
L 188.329934 169.322058 
L 188.86879 166.853692 
z
" style="stroke:#000000;"/>
    <path clip-path="url(#pbf67af571d)" d="M 188.329934 184.95872 
L 189.149468 184.483207 
L 188.86879 187.42549 
z
" style="stroke:#000000;"/>
    <path clip-path="url(#pbf67af571d)" d="M 188.329934 169.322058 
L 189.149468 169.795144 
L 188.783878 172.196975 
z
" style="stroke:#000000;"/>
    <path clip-path="url(#pbf67af571d)" d="M 189.149468 184.483207 
L 188.329934 184.95872 
L 188.783878 182.082458 
z
" style="stroke:#000000;"/>
    <path clip-path="url(#pbf67af571d)" d="M 190.36817 187.434641 
L 189.550717 189.775568 
L 191.049732 189.786505 
z
" style="stroke:#000000;"/>
    <path clip-path="url(#pbf67af571d)" d="M 188.783878 182.082458 
L 190.648698 184.490112 
L 189.149468 184.483207 
z
" style="stroke:#000000;"/>
    <path clip-path="url(#pbf67af571d)" d="M 191.154253 186.809279 
L 189.149468 184.483207 
L 190.648698 184.490112 
z
" style="stroke:#000000;"/>
    <path clip-path="url(#pbf67af571d)" d="M 189.149468 169.795144 
L 190.283303 172.194512 
L 188.783878 172.196975 
z
" style="stroke:#000000;"/>
    <path clip-path="url(#pbf67af571d)" d="M 191.049732 164.493267 
L 188.86879 166.853692 
L 190.36817 166.847153 
z
" style="stroke:#000000;"/>
    <path clip-path="url(#pbf67af571d)" d="M 191.154253 186.809279 
L 190.36817 187.434641 
L 191.049732 189.786505 
z
" style="stroke:#000000;"/>
    <path clip-path="url(#pbf67af571d)" d="M 190.36817 166.847153 
L 191.154253 167.470182 
L 191.049732 164.493267 
z
" style="stroke:#000000;"/>
    <path clip-path="url(#pbf67af571d)" d="M 190.283303 172.194512 
L 189.149468 169.795144 
L 190.648698 169.79085 
z
" style="stroke:#000000;"/>
    <path clip-path="url(#pbf67af571d)" d="M 187.940447 171.878893 
L 188.783878 172.196975 
L 188.5628 174.654582 
z
" style="stroke:#000000;"/>
    <path clip-path="url(#pbf67af571d)" d="M 188.783878 182.082458 
L 187.940447 182.403038 
L 188.5628 179.625506 
z
" style="stroke:#000000;"/>
    <path clip-path="url(#pbf67af571d)" d="M 188.5628 179.625506 
L 190.283303 182.087534 
L 188.783878 182.082458 
z
" style="stroke:#000000;"/>
    <path clip-path="url(#pbf67af571d)" d="M 188.329934 169.322058 
L 190.36817 166.847153 
L 188.86879 166.853692 
z
" style="stroke:#000000;"/>
    <path clip-path="url(#pbf67af571d)" d="M 188.783878 172.196975 
L 187.940447 171.878893 
L 188.329934 169.322058 
z
" style="stroke:#000000;"/>
    <path clip-path="url(#pbf67af571d)" d="M 187.940447 182.403038 
L 188.783878 182.082458 
L 188.329934 184.95872 
z
" style="stroke:#000000;"/>
    <path clip-path="url(#pbf67af571d)" d="M 190.36817 187.434641 
L 191.154253 186.809279 
L 190.648698 184.490112 
z
" style="stroke:#000000;"/>
    <path clip-path="url(#pbf67af571d)" d="M 191.154253 167.470182 
L 190.36817 166.847153 
L 190.648698 169.79085 
z
" style="stroke:#000000;"/>
    <path clip-path="url(#pbf67af571d)" d="M 188.783878 172.196975 
L 190.062344 174.653993 
L 188.5628 174.654582 
z
" style="stroke:#000000;"/>
    <path clip-path="url(#pbf67af571d)" d="M 190.648698 184.490112 
L 188.783878 182.082458 
L 190.283303 182.087534 
z
" style="stroke:#000000;"/>
    <path clip-path="url(#pbf67af571d)" d="M 188.5628 179.625506 
L 187.704906 179.787381 
L 188.488815 177.140154 
z
" style="stroke:#000000;"/>
    <path clip-path="url(#pbf67af571d)" d="M 187.704906 174.495248 
L 188.5628 174.654582 
L 188.488815 177.140154 
z
" style="stroke:#000000;"/>
    <path clip-path="url(#pbf67af571d)" d="M 188.488815 177.140154 
L 190.062344 179.628709 
L 188.5628 179.625506 
z
" style="stroke:#000000;"/>
    <path clip-path="url(#pbf67af571d)" d="M 188.5628 174.654582 
L 189.988398 177.141461 
L 188.488815 177.140154 
z
" style="stroke:#000000;"/>
    <path clip-path="url(#pbf67af571d)" d="M 188.86879 187.42549 
L 189.829602 184.965993 
L 188.329934 184.95872 
z
" style="stroke:#000000;"/>
    <path clip-path="url(#pbf67af571d)" d="M 190.062344 174.653993 
L 188.783878 172.196975 
L 190.283303 172.194512 
z
" style="stroke:#000000;"/>
    <path clip-path="url(#pbf67af571d)" d="M 189.829602 184.965993 
L 188.86879 187.42549 
L 190.36817 187.434641 
z
" style="stroke:#000000;"/>
    <path clip-path="url(#pbf67af571d)" d="M 188.5628 174.654582 
L 187.704906 174.495248 
L 187.940447 171.878893 
z
" style="stroke:#000000;"/>
    <path clip-path="url(#pbf67af571d)" d="M 187.704906 179.787381 
L 188.5628 179.625506 
L 187.940447 182.403038 
z
" style="stroke:#000000;"/>
    <path clip-path="url(#pbf67af571d)" d="M 190.283303 182.087534 
L 188.5628 179.625506 
L 190.062344 179.628709 
z
" style="stroke:#000000;"/>
    <path clip-path="url(#pbf67af571d)" d="M 189.988398 177.141461 
L 188.5628 174.654582 
L 190.062344 174.653993 
z
" style="stroke:#000000;"/>
    <path clip-path="url(#pbf67af571d)" d="M 188.488815 177.140154 
L 187.626086 177.141431 
L 187.704906 174.495248 
z
" style="stroke:#000000;"/>
    <path clip-path="url(#pbf67af571d)" d="M 187.626086 177.141431 
L 188.488815 177.140154 
L 187.704906 179.787381 
z
" style="stroke:#000000;"/>
    <path clip-path="url(#pbf67af571d)" d="M 190.062344 179.628709 
L 188.488815 177.140154 
L 189.988398 177.141461 
z
" style="stroke:#000000;"/>
    <path clip-path="url(#pbf67af571d)" d="M 190.36817 166.847153 
L 188.329934 169.322058 
L 189.829602 169.3174 
z
" style="stroke:#000000;"/>
    <path clip-path="url(#pbf67af571d)" d="M 187.940447 171.878893 
L 189.829602 169.3174 
L 188.329934 169.322058 
z
" style="stroke:#000000;"/>
    <path clip-path="url(#pbf67af571d)" d="M 190.648698 184.490112 
L 189.829602 184.965993 
L 190.36817 187.434641 
z
" style="stroke:#000000;"/>
    <path clip-path="url(#pbf67af571d)" d="M 189.829602 169.3174 
L 190.648698 169.79085 
L 190.36817 166.847153 
z
" style="stroke:#000000;"/>
    <path clip-path="url(#pbf67af571d)" d="M 189.829602 184.965993 
L 190.648698 184.490112 
L 190.283303 182.087534 
z
" style="stroke:#000000;"/>
    <path clip-path="url(#pbf67af571d)" d="M 190.648698 169.79085 
L 189.829602 169.3174 
L 190.283303 172.194512 
z
" style="stroke:#000000;"/>
    <path clip-path="url(#pbf67af571d)" d="M 188.329934 184.95872 
L 189.440322 182.408363 
L 187.940447 182.403038 
z
" style="stroke:#000000;"/>
    <path clip-path="url(#pbf67af571d)" d="M 187.913805 161.259128 
L 186.473777 158.390612 
L 188.632478 160.951748 
z
" style="stroke:#000000;"/>
    <path clip-path="url(#pbf67af571d)" d="M 188.632478 160.951748 
L 186.473777 165.992987 
L 187.913805 161.259128 
z
" style="stroke:#000000;"/>
    <path clip-path="url(#pbf67af571d)" d="M 189.440322 182.408363 
L 188.329934 184.95872 
L 189.829602 184.965993 
z
" style="stroke:#000000;"/>
    <path clip-path="url(#pbf67af571d)" d="M 187.704906 174.495248 
L 189.440322 171.876185 
L 187.940447 171.878893 
z
" style="stroke:#000000;"/>
    <path clip-path="url(#pbf67af571d)" d="M 189.440322 182.408363 
L 190.283303 182.087534 
L 190.062344 179.628709 
z
" style="stroke:#000000;"/>
    <path clip-path="url(#pbf67af571d)" d="M 190.283303 172.194512 
L 189.440322 171.876185 
L 190.062344 174.653993 
z
" style="stroke:#000000;"/>
    <path clip-path="url(#pbf67af571d)" d="M 187.940447 182.403038 
L 189.204908 179.79071 
L 187.704906 179.787381 
z
" style="stroke:#000000;"/>
    <path clip-path="url(#pbf67af571d)" d="M 189.829602 169.3174 
L 187.940447 171.878893 
L 189.440322 171.876185 
z
" style="stroke:#000000;"/>
    <path clip-path="url(#pbf67af571d)" d="M 190.283303 182.087534 
L 189.440322 182.408363 
L 189.829602 184.965993 
z
" style="stroke:#000000;"/>
    <path clip-path="url(#pbf67af571d)" d="M 189.440322 171.876185 
L 190.283303 172.194512 
L 189.829602 169.3174 
z
" style="stroke:#000000;"/>
    <path clip-path="url(#pbf67af571d)" d="M 187.626086 177.141431 
L 189.204908 174.494536 
L 187.704906 174.495248 
z
" style="stroke:#000000;"/>
    <path clip-path="url(#pbf67af571d)" d="M 190.062344 174.653993 
L 189.204908 174.494536 
L 189.988398 177.141461 
z
" style="stroke:#000000;"/>
    <path clip-path="url(#pbf67af571d)" d="M 189.204908 179.79071 
L 190.062344 179.628709 
L 189.988398 177.141461 
z
" style="stroke:#000000;"/>
    <path clip-path="url(#pbf67af571d)" d="M 187.704906 179.787381 
L 189.126129 177.14274 
L 187.626086 177.141431 
z
" style="stroke:#000000;"/>
    <path clip-path="url(#pbf67af571d)" d="M 188.632478 160.951748 
L 187.974434 158.377592 
L 190.131985 160.940706 
z
" style="stroke:#000000;"/>
    <path clip-path="url(#pbf67af571d)" d="M 187.974434 168.521839 
L 188.632478 160.951748 
L 190.131985 160.940706 
z
" style="stroke:#000000;"/>
    <path clip-path="url(#pbf67af571d)" d="M 189.204908 179.79071 
L 187.940447 182.403038 
L 189.440322 182.408363 
z
" style="stroke:#000000;"/>
    <path clip-path="url(#pbf67af571d)" d="M 189.440322 171.876185 
L 187.704906 174.495248 
L 189.204908 174.494536 
z
" style="stroke:#000000;"/>
    <path clip-path="url(#pbf67af571d)" d="M 186.473777 165.992987 
L 188.632478 160.951748 
L 186.473777 168.527112 
z
" style="stroke:#000000;"/>
    <path clip-path="url(#pbf67af571d)" d="M 190.062344 179.628709 
L 189.204908 179.79071 
L 189.440322 182.408363 
z
" style="stroke:#000000;"/>
    <path clip-path="url(#pbf67af571d)" d="M 189.204908 174.494536 
L 190.062344 174.653993 
L 189.440322 171.876185 
z
" style="stroke:#000000;"/>
    <path clip-path="url(#pbf67af571d)" d="M 189.413695 161.248314 
L 186.473777 159.657675 
L 187.913805 161.259128 
z
" style="stroke:#000000;"/>
    <path clip-path="url(#pbf67af571d)" d="M 186.473777 165.992987 
L 189.413695 161.248314 
L 187.913805 161.259128 
z
" style="stroke:#000000;"/>
    <path clip-path="url(#pbf67af571d)" d="M 189.126129 177.14274 
L 187.704906 179.787381 
L 189.204908 179.79071 
z
" style="stroke:#000000;"/>
    <path clip-path="url(#pbf67af571d)" d="M 189.204908 174.494536 
L 187.626086 177.141431 
L 189.126129 177.14274 
z
" style="stroke:#000000;"/>
    <path clip-path="url(#pbf67af571d)" d="M 189.988398 177.141461 
L 189.126129 177.14274 
L 189.204908 179.79071 
z
" style="stroke:#000000;"/>
    <path clip-path="url(#pbf67af571d)" d="M 189.126129 177.14274 
L 189.988398 177.141461 
L 189.204908 174.494536 
z
" style="stroke:#000000;"/>
    <path clip-path="url(#pbf67af571d)" d="M 186.473777 158.390612 
L 187.913805 161.259128 
L 186.473777 159.657675 
z
" style="stroke:#000000;"/>
    <path clip-path="url(#pbf67af571d)" d="M 187.974434 158.377592 
L 188.632478 160.951748 
L 186.473777 158.390612 
z
" style="stroke:#000000;"/>
    <path clip-path="url(#pbf67af571d)" d="M 188.632478 160.951748 
L 187.974434 168.521839 
L 186.473777 168.527112 
z
" style="stroke:#000000;"/>
    <path clip-path="url(#pbf67af571d)" d="M 187.974434 165.985777 
L 190.131985 160.940706 
L 189.413695 161.248314 
z
" style="stroke:#000000;"/>
    <path clip-path="url(#pbf67af571d)" d="M 187.974434 158.377592 
L 189.413695 161.248314 
L 190.131985 160.940706 
z
" style="stroke:#000000;"/>
    <path clip-path="url(#pbf67af571d)" d="M 186.473777 159.657675 
L 189.413695 161.248314 
L 187.974434 159.645623 
z
" style="stroke:#000000;"/>
    <path clip-path="url(#pbf67af571d)" d="M 189.413695 161.248314 
L 186.473777 165.992987 
L 187.974434 165.985777 
z
" style="stroke:#000000;"/>
    <path clip-path="url(#pbf67af571d)" d="M 190.131985 160.940706 
L 187.974434 165.985777 
L 187.974434 168.521839 
z
" style="stroke:#000000;"/>
    <path clip-path="url(#pbf67af571d)" d="M 189.413695 161.248314 
L 187.974434 158.377592 
L 187.974434 159.645623 
z
" style="stroke:#000000;"/>
    <path clip-path="url(#pbf67af571d)" d="M 186.473777 158.390612 
L 186.473777 159.657675 
L 185.030162 161.223834 
z
" style="stroke:#000000;"/>
    <path clip-path="url(#pbf67af571d)" d="M 186.473777 165.992987 
L 186.473777 168.527112 
L 184.307004 160.897625 
z
" style="stroke:#000000;"/>
    <path clip-path="url(#pbf67af571d)" d="M 187.974434 159.645623 
L 185.030162 161.223834 
L 186.473777 159.657675 
z
" style="stroke:#000000;"/>
    <path clip-path="url(#pbf67af571d)" d="M 185.030162 161.223834 
L 187.974434 165.985777 
L 186.473777 165.992987 
z
" style="stroke:#000000;"/>
    <path clip-path="url(#pbf67af571d)" d="M 186.473777 158.390612 
L 185.030162 161.223834 
L 184.307004 160.897625 
z
" style="stroke:#000000;"/>
    <path clip-path="url(#pbf67af571d)" d="M 186.473777 165.992987 
L 184.307004 160.897625 
L 185.030162 161.223834 
z
" style="stroke:#000000;"/>
    <path clip-path="url(#pbf67af571d)" d="M 186.473777 158.390612 
L 185.80881 160.8865 
L 187.974434 158.377592 
z
" style="stroke:#000000;"/>
    <path clip-path="url(#pbf67af571d)" d="M 185.80881 160.8865 
L 186.473777 168.527112 
L 187.974434 168.521839 
z
" style="stroke:#000000;"/>
    <path clip-path="url(#pbf67af571d)" d="M 187.974434 158.377592 
L 186.531584 161.212966 
L 187.974434 159.645623 
z
" style="stroke:#000000;"/>
    <path clip-path="url(#pbf67af571d)" d="M 185.319172 177.144847 
L 184.451708 177.146131 
L 185.240027 174.493264 
z
" style="stroke:#000000;"/>
    <path clip-path="url(#pbf67af571d)" d="M 184.451708 177.146131 
L 185.319172 177.144847 
L 185.240027 179.796664 
z
" style="stroke:#000000;"/>
    <path clip-path="url(#pbf67af571d)" d="M 185.240027 174.493264 
L 186.820442 177.146161 
L 185.319172 177.144847 
z
" style="stroke:#000000;"/>
    <path clip-path="url(#pbf67af571d)" d="M 185.319172 177.144847 
L 186.741338 179.800007 
L 185.240027 179.796664 
z
" style="stroke:#000000;"/>
    <path clip-path="url(#pbf67af571d)" d="M 185.030162 161.223834 
L 187.974434 159.645623 
L 186.531584 161.212966 
z
" style="stroke:#000000;"/>
    <path clip-path="url(#pbf67af571d)" d="M 187.974434 165.985777 
L 185.030162 161.223834 
L 186.531584 161.212966 
z
" style="stroke:#000000;"/>
    <path clip-path="url(#pbf67af571d)" d="M 185.240027 174.493264 
L 184.377196 174.651787 
L 185.003386 171.86989 
z
" style="stroke:#000000;"/>
    <path clip-path="url(#pbf67af571d)" d="M 184.377196 179.640696 
L 185.240027 179.796664 
L 185.003386 182.420739 
z
" style="stroke:#000000;"/>
    <path clip-path="url(#pbf67af571d)" d="M 185.003386 171.86989 
L 186.741338 174.49255 
L 185.240027 174.493264 
z
" style="stroke:#000000;"/>
    <path clip-path="url(#pbf67af571d)" d="M 187.974434 165.985777 
L 185.80881 160.8865 
L 187.974434 168.521839 
z
" style="stroke:#000000;"/>
    <path clip-path="url(#pbf67af571d)" d="M 185.240027 179.796664 
L 186.504823 182.42609 
L 185.003386 182.420739 
z
" style="stroke:#000000;"/>
    <path clip-path="url(#pbf67af571d)" d="M 185.80881 160.8865 
L 186.473777 158.390612 
L 184.307004 160.897625 
z
" style="stroke:#000000;"/>
    <path clip-path="url(#pbf67af571d)" d="M 186.473777 168.527112 
L 185.80881 160.8865 
L 184.307004 160.897625 
z
" style="stroke:#000000;"/>
    <path clip-path="url(#pbf67af571d)" d="M 186.741338 179.800007 
L 185.319172 177.144847 
L 186.820442 177.146161 
z
" style="stroke:#000000;"/>
    <path clip-path="url(#pbf67af571d)" d="M 185.240027 179.796664 
L 184.377196 179.640696 
L 184.451708 177.146131 
z
" style="stroke:#000000;"/>
    <path clip-path="url(#pbf67af571d)" d="M 184.377196 174.651787 
L 185.240027 174.493264 
L 184.451708 177.146131 
z
" style="stroke:#000000;"/>
    <path clip-path="url(#pbf67af571d)" d="M 186.820442 177.146161 
L 185.240027 174.493264 
L 186.741338 174.49255 
z
" style="stroke:#000000;"/>
    <path clip-path="url(#pbf67af571d)" d="M 185.003386 171.86989 
L 184.154431 172.184048 
L 184.611656 169.302441 
z
" style="stroke:#000000;"/>
    <path clip-path="url(#pbf67af571d)" d="M 184.154431 182.109095 
L 185.003386 182.420739 
L 184.611656 184.989348 
z
" style="stroke:#000000;"/>
    <path clip-path="url(#pbf67af571d)" d="M 184.611656 169.302441 
L 186.504823 171.867168 
L 185.003386 171.86989 
z
" style="stroke:#000000;"/>
    <path clip-path="url(#pbf67af571d)" d="M 186.504823 182.42609 
L 185.240027 179.796664 
L 186.741338 179.800007 
z
" style="stroke:#000000;"/>
    <path clip-path="url(#pbf67af571d)" d="M 184.154431 172.184048 
L 185.003386 171.86989 
L 184.377196 174.651787 
z
" style="stroke:#000000;"/>
    <path clip-path="url(#pbf67af571d)" d="M 185.003386 182.420739 
L 184.154431 182.109095 
L 184.377196 179.640696 
z
" style="stroke:#000000;"/>
    <path clip-path="url(#pbf67af571d)" d="M 186.741338 174.49255 
L 185.003386 171.86989 
L 186.504823 171.867168 
z
" style="stroke:#000000;"/>
    <path clip-path="url(#pbf67af571d)" d="M 185.003386 182.420739 
L 186.1133 184.996668 
L 184.611656 184.989348 
z
" style="stroke:#000000;"/>
    <path clip-path="url(#pbf67af571d)" d="M 185.80881 160.8865 
L 187.974434 165.985777 
L 186.531584 161.212966 
z
" style="stroke:#000000;"/>
    <path clip-path="url(#pbf67af571d)" d="M 186.531584 161.212966 
L 187.974434 158.377592 
L 185.80881 160.8865 
z
" style="stroke:#000000;"/>
    <path clip-path="url(#pbf67af571d)" d="M 186.1133 184.996668 
L 185.003386 182.420739 
L 186.504823 182.42609 
z
" style="stroke:#000000;"/>
    <path clip-path="url(#pbf67af571d)" d="M 183.785675 169.76902 
L 184.611656 169.302441 
L 184.154431 172.184048 
z
" style="stroke:#000000;"/>
    <path clip-path="url(#pbf67af571d)" d="M 184.611656 184.989348 
L 183.785675 184.525215 
L 184.154431 182.109095 
z
" style="stroke:#000000;"/>
    <path clip-path="url(#pbf67af571d)" d="M 184.611656 169.302441 
L 183.785675 169.76902 
L 184.068825 166.818112 
z
" style="stroke:#000000;"/>
    <path clip-path="url(#pbf67af571d)" d="M 183.785675 184.525215 
L 184.611656 184.989348 
L 184.068825 187.475284 
z
" style="stroke:#000000;"/>
    <path clip-path="url(#pbf67af571d)" d="M 186.504823 171.867168 
L 184.611656 169.302441 
L 186.1133 169.297753 
z
" style="stroke:#000000;"/>
    <path clip-path="url(#pbf67af571d)" d="M 184.068825 166.818112 
L 186.1133 169.297753 
L 184.611656 169.302441 
z
" style="stroke:#000000;"/>
    <path clip-path="url(#pbf67af571d)" d="M 184.377196 179.640696 
L 185.953437 177.147447 
L 184.451708 177.146131 
z
" style="stroke:#000000;"/>
    <path clip-path="url(#pbf67af571d)" d="M 186.820442 177.146161 
L 185.953437 177.147447 
L 186.741338 179.800007 
z
" style="stroke:#000000;"/>
    <path clip-path="url(#pbf67af571d)" d="M 185.953437 177.147447 
L 186.820442 177.146161 
L 186.741338 174.49255 
z
" style="stroke:#000000;"/>
    <path clip-path="url(#pbf67af571d)" d="M 184.451708 177.146131 
L 185.878964 174.651194 
L 184.377196 174.651787 
z
" style="stroke:#000000;"/>
    <path clip-path="url(#pbf67af571d)" d="M 184.154431 182.109095 
L 185.878964 179.643922 
L 184.377196 179.640696 
z
" style="stroke:#000000;"/>
    <path clip-path="url(#pbf67af571d)" d="M 186.741338 179.800007 
L 185.878964 179.643922 
L 186.504823 182.42609 
z
" style="stroke:#000000;"/>
    <path clip-path="url(#pbf67af571d)" d="M 185.878964 174.651194 
L 186.741338 174.49255 
L 186.504823 171.867168 
z
" style="stroke:#000000;"/>
    <path clip-path="url(#pbf67af571d)" d="M 184.611656 184.989348 
L 185.570756 187.484511 
L 184.068825 187.475284 
z
" style="stroke:#000000;"/>
    <path clip-path="url(#pbf67af571d)" d="M 184.377196 174.651787 
L 185.656317 172.181564 
L 184.154431 172.184048 
z
" style="stroke:#000000;"/>
    <path clip-path="url(#pbf67af571d)" d="M 185.570756 187.484511 
L 184.611656 184.989348 
L 186.1133 184.996668 
z
" style="stroke:#000000;"/>
    <path clip-path="url(#pbf67af571d)" d="M 185.878964 174.651194 
L 184.451708 177.146131 
L 185.953437 177.147447 
z
" style="stroke:#000000;"/>
    <path clip-path="url(#pbf67af571d)" d="M 185.953437 177.147447 
L 184.377196 179.640696 
L 185.878964 179.643922 
z
" style="stroke:#000000;"/>
    <path clip-path="url(#pbf67af571d)" d="M 186.741338 174.49255 
L 185.878964 174.651194 
L 185.953437 177.147447 
z
" style="stroke:#000000;"/>
    <path clip-path="url(#pbf67af571d)" d="M 185.878964 179.643922 
L 186.741338 179.800007 
L 185.953437 177.147447 
z
" style="stroke:#000000;"/>
    <path clip-path="url(#pbf67af571d)" d="M 183.785675 184.525215 
L 185.656317 182.114212 
L 184.154431 182.109095 
z
" style="stroke:#000000;"/>
    <path clip-path="url(#pbf67af571d)" d="M 185.656317 172.181564 
L 184.377196 174.651787 
L 185.878964 174.651194 
z
" style="stroke:#000000;"/>
    <path clip-path="url(#pbf67af571d)" d="M 183.274697 167.432351 
L 184.068825 166.818112 
L 183.785675 169.76902 
z
" style="stroke:#000000;"/>
    <path clip-path="url(#pbf67af571d)" d="M 184.068825 187.475284 
L 183.274697 186.863397 
L 183.785675 184.525215 
z
" style="stroke:#000000;"/>
    <path clip-path="url(#pbf67af571d)" d="M 186.504823 182.42609 
L 185.656317 182.114212 
L 186.1133 184.996668 
z
" style="stroke:#000000;"/>
    <path clip-path="url(#pbf67af571d)" d="M 185.656317 172.181564 
L 186.504823 171.867168 
L 186.1133 169.297753 
z
" style="stroke:#000000;"/>
    <path clip-path="url(#pbf67af571d)" d="M 186.1133 169.297753 
L 184.068825 166.818112 
L 185.570756 166.811519 
z
" style="stroke:#000000;"/>
    <path clip-path="url(#pbf67af571d)" d="M 185.878964 179.643922 
L 184.154431 182.109095 
L 185.656317 182.114212 
z
" style="stroke:#000000;"/>
    <path clip-path="url(#pbf67af571d)" d="M 185.656317 182.114212 
L 186.504823 182.42609 
L 185.878964 179.643922 
z
" style="stroke:#000000;"/>
    <path clip-path="url(#pbf67af571d)" d="M 186.504823 171.867168 
L 185.656317 172.181564 
L 185.878964 174.651194 
z
" style="stroke:#000000;"/>
    <path clip-path="url(#pbf67af571d)" d="M 184.154431 172.184048 
L 185.287755 169.764686 
L 183.785675 169.76902 
z
" style="stroke:#000000;"/>
    <path clip-path="url(#pbf67af571d)" d="M 184.068825 166.818112 
L 183.274697 167.432351 
L 183.380412 164.443275 
z
" style="stroke:#000000;"/>
    <path clip-path="url(#pbf67af571d)" d="M 183.274697 186.863397 
L 184.068825 187.475284 
L 183.380412 189.85216 
z
" style="stroke:#000000;"/>
    <path clip-path="url(#pbf67af571d)" d="M 183.380412 164.443275 
L 185.570756 166.811519 
L 184.068825 166.818112 
z
" style="stroke:#000000;"/>
    <path clip-path="url(#pbf67af571d)" d="M 185.287755 169.764686 
L 184.154431 172.184048 
L 185.656317 172.181564 
z
" style="stroke:#000000;"/>
    <path clip-path="url(#pbf67af571d)" d="M 183.274697 186.863397 
L 185.287755 184.532184 
L 183.785675 184.525215 
z
" style="stroke:#000000;"/>
    <path clip-path="url(#pbf67af571d)" d="M 185.656317 182.114212 
L 183.785675 184.525215 
L 185.287755 184.532184 
z
" style="stroke:#000000;"/>
    <path clip-path="url(#pbf67af571d)" d="M 184.068825 187.475284 
L 184.882707 189.863214 
L 183.380412 189.85216 
z
" style="stroke:#000000;"/>
    <path clip-path="url(#pbf67af571d)" d="M 185.287755 184.532184 
L 186.1133 184.996668 
L 185.656317 182.114212 
z
" style="stroke:#000000;"/>
    <path clip-path="url(#pbf67af571d)" d="M 186.1133 169.297753 
L 185.287755 169.764686 
L 185.656317 172.181564 
z
" style="stroke:#000000;"/>
    <path clip-path="url(#pbf67af571d)" d="M 186.1133 184.996668 
L 185.287755 184.532184 
L 185.570756 187.484511 
z
" style="stroke:#000000;"/>
    <path clip-path="url(#pbf67af571d)" d="M 185.287755 169.764686 
L 186.1133 169.297753 
L 185.570756 166.811519 
z
" style="stroke:#000000;"/>
    <path clip-path="url(#pbf67af571d)" d="M 184.882707 189.863214 
L 184.068825 187.475284 
L 185.570756 187.484511 
z
" style="stroke:#000000;"/>
    <path clip-path="url(#pbf67af571d)" d="M 183.785675 169.76902 
L 184.777048 167.426224 
L 183.274697 167.432351 
z
" style="stroke:#000000;"/>
    <path clip-path="url(#pbf67af571d)" d="M 182.626733 165.198912 
L 183.380412 164.443275 
L 183.274697 167.432351 
z
" style="stroke:#000000;"/>
    <path clip-path="url(#pbf67af571d)" d="M 183.380412 189.85216 
L 182.626733 189.098755 
L 183.274697 186.863397 
z
" style="stroke:#000000;"/>
    <path clip-path="url(#pbf67af571d)" d="M 184.777048 167.426224 
L 183.785675 169.76902 
L 185.287755 169.764686 
z
" style="stroke:#000000;"/>
    <path clip-path="url(#pbf67af571d)" d="M 185.570756 166.811519 
L 183.380412 164.443275 
L 184.882707 164.434858 
z
" style="stroke:#000000;"/>
    <path clip-path="url(#pbf67af571d)" d="M 183.380412 164.443275 
L 182.626733 165.198912 
L 182.553473 162.203378 
z
" style="stroke:#000000;"/>
    <path clip-path="url(#pbf67af571d)" d="M 182.626733 189.098755 
L 183.380412 189.85216 
L 182.553473 192.094506 
z
" style="stroke:#000000;"/>
    <path clip-path="url(#pbf67af571d)" d="M 185.287755 184.532184 
L 183.274697 186.863397 
L 184.777048 186.872162 
z
" style="stroke:#000000;"/>
    <path clip-path="url(#pbf67af571d)" d="M 184.777048 186.872162 
L 185.570756 187.484511 
L 185.287755 184.532184 
z
" style="stroke:#000000;"/>
    <path clip-path="url(#pbf67af571d)" d="M 185.570756 166.811519 
L 184.777048 167.426224 
L 185.287755 169.764686 
z
" style="stroke:#000000;"/>
    <path clip-path="url(#pbf67af571d)" d="M 182.553473 162.203378 
L 184.882707 164.434858 
L 183.380412 164.443275 
z
" style="stroke:#000000;"/>
    <path clip-path="url(#pbf67af571d)" d="M 182.626733 189.098755 
L 184.777048 186.872162 
L 183.274697 186.863397 
z
" style="stroke:#000000;"/>
    <path clip-path="url(#pbf67af571d)" d="M 185.570756 187.484511 
L 184.777048 186.872162 
L 184.882707 189.863214 
z
" style="stroke:#000000;"/>
    <path clip-path="url(#pbf67af571d)" d="M 184.777048 167.426224 
L 185.570756 166.811519 
L 184.882707 164.434858 
z
" style="stroke:#000000;"/>
    <path clip-path="url(#pbf67af571d)" d="M 183.274697 167.432351 
L 184.129425 165.19107 
L 182.626733 165.198912 
z
" style="stroke:#000000;"/>
    <path clip-path="url(#pbf67af571d)" d="M 183.380412 189.85216 
L 184.056203 192.107287 
L 182.553473 192.094506 
z
" style="stroke:#000000;"/>
    <path clip-path="url(#pbf67af571d)" d="M 184.056203 192.107287 
L 183.380412 189.85216 
L 184.882707 189.863214 
z
" style="stroke:#000000;"/>
    <path clip-path="url(#pbf67af571d)" d="M 184.129425 165.19107 
L 183.274697 167.432351 
L 184.777048 167.426224 
z
" style="stroke:#000000;"/>
    <path clip-path="url(#pbf67af571d)" d="M 182.553473 162.203378 
L 182.626733 165.198912 
L 181.848432 163.092562 
z
" style="stroke:#000000;"/>
    <path clip-path="url(#pbf67af571d)" d="M 182.626733 189.098755 
L 182.553473 192.094506 
L 181.848432 191.20741 
z
" style="stroke:#000000;"/>
    <path clip-path="url(#pbf67af571d)" d="M 184.777048 186.872162 
L 182.626733 189.098755 
L 184.129425 189.109238 
z
" style="stroke:#000000;"/>
    <path clip-path="url(#pbf67af571d)" d="M 184.882707 164.434858 
L 182.553473 162.203378 
L 184.056203 162.193238 
z
" style="stroke:#000000;"/>
    <path clip-path="url(#pbf67af571d)" d="M 184.129425 189.109238 
L 184.882707 189.863214 
L 184.777048 186.872162 
z
" style="stroke:#000000;"/>
    <path clip-path="url(#pbf67af571d)" d="M 184.882707 164.434858 
L 184.129425 165.19107 
L 184.777048 167.426224 
z
" style="stroke:#000000;"/>
    <path clip-path="url(#pbf67af571d)" d="M 181.848432 191.20741 
L 184.129425 189.109238 
L 182.626733 189.098755 
z
" style="stroke:#000000;"/>
    <path clip-path="url(#pbf67af571d)" d="M 182.553473 162.203378 
L 181.848432 163.092562 
L 181.596494 160.122361 
z
" style="stroke:#000000;"/>
    <path clip-path="url(#pbf67af571d)" d="M 181.848432 191.20741 
L 182.553473 192.094506 
L 181.596494 194.178357 
z
" style="stroke:#000000;"/>
    <path clip-path="url(#pbf67af571d)" d="M 184.882707 189.863214 
L 184.129425 189.109238 
L 184.056203 192.107287 
z
" style="stroke:#000000;"/>
    <path clip-path="url(#pbf67af571d)" d="M 184.129425 165.19107 
L 184.882707 164.434858 
L 184.056203 162.193238 
z
" style="stroke:#000000;"/>
    <path clip-path="url(#pbf67af571d)" d="M 181.596494 160.122361 
L 184.056203 162.193238 
L 182.553473 162.203378 
z
" style="stroke:#000000;"/>
    <path clip-path="url(#pbf67af571d)" d="M 182.626733 165.198912 
L 183.351533 163.083098 
L 181.848432 163.092562 
z
" style="stroke:#000000;"/>
    <path clip-path="url(#pbf67af571d)" d="M 183.351533 163.083098 
L 182.626733 165.198912 
L 184.129425 165.19107 
z
" style="stroke:#000000;"/>
    <path clip-path="url(#pbf67af571d)" d="M 183.099728 194.192747 
L 182.553473 192.094506 
L 184.056203 192.107287 
z
" style="stroke:#000000;"/>
    <path clip-path="url(#pbf67af571d)" d="M 182.553473 192.094506 
L 183.099728 194.192747 
L 181.596494 194.178357 
z
" style="stroke:#000000;"/>
    <path clip-path="url(#pbf67af571d)" d="M 184.129425 189.109238 
L 181.848432 191.20741 
L 183.351533 191.219518 
z
" style="stroke:#000000;"/>
    <path clip-path="url(#pbf67af571d)" d="M 181.596494 160.122361 
L 181.848432 163.092562 
L 180.947821 161.136083 
z
" style="stroke:#000000;"/>
    <path clip-path="url(#pbf67af571d)" d="M 181.848432 191.20741 
L 181.596494 194.178357 
L 180.947821 193.166556 
z
" style="stroke:#000000;"/>
    <path clip-path="url(#pbf67af571d)" d="M 184.056203 192.107287 
L 184.129425 189.109238 
L 183.351533 191.219518 
z
" style="stroke:#000000;"/>
    <path clip-path="url(#pbf67af571d)" d="M 184.129425 165.19107 
L 184.056203 162.193238 
L 183.351533 163.083098 
z
" style="stroke:#000000;"/>
    <path clip-path="url(#pbf67af571d)" d="M 184.056203 162.193238 
L 181.596494 160.122361 
L 183.099728 160.110616 
z
" style="stroke:#000000;"/>
    <path clip-path="url(#pbf67af571d)" d="M 180.947821 193.166556 
L 183.351533 191.219518 
L 181.848432 191.20741 
z
" style="stroke:#000000;"/>
    <path clip-path="url(#pbf67af571d)" d="M 181.058169 159.173072 
L 183.099728 160.110616 
L 181.596494 160.122361 
z
" style="stroke:#000000;"/>
    <path clip-path="url(#pbf67af571d)" d="M 181.596494 160.122361 
L 180.677657 159.506994 
L 181.058169 159.173072 
z
" style="stroke:#000000;"/>
    <path clip-path="url(#pbf67af571d)" d="M 180.677657 194.796445 
L 181.596494 194.178357 
L 181.058169 195.12924 
z
" style="stroke:#000000;"/>
    <path clip-path="url(#pbf67af571d)" d="M 184.056203 192.107287 
L 183.351533 191.219518 
L 183.099728 194.192747 
z
" style="stroke:#000000;"/>
    <path clip-path="url(#pbf67af571d)" d="M 183.351533 163.083098 
L 184.056203 162.193238 
L 183.099728 160.110616 
z
" style="stroke:#000000;"/>
    <path clip-path="url(#pbf67af571d)" d="M 180.677657 159.506994 
L 181.596494 160.122361 
L 180.947821 161.136083 
z
" style="stroke:#000000;"/>
    <path clip-path="url(#pbf67af571d)" d="M 181.596494 194.178357 
L 180.677657 194.796445 
L 180.947821 193.166556 
z
" style="stroke:#000000;"/>
    <path clip-path="url(#pbf67af571d)" d="M 182.451395 161.125109 
L 181.848432 163.092562 
L 183.351533 163.083098 
z
" style="stroke:#000000;"/>
    <path clip-path="url(#pbf67af571d)" d="M 181.848432 163.092562 
L 182.451395 161.125109 
L 180.947821 161.136083 
z
" style="stroke:#000000;"/>
    <path clip-path="url(#pbf67af571d)" d="M 181.596494 194.178357 
L 182.561685 195.144368 
L 181.058169 195.12924 
z
" style="stroke:#000000;"/>
    <path clip-path="url(#pbf67af571d)" d="M 182.561685 195.144368 
L 181.596494 194.178357 
L 183.099728 194.192747 
z
" style="stroke:#000000;"/>
    <path clip-path="url(#pbf67af571d)" d="M 183.351533 191.219518 
L 180.947821 193.166556 
L 182.451395 193.180178 
z
" style="stroke:#000000;"/>
    <path clip-path="url(#pbf67af571d)" d="M 183.099728 160.110616 
L 181.058169 159.173072 
L 182.561685 159.160592 
z
" style="stroke:#000000;"/>
    <path clip-path="url(#pbf67af571d)" d="M 180.677657 159.506994 
L 180.947821 161.136083 
L 180.277743 159.955727 
z
" style="stroke:#000000;"/>
    <path clip-path="url(#pbf67af571d)" d="M 180.947821 193.166556 
L 180.677657 194.796445 
L 180.277743 194.348896 
z
" style="stroke:#000000;"/>
    <path clip-path="url(#pbf67af571d)" d="M 182.561685 195.144368 
L 180.677657 194.796445 
L 181.058169 195.12924 
z
" style="stroke:#000000;"/>
    <path clip-path="url(#pbf67af571d)" d="M 183.099728 194.192747 
L 183.351533 191.219518 
L 182.451395 193.180178 
z
" style="stroke:#000000;"/>
    <path clip-path="url(#pbf67af571d)" d="M 183.351533 163.083098 
L 183.099728 160.110616 
L 182.451395 161.125109 
z
" style="stroke:#000000;"/>
    <path clip-path="url(#pbf67af571d)" d="M 182.181372 159.494767 
L 181.058169 159.173072 
L 180.677657 159.506994 
z
" style="stroke:#000000;"/>
    <path clip-path="url(#pbf67af571d)" d="M 182.451395 161.125109 
L 180.277743 159.955727 
L 180.947821 161.136083 
z
" style="stroke:#000000;"/>
    <path clip-path="url(#pbf67af571d)" d="M 181.058169 159.173072 
L 182.181372 159.494767 
L 182.561685 159.160592 
z
" style="stroke:#000000;"/>
    <path clip-path="url(#pbf67af571d)" d="M 182.181372 194.811322 
L 180.277743 194.348896 
L 180.677657 194.796445 
z
" style="stroke:#000000;"/>
    <path clip-path="url(#pbf67af571d)" d="M 183.099728 194.192747 
L 182.181372 194.811322 
L 182.561685 195.144368 
z
" style="stroke:#000000;"/>
    <path clip-path="url(#pbf67af571d)" d="M 182.181372 159.494767 
L 183.099728 160.110616 
L 182.561685 159.160592 
z
" style="stroke:#000000;"/>
    <path clip-path="url(#pbf67af571d)" d="M 180.677657 194.796445 
L 182.561685 195.144368 
L 182.181372 194.811322 
z
" style="stroke:#000000;"/>
    <path clip-path="url(#pbf67af571d)" d="M 181.781667 194.363434 
L 180.947821 193.166556 
L 180.277743 194.348896 
z
" style="stroke:#000000;"/>
    <path clip-path="url(#pbf67af571d)" d="M 182.181372 194.811322 
L 183.099728 194.192747 
L 182.451395 193.180178 
z
" style="stroke:#000000;"/>
    <path clip-path="url(#pbf67af571d)" d="M 183.099728 160.110616 
L 182.181372 159.494767 
L 182.451395 161.125109 
z
" style="stroke:#000000;"/>
    <path clip-path="url(#pbf67af571d)" d="M 180.947821 193.166556 
L 181.781667 194.363434 
L 182.451395 193.180178 
z
" style="stroke:#000000;"/>
    <path clip-path="url(#pbf67af571d)" d="M 181.781667 159.94384 
L 180.677657 159.506994 
L 180.277743 159.955727 
z
" style="stroke:#000000;"/>
    <path clip-path="url(#pbf67af571d)" d="M 180.677657 159.506994 
L 181.781667 159.94384 
L 182.181372 159.494767 
z
" style="stroke:#000000;"/>
    <path clip-path="url(#pbf67af571d)" d="M 180.277743 159.955727 
L 182.451395 161.125109 
L 181.781667 159.94384 
z
" style="stroke:#000000;"/>
    <path clip-path="url(#pbf67af571d)" d="M 180.277743 194.348896 
L 182.181372 194.811322 
L 181.781667 194.363434 
z
" style="stroke:#000000;"/>
    <path clip-path="url(#pbf67af571d)" d="M 182.181372 194.811322 
L 182.451395 193.180178 
L 181.781667 194.363434 
z
" style="stroke:#000000;"/>
    <path clip-path="url(#pbf67af571d)" d="M 182.451395 161.125109 
L 182.181372 159.494767 
L 181.781667 159.94384 
z
" style="stroke:#000000;"/>
   </g>
  </g>
 </g>
 <defs>
  <clipPath id="pbf67af571d">
   <rect height="271.8" width="279" x="45" y="43.2"/>
  </clipPath>
 </defs>
</svg>
