<?xml version="1.0" encoding="utf-8" standalone="no"?>
<!DOCTYPE svg PUBLIC "-//W3C//DTD SVG 1.1//EN"
  "http://www.w3.org/Graphics/SVG/1.1/DTD/svg11.dtd">
<!-- Created with matplotlib (https://matplotlib.org/) -->
<svg height="360pt" version="1.1" viewBox="0 0 360 360" width="360pt" xmlns="http://www.w3.org/2000/svg" xmlns:xlink="http://www.w3.org/1999/xlink">
 <defs>
  <style type="text/css">
*{stroke-linecap:butt;stroke-linejoin:round;}
  </style>
 </defs>
 <g id="figure_1">
  <g id="patch_1">
   <path d="M 0 360 
L 360 360 
L 360 0 
L 0 0 
z
" style="fill:#ffffff;"/>
  </g>
  <g id="patch_2">
   <path d="M 45 315 
L 324 315 
L 324 43.2 
L 45 43.2 
z
" style="fill:#ffffff;"/>
  </g>
  <g id="axes_1">
   <g id="Poly3DCollection_1">
    <path clip-path="url(#p3779ad3473)" d="M 195.698005 161.250325 
L 196.075651 159.640211 
L 196.634145 160.093744 
z
" style="stroke:#000000;"/>
    <path clip-path="url(#p3779ad3473)" d="M 196.075651 194.634363 
L 195.698005 193.024745 
L 196.634145 194.180097 
z
" style="stroke:#000000;"/>
    <path clip-path="url(#p3779ad3473)" d="M 194.790098 160.230951 
L 196.075651 159.640211 
L 195.698005 161.250325 
z
" style="stroke:#000000;"/>
    <path clip-path="url(#p3779ad3473)" d="M 196.075651 194.634363 
L 194.790098 194.045313 
L 195.698005 193.024745 
z
" style="stroke:#000000;"/>
    <path clip-path="url(#p3779ad3473)" d="M 197.586714 194.200418 
L 196.075651 194.634363 
L 196.634145 194.180097 
z
" style="stroke:#000000;"/>
    <path clip-path="url(#p3779ad3473)" d="M 196.075651 159.640211 
L 194.790098 160.230951 
L 195.543674 159.300523 
z
" style="stroke:#000000;"/>
    <path clip-path="url(#p3779ad3473)" d="M 194.790098 194.045313 
L 196.075651 194.634363 
L 195.543674 194.97475 
z
" style="stroke:#000000;"/>
    <path clip-path="url(#p3779ad3473)" d="M 197.586714 160.077129 
L 195.698005 161.250325 
L 196.634145 160.093744 
z
" style="stroke:#000000;"/>
    <path clip-path="url(#p3779ad3473)" d="M 197.027818 159.623101 
L 196.634145 160.093744 
L 196.075651 159.640211 
z
" style="stroke:#000000;"/>
    <path clip-path="url(#p3779ad3473)" d="M 196.649901 193.043821 
L 196.634145 194.180097 
L 195.698005 193.024745 
z
" style="stroke:#000000;"/>
    <path clip-path="url(#p3779ad3473)" d="M 194.790098 160.230951 
L 195.698005 161.250325 
L 194.437033 163.175765 
z
" style="stroke:#000000;"/>
    <path clip-path="url(#p3779ad3473)" d="M 195.698005 193.024745 
L 194.790098 194.045313 
L 194.437033 191.100962 
z
" style="stroke:#000000;"/>
    <path clip-path="url(#p3779ad3473)" d="M 197.027818 194.655181 
L 195.543674 194.97475 
L 196.075651 194.634363 
z
" style="stroke:#000000;"/>
    <path clip-path="url(#p3779ad3473)" d="M 196.495459 159.283041 
L 196.075651 159.640211 
L 195.543674 159.300523 
z
" style="stroke:#000000;"/>
    <path clip-path="url(#p3779ad3473)" d="M 196.634145 160.093744 
L 197.027818 159.623101 
L 197.586714 160.077129 
z
" style="stroke:#000000;"/>
    <path clip-path="url(#p3779ad3473)" d="M 196.634145 194.180097 
L 196.649901 193.043821 
L 197.586714 194.200418 
z
" style="stroke:#000000;"/>
    <path clip-path="url(#p3779ad3473)" d="M 196.075651 194.634363 
L 197.586714 194.200418 
L 197.027818 194.655181 
z
" style="stroke:#000000;"/>
    <path clip-path="url(#p3779ad3473)" d="M 194.790098 160.230951 
L 196.495459 159.283041 
L 195.543674 159.300523 
z
" style="stroke:#000000;"/>
    <path clip-path="url(#p3779ad3473)" d="M 194.437033 191.100962 
L 196.649901 193.043821 
L 195.698005 193.024745 
z
" style="stroke:#000000;"/>
    <path clip-path="url(#p3779ad3473)" d="M 194.790098 160.230951 
L 194.437033 163.175765 
L 193.447669 162.279627 
z
" style="stroke:#000000;"/>
    <path clip-path="url(#p3779ad3473)" d="M 194.437033 191.100962 
L 194.790098 194.045313 
L 193.447669 191.998399 
z
" style="stroke:#000000;"/>
    <path clip-path="url(#p3779ad3473)" d="M 195.698005 161.250325 
L 197.586714 160.077129 
L 196.649901 161.234958 
z
" style="stroke:#000000;"/>
    <path clip-path="url(#p3779ad3473)" d="M 195.543674 194.97475 
L 195.741342 194.065502 
L 194.790098 194.045313 
z
" style="stroke:#000000;"/>
    <path clip-path="url(#p3779ad3473)" d="M 196.075651 159.640211 
L 196.495459 159.283041 
L 197.027818 159.623101 
z
" style="stroke:#000000;"/>
    <path clip-path="url(#p3779ad3473)" d="M 195.698005 161.250325 
L 195.388023 163.162479 
L 194.437033 163.175765 
z
" style="stroke:#000000;"/>
    <path clip-path="url(#p3779ad3473)" d="M 195.543674 194.97475 
L 197.027818 194.655181 
L 196.495459 194.995941 
z
" style="stroke:#000000;"/>
    <path clip-path="url(#p3779ad3473)" d="M 193.447669 162.279627 
L 194.437033 163.175765 
L 193.344753 165.256847 
z
" style="stroke:#000000;"/>
    <path clip-path="url(#p3779ad3473)" d="M 194.437033 191.100962 
L 193.447669 191.998399 
L 193.344753 189.021315 
z
" style="stroke:#000000;"/>
    <path clip-path="url(#p3779ad3473)" d="M 195.741342 194.065502 
L 195.543674 194.97475 
L 196.495459 194.995941 
z
" style="stroke:#000000;"/>
    <path clip-path="url(#p3779ad3473)" d="M 193.447669 162.279627 
L 195.741342 160.214472 
L 194.790098 160.230951 
z
" style="stroke:#000000;"/>
    <path clip-path="url(#p3779ad3473)" d="M 195.388023 163.162479 
L 195.698005 161.250325 
L 196.649901 161.234958 
z
" style="stroke:#000000;"/>
    <path clip-path="url(#p3779ad3473)" d="M 196.649901 193.043821 
L 197.027818 194.655181 
L 197.586714 194.200418 
z
" style="stroke:#000000;"/>
    <path clip-path="url(#p3779ad3473)" d="M 197.027818 159.623101 
L 196.649901 161.234958 
L 197.586714 160.077129 
z
" style="stroke:#000000;"/>
    <path clip-path="url(#p3779ad3473)" d="M 196.495459 159.283041 
L 194.790098 160.230951 
L 195.741342 160.214472 
z
" style="stroke:#000000;"/>
    <path clip-path="url(#p3779ad3473)" d="M 193.344753 189.021315 
L 195.388023 191.11796 
L 194.437033 191.100962 
z
" style="stroke:#000000;"/>
    <path clip-path="url(#p3779ad3473)" d="M 193.447669 162.279627 
L 193.344753 165.256847 
L 192.284757 164.493963 
z
" style="stroke:#000000;"/>
    <path clip-path="url(#p3779ad3473)" d="M 193.344753 189.021315 
L 193.447669 191.998399 
L 192.284757 189.785591 
z
" style="stroke:#000000;"/>
    <path clip-path="url(#p3779ad3473)" d="M 196.649901 193.043821 
L 194.437033 191.100962 
L 195.388023 191.11796 
z
" style="stroke:#000000;"/>
    <path clip-path="url(#p3779ad3473)" d="M 194.790098 194.045313 
L 194.397947 192.016378 
L 193.447669 191.998399 
z
" style="stroke:#000000;"/>
    <path clip-path="url(#p3779ad3473)" d="M 194.437033 163.175765 
L 194.294957 165.245812 
L 193.344753 165.256847 
z
" style="stroke:#000000;"/>
    <path clip-path="url(#p3779ad3473)" d="M 195.741342 194.065502 
L 197.027818 194.655181 
L 196.649901 193.043821 
z
" style="stroke:#000000;"/>
    <path clip-path="url(#p3779ad3473)" d="M 197.027818 159.623101 
L 195.741342 160.214472 
L 196.649901 161.234958 
z
" style="stroke:#000000;"/>
    <path clip-path="url(#p3779ad3473)" d="M 192.284757 164.493963 
L 193.344753 165.256847 
L 192.433572 167.470423 
z
" style="stroke:#000000;"/>
    <path clip-path="url(#p3779ad3473)" d="M 193.344753 189.021315 
L 192.284757 189.785591 
L 192.433572 186.808936 
z
" style="stroke:#000000;"/>
    <path clip-path="url(#p3779ad3473)" d="M 197.027818 194.655181 
L 195.741342 194.065502 
L 196.495459 194.995941 
z
" style="stroke:#000000;"/>
    <path clip-path="url(#p3779ad3473)" d="M 195.741342 160.214472 
L 197.027818 159.623101 
L 196.495459 159.283041 
z
" style="stroke:#000000;"/>
    <path clip-path="url(#p3779ad3473)" d="M 194.397947 192.016378 
L 194.790098 194.045313 
L 195.741342 194.065502 
z
" style="stroke:#000000;"/>
    <path clip-path="url(#p3779ad3473)" d="M 194.294957 165.245812 
L 194.437033 163.175765 
L 195.388023 163.162479 
z
" style="stroke:#000000;"/>
    <path clip-path="url(#p3779ad3473)" d="M 195.741342 194.065502 
L 196.649901 193.043821 
L 195.388023 191.11796 
z
" style="stroke:#000000;"/>
    <path clip-path="url(#p3779ad3473)" d="M 196.649901 161.234958 
L 195.741342 160.214472 
L 195.388023 163.162479 
z
" style="stroke:#000000;"/>
    <path clip-path="url(#p3779ad3473)" d="M 192.284757 164.493963 
L 194.397947 162.265363 
L 193.447669 162.279627 
z
" style="stroke:#000000;"/>
    <path clip-path="url(#p3779ad3473)" d="M 192.433572 186.808936 
L 194.294957 189.036064 
L 193.344753 189.021315 
z
" style="stroke:#000000;"/>
    <path clip-path="url(#p3779ad3473)" d="M 192.433572 167.470423 
L 191.314598 166.849572 
L 192.284757 164.493963 
z
" style="stroke:#000000;"/>
    <path clip-path="url(#p3779ad3473)" d="M 191.314598 187.431256 
L 192.433572 186.808936 
L 192.284757 189.785591 
z
" style="stroke:#000000;"/>
    <path clip-path="url(#p3779ad3473)" d="M 195.741342 160.214472 
L 193.447669 162.279627 
L 194.397947 162.265363 
z
" style="stroke:#000000;"/>
    <path clip-path="url(#p3779ad3473)" d="M 195.388023 191.11796 
L 193.344753 189.021315 
L 194.294957 189.036064 
z
" style="stroke:#000000;"/>
    <path clip-path="url(#p3779ad3473)" d="M 191.314598 166.849572 
L 192.433572 167.470423 
L 191.71386 169.791933 
z
" style="stroke:#000000;"/>
    <path clip-path="url(#p3779ad3473)" d="M 192.433572 186.808936 
L 191.314598 187.431256 
L 191.71386 184.488371 
z
" style="stroke:#000000;"/>
    <path clip-path="url(#p3779ad3473)" d="M 193.344753 165.256847 
L 193.38312 167.461787 
L 192.433572 167.470423 
z
" style="stroke:#000000;"/>
    <path clip-path="url(#p3779ad3473)" d="M 193.447669 191.998399 
L 193.234198 189.801176 
L 192.284757 189.785591 
z
" style="stroke:#000000;"/>
    <path clip-path="url(#p3779ad3473)" d="M 195.741342 194.065502 
L 195.388023 191.11796 
L 194.397947 192.016378 
z
" style="stroke:#000000;"/>
    <path clip-path="url(#p3779ad3473)" d="M 195.388023 163.162479 
L 195.741342 160.214472 
L 194.397947 162.265363 
z
" style="stroke:#000000;"/>
    <path clip-path="url(#p3779ad3473)" d="M 191.71386 184.488371 
L 193.38312 186.821289 
L 192.433572 186.808936 
z
" style="stroke:#000000;"/>
    <path clip-path="url(#p3779ad3473)" d="M 191.71386 169.791933 
L 190.548281 169.320176 
L 191.314598 166.849572 
z
" style="stroke:#000000;"/>
    <path clip-path="url(#p3779ad3473)" d="M 190.548281 184.961659 
L 191.71386 184.488371 
L 191.314598 187.431256 
z
" style="stroke:#000000;"/>
    <path clip-path="url(#p3779ad3473)" d="M 193.234198 189.801176 
L 193.447669 191.998399 
L 194.397947 192.016378 
z
" style="stroke:#000000;"/>
    <path clip-path="url(#p3779ad3473)" d="M 193.38312 167.461787 
L 193.344753 165.256847 
L 194.294957 165.245812 
z
" style="stroke:#000000;"/>
    <path clip-path="url(#p3779ad3473)" d="M 190.548281 169.320176 
L 191.71386 169.791933 
L 191.193825 172.195511 
z
" style="stroke:#000000;"/>
    <path clip-path="url(#p3779ad3473)" d="M 191.71386 184.488371 
L 190.548281 184.961659 
L 191.193825 182.085476 
z
" style="stroke:#000000;"/>
    <path clip-path="url(#p3779ad3473)" d="M 191.314598 166.849572 
L 193.234198 164.482096 
L 192.284757 164.493963 
z
" style="stroke:#000000;"/>
    <path clip-path="url(#p3779ad3473)" d="M 192.433572 167.470423 
L 192.662889 169.785815 
L 191.71386 169.791933 
z
" style="stroke:#000000;"/>
    <path clip-path="url(#p3779ad3473)" d="M 194.397947 192.016378 
L 195.388023 191.11796 
L 194.294957 189.036064 
z
" style="stroke:#000000;"/>
    <path clip-path="url(#p3779ad3473)" d="M 195.388023 163.162479 
L 194.397947 162.265363 
L 194.294957 165.245812 
z
" style="stroke:#000000;"/>
    <path clip-path="url(#p3779ad3473)" d="M 194.294957 189.036064 
L 192.433572 186.808936 
L 193.38312 186.821289 
z
" style="stroke:#000000;"/>
    <path clip-path="url(#p3779ad3473)" d="M 194.397947 162.265363 
L 192.284757 164.493963 
L 193.234198 164.482096 
z
" style="stroke:#000000;"/>
    <path clip-path="url(#p3779ad3473)" d="M 192.284757 189.785591 
L 192.263338 187.44429 
L 191.314598 187.431256 
z
" style="stroke:#000000;"/>
    <path clip-path="url(#p3779ad3473)" d="M 189.994548 171.87824 
L 191.193825 172.195511 
L 190.879412 174.654286 
z
" style="stroke:#000000;"/>
    <path clip-path="url(#p3779ad3473)" d="M 191.193825 182.085476 
L 189.994548 182.404321 
L 190.879412 179.627113 
z
" style="stroke:#000000;"/>
    <path clip-path="url(#p3779ad3473)" d="M 191.193825 182.085476 
L 192.662889 184.498208 
L 191.71386 184.488371 
z
" style="stroke:#000000;"/>
    <path clip-path="url(#p3779ad3473)" d="M 191.193825 172.195511 
L 189.994548 171.87824 
L 190.548281 169.320176 
z
" style="stroke:#000000;"/>
    <path clip-path="url(#p3779ad3473)" d="M 189.994548 182.404321 
L 191.193825 182.085476 
L 190.548281 184.961659 
z
" style="stroke:#000000;"/>
    <path clip-path="url(#p3779ad3473)" d="M 190.879412 179.627113 
L 189.659749 179.787855 
L 190.774201 177.140769 
z
" style="stroke:#000000;"/>
    <path clip-path="url(#p3779ad3473)" d="M 189.659749 174.495147 
L 190.879412 174.654286 
L 190.774201 177.140769 
z
" style="stroke:#000000;"/>
    <path clip-path="url(#p3779ad3473)" d="M 191.71386 169.791933 
L 192.142479 172.192002 
L 191.193825 172.195511 
z
" style="stroke:#000000;"/>
    <path clip-path="url(#p3779ad3473)" d="M 192.662889 169.785815 
L 192.433572 167.470423 
L 193.38312 167.461787 
z
" style="stroke:#000000;"/>
    <path clip-path="url(#p3779ad3473)" d="M 194.397947 192.016378 
L 194.294957 189.036064 
L 193.234198 189.801176 
z
" style="stroke:#000000;"/>
    <path clip-path="url(#p3779ad3473)" d="M 194.294957 165.245812 
L 194.397947 162.265363 
L 193.234198 164.482096 
z
" style="stroke:#000000;"/>
    <path clip-path="url(#p3779ad3473)" d="M 190.879412 174.654286 
L 189.659749 174.495147 
L 189.994548 171.87824 
z
" style="stroke:#000000;"/>
    <path clip-path="url(#p3779ad3473)" d="M 189.659749 179.787855 
L 190.879412 179.627113 
L 189.994548 182.404321 
z
" style="stroke:#000000;"/>
    <path clip-path="url(#p3779ad3473)" d="M 190.879412 179.627113 
L 192.142479 182.092706 
L 191.193825 182.085476 
z
" style="stroke:#000000;"/>
    <path clip-path="url(#p3779ad3473)" d="M 190.548281 169.320176 
L 192.263338 166.840258 
L 191.314598 166.849572 
z
" style="stroke:#000000;"/>
    <path clip-path="url(#p3779ad3473)" d="M 192.263338 187.44429 
L 192.284757 189.785591 
L 193.234198 189.801176 
z
" style="stroke:#000000;"/>
    <path clip-path="url(#p3779ad3473)" d="M 193.38312 186.821289 
L 191.71386 184.488371 
L 192.662889 184.498208 
z
" style="stroke:#000000;"/>
    <path clip-path="url(#p3779ad3473)" d="M 191.193825 172.195511 
L 191.827839 174.653447 
L 190.879412 174.654286 
z
" style="stroke:#000000;"/>
    <path clip-path="url(#p3779ad3473)" d="M 190.774201 177.140769 
L 189.547723 177.141574 
L 189.659749 174.495147 
z
" style="stroke:#000000;"/>
    <path clip-path="url(#p3779ad3473)" d="M 189.547723 177.141574 
L 190.774201 177.140769 
L 189.659749 179.787855 
z
" style="stroke:#000000;"/>
    <path clip-path="url(#p3779ad3473)" d="M 190.774201 177.140769 
L 191.827839 179.631674 
L 190.879412 179.627113 
z
" style="stroke:#000000;"/>
    <path clip-path="url(#p3779ad3473)" d="M 190.879412 174.654286 
L 191.722552 177.14263 
L 190.774201 177.140769 
z
" style="stroke:#000000;"/>
    <path clip-path="url(#p3779ad3473)" d="M 191.314598 187.431256 
L 191.496468 184.972015 
L 190.548281 184.961659 
z
" style="stroke:#000000;"/>
    <path clip-path="url(#p3779ad3473)" d="M 193.234198 189.801176 
L 194.294957 189.036064 
L 193.38312 186.821289 
z
" style="stroke:#000000;"/>
    <path clip-path="url(#p3779ad3473)" d="M 194.294957 165.245812 
L 193.234198 164.482096 
L 193.38312 167.461787 
z
" style="stroke:#000000;"/>
    <path clip-path="url(#p3779ad3473)" d="M 193.234198 164.482096 
L 191.314598 166.849572 
L 192.263338 166.840258 
z
" style="stroke:#000000;"/>
    <path clip-path="url(#p3779ad3473)" d="M 192.142479 172.192002 
L 191.71386 169.791933 
L 192.662889 169.785815 
z
" style="stroke:#000000;"/>
    <path clip-path="url(#p3779ad3473)" d="M 190.978502 160.945886 
L 187.910625 165.995669 
L 189.956678 161.256643 
z
" style="stroke:#000000;"/>
    <path clip-path="url(#p3779ad3473)" d="M 189.956678 161.256643 
L 187.910625 158.395456 
L 190.978502 160.945886 
z
" style="stroke:#000000;"/>
    <path clip-path="url(#p3779ad3473)" d="M 192.662889 184.498208 
L 191.193825 182.085476 
L 192.142479 182.092706 
z
" style="stroke:#000000;"/>
    <path clip-path="url(#p3779ad3473)" d="M 189.994548 171.87824 
L 191.496468 169.313543 
L 190.548281 169.320176 
z
" style="stroke:#000000;"/>
    <path clip-path="url(#p3779ad3473)" d="M 190.548281 184.961659 
L 190.942335 182.411901 
L 189.994548 182.404321 
z
" style="stroke:#000000;"/>
    <path clip-path="url(#p3779ad3473)" d="M 191.827839 174.653447 
L 191.193825 172.195511 
L 192.142479 172.192002 
z
" style="stroke:#000000;"/>
    <path clip-path="url(#p3779ad3473)" d="M 193.38312 186.821289 
L 192.263338 187.44429 
L 193.234198 189.801176 
z
" style="stroke:#000000;"/>
    <path clip-path="url(#p3779ad3473)" d="M 192.263338 166.840258 
L 193.38312 167.461787 
L 193.234198 164.482096 
z
" style="stroke:#000000;"/>
    <path clip-path="url(#p3779ad3473)" d="M 191.496468 184.972015 
L 191.314598 187.431256 
L 192.263338 187.44429 
z
" style="stroke:#000000;"/>
    <path clip-path="url(#p3779ad3473)" d="M 192.142479 182.092706 
L 190.879412 179.627113 
L 191.827839 179.631674 
z
" style="stroke:#000000;"/>
    <path clip-path="url(#p3779ad3473)" d="M 192.263338 187.44429 
L 193.38312 186.821289 
L 192.662889 184.498208 
z
" style="stroke:#000000;"/>
    <path clip-path="url(#p3779ad3473)" d="M 193.38312 167.461787 
L 192.263338 166.840258 
L 192.662889 169.785815 
z
" style="stroke:#000000;"/>
    <path clip-path="url(#p3779ad3473)" d="M 191.722552 177.14263 
L 190.879412 174.654286 
L 191.827839 174.653447 
z
" style="stroke:#000000;"/>
    <path clip-path="url(#p3779ad3473)" d="M 189.659749 174.495147 
L 190.942335 171.874385 
L 189.994548 171.87824 
z
" style="stroke:#000000;"/>
    <path clip-path="url(#p3779ad3473)" d="M 187.910625 165.995669 
L 190.978502 160.945886 
L 187.910625 168.529074 
z
" style="stroke:#000000;"/>
    <path clip-path="url(#p3779ad3473)" d="M 191.827839 179.631674 
L 190.774201 177.140769 
L 191.722552 177.14263 
z
" style="stroke:#000000;"/>
    <path clip-path="url(#p3779ad3473)" d="M 192.263338 166.840258 
L 190.548281 169.320176 
L 191.496468 169.313543 
z
" style="stroke:#000000;"/>
    <path clip-path="url(#p3779ad3473)" d="M 189.994548 182.404321 
L 190.607294 179.792593 
L 189.659749 179.787855 
z
" style="stroke:#000000;"/>
    <path clip-path="url(#p3779ad3473)" d="M 189.547723 177.141574 
L 190.607294 174.494134 
L 189.659749 174.495147 
z
" style="stroke:#000000;"/>
    <path clip-path="url(#p3779ad3473)" d="M 189.659749 179.787855 
L 190.495187 177.143437 
L 189.547723 177.141574 
z
" style="stroke:#000000;"/>
    <path clip-path="url(#p3779ad3473)" d="M 187.910625 158.395456 
L 189.956678 161.256643 
L 187.910625 159.662158 
z
" style="stroke:#000000;"/>
    <path clip-path="url(#p3779ad3473)" d="M 190.942335 182.411901 
L 190.548281 184.961659 
L 191.496468 184.972015 
z
" style="stroke:#000000;"/>
    <path clip-path="url(#p3779ad3473)" d="M 192.662889 184.498208 
L 191.496468 184.972015 
L 192.263338 187.44429 
z
" style="stroke:#000000;"/>
    <path clip-path="url(#p3779ad3473)" d="M 191.496468 169.313543 
L 192.662889 169.785815 
L 192.263338 166.840258 
z
" style="stroke:#000000;"/>
    <path clip-path="url(#p3779ad3473)" d="M 190.904437 161.241248 
L 187.910625 159.662158 
L 189.956678 161.256643 
z
" style="stroke:#000000;"/>
    <path clip-path="url(#p3779ad3473)" d="M 187.910625 165.995669 
L 190.904437 161.241248 
L 189.956678 161.256643 
z
" style="stroke:#000000;"/>
    <path clip-path="url(#p3779ad3473)" d="M 191.496468 184.972015 
L 192.662889 184.498208 
L 192.142479 182.092706 
z
" style="stroke:#000000;"/>
    <path clip-path="url(#p3779ad3473)" d="M 192.662889 169.785815 
L 191.496468 169.313543 
L 192.142479 172.192002 
z
" style="stroke:#000000;"/>
    <path clip-path="url(#p3779ad3473)" d="M 191.496468 169.313543 
L 189.994548 171.87824 
L 190.942335 171.874385 
z
" style="stroke:#000000;"/>
    <path clip-path="url(#p3779ad3473)" d="M 190.978502 160.945886 
L 188.856904 158.376938 
L 191.927 160.93016 
z
" style="stroke:#000000;"/>
    <path clip-path="url(#p3779ad3473)" d="M 188.856904 168.521574 
L 190.978502 160.945886 
L 191.927 160.93016 
z
" style="stroke:#000000;"/>
    <path clip-path="url(#p3779ad3473)" d="M 190.607294 179.792593 
L 189.994548 182.404321 
L 190.942335 182.411901 
z
" style="stroke:#000000;"/>
    <path clip-path="url(#p3779ad3473)" d="M 188.856904 158.376938 
L 190.978502 160.945886 
L 187.910625 158.395456 
z
" style="stroke:#000000;"/>
    <path clip-path="url(#p3779ad3473)" d="M 190.978502 160.945886 
L 188.856904 168.521574 
L 187.910625 168.529074 
z
" style="stroke:#000000;"/>
    <path clip-path="url(#p3779ad3473)" d="M 190.942335 171.874385 
L 189.659749 174.495147 
L 190.607294 174.494134 
z
" style="stroke:#000000;"/>
    <path clip-path="url(#p3779ad3473)" d="M 190.942335 182.411901 
L 192.142479 182.092706 
L 191.827839 179.631674 
z
" style="stroke:#000000;"/>
    <path clip-path="url(#p3779ad3473)" d="M 192.142479 172.192002 
L 190.942335 171.874385 
L 191.827839 174.653447 
z
" style="stroke:#000000;"/>
    <path clip-path="url(#p3779ad3473)" d="M 192.142479 182.092706 
L 190.942335 182.411901 
L 191.496468 184.972015 
z
" style="stroke:#000000;"/>
    <path clip-path="url(#p3779ad3473)" d="M 190.942335 171.874385 
L 192.142479 172.192002 
L 191.496468 169.313543 
z
" style="stroke:#000000;"/>
    <path clip-path="url(#p3779ad3473)" d="M 190.495187 177.143437 
L 189.659749 179.787855 
L 190.607294 179.792593 
z
" style="stroke:#000000;"/>
    <path clip-path="url(#p3779ad3473)" d="M 190.607294 174.494134 
L 189.547723 177.141574 
L 190.495187 177.143437 
z
" style="stroke:#000000;"/>
    <path clip-path="url(#p3779ad3473)" d="M 191.827839 174.653447 
L 190.607294 174.494134 
L 191.722552 177.14263 
z
" style="stroke:#000000;"/>
    <path clip-path="url(#p3779ad3473)" d="M 190.607294 179.792593 
L 191.827839 179.631674 
L 191.722552 177.14263 
z
" style="stroke:#000000;"/>
    <path clip-path="url(#p3779ad3473)" d="M 191.827839 179.631674 
L 190.607294 179.792593 
L 190.942335 182.411901 
z
" style="stroke:#000000;"/>
    <path clip-path="url(#p3779ad3473)" d="M 190.607294 174.494134 
L 191.827839 174.653447 
L 190.942335 171.874385 
z
" style="stroke:#000000;"/>
    <path clip-path="url(#p3779ad3473)" d="M 187.910625 158.395456 
L 187.910625 159.662158 
L 185.861363 161.234412 
z
" style="stroke:#000000;"/>
    <path clip-path="url(#p3779ad3473)" d="M 191.722552 177.14263 
L 190.495187 177.143437 
L 190.607294 179.792593 
z
" style="stroke:#000000;"/>
    <path clip-path="url(#p3779ad3473)" d="M 190.495187 177.143437 
L 191.722552 177.14263 
L 190.607294 174.494134 
z
" style="stroke:#000000;"/>
    <path clip-path="url(#p3779ad3473)" d="M 187.910625 165.995669 
L 187.910625 168.529074 
L 184.835525 160.911795 
z
" style="stroke:#000000;"/>
    <path clip-path="url(#p3779ad3473)" d="M 188.856904 165.985415 
L 191.927 160.93016 
L 190.904437 161.241248 
z
" style="stroke:#000000;"/>
    <path clip-path="url(#p3779ad3473)" d="M 188.856904 158.376938 
L 190.904437 161.241248 
L 191.927 160.93016 
z
" style="stroke:#000000;"/>
    <path clip-path="url(#p3779ad3473)" d="M 187.910625 159.662158 
L 190.904437 161.241248 
L 188.856904 159.645018 
z
" style="stroke:#000000;"/>
    <path clip-path="url(#p3779ad3473)" d="M 190.904437 161.241248 
L 187.910625 165.995669 
L 188.856904 165.985415 
z
" style="stroke:#000000;"/>
    <path clip-path="url(#p3779ad3473)" d="M 188.856904 159.645018 
L 185.861363 161.234412 
L 187.910625 159.662158 
z
" style="stroke:#000000;"/>
    <path clip-path="url(#p3779ad3473)" d="M 185.861363 161.234412 
L 188.856904 165.985415 
L 187.910625 165.995669 
z
" style="stroke:#000000;"/>
    <path clip-path="url(#p3779ad3473)" d="M 187.910625 158.395456 
L 185.861363 161.234412 
L 184.835525 160.911795 
z
" style="stroke:#000000;"/>
    <path clip-path="url(#p3779ad3473)" d="M 187.910625 165.995669 
L 184.835525 160.911795 
L 185.861363 161.234412 
z
" style="stroke:#000000;"/>
    <path clip-path="url(#p3779ad3473)" d="M 191.927 160.93016 
L 188.856904 165.985415 
L 188.856904 168.521574 
z
" style="stroke:#000000;"/>
    <path clip-path="url(#p3779ad3473)" d="M 186.271472 177.143726 
L 185.040757 177.144534 
L 186.159156 174.493897 
z
" style="stroke:#000000;"/>
    <path clip-path="url(#p3779ad3473)" d="M 185.040757 177.144534 
L 186.271472 177.143726 
L 186.159156 179.793702 
z
" style="stroke:#000000;"/>
    <path clip-path="url(#p3779ad3473)" d="M 190.904437 161.241248 
L 188.856904 158.376938 
L 188.856904 159.645018 
z
" style="stroke:#000000;"/>
    <path clip-path="url(#p3779ad3473)" d="M 186.159156 174.493897 
L 184.935075 174.652526 
L 185.823372 171.87257 
z
" style="stroke:#000000;"/>
    <path clip-path="url(#p3779ad3473)" d="M 184.935075 179.636681 
L 186.159156 179.793702 
L 185.823372 182.41547 
z
" style="stroke:#000000;"/>
    <path clip-path="url(#p3779ad3473)" d="M 186.159156 179.793702 
L 184.935075 179.636681 
L 185.040757 177.144534 
z
" style="stroke:#000000;"/>
    <path clip-path="url(#p3779ad3473)" d="M 184.935075 174.652526 
L 186.159156 174.493897 
L 185.040757 177.144534 
z
" style="stroke:#000000;"/>
    <path clip-path="url(#p3779ad3473)" d="M 186.159156 174.493897 
L 187.216562 177.145593 
L 186.271472 177.143726 
z
" style="stroke:#000000;"/>
    <path clip-path="url(#p3779ad3473)" d="M 186.271472 177.143726 
L 187.104164 179.798453 
L 186.159156 179.793702 
z
" style="stroke:#000000;"/>
    <path clip-path="url(#p3779ad3473)" d="M 185.823372 171.87257 
L 184.619152 172.187368 
L 185.267632 169.307819 
z
" style="stroke:#000000;"/>
    <path clip-path="url(#p3779ad3473)" d="M 184.619152 182.102254 
L 185.823372 182.41547 
L 185.267632 184.980951 
z
" style="stroke:#000000;"/>
    <path clip-path="url(#p3779ad3473)" d="M 184.619152 172.187368 
L 185.823372 171.87257 
L 184.935075 174.652526 
z
" style="stroke:#000000;"/>
    <path clip-path="url(#p3779ad3473)" d="M 185.823372 182.41547 
L 184.619152 182.102254 
L 184.935075 179.636681 
z
" style="stroke:#000000;"/>
    <path clip-path="url(#p3779ad3473)" d="M 185.823372 171.87257 
L 187.104164 174.492882 
L 186.159156 174.493897 
z
" style="stroke:#000000;"/>
    <path clip-path="url(#p3779ad3473)" d="M 187.910625 158.395456 
L 185.779572 160.895995 
L 188.856904 158.376938 
z
" style="stroke:#000000;"/>
    <path clip-path="url(#p3779ad3473)" d="M 185.779572 160.895995 
L 187.910625 168.529074 
L 188.856904 168.521574 
z
" style="stroke:#000000;"/>
    <path clip-path="url(#p3779ad3473)" d="M 186.159156 179.793702 
L 186.768136 182.423075 
L 185.823372 182.41547 
z
" style="stroke:#000000;"/>
    <path clip-path="url(#p3779ad3473)" d="M 185.779572 160.895995 
L 187.910625 158.395456 
L 184.835525 160.911795 
z
" style="stroke:#000000;"/>
    <path clip-path="url(#p3779ad3473)" d="M 187.910625 168.529074 
L 185.779572 160.895995 
L 184.835525 160.911795 
z
" style="stroke:#000000;"/>
    <path clip-path="url(#p3779ad3473)" d="M 185.267632 169.307819 
L 186.768136 171.868702 
L 185.823372 171.87257 
z
" style="stroke:#000000;"/>
    <path clip-path="url(#p3779ad3473)" d="M 184.096285 169.775478 
L 185.267632 169.307819 
L 184.619152 172.187368 
z
" style="stroke:#000000;"/>
    <path clip-path="url(#p3779ad3473)" d="M 185.267632 184.980951 
L 184.096285 184.514831 
L 184.619152 182.102254 
z
" style="stroke:#000000;"/>
    <path clip-path="url(#p3779ad3473)" d="M 185.861363 161.234412 
L 188.856904 159.645018 
L 186.806155 161.218969 
z
" style="stroke:#000000;"/>
    <path clip-path="url(#p3779ad3473)" d="M 188.856904 165.985415 
L 185.861363 161.234412 
L 186.806155 161.218969 
z
" style="stroke:#000000;"/>
    <path clip-path="url(#p3779ad3473)" d="M 185.267632 169.307819 
L 184.096285 169.775478 
L 184.497759 166.827161 
z
" style="stroke:#000000;"/>
    <path clip-path="url(#p3779ad3473)" d="M 184.096285 184.514831 
L 185.267632 184.980951 
L 184.497759 187.46262 
z
" style="stroke:#000000;"/>
    <path clip-path="url(#p3779ad3473)" d="M 185.823372 182.41547 
L 186.211993 184.991349 
L 185.267632 184.980951 
z
" style="stroke:#000000;"/>
    <path clip-path="url(#p3779ad3473)" d="M 188.856904 158.376938 
L 186.806155 161.218969 
L 188.856904 159.645018 
z
" style="stroke:#000000;"/>
    <path clip-path="url(#p3779ad3473)" d="M 187.104164 179.798453 
L 186.271472 177.143726 
L 187.216562 177.145593 
z
" style="stroke:#000000;"/>
    <path clip-path="url(#p3779ad3473)" d="M 187.216562 177.145593 
L 186.159156 174.493897 
L 187.104164 174.492882 
z
" style="stroke:#000000;"/>
    <path clip-path="url(#p3779ad3473)" d="M 186.768136 182.423075 
L 186.159156 179.793702 
L 187.104164 179.798453 
z
" style="stroke:#000000;"/>
    <path clip-path="url(#p3779ad3473)" d="M 184.497759 166.827161 
L 186.211993 169.30116 
L 185.267632 169.307819 
z
" style="stroke:#000000;"/>
    <path clip-path="url(#p3779ad3473)" d="M 184.935075 179.636681 
L 185.984953 177.146403 
L 185.040757 177.144534 
z
" style="stroke:#000000;"/>
    <path clip-path="url(#p3779ad3473)" d="M 188.856904 165.985415 
L 185.779572 160.895995 
L 188.856904 168.521574 
z
" style="stroke:#000000;"/>
    <path clip-path="url(#p3779ad3473)" d="M 187.104164 174.492882 
L 185.823372 171.87257 
L 186.768136 171.868702 
z
" style="stroke:#000000;"/>
    <path clip-path="url(#p3779ad3473)" d="M 185.040757 177.144534 
L 185.879194 174.651683 
L 184.935075 174.652526 
z
" style="stroke:#000000;"/>
    <path clip-path="url(#p3779ad3473)" d="M 183.371962 167.442777 
L 184.497759 166.827161 
L 184.096285 169.775478 
z
" style="stroke:#000000;"/>
    <path clip-path="url(#p3779ad3473)" d="M 184.497759 187.46262 
L 183.371962 186.848483 
L 184.096285 184.514831 
z
" style="stroke:#000000;"/>
    <path clip-path="url(#p3779ad3473)" d="M 184.619152 182.102254 
L 185.879194 179.641263 
L 184.935075 179.636681 
z
" style="stroke:#000000;"/>
    <path clip-path="url(#p3779ad3473)" d="M 185.267632 184.980951 
L 185.44156 187.475723 
L 184.497759 187.46262 
z
" style="stroke:#000000;"/>
    <path clip-path="url(#p3779ad3473)" d="M 184.497759 166.827161 
L 183.371962 167.442777 
L 183.521796 164.457229 
z
" style="stroke:#000000;"/>
    <path clip-path="url(#p3779ad3473)" d="M 183.371962 186.848483 
L 184.497759 187.46262 
L 183.521796 189.833834 
z
" style="stroke:#000000;"/>
    <path clip-path="url(#p3779ad3473)" d="M 184.935075 174.652526 
L 185.563041 172.183841 
L 184.619152 172.187368 
z
" style="stroke:#000000;"/>
    <path clip-path="url(#p3779ad3473)" d="M 186.211993 184.991349 
L 185.823372 182.41547 
L 186.768136 182.423075 
z
" style="stroke:#000000;"/>
    <path clip-path="url(#p3779ad3473)" d="M 186.768136 171.868702 
L 185.267632 169.307819 
L 186.211993 169.30116 
z
" style="stroke:#000000;"/>
    <path clip-path="url(#p3779ad3473)" d="M 184.096285 184.514831 
L 185.563041 182.10952 
L 184.619152 182.102254 
z
" style="stroke:#000000;"/>
    <path clip-path="url(#p3779ad3473)" d="M 185.779572 160.895995 
L 188.856904 165.985415 
L 186.806155 161.218969 
z
" style="stroke:#000000;"/>
    <path clip-path="url(#p3779ad3473)" d="M 186.806155 161.218969 
L 188.856904 158.376938 
L 185.779572 160.895995 
z
" style="stroke:#000000;"/>
    <path clip-path="url(#p3779ad3473)" d="M 184.619152 172.187368 
L 185.039793 169.769324 
L 184.096285 169.775478 
z
" style="stroke:#000000;"/>
    <path clip-path="url(#p3779ad3473)" d="M 183.521796 164.457229 
L 185.44156 166.817799 
L 184.497759 166.827161 
z
" style="stroke:#000000;"/>
    <path clip-path="url(#p3779ad3473)" d="M 182.453796 165.214361 
L 183.521796 164.457229 
L 183.371962 167.442777 
z
" style="stroke:#000000;"/>
    <path clip-path="url(#p3779ad3473)" d="M 183.521796 189.833834 
L 182.453796 189.078105 
L 183.371962 186.848483 
z
" style="stroke:#000000;"/>
    <path clip-path="url(#p3779ad3473)" d="M 185.44156 187.475723 
L 185.267632 184.980951 
L 186.211993 184.991349 
z
" style="stroke:#000000;"/>
    <path clip-path="url(#p3779ad3473)" d="M 185.879194 174.651683 
L 185.040757 177.144534 
L 185.984953 177.146403 
z
" style="stroke:#000000;"/>
    <path clip-path="url(#p3779ad3473)" d="M 185.984953 177.146403 
L 184.935075 179.636681 
L 185.879194 179.641263 
z
" style="stroke:#000000;"/>
    <path clip-path="url(#p3779ad3473)" d="M 187.216562 177.145593 
L 185.984953 177.146403 
L 187.104164 179.798453 
z
" style="stroke:#000000;"/>
    <path clip-path="url(#p3779ad3473)" d="M 185.984953 177.146403 
L 187.216562 177.145593 
L 187.104164 174.492882 
z
" style="stroke:#000000;"/>
    <path clip-path="url(#p3779ad3473)" d="M 185.563041 172.183841 
L 184.935075 174.652526 
L 185.879194 174.651683 
z
" style="stroke:#000000;"/>
    <path clip-path="url(#p3779ad3473)" d="M 183.371962 186.848483 
L 185.039793 184.524726 
L 184.096285 184.514831 
z
" style="stroke:#000000;"/>
    <path clip-path="url(#p3779ad3473)" d="M 184.497759 187.46262 
L 184.464887 189.849524 
L 183.521796 189.833834 
z
" style="stroke:#000000;"/>
    <path clip-path="url(#p3779ad3473)" d="M 186.211993 169.30116 
L 184.497759 166.827161 
L 185.44156 166.817799 
z
" style="stroke:#000000;"/>
    <path clip-path="url(#p3779ad3473)" d="M 185.879194 179.641263 
L 184.619152 182.102254 
L 185.563041 182.10952 
z
" style="stroke:#000000;"/>
    <path clip-path="url(#p3779ad3473)" d="M 187.104164 179.798453 
L 185.879194 179.641263 
L 186.768136 182.423075 
z
" style="stroke:#000000;"/>
    <path clip-path="url(#p3779ad3473)" d="M 185.879194 174.651683 
L 187.104164 174.492882 
L 186.768136 171.868702 
z
" style="stroke:#000000;"/>
    <path clip-path="url(#p3779ad3473)" d="M 183.521796 164.457229 
L 182.453796 165.214361 
L 182.35001 162.223659 
z
" style="stroke:#000000;"/>
    <path clip-path="url(#p3779ad3473)" d="M 182.453796 189.078105 
L 183.521796 189.833834 
L 182.35001 192.068943 
z
" style="stroke:#000000;"/>
    <path clip-path="url(#p3779ad3473)" d="M 184.096285 169.775478 
L 184.314944 167.434081 
L 183.371962 167.442777 
z
" style="stroke:#000000;"/>
    <path clip-path="url(#p3779ad3473)" d="M 185.039793 169.769324 
L 184.619152 172.187368 
L 185.563041 172.183841 
z
" style="stroke:#000000;"/>
    <path clip-path="url(#p3779ad3473)" d="M 187.104164 174.492882 
L 185.879194 174.651683 
L 185.984953 177.146403 
z
" style="stroke:#000000;"/>
    <path clip-path="url(#p3779ad3473)" d="M 185.879194 179.641263 
L 187.104164 179.798453 
L 185.984953 177.146403 
z
" style="stroke:#000000;"/>
    <path clip-path="url(#p3779ad3473)" d="M 186.768136 182.423075 
L 185.563041 182.10952 
L 186.211993 184.991349 
z
" style="stroke:#000000;"/>
    <path clip-path="url(#p3779ad3473)" d="M 185.563041 172.183841 
L 186.768136 171.868702 
L 186.211993 169.30116 
z
" style="stroke:#000000;"/>
    <path clip-path="url(#p3779ad3473)" d="M 185.563041 182.10952 
L 184.096285 184.514831 
L 185.039793 184.524726 
z
" style="stroke:#000000;"/>
    <path clip-path="url(#p3779ad3473)" d="M 185.563041 182.10952 
L 186.768136 182.423075 
L 185.879194 179.641263 
z
" style="stroke:#000000;"/>
    <path clip-path="url(#p3779ad3473)" d="M 186.768136 171.868702 
L 185.563041 172.183841 
L 185.879194 174.651683 
z
" style="stroke:#000000;"/>
    <path clip-path="url(#p3779ad3473)" d="M 184.464887 189.849524 
L 184.497759 187.46262 
L 185.44156 187.475723 
z
" style="stroke:#000000;"/>
    <path clip-path="url(#p3779ad3473)" d="M 182.35001 162.223659 
L 184.464887 164.445282 
L 183.521796 164.457229 
z
" style="stroke:#000000;"/>
    <path clip-path="url(#p3779ad3473)" d="M 182.453796 189.078105 
L 184.314944 186.860923 
L 183.371962 186.848483 
z
" style="stroke:#000000;"/>
    <path clip-path="url(#p3779ad3473)" d="M 182.35001 162.223659 
L 182.453796 165.214361 
L 181.351445 163.114247 
z
" style="stroke:#000000;"/>
    <path clip-path="url(#p3779ad3473)" d="M 182.453796 189.078105 
L 182.35001 192.068943 
L 181.351445 191.179667 
z
" style="stroke:#000000;"/>
    <path clip-path="url(#p3779ad3473)" d="M 184.314944 167.434081 
L 184.096285 169.775478 
L 185.039793 169.769324 
z
" style="stroke:#000000;"/>
    <path clip-path="url(#p3779ad3473)" d="M 185.44156 166.817799 
L 183.521796 164.457229 
L 184.464887 164.445282 
z
" style="stroke:#000000;"/>
    <path clip-path="url(#p3779ad3473)" d="M 185.039793 184.524726 
L 186.211993 184.991349 
L 185.563041 182.10952 
z
" style="stroke:#000000;"/>
    <path clip-path="url(#p3779ad3473)" d="M 186.211993 169.30116 
L 185.039793 169.769324 
L 185.563041 172.183841 
z
" style="stroke:#000000;"/>
    <path clip-path="url(#p3779ad3473)" d="M 183.371962 167.442777 
L 183.396108 165.203234 
L 182.453796 165.214361 
z
" style="stroke:#000000;"/>
    <path clip-path="url(#p3779ad3473)" d="M 183.521796 189.833834 
L 183.292247 192.087075 
L 182.35001 192.068943 
z
" style="stroke:#000000;"/>
    <path clip-path="url(#p3779ad3473)" d="M 186.211993 184.991349 
L 185.039793 184.524726 
L 185.44156 187.475723 
z
" style="stroke:#000000;"/>
    <path clip-path="url(#p3779ad3473)" d="M 185.039793 169.769324 
L 186.211993 169.30116 
L 185.44156 166.817799 
z
" style="stroke:#000000;"/>
    <path clip-path="url(#p3779ad3473)" d="M 185.039793 184.524726 
L 183.371962 186.848483 
L 184.314944 186.860923 
z
" style="stroke:#000000;"/>
    <path clip-path="url(#p3779ad3473)" d="M 182.35001 162.223659 
L 181.351445 163.114247 
L 180.994729 160.150495 
z
" style="stroke:#000000;"/>
    <path clip-path="url(#p3779ad3473)" d="M 181.351445 191.179667 
L 182.35001 192.068943 
L 180.994729 194.143887 
z
" style="stroke:#000000;"/>
    <path clip-path="url(#p3779ad3473)" d="M 183.292247 192.087075 
L 183.521796 189.833834 
L 184.464887 189.849524 
z
" style="stroke:#000000;"/>
    <path clip-path="url(#p3779ad3473)" d="M 183.396108 165.203234 
L 183.371962 167.442777 
L 184.314944 167.434081 
z
" style="stroke:#000000;"/>
    <path clip-path="url(#p3779ad3473)" d="M 184.314944 186.860923 
L 185.44156 187.475723 
L 185.039793 184.524726 
z
" style="stroke:#000000;"/>
    <path clip-path="url(#p3779ad3473)" d="M 185.44156 166.817799 
L 184.314944 167.434081 
L 185.039793 169.769324 
z
" style="stroke:#000000;"/>
    <path clip-path="url(#p3779ad3473)" d="M 181.351445 191.179667 
L 183.396108 189.092978 
L 182.453796 189.078105 
z
" style="stroke:#000000;"/>
    <path clip-path="url(#p3779ad3473)" d="M 185.44156 187.475723 
L 184.314944 186.860923 
L 184.464887 189.849524 
z
" style="stroke:#000000;"/>
    <path clip-path="url(#p3779ad3473)" d="M 184.314944 167.434081 
L 185.44156 166.817799 
L 184.464887 164.445282 
z
" style="stroke:#000000;"/>
    <path clip-path="url(#p3779ad3473)" d="M 180.994729 160.150495 
L 183.292247 162.209274 
L 182.35001 162.223659 
z
" style="stroke:#000000;"/>
    <path clip-path="url(#p3779ad3473)" d="M 184.314944 186.860923 
L 182.453796 189.078105 
L 183.396108 189.092978 
z
" style="stroke:#000000;"/>
    <path clip-path="url(#p3779ad3473)" d="M 184.464887 164.445282 
L 182.35001 162.223659 
L 183.292247 162.209274 
z
" style="stroke:#000000;"/>
    <path clip-path="url(#p3779ad3473)" d="M 180.994729 160.150495 
L 181.351445 163.114247 
L 180.076541 161.165301 
z
" style="stroke:#000000;"/>
    <path clip-path="url(#p3779ad3473)" d="M 181.351445 191.179667 
L 180.994729 194.143887 
L 180.076541 193.130287 
z
" style="stroke:#000000;"/>
    <path clip-path="url(#p3779ad3473)" d="M 182.453796 165.214361 
L 182.292953 163.100826 
L 181.351445 163.114247 
z
" style="stroke:#000000;"/>
    <path clip-path="url(#p3779ad3473)" d="M 182.35001 192.068943 
L 181.935976 194.164291 
L 180.994729 194.143887 
z
" style="stroke:#000000;"/>
    <path clip-path="url(#p3779ad3473)" d="M 180.994729 160.150495 
L 179.694241 159.540911 
L 180.23271 159.205733 
z
" style="stroke:#000000;"/>
    <path clip-path="url(#p3779ad3473)" d="M 179.694241 194.755179 
L 180.994729 194.143887 
L 180.23271 195.08965 
z
" style="stroke:#000000;"/>
    <path clip-path="url(#p3779ad3473)" d="M 183.396108 189.092978 
L 184.464887 189.849524 
L 184.314944 186.860923 
z
" style="stroke:#000000;"/>
    <path clip-path="url(#p3779ad3473)" d="M 184.464887 164.445282 
L 183.396108 165.203234 
L 184.314944 167.434081 
z
" style="stroke:#000000;"/>
    <path clip-path="url(#p3779ad3473)" d="M 179.694241 159.540911 
L 180.994729 160.150495 
L 180.076541 161.165301 
z
" style="stroke:#000000;"/>
    <path clip-path="url(#p3779ad3473)" d="M 180.994729 194.143887 
L 179.694241 194.755179 
L 180.076541 193.130287 
z
" style="stroke:#000000;"/>
    <path clip-path="url(#p3779ad3473)" d="M 182.292953 163.100826 
L 182.453796 165.214361 
L 183.396108 165.203234 
z
" style="stroke:#000000;"/>
    <path clip-path="url(#p3779ad3473)" d="M 181.935976 194.164291 
L 182.35001 192.068943 
L 183.292247 192.087075 
z
" style="stroke:#000000;"/>
    <path clip-path="url(#p3779ad3473)" d="M 180.076541 193.130287 
L 182.292953 191.196837 
L 181.351445 191.179667 
z
" style="stroke:#000000;"/>
    <path clip-path="url(#p3779ad3473)" d="M 184.464887 189.849524 
L 183.396108 189.092978 
L 183.292247 192.087075 
z
" style="stroke:#000000;"/>
    <path clip-path="url(#p3779ad3473)" d="M 183.396108 165.203234 
L 184.464887 164.445282 
L 183.292247 162.209274 
z
" style="stroke:#000000;"/>
    <path clip-path="url(#p3779ad3473)" d="M 183.396108 189.092978 
L 181.351445 191.179667 
L 182.292953 191.196837 
z
" style="stroke:#000000;"/>
    <path clip-path="url(#p3779ad3473)" d="M 180.23271 159.205733 
L 181.935976 160.133842 
L 180.994729 160.150495 
z
" style="stroke:#000000;"/>
    <path clip-path="url(#p3779ad3473)" d="M 179.694241 159.540911 
L 180.076541 161.165301 
L 179.128454 159.990654 
z
" style="stroke:#000000;"/>
    <path clip-path="url(#p3779ad3473)" d="M 180.076541 193.130287 
L 179.694241 194.755179 
L 179.128454 194.306179 
z
" style="stroke:#000000;"/>
    <path clip-path="url(#p3779ad3473)" d="M 181.351445 163.114247 
L 181.017118 161.149749 
L 180.076541 161.165301 
z
" style="stroke:#000000;"/>
    <path clip-path="url(#p3779ad3473)" d="M 183.292247 162.209274 
L 180.994729 160.150495 
L 181.935976 160.133842 
z
" style="stroke:#000000;"/>
    <path clip-path="url(#p3779ad3473)" d="M 180.994729 194.143887 
L 181.173401 195.11109 
L 180.23271 195.08965 
z
" style="stroke:#000000;"/>
    <path clip-path="url(#p3779ad3473)" d="M 183.292247 192.087075 
L 183.396108 189.092978 
L 182.292953 191.196837 
z
" style="stroke:#000000;"/>
    <path clip-path="url(#p3779ad3473)" d="M 183.396108 165.203234 
L 183.292247 162.209274 
L 182.292953 163.100826 
z
" style="stroke:#000000;"/>
    <path clip-path="url(#p3779ad3473)" d="M 181.173401 195.11109 
L 179.694241 194.755179 
L 180.23271 195.08965 
z
" style="stroke:#000000;"/>
    <path clip-path="url(#p3779ad3473)" d="M 181.017118 161.149749 
L 181.351445 163.114247 
L 182.292953 163.100826 
z
" style="stroke:#000000;"/>
    <path clip-path="url(#p3779ad3473)" d="M 180.634537 159.523584 
L 180.23271 159.205733 
L 179.694241 159.540911 
z
" style="stroke:#000000;"/>
    <path clip-path="url(#p3779ad3473)" d="M 181.173401 195.11109 
L 180.994729 194.143887 
L 181.935976 194.164291 
z
" style="stroke:#000000;"/>
    <path clip-path="url(#p3779ad3473)" d="M 181.017118 161.149749 
L 179.128454 159.990654 
L 180.076541 161.165301 
z
" style="stroke:#000000;"/>
    <path clip-path="url(#p3779ad3473)" d="M 183.292247 192.087075 
L 182.292953 191.196837 
L 181.935976 194.164291 
z
" style="stroke:#000000;"/>
    <path clip-path="url(#p3779ad3473)" d="M 182.292953 163.100826 
L 183.292247 162.209274 
L 181.935976 160.133842 
z
" style="stroke:#000000;"/>
    <path clip-path="url(#p3779ad3473)" d="M 182.292953 191.196837 
L 180.076541 193.130287 
L 181.017118 193.149592 
z
" style="stroke:#000000;"/>
    <path clip-path="url(#p3779ad3473)" d="M 181.935976 160.133842 
L 180.23271 159.205733 
L 181.173401 159.188045 
z
" style="stroke:#000000;"/>
    <path clip-path="url(#p3779ad3473)" d="M 180.634537 194.77626 
L 179.128454 194.306179 
L 179.694241 194.755179 
z
" style="stroke:#000000;"/>
    <path clip-path="url(#p3779ad3473)" d="M 180.068337 194.326774 
L 180.076541 193.130287 
L 179.128454 194.306179 
z
" style="stroke:#000000;"/>
    <path clip-path="url(#p3779ad3473)" d="M 180.068337 159.973815 
L 179.694241 159.540911 
L 179.128454 159.990654 
z
" style="stroke:#000000;"/>
    <path clip-path="url(#p3779ad3473)" d="M 180.23271 159.205733 
L 180.634537 159.523584 
L 181.173401 159.188045 
z
" style="stroke:#000000;"/>
    <path clip-path="url(#p3779ad3473)" d="M 179.694241 194.755179 
L 181.173401 195.11109 
L 180.634537 194.77626 
z
" style="stroke:#000000;"/>
    <path clip-path="url(#p3779ad3473)" d="M 181.935976 194.164291 
L 182.292953 191.196837 
L 181.017118 193.149592 
z
" style="stroke:#000000;"/>
    <path clip-path="url(#p3779ad3473)" d="M 182.292953 163.100826 
L 181.935976 160.133842 
L 181.017118 161.149749 
z
" style="stroke:#000000;"/>
    <path clip-path="url(#p3779ad3473)" d="M 180.076541 193.130287 
L 180.068337 194.326774 
L 181.017118 193.149592 
z
" style="stroke:#000000;"/>
    <path clip-path="url(#p3779ad3473)" d="M 179.694241 159.540911 
L 180.068337 159.973815 
L 180.634537 159.523584 
z
" style="stroke:#000000;"/>
    <path clip-path="url(#p3779ad3473)" d="M 179.128454 159.990654 
L 181.017118 161.149749 
L 180.068337 159.973815 
z
" style="stroke:#000000;"/>
    <path clip-path="url(#p3779ad3473)" d="M 181.935976 194.164291 
L 180.634537 194.77626 
L 181.173401 195.11109 
z
" style="stroke:#000000;"/>
    <path clip-path="url(#p3779ad3473)" d="M 180.634537 159.523584 
L 181.935976 160.133842 
L 181.173401 159.188045 
z
" style="stroke:#000000;"/>
    <path clip-path="url(#p3779ad3473)" d="M 179.128454 194.306179 
L 180.634537 194.77626 
L 180.068337 194.326774 
z
" style="stroke:#000000;"/>
    <path clip-path="url(#p3779ad3473)" d="M 180.634537 194.77626 
L 181.935976 194.164291 
L 181.017118 193.149592 
z
" style="stroke:#000000;"/>
    <path clip-path="url(#p3779ad3473)" d="M 181.935976 160.133842 
L 180.634537 159.523584 
L 181.017118 161.149749 
z
" style="stroke:#000000;"/>
    <path clip-path="url(#p3779ad3473)" d="M 180.634537 194.77626 
L 181.017118 193.149592 
L 180.068337 194.326774 
z
" style="stroke:#000000;"/>
    <path clip-path="url(#p3779ad3473)" d="M 181.017118 161.149749 
L 180.634537 159.523584 
L 180.068337 159.973815 
z
" style="stroke:#000000;"/>
   </g>
  </g>
 </g>
 <defs>
  <clipPath id="p3779ad3473">
   <rect height="271.8" width="279" x="45" y="43.2"/>
  </clipPath>
 </defs>
</svg>
