<?xml version="1.0" encoding="utf-8" standalone="no"?>
<!DOCTYPE svg PUBLIC "-//W3C//DTD SVG 1.1//EN"
  "http://www.w3.org/Graphics/SVG/1.1/DTD/svg11.dtd">
<!-- Created with matplotlib (https://matplotlib.org/) -->
<svg height="360pt" version="1.1" viewBox="0 0 360 360" width="360pt" xmlns="http://www.w3.org/2000/svg" xmlns:xlink="http://www.w3.org/1999/xlink">
 <defs>
  <style type="text/css">
*{stroke-linecap:butt;stroke-linejoin:round;}
  </style>
 </defs>
 <g id="figure_1">
  <g id="patch_1">
   <path d="M 45 315 
L 324 315 
L 324 43.2 
L 45 43.2 
z
" style="fill:#ffffff;"/>
  </g>
  <g id="axes_1">
   <g id="Poly3DCollection_1">
    <path clip-path="url(#p47a29be21f)" d="M 196.724821 161.240537 
L 197.128198 159.628775 
L 197.724797 160.081865 
z
" style="stroke:#000000;"/>
    <path clip-path="url(#p47a29be21f)" d="M 197.128198 194.648278 
L 196.724821 193.036896 
L 197.724797 194.194625 
z
" style="stroke:#000000;"/>
    <path clip-path="url(#p47a29be21f)" d="M 195.755166 160.221699 
L 197.128198 159.628775 
L 196.724821 161.240537 
z
" style="stroke:#000000;"/>
    <path clip-path="url(#p47a29be21f)" d="M 197.128198 194.648278 
L 195.755166 194.056648 
L 196.724821 193.036896 
z
" style="stroke:#000000;"/>
    <path clip-path="url(#p47a29be21f)" d="M 197.128198 159.628775 
L 195.755166 160.221699 
L 196.559983 159.289612 
z
" style="stroke:#000000;"/>
    <path clip-path="url(#p47a29be21f)" d="M 195.755166 194.056648 
L 197.128198 194.648278 
L 196.559983 194.987976 
z
" style="stroke:#000000;"/>
    <path clip-path="url(#p47a29be21f)" d="M 198.458475 194.216339 
L 197.128198 194.648278 
L 197.724797 194.194625 
z
" style="stroke:#000000;"/>
    <path clip-path="url(#p47a29be21f)" d="M 198.458475 160.064111 
L 196.724821 161.240537 
L 197.724797 160.081865 
z
" style="stroke:#000000;"/>
    <path clip-path="url(#p47a29be21f)" d="M 195.755166 160.221699 
L 196.724821 161.240537 
L 195.378131 163.168695 
z
" style="stroke:#000000;"/>
    <path clip-path="url(#p47a29be21f)" d="M 196.724821 193.036896 
L 195.755166 194.056648 
L 195.378131 191.110007 
z
" style="stroke:#000000;"/>
    <path clip-path="url(#p47a29be21f)" d="M 197.861307 159.610494 
L 197.724797 160.081865 
L 197.128198 159.628775 
z
" style="stroke:#000000;"/>
    <path clip-path="url(#p47a29be21f)" d="M 197.457545 193.057276 
L 197.724797 194.194625 
L 196.724821 193.036896 
z
" style="stroke:#000000;"/>
    <path clip-path="url(#p47a29be21f)" d="M 197.861307 194.67052 
L 196.559983 194.987976 
L 197.128198 194.648278 
z
" style="stroke:#000000;"/>
    <path clip-path="url(#p47a29be21f)" d="M 197.292549 159.270935 
L 197.128198 159.628775 
L 196.559983 159.289612 
z
" style="stroke:#000000;"/>
    <path clip-path="url(#p47a29be21f)" d="M 195.755166 160.221699 
L 195.378131 163.168695 
L 194.321726 162.27321 
z
" style="stroke:#000000;"/>
    <path clip-path="url(#p47a29be21f)" d="M 195.378131 191.110007 
L 195.755166 194.056648 
L 194.321726 192.006488 
z
" style="stroke:#000000;"/>
    <path clip-path="url(#p47a29be21f)" d="M 195.755166 160.221699 
L 197.292549 159.270935 
L 196.559983 159.289612 
z
" style="stroke:#000000;"/>
    <path clip-path="url(#p47a29be21f)" d="M 195.378131 191.110007 
L 197.457545 193.057276 
L 196.724821 193.036896 
z
" style="stroke:#000000;"/>
    <path clip-path="url(#p47a29be21f)" d="M 197.724797 160.081865 
L 197.861307 159.610494 
L 198.458475 160.064111 
z
" style="stroke:#000000;"/>
    <path clip-path="url(#p47a29be21f)" d="M 194.321726 162.27321 
L 195.378131 163.168695 
L 194.211847 165.251977 
z
" style="stroke:#000000;"/>
    <path clip-path="url(#p47a29be21f)" d="M 195.378131 191.110007 
L 194.321726 192.006488 
L 194.211847 189.027825 
z
" style="stroke:#000000;"/>
    <path clip-path="url(#p47a29be21f)" d="M 196.559983 194.987976 
L 196.486963 194.078214 
L 195.755166 194.056648 
z
" style="stroke:#000000;"/>
    <path clip-path="url(#p47a29be21f)" d="M 197.724797 194.194625 
L 197.457545 193.057276 
L 198.458475 194.216339 
z
" style="stroke:#000000;"/>
    <path clip-path="url(#p47a29be21f)" d="M 197.128198 194.648278 
L 198.458475 194.216339 
L 197.861307 194.67052 
z
" style="stroke:#000000;"/>
    <path clip-path="url(#p47a29be21f)" d="M 196.724821 161.240537 
L 196.109568 163.154504 
L 195.378131 163.168695 
z
" style="stroke:#000000;"/>
    <path clip-path="url(#p47a29be21f)" d="M 196.724821 161.240537 
L 198.458475 160.064111 
L 197.457545 161.224119 
z
" style="stroke:#000000;"/>
    <path clip-path="url(#p47a29be21f)" d="M 197.128198 159.628775 
L 197.292549 159.270935 
L 197.861307 159.610494 
z
" style="stroke:#000000;"/>
    <path clip-path="url(#p47a29be21f)" d="M 196.559983 194.987976 
L 197.861307 194.67052 
L 197.292549 195.010615 
z
" style="stroke:#000000;"/>
    <path clip-path="url(#p47a29be21f)" d="M 194.321726 162.27321 
L 196.486963 160.204097 
L 195.755166 160.221699 
z
" style="stroke:#000000;"/>
    <path clip-path="url(#p47a29be21f)" d="M 194.321726 162.27321 
L 194.211847 165.251977 
L 193.080253 164.489769 
z
" style="stroke:#000000;"/>
    <path clip-path="url(#p47a29be21f)" d="M 194.211847 189.027825 
L 194.321726 192.006488 
L 193.080253 189.791099 
z
" style="stroke:#000000;"/>
    <path clip-path="url(#p47a29be21f)" d="M 194.211847 189.027825 
L 196.109568 191.128163 
L 195.378131 191.110007 
z
" style="stroke:#000000;"/>
    <path clip-path="url(#p47a29be21f)" d="M 193.080253 164.489769 
L 194.211847 165.251977 
L 193.239107 167.467264 
z
" style="stroke:#000000;"/>
    <path clip-path="url(#p47a29be21f)" d="M 194.211847 189.027825 
L 193.080253 189.791099 
L 193.239107 186.813454 
z
" style="stroke:#000000;"/>
    <path clip-path="url(#p47a29be21f)" d="M 196.486963 194.078214 
L 196.559983 194.987976 
L 197.292549 195.010615 
z
" style="stroke:#000000;"/>
    <path clip-path="url(#p47a29be21f)" d="M 196.109568 163.154504 
L 196.724821 161.240537 
L 197.457545 161.224119 
z
" style="stroke:#000000;"/>
    <path clip-path="url(#p47a29be21f)" d="M 195.755166 194.056648 
L 195.052152 192.025688 
L 194.321726 192.006488 
z
" style="stroke:#000000;"/>
    <path clip-path="url(#p47a29be21f)" d="M 197.292549 159.270935 
L 195.755166 160.221699 
L 196.486963 160.204097 
z
" style="stroke:#000000;"/>
    <path clip-path="url(#p47a29be21f)" d="M 195.378131 163.168695 
L 194.942168 165.240193 
L 194.211847 165.251977 
z
" style="stroke:#000000;"/>
    <path clip-path="url(#p47a29be21f)" d="M 197.457545 193.057276 
L 195.378131 191.110007 
L 196.109568 191.128163 
z
" style="stroke:#000000;"/>
    <path clip-path="url(#p47a29be21f)" d="M 197.457545 193.057276 
L 197.861307 194.67052 
L 198.458475 194.216339 
z
" style="stroke:#000000;"/>
    <path clip-path="url(#p47a29be21f)" d="M 197.861307 159.610494 
L 197.457545 161.224119 
L 198.458475 160.064111 
z
" style="stroke:#000000;"/>
    <path clip-path="url(#p47a29be21f)" d="M 193.239107 167.467264 
L 192.044752 166.84703 
L 193.080253 164.489769 
z
" style="stroke:#000000;"/>
    <path clip-path="url(#p47a29be21f)" d="M 192.044752 187.434814 
L 193.239107 186.813454 
L 193.080253 189.791099 
z
" style="stroke:#000000;"/>
    <path clip-path="url(#p47a29be21f)" d="M 192.044752 166.84703 
L 193.239107 167.467264 
L 192.470883 169.79006 
z
" style="stroke:#000000;"/>
    <path clip-path="url(#p47a29be21f)" d="M 193.239107 186.813454 
L 192.044752 187.434814 
L 192.470883 184.491382 
z
" style="stroke:#000000;"/>
    <path clip-path="url(#p47a29be21f)" d="M 193.080253 164.489769 
L 195.052152 162.257977 
L 194.321726 162.27321 
z
" style="stroke:#000000;"/>
    <path clip-path="url(#p47a29be21f)" d="M 193.239107 186.813454 
L 194.942168 189.043576 
L 194.211847 189.027825 
z
" style="stroke:#000000;"/>
    <path clip-path="url(#p47a29be21f)" d="M 195.052152 192.025688 
L 195.755166 194.056648 
L 196.486963 194.078214 
z
" style="stroke:#000000;"/>
    <path clip-path="url(#p47a29be21f)" d="M 196.486963 194.078214 
L 197.861307 194.67052 
L 197.457545 193.057276 
z
" style="stroke:#000000;"/>
    <path clip-path="url(#p47a29be21f)" d="M 197.861307 159.610494 
L 196.486963 160.204097 
L 197.457545 161.224119 
z
" style="stroke:#000000;"/>
    <path clip-path="url(#p47a29be21f)" d="M 197.861307 194.67052 
L 196.486963 194.078214 
L 197.292549 195.010615 
z
" style="stroke:#000000;"/>
    <path clip-path="url(#p47a29be21f)" d="M 196.486963 160.204097 
L 197.861307 159.610494 
L 197.292549 159.270935 
z
" style="stroke:#000000;"/>
    <path clip-path="url(#p47a29be21f)" d="M 194.942168 165.240193 
L 195.378131 163.168695 
L 196.109568 163.154504 
z
" style="stroke:#000000;"/>
    <path clip-path="url(#p47a29be21f)" d="M 194.211847 165.251977 
L 193.968497 167.458043 
L 193.239107 167.467264 
z
" style="stroke:#000000;"/>
    <path clip-path="url(#p47a29be21f)" d="M 194.321726 192.006488 
L 193.809491 189.807739 
L 193.080253 189.791099 
z
" style="stroke:#000000;"/>
    <path clip-path="url(#p47a29be21f)" d="M 196.486963 160.204097 
L 194.321726 162.27321 
L 195.052152 162.257977 
z
" style="stroke:#000000;"/>
    <path clip-path="url(#p47a29be21f)" d="M 192.470883 169.79006 
L 191.226951 169.318786 
L 192.044752 166.84703 
z
" style="stroke:#000000;"/>
    <path clip-path="url(#p47a29be21f)" d="M 191.226951 184.963828 
L 192.470883 184.491382 
L 192.044752 187.434814 
z
" style="stroke:#000000;"/>
    <path clip-path="url(#p47a29be21f)" d="M 191.226951 169.318786 
L 192.470883 169.79006 
L 191.915858 172.194588 
z
" style="stroke:#000000;"/>
    <path clip-path="url(#p47a29be21f)" d="M 192.470883 184.491382 
L 191.226951 184.963828 
L 191.915858 182.087377 
z
" style="stroke:#000000;"/>
    <path clip-path="url(#p47a29be21f)" d="M 196.109568 191.128163 
L 194.211847 189.027825 
L 194.942168 189.043576 
z
" style="stroke:#000000;"/>
    <path clip-path="url(#p47a29be21f)" d="M 196.486963 194.078214 
L 197.457545 193.057276 
L 196.109568 191.128163 
z
" style="stroke:#000000;"/>
    <path clip-path="url(#p47a29be21f)" d="M 197.457545 161.224119 
L 196.486963 160.204097 
L 196.109568 163.154504 
z
" style="stroke:#000000;"/>
    <path clip-path="url(#p47a29be21f)" d="M 192.470883 184.491382 
L 193.968497 186.826644 
L 193.239107 186.813454 
z
" style="stroke:#000000;"/>
    <path clip-path="url(#p47a29be21f)" d="M 190.636086 171.87761 
L 191.915858 172.194588 
L 191.580315 174.654088 
z
" style="stroke:#000000;"/>
    <path clip-path="url(#p47a29be21f)" d="M 191.915858 182.087377 
L 190.636086 182.405562 
L 191.580315 179.628194 
z
" style="stroke:#000000;"/>
    <path clip-path="url(#p47a29be21f)" d="M 192.044752 166.84703 
L 193.809491 164.477099 
L 193.080253 164.489769 
z
" style="stroke:#000000;"/>
    <path clip-path="url(#p47a29be21f)" d="M 193.239107 167.467264 
L 193.199537 169.783529 
L 192.470883 169.79006 
z
" style="stroke:#000000;"/>
    <path clip-path="url(#p47a29be21f)" d="M 191.915858 172.194588 
L 190.636086 171.87761 
L 191.226951 169.318786 
z
" style="stroke:#000000;"/>
    <path clip-path="url(#p47a29be21f)" d="M 190.636086 182.405562 
L 191.915858 182.087377 
L 191.226951 184.963828 
z
" style="stroke:#000000;"/>
    <path clip-path="url(#p47a29be21f)" d="M 191.580315 179.628194 
L 190.278864 179.788499 
L 191.468038 177.141194 
z
" style="stroke:#000000;"/>
    <path clip-path="url(#p47a29be21f)" d="M 190.278864 174.495009 
L 191.580315 174.654088 
L 191.468038 177.141194 
z
" style="stroke:#000000;"/>
    <path clip-path="url(#p47a29be21f)" d="M 193.809491 189.807739 
L 194.321726 192.006488 
L 195.052152 192.025688 
z
" style="stroke:#000000;"/>
    <path clip-path="url(#p47a29be21f)" d="M 193.968497 167.458043 
L 194.211847 165.251977 
L 194.942168 165.240193 
z
" style="stroke:#000000;"/>
    <path clip-path="url(#p47a29be21f)" d="M 193.080253 189.791099 
L 192.772998 187.448728 
L 192.044752 187.434814 
z
" style="stroke:#000000;"/>
    <path clip-path="url(#p47a29be21f)" d="M 196.486963 194.078214 
L 196.109568 191.128163 
L 195.052152 192.025688 
z
" style="stroke:#000000;"/>
    <path clip-path="url(#p47a29be21f)" d="M 196.109568 163.154504 
L 196.486963 160.204097 
L 195.052152 162.257977 
z
" style="stroke:#000000;"/>
    <path clip-path="url(#p47a29be21f)" d="M 191.915858 182.087377 
L 193.199537 184.501884 
L 192.470883 184.491382 
z
" style="stroke:#000000;"/>
    <path clip-path="url(#p47a29be21f)" d="M 191.580315 174.654088 
L 190.278864 174.495009 
L 190.636086 171.87761 
z
" style="stroke:#000000;"/>
    <path clip-path="url(#p47a29be21f)" d="M 190.278864 179.788499 
L 191.580315 179.628194 
L 190.636086 182.405562 
z
" style="stroke:#000000;"/>
    <path clip-path="url(#p47a29be21f)" d="M 194.942168 189.043576 
L 193.239107 186.813454 
L 193.968497 186.826644 
z
" style="stroke:#000000;"/>
    <path clip-path="url(#p47a29be21f)" d="M 192.470883 169.79006 
L 192.64398 172.190842 
L 191.915858 172.194588 
z
" style="stroke:#000000;"/>
    <path clip-path="url(#p47a29be21f)" d="M 195.052152 162.257977 
L 193.080253 164.489769 
L 193.809491 164.477099 
z
" style="stroke:#000000;"/>
    <path clip-path="url(#p47a29be21f)" d="M 191.468038 177.141194 
L 190.159341 177.14181 
L 190.278864 174.495009 
z
" style="stroke:#000000;"/>
    <path clip-path="url(#p47a29be21f)" d="M 190.159341 177.14181 
L 191.468038 177.141194 
L 190.278864 179.788499 
z
" style="stroke:#000000;"/>
    <path clip-path="url(#p47a29be21f)" d="M 195.052152 192.025688 
L 196.109568 191.128163 
L 194.942168 189.043576 
z
" style="stroke:#000000;"/>
    <path clip-path="url(#p47a29be21f)" d="M 196.109568 163.154504 
L 195.052152 162.257977 
L 194.942168 165.240193 
z
" style="stroke:#000000;"/>
    <path clip-path="url(#p47a29be21f)" d="M 191.580315 179.628194 
L 192.64398 182.095095 
L 191.915858 182.087377 
z
" style="stroke:#000000;"/>
    <path clip-path="url(#p47a29be21f)" d="M 191.226951 169.318786 
L 192.772998 166.837087 
L 192.044752 166.84703 
z
" style="stroke:#000000;"/>
    <path clip-path="url(#p47a29be21f)" d="M 191.915858 172.194588 
L 192.308116 174.653192 
L 191.580315 174.654088 
z
" style="stroke:#000000;"/>
    <path clip-path="url(#p47a29be21f)" d="M 190.595678 161.254172 
L 188.412946 158.395617 
L 191.686063 160.942031 
z
" style="stroke:#000000;"/>
    <path clip-path="url(#p47a29be21f)" d="M 191.686063 160.942031 
L 188.412946 165.995758 
L 190.595678 161.254172 
z
" style="stroke:#000000;"/>
    <path clip-path="url(#p47a29be21f)" d="M 193.199537 169.783529 
L 193.239107 167.467264 
L 193.968497 167.458043 
z
" style="stroke:#000000;"/>
    <path clip-path="url(#p47a29be21f)" d="M 191.468038 177.141194 
L 192.308116 179.633063 
L 191.580315 179.628194 
z
" style="stroke:#000000;"/>
    <path clip-path="url(#p47a29be21f)" d="M 191.580315 174.654088 
L 192.195731 177.14318 
L 191.468038 177.141194 
z
" style="stroke:#000000;"/>
    <path clip-path="url(#p47a29be21f)" d="M 192.044752 187.434814 
L 191.954412 184.974882 
L 191.226951 184.963828 
z
" style="stroke:#000000;"/>
    <path clip-path="url(#p47a29be21f)" d="M 192.772998 187.448728 
L 193.080253 189.791099 
L 193.809491 189.807739 
z
" style="stroke:#000000;"/>
    <path clip-path="url(#p47a29be21f)" d="M 193.968497 186.826644 
L 192.470883 184.491382 
L 193.199537 184.501884 
z
" style="stroke:#000000;"/>
    <path clip-path="url(#p47a29be21f)" d="M 195.052152 192.025688 
L 194.942168 189.043576 
L 193.809491 189.807739 
z
" style="stroke:#000000;"/>
    <path clip-path="url(#p47a29be21f)" d="M 194.942168 165.240193 
L 195.052152 162.257977 
L 193.809491 164.477099 
z
" style="stroke:#000000;"/>
    <path clip-path="url(#p47a29be21f)" d="M 190.636086 171.87761 
L 191.954412 169.311707 
L 191.226951 169.318786 
z
" style="stroke:#000000;"/>
    <path clip-path="url(#p47a29be21f)" d="M 193.809491 164.477099 
L 192.044752 166.84703 
L 192.772998 166.837087 
z
" style="stroke:#000000;"/>
    <path clip-path="url(#p47a29be21f)" d="M 188.412946 165.995758 
L 191.686063 160.942031 
L 188.412946 168.529139 
z
" style="stroke:#000000;"/>
    <path clip-path="url(#p47a29be21f)" d="M 192.64398 172.190842 
L 192.470883 169.79006 
L 193.199537 169.783529 
z
" style="stroke:#000000;"/>
    <path clip-path="url(#p47a29be21f)" d="M 191.226951 184.963828 
L 191.362981 182.413651 
L 190.636086 182.405562 
z
" style="stroke:#000000;"/>
    <path clip-path="url(#p47a29be21f)" d="M 193.809491 189.807739 
L 194.942168 189.043576 
L 193.968497 186.826644 
z
" style="stroke:#000000;"/>
    <path clip-path="url(#p47a29be21f)" d="M 194.942168 165.240193 
L 193.809491 164.477099 
L 193.968497 167.458043 
z
" style="stroke:#000000;"/>
    <path clip-path="url(#p47a29be21f)" d="M 193.199537 184.501884 
L 191.915858 182.087377 
L 192.64398 182.095095 
z
" style="stroke:#000000;"/>
    <path clip-path="url(#p47a29be21f)" d="M 188.412946 158.395617 
L 190.595678 161.254172 
L 188.412946 159.662307 
z
" style="stroke:#000000;"/>
    <path clip-path="url(#p47a29be21f)" d="M 190.278864 174.495009 
L 191.362981 171.873495 
L 190.636086 171.87761 
z
" style="stroke:#000000;"/>
    <path clip-path="url(#p47a29be21f)" d="M 192.308116 174.653192 
L 191.915858 172.194588 
L 192.64398 172.190842 
z
" style="stroke:#000000;"/>
    <path clip-path="url(#p47a29be21f)" d="M 190.636086 182.405562 
L 191.005416 179.793555 
L 190.278864 179.788499 
z
" style="stroke:#000000;"/>
    <path clip-path="url(#p47a29be21f)" d="M 191.954412 184.974882 
L 192.044752 187.434814 
L 192.772998 187.448728 
z
" style="stroke:#000000;"/>
    <path clip-path="url(#p47a29be21f)" d="M 192.64398 182.095095 
L 191.580315 179.628194 
L 192.308116 179.633063 
z
" style="stroke:#000000;"/>
    <path clip-path="url(#p47a29be21f)" d="M 190.159341 177.14181 
L 191.005416 174.493928 
L 190.278864 174.495009 
z
" style="stroke:#000000;"/>
    <path clip-path="url(#p47a29be21f)" d="M 190.278864 179.788499 
L 190.885779 177.143798 
L 190.159341 177.14181 
z
" style="stroke:#000000;"/>
    <path clip-path="url(#p47a29be21f)" d="M 192.195731 177.14318 
L 191.580315 174.654088 
L 192.308116 174.653192 
z
" style="stroke:#000000;"/>
    <path clip-path="url(#p47a29be21f)" d="M 192.308116 179.633063 
L 191.468038 177.141194 
L 192.195731 177.14318 
z
" style="stroke:#000000;"/>
    <path clip-path="url(#p47a29be21f)" d="M 192.772998 166.837087 
L 191.226951 169.318786 
L 191.954412 169.311707 
z
" style="stroke:#000000;"/>
    <path clip-path="url(#p47a29be21f)" d="M 193.968497 186.826644 
L 192.772998 187.448728 
L 193.809491 189.807739 
z
" style="stroke:#000000;"/>
    <path clip-path="url(#p47a29be21f)" d="M 192.772998 166.837087 
L 193.968497 167.458043 
L 193.809491 164.477099 
z
" style="stroke:#000000;"/>
    <path clip-path="url(#p47a29be21f)" d="M 191.322534 161.237742 
L 188.412946 159.662307 
L 190.595678 161.254172 
z
" style="stroke:#000000;"/>
    <path clip-path="url(#p47a29be21f)" d="M 188.412946 165.995758 
L 191.322534 161.237742 
L 190.595678 161.254172 
z
" style="stroke:#000000;"/>
    <path clip-path="url(#p47a29be21f)" d="M 192.772998 187.448728 
L 193.968497 186.826644 
L 193.199537 184.501884 
z
" style="stroke:#000000;"/>
    <path clip-path="url(#p47a29be21f)" d="M 193.968497 167.458043 
L 192.772998 166.837087 
L 193.199537 169.783529 
z
" style="stroke:#000000;"/>
    <path clip-path="url(#p47a29be21f)" d="M 191.362981 182.413651 
L 191.226951 184.963828 
L 191.954412 184.974882 
z
" style="stroke:#000000;"/>
    <path clip-path="url(#p47a29be21f)" d="M 189.137707 158.375861 
L 191.686063 160.942031 
L 188.412946 158.395617 
z
" style="stroke:#000000;"/>
    <path clip-path="url(#p47a29be21f)" d="M 191.686063 160.942031 
L 189.137707 168.521138 
L 188.412946 168.529139 
z
" style="stroke:#000000;"/>
    <path clip-path="url(#p47a29be21f)" d="M 191.954412 169.311707 
L 190.636086 171.87761 
L 191.362981 171.873495 
z
" style="stroke:#000000;"/>
    <path clip-path="url(#p47a29be21f)" d="M 191.686063 160.942031 
L 189.137707 158.375861 
L 192.413964 160.925244 
z
" style="stroke:#000000;"/>
    <path clip-path="url(#p47a29be21f)" d="M 189.137707 168.521138 
L 191.686063 160.942031 
L 192.413964 160.925244 
z
" style="stroke:#000000;"/>
    <path clip-path="url(#p47a29be21f)" d="M 191.005416 179.793555 
L 190.636086 182.405562 
L 191.362981 182.413651 
z
" style="stroke:#000000;"/>
    <path clip-path="url(#p47a29be21f)" d="M 193.199537 184.501884 
L 191.954412 184.974882 
L 192.772998 187.448728 
z
" style="stroke:#000000;"/>
    <path clip-path="url(#p47a29be21f)" d="M 191.954412 169.311707 
L 193.199537 169.783529 
L 192.772998 166.837087 
z
" style="stroke:#000000;"/>
    <path clip-path="url(#p47a29be21f)" d="M 188.412946 158.395617 
L 188.412946 159.662307 
L 186.227594 161.237157 
z
" style="stroke:#000000;"/>
    <path clip-path="url(#p47a29be21f)" d="M 191.954412 184.974882 
L 193.199537 184.501884 
L 192.64398 182.095095 
z
" style="stroke:#000000;"/>
    <path clip-path="url(#p47a29be21f)" d="M 193.199537 169.783529 
L 191.954412 169.311707 
L 192.64398 172.190842 
z
" style="stroke:#000000;"/>
    <path clip-path="url(#p47a29be21f)" d="M 191.362981 171.873495 
L 190.278864 174.495009 
L 191.005416 174.493928 
z
" style="stroke:#000000;"/>
    <path clip-path="url(#p47a29be21f)" d="M 190.885779 177.143798 
L 190.278864 179.788499 
L 191.005416 179.793555 
z
" style="stroke:#000000;"/>
    <path clip-path="url(#p47a29be21f)" d="M 191.005416 174.493928 
L 190.159341 177.14181 
L 190.885779 177.143798 
z
" style="stroke:#000000;"/>
    <path clip-path="url(#p47a29be21f)" d="M 188.412946 165.995758 
L 188.412946 168.529139 
L 185.133934 160.91594 
z
" style="stroke:#000000;"/>
    <path clip-path="url(#p47a29be21f)" d="M 191.362981 182.413651 
L 192.64398 182.095095 
L 192.308116 179.633063 
z
" style="stroke:#000000;"/>
    <path clip-path="url(#p47a29be21f)" d="M 192.64398 172.190842 
L 191.362981 171.873495 
L 192.308116 174.653192 
z
" style="stroke:#000000;"/>
    <path clip-path="url(#p47a29be21f)" d="M 192.64398 182.095095 
L 191.362981 182.413651 
L 191.954412 184.974882 
z
" style="stroke:#000000;"/>
    <path clip-path="url(#p47a29be21f)" d="M 191.362981 171.873495 
L 192.64398 172.190842 
L 191.954412 169.311707 
z
" style="stroke:#000000;"/>
    <path clip-path="url(#p47a29be21f)" d="M 192.308116 174.653192 
L 191.005416 174.493928 
L 192.195731 177.14318 
z
" style="stroke:#000000;"/>
    <path clip-path="url(#p47a29be21f)" d="M 191.005416 179.793555 
L 192.308116 179.633063 
L 192.195731 177.14318 
z
" style="stroke:#000000;"/>
    <path clip-path="url(#p47a29be21f)" d="M 192.308116 179.633063 
L 191.005416 179.793555 
L 191.362981 182.413651 
z
" style="stroke:#000000;"/>
    <path clip-path="url(#p47a29be21f)" d="M 191.005416 174.493928 
L 192.308116 174.653192 
L 191.362981 171.873495 
z
" style="stroke:#000000;"/>
    <path clip-path="url(#p47a29be21f)" d="M 188.412946 158.395617 
L 186.227594 161.237157 
L 185.133934 160.91594 
z
" style="stroke:#000000;"/>
    <path clip-path="url(#p47a29be21f)" d="M 188.412946 165.995758 
L 185.133934 160.91594 
L 186.227594 161.237157 
z
" style="stroke:#000000;"/>
    <path clip-path="url(#p47a29be21f)" d="M 192.195731 177.14318 
L 190.885779 177.143798 
L 191.005416 179.793555 
z
" style="stroke:#000000;"/>
    <path clip-path="url(#p47a29be21f)" d="M 190.885779 177.143798 
L 192.195731 177.14318 
L 191.005416 174.493928 
z
" style="stroke:#000000;"/>
    <path clip-path="url(#p47a29be21f)" d="M 188.412946 159.662307 
L 191.322534 161.237742 
L 189.137707 159.644021 
z
" style="stroke:#000000;"/>
    <path clip-path="url(#p47a29be21f)" d="M 191.322534 161.237742 
L 188.412946 165.995758 
L 189.137707 165.984819 
z
" style="stroke:#000000;"/>
    <path clip-path="url(#p47a29be21f)" d="M 189.137707 159.644021 
L 186.227594 161.237157 
L 188.412946 159.662307 
z
" style="stroke:#000000;"/>
    <path clip-path="url(#p47a29be21f)" d="M 186.227594 161.237157 
L 189.137707 165.984819 
L 188.412946 165.995758 
z
" style="stroke:#000000;"/>
    <path clip-path="url(#p47a29be21f)" d="M 186.664874 177.143457 
L 185.352718 177.144075 
L 186.545113 174.494053 
z
" style="stroke:#000000;"/>
    <path clip-path="url(#p47a29be21f)" d="M 185.352718 177.144075 
L 186.664874 177.143457 
L 186.545113 179.792974 
z
" style="stroke:#000000;"/>
    <path clip-path="url(#p47a29be21f)" d="M 189.137707 165.984819 
L 192.413964 160.925244 
L 191.322534 161.237742 
z
" style="stroke:#000000;"/>
    <path clip-path="url(#p47a29be21f)" d="M 189.137707 158.375861 
L 191.322534 161.237742 
L 192.413964 160.925244 
z
" style="stroke:#000000;"/>
    <path clip-path="url(#p47a29be21f)" d="M 186.545113 174.494053 
L 185.240056 174.65274 
L 186.187088 171.87327 
z
" style="stroke:#000000;"/>
    <path clip-path="url(#p47a29be21f)" d="M 185.240056 179.635516 
L 186.545113 179.792974 
L 186.187088 182.414095 
z
" style="stroke:#000000;"/>
    <path clip-path="url(#p47a29be21f)" d="M 186.545113 179.792974 
L 185.240056 179.635516 
L 185.352718 177.144075 
z
" style="stroke:#000000;"/>
    <path clip-path="url(#p47a29be21f)" d="M 185.240056 174.65274 
L 186.545113 174.494053 
L 185.352718 177.144075 
z
" style="stroke:#000000;"/>
    <path clip-path="url(#p47a29be21f)" d="M 186.187088 171.87327 
L 184.90328 172.188356 
L 185.594585 169.309329 
z
" style="stroke:#000000;"/>
    <path clip-path="url(#p47a29be21f)" d="M 184.90328 182.100218 
L 186.187088 182.414095 
L 185.594585 184.978593 
z
" style="stroke:#000000;"/>
    <path clip-path="url(#p47a29be21f)" d="M 184.90328 172.188356 
L 186.187088 171.87327 
L 185.240056 174.65274 
z
" style="stroke:#000000;"/>
    <path clip-path="url(#p47a29be21f)" d="M 186.187088 182.414095 
L 184.90328 182.100218 
L 185.240056 179.635516 
z
" style="stroke:#000000;"/>
    <path clip-path="url(#p47a29be21f)" d="M 192.413964 160.925244 
L 189.137707 165.984819 
L 189.137707 168.521138 
z
" style="stroke:#000000;"/>
    <path clip-path="url(#p47a29be21f)" d="M 186.545113 174.494053 
L 187.387955 177.145449 
L 186.664874 177.143457 
z
" style="stroke:#000000;"/>
    <path clip-path="url(#p47a29be21f)" d="M 186.664874 177.143457 
L 187.268079 179.798041 
L 186.545113 179.792974 
z
" style="stroke:#000000;"/>
    <path clip-path="url(#p47a29be21f)" d="M 186.187088 171.87327 
L 187.268079 174.49297 
L 186.545113 174.494053 
z
" style="stroke:#000000;"/>
    <path clip-path="url(#p47a29be21f)" d="M 184.345943 169.777467 
L 185.594585 169.309329 
L 184.90328 172.188356 
z
" style="stroke:#000000;"/>
    <path clip-path="url(#p47a29be21f)" d="M 185.594585 184.978593 
L 184.345943 184.511633 
L 184.90328 182.100218 
z
" style="stroke:#000000;"/>
    <path clip-path="url(#p47a29be21f)" d="M 191.322534 161.237742 
L 189.137707 158.375861 
L 189.137707 159.644021 
z
" style="stroke:#000000;"/>
    <path clip-path="url(#p47a29be21f)" d="M 185.594585 169.309329 
L 184.345943 169.777467 
L 184.77388 166.829878 
z
" style="stroke:#000000;"/>
    <path clip-path="url(#p47a29be21f)" d="M 184.345943 184.511633 
L 185.594585 184.978593 
L 184.77388 187.458818 
z
" style="stroke:#000000;"/>
    <path clip-path="url(#p47a29be21f)" d="M 186.545113 179.792974 
L 186.909709 182.422204 
L 186.187088 182.414095 
z
" style="stroke:#000000;"/>
    <path clip-path="url(#p47a29be21f)" d="M 185.855541 160.899092 
L 188.412946 158.395617 
L 185.133934 160.91594 
z
" style="stroke:#000000;"/>
    <path clip-path="url(#p47a29be21f)" d="M 188.412946 168.529139 
L 185.855541 160.899092 
L 185.133934 160.91594 
z
" style="stroke:#000000;"/>
    <path clip-path="url(#p47a29be21f)" d="M 185.594585 169.309329 
L 186.909709 171.869145 
L 186.187088 171.87327 
z
" style="stroke:#000000;"/>
    <path clip-path="url(#p47a29be21f)" d="M 188.412946 158.395617 
L 185.855541 160.899092 
L 189.137707 158.375861 
z
" style="stroke:#000000;"/>
    <path clip-path="url(#p47a29be21f)" d="M 185.855541 160.899092 
L 188.412946 168.529139 
L 189.137707 168.521138 
z
" style="stroke:#000000;"/>
    <path clip-path="url(#p47a29be21f)" d="M 186.187088 182.414095 
L 186.316636 184.989681 
L 185.594585 184.978593 
z
" style="stroke:#000000;"/>
    <path clip-path="url(#p47a29be21f)" d="M 183.573956 167.446105 
L 184.77388 166.829878 
L 184.345943 169.777467 
z
" style="stroke:#000000;"/>
    <path clip-path="url(#p47a29be21f)" d="M 184.77388 187.458818 
L 183.573956 186.843722 
L 184.345943 184.511633 
z
" style="stroke:#000000;"/>
    <path clip-path="url(#p47a29be21f)" d="M 186.227594 161.237157 
L 189.137707 159.644021 
L 186.950254 161.220688 
z
" style="stroke:#000000;"/>
    <path clip-path="url(#p47a29be21f)" d="M 189.137707 165.984819 
L 186.227594 161.237157 
L 186.950254 161.220688 
z
" style="stroke:#000000;"/>
    <path clip-path="url(#p47a29be21f)" d="M 184.77388 166.829878 
L 183.573956 167.446105 
L 183.733642 164.461655 
z
" style="stroke:#000000;"/>
    <path clip-path="url(#p47a29be21f)" d="M 183.573956 186.843722 
L 184.77388 187.458818 
L 183.733642 189.828022 
z
" style="stroke:#000000;"/>
    <path clip-path="url(#p47a29be21f)" d="M 184.77388 166.829878 
L 186.316636 169.302228 
L 185.594585 169.309329 
z
" style="stroke:#000000;"/>
    <path clip-path="url(#p47a29be21f)" d="M 185.240056 179.635516 
L 186.074536 177.146069 
L 185.352718 177.144075 
z
" style="stroke:#000000;"/>
    <path clip-path="url(#p47a29be21f)" d="M 185.352718 177.144075 
L 185.961766 174.651841 
L 185.240056 174.65274 
z
" style="stroke:#000000;"/>
    <path clip-path="url(#p47a29be21f)" d="M 187.268079 179.798041 
L 186.664874 177.143457 
L 187.387955 177.145449 
z
" style="stroke:#000000;"/>
    <path clip-path="url(#p47a29be21f)" d="M 187.387955 177.145449 
L 186.545113 174.494053 
L 187.268079 174.49297 
z
" style="stroke:#000000;"/>
    <path clip-path="url(#p47a29be21f)" d="M 184.90328 182.100218 
L 185.961766 179.640402 
L 185.240056 179.635516 
z
" style="stroke:#000000;"/>
    <path clip-path="url(#p47a29be21f)" d="M 185.594585 184.978593 
L 185.495141 187.472788 
L 184.77388 187.458818 
z
" style="stroke:#000000;"/>
    <path clip-path="url(#p47a29be21f)" d="M 186.909709 182.422204 
L 186.545113 179.792974 
L 187.268079 179.798041 
z
" style="stroke:#000000;"/>
    <path clip-path="url(#p47a29be21f)" d="M 185.240056 174.65274 
L 185.624666 172.184596 
L 184.90328 172.188356 
z
" style="stroke:#000000;"/>
    <path clip-path="url(#p47a29be21f)" d="M 187.268079 174.49297 
L 186.187088 171.87327 
L 186.909709 171.869145 
z
" style="stroke:#000000;"/>
    <path clip-path="url(#p47a29be21f)" d="M 189.137707 158.375861 
L 186.950254 161.220688 
L 189.137707 159.644021 
z
" style="stroke:#000000;"/>
    <path clip-path="url(#p47a29be21f)" d="M 184.345943 184.511633 
L 185.624666 182.107966 
L 184.90328 182.100218 
z
" style="stroke:#000000;"/>
    <path clip-path="url(#p47a29be21f)" d="M 182.595514 165.21946 
L 183.733642 164.461655 
L 183.573956 167.446105 
z
" style="stroke:#000000;"/>
    <path clip-path="url(#p47a29be21f)" d="M 183.733642 189.828022 
L 182.595514 189.071289 
L 183.573956 186.843722 
z
" style="stroke:#000000;"/>
    <path clip-path="url(#p47a29be21f)" d="M 186.316636 184.989681 
L 186.187088 182.414095 
L 186.909709 182.422204 
z
" style="stroke:#000000;"/>
    <path clip-path="url(#p47a29be21f)" d="M 184.90328 172.188356 
L 185.066792 169.770906 
L 184.345943 169.777467 
z
" style="stroke:#000000;"/>
    <path clip-path="url(#p47a29be21f)" d="M 189.137707 165.984819 
L 185.855541 160.899092 
L 189.137707 168.521138 
z
" style="stroke:#000000;"/>
    <path clip-path="url(#p47a29be21f)" d="M 183.733642 164.461655 
L 185.495141 166.819896 
L 184.77388 166.829878 
z
" style="stroke:#000000;"/>
    <path clip-path="url(#p47a29be21f)" d="M 186.909709 171.869145 
L 185.594585 169.309329 
L 186.316636 169.302228 
z
" style="stroke:#000000;"/>
    <path clip-path="url(#p47a29be21f)" d="M 183.733642 164.461655 
L 182.595514 165.21946 
L 182.484925 162.230375 
z
" style="stroke:#000000;"/>
    <path clip-path="url(#p47a29be21f)" d="M 182.595514 189.071289 
L 183.733642 189.828022 
L 182.484925 192.060479 
z
" style="stroke:#000000;"/>
    <path clip-path="url(#p47a29be21f)" d="M 183.573956 186.843722 
L 185.066792 184.522182 
L 184.345943 184.511633 
z
" style="stroke:#000000;"/>
    <path clip-path="url(#p47a29be21f)" d="M 184.77388 187.458818 
L 184.453901 189.844747 
L 183.733642 189.828022 
z
" style="stroke:#000000;"/>
    <path clip-path="url(#p47a29be21f)" d="M 185.495141 187.472788 
L 185.594585 184.978593 
L 186.316636 184.989681 
z
" style="stroke:#000000;"/>
    <path clip-path="url(#p47a29be21f)" d="M 185.961766 174.651841 
L 185.352718 177.144075 
L 186.074536 177.146069 
z
" style="stroke:#000000;"/>
    <path clip-path="url(#p47a29be21f)" d="M 186.074536 177.146069 
L 185.240056 179.635516 
L 185.961766 179.640402 
z
" style="stroke:#000000;"/>
    <path clip-path="url(#p47a29be21f)" d="M 184.345943 169.777467 
L 184.294061 167.436835 
L 183.573956 167.446105 
z
" style="stroke:#000000;"/>
    <path clip-path="url(#p47a29be21f)" d="M 185.855541 160.899092 
L 189.137707 165.984819 
L 186.950254 161.220688 
z
" style="stroke:#000000;"/>
    <path clip-path="url(#p47a29be21f)" d="M 186.950254 161.220688 
L 189.137707 158.375861 
L 185.855541 160.899092 
z
" style="stroke:#000000;"/>
    <path clip-path="url(#p47a29be21f)" d="M 185.624666 172.184596 
L 185.240056 174.65274 
L 185.961766 174.651841 
z
" style="stroke:#000000;"/>
    <path clip-path="url(#p47a29be21f)" d="M 186.316636 169.302228 
L 184.77388 166.829878 
L 185.495141 166.819896 
z
" style="stroke:#000000;"/>
    <path clip-path="url(#p47a29be21f)" d="M 185.961766 179.640402 
L 184.90328 182.100218 
L 185.624666 182.107966 
z
" style="stroke:#000000;"/>
    <path clip-path="url(#p47a29be21f)" d="M 182.484925 162.230375 
L 182.595514 165.21946 
L 181.421008 163.121612 
z
" style="stroke:#000000;"/>
    <path clip-path="url(#p47a29be21f)" d="M 182.595514 189.071289 
L 182.484925 192.060479 
L 181.421008 191.170244 
z
" style="stroke:#000000;"/>
    <path clip-path="url(#p47a29be21f)" d="M 187.387955 177.145449 
L 186.074536 177.146069 
L 187.268079 179.798041 
z
" style="stroke:#000000;"/>
    <path clip-path="url(#p47a29be21f)" d="M 186.074536 177.146069 
L 187.387955 177.145449 
L 187.268079 174.49297 
z
" style="stroke:#000000;"/>
    <path clip-path="url(#p47a29be21f)" d="M 182.484925 162.230375 
L 184.453901 164.448919 
L 183.733642 164.461655 
z
" style="stroke:#000000;"/>
    <path clip-path="url(#p47a29be21f)" d="M 185.066792 169.770906 
L 184.90328 172.188356 
L 185.624666 172.184596 
z
" style="stroke:#000000;"/>
    <path clip-path="url(#p47a29be21f)" d="M 182.595514 189.071289 
L 184.294061 186.856982 
L 183.573956 186.843722 
z
" style="stroke:#000000;"/>
    <path clip-path="url(#p47a29be21f)" d="M 187.268079 179.798041 
L 185.961766 179.640402 
L 186.909709 182.422204 
z
" style="stroke:#000000;"/>
    <path clip-path="url(#p47a29be21f)" d="M 185.961766 174.651841 
L 187.268079 174.49297 
L 186.909709 171.869145 
z
" style="stroke:#000000;"/>
    <path clip-path="url(#p47a29be21f)" d="M 185.624666 182.107966 
L 184.345943 184.511633 
L 185.066792 184.522182 
z
" style="stroke:#000000;"/>
    <path clip-path="url(#p47a29be21f)" d="M 182.484925 162.230375 
L 181.421008 163.121612 
L 181.040993 160.160122 
z
" style="stroke:#000000;"/>
    <path clip-path="url(#p47a29be21f)" d="M 181.421008 191.170244 
L 182.484925 192.060479 
L 181.040993 194.132092 
z
" style="stroke:#000000;"/>
    <path clip-path="url(#p47a29be21f)" d="M 184.453901 189.844747 
L 184.77388 187.458818 
L 185.495141 187.472788 
z
" style="stroke:#000000;"/>
    <path clip-path="url(#p47a29be21f)" d="M 183.573956 167.446105 
L 183.314675 165.207601 
L 182.595514 165.21946 
z
" style="stroke:#000000;"/>
    <path clip-path="url(#p47a29be21f)" d="M 183.733642 189.828022 
L 183.20398 192.079804 
L 182.484925 192.060479 
z
" style="stroke:#000000;"/>
    <path clip-path="url(#p47a29be21f)" d="M 187.268079 174.49297 
L 185.961766 174.651841 
L 186.074536 177.146069 
z
" style="stroke:#000000;"/>
    <path clip-path="url(#p47a29be21f)" d="M 185.961766 179.640402 
L 187.268079 179.798041 
L 186.074536 177.146069 
z
" style="stroke:#000000;"/>
    <path clip-path="url(#p47a29be21f)" d="M 186.909709 182.422204 
L 185.624666 182.107966 
L 186.316636 184.989681 
z
" style="stroke:#000000;"/>
    <path clip-path="url(#p47a29be21f)" d="M 185.624666 172.184596 
L 186.909709 171.869145 
L 186.316636 169.302228 
z
" style="stroke:#000000;"/>
    <path clip-path="url(#p47a29be21f)" d="M 184.294061 167.436835 
L 184.345943 169.777467 
L 185.066792 169.770906 
z
" style="stroke:#000000;"/>
    <path clip-path="url(#p47a29be21f)" d="M 185.495141 166.819896 
L 183.733642 164.461655 
L 184.453901 164.448919 
z
" style="stroke:#000000;"/>
    <path clip-path="url(#p47a29be21f)" d="M 185.624666 182.107966 
L 186.909709 182.422204 
L 185.961766 179.640402 
z
" style="stroke:#000000;"/>
    <path clip-path="url(#p47a29be21f)" d="M 186.909709 171.869145 
L 185.624666 172.184596 
L 185.961766 174.651841 
z
" style="stroke:#000000;"/>
    <path clip-path="url(#p47a29be21f)" d="M 185.066792 184.522182 
L 183.573956 186.843722 
L 184.294061 186.856982 
z
" style="stroke:#000000;"/>
    <path clip-path="url(#p47a29be21f)" d="M 181.040993 160.160122 
L 181.421008 163.121612 
L 180.062945 161.175464 
z
" style="stroke:#000000;"/>
    <path clip-path="url(#p47a29be21f)" d="M 181.421008 191.170244 
L 181.040993 194.132092 
L 180.062945 193.117672 
z
" style="stroke:#000000;"/>
    <path clip-path="url(#p47a29be21f)" d="M 181.421008 191.170244 
L 183.314675 189.087141 
L 182.595514 189.071289 
z
" style="stroke:#000000;"/>
    <path clip-path="url(#p47a29be21f)" d="M 185.066792 184.522182 
L 186.316636 184.989681 
L 185.624666 182.107966 
z
" style="stroke:#000000;"/>
    <path clip-path="url(#p47a29be21f)" d="M 186.316636 169.302228 
L 185.066792 169.770906 
L 185.624666 172.184596 
z
" style="stroke:#000000;"/>
    <path clip-path="url(#p47a29be21f)" d="M 186.316636 184.989681 
L 185.066792 184.522182 
L 185.495141 187.472788 
z
" style="stroke:#000000;"/>
    <path clip-path="url(#p47a29be21f)" d="M 185.066792 169.770906 
L 186.316636 169.302228 
L 185.495141 166.819896 
z
" style="stroke:#000000;"/>
    <path clip-path="url(#p47a29be21f)" d="M 181.040993 160.160122 
L 183.20398 162.215042 
L 182.484925 162.230375 
z
" style="stroke:#000000;"/>
    <path clip-path="url(#p47a29be21f)" d="M 183.20398 192.079804 
L 183.733642 189.828022 
L 184.453901 189.844747 
z
" style="stroke:#000000;"/>
    <path clip-path="url(#p47a29be21f)" d="M 183.314675 165.207601 
L 183.573956 167.446105 
L 184.294061 167.436835 
z
" style="stroke:#000000;"/>
    <path clip-path="url(#p47a29be21f)" d="M 182.595514 165.21946 
L 182.139037 163.107311 
L 181.421008 163.121612 
z
" style="stroke:#000000;"/>
    <path clip-path="url(#p47a29be21f)" d="M 181.040993 160.160122 
L 179.655768 159.552775 
L 180.229283 159.217065 
z
" style="stroke:#000000;"/>
    <path clip-path="url(#p47a29be21f)" d="M 179.655768 194.740744 
L 181.040993 194.132092 
L 180.229283 195.075914 
z
" style="stroke:#000000;"/>
    <path clip-path="url(#p47a29be21f)" d="M 179.655768 159.552775 
L 181.040993 160.160122 
L 180.062945 161.175464 
z
" style="stroke:#000000;"/>
    <path clip-path="url(#p47a29be21f)" d="M 181.040993 194.132092 
L 179.655768 194.740744 
L 180.062945 193.117672 
z
" style="stroke:#000000;"/>
    <path clip-path="url(#p47a29be21f)" d="M 182.484925 192.060479 
L 181.758654 194.153833 
L 181.040993 194.132092 
z
" style="stroke:#000000;"/>
    <path clip-path="url(#p47a29be21f)" d="M 184.294061 186.856982 
L 182.595514 189.071289 
L 183.314675 189.087141 
z
" style="stroke:#000000;"/>
    <path clip-path="url(#p47a29be21f)" d="M 184.453901 164.448919 
L 182.484925 162.230375 
L 183.20398 162.215042 
z
" style="stroke:#000000;"/>
    <path clip-path="url(#p47a29be21f)" d="M 184.294061 186.856982 
L 185.495141 187.472788 
L 185.066792 184.522182 
z
" style="stroke:#000000;"/>
    <path clip-path="url(#p47a29be21f)" d="M 185.495141 166.819896 
L 184.294061 167.436835 
L 185.066792 169.770906 
z
" style="stroke:#000000;"/>
    <path clip-path="url(#p47a29be21f)" d="M 185.495141 187.472788 
L 184.294061 186.856982 
L 184.453901 189.844747 
z
" style="stroke:#000000;"/>
    <path clip-path="url(#p47a29be21f)" d="M 184.294061 167.436835 
L 185.495141 166.819896 
L 184.453901 164.448919 
z
" style="stroke:#000000;"/>
    <path clip-path="url(#p47a29be21f)" d="M 179.655768 159.552775 
L 180.062945 161.175464 
L 179.053217 160.002966 
z
" style="stroke:#000000;"/>
    <path clip-path="url(#p47a29be21f)" d="M 180.062945 193.117672 
L 179.655768 194.740744 
L 179.053217 194.291121 
z
" style="stroke:#000000;"/>
    <path clip-path="url(#p47a29be21f)" d="M 180.062945 193.117672 
L 182.139037 191.18854 
L 181.421008 191.170244 
z
" style="stroke:#000000;"/>
    <path clip-path="url(#p47a29be21f)" d="M 182.139037 163.107311 
L 182.595514 165.21946 
L 183.314675 165.207601 
z
" style="stroke:#000000;"/>
    <path clip-path="url(#p47a29be21f)" d="M 180.229283 159.217065 
L 181.758654 160.142377 
L 181.040993 160.160122 
z
" style="stroke:#000000;"/>
    <path clip-path="url(#p47a29be21f)" d="M 181.758654 194.153833 
L 182.484925 192.060479 
L 183.20398 192.079804 
z
" style="stroke:#000000;"/>
    <path clip-path="url(#p47a29be21f)" d="M 181.421008 163.121612 
L 180.779662 161.158895 
L 180.062945 161.175464 
z
" style="stroke:#000000;"/>
    <path clip-path="url(#p47a29be21f)" d="M 181.040993 194.132092 
L 180.946161 195.098757 
L 180.229283 195.075914 
z
" style="stroke:#000000;"/>
    <path clip-path="url(#p47a29be21f)" d="M 183.314675 189.087141 
L 184.453901 189.844747 
L 184.294061 186.856982 
z
" style="stroke:#000000;"/>
    <path clip-path="url(#p47a29be21f)" d="M 184.453901 164.448919 
L 183.314675 165.207601 
L 184.294061 167.436835 
z
" style="stroke:#000000;"/>
    <path clip-path="url(#p47a29be21f)" d="M 183.314675 189.087141 
L 181.421008 191.170244 
L 182.139037 191.18854 
z
" style="stroke:#000000;"/>
    <path clip-path="url(#p47a29be21f)" d="M 184.453901 189.844747 
L 183.314675 189.087141 
L 183.20398 192.079804 
z
" style="stroke:#000000;"/>
    <path clip-path="url(#p47a29be21f)" d="M 183.314675 165.207601 
L 184.453901 164.448919 
L 183.20398 162.215042 
z
" style="stroke:#000000;"/>
    <path clip-path="url(#p47a29be21f)" d="M 183.20398 162.215042 
L 181.040993 160.160122 
L 181.758654 160.142377 
z
" style="stroke:#000000;"/>
    <path clip-path="url(#p47a29be21f)" d="M 180.946161 195.098757 
L 179.655768 194.740744 
L 180.229283 195.075914 
z
" style="stroke:#000000;"/>
    <path clip-path="url(#p47a29be21f)" d="M 180.372092 159.534317 
L 180.229283 159.217065 
L 179.655768 159.552775 
z
" style="stroke:#000000;"/>
    <path clip-path="url(#p47a29be21f)" d="M 180.779662 161.158895 
L 179.053217 160.002966 
L 180.062945 161.175464 
z
" style="stroke:#000000;"/>
    <path clip-path="url(#p47a29be21f)" d="M 180.779662 161.158895 
L 181.421008 163.121612 
L 182.139037 163.107311 
z
" style="stroke:#000000;"/>
    <path clip-path="url(#p47a29be21f)" d="M 180.372092 194.763201 
L 179.053217 194.291121 
L 179.655768 194.740744 
z
" style="stroke:#000000;"/>
    <path clip-path="url(#p47a29be21f)" d="M 179.768959 194.313059 
L 180.062945 193.117672 
L 179.053217 194.291121 
z
" style="stroke:#000000;"/>
    <path clip-path="url(#p47a29be21f)" d="M 180.946161 195.098757 
L 181.040993 194.132092 
L 181.758654 194.153833 
z
" style="stroke:#000000;"/>
    <path clip-path="url(#p47a29be21f)" d="M 183.20398 192.079804 
L 183.314675 189.087141 
L 182.139037 191.18854 
z
" style="stroke:#000000;"/>
    <path clip-path="url(#p47a29be21f)" d="M 183.314675 165.207601 
L 183.20398 162.215042 
L 182.139037 163.107311 
z
" style="stroke:#000000;"/>
    <path clip-path="url(#p47a29be21f)" d="M 179.768959 159.985029 
L 179.655768 159.552775 
L 179.053217 160.002966 
z
" style="stroke:#000000;"/>
    <path clip-path="url(#p47a29be21f)" d="M 182.139037 191.18854 
L 180.062945 193.117672 
L 180.779662 193.13824 
z
" style="stroke:#000000;"/>
    <path clip-path="url(#p47a29be21f)" d="M 181.758654 160.142377 
L 180.229283 159.217065 
L 180.946161 159.19822 
z
" style="stroke:#000000;"/>
    <path clip-path="url(#p47a29be21f)" d="M 183.20398 192.079804 
L 182.139037 191.18854 
L 181.758654 194.153833 
z
" style="stroke:#000000;"/>
    <path clip-path="url(#p47a29be21f)" d="M 182.139037 163.107311 
L 183.20398 162.215042 
L 181.758654 160.142377 
z
" style="stroke:#000000;"/>
    <path clip-path="url(#p47a29be21f)" d="M 180.229283 159.217065 
L 180.372092 159.534317 
L 180.946161 159.19822 
z
" style="stroke:#000000;"/>
    <path clip-path="url(#p47a29be21f)" d="M 179.655768 194.740744 
L 180.946161 195.098757 
L 180.372092 194.763201 
z
" style="stroke:#000000;"/>
    <path clip-path="url(#p47a29be21f)" d="M 180.062945 193.117672 
L 179.768959 194.313059 
L 180.779662 193.13824 
z
" style="stroke:#000000;"/>
    <path clip-path="url(#p47a29be21f)" d="M 179.655768 159.552775 
L 179.768959 159.985029 
L 180.372092 159.534317 
z
" style="stroke:#000000;"/>
    <path clip-path="url(#p47a29be21f)" d="M 181.758654 194.153833 
L 182.139037 191.18854 
L 180.779662 193.13824 
z
" style="stroke:#000000;"/>
    <path clip-path="url(#p47a29be21f)" d="M 182.139037 163.107311 
L 181.758654 160.142377 
L 180.779662 161.158895 
z
" style="stroke:#000000;"/>
    <path clip-path="url(#p47a29be21f)" d="M 179.053217 160.002966 
L 180.779662 161.158895 
L 179.768959 159.985029 
z
" style="stroke:#000000;"/>
    <path clip-path="url(#p47a29be21f)" d="M 179.053217 194.291121 
L 180.372092 194.763201 
L 179.768959 194.313059 
z
" style="stroke:#000000;"/>
    <path clip-path="url(#p47a29be21f)" d="M 181.758654 194.153833 
L 180.372092 194.763201 
L 180.946161 195.098757 
z
" style="stroke:#000000;"/>
    <path clip-path="url(#p47a29be21f)" d="M 180.372092 159.534317 
L 181.758654 160.142377 
L 180.946161 159.19822 
z
" style="stroke:#000000;"/>
    <path clip-path="url(#p47a29be21f)" d="M 180.372092 194.763201 
L 181.758654 194.153833 
L 180.779662 193.13824 
z
" style="stroke:#000000;"/>
    <path clip-path="url(#p47a29be21f)" d="M 181.758654 160.142377 
L 180.372092 159.534317 
L 180.779662 161.158895 
z
" style="stroke:#000000;"/>
    <path clip-path="url(#p47a29be21f)" d="M 180.372092 194.763201 
L 180.779662 193.13824 
L 179.768959 194.313059 
z
" style="stroke:#000000;"/>
    <path clip-path="url(#p47a29be21f)" d="M 180.779662 161.158895 
L 180.372092 159.534317 
L 179.768959 159.985029 
z
" style="stroke:#000000;"/>
   </g>
  </g>
 </g>
 <defs>
  <clipPath id="p47a29be21f">
   <rect height="271.8" width="279" x="45" y="43.2"/>
  </clipPath>
 </defs>
</svg>
