<?xml version="1.0" encoding="utf-8" standalone="no"?>
<!DOCTYPE svg PUBLIC "-//W3C//DTD SVG 1.1//EN"
  "http://www.w3.org/Graphics/SVG/1.1/DTD/svg11.dtd">
<!-- Created with matplotlib (https://matplotlib.org/) -->
<svg height="360pt" version="1.1" viewBox="0 0 360 360" width="360pt" xmlns="http://www.w3.org/2000/svg" xmlns:xlink="http://www.w3.org/1999/xlink">
 <defs>
  <style type="text/css">
*{stroke-linecap:butt;stroke-linejoin:round;}
  </style>
 </defs>
 <g id="figure_1">
  <g id="patch_1">
   <path d="M 0 360 
L 360 360 
L 360 0 
L 0 0 
z
" style="fill:#ffffff;"/>
  </g>
  <g id="patch_2">
   <path d="M 45 315 
L 324 315 
L 324 43.2 
L 45 43.2 
z
" style="fill:#ffffff;"/>
  </g>
  <g id="axes_1">
   <g id="Poly3DCollection_1">
    <path clip-path="url(#pe3e46f8055)" d="M 180.941082 159.597674 
L 181.375559 161.213648 
L 180.298371 160.049994 
z
" style="stroke:#000000;"/>
    <path clip-path="url(#pe3e46f8055)" d="M 181.375559 193.070273 
L 180.941082 194.686117 
L 180.298371 194.233605 
z
" style="stroke:#000000;"/>
    <path clip-path="url(#pe3e46f8055)" d="M 180.941082 159.597674 
L 182.419714 160.195556 
L 181.375559 161.213648 
z
" style="stroke:#000000;"/>
    <path clip-path="url(#pe3e46f8055)" d="M 182.419714 194.088679 
L 180.941082 194.686117 
L 181.375559 193.070273 
z
" style="stroke:#000000;"/>
    <path clip-path="url(#pe3e46f8055)" d="M 182.419714 160.195556 
L 180.941082 159.597674 
L 181.553088 159.259508 
z
" style="stroke:#000000;"/>
    <path clip-path="url(#pe3e46f8055)" d="M 180.941082 194.686117 
L 182.419714 194.088679 
L 181.553088 195.024466 
z
" style="stroke:#000000;"/>
    <path clip-path="url(#pe3e46f8055)" d="M 182.419714 160.195556 
L 182.825617 163.148458 
L 181.375559 161.213648 
z
" style="stroke:#000000;"/>
    <path clip-path="url(#pe3e46f8055)" d="M 182.825617 191.135898 
L 182.419714 194.088679 
L 181.375559 193.070273 
z
" style="stroke:#000000;"/>
    <path clip-path="url(#pe3e46f8055)" d="M 183.962615 162.254015 
L 182.825617 163.148458 
L 182.419714 160.195556 
z
" style="stroke:#000000;"/>
    <path clip-path="url(#pe3e46f8055)" d="M 182.825617 191.135898 
L 183.962615 192.030681 
L 182.419714 194.088679 
z
" style="stroke:#000000;"/>
    <path clip-path="url(#pe3e46f8055)" d="M 183.962615 162.254015 
L 184.080851 165.237332 
L 182.825617 163.148458 
z
" style="stroke:#000000;"/>
    <path clip-path="url(#pe3e46f8055)" d="M 184.080851 189.0474 
L 183.962615 192.030681 
L 182.825617 191.135898 
z
" style="stroke:#000000;"/>
    <path clip-path="url(#pe3e46f8055)" d="M 185.298241 164.476272 
L 184.080851 165.237332 
L 183.962615 162.254015 
z
" style="stroke:#000000;"/>
    <path clip-path="url(#pe3e46f8055)" d="M 184.080851 189.0474 
L 185.298241 189.808825 
L 183.962615 192.030681 
z
" style="stroke:#000000;"/>
    <path clip-path="url(#pe3e46f8055)" d="M 184.080851 165.237332 
L 185.298241 164.476272 
L 185.127373 167.457212 
z
" style="stroke:#000000;"/>
    <path clip-path="url(#pe3e46f8055)" d="M 185.298241 189.808825 
L 184.080851 189.0474 
L 185.127373 186.827834 
z
" style="stroke:#000000;"/>
    <path clip-path="url(#pe3e46f8055)" d="M 180.041405 160.030861 
L 180.941082 159.597674 
L 180.298371 160.049994 
z
" style="stroke:#000000;"/>
    <path clip-path="url(#pe3e46f8055)" d="M 180.041405 194.257005 
L 181.375559 193.070273 
L 180.298371 194.233605 
z
" style="stroke:#000000;"/>
    <path clip-path="url(#pe3e46f8055)" d="M 180.684902 194.710082 
L 180.298371 194.233605 
L 180.941082 194.686117 
z
" style="stroke:#000000;"/>
    <path clip-path="url(#pe3e46f8055)" d="M 186.411816 166.838052 
L 185.127373 167.457212 
L 185.298241 164.476272 
z
" style="stroke:#000000;"/>
    <path clip-path="url(#pe3e46f8055)" d="M 185.127373 186.827834 
L 186.411816 187.447378 
L 185.298241 189.808825 
z
" style="stroke:#000000;"/>
    <path clip-path="url(#pe3e46f8055)" d="M 181.11991 161.195961 
L 180.298371 160.049994 
L 181.375559 161.213648 
z
" style="stroke:#000000;"/>
    <path clip-path="url(#pe3e46f8055)" d="M 185.127373 167.457212 
L 186.411816 166.838052 
L 185.953606 169.783727 
z
" style="stroke:#000000;"/>
    <path clip-path="url(#pe3e46f8055)" d="M 186.411816 187.447378 
L 185.127373 186.827834 
L 185.953606 184.501566 
z
" style="stroke:#000000;"/>
    <path clip-path="url(#pe3e46f8055)" d="M 180.684902 159.577977 
L 181.553088 159.259508 
L 180.941082 159.597674 
z
" style="stroke:#000000;"/>
    <path clip-path="url(#pe3e46f8055)" d="M 181.297655 195.048853 
L 180.941082 194.686117 
L 181.553088 195.024466 
z
" style="stroke:#000000;"/>
    <path clip-path="url(#pe3e46f8055)" d="M 187.290982 169.3133 
L 185.953606 169.783727 
L 186.411816 166.838052 
z
" style="stroke:#000000;"/>
    <path clip-path="url(#pe3e46f8055)" d="M 185.953606 184.501566 
L 187.290982 184.972394 
L 186.411816 187.447378 
z
" style="stroke:#000000;"/>
    <path clip-path="url(#pe3e46f8055)" d="M 182.419714 194.088679 
L 181.297655 195.048853 
L 181.553088 195.024466 
z
" style="stroke:#000000;"/>
    <path clip-path="url(#pe3e46f8055)" d="M 185.953606 169.783727 
L 187.290982 169.3133 
L 186.550399 172.191281 
z
" style="stroke:#000000;"/>
    <path clip-path="url(#pe3e46f8055)" d="M 187.290982 184.972394 
L 185.953606 184.501566 
L 186.550399 182.09419 
z
" style="stroke:#000000;"/>
    <path clip-path="url(#pe3e46f8055)" d="M 182.825617 163.148458 
L 181.11991 161.195961 
L 181.375559 161.213648 
z
" style="stroke:#000000;"/>
    <path clip-path="url(#pe3e46f8055)" d="M 181.553088 159.259508 
L 182.165341 160.1766 
L 182.419714 160.195556 
z
" style="stroke:#000000;"/>
    <path clip-path="url(#pe3e46f8055)" d="M 181.375559 193.070273 
L 182.57174 191.155448 
L 182.825617 191.135898 
z
" style="stroke:#000000;"/>
    <path clip-path="url(#pe3e46f8055)" d="M 186.550399 172.191281 
L 187.926021 171.874802 
L 186.911134 174.653344 
z
" style="stroke:#000000;"/>
    <path clip-path="url(#pe3e46f8055)" d="M 187.926021 182.411082 
L 186.550399 182.09419 
L 186.911134 179.632236 
z
" style="stroke:#000000;"/>
    <path clip-path="url(#pe3e46f8055)" d="M 187.926021 171.874802 
L 186.550399 172.191281 
L 187.290982 169.3133 
z
" style="stroke:#000000;"/>
    <path clip-path="url(#pe3e46f8055)" d="M 186.550399 182.09419 
L 187.926021 182.411082 
L 187.290982 184.972394 
z
" style="stroke:#000000;"/>
    <path clip-path="url(#pe3e46f8055)" d="M 188.309884 179.791667 
L 186.911134 179.632236 
L 187.031832 177.142808 
z
" style="stroke:#000000;"/>
    <path clip-path="url(#pe3e46f8055)" d="M 186.911134 174.653344 
L 188.309884 174.494332 
L 187.031832 177.142808 
z
" style="stroke:#000000;"/>
    <path clip-path="url(#pe3e46f8055)" d="M 183.962615 192.030681 
L 182.165341 194.111903 
L 182.419714 194.088679 
z
" style="stroke:#000000;"/>
    <path clip-path="url(#pe3e46f8055)" d="M 188.309884 174.494332 
L 186.911134 174.653344 
L 187.926021 171.874802 
z
" style="stroke:#000000;"/>
    <path clip-path="url(#pe3e46f8055)" d="M 186.911134 179.632236 
L 188.309884 179.791667 
L 187.926021 182.411082 
z
" style="stroke:#000000;"/>
    <path clip-path="url(#pe3e46f8055)" d="M 188.43831 177.143019 
L 187.031832 177.142808 
L 188.309884 174.494332 
z
" style="stroke:#000000;"/>
    <path clip-path="url(#pe3e46f8055)" d="M 187.031832 177.142808 
L 188.43831 177.143019 
L 188.309884 179.791667 
z
" style="stroke:#000000;"/>
    <path clip-path="url(#pe3e46f8055)" d="M 184.080851 165.237332 
L 182.57174 163.133177 
L 182.825617 163.148458 
z
" style="stroke:#000000;"/>
    <path clip-path="url(#pe3e46f8055)" d="M 182.419714 160.195556 
L 183.710127 162.237619 
L 183.962615 162.254015 
z
" style="stroke:#000000;"/>
    <path clip-path="url(#pe3e46f8055)" d="M 190.314151 158.389 
L 187.969445 161.243064 
L 186.797452 160.927816 
z
" style="stroke:#000000;"/>
    <path clip-path="url(#pe3e46f8055)" d="M 190.314151 165.992094 
L 186.797452 160.927816 
L 187.969445 161.243064 
z
" style="stroke:#000000;"/>
    <path clip-path="url(#pe3e46f8055)" d="M 182.825617 191.135898 
L 183.828508 189.064353 
L 184.080851 189.0474 
z
" style="stroke:#000000;"/>
    <path clip-path="url(#pe3e46f8055)" d="M 190.314151 165.992094 
L 190.314151 168.526459 
L 186.797452 160.927816 
z
" style="stroke:#000000;"/>
    <path clip-path="url(#pe3e46f8055)" d="M 185.298241 189.808825 
L 183.710127 192.051347 
L 183.962615 192.030681 
z
" style="stroke:#000000;"/>
    <path clip-path="url(#pe3e46f8055)" d="M 185.127373 167.457212 
L 183.828508 165.224649 
L 184.080851 165.237332 
z
" style="stroke:#000000;"/>
    <path clip-path="url(#pe3e46f8055)" d="M 184.080851 189.0474 
L 184.87631 186.842025 
L 185.127373 186.827834 
z
" style="stroke:#000000;"/>
    <path clip-path="url(#pe3e46f8055)" d="M 190.314151 158.389 
L 190.314151 159.656182 
L 187.969445 161.243064 
z
" style="stroke:#000000;"/>
    <path clip-path="url(#pe3e46f8055)" d="M 183.962615 162.254015 
L 185.047387 164.46264 
L 185.298241 164.476272 
z
" style="stroke:#000000;"/>
    <path clip-path="url(#pe3e46f8055)" d="M 180.298371 194.233605 
L 180.684902 194.710082 
L 180.041405 194.257005 
z
" style="stroke:#000000;"/>
    <path clip-path="url(#pe3e46f8055)" d="M 180.298371 160.049994 
L 181.11991 161.195961 
L 180.041405 160.030861 
z
" style="stroke:#000000;"/>
    <path clip-path="url(#pe3e46f8055)" d="M 185.953606 169.783727 
L 184.87631 167.447291 
L 185.127373 167.457212 
z
" style="stroke:#000000;"/>
    <path clip-path="url(#pe3e46f8055)" d="M 180.941082 159.597674 
L 180.041405 160.030861 
L 180.684902 159.577977 
z
" style="stroke:#000000;"/>
    <path clip-path="url(#pe3e46f8055)" d="M 186.411816 187.447378 
L 185.047387 189.826728 
L 185.298241 189.808825 
z
" style="stroke:#000000;"/>
    <path clip-path="url(#pe3e46f8055)" d="M 185.127373 186.827834 
L 185.703554 184.512863 
L 185.953606 184.501566 
z
" style="stroke:#000000;"/>
    <path clip-path="url(#pe3e46f8055)" d="M 181.375559 193.070273 
L 180.041405 194.257005 
L 181.11991 193.092229 
z
" style="stroke:#000000;"/>
    <path clip-path="url(#pe3e46f8055)" d="M 180.941082 194.686117 
L 181.297655 195.048853 
L 180.684902 194.710082 
z
" style="stroke:#000000;"/>
    <path clip-path="url(#pe3e46f8055)" d="M 185.298241 164.476272 
L 186.162323 166.827359 
L 186.411816 166.838052 
z
" style="stroke:#000000;"/>
    <path clip-path="url(#pe3e46f8055)" d="M 181.553088 159.259508 
L 180.684902 159.577977 
L 181.297655 159.239389 
z
" style="stroke:#000000;"/>
    <path clip-path="url(#pe3e46f8055)" d="M 186.550399 172.191281 
L 185.703554 169.776701 
L 185.953606 169.783727 
z
" style="stroke:#000000;"/>
    <path clip-path="url(#pe3e46f8055)" d="M 190.314151 158.389 
L 192.659817 161.237256 
L 190.314151 159.656182 
z
" style="stroke:#000000;"/>
    <path clip-path="url(#pe3e46f8055)" d="M 185.953606 184.501566 
L 186.301076 182.102491 
L 186.550399 182.09419 
z
" style="stroke:#000000;"/>
    <path clip-path="url(#pe3e46f8055)" d="M 182.165341 160.1766 
L 181.553088 159.259508 
L 181.297655 159.239389 
z
" style="stroke:#000000;"/>
    <path clip-path="url(#pe3e46f8055)" d="M 182.57174 191.155448 
L 181.375559 193.070273 
L 181.11991 193.092229 
z
" style="stroke:#000000;"/>
    <path clip-path="url(#pe3e46f8055)" d="M 186.911134 174.653344 
L 186.301076 172.187253 
L 186.550399 172.191281 
z
" style="stroke:#000000;"/>
    <path clip-path="url(#pe3e46f8055)" d="M 187.290982 184.972394 
L 186.162323 187.462343 
L 186.411816 187.447378 
z
" style="stroke:#000000;"/>
    <path clip-path="url(#pe3e46f8055)" d="M 190.314151 165.992094 
L 193.83301 160.91891 
L 190.314151 168.526459 
z
" style="stroke:#000000;"/>
    <path clip-path="url(#pe3e46f8055)" d="M 186.550399 182.09419 
L 186.662253 179.637472 
L 186.911134 179.632236 
z
" style="stroke:#000000;"/>
    <path clip-path="url(#pe3e46f8055)" d="M 181.297655 195.048853 
L 182.419714 194.088679 
L 182.165341 194.111903 
z
" style="stroke:#000000;"/>
    <path clip-path="url(#pe3e46f8055)" d="M 187.031832 177.142808 
L 186.662253 174.652381 
L 186.911134 174.653344 
z
" style="stroke:#000000;"/>
    <path clip-path="url(#pe3e46f8055)" d="M 186.911134 179.632236 
L 186.783098 177.144944 
L 187.031832 177.142808 
z
" style="stroke:#000000;"/>
    <path clip-path="url(#pe3e46f8055)" d="M 186.411816 166.838052 
L 187.042565 169.305688 
L 187.290982 169.3133 
z
" style="stroke:#000000;"/>
    <path clip-path="url(#pe3e46f8055)" d="M 181.11991 161.195961 
L 182.825617 163.148458 
L 182.57174 163.133177 
z
" style="stroke:#000000;"/>
    <path clip-path="url(#pe3e46f8055)" d="M 187.926021 182.411082 
L 187.042565 184.984278 
L 187.290982 184.972394 
z
" style="stroke:#000000;"/>
    <path clip-path="url(#pe3e46f8055)" d="M 192.659817 161.237256 
L 190.314151 158.389 
L 193.83301 160.91891 
z
" style="stroke:#000000;"/>
    <path clip-path="url(#pe3e46f8055)" d="M 193.83301 160.91891 
L 190.314151 165.992094 
L 192.659817 161.237256 
z
" style="stroke:#000000;"/>
    <path clip-path="url(#pe3e46f8055)" d="M 183.710127 162.237619 
L 182.419714 160.195556 
L 182.165341 160.1766 
z
" style="stroke:#000000;"/>
    <path clip-path="url(#pe3e46f8055)" d="M 187.290982 169.3133 
L 187.678381 171.870379 
L 187.926021 171.874802 
z
" style="stroke:#000000;"/>
    <path clip-path="url(#pe3e46f8055)" d="M 193.598352 177.143792 
L 192.190607 177.143581 
L 192.31912 174.494005 
z
" style="stroke:#000000;"/>
    <path clip-path="url(#pe3e46f8055)" d="M 192.190607 177.143581 
L 193.598352 177.143792 
L 192.31912 179.793195 
z
" style="stroke:#000000;"/>
    <path clip-path="url(#pe3e46f8055)" d="M 186.548431 160.909765 
L 190.314151 158.389 
L 186.797452 160.927816 
z
" style="stroke:#000000;"/>
    <path clip-path="url(#pe3e46f8055)" d="M 190.314151 168.526459 
L 186.548431 160.909765 
L 186.797452 160.927816 
z
" style="stroke:#000000;"/>
    <path clip-path="url(#pe3e46f8055)" d="M 183.828508 189.064353 
L 182.825617 191.135898 
L 182.57174 191.155448 
z
" style="stroke:#000000;"/>
    <path clip-path="url(#pe3e46f8055)" d="M 188.309884 179.791667 
L 187.678381 182.419778 
L 187.926021 182.411082 
z
" style="stroke:#000000;"/>
    <path clip-path="url(#pe3e46f8055)" d="M 193.719191 174.652884 
L 192.31912 174.494005 
L 192.703277 171.87332 
z
" style="stroke:#000000;"/>
    <path clip-path="url(#pe3e46f8055)" d="M 192.31912 179.793195 
L 193.719191 179.634736 
L 192.703277 182.413995 
z
" style="stroke:#000000;"/>
    <path clip-path="url(#pe3e46f8055)" d="M 187.926021 171.874802 
L 188.062713 174.493171 
L 188.309884 174.494332 
z
" style="stroke:#000000;"/>
    <path clip-path="url(#pe3e46f8055)" d="M 182.165341 194.111903 
L 183.962615 192.030681 
L 183.710127 192.051347 
z
" style="stroke:#000000;"/>
    <path clip-path="url(#pe3e46f8055)" d="M 188.43831 177.143019 
L 188.062713 179.797102 
L 188.309884 179.791667 
z
" style="stroke:#000000;"/>
    <path clip-path="url(#pe3e46f8055)" d="M 188.309884 174.494332 
L 188.191296 177.145155 
L 188.43831 177.143019 
z
" style="stroke:#000000;"/>
    <path clip-path="url(#pe3e46f8055)" d="M 182.57174 163.133177 
L 184.080851 165.237332 
L 183.828508 165.224649 
z
" style="stroke:#000000;"/>
    <path clip-path="url(#pe3e46f8055)" d="M 193.719191 179.634736 
L 192.31912 179.793195 
L 193.598352 177.143792 
z
" style="stroke:#000000;"/>
    <path clip-path="url(#pe3e46f8055)" d="M 192.31912 174.494005 
L 193.719191 174.652884 
L 193.598352 177.143792 
z
" style="stroke:#000000;"/>
    <path clip-path="url(#pe3e46f8055)" d="M 194.080378 172.189154 
L 192.703277 171.87332 
L 193.338916 169.310072 
z
" style="stroke:#000000;"/>
    <path clip-path="url(#pe3e46f8055)" d="M 192.703277 182.413995 
L 194.080378 182.098574 
L 193.338916 184.977434 
z
" style="stroke:#000000;"/>
    <path clip-path="url(#pe3e46f8055)" d="M 192.703277 171.87332 
L 194.080378 172.189154 
L 193.719191 174.652884 
z
" style="stroke:#000000;"/>
    <path clip-path="url(#pe3e46f8055)" d="M 194.080378 182.098574 
L 192.703277 182.413995 
L 193.719191 179.634736 
z
" style="stroke:#000000;"/>
    <path clip-path="url(#pe3e46f8055)" d="M 185.047387 164.46264 
L 183.962615 162.254015 
L 183.710127 162.237619 
z
" style="stroke:#000000;"/>
    <path clip-path="url(#pe3e46f8055)" d="M 184.87631 186.842025 
L 184.080851 189.0474 
L 183.828508 189.064353 
z
" style="stroke:#000000;"/>
    <path clip-path="url(#pe3e46f8055)" d="M 193.338916 169.310072 
L 194.678017 169.779428 
L 194.080378 172.189154 
z
" style="stroke:#000000;"/>
    <path clip-path="url(#pe3e46f8055)" d="M 194.678017 184.508479 
L 193.338916 184.977434 
L 194.080378 182.098574 
z
" style="stroke:#000000;"/>
    <path clip-path="url(#pe3e46f8055)" d="M 194.678017 169.779428 
L 193.338916 169.310072 
L 194.219146 166.832197 
z
" style="stroke:#000000;"/>
    <path clip-path="url(#pe3e46f8055)" d="M 193.338916 184.977434 
L 194.678017 184.508479 
L 194.219146 187.455572 
z
" style="stroke:#000000;"/>
    <path clip-path="url(#pe3e46f8055)" d="M 183.828508 165.224649 
L 185.127373 167.457212 
L 184.87631 167.447291 
z
" style="stroke:#000000;"/>
    <path clip-path="url(#pe3e46f8055)" d="M 190.069433 159.636542 
L 187.969445 161.243064 
L 190.314151 159.656182 
z
" style="stroke:#000000;"/>
    <path clip-path="url(#pe3e46f8055)" d="M 187.969445 161.243064 
L 190.069433 165.980344 
L 190.314151 165.992094 
z
" style="stroke:#000000;"/>
    <path clip-path="url(#pe3e46f8055)" d="M 183.710127 192.051347 
L 185.298241 189.808825 
L 185.047387 189.826728 
z
" style="stroke:#000000;"/>
    <path clip-path="url(#pe3e46f8055)" d="M 194.219146 166.832197 
L 195.505629 167.449989 
L 194.678017 169.779428 
z
" style="stroke:#000000;"/>
    <path clip-path="url(#pe3e46f8055)" d="M 195.505629 186.838165 
L 194.219146 187.455572 
L 194.678017 184.508479 
z
" style="stroke:#000000;"/>
    <path clip-path="url(#pe3e46f8055)" d="M 185.703554 184.512863 
L 185.127373 186.827834 
L 184.87631 186.842025 
z
" style="stroke:#000000;"/>
    <path clip-path="url(#pe3e46f8055)" d="M 195.505629 167.449989 
L 194.219146 166.832197 
L 195.334456 164.466675 
z
" style="stroke:#000000;"/>
    <path clip-path="url(#pe3e46f8055)" d="M 194.219146 187.455572 
L 195.505629 186.838165 
L 195.334456 189.821428 
z
" style="stroke:#000000;"/>
    <path clip-path="url(#pe3e46f8055)" d="M 180.684902 194.710082 
L 181.11991 193.092229 
L 180.041405 194.257005 
z
" style="stroke:#000000;"/>
    <path clip-path="url(#pe3e46f8055)" d="M 181.11991 161.195961 
L 180.684902 159.577977 
L 180.041405 160.030861 
z
" style="stroke:#000000;"/>
    <path clip-path="url(#pe3e46f8055)" d="M 186.162323 166.827359 
L 185.298241 164.476272 
L 185.047387 164.46264 
z
" style="stroke:#000000;"/>
    <path clip-path="url(#pe3e46f8055)" d="M 184.87631 167.447291 
L 185.953606 169.783727 
L 185.703554 169.776701 
z
" style="stroke:#000000;"/>
    <path clip-path="url(#pe3e46f8055)" d="M 185.047387 189.826728 
L 186.411816 187.447378 
L 186.162323 187.462343 
z
" style="stroke:#000000;"/>
    <path clip-path="url(#pe3e46f8055)" d="M 186.301076 182.102491 
L 185.953606 184.501566 
L 185.703554 184.512863 
z
" style="stroke:#000000;"/>
    <path clip-path="url(#pe3e46f8055)" d="M 195.334456 164.466675 
L 196.554241 165.226232 
L 195.505629 167.449989 
z
" style="stroke:#000000;"/>
    <path clip-path="url(#pe3e46f8055)" d="M 196.554241 189.062237 
L 195.334456 189.821428 
L 195.505629 186.838165 
z
" style="stroke:#000000;"/>
    <path clip-path="url(#pe3e46f8055)" d="M 182.165341 160.1766 
L 180.684902 159.577977 
L 181.11991 161.195961 
z
" style="stroke:#000000;"/>
    <path clip-path="url(#pe3e46f8055)" d="M 180.684902 194.710082 
L 182.165341 194.111903 
L 181.11991 193.092229 
z
" style="stroke:#000000;"/>
    <path clip-path="url(#pe3e46f8055)" d="M 185.703554 169.776701 
L 186.550399 172.191281 
L 186.301076 172.187253 
z
" style="stroke:#000000;"/>
    <path clip-path="url(#pe3e46f8055)" d="M 182.165341 194.111903 
L 180.684902 194.710082 
L 181.297655 195.048853 
z
" style="stroke:#000000;"/>
    <path clip-path="url(#pe3e46f8055)" d="M 180.684902 159.577977 
L 182.165341 160.1766 
L 181.297655 159.239389 
z
" style="stroke:#000000;"/>
    <path clip-path="url(#pe3e46f8055)" d="M 186.662253 179.637472 
L 186.550399 182.09419 
L 186.301076 182.102491 
z
" style="stroke:#000000;"/>
    <path clip-path="url(#pe3e46f8055)" d="M 196.672737 162.239394 
L 196.554241 165.226232 
L 195.334456 164.466675 
z
" style="stroke:#000000;"/>
    <path clip-path="url(#pe3e46f8055)" d="M 196.554241 189.062237 
L 196.672737 192.049111 
L 195.334456 189.821428 
z
" style="stroke:#000000;"/>
    <path clip-path="url(#pe3e46f8055)" d="M 187.042565 169.305688 
L 186.411816 166.838052 
L 186.162323 166.827359 
z
" style="stroke:#000000;"/>
    <path clip-path="url(#pe3e46f8055)" d="M 190.069433 158.367781 
L 193.83301 160.91891 
L 190.314151 158.389 
z
" style="stroke:#000000;"/>
    <path clip-path="url(#pe3e46f8055)" d="M 193.83301 160.91891 
L 190.069433 168.517865 
L 190.314151 168.526459 
z
" style="stroke:#000000;"/>
    <path clip-path="url(#pe3e46f8055)" d="M 186.301076 172.187253 
L 186.911134 174.653344 
L 186.662253 174.652381 
z
" style="stroke:#000000;"/>
    <path clip-path="url(#pe3e46f8055)" d="M 182.165341 194.111903 
L 182.57174 191.155448 
L 181.11991 193.092229 
z
" style="stroke:#000000;"/>
    <path clip-path="url(#pe3e46f8055)" d="M 182.57174 163.133177 
L 182.165341 160.1766 
L 181.11991 161.195961 
z
" style="stroke:#000000;"/>
    <path clip-path="url(#pe3e46f8055)" d="M 186.783098 177.144944 
L 186.911134 179.632236 
L 186.662253 179.637472 
z
" style="stroke:#000000;"/>
    <path clip-path="url(#pe3e46f8055)" d="M 186.662253 174.652381 
L 187.031832 177.142808 
L 186.783098 177.144944 
z
" style="stroke:#000000;"/>
    <path clip-path="url(#pe3e46f8055)" d="M 186.162323 187.462343 
L 187.290982 184.972394 
L 187.042565 184.984278 
z
" style="stroke:#000000;"/>
    <path clip-path="url(#pe3e46f8055)" d="M 192.417971 161.219581 
L 190.314151 159.656182 
L 192.659817 161.237256 
z
" style="stroke:#000000;"/>
    <path clip-path="url(#pe3e46f8055)" d="M 190.314151 165.992094 
L 192.417971 161.219581 
L 192.659817 161.237256 
z
" style="stroke:#000000;"/>
    <path clip-path="url(#pe3e46f8055)" d="M 192.31912 179.793195 
L 191.948186 177.145719 
L 192.190607 177.143581 
z
" style="stroke:#000000;"/>
    <path clip-path="url(#pe3e46f8055)" d="M 187.678381 171.870379 
L 187.290982 169.3133 
L 187.042565 169.305688 
z
" style="stroke:#000000;"/>
    <path clip-path="url(#pe3e46f8055)" d="M 196.672737 162.239394 
L 197.812487 163.132386 
L 196.554241 165.226232 
z
" style="stroke:#000000;"/>
    <path clip-path="url(#pe3e46f8055)" d="M 197.812487 191.15646 
L 196.672737 192.049111 
L 196.554241 189.062237 
z
" style="stroke:#000000;"/>
    <path clip-path="url(#pe3e46f8055)" d="M 192.190607 177.143581 
L 192.076857 174.492843 
L 192.31912 174.494005 
z
" style="stroke:#000000;"/>
    <path clip-path="url(#pe3e46f8055)" d="M 192.703277 182.413995 
L 192.076857 179.798633 
L 192.31912 179.793195 
z
" style="stroke:#000000;"/>
    <path clip-path="url(#pe3e46f8055)" d="M 187.042565 184.984278 
L 187.926021 182.411082 
L 187.678381 182.419778 
z
" style="stroke:#000000;"/>
    <path clip-path="url(#pe3e46f8055)" d="M 182.57174 163.133177 
L 183.710127 162.237619 
L 182.165341 160.1766 
z
" style="stroke:#000000;"/>
    <path clip-path="url(#pe3e46f8055)" d="M 183.710127 192.051347 
L 182.57174 191.155448 
L 182.165341 194.111903 
z
" style="stroke:#000000;"/>
    <path clip-path="url(#pe3e46f8055)" d="M 192.31912 174.494005 
L 192.461484 171.868894 
L 192.703277 171.87332 
z
" style="stroke:#000000;"/>
    <path clip-path="url(#pe3e46f8055)" d="M 188.062713 174.493171 
L 187.926021 171.874802 
L 187.678381 171.870379 
z
" style="stroke:#000000;"/>
    <path clip-path="url(#pe3e46f8055)" d="M 198.219482 160.174537 
L 197.812487 163.132386 
L 196.672737 162.239394 
z
" style="stroke:#000000;"/>
    <path clip-path="url(#pe3e46f8055)" d="M 197.812487 191.15646 
L 198.219482 194.114431 
L 196.672737 192.049111 
z
" style="stroke:#000000;"/>
    <path clip-path="url(#pe3e46f8055)" d="M 193.338916 184.977434 
L 192.461484 182.422698 
L 192.703277 182.413995 
z
" style="stroke:#000000;"/>
    <path clip-path="url(#pe3e46f8055)" d="M 187.678381 182.419778 
L 188.309884 179.791667 
L 188.062713 179.797102 
z
" style="stroke:#000000;"/>
    <path clip-path="url(#pe3e46f8055)" d="M 188.191296 177.145155 
L 188.309884 174.494332 
L 188.062713 174.493171 
z
" style="stroke:#000000;"/>
    <path clip-path="url(#pe3e46f8055)" d="M 183.710127 192.051347 
L 183.828508 189.064353 
L 182.57174 191.155448 
z
" style="stroke:#000000;"/>
    <path clip-path="url(#pe3e46f8055)" d="M 183.828508 165.224649 
L 183.710127 162.237619 
L 182.57174 163.133177 
z
" style="stroke:#000000;"/>
    <path clip-path="url(#pe3e46f8055)" d="M 192.703277 171.87332 
L 193.097902 169.302452 
L 193.338916 169.310072 
z
" style="stroke:#000000;"/>
    <path clip-path="url(#pe3e46f8055)" d="M 188.062713 179.797102 
L 188.43831 177.143019 
L 188.191296 177.145155 
z
" style="stroke:#000000;"/>
    <path clip-path="url(#pe3e46f8055)" d="M 187.969445 161.243064 
L 190.069433 159.636542 
L 187.721858 161.225403 
z
" style="stroke:#000000;"/>
    <path clip-path="url(#pe3e46f8055)" d="M 190.069433 165.980344 
L 187.969445 161.243064 
L 187.721858 161.225403 
z
" style="stroke:#000000;"/>
    <path clip-path="url(#pe3e46f8055)" d="M 194.219146 187.455572 
L 193.097902 184.98933 
L 193.338916 184.977434 
z
" style="stroke:#000000;"/>
    <path clip-path="url(#pe3e46f8055)" d="M 193.719191 174.652884 
L 193.357656 177.14593 
L 193.598352 177.143792 
z
" style="stroke:#000000;"/>
    <path clip-path="url(#pe3e46f8055)" d="M 198.219482 160.174537 
L 199.266712 161.191436 
L 197.812487 163.132386 
z
" style="stroke:#000000;"/>
    <path clip-path="url(#pe3e46f8055)" d="M 199.266712 193.097846 
L 198.219482 194.114431 
L 197.812487 191.15646 
z
" style="stroke:#000000;"/>
    <path clip-path="url(#pe3e46f8055)" d="M 193.598352 177.143792 
L 193.478642 179.639977 
L 193.719191 179.634736 
z
" style="stroke:#000000;"/>
    <path clip-path="url(#pe3e46f8055)" d="M 194.080378 172.189154 
L 193.478642 174.65192 
L 193.719191 174.652884 
z
" style="stroke:#000000;"/>
    <path clip-path="url(#pe3e46f8055)" d="M 190.314151 158.389 
L 186.548431 160.909765 
L 190.069433 158.367781 
z
" style="stroke:#000000;"/>
    <path clip-path="url(#pe3e46f8055)" d="M 186.548431 160.909765 
L 190.314151 168.526459 
L 190.069433 168.517865 
z
" style="stroke:#000000;"/>
    <path clip-path="url(#pe3e46f8055)" d="M 193.338916 169.310072 
L 193.97921 166.82149 
L 194.219146 166.832197 
z
" style="stroke:#000000;"/>
    <path clip-path="url(#pe3e46f8055)" d="M 185.047387 189.826728 
L 183.828508 189.064353 
L 183.710127 192.051347 
z
" style="stroke:#000000;"/>
    <path clip-path="url(#pe3e46f8055)" d="M 183.828508 165.224649 
L 185.047387 164.46264 
L 183.710127 162.237619 
z
" style="stroke:#000000;"/>
    <path clip-path="url(#pe3e46f8055)" d="M 193.719191 179.634736 
L 193.840271 182.106885 
L 194.080378 182.098574 
z
" style="stroke:#000000;"/>
    <path clip-path="url(#pe3e46f8055)" d="M 199.702581 159.571732 
L 198.219482 160.174537 
L 199.088633 159.234745 
z
" style="stroke:#000000;"/>
    <path clip-path="url(#pe3e46f8055)" d="M 198.219482 194.114431 
L 199.702581 194.71768 
L 199.088633 195.054483 
z
" style="stroke:#000000;"/>
    <path clip-path="url(#pe3e46f8055)" d="M 194.678017 169.779428 
L 193.840271 172.18512 
L 194.080378 172.189154 
z
" style="stroke:#000000;"/>
    <path clip-path="url(#pe3e46f8055)" d="M 198.219482 160.174537 
L 199.702581 159.571732 
L 199.266712 161.191436 
z
" style="stroke:#000000;"/>
    <path clip-path="url(#pe3e46f8055)" d="M 199.702581 194.71768 
L 198.219482 194.114431 
L 199.266712 193.097846 
z
" style="stroke:#000000;"/>
    <path clip-path="url(#pe3e46f8055)" d="M 183.828508 189.064353 
L 185.047387 189.826728 
L 184.87631 186.842025 
z
" style="stroke:#000000;"/>
    <path clip-path="url(#pe3e46f8055)" d="M 185.047387 164.46264 
L 183.828508 165.224649 
L 184.87631 167.447291 
z
" style="stroke:#000000;"/>
    <path clip-path="url(#pe3e46f8055)" d="M 194.080378 182.098574 
L 194.438643 184.519793 
L 194.678017 184.508479 
z
" style="stroke:#000000;"/>
    <path clip-path="url(#pe3e46f8055)" d="M 195.334456 189.821428 
L 193.97921 187.470557 
L 194.219146 187.455572 
z
" style="stroke:#000000;"/>
    <path clip-path="url(#pe3e46f8055)" d="M 195.505629 167.449989 
L 194.438643 169.772392 
L 194.678017 169.779428 
z
" style="stroke:#000000;"/>
    <path clip-path="url(#pe3e46f8055)" d="M 194.219146 166.832197 
L 195.095886 164.453019 
L 195.334456 164.466675 
z
" style="stroke:#000000;"/>
    <path clip-path="url(#pe3e46f8055)" d="M 199.266712 161.191436 
L 199.702581 159.571732 
L 200.347473 160.023062 
z
" style="stroke:#000000;"/>
    <path clip-path="url(#pe3e46f8055)" d="M 199.702581 194.71768 
L 199.266712 193.097846 
L 200.347473 194.266543 
z
" style="stroke:#000000;"/>
    <path clip-path="url(#pe3e46f8055)" d="M 186.162323 187.462343 
L 184.87631 186.842025 
L 185.047387 189.826728 
z
" style="stroke:#000000;"/>
    <path clip-path="url(#pe3e46f8055)" d="M 184.87631 167.447291 
L 186.162323 166.827359 
L 185.047387 164.46264 
z
" style="stroke:#000000;"/>
    <path clip-path="url(#pe3e46f8055)" d="M 194.678017 184.508479 
L 195.267269 186.852383 
L 195.505629 186.838165 
z
" style="stroke:#000000;"/>
    <path clip-path="url(#pe3e46f8055)" d="M 184.87631 186.842025 
L 186.162323 187.462343 
L 185.703554 184.512863 
z
" style="stroke:#000000;"/>
    <path clip-path="url(#pe3e46f8055)" d="M 186.162323 166.827359 
L 184.87631 167.447291 
L 185.703554 169.776701 
z
" style="stroke:#000000;"/>
    <path clip-path="url(#pe3e46f8055)" d="M 196.672737 192.049111 
L 195.095886 189.839363 
L 195.334456 189.821428 
z
" style="stroke:#000000;"/>
    <path clip-path="url(#pe3e46f8055)" d="M 190.314151 159.656182 
L 192.417971 161.219581 
L 190.069433 159.636542 
z
" style="stroke:#000000;"/>
    <path clip-path="url(#pe3e46f8055)" d="M 192.417971 161.219581 
L 190.314151 165.992094 
L 190.069433 165.980344 
z
" style="stroke:#000000;"/>
    <path clip-path="url(#pe3e46f8055)" d="M 196.554241 165.226232 
L 195.267269 167.44005 
L 195.505629 167.449989 
z
" style="stroke:#000000;"/>
    <path clip-path="url(#pe3e46f8055)" d="M 187.042565 184.984278 
L 185.703554 184.512863 
L 186.162323 187.462343 
z
" style="stroke:#000000;"/>
    <path clip-path="url(#pe3e46f8055)" d="M 185.703554 169.776701 
L 187.042565 169.305688 
L 186.162323 166.827359 
z
" style="stroke:#000000;"/>
    <path clip-path="url(#pe3e46f8055)" d="M 185.703554 184.512863 
L 187.042565 184.984278 
L 186.301076 182.102491 
z
" style="stroke:#000000;"/>
    <path clip-path="url(#pe3e46f8055)" d="M 187.042565 169.305688 
L 185.703554 169.776701 
L 186.301076 172.187253 
z
" style="stroke:#000000;"/>
    <path clip-path="url(#pe3e46f8055)" d="M 195.505629 186.838165 
L 196.317165 189.079227 
L 196.554241 189.062237 
z
" style="stroke:#000000;"/>
    <path clip-path="url(#pe3e46f8055)" d="M 195.334456 164.466675 
L 196.435807 162.222961 
L 196.672737 162.239394 
z
" style="stroke:#000000;"/>
    <path clip-path="url(#pe3e46f8055)" d="M 186.301076 182.102491 
L 187.678381 182.419778 
L 186.662253 179.637472 
z
" style="stroke:#000000;"/>
    <path clip-path="url(#pe3e46f8055)" d="M 187.678381 171.870379 
L 186.301076 172.187253 
L 186.662253 174.652381 
z
" style="stroke:#000000;"/>
    <path clip-path="url(#pe3e46f8055)" d="M 187.678381 182.419778 
L 186.301076 182.102491 
L 187.042565 184.984278 
z
" style="stroke:#000000;"/>
    <path clip-path="url(#pe3e46f8055)" d="M 186.301076 172.187253 
L 187.678381 171.870379 
L 187.042565 169.305688 
z
" style="stroke:#000000;"/>
    <path clip-path="url(#pe3e46f8055)" d="M 188.062713 174.493171 
L 186.662253 174.652381 
L 186.783098 177.144944 
z
" style="stroke:#000000;"/>
    <path clip-path="url(#pe3e46f8055)" d="M 186.662253 179.637472 
L 188.062713 179.797102 
L 186.783098 177.144944 
z
" style="stroke:#000000;"/>
    <path clip-path="url(#pe3e46f8055)" d="M 197.812487 163.132386 
L 196.317165 165.213522 
L 196.554241 165.226232 
z
" style="stroke:#000000;"/>
    <path clip-path="url(#pe3e46f8055)" d="M 192.076857 174.492843 
L 192.190607 177.143581 
L 191.948186 177.145719 
z
" style="stroke:#000000;"/>
    <path clip-path="url(#pe3e46f8055)" d="M 191.948186 177.145719 
L 192.31912 179.793195 
L 192.076857 179.798633 
z
" style="stroke:#000000;"/>
    <path clip-path="url(#pe3e46f8055)" d="M 198.219482 194.114431 
L 196.435807 192.069823 
L 196.672737 192.049111 
z
" style="stroke:#000000;"/>
    <path clip-path="url(#pe3e46f8055)" d="M 192.461484 171.868894 
L 192.31912 174.494005 
L 192.076857 174.492843 
z
" style="stroke:#000000;"/>
    <path clip-path="url(#pe3e46f8055)" d="M 188.062713 179.797102 
L 186.662253 179.637472 
L 187.678381 182.419778 
z
" style="stroke:#000000;"/>
    <path clip-path="url(#pe3e46f8055)" d="M 186.662253 174.652381 
L 188.062713 174.493171 
L 187.678381 171.870379 
z
" style="stroke:#000000;"/>
    <path clip-path="url(#pe3e46f8055)" d="M 192.076857 179.798633 
L 192.703277 182.413995 
L 192.461484 182.422698 
z
" style="stroke:#000000;"/>
    <path clip-path="url(#pe3e46f8055)" d="M 196.554241 189.062237 
L 197.576953 191.176061 
L 197.812487 191.15646 
z
" style="stroke:#000000;"/>
    <path clip-path="url(#pe3e46f8055)" d="M 193.83301 160.91891 
L 190.069433 158.367781 
L 193.592601 160.900837 
z
" style="stroke:#000000;"/>
    <path clip-path="url(#pe3e46f8055)" d="M 190.069433 168.517865 
L 193.83301 160.91891 
L 193.592601 160.900837 
z
" style="stroke:#000000;"/>
    <path clip-path="url(#pe3e46f8055)" d="M 188.191296 177.145155 
L 186.783098 177.144944 
L 188.062713 179.797102 
z
" style="stroke:#000000;"/>
    <path clip-path="url(#pe3e46f8055)" d="M 186.783098 177.144944 
L 188.191296 177.145155 
L 188.062713 174.493171 
z
" style="stroke:#000000;"/>
    <path clip-path="url(#pe3e46f8055)" d="M 193.097902 169.302452 
L 192.703277 171.87332 
L 192.461484 171.868894 
z
" style="stroke:#000000;"/>
    <path clip-path="url(#pe3e46f8055)" d="M 196.672737 162.239394 
L 197.984447 160.155529 
L 198.219482 160.174537 
z
" style="stroke:#000000;"/>
    <path clip-path="url(#pe3e46f8055)" d="M 186.548431 160.909765 
L 190.069433 165.980344 
L 187.721858 161.225403 
z
" style="stroke:#000000;"/>
    <path clip-path="url(#pe3e46f8055)" d="M 187.721858 161.225403 
L 190.069433 158.367781 
L 186.548431 160.909765 
z
" style="stroke:#000000;"/>
    <path clip-path="url(#pe3e46f8055)" d="M 192.461484 182.422698 
L 193.338916 184.977434 
L 193.097902 184.98933 
z
" style="stroke:#000000;"/>
    <path clip-path="url(#pe3e46f8055)" d="M 199.266712 161.191436 
L 197.576953 163.117065 
L 197.812487 163.132386 
z
" style="stroke:#000000;"/>
    <path clip-path="url(#pe3e46f8055)" d="M 193.97921 166.82149 
L 193.338916 169.310072 
L 193.097902 169.302452 
z
" style="stroke:#000000;"/>
    <path clip-path="url(#pe3e46f8055)" d="M 193.478642 179.639977 
L 193.598352 177.143792 
L 193.357656 177.14593 
z
" style="stroke:#000000;"/>
    <path clip-path="url(#pe3e46f8055)" d="M 193.357656 177.14593 
L 193.719191 174.652884 
L 193.478642 174.65192 
z
" style="stroke:#000000;"/>
    <path clip-path="url(#pe3e46f8055)" d="M 199.088633 195.054483 
L 197.984447 194.13772 
L 198.219482 194.114431 
z
" style="stroke:#000000;"/>
    <path clip-path="url(#pe3e46f8055)" d="M 193.840271 182.106885 
L 193.719191 179.634736 
L 193.478642 179.639977 
z
" style="stroke:#000000;"/>
    <path clip-path="url(#pe3e46f8055)" d="M 190.069433 165.980344 
L 186.548431 160.909765 
L 190.069433 168.517865 
z
" style="stroke:#000000;"/>
    <path clip-path="url(#pe3e46f8055)" d="M 193.097902 184.98933 
L 194.219146 187.455572 
L 193.97921 187.470557 
z
" style="stroke:#000000;"/>
    <path clip-path="url(#pe3e46f8055)" d="M 193.478642 174.65192 
L 194.080378 172.189154 
L 193.840271 172.18512 
z
" style="stroke:#000000;"/>
    <path clip-path="url(#pe3e46f8055)" d="M 197.812487 191.15646 
L 199.032961 193.11987 
L 199.266712 193.097846 
z
" style="stroke:#000000;"/>
    <path clip-path="url(#pe3e46f8055)" d="M 198.219482 160.174537 
L 198.854664 159.214564 
L 199.088633 159.234745 
z
" style="stroke:#000000;"/>
    <path clip-path="url(#pe3e46f8055)" d="M 194.438643 184.519793 
L 194.080378 182.098574 
L 193.840271 182.106885 
z
" style="stroke:#000000;"/>
    <path clip-path="url(#pe3e46f8055)" d="M 190.069433 158.367781 
L 187.721858 161.225403 
L 190.069433 159.636542 
z
" style="stroke:#000000;"/>
    <path clip-path="url(#pe3e46f8055)" d="M 193.840271 172.18512 
L 194.678017 169.779428 
L 194.438643 169.772392 
z
" style="stroke:#000000;"/>
    <path clip-path="url(#pe3e46f8055)" d="M 198.854664 159.214564 
L 199.702581 159.571732 
L 199.088633 159.234745 
z
" style="stroke:#000000;"/>
    <path clip-path="url(#pe3e46f8055)" d="M 195.095886 164.453019 
L 194.219146 166.832197 
L 193.97921 166.82149 
z
" style="stroke:#000000;"/>
    <path clip-path="url(#pe3e46f8055)" d="M 199.469364 194.741724 
L 199.088633 195.054483 
L 199.702581 194.71768 
z
" style="stroke:#000000;"/>
    <path clip-path="url(#pe3e46f8055)" d="M 199.032961 193.11987 
L 200.347473 194.266543 
L 199.266712 193.097846 
z
" style="stroke:#000000;"/>
    <path clip-path="url(#pe3e46f8055)" d="M 195.267269 186.852383 
L 194.678017 184.508479 
L 194.438643 184.519793 
z
" style="stroke:#000000;"/>
    <path clip-path="url(#pe3e46f8055)" d="M 193.97921 187.470557 
L 195.334456 189.821428 
L 195.095886 189.839363 
z
" style="stroke:#000000;"/>
    <path clip-path="url(#pe3e46f8055)" d="M 199.469364 159.55197 
L 200.347473 160.023062 
L 199.702581 159.571732 
z
" style="stroke:#000000;"/>
    <path clip-path="url(#pe3e46f8055)" d="M 194.438643 169.772392 
L 195.505629 167.449989 
L 195.267269 167.44005 
z
" style="stroke:#000000;"/>
    <path clip-path="url(#pe3e46f8055)" d="M 200.115047 160.003862 
L 199.266712 161.191436 
L 200.347473 160.023062 
z
" style="stroke:#000000;"/>
    <path clip-path="url(#pe3e46f8055)" d="M 200.115047 194.290026 
L 199.702581 194.71768 
L 200.347473 194.266543 
z
" style="stroke:#000000;"/>
    <path clip-path="url(#pe3e46f8055)" d="M 196.435807 162.222961 
L 195.334456 164.466675 
L 195.095886 164.453019 
z
" style="stroke:#000000;"/>
    <path clip-path="url(#pe3e46f8055)" d="M 192.417971 161.219581 
L 190.069433 158.367781 
L 190.069433 159.636542 
z
" style="stroke:#000000;"/>
    <path clip-path="url(#pe3e46f8055)" d="M 196.317165 189.079227 
L 195.505629 186.838165 
L 195.267269 186.852383 
z
" style="stroke:#000000;"/>
    <path clip-path="url(#pe3e46f8055)" d="M 195.267269 167.44005 
L 196.554241 165.226232 
L 196.317165 165.213522 
z
" style="stroke:#000000;"/>
    <path clip-path="url(#pe3e46f8055)" d="M 195.095886 189.839363 
L 196.672737 192.049111 
L 196.435807 192.069823 
z
" style="stroke:#000000;"/>
    <path clip-path="url(#pe3e46f8055)" d="M 193.592601 160.900837 
L 190.069433 165.980344 
L 190.069433 168.517865 
z
" style="stroke:#000000;"/>
    <path clip-path="url(#pe3e46f8055)" d="M 197.576953 191.176061 
L 196.554241 189.062237 
L 196.317165 189.079227 
z
" style="stroke:#000000;"/>
    <path clip-path="url(#pe3e46f8055)" d="M 190.069433 165.980344 
L 193.592601 160.900837 
L 192.417971 161.219581 
z
" style="stroke:#000000;"/>
    <path clip-path="url(#pe3e46f8055)" d="M 190.069433 158.367781 
L 192.417971 161.219581 
L 193.592601 160.900837 
z
" style="stroke:#000000;"/>
    <path clip-path="url(#pe3e46f8055)" d="M 197.984447 160.155529 
L 196.672737 162.239394 
L 196.435807 162.222961 
z
" style="stroke:#000000;"/>
    <path clip-path="url(#pe3e46f8055)" d="M 196.317165 165.213522 
L 197.812487 163.132386 
L 197.576953 163.117065 
z
" style="stroke:#000000;"/>
    <path clip-path="url(#pe3e46f8055)" d="M 193.357656 177.14593 
L 191.948186 177.145719 
L 192.076857 179.798633 
z
" style="stroke:#000000;"/>
    <path clip-path="url(#pe3e46f8055)" d="M 191.948186 177.145719 
L 193.357656 177.14593 
L 192.076857 174.492843 
z
" style="stroke:#000000;"/>
    <path clip-path="url(#pe3e46f8055)" d="M 193.478642 179.639977 
L 192.076857 179.798633 
L 192.461484 182.422698 
z
" style="stroke:#000000;"/>
    <path clip-path="url(#pe3e46f8055)" d="M 192.076857 174.492843 
L 193.478642 174.65192 
L 192.461484 171.868894 
z
" style="stroke:#000000;"/>
    <path clip-path="url(#pe3e46f8055)" d="M 196.435807 192.069823 
L 198.219482 194.114431 
L 197.984447 194.13772 
z
" style="stroke:#000000;"/>
    <path clip-path="url(#pe3e46f8055)" d="M 193.478642 174.65192 
L 192.076857 174.492843 
L 193.357656 177.14593 
z
" style="stroke:#000000;"/>
    <path clip-path="url(#pe3e46f8055)" d="M 192.076857 179.798633 
L 193.478642 179.639977 
L 193.357656 177.14593 
z
" style="stroke:#000000;"/>
    <path clip-path="url(#pe3e46f8055)" d="M 193.840271 182.106885 
L 192.461484 182.422698 
L 193.097902 184.98933 
z
" style="stroke:#000000;"/>
    <path clip-path="url(#pe3e46f8055)" d="M 192.461484 171.868894 
L 193.840271 172.18512 
L 193.097902 169.302452 
z
" style="stroke:#000000;"/>
    <path clip-path="url(#pe3e46f8055)" d="M 192.461484 182.422698 
L 193.840271 182.106885 
L 193.478642 179.639977 
z
" style="stroke:#000000;"/>
    <path clip-path="url(#pe3e46f8055)" d="M 193.840271 172.18512 
L 192.461484 171.868894 
L 193.478642 174.65192 
z
" style="stroke:#000000;"/>
    <path clip-path="url(#pe3e46f8055)" d="M 199.032961 193.11987 
L 197.812487 191.15646 
L 197.576953 191.176061 
z
" style="stroke:#000000;"/>
    <path clip-path="url(#pe3e46f8055)" d="M 198.854664 159.214564 
L 198.219482 160.174537 
L 197.984447 160.155529 
z
" style="stroke:#000000;"/>
    <path clip-path="url(#pe3e46f8055)" d="M 197.576953 163.117065 
L 199.266712 161.191436 
L 199.032961 161.173693 
z
" style="stroke:#000000;"/>
    <path clip-path="url(#pe3e46f8055)" d="M 193.097902 184.98933 
L 194.438643 184.519793 
L 193.840271 182.106885 
z
" style="stroke:#000000;"/>
    <path clip-path="url(#pe3e46f8055)" d="M 194.438643 169.772392 
L 193.097902 169.302452 
L 193.840271 172.18512 
z
" style="stroke:#000000;"/>
    <path clip-path="url(#pe3e46f8055)" d="M 197.984447 194.13772 
L 199.088633 195.054483 
L 198.854664 195.078945 
z
" style="stroke:#000000;"/>
    <path clip-path="url(#pe3e46f8055)" d="M 194.438643 184.519793 
L 193.097902 184.98933 
L 193.97921 187.470557 
z
" style="stroke:#000000;"/>
    <path clip-path="url(#pe3e46f8055)" d="M 193.097902 169.302452 
L 194.438643 169.772392 
L 193.97921 166.82149 
z
" style="stroke:#000000;"/>
    <path clip-path="url(#pe3e46f8055)" d="M 199.088633 195.054483 
L 199.469364 194.741724 
L 198.854664 195.078945 
z
" style="stroke:#000000;"/>
    <path clip-path="url(#pe3e46f8055)" d="M 199.702581 159.571732 
L 198.854664 159.214564 
L 199.469364 159.55197 
z
" style="stroke:#000000;"/>
    <path clip-path="url(#pe3e46f8055)" d="M 193.97921 187.470557 
L 195.267269 186.852383 
L 194.438643 184.519793 
z
" style="stroke:#000000;"/>
    <path clip-path="url(#pe3e46f8055)" d="M 195.267269 167.44005 
L 193.97921 166.82149 
L 194.438643 169.772392 
z
" style="stroke:#000000;"/>
    <path clip-path="url(#pe3e46f8055)" d="M 199.266712 161.191436 
L 200.115047 160.003862 
L 199.032961 161.173693 
z
" style="stroke:#000000;"/>
    <path clip-path="url(#pe3e46f8055)" d="M 195.267269 186.852383 
L 193.97921 187.470557 
L 195.095886 189.839363 
z
" style="stroke:#000000;"/>
    <path clip-path="url(#pe3e46f8055)" d="M 193.97921 166.82149 
L 195.267269 167.44005 
L 195.095886 164.453019 
z
" style="stroke:#000000;"/>
    <path clip-path="url(#pe3e46f8055)" d="M 199.702581 194.71768 
L 200.115047 194.290026 
L 199.469364 194.741724 
z
" style="stroke:#000000;"/>
    <path clip-path="url(#pe3e46f8055)" d="M 200.347473 194.266543 
L 199.032961 193.11987 
L 200.115047 194.290026 
z
" style="stroke:#000000;"/>
    <path clip-path="url(#pe3e46f8055)" d="M 200.347473 160.023062 
L 199.469364 159.55197 
L 200.115047 160.003862 
z
" style="stroke:#000000;"/>
    <path clip-path="url(#pe3e46f8055)" d="M 195.095886 189.839363 
L 196.317165 189.079227 
L 195.267269 186.852383 
z
" style="stroke:#000000;"/>
    <path clip-path="url(#pe3e46f8055)" d="M 196.317165 165.213522 
L 195.095886 164.453019 
L 195.267269 167.44005 
z
" style="stroke:#000000;"/>
    <path clip-path="url(#pe3e46f8055)" d="M 196.435807 192.069823 
L 196.317165 189.079227 
L 195.095886 189.839363 
z
" style="stroke:#000000;"/>
    <path clip-path="url(#pe3e46f8055)" d="M 196.317165 165.213522 
L 196.435807 162.222961 
L 195.095886 164.453019 
z
" style="stroke:#000000;"/>
    <path clip-path="url(#pe3e46f8055)" d="M 196.435807 192.069823 
L 197.576953 191.176061 
L 196.317165 189.079227 
z
" style="stroke:#000000;"/>
    <path clip-path="url(#pe3e46f8055)" d="M 197.576953 163.117065 
L 196.435807 162.222961 
L 196.317165 165.213522 
z
" style="stroke:#000000;"/>
    <path clip-path="url(#pe3e46f8055)" d="M 197.984447 194.13772 
L 197.576953 191.176061 
L 196.435807 192.069823 
z
" style="stroke:#000000;"/>
    <path clip-path="url(#pe3e46f8055)" d="M 197.576953 163.117065 
L 197.984447 160.155529 
L 196.435807 162.222961 
z
" style="stroke:#000000;"/>
    <path clip-path="url(#pe3e46f8055)" d="M 197.984447 194.13772 
L 199.032961 193.11987 
L 197.576953 191.176061 
z
" style="stroke:#000000;"/>
    <path clip-path="url(#pe3e46f8055)" d="M 199.032961 161.173693 
L 197.984447 160.155529 
L 197.576953 163.117065 
z
" style="stroke:#000000;"/>
    <path clip-path="url(#pe3e46f8055)" d="M 199.469364 194.741724 
L 197.984447 194.13772 
L 198.854664 195.078945 
z
" style="stroke:#000000;"/>
    <path clip-path="url(#pe3e46f8055)" d="M 197.984447 160.155529 
L 199.469364 159.55197 
L 198.854664 159.214564 
z
" style="stroke:#000000;"/>
    <path clip-path="url(#pe3e46f8055)" d="M 197.984447 194.13772 
L 199.469364 194.741724 
L 199.032961 193.11987 
z
" style="stroke:#000000;"/>
    <path clip-path="url(#pe3e46f8055)" d="M 199.469364 159.55197 
L 197.984447 160.155529 
L 199.032961 161.173693 
z
" style="stroke:#000000;"/>
    <path clip-path="url(#pe3e46f8055)" d="M 199.032961 193.11987 
L 199.469364 194.741724 
L 200.115047 194.290026 
z
" style="stroke:#000000;"/>
    <path clip-path="url(#pe3e46f8055)" d="M 199.469364 159.55197 
L 199.032961 161.173693 
L 200.115047 160.003862 
z
" style="stroke:#000000;"/>
   </g>
  </g>
 </g>
 <defs>
  <clipPath id="pe3e46f8055">
   <rect height="271.8" width="279" x="45" y="43.2"/>
  </clipPath>
 </defs>
</svg>
