<?xml version="1.0" encoding="utf-8" standalone="no"?>
<!DOCTYPE svg PUBLIC "-//W3C//DTD SVG 1.1//EN"
  "http://www.w3.org/Graphics/SVG/1.1/DTD/svg11.dtd">
<!-- Created with matplotlib (https://matplotlib.org/) -->
<svg height="360pt" version="1.1" viewBox="0 0 360 360" width="360pt" xmlns="http://www.w3.org/2000/svg" xmlns:xlink="http://www.w3.org/1999/xlink">
 <defs>
  <style type="text/css">
*{stroke-linecap:butt;stroke-linejoin:round;}
  </style>
 </defs>
 <g id="figure_1">
  <g id="patch_1">
   <path d="M 45 315 
L 324 315 
L 324 43.2 
L 45 43.2 
z
" style="fill:#ffffff;"/>
  </g>
  <g id="axes_1">
   <g id="Poly3DCollection_1">
    <path clip-path="url(#p23a7d4afb7)" d="M 185.193596 159.634689 
L 185.502363 161.244513 
L 184.737035 160.089744 
z
" style="stroke:#000000;"/>
    <path clip-path="url(#p23a7d4afb7)" d="M 185.502363 193.03196 
L 185.193596 194.641082 
L 184.737035 194.184989 
z
" style="stroke:#000000;"/>
    <path clip-path="url(#p23a7d4afb7)" d="M 183.399507 160.076173 
L 185.193596 159.634689 
L 184.737035 160.089744 
z
" style="stroke:#000000;"/>
    <path clip-path="url(#p23a7d4afb7)" d="M 183.399507 194.201587 
L 185.502363 193.03196 
L 184.737035 194.184989 
z
" style="stroke:#000000;"/>
    <path clip-path="url(#p23a7d4afb7)" d="M 183.856067 194.658089 
L 184.737035 194.184989 
L 185.193596 194.641082 
z
" style="stroke:#000000;"/>
    <path clip-path="url(#p23a7d4afb7)" d="M 185.193596 159.634689 
L 186.244827 160.222522 
L 185.502363 161.244513 
z
" style="stroke:#000000;"/>
    <path clip-path="url(#p23a7d4afb7)" d="M 186.244827 194.055639 
L 185.193596 194.641082 
L 185.502363 193.03196 
z
" style="stroke:#000000;"/>
    <path clip-path="url(#p23a7d4afb7)" d="M 186.244827 160.222522 
L 185.193596 159.634689 
L 185.628556 159.293515 
z
" style="stroke:#000000;"/>
    <path clip-path="url(#p23a7d4afb7)" d="M 185.193596 194.641082 
L 186.244827 194.055639 
L 185.628556 194.983245 
z
" style="stroke:#000000;"/>
    <path clip-path="url(#p23a7d4afb7)" d="M 184.164832 161.231958 
L 184.737035 160.089744 
L 185.502363 161.244513 
z
" style="stroke:#000000;"/>
    <path clip-path="url(#p23a7d4afb7)" d="M 184.737035 194.184989 
L 183.856067 194.658089 
L 183.399507 194.201587 
z
" style="stroke:#000000;"/>
    <path clip-path="url(#p23a7d4afb7)" d="M 183.856067 159.620711 
L 185.628556 159.293515 
L 185.193596 159.634689 
z
" style="stroke:#000000;"/>
    <path clip-path="url(#p23a7d4afb7)" d="M 184.737035 160.089744 
L 184.164832 161.231958 
L 183.399507 160.076173 
z
" style="stroke:#000000;"/>
    <path clip-path="url(#p23a7d4afb7)" d="M 184.291024 195.000559 
L 185.193596 194.641082 
L 185.628556 194.983245 
z
" style="stroke:#000000;"/>
    <path clip-path="url(#p23a7d4afb7)" d="M 185.193596 159.634689 
L 183.399507 160.076173 
L 183.856067 159.620711 
z
" style="stroke:#000000;"/>
    <path clip-path="url(#p23a7d4afb7)" d="M 186.244827 160.222522 
L 186.533612 163.168281 
L 185.502363 161.244513 
z
" style="stroke:#000000;"/>
    <path clip-path="url(#p23a7d4afb7)" d="M 186.533612 191.110537 
L 186.244827 194.055639 
L 185.502363 193.03196 
z
" style="stroke:#000000;"/>
    <path clip-path="url(#p23a7d4afb7)" d="M 185.502363 193.03196 
L 183.399507 194.201587 
L 184.164832 193.047545 
z
" style="stroke:#000000;"/>
    <path clip-path="url(#p23a7d4afb7)" d="M 185.193596 194.641082 
L 184.291024 195.000559 
L 183.856067 194.658089 
z
" style="stroke:#000000;"/>
    <path clip-path="url(#p23a7d4afb7)" d="M 186.244827 194.055639 
L 184.291024 195.000559 
L 185.628556 194.983245 
z
" style="stroke:#000000;"/>
    <path clip-path="url(#p23a7d4afb7)" d="M 186.533612 163.168281 
L 184.164832 161.231958 
L 185.502363 161.244513 
z
" style="stroke:#000000;"/>
    <path clip-path="url(#p23a7d4afb7)" d="M 185.628556 159.293515 
L 183.856067 159.620711 
L 184.291024 159.279231 
z
" style="stroke:#000000;"/>
    <path clip-path="url(#p23a7d4afb7)" d="M 183.856067 194.658089 
L 184.164832 193.047545 
L 183.399507 194.201587 
z
" style="stroke:#000000;"/>
    <path clip-path="url(#p23a7d4afb7)" d="M 184.164832 161.231958 
L 183.856067 159.620711 
L 183.399507 160.076173 
z
" style="stroke:#000000;"/>
    <path clip-path="url(#p23a7d4afb7)" d="M 185.628556 159.293515 
L 184.907293 160.209055 
L 186.244827 160.222522 
z
" style="stroke:#000000;"/>
    <path clip-path="url(#p23a7d4afb7)" d="M 185.502363 193.03196 
L 185.196078 191.124431 
L 186.533612 191.110537 
z
" style="stroke:#000000;"/>
    <path clip-path="url(#p23a7d4afb7)" d="M 187.343026 162.269522 
L 186.533612 163.168281 
L 186.244827 160.222522 
z
" style="stroke:#000000;"/>
    <path clip-path="url(#p23a7d4afb7)" d="M 186.533612 191.110537 
L 187.343026 192.011136 
L 186.244827 194.055639 
z
" style="stroke:#000000;"/>
    <path clip-path="url(#p23a7d4afb7)" d="M 184.907293 160.209055 
L 185.628556 159.293515 
L 184.291024 159.279231 
z
" style="stroke:#000000;"/>
    <path clip-path="url(#p23a7d4afb7)" d="M 185.196078 191.124431 
L 185.502363 193.03196 
L 184.164832 193.047545 
z
" style="stroke:#000000;"/>
    <path clip-path="url(#p23a7d4afb7)" d="M 184.291024 195.000559 
L 186.244827 194.055639 
L 184.907293 194.072139 
z
" style="stroke:#000000;"/>
    <path clip-path="url(#p23a7d4afb7)" d="M 183.856067 194.658089 
L 184.907293 194.072139 
L 184.164832 193.047545 
z
" style="stroke:#000000;"/>
    <path clip-path="url(#p23a7d4afb7)" d="M 184.907293 160.209055 
L 183.856067 159.620711 
L 184.164832 161.231958 
z
" style="stroke:#000000;"/>
    <path clip-path="url(#p23a7d4afb7)" d="M 184.907293 194.072139 
L 183.856067 194.658089 
L 184.291024 195.000559 
z
" style="stroke:#000000;"/>
    <path clip-path="url(#p23a7d4afb7)" d="M 183.856067 159.620711 
L 184.907293 160.209055 
L 184.291024 159.279231 
z
" style="stroke:#000000;"/>
    <path clip-path="url(#p23a7d4afb7)" d="M 187.343026 192.011136 
L 184.907293 194.072139 
L 186.244827 194.055639 
z
" style="stroke:#000000;"/>
    <path clip-path="url(#p23a7d4afb7)" d="M 184.164832 161.231958 
L 186.533612 163.168281 
L 185.196078 163.157421 
z
" style="stroke:#000000;"/>
    <path clip-path="url(#p23a7d4afb7)" d="M 187.343026 162.269522 
L 187.427237 165.248863 
L 186.533612 163.168281 
z
" style="stroke:#000000;"/>
    <path clip-path="url(#p23a7d4afb7)" d="M 187.427237 189.031987 
L 187.343026 192.011136 
L 186.533612 191.110537 
z
" style="stroke:#000000;"/>
    <path clip-path="url(#p23a7d4afb7)" d="M 187.427237 165.248863 
L 185.196078 163.157421 
L 186.533612 163.168281 
z
" style="stroke:#000000;"/>
    <path clip-path="url(#p23a7d4afb7)" d="M 186.244827 160.222522 
L 186.00549 162.25786 
L 187.343026 162.269522 
z
" style="stroke:#000000;"/>
    <path clip-path="url(#p23a7d4afb7)" d="M 184.907293 194.072139 
L 185.196078 191.124431 
L 184.164832 193.047545 
z
" style="stroke:#000000;"/>
    <path clip-path="url(#p23a7d4afb7)" d="M 185.196078 163.157421 
L 184.907293 160.209055 
L 184.164832 161.231958 
z
" style="stroke:#000000;"/>
    <path clip-path="url(#p23a7d4afb7)" d="M 186.00549 162.25786 
L 186.244827 160.222522 
L 184.907293 160.209055 
z
" style="stroke:#000000;"/>
    <path clip-path="url(#p23a7d4afb7)" d="M 186.533612 191.110537 
L 186.089701 189.044046 
L 187.427237 189.031987 
z
" style="stroke:#000000;"/>
    <path clip-path="url(#p23a7d4afb7)" d="M 188.294747 164.483532 
L 187.427237 165.248863 
L 187.343026 162.269522 
z
" style="stroke:#000000;"/>
    <path clip-path="url(#p23a7d4afb7)" d="M 187.427237 189.031987 
L 188.294747 189.79929 
L 187.343026 192.011136 
z
" style="stroke:#000000;"/>
    <path clip-path="url(#p23a7d4afb7)" d="M 186.089701 189.044046 
L 186.533612 191.110537 
L 185.196078 191.124431 
z
" style="stroke:#000000;"/>
    <path clip-path="url(#p23a7d4afb7)" d="M 184.907293 194.072139 
L 187.343026 192.011136 
L 186.00549 192.025835 
z
" style="stroke:#000000;"/>
    <path clip-path="url(#p23a7d4afb7)" d="M 187.427237 165.248863 
L 188.294747 164.483532 
L 188.172938 167.46302 
z
" style="stroke:#000000;"/>
    <path clip-path="url(#p23a7d4afb7)" d="M 188.294747 189.79929 
L 187.427237 189.031987 
L 188.172938 186.819525 
z
" style="stroke:#000000;"/>
    <path clip-path="url(#p23a7d4afb7)" d="M 185.196078 163.157421 
L 187.427237 165.248863 
L 186.089701 165.239841 
z
" style="stroke:#000000;"/>
    <path clip-path="url(#p23a7d4afb7)" d="M 186.00549 192.025835 
L 185.196078 191.124431 
L 184.907293 194.072139 
z
" style="stroke:#000000;"/>
    <path clip-path="url(#p23a7d4afb7)" d="M 185.196078 163.157421 
L 186.00549 162.25786 
L 184.907293 160.209055 
z
" style="stroke:#000000;"/>
    <path clip-path="url(#p23a7d4afb7)" d="M 188.294747 189.79929 
L 186.00549 192.025835 
L 187.343026 192.011136 
z
" style="stroke:#000000;"/>
    <path clip-path="url(#p23a7d4afb7)" d="M 188.172938 167.46302 
L 186.089701 165.239841 
L 187.427237 165.248863 
z
" style="stroke:#000000;"/>
    <path clip-path="url(#p23a7d4afb7)" d="M 187.427237 189.031987 
L 186.8354 186.829628 
L 188.172938 186.819525 
z
" style="stroke:#000000;"/>
    <path clip-path="url(#p23a7d4afb7)" d="M 187.343026 162.269522 
L 186.95721 164.473826 
L 188.294747 164.483532 
z
" style="stroke:#000000;"/>
    <path clip-path="url(#p23a7d4afb7)" d="M 186.00549 192.025835 
L 186.089701 189.044046 
L 185.196078 191.124431 
z
" style="stroke:#000000;"/>
    <path clip-path="url(#p23a7d4afb7)" d="M 186.089701 165.239841 
L 186.00549 162.25786 
L 185.196078 163.157421 
z
" style="stroke:#000000;"/>
    <path clip-path="url(#p23a7d4afb7)" d="M 189.088991 166.840061 
L 188.172938 167.46302 
L 188.294747 164.483532 
z
" style="stroke:#000000;"/>
    <path clip-path="url(#p23a7d4afb7)" d="M 188.172938 186.819525 
L 189.088991 187.444566 
L 188.294747 189.79929 
z
" style="stroke:#000000;"/>
    <path clip-path="url(#p23a7d4afb7)" d="M 186.95721 164.473826 
L 187.343026 162.269522 
L 186.00549 162.25786 
z
" style="stroke:#000000;"/>
    <path clip-path="url(#p23a7d4afb7)" d="M 186.8354 186.829628 
L 187.427237 189.031987 
L 186.089701 189.044046 
z
" style="stroke:#000000;"/>
    <path clip-path="url(#p23a7d4afb7)" d="M 188.172938 167.46302 
L 189.088991 166.840061 
L 188.762096 169.786043 
z
" style="stroke:#000000;"/>
    <path clip-path="url(#p23a7d4afb7)" d="M 189.088991 187.444566 
L 188.172938 186.819525 
L 188.762096 184.497841 
z
" style="stroke:#000000;"/>
    <path clip-path="url(#p23a7d4afb7)" d="M 188.762096 169.786043 
L 186.8354 167.455958 
L 188.172938 167.46302 
z
" style="stroke:#000000;"/>
    <path clip-path="url(#p23a7d4afb7)" d="M 186.089701 165.239841 
L 188.172938 167.46302 
L 186.8354 167.455958 
z
" style="stroke:#000000;"/>
    <path clip-path="url(#p23a7d4afb7)" d="M 186.00549 192.025835 
L 188.294747 189.79929 
L 186.95721 189.812037 
z
" style="stroke:#000000;"/>
    <path clip-path="url(#p23a7d4afb7)" d="M 189.088991 187.444566 
L 186.95721 189.812037 
L 188.294747 189.79929 
z
" style="stroke:#000000;"/>
    <path clip-path="url(#p23a7d4afb7)" d="M 188.172938 186.819525 
L 187.424558 184.505888 
L 188.762096 184.497841 
z
" style="stroke:#000000;"/>
    <path clip-path="url(#p23a7d4afb7)" d="M 186.95721 189.812037 
L 186.089701 189.044046 
L 186.00549 192.025835 
z
" style="stroke:#000000;"/>
    <path clip-path="url(#p23a7d4afb7)" d="M 186.089701 165.239841 
L 186.95721 164.473826 
L 186.00549 162.25786 
z
" style="stroke:#000000;"/>
    <path clip-path="url(#p23a7d4afb7)" d="M 189.716528 169.312658 
L 188.762096 169.786043 
L 189.088991 166.840061 
z
" style="stroke:#000000;"/>
    <path clip-path="url(#p23a7d4afb7)" d="M 188.762096 184.497841 
L 189.716528 184.973397 
L 189.088991 187.444566 
z
" style="stroke:#000000;"/>
    <path clip-path="url(#p23a7d4afb7)" d="M 188.762096 169.786043 
L 189.716528 169.312658 
L 189.187881 172.191865 
z
" style="stroke:#000000;"/>
    <path clip-path="url(#p23a7d4afb7)" d="M 189.716528 184.973397 
L 188.762096 184.497841 
L 189.187881 182.092987 
z
" style="stroke:#000000;"/>
    <path clip-path="url(#p23a7d4afb7)" d="M 187.424558 184.505888 
L 188.172938 186.819525 
L 186.8354 186.829628 
z
" style="stroke:#000000;"/>
    <path clip-path="url(#p23a7d4afb7)" d="M 188.294747 164.483532 
L 187.751453 166.832441 
L 189.088991 166.840061 
z
" style="stroke:#000000;"/>
    <path clip-path="url(#p23a7d4afb7)" d="M 186.089701 189.044046 
L 186.95721 189.812037 
L 186.8354 186.829628 
z
" style="stroke:#000000;"/>
    <path clip-path="url(#p23a7d4afb7)" d="M 186.95721 164.473826 
L 186.089701 165.239841 
L 186.8354 167.455958 
z
" style="stroke:#000000;"/>
    <path clip-path="url(#p23a7d4afb7)" d="M 189.187881 172.191865 
L 187.424558 169.781039 
L 188.762096 169.786043 
z
" style="stroke:#000000;"/>
    <path clip-path="url(#p23a7d4afb7)" d="M 187.751453 166.832441 
L 188.294747 164.483532 
L 186.95721 164.473826 
z
" style="stroke:#000000;"/>
    <path clip-path="url(#p23a7d4afb7)" d="M 186.8354 167.455958 
L 188.762096 169.786043 
L 187.424558 169.781039 
z
" style="stroke:#000000;"/>
    <path clip-path="url(#p23a7d4afb7)" d="M 188.762096 184.497841 
L 187.850343 182.098903 
L 189.187881 182.092987 
z
" style="stroke:#000000;"/>
    <path clip-path="url(#p23a7d4afb7)" d="M 189.187881 172.191865 
L 190.170075 171.873558 
L 189.445345 174.653376 
z
" style="stroke:#000000;"/>
    <path clip-path="url(#p23a7d4afb7)" d="M 190.170075 182.413527 
L 189.187881 182.092987 
L 189.445345 179.632062 
z
" style="stroke:#000000;"/>
    <path clip-path="url(#p23a7d4afb7)" d="M 190.170075 171.873558 
L 189.187881 172.191865 
L 189.716528 169.312658 
z
" style="stroke:#000000;"/>
    <path clip-path="url(#p23a7d4afb7)" d="M 189.187881 182.092987 
L 190.170075 182.413527 
L 189.716528 184.973397 
z
" style="stroke:#000000;"/>
    <path clip-path="url(#p23a7d4afb7)" d="M 186.95721 189.812037 
L 189.088991 187.444566 
L 187.751453 187.45523 
z
" style="stroke:#000000;"/>
    <path clip-path="url(#p23a7d4afb7)" d="M 189.445345 174.653376 
L 187.850343 172.188994 
L 189.187881 172.191865 
z
" style="stroke:#000000;"/>
    <path clip-path="url(#p23a7d4afb7)" d="M 189.716528 184.973397 
L 187.751453 187.45523 
L 189.088991 187.444566 
z
" style="stroke:#000000;"/>
    <path clip-path="url(#p23a7d4afb7)" d="M 187.850343 182.098903 
L 188.762096 184.497841 
L 187.424558 184.505888 
z
" style="stroke:#000000;"/>
    <path clip-path="url(#p23a7d4afb7)" d="M 189.187881 182.092987 
L 188.107808 179.635794 
L 189.445345 179.632062 
z
" style="stroke:#000000;"/>
    <path clip-path="url(#p23a7d4afb7)" d="M 190.444338 179.793842 
L 189.445345 179.632062 
L 189.531505 177.142817 
z
" style="stroke:#000000;"/>
    <path clip-path="url(#p23a7d4afb7)" d="M 189.445345 174.653376 
L 190.444338 174.493867 
L 189.531505 177.142817 
z
" style="stroke:#000000;"/>
    <path clip-path="url(#p23a7d4afb7)" d="M 187.751453 187.45523 
L 186.8354 186.829628 
L 186.95721 189.812037 
z
" style="stroke:#000000;"/>
    <path clip-path="url(#p23a7d4afb7)" d="M 186.8354 167.455958 
L 187.751453 166.832441 
L 186.95721 164.473826 
z
" style="stroke:#000000;"/>
    <path clip-path="url(#p23a7d4afb7)" d="M 189.531505 177.142817 
L 188.107808 174.652689 
L 189.445345 174.653376 
z
" style="stroke:#000000;"/>
    <path clip-path="url(#p23a7d4afb7)" d="M 187.424558 169.781039 
L 189.187881 172.191865 
L 187.850343 172.188994 
z
" style="stroke:#000000;"/>
    <path clip-path="url(#p23a7d4afb7)" d="M 189.445345 179.632062 
L 188.193968 177.14434 
L 189.531505 177.142817 
z
" style="stroke:#000000;"/>
    <path clip-path="url(#p23a7d4afb7)" d="M 189.088991 166.840061 
L 188.37899 169.30723 
L 189.716528 169.312658 
z
" style="stroke:#000000;"/>
    <path clip-path="url(#p23a7d4afb7)" d="M 186.8354 186.829628 
L 187.751453 187.45523 
L 187.424558 184.505888 
z
" style="stroke:#000000;"/>
    <path clip-path="url(#p23a7d4afb7)" d="M 187.751453 166.832441 
L 186.8354 167.455958 
L 187.424558 169.781039 
z
" style="stroke:#000000;"/>
    <path clip-path="url(#p23a7d4afb7)" d="M 190.444338 174.493867 
L 189.445345 174.653376 
L 190.170075 171.873558 
z
" style="stroke:#000000;"/>
    <path clip-path="url(#p23a7d4afb7)" d="M 189.445345 179.632062 
L 190.444338 179.793842 
L 190.170075 182.413527 
z
" style="stroke:#000000;"/>
    <path clip-path="url(#p23a7d4afb7)" d="M 188.107808 179.635794 
L 189.187881 182.092987 
L 187.850343 182.098903 
z
" style="stroke:#000000;"/>
    <path clip-path="url(#p23a7d4afb7)" d="M 190.536115 177.143959 
L 189.531505 177.142817 
L 190.444338 174.493867 
z
" style="stroke:#000000;"/>
    <path clip-path="url(#p23a7d4afb7)" d="M 189.531505 177.142817 
L 190.536115 177.143959 
L 190.444338 179.793842 
z
" style="stroke:#000000;"/>
    <path clip-path="url(#p23a7d4afb7)" d="M 188.37899 169.30723 
L 189.088991 166.840061 
L 187.751453 166.832441 
z
" style="stroke:#000000;"/>
    <path clip-path="url(#p23a7d4afb7)" d="M 187.850343 172.188994 
L 189.445345 174.653376 
L 188.107808 174.652689 
z
" style="stroke:#000000;"/>
    <path clip-path="url(#p23a7d4afb7)" d="M 190.170075 182.413527 
L 188.37899 184.981871 
L 189.716528 184.973397 
z
" style="stroke:#000000;"/>
    <path clip-path="url(#p23a7d4afb7)" d="M 188.193968 177.14434 
L 189.445345 179.632062 
L 188.107808 179.635794 
z
" style="stroke:#000000;"/>
    <path clip-path="url(#p23a7d4afb7)" d="M 188.107808 174.652689 
L 189.531505 177.142817 
L 188.193968 177.14434 
z
" style="stroke:#000000;"/>
    <path clip-path="url(#p23a7d4afb7)" d="M 187.751453 187.45523 
L 189.716528 184.973397 
L 188.37899 184.981871 
z
" style="stroke:#000000;"/>
    <path clip-path="url(#p23a7d4afb7)" d="M 189.716528 169.312658 
L 188.832538 171.870402 
L 190.170075 171.873558 
z
" style="stroke:#000000;"/>
    <path clip-path="url(#p23a7d4afb7)" d="M 191.877676 158.367317 
L 190.201096 161.23786 
L 189.3642 160.929053 
z
" style="stroke:#000000;"/>
    <path clip-path="url(#p23a7d4afb7)" d="M 191.877676 165.980087 
L 189.3642 160.929053 
L 190.201096 161.23786 
z
" style="stroke:#000000;"/>
    <path clip-path="url(#p23a7d4afb7)" d="M 188.37899 184.981871 
L 187.424558 184.505888 
L 187.751453 187.45523 
z
" style="stroke:#000000;"/>
    <path clip-path="url(#p23a7d4afb7)" d="M 187.424558 169.781039 
L 188.37899 169.30723 
L 187.751453 166.832441 
z
" style="stroke:#000000;"/>
    <path clip-path="url(#p23a7d4afb7)" d="M 187.424558 184.505888 
L 188.37899 184.981871 
L 187.850343 182.098903 
z
" style="stroke:#000000;"/>
    <path clip-path="url(#p23a7d4afb7)" d="M 188.37899 169.30723 
L 187.424558 169.781039 
L 187.850343 172.188994 
z
" style="stroke:#000000;"/>
    <path clip-path="url(#p23a7d4afb7)" d="M 188.026663 160.916185 
L 191.877676 158.367317 
L 189.3642 160.929053 
z
" style="stroke:#000000;"/>
    <path clip-path="url(#p23a7d4afb7)" d="M 191.877676 168.517677 
L 188.026663 160.916185 
L 189.3642 160.929053 
z
" style="stroke:#000000;"/>
    <path clip-path="url(#p23a7d4afb7)" d="M 190.444338 179.793842 
L 188.832538 182.419732 
L 190.170075 182.413527 
z
" style="stroke:#000000;"/>
    <path clip-path="url(#p23a7d4afb7)" d="M 188.832538 171.870402 
L 189.716528 169.312658 
L 188.37899 169.30723 
z
" style="stroke:#000000;"/>
    <path clip-path="url(#p23a7d4afb7)" d="M 190.170075 171.873558 
L 189.106802 174.493038 
L 190.444338 174.493867 
z
" style="stroke:#000000;"/>
    <path clip-path="url(#p23a7d4afb7)" d="M 188.37899 184.981871 
L 190.170075 182.413527 
L 188.832538 182.419732 
z
" style="stroke:#000000;"/>
    <path clip-path="url(#p23a7d4afb7)" d="M 190.536115 177.143959 
L 189.106802 179.79772 
L 190.444338 179.793842 
z
" style="stroke:#000000;"/>
    <path clip-path="url(#p23a7d4afb7)" d="M 187.850343 182.098903 
L 188.832538 182.419732 
L 188.107808 179.635794 
z
" style="stroke:#000000;"/>
    <path clip-path="url(#p23a7d4afb7)" d="M 188.832538 171.870402 
L 187.850343 172.188994 
L 188.107808 174.652689 
z
" style="stroke:#000000;"/>
    <path clip-path="url(#p23a7d4afb7)" d="M 190.444338 174.493867 
L 189.198579 177.145484 
L 190.536115 177.143959 
z
" style="stroke:#000000;"/>
    <path clip-path="url(#p23a7d4afb7)" d="M 188.832538 182.419732 
L 187.850343 182.098903 
L 188.37899 184.981871 
z
" style="stroke:#000000;"/>
    <path clip-path="url(#p23a7d4afb7)" d="M 187.850343 172.188994 
L 188.832538 171.870402 
L 188.37899 169.30723 
z
" style="stroke:#000000;"/>
    <path clip-path="url(#p23a7d4afb7)" d="M 191.877676 165.980087 
L 191.877676 168.517677 
L 189.3642 160.929053 
z
" style="stroke:#000000;"/>
    <path clip-path="url(#p23a7d4afb7)" d="M 189.106802 174.493038 
L 188.107808 174.652689 
L 188.193968 177.14434 
z
" style="stroke:#000000;"/>
    <path clip-path="url(#p23a7d4afb7)" d="M 188.107808 179.635794 
L 189.106802 179.79772 
L 188.193968 177.14434 
z
" style="stroke:#000000;"/>
    <path clip-path="url(#p23a7d4afb7)" d="M 189.106802 174.493038 
L 190.170075 171.873558 
L 188.832538 171.870402 
z
" style="stroke:#000000;"/>
    <path clip-path="url(#p23a7d4afb7)" d="M 188.832538 182.419732 
L 190.444338 179.793842 
L 189.106802 179.79772 
z
" style="stroke:#000000;"/>
    <path clip-path="url(#p23a7d4afb7)" d="M 191.877676 158.367317 
L 191.877676 159.636112 
L 190.201096 161.23786 
z
" style="stroke:#000000;"/>
    <path clip-path="url(#p23a7d4afb7)" d="M 189.106802 179.79772 
L 188.107808 179.635794 
L 188.832538 182.419732 
z
" style="stroke:#000000;"/>
    <path clip-path="url(#p23a7d4afb7)" d="M 188.107808 174.652689 
L 189.106802 174.493038 
L 188.832538 171.870402 
z
" style="stroke:#000000;"/>
    <path clip-path="url(#p23a7d4afb7)" d="M 189.198579 177.145484 
L 190.444338 174.493867 
L 189.106802 174.493038 
z
" style="stroke:#000000;"/>
    <path clip-path="url(#p23a7d4afb7)" d="M 189.106802 179.79772 
L 190.536115 177.143959 
L 189.198579 177.145484 
z
" style="stroke:#000000;"/>
    <path clip-path="url(#p23a7d4afb7)" d="M 189.198579 177.145484 
L 188.193968 177.14434 
L 189.106802 179.79772 
z
" style="stroke:#000000;"/>
    <path clip-path="url(#p23a7d4afb7)" d="M 188.193968 177.14434 
L 189.198579 177.145484 
L 189.106802 174.493038 
z
" style="stroke:#000000;"/>
    <path clip-path="url(#p23a7d4afb7)" d="M 190.201096 161.23786 
L 190.540144 159.622074 
L 188.86356 161.22526 
z
" style="stroke:#000000;"/>
    <path clip-path="url(#p23a7d4afb7)" d="M 190.540144 165.971689 
L 190.201096 161.23786 
L 188.86356 161.22526 
z
" style="stroke:#000000;"/>
    <path clip-path="url(#p23a7d4afb7)" d="M 190.540144 159.622074 
L 190.201096 161.23786 
L 191.877676 159.636112 
z
" style="stroke:#000000;"/>
    <path clip-path="url(#p23a7d4afb7)" d="M 190.201096 161.23786 
L 190.540144 165.971689 
L 191.877676 165.980087 
z
" style="stroke:#000000;"/>
    <path clip-path="url(#p23a7d4afb7)" d="M 188.026663 160.916185 
L 190.540144 165.971689 
L 188.86356 161.22526 
z
" style="stroke:#000000;"/>
    <path clip-path="url(#p23a7d4afb7)" d="M 188.86356 161.22526 
L 190.540144 158.352151 
L 188.026663 160.916185 
z
" style="stroke:#000000;"/>
    <path clip-path="url(#p23a7d4afb7)" d="M 191.877676 158.367317 
L 188.026663 160.916185 
L 190.540144 158.352151 
z
" style="stroke:#000000;"/>
    <path clip-path="url(#p23a7d4afb7)" d="M 188.026663 160.916185 
L 191.877676 168.517677 
L 190.540144 168.511535 
z
" style="stroke:#000000;"/>
    <path clip-path="url(#p23a7d4afb7)" d="M 190.540144 165.971689 
L 188.026663 160.916185 
L 190.540144 168.511535 
z
" style="stroke:#000000;"/>
    <path clip-path="url(#p23a7d4afb7)" d="M 191.877676 158.367317 
L 193.557983 161.206317 
L 191.877676 159.636112 
z
" style="stroke:#000000;"/>
    <path clip-path="url(#p23a7d4afb7)" d="M 190.540144 158.352151 
L 188.86356 161.22526 
L 190.540144 159.622074 
z
" style="stroke:#000000;"/>
    <path clip-path="url(#p23a7d4afb7)" d="M 191.877676 165.980087 
L 194.399538 160.880681 
L 191.877676 168.517677 
z
" style="stroke:#000000;"/>
    <path clip-path="url(#p23a7d4afb7)" d="M 190.540144 158.352151 
L 194.399538 160.880681 
L 191.877676 158.367317 
z
" style="stroke:#000000;"/>
    <path clip-path="url(#p23a7d4afb7)" d="M 194.399538 160.880681 
L 190.540144 168.511535 
L 191.877676 168.517677 
z
" style="stroke:#000000;"/>
    <path clip-path="url(#p23a7d4afb7)" d="M 194.399538 160.880681 
L 191.877676 165.980087 
L 193.557983 161.206317 
z
" style="stroke:#000000;"/>
    <path clip-path="url(#p23a7d4afb7)" d="M 193.557983 161.206317 
L 191.877676 158.367317 
L 194.399538 160.880681 
z
" style="stroke:#000000;"/>
    <path clip-path="url(#p23a7d4afb7)" d="M 191.877676 159.636112 
L 192.220458 161.19366 
L 190.540144 159.622074 
z
" style="stroke:#000000;"/>
    <path clip-path="url(#p23a7d4afb7)" d="M 192.220458 161.19366 
L 191.877676 165.980087 
L 190.540144 165.971689 
z
" style="stroke:#000000;"/>
    <path clip-path="url(#p23a7d4afb7)" d="M 192.220458 161.19366 
L 191.877676 159.636112 
L 193.557983 161.206317 
z
" style="stroke:#000000;"/>
    <path clip-path="url(#p23a7d4afb7)" d="M 191.877676 165.980087 
L 192.220458 161.19366 
L 193.557983 161.206317 
z
" style="stroke:#000000;"/>
    <path clip-path="url(#p23a7d4afb7)" d="M 194.231152 177.148159 
L 193.221623 177.147012 
L 193.313737 174.492094 
z
" style="stroke:#000000;"/>
    <path clip-path="url(#p23a7d4afb7)" d="M 193.221623 177.147012 
L 194.231152 177.148159 
L 193.313737 179.802138 
z
" style="stroke:#000000;"/>
    <path clip-path="url(#p23a7d4afb7)" d="M 193.313737 179.802138 
L 191.884096 177.148542 
L 193.221623 177.147012 
z
" style="stroke:#000000;"/>
    <path clip-path="url(#p23a7d4afb7)" d="M 193.221623 177.147012 
L 191.976211 174.491262 
L 193.313737 174.492094 
z
" style="stroke:#000000;"/>
    <path clip-path="url(#p23a7d4afb7)" d="M 194.317859 174.650878 
L 193.313737 174.492094 
L 193.589144 171.865512 
z
" style="stroke:#000000;"/>
    <path clip-path="url(#p23a7d4afb7)" d="M 193.313737 179.802138 
L 194.317859 179.645637 
L 193.589144 182.429347 
z
" style="stroke:#000000;"/>
    <path clip-path="url(#p23a7d4afb7)" d="M 192.220458 161.19366 
L 190.540144 158.352151 
L 190.540144 159.622074 
z
" style="stroke:#000000;"/>
    <path clip-path="url(#p23a7d4afb7)" d="M 193.589144 182.429347 
L 191.976211 179.806032 
L 193.313737 179.802138 
z
" style="stroke:#000000;"/>
    <path clip-path="url(#p23a7d4afb7)" d="M 193.313737 174.492094 
L 192.251619 171.862342 
L 193.589144 171.865512 
z
" style="stroke:#000000;"/>
    <path clip-path="url(#p23a7d4afb7)" d="M 194.317859 179.645637 
L 193.313737 179.802138 
L 194.231152 177.148159 
z
" style="stroke:#000000;"/>
    <path clip-path="url(#p23a7d4afb7)" d="M 193.313737 174.492094 
L 194.317859 174.650878 
L 194.231152 177.148159 
z
" style="stroke:#000000;"/>
    <path clip-path="url(#p23a7d4afb7)" d="M 193.062018 160.867728 
L 190.540144 165.971689 
L 190.540144 168.511535 
z
" style="stroke:#000000;"/>
    <path clip-path="url(#p23a7d4afb7)" d="M 194.577077 172.180312 
L 193.589144 171.865512 
L 194.045021 169.295125 
z
" style="stroke:#000000;"/>
    <path clip-path="url(#p23a7d4afb7)" d="M 193.589144 182.429347 
L 194.577077 182.116793 
L 194.045021 185.00077 
z
" style="stroke:#000000;"/>
    <path clip-path="url(#p23a7d4afb7)" d="M 191.976211 174.491262 
L 193.221623 177.147012 
L 191.884096 177.148542 
z
" style="stroke:#000000;"/>
    <path clip-path="url(#p23a7d4afb7)" d="M 193.589144 171.865512 
L 194.577077 172.180312 
L 194.317859 174.650878 
z
" style="stroke:#000000;"/>
    <path clip-path="url(#p23a7d4afb7)" d="M 194.577077 182.116793 
L 193.589144 182.429347 
L 194.317859 179.645637 
z
" style="stroke:#000000;"/>
    <path clip-path="url(#p23a7d4afb7)" d="M 191.884096 177.148542 
L 193.313737 179.802138 
L 191.976211 179.806032 
z
" style="stroke:#000000;"/>
    <path clip-path="url(#p23a7d4afb7)" d="M 194.045021 185.00077 
L 192.251619 182.435579 
L 193.589144 182.429347 
z
" style="stroke:#000000;"/>
    <path clip-path="url(#p23a7d4afb7)" d="M 192.251619 171.862342 
L 193.313737 174.492094 
L 191.976211 174.491262 
z
" style="stroke:#000000;"/>
    <path clip-path="url(#p23a7d4afb7)" d="M 193.589144 171.865512 
L 192.707499 169.289666 
L 194.045021 169.295125 
z
" style="stroke:#000000;"/>
    <path clip-path="url(#p23a7d4afb7)" d="M 191.976211 179.806032 
L 193.589144 182.429347 
L 192.251619 182.435579 
z
" style="stroke:#000000;"/>
    <path clip-path="url(#p23a7d4afb7)" d="M 194.399538 160.880681 
L 190.540144 158.352151 
L 193.062018 160.867728 
z
" style="stroke:#000000;"/>
    <path clip-path="url(#p23a7d4afb7)" d="M 190.540144 168.511535 
L 194.399538 160.880681 
L 193.062018 160.867728 
z
" style="stroke:#000000;"/>
    <path clip-path="url(#p23a7d4afb7)" d="M 194.045021 169.295125 
L 195.006152 169.762696 
L 194.577077 172.180312 
z
" style="stroke:#000000;"/>
    <path clip-path="url(#p23a7d4afb7)" d="M 195.006152 184.535385 
L 194.045021 185.00077 
L 194.577077 182.116793 
z
" style="stroke:#000000;"/>
    <path clip-path="url(#p23a7d4afb7)" d="M 195.006152 169.762696 
L 194.045021 169.295125 
L 194.676688 166.808263 
z
" style="stroke:#000000;"/>
    <path clip-path="url(#p23a7d4afb7)" d="M 194.045021 185.00077 
L 195.006152 184.535385 
L 194.676688 187.489068 
z
" style="stroke:#000000;"/>
    <path clip-path="url(#p23a7d4afb7)" d="M 190.540144 158.352151 
L 192.220458 161.19366 
L 193.062018 160.867728 
z
" style="stroke:#000000;"/>
    <path clip-path="url(#p23a7d4afb7)" d="M 190.540144 165.971689 
L 193.062018 160.867728 
L 192.220458 161.19366 
z
" style="stroke:#000000;"/>
    <path clip-path="url(#p23a7d4afb7)" d="M 192.707499 169.289666 
L 193.589144 171.865512 
L 192.251619 171.862342 
z
" style="stroke:#000000;"/>
    <path clip-path="url(#p23a7d4afb7)" d="M 194.676688 187.489068 
L 192.707499 185.009293 
L 194.045021 185.00077 
z
" style="stroke:#000000;"/>
    <path clip-path="url(#p23a7d4afb7)" d="M 194.317859 174.650878 
L 192.893631 177.149692 
L 194.231152 177.148159 
z
" style="stroke:#000000;"/>
    <path clip-path="url(#p23a7d4afb7)" d="M 194.231152 177.148159 
L 192.980339 179.649394 
L 194.317859 179.645637 
z
" style="stroke:#000000;"/>
    <path clip-path="url(#p23a7d4afb7)" d="M 192.251619 182.435579 
L 194.045021 185.00077 
L 192.707499 185.009293 
z
" style="stroke:#000000;"/>
    <path clip-path="url(#p23a7d4afb7)" d="M 194.577077 172.180312 
L 192.980339 174.650187 
L 194.317859 174.650878 
z
" style="stroke:#000000;"/>
    <path clip-path="url(#p23a7d4afb7)" d="M 194.045021 169.295125 
L 193.33917 166.800587 
L 194.676688 166.808263 
z
" style="stroke:#000000;"/>
    <path clip-path="url(#p23a7d4afb7)" d="M 192.893631 177.149692 
L 191.884096 177.148542 
L 191.976211 179.806032 
z
" style="stroke:#000000;"/>
    <path clip-path="url(#p23a7d4afb7)" d="M 191.884096 177.148542 
L 192.893631 177.149692 
L 191.976211 174.491262 
z
" style="stroke:#000000;"/>
    <path clip-path="url(#p23a7d4afb7)" d="M 194.317859 179.645637 
L 193.239558 182.122751 
L 194.577077 182.116793 
z
" style="stroke:#000000;"/>
    <path clip-path="url(#p23a7d4afb7)" d="M 192.980339 179.649394 
L 191.976211 179.806032 
L 192.251619 182.435579 
z
" style="stroke:#000000;"/>
    <path clip-path="url(#p23a7d4afb7)" d="M 191.976211 174.491262 
L 192.980339 174.650187 
L 192.251619 171.862342 
z
" style="stroke:#000000;"/>
    <path clip-path="url(#p23a7d4afb7)" d="M 194.676688 166.808263 
L 195.600662 167.423794 
L 195.006152 169.762696 
z
" style="stroke:#000000;"/>
    <path clip-path="url(#p23a7d4afb7)" d="M 195.600662 186.875638 
L 194.676688 187.489068 
L 195.006152 184.535385 
z
" style="stroke:#000000;"/>
    <path clip-path="url(#p23a7d4afb7)" d="M 193.33917 166.800587 
L 194.045021 169.295125 
L 192.707499 169.289666 
z
" style="stroke:#000000;"/>
    <path clip-path="url(#p23a7d4afb7)" d="M 192.980339 179.649394 
L 194.231152 177.148159 
L 192.893631 177.149692 
z
" style="stroke:#000000;"/>
    <path clip-path="url(#p23a7d4afb7)" d="M 195.006152 169.762696 
L 193.239558 172.17742 
L 194.577077 172.180312 
z
" style="stroke:#000000;"/>
    <path clip-path="url(#p23a7d4afb7)" d="M 192.893631 177.149692 
L 194.317859 174.650878 
L 192.980339 174.650187 
z
" style="stroke:#000000;"/>
    <path clip-path="url(#p23a7d4afb7)" d="M 195.600662 167.423794 
L 194.676688 166.808263 
L 195.47767 164.431411 
z
" style="stroke:#000000;"/>
    <path clip-path="url(#p23a7d4afb7)" d="M 194.676688 187.489068 
L 195.600662 186.875638 
L 195.47767 189.867742 
z
" style="stroke:#000000;"/>
    <path clip-path="url(#p23a7d4afb7)" d="M 192.980339 174.650187 
L 191.976211 174.491262 
L 192.893631 177.149692 
z
" style="stroke:#000000;"/>
    <path clip-path="url(#p23a7d4afb7)" d="M 191.976211 179.806032 
L 192.980339 179.649394 
L 192.893631 177.149692 
z
" style="stroke:#000000;"/>
    <path clip-path="url(#p23a7d4afb7)" d="M 193.239558 182.122751 
L 194.317859 179.645637 
L 192.980339 179.649394 
z
" style="stroke:#000000;"/>
    <path clip-path="url(#p23a7d4afb7)" d="M 194.577077 182.116793 
L 193.668636 184.543499 
L 195.006152 184.535385 
z
" style="stroke:#000000;"/>
    <path clip-path="url(#p23a7d4afb7)" d="M 192.707499 185.009293 
L 194.676688 187.489068 
L 193.33917 187.499812 
z
" style="stroke:#000000;"/>
    <path clip-path="url(#p23a7d4afb7)" d="M 192.980339 174.650187 
L 194.577077 172.180312 
L 193.239558 172.17742 
z
" style="stroke:#000000;"/>
    <path clip-path="url(#p23a7d4afb7)" d="M 195.47767 189.867742 
L 193.33917 187.499812 
L 194.676688 187.489068 
z
" style="stroke:#000000;"/>
    <path clip-path="url(#p23a7d4afb7)" d="M 193.239558 182.122751 
L 192.251619 182.435579 
L 192.707499 185.009293 
z
" style="stroke:#000000;"/>
    <path clip-path="url(#p23a7d4afb7)" d="M 192.251619 171.862342 
L 193.239558 172.17742 
L 192.707499 169.289666 
z
" style="stroke:#000000;"/>
    <path clip-path="url(#p23a7d4afb7)" d="M 192.251619 182.435579 
L 193.239558 182.122751 
L 192.980339 179.649394 
z
" style="stroke:#000000;"/>
    <path clip-path="url(#p23a7d4afb7)" d="M 193.239558 172.17742 
L 192.251619 171.862342 
L 192.980339 174.650187 
z
" style="stroke:#000000;"/>
    <path clip-path="url(#p23a7d4afb7)" d="M 193.668636 184.543499 
L 194.577077 182.116793 
L 193.239558 182.122751 
z
" style="stroke:#000000;"/>
    <path clip-path="url(#p23a7d4afb7)" d="M 195.600662 167.423794 
L 193.668636 169.757649 
L 195.006152 169.762696 
z
" style="stroke:#000000;"/>
    <path clip-path="url(#p23a7d4afb7)" d="M 194.676688 166.808263 
L 194.140158 164.421612 
L 195.47767 164.431411 
z
" style="stroke:#000000;"/>
    <path clip-path="url(#p23a7d4afb7)" d="M 193.239558 172.17742 
L 195.006152 169.762696 
L 193.668636 169.757649 
z
" style="stroke:#000000;"/>
    <path clip-path="url(#p23a7d4afb7)" d="M 195.47767 164.431411 
L 196.354474 165.18858 
L 195.600662 167.423794 
z
" style="stroke:#000000;"/>
    <path clip-path="url(#p23a7d4afb7)" d="M 196.354474 189.112566 
L 195.47767 189.867742 
L 195.600662 186.875638 
z
" style="stroke:#000000;"/>
    <path clip-path="url(#p23a7d4afb7)" d="M 194.140158 164.421612 
L 194.676688 166.808263 
L 193.33917 166.800587 
z
" style="stroke:#000000;"/>
    <path clip-path="url(#p23a7d4afb7)" d="M 195.006152 184.535385 
L 194.263151 186.885842 
L 195.600662 186.875638 
z
" style="stroke:#000000;"/>
    <path clip-path="url(#p23a7d4afb7)" d="M 192.707499 185.009293 
L 193.668636 184.543499 
L 193.239558 182.122751 
z
" style="stroke:#000000;"/>
    <path clip-path="url(#p23a7d4afb7)" d="M 193.668636 169.757649 
L 192.707499 169.289666 
L 193.239558 172.17742 
z
" style="stroke:#000000;"/>
    <path clip-path="url(#p23a7d4afb7)" d="M 193.668636 184.543499 
L 192.707499 185.009293 
L 193.33917 187.499812 
z
" style="stroke:#000000;"/>
    <path clip-path="url(#p23a7d4afb7)" d="M 192.707499 169.289666 
L 193.668636 169.757649 
L 193.33917 166.800587 
z
" style="stroke:#000000;"/>
    <path clip-path="url(#p23a7d4afb7)" d="M 196.439696 162.190109 
L 196.354474 165.18858 
L 195.47767 164.431411 
z
" style="stroke:#000000;"/>
    <path clip-path="url(#p23a7d4afb7)" d="M 196.354474 189.112566 
L 196.439696 192.11123 
L 195.47767 189.867742 
z
" style="stroke:#000000;"/>
    <path clip-path="url(#p23a7d4afb7)" d="M 194.263151 186.885842 
L 195.006152 184.535385 
L 193.668636 184.543499 
z
" style="stroke:#000000;"/>
    <path clip-path="url(#p23a7d4afb7)" d="M 193.33917 187.499812 
L 195.47767 189.867742 
L 194.140158 189.88061 
z
" style="stroke:#000000;"/>
    <path clip-path="url(#p23a7d4afb7)" d="M 196.439696 192.11123 
L 194.140158 189.88061 
L 195.47767 189.867742 
z
" style="stroke:#000000;"/>
    <path clip-path="url(#p23a7d4afb7)" d="M 196.354474 165.18858 
L 194.263151 167.416661 
L 195.600662 167.423794 
z
" style="stroke:#000000;"/>
    <path clip-path="url(#p23a7d4afb7)" d="M 193.668636 169.757649 
L 195.600662 167.423794 
L 194.263151 167.416661 
z
" style="stroke:#000000;"/>
    <path clip-path="url(#p23a7d4afb7)" d="M 193.33917 187.499812 
L 194.263151 186.885842 
L 193.668636 184.543499 
z
" style="stroke:#000000;"/>
    <path clip-path="url(#p23a7d4afb7)" d="M 194.263151 167.416661 
L 193.33917 166.800587 
L 193.668636 169.757649 
z
" style="stroke:#000000;"/>
    <path clip-path="url(#p23a7d4afb7)" d="M 195.600662 186.875638 
L 195.016969 189.124769 
L 196.354474 189.112566 
z
" style="stroke:#000000;"/>
    <path clip-path="url(#p23a7d4afb7)" d="M 195.47767 164.431411 
L 195.102191 162.178306 
L 196.439696 162.190109 
z
" style="stroke:#000000;"/>
    <path clip-path="url(#p23a7d4afb7)" d="M 194.263151 186.885842 
L 193.33917 187.499812 
L 194.140158 189.88061 
z
" style="stroke:#000000;"/>
    <path clip-path="url(#p23a7d4afb7)" d="M 193.33917 166.800587 
L 194.263151 167.416661 
L 194.140158 164.421612 
z
" style="stroke:#000000;"/>
    <path clip-path="url(#p23a7d4afb7)" d="M 196.439696 162.190109 
L 197.259793 163.080992 
L 196.354474 165.18858 
z
" style="stroke:#000000;"/>
    <path clip-path="url(#p23a7d4afb7)" d="M 197.259793 191.222212 
L 196.439696 192.11123 
L 196.354474 189.112566 
z
" style="stroke:#000000;"/>
    <path clip-path="url(#p23a7d4afb7)" d="M 195.102191 162.178306 
L 195.47767 164.431411 
L 194.140158 164.421612 
z
" style="stroke:#000000;"/>
    <path clip-path="url(#p23a7d4afb7)" d="M 195.016969 189.124769 
L 195.600662 186.875638 
L 194.263151 186.885842 
z
" style="stroke:#000000;"/>
    <path clip-path="url(#p23a7d4afb7)" d="M 194.263151 167.416661 
L 196.354474 165.18858 
L 195.016969 165.179451 
z
" style="stroke:#000000;"/>
    <path clip-path="url(#p23a7d4afb7)" d="M 194.140158 189.88061 
L 196.439696 192.11123 
L 195.102191 192.126108 
z
" style="stroke:#000000;"/>
    <path clip-path="url(#p23a7d4afb7)" d="M 197.552818 160.108363 
L 197.259793 163.080992 
L 196.439696 162.190109 
z
" style="stroke:#000000;"/>
    <path clip-path="url(#p23a7d4afb7)" d="M 197.259793 191.222212 
L 197.552818 194.195507 
L 196.439696 192.11123 
z
" style="stroke:#000000;"/>
    <path clip-path="url(#p23a7d4afb7)" d="M 197.259793 163.080992 
L 195.016969 165.179451 
L 196.354474 165.18858 
z
" style="stroke:#000000;"/>
    <path clip-path="url(#p23a7d4afb7)" d="M 194.140158 189.88061 
L 195.016969 189.124769 
L 194.263151 186.885842 
z
" style="stroke:#000000;"/>
    <path clip-path="url(#p23a7d4afb7)" d="M 195.016969 165.179451 
L 194.140158 164.421612 
L 194.263151 167.416661 
z
" style="stroke:#000000;"/>
    <path clip-path="url(#p23a7d4afb7)" d="M 197.552818 194.195507 
L 195.102191 192.126108 
L 196.439696 192.11123 
z
" style="stroke:#000000;"/>
    <path clip-path="url(#p23a7d4afb7)" d="M 196.354474 189.112566 
L 195.922296 191.236304 
L 197.259793 191.222212 
z
" style="stroke:#000000;"/>
    <path clip-path="url(#p23a7d4afb7)" d="M 195.102191 192.126108 
L 195.016969 189.124769 
L 194.140158 189.88061 
z
" style="stroke:#000000;"/>
    <path clip-path="url(#p23a7d4afb7)" d="M 195.016969 165.179451 
L 195.102191 162.178306 
L 194.140158 164.421612 
z
" style="stroke:#000000;"/>
    <path clip-path="url(#p23a7d4afb7)" d="M 195.922296 191.236304 
L 196.354474 189.112566 
L 195.016969 189.124769 
z
" style="stroke:#000000;"/>
    <path clip-path="url(#p23a7d4afb7)" d="M 196.439696 162.190109 
L 196.215324 160.094694 
L 197.552818 160.108363 
z
" style="stroke:#000000;"/>
    <path clip-path="url(#p23a7d4afb7)" d="M 197.552818 160.108363 
L 198.30722 161.123872 
L 197.259793 163.080992 
z
" style="stroke:#000000;"/>
    <path clip-path="url(#p23a7d4afb7)" d="M 198.30722 193.181713 
L 197.552818 194.195507 
L 197.259793 191.222212 
z
" style="stroke:#000000;"/>
    <path clip-path="url(#p23a7d4afb7)" d="M 196.215324 160.094694 
L 196.439696 162.190109 
L 195.102191 162.178306 
z
" style="stroke:#000000;"/>
    <path clip-path="url(#p23a7d4afb7)" d="M 195.016969 165.179451 
L 197.259793 163.080992 
L 195.922296 163.069977 
z
" style="stroke:#000000;"/>
    <path clip-path="url(#p23a7d4afb7)" d="M 195.102191 192.126108 
L 195.922296 191.236304 
L 195.016969 189.124769 
z
" style="stroke:#000000;"/>
    <path clip-path="url(#p23a7d4afb7)" d="M 195.922296 163.069977 
L 195.102191 162.178306 
L 195.016969 165.179451 
z
" style="stroke:#000000;"/>
    <path clip-path="url(#p23a7d4afb7)" d="M 198.30722 161.123872 
L 195.922296 163.069977 
L 197.259793 163.080992 
z
" style="stroke:#000000;"/>
    <path clip-path="url(#p23a7d4afb7)" d="M 195.102191 192.126108 
L 197.552818 194.195507 
L 196.215324 194.212255 
z
" style="stroke:#000000;"/>
    <path clip-path="url(#p23a7d4afb7)" d="M 198.621391 159.493791 
L 197.552818 160.108363 
L 198.178893 159.159018 
z
" style="stroke:#000000;"/>
    <path clip-path="url(#p23a7d4afb7)" d="M 197.552818 194.195507 
L 198.621391 194.812509 
L 198.178893 195.146276 
z
" style="stroke:#000000;"/>
    <path clip-path="url(#p23a7d4afb7)" d="M 197.552818 160.108363 
L 198.621391 159.493791 
L 198.30722 161.123872 
z
" style="stroke:#000000;"/>
    <path clip-path="url(#p23a7d4afb7)" d="M 198.621391 194.812509 
L 197.552818 194.195507 
L 198.30722 193.181713 
z
" style="stroke:#000000;"/>
    <path clip-path="url(#p23a7d4afb7)" d="M 198.178893 195.146276 
L 196.215324 194.212255 
L 197.552818 194.195507 
z
" style="stroke:#000000;"/>
    <path clip-path="url(#p23a7d4afb7)" d="M 197.259793 191.222212 
L 196.969734 193.197564 
L 198.30722 193.181713 
z
" style="stroke:#000000;"/>
    <path clip-path="url(#p23a7d4afb7)" d="M 197.552818 160.108363 
L 196.841405 159.144495 
L 198.178893 159.159018 
z
" style="stroke:#000000;"/>
    <path clip-path="url(#p23a7d4afb7)" d="M 196.215324 194.212255 
L 195.922296 191.236304 
L 195.102191 192.126108 
z
" style="stroke:#000000;"/>
    <path clip-path="url(#p23a7d4afb7)" d="M 195.922296 163.069977 
L 196.215324 160.094694 
L 195.102191 162.178306 
z
" style="stroke:#000000;"/>
    <path clip-path="url(#p23a7d4afb7)" d="M 196.969734 193.197564 
L 197.259793 191.222212 
L 195.922296 191.236304 
z
" style="stroke:#000000;"/>
    <path clip-path="url(#p23a7d4afb7)" d="M 196.841405 159.144495 
L 197.552818 160.108363 
L 196.215324 160.094694 
z
" style="stroke:#000000;"/>
    <path clip-path="url(#p23a7d4afb7)" d="M 198.30722 161.123872 
L 198.621391 159.493791 
L 199.086419 159.94347 
z
" style="stroke:#000000;"/>
    <path clip-path="url(#p23a7d4afb7)" d="M 198.621391 194.812509 
L 198.30722 193.181713 
L 199.086419 194.363887 
z
" style="stroke:#000000;"/>
    <path clip-path="url(#p23a7d4afb7)" d="M 196.841405 159.144495 
L 198.621391 159.493791 
L 198.178893 159.159018 
z
" style="stroke:#000000;"/>
    <path clip-path="url(#p23a7d4afb7)" d="M 195.922296 163.069977 
L 198.30722 161.123872 
L 196.969734 161.111103 
z
" style="stroke:#000000;"/>
    <path clip-path="url(#p23a7d4afb7)" d="M 196.215324 194.212255 
L 198.178893 195.146276 
L 196.841405 195.16388 
z
" style="stroke:#000000;"/>
    <path clip-path="url(#p23a7d4afb7)" d="M 197.283908 194.82982 
L 198.178893 195.146276 
L 198.621391 194.812509 
z
" style="stroke:#000000;"/>
    <path clip-path="url(#p23a7d4afb7)" d="M 196.969734 193.197564 
L 199.086419 194.363887 
L 198.30722 193.181713 
z
" style="stroke:#000000;"/>
    <path clip-path="url(#p23a7d4afb7)" d="M 196.215324 194.212255 
L 196.969734 193.197564 
L 195.922296 191.236304 
z
" style="stroke:#000000;"/>
    <path clip-path="url(#p23a7d4afb7)" d="M 196.969734 161.111103 
L 196.215324 160.094694 
L 195.922296 163.069977 
z
" style="stroke:#000000;"/>
    <path clip-path="url(#p23a7d4afb7)" d="M 197.283908 159.479562 
L 199.086419 159.94347 
L 198.621391 159.493791 
z
" style="stroke:#000000;"/>
    <path clip-path="url(#p23a7d4afb7)" d="M 198.178893 195.146276 
L 197.283908 194.82982 
L 196.841405 195.16388 
z
" style="stroke:#000000;"/>
    <path clip-path="url(#p23a7d4afb7)" d="M 197.748942 159.929639 
L 198.30722 161.123872 
L 199.086419 159.94347 
z
" style="stroke:#000000;"/>
    <path clip-path="url(#p23a7d4afb7)" d="M 198.621391 159.493791 
L 196.841405 159.144495 
L 197.283908 159.479562 
z
" style="stroke:#000000;"/>
    <path clip-path="url(#p23a7d4afb7)" d="M 197.748942 194.380803 
L 198.621391 194.812509 
L 199.086419 194.363887 
z
" style="stroke:#000000;"/>
    <path clip-path="url(#p23a7d4afb7)" d="M 198.30722 161.123872 
L 197.748942 159.929639 
L 196.969734 161.111103 
z
" style="stroke:#000000;"/>
    <path clip-path="url(#p23a7d4afb7)" d="M 197.283908 194.82982 
L 196.215324 194.212255 
L 196.841405 195.16388 
z
" style="stroke:#000000;"/>
    <path clip-path="url(#p23a7d4afb7)" d="M 196.215324 160.094694 
L 197.283908 159.479562 
L 196.841405 159.144495 
z
" style="stroke:#000000;"/>
    <path clip-path="url(#p23a7d4afb7)" d="M 196.215324 194.212255 
L 197.283908 194.82982 
L 196.969734 193.197564 
z
" style="stroke:#000000;"/>
    <path clip-path="url(#p23a7d4afb7)" d="M 197.283908 159.479562 
L 196.215324 160.094694 
L 196.969734 161.111103 
z
" style="stroke:#000000;"/>
    <path clip-path="url(#p23a7d4afb7)" d="M 198.621391 194.812509 
L 197.748942 194.380803 
L 197.283908 194.82982 
z
" style="stroke:#000000;"/>
    <path clip-path="url(#p23a7d4afb7)" d="M 199.086419 194.363887 
L 196.969734 193.197564 
L 197.748942 194.380803 
z
" style="stroke:#000000;"/>
    <path clip-path="url(#p23a7d4afb7)" d="M 199.086419 159.94347 
L 197.283908 159.479562 
L 197.748942 159.929639 
z
" style="stroke:#000000;"/>
    <path clip-path="url(#p23a7d4afb7)" d="M 196.969734 193.197564 
L 197.283908 194.82982 
L 197.748942 194.380803 
z
" style="stroke:#000000;"/>
    <path clip-path="url(#p23a7d4afb7)" d="M 197.283908 159.479562 
L 196.969734 161.111103 
L 197.748942 159.929639 
z
" style="stroke:#000000;"/>
   </g>
  </g>
 </g>
 <defs>
  <clipPath id="p23a7d4afb7">
   <rect height="271.8" width="279" x="45" y="43.2"/>
  </clipPath>
 </defs>
</svg>
