<?xml version="1.0" encoding="utf-8" standalone="no"?>
<!DOCTYPE svg PUBLIC "-//W3C//DTD SVG 1.1//EN"
  "http://www.w3.org/Graphics/SVG/1.1/DTD/svg11.dtd">
<!-- Created with matplotlib (https://matplotlib.org/) -->
<svg height="360pt" version="1.1" viewBox="0 0 360 360" width="360pt" xmlns="http://www.w3.org/2000/svg" xmlns:xlink="http://www.w3.org/1999/xlink">
 <defs>
  <style type="text/css">
*{stroke-linecap:butt;stroke-linejoin:round;}
  </style>
 </defs>
 <g id="figure_1">
  <g id="patch_1">
   <path d="M 45 315 
L 324 315 
L 324 43.2 
L 45 43.2 
z
" style="fill:#ffffff;"/>
  </g>
  <g id="axes_1">
   <g id="Poly3DCollection_1">
    <path clip-path="url(#p6e5c0145a6)" d="M 187.617659 160.091225 
L 189.606257 159.63957 
L 189.438319 160.096185 
z
" style="stroke:#000000;"/>
    <path clip-path="url(#p6e5c0145a6)" d="M 187.617659 194.183178 
L 189.719852 193.027839 
L 189.438319 194.177112 
z
" style="stroke:#000000;"/>
    <path clip-path="url(#p6e5c0145a6)" d="M 189.438319 194.177112 
L 187.784896 194.641361 
L 187.617659 194.183178 
z
" style="stroke:#000000;"/>
    <path clip-path="url(#p6e5c0145a6)" d="M 189.606257 159.63957 
L 189.719852 161.247833 
L 189.438319 160.096185 
z
" style="stroke:#000000;"/>
    <path clip-path="url(#p6e5c0145a6)" d="M 189.719852 193.027839 
L 189.606257 194.635143 
L 189.438319 194.177112 
z
" style="stroke:#000000;"/>
    <path clip-path="url(#p6e5c0145a6)" d="M 187.784896 194.641361 
L 189.438319 194.177112 
L 189.606257 194.635143 
z
" style="stroke:#000000;"/>
    <path clip-path="url(#p6e5c0145a6)" d="M 189.438319 160.096185 
L 187.898018 161.243243 
L 187.617659 160.091225 
z
" style="stroke:#000000;"/>
    <path clip-path="url(#p6e5c0145a6)" d="M 189.606257 159.63957 
L 187.617659 160.091225 
L 187.784896 159.63446 
z
" style="stroke:#000000;"/>
    <path clip-path="url(#p6e5c0145a6)" d="M 187.898018 161.243243 
L 189.438319 160.096185 
L 189.719852 161.247833 
z
" style="stroke:#000000;"/>
    <path clip-path="url(#p6e5c0145a6)" d="M 187.784896 159.63446 
L 189.766284 159.296797 
L 189.606257 159.63957 
z
" style="stroke:#000000;"/>
    <path clip-path="url(#p6e5c0145a6)" d="M 189.719852 193.027839 
L 187.617659 194.183178 
L 187.898018 193.033537 
z
" style="stroke:#000000;"/>
    <path clip-path="url(#p6e5c0145a6)" d="M 187.784896 194.641361 
L 187.898018 193.033537 
L 187.617659 194.183178 
z
" style="stroke:#000000;"/>
    <path clip-path="url(#p6e5c0145a6)" d="M 187.898018 161.243243 
L 187.784896 159.63446 
L 187.617659 160.091225 
z
" style="stroke:#000000;"/>
    <path clip-path="url(#p6e5c0145a6)" d="M 189.606257 194.635143 
L 187.944255 194.985598 
L 187.784896 194.641361 
z
" style="stroke:#000000;"/>
    <path clip-path="url(#p6e5c0145a6)" d="M 187.944255 194.985598 
L 189.606257 194.635143 
L 189.766284 194.979266 
z
" style="stroke:#000000;"/>
    <path clip-path="url(#p6e5c0145a6)" d="M 189.606257 159.63957 
L 189.993075 160.223339 
L 189.719852 161.247833 
z
" style="stroke:#000000;"/>
    <path clip-path="url(#p6e5c0145a6)" d="M 189.993075 194.054638 
L 189.606257 194.635143 
L 189.719852 193.027839 
z
" style="stroke:#000000;"/>
    <path clip-path="url(#p6e5c0145a6)" d="M 189.993075 160.223339 
L 189.606257 159.63957 
L 189.766284 159.296797 
z
" style="stroke:#000000;"/>
    <path clip-path="url(#p6e5c0145a6)" d="M 189.606257 194.635143 
L 189.993075 194.054638 
L 189.766284 194.979266 
z
" style="stroke:#000000;"/>
    <path clip-path="url(#p6e5c0145a6)" d="M 189.766284 159.296797 
L 187.784896 159.63446 
L 187.944255 159.291574 
z
" style="stroke:#000000;"/>
    <path clip-path="url(#p6e5c0145a6)" d="M 189.993075 194.054638 
L 187.944255 194.985598 
L 189.766284 194.979266 
z
" style="stroke:#000000;"/>
    <path clip-path="url(#p6e5c0145a6)" d="M 190.099373 163.16808 
L 187.898018 161.243243 
L 189.719852 161.247833 
z
" style="stroke:#000000;"/>
    <path clip-path="url(#p6e5c0145a6)" d="M 187.784896 194.641361 
L 188.170101 194.060673 
L 187.898018 193.033537 
z
" style="stroke:#000000;"/>
    <path clip-path="url(#p6e5c0145a6)" d="M 188.170101 160.218414 
L 187.784896 159.63446 
L 187.898018 161.243243 
z
" style="stroke:#000000;"/>
    <path clip-path="url(#p6e5c0145a6)" d="M 188.170101 194.060673 
L 187.784896 194.641361 
L 187.944255 194.985598 
z
" style="stroke:#000000;"/>
    <path clip-path="url(#p6e5c0145a6)" d="M 187.784896 159.63446 
L 188.170101 160.218414 
L 187.944255 159.291574 
z
" style="stroke:#000000;"/>
    <path clip-path="url(#p6e5c0145a6)" d="M 188.170101 160.218414 
L 189.766284 159.296797 
L 187.944255 159.291574 
z
" style="stroke:#000000;"/>
    <path clip-path="url(#p6e5c0145a6)" d="M 188.275956 191.115877 
L 189.719852 193.027839 
L 187.898018 193.033537 
z
" style="stroke:#000000;"/>
    <path clip-path="url(#p6e5c0145a6)" d="M 189.993075 160.223339 
L 190.099373 163.16808 
L 189.719852 161.247833 
z
" style="stroke:#000000;"/>
    <path clip-path="url(#p6e5c0145a6)" d="M 190.099373 191.110795 
L 189.993075 194.054638 
L 189.719852 193.027839 
z
" style="stroke:#000000;"/>
    <path clip-path="url(#p6e5c0145a6)" d="M 189.766284 159.296797 
L 188.170101 160.218414 
L 189.993075 160.223339 
z
" style="stroke:#000000;"/>
    <path clip-path="url(#p6e5c0145a6)" d="M 187.944255 194.985598 
L 189.993075 194.054638 
L 188.170101 194.060673 
z
" style="stroke:#000000;"/>
    <path clip-path="url(#p6e5c0145a6)" d="M 189.719852 193.027839 
L 188.275956 191.115877 
L 190.099373 191.110795 
z
" style="stroke:#000000;"/>
    <path clip-path="url(#p6e5c0145a6)" d="M 187.898018 161.243243 
L 190.099373 163.16808 
L 188.275956 163.164107 
z
" style="stroke:#000000;"/>
    <path clip-path="url(#p6e5c0145a6)" d="M 188.170101 194.060673 
L 188.275956 191.115877 
L 187.898018 193.033537 
z
" style="stroke:#000000;"/>
    <path clip-path="url(#p6e5c0145a6)" d="M 188.275956 163.164107 
L 188.170101 160.218414 
L 187.898018 161.243243 
z
" style="stroke:#000000;"/>
    <path clip-path="url(#p6e5c0145a6)" d="M 190.397386 162.266718 
L 190.099373 163.16808 
L 189.993075 160.223339 
z
" style="stroke:#000000;"/>
    <path clip-path="url(#p6e5c0145a6)" d="M 190.099373 191.110795 
L 190.397386 192.014671 
L 189.993075 194.054638 
z
" style="stroke:#000000;"/>
    <path clip-path="url(#p6e5c0145a6)" d="M 190.397386 192.014671 
L 188.170101 194.060673 
L 189.993075 194.054638 
z
" style="stroke:#000000;"/>
    <path clip-path="url(#p6e5c0145a6)" d="M 188.572727 162.262449 
L 189.993075 160.223339 
L 188.170101 160.218414 
z
" style="stroke:#000000;"/>
    <path clip-path="url(#p6e5c0145a6)" d="M 190.428398 165.246485 
L 188.275956 163.164107 
L 190.099373 163.16808 
z
" style="stroke:#000000;"/>
    <path clip-path="url(#p6e5c0145a6)" d="M 188.572727 192.020051 
L 188.275956 191.115877 
L 188.170101 194.060673 
z
" style="stroke:#000000;"/>
    <path clip-path="url(#p6e5c0145a6)" d="M 188.275956 163.164107 
L 188.572727 162.262449 
L 188.170101 160.218414 
z
" style="stroke:#000000;"/>
    <path clip-path="url(#p6e5c0145a6)" d="M 188.60361 189.039579 
L 190.099373 191.110795 
L 188.275956 191.115877 
z
" style="stroke:#000000;"/>
    <path clip-path="url(#p6e5c0145a6)" d="M 189.993075 160.223339 
L 188.572727 162.262449 
L 190.397386 162.266718 
z
" style="stroke:#000000;"/>
    <path clip-path="url(#p6e5c0145a6)" d="M 190.397386 162.266718 
L 190.428398 165.246485 
L 190.099373 163.16808 
z
" style="stroke:#000000;"/>
    <path clip-path="url(#p6e5c0145a6)" d="M 190.428398 189.035165 
L 190.397386 192.014671 
L 190.099373 191.110795 
z
" style="stroke:#000000;"/>
    <path clip-path="url(#p6e5c0145a6)" d="M 188.170101 194.060673 
L 190.397386 192.014671 
L 188.572727 192.020051 
z
" style="stroke:#000000;"/>
    <path clip-path="url(#p6e5c0145a6)" d="M 190.099373 191.110795 
L 188.60361 189.039579 
L 190.428398 189.035165 
z
" style="stroke:#000000;"/>
    <path clip-path="url(#p6e5c0145a6)" d="M 188.275956 163.164107 
L 190.428398 165.246485 
L 188.60361 165.243183 
z
" style="stroke:#000000;"/>
    <path clip-path="url(#p6e5c0145a6)" d="M 188.572727 192.020051 
L 188.60361 189.039579 
L 188.275956 191.115877 
z
" style="stroke:#000000;"/>
    <path clip-path="url(#p6e5c0145a6)" d="M 188.60361 165.243183 
L 188.572727 162.262449 
L 188.275956 163.164107 
z
" style="stroke:#000000;"/>
    <path clip-path="url(#p6e5c0145a6)" d="M 190.747945 164.478667 
L 190.428398 165.246485 
L 190.397386 162.266718 
z
" style="stroke:#000000;"/>
    <path clip-path="url(#p6e5c0145a6)" d="M 190.428398 189.035165 
L 190.747945 189.805679 
L 190.397386 192.014671 
z
" style="stroke:#000000;"/>
    <path clip-path="url(#p6e5c0145a6)" d="M 190.747945 189.805679 
L 188.572727 192.020051 
L 190.397386 192.014671 
z
" style="stroke:#000000;"/>
    <path clip-path="url(#p6e5c0145a6)" d="M 190.703069 167.459716 
L 188.60361 165.243183 
L 190.428398 165.246485 
z
" style="stroke:#000000;"/>
    <path clip-path="url(#p6e5c0145a6)" d="M 188.921824 164.475113 
L 190.397386 162.266718 
L 188.572727 162.262449 
z
" style="stroke:#000000;"/>
    <path clip-path="url(#p6e5c0145a6)" d="M 188.877135 186.827951 
L 190.428398 189.035165 
L 188.60361 189.039579 
z
" style="stroke:#000000;"/>
    <path clip-path="url(#p6e5c0145a6)" d="M 190.428398 165.246485 
L 190.747945 164.478667 
L 190.703069 167.459716 
z
" style="stroke:#000000;"/>
    <path clip-path="url(#p6e5c0145a6)" d="M 190.747945 189.805679 
L 190.428398 189.035165 
L 190.703069 186.824252 
z
" style="stroke:#000000;"/>
    <path clip-path="url(#p6e5c0145a6)" d="M 190.428398 189.035165 
L 188.877135 186.827951 
L 190.703069 186.824252 
z
" style="stroke:#000000;"/>
    <path clip-path="url(#p6e5c0145a6)" d="M 188.921824 189.810346 
L 188.60361 189.039579 
L 188.572727 192.020051 
z
" style="stroke:#000000;"/>
    <path clip-path="url(#p6e5c0145a6)" d="M 188.60361 165.243183 
L 188.921824 164.475113 
L 188.572727 162.262449 
z
" style="stroke:#000000;"/>
    <path clip-path="url(#p6e5c0145a6)" d="M 190.397386 162.266718 
L 188.921824 164.475113 
L 190.747945 164.478667 
z
" style="stroke:#000000;"/>
    <path clip-path="url(#p6e5c0145a6)" d="M 188.60361 165.243183 
L 190.703069 167.459716 
L 188.877135 167.45713 
z
" style="stroke:#000000;"/>
    <path clip-path="url(#p6e5c0145a6)" d="M 188.572727 192.020051 
L 190.747945 189.805679 
L 188.921824 189.810346 
z
" style="stroke:#000000;"/>
    <path clip-path="url(#p6e5c0145a6)" d="M 188.60361 189.039579 
L 188.921824 189.810346 
L 188.877135 186.827951 
z
" style="stroke:#000000;"/>
    <path clip-path="url(#p6e5c0145a6)" d="M 188.921824 164.475113 
L 188.60361 165.243183 
L 188.877135 167.45713 
z
" style="stroke:#000000;"/>
    <path clip-path="url(#p6e5c0145a6)" d="M 190.920149 169.782894 
L 188.877135 167.45713 
L 190.703069 167.459716 
z
" style="stroke:#000000;"/>
    <path clip-path="url(#p6e5c0145a6)" d="M 191.040623 166.834585 
L 190.703069 167.459716 
L 190.747945 164.478667 
z
" style="stroke:#000000;"/>
    <path clip-path="url(#p6e5c0145a6)" d="M 190.703069 186.824252 
L 191.040623 187.452231 
L 190.747945 189.805679 
z
" style="stroke:#000000;"/>
    <path clip-path="url(#p6e5c0145a6)" d="M 189.09331 184.505852 
L 190.703069 186.824252 
L 188.877135 186.827951 
z
" style="stroke:#000000;"/>
    <path clip-path="url(#p6e5c0145a6)" d="M 190.703069 167.459716 
L 191.040623 166.834585 
L 190.920149 169.782894 
z
" style="stroke:#000000;"/>
    <path clip-path="url(#p6e5c0145a6)" d="M 191.040623 187.452231 
L 190.703069 186.824252 
L 190.920149 184.502905 
z
" style="stroke:#000000;"/>
    <path clip-path="url(#p6e5c0145a6)" d="M 191.040623 187.452231 
L 188.921824 189.810346 
L 190.747945 189.805679 
z
" style="stroke:#000000;"/>
    <path clip-path="url(#p6e5c0145a6)" d="M 190.703069 186.824252 
L 189.09331 184.505852 
L 190.920149 184.502905 
z
" style="stroke:#000000;"/>
    <path clip-path="url(#p6e5c0145a6)" d="M 189.213282 166.831794 
L 190.747945 164.478667 
L 188.921824 164.475113 
z
" style="stroke:#000000;"/>
    <path clip-path="url(#p6e5c0145a6)" d="M 188.877135 167.45713 
L 190.920149 169.782894 
L 189.09331 169.781062 
z
" style="stroke:#000000;"/>
    <path clip-path="url(#p6e5c0145a6)" d="M 189.213282 187.456137 
L 188.877135 186.827951 
L 188.921824 189.810346 
z
" style="stroke:#000000;"/>
    <path clip-path="url(#p6e5c0145a6)" d="M 188.877135 167.45713 
L 189.213282 166.831794 
L 188.921824 164.475113 
z
" style="stroke:#000000;"/>
    <path clip-path="url(#p6e5c0145a6)" d="M 190.747945 164.478667 
L 189.213282 166.831794 
L 191.040623 166.834585 
z
" style="stroke:#000000;"/>
    <path clip-path="url(#p6e5c0145a6)" d="M 191.077072 172.189724 
L 189.09331 169.781062 
L 190.920149 169.782894 
z
" style="stroke:#000000;"/>
    <path clip-path="url(#p6e5c0145a6)" d="M 188.877135 186.827951 
L 189.213282 187.456137 
L 189.09331 184.505852 
z
" style="stroke:#000000;"/>
    <path clip-path="url(#p6e5c0145a6)" d="M 189.213282 166.831794 
L 188.877135 167.45713 
L 189.09331 169.781062 
z
" style="stroke:#000000;"/>
    <path clip-path="url(#p6e5c0145a6)" d="M 188.921824 189.810346 
L 191.040623 187.452231 
L 189.213282 187.456137 
z
" style="stroke:#000000;"/>
    <path clip-path="url(#p6e5c0145a6)" d="M 189.249579 182.099566 
L 190.920149 184.502905 
L 189.09331 184.505852 
z
" style="stroke:#000000;"/>
    <path clip-path="url(#p6e5c0145a6)" d="M 190.920149 184.502905 
L 189.249579 182.099566 
L 191.077072 182.097399 
z
" style="stroke:#000000;"/>
    <path clip-path="url(#p6e5c0145a6)" d="M 191.271949 169.307824 
L 190.920149 169.782894 
L 191.040623 166.834585 
z
" style="stroke:#000000;"/>
    <path clip-path="url(#p6e5c0145a6)" d="M 190.920149 184.502905 
L 191.271949 184.980943 
L 191.040623 187.452231 
z
" style="stroke:#000000;"/>
    <path clip-path="url(#p6e5c0145a6)" d="M 190.920149 169.782894 
L 191.271949 169.307824 
L 191.077072 172.189724 
z
" style="stroke:#000000;"/>
    <path clip-path="url(#p6e5c0145a6)" d="M 191.271949 184.980943 
L 190.920149 184.502905 
L 191.077072 182.097399 
z
" style="stroke:#000000;"/>
    <path clip-path="url(#p6e5c0145a6)" d="M 189.09331 169.781062 
L 191.077072 172.189724 
L 189.249579 172.188673 
z
" style="stroke:#000000;"/>
    <path clip-path="url(#p6e5c0145a6)" d="M 191.171976 174.652815 
L 189.249579 172.188673 
L 191.077072 172.189724 
z
" style="stroke:#000000;"/>
    <path clip-path="url(#p6e5c0145a6)" d="M 191.271949 184.980943 
L 189.213282 187.456137 
L 191.040623 187.452231 
z
" style="stroke:#000000;"/>
    <path clip-path="url(#p6e5c0145a6)" d="M 191.077072 182.097399 
L 189.344088 179.636476 
L 191.171976 179.635108 
z
" style="stroke:#000000;"/>
    <path clip-path="url(#p6e5c0145a6)" d="M 189.344088 179.636476 
L 191.077072 182.097399 
L 189.249579 182.099566 
z
" style="stroke:#000000;"/>
    <path clip-path="url(#p6e5c0145a6)" d="M 189.443645 169.305836 
L 191.040623 166.834585 
L 189.213282 166.831794 
z
" style="stroke:#000000;"/>
    <path clip-path="url(#p6e5c0145a6)" d="M 189.443645 184.984048 
L 189.09331 184.505852 
L 189.213282 187.456137 
z
" style="stroke:#000000;"/>
    <path clip-path="url(#p6e5c0145a6)" d="M 189.09331 169.781062 
L 189.443645 169.305836 
L 189.213282 166.831794 
z
" style="stroke:#000000;"/>
    <path clip-path="url(#p6e5c0145a6)" d="M 189.09331 184.505852 
L 189.443645 184.984048 
L 189.249579 182.099566 
z
" style="stroke:#000000;"/>
    <path clip-path="url(#p6e5c0145a6)" d="M 189.443645 169.305836 
L 189.09331 169.781062 
L 189.249579 172.188673 
z
" style="stroke:#000000;"/>
    <path clip-path="url(#p6e5c0145a6)" d="M 191.203738 177.144096 
L 189.344088 174.652564 
L 191.171976 174.652815 
z
" style="stroke:#000000;"/>
    <path clip-path="url(#p6e5c0145a6)" d="M 189.249579 172.188673 
L 191.171976 174.652815 
L 189.344088 174.652564 
z
" style="stroke:#000000;"/>
    <path clip-path="url(#p6e5c0145a6)" d="M 191.077072 172.189724 
L 191.439182 171.870357 
L 191.171976 174.652815 
z
" style="stroke:#000000;"/>
    <path clip-path="url(#p6e5c0145a6)" d="M 191.439182 182.419821 
L 191.077072 182.097399 
L 191.171976 179.635108 
z
" style="stroke:#000000;"/>
    <path clip-path="url(#p6e5c0145a6)" d="M 191.171976 179.635108 
L 189.375717 177.144654 
L 191.203738 177.144096 
z
" style="stroke:#000000;"/>
    <path clip-path="url(#p6e5c0145a6)" d="M 191.040623 166.834585 
L 189.443645 169.305836 
L 191.271949 169.307824 
z
" style="stroke:#000000;"/>
    <path clip-path="url(#p6e5c0145a6)" d="M 191.439182 171.870357 
L 191.077072 172.189724 
L 191.271949 169.307824 
z
" style="stroke:#000000;"/>
    <path clip-path="url(#p6e5c0145a6)" d="M 191.077072 182.097399 
L 191.439182 182.419821 
L 191.271949 184.980943 
z
" style="stroke:#000000;"/>
    <path clip-path="url(#p6e5c0145a6)" d="M 189.375717 177.144654 
L 191.171976 179.635108 
L 189.344088 179.636476 
z
" style="stroke:#000000;"/>
    <path clip-path="url(#p6e5c0145a6)" d="M 189.344088 174.652564 
L 191.203738 177.144096 
L 189.375717 177.144654 
z
" style="stroke:#000000;"/>
    <path clip-path="url(#p6e5c0145a6)" d="M 189.213282 187.456137 
L 191.271949 184.980943 
L 189.443645 184.984048 
z
" style="stroke:#000000;"/>
    <path clip-path="url(#p6e5c0145a6)" d="M 191.540328 179.798067 
L 191.171976 179.635108 
L 191.203738 177.144096 
z
" style="stroke:#000000;"/>
    <path clip-path="url(#p6e5c0145a6)" d="M 191.171976 174.652815 
L 191.540328 174.492964 
L 191.203738 177.144096 
z
" style="stroke:#000000;"/>
    <path clip-path="url(#p6e5c0145a6)" d="M 189.249579 182.099566 
L 189.610181 182.422095 
L 189.344088 179.636476 
z
" style="stroke:#000000;"/>
    <path clip-path="url(#p6e5c0145a6)" d="M 189.610181 171.8692 
L 189.249579 172.188673 
L 189.344088 174.652564 
z
" style="stroke:#000000;"/>
    <path clip-path="url(#p6e5c0145a6)" d="M 191.439182 182.419821 
L 189.443645 184.984048 
L 191.271949 184.980943 
z
" style="stroke:#000000;"/>
    <path clip-path="url(#p6e5c0145a6)" d="M 191.540328 174.492964 
L 191.171976 174.652815 
L 191.439182 171.870357 
z
" style="stroke:#000000;"/>
    <path clip-path="url(#p6e5c0145a6)" d="M 191.171976 179.635108 
L 191.540328 179.798067 
L 191.439182 182.419821 
z
" style="stroke:#000000;"/>
    <path clip-path="url(#p6e5c0145a6)" d="M 189.610181 182.422095 
L 189.249579 182.099566 
L 189.443645 184.984048 
z
" style="stroke:#000000;"/>
    <path clip-path="url(#p6e5c0145a6)" d="M 189.249579 172.188673 
L 189.610181 171.8692 
L 189.443645 169.305836 
z
" style="stroke:#000000;"/>
    <path clip-path="url(#p6e5c0145a6)" d="M 189.610181 171.8692 
L 191.271949 169.307824 
L 189.443645 169.305836 
z
" style="stroke:#000000;"/>
    <path clip-path="url(#p6e5c0145a6)" d="M 191.271949 169.307824 
L 189.610181 171.8692 
L 191.439182 171.870357 
z
" style="stroke:#000000;"/>
    <path clip-path="url(#p6e5c0145a6)" d="M 189.710904 174.49266 
L 189.344088 174.652564 
L 189.375717 177.144654 
z
" style="stroke:#000000;"/>
    <path clip-path="url(#p6e5c0145a6)" d="M 189.344088 179.636476 
L 189.710904 179.799489 
L 189.375717 177.144654 
z
" style="stroke:#000000;"/>
    <path clip-path="url(#p6e5c0145a6)" d="M 191.574177 177.145659 
L 191.203738 177.144096 
L 191.540328 174.492964 
z
" style="stroke:#000000;"/>
    <path clip-path="url(#p6e5c0145a6)" d="M 191.203738 177.144096 
L 191.574177 177.145659 
L 191.540328 179.798067 
z
" style="stroke:#000000;"/>
    <path clip-path="url(#p6e5c0145a6)" d="M 189.443645 184.984048 
L 191.439182 182.419821 
L 189.610181 182.422095 
z
" style="stroke:#000000;"/>
    <path clip-path="url(#p6e5c0145a6)" d="M 189.3143 160.914121 
L 192.069145 158.344854 
L 191.142064 160.918835 
z
" style="stroke:#000000;"/>
    <path clip-path="url(#p6e5c0145a6)" d="M 192.069145 168.50858 
L 189.3143 160.914121 
L 191.142064 160.918835 
z
" style="stroke:#000000;"/>
    <path clip-path="url(#p6e5c0145a6)" d="M 189.710904 179.799489 
L 189.344088 179.636476 
L 189.610181 182.422095 
z
" style="stroke:#000000;"/>
    <path clip-path="url(#p6e5c0145a6)" d="M 189.344088 174.652564 
L 189.710904 174.49266 
L 189.610181 171.8692 
z
" style="stroke:#000000;"/>
    <path clip-path="url(#p6e5c0145a6)" d="M 191.540328 179.798067 
L 189.610181 182.422095 
L 191.439182 182.419821 
z
" style="stroke:#000000;"/>
    <path clip-path="url(#p6e5c0145a6)" d="M 191.439182 171.870357 
L 189.710904 174.49266 
L 191.540328 174.492964 
z
" style="stroke:#000000;"/>
    <path clip-path="url(#p6e5c0145a6)" d="M 192.069145 158.344854 
L 191.450622 161.22497 
L 191.142064 160.918835 
z
" style="stroke:#000000;"/>
    <path clip-path="url(#p6e5c0145a6)" d="M 192.069145 165.967648 
L 191.142064 160.918835 
L 191.450622 161.22497 
z
" style="stroke:#000000;"/>
    <path clip-path="url(#p6e5c0145a6)" d="M 189.710904 174.49266 
L 191.439182 171.870357 
L 189.610181 171.8692 
z
" style="stroke:#000000;"/>
    <path clip-path="url(#p6e5c0145a6)" d="M 189.744612 177.146218 
L 189.375717 177.144654 
L 189.710904 179.799489 
z
" style="stroke:#000000;"/>
    <path clip-path="url(#p6e5c0145a6)" d="M 189.375717 177.144654 
L 189.744612 177.146218 
L 189.710904 174.49266 
z
" style="stroke:#000000;"/>
    <path clip-path="url(#p6e5c0145a6)" d="M 189.610181 182.422095 
L 191.540328 179.798067 
L 189.710904 179.799489 
z
" style="stroke:#000000;"/>
    <path clip-path="url(#p6e5c0145a6)" d="M 191.574177 177.145659 
L 189.710904 179.799489 
L 191.540328 179.798067 
z
" style="stroke:#000000;"/>
    <path clip-path="url(#p6e5c0145a6)" d="M 191.540328 174.492964 
L 189.744612 177.146218 
L 191.574177 177.145659 
z
" style="stroke:#000000;"/>
    <path clip-path="url(#p6e5c0145a6)" d="M 189.744612 177.146218 
L 191.540328 174.492964 
L 189.710904 174.49266 
z
" style="stroke:#000000;"/>
    <path clip-path="url(#p6e5c0145a6)" d="M 189.710904 179.799489 
L 191.574177 177.145659 
L 189.744612 177.146218 
z
" style="stroke:#000000;"/>
    <path clip-path="url(#p6e5c0145a6)" d="M 189.3143 160.914121 
L 190.237519 165.964568 
L 189.621573 161.220352 
z
" style="stroke:#000000;"/>
    <path clip-path="url(#p6e5c0145a6)" d="M 189.621573 161.220352 
L 190.237519 158.339291 
L 189.3143 160.914121 
z
" style="stroke:#000000;"/>
    <path clip-path="url(#p6e5c0145a6)" d="M 191.450622 161.22497 
L 190.237519 159.610171 
L 189.621573 161.220352 
z
" style="stroke:#000000;"/>
    <path clip-path="url(#p6e5c0145a6)" d="M 190.237519 165.964568 
L 191.450622 161.22497 
L 189.621573 161.220352 
z
" style="stroke:#000000;"/>
    <path clip-path="url(#p6e5c0145a6)" d="M 192.069145 165.967648 
L 192.069145 168.50858 
L 191.142064 160.918835 
z
" style="stroke:#000000;"/>
    <path clip-path="url(#p6e5c0145a6)" d="M 192.069145 158.344854 
L 189.3143 160.914121 
L 190.237519 158.339291 
z
" style="stroke:#000000;"/>
    <path clip-path="url(#p6e5c0145a6)" d="M 189.3143 160.914121 
L 192.069145 168.50858 
L 190.237519 168.506327 
z
" style="stroke:#000000;"/>
    <path clip-path="url(#p6e5c0145a6)" d="M 192.069145 158.344854 
L 192.069145 159.61532 
L 191.450622 161.22497 
z
" style="stroke:#000000;"/>
    <path clip-path="url(#p6e5c0145a6)" d="M 190.237519 165.964568 
L 189.3143 160.914121 
L 190.237519 168.506327 
z
" style="stroke:#000000;"/>
    <path clip-path="url(#p6e5c0145a6)" d="M 190.237519 159.610171 
L 191.450622 161.22497 
L 192.069145 159.61532 
z
" style="stroke:#000000;"/>
    <path clip-path="url(#p6e5c0145a6)" d="M 191.450622 161.22497 
L 190.237519 165.964568 
L 192.069145 165.967648 
z
" style="stroke:#000000;"/>
    <path clip-path="url(#p6e5c0145a6)" d="M 190.237519 158.339291 
L 189.621573 161.220352 
L 190.237519 159.610171 
z
" style="stroke:#000000;"/>
    <path clip-path="url(#p6e5c0145a6)" d="M 192.069145 158.344854 
L 192.68955 161.181768 
L 192.069145 159.61532 
z
" style="stroke:#000000;"/>
    <path clip-path="url(#p6e5c0145a6)" d="M 192.069145 159.61532 
L 190.855339 161.177122 
L 190.237519 159.610171 
z
" style="stroke:#000000;"/>
    <path clip-path="url(#p6e5c0145a6)" d="M 190.855339 161.177122 
L 192.069145 165.967648 
L 190.237519 165.964568 
z
" style="stroke:#000000;"/>
    <path clip-path="url(#p6e5c0145a6)" d="M 192.069145 165.967648 
L 193.00046 160.852584 
L 192.069145 168.50858 
z
" style="stroke:#000000;"/>
    <path clip-path="url(#p6e5c0145a6)" d="M 190.855339 161.177122 
L 190.237519 158.339291 
L 190.237519 159.610171 
z
" style="stroke:#000000;"/>
    <path clip-path="url(#p6e5c0145a6)" d="M 190.237519 158.339291 
L 193.00046 160.852584 
L 192.069145 158.344854 
z
" style="stroke:#000000;"/>
    <path clip-path="url(#p6e5c0145a6)" d="M 193.00046 160.852584 
L 190.237519 168.506327 
L 192.069145 168.50858 
z
" style="stroke:#000000;"/>
    <path clip-path="url(#p6e5c0145a6)" d="M 191.164954 160.847827 
L 190.237519 165.964568 
L 190.237519 168.506327 
z
" style="stroke:#000000;"/>
    <path clip-path="url(#p6e5c0145a6)" d="M 190.855339 161.177122 
L 192.069145 159.61532 
L 192.68955 161.181768 
z
" style="stroke:#000000;"/>
    <path clip-path="url(#p6e5c0145a6)" d="M 192.069145 165.967648 
L 190.855339 161.177122 
L 192.68955 161.181768 
z
" style="stroke:#000000;"/>
    <path clip-path="url(#p6e5c0145a6)" d="M 192.68955 161.181768 
L 192.069145 158.344854 
L 193.00046 160.852584 
z
" style="stroke:#000000;"/>
    <path clip-path="url(#p6e5c0145a6)" d="M 193.00046 160.852584 
L 192.069145 165.967648 
L 192.68955 161.181768 
z
" style="stroke:#000000;"/>
    <path clip-path="url(#p6e5c0145a6)" d="M 192.599338 179.809431 
L 190.731624 177.150401 
L 192.565318 177.14984 
z
" style="stroke:#000000;"/>
    <path clip-path="url(#p6e5c0145a6)" d="M 192.565318 177.14984 
L 190.765502 174.490231 
L 192.599338 174.490536 
z
" style="stroke:#000000;"/>
    <path clip-path="url(#p6e5c0145a6)" d="M 190.765502 174.490231 
L 192.565318 177.14984 
L 190.731624 177.150401 
z
" style="stroke:#000000;"/>
    <path clip-path="url(#p6e5c0145a6)" d="M 190.731624 177.150401 
L 192.599338 179.809431 
L 190.765502 179.81086 
z
" style="stroke:#000000;"/>
    <path clip-path="url(#p6e5c0145a6)" d="M 192.70106 182.441488 
L 190.765502 179.81086 
L 192.599338 179.809431 
z
" style="stroke:#000000;"/>
    <path clip-path="url(#p6e5c0145a6)" d="M 192.93824 177.151413 
L 192.565318 177.14984 
L 192.599338 174.490536 
z
" style="stroke:#000000;"/>
    <path clip-path="url(#p6e5c0145a6)" d="M 192.565318 177.14984 
L 192.93824 177.151413 
L 192.599338 179.809431 
z
" style="stroke:#000000;"/>
    <path clip-path="url(#p6e5c0145a6)" d="M 192.599338 174.490536 
L 190.866801 171.858173 
L 192.70106 171.859337 
z
" style="stroke:#000000;"/>
    <path clip-path="url(#p6e5c0145a6)" d="M 190.237519 165.964568 
L 191.164954 160.847827 
L 190.855339 161.177122 
z
" style="stroke:#000000;"/>
    <path clip-path="url(#p6e5c0145a6)" d="M 190.237519 158.339291 
L 190.855339 161.177122 
L 191.164954 160.847827 
z
" style="stroke:#000000;"/>
    <path clip-path="url(#p6e5c0145a6)" d="M 190.866801 171.858173 
L 192.599338 174.490536 
L 190.765502 174.490231 
z
" style="stroke:#000000;"/>
    <path clip-path="url(#p6e5c0145a6)" d="M 190.765502 179.81086 
L 192.70106 182.441488 
L 190.866801 182.443776 
z
" style="stroke:#000000;"/>
    <path clip-path="url(#p6e5c0145a6)" d="M 192.970279 174.649395 
L 192.599338 174.490536 
L 192.70106 171.859337 
z
" style="stroke:#000000;"/>
    <path clip-path="url(#p6e5c0145a6)" d="M 192.599338 179.809431 
L 192.970279 179.653702 
L 192.70106 182.441488 
z
" style="stroke:#000000;"/>
    <path clip-path="url(#p6e5c0145a6)" d="M 193.00046 160.852584 
L 190.237519 158.339291 
L 191.164954 160.847827 
z
" style="stroke:#000000;"/>
    <path clip-path="url(#p6e5c0145a6)" d="M 190.237519 168.506327 
L 193.00046 160.852584 
L 191.164954 160.847827 
z
" style="stroke:#000000;"/>
    <path clip-path="url(#p6e5c0145a6)" d="M 192.86947 185.018434 
L 190.866801 182.443776 
L 192.70106 182.441488 
z
" style="stroke:#000000;"/>
    <path clip-path="url(#p6e5c0145a6)" d="M 191.102994 177.151976 
L 190.731624 177.150401 
L 190.765502 179.81086 
z
" style="stroke:#000000;"/>
    <path clip-path="url(#p6e5c0145a6)" d="M 190.731624 177.150401 
L 191.102994 177.151976 
L 190.765502 174.490231 
z
" style="stroke:#000000;"/>
    <path clip-path="url(#p6e5c0145a6)" d="M 192.970279 179.653702 
L 192.599338 179.809431 
L 192.93824 177.151413 
z
" style="stroke:#000000;"/>
    <path clip-path="url(#p6e5c0145a6)" d="M 192.599338 174.490536 
L 192.970279 174.649395 
L 192.93824 177.151413 
z
" style="stroke:#000000;"/>
    <path clip-path="url(#p6e5c0145a6)" d="M 191.034509 169.281807 
L 192.70106 171.859337 
L 190.866801 171.858173 
z
" style="stroke:#000000;"/>
    <path clip-path="url(#p6e5c0145a6)" d="M 192.70106 171.859337 
L 191.034509 169.281807 
L 192.86947 169.283812 
z
" style="stroke:#000000;"/>
    <path clip-path="url(#p6e5c0145a6)" d="M 193.066068 172.1739 
L 192.70106 171.859337 
L 192.86947 169.283812 
z
" style="stroke:#000000;"/>
    <path clip-path="url(#p6e5c0145a6)" d="M 192.70106 182.441488 
L 193.066068 182.130004 
L 192.86947 185.018434 
z
" style="stroke:#000000;"/>
    <path clip-path="url(#p6e5c0145a6)" d="M 191.134899 179.655081 
L 190.765502 179.81086 
L 190.866801 182.443776 
z
" style="stroke:#000000;"/>
    <path clip-path="url(#p6e5c0145a6)" d="M 190.765502 174.490231 
L 191.134899 174.649141 
L 190.866801 171.858173 
z
" style="stroke:#000000;"/>
    <path clip-path="url(#p6e5c0145a6)" d="M 190.866801 182.443776 
L 192.86947 185.018434 
L 191.034509 185.021564 
z
" style="stroke:#000000;"/>
    <path clip-path="url(#p6e5c0145a6)" d="M 192.70106 171.859337 
L 193.066068 172.1739 
L 192.970279 174.649395 
z
" style="stroke:#000000;"/>
    <path clip-path="url(#p6e5c0145a6)" d="M 193.066068 182.130004 
L 192.70106 182.441488 
L 192.970279 179.653702 
z
" style="stroke:#000000;"/>
    <path clip-path="url(#p6e5c0145a6)" d="M 191.134899 174.649141 
L 190.765502 174.490231 
L 191.102994 177.151976 
z
" style="stroke:#000000;"/>
    <path clip-path="url(#p6e5c0145a6)" d="M 190.765502 179.81086 
L 191.134899 179.655081 
L 191.102994 177.151976 
z
" style="stroke:#000000;"/>
    <path clip-path="url(#p6e5c0145a6)" d="M 193.102881 187.513182 
L 191.034509 185.021564 
L 192.86947 185.018434 
z
" style="stroke:#000000;"/>
    <path clip-path="url(#p6e5c0145a6)" d="M 192.970279 174.649395 
L 191.102994 177.151976 
L 192.93824 177.151413 
z
" style="stroke:#000000;"/>
    <path clip-path="url(#p6e5c0145a6)" d="M 192.93824 177.151413 
L 191.134899 179.655081 
L 192.970279 179.653702 
z
" style="stroke:#000000;"/>
    <path clip-path="url(#p6e5c0145a6)" d="M 191.230289 182.132193 
L 190.866801 182.443776 
L 191.034509 185.021564 
z
" style="stroke:#000000;"/>
    <path clip-path="url(#p6e5c0145a6)" d="M 190.866801 171.858173 
L 191.230289 172.172838 
L 191.034509 169.281807 
z
" style="stroke:#000000;"/>
    <path clip-path="url(#p6e5c0145a6)" d="M 191.266948 166.788213 
L 192.86947 169.283812 
L 191.034509 169.281807 
z
" style="stroke:#000000;"/>
    <path clip-path="url(#p6e5c0145a6)" d="M 191.134899 179.655081 
L 192.93824 177.151413 
L 191.102994 177.151976 
z
" style="stroke:#000000;"/>
    <path clip-path="url(#p6e5c0145a6)" d="M 190.866801 182.443776 
L 191.230289 182.132193 
L 191.134899 179.655081 
z
" style="stroke:#000000;"/>
    <path clip-path="url(#p6e5c0145a6)" d="M 191.230289 172.172838 
L 190.866801 171.858173 
L 191.134899 174.649141 
z
" style="stroke:#000000;"/>
    <path clip-path="url(#p6e5c0145a6)" d="M 193.066068 172.1739 
L 191.134899 174.649141 
L 192.970279 174.649395 
z
" style="stroke:#000000;"/>
    <path clip-path="url(#p6e5c0145a6)" d="M 191.102994 177.151976 
L 192.970279 174.649395 
L 191.134899 174.649141 
z
" style="stroke:#000000;"/>
    <path clip-path="url(#p6e5c0145a6)" d="M 192.86947 169.283812 
L 193.224652 169.750916 
L 193.066068 172.1739 
z
" style="stroke:#000000;"/>
    <path clip-path="url(#p6e5c0145a6)" d="M 193.224652 184.554326 
L 192.86947 185.018434 
L 193.066068 182.130004 
z
" style="stroke:#000000;"/>
    <path clip-path="url(#p6e5c0145a6)" d="M 193.224652 169.750916 
L 192.86947 169.283812 
L 193.102881 166.791033 
z
" style="stroke:#000000;"/>
    <path clip-path="url(#p6e5c0145a6)" d="M 192.86947 185.018434 
L 193.224652 184.554326 
L 193.102881 187.513182 
z
" style="stroke:#000000;"/>
    <path clip-path="url(#p6e5c0145a6)" d="M 192.86947 169.283812 
L 191.266948 166.788213 
L 193.102881 166.791033 
z
" style="stroke:#000000;"/>
    <path clip-path="url(#p6e5c0145a6)" d="M 192.970279 179.653702 
L 191.230289 182.132193 
L 193.066068 182.130004 
z
" style="stroke:#000000;"/>
    <path clip-path="url(#p6e5c0145a6)" d="M 191.230289 182.132193 
L 192.970279 179.653702 
L 191.134899 179.655081 
z
" style="stroke:#000000;"/>
    <path clip-path="url(#p6e5c0145a6)" d="M 191.034509 185.021564 
L 193.102881 187.513182 
L 191.266948 187.517128 
z
" style="stroke:#000000;"/>
    <path clip-path="url(#p6e5c0145a6)" d="M 191.134899 174.649141 
L 193.066068 172.1739 
L 191.230289 172.172838 
z
" style="stroke:#000000;"/>
    <path clip-path="url(#p6e5c0145a6)" d="M 193.224652 169.750916 
L 191.230289 172.172838 
L 193.066068 172.1739 
z
" style="stroke:#000000;"/>
    <path clip-path="url(#p6e5c0145a6)" d="M 191.034509 185.021564 
L 191.388212 184.557307 
L 191.230289 182.132193 
z
" style="stroke:#000000;"/>
    <path clip-path="url(#p6e5c0145a6)" d="M 191.388212 169.749063 
L 191.034509 169.281807 
L 191.230289 172.172838 
z
" style="stroke:#000000;"/>
    <path clip-path="url(#p6e5c0145a6)" d="M 191.388212 184.557307 
L 191.034509 185.021564 
L 191.266948 187.517128 
z
" style="stroke:#000000;"/>
    <path clip-path="url(#p6e5c0145a6)" d="M 191.034509 169.281807 
L 191.388212 169.749063 
L 191.266948 166.788213 
z
" style="stroke:#000000;"/>
    <path clip-path="url(#p6e5c0145a6)" d="M 191.388212 184.557307 
L 193.066068 182.130004 
L 191.230289 182.132193 
z
" style="stroke:#000000;"/>
    <path clip-path="url(#p6e5c0145a6)" d="M 193.066068 182.130004 
L 191.388212 184.557307 
L 193.224652 184.554326 
z
" style="stroke:#000000;"/>
    <path clip-path="url(#p6e5c0145a6)" d="M 193.39896 189.899433 
L 191.266948 187.517128 
L 193.102881 187.513182 
z
" style="stroke:#000000;"/>
    <path clip-path="url(#p6e5c0145a6)" d="M 193.102881 166.791033 
L 193.444434 167.405989 
L 193.224652 169.750916 
z
" style="stroke:#000000;"/>
    <path clip-path="url(#p6e5c0145a6)" d="M 193.444434 186.901107 
L 193.102881 187.513182 
L 193.224652 184.554326 
z
" style="stroke:#000000;"/>
    <path clip-path="url(#p6e5c0145a6)" d="M 191.230289 172.172838 
L 193.224652 169.750916 
L 191.388212 169.749063 
z
" style="stroke:#000000;"/>
    <path clip-path="url(#p6e5c0145a6)" d="M 191.561794 164.403679 
L 193.102881 166.791033 
L 191.266948 166.788213 
z
" style="stroke:#000000;"/>
    <path clip-path="url(#p6e5c0145a6)" d="M 193.444434 167.405989 
L 193.102881 166.791033 
L 193.39896 164.40728 
z
" style="stroke:#000000;"/>
    <path clip-path="url(#p6e5c0145a6)" d="M 193.102881 187.513182 
L 193.444434 186.901107 
L 193.39896 189.899433 
z
" style="stroke:#000000;"/>
    <path clip-path="url(#p6e5c0145a6)" d="M 193.444434 167.405989 
L 191.388212 169.749063 
L 193.224652 169.750916 
z
" style="stroke:#000000;"/>
    <path clip-path="url(#p6e5c0145a6)" d="M 193.102881 166.791033 
L 191.561794 164.403679 
L 193.39896 164.40728 
z
" style="stroke:#000000;"/>
    <path clip-path="url(#p6e5c0145a6)" d="M 191.607079 186.904856 
L 193.224652 184.554326 
L 191.388212 184.557307 
z
" style="stroke:#000000;"/>
    <path clip-path="url(#p6e5c0145a6)" d="M 191.266948 187.517128 
L 193.39896 189.899433 
L 191.561794 189.904162 
z
" style="stroke:#000000;"/>
    <path clip-path="url(#p6e5c0145a6)" d="M 191.266948 187.517128 
L 191.607079 186.904856 
L 191.388212 184.557307 
z
" style="stroke:#000000;"/>
    <path clip-path="url(#p6e5c0145a6)" d="M 191.607079 167.403369 
L 191.266948 166.788213 
L 191.388212 169.749063 
z
" style="stroke:#000000;"/>
    <path clip-path="url(#p6e5c0145a6)" d="M 193.224652 184.554326 
L 191.607079 186.904856 
L 193.444434 186.901107 
z
" style="stroke:#000000;"/>
    <path clip-path="url(#p6e5c0145a6)" d="M 191.607079 186.904856 
L 191.266948 187.517128 
L 191.561794 189.904162 
z
" style="stroke:#000000;"/>
    <path clip-path="url(#p6e5c0145a6)" d="M 191.266948 166.788213 
L 191.607079 167.403369 
L 191.561794 164.403679 
z
" style="stroke:#000000;"/>
    <path clip-path="url(#p6e5c0145a6)" d="M 191.388212 169.749063 
L 193.444434 167.405989 
L 191.607079 167.403369 
z
" style="stroke:#000000;"/>
    <path clip-path="url(#p6e5c0145a6)" d="M 193.39896 164.40728 
L 193.723199 165.163919 
L 193.444434 167.405989 
z
" style="stroke:#000000;"/>
    <path clip-path="url(#p6e5c0145a6)" d="M 193.723199 189.14553 
L 193.39896 189.899433 
L 193.444434 186.901107 
z
" style="stroke:#000000;"/>
    <path clip-path="url(#p6e5c0145a6)" d="M 193.754721 192.151764 
L 191.561794 189.904162 
L 193.39896 189.899433 
z
" style="stroke:#000000;"/>
    <path clip-path="url(#p6e5c0145a6)" d="M 193.723199 165.163919 
L 191.607079 167.403369 
L 193.444434 167.405989 
z
" style="stroke:#000000;"/>
    <path clip-path="url(#p6e5c0145a6)" d="M 191.916074 162.153612 
L 193.39896 164.40728 
L 191.561794 164.403679 
z
" style="stroke:#000000;"/>
    <path clip-path="url(#p6e5c0145a6)" d="M 193.754721 162.157951 
L 193.723199 165.163919 
L 193.39896 164.40728 
z
" style="stroke:#000000;"/>
    <path clip-path="url(#p6e5c0145a6)" d="M 193.723199 189.14553 
L 193.754721 192.151764 
L 193.39896 189.899433 
z
" style="stroke:#000000;"/>
    <path clip-path="url(#p6e5c0145a6)" d="M 191.884683 189.150015 
L 193.444434 186.901107 
L 191.607079 186.904856 
z
" style="stroke:#000000;"/>
    <path clip-path="url(#p6e5c0145a6)" d="M 191.561794 189.904162 
L 191.884683 189.150015 
L 191.607079 186.904856 
z
" style="stroke:#000000;"/>
    <path clip-path="url(#p6e5c0145a6)" d="M 191.884683 165.160563 
L 191.561794 164.403679 
L 191.607079 167.403369 
z
" style="stroke:#000000;"/>
    <path clip-path="url(#p6e5c0145a6)" d="M 193.444434 186.901107 
L 191.884683 189.150015 
L 193.723199 189.14553 
z
" style="stroke:#000000;"/>
    <path clip-path="url(#p6e5c0145a6)" d="M 193.39896 164.40728 
L 191.916074 162.153612 
L 193.754721 162.157951 
z
" style="stroke:#000000;"/>
    <path clip-path="url(#p6e5c0145a6)" d="M 191.607079 167.403369 
L 193.723199 165.163919 
L 191.884683 165.160563 
z
" style="stroke:#000000;"/>
    <path clip-path="url(#p6e5c0145a6)" d="M 191.561794 189.904162 
L 193.754721 192.151764 
L 191.916074 192.157233 
z
" style="stroke:#000000;"/>
    <path clip-path="url(#p6e5c0145a6)" d="M 191.916074 192.157233 
L 191.884683 189.150015 
L 191.561794 189.904162 
z
" style="stroke:#000000;"/>
    <path clip-path="url(#p6e5c0145a6)" d="M 191.884683 165.160563 
L 191.916074 162.153612 
L 191.561794 164.403679 
z
" style="stroke:#000000;"/>
    <path clip-path="url(#p6e5c0145a6)" d="M 193.754721 162.157951 
L 194.058128 163.048525 
L 193.723199 165.163919 
z
" style="stroke:#000000;"/>
    <path clip-path="url(#p6e5c0145a6)" d="M 194.058128 191.263749 
L 193.754721 192.151764 
L 193.723199 189.14553 
z
" style="stroke:#000000;"/>
    <path clip-path="url(#p6e5c0145a6)" d="M 194.058128 163.048525 
L 191.884683 165.160563 
L 193.723199 165.163919 
z
" style="stroke:#000000;"/>
    <path clip-path="url(#p6e5c0145a6)" d="M 192.218218 191.268932 
L 193.723199 189.14553 
L 191.884683 189.150015 
z
" style="stroke:#000000;"/>
    <path clip-path="url(#p6e5c0145a6)" d="M 194.166566 194.246206 
L 191.916074 192.157233 
L 193.754721 192.151764 
z
" style="stroke:#000000;"/>
    <path clip-path="url(#p6e5c0145a6)" d="M 191.916074 192.157233 
L 192.218218 191.268932 
L 191.884683 189.150015 
z
" style="stroke:#000000;"/>
    <path clip-path="url(#p6e5c0145a6)" d="M 192.218218 163.044474 
L 191.916074 162.153612 
L 191.884683 165.160563 
z
" style="stroke:#000000;"/>
    <path clip-path="url(#p6e5c0145a6)" d="M 192.326205 160.061955 
L 193.754721 162.157951 
L 191.916074 162.153612 
z
" style="stroke:#000000;"/>
    <path clip-path="url(#p6e5c0145a6)" d="M 193.723199 189.14553 
L 192.218218 191.268932 
L 194.058128 191.263749 
z
" style="stroke:#000000;"/>
    <path clip-path="url(#p6e5c0145a6)" d="M 194.166566 160.066983 
L 194.058128 163.048525 
L 193.754721 162.157951 
z
" style="stroke:#000000;"/>
    <path clip-path="url(#p6e5c0145a6)" d="M 194.058128 191.263749 
L 194.166566 194.246206 
L 193.754721 192.151764 
z
" style="stroke:#000000;"/>
    <path clip-path="url(#p6e5c0145a6)" d="M 191.884683 165.160563 
L 194.058128 163.048525 
L 192.218218 163.044474 
z
" style="stroke:#000000;"/>
    <path clip-path="url(#p6e5c0145a6)" d="M 193.754721 162.157951 
L 192.326205 160.061955 
L 194.166566 160.066983 
z
" style="stroke:#000000;"/>
    <path clip-path="url(#p6e5c0145a6)" d="M 191.916074 192.157233 
L 194.166566 194.246206 
L 192.326205 194.252366 
z
" style="stroke:#000000;"/>
    <path clip-path="url(#p6e5c0145a6)" d="M 192.326205 194.252366 
L 192.218218 191.268932 
L 191.916074 192.157233 
z
" style="stroke:#000000;"/>
    <path clip-path="url(#p6e5c0145a6)" d="M 192.218218 163.044474 
L 192.326205 160.061955 
L 191.916074 162.153612 
z
" style="stroke:#000000;"/>
    <path clip-path="url(#p6e5c0145a6)" d="M 194.166566 160.066983 
L 194.445815 161.082598 
L 194.058128 163.048525 
z
" style="stroke:#000000;"/>
    <path clip-path="url(#p6e5c0145a6)" d="M 194.445815 193.232947 
L 194.166566 194.246206 
L 194.058128 191.263749 
z
" style="stroke:#000000;"/>
    <path clip-path="url(#p6e5c0145a6)" d="M 194.445815 161.082598 
L 192.218218 163.044474 
L 194.058128 163.048525 
z
" style="stroke:#000000;"/>
    <path clip-path="url(#p6e5c0145a6)" d="M 192.604291 193.238779 
L 194.058128 191.263749 
L 192.218218 191.268932 
z
" style="stroke:#000000;"/>
    <path clip-path="url(#p6e5c0145a6)" d="M 194.398307 195.202561 
L 192.326205 194.252366 
L 194.166566 194.246206 
z
" style="stroke:#000000;"/>
    <path clip-path="url(#p6e5c0145a6)" d="M 192.55698 159.107241 
L 194.166566 160.066983 
L 192.326205 160.061955 
z
" style="stroke:#000000;"/>
    <path clip-path="url(#p6e5c0145a6)" d="M 192.326205 194.252366 
L 192.604291 193.238779 
L 192.218218 191.268932 
z
" style="stroke:#000000;"/>
    <path clip-path="url(#p6e5c0145a6)" d="M 192.604291 161.0779 
L 192.326205 160.061955 
L 192.218218 163.044474 
z
" style="stroke:#000000;"/>
    <path clip-path="url(#p6e5c0145a6)" d="M 194.058128 191.263749 
L 192.604291 193.238779 
L 194.445815 193.232947 
z
" style="stroke:#000000;"/>
    <path clip-path="url(#p6e5c0145a6)" d="M 194.166566 160.066983 
L 192.55698 159.107241 
L 194.398307 159.112584 
z
" style="stroke:#000000;"/>
    <path clip-path="url(#p6e5c0145a6)" d="M 194.562139 159.446589 
L 194.166566 160.066983 
L 194.398307 159.112584 
z
" style="stroke:#000000;"/>
    <path clip-path="url(#p6e5c0145a6)" d="M 194.166566 194.246206 
L 194.562139 194.869938 
L 194.398307 195.202561 
z
" style="stroke:#000000;"/>
    <path clip-path="url(#p6e5c0145a6)" d="M 194.166566 160.066983 
L 194.562139 159.446589 
L 194.445815 161.082598 
z
" style="stroke:#000000;"/>
    <path clip-path="url(#p6e5c0145a6)" d="M 194.562139 194.869938 
L 194.166566 194.246206 
L 194.445815 193.232947 
z
" style="stroke:#000000;"/>
    <path clip-path="url(#p6e5c0145a6)" d="M 192.218218 163.044474 
L 194.445815 161.082598 
L 192.604291 161.0779 
z
" style="stroke:#000000;"/>
    <path clip-path="url(#p6e5c0145a6)" d="M 192.326205 194.252366 
L 194.398307 195.202561 
L 192.55698 195.209037 
z
" style="stroke:#000000;"/>
    <path clip-path="url(#p6e5c0145a6)" d="M 192.55698 159.107241 
L 194.562139 159.446589 
L 194.398307 159.112584 
z
" style="stroke:#000000;"/>
    <path clip-path="url(#p6e5c0145a6)" d="M 192.720131 194.876308 
L 192.326205 194.252366 
L 192.55698 195.209037 
z
" style="stroke:#000000;"/>
    <path clip-path="url(#p6e5c0145a6)" d="M 192.326205 160.061955 
L 192.720131 159.441353 
L 192.55698 159.107241 
z
" style="stroke:#000000;"/>
    <path clip-path="url(#p6e5c0145a6)" d="M 192.326205 194.252366 
L 192.720131 194.876308 
L 192.604291 193.238779 
z
" style="stroke:#000000;"/>
    <path clip-path="url(#p6e5c0145a6)" d="M 192.720131 159.441353 
L 192.326205 160.061955 
L 192.604291 161.0779 
z
" style="stroke:#000000;"/>
    <path clip-path="url(#p6e5c0145a6)" d="M 194.398307 195.202561 
L 192.720131 194.876308 
L 192.55698 195.209037 
z
" style="stroke:#000000;"/>
    <path clip-path="url(#p6e5c0145a6)" d="M 192.720131 194.876308 
L 194.398307 195.202561 
L 194.562139 194.869938 
z
" style="stroke:#000000;"/>
    <path clip-path="url(#p6e5c0145a6)" d="M 194.445815 161.082598 
L 194.562139 159.446589 
L 194.734351 159.89584 
z
" style="stroke:#000000;"/>
    <path clip-path="url(#p6e5c0145a6)" d="M 194.562139 194.869938 
L 194.445815 193.232947 
L 194.734351 194.42214 
z
" style="stroke:#000000;"/>
    <path clip-path="url(#p6e5c0145a6)" d="M 192.604291 193.238779 
L 194.734351 194.42214 
L 194.445815 193.232947 
z
" style="stroke:#000000;"/>
    <path clip-path="url(#p6e5c0145a6)" d="M 194.562139 159.446589 
L 192.55698 159.107241 
L 192.720131 159.441353 
z
" style="stroke:#000000;"/>
    <path clip-path="url(#p6e5c0145a6)" d="M 194.445815 161.082598 
L 192.891626 159.890749 
L 192.604291 161.0779 
z
" style="stroke:#000000;"/>
    <path clip-path="url(#p6e5c0145a6)" d="M 192.720131 159.441353 
L 194.734351 159.89584 
L 194.562139 159.446589 
z
" style="stroke:#000000;"/>
    <path clip-path="url(#p6e5c0145a6)" d="M 192.891626 159.890749 
L 194.445815 161.082598 
L 194.734351 159.89584 
z
" style="stroke:#000000;"/>
    <path clip-path="url(#p6e5c0145a6)" d="M 194.562139 194.869938 
L 192.891626 194.428366 
L 192.720131 194.876308 
z
" style="stroke:#000000;"/>
    <path clip-path="url(#p6e5c0145a6)" d="M 192.604291 193.238779 
L 192.720131 194.876308 
L 192.891626 194.428366 
z
" style="stroke:#000000;"/>
    <path clip-path="url(#p6e5c0145a6)" d="M 192.720131 159.441353 
L 192.604291 161.0779 
L 192.891626 159.890749 
z
" style="stroke:#000000;"/>
    <path clip-path="url(#p6e5c0145a6)" d="M 192.891626 194.428366 
L 194.562139 194.869938 
L 194.734351 194.42214 
z
" style="stroke:#000000;"/>
    <path clip-path="url(#p6e5c0145a6)" d="M 194.734351 194.42214 
L 192.604291 193.238779 
L 192.891626 194.428366 
z
" style="stroke:#000000;"/>
    <path clip-path="url(#p6e5c0145a6)" d="M 194.734351 159.89584 
L 192.720131 159.441353 
L 192.891626 159.890749 
z
" style="stroke:#000000;"/>
   </g>
  </g>
 </g>
 <defs>
  <clipPath id="p6e5c0145a6">
   <rect height="271.8" width="279" x="45" y="43.2"/>
  </clipPath>
 </defs>
</svg>
