<?xml version="1.0" encoding="utf-8" standalone="no"?>
<!DOCTYPE svg PUBLIC "-//W3C//DTD SVG 1.1//EN"
  "http://www.w3.org/Graphics/SVG/1.1/DTD/svg11.dtd">
<!-- Created with matplotlib (https://matplotlib.org/) -->
<svg height="360pt" version="1.1" viewBox="0 0 360 360" width="360pt" xmlns="http://www.w3.org/2000/svg" xmlns:xlink="http://www.w3.org/1999/xlink">
 <defs>
  <style type="text/css">
*{stroke-linecap:butt;stroke-linejoin:round;}
  </style>
 </defs>
 <g id="figure_1">
  <g id="patch_1">
   <path d="M 0 360 
L 360 360 
L 360 0 
L 0 0 
z
" style="fill:#ffffff;"/>
  </g>
  <g id="patch_2">
   <path d="M 45 315 
L 324 315 
L 324 43.2 
L 45 43.2 
z
" style="fill:#ffffff;"/>
  </g>
  <g id="axes_1">
   <g id="Poly3DCollection_1">
    <path clip-path="url(#pb5972713c8)" d="M 211.228173 246.226518 
L 210.196576 239.917305 
L 212.7509 244.355468 
z
" style="stroke:#000000;"/>
    <path clip-path="url(#pb5972713c8)" d="M 210.196576 114.317449 
L 211.228173 108.005165 
L 212.7509 109.871681 
z
" style="stroke:#000000;"/>
    <path clip-path="url(#pb5972713c8)" d="M 218.742486 244.563013 
L 211.228173 246.226518 
L 212.7509 244.355468 
z
" style="stroke:#000000;"/>
    <path clip-path="url(#pb5972713c8)" d="M 218.742486 109.674292 
L 210.196576 114.317449 
L 212.7509 109.871681 
z
" style="stroke:#000000;"/>
    <path clip-path="url(#pb5972713c8)" d="M 217.223246 107.801882 
L 212.7509 109.871681 
L 211.228173 108.005165 
z
" style="stroke:#000000;"/>
    <path clip-path="url(#pb5972713c8)" d="M 212.7509 109.871681 
L 217.223246 107.801882 
L 218.742486 109.674292 
z
" style="stroke:#000000;"/>
    <path clip-path="url(#pb5972713c8)" d="M 216.194005 240.111926 
L 212.7509 244.355468 
L 210.196576 239.917305 
z
" style="stroke:#000000;"/>
    <path clip-path="url(#pb5972713c8)" d="M 211.228173 246.226518 
L 207.710026 244.07585 
L 210.196576 239.917305 
z
" style="stroke:#000000;"/>
    <path clip-path="url(#pb5972713c8)" d="M 207.710026 110.166309 
L 211.228173 108.005165 
L 210.196576 114.317449 
z
" style="stroke:#000000;"/>
    <path clip-path="url(#pb5972713c8)" d="M 212.7509 244.355468 
L 216.194005 240.111926 
L 218.742486 244.563013 
z
" style="stroke:#000000;"/>
    <path clip-path="url(#pb5972713c8)" d="M 217.223246 246.439984 
L 209.774544 247.647663 
L 211.228173 246.226518 
z
" style="stroke:#000000;"/>
    <path clip-path="url(#pb5972713c8)" d="M 207.710026 244.07585 
L 211.228173 246.226518 
L 209.774544 247.647663 
z
" style="stroke:#000000;"/>
    <path clip-path="url(#pb5972713c8)" d="M 211.228173 108.005165 
L 207.710026 110.166309 
L 209.774544 106.588349 
z
" style="stroke:#000000;"/>
    <path clip-path="url(#pb5972713c8)" d="M 211.228173 246.226518 
L 218.742486 244.563013 
L 217.223246 246.439984 
z
" style="stroke:#000000;"/>
    <path clip-path="url(#pb5972713c8)" d="M 215.772935 106.380528 
L 211.228173 108.005165 
L 209.774544 106.588349 
z
" style="stroke:#000000;"/>
    <path clip-path="url(#pb5972713c8)" d="M 210.196576 114.317449 
L 218.742486 109.674292 
L 216.194005 114.133031 
z
" style="stroke:#000000;"/>
    <path clip-path="url(#pb5972713c8)" d="M 211.228173 108.005165 
L 215.772935 106.380528 
L 217.223246 107.801882 
z
" style="stroke:#000000;"/>
    <path clip-path="url(#pb5972713c8)" d="M 207.710026 244.07585 
L 206.740589 232.455954 
L 210.196576 239.917305 
z
" style="stroke:#000000;"/>
    <path clip-path="url(#pb5972713c8)" d="M 206.740589 121.789092 
L 207.710026 110.166309 
L 210.196576 114.317449 
z
" style="stroke:#000000;"/>
    <path clip-path="url(#pb5972713c8)" d="M 209.774544 247.647663 
L 217.223246 246.439984 
L 215.772935 247.865694 
z
" style="stroke:#000000;"/>
    <path clip-path="url(#pb5972713c8)" d="M 217.223246 107.801882 
L 216.194005 114.133031 
L 218.742486 109.674292 
z
" style="stroke:#000000;"/>
    <path clip-path="url(#pb5972713c8)" d="M 216.194005 240.111926 
L 217.223246 246.439984 
L 218.742486 244.563013 
z
" style="stroke:#000000;"/>
    <path clip-path="url(#pb5972713c8)" d="M 207.710026 110.166309 
L 215.772935 106.380528 
L 209.774544 106.588349 
z
" style="stroke:#000000;"/>
    <path clip-path="url(#pb5972713c8)" d="M 206.740589 232.455954 
L 216.194005 240.111926 
L 210.196576 239.917305 
z
" style="stroke:#000000;"/>
    <path clip-path="url(#pb5972713c8)" d="M 209.774544 247.647663 
L 213.713111 244.283476 
L 207.710026 244.07585 
z
" style="stroke:#000000;"/>
    <path clip-path="url(#pb5972713c8)" d="M 213.713111 244.283476 
L 209.774544 247.647663 
L 215.772935 247.865694 
z
" style="stroke:#000000;"/>
    <path clip-path="url(#pb5972713c8)" d="M 212.745869 121.626728 
L 210.196576 114.317449 
L 216.194005 114.133031 
z
" style="stroke:#000000;"/>
    <path clip-path="url(#pb5972713c8)" d="M 210.196576 114.317449 
L 212.745869 121.626728 
L 206.740589 121.789092 
z
" style="stroke:#000000;"/>
    <path clip-path="url(#pb5972713c8)" d="M 217.223246 107.801882 
L 213.713111 109.968931 
L 216.194005 114.133031 
z
" style="stroke:#000000;"/>
    <path clip-path="url(#pb5972713c8)" d="M 213.713111 244.283476 
L 217.223246 246.439984 
L 216.194005 240.111926 
z
" style="stroke:#000000;"/>
    <path clip-path="url(#pb5972713c8)" d="M 204.016598 236.13242 
L 206.740589 232.455954 
L 207.710026 244.07585 
z
" style="stroke:#000000;"/>
    <path clip-path="url(#pb5972713c8)" d="M 206.740589 121.789092 
L 204.016598 118.120738 
L 207.710026 110.166309 
z
" style="stroke:#000000;"/>
    <path clip-path="url(#pb5972713c8)" d="M 213.713111 109.968931 
L 217.223246 107.801882 
L 215.772935 106.380528 
z
" style="stroke:#000000;"/>
    <path clip-path="url(#pb5972713c8)" d="M 217.223246 246.439984 
L 213.713111 244.283476 
L 215.772935 247.865694 
z
" style="stroke:#000000;"/>
    <path clip-path="url(#pb5972713c8)" d="M 215.772935 106.380528 
L 207.710026 110.166309 
L 213.713111 109.968931 
z
" style="stroke:#000000;"/>
    <path clip-path="url(#pb5972713c8)" d="M 216.194005 240.111926 
L 206.740589 232.455954 
L 212.745869 232.628583 
z
" style="stroke:#000000;"/>
    <path clip-path="url(#pb5972713c8)" d="M 204.016598 118.120738 
L 213.713111 109.968931 
L 207.710026 110.166309 
z
" style="stroke:#000000;"/>
    <path clip-path="url(#pb5972713c8)" d="M 204.016598 236.13242 
L 203.732613 224.320605 
L 206.740589 232.455954 
z
" style="stroke:#000000;"/>
    <path clip-path="url(#pb5972713c8)" d="M 203.732613 129.933399 
L 204.016598 118.120738 
L 206.740589 121.789092 
z
" style="stroke:#000000;"/>
    <path clip-path="url(#pb5972713c8)" d="M 213.713111 109.968931 
L 212.745869 121.626728 
L 216.194005 114.133031 
z
" style="stroke:#000000;"/>
    <path clip-path="url(#pb5972713c8)" d="M 212.745869 232.628583 
L 213.713111 244.283476 
L 216.194005 240.111926 
z
" style="stroke:#000000;"/>
    <path clip-path="url(#pb5972713c8)" d="M 203.732613 224.320605 
L 212.745869 232.628583 
L 206.740589 232.455954 
z
" style="stroke:#000000;"/>
    <path clip-path="url(#pb5972713c8)" d="M 210.028021 236.316619 
L 207.710026 244.07585 
L 213.713111 244.283476 
z
" style="stroke:#000000;"/>
    <path clip-path="url(#pb5972713c8)" d="M 207.710026 244.07585 
L 210.028021 236.316619 
L 204.016598 236.13242 
z
" style="stroke:#000000;"/>
    <path clip-path="url(#pb5972713c8)" d="M 206.740589 121.789092 
L 209.744675 129.795322 
L 203.732613 129.933399 
z
" style="stroke:#000000;"/>
    <path clip-path="url(#pb5972713c8)" d="M 209.744675 129.795322 
L 206.740589 121.789092 
L 212.745869 121.626728 
z
" style="stroke:#000000;"/>
    <path clip-path="url(#pb5972713c8)" d="M 213.713111 109.968931 
L 204.016598 118.120738 
L 210.028021 117.946853 
z
" style="stroke:#000000;"/>
    <path clip-path="url(#pb5972713c8)" d="M 200.800739 227.46625 
L 203.732613 224.320605 
L 204.016598 236.13242 
z
" style="stroke:#000000;"/>
    <path clip-path="url(#pb5972713c8)" d="M 203.732613 129.933399 
L 200.800739 126.796483 
L 204.016598 118.120738 
z
" style="stroke:#000000;"/>
    <path clip-path="url(#pb5972713c8)" d="M 210.028021 117.946853 
L 212.745869 121.626728 
L 213.713111 109.968931 
z
" style="stroke:#000000;"/>
    <path clip-path="url(#pb5972713c8)" d="M 212.745869 232.628583 
L 210.028021 236.316619 
L 213.713111 244.283476 
z
" style="stroke:#000000;"/>
    <path clip-path="url(#pb5972713c8)" d="M 212.745869 232.628583 
L 203.732613 224.320605 
L 209.744675 224.469 
z
" style="stroke:#000000;"/>
    <path clip-path="url(#pb5972713c8)" d="M 203.732613 224.320605 
L 200.800739 227.46625 
L 201.213115 215.606199 
z
" style="stroke:#000000;"/>
    <path clip-path="url(#pb5972713c8)" d="M 200.800739 126.796483 
L 203.732613 129.933399 
L 201.213115 138.655307 
z
" style="stroke:#000000;"/>
    <path clip-path="url(#pb5972713c8)" d="M 200.800739 126.796483 
L 210.028021 117.946853 
L 204.016598 118.120738 
z
" style="stroke:#000000;"/>
    <path clip-path="url(#pb5972713c8)" d="M 201.213115 215.606199 
L 209.744675 224.469 
L 203.732613 224.320605 
z
" style="stroke:#000000;"/>
    <path clip-path="url(#pb5972713c8)" d="M 210.028021 117.946853 
L 209.744675 129.795322 
L 212.745869 121.626728 
z
" style="stroke:#000000;"/>
    <path clip-path="url(#pb5972713c8)" d="M 209.744675 224.469 
L 210.028021 236.316619 
L 212.745869 232.628583 
z
" style="stroke:#000000;"/>
    <path clip-path="url(#pb5972713c8)" d="M 203.732613 129.933399 
L 207.230821 138.543455 
L 201.213115 138.655307 
z
" style="stroke:#000000;"/>
    <path clip-path="url(#pb5972713c8)" d="M 204.016598 236.13242 
L 206.819364 227.6246 
L 200.800739 227.46625 
z
" style="stroke:#000000;"/>
    <path clip-path="url(#pb5972713c8)" d="M 206.819364 227.6246 
L 204.016598 236.13242 
L 210.028021 236.316619 
z
" style="stroke:#000000;"/>
    <path clip-path="url(#pb5972713c8)" d="M 207.230821 138.543455 
L 203.732613 129.933399 
L 209.744675 129.795322 
z
" style="stroke:#000000;"/>
    <path clip-path="url(#pb5972713c8)" d="M 198.106219 218.177781 
L 201.213115 215.606199 
L 200.800739 227.46625 
z
" style="stroke:#000000;"/>
    <path clip-path="url(#pb5972713c8)" d="M 201.213115 138.655307 
L 198.106219 136.092977 
L 200.800739 126.796483 
z
" style="stroke:#000000;"/>
    <path clip-path="url(#pb5972713c8)" d="M 209.744675 224.469 
L 201.213115 215.606199 
L 207.230821 215.728415 
z
" style="stroke:#000000;"/>
    <path clip-path="url(#pb5972713c8)" d="M 210.028021 117.946853 
L 200.800739 126.796483 
L 206.819364 126.648506 
z
" style="stroke:#000000;"/>
    <path clip-path="url(#pb5972713c8)" d="M 201.213115 215.606199 
L 198.106219 218.177781 
L 199.216421 206.41635 
z
" style="stroke:#000000;"/>
    <path clip-path="url(#pb5972713c8)" d="M 198.106219 136.092977 
L 201.213115 138.655307 
L 199.216421 147.851102 
z
" style="stroke:#000000;"/>
    <path clip-path="url(#pb5972713c8)" d="M 199.216421 206.41635 
L 207.230821 215.728415 
L 201.213115 215.606199 
z
" style="stroke:#000000;"/>
    <path clip-path="url(#pb5972713c8)" d="M 206.819364 126.648506 
L 209.744675 129.795322 
L 210.028021 117.946853 
z
" style="stroke:#000000;"/>
    <path clip-path="url(#pb5972713c8)" d="M 209.744675 224.469 
L 206.819364 227.6246 
L 210.028021 236.316619 
z
" style="stroke:#000000;"/>
    <path clip-path="url(#pb5972713c8)" d="M 198.106219 136.092977 
L 206.819364 126.648506 
L 200.800739 126.796483 
z
" style="stroke:#000000;"/>
    <path clip-path="url(#pb5972713c8)" d="M 201.213115 138.655307 
L 205.238575 147.767075 
L 199.216421 147.851102 
z
" style="stroke:#000000;"/>
    <path clip-path="url(#pb5972713c8)" d="M 209.744675 129.795322 
L 206.819364 126.648506 
L 207.230821 138.543455 
z
" style="stroke:#000000;"/>
    <path clip-path="url(#pb5972713c8)" d="M 206.819364 227.6246 
L 209.744675 224.469 
L 207.230821 215.728415 
z
" style="stroke:#000000;"/>
    <path clip-path="url(#pb5972713c8)" d="M 205.238575 147.767075 
L 201.213115 138.655307 
L 207.230821 138.543455 
z
" style="stroke:#000000;"/>
    <path clip-path="url(#pb5972713c8)" d="M 200.800739 227.46625 
L 204.130837 218.308174 
L 198.106219 218.177781 
z
" style="stroke:#000000;"/>
    <path clip-path="url(#pb5972713c8)" d="M 195.970293 208.378484 
L 199.216421 206.41635 
L 198.106219 218.177781 
z
" style="stroke:#000000;"/>
    <path clip-path="url(#pb5972713c8)" d="M 199.216421 147.851102 
L 195.970293 145.898634 
L 198.106219 136.092977 
z
" style="stroke:#000000;"/>
    <path clip-path="url(#pb5972713c8)" d="M 199.216421 206.41635 
L 195.970293 208.378484 
L 197.770039 196.862548 
z
" style="stroke:#000000;"/>
    <path clip-path="url(#pb5972713c8)" d="M 195.970293 145.898634 
L 199.216421 147.851102 
L 197.770039 157.409211 
z
" style="stroke:#000000;"/>
    <path clip-path="url(#pb5972713c8)" d="M 204.130837 218.308174 
L 200.800739 227.46625 
L 206.819364 227.6246 
z
" style="stroke:#000000;"/>
    <path clip-path="url(#pb5972713c8)" d="M 197.770039 196.862548 
L 205.238575 206.510778 
L 199.216421 206.41635 
z
" style="stroke:#000000;"/>
    <path clip-path="url(#pb5972713c8)" d="M 207.230821 215.728415 
L 199.216421 206.41635 
L 205.238575 206.510778 
z
" style="stroke:#000000;"/>
    <path clip-path="url(#pb5972713c8)" d="M 199.216421 147.851102 
L 203.795402 157.354239 
L 197.770039 157.409211 
z
" style="stroke:#000000;"/>
    <path clip-path="url(#pb5972713c8)" d="M 206.819364 126.648506 
L 198.106219 136.092977 
L 204.130837 135.973005 
z
" style="stroke:#000000;"/>
    <path clip-path="url(#pb5972713c8)" d="M 204.130837 135.973005 
L 207.230821 138.543455 
L 206.819364 126.648506 
z
" style="stroke:#000000;"/>
    <path clip-path="url(#pb5972713c8)" d="M 207.230821 215.728415 
L 204.130837 218.308174 
L 206.819364 227.6246 
z
" style="stroke:#000000;"/>
    <path clip-path="url(#pb5972713c8)" d="M 203.795402 157.354239 
L 199.216421 147.851102 
L 205.238575 147.767075 
z
" style="stroke:#000000;"/>
    <path clip-path="url(#pb5972713c8)" d="M 197.770039 196.862548 
L 194.422724 198.187898 
L 196.894065 187.062431 
z
" style="stroke:#000000;"/>
    <path clip-path="url(#pb5972713c8)" d="M 194.422724 156.093829 
L 197.770039 157.409211 
L 196.894065 167.211936 
z
" style="stroke:#000000;"/>
    <path clip-path="url(#pb5972713c8)" d="M 196.894065 187.062431 
L 203.795402 196.927947 
L 197.770039 196.862548 
z
" style="stroke:#000000;"/>
    <path clip-path="url(#pb5972713c8)" d="M 195.970293 145.898634 
L 204.130837 135.973005 
L 198.106219 136.092977 
z
" style="stroke:#000000;"/>
    <path clip-path="url(#pb5972713c8)" d="M 194.422724 198.187898 
L 197.770039 196.862548 
L 195.970293 208.378484 
z
" style="stroke:#000000;"/>
    <path clip-path="url(#pb5972713c8)" d="M 197.770039 157.409211 
L 194.422724 156.093829 
L 195.970293 145.898634 
z
" style="stroke:#000000;"/>
    <path clip-path="url(#pb5972713c8)" d="M 207.230821 138.543455 
L 204.130837 135.973005 
L 205.238575 147.767075 
z
" style="stroke:#000000;"/>
    <path clip-path="url(#pb5972713c8)" d="M 204.130837 218.308174 
L 207.230821 215.728415 
L 205.238575 206.510778 
z
" style="stroke:#000000;"/>
    <path clip-path="url(#pb5972713c8)" d="M 197.770039 157.409211 
L 202.921366 167.186853 
L 196.894065 167.211936 
z
" style="stroke:#000000;"/>
    <path clip-path="url(#pb5972713c8)" d="M 205.238575 206.510778 
L 197.770039 196.862548 
L 203.795402 196.927947 
z
" style="stroke:#000000;"/>
    <path clip-path="url(#pb5972713c8)" d="M 193.485324 166.55216 
L 196.894065 167.211936 
L 196.600689 177.137621 
z
" style="stroke:#000000;"/>
    <path clip-path="url(#pb5972713c8)" d="M 196.894065 187.062431 
L 193.485324 187.732358 
L 196.600689 177.137621 
z
" style="stroke:#000000;"/>
    <path clip-path="url(#pb5972713c8)" d="M 196.600689 177.137621 
L 202.921366 187.097958 
L 196.894065 187.062431 
z
" style="stroke:#000000;"/>
    <path clip-path="url(#pb5972713c8)" d="M 196.894065 167.211936 
L 202.628638 177.142845 
L 196.600689 177.137621 
z
" style="stroke:#000000;"/>
    <path clip-path="url(#pb5972713c8)" d="M 198.106219 218.177781 
L 201.999634 208.479176 
L 195.970293 208.378484 
z
" style="stroke:#000000;"/>
    <path clip-path="url(#pb5972713c8)" d="M 202.921366 167.186853 
L 197.770039 157.409211 
L 203.795402 157.354239 
z
" style="stroke:#000000;"/>
    <path clip-path="url(#pb5972713c8)" d="M 201.999634 208.479176 
L 198.106219 218.177781 
L 204.130837 218.308174 
z
" style="stroke:#000000;"/>
    <path clip-path="url(#pb5972713c8)" d="M 193.485324 187.732358 
L 196.894065 187.062431 
L 194.422724 198.187898 
z
" style="stroke:#000000;"/>
    <path clip-path="url(#pb5972713c8)" d="M 196.894065 167.211936 
L 193.485324 166.55216 
L 194.422724 156.093829 
z
" style="stroke:#000000;"/>
    <path clip-path="url(#pb5972713c8)" d="M 203.795402 196.927947 
L 196.894065 187.062431 
L 202.921366 187.097958 
z
" style="stroke:#000000;"/>
    <path clip-path="url(#pb5972713c8)" d="M 202.628638 177.142845 
L 196.894065 167.211936 
L 202.921366 167.186853 
z
" style="stroke:#000000;"/>
    <path clip-path="url(#pb5972713c8)" d="M 193.171378 177.142726 
L 196.600689 177.137621 
L 193.485324 187.732358 
z
" style="stroke:#000000;"/>
    <path clip-path="url(#pb5972713c8)" d="M 196.600689 177.137621 
L 193.171378 177.142726 
L 193.485324 166.55216 
z
" style="stroke:#000000;"/>
    <path clip-path="url(#pb5972713c8)" d="M 202.921366 187.097958 
L 196.600689 177.137621 
L 202.628638 177.142845 
z
" style="stroke:#000000;"/>
    <path clip-path="url(#pb5972713c8)" d="M 204.130837 135.973005 
L 195.970293 145.898634 
L 201.999634 145.808403 
z
" style="stroke:#000000;"/>
    <path clip-path="url(#pb5972713c8)" d="M 194.422724 156.093829 
L 201.999634 145.808403 
L 195.970293 145.898634 
z
" style="stroke:#000000;"/>
    <path clip-path="url(#pb5972713c8)" d="M 201.999634 145.808403 
L 205.238575 147.767075 
L 204.130837 135.973005 
z
" style="stroke:#000000;"/>
    <path clip-path="url(#pb5972713c8)" d="M 205.238575 206.510778 
L 201.999634 208.479176 
L 204.130837 218.308174 
z
" style="stroke:#000000;"/>
    <path clip-path="url(#pb5972713c8)" d="M 205.238575 147.767075 
L 201.999634 145.808403 
L 203.795402 157.354239 
z
" style="stroke:#000000;"/>
    <path clip-path="url(#pb5972713c8)" d="M 201.999634 208.479176 
L 205.238575 206.510778 
L 203.795402 196.927947 
z
" style="stroke:#000000;"/>
    <path clip-path="url(#pb5972713c8)" d="M 195.970293 208.378484 
L 200.455471 198.257544 
L 194.422724 198.187898 
z
" style="stroke:#000000;"/>
    <path clip-path="url(#pb5972713c8)" d="M 194.316754 113.612918 
L 188.566991 101.857785 
L 197.170257 112.503779 
z
" style="stroke:#000000;"/>
    <path clip-path="url(#pb5972713c8)" d="M 197.170257 112.503779 
L 188.566991 132.381486 
L 194.316754 113.612918 
z
" style="stroke:#000000;"/>
    <path clip-path="url(#pb5972713c8)" d="M 200.455471 198.257544 
L 195.970293 208.378484 
L 201.999634 208.479176 
z
" style="stroke:#000000;"/>
    <path clip-path="url(#pb5972713c8)" d="M 193.485324 166.55216 
L 200.455471 156.034671 
L 194.422724 156.093829 
z
" style="stroke:#000000;"/>
    <path clip-path="url(#pb5972713c8)" d="M 203.795402 157.354239 
L 200.455471 156.034671 
L 202.921366 167.186853 
z
" style="stroke:#000000;"/>
    <path clip-path="url(#pb5972713c8)" d="M 200.455471 198.257544 
L 203.795402 196.927947 
L 202.921366 187.097958 
z
" style="stroke:#000000;"/>
    <path clip-path="url(#pb5972713c8)" d="M 194.422724 198.187898 
L 199.520128 187.770042 
L 193.485324 187.732358 
z
" style="stroke:#000000;"/>
    <path clip-path="url(#pb5972713c8)" d="M 201.999634 145.808403 
L 194.422724 156.093829 
L 200.455471 156.034671 
z
" style="stroke:#000000;"/>
    <path clip-path="url(#pb5972713c8)" d="M 200.455471 156.034671 
L 203.795402 157.354239 
L 201.999634 145.808403 
z
" style="stroke:#000000;"/>
    <path clip-path="url(#pb5972713c8)" d="M 203.795402 196.927947 
L 200.455471 198.257544 
L 201.999634 208.479176 
z
" style="stroke:#000000;"/>
    <path clip-path="url(#pb5972713c8)" d="M 193.171378 177.142726 
L 199.520128 166.524982 
L 193.485324 166.55216 
z
" style="stroke:#000000;"/>
    <path clip-path="url(#pb5972713c8)" d="M 199.520128 187.770042 
L 202.921366 187.097958 
L 202.628638 177.142845 
z
" style="stroke:#000000;"/>
    <path clip-path="url(#pb5972713c8)" d="M 202.921366 167.186853 
L 199.520128 166.524982 
L 202.628638 177.142845 
z
" style="stroke:#000000;"/>
    <path clip-path="url(#pb5972713c8)" d="M 193.485324 187.732358 
L 199.206871 177.147982 
L 193.171378 177.142726 
z
" style="stroke:#000000;"/>
    <path clip-path="url(#pb5972713c8)" d="M 197.170257 112.503779 
L 194.612513 101.631522 
L 203.196948 112.311702 
z
" style="stroke:#000000;"/>
    <path clip-path="url(#pb5972713c8)" d="M 194.612513 142.454959 
L 197.170257 112.503779 
L 203.196948 112.311702 
z
" style="stroke:#000000;"/>
    <path clip-path="url(#pb5972713c8)" d="M 199.520128 187.770042 
L 194.422724 198.187898 
L 200.455471 198.257544 
z
" style="stroke:#000000;"/>
    <path clip-path="url(#pb5972713c8)" d="M 200.455471 156.034671 
L 193.485324 166.55216 
L 199.520128 166.524982 
z
" style="stroke:#000000;"/>
    <path clip-path="url(#pb5972713c8)" d="M 188.566991 132.381486 
L 197.170257 112.503779 
L 188.566991 142.556054 
z
" style="stroke:#000000;"/>
    <path clip-path="url(#pb5972713c8)" d="M 199.520128 166.524982 
L 202.921366 167.186853 
L 200.455471 156.034671 
z
" style="stroke:#000000;"/>
    <path clip-path="url(#pb5972713c8)" d="M 202.921366 187.097958 
L 199.520128 187.770042 
L 200.455471 198.257544 
z
" style="stroke:#000000;"/>
    <path clip-path="url(#pb5972713c8)" d="M 200.349735 113.423756 
L 188.566991 106.945068 
L 194.316754 113.612918 
z
" style="stroke:#000000;"/>
    <path clip-path="url(#pb5972713c8)" d="M 188.566991 132.381486 
L 200.349735 113.423756 
L 194.316754 113.612918 
z
" style="stroke:#000000;"/>
    <path clip-path="url(#pb5972713c8)" d="M 199.206871 177.147982 
L 193.485324 187.732358 
L 199.520128 187.770042 
z
" style="stroke:#000000;"/>
    <path clip-path="url(#pb5972713c8)" d="M 199.520128 166.524982 
L 193.171378 177.142726 
L 199.206871 177.147982 
z
" style="stroke:#000000;"/>
    <path clip-path="url(#pb5972713c8)" d="M 199.206871 177.147982 
L 202.628638 177.142845 
L 199.520128 166.524982 
z
" style="stroke:#000000;"/>
    <path clip-path="url(#pb5972713c8)" d="M 202.628638 177.142845 
L 199.206871 177.147982 
L 199.520128 187.770042 
z
" style="stroke:#000000;"/>
    <path clip-path="url(#pb5972713c8)" d="M 188.566991 101.857785 
L 194.316754 113.612918 
L 188.566991 106.945068 
z
" style="stroke:#000000;"/>
    <path clip-path="url(#pb5972713c8)" d="M 194.612513 101.631522 
L 197.170257 112.503779 
L 188.566991 101.857785 
z
" style="stroke:#000000;"/>
    <path clip-path="url(#pb5972713c8)" d="M 197.170257 112.503779 
L 194.612513 142.454959 
L 188.566991 142.556054 
z
" style="stroke:#000000;"/>
    <path clip-path="url(#pb5972713c8)" d="M 194.612513 101.631522 
L 200.349735 113.423756 
L 203.196948 112.311702 
z
" style="stroke:#000000;"/>
    <path clip-path="url(#pb5972713c8)" d="M 194.612513 132.2491 
L 203.196948 112.311702 
L 200.349735 113.423756 
z
" style="stroke:#000000;"/>
    <path clip-path="url(#pb5972713c8)" d="M 188.566991 106.945068 
L 200.349735 113.423756 
L 194.612513 106.734452 
z
" style="stroke:#000000;"/>
    <path clip-path="url(#pb5972713c8)" d="M 200.349735 113.423756 
L 188.566991 132.381486 
L 194.612513 132.2491 
z
" style="stroke:#000000;"/>
    <path clip-path="url(#pb5972713c8)" d="M 194.612513 132.2491 
L 194.612513 142.454959 
L 203.196948 112.311702 
z
" style="stroke:#000000;"/>
    <path clip-path="url(#pb5972713c8)" d="M 194.612513 101.631522 
L 194.612513 106.734452 
L 200.349735 113.423756 
z
" style="stroke:#000000;"/>
    <path clip-path="url(#pb5972713c8)" d="M 182.759502 112.992328 
L 188.566991 101.857785 
L 188.566991 106.945068 
z
" style="stroke:#000000;"/>
    <path clip-path="url(#pb5972713c8)" d="M 179.833838 111.553808 
L 188.566991 132.381486 
L 188.566991 142.556054 
z
" style="stroke:#000000;"/>
    <path clip-path="url(#pb5972713c8)" d="M 194.612513 106.734452 
L 182.759502 112.992328 
L 188.566991 106.945068 
z
" style="stroke:#000000;"/>
    <path clip-path="url(#pb5972713c8)" d="M 182.759502 112.992328 
L 194.612513 132.2491 
L 188.566991 132.381486 
z
" style="stroke:#000000;"/>
    <path clip-path="url(#pb5972713c8)" d="M 188.566991 132.381486 
L 179.833838 111.553808 
L 182.759502 112.992328 
z
" style="stroke:#000000;"/>
    <path clip-path="url(#pb5972713c8)" d="M 188.566991 101.857785 
L 182.759502 112.992328 
L 179.833838 111.553808 
z
" style="stroke:#000000;"/>
    <path clip-path="url(#pb5972713c8)" d="M 188.566991 101.857785 
L 185.898075 111.355878 
L 194.612513 101.631522 
z
" style="stroke:#000000;"/>
    <path clip-path="url(#pb5972713c8)" d="M 185.898075 111.355878 
L 188.566991 142.556054 
L 194.612513 142.454959 
z
" style="stroke:#000000;"/>
    <path clip-path="url(#pb5972713c8)" d="M 194.612513 101.631522 
L 188.817515 112.799343 
L 194.612513 106.734452 
z
" style="stroke:#000000;"/>
    <path clip-path="url(#pb5972713c8)" d="M 180.420148 177.161712 
L 183.92566 177.156493 
L 183.606482 187.837881 
z
" style="stroke:#000000;"/>
    <path clip-path="url(#pb5972713c8)" d="M 183.92566 177.156493 
L 180.420148 177.161712 
L 183.606482 166.476055 
z
" style="stroke:#000000;"/>
    <path clip-path="url(#pb5972713c8)" d="M 183.606482 166.476055 
L 189.981179 177.161833 
L 183.92566 177.156493 
z
" style="stroke:#000000;"/>
    <path clip-path="url(#pb5972713c8)" d="M 183.92566 177.156493 
L 189.662684 187.876215 
L 183.606482 187.837881 
z
" style="stroke:#000000;"/>
    <path clip-path="url(#pb5972713c8)" d="M 182.759502 112.992328 
L 194.612513 106.734452 
L 188.817515 112.799343 
z
" style="stroke:#000000;"/>
    <path clip-path="url(#pb5972713c8)" d="M 194.612513 132.2491 
L 182.759502 112.992328 
L 188.817515 112.799343 
z
" style="stroke:#000000;"/>
    <path clip-path="url(#pb5972713c8)" d="M 180.118296 187.232373 
L 183.606482 187.837881 
L 182.651374 198.420663 
z
" style="stroke:#000000;"/>
    <path clip-path="url(#pb5972713c8)" d="M 183.606482 166.476055 
L 180.118296 167.09195 
L 182.651374 155.896117 
z
" style="stroke:#000000;"/>
    <path clip-path="url(#pb5972713c8)" d="M 182.651374 155.896117 
L 189.662684 166.448408 
L 183.606482 166.476055 
z
" style="stroke:#000000;"/>
    <path clip-path="url(#pb5972713c8)" d="M 194.612513 132.2491 
L 185.898075 111.355878 
L 194.612513 142.454959 
z
" style="stroke:#000000;"/>
    <path clip-path="url(#pb5972713c8)" d="M 183.606482 187.837881 
L 188.709618 198.491742 
L 182.651374 198.420663 
z
" style="stroke:#000000;"/>
    <path clip-path="url(#pb5972713c8)" d="M 185.898075 111.355878 
L 188.566991 101.857785 
L 179.833838 111.553808 
z
" style="stroke:#000000;"/>
    <path clip-path="url(#pb5972713c8)" d="M 188.566991 142.556054 
L 185.898075 111.355878 
L 179.833838 111.553808 
z
" style="stroke:#000000;"/>
    <path clip-path="url(#pb5972713c8)" d="M 189.662684 187.876215 
L 183.92566 177.156493 
L 189.981179 177.161833 
z
" style="stroke:#000000;"/>
    <path clip-path="url(#pb5972713c8)" d="M 180.118296 167.09195 
L 183.606482 166.476055 
L 180.420148 177.161712 
z
" style="stroke:#000000;"/>
    <path clip-path="url(#pb5972713c8)" d="M 183.606482 187.837881 
L 180.118296 187.232373 
L 180.420148 177.161712 
z
" style="stroke:#000000;"/>
    <path clip-path="url(#pb5972713c8)" d="M 189.981179 177.161833 
L 183.606482 166.476055 
L 189.662684 166.448408 
z
" style="stroke:#000000;"/>
    <path clip-path="url(#pb5972713c8)" d="M 179.215158 197.209093 
L 182.651374 198.420663 
L 181.06771 208.805675 
z
" style="stroke:#000000;"/>
    <path clip-path="url(#pb5972713c8)" d="M 182.651374 155.896117 
L 179.215158 157.11792 
L 181.06771 145.51582 
z
" style="stroke:#000000;"/>
    <path clip-path="url(#pb5972713c8)" d="M 181.06771 145.51582 
L 188.709618 155.835742 
L 182.651374 155.896117 
z
" style="stroke:#000000;"/>
    <path clip-path="url(#pb5972713c8)" d="M 188.709618 198.491742 
L 183.606482 187.837881 
L 189.662684 187.876215 
z
" style="stroke:#000000;"/>
    <path clip-path="url(#pb5972713c8)" d="M 182.651374 198.420663 
L 179.215158 197.209093 
L 180.118296 187.232373 
z
" style="stroke:#000000;"/>
    <path clip-path="url(#pb5972713c8)" d="M 179.215158 157.11792 
L 182.651374 155.896117 
L 180.118296 167.09195 
z
" style="stroke:#000000;"/>
    <path clip-path="url(#pb5972713c8)" d="M 189.662684 166.448408 
L 182.651374 155.896117 
L 188.709618 155.835742 
z
" style="stroke:#000000;"/>
    <path clip-path="url(#pb5972713c8)" d="M 182.651374 198.420663 
L 187.129328 208.908999 
L 181.06771 208.805675 
z
" style="stroke:#000000;"/>
    <path clip-path="url(#pb5972713c8)" d="M 188.817515 112.799343 
L 194.612513 101.631522 
L 185.898075 111.355878 
z
" style="stroke:#000000;"/>
    <path clip-path="url(#pb5972713c8)" d="M 185.898075 111.355878 
L 194.612513 132.2491 
L 188.817515 112.799343 
z
" style="stroke:#000000;"/>
    <path clip-path="url(#pb5972713c8)" d="M 187.129328 208.908999 
L 182.651374 198.420663 
L 188.709618 198.491742 
z
" style="stroke:#000000;"/>
    <path clip-path="url(#pb5972713c8)" d="M 181.06771 208.805675 
L 177.717827 206.997565 
L 179.215158 197.209093 
z
" style="stroke:#000000;"/>
    <path clip-path="url(#pb5972713c8)" d="M 177.717827 147.333906 
L 181.06771 145.51582 
L 179.215158 157.11792 
z
" style="stroke:#000000;"/>
    <path clip-path="url(#pb5972713c8)" d="M 177.717827 206.997565 
L 181.06771 208.805675 
L 178.867815 218.894596 
z
" style="stroke:#000000;"/>
    <path clip-path="url(#pb5972713c8)" d="M 181.06771 145.51582 
L 177.717827 147.333906 
L 178.867815 135.433451 
z
" style="stroke:#000000;"/>
    <path clip-path="url(#pb5972713c8)" d="M 188.709618 155.835742 
L 181.06771 145.51582 
L 187.129328 145.42323 
z
" style="stroke:#000000;"/>
    <path clip-path="url(#pb5972713c8)" d="M 178.867815 135.433451 
L 187.129328 145.42323 
L 181.06771 145.51582 
z
" style="stroke:#000000;"/>
    <path clip-path="url(#pb5972713c8)" d="M 180.118296 187.232373 
L 186.483142 177.167085 
L 180.420148 177.161712 
z
" style="stroke:#000000;"/>
    <path clip-path="url(#pb5972713c8)" d="M 186.483142 177.167085 
L 189.981179 177.161833 
L 189.662684 166.448408 
z
" style="stroke:#000000;"/>
    <path clip-path="url(#pb5972713c8)" d="M 189.981179 177.161833 
L 186.483142 177.167085 
L 189.662684 187.876215 
z
" style="stroke:#000000;"/>
    <path clip-path="url(#pb5972713c8)" d="M 180.420148 177.161712 
L 186.18193 167.066128 
L 180.118296 167.09195 
z
" style="stroke:#000000;"/>
    <path clip-path="url(#pb5972713c8)" d="M 179.215158 197.209093 
L 186.18193 187.268946 
L 180.118296 187.232373 
z
" style="stroke:#000000;"/>
    <path clip-path="url(#pb5972713c8)" d="M 186.18193 167.066128 
L 189.662684 166.448408 
L 188.709618 155.835742 
z
" style="stroke:#000000;"/>
    <path clip-path="url(#pb5972713c8)" d="M 189.662684 187.876215 
L 186.18193 187.268946 
L 188.709618 198.491742 
z
" style="stroke:#000000;"/>
    <path clip-path="url(#pb5972713c8)" d="M 181.06771 208.805675 
L 184.934098 219.029405 
L 178.867815 218.894596 
z
" style="stroke:#000000;"/>
    <path clip-path="url(#pb5972713c8)" d="M 180.118296 167.09195 
L 185.280706 157.061154 
L 179.215158 157.11792 
z
" style="stroke:#000000;"/>
    <path clip-path="url(#pb5972713c8)" d="M 184.934098 219.029405 
L 181.06771 208.805675 
L 187.129328 208.908999 
z
" style="stroke:#000000;"/>
    <path clip-path="url(#pb5972713c8)" d="M 186.18193 167.066128 
L 180.420148 177.161712 
L 186.483142 177.167085 
z
" style="stroke:#000000;"/>
    <path clip-path="url(#pb5972713c8)" d="M 186.483142 177.167085 
L 180.118296 187.232373 
L 186.18193 187.268946 
z
" style="stroke:#000000;"/>
    <path clip-path="url(#pb5972713c8)" d="M 186.18193 187.268946 
L 189.662684 187.876215 
L 186.483142 177.167085 
z
" style="stroke:#000000;"/>
    <path clip-path="url(#pb5972713c8)" d="M 189.662684 166.448408 
L 186.18193 167.066128 
L 186.483142 177.167085 
z
" style="stroke:#000000;"/>
    <path clip-path="url(#pb5972713c8)" d="M 177.717827 206.997565 
L 185.280706 197.276627 
L 179.215158 197.209093 
z
" style="stroke:#000000;"/>
    <path clip-path="url(#pb5972713c8)" d="M 185.280706 157.061154 
L 180.118296 167.09195 
L 186.18193 167.066128 
z
" style="stroke:#000000;"/>
    <path clip-path="url(#pb5972713c8)" d="M 178.867815 218.894596 
L 175.63822 216.50422 
L 177.717827 206.997565 
z
" style="stroke:#000000;"/>
    <path clip-path="url(#pb5972713c8)" d="M 175.63822 137.833444 
L 178.867815 135.433451 
L 177.717827 147.333906 
z
" style="stroke:#000000;"/>
    <path clip-path="url(#pb5972713c8)" d="M 185.280706 157.061154 
L 188.709618 155.835742 
L 187.129328 145.42323 
z
" style="stroke:#000000;"/>
    <path clip-path="url(#pb5972713c8)" d="M 188.709618 198.491742 
L 185.280706 197.276627 
L 187.129328 208.908999 
z
" style="stroke:#000000;"/>
    <path clip-path="url(#pb5972713c8)" d="M 187.129328 145.42323 
L 178.867815 135.433451 
L 184.934098 135.309416 
z
" style="stroke:#000000;"/>
    <path clip-path="url(#pb5972713c8)" d="M 186.18193 187.268946 
L 179.215158 197.209093 
L 185.280706 197.276627 
z
" style="stroke:#000000;"/>
    <path clip-path="url(#pb5972713c8)" d="M 188.709618 155.835742 
L 185.280706 157.061154 
L 186.18193 167.066128 
z
" style="stroke:#000000;"/>
    <path clip-path="url(#pb5972713c8)" d="M 185.280706 197.276627 
L 188.709618 198.491742 
L 186.18193 187.268946 
z
" style="stroke:#000000;"/>
    <path clip-path="url(#pb5972713c8)" d="M 179.215158 157.11792 
L 183.786538 147.246693 
L 177.717827 147.333906 
z
" style="stroke:#000000;"/>
    <path clip-path="url(#pb5972713c8)" d="M 175.63822 216.50422 
L 178.867815 218.894596 
L 176.068923 228.590602 
z
" style="stroke:#000000;"/>
    <path clip-path="url(#pb5972713c8)" d="M 178.867815 135.433451 
L 175.63822 137.833444 
L 176.068923 125.745779 
z
" style="stroke:#000000;"/>
    <path clip-path="url(#pb5972713c8)" d="M 176.068923 125.745779 
L 184.934098 135.309416 
L 178.867815 135.433451 
z
" style="stroke:#000000;"/>
    <path clip-path="url(#pb5972713c8)" d="M 183.786538 147.246693 
L 179.215158 157.11792 
L 185.280706 157.061154 
z
" style="stroke:#000000;"/>
    <path clip-path="url(#pb5972713c8)" d="M 175.63822 216.50422 
L 183.786538 207.095574 
L 177.717827 206.997565 
z
" style="stroke:#000000;"/>
    <path clip-path="url(#pb5972713c8)" d="M 185.280706 197.276627 
L 177.717827 206.997565 
L 183.786538 207.095574 
z
" style="stroke:#000000;"/>
    <path clip-path="url(#pb5972713c8)" d="M 178.867815 218.894596 
L 182.141103 228.755879 
L 176.068923 228.590602 
z
" style="stroke:#000000;"/>
    <path clip-path="url(#pb5972713c8)" d="M 187.129328 145.42323 
L 183.786538 147.246693 
L 185.280706 157.061154 
z
" style="stroke:#000000;"/>
    <path clip-path="url(#pb5972713c8)" d="M 183.786538 207.095574 
L 187.129328 208.908999 
L 185.280706 197.276627 
z
" style="stroke:#000000;"/>
    <path clip-path="url(#pb5972713c8)" d="M 183.786538 147.246693 
L 187.129328 145.42323 
L 184.934098 135.309416 
z
" style="stroke:#000000;"/>
    <path clip-path="url(#pb5972713c8)" d="M 187.129328 208.908999 
L 183.786538 207.095574 
L 184.934098 219.029405 
z
" style="stroke:#000000;"/>
    <path clip-path="url(#pb5972713c8)" d="M 182.141103 228.755879 
L 178.867815 218.894596 
L 184.934098 219.029405 
z
" style="stroke:#000000;"/>
    <path clip-path="url(#pb5972713c8)" d="M 177.717827 147.333906 
L 181.711305 137.716528 
L 175.63822 137.833444 
z
" style="stroke:#000000;"/>
    <path clip-path="url(#pb5972713c8)" d="M 176.068923 228.590602 
L 172.993062 225.636976 
L 175.63822 216.50422 
z
" style="stroke:#000000;"/>
    <path clip-path="url(#pb5972713c8)" d="M 172.993062 128.708565 
L 176.068923 125.745779 
L 175.63822 137.833444 
z
" style="stroke:#000000;"/>
    <path clip-path="url(#pb5972713c8)" d="M 181.711305 137.716528 
L 177.717827 147.333906 
L 183.786538 147.246693 
z
" style="stroke:#000000;"/>
    <path clip-path="url(#pb5972713c8)" d="M 184.934098 135.309416 
L 176.068923 125.745779 
L 182.141103 125.591329 
z
" style="stroke:#000000;"/>
    <path clip-path="url(#pb5972713c8)" d="M 172.693429 237.798248 
L 172.993062 225.636976 
L 176.068923 228.590602 
z
" style="stroke:#000000;"/>
    <path clip-path="url(#pb5972713c8)" d="M 172.993062 128.708565 
L 172.693429 116.548185 
L 176.068923 125.745779 
z
" style="stroke:#000000;"/>
    <path clip-path="url(#pb5972713c8)" d="M 183.786538 207.095574 
L 175.63822 216.50422 
L 181.711305 216.631969 
z
" style="stroke:#000000;"/>
    <path clip-path="url(#pb5972713c8)" d="M 184.934098 135.309416 
L 181.711305 137.716528 
L 183.786538 147.246693 
z
" style="stroke:#000000;"/>
    <path clip-path="url(#pb5972713c8)" d="M 181.711305 216.631969 
L 184.934098 219.029405 
L 183.786538 207.095574 
z
" style="stroke:#000000;"/>
    <path clip-path="url(#pb5972713c8)" d="M 172.693429 116.548185 
L 182.141103 125.591329 
L 176.068923 125.745779 
z
" style="stroke:#000000;"/>
    <path clip-path="url(#pb5972713c8)" d="M 172.993062 225.636976 
L 181.711305 216.631969 
L 175.63822 216.50422 
z
" style="stroke:#000000;"/>
    <path clip-path="url(#pb5972713c8)" d="M 181.711305 137.716528 
L 184.934098 135.309416 
L 182.141103 125.591329 
z
" style="stroke:#000000;"/>
    <path clip-path="url(#pb5972713c8)" d="M 184.934098 219.029405 
L 181.711305 216.631969 
L 182.141103 228.755879 
z
" style="stroke:#000000;"/>
    <path clip-path="url(#pb5972713c8)" d="M 175.63822 137.833444 
L 179.071676 128.562942 
L 172.993062 128.708565 
z
" style="stroke:#000000;"/>
    <path clip-path="url(#pb5972713c8)" d="M 176.068923 228.590602 
L 178.772667 237.992711 
L 172.693429 237.798248 
z
" style="stroke:#000000;"/>
    <path clip-path="url(#pb5972713c8)" d="M 178.772667 237.992711 
L 176.068923 228.590602 
L 182.141103 228.755879 
z
" style="stroke:#000000;"/>
    <path clip-path="url(#pb5972713c8)" d="M 179.071676 128.562942 
L 175.63822 137.833444 
L 181.711305 137.716528 
z
" style="stroke:#000000;"/>
    <path clip-path="url(#pb5972713c8)" d="M 172.693429 237.798248 
L 169.803907 234.305767 
L 172.993062 225.636976 
z
" style="stroke:#000000;"/>
    <path clip-path="url(#pb5972713c8)" d="M 169.803907 120.049271 
L 172.693429 116.548185 
L 172.993062 128.708565 
z
" style="stroke:#000000;"/>
    <path clip-path="url(#pb5972713c8)" d="M 181.711305 216.631969 
L 172.993062 225.636976 
L 179.071676 225.793482 
z
" style="stroke:#000000;"/>
    <path clip-path="url(#pb5972713c8)" d="M 182.141103 125.591329 
L 172.693429 116.548185 
L 178.772667 116.364611 
z
" style="stroke:#000000;"/>
    <path clip-path="url(#pb5972713c8)" d="M 182.141103 125.591329 
L 179.071676 128.562942 
L 181.711305 137.716528 
z
" style="stroke:#000000;"/>
    <path clip-path="url(#pb5972713c8)" d="M 179.071676 225.793482 
L 182.141103 228.755879 
L 181.711305 216.631969 
z
" style="stroke:#000000;"/>
    <path clip-path="url(#pb5972713c8)" d="M 169.803907 234.305767 
L 179.071676 225.793482 
L 172.993062 225.636976 
z
" style="stroke:#000000;"/>
    <path clip-path="url(#pb5972713c8)" d="M 168.768768 246.425416 
L 169.803907 234.305767 
L 172.693429 237.798248 
z
" style="stroke:#000000;"/>
    <path clip-path="url(#pb5972713c8)" d="M 169.803907 120.049271 
L 168.768768 107.932704 
L 172.693429 116.548185 
z
" style="stroke:#000000;"/>
    <path clip-path="url(#pb5972713c8)" d="M 178.772667 116.364611 
L 179.071676 128.562942 
L 182.141103 125.591329 
z
" style="stroke:#000000;"/>
    <path clip-path="url(#pb5972713c8)" d="M 179.071676 225.793482 
L 178.772667 237.992711 
L 182.141103 228.755879 
z
" style="stroke:#000000;"/>
    <path clip-path="url(#pb5972713c8)" d="M 168.768768 107.932704 
L 178.772667 116.364611 
L 172.693429 116.548185 
z
" style="stroke:#000000;"/>
    <path clip-path="url(#pb5972713c8)" d="M 172.993062 128.708565 
L 175.889139 119.876185 
L 169.803907 120.049271 
z
" style="stroke:#000000;"/>
    <path clip-path="url(#pb5972713c8)" d="M 175.889139 119.876185 
L 172.993062 128.708565 
L 179.071676 128.562942 
z
" style="stroke:#000000;"/>
    <path clip-path="url(#pb5972713c8)" d="M 174.856136 246.647521 
L 172.693429 237.798248 
L 178.772667 237.992711 
z
" style="stroke:#000000;"/>
    <path clip-path="url(#pb5972713c8)" d="M 172.693429 237.798248 
L 174.856136 246.647521 
L 168.768768 246.425416 
z
" style="stroke:#000000;"/>
    <path clip-path="url(#pb5972713c8)" d="M 179.071676 225.793482 
L 169.803907 234.305767 
L 175.889139 234.489795 
z
" style="stroke:#000000;"/>
    <path clip-path="url(#pb5972713c8)" d="M 168.768768 246.425416 
L 166.097221 242.422384 
L 169.803907 234.305767 
z
" style="stroke:#000000;"/>
    <path clip-path="url(#pb5972713c8)" d="M 166.097221 111.943692 
L 168.768768 107.932704 
L 169.803907 120.049271 
z
" style="stroke:#000000;"/>
    <path clip-path="url(#pb5972713c8)" d="M 178.772667 116.364611 
L 175.889139 119.876185 
L 179.071676 128.562942 
z
" style="stroke:#000000;"/>
    <path clip-path="url(#pb5972713c8)" d="M 175.889139 234.489795 
L 178.772667 237.992711 
L 179.071676 225.793482 
z
" style="stroke:#000000;"/>
    <path clip-path="url(#pb5972713c8)" d="M 178.772667 116.364611 
L 168.768768 107.932704 
L 174.856136 107.721561 
z
" style="stroke:#000000;"/>
    <path clip-path="url(#pb5972713c8)" d="M 166.097221 242.422384 
L 175.889139 234.489795 
L 169.803907 234.305767 
z
" style="stroke:#000000;"/>
    <path clip-path="url(#pb5972713c8)" d="M 166.552331 103.96852 
L 174.856136 107.721561 
L 168.768768 107.932704 
z
" style="stroke:#000000;"/>
    <path clip-path="url(#pb5972713c8)" d="M 164.981857 249.113187 
L 168.768768 246.425416 
L 166.552331 250.3962 
z
" style="stroke:#000000;"/>
    <path clip-path="url(#pb5972713c8)" d="M 168.768768 107.932704 
L 164.981857 105.25621 
L 166.552331 103.96852 
z
" style="stroke:#000000;"/>
    <path clip-path="url(#pb5972713c8)" d="M 174.856136 107.721561 
L 175.889139 119.876185 
L 178.772667 116.364611 
z
" style="stroke:#000000;"/>
    <path clip-path="url(#pb5972713c8)" d="M 175.889139 234.489795 
L 174.856136 246.647521 
L 178.772667 237.992711 
z
" style="stroke:#000000;"/>
    <path clip-path="url(#pb5972713c8)" d="M 168.768768 246.425416 
L 164.981857 249.113187 
L 166.097221 242.422384 
z
" style="stroke:#000000;"/>
    <path clip-path="url(#pb5972713c8)" d="M 164.981857 105.25621 
L 168.768768 107.932704 
L 166.097221 111.943692 
z
" style="stroke:#000000;"/>
    <path clip-path="url(#pb5972713c8)" d="M 172.190076 111.744645 
L 169.803907 120.049271 
L 175.889139 119.876185 
z
" style="stroke:#000000;"/>
    <path clip-path="url(#pb5972713c8)" d="M 169.803907 120.049271 
L 172.190076 111.744645 
L 166.097221 111.943692 
z
" style="stroke:#000000;"/>
    <path clip-path="url(#pb5972713c8)" d="M 168.768768 246.425416 
L 172.644255 250.63117 
L 166.552331 250.3962 
z
" style="stroke:#000000;"/>
    <path clip-path="url(#pb5972713c8)" d="M 172.644255 250.63117 
L 168.768768 246.425416 
L 174.856136 246.647521 
z
" style="stroke:#000000;"/>
    <path clip-path="url(#pb5972713c8)" d="M 175.889139 234.489795 
L 166.097221 242.422384 
L 172.190076 242.632443 
z
" style="stroke:#000000;"/>
    <path clip-path="url(#pb5972713c8)" d="M 174.856136 107.721561 
L 166.552331 103.96852 
L 172.644255 103.744554 
z
" style="stroke:#000000;"/>
    <path clip-path="url(#pb5972713c8)" d="M 166.097221 242.422384 
L 164.981857 249.113187 
L 163.327897 247.362933 
z
" style="stroke:#000000;"/>
    <path clip-path="url(#pb5972713c8)" d="M 164.981857 105.25621 
L 166.097221 111.943692 
L 163.327897 107.011389 
z
" style="stroke:#000000;"/>
    <path clip-path="url(#pb5972713c8)" d="M 172.644255 250.63117 
L 164.981857 249.113187 
L 166.552331 250.3962 
z
" style="stroke:#000000;"/>
    <path clip-path="url(#pb5972713c8)" d="M 174.856136 107.721561 
L 172.190076 111.744645 
L 175.889139 119.876185 
z
" style="stroke:#000000;"/>
    <path clip-path="url(#pb5972713c8)" d="M 172.190076 242.632443 
L 174.856136 246.647521 
L 175.889139 234.489795 
z
" style="stroke:#000000;"/>
    <path clip-path="url(#pb5972713c8)" d="M 171.076992 105.035986 
L 166.552331 103.96852 
L 164.981857 105.25621 
z
" style="stroke:#000000;"/>
    <path clip-path="url(#pb5972713c8)" d="M 172.190076 111.744645 
L 163.327897 107.011389 
L 166.097221 111.943692 
z
" style="stroke:#000000;"/>
    <path clip-path="url(#pb5972713c8)" d="M 166.552331 103.96852 
L 171.076992 105.035986 
L 172.644255 103.744554 
z
" style="stroke:#000000;"/>
    <path clip-path="url(#pb5972713c8)" d="M 171.076992 249.344443 
L 163.327897 247.362933 
L 164.981857 249.113187 
z
" style="stroke:#000000;"/>
    <path clip-path="url(#pb5972713c8)" d="M 171.076992 105.035986 
L 174.856136 107.721561 
L 172.644255 103.744554 
z
" style="stroke:#000000;"/>
    <path clip-path="url(#pb5972713c8)" d="M 174.856136 246.647521 
L 171.076992 249.344443 
L 172.644255 250.63117 
z
" style="stroke:#000000;"/>
    <path clip-path="url(#pb5972713c8)" d="M 164.981857 249.113187 
L 172.644255 250.63117 
L 171.076992 249.344443 
z
" style="stroke:#000000;"/>
    <path clip-path="url(#pb5972713c8)" d="M 169.4264 247.589014 
L 166.097221 242.422384 
L 163.327897 247.362933 
z
" style="stroke:#000000;"/>
    <path clip-path="url(#pb5972713c8)" d="M 174.856136 107.721561 
L 171.076992 105.035986 
L 172.190076 111.744645 
z
" style="stroke:#000000;"/>
    <path clip-path="url(#pb5972713c8)" d="M 171.076992 249.344443 
L 174.856136 246.647521 
L 172.190076 242.632443 
z
" style="stroke:#000000;"/>
    <path clip-path="url(#pb5972713c8)" d="M 166.097221 242.422384 
L 169.4264 247.589014 
L 172.190076 242.632443 
z
" style="stroke:#000000;"/>
    <path clip-path="url(#pb5972713c8)" d="M 169.4264 106.796372 
L 164.981857 105.25621 
L 163.327897 107.011389 
z
" style="stroke:#000000;"/>
    <path clip-path="url(#pb5972713c8)" d="M 164.981857 105.25621 
L 169.4264 106.796372 
L 171.076992 105.035986 
z
" style="stroke:#000000;"/>
    <path clip-path="url(#pb5972713c8)" d="M 163.327897 107.011389 
L 172.190076 111.744645 
L 169.4264 106.796372 
z
" style="stroke:#000000;"/>
    <path clip-path="url(#pb5972713c8)" d="M 163.327897 247.362933 
L 171.076992 249.344443 
L 169.4264 247.589014 
z
" style="stroke:#000000;"/>
    <path clip-path="url(#pb5972713c8)" d="M 172.190076 111.744645 
L 171.076992 105.035986 
L 169.4264 106.796372 
z
" style="stroke:#000000;"/>
    <path clip-path="url(#pb5972713c8)" d="M 171.076992 249.344443 
L 172.190076 242.632443 
L 169.4264 247.589014 
z
" style="stroke:#000000;"/>
   </g>
  </g>
 </g>
 <defs>
  <clipPath id="pb5972713c8">
   <rect height="271.8" width="279" x="45" y="43.2"/>
  </clipPath>
 </defs>
</svg>
