<?xml version="1.0" encoding="utf-8" standalone="no"?>
<!DOCTYPE svg PUBLIC "-//W3C//DTD SVG 1.1//EN"
  "http://www.w3.org/Graphics/SVG/1.1/DTD/svg11.dtd">
<!-- Created with matplotlib (https://matplotlib.org/) -->
<svg height="360pt" version="1.1" viewBox="0 0 360 360" width="360pt" xmlns="http://www.w3.org/2000/svg" xmlns:xlink="http://www.w3.org/1999/xlink">
 <defs>
  <style type="text/css">
*{stroke-linecap:butt;stroke-linejoin:round;}
  </style>
 </defs>
 <g id="figure_1">
  <g id="patch_1">
   <path d="M 0 360 
L 360 360 
L 360 0 
L 0 0 
z
" style="fill:#ffffff;"/>
  </g>
  <g id="patch_2">
   <path d="M 45 315 
L 324 315 
L 324 43.2 
L 45 43.2 
z
" style="fill:#ffffff;"/>
  </g>
  <g id="axes_1">
   <g id="Poly3DCollection_1">
    <path clip-path="url(#p3960df1856)" d="M 158.673912 107.765202 
L 160.263101 114.128716 
L 156.325404 109.592763 
z
" style="stroke:#000000;"/>
    <path clip-path="url(#p3960df1856)" d="M 160.263101 240.11648 
L 158.673912 246.478502 
L 156.325404 244.648737 
z
" style="stroke:#000000;"/>
    <path clip-path="url(#p3960df1856)" d="M 158.673912 107.765202 
L 164.087541 110.038676 
L 160.263101 114.128716 
z
" style="stroke:#000000;"/>
    <path clip-path="url(#p3960df1856)" d="M 164.087541 244.210109 
L 158.673912 246.478502 
L 160.263101 240.11648 
z
" style="stroke:#000000;"/>
    <path clip-path="url(#p3960df1856)" d="M 164.087541 110.038676 
L 158.673912 107.765202 
L 160.912817 106.388991 
z
" style="stroke:#000000;"/>
    <path clip-path="url(#p3960df1856)" d="M 158.673912 246.478502 
L 164.087541 244.210109 
L 160.912817 247.856815 
z
" style="stroke:#000000;"/>
    <path clip-path="url(#p3960df1856)" d="M 153.307342 109.290167 
L 158.673912 107.765202 
L 156.325404 109.592763 
z
" style="stroke:#000000;"/>
    <path clip-path="url(#p3960df1856)" d="M 153.307342 244.966903 
L 160.263101 240.11648 
L 156.325404 244.648737 
z
" style="stroke:#000000;"/>
    <path clip-path="url(#p3960df1856)" d="M 164.087541 110.038676 
L 165.576247 121.70784 
L 160.263101 114.128716 
z
" style="stroke:#000000;"/>
    <path clip-path="url(#p3960df1856)" d="M 165.576247 232.542343 
L 164.087541 244.210109 
L 160.263101 240.11648 
z
" style="stroke:#000000;"/>
    <path clip-path="url(#p3960df1856)" d="M 155.664678 246.805292 
L 156.325404 244.648737 
L 158.673912 246.478502 
z
" style="stroke:#000000;"/>
    <path clip-path="url(#p3960df1856)" d="M 157.259849 113.846659 
L 156.325404 109.592763 
L 160.263101 114.128716 
z
" style="stroke:#000000;"/>
    <path clip-path="url(#p3960df1856)" d="M 155.664678 107.454002 
L 160.912817 106.388991 
L 158.673912 107.765202 
z
" style="stroke:#000000;"/>
    <path clip-path="url(#p3960df1856)" d="M 157.912012 248.190151 
L 158.673912 246.478502 
L 160.912817 247.856815 
z
" style="stroke:#000000;"/>
    <path clip-path="url(#p3960df1856)" d="M 169.752308 118.104807 
L 165.576247 121.70784 
L 164.087541 110.038676 
z
" style="stroke:#000000;"/>
    <path clip-path="url(#p3960df1856)" d="M 165.576247 232.542343 
L 169.752308 236.149295 
L 164.087541 244.210109 
z
" style="stroke:#000000;"/>
    <path clip-path="url(#p3960df1856)" d="M 164.087541 244.210109 
L 157.912012 248.190151 
L 160.912817 247.856815 
z
" style="stroke:#000000;"/>
    <path clip-path="url(#p3960df1856)" d="M 165.576247 121.70784 
L 157.259849 113.846659 
L 160.263101 114.128716 
z
" style="stroke:#000000;"/>
    <path clip-path="url(#p3960df1856)" d="M 156.325404 244.648737 
L 155.664678 246.805292 
L 153.307342 244.966903 
z
" style="stroke:#000000;"/>
    <path clip-path="url(#p3960df1856)" d="M 169.752308 118.104807 
L 170.187083 129.92661 
L 165.576247 121.70784 
z
" style="stroke:#000000;"/>
    <path clip-path="url(#p3960df1856)" d="M 170.187083 224.327901 
L 169.752308 236.149295 
L 165.576247 232.542343 
z
" style="stroke:#000000;"/>
    <path clip-path="url(#p3960df1856)" d="M 160.912817 106.388991 
L 161.098712 109.73748 
L 164.087541 110.038676 
z
" style="stroke:#000000;"/>
    <path clip-path="url(#p3960df1856)" d="M 156.325404 109.592763 
L 157.259849 113.846659 
L 153.307342 109.290167 
z
" style="stroke:#000000;"/>
    <path clip-path="url(#p3960df1856)" d="M 158.673912 107.765202 
L 153.307342 109.290167 
L 155.664678 107.454002 
z
" style="stroke:#000000;"/>
    <path clip-path="url(#p3960df1856)" d="M 160.263101 240.11648 
L 162.593042 232.80554 
L 165.576247 232.542343 
z
" style="stroke:#000000;"/>
    <path clip-path="url(#p3960df1856)" d="M 160.263101 240.11648 
L 153.307342 244.966903 
L 157.259849 240.41414 
z
" style="stroke:#000000;"/>
    <path clip-path="url(#p3960df1856)" d="M 158.673912 246.478502 
L 157.912012 248.190151 
L 155.664678 246.805292 
z
" style="stroke:#000000;"/>
    <path clip-path="url(#p3960df1856)" d="M 160.912817 106.388991 
L 155.664678 107.454002 
L 157.912012 106.071264 
z
" style="stroke:#000000;"/>
    <path clip-path="url(#p3960df1856)" d="M 169.752308 236.149295 
L 161.098712 244.526943 
L 164.087541 244.210109 
z
" style="stroke:#000000;"/>
    <path clip-path="url(#p3960df1856)" d="M 174.669179 126.853783 
L 170.187083 129.92661 
L 169.752308 118.104807 
z
" style="stroke:#000000;"/>
    <path clip-path="url(#p3960df1856)" d="M 170.187083 224.327901 
L 174.669179 227.404935 
L 169.752308 236.149295 
z
" style="stroke:#000000;"/>
    <path clip-path="url(#p3960df1856)" d="M 170.187083 129.92661 
L 162.593042 121.460293 
L 165.576247 121.70784 
z
" style="stroke:#000000;"/>
    <path clip-path="url(#p3960df1856)" d="M 170.187083 129.92661 
L 174.669179 126.853783 
L 174.039478 138.691776 
z
" style="stroke:#000000;"/>
    <path clip-path="url(#p3960df1856)" d="M 174.669179 227.404935 
L 170.187083 224.327901 
L 174.039478 215.566351 
z
" style="stroke:#000000;"/>
    <path clip-path="url(#p3960df1856)" d="M 161.098712 109.73748 
L 160.912817 106.388991 
L 157.912012 106.071264 
z
" style="stroke:#000000;"/>
    <path clip-path="url(#p3960df1856)" d="M 162.593042 232.80554 
L 160.263101 240.11648 
L 157.259849 240.41414 
z
" style="stroke:#000000;"/>
    <path clip-path="url(#p3960df1856)" d="M 164.087541 110.038676 
L 166.78491 117.84035 
L 169.752308 118.104807 
z
" style="stroke:#000000;"/>
    <path clip-path="url(#p3960df1856)" d="M 157.912012 248.190151 
L 164.087541 244.210109 
L 161.098712 244.526943 
z
" style="stroke:#000000;"/>
    <path clip-path="url(#p3960df1856)" d="M 165.576247 232.542343 
L 167.221333 224.553533 
L 170.187083 224.327901 
z
" style="stroke:#000000;"/>
    <path clip-path="url(#p3960df1856)" d="M 157.259849 113.846659 
L 165.576247 121.70784 
L 162.593042 121.460293 
z
" style="stroke:#000000;"/>
    <path clip-path="url(#p3960df1856)" d="M 155.664678 246.805292 
L 157.259849 240.41414 
L 153.307342 244.966903 
z
" style="stroke:#000000;"/>
    <path clip-path="url(#p3960df1856)" d="M 157.259849 113.846659 
L 155.664678 107.454002 
L 153.307342 109.290167 
z
" style="stroke:#000000;"/>
    <path clip-path="url(#p3960df1856)" d="M 178.77794 136.187188 
L 174.039478 138.691776 
L 174.669179 126.853783 
z
" style="stroke:#000000;"/>
    <path clip-path="url(#p3960df1856)" d="M 174.039478 215.566351 
L 178.77794 218.075386 
L 174.669179 227.404935 
z
" style="stroke:#000000;"/>
    <path clip-path="url(#p3960df1856)" d="M 174.039478 138.691776 
L 178.77794 136.187188 
L 177.086253 147.903334 
z
" style="stroke:#000000;"/>
    <path clip-path="url(#p3960df1856)" d="M 178.77794 218.075386 
L 174.039478 215.566351 
L 177.086253 206.357652 
z
" style="stroke:#000000;"/>
    <path clip-path="url(#p3960df1856)" d="M 174.669179 227.404935 
L 166.78491 236.429438 
L 169.752308 236.149295 
z
" style="stroke:#000000;"/>
    <path clip-path="url(#p3960df1856)" d="M 174.039478 138.691776 
L 167.221333 129.716668 
L 170.187083 129.92661 
z
" style="stroke:#000000;"/>
    <path clip-path="url(#p3960df1856)" d="M 166.78491 117.84035 
L 164.087541 110.038676 
L 161.098712 109.73748 
z
" style="stroke:#000000;"/>
    <path clip-path="url(#p3960df1856)" d="M 155.664678 246.805292 
L 161.098712 244.526943 
L 157.259849 240.41414 
z
" style="stroke:#000000;"/>
    <path clip-path="url(#p3960df1856)" d="M 161.098712 109.73748 
L 155.664678 107.454002 
L 157.259849 113.846659 
z
" style="stroke:#000000;"/>
    <path clip-path="url(#p3960df1856)" d="M 161.098712 244.526943 
L 155.664678 246.805292 
L 157.912012 248.190151 
z
" style="stroke:#000000;"/>
    <path clip-path="url(#p3960df1856)" d="M 155.664678 107.454002 
L 161.098712 109.73748 
L 157.912012 106.071264 
z
" style="stroke:#000000;"/>
    <path clip-path="url(#p3960df1856)" d="M 167.221333 224.553533 
L 165.576247 232.542343 
L 162.593042 232.80554 
z
" style="stroke:#000000;"/>
    <path clip-path="url(#p3960df1856)" d="M 170.187083 224.327901 
L 171.088355 215.751754 
L 174.039478 215.566351 
z
" style="stroke:#000000;"/>
    <path clip-path="url(#p3960df1856)" d="M 169.752308 118.104807 
L 171.72045 126.629384 
L 174.669179 126.853783 
z
" style="stroke:#000000;"/>
    <path clip-path="url(#p3960df1856)" d="M 161.098712 244.526943 
L 169.752308 236.149295 
L 166.78491 236.429438 
z
" style="stroke:#000000;"/>
    <path clip-path="url(#p3960df1856)" d="M 182.027819 145.997782 
L 177.086253 147.903334 
L 178.77794 136.187188 
z
" style="stroke:#000000;"/>
    <path clip-path="url(#p3960df1856)" d="M 177.086253 206.357652 
L 182.027819 208.267843 
L 178.77794 218.075386 
z
" style="stroke:#000000;"/>
    <path clip-path="url(#p3960df1856)" d="M 177.086253 147.903334 
L 182.027819 145.997782 
L 179.289865 157.455099 
z
" style="stroke:#000000;"/>
    <path clip-path="url(#p3960df1856)" d="M 182.027819 208.267843 
L 177.086253 206.357652 
L 179.289865 196.807956 
z
" style="stroke:#000000;"/>
    <path clip-path="url(#p3960df1856)" d="M 162.593042 121.460293 
L 170.187083 129.92661 
L 167.221333 129.716668 
z
" style="stroke:#000000;"/>
    <path clip-path="url(#p3960df1856)" d="M 161.098712 244.526943 
L 162.593042 232.80554 
L 157.259849 240.41414 
z
" style="stroke:#000000;"/>
    <path clip-path="url(#p3960df1856)" d="M 162.593042 121.460293 
L 161.098712 109.73748 
L 157.259849 113.846659 
z
" style="stroke:#000000;"/>
    <path clip-path="url(#p3960df1856)" d="M 177.086253 147.903334 
L 171.088355 138.522096 
L 174.039478 138.691776 
z
" style="stroke:#000000;"/>
    <path clip-path="url(#p3960df1856)" d="M 179.289865 157.455099 
L 184.378579 156.172204 
L 180.623041 167.236102 
z
" style="stroke:#000000;"/>
    <path clip-path="url(#p3960df1856)" d="M 184.378579 198.095627 
L 179.289865 196.807956 
L 180.623041 187.028204 
z
" style="stroke:#000000;"/>
    <path clip-path="url(#p3960df1856)" d="M 178.77794 218.075386 
L 171.72045 227.645062 
L 174.669179 227.404935 
z
" style="stroke:#000000;"/>
    <path clip-path="url(#p3960df1856)" d="M 174.039478 215.566351 
L 174.146723 206.500641 
L 177.086253 206.357652 
z
" style="stroke:#000000;"/>
    <path clip-path="url(#p3960df1856)" d="M 184.378579 156.172204 
L 179.289865 157.455099 
L 182.027819 145.997782 
z
" style="stroke:#000000;"/>
    <path clip-path="url(#p3960df1856)" d="M 179.289865 196.807956 
L 184.378579 198.095627 
L 182.027819 208.267843 
z
" style="stroke:#000000;"/>
    <path clip-path="url(#p3960df1856)" d="M 185.800895 187.677289 
L 180.623041 187.028204 
L 181.069304 177.132362 
z
" style="stroke:#000000;"/>
    <path clip-path="url(#p3960df1856)" d="M 180.623041 167.236102 
L 185.800895 166.591877 
L 181.069304 177.132362 
z
" style="stroke:#000000;"/>
    <path clip-path="url(#p3960df1856)" d="M 171.72045 126.629384 
L 169.752308 118.104807 
L 166.78491 117.84035 
z
" style="stroke:#000000;"/>
    <path clip-path="url(#p3960df1856)" d="M 171.088355 215.751754 
L 170.187083 224.327901 
L 167.221333 224.553533 
z
" style="stroke:#000000;"/>
    <path clip-path="url(#p3960df1856)" d="M 174.669179 126.853783 
L 175.844859 136.005702 
L 178.77794 136.187188 
z
" style="stroke:#000000;"/>
    <path clip-path="url(#p3960df1856)" d="M 166.78491 236.429438 
L 162.593042 232.80554 
L 161.098712 244.526943 
z
" style="stroke:#000000;"/>
    <path clip-path="url(#p3960df1856)" d="M 162.593042 121.460293 
L 166.78491 117.84035 
L 161.098712 109.73748 
z
" style="stroke:#000000;"/>
    <path clip-path="url(#p3960df1856)" d="M 179.289865 157.455099 
L 174.146723 147.776095 
L 177.086253 147.903334 
z
" style="stroke:#000000;"/>
    <path clip-path="url(#p3960df1856)" d="M 185.800895 166.591877 
L 180.623041 167.236102 
L 184.378579 156.172204 
z
" style="stroke:#000000;"/>
    <path clip-path="url(#p3960df1856)" d="M 180.623041 187.028204 
L 185.800895 187.677289 
L 184.378579 198.095627 
z
" style="stroke:#000000;"/>
    <path clip-path="url(#p3960df1856)" d="M 167.221333 129.716668 
L 174.039478 138.691776 
L 171.088355 138.522096 
z
" style="stroke:#000000;"/>
    <path clip-path="url(#p3960df1856)" d="M 177.086253 206.357652 
L 176.358736 196.906858 
L 179.289865 196.807956 
z
" style="stroke:#000000;"/>
    <path clip-path="url(#p3960df1856)" d="M 166.78491 236.429438 
L 174.669179 227.404935 
L 171.72045 227.645062 
z
" style="stroke:#000000;"/>
    <path clip-path="url(#p3960df1856)" d="M 186.276975 177.134806 
L 181.069304 177.132362 
L 185.800895 166.591877 
z
" style="stroke:#000000;"/>
    <path clip-path="url(#p3960df1856)" d="M 181.069304 177.132362 
L 186.276975 177.134806 
L 185.800895 187.677289 
z
" style="stroke:#000000;"/>
    <path clip-path="url(#p3960df1856)" d="M 166.78491 236.429438 
L 167.221333 224.553533 
L 162.593042 232.80554 
z
" style="stroke:#000000;"/>
    <path clip-path="url(#p3960df1856)" d="M 167.221333 129.716668 
L 166.78491 117.84035 
L 162.593042 121.460293 
z
" style="stroke:#000000;"/>
    <path clip-path="url(#p3960df1856)" d="M 180.623041 167.236102 
L 176.358736 157.371966 
L 179.289865 157.455099 
z
" style="stroke:#000000;"/>
    <path clip-path="url(#p3960df1856)" d="M 182.027819 208.267843 
L 175.844859 218.272637 
L 178.77794 218.075386 
z
" style="stroke:#000000;"/>
    <path clip-path="url(#p3960df1856)" d="M 179.289865 196.807956 
L 177.697001 187.081888 
L 180.623041 187.028204 
z
" style="stroke:#000000;"/>
    <path clip-path="url(#p3960df1856)" d="M 193.243799 102.349197 
L 184.539427 113.866453 
L 180.202808 112.681045 
z
" style="stroke:#000000;"/>
    <path clip-path="url(#p3960df1856)" d="M 193.243799 132.669013 
L 180.202808 112.681045 
L 184.539427 113.866453 
z
" style="stroke:#000000;"/>
    <path clip-path="url(#p3960df1856)" d="M 174.146723 206.500641 
L 174.039478 215.566351 
L 171.088355 215.751754 
z
" style="stroke:#000000;"/>
    <path clip-path="url(#p3960df1856)" d="M 181.069304 177.132362 
L 177.697001 167.198199 
L 180.623041 167.236102 
z
" style="stroke:#000000;"/>
    <path clip-path="url(#p3960df1856)" d="M 180.623041 187.028204 
L 178.144968 177.140255 
L 181.069304 177.132362 
z
" style="stroke:#000000;"/>
    <path clip-path="url(#p3960df1856)" d="M 178.77794 136.187188 
L 179.107145 145.861547 
L 182.027819 145.997782 
z
" style="stroke:#000000;"/>
    <path clip-path="url(#p3960df1856)" d="M 175.844859 136.005702 
L 174.669179 126.853783 
L 171.72045 126.629384 
z
" style="stroke:#000000;"/>
    <path clip-path="url(#p3960df1856)" d="M 171.088355 138.522096 
L 177.086253 147.903334 
L 174.146723 147.776095 
z
" style="stroke:#000000;"/>
    <path clip-path="url(#p3960df1856)" d="M 171.72045 227.645062 
L 167.221333 224.553533 
L 166.78491 236.429438 
z
" style="stroke:#000000;"/>
    <path clip-path="url(#p3960df1856)" d="M 167.221333 129.716668 
L 171.72045 126.629384 
L 166.78491 117.84035 
z
" style="stroke:#000000;"/>
    <path clip-path="url(#p3960df1856)" d="M 184.378579 198.095627 
L 179.107145 208.41987 
L 182.027819 208.267843 
z
" style="stroke:#000000;"/>
    <path clip-path="url(#p3960df1856)" d="M 171.72045 227.645062 
L 178.77794 218.075386 
L 175.844859 218.272637 
z
" style="stroke:#000000;"/>
    <path clip-path="url(#p3960df1856)" d="M 193.243799 132.669013 
L 193.243799 142.775618 
L 180.202808 112.681045 
z
" style="stroke:#000000;"/>
    <path clip-path="url(#p3960df1856)" d="M 176.358736 196.906858 
L 177.086253 206.357652 
L 174.146723 206.500641 
z
" style="stroke:#000000;"/>
    <path clip-path="url(#p3960df1856)" d="M 182.027819 145.997782 
L 181.466896 156.083012 
L 184.378579 156.172204 
z
" style="stroke:#000000;"/>
    <path clip-path="url(#p3960df1856)" d="M 167.221333 224.553533 
L 171.72045 227.645062 
L 171.088355 215.751754 
z
" style="stroke:#000000;"/>
    <path clip-path="url(#p3960df1856)" d="M 171.72045 126.629384 
L 167.221333 129.716668 
L 171.088355 138.522096 
z
" style="stroke:#000000;"/>
    <path clip-path="url(#p3960df1856)" d="M 174.146723 147.776095 
L 179.289865 157.455099 
L 176.358736 157.371966 
z
" style="stroke:#000000;"/>
    <path clip-path="url(#p3960df1856)" d="M 177.275163 112.390727 
L 193.243799 102.349197 
L 180.202808 112.681045 
z
" style="stroke:#000000;"/>
    <path clip-path="url(#p3960df1856)" d="M 193.243799 142.775618 
L 177.275163 112.390727 
L 180.202808 112.681045 
z
" style="stroke:#000000;"/>
    <path clip-path="url(#p3960df1856)" d="M 193.243799 102.349197 
L 193.243799 107.402499 
L 184.539427 113.866453 
z
" style="stroke:#000000;"/>
    <path clip-path="url(#p3960df1856)" d="M 185.800895 187.677289 
L 181.466896 198.200633 
L 184.378579 198.095627 
z
" style="stroke:#000000;"/>
    <path clip-path="url(#p3960df1856)" d="M 177.697001 187.081888 
L 179.289865 196.807956 
L 176.358736 196.906858 
z
" style="stroke:#000000;"/>
    <path clip-path="url(#p3960df1856)" d="M 184.378579 156.172204 
L 182.89466 166.550934 
L 185.800895 166.591877 
z
" style="stroke:#000000;"/>
    <path clip-path="url(#p3960df1856)" d="M 179.107145 145.861547 
L 178.77794 136.187188 
L 175.844859 136.005702 
z
" style="stroke:#000000;"/>
    <path clip-path="url(#p3960df1856)" d="M 176.358736 157.371966 
L 180.623041 167.236102 
L 177.697001 167.198199 
z
" style="stroke:#000000;"/>
    <path clip-path="url(#p3960df1856)" d="M 186.276975 177.134806 
L 182.89466 187.734058 
L 185.800895 187.677289 
z
" style="stroke:#000000;"/>
    <path clip-path="url(#p3960df1856)" d="M 185.800895 166.591877 
L 183.372563 177.142721 
L 186.276975 177.134806 
z
" style="stroke:#000000;"/>
    <path clip-path="url(#p3960df1856)" d="M 178.144968 177.140255 
L 180.623041 187.028204 
L 177.697001 187.081888 
z
" style="stroke:#000000;"/>
    <path clip-path="url(#p3960df1856)" d="M 177.697001 167.198199 
L 181.069304 177.132362 
L 178.144968 177.140255 
z
" style="stroke:#000000;"/>
    <path clip-path="url(#p3960df1856)" d="M 175.844859 218.272637 
L 182.027819 208.267843 
L 179.107145 208.41987 
z
" style="stroke:#000000;"/>
    <path clip-path="url(#p3960df1856)" d="M 175.844859 218.272637 
L 171.088355 215.751754 
L 171.72045 227.645062 
z
" style="stroke:#000000;"/>
    <path clip-path="url(#p3960df1856)" d="M 171.088355 138.522096 
L 175.844859 136.005702 
L 171.72045 126.629384 
z
" style="stroke:#000000;"/>
    <path clip-path="url(#p3960df1856)" d="M 171.088355 215.751754 
L 175.844859 218.272637 
L 174.146723 206.500641 
z
" style="stroke:#000000;"/>
    <path clip-path="url(#p3960df1856)" d="M 175.844859 136.005702 
L 171.088355 138.522096 
L 174.146723 147.776095 
z
" style="stroke:#000000;"/>
    <path clip-path="url(#p3960df1856)" d="M 181.466896 156.083012 
L 182.027819 145.997782 
L 179.107145 145.861547 
z
" style="stroke:#000000;"/>
    <path clip-path="url(#p3960df1856)" d="M 179.107145 208.41987 
L 184.378579 198.095627 
L 181.466896 198.200633 
z
" style="stroke:#000000;"/>
    <path clip-path="url(#p3960df1856)" d="M 190.366153 107.086623 
L 184.539427 113.866453 
L 193.243799 107.402499 
z
" style="stroke:#000000;"/>
    <path clip-path="url(#p3960df1856)" d="M 184.539427 113.866453 
L 190.366153 132.470463 
L 193.243799 132.669013 
z
" style="stroke:#000000;"/>
    <path clip-path="url(#p3960df1856)" d="M 182.89466 166.550934 
L 184.378579 156.172204 
L 181.466896 156.083012 
z
" style="stroke:#000000;"/>
    <path clip-path="url(#p3960df1856)" d="M 179.107145 208.41987 
L 174.146723 206.500641 
L 175.844859 218.272637 
z
" style="stroke:#000000;"/>
    <path clip-path="url(#p3960df1856)" d="M 174.146723 147.776095 
L 179.107145 145.861547 
L 175.844859 136.005702 
z
" style="stroke:#000000;"/>
    <path clip-path="url(#p3960df1856)" d="M 193.243799 102.349197 
L 201.989934 113.571096 
L 193.243799 107.402499 
z
" style="stroke:#000000;"/>
    <path clip-path="url(#p3960df1856)" d="M 174.146723 206.500641 
L 179.107145 208.41987 
L 176.358736 196.906858 
z
" style="stroke:#000000;"/>
    <path clip-path="url(#p3960df1856)" d="M 179.107145 145.861547 
L 174.146723 147.776095 
L 176.358736 157.371966 
z
" style="stroke:#000000;"/>
    <path clip-path="url(#p3960df1856)" d="M 181.466896 198.200633 
L 185.800895 187.677289 
L 182.89466 187.734058 
z
" style="stroke:#000000;"/>
    <path clip-path="url(#p3960df1856)" d="M 183.372563 177.142721 
L 185.800895 166.591877 
L 182.89466 166.550934 
z
" style="stroke:#000000;"/>
    <path clip-path="url(#p3960df1856)" d="M 182.89466 187.734058 
L 186.276975 177.134806 
L 183.372563 177.142721 
z
" style="stroke:#000000;"/>
    <path clip-path="url(#p3960df1856)" d="M 193.243799 132.669013 
L 206.378756 112.228936 
L 193.243799 142.775618 
z
" style="stroke:#000000;"/>
    <path clip-path="url(#p3960df1856)" d="M 176.358736 196.906858 
L 181.466896 198.200633 
L 177.697001 187.081888 
z
" style="stroke:#000000;"/>
    <path clip-path="url(#p3960df1856)" d="M 181.466896 156.083012 
L 176.358736 157.371966 
L 177.697001 167.198199 
z
" style="stroke:#000000;"/>
    <path clip-path="url(#p3960df1856)" d="M 184.539427 113.866453 
L 190.366153 107.086623 
L 181.62836 113.581278 
z
" style="stroke:#000000;"/>
    <path clip-path="url(#p3960df1856)" d="M 190.366153 132.470463 
L 184.539427 113.866453 
L 181.62836 113.581278 
z
" style="stroke:#000000;"/>
    <path clip-path="url(#p3960df1856)" d="M 181.466896 198.200633 
L 176.358736 196.906858 
L 179.107145 208.41987 
z
" style="stroke:#000000;"/>
    <path clip-path="url(#p3960df1856)" d="M 176.358736 157.371966 
L 181.466896 156.083012 
L 179.107145 145.861547 
z
" style="stroke:#000000;"/>
    <path clip-path="url(#p3960df1856)" d="M 182.89466 166.550934 
L 177.697001 167.198199 
L 178.144968 177.140255 
z
" style="stroke:#000000;"/>
    <path clip-path="url(#p3960df1856)" d="M 177.697001 187.081888 
L 182.89466 187.734058 
L 178.144968 177.140255 
z
" style="stroke:#000000;"/>
    <path clip-path="url(#p3960df1856)" d="M 193.243799 102.349197 
L 177.275163 112.390727 
L 190.366153 102.009855 
z
" style="stroke:#000000;"/>
    <path clip-path="url(#p3960df1856)" d="M 177.275163 112.390727 
L 193.243799 142.775618 
L 190.366153 142.623999 
z
" style="stroke:#000000;"/>
    <path clip-path="url(#p3960df1856)" d="M 182.89466 187.734058 
L 177.697001 187.081888 
L 181.466896 198.200633 
z
" style="stroke:#000000;"/>
    <path clip-path="url(#p3960df1856)" d="M 177.697001 167.198199 
L 182.89466 166.550934 
L 181.466896 156.083012 
z
" style="stroke:#000000;"/>
    <path clip-path="url(#p3960df1856)" d="M 206.378756 112.228936 
L 193.243799 132.669013 
L 201.989934 113.571096 
z
" style="stroke:#000000;"/>
    <path clip-path="url(#p3960df1856)" d="M 201.989934 113.571096 
L 193.243799 102.349197 
L 206.378756 112.228936 
z
" style="stroke:#000000;"/>
    <path clip-path="url(#p3960df1856)" d="M 183.372563 177.142721 
L 178.144968 177.140255 
L 182.89466 187.734058 
z
" style="stroke:#000000;"/>
    <path clip-path="url(#p3960df1856)" d="M 178.144968 177.140255 
L 183.372563 177.142721 
L 182.89466 166.550934 
z
" style="stroke:#000000;"/>
    <path clip-path="url(#p3960df1856)" d="M 205.500148 177.143828 
L 200.237351 177.141358 
L 200.717217 166.555656 
z
" style="stroke:#000000;"/>
    <path clip-path="url(#p3960df1856)" d="M 200.237351 177.141358 
L 205.500148 177.143828 
L 200.717217 187.727511 
z
" style="stroke:#000000;"/>
    <path clip-path="url(#p3960df1856)" d="M 177.275163 112.390727 
L 190.366153 132.470463 
L 181.62836 113.581278 
z
" style="stroke:#000000;"/>
    <path clip-path="url(#p3960df1856)" d="M 181.62836 113.581278 
L 190.366153 102.009855 
L 177.275163 112.390727 
z
" style="stroke:#000000;"/>
    <path clip-path="url(#p3960df1856)" d="M 205.952544 167.178998 
L 200.717217 166.555656 
L 202.152343 156.078108 
z
" style="stroke:#000000;"/>
    <path clip-path="url(#p3960df1856)" d="M 200.717217 187.727511 
L 205.952544 187.109083 
L 202.152343 198.206406 
z
" style="stroke:#000000;"/>
    <path clip-path="url(#p3960df1856)" d="M 190.366153 102.009855 
L 206.378756 112.228936 
L 193.243799 102.349197 
z
" style="stroke:#000000;"/>
    <path clip-path="url(#p3960df1856)" d="M 206.378756 112.228936 
L 190.366153 142.623999 
L 193.243799 142.775618 
z
" style="stroke:#000000;"/>
    <path clip-path="url(#p3960df1856)" d="M 205.952544 187.109083 
L 200.717217 187.727511 
L 205.500148 177.143828 
z
" style="stroke:#000000;"/>
    <path clip-path="url(#p3960df1856)" d="M 200.717217 166.555656 
L 205.952544 167.178998 
L 205.500148 177.143828 
z
" style="stroke:#000000;"/>
    <path clip-path="url(#p3960df1856)" d="M 207.30537 157.316469 
L 202.152343 156.078108 
L 204.529215 145.815591 
z
" style="stroke:#000000;"/>
    <path clip-path="url(#p3960df1856)" d="M 202.152343 198.206406 
L 207.30537 196.972882 
L 204.529215 208.471154 
z
" style="stroke:#000000;"/>
    <path clip-path="url(#p3960df1856)" d="M 199.146063 113.283171 
L 193.243799 107.402499 
L 201.989934 113.571096 
z
" style="stroke:#000000;"/>
    <path clip-path="url(#p3960df1856)" d="M 193.243799 132.669013 
L 199.146063 113.283171 
L 201.989934 113.571096 
z
" style="stroke:#000000;"/>
    <path clip-path="url(#p3960df1856)" d="M 202.152343 156.078108 
L 207.30537 157.316469 
L 205.952544 167.178998 
z
" style="stroke:#000000;"/>
    <path clip-path="url(#p3960df1856)" d="M 207.30537 196.972882 
L 202.152343 198.206406 
L 205.952544 187.109083 
z
" style="stroke:#000000;"/>
    <path clip-path="url(#p3960df1856)" d="M 190.366153 132.470463 
L 177.275163 112.390727 
L 190.366153 142.623999 
z
" style="stroke:#000000;"/>
    <path clip-path="url(#p3960df1856)" d="M 200.717217 187.727511 
L 197.386697 177.149334 
L 200.237351 177.141358 
z
" style="stroke:#000000;"/>
    <path clip-path="url(#p3960df1856)" d="M 200.237351 177.141358 
L 197.868419 166.514376 
L 200.717217 166.555656 
z
" style="stroke:#000000;"/>
    <path clip-path="url(#p3960df1856)" d="M 202.152343 198.206406 
L 197.868419 187.784747 
L 200.717217 187.727511 
z
" style="stroke:#000000;"/>
    <path clip-path="url(#p3960df1856)" d="M 204.529215 145.815591 
L 209.545839 147.657197 
L 207.30537 157.316469 
z
" style="stroke:#000000;"/>
    <path clip-path="url(#p3960df1856)" d="M 209.545839 206.634257 
L 204.529215 208.471154 
L 207.30537 196.972882 
z
" style="stroke:#000000;"/>
    <path clip-path="url(#p3960df1856)" d="M 190.366153 102.009855 
L 181.62836 113.581278 
L 190.366153 107.086623 
z
" style="stroke:#000000;"/>
    <path clip-path="url(#p3960df1856)" d="M 209.545839 147.657197 
L 204.529215 145.815591 
L 207.82537 135.873311 
z
" style="stroke:#000000;"/>
    <path clip-path="url(#p3960df1856)" d="M 204.529215 208.471154 
L 209.545839 206.634257 
L 207.82537 218.416528 
z
" style="stroke:#000000;"/>
    <path clip-path="url(#p3960df1856)" d="M 200.717217 166.555656 
L 199.309101 155.988039 
L 202.152343 156.078108 
z
" style="stroke:#000000;"/>
    <path clip-path="url(#p3960df1856)" d="M 193.243799 107.402499 
L 199.146063 113.283171 
L 190.366153 107.086623 
z
" style="stroke:#000000;"/>
    <path clip-path="url(#p3960df1856)" d="M 199.146063 113.283171 
L 193.243799 132.669013 
L 190.366153 132.470463 
z
" style="stroke:#000000;"/>
    <path clip-path="url(#p3960df1856)" d="M 204.529215 208.471154 
L 199.309101 198.312444 
L 202.152343 198.206406 
z
" style="stroke:#000000;"/>
    <path clip-path="url(#p3960df1856)" d="M 202.152343 156.078108 
L 201.695187 145.677661 
L 204.529215 145.815591 
z
" style="stroke:#000000;"/>
    <path clip-path="url(#p3960df1856)" d="M 207.82537 135.873311 
L 212.652589 138.300655 
L 209.545839 147.657197 
z
" style="stroke:#000000;"/>
    <path clip-path="url(#p3960df1856)" d="M 212.652589 215.993714 
L 207.82537 218.416528 
L 209.545839 206.634257 
z
" style="stroke:#000000;"/>
    <path clip-path="url(#p3960df1856)" d="M 212.652589 138.300655 
L 207.82537 135.873311 
L 212.009632 126.353755 
z
" style="stroke:#000000;"/>
    <path clip-path="url(#p3960df1856)" d="M 207.82537 218.416528 
L 212.652589 215.993714 
L 212.009632 227.940011 
z
" style="stroke:#000000;"/>
    <path clip-path="url(#p3960df1856)" d="M 207.82537 218.416528 
L 201.695187 208.625074 
L 204.529215 208.471154 
z
" style="stroke:#000000;"/>
    <path clip-path="url(#p3960df1856)" d="M 205.952544 167.178998 
L 202.669888 177.151827 
L 205.500148 177.143828 
z
" style="stroke:#000000;"/>
    <path clip-path="url(#p3960df1856)" d="M 205.500148 177.143828 
L 203.12404 187.163519 
L 205.952544 187.109083 
z
" style="stroke:#000000;"/>
    <path clip-path="url(#p3960df1856)" d="M 197.868419 166.514376 
L 200.237351 177.141358 
L 197.386697 177.149334 
z
" style="stroke:#000000;"/>
    <path clip-path="url(#p3960df1856)" d="M 197.386697 177.149334 
L 200.717217 187.727511 
L 197.868419 187.784747 
z
" style="stroke:#000000;"/>
    <path clip-path="url(#p3960df1856)" d="M 207.30537 157.316469 
L 203.12404 167.140564 
L 205.952544 167.178998 
z
" style="stroke:#000000;"/>
    <path clip-path="url(#p3960df1856)" d="M 204.529215 145.815591 
L 205.004143 135.688902 
L 207.82537 135.873311 
z
" style="stroke:#000000;"/>
    <path clip-path="url(#p3960df1856)" d="M 199.309101 155.988039 
L 200.717217 166.555656 
L 197.868419 166.514376 
z
" style="stroke:#000000;"/>
    <path clip-path="url(#p3960df1856)" d="M 205.952544 187.109083 
L 204.482122 197.07332 
L 207.30537 196.972882 
z
" style="stroke:#000000;"/>
    <path clip-path="url(#p3960df1856)" d="M 197.868419 187.784747 
L 202.152343 198.206406 
L 199.309101 198.312444 
z
" style="stroke:#000000;"/>
    <path clip-path="url(#p3960df1856)" d="M 199.146063 113.283171 
L 190.366153 102.009855 
L 190.366153 107.086623 
z
" style="stroke:#000000;"/>
    <path clip-path="url(#p3960df1856)" d="M 206.378756 112.228936 
L 190.366153 102.009855 
L 203.551908 111.934409 
z
" style="stroke:#000000;"/>
    <path clip-path="url(#p3960df1856)" d="M 190.366153 142.623999 
L 206.378756 112.228936 
L 203.551908 111.934409 
z
" style="stroke:#000000;"/>
    <path clip-path="url(#p3960df1856)" d="M 209.545839 147.657197 
L 204.482122 157.232045 
L 207.30537 157.316469 
z
" style="stroke:#000000;"/>
    <path clip-path="url(#p3960df1856)" d="M 212.009632 126.353755 
L 216.595876 129.343743 
L 212.652589 138.300655 
z
" style="stroke:#000000;"/>
    <path clip-path="url(#p3960df1856)" d="M 216.595876 224.954328 
L 212.009632 227.940011 
L 212.652589 215.993714 
z
" style="stroke:#000000;"/>
    <path clip-path="url(#p3960df1856)" d="M 201.695187 145.677661 
L 202.152343 156.078108 
L 199.309101 155.988039 
z
" style="stroke:#000000;"/>
    <path clip-path="url(#p3960df1856)" d="M 207.30537 196.972882 
L 206.731305 206.779821 
L 209.545839 206.634257 
z
" style="stroke:#000000;"/>
    <path clip-path="url(#p3960df1856)" d="M 203.551908 111.934409 
L 190.366153 132.470463 
L 190.366153 142.623999 
z
" style="stroke:#000000;"/>
    <path clip-path="url(#p3960df1856)" d="M 212.009632 227.940011 
L 205.004143 218.616955 
L 207.82537 218.416528 
z
" style="stroke:#000000;"/>
    <path clip-path="url(#p3960df1856)" d="M 199.309101 198.312444 
L 204.529215 208.471154 
L 201.695187 208.625074 
z
" style="stroke:#000000;"/>
    <path clip-path="url(#p3960df1856)" d="M 217.041968 117.356473 
L 216.595876 129.343743 
L 212.009632 126.353755 
z
" style="stroke:#000000;"/>
    <path clip-path="url(#p3960df1856)" d="M 216.595876 224.954328 
L 217.041968 236.942017 
L 212.009632 227.940011 
z
" style="stroke:#000000;"/>
    <path clip-path="url(#p3960df1856)" d="M 212.652589 138.300655 
L 206.731305 147.527666 
L 209.545839 147.657197 
z
" style="stroke:#000000;"/>
    <path clip-path="url(#p3960df1856)" d="M 207.82537 135.873311 
L 209.204696 126.124702 
L 212.009632 126.353755 
z
" style="stroke:#000000;"/>
    <path clip-path="url(#p3960df1856)" d="M 205.004143 135.688902 
L 204.529215 145.815591 
L 201.695187 145.677661 
z
" style="stroke:#000000;"/>
    <path clip-path="url(#p3960df1856)" d="M 203.12404 187.163519 
L 205.500148 177.143828 
L 202.669888 177.151827 
z
" style="stroke:#000000;"/>
    <path clip-path="url(#p3960df1856)" d="M 202.669888 177.151827 
L 205.952544 167.178998 
L 203.12404 167.140564 
z
" style="stroke:#000000;"/>
    <path clip-path="url(#p3960df1856)" d="M 209.545839 206.634257 
L 209.85016 216.183096 
L 212.652589 215.993714 
z
" style="stroke:#000000;"/>
    <path clip-path="url(#p3960df1856)" d="M 190.366153 132.470463 
L 203.551908 111.934409 
L 199.146063 113.283171 
z
" style="stroke:#000000;"/>
    <path clip-path="url(#p3960df1856)" d="M 190.366153 102.009855 
L 199.146063 113.283171 
L 203.551908 111.934409 
z
" style="stroke:#000000;"/>
    <path clip-path="url(#p3960df1856)" d="M 204.482122 197.07332 
L 205.952544 187.109083 
L 203.12404 187.163519 
z
" style="stroke:#000000;"/>
    <path clip-path="url(#p3960df1856)" d="M 201.695187 208.625074 
L 207.82537 218.416528 
L 205.004143 218.616955 
z
" style="stroke:#000000;"/>
    <path clip-path="url(#p3960df1856)" d="M 203.12404 167.140564 
L 207.30537 157.316469 
L 204.482122 157.232045 
z
" style="stroke:#000000;"/>
    <path clip-path="url(#p3960df1856)" d="M 217.041968 117.356473 
L 221.337747 120.879953 
L 216.595876 129.343743 
z
" style="stroke:#000000;"/>
    <path clip-path="url(#p3960df1856)" d="M 221.337747 233.422569 
L 217.041968 236.942017 
L 216.595876 224.954328 
z
" style="stroke:#000000;"/>
    <path clip-path="url(#p3960df1856)" d="M 202.669888 177.151827 
L 197.386697 177.149334 
L 197.868419 187.784747 
z
" style="stroke:#000000;"/>
    <path clip-path="url(#p3960df1856)" d="M 197.386697 177.149334 
L 202.669888 177.151827 
L 197.868419 166.514376 
z
" style="stroke:#000000;"/>
    <path clip-path="url(#p3960df1856)" d="M 217.041968 236.942017 
L 209.204696 228.18512 
L 212.009632 227.940011 
z
" style="stroke:#000000;"/>
    <path clip-path="url(#p3960df1856)" d="M 206.731305 206.779821 
L 207.30537 196.972882 
L 204.482122 197.07332 
z
" style="stroke:#000000;"/>
    <path clip-path="url(#p3960df1856)" d="M 216.595876 129.343743 
L 209.85016 138.127334 
L 212.652589 138.300655 
z
" style="stroke:#000000;"/>
    <path clip-path="url(#p3960df1856)" d="M 203.12404 187.163519 
L 197.868419 187.784747 
L 199.309101 198.312444 
z
" style="stroke:#000000;"/>
    <path clip-path="url(#p3960df1856)" d="M 197.868419 166.514376 
L 203.12404 167.140564 
L 199.309101 155.988039 
z
" style="stroke:#000000;"/>
    <path clip-path="url(#p3960df1856)" d="M 204.482122 157.232045 
L 209.545839 147.657197 
L 206.731305 147.527666 
z
" style="stroke:#000000;"/>
    <path clip-path="url(#p3960df1856)" d="M 222.873966 108.975847 
L 221.337747 120.879953 
L 217.041968 117.356473 
z
" style="stroke:#000000;"/>
    <path clip-path="url(#p3960df1856)" d="M 221.337747 233.422569 
L 222.873966 245.328117 
L 217.041968 236.942017 
z
" style="stroke:#000000;"/>
    <path clip-path="url(#p3960df1856)" d="M 209.204696 126.124702 
L 207.82537 135.873311 
L 205.004143 135.688902 
z
" style="stroke:#000000;"/>
    <path clip-path="url(#p3960df1856)" d="M 212.652589 215.993714 
L 213.808846 225.185792 
L 216.595876 224.954328 
z
" style="stroke:#000000;"/>
    <path clip-path="url(#p3960df1856)" d="M 212.009632 126.353755 
L 214.256684 117.08505 
L 217.041968 117.356473 
z
" style="stroke:#000000;"/>
    <path clip-path="url(#p3960df1856)" d="M 203.12404 167.140564 
L 197.868419 166.514376 
L 202.669888 177.151827 
z
" style="stroke:#000000;"/>
    <path clip-path="url(#p3960df1856)" d="M 197.868419 187.784747 
L 203.12404 187.163519 
L 202.669888 177.151827 
z
" style="stroke:#000000;"/>
    <path clip-path="url(#p3960df1856)" d="M 204.482122 197.07332 
L 199.309101 198.312444 
L 201.695187 208.625074 
z
" style="stroke:#000000;"/>
    <path clip-path="url(#p3960df1856)" d="M 199.309101 155.988039 
L 204.482122 157.232045 
L 201.695187 145.677661 
z
" style="stroke:#000000;"/>
    <path clip-path="url(#p3960df1856)" d="M 209.85016 216.183096 
L 209.545839 206.634257 
L 206.731305 206.779821 
z
" style="stroke:#000000;"/>
    <path clip-path="url(#p3960df1856)" d="M 205.004143 218.616955 
L 212.009632 227.940011 
L 209.204696 228.18512 
z
" style="stroke:#000000;"/>
    <path clip-path="url(#p3960df1856)" d="M 199.309101 198.312444 
L 204.482122 197.07332 
L 203.12404 187.163519 
z
" style="stroke:#000000;"/>
    <path clip-path="url(#p3960df1856)" d="M 204.482122 157.232045 
L 199.309101 155.988039 
L 203.12404 167.140564 
z
" style="stroke:#000000;"/>
    <path clip-path="url(#p3960df1856)" d="M 206.731305 147.527666 
L 212.652589 138.300655 
L 209.85016 138.127334 
z
" style="stroke:#000000;"/>
    <path clip-path="url(#p3960df1856)" d="M 222.873966 108.975847 
L 226.832182 112.999267 
L 221.337747 120.879953 
z
" style="stroke:#000000;"/>
    <path clip-path="url(#p3960df1856)" d="M 226.832182 241.308412 
L 222.873966 245.328117 
L 221.337747 233.422569 
z
" style="stroke:#000000;"/>
    <path clip-path="url(#p3960df1856)" d="M 221.337747 120.879953 
L 213.808846 129.128374 
L 216.595876 129.343743 
z
" style="stroke:#000000;"/>
    <path clip-path="url(#p3960df1856)" d="M 201.695187 208.625074 
L 206.731305 206.779821 
L 204.482122 197.07332 
z
" style="stroke:#000000;"/>
    <path clip-path="url(#p3960df1856)" d="M 206.731305 147.527666 
L 201.695187 145.677661 
L 204.482122 157.232045 
z
" style="stroke:#000000;"/>
    <path clip-path="url(#p3960df1856)" d="M 206.731305 206.779821 
L 201.695187 208.625074 
L 205.004143 218.616955 
z
" style="stroke:#000000;"/>
    <path clip-path="url(#p3960df1856)" d="M 201.695187 145.677661 
L 206.731305 147.527666 
L 205.004143 135.688902 
z
" style="stroke:#000000;"/>
    <path clip-path="url(#p3960df1856)" d="M 222.873966 245.328117 
L 214.256684 237.229539 
L 217.041968 236.942017 
z
" style="stroke:#000000;"/>
    <path clip-path="url(#p3960df1856)" d="M 214.256684 117.08505 
L 212.009632 126.353755 
L 209.204696 126.124702 
z
" style="stroke:#000000;"/>
    <path clip-path="url(#p3960df1856)" d="M 213.808846 225.185792 
L 212.652589 215.993714 
L 209.85016 216.183096 
z
" style="stroke:#000000;"/>
    <path clip-path="url(#p3960df1856)" d="M 216.595876 224.954328 
L 218.569288 233.693961 
L 221.337747 233.422569 
z
" style="stroke:#000000;"/>
    <path clip-path="url(#p3960df1856)" d="M 228.481938 106.457269 
L 222.873966 108.975847 
L 226.158547 105.142446 
z
" style="stroke:#000000;"/>
    <path clip-path="url(#p3960df1856)" d="M 222.873966 245.328117 
L 228.481938 247.851959 
L 226.158547 249.164601 
z
" style="stroke:#000000;"/>
    <path clip-path="url(#p3960df1856)" d="M 222.873966 108.975847 
L 228.481938 106.457269 
L 226.832182 112.999267 
z
" style="stroke:#000000;"/>
    <path clip-path="url(#p3960df1856)" d="M 228.481938 247.851959 
L 222.873966 245.328117 
L 226.832182 241.308412 
z
" style="stroke:#000000;"/>
    <path clip-path="url(#p3960df1856)" d="M 217.041968 117.356473 
L 220.111536 108.664756 
L 222.873966 108.975847 
z
" style="stroke:#000000;"/>
    <path clip-path="url(#p3960df1856)" d="M 209.85016 138.127334 
L 216.595876 129.343743 
L 213.808846 129.128374 
z
" style="stroke:#000000;"/>
    <path clip-path="url(#p3960df1856)" d="M 209.204696 228.18512 
L 217.041968 236.942017 
L 214.256684 237.229539 
z
" style="stroke:#000000;"/>
    <path clip-path="url(#p3960df1856)" d="M 205.004143 218.616955 
L 209.85016 216.183096 
L 206.731305 206.779821 
z
" style="stroke:#000000;"/>
    <path clip-path="url(#p3960df1856)" d="M 209.85016 138.127334 
L 205.004143 135.688902 
L 206.731305 147.527666 
z
" style="stroke:#000000;"/>
    <path clip-path="url(#p3960df1856)" d="M 205.004143 135.688902 
L 209.85016 138.127334 
L 209.204696 126.124702 
z
" style="stroke:#000000;"/>
    <path clip-path="url(#p3960df1856)" d="M 209.85016 216.183096 
L 205.004143 218.616955 
L 209.204696 228.18512 
z
" style="stroke:#000000;"/>
    <path clip-path="url(#p3960df1856)" d="M 226.832182 112.999267 
L 228.481938 106.457269 
L 230.925327 108.231916 
z
" style="stroke:#000000;"/>
    <path clip-path="url(#p3960df1856)" d="M 228.481938 247.851959 
L 226.832182 241.308412 
L 230.925327 246.079605 
z
" style="stroke:#000000;"/>
    <path clip-path="url(#p3960df1856)" d="M 226.832182 112.999267 
L 218.569288 120.624698 
L 221.337747 120.879953 
z
" style="stroke:#000000;"/>
    <path clip-path="url(#p3960df1856)" d="M 218.569288 233.693961 
L 216.595876 224.954328 
L 213.808846 225.185792 
z
" style="stroke:#000000;"/>
    <path clip-path="url(#p3960df1856)" d="M 226.158547 249.164601 
L 220.111536 245.655358 
L 222.873966 245.328117 
z
" style="stroke:#000000;"/>
    <path clip-path="url(#p3960df1856)" d="M 220.111536 108.664756 
L 217.041968 117.356473 
L 214.256684 117.08505 
z
" style="stroke:#000000;"/>
    <path clip-path="url(#p3960df1856)" d="M 221.337747 233.422569 
L 224.085314 241.617169 
L 226.832182 241.308412 
z
" style="stroke:#000000;"/>
    <path clip-path="url(#p3960df1856)" d="M 222.873966 108.975847 
L 223.409028 104.813114 
L 226.158547 105.142446 
z
" style="stroke:#000000;"/>
    <path clip-path="url(#p3960df1856)" d="M 209.204696 228.18512 
L 213.808846 225.185792 
L 209.85016 216.183096 
z
" style="stroke:#000000;"/>
    <path clip-path="url(#p3960df1856)" d="M 213.808846 129.128374 
L 209.204696 126.124702 
L 209.85016 138.127334 
z
" style="stroke:#000000;"/>
    <path clip-path="url(#p3960df1856)" d="M 213.808846 129.128374 
L 221.337747 120.879953 
L 218.569288 120.624698 
z
" style="stroke:#000000;"/>
    <path clip-path="url(#p3960df1856)" d="M 214.256684 237.229539 
L 213.808846 225.185792 
L 209.204696 228.18512 
z
" style="stroke:#000000;"/>
    <path clip-path="url(#p3960df1856)" d="M 213.808846 129.128374 
L 214.256684 117.08505 
L 209.204696 126.124702 
z
" style="stroke:#000000;"/>
    <path clip-path="url(#p3960df1856)" d="M 214.256684 237.229539 
L 222.873966 245.328117 
L 220.111536 245.655358 
z
" style="stroke:#000000;"/>
    <path clip-path="url(#p3960df1856)" d="M 223.409028 104.813114 
L 228.481938 106.457269 
L 226.158547 105.142446 
z
" style="stroke:#000000;"/>
    <path clip-path="url(#p3960df1856)" d="M 225.741567 248.191535 
L 226.158547 249.164601 
L 228.481938 247.851959 
z
" style="stroke:#000000;"/>
    <path clip-path="url(#p3960df1856)" d="M 224.085314 241.617169 
L 230.925327 246.079605 
L 226.832182 241.308412 
z
" style="stroke:#000000;"/>
    <path clip-path="url(#p3960df1856)" d="M 224.085314 241.617169 
L 221.337747 233.422569 
L 218.569288 233.693961 
z
" style="stroke:#000000;"/>
    <path clip-path="url(#p3960df1856)" d="M 225.741567 106.133892 
L 230.925327 108.231916 
L 228.481938 106.457269 
z
" style="stroke:#000000;"/>
    <path clip-path="url(#p3960df1856)" d="M 228.194593 107.91665 
L 226.832182 112.999267 
L 230.925327 108.231916 
z
" style="stroke:#000000;"/>
    <path clip-path="url(#p3960df1856)" d="M 223.409028 104.813114 
L 222.873966 108.975847 
L 220.111536 108.664756 
z
" style="stroke:#000000;"/>
    <path clip-path="url(#p3960df1856)" d="M 214.256684 237.229539 
L 218.569288 233.693961 
L 213.808846 225.185792 
z
" style="stroke:#000000;"/>
    <path clip-path="url(#p3960df1856)" d="M 218.569288 120.624698 
L 214.256684 117.08505 
L 213.808846 129.128374 
z
" style="stroke:#000000;"/>
    <path clip-path="url(#p3960df1856)" d="M 228.194593 246.411093 
L 228.481938 247.851959 
L 230.925327 246.079605 
z
" style="stroke:#000000;"/>
    <path clip-path="url(#p3960df1856)" d="M 218.569288 120.624698 
L 226.832182 112.999267 
L 224.085314 112.706696 
z
" style="stroke:#000000;"/>
    <path clip-path="url(#p3960df1856)" d="M 220.111536 245.655358 
L 226.158547 249.164601 
L 223.409028 249.510112 
z
" style="stroke:#000000;"/>
    <path clip-path="url(#p3960df1856)" d="M 220.111536 245.655358 
L 218.569288 233.693961 
L 214.256684 237.229539 
z
" style="stroke:#000000;"/>
    <path clip-path="url(#p3960df1856)" d="M 218.569288 120.624698 
L 220.111536 108.664756 
L 214.256684 117.08505 
z
" style="stroke:#000000;"/>
    <path clip-path="url(#p3960df1856)" d="M 226.158547 249.164601 
L 225.741567 248.191535 
L 223.409028 249.510112 
z
" style="stroke:#000000;"/>
    <path clip-path="url(#p3960df1856)" d="M 228.481938 106.457269 
L 223.409028 104.813114 
L 225.741567 106.133892 
z
" style="stroke:#000000;"/>
    <path clip-path="url(#p3960df1856)" d="M 226.832182 112.999267 
L 228.194593 107.91665 
L 224.085314 112.706696 
z
" style="stroke:#000000;"/>
    <path clip-path="url(#p3960df1856)" d="M 228.481938 247.851959 
L 228.194593 246.411093 
L 225.741567 248.191535 
z
" style="stroke:#000000;"/>
    <path clip-path="url(#p3960df1856)" d="M 220.111536 245.655358 
L 224.085314 241.617169 
L 218.569288 233.693961 
z
" style="stroke:#000000;"/>
    <path clip-path="url(#p3960df1856)" d="M 224.085314 112.706696 
L 220.111536 108.664756 
L 218.569288 120.624698 
z
" style="stroke:#000000;"/>
    <path clip-path="url(#p3960df1856)" d="M 230.925327 246.079605 
L 224.085314 241.617169 
L 228.194593 246.411093 
z
" style="stroke:#000000;"/>
    <path clip-path="url(#p3960df1856)" d="M 230.925327 108.231916 
L 225.741567 106.133892 
L 228.194593 107.91665 
z
" style="stroke:#000000;"/>
    <path clip-path="url(#p3960df1856)" d="M 225.741567 248.191535 
L 220.111536 245.655358 
L 223.409028 249.510112 
z
" style="stroke:#000000;"/>
    <path clip-path="url(#p3960df1856)" d="M 220.111536 108.664756 
L 225.741567 106.133892 
L 223.409028 104.813114 
z
" style="stroke:#000000;"/>
    <path clip-path="url(#p3960df1856)" d="M 220.111536 245.655358 
L 225.741567 248.191535 
L 224.085314 241.617169 
z
" style="stroke:#000000;"/>
    <path clip-path="url(#p3960df1856)" d="M 225.741567 106.133892 
L 220.111536 108.664756 
L 224.085314 112.706696 
z
" style="stroke:#000000;"/>
    <path clip-path="url(#p3960df1856)" d="M 224.085314 241.617169 
L 225.741567 248.191535 
L 228.194593 246.411093 
z
" style="stroke:#000000;"/>
    <path clip-path="url(#p3960df1856)" d="M 225.741567 106.133892 
L 224.085314 112.706696 
L 228.194593 107.91665 
z
" style="stroke:#000000;"/>
   </g>
  </g>
 </g>
 <defs>
  <clipPath id="p3960df1856">
   <rect height="271.8" width="279" x="45" y="43.2"/>
  </clipPath>
 </defs>
</svg>
