<?xml version="1.0" encoding="utf-8" standalone="no"?>
<!DOCTYPE svg PUBLIC "-//W3C//DTD SVG 1.1//EN"
  "http://www.w3.org/Graphics/SVG/1.1/DTD/svg11.dtd">
<!-- Created with matplotlib (https://matplotlib.org/) -->
<svg height="360pt" version="1.1" viewBox="0 0 360 360" width="360pt" xmlns="http://www.w3.org/2000/svg" xmlns:xlink="http://www.w3.org/1999/xlink">
 <defs>
  <style type="text/css">
*{stroke-linecap:butt;stroke-linejoin:round;}
  </style>
 </defs>
 <g id="figure_1">
  <g id="patch_1">
   <path d="M 45 315 
L 324 315 
L 324 43.2 
L 45 43.2 
z
" style="fill:#ffffff;"/>
  </g>
  <g id="axes_1">
   <g id="Poly3DCollection_1">
    <path clip-path="url(#p21d9a6bfb4)" d="M 225.848786 290.793794 
L 224.172512 280.474614 
L 228.319519 287.619889 
z
" style="stroke:#000000;"/>
    <path clip-path="url(#p21d9a6bfb4)" d="M 224.172512 73.718523 
L 225.848786 63.394351 
L 228.319519 66.560898 
z
" style="stroke:#000000;"/>
    <path clip-path="url(#p21d9a6bfb4)" d="M 238.264577 288.176254 
L 225.848786 290.793794 
L 228.319519 287.619889 
z
" style="stroke:#000000;"/>
    <path clip-path="url(#p21d9a6bfb4)" d="M 238.264577 66.02103 
L 224.172512 73.718523 
L 228.319519 66.560898 
z
" style="stroke:#000000;"/>
    <path clip-path="url(#p21d9a6bfb4)" d="M 235.803668 62.837545 
L 228.319519 66.560898 
L 225.848786 63.394351 
z
" style="stroke:#000000;"/>
    <path clip-path="url(#p21d9a6bfb4)" d="M 228.319519 66.560898 
L 235.803668 62.837545 
L 238.264577 66.02103 
z
" style="stroke:#000000;"/>
    <path clip-path="url(#p21d9a6bfb4)" d="M 234.13403 280.997489 
L 228.319519 287.619889 
L 224.172512 280.474614 
z
" style="stroke:#000000;"/>
    <path clip-path="url(#p21d9a6bfb4)" d="M 225.848786 290.793794 
L 220.123942 287.476335 
L 224.172512 280.474614 
z
" style="stroke:#000000;"/>
    <path clip-path="url(#p21d9a6bfb4)" d="M 220.123942 66.728857 
L 225.848786 63.394351 
L 224.172512 73.718523 
z
" style="stroke:#000000;"/>
    <path clip-path="url(#p21d9a6bfb4)" d="M 228.319519 287.619889 
L 234.13403 280.997489 
L 238.264577 288.176254 
z
" style="stroke:#000000;"/>
    <path clip-path="url(#p21d9a6bfb4)" d="M 235.803668 291.36717 
L 223.486173 293.227816 
L 225.848786 290.793794 
z
" style="stroke:#000000;"/>
    <path clip-path="url(#p21d9a6bfb4)" d="M 220.123942 287.476335 
L 225.848786 290.793794 
L 223.486173 293.227816 
z
" style="stroke:#000000;"/>
    <path clip-path="url(#p21d9a6bfb4)" d="M 225.848786 63.394351 
L 220.123942 66.728857 
L 223.486173 60.967364 
z
" style="stroke:#000000;"/>
    <path clip-path="url(#p21d9a6bfb4)" d="M 225.848786 290.793794 
L 238.264577 288.176254 
L 235.803668 291.36717 
z
" style="stroke:#000000;"/>
    <path clip-path="url(#p21d9a6bfb4)" d="M 233.450399 60.39729 
L 225.848786 63.394351 
L 223.486173 60.967364 
z
" style="stroke:#000000;"/>
    <path clip-path="url(#p21d9a6bfb4)" d="M 224.172512 73.718523 
L 238.264577 66.02103 
L 234.13403 73.212268 
z
" style="stroke:#000000;"/>
    <path clip-path="url(#p21d9a6bfb4)" d="M 225.848786 63.394351 
L 233.450399 60.39729 
L 235.803668 62.837545 
z
" style="stroke:#000000;"/>
    <path clip-path="url(#p21d9a6bfb4)" d="M 220.123942 287.476335 
L 218.542404 268.371548 
L 224.172512 280.474614 
z
" style="stroke:#000000;"/>
    <path clip-path="url(#p21d9a6bfb4)" d="M 218.542404 85.838354 
L 220.123942 66.728857 
L 224.172512 73.718523 
z
" style="stroke:#000000;"/>
    <path clip-path="url(#p21d9a6bfb4)" d="M 223.486173 293.227816 
L 235.803668 291.36717 
L 233.450399 293.814531 
z
" style="stroke:#000000;"/>
    <path clip-path="url(#p21d9a6bfb4)" d="M 235.803668 62.837545 
L 234.13403 73.212268 
L 238.264577 66.02103 
z
" style="stroke:#000000;"/>
    <path clip-path="url(#p21d9a6bfb4)" d="M 234.13403 280.997489 
L 235.803668 291.36717 
L 238.264577 288.176254 
z
" style="stroke:#000000;"/>
    <path clip-path="url(#p21d9a6bfb4)" d="M 220.123942 66.728857 
L 233.450399 60.39729 
L 223.486173 60.967364 
z
" style="stroke:#000000;"/>
    <path clip-path="url(#p21d9a6bfb4)" d="M 218.542404 268.371548 
L 234.13403 280.997489 
L 224.172512 280.474614 
z
" style="stroke:#000000;"/>
    <path clip-path="url(#p21d9a6bfb4)" d="M 223.486173 293.227816 
L 230.10138 288.036085 
L 220.123942 287.476335 
z
" style="stroke:#000000;"/>
    <path clip-path="url(#p21d9a6bfb4)" d="M 230.10138 288.036085 
L 223.486173 293.227816 
L 233.450399 293.814531 
z
" style="stroke:#000000;"/>
    <path clip-path="url(#p21d9a6bfb4)" d="M 228.526023 85.390175 
L 224.172512 73.718523 
L 234.13403 73.212268 
z
" style="stroke:#000000;"/>
    <path clip-path="url(#p21d9a6bfb4)" d="M 224.172512 73.718523 
L 228.526023 85.390175 
L 218.542404 85.838354 
z
" style="stroke:#000000;"/>
    <path clip-path="url(#p21d9a6bfb4)" d="M 235.803668 62.837545 
L 230.10138 66.185848 
L 234.13403 73.212268 
z
" style="stroke:#000000;"/>
    <path clip-path="url(#p21d9a6bfb4)" d="M 230.10138 288.036085 
L 235.803668 291.36717 
L 234.13403 280.997489 
z
" style="stroke:#000000;"/>
    <path clip-path="url(#p21d9a6bfb4)" d="M 214.089117 274.586848 
L 218.542404 268.371548 
L 220.123942 287.476335 
z
" style="stroke:#000000;"/>
    <path clip-path="url(#p21d9a6bfb4)" d="M 218.542404 85.838354 
L 214.089117 79.636315 
L 220.123942 66.728857 
z
" style="stroke:#000000;"/>
    <path clip-path="url(#p21d9a6bfb4)" d="M 230.10138 66.185848 
L 235.803668 62.837545 
L 233.450399 60.39729 
z
" style="stroke:#000000;"/>
    <path clip-path="url(#p21d9a6bfb4)" d="M 235.803668 291.36717 
L 230.10138 288.036085 
L 233.450399 293.814531 
z
" style="stroke:#000000;"/>
    <path clip-path="url(#p21d9a6bfb4)" d="M 233.450399 60.39729 
L 220.123942 66.728857 
L 230.10138 66.185848 
z
" style="stroke:#000000;"/>
    <path clip-path="url(#p21d9a6bfb4)" d="M 234.13403 280.997489 
L 218.542404 268.371548 
L 228.526023 268.836515 
z
" style="stroke:#000000;"/>
    <path clip-path="url(#p21d9a6bfb4)" d="M 214.089117 79.636315 
L 230.10138 66.185848 
L 220.123942 66.728857 
z
" style="stroke:#000000;"/>
    <path clip-path="url(#p21d9a6bfb4)" d="M 214.089117 274.586848 
L 213.62405 255.086848 
L 218.542404 268.371548 
z
" style="stroke:#000000;"/>
    <path clip-path="url(#p21d9a6bfb4)" d="M 213.62405 99.1377 
L 214.089117 79.636315 
L 218.542404 85.838354 
z
" style="stroke:#000000;"/>
    <path clip-path="url(#p21d9a6bfb4)" d="M 230.10138 66.185848 
L 228.526023 85.390175 
L 234.13403 73.212268 
z
" style="stroke:#000000;"/>
    <path clip-path="url(#p21d9a6bfb4)" d="M 228.526023 268.836515 
L 230.10138 288.036085 
L 234.13403 280.997489 
z
" style="stroke:#000000;"/>
    <path clip-path="url(#p21d9a6bfb4)" d="M 213.62405 255.086848 
L 228.526023 268.836515 
L 218.542404 268.371548 
z
" style="stroke:#000000;"/>
    <path clip-path="url(#p21d9a6bfb4)" d="M 224.09002 275.084877 
L 220.123942 287.476335 
L 230.10138 288.036085 
z
" style="stroke:#000000;"/>
    <path clip-path="url(#p21d9a6bfb4)" d="M 220.123942 287.476335 
L 224.09002 275.084877 
L 214.089117 274.586848 
z
" style="stroke:#000000;"/>
    <path clip-path="url(#p21d9a6bfb4)" d="M 218.542404 85.838354 
L 223.626747 98.75438 
L 213.62405 99.1377 
z
" style="stroke:#000000;"/>
    <path clip-path="url(#p21d9a6bfb4)" d="M 223.626747 98.75438 
L 218.542404 85.838354 
L 228.526023 85.390175 
z
" style="stroke:#000000;"/>
    <path clip-path="url(#p21d9a6bfb4)" d="M 230.10138 66.185848 
L 214.089117 79.636315 
L 224.09002 79.155207 
z
" style="stroke:#000000;"/>
    <path clip-path="url(#p21d9a6bfb4)" d="M 208.813837 260.423641 
L 213.62405 255.086848 
L 214.089117 274.586848 
z
" style="stroke:#000000;"/>
    <path clip-path="url(#p21d9a6bfb4)" d="M 213.62405 99.1377 
L 208.813837 93.815231 
L 214.089117 79.636315 
z
" style="stroke:#000000;"/>
    <path clip-path="url(#p21d9a6bfb4)" d="M 224.09002 79.155207 
L 228.526023 85.390175 
L 230.10138 66.185848 
z
" style="stroke:#000000;"/>
    <path clip-path="url(#p21d9a6bfb4)" d="M 228.526023 268.836515 
L 224.09002 275.084877 
L 230.10138 288.036085 
z
" style="stroke:#000000;"/>
    <path clip-path="url(#p21d9a6bfb4)" d="M 228.526023 268.836515 
L 213.62405 255.086848 
L 223.626747 255.487104 
z
" style="stroke:#000000;"/>
    <path clip-path="url(#p21d9a6bfb4)" d="M 213.62405 255.086848 
L 208.813837 260.423641 
L 209.491383 240.780248 
z
" style="stroke:#000000;"/>
    <path clip-path="url(#p21d9a6bfb4)" d="M 208.813837 93.815231 
L 213.62405 99.1377 
L 209.491383 113.456607 
z
" style="stroke:#000000;"/>
    <path clip-path="url(#p21d9a6bfb4)" d="M 208.813837 93.815231 
L 224.09002 79.155207 
L 214.089117 79.636315 
z
" style="stroke:#000000;"/>
    <path clip-path="url(#p21d9a6bfb4)" d="M 209.491383 240.780248 
L 223.626747 255.487104 
L 213.62405 255.086848 
z
" style="stroke:#000000;"/>
    <path clip-path="url(#p21d9a6bfb4)" d="M 224.09002 79.155207 
L 223.626747 98.75438 
L 228.526023 85.390175 
z
" style="stroke:#000000;"/>
    <path clip-path="url(#p21d9a6bfb4)" d="M 223.626747 255.487104 
L 224.09002 275.084877 
L 228.526023 268.836515 
z
" style="stroke:#000000;"/>
    <path clip-path="url(#p21d9a6bfb4)" d="M 213.62405 99.1377 
L 219.509945 113.14409 
L 209.491383 113.456607 
z
" style="stroke:#000000;"/>
    <path clip-path="url(#p21d9a6bfb4)" d="M 214.089117 274.586848 
L 218.834986 260.852537 
L 208.813837 260.423641 
z
" style="stroke:#000000;"/>
    <path clip-path="url(#p21d9a6bfb4)" d="M 218.834986 260.852537 
L 214.089117 274.586848 
L 224.09002 275.084877 
z
" style="stroke:#000000;"/>
    <path clip-path="url(#p21d9a6bfb4)" d="M 219.509945 113.14409 
L 213.62405 99.1377 
L 223.626747 98.75438 
z
" style="stroke:#000000;"/>
    <path clip-path="url(#p21d9a6bfb4)" d="M 204.378788 245.156084 
L 209.491383 240.780248 
L 208.813837 260.423641 
z
" style="stroke:#000000;"/>
    <path clip-path="url(#p21d9a6bfb4)" d="M 209.491383 113.456607 
L 204.378788 109.095995 
L 208.813837 93.815231 
z
" style="stroke:#000000;"/>
    <path clip-path="url(#p21d9a6bfb4)" d="M 223.626747 255.487104 
L 209.491383 240.780248 
L 219.509945 241.109824 
z
" style="stroke:#000000;"/>
    <path clip-path="url(#p21d9a6bfb4)" d="M 224.09002 79.155207 
L 208.813837 93.815231 
L 218.834986 93.403415 
z
" style="stroke:#000000;"/>
    <path clip-path="url(#p21d9a6bfb4)" d="M 209.491383 240.780248 
L 204.378788 245.156084 
L 206.207785 225.630018 
z
" style="stroke:#000000;"/>
    <path clip-path="url(#p21d9a6bfb4)" d="M 204.378788 109.095995 
L 209.491383 113.456607 
L 206.207785 128.616614 
z
" style="stroke:#000000;"/>
    <path clip-path="url(#p21d9a6bfb4)" d="M 206.207785 225.630018 
L 219.509945 241.109824 
L 209.491383 240.780248 
z
" style="stroke:#000000;"/>
    <path clip-path="url(#p21d9a6bfb4)" d="M 218.834986 93.403415 
L 223.626747 98.75438 
L 224.09002 79.155207 
z
" style="stroke:#000000;"/>
    <path clip-path="url(#p21d9a6bfb4)" d="M 223.626747 255.487104 
L 218.834986 260.852537 
L 224.09002 275.084877 
z
" style="stroke:#000000;"/>
    <path clip-path="url(#p21d9a6bfb4)" d="M 204.378788 109.095995 
L 218.834986 93.403415 
L 208.813837 93.815231 
z
" style="stroke:#000000;"/>
    <path clip-path="url(#p21d9a6bfb4)" d="M 209.491383 113.456607 
L 216.238845 128.379864 
L 206.207785 128.616614 
z
" style="stroke:#000000;"/>
    <path clip-path="url(#p21d9a6bfb4)" d="M 223.626747 98.75438 
L 218.834986 93.403415 
L 219.509945 113.14409 
z
" style="stroke:#000000;"/>
    <path clip-path="url(#p21d9a6bfb4)" d="M 218.834986 260.852537 
L 223.626747 255.487104 
L 219.509945 241.109824 
z
" style="stroke:#000000;"/>
    <path clip-path="url(#p21d9a6bfb4)" d="M 216.238845 128.379864 
L 209.491383 113.456607 
L 219.509945 113.14409 
z
" style="stroke:#000000;"/>
    <path clip-path="url(#p21d9a6bfb4)" d="M 208.813837 260.423641 
L 214.416768 245.509319 
L 204.378788 245.156084 
z
" style="stroke:#000000;"/>
    <path clip-path="url(#p21d9a6bfb4)" d="M 200.853413 228.97665 
L 206.207785 225.630018 
L 204.378788 245.156084 
z
" style="stroke:#000000;"/>
    <path clip-path="url(#p21d9a6bfb4)" d="M 206.207785 128.616614 
L 200.853413 125.285927 
L 204.378788 109.095995 
z
" style="stroke:#000000;"/>
    <path clip-path="url(#p21d9a6bfb4)" d="M 206.207785 225.630018 
L 200.853413 228.97665 
L 203.82449 209.831206 
z
" style="stroke:#000000;"/>
    <path clip-path="url(#p21d9a6bfb4)" d="M 200.853413 125.285927 
L 206.207785 128.616614 
L 203.82449 144.422523 
z
" style="stroke:#000000;"/>
    <path clip-path="url(#p21d9a6bfb4)" d="M 214.416768 245.509319 
L 208.813837 260.423641 
L 218.834986 260.852537 
z
" style="stroke:#000000;"/>
    <path clip-path="url(#p21d9a6bfb4)" d="M 203.82449 209.831206 
L 216.238845 225.883927 
L 206.207785 225.630018 
z
" style="stroke:#000000;"/>
    <path clip-path="url(#p21d9a6bfb4)" d="M 219.509945 241.109824 
L 206.207785 225.630018 
L 216.238845 225.883927 
z
" style="stroke:#000000;"/>
    <path clip-path="url(#p21d9a6bfb4)" d="M 206.207785 128.616614 
L 213.864562 144.265383 
L 203.82449 144.422523 
z
" style="stroke:#000000;"/>
    <path clip-path="url(#p21d9a6bfb4)" d="M 218.834986 93.403415 
L 204.378788 109.095995 
L 214.416768 108.759974 
z
" style="stroke:#000000;"/>
    <path clip-path="url(#p21d9a6bfb4)" d="M 214.416768 108.759974 
L 219.509945 113.14409 
L 218.834986 93.403415 
z
" style="stroke:#000000;"/>
    <path clip-path="url(#p21d9a6bfb4)" d="M 219.509945 241.109824 
L 214.416768 245.509319 
L 218.834986 260.852537 
z
" style="stroke:#000000;"/>
    <path clip-path="url(#p21d9a6bfb4)" d="M 213.864562 144.265383 
L 206.207785 128.616614 
L 216.238845 128.379864 
z
" style="stroke:#000000;"/>
    <path clip-path="url(#p21d9a6bfb4)" d="M 203.82449 209.831206 
L 198.293724 212.095521 
L 202.37917 193.592098 
z
" style="stroke:#000000;"/>
    <path clip-path="url(#p21d9a6bfb4)" d="M 198.293724 142.174678 
L 203.82449 144.422523 
L 202.37917 160.665935 
z
" style="stroke:#000000;"/>
    <path clip-path="url(#p21d9a6bfb4)" d="M 202.37917 193.592098 
L 213.864562 210.005577 
L 203.82449 209.831206 
z
" style="stroke:#000000;"/>
    <path clip-path="url(#p21d9a6bfb4)" d="M 200.853413 125.285927 
L 214.416768 108.759974 
L 204.378788 109.095995 
z
" style="stroke:#000000;"/>
    <path clip-path="url(#p21d9a6bfb4)" d="M 198.293724 212.095521 
L 203.82449 209.831206 
L 200.853413 228.97665 
z
" style="stroke:#000000;"/>
    <path clip-path="url(#p21d9a6bfb4)" d="M 203.82449 144.422523 
L 198.293724 142.174678 
L 200.853413 125.285927 
z
" style="stroke:#000000;"/>
    <path clip-path="url(#p21d9a6bfb4)" d="M 219.509945 113.14409 
L 214.416768 108.759974 
L 216.238845 128.379864 
z
" style="stroke:#000000;"/>
    <path clip-path="url(#p21d9a6bfb4)" d="M 214.416768 245.509319 
L 219.509945 241.109824 
L 216.238845 225.883927 
z
" style="stroke:#000000;"/>
    <path clip-path="url(#p21d9a6bfb4)" d="M 203.82449 144.422523 
L 212.424682 160.591026 
L 202.37917 160.665935 
z
" style="stroke:#000000;"/>
    <path clip-path="url(#p21d9a6bfb4)" d="M 216.238845 225.883927 
L 203.82449 209.831206 
L 213.864562 210.005577 
z
" style="stroke:#000000;"/>
    <path clip-path="url(#p21d9a6bfb4)" d="M 196.741045 159.53713 
L 202.37917 160.665935 
L 201.894788 177.129738 
z
" style="stroke:#000000;"/>
    <path clip-path="url(#p21d9a6bfb4)" d="M 202.37917 193.592098 
L 196.741045 194.737693 
L 201.894788 177.129738 
z
" style="stroke:#000000;"/>
    <path clip-path="url(#p21d9a6bfb4)" d="M 201.894788 177.129738 
L 212.424682 193.684281 
L 202.37917 193.592098 
z
" style="stroke:#000000;"/>
    <path clip-path="url(#p21d9a6bfb4)" d="M 202.37917 160.665935 
L 211.942119 177.138382 
L 201.894788 177.129738 
z
" style="stroke:#000000;"/>
    <path clip-path="url(#p21d9a6bfb4)" d="M 204.378788 245.156084 
L 210.904648 229.248764 
L 200.853413 228.97665 
z
" style="stroke:#000000;"/>
    <path clip-path="url(#p21d9a6bfb4)" d="M 212.424682 160.591026 
L 203.82449 144.422523 
L 213.864562 144.265383 
z
" style="stroke:#000000;"/>
    <path clip-path="url(#p21d9a6bfb4)" d="M 210.904648 229.248764 
L 204.378788 245.156084 
L 214.416768 245.509319 
z
" style="stroke:#000000;"/>
    <path clip-path="url(#p21d9a6bfb4)" d="M 196.741045 194.737693 
L 202.37917 193.592098 
L 198.293724 212.095521 
z
" style="stroke:#000000;"/>
    <path clip-path="url(#p21d9a6bfb4)" d="M 202.37917 160.665935 
L 196.741045 159.53713 
L 198.293724 142.174678 
z
" style="stroke:#000000;"/>
    <path clip-path="url(#p21d9a6bfb4)" d="M 213.864562 210.005577 
L 202.37917 193.592098 
L 212.424682 193.684281 
z
" style="stroke:#000000;"/>
    <path clip-path="url(#p21d9a6bfb4)" d="M 211.942119 177.138382 
L 202.37917 160.665935 
L 212.424682 160.591026 
z
" style="stroke:#000000;"/>
    <path clip-path="url(#p21d9a6bfb4)" d="M 196.220663 177.138186 
L 201.894788 177.129738 
L 196.741045 194.737693 
z
" style="stroke:#000000;"/>
    <path clip-path="url(#p21d9a6bfb4)" d="M 201.894788 177.129738 
L 196.220663 177.138186 
L 196.741045 159.53713 
z
" style="stroke:#000000;"/>
    <path clip-path="url(#p21d9a6bfb4)" d="M 212.424682 193.684281 
L 201.894788 177.129738 
L 211.942119 177.138382 
z
" style="stroke:#000000;"/>
    <path clip-path="url(#p21d9a6bfb4)" d="M 214.416768 108.759974 
L 200.853413 125.285927 
L 210.904648 125.031133 
z
" style="stroke:#000000;"/>
    <path clip-path="url(#p21d9a6bfb4)" d="M 198.293724 142.174678 
L 210.904648 125.031133 
L 200.853413 125.285927 
z
" style="stroke:#000000;"/>
    <path clip-path="url(#p21d9a6bfb4)" d="M 210.904648 125.031133 
L 216.238845 128.379864 
L 214.416768 108.759974 
z
" style="stroke:#000000;"/>
    <path clip-path="url(#p21d9a6bfb4)" d="M 216.238845 225.883927 
L 210.904648 229.248764 
L 214.416768 245.509319 
z
" style="stroke:#000000;"/>
    <path clip-path="url(#p21d9a6bfb4)" d="M 216.238845 128.379864 
L 210.904648 125.031133 
L 213.864562 144.265383 
z
" style="stroke:#000000;"/>
    <path clip-path="url(#p21d9a6bfb4)" d="M 210.904648 229.248764 
L 216.238845 225.883927 
L 213.864562 210.005577 
z
" style="stroke:#000000;"/>
    <path clip-path="url(#p21d9a6bfb4)" d="M 200.853413 228.97665 
L 208.354515 212.282272 
L 198.293724 212.095521 
z
" style="stroke:#000000;"/>
    <path clip-path="url(#p21d9a6bfb4)" d="M 202.835033 69.938091 
L 188.566991 102.536092 
L 198.118284 71.604844 
z
" style="stroke:#000000;"/>
    <path clip-path="url(#p21d9a6bfb4)" d="M 198.118284 71.604844 
L 188.566991 51.663258 
L 202.835033 69.938091 
z
" style="stroke:#000000;"/>
    <path clip-path="url(#p21d9a6bfb4)" d="M 208.354515 212.282272 
L 200.853413 228.97665 
L 210.904648 229.248764 
z
" style="stroke:#000000;"/>
    <path clip-path="url(#p21d9a6bfb4)" d="M 196.741045 159.53713 
L 208.354515 142.005325 
L 198.293724 142.174678 
z
" style="stroke:#000000;"/>
    <path clip-path="url(#p21d9a6bfb4)" d="M 213.864562 144.265383 
L 208.354515 142.005325 
L 212.424682 160.591026 
z
" style="stroke:#000000;"/>
    <path clip-path="url(#p21d9a6bfb4)" d="M 208.354515 212.282272 
L 213.864562 210.005577 
L 212.424682 193.684281 
z
" style="stroke:#000000;"/>
    <path clip-path="url(#p21d9a6bfb4)" d="M 198.293724 212.095521 
L 206.807604 194.836176 
L 196.741045 194.737693 
z
" style="stroke:#000000;"/>
    <path clip-path="url(#p21d9a6bfb4)" d="M 210.904648 125.031133 
L 198.293724 142.174678 
L 208.354515 142.005325 
z
" style="stroke:#000000;"/>
    <path clip-path="url(#p21d9a6bfb4)" d="M 208.354515 142.005325 
L 213.864562 144.265383 
L 210.904648 125.031133 
z
" style="stroke:#000000;"/>
    <path clip-path="url(#p21d9a6bfb4)" d="M 213.864562 210.005577 
L 208.354515 212.282272 
L 210.904648 229.248764 
z
" style="stroke:#000000;"/>
    <path clip-path="url(#p21d9a6bfb4)" d="M 196.220663 177.138186 
L 206.807604 159.456093 
L 196.741045 159.53713 
z
" style="stroke:#000000;"/>
    <path clip-path="url(#p21d9a6bfb4)" d="M 206.807604 194.836176 
L 212.424682 193.684281 
L 211.942119 177.138382 
z
" style="stroke:#000000;"/>
    <path clip-path="url(#p21d9a6bfb4)" d="M 212.424682 160.591026 
L 206.807604 159.456093 
L 211.942119 177.138382 
z
" style="stroke:#000000;"/>
    <path clip-path="url(#p21d9a6bfb4)" d="M 196.741045 194.737693 
L 206.28915 177.146917 
L 196.220663 177.138186 
z
" style="stroke:#000000;"/>
    <path clip-path="url(#p21d9a6bfb4)" d="M 202.835033 69.938091 
L 198.663563 51.027561 
L 212.878831 69.402977 
z
" style="stroke:#000000;"/>
    <path clip-path="url(#p21d9a6bfb4)" d="M 198.663563 119.206409 
L 202.835033 69.938091 
L 212.878831 69.402977 
z
" style="stroke:#000000;"/>
    <path clip-path="url(#p21d9a6bfb4)" d="M 206.807604 194.836176 
L 198.293724 212.095521 
L 208.354515 212.282272 
z
" style="stroke:#000000;"/>
    <path clip-path="url(#p21d9a6bfb4)" d="M 208.354515 142.005325 
L 196.741045 159.53713 
L 206.807604 159.456093 
z
" style="stroke:#000000;"/>
    <path clip-path="url(#p21d9a6bfb4)" d="M 188.566991 102.536092 
L 202.835033 69.938091 
L 188.566991 119.493703 
z
" style="stroke:#000000;"/>
    <path clip-path="url(#p21d9a6bfb4)" d="M 206.807604 159.456093 
L 212.424682 160.591026 
L 208.354515 142.005325 
z
" style="stroke:#000000;"/>
    <path clip-path="url(#p21d9a6bfb4)" d="M 212.424682 193.684281 
L 206.807604 194.836176 
L 208.354515 212.282272 
z
" style="stroke:#000000;"/>
    <path clip-path="url(#p21d9a6bfb4)" d="M 208.179727 71.076 
L 188.566991 60.142063 
L 198.118284 71.604844 
z
" style="stroke:#000000;"/>
    <path clip-path="url(#p21d9a6bfb4)" d="M 188.566991 102.536092 
L 208.179727 71.076 
L 198.118284 71.604844 
z
" style="stroke:#000000;"/>
    <path clip-path="url(#p21d9a6bfb4)" d="M 206.28915 177.146917 
L 196.741045 194.737693 
L 206.807604 194.836176 
z
" style="stroke:#000000;"/>
    <path clip-path="url(#p21d9a6bfb4)" d="M 206.807604 159.456093 
L 196.220663 177.138186 
L 206.28915 177.146917 
z
" style="stroke:#000000;"/>
    <path clip-path="url(#p21d9a6bfb4)" d="M 206.28915 177.146917 
L 211.942119 177.138382 
L 206.807604 159.456093 
z
" style="stroke:#000000;"/>
    <path clip-path="url(#p21d9a6bfb4)" d="M 211.942119 177.138382 
L 206.28915 177.146917 
L 206.807604 194.836176 
z
" style="stroke:#000000;"/>
    <path clip-path="url(#p21d9a6bfb4)" d="M 188.566991 51.663258 
L 198.118284 71.604844 
L 188.566991 60.142063 
z
" style="stroke:#000000;"/>
    <path clip-path="url(#p21d9a6bfb4)" d="M 198.663563 51.027561 
L 202.835033 69.938091 
L 188.566991 51.663258 
z
" style="stroke:#000000;"/>
    <path clip-path="url(#p21d9a6bfb4)" d="M 202.835033 69.938091 
L 198.663563 119.206409 
L 188.566991 119.493703 
z
" style="stroke:#000000;"/>
    <path clip-path="url(#p21d9a6bfb4)" d="M 198.663563 51.027561 
L 208.179727 71.076 
L 212.878831 69.402977 
z
" style="stroke:#000000;"/>
    <path clip-path="url(#p21d9a6bfb4)" d="M 198.663563 102.161697 
L 212.878831 69.402977 
L 208.179727 71.076 
z
" style="stroke:#000000;"/>
    <path clip-path="url(#p21d9a6bfb4)" d="M 188.566991 60.142063 
L 208.179727 71.076 
L 198.663563 59.549917 
z
" style="stroke:#000000;"/>
    <path clip-path="url(#p21d9a6bfb4)" d="M 208.179727 71.076 
L 188.566991 102.536092 
L 198.663563 102.161697 
z
" style="stroke:#000000;"/>
    <path clip-path="url(#p21d9a6bfb4)" d="M 198.663563 102.161697 
L 198.663563 119.206409 
L 212.878831 69.402977 
z
" style="stroke:#000000;"/>
    <path clip-path="url(#p21d9a6bfb4)" d="M 198.663563 51.027561 
L 198.663563 59.549917 
L 208.179727 71.076 
z
" style="stroke:#000000;"/>
    <path clip-path="url(#p21d9a6bfb4)" d="M 178.855343 69.861787 
L 188.566991 51.663258 
L 188.566991 60.142063 
z
" style="stroke:#000000;"/>
    <path clip-path="url(#p21d9a6bfb4)" d="M 173.938118 67.270335 
L 188.566991 102.536092 
L 188.566991 119.493703 
z
" style="stroke:#000000;"/>
    <path clip-path="url(#p21d9a6bfb4)" d="M 198.663563 59.549917 
L 178.855343 69.861787 
L 188.566991 60.142063 
z
" style="stroke:#000000;"/>
    <path clip-path="url(#p21d9a6bfb4)" d="M 178.855343 69.861787 
L 198.663563 102.161697 
L 188.566991 102.536092 
z
" style="stroke:#000000;"/>
    <path clip-path="url(#p21d9a6bfb4)" d="M 188.566991 102.536092 
L 173.938118 67.270335 
L 178.855343 69.861787 
z
" style="stroke:#000000;"/>
    <path clip-path="url(#p21d9a6bfb4)" d="M 188.566991 51.663258 
L 178.855343 69.861787 
L 173.938118 67.270335 
z
" style="stroke:#000000;"/>
    <path clip-path="url(#p21d9a6bfb4)" d="M 188.566991 51.663258 
L 184.086928 66.707741 
L 198.663563 51.027561 
z
" style="stroke:#000000;"/>
    <path clip-path="url(#p21d9a6bfb4)" d="M 184.086928 66.707741 
L 188.566991 119.493703 
L 198.663563 119.206409 
z
" style="stroke:#000000;"/>
    <path clip-path="url(#p21d9a6bfb4)" d="M 198.663563 51.027561 
L 188.986805 69.31499 
L 198.663563 59.549917 
z
" style="stroke:#000000;"/>
    <path clip-path="url(#p21d9a6bfb4)" d="M 174.924876 177.169894 
L 180.810694 177.161131 
L 180.275776 195.014479 
z
" style="stroke:#000000;"/>
    <path clip-path="url(#p21d9a6bfb4)" d="M 180.810694 177.161131 
L 174.924876 177.169894 
L 180.275776 159.309375 
z
" style="stroke:#000000;"/>
    <path clip-path="url(#p21d9a6bfb4)" d="M 180.275776 159.309375 
L 190.935199 177.170098 
L 180.810694 177.161131 
z
" style="stroke:#000000;"/>
    <path clip-path="url(#p21d9a6bfb4)" d="M 180.810694 177.161131 
L 190.402187 195.115812 
L 180.275776 195.014479 
z
" style="stroke:#000000;"/>
    <path clip-path="url(#p21d9a6bfb4)" d="M 178.855343 69.861787 
L 198.663563 59.549917 
L 188.986805 69.31499 
z
" style="stroke:#000000;"/>
    <path clip-path="url(#p21d9a6bfb4)" d="M 198.663563 102.161697 
L 178.855343 69.861787 
L 188.986805 69.31499 
z
" style="stroke:#000000;"/>
    <path clip-path="url(#p21d9a6bfb4)" d="M 174.416943 194.036447 
L 180.275776 195.014479 
L 178.673906 212.722645 
z
" style="stroke:#000000;"/>
    <path clip-path="url(#p21d9a6bfb4)" d="M 180.275776 159.309375 
L 174.416943 160.304854 
L 178.673906 141.605979 
z
" style="stroke:#000000;"/>
    <path clip-path="url(#p21d9a6bfb4)" d="M 178.673906 141.605979 
L 190.402187 159.225992 
L 180.275776 159.309375 
z
" style="stroke:#000000;"/>
    <path clip-path="url(#p21d9a6bfb4)" d="M 198.663563 102.161697 
L 184.086928 66.707741 
L 198.663563 119.206409 
z
" style="stroke:#000000;"/>
    <path clip-path="url(#p21d9a6bfb4)" d="M 180.275776 195.014479 
L 188.806012 212.915855 
L 178.673906 212.722645 
z
" style="stroke:#000000;"/>
    <path clip-path="url(#p21d9a6bfb4)" d="M 184.086928 66.707741 
L 188.566991 51.663258 
L 173.938118 67.270335 
z
" style="stroke:#000000;"/>
    <path clip-path="url(#p21d9a6bfb4)" d="M 188.566991 119.493703 
L 184.086928 66.707741 
L 173.938118 67.270335 
z
" style="stroke:#000000;"/>
    <path clip-path="url(#p21d9a6bfb4)" d="M 190.402187 195.115812 
L 180.810694 177.161131 
L 190.935199 177.170098 
z
" style="stroke:#000000;"/>
    <path clip-path="url(#p21d9a6bfb4)" d="M 174.416943 160.304854 
L 180.275776 159.309375 
L 174.924876 177.169894 
z
" style="stroke:#000000;"/>
    <path clip-path="url(#p21d9a6bfb4)" d="M 180.275776 195.014479 
L 174.416943 194.036447 
L 174.924876 177.169894 
z
" style="stroke:#000000;"/>
    <path clip-path="url(#p21d9a6bfb4)" d="M 190.935199 177.170098 
L 180.275776 159.309375 
L 190.402187 159.225992 
z
" style="stroke:#000000;"/>
    <path clip-path="url(#p21d9a6bfb4)" d="M 172.896155 210.76324 
L 178.673906 212.722645 
L 176.013943 230.138724 
z
" style="stroke:#000000;"/>
    <path clip-path="url(#p21d9a6bfb4)" d="M 178.673906 141.605979 
L 172.896155 143.582589 
L 176.013943 124.197821 
z
" style="stroke:#000000;"/>
    <path clip-path="url(#p21d9a6bfb4)" d="M 176.013943 124.197821 
L 188.806012 141.430769 
L 178.673906 141.605979 
z
" style="stroke:#000000;"/>
    <path clip-path="url(#p21d9a6bfb4)" d="M 188.806012 212.915855 
L 180.275776 195.014479 
L 190.402187 195.115812 
z
" style="stroke:#000000;"/>
    <path clip-path="url(#p21d9a6bfb4)" d="M 178.673906 212.722645 
L 172.896155 210.76324 
L 174.416943 194.036447 
z
" style="stroke:#000000;"/>
    <path clip-path="url(#p21d9a6bfb4)" d="M 172.896155 143.582589 
L 178.673906 141.605979 
L 174.416943 160.304854 
z
" style="stroke:#000000;"/>
    <path clip-path="url(#p21d9a6bfb4)" d="M 190.402187 159.225992 
L 178.673906 141.605979 
L 188.806012 141.430769 
z
" style="stroke:#000000;"/>
    <path clip-path="url(#p21d9a6bfb4)" d="M 178.673906 212.722645 
L 186.155456 230.422809 
L 176.013943 230.138724 
z
" style="stroke:#000000;"/>
    <path clip-path="url(#p21d9a6bfb4)" d="M 188.986805 69.31499 
L 198.663563 51.027561 
L 184.086928 66.707741 
z
" style="stroke:#000000;"/>
    <path clip-path="url(#p21d9a6bfb4)" d="M 184.086928 66.707741 
L 198.663563 102.161697 
L 188.986805 69.31499 
z
" style="stroke:#000000;"/>
    <path clip-path="url(#p21d9a6bfb4)" d="M 186.155456 230.422809 
L 178.673906 212.722645 
L 188.806012 212.915855 
z
" style="stroke:#000000;"/>
    <path clip-path="url(#p21d9a6bfb4)" d="M 176.013943 230.138724 
L 170.371297 227.20918 
L 172.896155 210.76324 
z
" style="stroke:#000000;"/>
    <path clip-path="url(#p21d9a6bfb4)" d="M 170.371297 127.144168 
L 176.013943 124.197821 
L 172.896155 143.582589 
z
" style="stroke:#000000;"/>
    <path clip-path="url(#p21d9a6bfb4)" d="M 170.371297 227.20918 
L 176.013943 230.138724 
L 172.310842 247.11565 
z
" style="stroke:#000000;"/>
    <path clip-path="url(#p21d9a6bfb4)" d="M 176.013943 124.197821 
L 170.371297 127.144168 
L 172.310842 107.231922 
z
" style="stroke:#000000;"/>
    <path clip-path="url(#p21d9a6bfb4)" d="M 188.806012 141.430769 
L 176.013943 124.197821 
L 186.155456 123.931819 
z
" style="stroke:#000000;"/>
    <path clip-path="url(#p21d9a6bfb4)" d="M 172.310842 107.231922 
L 186.155456 123.931819 
L 176.013943 124.197821 
z
" style="stroke:#000000;"/>
    <path clip-path="url(#p21d9a6bfb4)" d="M 174.416943 194.036447 
L 185.070222 177.178952 
L 174.924876 177.169894 
z
" style="stroke:#000000;"/>
    <path clip-path="url(#p21d9a6bfb4)" d="M 185.070222 177.178952 
L 190.935199 177.170098 
L 190.402187 159.225992 
z
" style="stroke:#000000;"/>
    <path clip-path="url(#p21d9a6bfb4)" d="M 190.935199 177.170098 
L 185.070222 177.178952 
L 190.402187 195.115812 
z
" style="stroke:#000000;"/>
    <path clip-path="url(#p21d9a6bfb4)" d="M 174.924876 177.169894 
L 184.564073 160.226226 
L 174.416943 160.304854 
z
" style="stroke:#000000;"/>
    <path clip-path="url(#p21d9a6bfb4)" d="M 172.896155 210.76324 
L 184.564073 194.133207 
L 174.416943 194.036447 
z
" style="stroke:#000000;"/>
    <path clip-path="url(#p21d9a6bfb4)" d="M 184.564073 160.226226 
L 190.402187 159.225992 
L 188.806012 141.430769 
z
" style="stroke:#000000;"/>
    <path clip-path="url(#p21d9a6bfb4)" d="M 190.402187 195.115812 
L 184.564073 194.133207 
L 188.806012 212.915855 
z
" style="stroke:#000000;"/>
    <path clip-path="url(#p21d9a6bfb4)" d="M 176.013943 230.138724 
L 182.465345 247.489071 
L 172.310842 247.11565 
z
" style="stroke:#000000;"/>
    <path clip-path="url(#p21d9a6bfb4)" d="M 174.416943 160.304854 
L 183.048613 143.416797 
L 172.896155 143.582589 
z
" style="stroke:#000000;"/>
    <path clip-path="url(#p21d9a6bfb4)" d="M 182.465345 247.489071 
L 176.013943 230.138724 
L 186.155456 230.422809 
z
" style="stroke:#000000;"/>
    <path clip-path="url(#p21d9a6bfb4)" d="M 184.564073 160.226226 
L 174.924876 177.169894 
L 185.070222 177.178952 
z
" style="stroke:#000000;"/>
    <path clip-path="url(#p21d9a6bfb4)" d="M 185.070222 177.178952 
L 174.416943 194.036447 
L 184.564073 194.133207 
z
" style="stroke:#000000;"/>
    <path clip-path="url(#p21d9a6bfb4)" d="M 184.564073 194.133207 
L 190.402187 195.115812 
L 185.070222 177.178952 
z
" style="stroke:#000000;"/>
    <path clip-path="url(#p21d9a6bfb4)" d="M 190.402187 159.225992 
L 184.564073 160.226226 
L 185.070222 177.178952 
z
" style="stroke:#000000;"/>
    <path clip-path="url(#p21d9a6bfb4)" d="M 170.371297 227.20918 
L 183.048613 210.947212 
L 172.896155 210.76324 
z
" style="stroke:#000000;"/>
    <path clip-path="url(#p21d9a6bfb4)" d="M 172.310842 247.11565 
L 166.857301 243.232974 
L 170.371297 227.20918 
z
" style="stroke:#000000;"/>
    <path clip-path="url(#p21d9a6bfb4)" d="M 166.857301 111.130838 
L 172.310842 107.231922 
L 170.371297 127.144168 
z
" style="stroke:#000000;"/>
    <path clip-path="url(#p21d9a6bfb4)" d="M 183.048613 143.416797 
L 174.416943 160.304854 
L 184.564073 160.226226 
z
" style="stroke:#000000;"/>
    <path clip-path="url(#p21d9a6bfb4)" d="M 183.048613 143.416797 
L 188.806012 141.430769 
L 186.155456 123.931819 
z
" style="stroke:#000000;"/>
    <path clip-path="url(#p21d9a6bfb4)" d="M 188.806012 212.915855 
L 183.048613 210.947212 
L 186.155456 230.422809 
z
" style="stroke:#000000;"/>
    <path clip-path="url(#p21d9a6bfb4)" d="M 186.155456 123.931819 
L 172.310842 107.231922 
L 182.465345 106.876699 
z
" style="stroke:#000000;"/>
    <path clip-path="url(#p21d9a6bfb4)" d="M 184.564073 194.133207 
L 172.896155 210.76324 
L 183.048613 210.947212 
z
" style="stroke:#000000;"/>
    <path clip-path="url(#p21d9a6bfb4)" d="M 188.806012 141.430769 
L 183.048613 143.416797 
L 184.564073 160.226226 
z
" style="stroke:#000000;"/>
    <path clip-path="url(#p21d9a6bfb4)" d="M 183.048613 210.947212 
L 188.806012 212.915855 
L 184.564073 194.133207 
z
" style="stroke:#000000;"/>
    <path clip-path="url(#p21d9a6bfb4)" d="M 172.896155 143.582589 
L 180.532556 126.892249 
L 170.371297 127.144168 
z
" style="stroke:#000000;"/>
    <path clip-path="url(#p21d9a6bfb4)" d="M 166.857301 243.232974 
L 172.310842 247.11565 
L 167.585773 263.506551 
z
" style="stroke:#000000;"/>
    <path clip-path="url(#p21d9a6bfb4)" d="M 172.310842 107.231922 
L 166.857301 111.130838 
L 167.585773 90.855092 
z
" style="stroke:#000000;"/>
    <path clip-path="url(#p21d9a6bfb4)" d="M 167.585773 90.855092 
L 182.465345 106.876699 
L 172.310842 107.231922 
z
" style="stroke:#000000;"/>
    <path clip-path="url(#p21d9a6bfb4)" d="M 180.532556 126.892249 
L 172.896155 143.582589 
L 183.048613 143.416797 
z
" style="stroke:#000000;"/>
    <path clip-path="url(#p21d9a6bfb4)" d="M 166.857301 243.232974 
L 180.532556 227.479357 
L 170.371297 227.20918 
z
" style="stroke:#000000;"/>
    <path clip-path="url(#p21d9a6bfb4)" d="M 183.048613 210.947212 
L 170.371297 227.20918 
L 180.532556 227.479357 
z
" style="stroke:#000000;"/>
    <path clip-path="url(#p21d9a6bfb4)" d="M 172.310842 247.11565 
L 177.756676 263.967207 
L 167.585773 263.506551 
z
" style="stroke:#000000;"/>
    <path clip-path="url(#p21d9a6bfb4)" d="M 186.155456 123.931819 
L 180.532556 126.892249 
L 183.048613 143.416797 
z
" style="stroke:#000000;"/>
    <path clip-path="url(#p21d9a6bfb4)" d="M 180.532556 227.479357 
L 186.155456 230.422809 
L 183.048613 210.947212 
z
" style="stroke:#000000;"/>
    <path clip-path="url(#p21d9a6bfb4)" d="M 180.532556 126.892249 
L 186.155456 123.931819 
L 182.465345 106.876699 
z
" style="stroke:#000000;"/>
    <path clip-path="url(#p21d9a6bfb4)" d="M 186.155456 230.422809 
L 180.532556 227.479357 
L 182.465345 247.489071 
z
" style="stroke:#000000;"/>
    <path clip-path="url(#p21d9a6bfb4)" d="M 177.756676 263.967207 
L 172.310842 247.11565 
L 182.465345 247.489071 
z
" style="stroke:#000000;"/>
    <path clip-path="url(#p21d9a6bfb4)" d="M 170.371297 127.144168 
L 177.030715 110.79436 
L 166.857301 111.130838 
z
" style="stroke:#000000;"/>
    <path clip-path="url(#p21d9a6bfb4)" d="M 167.585773 263.506551 
L 162.37539 258.693712 
L 166.857301 243.232974 
z
" style="stroke:#000000;"/>
    <path clip-path="url(#p21d9a6bfb4)" d="M 162.37539 95.683446 
L 167.585773 90.855092 
L 166.857301 111.130838 
z
" style="stroke:#000000;"/>
    <path clip-path="url(#p21d9a6bfb4)" d="M 177.030715 110.79436 
L 170.371297 127.144168 
L 180.532556 126.892249 
z
" style="stroke:#000000;"/>
    <path clip-path="url(#p21d9a6bfb4)" d="M 182.465345 106.876699 
L 167.585773 90.855092 
L 177.756676 90.41278 
z
" style="stroke:#000000;"/>
    <path clip-path="url(#p21d9a6bfb4)" d="M 161.866827 279.163818 
L 162.37539 258.693712 
L 167.585773 263.506551 
z
" style="stroke:#000000;"/>
    <path clip-path="url(#p21d9a6bfb4)" d="M 162.37539 95.683446 
L 161.866827 75.214855 
L 167.585773 90.855092 
z
" style="stroke:#000000;"/>
    <path clip-path="url(#p21d9a6bfb4)" d="M 180.532556 227.479357 
L 166.857301 243.232974 
L 177.030715 243.58782 
z
" style="stroke:#000000;"/>
    <path clip-path="url(#p21d9a6bfb4)" d="M 182.465345 106.876699 
L 177.030715 110.79436 
L 180.532556 126.892249 
z
" style="stroke:#000000;"/>
    <path clip-path="url(#p21d9a6bfb4)" d="M 177.030715 243.58782 
L 182.465345 247.489071 
L 180.532556 227.479357 
z
" style="stroke:#000000;"/>
    <path clip-path="url(#p21d9a6bfb4)" d="M 161.866827 75.214855 
L 177.756676 90.41278 
L 167.585773 90.855092 
z
" style="stroke:#000000;"/>
    <path clip-path="url(#p21d9a6bfb4)" d="M 162.37539 258.693712 
L 177.030715 243.58782 
L 166.857301 243.232974 
z
" style="stroke:#000000;"/>
    <path clip-path="url(#p21d9a6bfb4)" d="M 177.030715 110.79436 
L 182.465345 106.876699 
L 177.756676 90.41278 
z
" style="stroke:#000000;"/>
    <path clip-path="url(#p21d9a6bfb4)" d="M 182.465345 247.489071 
L 177.030715 243.58782 
L 177.756676 263.967207 
z
" style="stroke:#000000;"/>
    <path clip-path="url(#p21d9a6bfb4)" d="M 166.857301 111.130838 
L 172.564149 95.264532 
L 162.37539 95.683446 
z
" style="stroke:#000000;"/>
    <path clip-path="url(#p21d9a6bfb4)" d="M 167.585773 263.506551 
L 172.057316 279.709011 
L 161.866827 279.163818 
z
" style="stroke:#000000;"/>
    <path clip-path="url(#p21d9a6bfb4)" d="M 172.057316 279.709011 
L 167.585773 263.506551 
L 177.756676 263.967207 
z
" style="stroke:#000000;"/>
    <path clip-path="url(#p21d9a6bfb4)" d="M 172.564149 95.264532 
L 166.857301 111.130838 
L 177.030715 110.79436 
z
" style="stroke:#000000;"/>
    <path clip-path="url(#p21d9a6bfb4)" d="M 161.866827 279.163818 
L 156.953375 273.451112 
L 162.37539 258.693712 
z
" style="stroke:#000000;"/>
    <path clip-path="url(#p21d9a6bfb4)" d="M 156.953375 80.942193 
L 161.866827 75.214855 
L 162.37539 95.683446 
z
" style="stroke:#000000;"/>
    <path clip-path="url(#p21d9a6bfb4)" d="M 177.030715 243.58782 
L 162.37539 258.693712 
L 172.564149 259.131134 
z
" style="stroke:#000000;"/>
    <path clip-path="url(#p21d9a6bfb4)" d="M 177.756676 90.41278 
L 161.866827 75.214855 
L 172.057316 74.688186 
z
" style="stroke:#000000;"/>
    <path clip-path="url(#p21d9a6bfb4)" d="M 177.756676 90.41278 
L 172.564149 95.264532 
L 177.030715 110.79436 
z
" style="stroke:#000000;"/>
    <path clip-path="url(#p21d9a6bfb4)" d="M 172.564149 259.131134 
L 177.756676 263.967207 
L 177.030715 243.58782 
z
" style="stroke:#000000;"/>
    <path clip-path="url(#p21d9a6bfb4)" d="M 156.953375 273.451112 
L 172.564149 259.131134 
L 162.37539 258.693712 
z
" style="stroke:#000000;"/>
    <path clip-path="url(#p21d9a6bfb4)" d="M 155.189159 293.94174 
L 156.953375 273.451112 
L 161.866827 279.163818 
z
" style="stroke:#000000;"/>
    <path clip-path="url(#p21d9a6bfb4)" d="M 156.953375 80.942193 
L 155.189159 60.456818 
L 161.866827 75.214855 
z
" style="stroke:#000000;"/>
    <path clip-path="url(#p21d9a6bfb4)" d="M 172.057316 74.688186 
L 172.564149 95.264532 
L 177.756676 90.41278 
z
" style="stroke:#000000;"/>
    <path clip-path="url(#p21d9a6bfb4)" d="M 172.564149 259.131134 
L 172.057316 279.709011 
L 177.756676 263.967207 
z
" style="stroke:#000000;"/>
    <path clip-path="url(#p21d9a6bfb4)" d="M 155.189159 60.456818 
L 172.057316 74.688186 
L 161.866827 75.214855 
z
" style="stroke:#000000;"/>
    <path clip-path="url(#p21d9a6bfb4)" d="M 162.37539 95.683446 
L 167.16046 80.443552 
L 156.953375 80.942193 
z
" style="stroke:#000000;"/>
    <path clip-path="url(#p21d9a6bfb4)" d="M 167.16046 80.443552 
L 162.37539 95.683446 
L 172.564149 95.264532 
z
" style="stroke:#000000;"/>
    <path clip-path="url(#p21d9a6bfb4)" d="M 165.402151 294.56813 
L 161.866827 279.163818 
L 172.057316 279.709011 
z
" style="stroke:#000000;"/>
    <path clip-path="url(#p21d9a6bfb4)" d="M 161.866827 279.163818 
L 165.402151 294.56813 
L 155.189159 293.94174 
z
" style="stroke:#000000;"/>
    <path clip-path="url(#p21d9a6bfb4)" d="M 172.564149 259.131134 
L 156.953375 273.451112 
L 167.16046 273.968431 
z
" style="stroke:#000000;"/>
    <path clip-path="url(#p21d9a6bfb4)" d="M 155.189159 293.94174 
L 150.626113 287.364656 
L 156.953375 273.451112 
z
" style="stroke:#000000;"/>
    <path clip-path="url(#p21d9a6bfb4)" d="M 150.626113 67.04749 
L 155.189159 60.456818 
L 156.953375 80.942193 
z
" style="stroke:#000000;"/>
    <path clip-path="url(#p21d9a6bfb4)" d="M 172.057316 74.688186 
L 167.16046 80.443552 
L 172.564149 95.264532 
z
" style="stroke:#000000;"/>
    <path clip-path="url(#p21d9a6bfb4)" d="M 167.16046 273.968431 
L 172.057316 279.709011 
L 172.564149 259.131134 
z
" style="stroke:#000000;"/>
    <path clip-path="url(#p21d9a6bfb4)" d="M 172.057316 74.688186 
L 155.189159 60.456818 
L 165.402151 59.849161 
z
" style="stroke:#000000;"/>
    <path clip-path="url(#p21d9a6bfb4)" d="M 150.626113 287.364656 
L 167.16046 273.968431 
L 156.953375 273.451112 
z
" style="stroke:#000000;"/>
    <path clip-path="url(#p21d9a6bfb4)" d="M 151.404455 53.613997 
L 165.402151 59.849161 
L 155.189159 60.456818 
z
" style="stroke:#000000;"/>
    <path clip-path="url(#p21d9a6bfb4)" d="M 148.71684 298.741451 
L 155.189159 293.94174 
L 151.404455 300.795831 
z
" style="stroke:#000000;"/>
    <path clip-path="url(#p21d9a6bfb4)" d="M 155.189159 60.456818 
L 148.71684 55.67638 
L 151.404455 53.613997 
z
" style="stroke:#000000;"/>
    <path clip-path="url(#p21d9a6bfb4)" d="M 165.402151 59.849161 
L 167.16046 80.443552 
L 172.057316 74.688186 
z
" style="stroke:#000000;"/>
    <path clip-path="url(#p21d9a6bfb4)" d="M 167.16046 273.968431 
L 165.402151 294.56813 
L 172.057316 279.709011 
z
" style="stroke:#000000;"/>
    <path clip-path="url(#p21d9a6bfb4)" d="M 155.189159 293.94174 
L 148.71684 298.741451 
L 150.626113 287.364656 
z
" style="stroke:#000000;"/>
    <path clip-path="url(#p21d9a6bfb4)" d="M 148.71684 55.67638 
L 155.189159 60.456818 
L 150.626113 67.04749 
z
" style="stroke:#000000;"/>
    <path clip-path="url(#p21d9a6bfb4)" d="M 160.854254 66.47246 
L 156.953375 80.942193 
L 167.16046 80.443552 
z
" style="stroke:#000000;"/>
    <path clip-path="url(#p21d9a6bfb4)" d="M 156.953375 80.942193 
L 160.854254 66.47246 
L 150.626113 67.04749 
z
" style="stroke:#000000;"/>
    <path clip-path="url(#p21d9a6bfb4)" d="M 155.189159 293.94174 
L 161.630025 301.460566 
L 151.404455 300.795831 
z
" style="stroke:#000000;"/>
    <path clip-path="url(#p21d9a6bfb4)" d="M 161.630025 301.460566 
L 155.189159 293.94174 
L 165.402151 294.56813 
z
" style="stroke:#000000;"/>
    <path clip-path="url(#p21d9a6bfb4)" d="M 167.16046 273.968431 
L 150.626113 287.364656 
L 160.854254 287.958565 
z
" style="stroke:#000000;"/>
    <path clip-path="url(#p21d9a6bfb4)" d="M 165.402151 59.849161 
L 151.404455 53.613997 
L 161.630025 52.968116 
z
" style="stroke:#000000;"/>
    <path clip-path="url(#p21d9a6bfb4)" d="M 150.626113 287.364656 
L 148.71684 298.741451 
L 145.881015 295.898908 
z
" style="stroke:#000000;"/>
    <path clip-path="url(#p21d9a6bfb4)" d="M 148.71684 55.67638 
L 150.626113 67.04749 
L 145.881015 58.527368 
z
" style="stroke:#000000;"/>
    <path clip-path="url(#p21d9a6bfb4)" d="M 161.630025 301.460566 
L 148.71684 298.741451 
L 151.404455 300.795831 
z
" style="stroke:#000000;"/>
    <path clip-path="url(#p21d9a6bfb4)" d="M 165.402151 59.849161 
L 160.854254 66.47246 
L 167.16046 80.443552 
z
" style="stroke:#000000;"/>
    <path clip-path="url(#p21d9a6bfb4)" d="M 160.854254 287.958565 
L 165.402151 294.56813 
L 167.16046 273.968431 
z
" style="stroke:#000000;"/>
    <path clip-path="url(#p21d9a6bfb4)" d="M 158.951265 55.039997 
L 151.404455 53.613997 
L 148.71684 55.67638 
z
" style="stroke:#000000;"/>
    <path clip-path="url(#p21d9a6bfb4)" d="M 160.854254 66.47246 
L 145.881015 58.527368 
L 150.626113 67.04749 
z
" style="stroke:#000000;"/>
    <path clip-path="url(#p21d9a6bfb4)" d="M 151.404455 53.613997 
L 158.951265 55.039997 
L 161.630025 52.968116 
z
" style="stroke:#000000;"/>
    <path clip-path="url(#p21d9a6bfb4)" d="M 158.951265 299.396773 
L 145.881015 295.898908 
L 148.71684 298.741451 
z
" style="stroke:#000000;"/>
    <path clip-path="url(#p21d9a6bfb4)" d="M 158.951265 55.039997 
L 165.402151 59.849161 
L 161.630025 52.968116 
z
" style="stroke:#000000;"/>
    <path clip-path="url(#p21d9a6bfb4)" d="M 165.402151 294.56813 
L 158.951265 299.396773 
L 161.630025 301.460566 
z
" style="stroke:#000000;"/>
    <path clip-path="url(#p21d9a6bfb4)" d="M 148.71684 298.741451 
L 161.630025 301.460566 
L 158.951265 299.396773 
z
" style="stroke:#000000;"/>
    <path clip-path="url(#p21d9a6bfb4)" d="M 156.124714 296.540649 
L 150.626113 287.364656 
L 145.881015 295.898908 
z
" style="stroke:#000000;"/>
    <path clip-path="url(#p21d9a6bfb4)" d="M 165.402151 59.849161 
L 158.951265 55.039997 
L 160.854254 66.47246 
z
" style="stroke:#000000;"/>
    <path clip-path="url(#p21d9a6bfb4)" d="M 158.951265 299.396773 
L 165.402151 294.56813 
L 160.854254 287.958565 
z
" style="stroke:#000000;"/>
    <path clip-path="url(#p21d9a6bfb4)" d="M 150.626113 287.364656 
L 156.124714 296.540649 
L 160.854254 287.958565 
z
" style="stroke:#000000;"/>
    <path clip-path="url(#p21d9a6bfb4)" d="M 156.124714 57.904656 
L 148.71684 55.67638 
L 145.881015 58.527368 
z
" style="stroke:#000000;"/>
    <path clip-path="url(#p21d9a6bfb4)" d="M 148.71684 55.67638 
L 156.124714 57.904656 
L 158.951265 55.039997 
z
" style="stroke:#000000;"/>
    <path clip-path="url(#p21d9a6bfb4)" d="M 145.881015 58.527368 
L 160.854254 66.47246 
L 156.124714 57.904656 
z
" style="stroke:#000000;"/>
    <path clip-path="url(#p21d9a6bfb4)" d="M 145.881015 295.898908 
L 158.951265 299.396773 
L 156.124714 296.540649 
z
" style="stroke:#000000;"/>
    <path clip-path="url(#p21d9a6bfb4)" d="M 160.854254 66.47246 
L 158.951265 55.039997 
L 156.124714 57.904656 
z
" style="stroke:#000000;"/>
    <path clip-path="url(#p21d9a6bfb4)" d="M 158.951265 299.396773 
L 160.854254 287.958565 
L 156.124714 296.540649 
z
" style="stroke:#000000;"/>
   </g>
  </g>
 </g>
 <defs>
  <clipPath id="p21d9a6bfb4">
   <rect height="271.8" width="279" x="45" y="43.2"/>
  </clipPath>
 </defs>
</svg>
