<?xml version="1.0" encoding="utf-8" standalone="no"?>
<!DOCTYPE svg PUBLIC "-//W3C//DTD SVG 1.1//EN"
  "http://www.w3.org/Graphics/SVG/1.1/DTD/svg11.dtd">
<!-- Created with matplotlib (https://matplotlib.org/) -->
<svg height="360pt" version="1.1" viewBox="0 0 360 360" width="360pt" xmlns="http://www.w3.org/2000/svg" xmlns:xlink="http://www.w3.org/1999/xlink">
 <defs>
  <style type="text/css">
*{stroke-linecap:butt;stroke-linejoin:round;}
  </style>
 </defs>
 <g id="figure_1">
  <g id="patch_1">
   <path d="M 0 360 
L 360 360 
L 360 0 
L 0 0 
z
" style="fill:#ffffff;"/>
  </g>
  <g id="patch_2">
   <path d="M 45 315 
L 324 315 
L 324 43.2 
L 45 43.2 
z
" style="fill:#ffffff;"/>
  </g>
  <g id="axes_1">
   <g id="Poly3DCollection_1">
    <path clip-path="url(#p06778bb00a)" d="M 207.429316 246.097054 
L 206.585373 239.804624 
L 208.674798 244.221149 
z
" style="stroke:#000000;"/>
    <path clip-path="url(#p06778bb00a)" d="M 206.585373 114.424223 
L 207.429316 108.128453 
L 208.674798 109.999426 
z
" style="stroke:#000000;"/>
    <path clip-path="url(#p06778bb00a)" d="M 215.169007 244.390858 
L 207.429316 246.097054 
L 208.674798 244.221149 
z
" style="stroke:#000000;"/>
    <path clip-path="url(#p06778bb00a)" d="M 215.169007 109.838022 
L 206.585373 114.424223 
L 208.674798 109.999426 
z
" style="stroke:#000000;"/>
    <path clip-path="url(#p06778bb00a)" d="M 213.929984 107.962189 
L 208.674798 109.999426 
L 207.429316 108.128453 
z
" style="stroke:#000000;"/>
    <path clip-path="url(#p06778bb00a)" d="M 208.674798 109.999426 
L 213.929984 107.962189 
L 215.169007 109.838022 
z
" style="stroke:#000000;"/>
    <path clip-path="url(#p06778bb00a)" d="M 213.090412 239.96383 
L 208.674798 244.221149 
L 206.585373 239.804624 
z
" style="stroke:#000000;"/>
    <path clip-path="url(#p06778bb00a)" d="M 208.674798 244.221149 
L 213.090412 239.96383 
L 215.169007 244.390858 
z
" style="stroke:#000000;"/>
    <path clip-path="url(#p06778bb00a)" d="M 207.429316 246.097054 
L 215.169007 244.390858 
L 213.929984 246.271646 
z
" style="stroke:#000000;"/>
    <path clip-path="url(#p06778bb00a)" d="M 213.929984 246.271646 
L 206.240072 247.523879 
L 207.429316 246.097054 
z
" style="stroke:#000000;"/>
    <path clip-path="url(#p06778bb00a)" d="M 207.429316 246.097054 
L 204.550577 243.969368 
L 206.585373 239.804624 
z
" style="stroke:#000000;"/>
    <path clip-path="url(#p06778bb00a)" d="M 204.550577 110.267536 
L 207.429316 108.128453 
L 206.585373 114.424223 
z
" style="stroke:#000000;"/>
    <path clip-path="url(#p06778bb00a)" d="M 204.550577 243.969368 
L 207.429316 246.097054 
L 206.240072 247.523879 
z
" style="stroke:#000000;"/>
    <path clip-path="url(#p06778bb00a)" d="M 207.429316 108.128453 
L 204.550577 110.267536 
L 206.240072 106.706336 
z
" style="stroke:#000000;"/>
    <path clip-path="url(#p06778bb00a)" d="M 212.746898 106.536322 
L 207.429316 108.128453 
L 206.240072 106.706336 
z
" style="stroke:#000000;"/>
    <path clip-path="url(#p06778bb00a)" d="M 206.585373 114.424223 
L 215.169007 109.838022 
L 213.090412 114.273364 
z
" style="stroke:#000000;"/>
    <path clip-path="url(#p06778bb00a)" d="M 207.429316 108.128453 
L 212.746898 106.536322 
L 213.929984 107.962189 
z
" style="stroke:#000000;"/>
    <path clip-path="url(#p06778bb00a)" d="M 213.929984 107.962189 
L 213.090412 114.273364 
L 215.169007 109.838022 
z
" style="stroke:#000000;"/>
    <path clip-path="url(#p06778bb00a)" d="M 213.090412 239.96383 
L 213.929984 246.271646 
L 215.169007 244.390858 
z
" style="stroke:#000000;"/>
    <path clip-path="url(#p06778bb00a)" d="M 206.240072 247.523879 
L 213.929984 246.271646 
L 212.746898 247.702246 
z
" style="stroke:#000000;"/>
    <path clip-path="url(#p06778bb00a)" d="M 204.550577 110.267536 
L 212.746898 106.536322 
L 206.240072 106.706336 
z
" style="stroke:#000000;"/>
    <path clip-path="url(#p06778bb00a)" d="M 204.550577 243.969368 
L 203.757049 232.371858 
L 206.585373 239.804624 
z
" style="stroke:#000000;"/>
    <path clip-path="url(#p06778bb00a)" d="M 203.757049 121.868187 
L 204.550577 110.267536 
L 206.585373 114.424223 
z
" style="stroke:#000000;"/>
    <path clip-path="url(#p06778bb00a)" d="M 203.757049 232.371858 
L 213.090412 239.96383 
L 206.585373 239.804624 
z
" style="stroke:#000000;"/>
    <path clip-path="url(#p06778bb00a)" d="M 206.240072 247.523879 
L 211.066139 244.139278 
L 204.550577 243.969368 
z
" style="stroke:#000000;"/>
    <path clip-path="url(#p06778bb00a)" d="M 211.066139 244.139278 
L 206.240072 247.523879 
L 212.746898 247.702246 
z
" style="stroke:#000000;"/>
    <path clip-path="url(#p06778bb00a)" d="M 210.276709 121.735296 
L 206.585373 114.424223 
L 213.090412 114.273364 
z
" style="stroke:#000000;"/>
    <path clip-path="url(#p06778bb00a)" d="M 213.929984 107.962189 
L 211.066139 110.106011 
L 213.090412 114.273364 
z
" style="stroke:#000000;"/>
    <path clip-path="url(#p06778bb00a)" d="M 211.066139 244.139278 
L 213.929984 246.271646 
L 213.090412 239.96383 
z
" style="stroke:#000000;"/>
    <path clip-path="url(#p06778bb00a)" d="M 206.585373 114.424223 
L 210.276709 121.735296 
L 203.757049 121.868187 
z
" style="stroke:#000000;"/>
    <path clip-path="url(#p06778bb00a)" d="M 211.066139 110.106011 
L 213.929984 107.962189 
L 212.746898 106.536322 
z
" style="stroke:#000000;"/>
    <path clip-path="url(#p06778bb00a)" d="M 213.929984 246.271646 
L 211.066139 244.139278 
L 212.746898 247.702246 
z
" style="stroke:#000000;"/>
    <path clip-path="url(#p06778bb00a)" d="M 212.746898 106.536322 
L 204.550577 110.267536 
L 211.066139 110.106011 
z
" style="stroke:#000000;"/>
    <path clip-path="url(#p06778bb00a)" d="M 213.090412 239.96383 
L 203.757049 232.371858 
L 210.276709 232.513151 
z
" style="stroke:#000000;"/>
    <path clip-path="url(#p06778bb00a)" d="M 201.52669 236.055954 
L 203.757049 232.371858 
L 204.550577 243.969368 
z
" style="stroke:#000000;"/>
    <path clip-path="url(#p06778bb00a)" d="M 203.757049 121.868187 
L 201.52669 118.192922 
L 204.550577 110.267536 
z
" style="stroke:#000000;"/>
    <path clip-path="url(#p06778bb00a)" d="M 211.066139 110.106011 
L 210.276709 121.735296 
L 213.090412 114.273364 
z
" style="stroke:#000000;"/>
    <path clip-path="url(#p06778bb00a)" d="M 210.276709 232.513151 
L 211.066139 244.139278 
L 213.090412 239.96383 
z
" style="stroke:#000000;"/>
    <path clip-path="url(#p06778bb00a)" d="M 201.52669 118.192922 
L 211.066139 110.106011 
L 204.550577 110.267536 
z
" style="stroke:#000000;"/>
    <path clip-path="url(#p06778bb00a)" d="M 201.294113 224.260114 
L 210.276709 232.513151 
L 203.757049 232.371858 
z
" style="stroke:#000000;"/>
    <path clip-path="url(#p06778bb00a)" d="M 201.52669 236.055954 
L 201.294113 224.260114 
L 203.757049 232.371858 
z
" style="stroke:#000000;"/>
    <path clip-path="url(#p06778bb00a)" d="M 201.294113 129.989683 
L 201.52669 118.192922 
L 203.757049 121.868187 
z
" style="stroke:#000000;"/>
    <path clip-path="url(#p06778bb00a)" d="M 208.057846 236.206781 
L 204.550577 243.969368 
L 211.066139 244.139278 
z
" style="stroke:#000000;"/>
    <path clip-path="url(#p06778bb00a)" d="M 204.550577 243.969368 
L 208.057846 236.206781 
L 201.52669 236.055954 
z
" style="stroke:#000000;"/>
    <path clip-path="url(#p06778bb00a)" d="M 207.826466 129.876618 
L 203.757049 121.868187 
L 210.276709 121.735296 
z
" style="stroke:#000000;"/>
    <path clip-path="url(#p06778bb00a)" d="M 203.757049 121.868187 
L 207.826466 129.876618 
L 201.294113 129.989683 
z
" style="stroke:#000000;"/>
    <path clip-path="url(#p06778bb00a)" d="M 208.057846 118.05054 
L 210.276709 121.735296 
L 211.066139 110.106011 
z
" style="stroke:#000000;"/>
    <path clip-path="url(#p06778bb00a)" d="M 210.276709 232.513151 
L 208.057846 236.206781 
L 211.066139 244.139278 
z
" style="stroke:#000000;"/>
    <path clip-path="url(#p06778bb00a)" d="M 211.066139 110.106011 
L 201.52669 118.192922 
L 208.057846 118.05054 
z
" style="stroke:#000000;"/>
    <path clip-path="url(#p06778bb00a)" d="M 210.276709 232.513151 
L 201.294113 224.260114 
L 207.826466 224.381629 
z
" style="stroke:#000000;"/>
    <path clip-path="url(#p06778bb00a)" d="M 198.892361 227.413916 
L 201.294113 224.260114 
L 201.52669 236.055954 
z
" style="stroke:#000000;"/>
    <path clip-path="url(#p06778bb00a)" d="M 201.294113 129.989683 
L 198.892361 126.84539 
L 201.52669 118.192922 
z
" style="stroke:#000000;"/>
    <path clip-path="url(#p06778bb00a)" d="M 208.057846 118.05054 
L 207.826466 129.876618 
L 210.276709 121.735296 
z
" style="stroke:#000000;"/>
    <path clip-path="url(#p06778bb00a)" d="M 207.826466 224.381629 
L 208.057846 236.206781 
L 210.276709 232.513151 
z
" style="stroke:#000000;"/>
    <path clip-path="url(#p06778bb00a)" d="M 198.892361 126.84539 
L 208.057846 118.05054 
L 201.52669 118.192922 
z
" style="stroke:#000000;"/>
    <path clip-path="url(#p06778bb00a)" d="M 199.230242 215.564483 
L 207.826466 224.381629 
L 201.294113 224.260114 
z
" style="stroke:#000000;"/>
    <path clip-path="url(#p06778bb00a)" d="M 201.294113 224.260114 
L 198.892361 227.413916 
L 199.230242 215.564483 
z
" style="stroke:#000000;"/>
    <path clip-path="url(#p06778bb00a)" d="M 198.892361 126.84539 
L 201.294113 129.989683 
L 199.230242 138.693485 
z
" style="stroke:#000000;"/>
    <path clip-path="url(#p06778bb00a)" d="M 205.437059 227.543642 
L 201.52669 236.055954 
L 208.057846 236.206781 
z
" style="stroke:#000000;"/>
    <path clip-path="url(#p06778bb00a)" d="M 201.294113 129.989683 
L 205.773205 138.601858 
L 199.230242 138.693485 
z
" style="stroke:#000000;"/>
    <path clip-path="url(#p06778bb00a)" d="M 205.773205 138.601858 
L 201.294113 129.989683 
L 207.826466 129.876618 
z
" style="stroke:#000000;"/>
    <path clip-path="url(#p06778bb00a)" d="M 201.52669 236.055954 
L 205.437059 227.543642 
L 198.892361 227.413916 
z
" style="stroke:#000000;"/>
    <path clip-path="url(#p06778bb00a)" d="M 207.826466 224.381629 
L 199.230242 215.564483 
L 205.773205 215.664601 
z
" style="stroke:#000000;"/>
    <path clip-path="url(#p06778bb00a)" d="M 205.437059 126.724161 
L 207.826466 129.876618 
L 208.057846 118.05054 
z
" style="stroke:#000000;"/>
    <path clip-path="url(#p06778bb00a)" d="M 207.826466 224.381629 
L 205.437059 227.543642 
L 208.057846 236.206781 
z
" style="stroke:#000000;"/>
    <path clip-path="url(#p06778bb00a)" d="M 208.057846 118.05054 
L 198.892361 126.84539 
L 205.437059 126.724161 
z
" style="stroke:#000000;"/>
    <path clip-path="url(#p06778bb00a)" d="M 196.684065 218.143888 
L 199.230242 215.564483 
L 198.892361 227.413916 
z
" style="stroke:#000000;"/>
    <path clip-path="url(#p06778bb00a)" d="M 199.230242 138.693485 
L 196.684065 136.124161 
L 198.892361 126.84539 
z
" style="stroke:#000000;"/>
    <path clip-path="url(#p06778bb00a)" d="M 197.594046 206.389063 
L 205.773205 215.664601 
L 199.230242 215.564483 
z
" style="stroke:#000000;"/>
    <path clip-path="url(#p06778bb00a)" d="M 199.230242 215.564483 
L 196.684065 218.143888 
L 197.594046 206.389063 
z
" style="stroke:#000000;"/>
    <path clip-path="url(#p06778bb00a)" d="M 196.684065 136.124161 
L 199.230242 138.693485 
L 197.594046 147.875383 
z
" style="stroke:#000000;"/>
    <path clip-path="url(#p06778bb00a)" d="M 207.826466 129.876618 
L 205.437059 126.724161 
L 205.773205 138.601858 
z
" style="stroke:#000000;"/>
    <path clip-path="url(#p06778bb00a)" d="M 205.437059 227.543642 
L 207.826466 224.381629 
L 205.773205 215.664601 
z
" style="stroke:#000000;"/>
    <path clip-path="url(#p06778bb00a)" d="M 196.684065 136.124161 
L 205.437059 126.724161 
L 198.892361 126.84539 
z
" style="stroke:#000000;"/>
    <path clip-path="url(#p06778bb00a)" d="M 199.230242 138.693485 
L 204.145403 147.806528 
L 197.594046 147.875383 
z
" style="stroke:#000000;"/>
    <path clip-path="url(#p06778bb00a)" d="M 204.145403 147.806528 
L 199.230242 138.693485 
L 205.773205 138.601858 
z
" style="stroke:#000000;"/>
    <path clip-path="url(#p06778bb00a)" d="M 203.240084 218.250757 
L 198.892361 227.413916 
L 205.437059 227.543642 
z
" style="stroke:#000000;"/>
    <path clip-path="url(#p06778bb00a)" d="M 205.773205 215.664601 
L 197.594046 206.389063 
L 204.145403 206.466442 
z
" style="stroke:#000000;"/>
    <path clip-path="url(#p06778bb00a)" d="M 198.892361 227.413916 
L 203.240084 218.250757 
L 196.684065 218.143888 
z
" style="stroke:#000000;"/>
    <path clip-path="url(#p06778bb00a)" d="M 196.408482 196.846123 
L 204.145403 206.466442 
L 197.594046 206.389063 
z
" style="stroke:#000000;"/>
    <path clip-path="url(#p06778bb00a)" d="M 194.932896 208.357922 
L 197.594046 206.389063 
L 196.684065 218.143888 
z
" style="stroke:#000000;"/>
    <path clip-path="url(#p06778bb00a)" d="M 197.594046 147.875383 
L 194.932896 145.91706 
L 196.684065 136.124161 
z
" style="stroke:#000000;"/>
    <path clip-path="url(#p06778bb00a)" d="M 197.594046 206.389063 
L 194.932896 208.357922 
L 196.408482 196.846123 
z
" style="stroke:#000000;"/>
    <path clip-path="url(#p06778bb00a)" d="M 194.932896 145.91706 
L 197.594046 147.875383 
L 196.408482 157.423017 
z
" style="stroke:#000000;"/>
    <path clip-path="url(#p06778bb00a)" d="M 203.240084 136.025834 
L 205.773205 138.601858 
L 205.437059 126.724161 
z
" style="stroke:#000000;"/>
    <path clip-path="url(#p06778bb00a)" d="M 205.773205 215.664601 
L 203.240084 218.250757 
L 205.437059 227.543642 
z
" style="stroke:#000000;"/>
    <path clip-path="url(#p06778bb00a)" d="M 197.594046 147.875383 
L 202.965912 157.37796 
L 196.408482 157.423017 
z
" style="stroke:#000000;"/>
    <path clip-path="url(#p06778bb00a)" d="M 205.437059 126.724161 
L 196.684065 136.124161 
L 203.240084 136.025834 
z
" style="stroke:#000000;"/>
    <path clip-path="url(#p06778bb00a)" d="M 202.965912 157.37796 
L 197.594046 147.875383 
L 204.145403 147.806528 
z
" style="stroke:#000000;"/>
    <path clip-path="url(#p06778bb00a)" d="M 205.773205 138.601858 
L 203.240084 136.025834 
L 204.145403 147.806528 
z
" style="stroke:#000000;"/>
    <path clip-path="url(#p06778bb00a)" d="M 203.240084 218.250757 
L 205.773205 215.664601 
L 204.145403 206.466442 
z
" style="stroke:#000000;"/>
    <path clip-path="url(#p06778bb00a)" d="M 195.690336 187.054321 
L 202.965912 196.899726 
L 196.408482 196.846123 
z
" style="stroke:#000000;"/>
    <path clip-path="url(#p06778bb00a)" d="M 194.932896 145.91706 
L 203.240084 136.025834 
L 196.684065 136.124161 
z
" style="stroke:#000000;"/>
    <path clip-path="url(#p06778bb00a)" d="M 204.145403 206.466442 
L 196.408482 196.846123 
L 202.965912 196.899726 
z
" style="stroke:#000000;"/>
    <path clip-path="url(#p06778bb00a)" d="M 196.408482 196.846123 
L 193.66373 198.17648 
L 195.690336 187.054321 
z
" style="stroke:#000000;"/>
    <path clip-path="url(#p06778bb00a)" d="M 193.66373 156.103528 
L 196.408482 157.423017 
L 195.690336 167.217662 
z
" style="stroke:#000000;"/>
    <path clip-path="url(#p06778bb00a)" d="M 196.408482 157.423017 
L 202.25144 167.1971 
L 195.690336 167.217662 
z
" style="stroke:#000000;"/>
    <path clip-path="url(#p06778bb00a)" d="M 193.66373 198.17648 
L 196.408482 196.846123 
L 194.932896 208.357922 
z
" style="stroke:#000000;"/>
    <path clip-path="url(#p06778bb00a)" d="M 196.408482 157.423017 
L 193.66373 156.103528 
L 194.932896 145.91706 
z
" style="stroke:#000000;"/>
    <path clip-path="url(#p06778bb00a)" d="M 195.449797 177.136468 
L 202.25144 187.083444 
L 195.690336 187.054321 
z
" style="stroke:#000000;"/>
    <path clip-path="url(#p06778bb00a)" d="M 195.690336 167.217662 
L 202.012131 177.140751 
L 195.449797 177.136468 
z
" style="stroke:#000000;"/>
    <path clip-path="url(#p06778bb00a)" d="M 196.684065 218.143888 
L 201.497873 208.440476 
L 194.932896 208.357922 
z
" style="stroke:#000000;"/>
    <path clip-path="url(#p06778bb00a)" d="M 202.25144 167.1971 
L 196.408482 157.423017 
L 202.965912 157.37796 
z
" style="stroke:#000000;"/>
    <path clip-path="url(#p06778bb00a)" d="M 192.894814 166.555955 
L 195.690336 167.217662 
L 195.449797 177.136468 
z
" style="stroke:#000000;"/>
    <path clip-path="url(#p06778bb00a)" d="M 195.690336 187.054321 
L 192.894814 187.727097 
L 195.449797 177.136468 
z
" style="stroke:#000000;"/>
    <path clip-path="url(#p06778bb00a)" d="M 201.497873 208.440476 
L 196.684065 218.143888 
L 203.240084 218.250757 
z
" style="stroke:#000000;"/>
    <path clip-path="url(#p06778bb00a)" d="M 202.965912 196.899726 
L 195.690336 187.054321 
L 202.25144 187.083444 
z
" style="stroke:#000000;"/>
    <path clip-path="url(#p06778bb00a)" d="M 201.497873 145.843082 
L 204.145403 147.806528 
L 203.240084 136.025834 
z
" style="stroke:#000000;"/>
    <path clip-path="url(#p06778bb00a)" d="M 204.145403 206.466442 
L 201.497873 208.440476 
L 203.240084 218.250757 
z
" style="stroke:#000000;"/>
    <path clip-path="url(#p06778bb00a)" d="M 202.012131 177.140751 
L 195.690336 167.217662 
L 202.25144 167.1971 
z
" style="stroke:#000000;"/>
    <path clip-path="url(#p06778bb00a)" d="M 204.145403 147.806528 
L 201.497873 145.843082 
L 202.965912 157.37796 
z
" style="stroke:#000000;"/>
    <path clip-path="url(#p06778bb00a)" d="M 201.497873 208.440476 
L 204.145403 206.466442 
L 202.965912 196.899726 
z
" style="stroke:#000000;"/>
    <path clip-path="url(#p06778bb00a)" d="M 202.25144 187.083444 
L 195.449797 177.136468 
L 202.012131 177.140751 
z
" style="stroke:#000000;"/>
    <path clip-path="url(#p06778bb00a)" d="M 192.894814 187.727097 
L 195.690336 187.054321 
L 193.66373 198.17648 
z
" style="stroke:#000000;"/>
    <path clip-path="url(#p06778bb00a)" d="M 195.690336 167.217662 
L 192.894814 166.555955 
L 193.66373 156.103528 
z
" style="stroke:#000000;"/>
    <path clip-path="url(#p06778bb00a)" d="M 203.240084 136.025834 
L 194.932896 145.91706 
L 201.497873 145.843082 
z
" style="stroke:#000000;"/>
    <path clip-path="url(#p06778bb00a)" d="M 193.66373 156.103528 
L 201.497873 145.843082 
L 194.932896 145.91706 
z
" style="stroke:#000000;"/>
    <path clip-path="url(#p06778bb00a)" d="M 192.63727 177.142036 
L 195.449797 177.136468 
L 192.894814 187.727097 
z
" style="stroke:#000000;"/>
    <path clip-path="url(#p06778bb00a)" d="M 195.449797 177.136468 
L 192.63727 177.142036 
L 192.894814 166.555955 
z
" style="stroke:#000000;"/>
    <path clip-path="url(#p06778bb00a)" d="M 194.932896 208.357922 
L 200.235187 198.233594 
L 193.66373 198.17648 
z
" style="stroke:#000000;"/>
    <path clip-path="url(#p06778bb00a)" d="M 202.965912 157.37796 
L 200.235187 156.055015 
L 202.25144 167.1971 
z
" style="stroke:#000000;"/>
    <path clip-path="url(#p06778bb00a)" d="M 200.235187 198.233594 
L 202.965912 196.899726 
L 202.25144 187.083444 
z
" style="stroke:#000000;"/>
    <path clip-path="url(#p06778bb00a)" d="M 200.235187 198.233594 
L 194.932896 208.357922 
L 201.497873 208.440476 
z
" style="stroke:#000000;"/>
    <path clip-path="url(#p06778bb00a)" d="M 200.235187 156.055015 
L 202.965912 157.37796 
L 201.497873 145.843082 
z
" style="stroke:#000000;"/>
    <path clip-path="url(#p06778bb00a)" d="M 202.965912 196.899726 
L 200.235187 198.233594 
L 201.497873 208.440476 
z
" style="stroke:#000000;"/>
    <path clip-path="url(#p06778bb00a)" d="M 195.916776 112.549011 
L 188.858612 132.383142 
L 193.576813 113.64341 
z
" style="stroke:#000000;"/>
    <path clip-path="url(#p06778bb00a)" d="M 193.576813 113.64341 
L 188.858612 101.860615 
L 195.916776 112.549011 
z
" style="stroke:#000000;"/>
    <path clip-path="url(#p06778bb00a)" d="M 192.894814 166.555955 
L 200.235187 156.055015 
L 193.66373 156.103528 
z
" style="stroke:#000000;"/>
    <path clip-path="url(#p06778bb00a)" d="M 201.497873 145.843082 
L 193.66373 156.103528 
L 200.235187 156.055015 
z
" style="stroke:#000000;"/>
    <path clip-path="url(#p06778bb00a)" d="M 199.470193 187.758005 
L 202.25144 187.083444 
L 202.012131 177.140751 
z
" style="stroke:#000000;"/>
    <path clip-path="url(#p06778bb00a)" d="M 202.25144 167.1971 
L 199.470193 166.533663 
L 202.012131 177.140751 
z
" style="stroke:#000000;"/>
    <path clip-path="url(#p06778bb00a)" d="M 193.66373 198.17648 
L 199.470193 187.758005 
L 192.894814 187.727097 
z
" style="stroke:#000000;"/>
    <path clip-path="url(#p06778bb00a)" d="M 195.916776 112.549011 
L 195.454522 101.674893 
L 202.476722 112.391563 
z
" style="stroke:#000000;"/>
    <path clip-path="url(#p06778bb00a)" d="M 195.454522 142.474337 
L 195.916776 112.549011 
L 202.476722 112.391563 
z
" style="stroke:#000000;"/>
    <path clip-path="url(#p06778bb00a)" d="M 192.63727 177.142036 
L 199.470193 166.533663 
L 192.894814 166.555955 
z
" style="stroke:#000000;"/>
    <path clip-path="url(#p06778bb00a)" d="M 192.894814 187.727097 
L 199.213963 177.146346 
L 192.63727 177.142036 
z
" style="stroke:#000000;"/>
    <path clip-path="url(#p06778bb00a)" d="M 199.470193 187.758005 
L 193.66373 198.17648 
L 200.235187 198.233594 
z
" style="stroke:#000000;"/>
    <path clip-path="url(#p06778bb00a)" d="M 199.470193 166.533663 
L 202.25144 167.1971 
L 200.235187 156.055015 
z
" style="stroke:#000000;"/>
    <path clip-path="url(#p06778bb00a)" d="M 202.25144 187.083444 
L 199.470193 187.758005 
L 200.235187 198.233594 
z
" style="stroke:#000000;"/>
    <path clip-path="url(#p06778bb00a)" d="M 200.235187 156.055015 
L 192.894814 166.555955 
L 199.470193 166.533663 
z
" style="stroke:#000000;"/>
    <path clip-path="url(#p06778bb00a)" d="M 199.213963 177.146346 
L 202.012131 177.140751 
L 199.470193 166.533663 
z
" style="stroke:#000000;"/>
    <path clip-path="url(#p06778bb00a)" d="M 202.012131 177.140751 
L 199.213963 177.146346 
L 199.470193 187.758005 
z
" style="stroke:#000000;"/>
    <path clip-path="url(#p06778bb00a)" d="M 199.213963 177.146346 
L 192.894814 187.727097 
L 199.470193 187.758005 
z
" style="stroke:#000000;"/>
    <path clip-path="url(#p06778bb00a)" d="M 200.148714 113.488282 
L 188.858612 106.947703 
L 193.576813 113.64341 
z
" style="stroke:#000000;"/>
    <path clip-path="url(#p06778bb00a)" d="M 188.858612 132.383142 
L 200.148714 113.488282 
L 193.576813 113.64341 
z
" style="stroke:#000000;"/>
    <path clip-path="url(#p06778bb00a)" d="M 199.470193 166.533663 
L 192.63727 177.142036 
L 199.213963 177.146346 
z
" style="stroke:#000000;"/>
    <path clip-path="url(#p06778bb00a)" d="M 188.858612 132.383142 
L 195.916776 112.549011 
L 188.858612 142.557318 
z
" style="stroke:#000000;"/>
    <path clip-path="url(#p06778bb00a)" d="M 195.454522 101.674893 
L 200.148714 113.488282 
L 202.476722 112.391563 
z
" style="stroke:#000000;"/>
    <path clip-path="url(#p06778bb00a)" d="M 195.454522 132.274476 
L 202.476722 112.391563 
L 200.148714 113.488282 
z
" style="stroke:#000000;"/>
    <path clip-path="url(#p06778bb00a)" d="M 195.454522 101.674893 
L 195.916776 112.549011 
L 188.858612 101.860615 
z
" style="stroke:#000000;"/>
    <path clip-path="url(#p06778bb00a)" d="M 195.916776 112.549011 
L 195.454522 142.474337 
L 188.858612 142.557318 
z
" style="stroke:#000000;"/>
    <path clip-path="url(#p06778bb00a)" d="M 188.858612 101.860615 
L 193.576813 113.64341 
L 188.858612 106.947703 
z
" style="stroke:#000000;"/>
    <path clip-path="url(#p06778bb00a)" d="M 195.454522 132.274476 
L 195.454522 142.474337 
L 202.476722 112.391563 
z
" style="stroke:#000000;"/>
    <path clip-path="url(#p06778bb00a)" d="M 188.858612 106.947703 
L 200.148714 113.488282 
L 195.454522 106.774823 
z
" style="stroke:#000000;"/>
    <path clip-path="url(#p06778bb00a)" d="M 200.148714 113.488282 
L 188.858612 132.383142 
L 195.454522 132.274476 
z
" style="stroke:#000000;"/>
    <path clip-path="url(#p06778bb00a)" d="M 195.454522 101.674893 
L 195.454522 106.774823 
L 200.148714 113.488282 
z
" style="stroke:#000000;"/>
    <path clip-path="url(#p06778bb00a)" d="M 184.088682 112.966022 
L 188.858612 101.860615 
L 188.858612 106.947703 
z
" style="stroke:#000000;"/>
    <path clip-path="url(#p06778bb00a)" d="M 195.454522 106.774823 
L 184.088682 112.966022 
L 188.858612 106.947703 
z
" style="stroke:#000000;"/>
    <path clip-path="url(#p06778bb00a)" d="M 184.088682 112.966022 
L 195.454522 132.274476 
L 188.858612 132.383142 
z
" style="stroke:#000000;"/>
    <path clip-path="url(#p06778bb00a)" d="M 181.684051 111.51209 
L 188.858612 132.383142 
L 188.858612 142.557318 
z
" style="stroke:#000000;"/>
    <path clip-path="url(#p06778bb00a)" d="M 195.454522 101.674893 
L 190.708734 112.80747 
L 195.454522 106.774823 
z
" style="stroke:#000000;"/>
    <path clip-path="url(#p06778bb00a)" d="M 188.858612 101.860615 
L 188.316225 111.3494 
L 195.454522 101.674893 
z
" style="stroke:#000000;"/>
    <path clip-path="url(#p06778bb00a)" d="M 188.316225 111.3494 
L 188.858612 142.557318 
L 195.454522 142.474337 
z
" style="stroke:#000000;"/>
    <path clip-path="url(#p06778bb00a)" d="M 188.858612 132.383142 
L 181.684051 111.51209 
L 184.088682 112.966022 
z
" style="stroke:#000000;"/>
    <path clip-path="url(#p06778bb00a)" d="M 188.858612 101.860615 
L 184.088682 112.966022 
L 181.684051 111.51209 
z
" style="stroke:#000000;"/>
    <path clip-path="url(#p06778bb00a)" d="M 195.454522 132.274476 
L 188.316225 111.3494 
L 195.454522 142.474337 
z
" style="stroke:#000000;"/>
    <path clip-path="url(#p06778bb00a)" d="M 184.784614 166.472884 
L 191.66206 177.161448 
L 185.046847 177.157062 
z
" style="stroke:#000000;"/>
    <path clip-path="url(#p06778bb00a)" d="M 184.088682 112.966022 
L 195.454522 106.774823 
L 190.708734 112.80747 
z
" style="stroke:#000000;"/>
    <path clip-path="url(#p06778bb00a)" d="M 195.454522 132.274476 
L 184.088682 112.966022 
L 190.708734 112.80747 
z
" style="stroke:#000000;"/>
    <path clip-path="url(#p06778bb00a)" d="M 185.046847 177.157062 
L 191.401153 187.873768 
L 184.784614 187.842278 
z
" style="stroke:#000000;"/>
    <path clip-path="url(#p06778bb00a)" d="M 182.166034 177.162764 
L 185.046847 177.157062 
L 184.784614 187.842278 
z
" style="stroke:#000000;"/>
    <path clip-path="url(#p06778bb00a)" d="M 185.046847 177.157062 
L 182.166034 177.162764 
L 184.784614 166.472884 
z
" style="stroke:#000000;"/>
    <path clip-path="url(#p06778bb00a)" d="M 183.99983 155.887721 
L 191.401153 166.450172 
L 184.784614 166.472884 
z
" style="stroke:#000000;"/>
    <path clip-path="url(#p06778bb00a)" d="M 181.917899 187.239817 
L 184.784614 187.842278 
L 183.99983 198.430548 
z
" style="stroke:#000000;"/>
    <path clip-path="url(#p06778bb00a)" d="M 184.784614 166.472884 
L 181.917899 167.086694 
L 183.99983 155.887721 
z
" style="stroke:#000000;"/>
    <path clip-path="url(#p06778bb00a)" d="M 184.784614 187.842278 
L 190.620331 198.488946 
L 183.99983 198.430548 
z
" style="stroke:#000000;"/>
    <path clip-path="url(#p06778bb00a)" d="M 191.401153 187.873768 
L 185.046847 177.157062 
L 191.66206 177.161448 
z
" style="stroke:#000000;"/>
    <path clip-path="url(#p06778bb00a)" d="M 191.66206 177.161448 
L 184.784614 166.472884 
L 191.401153 166.450172 
z
" style="stroke:#000000;"/>
    <path clip-path="url(#p06778bb00a)" d="M 188.316225 111.3494 
L 188.858612 101.860615 
L 181.684051 111.51209 
z
" style="stroke:#000000;"/>
    <path clip-path="url(#p06778bb00a)" d="M 188.858612 142.557318 
L 188.316225 111.3494 
L 181.684051 111.51209 
z
" style="stroke:#000000;"/>
    <path clip-path="url(#p06778bb00a)" d="M 190.620331 198.488946 
L 184.784614 187.842278 
L 191.401153 187.873768 
z
" style="stroke:#000000;"/>
    <path clip-path="url(#p06778bb00a)" d="M 181.917899 167.086694 
L 184.784614 166.472884 
L 182.166034 177.162764 
z
" style="stroke:#000000;"/>
    <path clip-path="url(#p06778bb00a)" d="M 184.784614 187.842278 
L 181.917899 187.239817 
L 182.166034 177.162764 
z
" style="stroke:#000000;"/>
    <path clip-path="url(#p06778bb00a)" d="M 182.698318 145.499209 
L 190.620331 155.838117 
L 183.99983 155.887721 
z
" style="stroke:#000000;"/>
    <path clip-path="url(#p06778bb00a)" d="M 191.401153 166.450172 
L 183.99983 155.887721 
L 190.620331 155.838117 
z
" style="stroke:#000000;"/>
    <path clip-path="url(#p06778bb00a)" d="M 190.708734 112.80747 
L 195.454522 101.674893 
L 188.316225 111.3494 
z
" style="stroke:#000000;"/>
    <path clip-path="url(#p06778bb00a)" d="M 188.316225 111.3494 
L 195.454522 132.274476 
L 190.708734 112.80747 
z
" style="stroke:#000000;"/>
    <path clip-path="url(#p06778bb00a)" d="M 181.17541 197.224387 
L 183.99983 198.430548 
L 182.698318 208.824213 
z
" style="stroke:#000000;"/>
    <path clip-path="url(#p06778bb00a)" d="M 183.99983 155.887721 
L 181.17541 157.105064 
L 182.698318 145.499209 
z
" style="stroke:#000000;"/>
    <path clip-path="url(#p06778bb00a)" d="M 183.99983 198.430548 
L 189.325383 208.909124 
L 182.698318 208.824213 
z
" style="stroke:#000000;"/>
    <path clip-path="url(#p06778bb00a)" d="M 183.99983 198.430548 
L 181.17541 197.224387 
L 181.917899 187.239817 
z
" style="stroke:#000000;"/>
    <path clip-path="url(#p06778bb00a)" d="M 181.17541 157.105064 
L 183.99983 155.887721 
L 181.917899 167.086694 
z
" style="stroke:#000000;"/>
    <path clip-path="url(#p06778bb00a)" d="M 189.325383 208.909124 
L 183.99983 198.430548 
L 190.620331 198.488946 
z
" style="stroke:#000000;"/>
    <path clip-path="url(#p06778bb00a)" d="M 188.795781 177.16718 
L 191.66206 177.161448 
L 191.401153 166.450172 
z
" style="stroke:#000000;"/>
    <path clip-path="url(#p06778bb00a)" d="M 191.66206 177.161448 
L 188.795781 177.16718 
L 191.401153 187.873768 
z
" style="stroke:#000000;"/>
    <path clip-path="url(#p06778bb00a)" d="M 190.620331 155.838117 
L 182.698318 145.499209 
L 189.325383 145.423118 
z
" style="stroke:#000000;"/>
    <path clip-path="url(#p06778bb00a)" d="M 180.889824 135.404267 
L 189.325383 145.423118 
L 182.698318 145.499209 
z
" style="stroke:#000000;"/>
    <path clip-path="url(#p06778bb00a)" d="M 188.548894 167.06547 
L 191.401153 166.450172 
L 190.620331 155.838117 
z
" style="stroke:#000000;"/>
    <path clip-path="url(#p06778bb00a)" d="M 191.401153 187.873768 
L 188.548894 187.269878 
L 190.620331 198.488946 
z
" style="stroke:#000000;"/>
    <path clip-path="url(#p06778bb00a)" d="M 181.917899 187.239817 
L 188.795781 177.16718 
L 182.166034 177.162764 
z
" style="stroke:#000000;"/>
    <path clip-path="url(#p06778bb00a)" d="M 182.698318 208.824213 
L 179.944188 207.02348 
L 181.17541 197.224387 
z
" style="stroke:#000000;"/>
    <path clip-path="url(#p06778bb00a)" d="M 179.944188 147.310846 
L 182.698318 145.499209 
L 181.17541 157.105064 
z
" style="stroke:#000000;"/>
    <path clip-path="url(#p06778bb00a)" d="M 182.166034 177.162764 
L 188.548894 167.06547 
L 181.917899 167.086694 
z
" style="stroke:#000000;"/>
    <path clip-path="url(#p06778bb00a)" d="M 179.944188 207.02348 
L 182.698318 208.824213 
L 180.889824 218.926314 
z
" style="stroke:#000000;"/>
    <path clip-path="url(#p06778bb00a)" d="M 182.698318 145.499209 
L 179.944188 147.310846 
L 180.889824 135.404267 
z
" style="stroke:#000000;"/>
    <path clip-path="url(#p06778bb00a)" d="M 181.17541 197.224387 
L 188.548894 187.269878 
L 181.917899 187.239817 
z
" style="stroke:#000000;"/>
    <path clip-path="url(#p06778bb00a)" d="M 182.698318 208.824213 
L 187.525993 219.037139 
L 180.889824 218.926314 
z
" style="stroke:#000000;"/>
    <path clip-path="url(#p06778bb00a)" d="M 188.548894 187.269878 
L 191.401153 187.873768 
L 188.795781 177.16718 
z
" style="stroke:#000000;"/>
    <path clip-path="url(#p06778bb00a)" d="M 191.401153 166.450172 
L 188.548894 167.06547 
L 188.795781 177.16718 
z
" style="stroke:#000000;"/>
    <path clip-path="url(#p06778bb00a)" d="M 181.917899 167.086694 
L 187.810143 157.0584 
L 181.17541 157.105064 
z
" style="stroke:#000000;"/>
    <path clip-path="url(#p06778bb00a)" d="M 187.525993 219.037139 
L 182.698318 208.824213 
L 189.325383 208.909124 
z
" style="stroke:#000000;"/>
    <path clip-path="url(#p06778bb00a)" d="M 188.548894 167.06547 
L 182.166034 177.162764 
L 188.795781 177.16718 
z
" style="stroke:#000000;"/>
    <path clip-path="url(#p06778bb00a)" d="M 188.795781 177.16718 
L 181.917899 187.239817 
L 188.548894 187.269878 
z
" style="stroke:#000000;"/>
    <path clip-path="url(#p06778bb00a)" d="M 187.810143 157.0584 
L 190.620331 155.838117 
L 189.325383 145.423118 
z
" style="stroke:#000000;"/>
    <path clip-path="url(#p06778bb00a)" d="M 190.620331 198.488946 
L 187.810143 197.279903 
L 189.325383 208.909124 
z
" style="stroke:#000000;"/>
    <path clip-path="url(#p06778bb00a)" d="M 187.810143 157.0584 
L 181.917899 167.086694 
L 188.548894 167.06547 
z
" style="stroke:#000000;"/>
    <path clip-path="url(#p06778bb00a)" d="M 190.620331 155.838117 
L 187.810143 157.0584 
L 188.548894 167.06547 
z
" style="stroke:#000000;"/>
    <path clip-path="url(#p06778bb00a)" d="M 187.810143 197.279903 
L 190.620331 198.488946 
L 188.548894 187.269878 
z
" style="stroke:#000000;"/>
    <path clip-path="url(#p06778bb00a)" d="M 179.944188 207.02348 
L 187.810143 197.279903 
L 181.17541 197.224387 
z
" style="stroke:#000000;"/>
    <path clip-path="url(#p06778bb00a)" d="M 189.325383 145.423118 
L 180.889824 135.404267 
L 187.525993 135.3023 
z
" style="stroke:#000000;"/>
    <path clip-path="url(#p06778bb00a)" d="M 188.548894 187.269878 
L 181.17541 197.224387 
L 187.810143 197.279903 
z
" style="stroke:#000000;"/>
    <path clip-path="url(#p06778bb00a)" d="M 180.889824 218.926314 
L 178.233689 216.544711 
L 179.944188 207.02348 
z
" style="stroke:#000000;"/>
    <path clip-path="url(#p06778bb00a)" d="M 178.233689 137.796386 
L 180.889824 135.404267 
L 179.944188 147.310846 
z
" style="stroke:#000000;"/>
    <path clip-path="url(#p06778bb00a)" d="M 181.17541 157.105064 
L 186.58511 147.239136 
L 179.944188 147.310846 
z
" style="stroke:#000000;"/>
    <path clip-path="url(#p06778bb00a)" d="M 178.587992 125.698504 
L 187.525993 135.3023 
L 180.889824 135.404267 
z
" style="stroke:#000000;"/>
    <path clip-path="url(#p06778bb00a)" d="M 186.58511 147.239136 
L 181.17541 157.105064 
L 187.810143 157.0584 
z
" style="stroke:#000000;"/>
    <path clip-path="url(#p06778bb00a)" d="M 178.233689 216.544711 
L 180.889824 218.926314 
L 178.587992 228.641192 
z
" style="stroke:#000000;"/>
    <path clip-path="url(#p06778bb00a)" d="M 180.889824 135.404267 
L 178.233689 137.796386 
L 178.587992 125.698504 
z
" style="stroke:#000000;"/>
    <path clip-path="url(#p06778bb00a)" d="M 189.325383 145.423118 
L 186.58511 147.239136 
L 187.810143 157.0584 
z
" style="stroke:#000000;"/>
    <path clip-path="url(#p06778bb00a)" d="M 186.58511 207.104066 
L 189.325383 208.909124 
L 187.810143 197.279903 
z
" style="stroke:#000000;"/>
    <path clip-path="url(#p06778bb00a)" d="M 186.58511 147.239136 
L 189.325383 145.423118 
L 187.525993 135.3023 
z
" style="stroke:#000000;"/>
    <path clip-path="url(#p06778bb00a)" d="M 189.325383 208.909124 
L 186.58511 207.104066 
L 187.525993 219.037139 
z
" style="stroke:#000000;"/>
    <path clip-path="url(#p06778bb00a)" d="M 187.810143 197.279903 
L 179.944188 207.02348 
L 186.58511 207.104066 
z
" style="stroke:#000000;"/>
    <path clip-path="url(#p06778bb00a)" d="M 185.235722 228.777123 
L 180.889824 218.926314 
L 187.525993 219.037139 
z
" style="stroke:#000000;"/>
    <path clip-path="url(#p06778bb00a)" d="M 178.233689 216.544711 
L 186.58511 207.104066 
L 179.944188 207.02348 
z
" style="stroke:#000000;"/>
    <path clip-path="url(#p06778bb00a)" d="M 180.889824 218.926314 
L 185.235722 228.777123 
L 178.587992 228.641192 
z
" style="stroke:#000000;"/>
    <path clip-path="url(#p06778bb00a)" d="M 179.944188 147.310846 
L 184.883195 137.700223 
L 178.233689 137.796386 
z
" style="stroke:#000000;"/>
    <path clip-path="url(#p06778bb00a)" d="M 184.883195 137.700223 
L 179.944188 147.310846 
L 186.58511 147.239136 
z
" style="stroke:#000000;"/>
    <path clip-path="url(#p06778bb00a)" d="M 187.525993 135.3023 
L 178.587992 125.698504 
L 185.235722 125.571476 
z
" style="stroke:#000000;"/>
    <path clip-path="url(#p06778bb00a)" d="M 178.587992 228.641192 
L 176.057203 225.697004 
L 178.233689 216.544711 
z
" style="stroke:#000000;"/>
    <path clip-path="url(#p06778bb00a)" d="M 176.057203 128.652711 
L 178.587992 125.698504 
L 178.233689 137.796386 
z
" style="stroke:#000000;"/>
    <path clip-path="url(#p06778bb00a)" d="M 187.525993 135.3023 
L 184.883195 137.700223 
L 186.58511 147.239136 
z
" style="stroke:#000000;"/>
    <path clip-path="url(#p06778bb00a)" d="M 184.883195 216.649786 
L 187.525993 219.037139 
L 186.58511 207.104066 
z
" style="stroke:#000000;"/>
    <path clip-path="url(#p06778bb00a)" d="M 186.58511 207.104066 
L 178.233689 216.544711 
L 184.883195 216.649786 
z
" style="stroke:#000000;"/>
    <path clip-path="url(#p06778bb00a)" d="M 184.883195 137.700223 
L 187.525993 135.3023 
L 185.235722 125.571476 
z
" style="stroke:#000000;"/>
    <path clip-path="url(#p06778bb00a)" d="M 187.525993 219.037139 
L 184.883195 216.649786 
L 185.235722 228.777123 
z
" style="stroke:#000000;"/>
    <path clip-path="url(#p06778bb00a)" d="M 175.810601 116.476394 
L 185.235722 125.571476 
L 178.587992 125.698504 
z
" style="stroke:#000000;"/>
    <path clip-path="url(#p06778bb00a)" d="M 175.810601 237.874298 
L 176.057203 225.697004 
L 178.587992 228.641192 
z
" style="stroke:#000000;"/>
    <path clip-path="url(#p06778bb00a)" d="M 176.057203 128.652711 
L 175.810601 116.476394 
L 178.587992 125.698504 
z
" style="stroke:#000000;"/>
    <path clip-path="url(#p06778bb00a)" d="M 176.057203 225.697004 
L 184.883195 216.649786 
L 178.233689 216.544711 
z
" style="stroke:#000000;"/>
    <path clip-path="url(#p06778bb00a)" d="M 182.472239 238.034319 
L 178.587992 228.641192 
L 185.235722 228.777123 
z
" style="stroke:#000000;"/>
    <path clip-path="url(#p06778bb00a)" d="M 178.233689 137.796386 
L 182.717608 128.532885 
L 176.057203 128.652711 
z
" style="stroke:#000000;"/>
    <path clip-path="url(#p06778bb00a)" d="M 182.717608 128.532885 
L 178.233689 137.796386 
L 184.883195 137.700223 
z
" style="stroke:#000000;"/>
    <path clip-path="url(#p06778bb00a)" d="M 178.587992 228.641192 
L 182.472239 238.034319 
L 175.810601 237.874298 
z
" style="stroke:#000000;"/>
    <path clip-path="url(#p06778bb00a)" d="M 185.235722 125.571476 
L 182.717608 128.532885 
L 184.883195 137.700223 
z
" style="stroke:#000000;"/>
    <path clip-path="url(#p06778bb00a)" d="M 182.717608 225.825785 
L 185.235722 228.777123 
L 184.883195 216.649786 
z
" style="stroke:#000000;"/>
    <path clip-path="url(#p06778bb00a)" d="M 184.883195 216.649786 
L 176.057203 225.697004 
L 182.717608 225.825785 
z
" style="stroke:#000000;"/>
    <path clip-path="url(#p06778bb00a)" d="M 185.235722 125.571476 
L 175.810601 116.476394 
L 182.472239 116.325332 
z
" style="stroke:#000000;"/>
    <path clip-path="url(#p06778bb00a)" d="M 175.810601 237.874298 
L 173.431893 234.391059 
L 176.057203 225.697004 
z
" style="stroke:#000000;"/>
    <path clip-path="url(#p06778bb00a)" d="M 173.431893 119.96905 
L 175.810601 116.476394 
L 176.057203 128.652711 
z
" style="stroke:#000000;"/>
    <path clip-path="url(#p06778bb00a)" d="M 182.472239 116.325332 
L 182.717608 128.532885 
L 185.235722 125.571476 
z
" style="stroke:#000000;"/>
    <path clip-path="url(#p06778bb00a)" d="M 182.717608 225.825785 
L 182.472239 238.034319 
L 185.235722 228.777123 
z
" style="stroke:#000000;"/>
    <path clip-path="url(#p06778bb00a)" d="M 173.431893 234.391059 
L 182.717608 225.825785 
L 176.057203 225.697004 
z
" style="stroke:#000000;"/>
    <path clip-path="url(#p06778bb00a)" d="M 172.579482 107.829385 
L 182.472239 116.325332 
L 175.810601 116.476394 
z
" style="stroke:#000000;"/>
    <path clip-path="url(#p06778bb00a)" d="M 172.579482 246.534099 
L 173.431893 234.391059 
L 175.810601 237.874298 
z
" style="stroke:#000000;"/>
    <path clip-path="url(#p06778bb00a)" d="M 173.431893 119.96905 
L 172.579482 107.829385 
L 175.810601 116.476394 
z
" style="stroke:#000000;"/>
    <path clip-path="url(#p06778bb00a)" d="M 180.105407 119.826555 
L 176.057203 128.652711 
L 182.717608 128.532885 
z
" style="stroke:#000000;"/>
    <path clip-path="url(#p06778bb00a)" d="M 176.057203 128.652711 
L 180.105407 119.826555 
L 173.431893 119.96905 
z
" style="stroke:#000000;"/>
    <path clip-path="url(#p06778bb00a)" d="M 179.257245 246.71698 
L 175.810601 237.874298 
L 182.472239 238.034319 
z
" style="stroke:#000000;"/>
    <path clip-path="url(#p06778bb00a)" d="M 175.810601 237.874298 
L 179.257245 246.71698 
L 172.579482 246.534099 
z
" style="stroke:#000000;"/>
    <path clip-path="url(#p06778bb00a)" d="M 182.472239 116.325332 
L 180.105407 119.826555 
L 182.717608 128.532885 
z
" style="stroke:#000000;"/>
    <path clip-path="url(#p06778bb00a)" d="M 180.105407 234.542563 
L 182.472239 238.034319 
L 182.717608 225.825785 
z
" style="stroke:#000000;"/>
    <path clip-path="url(#p06778bb00a)" d="M 182.717608 225.825785 
L 173.431893 234.391059 
L 180.105407 234.542563 
z
" style="stroke:#000000;"/>
    <path clip-path="url(#p06778bb00a)" d="M 182.472239 116.325332 
L 172.579482 107.829385 
L 179.257245 107.65553 
z
" style="stroke:#000000;"/>
    <path clip-path="url(#p06778bb00a)" d="M 172.579482 246.534099 
L 170.378883 242.539151 
L 173.431893 234.391059 
z
" style="stroke:#000000;"/>
    <path clip-path="url(#p06778bb00a)" d="M 170.378883 111.833046 
L 172.579482 107.829385 
L 173.431893 119.96905 
z
" style="stroke:#000000;"/>
    <path clip-path="url(#p06778bb00a)" d="M 179.257245 107.65553 
L 180.105407 119.826555 
L 182.472239 116.325332 
z
" style="stroke:#000000;"/>
    <path clip-path="url(#p06778bb00a)" d="M 180.105407 234.542563 
L 179.257245 246.71698 
L 182.472239 238.034319 
z
" style="stroke:#000000;"/>
    <path clip-path="url(#p06778bb00a)" d="M 170.378883 242.539151 
L 180.105407 234.542563 
L 173.431893 234.391059 
z
" style="stroke:#000000;"/>
    <path clip-path="url(#p06778bb00a)" d="M 170.753831 103.846557 
L 179.257245 107.65553 
L 172.579482 107.829385 
z
" style="stroke:#000000;"/>
    <path clip-path="url(#p06778bb00a)" d="M 169.459863 249.248143 
L 172.579482 246.534099 
L 170.753831 250.524155 
z
" style="stroke:#000000;"/>
    <path clip-path="url(#p06778bb00a)" d="M 172.579482 107.829385 
L 169.459863 105.127693 
L 170.753831 103.846557 
z
" style="stroke:#000000;"/>
    <path clip-path="url(#p06778bb00a)" d="M 177.067593 111.669081 
L 173.431893 119.96905 
L 180.105407 119.826555 
z
" style="stroke:#000000;"/>
    <path clip-path="url(#p06778bb00a)" d="M 172.579482 246.534099 
L 169.459863 249.248143 
L 170.378883 242.539151 
z
" style="stroke:#000000;"/>
    <path clip-path="url(#p06778bb00a)" d="M 169.459863 105.127693 
L 172.579482 107.829385 
L 170.378883 111.833046 
z
" style="stroke:#000000;"/>
    <path clip-path="url(#p06778bb00a)" d="M 173.431893 119.96905 
L 177.067593 111.669081 
L 170.378883 111.833046 
z
" style="stroke:#000000;"/>
    <path clip-path="url(#p06778bb00a)" d="M 172.579482 246.534099 
L 177.440678 250.717696 
L 170.753831 250.524155 
z
" style="stroke:#000000;"/>
    <path clip-path="url(#p06778bb00a)" d="M 177.440678 250.717696 
L 172.579482 246.534099 
L 179.257245 246.71698 
z
" style="stroke:#000000;"/>
    <path clip-path="url(#p06778bb00a)" d="M 180.105407 234.542563 
L 170.378883 242.539151 
L 177.067593 242.712186 
z
" style="stroke:#000000;"/>
    <path clip-path="url(#p06778bb00a)" d="M 179.257245 107.65553 
L 177.067593 111.669081 
L 180.105407 119.826555 
z
" style="stroke:#000000;"/>
    <path clip-path="url(#p06778bb00a)" d="M 177.067593 242.712186 
L 179.257245 246.71698 
L 180.105407 234.542563 
z
" style="stroke:#000000;"/>
    <path clip-path="url(#p06778bb00a)" d="M 179.257245 107.65553 
L 170.753831 103.846557 
L 177.440678 103.662079 
z
" style="stroke:#000000;"/>
    <path clip-path="url(#p06778bb00a)" d="M 177.440678 250.717696 
L 169.459863 249.248143 
L 170.753831 250.524155 
z
" style="stroke:#000000;"/>
    <path clip-path="url(#p06778bb00a)" d="M 170.378883 242.539151 
L 169.459863 249.248143 
L 168.09676 247.504136 
z
" style="stroke:#000000;"/>
    <path clip-path="url(#p06778bb00a)" d="M 169.459863 105.127693 
L 170.378883 111.833046 
L 168.09676 106.877096 
z
" style="stroke:#000000;"/>
    <path clip-path="url(#p06778bb00a)" d="M 176.153137 104.946252 
L 170.753831 103.846557 
L 169.459863 105.127693 
z
" style="stroke:#000000;"/>
    <path clip-path="url(#p06778bb00a)" d="M 177.067593 111.669081 
L 168.09676 106.877096 
L 170.378883 111.833046 
z
" style="stroke:#000000;"/>
    <path clip-path="url(#p06778bb00a)" d="M 170.753831 103.846557 
L 176.153137 104.946252 
L 177.440678 103.662079 
z
" style="stroke:#000000;"/>
    <path clip-path="url(#p06778bb00a)" d="M 176.153137 104.946252 
L 179.257245 107.65553 
L 177.440678 103.662079 
z
" style="stroke:#000000;"/>
    <path clip-path="url(#p06778bb00a)" d="M 179.257245 246.71698 
L 176.153137 249.438673 
L 177.440678 250.717696 
z
" style="stroke:#000000;"/>
    <path clip-path="url(#p06778bb00a)" d="M 179.257245 107.65553 
L 176.153137 104.946252 
L 177.067593 111.669081 
z
" style="stroke:#000000;"/>
    <path clip-path="url(#p06778bb00a)" d="M 176.153137 249.438673 
L 179.257245 246.71698 
L 177.067593 242.712186 
z
" style="stroke:#000000;"/>
    <path clip-path="url(#p06778bb00a)" d="M 169.459863 249.248143 
L 177.440678 250.717696 
L 176.153137 249.438673 
z
" style="stroke:#000000;"/>
    <path clip-path="url(#p06778bb00a)" d="M 176.153137 249.438673 
L 168.09676 247.504136 
L 169.459863 249.248143 
z
" style="stroke:#000000;"/>
    <path clip-path="url(#p06778bb00a)" d="M 174.796793 247.690451 
L 170.378883 242.539151 
L 168.09676 247.504136 
z
" style="stroke:#000000;"/>
    <path clip-path="url(#p06778bb00a)" d="M 170.378883 242.539151 
L 174.796793 247.690451 
L 177.067593 242.712186 
z
" style="stroke:#000000;"/>
    <path clip-path="url(#p06778bb00a)" d="M 174.796793 106.699899 
L 169.459863 105.127693 
L 168.09676 106.877096 
z
" style="stroke:#000000;"/>
    <path clip-path="url(#p06778bb00a)" d="M 169.459863 105.127693 
L 174.796793 106.699899 
L 176.153137 104.946252 
z
" style="stroke:#000000;"/>
    <path clip-path="url(#p06778bb00a)" d="M 168.09676 106.877096 
L 177.067593 111.669081 
L 174.796793 106.699899 
z
" style="stroke:#000000;"/>
    <path clip-path="url(#p06778bb00a)" d="M 168.09676 247.504136 
L 176.153137 249.438673 
L 174.796793 247.690451 
z
" style="stroke:#000000;"/>
    <path clip-path="url(#p06778bb00a)" d="M 177.067593 111.669081 
L 176.153137 104.946252 
L 174.796793 106.699899 
z
" style="stroke:#000000;"/>
    <path clip-path="url(#p06778bb00a)" d="M 176.153137 249.438673 
L 177.067593 242.712186 
L 174.796793 247.690451 
z
" style="stroke:#000000;"/>
   </g>
  </g>
 </g>
 <defs>
  <clipPath id="p06778bb00a">
   <rect height="271.8" width="279" x="45" y="43.2"/>
  </clipPath>
 </defs>
</svg>
