<?xml version="1.0" encoding="utf-8" standalone="no"?>
<!DOCTYPE svg PUBLIC "-//W3C//DTD SVG 1.1//EN"
  "http://www.w3.org/Graphics/SVG/1.1/DTD/svg11.dtd">
<!-- Created with matplotlib (https://matplotlib.org/) -->
<svg height="360pt" version="1.1" viewBox="0 0 360 360" width="360pt" xmlns="http://www.w3.org/2000/svg" xmlns:xlink="http://www.w3.org/1999/xlink">
 <defs>
  <style type="text/css">
*{stroke-linecap:butt;stroke-linejoin:round;}
  </style>
 </defs>
 <g id="figure_1">
  <g id="patch_1">
   <path d="M 45 315 
L 324 315 
L 324 43.2 
L 45 43.2 
z
" style="fill:#ffffff;"/>
  </g>
  <g id="axes_1">
   <g id="Poly3DCollection_1">
    <path clip-path="url(#pcec38aa8ad)" d="M 249.289892 293.950594 
L 246.410056 283.214949 
L 253.547698 290.901591 
z
" style="stroke:#000000;"/>
    <path clip-path="url(#pcec38aa8ad)" d="M 246.410056 71.065293 
L 249.289892 60.328782 
L 253.547698 63.376505 
z
" style="stroke:#000000;"/>
    <path clip-path="url(#pcec38aa8ad)" d="M 249.289892 293.950594 
L 239.484043 290.055316 
L 246.410056 283.214949 
z
" style="stroke:#000000;"/>
    <path clip-path="url(#pcec38aa8ad)" d="M 239.484043 64.227008 
L 249.289892 60.328782 
L 246.410056 71.065293 
z
" style="stroke:#000000;"/>
    <path clip-path="url(#pcec38aa8ad)" d="M 239.484043 290.055316 
L 249.289892 293.950594 
L 245.232989 296.239375 
z
" style="stroke:#000000;"/>
    <path clip-path="url(#pcec38aa8ad)" d="M 249.289892 60.328782 
L 239.484043 64.227008 
L 245.232989 58.041221 
z
" style="stroke:#000000;"/>
    <path clip-path="url(#pcec38aa8ad)" d="M 239.484043 290.055316 
L 236.789703 270.399798 
L 246.410056 283.214949 
z
" style="stroke:#000000;"/>
    <path clip-path="url(#pcec38aa8ad)" d="M 236.789703 83.883336 
L 239.484043 64.227008 
L 246.410056 71.065293 
z
" style="stroke:#000000;"/>
    <path clip-path="url(#pcec38aa8ad)" d="M 229.236679 276.418736 
L 236.789703 270.399798 
L 239.484043 290.055316 
z
" style="stroke:#000000;"/>
    <path clip-path="url(#pcec38aa8ad)" d="M 236.789703 83.883336 
L 229.236679 77.866669 
L 239.484043 64.227008 
z
" style="stroke:#000000;"/>
    <path clip-path="url(#pcec38aa8ad)" d="M 229.236679 276.418736 
L 228.450752 256.530739 
L 236.789703 270.399798 
z
" style="stroke:#000000;"/>
    <path clip-path="url(#pcec38aa8ad)" d="M 228.450752 97.754902 
L 229.236679 77.866669 
L 236.789703 83.883336 
z
" style="stroke:#000000;"/>
    <path clip-path="url(#pcec38aa8ad)" d="M 220.353302 261.65918 
L 228.450752 256.530739 
L 229.236679 276.418736 
z
" style="stroke:#000000;"/>
    <path clip-path="url(#pcec38aa8ad)" d="M 228.450752 97.754902 
L 220.353302 92.628895 
L 229.236679 77.866669 
z
" style="stroke:#000000;"/>
    <path clip-path="url(#pcec38aa8ad)" d="M 228.450752 256.530739 
L 220.353302 261.65918 
L 221.490418 241.763185 
z
" style="stroke:#000000;"/>
    <path clip-path="url(#pcec38aa8ad)" d="M 220.353302 92.628895 
L 228.450752 97.754902 
L 221.490418 112.524548 
z
" style="stroke:#000000;"/>
    <path clip-path="url(#pcec38aa8ad)" d="M 255.748139 291.864715 
L 249.289892 293.950594 
L 253.547698 290.901591 
z
" style="stroke:#000000;"/>
    <path clip-path="url(#pcec38aa8ad)" d="M 255.748139 62.441939 
L 246.410056 71.065293 
L 253.547698 63.376505 
z
" style="stroke:#000000;"/>
    <path clip-path="url(#pcec38aa8ad)" d="M 251.455637 59.368435 
L 253.547698 63.376505 
L 249.289892 60.328782 
z
" style="stroke:#000000;"/>
    <path clip-path="url(#pcec38aa8ad)" d="M 212.937825 245.940483 
L 221.490418 241.763185 
L 220.353302 261.65918 
z
" style="stroke:#000000;"/>
    <path clip-path="url(#pcec38aa8ad)" d="M 221.490418 112.524548 
L 212.937825 108.349821 
L 220.353302 92.628895 
z
" style="stroke:#000000;"/>
    <path clip-path="url(#pcec38aa8ad)" d="M 248.552318 284.11453 
L 253.547698 290.901591 
L 246.410056 283.214949 
z
" style="stroke:#000000;"/>
    <path clip-path="url(#pcec38aa8ad)" d="M 221.490418 241.763185 
L 212.937825 245.940483 
L 215.990109 226.262688 
z
" style="stroke:#000000;"/>
    <path clip-path="url(#pcec38aa8ad)" d="M 212.937825 108.349821 
L 221.490418 112.524548 
L 215.990109 128.026699 
z
" style="stroke:#000000;"/>
    <path clip-path="url(#pcec38aa8ad)" d="M 251.455637 294.939521 
L 245.232989 296.239375 
L 249.289892 293.950594 
z
" style="stroke:#000000;"/>
    <path clip-path="url(#pcec38aa8ad)" d="M 247.365649 57.061435 
L 249.289892 60.328782 
L 245.232989 58.041221 
z
" style="stroke:#000000;"/>
    <path clip-path="url(#pcec38aa8ad)" d="M 207.077527 229.439935 
L 215.990109 226.262688 
L 212.937825 245.940483 
z
" style="stroke:#000000;"/>
    <path clip-path="url(#pcec38aa8ad)" d="M 215.990109 128.026699 
L 207.077527 124.852131 
L 212.937825 108.349821 
z
" style="stroke:#000000;"/>
    <path clip-path="url(#pcec38aa8ad)" d="M 215.990109 226.262688 
L 207.077527 229.439935 
L 212.014407 210.204144 
z
" style="stroke:#000000;"/>
    <path clip-path="url(#pcec38aa8ad)" d="M 207.077527 124.852131 
L 215.990109 128.026699 
L 212.014407 144.086437 
z
" style="stroke:#000000;"/>
    <path clip-path="url(#pcec38aa8ad)" d="M 239.484043 64.227008 
L 247.365649 57.061435 
L 245.232989 58.041221 
z
" style="stroke:#000000;"/>
    <path clip-path="url(#pcec38aa8ad)" d="M 236.789703 270.399798 
L 248.552318 284.11453 
L 246.410056 283.214949 
z
" style="stroke:#000000;"/>
    <path clip-path="url(#pcec38aa8ad)" d="M 245.232989 296.239375 
L 241.569779 291.012572 
L 239.484043 290.055316 
z
" style="stroke:#000000;"/>
    <path clip-path="url(#pcec38aa8ad)" d="M 246.410056 71.065293 
L 238.853429 83.118676 
L 236.789703 83.883336 
z
" style="stroke:#000000;"/>
    <path clip-path="url(#pcec38aa8ad)" d="M 212.014407 210.204144 
L 202.841341 212.343903 
L 209.610123 193.769646 
z
" style="stroke:#000000;"/>
    <path clip-path="url(#pcec38aa8ad)" d="M 202.841341 141.949436 
L 212.014407 144.086437 
L 209.610123 160.521658 
z
" style="stroke:#000000;"/>
    <path clip-path="url(#pcec38aa8ad)" d="M 202.841341 212.343903 
L 212.014407 210.204144 
L 207.077527 229.439935 
z
" style="stroke:#000000;"/>
    <path clip-path="url(#pcec38aa8ad)" d="M 212.014407 144.086437 
L 202.841341 141.949436 
L 207.077527 124.852131 
z
" style="stroke:#000000;"/>
    <path clip-path="url(#pcec38aa8ad)" d="M 200.279394 159.447541 
L 209.610123 160.521658 
L 208.80549 177.145773 
z
" style="stroke:#000000;"/>
    <path clip-path="url(#pcec38aa8ad)" d="M 209.610123 193.769646 
L 200.279394 194.846569 
L 208.80549 177.145773 
z
" style="stroke:#000000;"/>
    <path clip-path="url(#pcec38aa8ad)" d="M 229.236679 77.866669 
L 241.569779 63.298381 
L 239.484043 64.227008 
z
" style="stroke:#000000;"/>
    <path clip-path="url(#pcec38aa8ad)" d="M 200.279394 194.846569 
L 209.610123 193.769646 
L 202.841341 212.343903 
z
" style="stroke:#000000;"/>
    <path clip-path="url(#pcec38aa8ad)" d="M 209.610123 160.521658 
L 200.279394 159.447541 
L 202.841341 141.949436 
z
" style="stroke:#000000;"/>
    <path clip-path="url(#pcec38aa8ad)" d="M 199.422047 177.147184 
L 208.80549 177.145773 
L 200.279394 194.846569 
z
" style="stroke:#000000;"/>
    <path clip-path="url(#pcec38aa8ad)" d="M 208.80549 177.145773 
L 199.422047 177.147184 
L 200.279394 159.447541 
z
" style="stroke:#000000;"/>
    <path clip-path="url(#pcec38aa8ad)" d="M 228.450752 256.530739 
L 238.853429 271.193101 
L 236.789703 270.399798 
z
" style="stroke:#000000;"/>
    <path clip-path="url(#pcec38aa8ad)" d="M 239.484043 290.055316 
L 231.238652 277.262878 
L 229.236679 276.418736 
z
" style="stroke:#000000;"/>
    <path clip-path="url(#pcec38aa8ad)" d="M 210.367901 68.871593 
L 186.886807 102.55785 
L 202.551572 70.914917 
z
" style="stroke:#000000;"/>
    <path clip-path="url(#pcec38aa8ad)" d="M 202.551572 70.914917 
L 186.886807 51.700202 
L 210.367901 68.871593 
z
" style="stroke:#000000;"/>
    <path clip-path="url(#pcec38aa8ad)" d="M 236.789703 83.883336 
L 230.446294 97.105632 
L 228.450752 97.754902 
z
" style="stroke:#000000;"/>
    <path clip-path="url(#pcec38aa8ad)" d="M 186.886807 102.55785 
L 210.367901 68.871593 
L 186.886807 119.5104 
z
" style="stroke:#000000;"/>
    <path clip-path="url(#pcec38aa8ad)" d="M 220.353302 92.628895 
L 231.238652 77.051208 
L 229.236679 77.866669 
z
" style="stroke:#000000;"/>
    <path clip-path="url(#pcec38aa8ad)" d="M 221.490418 241.763185 
L 230.446294 257.208693 
L 228.450752 256.530739 
z
" style="stroke:#000000;"/>
    <path clip-path="url(#pcec38aa8ad)" d="M 186.886807 51.700202 
L 202.551572 70.914917 
L 186.886807 60.176477 
z
" style="stroke:#000000;"/>
    <path clip-path="url(#pcec38aa8ad)" d="M 228.450752 97.754902 
L 223.428969 111.998417 
L 221.490418 112.524548 
z
" style="stroke:#000000;"/>
    <path clip-path="url(#pcec38aa8ad)" d="M 229.236679 276.418736 
L 222.282536 262.380519 
L 220.353302 261.65918 
z
" style="stroke:#000000;"/>
    <path clip-path="url(#pcec38aa8ad)" d="M 253.547698 63.376505 
L 251.455637 59.368435 
L 255.748139 62.441939 
z
" style="stroke:#000000;"/>
    <path clip-path="url(#pcec38aa8ad)" d="M 215.990109 226.262688 
L 223.428969 242.318037 
L 221.490418 241.763185 
z
" style="stroke:#000000;"/>
    <path clip-path="url(#pcec38aa8ad)" d="M 253.547698 290.901591 
L 248.552318 284.11453 
L 255.748139 291.864715 
z
" style="stroke:#000000;"/>
    <path clip-path="url(#pcec38aa8ad)" d="M 249.289892 293.950594 
L 255.748139 291.864715 
L 251.455637 294.939521 
z
" style="stroke:#000000;"/>
    <path clip-path="url(#pcec38aa8ad)" d="M 212.937825 108.349821 
L 222.282536 91.936282 
L 220.353302 92.628895 
z
" style="stroke:#000000;"/>
    <path clip-path="url(#pcec38aa8ad)" d="M 221.490418 112.524548 
L 217.883573 127.630038 
L 215.990109 128.026699 
z
" style="stroke:#000000;"/>
    <path clip-path="url(#pcec38aa8ad)" d="M 246.410056 71.065293 
L 255.748139 62.441939 
L 248.552318 70.194306 
z
" style="stroke:#000000;"/>
    <path clip-path="url(#pcec38aa8ad)" d="M 249.289892 60.328782 
L 247.365649 57.061435 
L 251.455637 59.368435 
z
" style="stroke:#000000;"/>
    <path clip-path="url(#pcec38aa8ad)" d="M 220.353302 261.65918 
L 214.80625 246.53072 
L 212.937825 245.940483 
z
" style="stroke:#000000;"/>
    <path clip-path="url(#pcec38aa8ad)" d="M 245.232989 296.239375 
L 251.455637 294.939521 
L 247.365649 297.247761 
z
" style="stroke:#000000;"/>
    <path clip-path="url(#pcec38aa8ad)" d="M 212.014407 210.204144 
L 217.883573 226.688096 
L 215.990109 226.262688 
z
" style="stroke:#000000;"/>
    <path clip-path="url(#pcec38aa8ad)" d="M 171.179088 70.628331 
L 186.886807 51.700202 
L 186.886807 60.176477 
z
" style="stroke:#000000;"/>
    <path clip-path="url(#pcec38aa8ad)" d="M 215.990109 128.026699 
L 213.875253 143.824078 
L 212.014407 144.086437 
z
" style="stroke:#000000;"/>
    <path clip-path="url(#pcec38aa8ad)" d="M 241.569779 291.012572 
L 245.232989 296.239375 
L 247.365649 297.247761 
z
" style="stroke:#000000;"/>
    <path clip-path="url(#pcec38aa8ad)" d="M 238.853429 83.118676 
L 246.410056 71.065293 
L 248.552318 70.194306 
z
" style="stroke:#000000;"/>
    <path clip-path="url(#pcec38aa8ad)" d="M 209.610123 193.769646 
L 213.875253 210.495272 
L 212.014407 210.204144 
z
" style="stroke:#000000;"/>
    <path clip-path="url(#pcec38aa8ad)" d="M 207.077527 124.852131 
L 214.80625 107.788347 
L 212.937825 108.349821 
z
" style="stroke:#000000;"/>
    <path clip-path="url(#pcec38aa8ad)" d="M 163.309065 68.433009 
L 186.886807 102.55785 
L 186.886807 119.5104 
z
" style="stroke:#000000;"/>
    <path clip-path="url(#pcec38aa8ad)" d="M 212.014407 144.086437 
L 211.451233 160.396855 
L 209.610123 160.521658 
z
" style="stroke:#000000;"/>
    <path clip-path="url(#pcec38aa8ad)" d="M 247.365649 57.061435 
L 239.484043 64.227008 
L 241.569779 63.298381 
z
" style="stroke:#000000;"/>
    <path clip-path="url(#pcec38aa8ad)" d="M 208.80549 177.145773 
L 211.451233 193.92323 
L 209.610123 193.769646 
z
" style="stroke:#000000;"/>
    <path clip-path="url(#pcec38aa8ad)" d="M 209.610123 160.521658 
L 210.639993 177.160165 
L 208.80549 177.145773 
z
" style="stroke:#000000;"/>
    <path clip-path="url(#pcec38aa8ad)" d="M 212.937825 245.940483 
L 208.897839 229.892287 
L 207.077527 229.439935 
z
" style="stroke:#000000;"/>
    <path clip-path="url(#pcec38aa8ad)" d="M 248.552318 284.11453 
L 236.789703 270.399798 
L 238.853429 271.193101 
z
" style="stroke:#000000;"/>
    <path clip-path="url(#pcec38aa8ad)" d="M 186.886807 102.55785 
L 163.309065 68.433009 
L 171.179088 70.628331 
z
" style="stroke:#000000;"/>
    <path clip-path="url(#pcec38aa8ad)" d="M 186.886807 51.700202 
L 171.179088 70.628331 
L 163.309065 68.433009 
z
" style="stroke:#000000;"/>
    <path clip-path="url(#pcec38aa8ad)" d="M 202.841341 141.949436 
L 208.897839 124.428572 
L 207.077527 124.852131 
z
" style="stroke:#000000;"/>
    <path clip-path="url(#pcec38aa8ad)" d="M 231.238652 277.262878 
L 239.484043 290.055316 
L 241.569779 291.012572 
z
" style="stroke:#000000;"/>
    <path clip-path="url(#pcec38aa8ad)" d="M 207.077527 229.439935 
L 204.626842 212.653193 
L 202.841341 212.343903 
z
" style="stroke:#000000;"/>
    <path clip-path="url(#pcec38aa8ad)" d="M 164.883933 177.152375 
L 174.324076 177.150956 
L 173.462835 194.892077 
z
" style="stroke:#000000;"/>
    <path clip-path="url(#pcec38aa8ad)" d="M 174.324076 177.150956 
L 164.883933 177.152375 
L 173.462835 159.410094 
z
" style="stroke:#000000;"/>
    <path clip-path="url(#pcec38aa8ad)" d="M 230.446294 97.105632 
L 236.789703 83.883336 
L 238.853429 83.118676 
z
" style="stroke:#000000;"/>
    <path clip-path="url(#pcec38aa8ad)" d="M 200.279394 159.447541 
L 204.626842 141.66896 
L 202.841341 141.949436 
z
" style="stroke:#000000;"/>
    <path clip-path="url(#pcec38aa8ad)" d="M 164.072992 193.842699 
L 173.462835 194.892077 
L 170.887712 212.447012 
z
" style="stroke:#000000;"/>
    <path clip-path="url(#pcec38aa8ad)" d="M 173.462835 159.410094 
L 164.072992 160.462295 
L 170.887712 141.855934 
z
" style="stroke:#000000;"/>
    <path clip-path="url(#pcec38aa8ad)" d="M 202.841341 212.343903 
L 202.043829 195.009303 
L 200.279394 194.846569 
z
" style="stroke:#000000;"/>
    <path clip-path="url(#pcec38aa8ad)" d="M 241.569779 63.298381 
L 229.236679 77.866669 
L 231.238652 77.051208 
z
" style="stroke:#000000;"/>
    <path clip-path="url(#pcec38aa8ad)" d="M 199.422047 177.147184 
L 202.043829 159.313634 
L 200.279394 159.447541 
z
" style="stroke:#000000;"/>
    <path clip-path="url(#pcec38aa8ad)" d="M 200.279394 194.846569 
L 201.17943 177.161599 
L 199.422047 177.147184 
z
" style="stroke:#000000;"/>
    <path clip-path="url(#pcec38aa8ad)" d="M 238.853429 271.193101 
L 228.450752 256.530739 
L 230.446294 257.208693 
z
" style="stroke:#000000;"/>
    <path clip-path="url(#pcec38aa8ad)" d="M 164.072992 160.462295 
L 173.462835 159.410094 
L 164.883933 177.152375 
z
" style="stroke:#000000;"/>
    <path clip-path="url(#pcec38aa8ad)" d="M 173.462835 194.892077 
L 164.072992 193.842699 
L 164.883933 177.152375 
z
" style="stroke:#000000;"/>
    <path clip-path="url(#pcec38aa8ad)" d="M 161.648498 210.357369 
L 170.887712 212.447012 
L 166.624668 229.630989 
z
" style="stroke:#000000;"/>
    <path clip-path="url(#pcec38aa8ad)" d="M 170.887712 141.855934 
L 161.648498 143.948354 
L 166.624668 124.673237 
z
" style="stroke:#000000;"/>
    <path clip-path="url(#pcec38aa8ad)" d="M 170.887712 212.447012 
L 161.648498 210.357369 
L 164.072992 193.842699 
z
" style="stroke:#000000;"/>
    <path clip-path="url(#pcec38aa8ad)" d="M 161.648498 143.948354 
L 170.887712 141.855934 
L 164.072992 160.462295 
z
" style="stroke:#000000;"/>
    <path clip-path="url(#pcec38aa8ad)" d="M 204.33469 70.03929 
L 186.886807 60.176477 
L 202.551572 70.914917 
z
" style="stroke:#000000;"/>
    <path clip-path="url(#pcec38aa8ad)" d="M 186.886807 102.55785 
L 204.33469 70.03929 
L 202.551572 70.914917 
z
" style="stroke:#000000;"/>
    <path clip-path="url(#pcec38aa8ad)" d="M 188.540963 50.662159 
L 210.367901 68.871593 
L 186.886807 51.700202 
z
" style="stroke:#000000;"/>
    <path clip-path="url(#pcec38aa8ad)" d="M 210.367901 68.871593 
L 188.540963 119.04127 
L 186.886807 119.5104 
z
" style="stroke:#000000;"/>
    <path clip-path="url(#pcec38aa8ad)" d="M 222.282536 262.380519 
L 229.236679 276.418736 
L 231.238652 277.262878 
z
" style="stroke:#000000;"/>
    <path clip-path="url(#pcec38aa8ad)" d="M 223.428969 111.998417 
L 228.450752 97.754902 
L 230.446294 97.105632 
z
" style="stroke:#000000;"/>
    <path clip-path="url(#pcec38aa8ad)" d="M 166.624668 229.630989 
L 157.634888 226.522283 
L 161.648498 210.357369 
z
" style="stroke:#000000;"/>
    <path clip-path="url(#pcec38aa8ad)" d="M 157.634888 127.784646 
L 166.624668 124.673237 
L 161.648498 143.948354 
z
" style="stroke:#000000;"/>
    <path clip-path="url(#pcec38aa8ad)" d="M 157.634888 226.522283 
L 166.624668 229.630989 
L 160.716774 246.262627 
z
" style="stroke:#000000;"/>
    <path clip-path="url(#pcec38aa8ad)" d="M 166.624668 124.673237 
L 157.634888 127.784646 
L 160.716774 108.043376 
z
" style="stroke:#000000;"/>
    <path clip-path="url(#pcec38aa8ad)" d="M 230.446294 257.208693 
L 221.490418 241.763185 
L 223.428969 242.318037 
z
" style="stroke:#000000;"/>
    <path clip-path="url(#pcec38aa8ad)" d="M 231.238652 77.051208 
L 220.353302 92.628895 
L 222.282536 91.936282 
z
" style="stroke:#000000;"/>
    <path clip-path="url(#pcec38aa8ad)" d="M 160.716774 246.262627 
L 152.072892 242.166345 
L 157.634888 226.522283 
z
" style="stroke:#000000;"/>
    <path clip-path="url(#pcec38aa8ad)" d="M 152.072892 112.142257 
L 160.716774 108.043376 
L 157.634888 127.784646 
z
" style="stroke:#000000;"/>
    <path clip-path="url(#pcec38aa8ad)" d="M 217.883573 127.630038 
L 221.490418 112.524548 
L 223.428969 111.998417 
z
" style="stroke:#000000;"/>
    <path clip-path="url(#pcec38aa8ad)" d="M 152.072892 242.166345 
L 160.716774 246.262627 
L 153.223641 262.165935 
z
" style="stroke:#000000;"/>
    <path clip-path="url(#pcec38aa8ad)" d="M 160.716774 108.043376 
L 152.072892 112.142257 
L 153.223641 92.14232 
z
" style="stroke:#000000;"/>
    <path clip-path="url(#pcec38aa8ad)" d="M 251.455637 59.368435 
L 248.552318 70.194306 
L 255.748139 62.441939 
z
" style="stroke:#000000;"/>
    <path clip-path="url(#pcec38aa8ad)" d="M 248.552318 284.11453 
L 251.455637 294.939521 
L 255.748139 291.864715 
z
" style="stroke:#000000;"/>
    <path clip-path="url(#pcec38aa8ad)" d="M 214.80625 246.53072 
L 220.353302 261.65918 
L 222.282536 262.380519 
z
" style="stroke:#000000;"/>
    <path clip-path="url(#pcec38aa8ad)" d="M 223.428969 242.318037 
L 215.990109 226.262688 
L 217.883573 226.688096 
z
" style="stroke:#000000;"/>
    <path clip-path="url(#pcec38aa8ad)" d="M 222.282536 91.936282 
L 212.937825 108.349821 
L 214.80625 107.788347 
z
" style="stroke:#000000;"/>
    <path clip-path="url(#pcec38aa8ad)" d="M 213.875253 143.824078 
L 215.990109 128.026699 
L 217.883573 127.630038 
z
" style="stroke:#000000;"/>
    <path clip-path="url(#pcec38aa8ad)" d="M 153.223641 262.165935 
L 145.019075 257.12352 
L 152.072892 242.166345 
z
" style="stroke:#000000;"/>
    <path clip-path="url(#pcec38aa8ad)" d="M 145.019075 97.187202 
L 153.223641 92.14232 
L 152.072892 112.142257 
z
" style="stroke:#000000;"/>
    <path clip-path="url(#pcec38aa8ad)" d="M 251.455637 59.368435 
L 241.569779 63.298381 
L 248.552318 70.194306 
z
" style="stroke:#000000;"/>
    <path clip-path="url(#pcec38aa8ad)" d="M 241.569779 291.012572 
L 251.455637 294.939521 
L 248.552318 284.11453 
z
" style="stroke:#000000;"/>
    <path clip-path="url(#pcec38aa8ad)" d="M 188.540963 59.209548 
L 171.179088 70.628331 
L 186.886807 60.176477 
z
" style="stroke:#000000;"/>
    <path clip-path="url(#pcec38aa8ad)" d="M 171.179088 70.628331 
L 188.540963 101.946492 
L 186.886807 102.55785 
z
" style="stroke:#000000;"/>
    <path clip-path="url(#pcec38aa8ad)" d="M 217.883573 226.688096 
L 212.014407 210.204144 
L 213.875253 210.495272 
z
" style="stroke:#000000;"/>
    <path clip-path="url(#pcec38aa8ad)" d="M 241.569779 63.298381 
L 251.455637 59.368435 
L 247.365649 57.061435 
z
" style="stroke:#000000;"/>
    <path clip-path="url(#pcec38aa8ad)" d="M 251.455637 294.939521 
L 241.569779 291.012572 
L 247.365649 297.247761 
z
" style="stroke:#000000;"/>
    <path clip-path="url(#pcec38aa8ad)" d="M 144.221507 277.170938 
L 145.019075 257.12352 
L 153.223641 262.165935 
z
" style="stroke:#000000;"/>
    <path clip-path="url(#pcec38aa8ad)" d="M 145.019075 97.187202 
L 144.221507 77.140023 
L 153.223641 92.14232 
z
" style="stroke:#000000;"/>
    <path clip-path="url(#pcec38aa8ad)" d="M 211.451233 160.396855 
L 212.014407 144.086437 
L 213.875253 143.824078 
z
" style="stroke:#000000;"/>
    <path clip-path="url(#pcec38aa8ad)" d="M 208.897839 229.892287 
L 212.937825 245.940483 
L 214.80625 246.53072 
z
" style="stroke:#000000;"/>
    <path clip-path="url(#pcec38aa8ad)" d="M 213.875253 210.495272 
L 209.610123 193.769646 
L 211.451233 193.92323 
z
" style="stroke:#000000;"/>
    <path clip-path="url(#pcec38aa8ad)" d="M 241.569779 63.298381 
L 238.853429 83.118676 
L 248.552318 70.194306 
z
" style="stroke:#000000;"/>
    <path clip-path="url(#pcec38aa8ad)" d="M 238.853429 271.193101 
L 241.569779 291.012572 
L 248.552318 284.11453 
z
" style="stroke:#000000;"/>
    <path clip-path="url(#pcec38aa8ad)" d="M 210.639993 177.160165 
L 209.610123 160.521658 
L 211.451233 160.396855 
z
" style="stroke:#000000;"/>
    <path clip-path="url(#pcec38aa8ad)" d="M 211.451233 193.92323 
L 208.80549 177.145773 
L 210.639993 177.160165 
z
" style="stroke:#000000;"/>
    <path clip-path="url(#pcec38aa8ad)" d="M 214.80625 107.788347 
L 207.077527 124.852131 
L 208.897839 124.428572 
z
" style="stroke:#000000;"/>
    <path clip-path="url(#pcec38aa8ad)" d="M 144.221507 277.170938 
L 136.545355 271.234438 
L 145.019075 257.12352 
z
" style="stroke:#000000;"/>
    <path clip-path="url(#pcec38aa8ad)" d="M 136.545355 83.078832 
L 144.221507 77.140023 
L 145.019075 97.187202 
z
" style="stroke:#000000;"/>
    <path clip-path="url(#pcec38aa8ad)" d="M 173.462835 159.410094 
L 175.874546 177.165436 
L 174.324076 177.150956 
z
" style="stroke:#000000;"/>
    <path clip-path="url(#pcec38aa8ad)" d="M 204.626842 212.653193 
L 207.077527 229.439935 
L 208.897839 229.892287 
z
" style="stroke:#000000;"/>
    <path clip-path="url(#pcec38aa8ad)" d="M 174.324076 177.150956 
L 175.006188 195.055578 
L 173.462835 194.892077 
z
" style="stroke:#000000;"/>
    <path clip-path="url(#pcec38aa8ad)" d="M 170.887712 141.855934 
L 175.006188 159.275556 
L 173.462835 159.410094 
z
" style="stroke:#000000;"/>
    <path clip-path="url(#pcec38aa8ad)" d="M 208.897839 124.428572 
L 202.841341 141.949436 
L 204.626842 141.66896 
z
" style="stroke:#000000;"/>
    <path clip-path="url(#pcec38aa8ad)" d="M 231.238652 77.051208 
L 238.853429 83.118676 
L 241.569779 63.298381 
z
" style="stroke:#000000;"/>
    <path clip-path="url(#pcec38aa8ad)" d="M 238.853429 271.193101 
L 231.238652 277.262878 
L 241.569779 291.012572 
z
" style="stroke:#000000;"/>
    <path clip-path="url(#pcec38aa8ad)" d="M 173.462835 194.892077 
L 172.409779 212.758039 
L 170.887712 212.447012 
z
" style="stroke:#000000;"/>
    <path clip-path="url(#pcec38aa8ad)" d="M 164.76843 67.533488 
L 186.886807 51.700202 
L 163.309065 68.433009 
z
" style="stroke:#000000;"/>
    <path clip-path="url(#pcec38aa8ad)" d="M 186.886807 119.5104 
L 164.76843 67.533488 
L 163.309065 68.433009 
z
" style="stroke:#000000;"/>
    <path clip-path="url(#pcec38aa8ad)" d="M 210.367901 68.871593 
L 188.540963 50.662159 
L 212.215233 67.979462 
z
" style="stroke:#000000;"/>
    <path clip-path="url(#pcec38aa8ad)" d="M 188.540963 119.04127 
L 210.367901 68.871593 
L 212.215233 67.979462 
z
" style="stroke:#000000;"/>
    <path clip-path="url(#pcec38aa8ad)" d="M 133.802148 291.117586 
L 136.545355 271.234438 
L 144.221507 277.170938 
z
" style="stroke:#000000;"/>
    <path clip-path="url(#pcec38aa8ad)" d="M 136.545355 83.078832 
L 133.802148 63.196508 
L 144.221507 77.140023 
z
" style="stroke:#000000;"/>
    <path clip-path="url(#pcec38aa8ad)" d="M 202.043829 195.009303 
L 202.841341 212.343903 
L 204.626842 212.653193 
z
" style="stroke:#000000;"/>
    <path clip-path="url(#pcec38aa8ad)" d="M 166.624668 124.673237 
L 172.409779 141.573882 
L 170.887712 141.855934 
z
" style="stroke:#000000;"/>
    <path clip-path="url(#pcec38aa8ad)" d="M 204.626842 141.66896 
L 200.279394 159.447541 
L 202.043829 159.313634 
z
" style="stroke:#000000;"/>
    <path clip-path="url(#pcec38aa8ad)" d="M 231.238652 77.051208 
L 230.446294 97.105632 
L 238.853429 83.118676 
z
" style="stroke:#000000;"/>
    <path clip-path="url(#pcec38aa8ad)" d="M 230.446294 257.208693 
L 231.238652 277.262878 
L 238.853429 271.193101 
z
" style="stroke:#000000;"/>
    <path clip-path="url(#pcec38aa8ad)" d="M 201.17943 177.161599 
L 200.279394 194.846569 
L 202.043829 195.009303 
z
" style="stroke:#000000;"/>
    <path clip-path="url(#pcec38aa8ad)" d="M 170.887712 212.447012 
L 168.111476 230.086561 
L 166.624668 229.630989 
z
" style="stroke:#000000;"/>
    <path clip-path="url(#pcec38aa8ad)" d="M 202.043829 159.313634 
L 199.422047 177.147184 
L 201.17943 177.161599 
z
" style="stroke:#000000;"/>
    <path clip-path="url(#pcec38aa8ad)" d="M 160.716774 108.043376 
L 168.111476 124.246664 
L 166.624668 124.673237 
z
" style="stroke:#000000;"/>
    <path clip-path="url(#pcec38aa8ad)" d="M 164.072992 193.842699 
L 166.356335 177.166878 
L 164.883933 177.152375 
z
" style="stroke:#000000;"/>
    <path clip-path="url(#pcec38aa8ad)" d="M 133.802148 291.117586 
L 126.738553 284.346743 
L 136.545355 271.234438 
z
" style="stroke:#000000;"/>
    <path clip-path="url(#pcec38aa8ad)" d="M 126.738553 69.969475 
L 133.802148 63.196508 
L 136.545355 83.078832 
z
" style="stroke:#000000;"/>
    <path clip-path="url(#pcec38aa8ad)" d="M 164.883933 177.152375 
L 165.538682 160.336492 
L 164.072992 160.462295 
z
" style="stroke:#000000;"/>
    <path clip-path="url(#pcec38aa8ad)" d="M 161.648498 210.357369 
L 165.538682 193.997513 
L 164.072992 193.842699 
z
" style="stroke:#000000;"/>
    <path clip-path="url(#pcec38aa8ad)" d="M 222.282536 91.936282 
L 230.446294 97.105632 
L 231.238652 77.051208 
z
" style="stroke:#000000;"/>
    <path clip-path="url(#pcec38aa8ad)" d="M 230.446294 257.208693 
L 222.282536 262.380519 
L 231.238652 277.262878 
z
" style="stroke:#000000;"/>
    <path clip-path="url(#pcec38aa8ad)" d="M 166.624668 229.630989 
L 162.154673 246.858293 
L 160.716774 246.262627 
z
" style="stroke:#000000;"/>
    <path clip-path="url(#pcec38aa8ad)" d="M 164.072992 160.462295 
L 163.094114 143.683667 
L 161.648498 143.948354 
z
" style="stroke:#000000;"/>
    <path clip-path="url(#pcec38aa8ad)" d="M 123.796427 295.255989 
L 133.802148 291.117586 
L 127.940219 297.482584 
z
" style="stroke:#000000;"/>
    <path clip-path="url(#pcec38aa8ad)" d="M 133.802148 63.196508 
L 123.796427 59.061113 
L 127.940219 56.833272 
z
" style="stroke:#000000;"/>
    <path clip-path="url(#pcec38aa8ad)" d="M 157.634888 226.522283 
L 163.094114 210.651078 
L 161.648498 210.357369 
z
" style="stroke:#000000;"/>
    <path clip-path="url(#pcec38aa8ad)" d="M 186.886807 60.176477 
L 204.33469 70.03929 
L 188.540963 59.209548 
z
" style="stroke:#000000;"/>
    <path clip-path="url(#pcec38aa8ad)" d="M 204.33469 70.03929 
L 186.886807 102.55785 
L 188.540963 101.946492 
z
" style="stroke:#000000;"/>
    <path clip-path="url(#pcec38aa8ad)" d="M 133.802148 291.117586 
L 123.796427 295.255989 
L 126.738553 284.346743 
z
" style="stroke:#000000;"/>
    <path clip-path="url(#pcec38aa8ad)" d="M 123.796427 59.061113 
L 133.802148 63.196508 
L 126.738553 69.969475 
z
" style="stroke:#000000;"/>
    <path clip-path="url(#pcec38aa8ad)" d="M 230.446294 97.105632 
L 222.282536 91.936282 
L 223.428969 111.998417 
z
" style="stroke:#000000;"/>
    <path clip-path="url(#pcec38aa8ad)" d="M 222.282536 262.380519 
L 230.446294 257.208693 
L 223.428969 242.318037 
z
" style="stroke:#000000;"/>
    <path clip-path="url(#pcec38aa8ad)" d="M 161.648498 143.948354 
L 159.047253 127.383907 
L 157.634888 127.784646 
z
" style="stroke:#000000;"/>
    <path clip-path="url(#pcec38aa8ad)" d="M 153.223641 92.14232 
L 162.154673 107.476738 
L 160.716774 108.043376 
z
" style="stroke:#000000;"/>
    <path clip-path="url(#pcec38aa8ad)" d="M 152.072892 242.166345 
L 159.047253 226.952066 
L 157.634888 226.522283 
z
" style="stroke:#000000;"/>
    <path clip-path="url(#pcec38aa8ad)" d="M 160.716774 246.262627 
L 154.599435 262.895813 
L 153.223641 262.165935 
z
" style="stroke:#000000;"/>
    <path clip-path="url(#pcec38aa8ad)" d="M 126.738553 284.346743 
L 123.796427 295.255989 
L 119.441042 292.261203 
z
" style="stroke:#000000;"/>
    <path clip-path="url(#pcec38aa8ad)" d="M 123.796427 59.061113 
L 126.738553 69.969475 
L 119.441042 62.057208 
z
" style="stroke:#000000;"/>
    <path clip-path="url(#pcec38aa8ad)" d="M 214.80625 107.788347 
L 223.428969 111.998417 
L 222.282536 91.936282 
z
" style="stroke:#000000;"/>
    <path clip-path="url(#pcec38aa8ad)" d="M 223.428969 242.318037 
L 214.80625 246.53072 
L 222.282536 262.380519 
z
" style="stroke:#000000;"/>
    <path clip-path="url(#pcec38aa8ad)" d="M 157.634888 127.784646 
L 153.43914 111.609683 
L 152.072892 112.142257 
z
" style="stroke:#000000;"/>
    <path clip-path="url(#pcec38aa8ad)" d="M 223.428969 111.998417 
L 214.80625 107.788347 
L 217.883573 127.630038 
z
" style="stroke:#000000;"/>
    <path clip-path="url(#pcec38aa8ad)" d="M 214.80625 246.53072 
L 223.428969 242.318037 
L 217.883573 226.688096 
z
" style="stroke:#000000;"/>
    <path clip-path="url(#pcec38aa8ad)" d="M 144.221507 77.140023 
L 154.599435 91.441508 
L 153.223641 92.14232 
z
" style="stroke:#000000;"/>
    <path clip-path="url(#pcec38aa8ad)" d="M 145.019075 257.12352 
L 153.43914 242.72799 
L 152.072892 242.166345 
z
" style="stroke:#000000;"/>
    <path clip-path="url(#pcec38aa8ad)" d="M 208.897839 124.428572 
L 217.883573 127.630038 
L 214.80625 107.788347 
z
" style="stroke:#000000;"/>
    <path clip-path="url(#pcec38aa8ad)" d="M 217.883573 226.688096 
L 208.897839 229.892287 
L 214.80625 246.53072 
z
" style="stroke:#000000;"/>
    <path clip-path="url(#pcec38aa8ad)" d="M 217.883573 127.630038 
L 208.897839 124.428572 
L 213.875253 143.824078 
z
" style="stroke:#000000;"/>
    <path clip-path="url(#pcec38aa8ad)" d="M 208.897839 229.892287 
L 217.883573 226.688096 
L 213.875253 210.495272 
z
" style="stroke:#000000;"/>
    <path clip-path="url(#pcec38aa8ad)" d="M 152.072892 112.142257 
L 146.32677 96.528366 
L 145.019075 97.187202 
z
" style="stroke:#000000;"/>
    <path clip-path="url(#pcec38aa8ad)" d="M 153.223641 262.165935 
L 145.522577 278.027755 
L 144.221507 277.170938 
z
" style="stroke:#000000;"/>
    <path clip-path="url(#pcec38aa8ad)" d="M 186.886807 51.700202 
L 164.76843 67.533488 
L 188.540963 50.662159 
z
" style="stroke:#000000;"/>
    <path clip-path="url(#pcec38aa8ad)" d="M 164.76843 67.533488 
L 186.886807 119.5104 
L 188.540963 119.04127 
z
" style="stroke:#000000;"/>
    <path clip-path="url(#pcec38aa8ad)" d="M 213.875253 143.824078 
L 204.626842 141.66896 
L 211.451233 160.396855 
z
" style="stroke:#000000;"/>
    <path clip-path="url(#pcec38aa8ad)" d="M 204.626842 212.653193 
L 213.875253 210.495272 
L 211.451233 193.92323 
z
" style="stroke:#000000;"/>
    <path clip-path="url(#pcec38aa8ad)" d="M 171.179088 70.628331 
L 188.540963 59.209548 
L 172.703564 69.747876 
z
" style="stroke:#000000;"/>
    <path clip-path="url(#pcec38aa8ad)" d="M 188.540963 101.946492 
L 171.179088 70.628331 
L 172.703564 69.747876 
z
" style="stroke:#000000;"/>
    <path clip-path="url(#pcec38aa8ad)" d="M 204.626842 141.66896 
L 213.875253 143.824078 
L 208.897839 124.428572 
z
" style="stroke:#000000;"/>
    <path clip-path="url(#pcec38aa8ad)" d="M 213.875253 210.495272 
L 204.626842 212.653193 
L 208.897839 229.892287 
z
" style="stroke:#000000;"/>
    <path clip-path="url(#pcec38aa8ad)" d="M 202.043829 195.009303 
L 211.451233 193.92323 
L 210.639993 177.160165 
z
" style="stroke:#000000;"/>
    <path clip-path="url(#pcec38aa8ad)" d="M 211.451233 160.396855 
L 202.043829 159.313634 
L 210.639993 177.160165 
z
" style="stroke:#000000;"/>
    <path clip-path="url(#pcec38aa8ad)" d="M 136.545355 271.234438 
L 146.32677 257.811463 
L 145.019075 257.12352 
z
" style="stroke:#000000;"/>
    <path clip-path="url(#pcec38aa8ad)" d="M 175.006188 195.055578 
L 174.324076 177.150956 
L 175.874546 177.165436 
z
" style="stroke:#000000;"/>
    <path clip-path="url(#pcec38aa8ad)" d="M 175.874546 177.165436 
L 173.462835 159.410094 
L 175.006188 159.275556 
z
" style="stroke:#000000;"/>
    <path clip-path="url(#pcec38aa8ad)" d="M 133.802148 63.196508 
L 145.522577 76.312318 
L 144.221507 77.140023 
z
" style="stroke:#000000;"/>
    <path clip-path="url(#pcec38aa8ad)" d="M 202.043829 159.313634 
L 211.451233 160.396855 
L 204.626842 141.66896 
z
" style="stroke:#000000;"/>
    <path clip-path="url(#pcec38aa8ad)" d="M 211.451233 193.92323 
L 202.043829 195.009303 
L 204.626842 212.653193 
z
" style="stroke:#000000;"/>
    <path clip-path="url(#pcec38aa8ad)" d="M 172.409779 212.758039 
L 173.462835 194.892077 
L 175.006188 195.055578 
z
" style="stroke:#000000;"/>
    <path clip-path="url(#pcec38aa8ad)" d="M 175.006188 159.275556 
L 170.887712 141.855934 
L 172.409779 141.573882 
z
" style="stroke:#000000;"/>
    <path clip-path="url(#pcec38aa8ad)" d="M 145.019075 97.187202 
L 137.782614 82.300616 
L 136.545355 83.078832 
z
" style="stroke:#000000;"/>
    <path clip-path="url(#pcec38aa8ad)" d="M 201.17943 177.161599 
L 210.639993 177.160165 
L 202.043829 159.313634 
z
" style="stroke:#000000;"/>
    <path clip-path="url(#pcec38aa8ad)" d="M 210.639993 177.160165 
L 201.17943 177.161599 
L 202.043829 195.009303 
z
" style="stroke:#000000;"/>
    <path clip-path="url(#pcec38aa8ad)" d="M 168.111476 230.086561 
L 170.887712 212.447012 
L 172.409779 212.758039 
z
" style="stroke:#000000;"/>
    <path clip-path="url(#pcec38aa8ad)" d="M 144.221507 277.170938 
L 135.016583 292.092742 
L 133.802148 291.117586 
z
" style="stroke:#000000;"/>
    <path clip-path="url(#pcec38aa8ad)" d="M 188.540963 50.662159 
L 204.33469 70.03929 
L 212.215233 67.979462 
z
" style="stroke:#000000;"/>
    <path clip-path="url(#pcec38aa8ad)" d="M 188.540963 101.946492 
L 212.215233 67.979462 
L 204.33469 70.03929 
z
" style="stroke:#000000;"/>
    <path clip-path="url(#pcec38aa8ad)" d="M 172.409779 141.573882 
L 166.624668 124.673237 
L 168.111476 124.246664 
z
" style="stroke:#000000;"/>
    <path clip-path="url(#pcec38aa8ad)" d="M 126.738553 284.346743 
L 137.782614 272.041804 
L 136.545355 271.234438 
z
" style="stroke:#000000;"/>
    <path clip-path="url(#pcec38aa8ad)" d="M 162.154673 246.858293 
L 166.624668 229.630989 
L 168.111476 230.086561 
z
" style="stroke:#000000;"/>
    <path clip-path="url(#pcec38aa8ad)" d="M 165.538682 160.336492 
L 164.883933 177.152375 
L 166.356335 177.166878 
z
" style="stroke:#000000;"/>
    <path clip-path="url(#pcec38aa8ad)" d="M 166.356335 177.166878 
L 164.072992 193.842699 
L 165.538682 193.997513 
z
" style="stroke:#000000;"/>
    <path clip-path="url(#pcec38aa8ad)" d="M 127.940219 56.833272 
L 135.016583 62.250516 
L 133.802148 63.196508 
z
" style="stroke:#000000;"/>
    <path clip-path="url(#pcec38aa8ad)" d="M 163.094114 143.683667 
L 164.072992 160.462295 
L 165.538682 160.336492 
z
" style="stroke:#000000;"/>
    <path clip-path="url(#pcec38aa8ad)" d="M 188.540963 101.946492 
L 188.540963 119.04127 
L 212.215233 67.979462 
z
" style="stroke:#000000;"/>
    <path clip-path="url(#pcec38aa8ad)" d="M 168.111476 124.246664 
L 160.716774 108.043376 
L 162.154673 107.476738 
z
" style="stroke:#000000;"/>
    <path clip-path="url(#pcec38aa8ad)" d="M 165.538682 193.997513 
L 161.648498 210.357369 
L 163.094114 210.651078 
z
" style="stroke:#000000;"/>
    <path clip-path="url(#pcec38aa8ad)" d="M 136.545355 83.078832 
L 127.894163 69.080023 
L 126.738553 69.969475 
z
" style="stroke:#000000;"/>
    <path clip-path="url(#pcec38aa8ad)" d="M 133.802148 291.117586 
L 129.105842 298.511919 
L 127.940219 297.482584 
z
" style="stroke:#000000;"/>
    <path clip-path="url(#pcec38aa8ad)" d="M 188.540963 50.662159 
L 188.540963 59.209548 
L 204.33469 70.03929 
z
" style="stroke:#000000;"/>
    <path clip-path="url(#pcec38aa8ad)" d="M 159.047253 127.383907 
L 161.648498 143.948354 
L 163.094114 143.683667 
z
" style="stroke:#000000;"/>
    <path clip-path="url(#pcec38aa8ad)" d="M 163.094114 210.651078 
L 157.634888 226.522283 
L 159.047253 226.952066 
z
" style="stroke:#000000;"/>
    <path clip-path="url(#pcec38aa8ad)" d="M 129.105842 298.511919 
L 123.796427 295.255989 
L 127.940219 297.482584 
z
" style="stroke:#000000;"/>
    <path clip-path="url(#pcec38aa8ad)" d="M 154.599435 262.895813 
L 160.716774 246.262627 
L 162.154673 246.858293 
z
" style="stroke:#000000;"/>
    <path clip-path="url(#pcec38aa8ad)" d="M 124.927514 58.079404 
L 127.940219 56.833272 
L 123.796427 59.061113 
z
" style="stroke:#000000;"/>
    <path clip-path="url(#pcec38aa8ad)" d="M 127.894163 69.080023 
L 119.441042 62.057208 
L 126.738553 69.969475 
z
" style="stroke:#000000;"/>
    <path clip-path="url(#pcec38aa8ad)" d="M 153.43914 111.609683 
L 157.634888 127.784646 
L 159.047253 127.383907 
z
" style="stroke:#000000;"/>
    <path clip-path="url(#pcec38aa8ad)" d="M 162.154673 107.476738 
L 153.223641 92.14232 
L 154.599435 91.441508 
z
" style="stroke:#000000;"/>
    <path clip-path="url(#pcec38aa8ad)" d="M 124.927514 296.266913 
L 119.441042 292.261203 
L 123.796427 295.255989 
z
" style="stroke:#000000;"/>
    <path clip-path="url(#pcec38aa8ad)" d="M 159.047253 226.952066 
L 152.072892 242.166345 
L 153.43914 242.72799 
z
" style="stroke:#000000;"/>
    <path clip-path="url(#pcec38aa8ad)" d="M 120.535802 293.247238 
L 126.738553 284.346743 
L 119.441042 292.261203 
z
" style="stroke:#000000;"/>
    <path clip-path="url(#pcec38aa8ad)" d="M 120.535802 61.100411 
L 123.796427 59.061113 
L 119.441042 62.057208 
z
" style="stroke:#000000;"/>
    <path clip-path="url(#pcec38aa8ad)" d="M 145.522577 278.027755 
L 153.223641 262.165935 
L 154.599435 262.895813 
z
" style="stroke:#000000;"/>
    <path clip-path="url(#pcec38aa8ad)" d="M 188.540963 50.662159 
L 172.703564 69.747876 
L 188.540963 59.209548 
z
" style="stroke:#000000;"/>
    <path clip-path="url(#pcec38aa8ad)" d="M 146.32677 96.528366 
L 152.072892 112.142257 
L 153.43914 111.609683 
z
" style="stroke:#000000;"/>
    <path clip-path="url(#pcec38aa8ad)" d="M 153.43914 242.72799 
L 145.019075 257.12352 
L 146.32677 257.811463 
z
" style="stroke:#000000;"/>
    <path clip-path="url(#pcec38aa8ad)" d="M 188.540963 101.946492 
L 164.76843 67.533488 
L 188.540963 119.04127 
z
" style="stroke:#000000;"/>
    <path clip-path="url(#pcec38aa8ad)" d="M 154.599435 91.441508 
L 144.221507 77.140023 
L 145.522577 76.312318 
z
" style="stroke:#000000;"/>
    <path clip-path="url(#pcec38aa8ad)" d="M 137.782614 82.300616 
L 145.019075 97.187202 
L 146.32677 96.528366 
z
" style="stroke:#000000;"/>
    <path clip-path="url(#pcec38aa8ad)" d="M 172.703564 69.747876 
L 188.540963 50.662159 
L 164.76843 67.533488 
z
" style="stroke:#000000;"/>
    <path clip-path="url(#pcec38aa8ad)" d="M 164.76843 67.533488 
L 188.540963 101.946492 
L 172.703564 69.747876 
z
" style="stroke:#000000;"/>
    <path clip-path="url(#pcec38aa8ad)" d="M 135.016583 292.092742 
L 144.221507 277.170938 
L 145.522577 278.027755 
z
" style="stroke:#000000;"/>
    <path clip-path="url(#pcec38aa8ad)" d="M 146.32677 257.811463 
L 136.545355 271.234438 
L 137.782614 272.041804 
z
" style="stroke:#000000;"/>
    <path clip-path="url(#pcec38aa8ad)" d="M 166.356335 177.166878 
L 175.874546 177.165436 
L 175.006188 159.275556 
z
" style="stroke:#000000;"/>
    <path clip-path="url(#pcec38aa8ad)" d="M 175.874546 177.165436 
L 166.356335 177.166878 
L 175.006188 195.055578 
z
" style="stroke:#000000;"/>
    <path clip-path="url(#pcec38aa8ad)" d="M 165.538682 160.336492 
L 175.006188 159.275556 
L 172.409779 141.573882 
z
" style="stroke:#000000;"/>
    <path clip-path="url(#pcec38aa8ad)" d="M 175.006188 195.055578 
L 165.538682 193.997513 
L 172.409779 212.758039 
z
" style="stroke:#000000;"/>
    <path clip-path="url(#pcec38aa8ad)" d="M 145.522577 76.312318 
L 133.802148 63.196508 
L 135.016583 62.250516 
z
" style="stroke:#000000;"/>
    <path clip-path="url(#pcec38aa8ad)" d="M 165.538682 193.997513 
L 175.006188 195.055578 
L 166.356335 177.166878 
z
" style="stroke:#000000;"/>
    <path clip-path="url(#pcec38aa8ad)" d="M 175.006188 159.275556 
L 165.538682 160.336492 
L 166.356335 177.166878 
z
" style="stroke:#000000;"/>
    <path clip-path="url(#pcec38aa8ad)" d="M 163.094114 143.683667 
L 172.409779 141.573882 
L 168.111476 124.246664 
z
" style="stroke:#000000;"/>
    <path clip-path="url(#pcec38aa8ad)" d="M 172.409779 212.758039 
L 163.094114 210.651078 
L 168.111476 230.086561 
z
" style="stroke:#000000;"/>
    <path clip-path="url(#pcec38aa8ad)" d="M 172.409779 141.573882 
L 163.094114 143.683667 
L 165.538682 160.336492 
z
" style="stroke:#000000;"/>
    <path clip-path="url(#pcec38aa8ad)" d="M 163.094114 210.651078 
L 172.409779 212.758039 
L 165.538682 193.997513 
z
" style="stroke:#000000;"/>
    <path clip-path="url(#pcec38aa8ad)" d="M 127.894163 69.080023 
L 136.545355 83.078832 
L 137.782614 82.300616 
z
" style="stroke:#000000;"/>
    <path clip-path="url(#pcec38aa8ad)" d="M 129.105842 298.511919 
L 133.802148 291.117586 
L 135.016583 292.092742 
z
" style="stroke:#000000;"/>
    <path clip-path="url(#pcec38aa8ad)" d="M 168.111476 124.246664 
L 159.047253 127.383907 
L 163.094114 143.683667 
z
" style="stroke:#000000;"/>
    <path clip-path="url(#pcec38aa8ad)" d="M 159.047253 226.952066 
L 168.111476 230.086561 
L 163.094114 210.651078 
z
" style="stroke:#000000;"/>
    <path clip-path="url(#pcec38aa8ad)" d="M 137.782614 272.041804 
L 126.738553 284.346743 
L 127.894163 285.265395 
z
" style="stroke:#000000;"/>
    <path clip-path="url(#pcec38aa8ad)" d="M 135.016583 62.250516 
L 127.940219 56.833272 
L 129.105842 55.833132 
z
" style="stroke:#000000;"/>
    <path clip-path="url(#pcec38aa8ad)" d="M 159.047253 127.383907 
L 168.111476 124.246664 
L 162.154673 107.476738 
z
" style="stroke:#000000;"/>
    <path clip-path="url(#pcec38aa8ad)" d="M 168.111476 230.086561 
L 159.047253 226.952066 
L 162.154673 246.858293 
z
" style="stroke:#000000;"/>
    <path clip-path="url(#pcec38aa8ad)" d="M 127.940219 56.833272 
L 124.927514 58.079404 
L 129.105842 55.833132 
z
" style="stroke:#000000;"/>
    <path clip-path="url(#pcec38aa8ad)" d="M 123.796427 295.255989 
L 129.105842 298.511919 
L 124.927514 296.266913 
z
" style="stroke:#000000;"/>
    <path clip-path="url(#pcec38aa8ad)" d="M 162.154673 107.476738 
L 153.43914 111.609683 
L 159.047253 127.383907 
z
" style="stroke:#000000;"/>
    <path clip-path="url(#pcec38aa8ad)" d="M 153.43914 242.72799 
L 162.154673 246.858293 
L 159.047253 226.952066 
z
" style="stroke:#000000;"/>
    <path clip-path="url(#pcec38aa8ad)" d="M 126.738553 284.346743 
L 120.535802 293.247238 
L 127.894163 285.265395 
z
" style="stroke:#000000;"/>
    <path clip-path="url(#pcec38aa8ad)" d="M 153.43914 111.609683 
L 162.154673 107.476738 
L 154.599435 91.441508 
z
" style="stroke:#000000;"/>
    <path clip-path="url(#pcec38aa8ad)" d="M 162.154673 246.858293 
L 153.43914 242.72799 
L 154.599435 262.895813 
z
" style="stroke:#000000;"/>
    <path clip-path="url(#pcec38aa8ad)" d="M 123.796427 59.061113 
L 120.535802 61.100411 
L 124.927514 58.079404 
z
" style="stroke:#000000;"/>
    <path clip-path="url(#pcec38aa8ad)" d="M 119.441042 62.057208 
L 127.894163 69.080023 
L 120.535802 61.100411 
z
" style="stroke:#000000;"/>
    <path clip-path="url(#pcec38aa8ad)" d="M 119.441042 292.261203 
L 124.927514 296.266913 
L 120.535802 293.247238 
z
" style="stroke:#000000;"/>
    <path clip-path="url(#pcec38aa8ad)" d="M 154.599435 91.441508 
L 146.32677 96.528366 
L 153.43914 111.609683 
z
" style="stroke:#000000;"/>
    <path clip-path="url(#pcec38aa8ad)" d="M 146.32677 257.811463 
L 154.599435 262.895813 
L 153.43914 242.72799 
z
" style="stroke:#000000;"/>
    <path clip-path="url(#pcec38aa8ad)" d="M 145.522577 76.312318 
L 146.32677 96.528366 
L 154.599435 91.441508 
z
" style="stroke:#000000;"/>
    <path clip-path="url(#pcec38aa8ad)" d="M 146.32677 257.811463 
L 145.522577 278.027755 
L 154.599435 262.895813 
z
" style="stroke:#000000;"/>
    <path clip-path="url(#pcec38aa8ad)" d="M 145.522577 76.312318 
L 137.782614 82.300616 
L 146.32677 96.528366 
z
" style="stroke:#000000;"/>
    <path clip-path="url(#pcec38aa8ad)" d="M 137.782614 272.041804 
L 145.522577 278.027755 
L 146.32677 257.811463 
z
" style="stroke:#000000;"/>
    <path clip-path="url(#pcec38aa8ad)" d="M 135.016583 62.250516 
L 137.782614 82.300616 
L 145.522577 76.312318 
z
" style="stroke:#000000;"/>
    <path clip-path="url(#pcec38aa8ad)" d="M 137.782614 272.041804 
L 135.016583 292.092742 
L 145.522577 278.027755 
z
" style="stroke:#000000;"/>
    <path clip-path="url(#pcec38aa8ad)" d="M 135.016583 62.250516 
L 127.894163 69.080023 
L 137.782614 82.300616 
z
" style="stroke:#000000;"/>
    <path clip-path="url(#pcec38aa8ad)" d="M 127.894163 285.265395 
L 135.016583 292.092742 
L 137.782614 272.041804 
z
" style="stroke:#000000;"/>
    <path clip-path="url(#pcec38aa8ad)" d="M 124.927514 58.079404 
L 135.016583 62.250516 
L 129.105842 55.833132 
z
" style="stroke:#000000;"/>
    <path clip-path="url(#pcec38aa8ad)" d="M 135.016583 292.092742 
L 124.927514 296.266913 
L 129.105842 298.511919 
z
" style="stroke:#000000;"/>
    <path clip-path="url(#pcec38aa8ad)" d="M 135.016583 62.250516 
L 124.927514 58.079404 
L 127.894163 69.080023 
z
" style="stroke:#000000;"/>
    <path clip-path="url(#pcec38aa8ad)" d="M 124.927514 296.266913 
L 135.016583 292.092742 
L 127.894163 285.265395 
z
" style="stroke:#000000;"/>
    <path clip-path="url(#pcec38aa8ad)" d="M 127.894163 69.080023 
L 124.927514 58.079404 
L 120.535802 61.100411 
z
" style="stroke:#000000;"/>
    <path clip-path="url(#pcec38aa8ad)" d="M 124.927514 296.266913 
L 127.894163 285.265395 
L 120.535802 293.247238 
z
" style="stroke:#000000;"/>
   </g>
  </g>
 </g>
 <defs>
  <clipPath id="pcec38aa8ad">
   <rect height="271.8" width="279" x="45" y="43.2"/>
  </clipPath>
 </defs>
</svg>
